<svg xmlns="http://www.w3.org/2000/svg" width="553.918" height="429.088" viewBox="0 0 553.918 429.088">
  <g id="Group_2415" data-name="Group 2415" transform="translate(32.382 -415)">
    <g id="Pancake_top" data-name="Pancake top" transform="translate(20.579 421)">
      <g id="Group_255" data-name="Group 255" transform="translate(0 0)">
        <ellipse id="Ellipse_31" data-name="Ellipse 31" cx="68.897" cy="68.897" rx="68.897" ry="68.897"/>
      </g>
      <g id="Group_263" data-name="Group 263" transform="translate(11.807 11.779)">
        <g id="Group_256" data-name="Group 256" transform="translate(1.488)">
          <ellipse id="Ellipse_32" data-name="Ellipse 32" cx="63.613" cy="63.613" rx="63.613" ry="63.613" fill="#fff"/>
        </g>
        <g id="Group_257" data-name="Group 257" transform="translate(17.271 15.783)">
          <ellipse id="Ellipse_33" data-name="Ellipse 33" cx="47.831" cy="47.831" rx="47.831" ry="47.831" fill="#c9d6e8"/>
        </g>
        <g id="Group_258" data-name="Group 258" transform="translate(12.995 11.507)">
          <path id="Path_790" data-name="Path 790" d="M5820.8,808.94q-2.023.955-4.084,1.722" transform="translate(-5746.456 -709.723)" fill="none" stroke="#0d0d0c" stroke-linecap="round" stroke-linejoin="round" stroke-width="2"/>
          <path id="Path_791" data-name="Path 791" d="M5654.266,602.572a52.108,52.108,0,1,1,44.042-34.821" transform="translate(-5596.968 -498.616)" fill="none" stroke="#0d0d0c" stroke-linecap="round" stroke-linejoin="round" stroke-width="2"/>
        </g>
        <path id="Path_792" data-name="Path 792" d="M5604.934,579.133c-16.63-19.4-12.374-45.875,1.813-58.127,10.367-8.954,24.79-11.055,32.363-8.8,0,0,6.135-2.5,20.916.172s24.417,18.56,27.321,30.736Z" transform="translate(-5582.072 -495.632)" fill="#080b0a"/>
        <g id="Group_262" data-name="Group 262" transform="translate(0 5.403)">
          <circle id="Ellipse_34" data-name="Ellipse 34" cx="38.747" cy="38.747" r="38.747" transform="translate(9.074 62.498) rotate(-45)" fill="#fdd89b"/>
          <path id="Path_793" data-name="Path 793" d="M5711.686,584.368c3.683,12.175,1.54,26.138-6.3,36.14s-21.394,15.469-33.882,12.929a48.111,48.111,0,0,1-28.73-20.613,33.16,33.16,0,0,1-1.672-29.569c4.86-11.026,15.773-18.678,27.514-21.494,12.141-2.911,26.115-.642,34.875,8.26A34.673,34.673,0,0,1,5711.686,584.368Z" transform="translate(-5612.155 -534.655)" fill="#c78c50"/>
          <g id="Group_260" data-name="Group 260" transform="translate(28.464 35.202)">
            <path id="Path_794" data-name="Path 794" d="M5832.6,599.706a.782.782,0,1,1-.472-1A.782.782,0,0,1,5832.6,599.706Z" transform="translate(-5771.698 -595.773)" fill="#f79922"/>
            <path id="Path_795" data-name="Path 795" d="M5782.747,624.622a.782.782,0,1,1-.473-1A.782.782,0,0,1,5782.747,624.622Z" transform="translate(-5737.786 -612.722)" fill="#f79922"/>
            <ellipse id="Ellipse_35" data-name="Ellipse 35" cx="0.234" cy="0.234" rx="0.234" ry="0.234" transform="translate(54.939 10.972)" fill="#f79922"/>
            <ellipse id="Ellipse_36" data-name="Ellipse 36" cx="0.572" cy="0.572" rx="0.572" ry="0.572" transform="translate(59.937 17.513)" fill="#f79922"/>
            <g id="Group_259" data-name="Group 259" transform="translate(13.467 29.321)">
              <ellipse id="Ellipse_37" data-name="Ellipse 37" cx="1.113" cy="1.113" rx="1.113" ry="1.113" fill="#f79922"/>
            </g>
            <ellipse id="Ellipse_38" data-name="Ellipse 38" cx="0.704" cy="0.704" rx="0.704" ry="0.704" transform="translate(59.079 40.191)" fill="#f79922"/>
            <ellipse id="Ellipse_39" data-name="Ellipse 39" cx="1.18" cy="1.18" rx="1.18" ry="1.18" transform="translate(47.336 42.61)" fill="#f79922"/>
            <path id="Path_796" data-name="Path 796" d="M5702.517,729.883a.915.915,0,1,1-.552-1.17A.915.915,0,0,1,5702.517,729.883Z" transform="translate(-5683.031 -684.208)" fill="#f79922"/>
            <path id="Path_797" data-name="Path 797" d="M5738.247,723.028a.427.427,0,1,1-.257-.545A.426.426,0,0,1,5738.247,723.028Z" transform="translate(-5707.983 -679.989)" fill="#f79922"/>
            <ellipse id="Ellipse_40" data-name="Ellipse 40" cx="1.285" cy="1.285" rx="1.285" ry="1.285" transform="translate(8.097 18.343)" fill="#f79922"/>
            <ellipse id="Ellipse_41" data-name="Ellipse 41" cx="0.584" cy="0.584" rx="0.584" ry="0.584" transform="translate(38.897 0.468)" fill="#f79922"/>
            <ellipse id="Ellipse_42" data-name="Ellipse 42" cx="1.402" cy="1.402" rx="1.402" ry="1.402" transform="translate(16.753)" fill="#f79922"/>
            <path id="Path_798" data-name="Path 798" d="M5800.063,597.188l-.373-.134-.373-.134.373.134Z" transform="translate(-5750.091 -594.59)" fill="#f79922"/>
            <path id="Path_799" data-name="Path 799" d="M5837.9,700.983a.919.919,0,1,1-.555-1.176A.92.92,0,0,1,5837.9,700.983Z" transform="translate(-5775.125 -664.544)" fill="#f79922"/>
            <ellipse id="Ellipse_43" data-name="Ellipse 43" cx="0.704" cy="0.704" rx="0.704" ry="0.704" transform="translate(47.835 30.62)" fill="#f79922"/>
            <ellipse id="Ellipse_44" data-name="Ellipse 44" cx="0.704" cy="0.704" rx="0.704" ry="0.704" transform="translate(23.416 11.936)" fill="#f79922"/>
            <path id="Path_800" data-name="Path 800" d="M5802.733,671.047a.919.919,0,1,1-.555-1.176A.919.919,0,0,1,5802.733,671.047Z" transform="translate(-5751.201 -644.179)" fill="#f79922"/>
            <ellipse id="Ellipse_45" data-name="Ellipse 45" cx="1.475" cy="1.475" rx="1.475" ry="1.475" transform="translate(33.885 53.22)" fill="#f79922"/>
            <ellipse id="Ellipse_46" data-name="Ellipse 46" cx="0.818" cy="0.818" rx="0.818" ry="0.818" transform="translate(4.012 42.228)" fill="#fcb830"/>
            <path id="Path_801" data-name="Path 801" d="M5647.587,691.345a1.151,1.151,0,1,1-.694-1.472A1.151,1.151,0,0,1,5647.587,691.345Z" transform="translate(-5645.353 -657.777)" fill="#fcb830"/>
            <ellipse id="Ellipse_47" data-name="Ellipse 47" cx="0.458" cy="0.458" rx="0.458" ry="0.458" transform="translate(1.834 38.564)" fill="#fcb830"/>
            <ellipse id="Ellipse_48" data-name="Ellipse 48" cx="0.526" cy="0.526" rx="0.526" ry="0.526" transform="translate(69.173 12.726)" fill="#fcb830"/>
          </g>
          <circle id="Ellipse_49" data-name="Ellipse 49" cx="38.747" cy="38.747" r="38.747" transform="translate(13.878 54.796) rotate(-45)" fill="#fdd89b"/>
          <path id="Path_802" data-name="Path 802" d="M5726.712,560.278c3.683,12.175,1.54,26.138-6.3,36.14s-21.394,15.469-33.882,12.929a48.11,48.11,0,0,1-28.73-20.613,33.158,33.158,0,0,1-1.672-29.569c4.86-11.026,15.773-18.678,27.514-21.494,12.141-2.911,26.116-.643,34.875,8.26A34.672,34.672,0,0,1,5726.712,560.278Z" transform="translate(-5622.376 -518.267)" fill="#c78c50"/>
          <path id="Path_803" data-name="Path 803" d="M5812.2,555.868c5.036,5.832,9.03,12.555,10.376,20.24A48.215,48.215,0,0,1,5823,589.5c0-.012.008-.023.012-.034,2.888-9.562,1.835-20.073-1.915-29.331-1.989-4.913-4.848-9.668-9.2-12.692-3.78-2.625-8.4-3.75-12.963-4.347-.269-.035-.539-.063-.808-.095A70.07,70.07,0,0,1,5812.2,555.868Z" transform="translate(-5720.814 -522.706)" fill="#fdd89b"/>
          <path id="Path_804" data-name="Path 804" d="M5714.9,591.467a39.721,39.721,0,0,0-29.545-52.385c-.576.114-1.151.227-1.719.363-11.741,2.816-22.654,10.468-27.514,21.494a33.158,33.158,0,0,0,1.672,29.57,48.109,48.109,0,0,0,28.73,20.613,32.419,32.419,0,0,0,13.2-.145A39.541,39.541,0,0,0,5714.9,591.467Z" transform="translate(-5622.376 -520.041)" fill="#080b0a"/>
          <path id="Path_805" data-name="Path 805" d="M5742.544,755.966c-3.37.753-5.682,1.291-6,2.523,0,0-9.659,4.261-20.187,1.276l21.625-7.55Z" transform="translate(-5665.193 -665.031)" fill="#080b0a"/>
          <g id="Group_261" data-name="Group 261" transform="translate(0 1.354)">
            <circle id="Ellipse_50" data-name="Ellipse 50" cx="38.747" cy="38.747" r="38.747" transform="translate(0 54.796) rotate(-45)" fill="#fdd89b"/>
            <path id="Path_806" data-name="Path 806" d="M5683.306,564.513c3.683,12.175,1.54,26.138-6.3,36.14s-21.394,15.469-33.882,12.929a48.107,48.107,0,0,1-28.73-20.613,33.158,33.158,0,0,1-1.672-29.57c4.86-11.025,15.773-18.678,27.514-21.494,12.141-2.912,26.116-.643,34.875,8.26A34.67,34.67,0,0,1,5683.306,564.513Z" transform="translate(-5592.848 -522.501)" fill="#c78c50"/>
            <path id="Path_807" data-name="Path 807" d="M5665.052,568.25a7.262,7.262,0,0,0-1.429,1.122c-1.136,1.133-2.146,2.469-3.6,3.151-2.292,1.075-5.028.236-7.5.78a6.782,6.782,0,0,0-4.776,9.293c1.554,3.627,4.79,6.011,3.144,10.4-1.381,3.687-5.27,6.83-4.12,11.177.771,2.909,3.745,4.608,6.535,5.736s5.873,2.16,7.583,4.637c1.056,1.529,1.435,3.416,2.235,5.093s2.318,3.279,4.174,3.19c2-.1,3.337-2.027,5.028-3.1a10.338,10.338,0,0,1,6.485-1.114,43.519,43.519,0,0,0,6.672.533c2.229-.145,4.567-1.051,5.721-2.964,1.814-3.007,0-5.58-.474-8.53a9.124,9.124,0,0,1,2.038-7.363c1.074-1.23,2.464-2.141,3.62-3.3a5.553,5.553,0,0,0,1.925-4.324c-.225-2.015-2.054-3.415-3.758-4.513s-3.591-2.339-4.063-4.31c-.412-1.716.387-3.467.552-5.224a7.3,7.3,0,0,0-10.2-7.371c-1.164.51-2.18,1.317-3.351,1.809-3.847,1.618-4.936-1.973-7.106-4.169A4.089,4.089,0,0,0,5665.052,568.25Z" transform="translate(-5617.711 -540.761)" fill="#fafafa"/>
            <path id="Path_808" data-name="Path 808" d="M5763.126,607.926a8.084,8.084,0,0,0-1.914,9.181c-1.882-.708-2.395-3.249-1.781-5.164s1.993-3.48,2.9-5.275,1.249-4.179-.1-5.667c-.8-.879-2.012-1.245-2.953-1.971-1.875-1.449-2.374-4.068-2.346-6.438s.438-4.789-.172-7.079-2.7-4.447-5.042-4.073a6.156,6.156,0,0,1,9.718,4.5c.12,1.451-.277,2.9-.268,4.352a7.92,7.92,0,0,0,2.433,5.621c.985.937,2.2,1.6,3.236,2.477a4.06,4.06,0,0,1-.164,7.041C5765.533,606.322,5764.208,606.966,5763.126,607.926Z" transform="translate(-5689.245 -549.439)" fill="#c9d6e8"/>
            <path id="Path_809" data-name="Path 809" d="M5653.8,580.984a4.332,4.332,0,0,1,3.327-3.018,32.527,32.527,0,0,1,4.705-.5,14.057,14.057,0,0,0,9.108-4.918,21.25,21.25,0,0,1-2.41,4.5,7.132,7.132,0,0,1-4.145,2.808c-1.834.357-3.7-.27-5.549-.517S5654.793,579.4,5653.8,580.984Z" transform="translate(-5622.638 -544.163)" fill="#c9d6e8"/>
            <path id="Path_810" data-name="Path 810" d="M5680.971,706.546a16.807,16.807,0,0,0,1.316,2.982,3.176,3.176,0,0,0,2.684,1.585c1.509-.1,2.452-1.6,3.574-2.618a6.508,6.508,0,0,1,6.429-1.271,3.475,3.475,0,0,0-3.566-.935,22.053,22.053,0,0,0-3.576,1.537,4.964,4.964,0,0,1-3.777.368c-1.745-.7-2.422-2.745-3.356-4.377a11.014,11.014,0,0,0-8.848-5.424A14.236,14.236,0,0,1,5680.971,706.546Z" transform="translate(-5634.913 -629.771)" fill="#c9d6e8"/>
          </g>
        </g>
      </g>
    </g>
    <g id="Fork" transform="translate(155.917 427.871)">
      <path id="Path_811" data-name="Path 811" d="M5970.356,458l-.282-1.1s-.262-.259.822-.6l16.8-4.831s.3-.339-1.21-.146l-16.566,3.728s-.529-.19-.677-1.324l17.258-4.883s1.205-.635-.171-.412l-17.426,4.079s-.707-1.382.042-1.509l17.4-5.05s.726-.968-2.878.217l-14.9,3.366s-1.182-.544-.284-1.36l16.829-5.75s7.028-1.8,9.257-.225c0,0,3.82,1.691,4.859,1.424l24.659-6.716,24.887-6.84s4.724-1.258,5.683.45c0,0,1.5,2.807-.128,4.071l-31.483,7.145-22.54,5.326a6.225,6.225,0,0,0-2.738,2.787,11.223,11.223,0,0,1-6.417,4.186s-12.375,3.3-17.638,3.612Z" transform="translate(-5967.954 -429.621)"/>
      <path id="Path_812" data-name="Path 812" d="M5980.956,461.944l-.282-1.1s-.262-.258.823-.6l16.8-4.832s.3-.338-1.21-.145l-16.566,3.728s-.529-.19-.677-1.325l17.259-4.883s1.205-.635-.171-.412l-17.426,4.079s-.707-1.382.042-1.509l17.4-5.05s.726-.968-2.878.217l-14.9,3.366s-1.182-.544-.284-1.36l16.829-5.75s7.029-1.8,9.258-.225c0,0,3.82,1.69,4.859,1.424l24.659-6.716,24.886-6.84s2.3-1.177,3.263.531c0,0,1.5,2.807-.127,4.071l-29.064,7.064L6010.914,451a6.223,6.223,0,0,0-2.737,2.786,11.223,11.223,0,0,1-6.417,4.186s-12.375,3.3-17.638,3.613Z" transform="translate(-5975.166 -432.338)" fill="#fff"/>
      <path id="Path_813" data-name="Path 813" d="M6067.512,478.582s-.963-.706-.941-1.383a14.709,14.709,0,0,1,.177-1.6s-3.658-.675-4.116-1.191a6.567,6.567,0,0,1,1.452,2.8,12.715,12.715,0,0,1,.225,4.877,10.085,10.085,0,0,1,1.5-2.144S6067.111,478.3,6067.512,478.582Z" transform="translate(-6032.361 -460.091)" fill="#c9d6e8"/>
      <path id="Path_814" data-name="Path 814" d="M6127.953,439.1a2.721,2.721,0,0,0-.964-3.759l-51.63,13.683-.069.461,49.54-13.1s2.112-.786,2.536.424A3.732,3.732,0,0,1,6127.953,439.1Z" transform="translate(-6040.972 -433.511)" fill="#c9d6e8"/>
      <path id="Path_815" data-name="Path 815" d="M5978.517,486.174s.462.735.89.626l15.1-3.482,1.253-.321s1.043-.323,1.2.187a14.847,14.847,0,0,0-3.6.605l-11.634,2.628-2.588.585S5978.342,486.542,5978.517,486.174Z" transform="translate(-5975.122 -465.863)" fill="#fff"/>
    </g>
    <path id="Path_985" data-name="Path 985" d="M5707.548,732.319l32.369-67.123,67.619-61.1,28.379-43.2,71.827-20.955-5.384-34.418s4.038-29.209,36.333-52.985,85.5-24.3,85.5-24.3l49.911-8.652s30.333,8.109,41.081,18.964,28.31,38.6,28.31,38.6,59.46,38.561,76.477,54.246,22.39,59.627,22.39,59.627l-6.269,36.2-44.333,33.589-23.575,42.44" transform="translate(-5730.923 76.565)" fill="none" stroke="#fff" stroke-miterlimit="10" stroke-width="20"/>
    <g id="Human_long_hair_" data-name="Human(long hair)" transform="translate(20.579 518.735)">
      <path id="Path_842" data-name="Path 842" d="M584.741,790.763c-5.878,7.111-9.593.966-12.981-16.57s-2.465-33.995,31.111-61.248,46.079-45.647,55.32-58.292,7.148-19.668,16.982-27.026S699.235,616,702.517,615.944s15.15,3.034,15.15,3.034l5.983,2.608,18.465,7.162-21.724.894-6.528,4.439s8.349,0,13.363.55,16.4,3.441,16.4,3.441l-2.859,1.371L721.948,643.3s-10.355,8.557-10.688,8.714.877,1.283,3.429.215,13-1.647,14.832-.071l-3.244,2.614-31.685,12.849-21.33,20.116-11.823,32.874s5.69-6.358,10.205-6.381S702,705.189,719.478,690.1s50.59-19.673,50.59-19.673-10.29-8.831-12.05-22.919a109.752,109.752,0,0,1-.425-15.642s-7.877-4.249-10.684-12.882c-1.615-4.966,3.549-10.524,3.752-7.971.769,9.685,5.175,6.745,5.175,6.745s-3.947-8.939,1.986-15.164.834-9.07.834-9.07-14.77-20.184-8.968-38.948c10.749-34.766,45.945-46.1,67.368-48.362,25.181-2.655,33.867,9,33.867,9l3.543,4.031s-7.425-1.746-9.592-5.838,9.323-3,9.323-3l24.416,2.19s-5.393-6.823-12.4-6.708-11.14.964-14.431-.6-1.962-3.527.266-5.335,22.052-1.524,22.052-1.524l-11.076-1.7,8.121-6.939,48.29,27.3-23.958,14.548-30.852,12.478-11.265,46.254-18.574,64.48s33.757-13.154,29.155-7.639,5.777,12.159,8.047,12.174,13.59-7.455,20.175-10.382,39.958-21.213,47.8-24.551,9.859-4.11,9.859-4.11-10.692-7.627-21.955-34.177-22.713-38.527-22.713-38.527-17.49-5.608-22.031-7.94-1.853-5.864-1.853-5.864l14.364.916,37.786,8.324,62.146,66.269,3.4,34.244L754.535,767.051Z" transform="translate(-570.45 -484.956)"/>
      <g id="Group_282" data-name="Group 282" transform="translate(10.245 0)">
        <g id="Group_281" data-name="Group 281">
          <path id="Path_843" data-name="Path 843" d="M1365.446,513.317c-4.016-10.62-12.819-21.514-17.4-24.849s-15.449-9.9-17.892-10.783-11.976.452-12.763,1.922c0,0-5.919-.227-8.9,2.173a6.326,6.326,0,0,0-2.4,5.694s-14.376,2.62-17.218,4.933,1.971,4.409,6.174,3.913,11.876-1.88,14.583-1.411,12.388,8.187,12.388,8.187-12.248-2.886-17.7-3.128-14.039,1.06-15.862,1.368-1.4,3.211,1.029,4.439,14.138,1.187,16.077,1.958,13.132,8,15.485,9.559a43.1,43.1,0,0,1,4.123,3.118s-4.49.2-7.6-1.645-8.274-4.485-12.4-4.325-4.663,2.621.874,5.694,11.348,8.664,19.349,10.63,23.084,7.613,28.638,10.065,15.6-10.053,18.147-12.468S1368.919,522.5,1365.446,513.317Z" transform="translate(-1017.521 -477.403)" fill="#f9cfcc"/>
          <path id="Path_844" data-name="Path 844" d="M1344.359,590.135c-4.543-9.712-14.13-16.156-21.137-13.678l-1.076,2.122,2.987,4.972Z" transform="translate(-1038.732 -537.436)"/>
          <path id="Path_845" data-name="Path 845" d="M1339.65,500.887c2.594-.545,5.933-1.239,10.066.612s13.057,6.806,13.057,6.806" transform="translate(-1049.398 -491.351)" fill="none" stroke="#0d0d0c" stroke-linecap="round" stroke-linejoin="round" stroke-width="2"/>
          <path id="Path_846" data-name="Path 846" d="M1370.154,483.59a16.339,16.339,0,0,1,7.466,1.817c1.88,1.1,8.635,6.788,8.635,6.788" transform="translate(-1067.985 -481.173)" fill="none" stroke="#0d0d0c" stroke-linecap="round" stroke-linejoin="round" stroke-width="2"/>
          <path id="Path_847" data-name="Path 847" d="M807.678,850.042c3.546-10.787,11.862-22.056,16.3-25.588s15-10.571,17.4-11.558,11.985-.073,12.834,1.36c0,0,5.9-.487,8.983,1.781a6.325,6.325,0,0,1,2.65,5.583s14.478,1.986,17.418,4.173-1.776,4.491-6,4.18-11.946-1.357-14.631-.77-12.017,8.722-12.017,8.722,12.11-3.42,17.542-3.9,14.072.443,15.906.671,1.537,3.146-.833,4.48-14.072,1.806-15.976,2.661-12.768,8.564-15.05,10.229a43.142,43.142,0,0,0-3.982,3.3s4.495,0,7.522-1.978,8.07-4.844,12.2-4.865,4.774,2.414-.624,5.727-10.957,9.154-18.864,11.469-22.728,8.618-28.169,11.311-16.022-9.359-18.676-11.66S804.612,859.369,807.678,850.042Z" transform="translate(-721.132 -681.58)" fill="#f9cfcc"/>
          <path id="Path_848" data-name="Path 848" d="M925.76,834.91c-3.791.024-9.513,2.86-11.016,3.705s-9.609,5.246-9.609,5.246" transform="translate(-784.631 -695.246)" fill="none" stroke="#0d0d0c" stroke-linecap="round" stroke-linejoin="round" stroke-width="2"/>
          <path id="Path_849" data-name="Path 849" d="M905.6,818.85c-3.58.759-15.42,6.806-17.99,8.491" transform="translate(-773.955 -685.46)" fill="none" stroke="#0d0d0c" stroke-linecap="round" stroke-linejoin="round" stroke-width="2"/>
          <path id="Path_850" data-name="Path 850" d="M707.333,945.763c-6.922,3.807-22.8,31.393-28.227,50.343s-18.2,46.685-40.118,61.843-39.656,16.266-41.193,12.353-4.567-32.73,15.714-55.174c30.1-33.306,61.02-75.024,64.19-80.374S707.333,945.763,707.333,945.763Z" transform="translate(-596.674 -755.429)" fill="#f9cfcc"/>
          <path id="Path_851" data-name="Path 851" d="M598.926,1135.523c1.636,7.7,32.916,13.865,72.51,5.149s99.034-26.035,99.034-26.035,10.644-75.426-.282-72.554-41.587,10.425-75.526,25.95-79.2,36.564-79.2,36.564Z" transform="translate(-598.046 -821.435)" fill="#f9cfcc"/>
          <path id="Path_852" data-name="Path 852" d="M782.023,1117.852c-2.449,5.6-5.367,13.088-7.949,16.743,0,0,17.872,2.825,28.169,16.878s10.148,21.86,10.148,21.86l11.4-3-11.452-50-13.429-11.156-8.821,4.641Z" transform="translate(-704.771 -862.368)"/>
          <path id="Path_853" data-name="Path 853" d="M1369.946,870.244c30.337-19.28,82.143-50.074,95.032-55.281s41.6,13.85,41.369,20.793-34.6,43.515-55.077,57.47c-45.926,31.3-68.342,38.875-102.8,64.81Z" transform="translate(-1054.77 -682.549)" fill="#f9cfcc"/>
          <path id="Path_854" data-name="Path 854" d="M1572.142,842.97c14.675.614,19.958,60.427,19.958,60.427l-3.49,2.816-25.038-8.277.372-48.16Z" transform="translate(-1185.841 -700.157)"/>
          <path id="Path_855" data-name="Path 855" d="M1417.26,584.047c6.8,6.037,25.958,27.878,37.27,44.069,11.291,16.159,26.731,42.382,51.127,53.1s42.023,8.443,42.788,4.309,1.812-26.277-25.9-51.188c-33.386-30.009-74.152-62.077-78.279-66.729S1417.26,584.047,1417.26,584.047Z" transform="translate(-1096.688 -531.962)" fill="#f9cfcc"/>
          <path id="Path_856" data-name="Path 856" d="M1091.888,659.623c-1.211,5.359-.112,13.742.146,16.976s1.8,4.6.3,8.217-7.515,9.086-8.566,10.886,3.249,5.918,3.249,5.918.156,8.624.118,18.631,2,19.683,5.722,21.787,6.451,4,23.425,1.955A18.168,18.168,0,0,1,1113.5,757.3c-4.39,6.485-9.793,8.355-19.923,10.187,0,0,13.172,23.056,55.144,23.331s49.656-33.289,49.656-33.289-20.548-5.713-24.335-8.529-7.282-14.66-4.232-24.79a77.244,77.244,0,0,0,28.549-30.179c10.918-20.773,1.366-65.765-32.616-73.319S1097.91,632.984,1091.888,659.623Z" transform="translate(-893.377 -563.737)" fill="#f9cfcc"/>
          <path id="Path_857" data-name="Path 857" d="M1226.682,847.033c2.658,6.35,2.588,14.258-2.042,17.394s2.357,3.844,6.553.506,4.544-10.224,4.544-10.224a21.661,21.661,0,0,1,.527,9.173c-.868,4.634-.747,7.768,2.626,5.565s4.248-10.707,4.248-10.707l-6.6-10.318-8.443-7.883Z" transform="translate(-978.387 -698.676)"/>
          <path id="Path_858" data-name="Path 858" d="M1184.375,756.169c4.945,8.943,9.682,18.443,11.081,25.781s-7.893,12.778-10.154,12.034-2.214,1.045.839,1.777,6.612.41,10.735-2.17,8.412-14.208,8.412-14.208l-12.1-23.611-4.837-14.193-5.649,2.033Z" transform="translate(-953.764 -638.375)"/>
          <path id="Path_859" data-name="Path 859" d="M1139.173,757.018c-4.88,4.829-13.8,7.78-17.192,5.579s.623-.023,5.538-3.61a16.6,16.6,0,0,0,6.459-16.446c-1.245-6.474-3.819-14.935-3.23-21.288s.939-10.4,3.884-14.326,3.714-2.3,3.714-2.3l3.147,8.2Z" transform="translate(-915.997 -615.658)"/>
          <path id="Path_860" data-name="Path 860" d="M1092.45,802.767c7.46-4.747,5.274-19.722,5.274-19.722l.647-2.751,6.015,4.479s.594,10.175.5,10.558-.163,8.428-.278,8.618-9.525,7.007-9.659,6.867-2.444-2.4-2.444-2.4Z" transform="translate(-898.769 -661.967)"/>
          <path id="Path_861" data-name="Path 861" d="M1172.557,922.617c10.8-1.293,20.73-9.784,20.73-9.784" transform="translate(-947.582 -742.727)" fill="none" stroke="#db8882" stroke-linecap="round" stroke-linejoin="round" stroke-width="2"/>
          <path id="Path_862" data-name="Path 862" d="M1138.862,964.891c7.9,13.016,50.315,12.55,65.46-3.118l1.189-3.752,5.847,2.247s-1.619,12.31-1.993,12.668-48.513,20.351-48.513,20.351l-34.379-11.625,4.179-10.487s2.531-1.459,5.157-3.377S1138.862,964.891,1138.862,964.891Z" transform="translate(-919.501 -770.262)"/>
          <path id="Path_863" data-name="Path 863" d="M1192.818,762.462c8.633,13.825,13.7,27.365,18.421,37.631s-2.5,21.943.508,21.792,8.2-6.406,8.2-6.406-1.826,8.405.468,7.9,4.661-5.086,4.661-5.086-.077,3.858,4.216.2,4.714-4.417,4.714-4.417-5.45,5.45-3.01,6.4,13.423-6.084,20.436-14.625a5.983,5.983,0,0,0,.812,4.118c1.272,2.024,1.338-.043,1.166-1.365s1.765-4.029,9.1-10.93,3.121-5.452,8-16.5S1192.818,762.462,1192.818,762.462Z" transform="translate(-959.927 -651.1)" fill="#ed759d"/>
          <path id="Path_864" data-name="Path 864" d="M1201.639,986.3l-5.808,14.4a.012.012,0,0,1-.007.007l-.72.8-25.966,28.7-2.56,2.832-173.921,30.5L962.035,971.2c13.732-4.711,19.817-9.266,40.508-15.225,12.117-3.487,25.128-5.843,25.128-5.843s12.234,11.767,38.288,8.473,47.421-24.4,47.421-24.4,1.879-.658,5.528-2.228q.7-.3,1.477-.642h0c4.215-1.85,10.289-4.7,18.109-8.814a32.463,32.463,0,0,1,7.494-2.732,43.988,43.988,0,0,1,9.581-1.2l6.071,8.923Z" transform="translate(-819.303 -746.237)" fill="#fff"/>
          <path id="Path_865" data-name="Path 865" d="M906.088,1050.394c-12.058-6.872-17.573-9.853-36.39-1.829-11.635,4.961-44.73,17.839-50.262,19.583s-4.486,5.8-4.486,5.8,8.7-.425,12.334,9.62,4.14,25.431,7.91,33.126,7.745,19.968,7.606,26.084,10.494,6.632,14.731,1.918a106.863,106.863,0,0,1,22.261-2.668c13.39-.335,22.17-2.064,31.255-3.584s12.375-20.335,14.388-37.367S919.3,1057.922,906.088,1050.394Z" transform="translate(-729.63 -822.501)" fill="#fff"/>
          <path id="Path_866" data-name="Path 866" d="M1025.19,981.4c-26.408,36.262-81.232,28.935-90.438,31.684s-8.584,9.635-8.584,9.635c7.69,18.344,4.792,41.386,4.562,43.06a126.523,126.523,0,0,0-.471-16.57c-.691-8.964-4.655-16.4-11.037-21.084a26.409,26.409,0,0,0-5.795-3.22c-5.018-2.021-20.018-.372-34.916,2.561-14.044,2.763-28,6.669-33.414,9.711-11.159,6.273-6.211,10.618-6.475,17.985-.255,7.158,2,18.345,2.122,18.973a110.512,110.512,0,0,1-3.9-14.842c-1.515-8.12-2.971-16.736-6.475-20.322-3.207-3.289-6.962-1.135-5.478,1.576a12.6,12.6,0,0,0-9.943-5.134s-1.047-4.062,4.485-5.806,38.627-14.622,50.264-19.583q1.378-.588,2.664-1.1a.038.038,0,0,1,.018-.005c1.627-.56,3.147-1.118,4.6-1.673,10.772-4.137,17.665-8.3,35.894-13.547,12.117-3.487,25.129-5.843,25.129-5.843s12.234,11.767,38.288,8.473c14.884-1.882,28.241-9.578,36.956-15.832Z" transform="translate(-729.63 -783.957)" fill="#c9d6e8"/>
          <path id="Path_867" data-name="Path 867" d="M1118.739,966.961c4.948,7.924,22.8,12.712,52.21,4.81s22.649-17.965,22.649-17.965l-3.531-1.474s2.253-2.307,7.1-.6,6.888,1.577,7.417,3.744,2.383,14.661-27.491,25.511-52.887,4.254-62.719-.949-8.1-12.134-5.143-13.927,11.819-.583,11.819-.583Z" transform="translate(-907.587 -766.047)" fill="#c9d6e8"/>
          <path id="Path_868" data-name="Path 868" d="M1107.08,997.394c-.947,4.449,1.133,7.484,8.456,11.457s26.463,8.02,39.239,5.657" transform="translate(-907.553 -794.253)" fill="none" stroke="#0d0d0c" stroke-linecap="round" stroke-linejoin="round" stroke-width="3"/>
          <path id="Path_869" data-name="Path 869" d="M1040.56,1287.148l8.934-1.569a6.876,6.876,0,0,1-.926.222C1045.912,1286.246,1043.285,1286.708,1040.56,1287.148Z" transform="translate(-867.151 -969.856)" fill="#c9d6e8"/>
          <path id="Path_870" data-name="Path 870" d="M966.678,1048.967c-1.449.555-2.969,1.113-4.6,1.673C963.715,1049.99,965.24,1049.434,966.678,1048.967Z" transform="translate(-819.331 -825.679)" fill="#c9d6e8"/>
          <path id="Path_871" data-name="Path 871" d="M966.678,1048.967c-1.449.555-2.969,1.113-4.6,1.673C963.715,1049.99,965.24,1049.434,966.678,1048.967Z" transform="translate(-819.331 -825.679)" fill="#c9d6e8"/>
          <path id="Path_872" data-name="Path 872" d="M1470.148,922.841c5.116,5.935-.155,19.26-5.379,18.175,0,0-6.472,2.308-15.289,12.39-3.6,4.12-6.9,7.5-10,10.463a.011.011,0,0,1-.007.007c-.32.307-.637.606-.951.9l-.006,0c-4.125,3.877-7.943,7.066-11.774,10.367-3.337,2.876-8.87,2.2-15.308-.305-7.022-2.731-15.121-7.65-22.622-12.521-14.385-9.34-29.264-32.307-26.608-47.281,1.735-9.786,2.862-15.714,10.044-21.724a64.033,64.033,0,0,1,11.812-7.428c1.531-.785,3.429-1.785,5.581-2.932,13.644-7.266,37.4-20.486,41.611-23.2a10.58,10.58,0,0,1,9.8-.74s1.174.179,3.236,2.2c.109.1.22.216.331.333a.119.119,0,0,1,.026.026l.14.142a38.555,38.555,0,0,1,5.053,7.03c5.4,9.221,6.512,25.143,10.018,32.961S1466.155,918.205,1470.148,922.841Z" transform="translate(-1062.951 -709.404)" fill="#fff"/>
          <path id="Path_873" data-name="Path 873" d="M1444.36,863.742c3.153,2.4,5.546,6.537,6.769,13.157s-6.594,7.321-20.364,8.931c-6.275.734-15.18,2.226-22.129,4.854-8.3,3.139-13.823,7.887-8.749,14.88,9.2,12.682,14.147,31.311,14.271,31.78,0-.159-.011-1.053-.035-5.376-.031-6.051-1.321-18.275-1.321-18.275,4.829,11.13,5.162,37.384,5.162,37.384a12.735,12.735,0,0,0,2.965,6.474c2.807,3.565,15.659,10.252,20.931,7.233l.006,0a1.11,1.11,0,0,1,.231-.105l-25.966,28.7c-.359-4.974-.806-11.074-1.354-18.53q-.143-1.947-.295-4.021c-2.576-35-5.666-38.541-9.861-47.767s-12.7-24.527-23.381-28.518a19.8,19.8,0,0,0-5.649-1.22,20.055,20.055,0,0,0-8.21,1.185c4.214-1.85,10.289-4.7,18.108-8.814a32.46,32.46,0,0,1,7.494-2.732c13.644-7.266,37.4-20.486,41.611-23.2a10.58,10.58,0,0,1,9.8-.74s1.174.179,3.236,2.2C1445.335,859.2,1441.368,861.468,1444.36,863.742Z" transform="translate(-1066.295 -709.404)" fill="#c9d6e8"/>
          <path id="Path_874" data-name="Path 874" d="M1573.858,867.091a1.03,1.03,0,0,1-.14-.142Z" transform="translate(-1192.024 -714.768)" fill="#c9d6e8"/>
          <path id="Path_875" data-name="Path 875" d="M1140.949,577.924c-9.974-11.133-23.235-2.9-39.135-.589s-32.927,16.9-38.418,29.992-2,26.513,1.892,33.277,2.1-.045,1.414-4.6-.42-8.4,3.39-13.546c0,0-4.558,7.293-.167,22.264,5.256,17.917,9.971,24.955,3.654,32.528a12.542,12.542,0,0,1-14.987,3.69c-4.792-2.126-6.448-8.6-7.874-8.228s.856,8.409,5.8,13.035,17.411,6.762,27.832-5.2c7.843-9,3.388-22.814,2.182-33.84s6.4-20.134,6.4-20.134-7.036,11.542.761,31.832c4.162,10.829,1.99,21.389-5.125,25.013-3.434,1.749-.83,3.7,3.91.707,6.208-3.918,15.264-15.439,13.757-26.635-1.625-12.074-.771-12.542-.771-12.542s2.426,9.858,12.778,18.043c11.417,9.026,15.6,13.6,16.637,17.564s6.192-.273,4.553-7.8c0,0,4.577,9.039,5.028,12.688s3.488.994,3.817-4.174c0,0,.858,2.564,2.289,2.569s5.232-4.211,5.232-4.211-2.31,6.025.9,5.351,6.651-1.749,13.562-8.305a52.328,52.328,0,0,0,9.937-12.431s-.42,11.383.563,13.834,1.584-.416,2.818-3.45,11.357-13.288,14.861-25.721-4.495-39.205-16.149-55.552S1156.05,574.674,1140.949,577.924Z" transform="translate(-873.085 -535.188)" fill="#ed759d"/>
          <path id="Path_876" data-name="Path 876" d="M1372,660.458c5.272,22.678,4.608,32.689-3.01,44.01-7.47,11.1-3.313,16.138-2.58,16.517s1.031-6,4.384-9.817c7.86-8.953,12.531-9.065,19.446-24.682,9.991-22.563-2.266-55.643-20.356-73.46S1372,660.458,1372,660.458Z" transform="translate(-1063.232 -558.165)" fill="#ed759d"/>
          <path id="Path_877" data-name="Path 877" d="M1341.7,678.071c5.271,22.678,2.746,32.131-7.49,40.746s-7.139,15.766-6.406,16.145.391-2.8,4.274-6.086,20.821-17.8,27.893-33.352-10.6-50.7-28.692-68.521S1341.7,678.071,1341.7,678.071Z" transform="translate(-1040.633 -566.767)" fill="#ed759d"/>
          <path id="Path_878" data-name="Path 878" d="M1190.919,754.594c7.015,19.281,15.775,31.894,10.3,40.632s-1.988,6.913,1.356,4.792,8.8-8.217,8.13-16.148-3.084-9.953-3.084-9.953L1193.6,749.4l-2.278,1.075Z" transform="translate(-958.77 -643.139)" fill="#ed759d"/>
          <path id="Path_879" data-name="Path 879" d="M1222.852,615.918c-6.047,18.858,5.206,43.31,10.738,58.444,7.236,19.794,5.368,32.8,5.368,32.8" transform="translate(-977.17 -561.805)" fill="none" stroke="#fff" stroke-linecap="round" stroke-linejoin="round" stroke-width="4"/>
          <path id="Path_880" data-name="Path 880" d="M1259.222,594.86c-4.591,9.587,14.351,29.667,21.163,50.558,11.337,34.769-8.813,55.5-10.956,61.393" transform="translate(-999.958 -548.974)" fill="none" stroke="#fff" stroke-linecap="round" stroke-linejoin="round" stroke-width="4"/>
          <path id="Path_881" data-name="Path 881" d="M1321.081,596.007c18.952,12.2,28.058,24.621,30.115,46.934s-5.367,30.784-5.367,30.784" transform="translate(-1038.083 -549.673)" fill="none" stroke="#fff" stroke-linecap="round" stroke-linejoin="round" stroke-width="4"/>
          <path id="Path_882" data-name="Path 882" d="M1327.883,660.016c2.63-18.975-13-42.515-21-48.792" transform="translate(-1029.43 -558.945)" fill="none" stroke="#fff" stroke-linecap="round" stroke-linejoin="round" stroke-width="4"/>
          <path id="Path_883" data-name="Path 883" d="M1185.534,689.955c-5.335-21.58-1.045-31.021-1.045-31.021" transform="translate(-953.859 -588.017)" fill="none" stroke="#fff" stroke-linecap="round" stroke-linejoin="round" stroke-width="4"/>
          <path id="Path_884" data-name="Path 884" d="M1109.347,636.829c4.645-13.241,15.873-23.98,30.55-28.685" transform="translate(-909.065 -557.068)" fill="none" stroke="#fff" stroke-linecap="round" stroke-linejoin="round" stroke-width="4"/>
        </g>
        <path id="Path_885" data-name="Path 885" d="M1611.587,839.178c11.444,4.034,41.584-1.1,41.584-1.1" transform="translate(-1215.099 -697.178)" fill="none" stroke="#db8882" stroke-linecap="round" stroke-linejoin="round" stroke-width="2"/>
        <path id="Path_886" data-name="Path 886" d="M741.772,1145.719c-5.3,17.6-29.734,36.685-29.734,36.685" transform="translate(-666.97 -884.634)" fill="none" stroke="#db8882" stroke-linecap="round" stroke-linejoin="round" stroke-width="2"/>
        <path id="Path_887" data-name="Path 887" d="M1035.1,1251.613c16.043-14.588,21.963-33.889,21.963-33.889" transform="translate(-863.824 -928.509)" fill="none" stroke="#0d0d0c" stroke-linecap="round" stroke-linejoin="round" stroke-width="3"/>
        <path id="Path_888" data-name="Path 888" d="M1047.677,1044.417s8.681,1.786,13.742,6.551,14.5,21.944,11.077,54.657c-.566,5.406-8.321,21.944-8.321,21.944" transform="translate(-871.487 -822.906)" fill="none" stroke="#0d0d0c" stroke-linecap="round" stroke-linejoin="round" stroke-width="3"/>
        <path id="Path_889" data-name="Path 889" d="M1429.594,970.788c8.861,10.622,17.1,28.938,19.392,36.188s4.85,56.022,4.85,56.022" transform="translate(-1104.204 -778.041)" fill="none" stroke="#0d0d0c" stroke-linecap="round" stroke-linejoin="round" stroke-width="3"/>
        <path id="Path_890" data-name="Path 890" d="M1479.062,987.36c5.048,8.577,2.514,49.512,2.514,49.512" transform="translate(-1134.347 -788.139)" fill="none" stroke="#0d0d0c" stroke-linecap="round" stroke-linejoin="round" stroke-width="3"/>
      </g>
    </g>
    <g id="mayonnaise" transform="translate(-32.164 606.974)">
      <ellipse id="Ellipse_51" data-name="Ellipse 51" cx="22.632" cy="24.266" rx="22.632" ry="24.266" transform="matrix(0.841, -0.541, 0.541, 0.841, 0, 24.5)"/>
      <path id="Path_816" data-name="Path 816" d="M5417.285,874.206a21.493,21.493,0,1,1,6.438-29.705A21.492,21.492,0,0,1,5417.285,874.206Z" transform="translate(-5370.124 -820.88)" fill="#fff"/>
      <path id="Path_817" data-name="Path 817" d="M5427.107,845.06a18.794,18.794,0,0,0-10.854-7.975c-2.125-.584-4.315-.727-6.454-1.215a3.476,3.476,0,0,1-1.384-.556,1.347,1.347,0,0,1-.555-1.31.744.744,0,0,0,.046-.393c-.085-.262-.463-.239-.725-.15-2.945,1-5.142,3.435-7.15,5.812-2.209,2.615-4.62,5.154-6.026,8.317a18.87,18.87,0,1,0,33.1-2.529Z" transform="translate(-5375.726 -820.036)" fill="#fdd89b"/>
      <path id="Path_818" data-name="Path 818" d="M5488.037,944.673a18.9,18.9,0,0,0,1.764-1.586" transform="translate(-5440.792 -894.654)" fill="none" stroke="#0d0d0c" stroke-linecap="round" stroke-linejoin="round" stroke-width="2"/>
      <path id="Path_819" data-name="Path 819" d="M5400.032,851.767c-2.209,2.615-4.62,5.154-6.026,8.317A18.872,18.872,0,0,0,5419.78,884.6" transform="translate(-5375.726 -832.531)" fill="none" stroke="#0d0d0c" stroke-linecap="round" stroke-linejoin="round" stroke-width="2"/>
      <path id="Path_820" data-name="Path 820" d="M5466.938,863.367a18.8,18.8,0,0,0-2.789-13.051,18.794,18.794,0,0,0-10.854-7.975c-2.125-.584-4.315-.727-6.454-1.215" transform="translate(-5412.767 -825.292)" fill="none" stroke="#0d0d0c" stroke-linecap="round" stroke-linejoin="round" stroke-width="2"/>
      <path id="Path_821" data-name="Path 821" d="M5462.329,906.527a16.59,16.59,0,0,1-5.381,2.269,1.3,1.3,0,0,0-.636.27.429.429,0,0,0-.031.616.609.609,0,0,0,.363.091,32.422,32.422,0,0,0,6.391-.545,8.844,8.844,0,0,0,2.762-.8,6.292,6.292,0,0,0,2.962-5.2,16.933,16.933,0,0,0-1.075-6.122c-.32.018-.427.431-.456.75a12.076,12.076,0,0,1-2.728,6.785A10.893,10.893,0,0,1,5462.329,906.527Z" transform="translate(-5419.109 -863.376)" fill="#edc080"/>
      <path id="Path_822" data-name="Path 822" d="M5414.285,891.861c0-.029,0-.058-.009-.087a7.849,7.849,0,0,0-2.516,4.359,8.36,8.36,0,0,0-.4,3.05,4.471,4.471,0,0,0,.847,2.629.753.753,0,0,0,.865.141,1.108,1.108,0,0,0,.381-.864c.093-.8.17-1.607.247-2.411q.274-2.867.548-5.733A6.009,6.009,0,0,0,5414.285,891.861Z" transform="translate(-5388.615 -859.747)" fill="#edc080"/>
      <path id="Path_823" data-name="Path 823" d="M5447.882,856.135c-.116-.006-.568-.625-.662-.713a8.7,8.7,0,0,0-2.134-1.46c-2.663-1.3-5.688-.981-8.546-.825a10.178,10.178,0,0,0-1.317.129.361.361,0,0,0-.191.078c-.129.126-.021.343.1.48,1.837,2.128,4.626,1.885,7.177,2.019Z" transform="translate(-5404.693 -833.36)" fill="#edc080"/>
      <path id="Path_824" data-name="Path 824" d="M5399.056,888.646a16.387,16.387,0,0,0,2,8.7.786.786,0,0,0,.25.319.278.278,0,0,0,.368-.045.415.415,0,0,0,.051-.184,10.853,10.853,0,0,0-.378-3.089q-.311-1.818-.478-3.657t-.193-3.683c0-.351-.147-3.487.086-3.56C5399.411,883.869,5399.143,887.45,5399.056,888.646Z" transform="translate(-5380.236 -854.083)" fill="#edc080"/>
      <path id="Path_825" data-name="Path 825" d="M5416.97,857.079a7.88,7.88,0,0,1-.355,1.126,2.42,2.42,0,0,1-.449.766c-.775.822-1.371.157-1.236-.71a7.768,7.768,0,0,1,.732-1.961,5.075,5.075,0,0,1,1.445-1.93c.054-.042.125-.084.187-.052s.066.125.059.2A19.687,19.687,0,0,1,5416.97,857.079Z" transform="translate(-5391.045 -834.259)" fill="#edc080"/>
    </g>
    <g id="No.1" transform="translate(329.678 415)">
      <path id="Path_827" data-name="Path 827" d="M6838.952,401.558l-7.912-37.738,54.321,40.932Z" transform="translate(-6831.04 -362.319)"/>
      <g id="Group_267" data-name="Group 267" transform="translate(7.912 0)">
        <path id="Path_828" data-name="Path 828" d="M6881.838,415.269l18.141-40.521-26.334-15.623-17.858,39.239Z" transform="translate(-6855.786 -359.125)" fill="#ed759d"/>
        <path id="Path_829" data-name="Path 829" d="M6897.547,427.05l9.771-21.19-4.4-1.536,2.115-4.587,10,3.627-12.243,26.549Z" transform="translate(-6884.195 -386.752)" fill="#fff"/>
        <path id="Path_830" data-name="Path 830" d="M6955.409,407.99l2.218,26.81-20.358,13.711Z" transform="translate(-6911.217 -392.367)" fill="#a52959"/>
        <path id="Path_831" data-name="Path 831" d="M6937.269,448.511l14.124-18.382,4.017-22.14Z" transform="translate(-6911.217 -392.367)"/>
        <path id="Path_832" data-name="Path 832" d="M6982.45,434.8l-8.691-6.549,6.474-20.261Z" transform="translate(-6936.041 -392.367)"/>
      </g>
    </g>
    <g id="No.2" transform="translate(-11.585 543.006)">
      <path id="Path_833" data-name="Path 833" d="M5281.69,597.282l-17.917-26.732,30.777-16.525,33.55,40.063Z" transform="translate(-5263.773 -554.026)"/>
      <g id="Group_269" data-name="Group 269" transform="translate(17.917 0.824)">
        <path id="Path_834" data-name="Path 834" d="M5344.888,612.747l-18.141-40.521,26.334-15.623,17.858,39.239Z" transform="translate(-5324.53 -556.602)" fill="#ed759d"/>
        <path id="Path_835" data-name="Path 835" d="M5322.03,605.467l-2.218,26.81,20.358,13.711Z" transform="translate(-5319.812 -589.844)" fill="#a52959"/>
        <path id="Path_836" data-name="Path 836" d="M5322.03,605.467l5.439,21.661-7.657,5.149,8.533-2.709,11.826,16.42Z" transform="translate(-5319.812 -589.844)"/>
      </g>
      <path id="Path_837" data-name="Path 837" d="M5367.051,628.446l-1.147-2.652a20.5,20.5,0,0,1,.872-5.847q.863-2.879,2.041-5.915.875-2.3,1.425-3.794a18.556,18.556,0,0,0,.769-2.543,6.112,6.112,0,0,0,.112-1.955,7.425,7.425,0,0,0-.6-2.052q-1.642-3.795-6.158-1.163a17.455,17.455,0,0,0-2.892,2.12,24.3,24.3,0,0,0-2.492,2.6l-2.1-4.856a24.185,24.185,0,0,1,3.025-2.81,29.958,29.958,0,0,1,3.561-2.458q4.285-2.5,7.428-1.493t4.82,4.881a9.412,9.412,0,0,1,.742,5.315,26.777,26.777,0,0,1-1.618,5.618q-.934,2.383-1.758,4.575a20.687,20.687,0,0,0-1.128,4.259l10.065-5.865,1.836,4.244Z" transform="translate(-5327.11 -582.131)" fill="#fff"/>
    </g>
  </g>
</svg>
