<svg xmlns="http://www.w3.org/2000/svg" width="1811.781" height="951.103" viewBox="0 0 1811.781 951.103">
  <g id="Group_2413" data-name="Group 2413" transform="translate(-39.047 -364.322)">
    <g id="Pancake_top" data-name="Pancake top" transform="translate(-5224.727 5.197)">
      <g id="Group_255" data-name="Group 255">
        <circle id="Ellipse_31" data-name="Ellipse 31" cx="215.489" cy="215.489" r="215.489" transform="translate(5519.395 425.785)"/>
      </g>
      <g id="Group_263" data-name="Group 263">
        <g id="Group_256" data-name="Group 256">
          <circle id="Ellipse_32" data-name="Ellipse 32" cx="198.965" cy="198.965" r="198.965" transform="translate(5560.979 462.626)" fill="#fff"/>
        </g>
        <g id="Group_257" data-name="Group 257">
          <circle id="Ellipse_33" data-name="Ellipse 33" cx="149.601" cy="149.601" r="149.601" transform="translate(5610.342 511.99)" fill="#c9d6e8"/>
        </g>
        <g id="Group_258" data-name="Group 258">
          <path id="Path_790" data-name="Path 790" d="M5829.487,808.94q-6.328,2.987-12.774,5.387" fill="none" stroke="#0d0d0c" stroke-linecap="round" stroke-linejoin="round" stroke-width="2"/>
          <path id="Path_791" data-name="Path 791" d="M5776.177,823.761a162.982,162.982,0,1,1,137.752-108.91" fill="none" stroke="#0d0d0c" stroke-linecap="round" stroke-linejoin="round" stroke-width="2"/>
        </g>
        <path id="Path_792" data-name="Path 792" d="M5627.829,723.792c-52.014-60.663-38.7-143.485,5.669-181.8,32.425-28,77.535-34.576,101.225-27.52,0,0,19.186-7.825,65.418.539s76.371,58.052,85.453,96.135Z" fill="#080b0a"/>
        <g id="Group_262" data-name="Group 262">
          <circle id="Ellipse_34" data-name="Ellipse 34" cx="121.188" cy="121.188" r="121.188" transform="translate(5584.704 675.004) rotate(-45)" fill="#fdd89b"/>
          <path id="Path_793" data-name="Path 793" d="M5867.63,635.017c11.519,38.08,4.815,81.753-19.717,113.035S5781,796.434,5741.94,788.491c-18.294-3.721-35.281-12.453-50.493-23.27-15.6-11.1-29.741-24.672-39.367-41.2-16.148-27.729-18.154-63.174-5.232-92.485,15.2-34.485,49.334-58.419,86.057-67.227,37.973-9.106,81.682-2.009,109.079,25.834C5854.195,602.552,5862.6,618.375,5867.63,635.017Z" fill="#c78c50"/>
          <g id="Group_260" data-name="Group 260">
            <path id="Path_794" data-name="Path 794" d="M5835.825,601.932a2.445,2.445,0,1,1-1.476-3.128A2.445,2.445,0,0,1,5835.825,601.932Z" fill="#f79922"/>
            <path id="Path_795" data-name="Path 795" d="M5785.977,626.847a2.446,2.446,0,1,1-1.477-3.127A2.445,2.445,0,0,1,5785.977,626.847Z" fill="#f79922"/>
            <circle id="Ellipse_35" data-name="Ellipse 35" cx="0.731" cy="0.731" r="0.731" transform="translate(5817.186 623.946)" fill="#f79922"/>
            <circle id="Ellipse_36" data-name="Ellipse 36" cx="1.79" cy="1.79" r="1.79" transform="translate(5832.819 644.404)" fill="#f79922"/>
            <g id="Group_259" data-name="Group 259">
              <circle id="Ellipse_37" data-name="Ellipse 37" cx="3.482" cy="3.482" r="3.482" transform="translate(5687.474 681.336)" fill="#f79922"/>
            </g>
            <circle id="Ellipse_38" data-name="Ellipse 38" cx="2.201" cy="2.201" r="2.201" transform="translate(5830.135 715.337)" fill="#f79922"/>
            <circle id="Ellipse_39" data-name="Ellipse 39" cx="3.692" cy="3.692" r="3.692" transform="translate(5793.407 722.901)" fill="#f79922"/>
            <path id="Path_796" data-name="Path 796" d="M5706.3,732.488a2.862,2.862,0,1,1-1.727-3.661A2.861,2.861,0,0,1,5706.3,732.488Z" fill="#f79922"/>
            <path id="Path_797" data-name="Path 797" d="M5740.009,724.242a1.334,1.334,0,1,1-.8-1.706A1.333,1.333,0,0,1,5740.009,724.242Z" fill="#f79922"/>
            <circle id="Ellipse_40" data-name="Ellipse 40" cx="4.02" cy="4.02" r="4.02" transform="translate(5670.679 646.999)" fill="#f79922"/>
            <circle id="Ellipse_41" data-name="Ellipse 41" cx="1.827" cy="1.827" r="1.827" transform="translate(5767.01 591.093)" fill="#f79922"/>
            <circle id="Ellipse_42" data-name="Ellipse 42" cx="4.385" cy="4.385" r="4.385" transform="translate(5697.751 589.629)" fill="#f79922"/>
            <path id="Path_798" data-name="Path 798" d="M5801.649,597.757l-1.166-.418-1.166-.418,1.166.418Z" fill="#f79922"/>
            <path id="Path_799" data-name="Path 799" d="M5841.7,703.6a2.875,2.875,0,1,1-1.736-3.677A2.876,2.876,0,0,1,5841.7,703.6Z" fill="#f79922"/>
            <circle id="Ellipse_43" data-name="Ellipse 43" cx="2.201" cy="2.201" r="2.201" transform="translate(5794.968 685.401)" fill="#f79922"/>
            <circle id="Ellipse_44" data-name="Ellipse 44" cx="2.201" cy="2.201" r="2.201" transform="translate(5718.591 626.961)" fill="#f79922"/>
            <path id="Path_800" data-name="Path 800" d="M5806.531,673.664a2.875,2.875,0,1,1-1.735-3.677A2.875,2.875,0,0,1,5806.531,673.664Z" fill="#f79922"/>
            <circle id="Ellipse_45" data-name="Ellipse 45" cx="4.614" cy="4.614" r="4.614" transform="translate(5751.335 756.087)" fill="#f79922"/>
            <circle id="Ellipse_46" data-name="Ellipse 46" cx="2.558" cy="2.558" r="2.558" transform="translate(5657.902 721.705)" fill="#fcb830"/>
            <path id="Path_801" data-name="Path 801" d="M5652.341,694.621a3.6,3.6,0,1,1-2.173-4.6A3.6,3.6,0,0,1,5652.341,694.621Z" fill="#fcb830"/>
            <circle id="Ellipse_47" data-name="Ellipse 47" cx="1.431" cy="1.431" r="1.431" transform="translate(5651.088 710.245)" fill="#fcb830"/>
            <circle id="Ellipse_48" data-name="Ellipse 48" cx="1.644" cy="1.644" r="1.644" transform="translate(5861.708 629.431)" fill="#fcb830"/>
          </g>
          <circle id="Ellipse_49" data-name="Ellipse 49" cx="121.188" cy="121.188" r="121.188" transform="translate(5599.73 650.913) rotate(-45)" fill="#fdd89b"/>
          <path id="Path_802" data-name="Path 802" d="M5882.656,610.927c11.519,38.08,4.815,81.753-19.717,113.035s-66.913,48.381-105.973,40.439c-18.293-3.721-35.28-12.453-50.492-23.27-15.6-11.1-29.741-24.673-39.368-41.2-16.148-27.728-18.153-63.174-5.232-92.484,15.2-34.485,49.334-58.42,86.058-67.227,37.972-9.106,81.682-2.01,109.078,25.834C5869.221,578.462,5877.622,594.284,5882.656,610.927Z" fill="#c78c50"/>
          <path id="Path_803" data-name="Path 803" d="M5842.138,583.248c15.75,18.242,28.245,39.267,32.455,63.3a150.877,150.877,0,0,1,1.332,41.88c.011-.036.024-.071.035-.106,9.033-29.907,5.74-62.783-5.989-91.739-6.223-15.365-15.163-30.24-28.779-39.7-11.822-8.211-26.272-11.728-40.544-13.595-.84-.11-1.684-.2-2.526-.3C5814.826,553.867,5830,569.194,5842.138,583.248Z" fill="#fdd89b"/>
          <path id="Path_804" data-name="Path 804" d="M5845.719,702.929a124.24,124.24,0,0,0-92.41-163.847c-1.8.355-3.6.709-5.377,1.135-36.723,8.807-70.856,32.742-86.058,67.227-12.921,29.31-10.916,64.756,5.232,92.485,9.626,16.529,23.763,30.1,39.368,41.2,15.212,10.817,32.2,19.549,50.493,23.269a101.391,101.391,0,0,0,41.289-.452A123.678,123.678,0,0,0,5845.719,702.929Z" fill="#080b0a"/>
          <path id="Path_805" data-name="Path 805" d="M5798.256,763.948c-10.541,2.354-17.772,4.038-18.755,7.891,0,0-30.211,13.326-63.14,3.992L5784,752.215Z" fill="#080b0a"/>
          <g id="Group_261" data-name="Group 261">
            <circle id="Ellipse_50" data-name="Ellipse 50" cx="121.188" cy="121.188" r="121.188" transform="translate(5556.324 655.148) rotate(-45)" fill="#fdd89b"/>
            <path id="Path_806" data-name="Path 806" d="M5839.25,615.161c11.519,38.081,4.815,81.754-19.717,113.036s-66.913,48.381-105.973,40.438c-18.293-3.72-35.28-12.453-50.492-23.269-15.6-11.1-29.741-24.673-39.368-41.2-16.148-27.728-18.153-63.174-5.232-92.485,15.2-34.484,49.335-58.419,86.058-67.226,37.972-9.107,81.682-2.01,109.078,25.834C5825.815,582.7,5834.216,598.519,5839.25,615.161Z" fill="#c78c50"/>
            <path id="Path_807" data-name="Path 807" d="M5704.392,569.741a22.757,22.757,0,0,0-4.469,3.509c-3.552,3.543-6.714,7.723-11.257,9.854-7.168,3.361-15.725.738-23.457,2.439a21.211,21.211,0,0,0-14.938,29.067c4.86,11.345,14.981,18.8,9.832,32.542-4.32,11.532-16.483,21.362-12.883,34.958,2.41,9.1,11.712,14.413,20.439,17.942s18.368,6.757,23.716,14.5c3.3,4.782,4.488,10.684,6.991,15.929s7.252,10.256,13.057,9.976c6.258-.3,10.437-6.34,15.727-9.7,5.9-3.743,13.325-4.107,20.285-3.483s13.893,2.12,20.867,1.667,14.286-3.286,17.894-9.27c5.673-9.406.012-17.452-1.482-26.678a28.536,28.536,0,0,1,6.375-23.029c3.358-3.848,7.707-6.7,11.321-10.306s6.59-8.449,6.023-13.525c-.7-6.3-6.425-10.682-11.756-14.114s-11.232-7.315-12.709-13.481c-1.287-5.366,1.21-10.844,1.727-16.338a22.836,22.836,0,0,0-31.9-23.054c-3.639,1.595-6.817,4.118-10.479,5.658-12.033,5.06-15.439-6.171-22.226-13.041C5715.913,566.535,5709.8,566.548,5704.392,569.741Z" fill="#fafafa"/>
            <path id="Path_808" data-name="Path 808" d="M5787.4,666.692a25.285,25.285,0,0,0-5.984,28.717c-5.889-2.215-7.491-10.161-5.571-16.152s6.235-10.885,9.073-16.5,3.905-13.07-.327-17.726c-2.5-2.749-6.293-3.9-9.234-6.166-5.866-4.531-7.426-12.725-7.338-20.137s1.369-14.978-.539-22.141-8.449-13.91-15.769-12.74a19.254,19.254,0,0,1,30.4,14.08c.373,4.537-.867,9.06-.838,13.612a24.776,24.776,0,0,0,7.61,17.581c3.081,2.93,6.87,5.008,10.123,7.746s6.08,6.485,6.122,10.737c.044,4.523-3.071,8.5-6.635,11.285S5790.788,663.689,5787.4,666.692Z" fill="#c9d6e8"/>
            <path id="Path_809" data-name="Path 809" d="M5653.8,598.929c.937-4.851,5.63-8.172,10.4-9.44s9.807-1,14.715-1.556a43.964,43.964,0,0,0,28.489-15.383c-2.133,4.891-4.3,9.836-7.539,14.074s-7.723,7.765-12.961,8.784c-5.737,1.116-11.563-.845-17.357-1.617S5656.9,593.968,5653.8,598.929Z" fill="#c9d6e8"/>
            <path id="Path_810" data-name="Path 810" d="M5700.378,723.894c1.294,3.151,2.238,6.487,4.118,9.327s4.994,5.177,8.392,4.958c4.722-.3,7.67-5.015,11.179-8.189a20.355,20.355,0,0,1,20.108-3.974c-2.48-3.223-7.2-3.876-11.153-2.925s-7.462,3.175-11.186,4.808-8.045,2.671-11.816,1.15c-5.455-2.2-7.573-8.587-10.5-13.69a34.451,34.451,0,0,0-27.675-16.966A44.523,44.523,0,0,1,5700.378,723.894Z" fill="#c9d6e8"/>
          </g>
        </g>
      </g>
    </g>
    <g id="Fork" transform="translate(-5224.727 5.197)">
      <path id="Path_811" data-name="Path 811" d="M5975.466,518.385l-.883-3.44s-.819-.809,2.573-1.883l52.558-15.111s.951-1.059-3.784-.456l-51.813,11.661s-1.655-.594-2.119-4.142l53.98-15.273s3.769-1.985-.534-1.289l-54.5,12.758s-2.21-4.322.133-4.719l54.429-15.8s2.27-3.027-9,.68L5969.9,491.9s-3.7-1.7-.887-4.255l52.635-17.983s21.983-5.639,28.954-.7c0,0,11.95,5.288,15.2,4.454l77.124-21.005,77.839-21.393s14.774-3.935,17.775,1.408c0,0,4.7,8.778-.4,12.734l-98.471,22.348-70.5,16.657a19.471,19.471,0,0,0-8.562,8.716,35.106,35.106,0,0,1-20.07,13.094s-38.707,10.336-55.166,11.3Z"/>
      <path id="Path_812" data-name="Path 812" d="M5986.066,522.22l-.882-3.441s-.819-.808,2.573-1.882l52.558-15.112s.951-1.058-3.784-.455l-51.814,11.661s-1.654-.6-2.119-4.143l53.981-15.272s3.769-1.986-.534-1.289l-54.5,12.758s-2.21-4.323.132-4.72l54.429-15.8s2.271-3.027-9,.68l-46.6,10.528s-3.7-1.7-.888-4.255l52.636-17.984s21.983-5.638,28.954-.7c0,0,11.95,5.287,15.2,4.454l77.124-21.005,77.839-21.393s7.205-3.682,10.205,1.661c0,0,4.7,8.778-.4,12.734l-90.9,22.1L6079.766,488a19.467,19.467,0,0,0-8.562,8.715,35.106,35.106,0,0,1-20.071,13.094s-38.706,10.336-55.166,11.3Z" fill="#fff"/>
      <path id="Path_813" data-name="Path 813" d="M6077.9,487.456s-3.011-2.209-2.943-4.326a45.785,45.785,0,0,1,.553-4.993s-11.442-2.111-12.874-3.726c0,0,4.121,4.749,4.54,8.767,0,0,2.247,9.356.7,15.253,0,0,3.018-5.511,4.7-6.706C6072.572,491.725,6076.643,486.588,6077.9,487.456Z" fill="#c9d6e8"/>
      <path id="Path_814" data-name="Path 814" d="M6240,447.1s4.255-7.051-3.015-11.756l-161.485,42.8-.216,1.441L6230.234,438.6s6.607-2.459,7.932,1.327C6238.166,439.928,6240.585,443.586,6240,447.1Z" fill="#c9d6e8"/>
      <path id="Path_815" data-name="Path 815" d="M5978.571,493.15s1.443,2.3,2.781,1.957l47.224-10.891,3.918-1.005s3.264-1.009,3.745.584c0,0-1.642-.279-11.26,1.893l-36.388,8.221-8.095,1.829S5978.024,494.3,5978.571,493.15Z" fill="#fff"/>
    </g>
    <g id="Mayonnaise" transform="translate(-5224.727 5.197)">
      <ellipse id="Ellipse_51" data-name="Ellipse 51" cx="70.785" cy="75.897" rx="70.785" ry="75.897" transform="matrix(0.841, -0.541, 0.541, 0.841, 5340.267, 868.232)"/>
      <path id="Path_816" data-name="Path 816" d="M5487.773,958.394a67.223,67.223,0,1,1,20.138-92.91A67.223,67.223,0,0,1,5487.773,958.394Z" fill="#fff"/>
      <path id="Path_817" data-name="Path 817" d="M5500.975,869.87a58.776,58.776,0,0,0-33.948-24.944c-6.645-1.826-13.5-2.274-20.186-3.8a10.876,10.876,0,0,1-4.329-1.739,4.212,4.212,0,0,1-1.736-4.1,2.336,2.336,0,0,0,.145-1.229c-.266-.821-1.449-.748-2.266-.47-9.213,3.136-16.084,10.743-22.365,18.177-6.911,8.18-14.448,16.12-18.847,26.013a59.019,59.019,0,1,0,103.532-7.91Z" fill="#fdd89b"/>
      <path id="Path_818" data-name="Path 818" d="M5488.037,948.047a58.953,58.953,0,0,0,5.516-4.96" fill="none" stroke="#0d0d0c" stroke-linecap="round" stroke-linejoin="round" stroke-width="2"/>
      <path id="Path_819" data-name="Path 819" d="M5416.29,851.767c-6.911,8.18-14.448,16.12-18.847,26.013a59.025,59.025,0,0,0,80.613,76.667" fill="none" stroke="#0d0d0c" stroke-linecap="round" stroke-linejoin="round" stroke-width="2"/>
      <path id="Path_820" data-name="Path 820" d="M5509.7,910.691a58.959,58.959,0,0,0-42.67-65.765c-6.645-1.826-13.5-2.274-20.186-3.8" fill="none" stroke="#0d0d0c" stroke-linecap="round" stroke-linejoin="round" stroke-width="2"/>
      <path id="Path_821" data-name="Path 821" d="M5475.448,926.569a51.864,51.864,0,0,1-16.831,7.1,4.073,4.073,0,0,0-1.989.844,1.34,1.34,0,0,0-.1,1.928,1.9,1.9,0,0,0,1.135.286,101.437,101.437,0,0,0,19.989-1.7,27.687,27.687,0,0,0,8.639-2.488c5.746-3.081,8.839-9.771,9.263-16.277s-1.4-12.931-3.364-19.149c-1,.055-1.335,1.348-1.428,2.347-.715,7.622-3.411,15.329-8.53,21.221A34.044,34.044,0,0,1,5475.448,926.569Z" fill="#edc080"/>
      <path id="Path_822" data-name="Path 822" d="M5420.557,892.047c-.007-.091-.016-.182-.027-.273-4.422,3.228-6.38,8.579-7.868,13.633a26.19,26.19,0,0,0-1.261,9.54c.2,2.4.763,6.529,2.651,8.223a2.356,2.356,0,0,0,2.706.44,3.468,3.468,0,0,0,1.191-2.7c.29-2.51.531-5.025.771-7.54q.858-8.965,1.716-17.931A18.888,18.888,0,0,0,5420.557,892.047Z" fill="#edc080"/>
      <path id="Path_823" data-name="Path 823" d="M5475.35,862.834c-.365-.019-1.777-1.955-2.071-2.231a27.218,27.218,0,0,0-6.674-4.566c-8.33-4.059-17.792-3.067-26.731-2.58a31.875,31.875,0,0,0-4.119.4,1.135,1.135,0,0,0-.6.244c-.4.394-.063,1.072.306,1.5,5.745,6.657,14.47,5.9,22.447,6.315Z" fill="#edc080"/>
      <path id="Path_824" data-name="Path 824" d="M5399.13,899.705c-.686,9.4,1.907,18.912,6.272,27.212a2.45,2.45,0,0,0,.781,1,.868.868,0,0,0,1.151-.141,1.262,1.262,0,0,0,.16-.574c.381-3.312-.623-6.377-1.183-9.663q-.969-5.687-1.494-11.437t-.6-11.518c-.015-1.1-.461-10.907.267-11.134C5400.241,884.766,5399.4,895.966,5399.13,899.705Z" fill="#edc080"/>
      <path id="Path_825" data-name="Path 825" d="M5421.352,862.976a24.812,24.812,0,0,1-1.111,3.523,7.562,7.562,0,0,1-1.4,2.4c-2.424,2.571-4.288.491-3.867-2.22a24.258,24.258,0,0,1,2.291-6.134,15.859,15.859,0,0,1,4.521-6.035c.169-.131.392-.263.582-.164s.207.39.184.617A61.675,61.675,0,0,1,5421.352,862.976Z" fill="#edc080"/>
    </g>
    <path id="Path" d="M5716.315,1162.47l55.437-114.175,173.086-156.39,72.644-110.592,183.858-53.64-13.782-88.1s10.336-74.768,93-135.628,218.85-62.214,218.85-62.214l127.762-22.148s77.644,20.758,105.155,48.543,72.466,98.817,72.466,98.817S6957,665.648,7000.556,705.8s57.314,152.63,57.314,152.63L7041.822,951.1l-113.481,85.979L6868,1145.719" transform="translate(-5224.727 5.197)" fill="none" stroke="#fff" stroke-miterlimit="10" stroke-width="35"/>
    <g id="No.1" transform="translate(-5224.727 5.197)">
      <path id="Path_827" data-name="Path 827" d="M6855.786,481.853,6831.04,363.82l169.9,128.023Z"/>
      <g id="Group_267" data-name="Group 267">
        <path id="Path_828" data-name="Path 828" d="M6937.269,534.729l56.739-126.739-82.367-48.865-55.855,122.728Z" fill="#ed759d"/>
        <path id="Path_829" data-name="Path 829" d="M6897.547,485.165l30.563-66.277-13.758-4.8,6.616-14.347,31.279,11.345-38.291,83.037Z" fill="#fff"/>
        <path id="Path_830" data-name="Path 830" d="M6994.008,407.99l6.936,83.853-63.675,42.885Z" fill="#a52959"/>
        <path id="Path_831" data-name="Path 831" d="M6937.269,534.729l44.176-57.492,12.563-69.246Z"/>
        <path id="Path_832" data-name="Path 832" d="M7000.943,491.843l-27.185-20.484,20.25-63.369Z"/>
      </g>
    </g>
    <g id="No.2" transform="translate(-5224.727 5.197)">
      <path id="Path_833" data-name="Path 833" d="M5319.812,689.32l-56.039-83.61,96.261-51.685,104.934,125.3Z"/>
      <g id="Group_269" data-name="Group 269">
        <path id="Path_834" data-name="Path 834" d="M5383.487,732.206l-56.739-126.739,82.367-48.865,55.854,122.728Z" fill="#ed759d"/>
        <path id="Path_835" data-name="Path 835" d="M5326.748,605.467l-6.936,83.853,63.675,42.885Z" fill="#a52959"/>
        <path id="Path_836" data-name="Path 836" d="M5326.748,605.467l17.013,67.75-23.949,16.1,26.688-8.473,36.987,51.358Z"/>
      </g>
      <path id="Path_837" data-name="Path 837" d="M5388.7,698.885l-3.59-8.295a64.087,64.087,0,0,1,2.727-18.289q2.7-9,6.382-18.5,2.736-7.187,4.457-11.866a58.348,58.348,0,0,0,2.4-7.954,19.124,19.124,0,0,0,.351-6.116,23.218,23.218,0,0,0-1.878-6.417q-5.136-11.87-19.26-3.639a54.494,54.494,0,0,0-9.046,6.63,75.96,75.96,0,0,0-7.795,8.138l-6.572-15.187a75.75,75.75,0,0,1,9.461-8.789,93.74,93.74,0,0,1,11.137-7.688q13.4-7.812,23.233-4.67t15.075,15.266a29.425,29.425,0,0,1,2.323,16.624,83.824,83.824,0,0,1-5.061,17.572q-2.92,7.455-5.5,14.31a64.6,64.6,0,0,0-3.528,13.322l31.48-18.344,5.744,13.273Z" fill="#fff"/>
    </g>
    <g id="Human_long_hair_" data-name="Human(long hair)" transform="translate(6.229 5.197)">
      <path id="Path_842" data-name="Path 842" d="M607.03,1260.194c-15.046,18.2-24.555,2.472-33.228-42.416S567.491,1130.76,653.44,1061s117.951-116.845,141.6-149.212,18.3-50.345,43.471-69.179,61.591-29.764,69.992-29.906,38.781,7.766,38.781,7.766l15.316,6.675,47.267,18.333-55.609,2.288-16.709,11.362s21.372-.01,34.206,1.407,41.98,8.808,41.98,8.808l-7.317,3.51-48.176,9.867s-26.506,21.905-27.359,22.307,2.246,3.285,8.776.551,33.273-4.215,37.966-.182l-8.3,6.69-81.1,32.891-54.6,51.492-30.265,84.149s14.565-16.274,26.123-16.334,77.7-23.135,122.445-61.765,129.5-50.359,129.5-50.359-26.339-22.6-30.846-58.667c-2.176-17.412-1.088-40.039-1.088-40.039s-20.162-10.876-27.347-32.974c-4.134-12.712,9.084-26.938,9.6-20.4,1.969,24.792,13.247,17.265,13.247,17.265s-10.1-22.881,5.084-38.817,2.134-23.216,2.134-23.216-37.807-51.665-22.955-99.7c27.515-88.992,117.609-118.013,172.445-123.795,64.456-6.8,86.69,23.041,86.69,23.041l9.068,10.319s-19.006-4.47-24.552-14.945,23.864-7.671,23.864-7.671l62.5,5.607s-13.8-17.466-31.74-17.17-28.516,2.468-36.939-1.53-5.021-9.028.681-13.657,56.447-3.9,56.447-3.9l-28.352-4.346,20.788-17.762,123.61,69.876-61.326,37.239-78.973,31.94-28.836,118.4-47.546,165.053s86.409-33.671,74.631-19.553,14.787,31.124,20.6,31.162,34.788-19.084,51.644-26.576,102.284-54.3,122.351-62.844,25.238-10.521,25.238-10.521-27.369-19.524-56.2-87.484-58.139-98.619-58.139-98.619-44.771-14.355-56.393-20.324-4.744-15.011-4.744-15.011l36.768,2.345,96.722,21.308,159.079,169.632,8.7,87.657L1041.663,1199.5Z"/>
      <g id="Group_282" data-name="Group 282">
        <g id="Group_281" data-name="Group 281">
          <path id="Path_843" data-name="Path 843" d="M1487.279,569.334c-10.279-27.186-32.812-55.071-44.544-63.607s-39.546-25.35-45.8-27.6-30.656,1.158-32.669,4.919c0,0-15.151-.582-22.773,5.563a16.194,16.194,0,0,0-6.151,14.575s-36.8,6.706-44.073,12.626,5.046,11.285,15.8,10.017,30.4-4.811,37.329-3.611,31.71,20.956,31.71,20.956-31.352-7.387-45.3-8.008-35.936,2.713-40.6,3.5-3.576,8.22,2.633,11.363,36.189,3.038,41.153,5.012,33.614,20.468,39.637,24.47a110.3,110.3,0,0,1,10.555,7.981s-11.494.51-19.459-4.212-21.18-11.481-31.753-11.072-11.937,6.709,2.237,14.575,29.049,22.178,49.528,27.211,59.089,19.488,73.307,25.764,39.921-25.734,46.452-31.915S1496.169,592.844,1487.279,569.334Z" fill="#f9cfcc"/>
          <path id="Path_844" data-name="Path 844" d="M1379.007,612.3c-11.63-24.861-36.169-41.354-54.107-35.013l-2.754,5.431,7.647,12.727Z"/>
          <path id="Path_845" data-name="Path 845" d="M1339.65,501.811c6.64-1.4,15.188-3.171,25.767,1.568s33.422,17.421,33.422,17.421" fill="none" stroke="#0d0d0c" stroke-linecap="round" stroke-linejoin="round" stroke-width="2"/>
          <path id="Path_846" data-name="Path 846" d="M1370.154,483.59c7.027.16,14.3,1.824,19.111,4.652s22.1,17.375,22.1,17.375" fill="none" stroke="#0d0d0c" stroke-linecap="round" stroke-linejoin="round" stroke-width="2"/>
          <path id="Path_847" data-name="Path 847" d="M818.212,908.624c9.078-27.611,30.365-56.458,41.712-65.5s38.4-27.06,44.544-29.585,30.678-.188,32.853,3.482c0,0,15.112-1.246,22.995,4.559a16.192,16.192,0,0,1,6.784,14.291s37.059,5.085,44.585,10.681-4.546,11.5-15.351,10.7-30.58-3.473-37.451-1.97-30.76,22.326-30.76,22.326,31-8.755,44.9-9.986,36.02,1.134,40.714,1.718,3.934,8.054-2.132,11.467-36.02,4.622-40.894,6.812-32.683,21.923-38.525,26.185a110.472,110.472,0,0,0-10.194,8.436s11.505.005,19.255-5.062,20.656-12.4,31.237-12.453,12.22,6.179-1.6,14.659-28.048,23.431-48.287,29.357S864.427,970.8,850.5,977.7s-41.012-23.958-47.807-29.847S810.362,932.5,818.212,908.624Z" fill="#f9cfcc"/>
          <path id="Path_848" data-name="Path 848" d="M957.929,834.91c-9.7.061-24.351,7.322-28.2,9.484s-24.6,13.429-24.6,13.429" fill="none" stroke="#0d0d0c" stroke-linecap="round" stroke-linejoin="round" stroke-width="2"/>
          <path id="Path_849" data-name="Path 849" d="M933.665,818.85c-9.163,1.944-39.472,17.422-46.051,21.735" fill="none" stroke="#0d0d0c" stroke-linecap="round" stroke-linejoin="round" stroke-width="2"/>
          <path id="Path_850" data-name="Path 850" d="M879.934,964.612c-17.718,9.746-58.356,80.358-72.255,128.865s-46.588,119.5-102.691,158.3-101.51,41.636-105.443,31.62-11.689-83.782,40.225-141.232c77.042-85.256,156.2-192.042,164.311-205.738S879.934,964.612,879.934,964.612Z" fill="#f9cfcc"/>
          <path id="Path_851" data-name="Path 851" d="M598.926,1281.391c4.188,19.7,84.258,35.49,185.607,13.18s253.5-66.643,253.5-66.643,27.247-193.072-.722-185.72-106.453,26.686-193.329,66.426-202.725,93.6-202.725,93.6Z" fill="#f9cfcc"/>
          <path id="Path_852" data-name="Path 852" d="M794.421,1131.381c-6.27,14.338-13.737,33.5-20.347,42.857,0,0,45.748,7.231,72.106,43.2s25.976,55.956,25.976,55.956l29.186-7.673-29.314-127.992-34.375-28.555-22.58,11.879Z"/>
          <path id="Path_853" data-name="Path 853" d="M1403.449,957.856c77.656-49.353,210.265-128.177,243.26-141.505S1753.186,851.8,1752.6,869.576s-88.567,111.387-140.983,147.109c-117.558,80.117-174.938,99.512-263.154,165.9Z" fill="#f9cfcc"/>
          <path id="Path_854" data-name="Path 854" d="M1585.51,842.97c37.565,1.571,51.086,154.679,51.086,154.679l-8.933,7.207-64.092-21.187.953-123.277Z"/>
          <path id="Path_855" data-name="Path 855" d="M1417.26,610.726c17.4,15.453,66.446,71.362,95.4,112.806,28.9,41.362,68.425,108.487,130.873,135.932s107.568,21.611,109.528,11.03,4.637-67.264-66.3-131.028c-85.461-76.816-189.81-158.9-200.376-170.809S1417.26,610.726,1417.26,610.726Z" fill="#f9cfcc"/>
          <path id="Path_856" data-name="Path 856" d="M1104.814,722.848c-3.1,13.719-.286,35.177.373,43.454s4.616,11.787.763,21.034-19.237,23.258-21.926,27.865,8.316,15.148,8.316,15.148.4,22.074.3,47.69,5.113,50.384,14.647,55.77,16.513,10.243,59.962,5a46.507,46.507,0,0,1-7.108,34.059c-11.237,16.6-25.069,21.387-51,26.076,0,0,33.716,59.018,141.156,59.723s127.106-85.213,127.106-85.213-52.6-14.624-62.292-21.832-18.641-37.527-10.832-63.456c0,0,45.131-24.076,73.079-77.251s3.5-168.343-83.489-187.68S1120.228,654.659,1104.814,722.848Z" fill="#f9cfcc"/>
          <path id="Path_857" data-name="Path 857" d="M1232.249,857.161c6.8,16.254,6.625,36.5-5.228,44.525s6.034,9.839,16.774,1.3,11.632-26.172,11.632-26.172,3.572,11.619,1.35,23.482-1.912,19.884,6.723,14.245,10.874-27.407,10.874-27.407l-16.888-26.411-21.611-20.178Z"/>
          <path id="Path_858" data-name="Path 858" d="M1186.983,778.926c12.658,22.891,24.785,47.211,28.366,65.993s-20.2,32.708-25.991,30.8-5.667,2.675,2.147,4.548,16.925,1.049,27.48-5.554,21.533-36.37,21.533-36.37l-30.973-60.439-12.382-36.33-14.46,5.2Z"/>
          <path id="Path_859" data-name="Path 859" d="M1167.951,839.251c-12.492,12.361-35.323,19.916-44.007,14.282s1.595-.058,14.177-9.24a42.485,42.485,0,0,0,16.533-42.1c-3.186-16.571-9.777-38.229-8.268-54.492s2.4-26.624,9.943-36.671,9.507-5.877,9.507-5.877l8.055,20.993Z"/>
          <path id="Path_860" data-name="Path 860" d="M1092.45,837.819c19.1-12.151,13.5-50.483,13.5-50.483l1.655-7.041L1123,791.76s1.519,26.047,1.285,27.026-.418,21.574-.711,22.06-24.381,17.937-24.724,17.578-6.257-6.135-6.257-6.135Z"/>
          <path id="Path_861" data-name="Path 861" d="M1172.557,937.877c27.635-3.31,53.063-25.044,53.063-25.044" fill="none" stroke="#db8882" stroke-linecap="round" stroke-linejoin="round" stroke-width="2"/>
          <path id="Path_862" data-name="Path 862" d="M1158.185,975.606c20.214,33.319,128.793,32.125,167.563-7.981l3.043-9.6,14.967,5.753s-4.144,31.51-5.1,32.426-124.181,52.094-124.181,52.094l-88-29.756,10.7-26.845s6.48-3.735,13.2-8.645S1158.185,975.606,1158.185,975.606Z"/>
          <path id="Path_863" data-name="Path 863" d="M1192.818,762.462c22.1,35.389,35.076,70.048,47.152,96.327s-6.4,56.17,1.3,55.782,20.995-16.4,20.995-16.4-4.675,21.516,1.2,20.212,11.93-13.019,11.93-13.019-.2,9.876,10.792.518,12.066-11.306,12.066-11.306-13.95,13.951-7.7,16.382,34.36-15.573,52.312-37.436a15.315,15.315,0,0,0,2.078,10.541c3.257,5.182,3.424-.11,2.985-3.495s4.518-10.312,23.292-27.978,7.989-13.955,20.487-42.244S1192.818,762.462,1192.818,762.462Z" fill="#ed759d"/>
          <path id="Path_864" data-name="Path 864" d="M1575.364,1091.9l-14.868,36.873a.03.03,0,0,1-.018.017l-1.843,2.043-66.466,73.465-6.554,7.25-445.2,78.068-78.384-236.355c35.151-12.06,50.727-23.719,103.691-38.972,31.016-8.927,64.323-14.956,64.323-14.956s31.316,30.122,98.007,21.688,121.386-62.46,121.386-62.46,4.81-1.684,14.151-5.7q1.785-.762,3.781-1.643l.007,0c10.788-4.736,26.336-12.03,46.353-22.561a83.1,83.1,0,0,1,19.182-6.993,112.61,112.61,0,0,1,24.526-3.066l15.541,22.84Z" fill="#fff"/>
          <path id="Path_865" data-name="Path 865" d="M1048.364,1060.754c-30.866-17.59-44.982-25.22-93.15-4.682-29.782,12.7-114.5,45.664-128.658,50.128s-11.483,14.857-11.483,14.857,22.258-1.088,31.573,24.625,10.6,65.1,20.248,84.794,19.826,51.112,19.469,66.769,26.862,16.977,37.708,4.909c0,0,22.709-5.97,56.984-6.829s56.751-5.284,80.006-9.175,31.678-52.053,36.829-95.65S1082.181,1080.026,1048.364,1060.754Z" fill="#fff"/>
          <path id="Path_866" data-name="Path 866" d="M1353.236,982.806c-67.6,92.823-207.933,74.066-231.5,81.1s-21.973,24.663-21.973,24.663c19.684,46.956,12.266,105.939,11.677,110.223.126-1.952.872-15.468-1.2-42.415-1.769-22.945-11.916-41.979-28.253-53.971a67.613,67.613,0,0,0-14.833-8.242c-12.844-5.174-51.242-.953-89.377,6.555-35.95,7.072-71.666,17.071-85.533,24.859-28.565,16.058-15.9,27.18-16.575,46.037-.652,18.322,5.109,46.959,5.432,48.566a282.967,282.967,0,0,1-9.973-37.993c-3.877-20.786-7.606-42.841-16.575-52.02-8.21-8.419-17.822-2.906-14.023,4.033a32.242,32.242,0,0,0-25.452-13.143s-2.679-10.4,11.48-14.861,98.876-37.429,128.663-50.128q3.527-1.5,6.819-2.81a.1.1,0,0,1,.047-.013c4.165-1.433,8.056-2.861,11.765-4.282,27.575-10.59,45.219-21.236,91.879-34.677,31.016-8.927,64.323-14.956,64.323-14.956s31.316,30.122,98.007,21.688c38.1-4.817,72.291-24.517,94.6-40.526Z" fill="#c9d6e8"/>
          <path id="Path_867" data-name="Path 867" d="M1137.171,991.694c12.667,20.283,58.358,32.539,133.645,12.313s57.975-45.985,57.975-45.985l-9.038-3.774s5.766-5.906,18.184-1.529,17.632,4.036,18.987,9.584,6.1,37.528-70.371,65.3-135.378,10.888-160.546-2.43-20.733-31.059-13.164-35.649,30.255-1.491,30.255-1.491Z" fill="#c9d6e8"/>
          <path id="Path_868" data-name="Path 868" d="M1107.414,997.394c-2.423,11.389,2.9,19.158,21.645,29.328s67.738,20.53,100.443,14.481" fill="none" stroke="#0d0d0c" stroke-linecap="round" stroke-linejoin="round" stroke-width="3"/>
          <path id="Path_869" data-name="Path 869" d="M1040.56,1289.595l22.869-4.016a17.543,17.543,0,0,1-2.37.568C1054.26,1287.286,1047.535,1288.47,1040.56,1289.595Z" fill="#c9d6e8"/>
          <path id="Path_870" data-name="Path 870" d="M973.847,1048.967c-3.709,1.421-7.6,2.849-11.765,4.282C966.263,1051.587,970.165,1050.162,973.847,1048.967Z" fill="#c9d6e8"/>
          <path id="Path_871" data-name="Path 871" d="M973.847,1048.967c-3.709,1.421-7.6,2.849-11.765,4.282C966.263,1051.587,970.165,1050.162,973.847,1048.967Z" fill="#c9d6e8"/>
          <path id="Path_872" data-name="Path 872" d="M1639,1023.751c13.095,15.192-.4,49.3-13.768,46.524,0,0-16.567,5.909-39.136,31.716-9.227,10.546-17.652,19.194-25.6,26.783a.03.03,0,0,1-.018.017c-.819.787-1.631,1.552-2.435,2.313l-.015.007c-10.559,9.923-20.332,18.088-30.139,26.537-8.543,7.363-22.706,5.644-39.186-.782-17.975-6.99-38.707-19.581-57.907-32.051-36.822-23.908-74.909-82.7-68.11-121.028,4.442-25.05,7.326-40.224,25.71-55.607,7.293-6.1,17.016-12.224,30.235-19.014,3.919-2.009,8.778-4.569,14.285-7.506,34.926-18.6,95.728-52.438,106.515-59.376,12.49-8.036,25.089-1.893,25.089-1.893s3,.457,8.284,5.639c.278.269.563.552.847.853a.321.321,0,0,1,.067.066q.179.183.358.364c3.5,3.7,7.869,9.353,12.934,17.994,13.813,23.6,16.669,64.359,25.645,84.373S1628.78,1011.884,1639,1023.751Z" fill="#fff"/>
          <path id="Path_873" data-name="Path 873" d="M1564.429,872.47c8.072,6.131,14.2,16.733,17.326,33.679s-16.88,18.741-52.127,22.861c-16.062,1.878-38.856,5.7-56.645,12.424-21.257,8.035-35.382,20.19-22.4,38.089,23.555,32.462,36.212,80.149,36.529,81.349,0-.406-.029-2.695-.09-13.761-.08-15.489-3.381-46.78-3.381-46.78,12.362,28.489,13.213,95.694,13.213,95.694s.41,7.455,7.591,16.572,40.082,26.243,53.578,18.514l.015-.007a2.86,2.86,0,0,1,.592-.27l-66.466,73.465c-.919-12.731-2.063-28.348-3.466-47.433q-.367-4.983-.755-10.293c-6.593-89.59-14.5-98.656-25.241-122.271s-32.5-62.784-59.85-73a50.67,50.67,0,0,0-14.461-3.123,51.335,51.335,0,0,0-21.015,3.034c10.788-4.736,26.336-12.03,46.353-22.561a83.1,83.1,0,0,1,19.182-6.993c34.926-18.6,95.728-52.438,106.515-59.376,12.49-8.036,25.089-1.893,25.089-1.893s3,.457,8.284,5.639C1566.924,860.837,1556.771,866.651,1564.429,872.47Z" fill="#c9d6e8"/>
          <path id="Path_874" data-name="Path 874" d="M1574.076,867.313a2.691,2.691,0,0,1-.358-.364Q1573.9,867.132,1574.076,867.313Z" fill="#c9d6e8"/>
          <path id="Path_875" data-name="Path 875" d="M1282.341,586.8c-25.532-28.5-59.477-7.414-100.176-1.508s-84.286,43.272-98.34,76.772-5.126,67.868,4.842,85.182,5.387-.116,3.619-11.786-1.075-21.493,8.678-34.674c0,0-11.669,18.668-.428,56.99,13.453,45.864,25.522,63.878,9.353,83.263-10.663,12.783-26.1,14.888-38.364,9.445s-16.505-22.022-20.154-21.063,2.192,21.525,14.839,33.367,44.567,17.309,71.243-13.312c20.077-23.045,8.673-58.4,5.587-86.623s16.371-51.539,16.371-51.539-18.011,29.544,1.949,81.482c10.654,27.721,5.094,54.751-13.118,64.028-8.79,4.477-2.124,9.467,10.01,1.81,15.89-10.028,39.071-39.52,35.213-68.18-4.159-30.907-1.974-32.1-1.974-32.1s6.21,25.235,32.71,46.185c29.224,23.1,39.923,34.825,42.587,44.959s15.85-.7,11.653-19.965c0,0,11.716,23.138,12.871,32.477s8.928,2.545,9.771-10.685c0,0,2.2,6.564,5.858,6.576s13.392-10.779,13.392-10.779-5.913,15.422,2.3,13.7,17.025-4.476,34.714-21.26,25.436-31.821,25.436-31.821-1.075,29.139,1.44,35.411,4.054-1.065,7.213-8.83,29.072-34.014,38.04-65.84-11.506-100.356-41.337-142.2S1321,578.478,1282.341,586.8Z" fill="#ed759d"/>
          <path id="Path_876" data-name="Path 876" d="M1387.037,739.248c13.495,58.05,11.8,83.677-7.706,112.654-19.121,28.412-8.48,41.309-6.605,42.279s2.638-15.35,11.223-25.129c20.119-22.917,32.077-23.2,49.778-63.18,25.575-57.756-5.8-142.433-52.108-188.039S1387.037,739.248,1387.037,739.248Z" fill="#ed759d"/>
          <path id="Path_877" data-name="Path 877" d="M1367.329,762.315c13.494,58.05,7.03,82.248-19.173,104.3s-18.273,40.358-16.4,41.327,1-7.179,10.94-15.578,53.3-45.576,71.4-85.372-27.138-129.791-73.445-175.4S1367.329,762.315,1367.329,762.315Z" fill="#ed759d"/>
          <path id="Path_878" data-name="Path 878" d="M1190.919,762.7c17.957,49.355,40.379,81.641,26.373,104.009s-5.088,17.7,3.472,12.265,22.519-21.034,20.81-41.336-7.894-25.477-7.894-25.477L1197.786,749.4l-5.831,2.752Z" fill="#ed759d"/>
          <path id="Path_879" data-name="Path 879" d="M1225.56,615.918c-15.478,48.271,13.327,110.863,27.487,149.6,18.521,50.669,13.741,83.972,13.741,83.972" fill="none" stroke="#fff" stroke-linecap="round" stroke-linejoin="round" stroke-width="4"/>
          <path id="Path_880" data-name="Path 880" d="M1260.328,594.86c-11.751,24.541,36.736,75.939,54.172,129.416,29.019,89-22.558,142.058-28.044,157.151" fill="none" stroke="#fff" stroke-linecap="round" stroke-linejoin="round" stroke-width="4"/>
          <path id="Path_881" data-name="Path 881" d="M1321.081,596.007c48.513,31.231,71.821,63.023,77.087,120.141s-13.737,78.8-13.737,78.8" fill="none" stroke="#fff" stroke-linecap="round" stroke-linejoin="round" stroke-width="4"/>
          <path id="Path_882" data-name="Path 882" d="M1360.64,736.12c6.732-48.572-33.284-108.828-53.759-124.9" fill="none" stroke="#fff" stroke-linecap="round" stroke-linejoin="round" stroke-width="4"/>
          <path id="Path_883" data-name="Path 883" d="M1189.708,738.341c-13.655-55.239-2.675-79.407-2.675-79.407" fill="none" stroke="#fff" stroke-linecap="round" stroke-linejoin="round" stroke-width="4"/>
          <path id="Path_884" data-name="Path 884" d="M1109.347,681.571c11.89-33.894,40.632-61.384,78.2-73.428" fill="none" stroke="#fff" stroke-linecap="round" stroke-linejoin="round" stroke-width="4"/>
        </g>
        <path id="Path_885" data-name="Path 885" d="M1611.587,840.888c29.294,10.326,106.446-2.806,106.446-2.806" fill="none" stroke="#db8882" stroke-linecap="round" stroke-linejoin="round" stroke-width="2"/>
        <path id="Path_886" data-name="Path 886" d="M788.151,1145.719c-13.556,45.039-76.113,93.905-76.113,93.905" fill="none" stroke="#db8882" stroke-linecap="round" stroke-linejoin="round" stroke-width="2"/>
        <path id="Path_887" data-name="Path 887" d="M1035.1,1304.471c41.066-37.341,56.219-86.747,56.219-86.747" fill="none" stroke="#0d0d0c" stroke-linecap="round" stroke-linejoin="round" stroke-width="3"/>
        <path id="Path_888" data-name="Path 888" d="M1047.677,1044.417s22.22,4.573,35.177,16.768,37.113,56.172,28.355,139.909c-1.448,13.838-21.3,56.171-21.3,56.171" fill="none" stroke="#0d0d0c" stroke-linecap="round" stroke-linejoin="round" stroke-width="3"/>
        <path id="Path_889" data-name="Path 889" d="M1429.594,970.788c22.683,27.189,43.784,74.075,49.638,92.634s12.414,143.4,12.414,143.4" fill="none" stroke="#0d0d0c" stroke-linecap="round" stroke-linejoin="round" stroke-width="3"/>
        <path id="Path_890" data-name="Path 890" d="M1479.062,987.36c12.922,21.954,6.436,126.738,6.436,126.738" fill="none" stroke="#0d0d0c" stroke-linecap="round" stroke-linejoin="round" stroke-width="3"/>
      </g>
    </g>
  </g>
</svg>
