<svg xmlns="http://www.w3.org/2000/svg" width="594.306" height="632.121" viewBox="0 0 594.306 632.121">
  <g id="window" transform="translate(-2611.96 75.386)">
    <g id="Group_116" data-name="Group 116" transform="translate(2611.96 -74.826)">
      <rect id="Rectangle_4" data-name="Rectangle 4" width="563.525" height="367.471" transform="translate(0 20.454)" opacity="0"/>
      <path id="Path_576" data-name="Path 576" d="M3728.654,473.976l-73.567,81.535v76.7l-216,291.384,509.985-23.365L3729.893,637.48Z" transform="translate(-3354.762 -292.029)" fill="#155aa7"/>
      <path id="Path_577" data-name="Path 577" d="M3729.16,677.193l-74.073,85.732-14.8,25.021,20.636-18.88,68.308-79.655Z" transform="translate(-3354.762 -427.872)"/>
      <g id="Group_112" data-name="Group 112" transform="translate(84.786 0)" opacity="0.2">
        <g id="Group_110" data-name="Group 110" transform="translate(314.585)">
          <line id="Line_18" data-name="Line 18" x1="73.341" y2="108.455" transform="translate(15.772)" fill="none" stroke="#fff" stroke-miterlimit="10" stroke-width="2"/>
          <path id="Path_578" data-name="Path 578" d="M4021.292,292.217l-8.337,12.195v207.31l79.313,44.368" transform="translate(-4012.955 -170.53)" fill="none" stroke="#fff" stroke-miterlimit="10" stroke-width="2"/>
          <line id="Line_19" data-name="Line 19" y2="220.853" transform="translate(18.702 120.6)" fill="none" stroke="#fff" stroke-miterlimit="10" stroke-width="2"/>
          <line id="Line_20" data-name="Line 20" y2="30.617" transform="translate(41.008 80.001)" fill="none" stroke="#fff" stroke-miterlimit="10" stroke-width="2"/>
          <line id="Line_21" data-name="Line 21" y2="38.746" transform="translate(67.145 45.233)" fill="none" stroke="#fff" stroke-miterlimit="10" stroke-width="2"/>
          <line id="Line_22" data-name="Line 22" y2="50.358" transform="translate(97.864)" fill="none" stroke="#fff" stroke-miterlimit="10" stroke-width="2"/>
        </g>
        <g id="Group_111" data-name="Group 111">
          <line id="Line_23" data-name="Line 23" x2="73.341" y2="108.455" transform="translate(8.75)" fill="none" stroke="#fff" stroke-miterlimit="10" stroke-width="2"/>
          <path id="Path_579" data-name="Path 579" d="M2961.674,292.217l8.336,12.195v207.31L2890.7,556.091" transform="translate(-2872.146 -170.53)" fill="none" stroke="#fff" stroke-miterlimit="10" stroke-width="2"/>
          <line id="Line_24" data-name="Line 24" y2="220.853" transform="translate(79.162 120.6)" fill="none" stroke="#fff" stroke-miterlimit="10" stroke-width="2"/>
          <line id="Line_25" data-name="Line 25" y2="173.623" transform="translate(56.856 80.001)" fill="none" stroke="#fff" stroke-miterlimit="10" stroke-width="2"/>
          <line id="Line_26" data-name="Line 26" y2="299.928" transform="translate(30.719 63.55)" fill="none" stroke="#fff" stroke-miterlimit="10" stroke-width="2"/>
          <line id="Line_27" data-name="Line 27" y2="182.488" fill="none" stroke="#fff" stroke-miterlimit="10" stroke-width="2"/>
          <line id="Line_28" data-name="Line 28" x2="31.256" transform="translate(97.864 133.883)" fill="none" stroke="#fff" stroke-miterlimit="10" stroke-width="2"/>
        </g>
        <line id="Line_29" data-name="Line 29" x1="149.449" transform="translate(165.136 341.193)" fill="none" stroke="#fff" stroke-miterlimit="10" stroke-width="2"/>
      </g>
      <g id="Group_115" data-name="Group 115" transform="translate(436.124 30.256)">
        <g id="Group_114" data-name="Group 114" transform="translate(0 0)">
          <path id="Path_580" data-name="Path 580" d="M4208.76,190.531l44.792-48.79v220.3l-44.792-12.426Z" transform="translate(-4185.152 -100.198)"/>
          <g id="Group_113" data-name="Group 113">
            <rect id="Rectangle_5" data-name="Rectangle 5" width="19.438" height="159.085" transform="translate(4.169 90.333)" fill="#fff"/>
            <path id="Path_581" data-name="Path 581" d="M4160.684,301.671l-11.554,14.84V447.989h-7.885V288.9h19.438Z" transform="translate(-4137.076 -198.571)" fill="#155aa7"/>
            <path id="Path_582" data-name="Path 582" d="M4144.793,425.181l-13.859,9.314-4.17,6.748V428.267l4.17-5.572,7.884-4.713Z" transform="translate(-4126.764 -284.855)"/>
            <path id="Path_583" data-name="Path 583" d="M4160.684,147.246l44.792-48.79V76.988l-64.23,70.258Z" transform="translate(-4137.076 -56.912)" fill="#155aa7"/>
            <path id="Path_584" data-name="Path 584" d="M4130.934,106.768l-4.17-2.984,76.226-87.349-7.827,20.076Z" transform="translate(-4126.764 -16.434)"/>
            <path id="Path_585" data-name="Path 585" d="M4160.684,768.749l44.792,12.426v6.25l-64.23-18.675Z" transform="translate(-4137.076 -519.33)" fill="#fff"/>
            <path id="Path_586" data-name="Path 586" d="M4364.338,36.51V284.528l7.827,7.586V16.434Z" transform="translate(-4295.938 -16.434)"/>
            <path id="Path_587" data-name="Path 587" d="M4126.764,279.9V444.358l4.17-2.386V282.887Z" transform="translate(-4126.764 -192.553)"/>
            <path id="Path_588" data-name="Path 588" d="M4126.764,771.134l76.226,23.876-7.827-7.586-64.229-18.675Z" transform="translate(-4126.764 -519.33)"/>
            <rect id="Rectangle_6" data-name="Rectangle 6" width="3.385" height="275.68" transform="translate(76.226)"/>
            <path id="Path_589" data-name="Path 589" d="M4168.631,342.221l56.346-37.574v9.883l-56.346,34.891Z" transform="translate(-4156.578 -209.094)"/>
            <path id="Path_590" data-name="Path 590" d="M4168.631,369.348h5.976l50.37-29.831v-5.061Z" transform="translate(-4156.578 -229.021)" fill="#fff"/>
          </g>
        </g>
        <line id="Line_30" data-name="Line 30" y1="9.596" x2="16.207" transform="translate(19.663 129.763)" fill="none" stroke="#0d0d0c" stroke-linecap="round" stroke-linejoin="round" stroke-width="2"/>
        <line id="Line_31" data-name="Line 31" x2="14.737" transform="translate(4.169 90.333)" fill="none" stroke="#0d0d0c" stroke-linecap="round" stroke-linejoin="round" stroke-width="2"/>
        <path id="Path_591" data-name="Path 591" d="M4141.246,768.749h19.438l5.918,1.642" transform="translate(-4137.076 -519.33)" fill="none" stroke="#0d0d0c" stroke-linecap="round" stroke-linejoin="round" stroke-width="2"/>
        <line id="Line_32" data-name="Line 32" y1="112.395" transform="translate(23.607 137.023)" fill="none" stroke="#0d0d0c" stroke-linecap="round" stroke-linejoin="round" stroke-width="2"/>
        <line id="Line_33" data-name="Line 33" x1="32.115" y1="8.909" transform="translate(36.284 252.935)" fill="none" stroke="#0d0d0c" stroke-linecap="round" stroke-linejoin="round" stroke-width="2"/>
        <line id="Line_34" data-name="Line 34" y1="0.955" x2="1.613" transform="translate(37.291 127.964)" fill="none" stroke="#0d0d0c" stroke-linecap="round" stroke-linejoin="round" stroke-width="2"/>
      </g>
    </g>
  </g>
</svg>
