<svg xmlns="http://www.w3.org/2000/svg" width="567.435" height="532.712" viewBox="0 0 567.435 532.712">
  <g id="Group_2769" data-name="Group 2769" transform="matrix(1, 0.017, -0.017, 1, -1499, -1434.216)">
    <path id="Path_5558" data-name="Path 5558" d="M1416.152,422.193s24.1,25.815,25.939,27.254,5.038,0,5.038,0l66.814,45.395,31.877,3.74,62.588,75.86,150.607,128.634s158.273,140.17,204,194.611c.148.176-144.407,22.1-144.407,22.1l-220.386-239.37L1460.3,585.73l-7.736-72.187Z" transform="translate(128.332 986.962)"/>
    <g id="Group_2770" data-name="Group 2770" transform="translate(1528.831 1407.748)">
      <g id="Group_2769-2" data-name="Group 2769" transform="translate(131.581 202.751)">
        <path id="Path_5559" data-name="Path 5559" d="M1882.954,915.1s178.916,150.876,276.307,282.53l-210.257,38.626L1838.225,1006.93Z" transform="translate(-1781.743 -915.101)" fill="#f9cfcc"/>
        <path id="Path_5560" data-name="Path 5560" d="M1934.086,1237.547l-66.871,14.131s-82.268-175.594-110.781-222.088c-24.91-40.619-56.481-88.417-56.481-88.417l17.387.873s58.619,64.327,72.092,80.9,41.1,56.531,56.27,77.887S1934.086,1237.547,1934.086,1237.547Z" transform="translate(-1699.953 -930.524)" fill="#e8b1b1"/>
      </g>
      <path id="Path_5561" data-name="Path 5561" d="M1701.661,706.956H1570.306l-74.52-94.271s-29.964-11.711-44.266-20.3v0c-4.815-2.89-8.6-5.172-10.113-6.1-6.024-3.7-7.679-6.058-10.755-11.79s-15.311-28.267-17.72-32.89-2.643-6.523-1.681-12.4,1.647-8.732.969-11.79a50.385,50.385,0,0,0-3.181-9.362c-1.2-2.595-1.42-3.428-.73-4.713a5.659,5.659,0,0,1,2.476-2.029s-9.266-18.409-18.036-36.762-14.388-33.462-14.707-34.9a8.415,8.415,0,0,1,1.723-7.234,11.882,11.882,0,0,1,1.308-1.409c2.6-2.4,7.308-2.783,10.714-1.622a6.333,6.333,0,0,1,3.605,2.64c27.8,49.693,44.415,73.518,44.415,73.518s3.581-.962,5.229-1.328,2.209-.114,3.654.729,4.093,2.143,4.093,2.143,1.078-2.661,1.69-4.15,1.527-1.911,3.829-2.737,7.191-2.6,9.617-1.726,7.073,2.8,7.073,2.8a6.421,6.421,0,0,1,2.937-3.964,32.724,32.724,0,0,1,12.031-2.67c3.453.156,5.225.959,9.647,2.367s15.214,4.675,18.178,5.57a8.821,8.821,0,0,1,5.37,3.969v0a17.886,17.886,0,0,1,1.052,1.9c1.7,3.522,37.659,77.281,37.659,77.281Z" transform="translate(-1377.831 -418.748)" fill="#f9cfcc"/>
      <path id="Path_5562" data-name="Path 5562" d="M1454.355,620.856l30.22,62.858a9.736,9.736,0,0,0-7.482-4.909c-4.112-.39-4.558-1.631-6.422-5.118s-3.173-3.91-6.087-4.942-5.168-2.136-8.082-7.6c-2.409-4.626-2.643-6.522-1.68-12.4s1.647-8.732.969-11.79a50.4,50.4,0,0,0-3.181-9.362c-1.2-2.595-1.419-3.427-.73-4.713A5.658,5.658,0,0,1,1454.355,620.856Z" transform="translate(-1421.402 -538.299)" fill="#e8b1b1"/>
      <path id="Path_5563" data-name="Path 5563" d="M1612.9,591.944a6.068,6.068,0,0,0-1.676-1.1c-1.1-.511-3.25-.488-8.015.524s-8.2,2.366-9.607,3.392a13.541,13.541,0,0,0-2.755,3.264,6.14,6.14,0,0,0-4.7-1.758c-1.681.09-4.368.876-8.4,2.245s-5.663,1.694-6.612,2.661a14.7,14.7,0,0,0-1.949,2.982s-1.51-.7-2.621-1.18-3.773-.137-7.726.611-10.648,2.775-11.46,4.779-2.037,5.326-2.037,5.326l-15.785-22.75s3.581-.962,5.229-1.328,2.21-.114,3.654.729,4.093,2.143,4.093,2.143,1.078-2.661,1.69-4.15,1.527-1.911,3.83-2.737,7.191-2.6,9.617-1.726,7.073,2.8,7.073,2.8a6.421,6.421,0,0,1,2.937-3.964,32.721,32.721,0,0,1,12.031-2.67c3.453.156,5.225.959,9.647,2.367s15.214,4.675,18.178,5.57A8.821,8.821,0,0,1,1612.9,591.944Z" transform="translate(-1467.576 -514.148)" fill="#e8b1b1"/>
      <path id="Path_5564" data-name="Path 5564" d="M1699.837,958.39h-22.823l-74.52-94.271s-29.964-11.711-44.266-20.3v0c4.185,2.512,11.171,3.913,16.174,3.5s7.733,1.679,10,3.945,6.365,3.745,13.888,3.336,11.567,1.927,16.056,6.877C1620.913,868.711,1699.837,958.39,1699.837,958.39Z" transform="translate(-1484.539 -670.182)" fill="#e8b1b1"/>
      <path id="Path_5565" data-name="Path 5565" d="M1458.5,620.856l4.01,7.976,3.971,7.995,7.88,16.019,7.792,16.061,3.865,8.045,3.825,8.065,0,.008a.394.394,0,0,1-.711.342l-3.922-8.019-3.883-8.039-7.7-16.107-7.615-16.15-3.777-8.09Z" transform="translate(-1425.551 -538.299)" fill="#0d0d0c"/>
      <path id="Path_5566" data-name="Path 5566" d="M1484.161,535.566l8.864,13.56c2.954,4.519,5.893,9.048,8.876,13.546q4.437,6.773,8.984,13.469l2.28,3.342,2.313,3.317c1.543,2.21,3.116,4.4,4.743,6.541l0,0a.407.407,0,0,1-.646.5c-1.666-2.138-3.271-4.316-4.845-6.514s-3.095-4.433-4.614-6.667c-3.029-4.475-5.971-9.006-8.9-13.544q-4.349-6.836-8.628-13.714l-4.242-6.9Z" transform="translate(-1440.727 -487.848)" fill="#0d0d0c"/>
      <path id="Path_5567" data-name="Path 5567" d="M1561.318,610.515q2.086.931,4.192,1.808,2.1.893,4.212,1.755c2.814,1.154,5.628,2.309,8.453,3.442,2.813,1.163,5.637,2.286,8.441,3.5l1.052.475.532.26.527.314a8.435,8.435,0,0,1,1.8,1.61,11.394,11.394,0,0,1,1.319,1.98,12.57,12.57,0,0,1,.919,2.2.465.465,0,0,1-.886.283l-.009-.027a11.462,11.462,0,0,0-2.1-3.794,7.536,7.536,0,0,0-1.582-1.427,14.878,14.878,0,0,0-1.97-.984l-8.367-3.633c-2.784-1.232-5.573-2.454-8.337-3.734q-2.072-.962-4.13-1.953T1561.318,610.515Z" transform="translate(-1486.367 -532.182)" fill="#0d0d0c"/>
      <path id="Path_5568" data-name="Path 5568" d="M1615.687,596.293c2.76.994,5.5,2.051,8.227,3.12l8.172,3.252,4.077,1.634c.683.267,1.356.523,2.048.775a21.84,21.84,0,0,1,2.073.856,6.118,6.118,0,0,1,1.9,1.383c.527.575.958,1.16,1.412,1.742.889,1.183,1.744,2.38,2.522,3.654a.413.413,0,0,1-.7.445l-.006-.009c-.8-1.2-1.651-2.388-2.548-3.528-.45-.571-.893-1.168-1.359-1.672a5.164,5.164,0,0,0-1.635-1.181c-1.269-.6-2.683-1.074-4.038-1.645s-2.711-1.127-4.061-1.7c-2.689-1.172-5.379-2.338-8.058-3.529S1618.359,597.505,1615.687,596.293Z" transform="translate(-1518.527 -523.769)" fill="#0d0d0c"/>
    </g>
  </g>
</svg>
