<svg xmlns="http://www.w3.org/2000/svg" width="991.639" height="825.682" viewBox="0 0 991.639 825.682">
  <g id="Pointhand" transform="translate(-9124.667 -738.613) rotate(2)">
    <path id="Path_639" data-name="Path 639" d="M9210.935,422.193s66.472,71.209,71.552,75.177,13.9,0,13.9,0l184.3,125.216,87.932,10.318,172.643,209.253,390.835,251.654s.634,101.51,0,101.51H9713.154v-60.845L9332.715,873.293l-21.339-199.12Z" transform="translate(4.857 0.437)"/>
    <g id="Group_156" data-name="Group 156" transform="translate(9172.614 418.748)">
      <path id="Path_640" data-name="Path 640" d="M10065.865,1213.74H9703.538L9497.98,953.7s-82.65-32.3-122.1-56l0-.009c-13.281-7.971-23.716-14.267-27.9-16.834-16.614-10.2-21.181-16.71-29.665-32.521s-42.236-77.971-48.88-90.723-7.292-17.992-4.637-34.2,4.544-24.086,2.672-32.522a138.953,138.953,0,0,0-8.773-25.823c-3.316-7.157-3.916-9.455-2.015-13s6.829-5.6,6.829-5.6-25.56-50.781-49.752-101.4-39.686-92.3-40.566-96.267a23.216,23.216,0,0,1,4.752-19.955,32.855,32.855,0,0,1,3.606-3.887c7.172-6.612,20.161-7.675,29.555-4.474,4.449,1.513,8.1,3.984,9.943,7.283,76.692,137.074,122.515,202.791,122.515,202.791s9.876-2.652,14.424-3.662,6.095-.316,10.079,2.011,11.289,5.912,11.289,5.912,2.976-7.34,4.663-11.448,4.213-5.272,10.564-7.55,19.834-7.179,26.526-4.761,19.507,7.733,19.507,7.733,1.715-7.662,8.1-10.934,23.663-7.8,33.187-7.365,14.414,2.646,26.611,6.528,41.966,12.9,50.142,15.366c6.52,1.967,10.909,4.914,14.812,10.948l0,.008a49.369,49.369,0,0,1,2.9,5.246c4.7,9.715,103.876,213.171,103.876,213.171Z" transform="translate(-9172.614 -418.748)" fill="#f9cfcc"/>
      <path id="Path_641" data-name="Path 641" d="M9254.176,620.856l83.357,173.389A26.849,26.849,0,0,0,9316.9,780.7c-11.344-1.075-12.574-4.5-17.715-14.117s-8.753-10.785-16.79-13.632-14.257-5.892-22.293-20.96c-6.645-12.76-7.292-17.992-4.637-34.2s4.544-24.086,2.672-32.522a138.953,138.953,0,0,0-8.773-25.823c-3.316-7.157-3.916-9.455-2.015-13S9254.176,620.856,9254.176,620.856Z" transform="translate(-9163.278 -393.13)" fill="#e8b1b1"/>
      <path id="Path_642" data-name="Path 642" d="M9554.24,612.9a16.732,16.732,0,0,0-4.622-3.045c-3.045-1.41-8.964-1.346-22.11,1.447s-22.614,6.527-26.5,9.358-7.6,9-7.6,9c-2.812-3.279-8.332-5.1-12.961-4.849S9468.4,627.23,9457.263,631s-15.618,4.673-18.238,7.339-5.376,8.226-5.376,8.226-4.164-1.94-7.232-3.255-10.407-.377-21.312,1.687-29.369,7.654-31.611,13.181-5.618,14.692-5.618,14.692l-43.541-62.755s9.876-2.652,14.424-3.662,6.095-.316,10.079,2.011,11.289,5.912,11.289,5.912,2.976-7.34,4.663-11.448,4.213-5.272,10.564-7.55,19.834-7.179,26.526-4.761,19.507,7.733,19.507,7.733,1.715-7.662,8.1-10.934,23.663-7.8,33.187-7.365,14.414,2.646,26.611,6.528,41.966,12.9,50.142,15.366C9545.948,603.918,9550.338,606.864,9554.24,612.9Z" transform="translate(-9153.383 -398.305)" fill="#e8b1b1"/>
      <path id="Path_643" data-name="Path 643" d="M9743.626,1159.861h-62.954L9475.114,899.823s-82.65-32.3-122.1-56l0-.009c11.542,6.928,30.813,10.794,44.616,9.646s21.329,4.632,27.577,10.882,17.558,10.33,38.309,9.2,31.908,5.314,44.29,18.969C9525.921,912.491,9743.626,1159.861,9743.626,1159.861Z" transform="translate(-9149.749 -364.869)" fill="#e8b1b1"/>
      <path id="Path_644" data-name="Path 644" d="M9253.287,620.856s78.777,163.918,85.486,177.469" transform="translate(-9162.39 -393.13)" fill="none" stroke="#0d0d0c" stroke-linecap="round" stroke-linejoin="round" stroke-width="2"/>
      <path id="Path_645" data-name="Path 645" d="M9278.945,535.565c35.975,57.385,76.721,120.9,98.578,149.025" transform="translate(-9159.138 -403.941)" fill="none" stroke="#0d0d0c" stroke-linecap="round" stroke-linejoin="round" stroke-width="2"/>
      <path id="Path_646" data-name="Path 646" d="M9356.1,610.516c23.469,11.51,67.135,28.8,73.522,32.189,8.754,4.648,11.994,15.99,11.994,15.99" transform="translate(-9149.356 -394.441)" fill="none" stroke="#0d0d0c" stroke-linecap="round" stroke-linejoin="round" stroke-width="2.278"/>
      <path id="Path_647" data-name="Path 647" d="M9410.469,596.293c21.674,8.785,51.095,21.46,60.741,25.045s10.179,4.422,14.788,10.34,7.449,10.495,7.449,10.495" transform="translate(-9142.465 -396.244)" fill="none" stroke="#0d0d0c" stroke-linecap="round" stroke-linejoin="round" stroke-width="2.023"/>
    </g>
  </g>
</svg>
