<svg xmlns="http://www.w3.org/2000/svg" xmlns:xlink="http://www.w3.org/1999/xlink" width="375" height="420" viewBox="0 0 375 420">
  <defs>
    <clipPath id="clip-path">
      <rect id="Rectangle_129" data-name="Rectangle 129" width="375" height="420" transform="translate(0 392)" fill="none"/>
    </clipPath>
  </defs>
  <g id="Mask_Group_2" data-name="Mask Group 2" transform="translate(0 -392)" clip-path="url(#clip-path)">
    <g id="Group_354" data-name="Group 354" transform="translate(0 6)">
      <g id="Pancake_top" data-name="Pancake top" transform="translate(45.595 385.806)">
        <g id="Group_255" data-name="Group 255" transform="translate(0 0)">
          <ellipse id="Ellipse_31" data-name="Ellipse 31" cx="70.428" cy="70.428" rx="70.428" ry="70.428"/>
        </g>
        <g id="Group_263" data-name="Group 263" transform="translate(12.069 12.041)">
          <g id="Group_256" data-name="Group 256" transform="translate(1.521)">
            <ellipse id="Ellipse_32" data-name="Ellipse 32" cx="65.028" cy="65.028" rx="65.028" ry="65.028" fill="#fff"/>
          </g>
          <g id="Group_257" data-name="Group 257" transform="translate(17.655 16.134)">
            <ellipse id="Ellipse_33" data-name="Ellipse 33" cx="48.894" cy="48.894" rx="48.894" ry="48.894" fill="#c9d6e8"/>
          </g>
          <g id="Group_258" data-name="Group 258" transform="translate(13.284 11.763)">
            <path id="Path_790" data-name="Path 790" d="M5820.888,808.94q-2.068.976-4.175,1.761" transform="translate(-5744.894 -707.517)" fill="none" stroke="#0d0d0c" stroke-linecap="round" stroke-linejoin="round" stroke-width="2"/>
            <path id="Path_791" data-name="Path 791" d="M5655.54,604.883a53.267,53.267,0,1,1,45.021-35.6" transform="translate(-5596.968 -498.616)" fill="none" stroke="#0d0d0c" stroke-linecap="round" stroke-linejoin="round" stroke-width="2"/>
          </g>
          <path id="Path_792" data-name="Path 792" d="M5605.172,580.644c-17-19.827-12.648-46.9,1.853-59.419,10.6-9.153,25.341-11.3,33.083-8.994,0,0,6.271-2.557,21.381.176s24.96,18.973,27.929,31.42Z" transform="translate(-5581.803 -495.287)" fill="#080b0a"/>
          <g id="Group_262" data-name="Group 262" transform="translate(0 5.524)">
            <circle id="Ellipse_34" data-name="Ellipse 34" cx="39.608" cy="39.608" r="39.608" transform="translate(9.275 63.888) rotate(-45)" fill="#fdd89b"/>
            <path id="Path_793" data-name="Path 793" d="M5713.315,584.9c3.765,12.446,1.574,26.719-6.444,36.943s-21.869,15.813-34.635,13.217a49.18,49.18,0,0,1-29.369-21.071,33.9,33.9,0,0,1-1.709-30.227c4.968-11.271,16.124-19.093,28.126-21.972,12.411-2.976,26.7-.657,35.65,8.443A35.441,35.441,0,0,1,5713.315,584.9Z" transform="translate(-5611.571 -534.079)" fill="#c78c50"/>
            <g id="Group_260" data-name="Group 260" transform="translate(29.097 35.985)">
              <path id="Path_794" data-name="Path 794" d="M5832.629,599.729a.8.8,0,1,1-.482-1.022A.8.8,0,0,1,5832.629,599.729Z" transform="translate(-5770.377 -595.708)" fill="#f79922"/>
              <path id="Path_795" data-name="Path 795" d="M5782.781,624.645a.8.8,0,1,1-.483-1.022A.8.8,0,0,1,5782.781,624.645Z" transform="translate(-5736.82 -612.481)" fill="#f79922"/>
              <ellipse id="Ellipse_35" data-name="Ellipse 35" cx="0.239" cy="0.239" rx="0.239" ry="0.239" transform="translate(56.16 11.216)" fill="#f79922"/>
              <ellipse id="Ellipse_36" data-name="Ellipse 36" cx="0.585" cy="0.585" rx="0.585" ry="0.585" transform="translate(61.27 17.902)" fill="#f79922"/>
              <g id="Group_259" data-name="Group 259" transform="translate(13.766 29.973)">
                <ellipse id="Ellipse_37" data-name="Ellipse 37" cx="1.138" cy="1.138" rx="1.138" ry="1.138" fill="#f79922"/>
              </g>
              <ellipse id="Ellipse_38" data-name="Ellipse 38" cx="0.719" cy="0.719" rx="0.719" ry="0.719" transform="translate(60.393 41.085)" fill="#f79922"/>
              <ellipse id="Ellipse_39" data-name="Ellipse 39" cx="1.207" cy="1.207" rx="1.207" ry="1.207" transform="translate(48.389 43.557)" fill="#f79922"/>
              <path id="Path_796" data-name="Path 796" d="M5702.556,729.91a.935.935,0,1,1-.564-1.2A.935.935,0,0,1,5702.556,729.91Z" transform="translate(-5682.638 -683.219)" fill="#f79922"/>
              <path id="Path_797" data-name="Path 797" d="M5738.265,723.04a.436.436,0,1,1-.263-.557A.436.436,0,0,1,5738.265,723.04Z" transform="translate(-5707.329 -679.045)" fill="#f79922"/>
              <ellipse id="Ellipse_40" data-name="Ellipse 40" cx="1.314" cy="1.314" rx="1.314" ry="1.314" transform="translate(8.278 18.75)" fill="#f79922"/>
              <ellipse id="Ellipse_41" data-name="Ellipse 41" cx="0.597" cy="0.597" rx="0.597" ry="0.597" transform="translate(39.761 0.479)" fill="#f79922"/>
              <ellipse id="Ellipse_42" data-name="Ellipse 42" cx="1.433" cy="1.433" rx="1.433" ry="1.433" transform="translate(17.125)" fill="#f79922"/>
              <path id="Path_798" data-name="Path 798" d="M5800.079,597.194l-.381-.137-.381-.137.381.137Z" transform="translate(-5748.996 -594.538)" fill="#f79922"/>
              <path id="Path_799" data-name="Path 799" d="M5837.94,701.011a.94.94,0,1,1-.568-1.2A.94.94,0,0,1,5837.94,701.011Z" transform="translate(-5773.768 -663.761)" fill="#f79922"/>
              <ellipse id="Ellipse_43" data-name="Ellipse 43" cx="0.719" cy="0.719" rx="0.719" ry="0.719" transform="translate(48.899 31.301)" fill="#f79922"/>
              <ellipse id="Ellipse_44" data-name="Ellipse 44" cx="0.719" cy="0.719" rx="0.719" ry="0.719" transform="translate(23.937 12.201)" fill="#f79922"/>
              <path id="Path_800" data-name="Path 800" d="M5802.773,671.075a.94.94,0,1,1-.567-1.2A.94.94,0,0,1,5802.773,671.075Z" transform="translate(-5750.095 -643.609)" fill="#f79922"/>
              <ellipse id="Ellipse_45" data-name="Ellipse 45" cx="1.508" cy="1.508" rx="1.508" ry="1.508" transform="translate(34.638 54.404)" fill="#f79922"/>
              <ellipse id="Ellipse_46" data-name="Ellipse 46" cx="0.836" cy="0.836" rx="0.836" ry="0.836" transform="translate(4.102 43.167)" fill="#fcb830"/>
              <path id="Path_801" data-name="Path 801" d="M5647.637,691.38a1.177,1.177,0,1,1-.71-1.5A1.177,1.177,0,0,1,5647.637,691.38Z" transform="translate(-5645.353 -657.065)" fill="#fcb830"/>
              <ellipse id="Ellipse_47" data-name="Ellipse 47" cx="0.468" cy="0.468" rx="0.468" ry="0.468" transform="translate(1.874 39.421)" fill="#fcb830"/>
              <ellipse id="Ellipse_48" data-name="Ellipse 48" cx="0.537" cy="0.537" rx="0.537" ry="0.537" transform="translate(70.711 13.009)" fill="#fcb830"/>
            </g>
            <circle id="Ellipse_49" data-name="Ellipse 49" cx="39.608" cy="39.608" r="39.608" transform="translate(14.187 56.014) rotate(-45)" fill="#fdd89b"/>
            <path id="Path_802" data-name="Path 802" d="M5728.341,560.807c3.765,12.446,1.574,26.719-6.444,36.943s-21.87,15.812-34.635,13.217a49.182,49.182,0,0,1-29.37-21.072,33.9,33.9,0,0,1-1.709-30.227c4.969-11.271,16.124-19.093,28.126-21.972,12.411-2.976,26.7-.657,35.65,8.443A35.446,35.446,0,0,1,5728.341,560.807Z" transform="translate(-5621.686 -517.862)" fill="#c78c50"/>
            <path id="Path_803" data-name="Path 803" d="M5812.508,556.154c5.147,5.962,9.231,12.834,10.607,20.69a49.3,49.3,0,0,1,.435,13.688c0-.012.008-.023.012-.035,2.953-9.775,1.876-20.519-1.958-29.983-2.033-5.022-4.955-9.883-9.406-12.974-3.864-2.684-8.586-3.833-13.251-4.443-.274-.036-.551-.064-.826-.1A71.636,71.636,0,0,1,5812.508,556.154Z" transform="translate(-5719.095 -522.254)" fill="#fdd89b"/>
            <path id="Path_804" data-name="Path 804" d="M5716.269,592.632a40.6,40.6,0,0,0-30.2-53.55c-.588.116-1.176.232-1.757.371-12,2.878-23.157,10.7-28.126,21.972a33.9,33.9,0,0,0,1.709,30.227,49.181,49.181,0,0,0,29.37,21.071,33.139,33.139,0,0,0,13.495-.148A40.421,40.421,0,0,0,5716.269,592.632Z" transform="translate(-5621.686 -519.617)" fill="#080b0a"/>
            <path id="Path_805" data-name="Path 805" d="M5743.126,756.05c-3.445.769-5.808,1.32-6.13,2.579,0,0-9.873,4.355-20.636,1.3l22.106-7.718Z" transform="translate(-5664.055 -663.092)" fill="#080b0a"/>
            <g id="Group_261" data-name="Group 261" transform="translate(0 1.384)">
              <circle id="Ellipse_50" data-name="Ellipse 50" cx="39.608" cy="39.608" r="39.608" transform="translate(0 56.014) rotate(-45)" fill="#fdd89b"/>
              <path id="Path_806" data-name="Path 806" d="M5684.935,565.042c3.765,12.446,1.574,26.72-6.444,36.944s-21.869,15.812-34.635,13.216a49.176,49.176,0,0,1-29.369-21.071,33.9,33.9,0,0,1-1.709-30.227c4.968-11.27,16.124-19.093,28.126-21.972,12.41-2.977,26.7-.657,35.65,8.443A35.443,35.443,0,0,1,5684.935,565.042Z" transform="translate(-5592.466 -522.097)" fill="#c78c50"/>
              <path id="Path_807" data-name="Path 807" d="M5665.463,568.266a7.411,7.411,0,0,0-1.461,1.147c-1.161,1.158-2.194,2.524-3.679,3.221-2.343,1.1-5.14.241-7.667.8a6.932,6.932,0,0,0-4.882,9.5c1.589,3.708,4.9,6.144,3.214,10.636-1.412,3.769-5.387,6.982-4.211,11.425.789,2.974,3.829,4.711,6.681,5.864s6,2.208,7.751,4.74c1.079,1.563,1.467,3.492,2.285,5.206s2.37,3.352,4.267,3.26c2.045-.1,3.412-2.072,5.14-3.169a10.568,10.568,0,0,1,6.629-1.138,44.5,44.5,0,0,0,6.82.545c2.279-.148,4.669-1.074,5.849-3.03,1.854-3.074,0-5.7-.484-8.719a9.327,9.327,0,0,1,2.083-7.527c1.1-1.258,2.519-2.189,3.7-3.368a5.676,5.676,0,0,0,1.968-4.42c-.229-2.059-2.1-3.491-3.842-4.613s-3.671-2.391-4.154-4.406c-.42-1.754.4-3.544.564-5.34a7.463,7.463,0,0,0-10.427-7.535c-1.189.521-2.228,1.346-3.425,1.849-3.933,1.654-5.045-2.017-7.264-4.262A4.18,4.18,0,0,0,5665.463,568.266Z" transform="translate(-5617.069 -540.165)" fill="#fafafa"/>
              <path id="Path_808" data-name="Path 808" d="M5763.38,608.54a8.263,8.263,0,0,0-1.956,9.386c-1.924-.724-2.448-3.321-1.821-5.279s2.038-3.558,2.966-5.393,1.276-4.272-.107-5.793c-.817-.9-2.057-1.273-3.019-2.015-1.917-1.481-2.427-4.159-2.4-6.581s.447-4.9-.176-7.236-2.762-4.546-5.154-4.164a6.293,6.293,0,0,1,9.934,4.6c.122,1.483-.283,2.961-.274,4.449a8.1,8.1,0,0,0,2.487,5.746c1.007.958,2.246,1.637,3.309,2.532a4.15,4.15,0,0,1-.168,7.2C5765.839,606.9,5764.485,607.559,5763.38,608.54Z" transform="translate(-5687.855 -548.753)" fill="#c9d6e8"/>
              <path id="Path_809" data-name="Path 809" d="M5653.8,581.171a4.428,4.428,0,0,1,3.4-3.085,33.26,33.26,0,0,1,4.81-.509,14.369,14.369,0,0,0,9.311-5.028,21.7,21.7,0,0,1-2.464,4.6,7.29,7.29,0,0,1-4.236,2.871c-1.875.365-3.779-.276-5.673-.529S5654.815,579.55,5653.8,581.171Z" transform="translate(-5621.945 -543.531)" fill="#c9d6e8"/>
              <path id="Path_810" data-name="Path 810" d="M5681.173,706.727a17.129,17.129,0,0,0,1.346,3.048,3.246,3.246,0,0,0,2.743,1.62c1.542-.1,2.506-1.639,3.653-2.676a6.652,6.652,0,0,1,6.572-1.3,3.553,3.553,0,0,0-3.646-.956,22.534,22.534,0,0,0-3.656,1.571,5.075,5.075,0,0,1-3.861.376c-1.783-.719-2.476-2.807-3.431-4.474a11.259,11.259,0,0,0-9.045-5.545A14.553,14.553,0,0,1,5681.173,706.727Z" transform="translate(-5634.091 -628.245)" fill="#c9d6e8"/>
            </g>
          </g>
        </g>
      </g>
      <g id="Fork" transform="translate(183.943 392.83)">
        <path id="Path_811" data-name="Path 811" d="M5970.409,458.632l-.289-1.124s-.268-.264.841-.615l17.178-4.939s.311-.346-1.237-.149l-16.935,3.811s-.541-.194-.692-1.354l17.642-4.992s1.232-.649-.174-.421l-17.813,4.17s-.723-1.413.043-1.542l17.789-5.163s.743-.989-2.942.222l-15.231,3.441s-1.208-.556-.29-1.391l17.2-5.877s7.185-1.843,9.463-.23c0,0,3.905,1.728,4.967,1.456l25.207-6.865,25.44-6.992s4.829-1.286,5.81.46c0,0,1.534,2.869-.131,4.162l-32.183,7.3-23.042,5.444a6.364,6.364,0,0,0-2.8,2.849,11.471,11.471,0,0,1-6.559,4.28s-12.65,3.378-18.03,3.692Z" transform="translate(-5967.954 -429.621)"/>
        <path id="Path_812" data-name="Path 812" d="M5981.009,462.574l-.288-1.125s-.268-.264.841-.615l17.178-4.939s.31-.346-1.238-.149l-16.934,3.811s-.541-.194-.692-1.354l17.643-4.991s1.232-.649-.175-.421l-17.813,4.17s-.723-1.413.043-1.543l17.789-5.162s.742-.989-2.942.222l-15.231,3.441s-1.208-.556-.29-1.391l17.2-5.878s7.185-1.843,9.464-.23c0,0,3.905,1.728,4.967,1.456l25.207-6.865,25.439-6.992s2.355-1.2,3.335.543c0,0,1.536,2.869-.13,4.162l-29.71,7.221-23.041,5.444a6.362,6.362,0,0,0-2.8,2.848,11.473,11.473,0,0,1-6.56,4.279s-12.651,3.378-18.03,3.693Z" transform="translate(-5975.09 -432.31)" fill="#fff"/>
        <path id="Path_813" data-name="Path 813" d="M6067.62,478.674s-.984-.722-.962-1.414a15.038,15.038,0,0,1,.181-1.632s-3.739-.69-4.208-1.218a6.712,6.712,0,0,1,1.484,2.865,12.993,12.993,0,0,1,.23,4.985,10.3,10.3,0,0,1,1.536-2.192S6067.211,478.391,6067.62,478.674Z" transform="translate(-6031.688 -459.772)" fill="#c9d6e8"/>
        <path id="Path_814" data-name="Path 814" d="M6129.123,439.182a2.781,2.781,0,0,0-.985-3.842l-52.778,13.987-.071.471,50.641-13.393s2.159-.8,2.593.434A3.814,3.814,0,0,1,6129.123,439.182Z" transform="translate(-6040.208 -433.471)" fill="#c9d6e8"/>
        <path id="Path_815" data-name="Path 815" d="M5978.517,486.247s.472.752.909.64l15.435-3.56,1.281-.328s1.066-.33,1.224.191a15.178,15.178,0,0,0-3.681.619l-11.892,2.687-2.646.6S5978.338,486.623,5978.517,486.247Z" transform="translate(-5975.047 -465.484)" fill="#fff"/>
      </g>
      <path id="Path_985" data-name="Path 985" d="M5707.548,739.273l33.088-68.616,69.122-62.454,29.01-44.165,73.424-21.421-5.5-35.183s4.128-29.858,37.14-54.163,87.4-24.845,87.4-24.845l51.021-8.845s31.007,8.29,41.994,19.386,28.939,39.462,28.939,39.462,60.782,39.418,78.177,55.453,22.888,60.952,22.888,60.952l-6.409,37.009-45.318,34.336-24.1,43.384" transform="translate(-5730.728 78.37)" fill="none" stroke="#fff" stroke-miterlimit="10" stroke-width="20"/>
      <g id="mayonnaise" transform="translate(-32.164 611.242)">
        <ellipse id="Ellipse_51" data-name="Ellipse 51" cx="23.135" cy="24.806" rx="23.135" ry="24.806" transform="matrix(0.841, -0.541, 0.541, 0.841, 0, 25.045)"/>
        <path id="Path_816" data-name="Path 816" d="M5418.022,875.086a21.97,21.97,0,1,1,6.582-30.366A21.97,21.97,0,0,1,5418.022,875.086Z" transform="translate(-5369.812 -820.574)" fill="#fff"/>
        <path id="Path_817" data-name="Path 817" d="M5427.879,845.319a19.216,19.216,0,0,0-11.1-8.153c-2.172-.6-4.411-.743-6.6-1.242a3.552,3.552,0,0,1-1.415-.568,1.377,1.377,0,0,1-.568-1.339.763.763,0,0,0,.048-.4c-.087-.268-.474-.244-.741-.154-3.011,1.025-5.257,3.511-7.31,5.941-2.259,2.674-4.722,5.269-6.16,8.5a19.289,19.289,0,1,0,33.837-2.585Z" transform="translate(-5375.355 -819.739)" fill="#fdd89b"/>
        <path id="Path_818" data-name="Path 818" d="M5488.037,944.708a19.3,19.3,0,0,0,1.8-1.621" transform="translate(-5439.741 -893.577)" fill="none" stroke="#0d0d0c" stroke-linecap="round" stroke-linejoin="round" stroke-width="2"/>
        <path id="Path_819" data-name="Path 819" d="M5400.2,851.767c-2.259,2.674-4.722,5.269-6.16,8.5a19.291,19.291,0,0,0,26.347,25.057" transform="translate(-5375.355 -832.103)" fill="none" stroke="#0d0d0c" stroke-linecap="round" stroke-linejoin="round" stroke-width="2"/>
        <path id="Path_820" data-name="Path 820" d="M5467.384,863.862a19.271,19.271,0,0,0-13.946-21.494c-2.171-.6-4.411-.743-6.6-1.242" transform="translate(-5412.009 -824.94)" fill="none" stroke="#0d0d0c" stroke-linecap="round" stroke-linejoin="round" stroke-width="2"/>
        <path id="Path_821" data-name="Path 821" d="M5462.466,906.737a16.961,16.961,0,0,1-5.5,2.32,1.327,1.327,0,0,0-.65.276.439.439,0,0,0-.032.63.623.623,0,0,0,.372.093,33.144,33.144,0,0,0,6.533-.557,9.044,9.044,0,0,0,2.823-.813,6.432,6.432,0,0,0,3.027-5.32,17.3,17.3,0,0,0-1.1-6.258c-.327.018-.436.441-.466.767a12.345,12.345,0,0,1-2.789,6.936A11.127,11.127,0,0,1,5462.466,906.737Z" transform="translate(-5418.285 -862.626)" fill="#edc080"/>
        <path id="Path_822" data-name="Path 822" d="M5414.351,891.863c0-.03,0-.06-.009-.089a8.023,8.023,0,0,0-2.572,4.456,8.548,8.548,0,0,0-.412,3.118,4.572,4.572,0,0,0,.866,2.688.771.771,0,0,0,.885.144,1.134,1.134,0,0,0,.389-.883c.095-.82.174-1.642.252-2.464q.281-2.93.561-5.86A6.142,6.142,0,0,0,5414.351,891.863Z" transform="translate(-5388.109 -859.035)" fill="#edc080"/>
        <path id="Path_823" data-name="Path 823" d="M5448.169,856.2c-.119-.006-.581-.639-.677-.729a8.9,8.9,0,0,0-2.181-1.492c-2.723-1.327-5.815-1-8.737-.843a10.416,10.416,0,0,0-1.346.132.369.369,0,0,0-.2.08c-.132.129-.021.35.1.49,1.878,2.176,4.729,1.927,7.336,2.064Z" transform="translate(-5404.02 -832.924)" fill="#edc080"/>
        <path id="Path_824" data-name="Path 824" d="M5399.056,888.761a16.75,16.75,0,0,0,2.05,8.894.8.8,0,0,0,.255.326.284.284,0,0,0,.376-.046.42.42,0,0,0,.052-.188,11.089,11.089,0,0,0-.387-3.158q-.317-1.858-.488-3.738t-.2-3.764c0-.359-.15-3.565.088-3.639C5399.42,883.879,5399.145,887.539,5399.056,888.761Z" transform="translate(-5379.818 -853.43)" fill="#edc080"/>
        <path id="Path_825" data-name="Path 825" d="M5417.016,857.141a8.026,8.026,0,0,1-.363,1.151,2.475,2.475,0,0,1-.458.783c-.792.84-1.4.16-1.264-.726a7.944,7.944,0,0,1,.749-2,5.186,5.186,0,0,1,1.477-1.972c.056-.043.128-.086.191-.054s.067.127.06.2A20.133,20.133,0,0,1,5417.016,857.141Z" transform="translate(-5390.514 -833.814)" fill="#edc080"/>
      </g>
      <g id="No.1" transform="translate(290.723 399.462)">
        <path id="Path_827" data-name="Path 827" d="M6839.128,402.4l-8.088-38.577,55.529,41.842Z" transform="translate(-6831.04 -362.285)"/>
        <g id="Group_267" data-name="Group 267" transform="translate(8.088 0)">
          <path id="Path_828" data-name="Path 828" d="M6882.417,416.518l18.544-41.422-26.919-15.971-18.255,40.111Z" transform="translate(-6855.786 -359.125)" fill="#ed759d"/>
          <path id="Path_829" data-name="Path 829" d="M6897.546,427.657,6907.535,406l-4.5-1.57,2.162-4.689,10.224,3.708-12.516,27.139Z" transform="translate(-6883.898 -386.463)" fill="#fff"/>
          <path id="Path_830" data-name="Path 830" d="M6955.812,407.99l2.267,27.406-20.811,14.016Z" transform="translate(-6910.637 -392.019)" fill="#a52959"/>
          <path id="Path_831" data-name="Path 831" d="M6937.268,449.412l14.438-18.79,4.106-22.632Z" transform="translate(-6910.637 -392.019)"/>
          <path id="Path_832" data-name="Path 832" d="M6982.643,435.4l-8.884-6.695,6.617-20.711Z" transform="translate(-6935.202 -392.019)"/>
        </g>
      </g>
      <g id="No.2" transform="translate(21.752 559.852)">
        <path id="Path_833" data-name="Path 833" d="M5282.088,598.244l-18.315-27.326,31.461-16.892,34.3,40.953Z" transform="translate(-5263.773 -554.025)"/>
        <g id="Group_269" data-name="Group 269" transform="translate(18.315 0.842)">
          <path id="Path_834" data-name="Path 834" d="M5345.292,613.995l-18.544-41.422,26.92-15.971,18.255,40.111Z" transform="translate(-5324.481 -556.602)" fill="#ed759d"/>
          <path id="Path_835" data-name="Path 835" d="M5322.079,605.467l-2.267,27.406,20.811,14.016Z" transform="translate(-5319.812 -589.497)" fill="#a52959"/>
          <path id="Path_836" data-name="Path 836" d="M5322.079,605.467l5.561,22.143-7.828,5.263,8.723-2.769,12.088,16.785Z" transform="translate(-5319.812 -589.497)"/>
        </g>
        <path id="Path_837" data-name="Path 837" d="M5367.277,629.182l-1.173-2.711a20.934,20.934,0,0,1,.891-5.977q.882-2.943,2.085-6.047.9-2.349,1.457-3.878a18.906,18.906,0,0,0,.786-2.6,6.247,6.247,0,0,0,.115-2,7.605,7.605,0,0,0-.614-2.1q-1.679-3.879-6.295-1.189a17.823,17.823,0,0,0-2.957,2.167,24.835,24.835,0,0,0-2.547,2.66l-2.148-4.964a24.706,24.706,0,0,1,3.092-2.872,30.575,30.575,0,0,1,3.64-2.513q4.38-2.553,7.593-1.526t4.928,4.989a9.622,9.622,0,0,1,.758,5.433,27.384,27.384,0,0,1-1.654,5.743q-.955,2.436-1.8,4.677a21.142,21.142,0,0,0-1.153,4.354l10.289-6,1.877,4.338Z" transform="translate(-5326.449 -581.838)" fill="#fff"/>
      </g>
      <g id="Human_long_hair_" data-name="Human(long hair)" transform="translate(20.578 518.735)">
        <path id="Path_842" data-name="Path 842" d="M584.741,790.763c-5.878,7.111-9.593.966-12.981-16.57s-2.465-33.995,31.111-61.248,46.079-45.647,55.32-58.292,7.148-19.668,16.982-27.026S699.235,616,702.517,615.944s15.15,3.034,15.15,3.034l5.983,2.608,18.465,7.162-21.724.894-6.528,4.439s8.349,0,13.363.55,16.4,3.441,16.4,3.441l-2.859,1.371L721.948,643.3s-10.355,8.557-10.688,8.714.877,1.283,3.429.215,13-1.647,14.832-.071l-3.244,2.614-31.685,12.849-21.33,20.116-11.823,32.874s5.69-6.358,10.205-6.381S702,705.189,719.478,690.1s50.59-19.673,50.59-19.673-10.29-8.831-12.05-22.919a109.752,109.752,0,0,1-.425-15.642s-7.877-4.249-10.684-12.882c-1.615-4.966,3.549-10.524,3.752-7.971.769,9.685,5.175,6.745,5.175,6.745s-3.947-8.939,1.986-15.164.834-9.07.834-9.07-14.77-20.184-8.968-38.948c10.749-34.766,45.945-46.1,67.368-48.362,25.181-2.655,33.867,9,33.867,9l3.543,4.031s-7.425-1.746-9.592-5.838,9.323-3,9.323-3l24.416,2.19s-5.393-6.823-12.4-6.708-11.14.964-14.431-.6-1.962-3.527.266-5.335,22.052-1.524,22.052-1.524l-11.076-1.7,8.121-6.939,48.29,27.3-23.958,14.548-30.852,12.478-11.265,46.254-18.574,64.48s33.757-13.154,29.155-7.639,5.777,12.159,8.047,12.174,13.59-7.455,20.175-10.382,39.958-21.213,47.8-24.551,9.859-4.11,9.859-4.11-10.692-7.627-21.955-34.177-22.713-38.527-22.713-38.527-17.49-5.608-22.031-7.94-1.853-5.864-1.853-5.864l14.364.916,37.786,8.324,62.146,66.269,3.4,34.244L754.535,767.051Z" transform="translate(-570.45 -484.956)"/>
        <g id="Group_282" data-name="Group 282" transform="translate(10.245 0)">
          <g id="Group_281" data-name="Group 281">
            <path id="Path_843" data-name="Path 843" d="M1365.446,513.317c-4.016-10.62-12.819-21.514-17.4-24.849s-15.449-9.9-17.892-10.783-11.976.452-12.763,1.922c0,0-5.919-.227-8.9,2.173a6.326,6.326,0,0,0-2.4,5.694s-14.376,2.62-17.218,4.933,1.971,4.409,6.174,3.913,11.876-1.88,14.583-1.411,12.388,8.187,12.388,8.187-12.248-2.886-17.7-3.128-14.039,1.06-15.862,1.368-1.4,3.211,1.029,4.439,14.138,1.187,16.077,1.958,13.132,8,15.485,9.559a43.1,43.1,0,0,1,4.123,3.118s-4.49.2-7.6-1.645-8.274-4.485-12.4-4.325-4.663,2.621.874,5.694,11.348,8.664,19.349,10.63,23.084,7.613,28.638,10.065,15.6-10.053,18.147-12.468S1368.919,522.5,1365.446,513.317Z" transform="translate(-1017.521 -477.403)" fill="#f9cfcc"/>
            <path id="Path_844" data-name="Path 844" d="M1344.359,590.135c-4.543-9.712-14.13-16.156-21.137-13.678l-1.076,2.122,2.987,4.972Z" transform="translate(-1038.732 -537.436)"/>
            <path id="Path_845" data-name="Path 845" d="M1339.65,500.887c2.594-.545,5.933-1.239,10.066.612s13.057,6.806,13.057,6.806" transform="translate(-1049.398 -491.351)" fill="none" stroke="#0d0d0c" stroke-linecap="round" stroke-linejoin="round" stroke-width="2"/>
            <path id="Path_846" data-name="Path 846" d="M1370.154,483.59a16.339,16.339,0,0,1,7.466,1.817c1.88,1.1,8.635,6.788,8.635,6.788" transform="translate(-1067.985 -481.173)" fill="none" stroke="#0d0d0c" stroke-linecap="round" stroke-linejoin="round" stroke-width="2"/>
            <path id="Path_847" data-name="Path 847" d="M807.678,850.042c3.546-10.787,11.862-22.056,16.3-25.588s15-10.571,17.4-11.558,11.985-.073,12.834,1.36c0,0,5.9-.487,8.983,1.781a6.325,6.325,0,0,1,2.65,5.583s14.478,1.986,17.418,4.173-1.776,4.491-6,4.18-11.946-1.357-14.631-.77-12.017,8.722-12.017,8.722,12.11-3.42,17.542-3.9,14.072.443,15.906.671,1.537,3.146-.833,4.48-14.072,1.806-15.976,2.661-12.768,8.564-15.05,10.229a43.142,43.142,0,0,0-3.982,3.3s4.495,0,7.522-1.978,8.07-4.844,12.2-4.865,4.774,2.414-.624,5.727-10.957,9.154-18.864,11.469-22.728,8.618-28.169,11.311-16.022-9.359-18.676-11.66S804.612,859.369,807.678,850.042Z" transform="translate(-721.132 -681.58)" fill="#f9cfcc"/>
            <path id="Path_848" data-name="Path 848" d="M925.76,834.91c-3.791.024-9.513,2.86-11.016,3.705s-9.609,5.246-9.609,5.246" transform="translate(-784.631 -695.246)" fill="none" stroke="#0d0d0c" stroke-linecap="round" stroke-linejoin="round" stroke-width="2"/>
            <path id="Path_849" data-name="Path 849" d="M905.6,818.85c-3.58.759-15.42,6.806-17.99,8.491" transform="translate(-773.955 -685.46)" fill="none" stroke="#0d0d0c" stroke-linecap="round" stroke-linejoin="round" stroke-width="2"/>
            <path id="Path_850" data-name="Path 850" d="M707.333,945.763c-6.922,3.807-22.8,31.393-28.227,50.343s-18.2,46.685-40.118,61.843-39.656,16.266-41.193,12.353-4.567-32.73,15.714-55.174c30.1-33.306,61.02-75.024,64.19-80.374S707.333,945.763,707.333,945.763Z" transform="translate(-596.674 -755.429)" fill="#f9cfcc"/>
            <path id="Path_851" data-name="Path 851" d="M598.926,1135.523c1.636,7.7,32.916,13.865,72.51,5.149s99.034-26.035,99.034-26.035,10.644-75.426-.282-72.554-41.587,10.425-75.526,25.95-79.2,36.564-79.2,36.564Z" transform="translate(-598.046 -821.435)" fill="#f9cfcc"/>
            <path id="Path_852" data-name="Path 852" d="M782.023,1117.852c-2.449,5.6-5.367,13.088-7.949,16.743,0,0,17.872,2.825,28.169,16.878s10.148,21.86,10.148,21.86l11.4-3-11.452-50-13.429-11.156-8.821,4.641Z" transform="translate(-704.771 -862.368)"/>
            <path id="Path_853" data-name="Path 853" d="M1369.946,870.244c30.337-19.28,82.143-50.074,95.032-55.281s41.6,13.85,41.369,20.793-34.6,43.515-55.077,57.47c-45.926,31.3-68.342,38.875-102.8,64.81Z" transform="translate(-1054.77 -682.549)" fill="#f9cfcc"/>
            <path id="Path_854" data-name="Path 854" d="M1572.142,842.97c14.675.614,19.958,60.427,19.958,60.427l-3.49,2.816-25.038-8.277.372-48.16Z" transform="translate(-1185.841 -700.157)"/>
            <path id="Path_855" data-name="Path 855" d="M1417.26,584.047c6.8,6.037,25.958,27.878,37.27,44.069,11.291,16.159,26.731,42.382,51.127,53.1s42.023,8.443,42.788,4.309,1.812-26.277-25.9-51.188c-33.386-30.009-74.152-62.077-78.279-66.729S1417.26,584.047,1417.26,584.047Z" transform="translate(-1096.688 -531.962)" fill="#f9cfcc"/>
            <path id="Path_856" data-name="Path 856" d="M1091.888,659.623c-1.211,5.359-.112,13.742.146,16.976s1.8,4.6.3,8.217-7.515,9.086-8.566,10.886,3.249,5.918,3.249,5.918.156,8.624.118,18.631,2,19.683,5.722,21.787,6.451,4,23.425,1.955A18.168,18.168,0,0,1,1113.5,757.3c-4.39,6.485-9.793,8.355-19.923,10.187,0,0,13.172,23.056,55.144,23.331s49.656-33.289,49.656-33.289-20.548-5.713-24.335-8.529-7.282-14.66-4.232-24.79a77.244,77.244,0,0,0,28.549-30.179c10.918-20.773,1.366-65.765-32.616-73.319S1097.91,632.984,1091.888,659.623Z" transform="translate(-893.377 -563.737)" fill="#f9cfcc"/>
            <path id="Path_857" data-name="Path 857" d="M1226.682,847.033c2.658,6.35,2.588,14.258-2.042,17.394s2.357,3.844,6.553.506,4.544-10.224,4.544-10.224a21.661,21.661,0,0,1,.527,9.173c-.868,4.634-.747,7.768,2.626,5.565s4.248-10.707,4.248-10.707l-6.6-10.318-8.443-7.883Z" transform="translate(-978.387 -698.676)"/>
            <path id="Path_858" data-name="Path 858" d="M1184.375,756.169c4.945,8.943,9.682,18.443,11.081,25.781s-7.893,12.778-10.154,12.034-2.214,1.045.839,1.777,6.612.41,10.735-2.17,8.412-14.208,8.412-14.208l-12.1-23.611-4.837-14.193-5.649,2.033Z" transform="translate(-953.764 -638.375)"/>
            <path id="Path_859" data-name="Path 859" d="M1139.173,757.018c-4.88,4.829-13.8,7.78-17.192,5.579s.623-.023,5.538-3.61a16.6,16.6,0,0,0,6.459-16.446c-1.245-6.474-3.819-14.935-3.23-21.288s.939-10.4,3.884-14.326,3.714-2.3,3.714-2.3l3.147,8.2Z" transform="translate(-915.997 -615.658)"/>
            <path id="Path_860" data-name="Path 860" d="M1092.45,802.767c7.46-4.747,5.274-19.722,5.274-19.722l.647-2.751,6.015,4.479s.594,10.175.5,10.558-.163,8.428-.278,8.618-9.525,7.007-9.659,6.867-2.444-2.4-2.444-2.4Z" transform="translate(-898.769 -661.967)"/>
            <path id="Path_861" data-name="Path 861" d="M1172.557,922.617c10.8-1.293,20.73-9.784,20.73-9.784" transform="translate(-947.582 -742.727)" fill="none" stroke="#db8882" stroke-linecap="round" stroke-linejoin="round" stroke-width="2"/>
            <path id="Path_862" data-name="Path 862" d="M1138.862,964.891c7.9,13.016,50.315,12.55,65.46-3.118l1.189-3.752,5.847,2.247s-1.619,12.31-1.993,12.668-48.513,20.351-48.513,20.351l-34.379-11.625,4.179-10.487s2.531-1.459,5.157-3.377S1138.862,964.891,1138.862,964.891Z" transform="translate(-919.501 -770.262)"/>
            <path id="Path_863" data-name="Path 863" d="M1192.818,762.462c8.633,13.825,13.7,27.365,18.421,37.631s-2.5,21.943.508,21.792,8.2-6.406,8.2-6.406-1.826,8.405.468,7.9,4.661-5.086,4.661-5.086-.077,3.858,4.216.2,4.714-4.417,4.714-4.417-5.45,5.45-3.01,6.4,13.423-6.084,20.436-14.625a5.983,5.983,0,0,0,.812,4.118c1.272,2.024,1.338-.043,1.166-1.365s1.765-4.029,9.1-10.93,3.121-5.452,8-16.5S1192.818,762.462,1192.818,762.462Z" transform="translate(-959.927 -651.1)" fill="#ed759d"/>
            <path id="Path_864" data-name="Path 864" d="M1201.639,986.3l-5.808,14.4a.012.012,0,0,1-.007.007l-.72.8-25.966,28.7-2.56,2.832-173.921,30.5L962.035,971.2c13.732-4.711,19.817-9.266,40.508-15.225,12.117-3.487,25.128-5.843,25.128-5.843s12.234,11.767,38.288,8.473,47.421-24.4,47.421-24.4,1.879-.658,5.528-2.228q.7-.3,1.477-.642h0c4.215-1.85,10.289-4.7,18.109-8.814a32.463,32.463,0,0,1,7.494-2.732,43.988,43.988,0,0,1,9.581-1.2l6.071,8.923Z" transform="translate(-819.303 -746.237)" fill="#fff"/>
            <path id="Path_865" data-name="Path 865" d="M906.088,1050.394c-12.058-6.872-17.573-9.853-36.39-1.829-11.635,4.961-44.73,17.839-50.262,19.583s-4.486,5.8-4.486,5.8,8.7-.425,12.334,9.62,4.14,25.431,7.91,33.126,7.745,19.968,7.606,26.084,10.494,6.632,14.731,1.918a106.863,106.863,0,0,1,22.261-2.668c13.39-.335,22.17-2.064,31.255-3.584s12.375-20.335,14.388-37.367S919.3,1057.922,906.088,1050.394Z" transform="translate(-729.63 -822.501)" fill="#fff"/>
            <path id="Path_866" data-name="Path 866" d="M1025.19,981.4c-26.408,36.262-81.232,28.935-90.438,31.684s-8.584,9.635-8.584,9.635c7.69,18.344,4.792,41.386,4.562,43.06a126.523,126.523,0,0,0-.471-16.57c-.691-8.964-4.655-16.4-11.037-21.084a26.409,26.409,0,0,0-5.795-3.22c-5.018-2.021-20.018-.372-34.916,2.561-14.044,2.763-28,6.669-33.414,9.711-11.159,6.273-6.211,10.618-6.475,17.985-.255,7.158,2,18.345,2.122,18.973a110.512,110.512,0,0,1-3.9-14.842c-1.515-8.12-2.971-16.736-6.475-20.322-3.207-3.289-6.962-1.135-5.478,1.576a12.6,12.6,0,0,0-9.943-5.134s-1.047-4.062,4.485-5.806,38.627-14.622,50.264-19.583q1.378-.588,2.664-1.1a.038.038,0,0,1,.018-.005c1.627-.56,3.147-1.118,4.6-1.673,10.772-4.137,17.665-8.3,35.894-13.547,12.117-3.487,25.129-5.843,25.129-5.843s12.234,11.767,38.288,8.473c14.884-1.882,28.241-9.578,36.956-15.832Z" transform="translate(-729.63 -783.957)" fill="#c9d6e8"/>
            <path id="Path_867" data-name="Path 867" d="M1118.739,966.961c4.948,7.924,22.8,12.712,52.21,4.81s22.649-17.965,22.649-17.965l-3.531-1.474s2.253-2.307,7.1-.6,6.888,1.577,7.417,3.744,2.383,14.661-27.491,25.511-52.887,4.254-62.719-.949-8.1-12.134-5.143-13.927,11.819-.583,11.819-.583Z" transform="translate(-907.587 -766.047)" fill="#c9d6e8"/>
            <path id="Path_868" data-name="Path 868" d="M1107.08,997.394c-.947,4.449,1.133,7.484,8.456,11.457s26.463,8.02,39.239,5.657" transform="translate(-907.553 -794.253)" fill="none" stroke="#0d0d0c" stroke-linecap="round" stroke-linejoin="round" stroke-width="3"/>
            <path id="Path_869" data-name="Path 869" d="M1040.56,1287.148l8.934-1.569a6.876,6.876,0,0,1-.926.222C1045.912,1286.246,1043.285,1286.708,1040.56,1287.148Z" transform="translate(-867.151 -969.856)" fill="#c9d6e8"/>
            <path id="Path_870" data-name="Path 870" d="M966.678,1048.967c-1.449.555-2.969,1.113-4.6,1.673C963.715,1049.99,965.24,1049.434,966.678,1048.967Z" transform="translate(-819.331 -825.679)" fill="#c9d6e8"/>
            <path id="Path_871" data-name="Path 871" d="M966.678,1048.967c-1.449.555-2.969,1.113-4.6,1.673C963.715,1049.99,965.24,1049.434,966.678,1048.967Z" transform="translate(-819.331 -825.679)" fill="#c9d6e8"/>
            <path id="Path_872" data-name="Path 872" d="M1470.148,922.841c5.116,5.935-.155,19.26-5.379,18.175,0,0-6.472,2.308-15.289,12.39-3.6,4.12-6.9,7.5-10,10.463a.011.011,0,0,1-.007.007c-.32.307-.637.606-.951.9l-.006,0c-4.125,3.877-7.943,7.066-11.774,10.367-3.337,2.876-8.87,2.2-15.308-.305-7.022-2.731-15.121-7.65-22.622-12.521-14.385-9.34-29.264-32.307-26.608-47.281,1.735-9.786,2.862-15.714,10.044-21.724a64.033,64.033,0,0,1,11.812-7.428c1.531-.785,3.429-1.785,5.581-2.932,13.644-7.266,37.4-20.486,41.611-23.2a10.58,10.58,0,0,1,9.8-.74s1.174.179,3.236,2.2c.109.1.22.216.331.333a.119.119,0,0,1,.026.026l.14.142a38.555,38.555,0,0,1,5.053,7.03c5.4,9.221,6.512,25.143,10.018,32.961S1466.155,918.205,1470.148,922.841Z" transform="translate(-1062.951 -709.404)" fill="#fff"/>
            <path id="Path_873" data-name="Path 873" d="M1444.36,863.742c3.153,2.4,5.546,6.537,6.769,13.157s-6.594,7.321-20.364,8.931c-6.275.734-15.18,2.226-22.129,4.854-8.3,3.139-13.823,7.887-8.749,14.88,9.2,12.682,14.147,31.311,14.271,31.78,0-.159-.011-1.053-.035-5.376-.031-6.051-1.321-18.275-1.321-18.275,4.829,11.13,5.162,37.384,5.162,37.384a12.735,12.735,0,0,0,2.965,6.474c2.807,3.565,15.659,10.252,20.931,7.233l.006,0a1.11,1.11,0,0,1,.231-.105l-25.966,28.7c-.359-4.974-.806-11.074-1.354-18.53q-.143-1.947-.295-4.021c-2.576-35-5.666-38.541-9.861-47.767s-12.7-24.527-23.381-28.518a19.8,19.8,0,0,0-5.649-1.22,20.055,20.055,0,0,0-8.21,1.185c4.214-1.85,10.289-4.7,18.108-8.814a32.46,32.46,0,0,1,7.494-2.732c13.644-7.266,37.4-20.486,41.611-23.2a10.58,10.58,0,0,1,9.8-.74s1.174.179,3.236,2.2C1445.335,859.2,1441.368,861.468,1444.36,863.742Z" transform="translate(-1066.295 -709.404)" fill="#c9d6e8"/>
            <path id="Path_874" data-name="Path 874" d="M1573.858,867.091a1.03,1.03,0,0,1-.14-.142Z" transform="translate(-1192.024 -714.768)" fill="#c9d6e8"/>
            <path id="Path_875" data-name="Path 875" d="M1140.949,577.924c-9.974-11.133-23.235-2.9-39.135-.589s-32.927,16.9-38.418,29.992-2,26.513,1.892,33.277,2.1-.045,1.414-4.6-.42-8.4,3.39-13.546c0,0-4.558,7.293-.167,22.264,5.256,17.917,9.971,24.955,3.654,32.528a12.542,12.542,0,0,1-14.987,3.69c-4.792-2.126-6.448-8.6-7.874-8.228s.856,8.409,5.8,13.035,17.411,6.762,27.832-5.2c7.843-9,3.388-22.814,2.182-33.84s6.4-20.134,6.4-20.134-7.036,11.542.761,31.832c4.162,10.829,1.99,21.389-5.125,25.013-3.434,1.749-.83,3.7,3.91.707,6.208-3.918,15.264-15.439,13.757-26.635-1.625-12.074-.771-12.542-.771-12.542s2.426,9.858,12.778,18.043c11.417,9.026,15.6,13.6,16.637,17.564s6.192-.273,4.553-7.8c0,0,4.577,9.039,5.028,12.688s3.488.994,3.817-4.174c0,0,.858,2.564,2.289,2.569s5.232-4.211,5.232-4.211-2.31,6.025.9,5.351,6.651-1.749,13.562-8.305a52.328,52.328,0,0,0,9.937-12.431s-.42,11.383.563,13.834,1.584-.416,2.818-3.45,11.357-13.288,14.861-25.721-4.495-39.205-16.149-55.552S1156.05,574.674,1140.949,577.924Z" transform="translate(-873.085 -535.188)" fill="#ed759d"/>
            <path id="Path_876" data-name="Path 876" d="M1372,660.458c5.272,22.678,4.608,32.689-3.01,44.01-7.47,11.1-3.313,16.138-2.58,16.517s1.031-6,4.384-9.817c7.86-8.953,12.531-9.065,19.446-24.682,9.991-22.563-2.266-55.643-20.356-73.46S1372,660.458,1372,660.458Z" transform="translate(-1063.232 -558.165)" fill="#ed759d"/>
            <path id="Path_877" data-name="Path 877" d="M1341.7,678.071c5.271,22.678,2.746,32.131-7.49,40.746s-7.139,15.766-6.406,16.145.391-2.8,4.274-6.086,20.821-17.8,27.893-33.352-10.6-50.7-28.692-68.521S1341.7,678.071,1341.7,678.071Z" transform="translate(-1040.633 -566.767)" fill="#ed759d"/>
            <path id="Path_878" data-name="Path 878" d="M1190.919,754.594c7.015,19.281,15.775,31.894,10.3,40.632s-1.988,6.913,1.356,4.792,8.8-8.217,8.13-16.148-3.084-9.953-3.084-9.953L1193.6,749.4l-2.278,1.075Z" transform="translate(-958.77 -643.139)" fill="#ed759d"/>
            <path id="Path_879" data-name="Path 879" d="M1222.852,615.918c-6.047,18.858,5.206,43.31,10.738,58.444,7.236,19.794,5.368,32.8,5.368,32.8" transform="translate(-977.17 -561.805)" fill="none" stroke="#fff" stroke-linecap="round" stroke-linejoin="round" stroke-width="4"/>
            <path id="Path_880" data-name="Path 880" d="M1259.222,594.86c-4.591,9.587,14.351,29.667,21.163,50.558,11.337,34.769-8.813,55.5-10.956,61.393" transform="translate(-999.958 -548.974)" fill="none" stroke="#fff" stroke-linecap="round" stroke-linejoin="round" stroke-width="4"/>
            <path id="Path_881" data-name="Path 881" d="M1321.081,596.007c18.952,12.2,28.058,24.621,30.115,46.934s-5.367,30.784-5.367,30.784" transform="translate(-1038.083 -549.673)" fill="none" stroke="#fff" stroke-linecap="round" stroke-linejoin="round" stroke-width="4"/>
            <path id="Path_882" data-name="Path 882" d="M1327.883,660.016c2.63-18.975-13-42.515-21-48.792" transform="translate(-1029.43 -558.945)" fill="none" stroke="#fff" stroke-linecap="round" stroke-linejoin="round" stroke-width="4"/>
            <path id="Path_883" data-name="Path 883" d="M1185.534,689.955c-5.335-21.58-1.045-31.021-1.045-31.021" transform="translate(-953.859 -588.017)" fill="none" stroke="#fff" stroke-linecap="round" stroke-linejoin="round" stroke-width="4"/>
            <path id="Path_884" data-name="Path 884" d="M1109.347,636.829c4.645-13.241,15.873-23.98,30.55-28.685" transform="translate(-909.065 -557.068)" fill="none" stroke="#fff" stroke-linecap="round" stroke-linejoin="round" stroke-width="4"/>
          </g>
          <path id="Path_885" data-name="Path 885" d="M1611.587,839.178c11.444,4.034,41.584-1.1,41.584-1.1" transform="translate(-1215.099 -697.178)" fill="none" stroke="#db8882" stroke-linecap="round" stroke-linejoin="round" stroke-width="2"/>
          <path id="Path_886" data-name="Path 886" d="M741.772,1145.719c-5.3,17.6-29.734,36.685-29.734,36.685" transform="translate(-666.97 -884.634)" fill="none" stroke="#db8882" stroke-linecap="round" stroke-linejoin="round" stroke-width="2"/>
          <path id="Path_887" data-name="Path 887" d="M1035.1,1251.613c16.043-14.588,21.963-33.889,21.963-33.889" transform="translate(-863.824 -928.509)" fill="none" stroke="#0d0d0c" stroke-linecap="round" stroke-linejoin="round" stroke-width="3"/>
          <path id="Path_888" data-name="Path 888" d="M1047.677,1044.417s8.681,1.786,13.742,6.551,14.5,21.944,11.077,54.657c-.566,5.406-8.321,21.944-8.321,21.944" transform="translate(-871.487 -822.906)" fill="none" stroke="#0d0d0c" stroke-linecap="round" stroke-linejoin="round" stroke-width="3"/>
          <path id="Path_889" data-name="Path 889" d="M1429.594,970.788c8.861,10.622,17.1,28.938,19.392,36.188s4.85,56.022,4.85,56.022" transform="translate(-1104.204 -778.041)" fill="none" stroke="#0d0d0c" stroke-linecap="round" stroke-linejoin="round" stroke-width="3"/>
          <path id="Path_890" data-name="Path 890" d="M1479.062,987.36c5.048,8.577,2.514,49.512,2.514,49.512" transform="translate(-1134.347 -788.139)" fill="none" stroke="#0d0d0c" stroke-linecap="round" stroke-linejoin="round" stroke-width="3"/>
        </g>
      </g>
    </g>
  </g>
</svg>
