<svg xmlns="http://www.w3.org/2000/svg" xmlns:xlink="http://www.w3.org/1999/xlink" width="375" height="426" viewBox="0 0 375 426">
  <defs>
    <clipPath id="clip-path">
      <rect id="Rectangle_128" data-name="Rectangle 128" width="375" height="426" transform="translate(0 386)" fill="none"/>
    </clipPath>
  </defs>
  <g id="Mask_Group_1" data-name="Mask Group 1" transform="translate(0 -386)" clip-path="url(#clip-path)">
    <g id="Group_354" data-name="Group 354">
      <g id="Human" transform="translate(21.751 521.042)">
        <path id="Path_746" data-name="Path 746" d="M5816.015,797.454c-6.008,7.268-9.807.987-13.27-16.939s-2.52-34.75,31.8-62.61,47.1-46.662,56.55-59.587,7.307-20.105,17.36-27.627,24.6-11.886,27.951-11.943,15.488,3.1,15.488,3.1l6.117,2.666,18.876,7.321-22.208.914-6.673,4.537s8.535,0,13.661.562,16.764,3.517,16.764,3.517l-2.922,1.4-19.239,3.94s-10.585,8.748-10.925,8.908.9,1.312,3.5.22,13.287-1.683,15.161-.073l-3.316,2.672-32.389,13.135-21.8,20.563-12.085,33.6s5.816-6.5,10.432-6.523,31.028-9.239,48.9-24.666,51.715-20.111,51.715-20.111-10.518-9.027-12.318-23.429a112.179,112.179,0,0,1-.435-15.99l-.091-9.478s-10.38-7.1.325-20.445a8.066,8.066,0,0,0,.853-9.271s-15.1-20.632-9.167-39.814c10.989-35.539,46.968-47.128,68.866-49.437,25.741-2.714,34.62,9.2,34.62,9.2l3.622,4.121s-7.591-1.785-9.806-5.968,9.53-3.063,9.53-3.063l24.958,2.239s-5.513-6.975-12.675-6.857-11.387.986-14.752-.611-2-3.605.273-5.454,22.541-1.557,22.541-1.557l-11.323-1.736,8.3-7.093,49.363,27.9-24.49,14.871-31.538,12.755L6090.6,592.613l-18.987,65.914s34.507-13.446,29.8-7.809,5.9,12.429,8.226,12.445,13.893-7.621,20.625-10.613,40.847-21.685,48.861-25.1,10.078-4.2,10.078-4.2-10.93-7.8-22.443-34.936-23.218-39.383-23.218-39.383-17.879-5.733-22.521-8.116-1.894-5.995-1.894-5.995l14.684.937,38.625,8.509,63.528,67.742,3.473,35.006-249.862,126.2Z" transform="translate(-5801.406 -484.849)"/>
        <path id="Path_747" data-name="Path 747" d="M6539.635,592.3c14.22,10.47,19.192,28.085,18.27,39.28s-31.432-5.357-31.432-5.357l-29.343-38.3,29.343-9.845Z" transform="translate(-6219.294 -537.877)"/>
        <g id="Group_253" data-name="Group 253" transform="translate(10.472)">
          <g id="Group_252" data-name="Group 252" transform="translate(0)">
            <path id="Path_748" data-name="Path 748" d="M6598.139,514.115c-4.1-10.857-13.1-21.992-17.788-25.4s-15.792-10.123-18.29-11.023-12.243.462-13.045,1.964c0,0-6.051-.232-9.094,2.222a6.465,6.465,0,0,0-2.457,5.82s-14.7,2.678-17.6,5.042,2.015,4.507,6.312,4,12.14-1.921,14.907-1.442,12.664,8.369,12.664,8.369-12.521-2.95-18.09-3.2-14.35,1.083-16.213,1.4-1.428,3.283,1.052,4.538,14.451,1.213,16.435,2,13.423,8.174,15.829,9.772a44.122,44.122,0,0,1,4.215,3.187s-4.59.2-7.771-1.682-8.458-4.585-12.682-4.422-4.767,2.679.893,5.821,11.6,8.857,19.779,10.867,23.6,7.782,29.276,10.289,15.942-10.277,18.55-12.745S6601.69,523.5,6598.139,514.115Z" transform="translate(-6242.479 -477.403)" fill="#f9cfcc"/>
            <path id="Path_749" data-name="Path 749" d="M6570.607,500.9c2.651-.557,6.064-1.266,10.289.626s13.348,6.957,13.348,6.957" transform="translate(-6273.901 -491.152)" fill="none" stroke="#0d0d0c" stroke-linecap="round" stroke-linejoin="round" stroke-width="2"/>
            <path id="Path_750" data-name="Path 750" d="M6601.11,483.59a16.7,16.7,0,0,1,7.632,1.858c1.921,1.129,8.828,6.939,8.828,6.939" transform="translate(-6292.223 -481.119)" fill="none" stroke="#0d0d0c" stroke-linecap="round" stroke-linejoin="round" stroke-width="2"/>
            <path id="Path_751" data-name="Path 751" d="M6038.785,850.877c3.626-11.026,12.126-22.546,16.658-26.157s15.333-10.806,17.788-11.815,12.251-.075,13.12,1.391c0,0,6.035-.5,9.183,1.821a6.466,6.466,0,0,1,2.709,5.707s14.8,2.031,17.805,4.265-1.816,4.591-6.13,4.273-12.213-1.387-14.956-.787-12.284,8.916-12.284,8.916,12.379-3.5,17.931-3.988,14.385.453,16.26.686,1.57,3.216-.852,4.579-14.385,1.846-16.331,2.72-13.052,8.755-15.385,10.457a44.144,44.144,0,0,0-4.071,3.369s4.594,0,7.69-2.022,8.249-4.951,12.475-4.973,4.879,2.468-.637,5.854-11.2,9.357-19.284,11.724-23.233,8.81-28.8,11.563-16.377-9.568-19.092-11.919S6035.65,860.412,6038.785,850.877Z" transform="translate(-5950.314 -678.669)" fill="#f9cfcc"/>
            <path id="Path_752" data-name="Path 752" d="M6157.175,834.91c-3.875.024-9.725,2.924-11.261,3.787s-9.823,5.363-9.823,5.363" transform="translate(-6012.908 -692.14)" fill="none" stroke="#0d0d0c" stroke-linecap="round" stroke-linejoin="round" stroke-width="2"/>
            <path id="Path_753" data-name="Path 753" d="M6136.961,818.85c-3.66.776-15.763,6.957-18.39,8.68" transform="translate(-6002.384 -682.494)" fill="none" stroke="#0d0d0c" stroke-linecap="round" stroke-linejoin="round" stroke-width="2"/>
            <path id="Path_754" data-name="Path 754" d="M5940.75,946.031c-7.076,3.892-23.3,32.091-28.856,51.462s-18.6,47.723-41.009,63.218-40.537,16.627-42.108,12.627-4.668-33.458,16.064-56.4c30.766-34.047,62.376-76.692,65.616-82.161S5940.75,946.031,5940.75,946.031Z" transform="translate(-5827.631 -751.466)" fill="#f9cfcc"/>
            <path id="Path_755" data-name="Path 755" d="M5829.882,1137.6c1.673,7.869,33.649,14.173,74.122,5.263s101.236-26.614,101.236-26.614,10.88-77.1-.289-74.167-42.511,10.657-77.206,26.527-80.957,37.377-80.957,37.377Z" transform="translate(-5828.983 -816.531)" fill="#f9cfcc"/>
            <path id="Path_756" data-name="Path 756" d="M6013.156,1118.045c-2.5,5.726-5.485,13.38-8.125,17.115,0,0,18.27,2.888,28.8,17.253s10.373,22.346,10.373,22.346l11.656-3.064-11.708-51.113-13.726-11.4-9.018,4.744Z" transform="translate(-5934.187 -856.88)"/>
            <path id="Path_757" data-name="Path 757" d="M6601.379,871.493c31.012-19.709,83.969-51.187,97.146-56.51s42.521,14.158,42.288,21.255-35.369,44.482-56.3,58.748c-46.946,31.994-69.86,39.74-105.089,66.251Z" transform="translate(-6279.196 -679.625)" fill="#f9cfcc"/>
            <path id="Path_758" data-name="Path 758" d="M6803.288,842.97c15,.628,20.4,61.771,20.4,61.771l-3.567,2.878-25.594-8.461.38-49.23Z" transform="translate(-6408.4 -696.982)"/>
            <path id="Path_759" data-name="Path 759" d="M6648.216,584.427c6.947,6.171,26.536,28.5,38.1,45.049,11.541,16.518,27.325,43.324,52.264,54.284s42.957,8.63,43.739,4.4,1.852-26.862-26.478-52.326c-34.128-30.676-75.8-63.457-80.021-68.212S6648.216,584.427,6648.216,584.427Z" transform="translate(-6320.517 -531.184)" fill="#f9cfcc"/>
            <path id="Path_760" data-name="Path 760" d="M6323.028,660.524c-1.239,5.479-.114,14.048.148,17.353s1.843,4.707.305,8.4-7.682,9.288-8.757,11.128,3.322,6.049,3.322,6.049.16,8.815.12,19.045,4.354,18.546,8.161,20.7,4.283,5.665,21.634,3.573a18.572,18.572,0,0,1-2.837,13.6c-4.488,6.629-10.011,8.541-20.367,10.413,0,0,13.465,23.569,56.372,23.85s50.759-34.03,50.759-34.03-21-5.84-24.876-8.719-7.444-14.986-4.326-25.341a78.956,78.956,0,0,0,29.184-30.85c11.161-21.235,1.4-67.227-33.341-74.95S6329.184,633.293,6323.028,660.524Z" transform="translate(-6120.103 -562.506)" fill="#f9cfcc"/>
            <path id="Path_761" data-name="Path 761" d="M6328.478,736.676c3.861,9.066,11.98,12.456,14.272,12.062s-.669-2.288-2.887-6.967-3.835-17.076-3.835-17.076l-6.439-4.073Z" transform="translate(-6128.466 -623.493)"/>
            <path id="Path_762" data-name="Path 762" d="M6403.513,922.834c11.037-1.322,21.191-10,21.191-10" transform="translate(-6173.536 -738.945)" fill="none" stroke="#db8882" stroke-linecap="round" stroke-linejoin="round" stroke-width="2"/>
            <path id="Path_763" data-name="Path 763" d="M6370.094,965.044c8.072,13.306,51.432,12.829,66.916-3.187l1.215-3.835,5.977,2.3s-1.655,12.583-2.038,12.949-49.592,20.8-49.592,20.8l-35.143-11.883,4.271-10.72s2.589-1.492,5.272-3.452S6370.094,965.044,6370.094,965.044Z" transform="translate(-6145.855 -766.088)"/>
            <path id="Path_764" data-name="Path 764" d="M6432.736,762.111c1.59,10.658,14.13,24.667,17.963,37.331s2.689,18.026,2.689,18.026a29.859,29.859,0,0,0,20.8-1.013s18.281-11.428,26.725-24.072,17.407-34.039,17.407-34.039Z" transform="translate(-6191.089 -646.151)" fill="#c95380"/>
            <path id="Path_765" data-name="Path 765" d="M6364.313,689.106c-1.017,7.345-1.472,16.1,8.8,21.877s10.895,8.19,10.113,9.721.027,4.408,3.294,0,.612-9.487.612-9.487-1.035,2.526,4.209,4.714,23.41,11.661,29.31,16.148,2.046-8.118,2.046-8.118l3.958,14.168,6.286,4.843,3.194-10.156,22.957-5.529s2.423,1.354,2.265,1.472-.073,2.355,1.781,4.635l3.1-8.815-14.13-19.483L6367.1,671.344Z" transform="translate(-6149.689 -593.894)"/>
            <path id="Path_766" data-name="Path 766" d="M6437.923,987.8l-5.937,14.725a.013.013,0,0,1-.008.007l-.736.816-26.543,29.338-2.617,2.9-177.788,31.176-31.3-94.388c14.038-4.816,20.257-9.472,41.408-15.563,12.387-3.565,25.688-5.973,25.688-5.973s12.506,12.029,39.139,8.661,48.475-24.943,48.475-24.943,1.921-.672,5.651-2.277q.713-.3,1.51-.656h0c4.308-1.891,10.517-4.8,18.511-9.01a33.183,33.183,0,0,1,7.66-2.793,44.977,44.977,0,0,1,9.794-1.224l6.207,9.121Z" transform="translate(-6047.085 -742.405)" fill="#fff"/>
            <path id="Path_767" data-name="Path 767" d="M6139.072,1050.541c-12.326-7.025-17.964-10.072-37.2-1.87-11.894,5.072-45.725,18.236-51.378,20.018s-4.587,5.933-4.587,5.933,8.889-.434,12.609,9.834,4.232,26,8.085,33.862,7.917,20.412,7.775,26.664,10.728,6.78,15.059,1.96a109.253,109.253,0,0,1,22.756-2.727c13.688-.343,22.663-2.11,31.95-3.664s12.65-20.787,14.707-38.2S6152.577,1058.238,6139.072,1050.541Z" transform="translate(-5958.69 -817.581)" fill="#fff"/>
            <path id="Path_768" data-name="Path 768" d="M6260.822,981.418c-27,37.069-83.038,29.578-92.45,32.388s-8.774,9.849-8.774,9.849c7.86,18.752,4.9,42.307,4.663,44.017a129.235,129.235,0,0,0-.481-16.938c-.706-9.163-4.758-16.764-11.283-21.553a26.985,26.985,0,0,0-5.923-3.292c-5.128-2.066-20.463-.38-35.691,2.618-14.357,2.824-28.62,6.817-34.159,9.927-11.407,6.412-6.349,10.854-6.618,18.385-.261,7.317,2.04,18.753,2.169,19.395a113.052,113.052,0,0,1-3.983-15.172c-1.547-8.3-3.037-17.108-6.62-20.774-3.278-3.362-7.116-1.16-5.6,1.61a12.876,12.876,0,0,0-10.165-5.249s-1.069-4.153,4.585-5.935,39.486-14.947,51.381-20.018q1.41-.6,2.724-1.122a.044.044,0,0,1,.018-.005c1.664-.572,3.218-1.143,4.7-1.71,11.012-4.229,18.059-8.481,36.692-13.848,12.386-3.565,25.688-5.973,25.688-5.973s12.506,12.029,39.139,8.661c15.214-1.924,28.869-9.791,37.778-16.184Z" transform="translate(-5958.689 -779.587)" fill="#c9d6e8"/>
            <path id="Path_769" data-name="Path 769" d="M6349.958,967.313c5.059,8.1,23.305,12.994,53.371,4.917s23.152-18.364,23.152-18.364l-3.609-1.507s2.3-2.359,7.261-.611,7.042,1.612,7.583,3.827,2.436,14.987-28.1,26.078-54.062,4.348-64.113-.97-8.28-12.4-5.258-14.236,12.083-.6,12.083-.6Z" transform="translate(-6134.112 -761.932)" fill="#c9d6e8"/>
            <path id="Path_770" data-name="Path 770" d="M6338.042,997.394c-.969,4.548,1.157,7.651,8.643,11.712s27.051,8.2,40.111,5.783" transform="translate(-6134.079 -789.737)" fill="none" stroke="#0d0d0c" stroke-linecap="round" stroke-linejoin="round" stroke-width="3"/>
            <path id="Path_771" data-name="Path 771" d="M6271.517,1287.183l9.132-1.6a6.937,6.937,0,0,1-.946.227C6276.987,1286.261,6274.3,1286.733,6271.517,1287.183Z" transform="translate(-6094.252 -962.836)" fill="#c9d6e8"/>
            <path id="Path_772" data-name="Path 772" d="M6197.736,1048.967c-1.48.568-3.035,1.138-4.7,1.71C6194.708,1050.013,6196.266,1049.444,6197.736,1048.967Z" transform="translate(-6047.114 -820.714)" fill="#c9d6e8"/>
            <path id="Path_773" data-name="Path 773" d="M6197.736,1048.967c-1.48.568-3.035,1.138-4.7,1.71C6194.708,1050.013,6196.266,1049.444,6197.736,1048.967Z" transform="translate(-6047.114 -820.714)" fill="#c9d6e8"/>
            <path id="Path_774" data-name="Path 774" d="M6703.511,924.28c5.229,6.067-.158,19.688-5.5,18.579,0,0-6.616,2.36-15.629,12.666-3.684,4.212-7.048,7.665-10.223,10.7a.014.014,0,0,1-.007.007c-.328.314-.652.62-.973.924l-.006,0c-4.217,3.963-8.12,7.223-12.036,10.6-3.412,2.94-9.067,2.254-15.649-.312-7.178-2.791-15.457-7.82-23.125-12.8-14.7-9.548-29.914-33.025-27.2-48.332,1.773-10,2.926-16.063,10.268-22.206a65.46,65.46,0,0,1,12.074-7.593c1.565-.8,3.505-1.825,5.705-3,13.947-7.427,38.229-20.941,42.536-23.712a10.816,10.816,0,0,1,10.019-.756s1.2.183,3.309,2.252c.111.107.225.22.338.341a.164.164,0,0,1,.027.026l.143.145a39.411,39.411,0,0,1,5.165,7.186c5.517,9.426,6.657,25.7,10.241,33.694S6699.429,919.541,6703.511,924.28Z" transform="translate(-6287.26 -706.097)" fill="#fff"/>
            <path id="Path_775" data-name="Path 775" d="M6677.028,863.866c3.223,2.448,5.669,6.682,6.919,13.45s-6.74,7.484-20.817,9.13c-6.414.75-15.516,2.275-22.62,4.962-8.489,3.209-14.13,8.063-8.944,15.211,9.406,12.964,14.461,32.007,14.588,32.486,0-.162-.012-1.076-.038-5.5-.032-6.186-1.349-18.682-1.349-18.682,4.936,11.377,5.276,38.215,5.276,38.215a13.02,13.02,0,0,0,3.032,6.618c2.869,3.644,16.007,10.48,21.4,7.394l.006,0a1.156,1.156,0,0,1,.237-.108l-26.543,29.338c-.367-5.084-.823-11.321-1.384-18.942q-.147-1.99-.3-4.11c-2.632-35.778-5.792-39.4-10.08-48.828s-12.979-25.073-23.9-29.152a20.244,20.244,0,0,0-5.775-1.247,20.5,20.5,0,0,0-8.392,1.212c4.308-1.891,10.517-4.8,18.511-9.01a33.179,33.179,0,0,1,7.66-2.793c13.948-7.427,38.229-20.941,42.536-23.712a10.815,10.815,0,0,1,10.019-.756s1.2.183,3.31,2.252C6678.025,859.22,6673.97,861.542,6677.028,863.866Z" transform="translate(-6290.558 -706.097)" fill="#c9d6e8"/>
            <path id="Path_776" data-name="Path 776" d="M6804.818,867.094a1.055,1.055,0,0,1-.145-.145Z" transform="translate(-6414.494 -711.385)" fill="#c9d6e8"/>
            <path id="Path_777" data-name="Path 777" d="M6404.079,581.392c-4.063-9.689-27.591-18.021-48.068-10.16s-26.79,9.567-34.135,15.971-8.282,4.424-7.97,2.783-1.8-.7-1.562,2.266a3.127,3.127,0,0,0,2.968,3.046s-8.046,9.534-9.922,17.659,3.485,23.757,5.766,27.232,2.125.9,1.656-1.994-1.094-11.538,2.814-17.958c0,0-1.459,13.2,2.812,21.623s15.419,13.524,14.48,10.815-3.645-9.536-3.333-15.29,8.2-18.411,8.2-18.411-6.439,8.328-1.629,18.411c1.629,3.414,3.786,9.394,11.4,13.222s8.829,10.281,7.736,12.469,2.108,1.328,3.125-2.422A11.414,11.414,0,0,0,6356.255,650s21.389,10.695,26.479,17.258,5.712,6.8,6.334,10.014,2.664-.2,1.959-4.091c0,0,4.611,5.484,6.72,8.609s7.21-.065,6.665-3.112a2.076,2.076,0,0,0,1.53,1.813c1.517.532,6.361-3.219,6.361-3.219s-3.363,3.751-.627,3.985,6.845-1.448,16.575-16.006c0,0-1.678,5.288.354,7.867s2.813,1.64,2.266-1.25,3.308-5.534,9.038-15.236c4.675-7.917,6.2-37.66-6.048-53.756-8.3-10.908-23.851-17.12-23.851-17.12a10.205,10.205,0,0,0-2.344-8.82c-3.594-3.985-10.128-5.123-8.831-3.985C6403.654,577.172,6404.079,581.392,6404.079,581.392Z" transform="translate(-6114.363 -531.887)" fill="#ed759d"/>
            <path id="Path_778" data-name="Path 778" d="M6450.917,615.918c-6.181,19.277-4.837,31.307,5.321,44.273a68.743,68.743,0,0,1,13.762,31.1" transform="translate(-6199.773 -560.602)" fill="none" stroke="#fff" stroke-linecap="round" stroke-linejoin="round" stroke-width="4"/>
            <path id="Path_779" data-name="Path 779" d="M6490.228,594.86c-4.692,9.8,15.407,30.1,21.633,51.682,4.871,16.887-.853,37.841-3.043,43.868" transform="translate(-6225.2 -547.954)" fill="none" stroke="#fff" stroke-linecap="round" stroke-linejoin="round" stroke-width="4"/>
            <path id="Path_780" data-name="Path 780" d="M6562.739,615.918c19.373,12.472,25,27.031,26.51,40.026,2.641,22.754-5.485,31.468-5.485,31.468" transform="translate(-6269.175 -560.602)" fill="none" stroke="#fff" stroke-linecap="round" stroke-linejoin="round" stroke-width="4"/>
            <path id="Path_781" data-name="Path 781" d="M6559.306,661.1c2.688-19.4-13.292-43.46-21.469-49.877" transform="translate(-6254.218 -557.783)" fill="none" stroke="#fff" stroke-linecap="round" stroke-linejoin="round" stroke-width="4"/>
            <path id="Path_782" data-name="Path 782" d="M6416.549,690.645c-5.453-22.06-1.068-31.711-1.068-31.711" transform="translate(-6179.723 -586.44)" fill="none" stroke="#fff" stroke-linecap="round" stroke-linejoin="round" stroke-width="4"/>
            <path id="Path_783" data-name="Path 783" d="M6340.3,637.466c4.748-13.535,16.226-24.514,31.229-29.323" transform="translate(-6135.569 -555.932)" fill="none" stroke="#fff" stroke-linecap="round" stroke-linejoin="round" stroke-width="4"/>
          </g>
          <path id="Path_784" data-name="Path 784" d="M6842.543,839.2c11.7,4.124,42.509-1.121,42.509-1.121" transform="translate(-6437.24 -694.046)" fill="none" stroke="#db8882" stroke-linecap="round" stroke-linejoin="round" stroke-width="2"/>
          <path id="Path_785" data-name="Path 785" d="M5973.39,1145.719c-5.414,17.986-30.4,37.5-30.4,37.5" transform="translate(-5896.924 -878.828)" fill="none" stroke="#db8882" stroke-linecap="round" stroke-linejoin="round" stroke-width="2"/>
          <path id="Path_786" data-name="Path 786" d="M6266.058,1252.366c16.4-14.912,22.451-34.642,22.451-34.642" transform="translate(-6090.973 -922.079)" fill="none" stroke="#0d0d0c" stroke-linecap="round" stroke-linejoin="round" stroke-width="3"/>
          <path id="Path_787" data-name="Path 787" d="M6278.633,1044.417s8.874,1.826,14.047,6.7,14.822,22.432,11.324,55.872c-.579,5.526-8.507,22.432-8.507,22.432" transform="translate(-6098.526 -817.981)" fill="none" stroke="#0d0d0c" stroke-linecap="round" stroke-linejoin="round" stroke-width="3"/>
          <path id="Path_788" data-name="Path 788" d="M6660.55,970.788c9.059,10.858,17.485,29.581,19.823,36.993s4.958,57.268,4.958,57.268" transform="translate(-6327.926 -773.756)" fill="none" stroke="#0d0d0c" stroke-linecap="round" stroke-linejoin="round" stroke-width="3"/>
          <path id="Path_789" data-name="Path 789" d="M6710.018,987.36c5.162,8.767,2.571,50.612,2.571,50.612" transform="translate(-6357.639 -783.71)" fill="none" stroke="#0d0d0c" stroke-linecap="round" stroke-linejoin="round" stroke-width="3"/>
        </g>
      </g>
      <g id="Pancake_top" data-name="Pancake top" transform="translate(45.595 385.806)">
        <g id="Group_255" data-name="Group 255" transform="translate(0 0)">
          <ellipse id="Ellipse_31" data-name="Ellipse 31" cx="70.428" cy="70.428" rx="70.428" ry="70.428"/>
        </g>
        <g id="Group_263" data-name="Group 263" transform="translate(12.069 12.041)">
          <g id="Group_256" data-name="Group 256" transform="translate(1.521)">
            <ellipse id="Ellipse_32" data-name="Ellipse 32" cx="65.028" cy="65.028" rx="65.028" ry="65.028" fill="#fff"/>
          </g>
          <g id="Group_257" data-name="Group 257" transform="translate(17.655 16.134)">
            <ellipse id="Ellipse_33" data-name="Ellipse 33" cx="48.894" cy="48.894" rx="48.894" ry="48.894" fill="#c9d6e8"/>
          </g>
          <g id="Group_258" data-name="Group 258" transform="translate(13.284 11.763)">
            <path id="Path_790" data-name="Path 790" d="M5820.888,808.94q-2.068.976-4.175,1.761" transform="translate(-5744.894 -707.517)" fill="none" stroke="#0d0d0c" stroke-linecap="round" stroke-linejoin="round" stroke-width="2"/>
            <path id="Path_791" data-name="Path 791" d="M5655.54,604.883a53.267,53.267,0,1,1,45.021-35.6" transform="translate(-5596.968 -498.616)" fill="none" stroke="#0d0d0c" stroke-linecap="round" stroke-linejoin="round" stroke-width="2"/>
          </g>
          <path id="Path_792" data-name="Path 792" d="M5605.172,580.644c-17-19.827-12.648-46.9,1.853-59.419,10.6-9.153,25.341-11.3,33.083-8.994,0,0,6.271-2.557,21.381.176s24.96,18.973,27.929,31.42Z" transform="translate(-5581.803 -495.287)" fill="#080b0a"/>
          <g id="Group_262" data-name="Group 262" transform="translate(0 5.524)">
            <circle id="Ellipse_34" data-name="Ellipse 34" cx="39.608" cy="39.608" r="39.608" transform="translate(9.275 63.888) rotate(-45)" fill="#fdd89b"/>
            <path id="Path_793" data-name="Path 793" d="M5713.315,584.9c3.765,12.446,1.574,26.719-6.444,36.943s-21.869,15.813-34.635,13.217a49.18,49.18,0,0,1-29.369-21.071,33.9,33.9,0,0,1-1.709-30.227c4.968-11.271,16.124-19.093,28.126-21.972,12.411-2.976,26.7-.657,35.65,8.443A35.441,35.441,0,0,1,5713.315,584.9Z" transform="translate(-5611.571 -534.079)" fill="#c78c50"/>
            <g id="Group_260" data-name="Group 260" transform="translate(29.097 35.985)">
              <path id="Path_794" data-name="Path 794" d="M5832.629,599.729a.8.8,0,1,1-.482-1.022A.8.8,0,0,1,5832.629,599.729Z" transform="translate(-5770.377 -595.708)" fill="#f79922"/>
              <path id="Path_795" data-name="Path 795" d="M5782.781,624.645a.8.8,0,1,1-.483-1.022A.8.8,0,0,1,5782.781,624.645Z" transform="translate(-5736.82 -612.481)" fill="#f79922"/>
              <ellipse id="Ellipse_35" data-name="Ellipse 35" cx="0.239" cy="0.239" rx="0.239" ry="0.239" transform="translate(56.16 11.216)" fill="#f79922"/>
              <ellipse id="Ellipse_36" data-name="Ellipse 36" cx="0.585" cy="0.585" rx="0.585" ry="0.585" transform="translate(61.27 17.902)" fill="#f79922"/>
              <g id="Group_259" data-name="Group 259" transform="translate(13.766 29.973)">
                <ellipse id="Ellipse_37" data-name="Ellipse 37" cx="1.138" cy="1.138" rx="1.138" ry="1.138" fill="#f79922"/>
              </g>
              <ellipse id="Ellipse_38" data-name="Ellipse 38" cx="0.719" cy="0.719" rx="0.719" ry="0.719" transform="translate(60.393 41.085)" fill="#f79922"/>
              <ellipse id="Ellipse_39" data-name="Ellipse 39" cx="1.207" cy="1.207" rx="1.207" ry="1.207" transform="translate(48.389 43.557)" fill="#f79922"/>
              <path id="Path_796" data-name="Path 796" d="M5702.556,729.91a.935.935,0,1,1-.564-1.2A.935.935,0,0,1,5702.556,729.91Z" transform="translate(-5682.638 -683.219)" fill="#f79922"/>
              <path id="Path_797" data-name="Path 797" d="M5738.265,723.04a.436.436,0,1,1-.263-.557A.436.436,0,0,1,5738.265,723.04Z" transform="translate(-5707.329 -679.045)" fill="#f79922"/>
              <ellipse id="Ellipse_40" data-name="Ellipse 40" cx="1.314" cy="1.314" rx="1.314" ry="1.314" transform="translate(8.278 18.75)" fill="#f79922"/>
              <ellipse id="Ellipse_41" data-name="Ellipse 41" cx="0.597" cy="0.597" rx="0.597" ry="0.597" transform="translate(39.761 0.479)" fill="#f79922"/>
              <ellipse id="Ellipse_42" data-name="Ellipse 42" cx="1.433" cy="1.433" rx="1.433" ry="1.433" transform="translate(17.125)" fill="#f79922"/>
              <path id="Path_798" data-name="Path 798" d="M5800.079,597.194l-.381-.137-.381-.137.381.137Z" transform="translate(-5748.996 -594.538)" fill="#f79922"/>
              <path id="Path_799" data-name="Path 799" d="M5837.94,701.011a.94.94,0,1,1-.568-1.2A.94.94,0,0,1,5837.94,701.011Z" transform="translate(-5773.768 -663.761)" fill="#f79922"/>
              <ellipse id="Ellipse_43" data-name="Ellipse 43" cx="0.719" cy="0.719" rx="0.719" ry="0.719" transform="translate(48.899 31.301)" fill="#f79922"/>
              <ellipse id="Ellipse_44" data-name="Ellipse 44" cx="0.719" cy="0.719" rx="0.719" ry="0.719" transform="translate(23.937 12.201)" fill="#f79922"/>
              <path id="Path_800" data-name="Path 800" d="M5802.773,671.075a.94.94,0,1,1-.567-1.2A.94.94,0,0,1,5802.773,671.075Z" transform="translate(-5750.095 -643.609)" fill="#f79922"/>
              <ellipse id="Ellipse_45" data-name="Ellipse 45" cx="1.508" cy="1.508" rx="1.508" ry="1.508" transform="translate(34.638 54.404)" fill="#f79922"/>
              <ellipse id="Ellipse_46" data-name="Ellipse 46" cx="0.836" cy="0.836" rx="0.836" ry="0.836" transform="translate(4.102 43.167)" fill="#fcb830"/>
              <path id="Path_801" data-name="Path 801" d="M5647.637,691.38a1.177,1.177,0,1,1-.71-1.5A1.177,1.177,0,0,1,5647.637,691.38Z" transform="translate(-5645.353 -657.065)" fill="#fcb830"/>
              <ellipse id="Ellipse_47" data-name="Ellipse 47" cx="0.468" cy="0.468" rx="0.468" ry="0.468" transform="translate(1.874 39.421)" fill="#fcb830"/>
              <ellipse id="Ellipse_48" data-name="Ellipse 48" cx="0.537" cy="0.537" rx="0.537" ry="0.537" transform="translate(70.711 13.009)" fill="#fcb830"/>
            </g>
            <circle id="Ellipse_49" data-name="Ellipse 49" cx="39.608" cy="39.608" r="39.608" transform="translate(14.187 56.014) rotate(-45)" fill="#fdd89b"/>
            <path id="Path_802" data-name="Path 802" d="M5728.341,560.807c3.765,12.446,1.574,26.719-6.444,36.943s-21.87,15.812-34.635,13.217a49.182,49.182,0,0,1-29.37-21.072,33.9,33.9,0,0,1-1.709-30.227c4.969-11.271,16.124-19.093,28.126-21.972,12.411-2.976,26.7-.657,35.65,8.443A35.446,35.446,0,0,1,5728.341,560.807Z" transform="translate(-5621.686 -517.862)" fill="#c78c50"/>
            <path id="Path_803" data-name="Path 803" d="M5812.508,556.154c5.147,5.962,9.231,12.834,10.607,20.69a49.3,49.3,0,0,1,.435,13.688c0-.012.008-.023.012-.035,2.953-9.775,1.876-20.519-1.958-29.983-2.033-5.022-4.955-9.883-9.406-12.974-3.864-2.684-8.586-3.833-13.251-4.443-.274-.036-.551-.064-.826-.1A71.636,71.636,0,0,1,5812.508,556.154Z" transform="translate(-5719.095 -522.254)" fill="#fdd89b"/>
            <path id="Path_804" data-name="Path 804" d="M5716.269,592.632a40.6,40.6,0,0,0-30.2-53.55c-.588.116-1.176.232-1.757.371-12,2.878-23.157,10.7-28.126,21.972a33.9,33.9,0,0,0,1.709,30.227,49.181,49.181,0,0,0,29.37,21.071,33.139,33.139,0,0,0,13.495-.148A40.421,40.421,0,0,0,5716.269,592.632Z" transform="translate(-5621.686 -519.617)" fill="#080b0a"/>
            <path id="Path_805" data-name="Path 805" d="M5743.126,756.05c-3.445.769-5.808,1.32-6.13,2.579,0,0-9.873,4.355-20.636,1.3l22.106-7.718Z" transform="translate(-5664.055 -663.092)" fill="#080b0a"/>
            <g id="Group_261" data-name="Group 261" transform="translate(0 1.384)">
              <circle id="Ellipse_50" data-name="Ellipse 50" cx="39.608" cy="39.608" r="39.608" transform="translate(0 56.014) rotate(-45)" fill="#fdd89b"/>
              <path id="Path_806" data-name="Path 806" d="M5684.935,565.042c3.765,12.446,1.574,26.72-6.444,36.944s-21.869,15.812-34.635,13.216a49.176,49.176,0,0,1-29.369-21.071,33.9,33.9,0,0,1-1.709-30.227c4.968-11.27,16.124-19.093,28.126-21.972,12.41-2.977,26.7-.657,35.65,8.443A35.443,35.443,0,0,1,5684.935,565.042Z" transform="translate(-5592.466 -522.097)" fill="#c78c50"/>
              <path id="Path_807" data-name="Path 807" d="M5665.463,568.266a7.411,7.411,0,0,0-1.461,1.147c-1.161,1.158-2.194,2.524-3.679,3.221-2.343,1.1-5.14.241-7.667.8a6.932,6.932,0,0,0-4.882,9.5c1.589,3.708,4.9,6.144,3.214,10.636-1.412,3.769-5.387,6.982-4.211,11.425.789,2.974,3.829,4.711,6.681,5.864s6,2.208,7.751,4.74c1.079,1.563,1.467,3.492,2.285,5.206s2.37,3.352,4.267,3.26c2.045-.1,3.412-2.072,5.14-3.169a10.568,10.568,0,0,1,6.629-1.138,44.5,44.5,0,0,0,6.82.545c2.279-.148,4.669-1.074,5.849-3.03,1.854-3.074,0-5.7-.484-8.719a9.327,9.327,0,0,1,2.083-7.527c1.1-1.258,2.519-2.189,3.7-3.368a5.676,5.676,0,0,0,1.968-4.42c-.229-2.059-2.1-3.491-3.842-4.613s-3.671-2.391-4.154-4.406c-.42-1.754.4-3.544.564-5.34a7.463,7.463,0,0,0-10.427-7.535c-1.189.521-2.228,1.346-3.425,1.849-3.933,1.654-5.045-2.017-7.264-4.262A4.18,4.18,0,0,0,5665.463,568.266Z" transform="translate(-5617.069 -540.165)" fill="#fafafa"/>
              <path id="Path_808" data-name="Path 808" d="M5763.38,608.54a8.263,8.263,0,0,0-1.956,9.386c-1.924-.724-2.448-3.321-1.821-5.279s2.038-3.558,2.966-5.393,1.276-4.272-.107-5.793c-.817-.9-2.057-1.273-3.019-2.015-1.917-1.481-2.427-4.159-2.4-6.581s.447-4.9-.176-7.236-2.762-4.546-5.154-4.164a6.293,6.293,0,0,1,9.934,4.6c.122,1.483-.283,2.961-.274,4.449a8.1,8.1,0,0,0,2.487,5.746c1.007.958,2.246,1.637,3.309,2.532a4.15,4.15,0,0,1-.168,7.2C5765.839,606.9,5764.485,607.559,5763.38,608.54Z" transform="translate(-5687.855 -548.753)" fill="#c9d6e8"/>
              <path id="Path_809" data-name="Path 809" d="M5653.8,581.171a4.428,4.428,0,0,1,3.4-3.085,33.26,33.26,0,0,1,4.81-.509,14.369,14.369,0,0,0,9.311-5.028,21.7,21.7,0,0,1-2.464,4.6,7.29,7.29,0,0,1-4.236,2.871c-1.875.365-3.779-.276-5.673-.529S5654.815,579.55,5653.8,581.171Z" transform="translate(-5621.945 -543.531)" fill="#c9d6e8"/>
              <path id="Path_810" data-name="Path 810" d="M5681.173,706.727a17.129,17.129,0,0,0,1.346,3.048,3.246,3.246,0,0,0,2.743,1.62c1.542-.1,2.506-1.639,3.653-2.676a6.652,6.652,0,0,1,6.572-1.3,3.553,3.553,0,0,0-3.646-.956,22.534,22.534,0,0,0-3.656,1.571,5.075,5.075,0,0,1-3.861.376c-1.783-.719-2.476-2.807-3.431-4.474a11.259,11.259,0,0,0-9.045-5.545A14.553,14.553,0,0,1,5681.173,706.727Z" transform="translate(-5634.091 -628.245)" fill="#c9d6e8"/>
            </g>
          </g>
        </g>
      </g>
      <g id="Fork" transform="translate(183.943 392.83)">
        <path id="Path_811" data-name="Path 811" d="M5970.409,458.632l-.289-1.124s-.268-.264.841-.615l17.178-4.939s.311-.346-1.237-.149l-16.935,3.811s-.541-.194-.692-1.354l17.642-4.992s1.232-.649-.174-.421l-17.813,4.17s-.723-1.413.043-1.542l17.789-5.163s.743-.989-2.942.222l-15.231,3.441s-1.208-.556-.29-1.391l17.2-5.877s7.185-1.843,9.463-.23c0,0,3.905,1.728,4.967,1.456l25.207-6.865,25.44-6.992s4.829-1.286,5.81.46c0,0,1.534,2.869-.131,4.162l-32.183,7.3-23.042,5.444a6.364,6.364,0,0,0-2.8,2.849,11.471,11.471,0,0,1-6.559,4.28s-12.65,3.378-18.03,3.692Z" transform="translate(-5967.954 -429.621)"/>
        <path id="Path_812" data-name="Path 812" d="M5981.009,462.574l-.288-1.125s-.268-.264.841-.615l17.178-4.939s.31-.346-1.238-.149l-16.934,3.811s-.541-.194-.692-1.354l17.643-4.991s1.232-.649-.175-.421l-17.813,4.17s-.723-1.413.043-1.543l17.789-5.162s.742-.989-2.942.222l-15.231,3.441s-1.208-.556-.29-1.391l17.2-5.878s7.185-1.843,9.464-.23c0,0,3.905,1.728,4.967,1.456l25.207-6.865,25.439-6.992s2.355-1.2,3.335.543c0,0,1.536,2.869-.13,4.162l-29.71,7.221-23.041,5.444a6.362,6.362,0,0,0-2.8,2.848,11.473,11.473,0,0,1-6.56,4.279s-12.651,3.378-18.03,3.693Z" transform="translate(-5975.09 -432.31)" fill="#fff"/>
        <path id="Path_813" data-name="Path 813" d="M6067.62,478.674s-.984-.722-.962-1.414a15.038,15.038,0,0,1,.181-1.632s-3.739-.69-4.208-1.218a6.712,6.712,0,0,1,1.484,2.865,12.993,12.993,0,0,1,.23,4.985,10.3,10.3,0,0,1,1.536-2.192S6067.211,478.391,6067.62,478.674Z" transform="translate(-6031.688 -459.772)" fill="#c9d6e8"/>
        <path id="Path_814" data-name="Path 814" d="M6129.123,439.182a2.781,2.781,0,0,0-.985-3.842l-52.778,13.987-.071.471,50.641-13.393s2.159-.8,2.593.434A3.814,3.814,0,0,1,6129.123,439.182Z" transform="translate(-6040.208 -433.471)" fill="#c9d6e8"/>
        <path id="Path_815" data-name="Path 815" d="M5978.517,486.247s.472.752.909.64l15.435-3.56,1.281-.328s1.066-.33,1.224.191a15.178,15.178,0,0,0-3.681.619l-11.892,2.687-2.646.6S5978.338,486.623,5978.517,486.247Z" transform="translate(-5975.047 -465.484)" fill="#fff"/>
      </g>
      <path id="Path_985" data-name="Path 985" d="M5707.548,739.273l33.088-68.616,69.122-62.454,29.01-44.165,73.424-21.421-5.5-35.183s4.128-29.858,37.14-54.163,87.4-24.845,87.4-24.845l51.021-8.845s31.007,8.29,41.994,19.386,28.939,39.462,28.939,39.462,60.782,39.418,78.177,55.453,22.888,60.952,22.888,60.952l-6.409,37.009-45.318,34.336-24.1,43.384" transform="translate(-5730.728 78.37)" fill="none" stroke="#fff" stroke-miterlimit="10" stroke-width="20"/>
      <g id="mayonnaise" transform="translate(-32.164 611.242)">
        <ellipse id="Ellipse_51" data-name="Ellipse 51" cx="23.135" cy="24.806" rx="23.135" ry="24.806" transform="matrix(0.841, -0.541, 0.541, 0.841, 0, 25.045)"/>
        <path id="Path_816" data-name="Path 816" d="M5418.022,875.086a21.97,21.97,0,1,1,6.582-30.366A21.97,21.97,0,0,1,5418.022,875.086Z" transform="translate(-5369.812 -820.574)" fill="#fff"/>
        <path id="Path_817" data-name="Path 817" d="M5427.879,845.319a19.216,19.216,0,0,0-11.1-8.153c-2.172-.6-4.411-.743-6.6-1.242a3.552,3.552,0,0,1-1.415-.568,1.377,1.377,0,0,1-.568-1.339.763.763,0,0,0,.048-.4c-.087-.268-.474-.244-.741-.154-3.011,1.025-5.257,3.511-7.31,5.941-2.259,2.674-4.722,5.269-6.16,8.5a19.289,19.289,0,1,0,33.837-2.585Z" transform="translate(-5375.355 -819.739)" fill="#fdd89b"/>
        <path id="Path_818" data-name="Path 818" d="M5488.037,944.708a19.3,19.3,0,0,0,1.8-1.621" transform="translate(-5439.741 -893.577)" fill="none" stroke="#0d0d0c" stroke-linecap="round" stroke-linejoin="round" stroke-width="2"/>
        <path id="Path_819" data-name="Path 819" d="M5400.2,851.767c-2.259,2.674-4.722,5.269-6.16,8.5a19.291,19.291,0,0,0,26.347,25.057" transform="translate(-5375.355 -832.103)" fill="none" stroke="#0d0d0c" stroke-linecap="round" stroke-linejoin="round" stroke-width="2"/>
        <path id="Path_820" data-name="Path 820" d="M5467.384,863.862a19.271,19.271,0,0,0-13.946-21.494c-2.171-.6-4.411-.743-6.6-1.242" transform="translate(-5412.009 -824.94)" fill="none" stroke="#0d0d0c" stroke-linecap="round" stroke-linejoin="round" stroke-width="2"/>
        <path id="Path_821" data-name="Path 821" d="M5462.466,906.737a16.961,16.961,0,0,1-5.5,2.32,1.327,1.327,0,0,0-.65.276.439.439,0,0,0-.032.63.623.623,0,0,0,.372.093,33.144,33.144,0,0,0,6.533-.557,9.044,9.044,0,0,0,2.823-.813,6.432,6.432,0,0,0,3.027-5.32,17.3,17.3,0,0,0-1.1-6.258c-.327.018-.436.441-.466.767a12.345,12.345,0,0,1-2.789,6.936A11.127,11.127,0,0,1,5462.466,906.737Z" transform="translate(-5418.285 -862.626)" fill="#edc080"/>
        <path id="Path_822" data-name="Path 822" d="M5414.351,891.863c0-.03,0-.06-.009-.089a8.023,8.023,0,0,0-2.572,4.456,8.548,8.548,0,0,0-.412,3.118,4.572,4.572,0,0,0,.866,2.688.771.771,0,0,0,.885.144,1.134,1.134,0,0,0,.389-.883c.095-.82.174-1.642.252-2.464q.281-2.93.561-5.86A6.142,6.142,0,0,0,5414.351,891.863Z" transform="translate(-5388.109 -859.035)" fill="#edc080"/>
        <path id="Path_823" data-name="Path 823" d="M5448.169,856.2c-.119-.006-.581-.639-.677-.729a8.9,8.9,0,0,0-2.181-1.492c-2.723-1.327-5.815-1-8.737-.843a10.416,10.416,0,0,0-1.346.132.369.369,0,0,0-.2.08c-.132.129-.021.35.1.49,1.878,2.176,4.729,1.927,7.336,2.064Z" transform="translate(-5404.02 -832.924)" fill="#edc080"/>
        <path id="Path_824" data-name="Path 824" d="M5399.056,888.761a16.75,16.75,0,0,0,2.05,8.894.8.8,0,0,0,.255.326.284.284,0,0,0,.376-.046.42.42,0,0,0,.052-.188,11.089,11.089,0,0,0-.387-3.158q-.317-1.858-.488-3.738t-.2-3.764c0-.359-.15-3.565.088-3.639C5399.42,883.879,5399.145,887.539,5399.056,888.761Z" transform="translate(-5379.818 -853.43)" fill="#edc080"/>
        <path id="Path_825" data-name="Path 825" d="M5417.016,857.141a8.026,8.026,0,0,1-.363,1.151,2.475,2.475,0,0,1-.458.783c-.792.84-1.4.16-1.264-.726a7.944,7.944,0,0,1,.749-2,5.186,5.186,0,0,1,1.477-1.972c.056-.043.128-.086.191-.054s.067.127.06.2A20.133,20.133,0,0,1,5417.016,857.141Z" transform="translate(-5390.514 -833.814)" fill="#edc080"/>
      </g>
      <g id="No.1" transform="translate(290.723 399.462)">
        <path id="Path_827" data-name="Path 827" d="M6839.128,402.4l-8.088-38.577,55.529,41.842Z" transform="translate(-6831.04 -362.285)"/>
        <g id="Group_267" data-name="Group 267" transform="translate(8.088 0)">
          <path id="Path_828" data-name="Path 828" d="M6882.417,416.518l18.544-41.422-26.919-15.971-18.255,40.111Z" transform="translate(-6855.786 -359.125)" fill="#ed759d"/>
          <path id="Path_829" data-name="Path 829" d="M6897.546,427.657,6907.535,406l-4.5-1.57,2.162-4.689,10.224,3.708-12.516,27.139Z" transform="translate(-6883.898 -386.463)" fill="#fff"/>
          <path id="Path_830" data-name="Path 830" d="M6955.812,407.99l2.267,27.406-20.811,14.016Z" transform="translate(-6910.637 -392.019)" fill="#a52959"/>
          <path id="Path_831" data-name="Path 831" d="M6937.268,449.412l14.438-18.79,4.106-22.632Z" transform="translate(-6910.637 -392.019)"/>
          <path id="Path_832" data-name="Path 832" d="M6982.643,435.4l-8.884-6.695,6.617-20.711Z" transform="translate(-6935.202 -392.019)"/>
        </g>
      </g>
      <g id="No.2" transform="translate(21.752 559.852)">
        <path id="Path_833" data-name="Path 833" d="M5282.088,598.244l-18.315-27.326,31.461-16.892,34.3,40.953Z" transform="translate(-5263.773 -554.025)"/>
        <g id="Group_269" data-name="Group 269" transform="translate(18.315 0.842)">
          <path id="Path_834" data-name="Path 834" d="M5345.292,613.995l-18.544-41.422,26.92-15.971,18.255,40.111Z" transform="translate(-5324.481 -556.602)" fill="#ed759d"/>
          <path id="Path_835" data-name="Path 835" d="M5322.079,605.467l-2.267,27.406,20.811,14.016Z" transform="translate(-5319.812 -589.497)" fill="#a52959"/>
          <path id="Path_836" data-name="Path 836" d="M5322.079,605.467l5.561,22.143-7.828,5.263,8.723-2.769,12.088,16.785Z" transform="translate(-5319.812 -589.497)"/>
        </g>
        <path id="Path_837" data-name="Path 837" d="M5367.277,629.182l-1.173-2.711a20.934,20.934,0,0,1,.891-5.977q.882-2.943,2.085-6.047.9-2.349,1.457-3.878a18.906,18.906,0,0,0,.786-2.6,6.247,6.247,0,0,0,.115-2,7.605,7.605,0,0,0-.614-2.1q-1.679-3.879-6.295-1.189a17.823,17.823,0,0,0-2.957,2.167,24.835,24.835,0,0,0-2.547,2.66l-2.148-4.964a24.706,24.706,0,0,1,3.092-2.872,30.575,30.575,0,0,1,3.64-2.513q4.38-2.553,7.593-1.526t4.928,4.989a9.622,9.622,0,0,1,.758,5.433,27.384,27.384,0,0,1-1.654,5.743q-.955,2.436-1.8,4.677a21.142,21.142,0,0,0-1.153,4.354l10.289-6,1.877,4.338Z" transform="translate(-5326.449 -581.838)" fill="#fff"/>
      </g>
    </g>
  </g>
</svg>
