<svg width="24" height="25" viewBox="0 0 24 25" fill="none" xmlns="http://www.w3.org/2000/svg">
<path d="M21.93 7.26001L18.56 20.79C18.32 21.8 17.42 22.5 16.38 22.5H3.23998C1.72998 22.5 0.649993 21.0199 1.09999 19.5699L5.30998 6.05005C5.59998 5.11005 6.47 4.45996 7.45 4.45996H19.75C20.7 4.45996 21.49 5.03997 21.82 5.83997C22.01 6.26997 22.05 6.76001 21.93 7.26001Z" stroke="#333333" stroke-width="1.5" stroke-miterlimit="10"/>
<path d="M16 22.5H20.78C22.07 22.5 23.08 21.41 22.99 20.12L22 6.5" stroke="#333333" stroke-width="1.5" stroke-miterlimit="10" stroke-linecap="round" stroke-linejoin="round"/>
<path d="M9.67999 6.88L10.72 2.56006" stroke="#333333" stroke-width="1.5" stroke-miterlimit="10" stroke-linecap="round" stroke-linejoin="round"/>
<path d="M16.38 6.89001L17.32 2.55005" stroke="#333333" stroke-width="1.5" stroke-miterlimit="10" stroke-linecap="round" stroke-linejoin="round"/>
<path d="M7.70001 12.5H15.7" stroke="#333333" stroke-width="1.5" stroke-miterlimit="10" stroke-linecap="round" stroke-linejoin="round"/>
<path d="M6.70001 16.5H14.7" stroke="#333333" stroke-width="1.5" stroke-miterlimit="10" stroke-linecap="round" stroke-linejoin="round"/>
</svg>
