<svg xmlns="http://www.w3.org/2000/svg" xmlns:xlink="http://www.w3.org/1999/xlink" width="50" height="50" viewBox="0 0 50 50">
  <defs>
    <clipPath id="clip-path">
      <rect id="Rectangle_175" data-name="Rectangle 175" width="50" height="50" transform="translate(398 150.797)" fill="none" stroke="#707070" stroke-width="1"/>
    </clipPath>
  </defs>
  <g id="Mask_Group_5" data-name="Mask Group 5" transform="translate(-398 -150.797)" clip-path="url(#clip-path)">
    <g id="screen_rotation_black_24dp" transform="translate(452.605 184.605) rotate(150)">
      <path id="Path_5531" data-name="Path 5531" d="M0,44.811H44.81V0H0Z" transform="translate(0 0)" fill="none"/>
      <path id="Path_5532" data-name="Path 5532" d="M30.676,40.106A19.608,19.608,0,0,0,41.823,24.272h2.8A22.4,22.4,0,0,1,22.312,44.811l-1.232-.056,7.114-7.114ZM19.007,41.544a2.783,2.783,0,0,1-3.958,0L3.174,29.669a2.784,2.784,0,0,1,0-3.958L25.617,3.268a2.783,2.783,0,0,1,3.958,0L41.45,15.142a2.784,2.784,0,0,1,0,3.958ZM27.6,5.247,5.153,27.69,17.028,39.564,39.47,17.121ZM13.948,4.706A19.581,19.581,0,0,0,2.8,20.539H0A22.4,22.4,0,0,1,22.312,0l1.232.056L16.431,7.17,13.948,4.706Z" transform="translate(0.093 0)"/>
    </g>
  </g>
</svg>
