<svg id="Component_3_79" data-name="Component 3 – 79" xmlns="http://www.w3.org/2000/svg" width="57" height="57" viewBox="0 0 57 57">
  <path id="Path_600" data-name="Path 600" d="M4468.474,79.886a2.522,2.522,0,0,1-1.442,2.286,2.456,2.456,0,0,1-1.065.242,2.489,2.489,0,0,1-1.6-.584l-13.7-11.44h-7.3a2.517,2.517,0,0,1-2.5-2.529V57.8a2.517,2.517,0,0,1,2.5-2.529h7.3l13.7-11.442a2.486,2.486,0,0,1,2.667-.339,2.525,2.525,0,0,1,1.438,2.286Zm9.629-3.947c-.061,0-.12.006-.181.006a2.49,2.49,0,0,1-1.771-.739l-.336-.338a2.544,2.544,0,0,1-.24-3.294,14.776,14.776,0,0,0-.385-18,2.54,2.54,0,0,1,.17-3.377l.336-.338a2.439,2.439,0,0,1,1.9-.736,2.5,2.5,0,0,1,1.815.923,20.353,20.353,0,0,1,.521,24.883,2.494,2.494,0,0,1-1.826,1.006Zm10.359,7.806a2.5,2.5,0,0,1-1.809.893c-.035,0-.07,0-.108,0a2.5,2.5,0,0,1-1.771-.739l-.328-.333a2.543,2.543,0,0,1-.147-3.413,27.079,27.079,0,0,0-.441-35.17,2.542,2.542,0,0,1,.1-3.457l.33-.333a2.434,2.434,0,0,1,1.847-.744,2.509,2.509,0,0,1,1.8.85,32.636,32.636,0,0,1,.526,42.441Zm0,0" transform="translate(-4440.537 -34.452)" fill="#000"/>
  <rect id="Rectangle_168" data-name="Rectangle 168" width="57" height="57" fill="rgba(0,0,0,0)"/>
</svg>
