<svg xmlns="http://www.w3.org/2000/svg" xmlns:xlink="http://www.w3.org/1999/xlink" width="261.438" height="93.082" viewBox="0 0 261.438 93.082">
  <defs>
    <filter id="Path_4186" x="0" y="0" width="261.438" height="93.082" filterUnits="userSpaceOnUse">
      <feOffset dy="3" input="SourceAlpha"/>
      <feGaussianBlur stdDeviation="3" result="blur"/>
      <feFlood flood-opacity="0.161"/>
      <feComposite operator="in" in2="blur"/>
      <feComposite in="SourceGraphic"/>
    </filter>
  </defs>
  <g id="Group_2450" data-name="Group 2450" transform="translate(9 6)">
    <g transform="matrix(1, 0, 0, 1, -9, -6)" filter="url(#Path_4186)">
      <path id="Path_4186-2" data-name="Path 4186" d="M37.541,0H205.9a37.541,37.541,0,0,1,0,75.082H37.541A37.541,37.541,0,0,1,37.541,0Z" transform="translate(9 6)" fill="#fff"/>
    </g>
    <path id="Path_672" data-name="Path 672" d="M1277.518,639.9c-4.368-.926-8.171,5.482-1.418,8.048s14.449,8.507,17.556,15.935a25.716,25.716,0,0,1,0,19.176c-1.755,4.052,1.08,4.187,4.051.54s5.4-13.5,2.026-22.823S1288.726,642.281,1277.518,639.9Z" transform="translate(-1061.938 -634.787)" fill="#c9d6e8"/>
    <path id="Path_673" data-name="Path 673" d="M1258.833,637.484c-6.052-.558-8.929,3.834-2.956,6.03s8.3-1.406,7.56-3.245C1262.9,638.94,1261.707,637.749,1258.833,637.484Z" transform="translate(-1056.258 -634.107)" fill="#c9d6e8"/>
  </g>
</svg>
