<svg xmlns="http://www.w3.org/2000/svg" width="836" height="161.376" viewBox="0 0 836 161.376">
  <g id="Group_2450" data-name="Group 2450" transform="translate(-421.222 -63.571)">
    <path id="Path_4209" data-name="Path 4209" d="M475.937,155.833q0-1.317,2.744-2.086a21.546,21.546,0,0,1,5.819-.768,16.091,16.091,0,0,1,4.062.439q1.646.442,1.208,1.537-1.54,8.785-3.183,19.211T483.4,195.354q-1.538,10.761-2.525,21.188t-.989,19.431q0,2.419-2.854,3.512a16.332,16.332,0,0,1-5.928,1.1,11.564,11.564,0,0,1-3.4-.439,2.078,2.078,0,0,1-1.647-1.537,56.537,56.537,0,0,0-3.293-14.821,60.939,60.939,0,0,0-7.026-13.5q-.221,1.538-1.1,5.489a66.662,66.662,0,0,1-2.634,8.673,46.507,46.507,0,0,1-4.611,9.111,22.123,22.123,0,0,1-7.245,7.026q-.879.659-4.391.66a18.321,18.321,0,0,1-5.818-.989,6.39,6.39,0,0,1-4.062-3.4,47.571,47.571,0,0,1-2.305-13.5,57.663,57.663,0,0,1,1.208-14.82,33.355,33.355,0,0,1,5.05-12.076,10.946,10.946,0,0,1,9.441-5.05,17.757,17.757,0,0,1,5.269,1.1V176.253q0-5.928-1.1-8.343-.222-.216-.989.988t-1.976,2.964a38.776,38.776,0,0,1-2.964,3.733,26.172,26.172,0,0,1-4.172,3.733,7.4,7.4,0,0,1-4.172,1.318q-3.514,0-4.61-2.2a25.091,25.091,0,0,1-3.294-10.758,60.814,60.814,0,0,1,.659-11.2q0-.658,1.208-.878a17.071,17.071,0,0,1,2.964-.219q1.754,0,3.293.11a3.372,3.372,0,0,1,1.976.549,2.362,2.362,0,0,1,.768,1.866c.073.954.11,1.976.11,3.074v3.183a4.09,4.09,0,0,0,.439,2.2,80.3,80.3,0,0,1,5.6-7.685,8.625,8.625,0,0,1,6.917-3.293,9.393,9.393,0,0,1,3.293.439,13.131,13.131,0,0,1,6.916,8.453,41.862,41.862,0,0,1,1.867,12.406q0,2.2-.11,4.94t-.219,5.489q-.112,2.748-.219,5.16c-.076,1.613-.11,3-.11,4.172a43.526,43.526,0,0,1,6.806,5.049,64.963,64.963,0,0,1,5.928,6.368q0-5.929.548-12.625t1.537-13.5q.988-6.8,2.086-13.5T475.937,155.833Zm-33.592,51.377c.144-1.318.253-2.669.329-4.062s-.4-2.085-1.427-2.085q-1.975.442-3.4,4.72a56.967,56.967,0,0,0-2.2,9.112,55.552,55.552,0,0,0-.768,8.672q0,3.845.659,3.623h.439q2.413,0,3.513-5.818T442.345,207.211Z" transform="translate(0 -21.784)" fill="#fff"/>
    <path id="Path_4210" data-name="Path 4210" d="M545.495,154.517a41.3,41.3,0,0,1,6.806,17.674,87.045,87.045,0,0,1,.439,19.541,192.44,192.44,0,0,1-2.854,20.089q-1.976,10.1-3.074,19.76a2.992,2.992,0,0,1-1.317,2.2,20.36,20.36,0,0,1-3.075,2.085,21.49,21.49,0,0,1-3.732,1.647,11.845,11.845,0,0,1-3.733.659q-3.294,0-3.294-2.635,1.534-9.658,3.294-18.333t2.854-17.016A116.378,116.378,0,0,0,538.8,183.5a74.837,74.837,0,0,0-2.306-17.125,40.805,40.805,0,0,0-7.685,11.2,60.32,60.32,0,0,0-4.611,12.515,4.8,4.8,0,0,1-3.512,1.1,10.824,10.824,0,0,1-4.72-1.1q-2.306-1.1-2.086-2.854a50.75,50.75,0,0,1,5.27-17.345,35.3,35.3,0,0,1,12.075-13.393,21.145,21.145,0,0,1,3.953-2.2,13.979,13.979,0,0,1,5.928-1.318A5.957,5.957,0,0,1,545.495,154.517Z" transform="translate(-22.571 -21.784)" fill="#fff"/>
    <path id="Path_4211" data-name="Path 4211" d="M632.069,159.935a59.738,59.738,0,0,1,1.976,14.161q.216,7.8-.219,15.04-.88,11.2-2.525,22.4t-4.282,22.395q-.443,2.419-4.391,4.172a17.606,17.606,0,0,1-7.026,1.756,6.286,6.286,0,0,1-2.2-.33c-.587-.219-.734-.693-.439-1.426q1.755-8.121,3.4-16.577t2.854-17.016a135.7,135.7,0,0,0,1.317-17.126,100.077,100.077,0,0,0-1.207-16.907q-.221-1.317-1.1-1.317-.659,0-1.976,1.317t-2.854,2.745a40.826,40.826,0,0,1-3.293,2.745,5.849,5.849,0,0,1-3.513,1.317,4.579,4.579,0,0,1-2.854-2.3,19.971,19.971,0,0,1-1.756-3.842q-.658-1.976-1.1-3.623c-.3-1.1-.659-1.647-1.1-1.647a39.756,39.756,0,0,0-8.125,13.173q7.683,0,11.637,3.623t5.489,11.307a107.412,107.412,0,0,1,1.756,11.088,72.886,72.886,0,0,1,.33,11.966A46.549,46.549,0,0,1,609.015,228a18,18,0,0,1-4.83,8.124,26.939,26.939,0,0,1-6.587,4.062,18.366,18.366,0,0,1-7.465,1.647,12.983,12.983,0,0,1-7.9-2.415,22.592,22.592,0,0,1-6.7-7.026,29.959,29.959,0,0,1-3.624-9.112,43.669,43.669,0,0,1-.988-10.429,79.319,79.319,0,0,1,.988-10.978,121.824,121.824,0,0,1,6.917-23.274,51.518,51.518,0,0,1,13.283-19.321,47.74,47.74,0,0,1,5.708-4.282,12.43,12.43,0,0,1,6.806-2.305,5.549,5.549,0,0,1,3.733,1.318c.291.147.582.659.878,1.537A27.236,27.236,0,0,1,610,158.4q.329,1.538.659,2.964c.219.954.4,1.647.548,2.085q1.976-2.192,3.183-3.622t2.416-2.745a8.318,8.318,0,0,1,1.646-1.537,11.807,11.807,0,0,1,6.587-2.415,6.277,6.277,0,0,1,4.062,1.537A10.566,10.566,0,0,1,632.069,159.935Zm-36.228,39.521a34.506,34.506,0,0,0-.768-3.952q-.55-2.193-1.207-4.062a12.2,12.2,0,0,0-1.537-3.074,2.478,2.478,0,0,0-1.976-1.208,2.1,2.1,0,0,0-1.537.66,60.08,60.08,0,0,0-1.867,8.892,67.982,67.982,0,0,0-.548,8.673,69.791,69.791,0,0,0,.548,8.452q.546,4.5,1.427,8.454a33.152,33.152,0,0,0,2.086,6.586q1.2,2.636,2.525,2.635t2.195-1.976a31.555,31.555,0,0,0,2.305-14.381Q596.937,207.8,595.842,199.456Z" transform="translate(-36.472 -21.714)" fill="#fff"/>
    <path id="Path_4212" data-name="Path 4212" d="M672.808,236.747a1.548,1.548,0,0,1-1.207,2.086,12.954,12.954,0,0,1-4.062.548,17.315,17.315,0,0,1-3.4-.329,3.24,3.24,0,0,1-2.086-.988q-2.634-3.293-3.074-9.112a62.053,62.053,0,0,1,.33-12.186,83,83,0,0,1,2.414-12.3,61.918,61.918,0,0,1,3.184-9.221q.875-2.193,1.647-3.733l1.427-2.854q.659-1.317,1.426-2.854t1.647-3.513c0-.144-.477-.658-1.427-1.536s-2.051-1.9-3.293-3.074a26.011,26.011,0,0,1-3.294-3.733,6.252,6.252,0,0,1-1.426-3.513,17.9,17.9,0,0,1,2.305-8.783,22.974,22.974,0,0,1,6.148-7.135,32.984,32.984,0,0,1,8.453-4.72,25.208,25.208,0,0,1,9-1.756,29.23,29.23,0,0,1,13.173,3.293,16.634,16.634,0,0,1,6.916,6.367,32.222,32.222,0,0,1,3.733,9.222,48.943,48.943,0,0,1,1.318,10.319,86.121,86.121,0,0,1-.33,9.88q-.442,12.3-1.756,23.274t-2.415,22.834q-.442,3.077-4.062,5.379a12.454,12.454,0,0,1-6.477,2.305q-3.078,0-3.074-2.854.437-7.245,1.427-14.381t1.757-14.272q.766-7.132,1.318-14.272a102.377,102.377,0,0,0,.11-14.161q-.442-5.485-1.207-9.88t-4.941-8.783a27.312,27.312,0,0,0-2.195-1.866,6.225,6.225,0,0,0-3.952-1.208,9.051,9.051,0,0,0-4.172,1.318,13.42,13.42,0,0,0-3.074,2.086,5.177,5.177,0,0,0-1.647,2.744,5.8,5.8,0,0,0,.768,3.733,20.52,20.52,0,0,0,4.391,5.269q.438.442,1.317,1.537t.22,3.513q-2.2,6.587-4.94,13.393a143.482,143.482,0,0,0-4.83,14.052,84.043,84.043,0,0,0-2.854,14.71A50.393,50.393,0,0,0,672.808,236.747Z" transform="translate(-57.89 -20.582)" fill="#fff"/>
    <path id="Path_4213" data-name="Path 4213" d="M757.694,199.377q1.753,4.611,4.171,10.1a73.147,73.147,0,0,1,3.841,10.978,32.752,32.752,0,0,1,1.1,10.429,13.266,13.266,0,0,1-3.623,8.453,8.706,8.706,0,0,1-5.818,3.4,46.5,46.5,0,0,1-6.917.549,12.33,12.33,0,0,1-5.159-1.866,29.185,29.185,0,0,1-5.16-3.952,37.074,37.074,0,0,1-4.281-4.831,16.815,16.815,0,0,1-2.525-4.5,3.045,3.045,0,0,1,.548-2.2,10.207,10.207,0,0,1,1.977-2.415,12.113,12.113,0,0,1,2.744-1.866,3.768,3.768,0,0,1,2.415-.549q2.414,2.634,4.72,5.05t4.062,2.634q1.977.221,3.075-3.293.659-3.072-3.294-13.832a106.923,106.923,0,0,0-5.6-11.637q-3.186-5.707-6.037-11.307a60.623,60.623,0,0,1-4.5-11.637,31.666,31.666,0,0,1-.768-12.624,11.671,11.671,0,0,1,5.049-8.454,16.8,16.8,0,0,1,9.441-2.744,17.52,17.52,0,0,1,4.282,1.318A28.388,28.388,0,0,1,755.5,157a10.037,10.037,0,0,1,1.756,1.756q.876,1.1,1.757,2.305t1.647,2.2q.767.988,1.427.988,1.975-2.413,3.184-3.842a6.011,6.011,0,0,0,1.427-3.183q.659-1.1,2.854-1.1h1.1a9.17,9.17,0,0,1,3.843,1.207q1.646.988,1.207,2.086a56.259,56.259,0,0,1-2.964,6.7q-1.867,3.623-2.964,5.379a14.516,14.516,0,0,1-3.4,4.391,7.883,7.883,0,0,1-5.159,1.536q-4.611-.216-8.124-5.708-.88-1.1-2.964-3.4t-2.964-3.4a11.721,11.721,0,0,0-.878,7.9,49.125,49.125,0,0,0,2.855,9.442,83.786,83.786,0,0,0,4.5,9.331Q756.153,196.086,757.694,199.377Z" transform="translate(-75.809 -21.855)" fill="#fff"/>
    <path id="Path_4214" data-name="Path 4214" d="M861.039,213.131q0,12.736-5.6,20.639t-19.651,9q-9.221,0-15.15-2.634a21.038,21.038,0,0,1-9.221-7.575,30.493,30.493,0,0,1-4.5-11.747,85.516,85.516,0,0,1-1.207-14.93q0-7.462.548-15.15t.549-15.15v-6.148a13.172,13.172,0,0,0-1.1-5.49,6.186,6.186,0,0,0-1.538,3.184,9.524,9.524,0,0,1-1.537,3.622,1.78,1.78,0,0,1-1.317.989,8.4,8.4,0,0,1-2.415.329,15.946,15.946,0,0,1-4.611-.658q-2.2-.659-1.756-1.318,1.095-3.509,2.3-6.368a17.359,17.359,0,0,1,2.964-4.83,11.721,11.721,0,0,1,4.5-3.074,18.782,18.782,0,0,1,6.916-1.1,8.721,8.721,0,0,1,6.038,2.634,16.31,16.31,0,0,1,3.513,5.708,27.243,27.243,0,0,1,1.536,6.917q.33,3.623.33,6.257-.221,5.928-.878,13.173a136.46,136.46,0,0,0-.549,14.491,54.743,54.743,0,0,0,1.976,13.943,23.529,23.529,0,0,0,6.917,11.307q3.072,3.078,6.367,3.074t7.9.439q4.826-.217,4.83-6.806.216-10.539.11-17.016t-.11-10.868q0-4.391-.11-7.576t-.22-7.245q-.112-4.06-.219-9.771t-.11-15.15a2.1,2.1,0,0,1,1.1-1.647,14.684,14.684,0,0,1,2.634-1.427,15.385,15.385,0,0,1,3.4-.988,19.656,19.656,0,0,1,3.4-.33q3.294,0,3.513,1.538.438,4.831.439,10.1v47.644Z" transform="translate(-90.453 -21.997)" fill="#fff"/>
    <path id="Path_4215" data-name="Path 4215" d="M963.584,194.364a15.676,15.676,0,0,1,3.623,12.735,39.212,39.212,0,0,1-4.831,14.051,52.275,52.275,0,0,1-9.331,12.077q-5.491,5.269-10.1,7.026a5.369,5.369,0,0,1-1.976.439h-1.756q-4.833,0-6.917-3.733a22.983,22.983,0,0,1-2.634-8.892,55.878,55.878,0,0,1-.109-10.539q.436-5.378.658-8.673-1.976,1.1-4.83,4.94t-5.6,8.233q-2.749,4.4-4.941,8.454t-2.854,5.379c-.147.295-.734.514-1.756.659a23.188,23.188,0,0,1-3.294.219,18.872,18.872,0,0,1-4.611-.549q-2.2-.545-1.976-1.647.658-6.587,1.756-14.381t2.085-15.7q.988-7.905,1.867-15.589a126.582,126.582,0,0,0,.878-14.272,33.189,33.189,0,0,0-.659-8.014q-.658-2.305-1.756-2.305t-2.635,2.085a23.4,23.4,0,0,0-2.854,5.6,4.8,4.8,0,0,1-2.305-.878,10.854,10.854,0,0,1-2.634-2.305,14.763,14.763,0,0,1-1.977-2.964,2.737,2.737,0,0,1-.328-2.415,22.689,22.689,0,0,1,2.963-4.062,35.876,35.876,0,0,1,4.171-3.952,20.3,20.3,0,0,1,4.941-2.964,12.686,12.686,0,0,1,4.829-1.1,8.274,8.274,0,0,1,3.733.878,6.481,6.481,0,0,1,2.854,3.293,20.469,20.469,0,0,1,2.305,7.794,88.131,88.131,0,0,1,.549,10.1,106.477,106.477,0,0,1-.549,10.758q-.55,5.382-.878,9.661t-.329,7.026c0,1.832.291,2.745.878,2.745a63.808,63.808,0,0,1,7.135-5.16q3.4-2.085,6.477-3.623,1.1-10.539,2.086-21.188a164.5,164.5,0,0,1,3.184-20.529q.659-1.755,4.391-2.964a21.82,21.82,0,0,1,6.587-1.208q2.634,0,2.635,1.1-1.318,9.879-2.2,19.87t-1.976,21.188a23.636,23.636,0,0,1,7.465-1.318A14.507,14.507,0,0,1,963.584,194.364Zm-19.1,31.617q1.317,0,2.964-2.305a24.827,24.827,0,0,0,2.964-5.928,36.834,36.834,0,0,0,1.865-7.794,22.97,22.97,0,0,0-.109-7.465c-.439-1.461-1.026-2.2-1.756-2.2q-1.54,0-3.294,2.964a21.126,21.126,0,0,0-2.415,5.6q-.221.88-.549,3.4t-.548,5.16a38.683,38.683,0,0,0-.11,5.049A6.064,6.064,0,0,0,944.482,225.981Z" transform="translate(-114.614 -20.794)" fill="#fff"/>
    <path id="Path_4216" data-name="Path 4216" d="M1050.748,63.79A1.753,1.753,0,0,1,1052.176,65a6.792,6.792,0,0,1,0,4.172,1.711,1.711,0,0,1-.989,1.208,75.956,75.956,0,0,0-9.881,4.72,40.754,40.754,0,0,1-9.879,4.062,22.245,22.245,0,0,1-4.94,1.1q-2.307.22-4.5.219a41.205,41.205,0,0,1-10.649-1.318,48.052,48.052,0,0,0-12.186-1.318h-2.195a38.448,38.448,0,0,0-9.99,1.537c-1.389.439-2.159.844-2.306,1.208s.806.624,2.854.768,3.767.219,5.16.219h5.16q5.269.442,8.123,3.183a25.09,25.09,0,0,1,5.05,7.355,50.987,50.987,0,0,1,1.646,15.04q-.329,7.359-.768,15.039-.221,3.078-.768,9.991t-1.1,15.7q-.55,8.785-1.1,18.444t-.878,18.113q-.329,8.456-.219,14.711a37.227,37.227,0,0,0,.768,8.453,1.262,1.262,0,0,0,.878.219c1.022,0,1.976-.693,2.855-2.085s1.536-2.525,1.976-3.4a5.049,5.049,0,0,1,2.416.988,17.209,17.209,0,0,1,2.854,2.306,17.536,17.536,0,0,1,2.2,2.634q.875,1.317.439,1.976a19.269,19.269,0,0,1-6.806,7.136,16.775,16.775,0,0,1-9,2.744,10.911,10.911,0,0,1-9.661-5.489q-1.1-1.755-1.207-9.441t.219-18.443q.329-10.755,1.1-22.945t1.537-23.054q.767-10.868,1.318-18.882t.549-10.209V104.08a27.317,27.317,0,0,0-.768-6.806,9.908,9.908,0,0,0-2.745-4.831q-1.975-1.863-6.148-1.866a18.459,18.459,0,0,0-3.294.219,11.548,11.548,0,0,1-2.634.22,12.092,12.092,0,0,1-7.464-2.305,12.556,12.556,0,0,1-4.391-6.258,8.94,8.94,0,0,1,1.536-6.586,14.617,14.617,0,0,1,5.27-4.282,25.485,25.485,0,0,1,7.355-2.305,49.944,49.944,0,0,1,8.013-.659h3.075a95.659,95.659,0,0,1,11.637,1.647,59.158,59.158,0,0,0,11.855,1.207h1.757a35.43,35.43,0,0,0,9.221-1.976,50.991,50.991,0,0,0,8.563-4.172,14.825,14.825,0,0,1,7.466-1.756A7.783,7.783,0,0,1,1050.748,63.79Z" transform="translate(-134.374)" fill="#fff"/>
    <path id="Path_4217" data-name="Path 4217" d="M1096.821,159.935A59.705,59.705,0,0,1,1098.8,174.1q.216,7.8-.219,15.04-.88,11.2-2.525,22.4t-4.282,22.395q-.442,2.419-4.391,4.172a17.606,17.606,0,0,1-7.026,1.756,6.285,6.285,0,0,1-2.2-.33c-.587-.219-.734-.693-.439-1.426q1.754-8.121,3.4-16.577t2.854-17.016a135.7,135.7,0,0,0,1.317-17.126,100.071,100.071,0,0,0-1.207-16.907q-.221-1.317-1.1-1.317-.659,0-1.976,1.317c-.878.879-1.833,1.795-2.854,2.745a40.859,40.859,0,0,1-3.293,2.745,5.848,5.848,0,0,1-3.513,1.317,4.579,4.579,0,0,1-2.854-2.3,19.963,19.963,0,0,1-1.756-3.842q-.658-1.976-1.1-3.623c-.3-1.1-.659-1.647-1.1-1.647a39.756,39.756,0,0,0-8.125,13.173q7.683,0,11.637,3.623t5.489,11.307a107.411,107.411,0,0,1,1.756,11.088,72.879,72.879,0,0,1,.33,11.966A46.546,46.546,0,0,1,1073.767,228a18,18,0,0,1-4.83,8.124,26.941,26.941,0,0,1-6.587,4.062,18.366,18.366,0,0,1-7.465,1.647,12.984,12.984,0,0,1-7.9-2.415,22.6,22.6,0,0,1-6.7-7.026,29.978,29.978,0,0,1-3.623-9.112,43.675,43.675,0,0,1-.988-10.429,79.206,79.206,0,0,1,.988-10.978,121.821,121.821,0,0,1,6.917-23.274,51.517,51.517,0,0,1,13.283-19.321,47.726,47.726,0,0,1,5.708-4.282,12.429,12.429,0,0,1,6.806-2.305,5.55,5.55,0,0,1,3.733,1.318c.291.147.582.659.878,1.537a27.251,27.251,0,0,1,.769,2.854q.329,1.538.659,2.964c.219.954.4,1.647.548,2.085q1.976-2.192,3.184-3.622t2.416-2.745a8.318,8.318,0,0,1,1.646-1.537,11.806,11.806,0,0,1,6.587-2.415,6.277,6.277,0,0,1,4.062,1.537A10.56,10.56,0,0,1,1096.821,159.935Zm-36.227,39.521a34.493,34.493,0,0,0-.768-3.952q-.55-2.193-1.207-4.062a12.172,12.172,0,0,0-1.538-3.074,2.475,2.475,0,0,0-1.976-1.208,2.1,2.1,0,0,0-1.537.66,60.073,60.073,0,0,0-1.867,8.892,67.993,67.993,0,0,0-.548,8.673,69.8,69.8,0,0,0,.548,8.452q.546,4.5,1.427,8.454a33.161,33.161,0,0,0,2.086,6.586q1.2,2.636,2.526,2.635t2.195-1.976a31.557,31.557,0,0,0,2.305-14.381Q1061.689,207.8,1060.594,199.456Z" transform="translate(-149.709 -21.714)" fill="#fff"/>
    <path id="Path_4218" data-name="Path 4218" d="M1101.324,96.112q.221-.659,2.854-.659a18.23,18.23,0,0,1,3.953.439c1.317.295,1.9.659,1.756,1.1a31.848,31.848,0,0,1-8.343,18.663,33.766,33.766,0,0,1-16.907,9.88H1083.1a12.781,12.781,0,0,1-3.074-.33c-.878-.219-1.241-.693-1.1-1.426q1.1-4.827,2.525-10.539A26.707,26.707,0,0,0,1082,102.26a24.012,24.012,0,0,0-1.427,2.2,26.213,26.213,0,0,0-1.427,2.854q-.659,1.538-1.318,2.745t-1.1,1.866a3.4,3.4,0,0,1-2.416.659,5.008,5.008,0,0,1-3.951-1.756q-1.534-1.755-3.184-3.4t-3.4-3.623v-.439c-.145.439-.292.843-.439,1.207a2.747,2.747,0,0,0-.219.988,28.193,28.193,0,0,0-1.537,9.88,11.19,11.19,0,0,0,.659,3.952,6.2,6.2,0,0,0,3.074-3.074,18.607,18.607,0,0,1,3.294.439,4.094,4.094,0,0,1,2.854,1.537,4.812,4.812,0,0,1-1.537,3.733,9.887,9.887,0,0,1-4.831,2.854,6.285,6.285,0,0,0-1.207.11,5.97,5.97,0,0,1-1.207.11,13.294,13.294,0,0,1-5.819-1.317,6.381,6.381,0,0,1-3.4-5.05,20.584,20.584,0,0,1,0-6.038,36.527,36.527,0,0,1,1.757-7.685,23.331,23.331,0,0,1,3.512-6.7,6.5,6.5,0,0,1,5.27-2.854,6.749,6.749,0,0,1,1.976.219,7.9,7.9,0,0,1,4.062,3.4,20.38,20.38,0,0,0,4.062,4.5q1.54-2.634,3.733-5.819a12.332,12.332,0,0,1,5.27-4.5,5.842,5.842,0,0,1,2.635-.66,4.156,4.156,0,0,1,4.062,2.745,17.217,17.217,0,0,1,1.317,6.477,42.192,42.192,0,0,1-.439,7.464,28.731,28.731,0,0,1-1.207,5.49,19.9,19.9,0,0,0,7.355-8.014Q1098.912,102.264,1101.324,96.112Z" transform="translate(-153.992 -7.073)" fill="#fff"/>
    <path id="Path_4219" data-name="Path 4219" d="M1133.4,173.676a2.761,2.761,0,0,1,2.084-1.208,18.779,18.779,0,0,1,8.014.219q1.976.55,1.318,1.647-.879,1.317-1.976,3.294a12.362,12.362,0,0,0-1.427,3.842,6.1,6.1,0,0,0,.22,3.293,2.386,2.386,0,0,0,2.525,1.427,9.19,9.19,0,0,0,2.2-.219,21.156,21.156,0,0,0,5.6-2.415q2.964-1.755,5.818-3.623t5.16-3.4a37.249,37.249,0,0,1,3.623-2.2,4.5,4.5,0,0,1,2.635.768,4.714,4.714,0,0,1,1.647,2.086,5.06,5.06,0,0,1,.328,2.745,4.06,4.06,0,0,1-1.536,2.525q-2.419,2.2-5.709,4.94a53.389,53.389,0,0,1-14.71,8.672,20.616,20.616,0,0,1-7.465,1.537,16.115,16.115,0,0,1-5.708-.988,10.031,10.031,0,0,1-4.392-3.183,9.451,9.451,0,0,1-2.414-4.831,15.758,15.758,0,0,1,0-5.27,21.772,21.772,0,0,1,1.536-5.16A20.745,20.745,0,0,1,1133.4,173.676Zm0,32.494a2.761,2.761,0,0,1,2.084-1.207,18.779,18.779,0,0,1,8.014.219q1.976.55,1.318,1.647-.879,1.317-1.976,3.294a12.355,12.355,0,0,0-1.427,3.842,6.1,6.1,0,0,0,.22,3.293,2.386,2.386,0,0,0,2.525,1.427,9.187,9.187,0,0,0,2.2-.22,21.131,21.131,0,0,0,5.6-2.415q2.964-1.754,5.818-3.622t5.16-3.4a37.094,37.094,0,0,1,3.623-2.2,4.5,4.5,0,0,1,2.635.768,4.71,4.71,0,0,1,1.647,2.086,5.06,5.06,0,0,1,.328,2.745,4.062,4.062,0,0,1-1.536,2.525q-2.419,2.2-5.709,4.94a52.253,52.253,0,0,1-7.026,4.94,52.952,52.952,0,0,1-7.684,3.733,20.616,20.616,0,0,1-7.465,1.537,16.132,16.132,0,0,1-5.708-.988,10.033,10.033,0,0,1-4.392-3.184,9.452,9.452,0,0,1-2.414-4.83,15.758,15.758,0,0,1,0-5.269,21.771,21.771,0,0,1,1.536-5.16A20.769,20.769,0,0,1,1133.4,206.17Z" transform="translate(-172.451 -26.452)" fill="#fff"/>
    <path id="Path_4220" data-name="Path 4220" d="M1243.524,185.594a54.387,54.387,0,0,1,2.306,20.309,61.9,61.9,0,0,1-4.941,20.09,27.08,27.08,0,0,1-4.5,6.586,33.468,33.468,0,0,1-6.916,5.819,39.827,39.827,0,0,1-8.343,4.062,26.507,26.507,0,0,1-8.783,1.537,19.248,19.248,0,0,1-11.308-3.623q-5.161-3.623-7.575-12.844a37.543,37.543,0,0,1-.878-15.039,35.253,35.253,0,0,1,4.611-13.174,29.247,29.247,0,0,1,9-9.441,21.464,21.464,0,0,1,12.076-3.623h1.756c.731,0,1.389.514,1.976,1.537a16.83,16.83,0,0,1,1.427,3.293,8.609,8.609,0,0,1,.439,3.184c-.075.954-.476,1.427-1.207,1.427h-.878a14.3,14.3,0,0,0-6.806,1.756,18.613,18.613,0,0,0-5.708,4.72,20.216,20.216,0,0,0-3.623,6.806,18.731,18.731,0,0,0-.769,7.794q.876,6.587,4.063,9.771a9.858,9.858,0,0,0,7.135,3.183,13.905,13.905,0,0,0,8.454-3.293,21.461,21.461,0,0,0,6.7-9.441,34.114,34.114,0,0,0,2.526-12.844A49.722,49.722,0,0,0,1232,190.2a48.114,48.114,0,0,0-5.379-12.515,28.152,28.152,0,0,0-8.563-9,9.456,9.456,0,0,0-5.269-1.756,7.544,7.544,0,0,0-6.257,3.4,31.442,31.442,0,0,0-4.282,8.454,8.873,8.873,0,0,1-4.172,4.61,11.392,11.392,0,0,1-5.489,1.976c-1.173,0-1.756-.364-1.756-1.1a32.8,32.8,0,0,1,1.647-12.075,25.6,25.6,0,0,1,5.049-8.783,21.4,21.4,0,0,1,7.576-5.379,22.841,22.841,0,0,1,9-1.866,22.1,22.1,0,0,1,10.759,2.634,29.554,29.554,0,0,1,8.453,6.916,45.643,45.643,0,0,1,6.147,9.442A65.678,65.678,0,0,1,1243.524,185.594Z" transform="translate(-187.51 -22.563)" fill="#fff"/>
    <path id="Path_4221" data-name="Path 4221" d="M1301.406,154.517a41.289,41.289,0,0,1,6.806,17.674,87.052,87.052,0,0,1,.439,19.541,192.278,192.278,0,0,1-2.854,20.089q-1.976,10.1-3.074,19.76a2.991,2.991,0,0,1-1.317,2.2,20.322,20.322,0,0,1-3.075,2.085,21.489,21.489,0,0,1-3.732,1.647,11.845,11.845,0,0,1-3.733.659q-3.293,0-3.293-2.635,1.533-9.658,3.293-18.333t2.854-17.016a116.483,116.483,0,0,0,.988-16.687,74.8,74.8,0,0,0-2.306-17.125,40.821,40.821,0,0,0-7.684,11.2,60.353,60.353,0,0,0-4.611,12.515,4.8,4.8,0,0,1-3.512,1.1,10.825,10.825,0,0,1-4.72-1.1q-2.305-1.1-2.086-2.854a50.75,50.75,0,0,1,5.269-17.345,35.3,35.3,0,0,1,12.076-13.393,21.129,21.129,0,0,1,3.952-2.2,13.98,13.98,0,0,1,5.928-1.318A5.957,5.957,0,0,1,1301.406,154.517Z" transform="translate(-206.749 -21.784)" fill="#fff"/>
    <path id="Path_4222" data-name="Path 4222" d="M1384.938,160.749a22.871,22.871,0,0,1,.659,5.928,59.55,59.55,0,0,1-.439,7.135q-.442,3.623-1.207,7.026a30.3,30.3,0,0,1-1.647,5.379q-1.975,4.832-2.744,6.7a12.3,12.3,0,0,1-1.647,2.964,35.934,35.934,0,0,1-2.854,3.074q.874,4.4,2.085,9.88t2.525,11.2q1.318,5.712,2.526,11.2t2.086,9.88q.437,2.192-2.526,3.733a11.912,11.912,0,0,1-5.379,1.537q-2.419,0-3.074-1.318a28.528,28.528,0,0,1-2.2-7.245q-.879-4.611-1.756-9.442t-1.427-9.221a51.943,51.943,0,0,0-1.208-6.806q-3.292,7.03-7.574,14.93t-8.454,14.271a13.545,13.545,0,0,1-1.317.989c-.734.511-1.537,1.06-2.416,1.647a13.227,13.227,0,0,1-2.854,1.427,8.128,8.128,0,0,1-2.634.548q-1.977,0-1.977-2.195,0-12.072.549-24.261t.549-25.359v-5.819q0-4.5-.11-9.771t-.549-9.771q-.442-4.5-1.1-5.379a2.627,2.627,0,0,0-2.086.659,3.78,3.78,0,0,0-.768,1.647,17.138,17.138,0,0,0-.33,2.305,8.427,8.427,0,0,1-.548,2.415c0,.734-.439,1.1-1.318,1.1a7.758,7.758,0,0,1-3.842-1.208q-2.089-1.2-2.085-2.744a14.144,14.144,0,0,1,3.183-9.332,10.908,10.908,0,0,1,8.892-3.842,10.518,10.518,0,0,1,7.026,2.415,8.224,8.224,0,0,1,2.305,4.282,41.394,41.394,0,0,1,1.1,6.367q.329,3.407.329,6.7v5.269q-.22,12.3-.329,22.175t-.11,20.858q1.975-4.611,4.281-9.55t4.5-9.112q2.193-4.168,4.831-9.66a12.159,12.159,0,0,1-2.854-6.258,45.772,45.772,0,0,1-.879-9.221,54.39,54.39,0,0,1,.879-9.771,48.712,48.712,0,0,1,2.2-8.343,29.036,29.036,0,0,1,2.525-5.379,7.438,7.438,0,0,1,6.368-3.733q2.084-.108,5.159-.11a5.956,5.956,0,0,1,4.72,2.2A25.839,25.839,0,0,1,1384.938,160.749Zm-8.123,6.587a27.187,27.187,0,0,0-.439-3.513q-.443-2.634-1.756-2.634a15.506,15.506,0,0,0-4.5,8.892q-.771,5.162-.988,9.332-.222,3.736.878,4.94t1.537.989q2.634.221,3.733-5.05A90.636,90.636,0,0,0,1376.815,167.336Z" transform="translate(-220.901 -21.431)" fill="#fff"/>
    <path id="Path_4223" data-name="Path 4223" d="M1445.679,154.517a41.29,41.29,0,0,1,6.806,17.674,87,87,0,0,1,.439,19.541,192.241,192.241,0,0,1-2.854,20.089q-1.976,10.1-3.075,19.76a2.991,2.991,0,0,1-1.317,2.2,20.316,20.316,0,0,1-3.074,2.085,21.5,21.5,0,0,1-3.733,1.647,11.84,11.84,0,0,1-3.732.659q-3.295,0-3.294-2.635,1.534-9.658,3.294-18.333t2.854-17.016a116.484,116.484,0,0,0,.989-16.687,74.878,74.878,0,0,0-2.306-17.125,40.805,40.805,0,0,0-7.684,11.2,60.275,60.275,0,0,0-4.611,12.515,4.808,4.808,0,0,1-3.513,1.1,10.827,10.827,0,0,1-4.72-1.1q-2.305-1.1-2.086-2.854a50.752,50.752,0,0,1,5.27-17.345,35.3,35.3,0,0,1,12.076-13.393,21.144,21.144,0,0,1,3.953-2.2,13.976,13.976,0,0,1,5.927-1.318A5.955,5.955,0,0,1,1445.679,154.517Z" transform="translate(-241.901 -21.784)" fill="#fff"/>
    <path id="Path_4224" data-name="Path 4224" d="M1494.445,199.377q1.754,4.611,4.172,10.1a73.175,73.175,0,0,1,3.842,10.978,32.757,32.757,0,0,1,1.1,10.429,13.267,13.267,0,0,1-3.623,8.453,8.706,8.706,0,0,1-5.818,3.4,46.5,46.5,0,0,1-6.917.549,12.331,12.331,0,0,1-5.159-1.866,29.186,29.186,0,0,1-5.16-3.952,37.055,37.055,0,0,1-4.281-4.831,16.814,16.814,0,0,1-2.526-4.5,3.042,3.042,0,0,1,.548-2.2,10.211,10.211,0,0,1,1.977-2.415,12.113,12.113,0,0,1,2.744-1.866,3.768,3.768,0,0,1,2.415-.549q2.414,2.634,4.72,5.05t4.062,2.634q1.976.221,3.074-3.293.659-3.072-3.294-13.832a106.924,106.924,0,0,0-5.6-11.637q-3.186-5.707-6.038-11.307a60.608,60.608,0,0,1-4.5-11.637,31.661,31.661,0,0,1-.768-12.624,11.673,11.673,0,0,1,5.049-8.454,16.8,16.8,0,0,1,9.442-2.744,17.519,17.519,0,0,1,4.281,1.318,28.4,28.4,0,0,1,4.062,2.415,10.043,10.043,0,0,1,1.756,1.756q.876,1.1,1.757,2.305t1.646,2.2q.767.988,1.427.988,1.975-2.413,3.184-3.842a6.011,6.011,0,0,0,1.427-3.183q.659-1.1,2.854-1.1h1.1a9.164,9.164,0,0,1,3.842,1.207q1.647.988,1.208,2.086a56.357,56.357,0,0,1-2.964,6.7q-1.867,3.623-2.964,5.379a14.516,14.516,0,0,1-3.4,4.391,7.883,7.883,0,0,1-5.159,1.536q-4.611-.216-8.124-5.708-.88-1.1-2.964-3.4t-2.964-3.4a11.721,11.721,0,0,0-.878,7.9,49.108,49.108,0,0,0,2.854,9.442,83.775,83.775,0,0,0,4.5,9.331Q1492.9,196.086,1494.445,199.377Z" transform="translate(-255.319 -21.855)" fill="#fff"/>
  </g>
</svg>
