<svg xmlns="http://www.w3.org/2000/svg" width="278.394" height="115.529" viewBox="0 0 278.394 115.529">
  <g id="Exercise_card" data-name="Exercise card" transform="translate(0.001 0)">
    <path id="Path_3949" data-name="Path 3949" d="M6.668,0H271.726a6.668,6.668,0,0,1,6.668,6.668V108.861a6.668,6.668,0,0,1-6.668,6.668H6.668A6.668,6.668,0,0,1,0,108.861V6.668A6.668,6.668,0,0,1,6.668,0Z" transform="translate(-0.001 0)" fill="#fff"/>
    <rect id="Rectangle_81" data-name="Rectangle 81" width="123.379" height="95.805" rx="6" transform="translate(10.242 9.862)" fill="#edde1d"/>
    <path id="Path_2750" data-name="Path 2750" d="M-3346.24,1306.435" transform="translate(3379.333 -1296.573)" fill="none" stroke="#0d0d0c" stroke-linecap="round" stroke-linejoin="round" stroke-width="2"/>
    <path id="Path_2751" data-name="Path 2751" d="M-3388.574,1313.747" transform="translate(3398.816 -1299.938)" fill="none" stroke="#0d0d0c" stroke-linecap="round" stroke-linejoin="round" stroke-width="2"/>
    <path id="Path_2752" data-name="Path 2752" d="M-3388.574,1331.507" transform="translate(3398.816 -1308.111)" fill="none" stroke="#0d0d0c" stroke-linecap="round" stroke-linejoin="round" stroke-width="2"/>
    <path id="Path_2753" data-name="Path 2753" d="M-3388.954,1338.981a.416.416,0,0,1-.446-.378v-7.419a.416.416,0,0,1,.446-.379.416.416,0,0,1,.446.379v7.419A.416.416,0,0,1-3388.954,1338.981Z" transform="translate(3399.196 -1307.789)" fill="#0d0d0c"/>
    <path id="Path_2754" data-name="Path 2754" d="M-3388.574,1371.3" transform="translate(3398.816 -1326.426)" fill="none" stroke="#0d0d0c" stroke-linecap="round" stroke-linejoin="round" stroke-width="2"/>
    <path id="Path_2755" data-name="Path 2755" d="M-3270.219,1402.3h-114.09c-2.806,0-5.09-1.941-5.09-4.326v-66.491a.416.416,0,0,1,.446-.379.416.416,0,0,1,.446.379v66.491c0,1.967,1.884,3.568,4.2,3.568h114.09c2.315,0,4.2-1.6,4.2-3.568v-87.911c0-1.968-1.883-3.568-4.2-3.568H-3366.1a.417.417,0,0,1-.446-.379.417.417,0,0,1,.446-.379h95.884c2.807,0,5.09,1.941,5.09,4.326v87.911C-3265.129,1400.355-3267.412,1402.3-3270.219,1402.3Z" transform="translate(3399.196 -1296.249)" fill="#0d0d0c"/>
    <path id="Path_3950" data-name="Path 3950" d="M-3067.211,1360.281h-68.683a4.617,4.617,0,0,1-4.68-4.551,4.617,4.617,0,0,1,4.68-4.551h68.683a4.618,4.618,0,0,1,4.68,4.551A4.617,4.617,0,0,1-3067.211,1360.281Z" transform="translate(3288.144 -1285.782)" fill="#c9d6e8"/>
    <path id="Path_3951" data-name="Path 3951" d="M-3067.211,1323.767h-68.683a4.617,4.617,0,0,1-4.68-4.55,4.617,4.617,0,0,1,4.68-4.551h68.683a4.617,4.617,0,0,1,4.68,4.551A4.617,4.617,0,0,1-3067.211,1323.767Z" transform="translate(3288.144 -1268.977)" fill="#c9d6e8"/>
    <path id="Path_3952" data-name="Path 3952" d="M-3098.581,1396.233h-37.313a4.617,4.617,0,0,1-4.68-4.55,4.617,4.617,0,0,1,4.68-4.551h37.313a4.617,4.617,0,0,1,4.68,4.551A4.617,4.617,0,0,1-3098.581,1396.233Z" transform="translate(3288.144 -1302.328)" fill="#c9d6e8"/>
    <g id="Group_2256" data-name="Group 2256" transform="translate(29.042 25.635)">
      <path id="Path_2865" data-name="Path 2865" d="M2439.863,1451.97s15.119-11.186,18.253-14.429-7.886-7.409-11.693-3.812l-12.248,8.427-7.775,6.111-21.207-1.372-26.646-.839s-1.94,4.479,1.187,4.676,8.218.268,8.218.268l6.808,3.195h7.483c4.333,0,8.132-.952,9.184-2.379h10.805Z" transform="translate(-2366.081 -1395.6)"/>
      <g id="Group_1436" data-name="Group 1436" transform="translate(0 0)">
        <g id="Group_1430" data-name="Group 1430" transform="translate(0 23.959)">
          <path id="Path_2866" data-name="Path 2866" d="M2359.835,1407.592a23.732,23.732,0,0,0-8.487,9.2,14.84,14.84,0,0,0,3.206,14.769c8.028,9.148,16.116,4.967,16.116,4.967a27.8,27.8,0,0,0,8.274-7.8Z" transform="translate(-2350.226 -1405.217)" fill="#fdd89b"/>
          <path id="Path_2867" data-name="Path 2867" d="M2382.495,1406.994c5.869,5.328,6.816,13.844,2.117,19.02s-13.267,5.052-19.135-.277-6.816-13.844-2.116-19.02S2376.626,1401.665,2382.495,1406.994Z" transform="translate(-2355.893 -1402.507)" fill="#fff"/>
          <path id="Path_2868" data-name="Path 2868" d="M2384.927,1408.109c5.63,5.111,6.567,13.248,2.094,18.174s-12.662,4.776-18.291-.336-6.567-13.248-2.094-18.174S2379.3,1403,2384.927,1408.109Z" transform="translate(-2357.885 -1403.236)" fill="#c78c50"/>
          <path id="Path_2869" data-name="Path 2869" d="M2375.148,1429.631a15.675,15.675,0,0,1-10.462-4.172,15.358,15.358,0,0,1-5.226-11.713.4.4,0,0,1,.4-.375.386.386,0,0,1,.374.4,14.591,14.591,0,0,0,4.973,11.123c5.7,5.177,14.041,5.312,18.59.3a11.491,11.491,0,0,0,2.808-9.151,14.894,14.894,0,0,0-4.9-9.325c-4.795-4.354-11.744-5.227-16.521-2.076a.385.385,0,0,1-.424-.643c5.149-3.4,12.33-2.512,17.464,2.149a15.669,15.669,0,0,1,5.145,9.81,12,12,0,0,1-12.22,13.675Z" transform="translate(-2355.361 -1401.944)" fill="#0d0d0c"/>
          <path id="Path_2870" data-name="Path 2870" d="M2377.448,1436.905c-2.92.661-3.75,8.359-2.574,11.429,0,0,1.018,6.745-6.085,3.557a11.456,11.456,0,0,0,6.108,2.574c4.057.572,6.063-.7,6.063-.7Z" transform="translate(-2360.77 -1422.203)"/>
          <path id="Path_2871" data-name="Path 2871" d="M2365.527,1442.667c-3.168,0-7.5-1.163-11.768-6.026a15.357,15.357,0,0,1-3.272-15.167,24.3,24.3,0,0,1,3.846-5.428.385.385,0,0,1,.562.526,23.546,23.546,0,0,0-3.709,5.223,14.59,14.59,0,0,0,3.153,14.337c7.722,8.8,15.331,5.044,15.651,4.879a27.641,27.641,0,0,0,8.129-7.672.385.385,0,1,1,.643.425,27.886,27.886,0,0,1-8.4,7.923A11.563,11.563,0,0,1,2365.527,1442.667Z" transform="translate(-2349.72 -1410.045)" fill="#0d0d0c"/>
        </g>
        <g id="Group_1431" data-name="Group 1431" transform="translate(14.736 28.565)">
          <path id="Path_2872" data-name="Path 2872" d="M2405.29,1414.1a23.726,23.726,0,0,0-12.429,1.458,14.842,14.842,0,0,0-7.18,13.3c.141,12.17,9,14.261,9,14.261a27.8,27.8,0,0,0,11.359-.537Z" transform="translate(-2385.294 -1413.436)" fill="#fdd89b"/>
          <path id="Path_2873" data-name="Path 2873" d="M2398.656,1443.316a26.694,26.694,0,0,1-4.575-.364c-.108-.025-9.173-2.307-9.315-14.635a15.361,15.361,0,0,1,7.388-13.645,23.923,23.923,0,0,1,12.684-1.493.386.386,0,0,1,.308.367l.752,28.481a.385.385,0,0,1-.279.381A25.7,25.7,0,0,1,2398.656,1443.316Zm2.721-29.638a23.987,23.987,0,0,0-8.9,1.693,14.59,14.59,0,0,0-6.939,12.937c.135,11.707,8.355,13.807,8.706,13.891a27.787,27.787,0,0,0,10.877-.454l-.736-27.863A20.584,20.584,0,0,0,2401.377,1413.678Z" transform="translate(-2384.764 -1412.896)" fill="#0d0d0c"/>
          <path id="Path_2874" data-name="Path 2874" d="M2424.929,1427.005c.987,7.865-3.836,14.947-10.773,15.817s-13.359-4.8-14.346-12.666,3.837-14.946,10.773-15.816S2423.943,1419.141,2424.929,1427.005Z" transform="translate(-2393.409 -1413.682)" fill="#fff"/>
          <ellipse id="Ellipse_117" data-name="Ellipse 117" cx="12.047" cy="13.768" rx="12.047" ry="13.768" transform="matrix(0.992, -0.125, 0.125, 0.992, 5.983, 3.241)" fill="#c78c50"/>
          <path id="Path_2875" data-name="Path 2875" d="M2412.226,1442.763c-6.564,0-12.385-5.576-13.328-13.09a16.182,16.182,0,0,1,.9-7.758.385.385,0,0,1,.72.274,15.412,15.412,0,0,0-.855,7.388c.959,7.642,7.2,13.178,13.917,12.331s11.4-7.745,10.439-15.387a14.892,14.892,0,0,0-4.814-9.367,11.485,11.485,0,0,0-9.1-2.963.385.385,0,0,1-.1-.765,12.256,12.256,0,0,1,9.707,3.151,15.665,15.665,0,0,1,5.069,9.849c1.011,8.063-3.971,15.352-11.107,16.247A11.659,11.659,0,0,1,2412.226,1442.763Z" transform="translate(-2392.879 -1413.151)" fill="#0d0d0c"/>
          <path id="Path_2876" data-name="Path 2876" d="M2397.73,1418.093c2.328-.864,5.5,1.906,5.5,1.906s9.308,7.526,18.852,2.282l-.325-.582-10.724-4.247s-5.838-2.037-8.17-1.869A7.93,7.93,0,0,0,2397.73,1418.093Z" transform="translate(-2392.278 -1414.449)"/>
        </g>
        <g id="Group_1433" data-name="Group 1433" transform="translate(20.643)">
          <g id="Group_1432" data-name="Group 1432">
            <path id="Path_2877" data-name="Path 2877" d="M2411.032,1350.388a25.423,25.423,0,0,0-10.638,11.359s-3.208,8.309,3.963,16.494c8.674,9.9,17.688,6.035,17.688,6.035a27.208,27.208,0,0,0,10.353-9.24Z" transform="translate(-2399.314 -1348.109)" fill="#fdd89b"/>
            <path id="Path_2878" data-name="Path 2878" d="M2436.67,1350.567c6.745,6.124,7.833,15.909,2.432,21.857s-15.246,5.805-21.989-.318-7.833-15.908-2.432-21.856S2429.926,1344.444,2436.67,1350.567Z" transform="translate(-2406.018 -1345.497)" fill="#fff"/>
            <path id="Path_2879" data-name="Path 2879" d="M2439.466,1351.848c6.469,5.874,7.546,15.225,2.407,20.885s-14.551,5.488-21.02-.386-7.547-15.224-2.407-20.885S2433,1345.974,2439.466,1351.848Z" transform="translate(-2408.307 -1346.336)" fill="#c78c50"/>
            <path id="Path_2880" data-name="Path 2880" d="M2447.557,1418.088c.691-2.63,5.291-9.222,13.067-10.344l-.4.441-7.766,7.776a5.607,5.607,0,0,1-1.972,1.271A8.788,8.788,0,0,1,2447.557,1418.088Z" transform="translate(-2427.059 -1381.346)" fill-rule="evenodd"/>
            <path id="Path_2881" data-name="Path 2881" d="M2443.272,1356.747c-5.064-4.6-12.431-4.734-16.455-.3s-3.18,11.751,1.883,16.349,12.431,4.734,16.455.3S2448.336,1361.345,2443.272,1356.747Zm.714,14.468c-3.32,3.656-9.4,3.545-13.579-.25s-4.875-9.835-1.554-13.491,9.4-3.545,13.578.249S2447.306,1367.559,2443.986,1371.215Z" transform="translate(-2413.567 -1349.744)" fill="#9e6735"/>
            <path id="Path_2882" data-name="Path 2882" d="M2401.1,1386.964l6.322-5.318s-1.728-4.167-1.076-7.169l-6.541,7.211A20.047,20.047,0,0,0,2401.1,1386.964Z" transform="translate(-2399.388 -1362.068)" fill="#fff"/>
            <path id="Path_2883" data-name="Path 2883" d="M2417.158,1396.088c-3.532,0-8.646-1.238-13.593-6.884-7.241-8.264-4.066-16.8-4.033-16.887a28.234,28.234,0,0,1,1.892-3.278.385.385,0,1,1,.64.43,27.375,27.375,0,0,0-1.826,3.158c-.017.049-3.016,8.167,3.908,16.07,8.392,9.579,17.159,5.973,17.247,5.935a27.041,27.041,0,0,0,10.179-9.091.385.385,0,1,1,.652.411,27.306,27.306,0,0,1-10.517,9.384A12.793,12.793,0,0,1,2417.158,1396.088Z" transform="translate(-2398.811 -1358.819)" fill="#0d0d0c"/>
            <path id="Path_2884" data-name="Path 2884" d="M2461.751,1350.373a.383.383,0,0,1-.194-.052c-.458-.268-.935-.519-1.416-.744a.385.385,0,1,1,.327-.7c.5.236,1,.5,1.478.776a.385.385,0,0,1-.2.718Z" transform="translate(-2434.222 -1347.213)" fill="#0d0d0c"/>
            <path id="Path_2885" data-name="Path 2885" d="M2428.319,1376.642a17.959,17.959,0,0,1-11.985-4.78c-6.89-6.256-7.993-16.3-2.458-22.4a14,14,0,0,1,10.3-4.494.4.4,0,0,1,.391.379.386.386,0,0,1-.379.391,13.235,13.235,0,0,0-9.742,4.241c-5.249,5.782-4.169,15.342,2.406,21.313s16.2,6.126,21.445.345a13.265,13.265,0,0,0,3.241-10.561,17.176,17.176,0,0,0-5.647-10.752.385.385,0,0,1,.518-.57,17.942,17.942,0,0,1,5.894,11.237,13.729,13.729,0,0,1-13.984,15.651Z" transform="translate(-2405.498 -1344.969)" fill="#0d0d0c"/>
          </g>
        </g>
        <g id="Group_1435" data-name="Group 1435" transform="translate(34.115 25.071)">
          <path id="Path_2886" data-name="Path 2886" d="M2434.177,1444.327l32.016-.921s.892-9-1.367-11.621l-30.739,3.015a3.308,3.308,0,0,0-2.823,2.242C2430.562,1439.164,2430.3,1442.424,2434.177,1444.327Z" transform="translate(-2430.847 -1420.348)"/>
          <g id="Group_1434" data-name="Group 1434" transform="translate(9.964)">
            <path id="Path_2887" data-name="Path 2887" d="M2478.656,1405.552a25.427,25.427,0,0,0-15.469,1.7s-7.844,4.221-7.728,15.1c.141,13.161,9.5,16.1,9.5,16.1a27.21,27.21,0,0,0,13.874-.276Z" transform="translate(-2455.073 -1404.851)" fill="#fdd89b"/>
            <path id="Path_2888" data-name="Path 2888" d="M2500.5,1420.408c1.134,9.038-4.409,17.175-12.38,18.176s-15.352-5.516-16.486-14.555,4.409-17.175,12.381-18.176S2499.369,1411.37,2500.5,1420.408Z" transform="translate(-2464.363 -1405.262)" fill="#fff"/>
            <ellipse id="Ellipse_118" data-name="Ellipse 118" cx="13.844" cy="15.821" rx="13.844" ry="15.821" transform="matrix(0.992, -0.124, 0.124, 0.992, 6.794, 3.558)" fill="#c78c50"/>
            <path id="Path_2889" data-name="Path 2889" d="M2505.99,1427.448c-.852-6.787-6.356-11.685-12.3-10.94s-10.063,6.851-9.211,13.638,6.356,11.685,12.3,10.94S2506.841,1434.236,2505.99,1427.448Zm-8.875,11.448c-4.9.615-9.443-3.427-10.146-9.028s2.7-10.64,7.6-11.254,9.443,3.427,10.146,9.028S2502.017,1438.282,2497.115,1438.9Z" transform="translate(-2471.828 -1411.453)" fill="#9e6735"/>
            <path id="Path_2890" data-name="Path 2890" d="M2457.554,1423.243l8.261.078s1.4-4.287,3.849-6.142l-9.659,1.216A20.051,20.051,0,0,0,2457.554,1423.243Z" transform="translate(-2456.288 -1411.884)" fill="#fff"/>
            <path id="Path_2891" data-name="Path 2891" d="M2485.982,1438.541c-7.515,0-14.178-6.386-15.258-14.992a18.983,18.983,0,0,1,0-4.726.385.385,0,1,1,.764.1,18.215,18.215,0,0,0,0,4.534c1.106,8.813,8.308,15.19,16.056,14.22s13.152-8.933,12.046-17.746-8.3-15.2-16.056-14.22a.381.381,0,0,1-.429-.334.385.385,0,0,1,.334-.43c8.167-1.019,15.757,5.654,16.916,14.888s-4.545,17.581-12.715,18.607A13.41,13.41,0,0,1,2485.982,1438.541Z" transform="translate(-2463.833 -1404.734)" fill="#0d0d0c"/>
            <path id="Path_2892" data-name="Path 2892" d="M2470.983,1439.344a26.716,26.716,0,0,1-6.659-.789c-.107-.033-9.639-3.174-9.781-16.461-.117-10.987,7.849-15.4,7.93-15.445a27.765,27.765,0,0,1,7.6-2.057.381.381,0,0,1,.429.336.386.386,0,0,1-.336.429,27,27,0,0,0-7.354,1.986c-.045.026-7.606,4.238-7.494,14.743.136,12.709,8.859,15.614,9.23,15.732a27.177,27.177,0,0,0,7.414.74h.013a.385.385,0,0,1,.014.77Q2471.472,1439.344,2470.983,1439.344Z" transform="translate(-2454.542 -1404.588)" fill="#0d0d0c"/>
          </g>
        </g>
      </g>
    </g>
    <g id="Group_2839" data-name="Group 2839" transform="translate(147.57 19.679)">
      <path id="Path_6294" data-name="Path 6294" d="M1379.278,929.507a3.83,3.83,0,0,1-2.652-.815,2.935,2.935,0,0,1-.9-2.291v-.815a2,2,0,0,1,.207-.907,4.571,4.571,0,0,1,.477-.761q.269-.346.477-.646a1,1,0,0,0,.208-.562.38.38,0,0,0-.108-.323.7.7,0,0,0-.384-.077h-1.061l.138-1.261h1.937q1.168,0,1.169,1.123a2.068,2.068,0,0,1-.208.938,5.441,5.441,0,0,1-.492.8,5.592,5.592,0,0,0-.492.792,1.953,1.953,0,0,0-.208.9v.938a1.475,1.475,0,0,0,.5,1.237,2.671,2.671,0,0,0,2.8-.007,1.539,1.539,0,0,0,.5-1.276v-1.015a1.643,1.643,0,0,0-.23-1.007,1.066,1.066,0,0,0-.861-.284h-.431l.077-1.215h.308a1.074,1.074,0,0,0,.892-.315,1.581,1.581,0,0,0,.246-.976V920.9h1.676v.754a2.864,2.864,0,0,1-.215,1.191,1.51,1.51,0,0,1-.892.731,1.548,1.548,0,0,1,.907.769,3.067,3.067,0,0,1,.2,1.184v.861a2.874,2.874,0,0,1-.953,2.3A3.894,3.894,0,0,1,1379.278,929.507Z" transform="translate(-1375.542 -916.822)" fill="#1d1d1b"/>
      <path id="Path_6295" data-name="Path 6295" d="M1409.029,929.507a6.205,6.205,0,0,1-2.491-.462v-1.322a5.659,5.659,0,0,0,1.007.323,4.9,4.9,0,0,0,1.084.123,3.917,3.917,0,0,0,1.66-.292,1.741,1.741,0,0,0,.884-.946,4.619,4.619,0,0,0,.269-1.73,3.219,3.219,0,0,0-.654-2.275,2.934,2.934,0,0,0-2.175-.677,4.981,4.981,0,0,0-1.076.116,5.092,5.092,0,0,0-1,.331v-1.338a6.223,6.223,0,0,1,1.13-.338,6.624,6.624,0,0,1,1.315-.123,3.961,3.961,0,0,1,3.068,1.1,4.59,4.59,0,0,1,1.007,3.206,4.743,4.743,0,0,1-.961,3.2A3.858,3.858,0,0,1,1409.029,929.507Z" transform="translate(-1397.712 -916.822)" fill="#1d1d1b"/>
      <path id="Path_6296" data-name="Path 6296" d="M1437.663,929.893a2.735,2.735,0,0,1-2.083-.784,3.106,3.106,0,0,1-.746-2.229v-5.443h1.676V926.8a1.831,1.831,0,0,0,.415,1.345,1.783,1.783,0,0,0,1.291.407,3.04,3.04,0,0,0,1.292-.284,3.191,3.191,0,0,0,1.015-.715v-6.12h1.661v8.3h-1.523l-.077-.907a4.826,4.826,0,0,1-1.284.769A4.309,4.309,0,0,1,1437.663,929.893Z" transform="translate(-1417.952 -917.208)" fill="#1d1d1b"/>
      <path id="Path_6297" data-name="Path 6297" d="M1470.054,929.507a8.9,8.9,0,0,1-1.853-.185,8.132,8.132,0,0,1-1.453-.431v-4.274h3.29l.077,1.276h-1.753v2.014a4.529,4.529,0,0,0,.807.193,5.871,5.871,0,0,0,.884.069,2.432,2.432,0,0,0,1.93-.654,3.548,3.548,0,0,0,.561-2.283,4.7,4.7,0,0,0-.277-1.791,1.666,1.666,0,0,0-.915-.922,4.552,4.552,0,0,0-1.73-.269,10.937,10.937,0,0,0-1.383.092,7.163,7.163,0,0,0-1.369.308v-1.292a8.775,8.775,0,0,1,1.484-.338,11.583,11.583,0,0,1,1.684-.123,4.007,4.007,0,0,1,3.152,1.1,4.762,4.762,0,0,1,.968,3.237,4.655,4.655,0,0,1-.968,3.183A4,4,0,0,1,1470.054,929.507Z" transform="translate(-1440.779 -916.822)" fill="#1d1d1b"/>
      <path id="Path_6298" data-name="Path 6298" d="M1501.05,929.507a8.909,8.909,0,0,1-1.853-.185,8.144,8.144,0,0,1-1.453-.431v-4.274h3.29l.077,1.276h-1.753v2.014a4.522,4.522,0,0,0,.807.193,5.87,5.87,0,0,0,.884.069,2.431,2.431,0,0,0,1.93-.654,3.549,3.549,0,0,0,.561-2.283,4.7,4.7,0,0,0-.277-1.791,1.667,1.667,0,0,0-.915-.922,4.553,4.553,0,0,0-1.73-.269,10.936,10.936,0,0,0-1.384.092,7.168,7.168,0,0,0-1.369.308v-1.292a8.775,8.775,0,0,1,1.484-.338,11.578,11.578,0,0,1,1.684-.123,4.007,4.007,0,0,1,3.152,1.1,4.763,4.763,0,0,1,.968,3.237,4.655,4.655,0,0,1-.968,3.183A4,4,0,0,1,1501.05,929.507Z" transform="translate(-1462.949 -916.822)" fill="#1d1d1b"/>
      <path id="Path_6299" data-name="Path 6299" d="M1528.808,929.353v-3a2.6,2.6,0,0,1,.261-1.192,1.451,1.451,0,0,1,.954-.715l-1.661-.415v-1.722a6.231,6.231,0,0,1,1.622-.977,5.883,5.883,0,0,1,2.36-.438,4.52,4.52,0,0,1,2.814.761,3.023,3.023,0,0,1,.984,2.545v5.151h-1.677v-5.2a1.861,1.861,0,0,0-.5-1.484,2.619,2.619,0,0,0-1.683-.423,4.593,4.593,0,0,0-1.43.216,2.8,2.8,0,0,0-1.045.569v.277l1.753.446v1.107a1.445,1.445,0,0,0-.846.492,1.721,1.721,0,0,0-.246,1.015v2.983Z" transform="translate(-1484.849 -916.822)" fill="#1d1d1b"/>
      <path id="Path_6300" data-name="Path 6300" d="M1561.857,929.353v-3a2.6,2.6,0,0,1,.261-1.192,1.45,1.45,0,0,1,.954-.715l-1.661-.415v-1.722a6.234,6.234,0,0,1,1.622-.977,5.882,5.882,0,0,1,2.36-.438,4.521,4.521,0,0,1,2.814.761,3.023,3.023,0,0,1,.984,2.545v5.151h-1.676v-5.2a1.862,1.862,0,0,0-.5-1.484,2.621,2.621,0,0,0-1.684-.423,4.59,4.59,0,0,0-1.43.216,2.8,2.8,0,0,0-1.046.569v.277l1.753.446v1.107a1.447,1.447,0,0,0-.846.492,1.723,1.723,0,0,0-.246,1.015v2.983Z" transform="translate(-1508.487 -916.822)" fill="#1d1d1b"/>
      <path id="Path_6301" data-name="Path 6301" d="M1581.345,909.923a1.732,1.732,0,0,1-1.23-.477,1.56,1.56,0,0,1-.507-1.184,1.577,1.577,0,0,1,.507-1.2,1.732,1.732,0,0,1,1.23-.477,1.7,1.7,0,0,1,1.223.477,1.588,1.588,0,0,1,.5,1.2,1.57,1.57,0,0,1-.5,1.184A1.7,1.7,0,0,1,1581.345,909.923Zm0-.953a.669.669,0,0,0,.5-.215.687.687,0,0,0,.208-.492.724.724,0,0,0-.208-.523.669.669,0,0,0-.5-.215.72.72,0,0,0-.515.215.7.7,0,0,0-.223.523.666.666,0,0,0,.223.492A.72.72,0,0,0,1581.345,908.97Z" transform="translate(-1521.503 -906.587)" fill="#1d1d1b"/>
      <path id="Path_6302" data-name="Path 6302" d="M1596.743,929.353v-5.228a3.355,3.355,0,0,0-.138-1.046,1.068,1.068,0,0,0-.523-.623,2.456,2.456,0,0,0-1.138-.208,5.851,5.851,0,0,0-1.069.108,5.525,5.525,0,0,0-1.038.292v-1.292a5.639,5.639,0,0,1,1.115-.331,6.733,6.733,0,0,1,1.315-.131,3.37,3.37,0,0,1,2.406.723,3.072,3.072,0,0,1,.746,2.291v5.443Z" transform="translate(-1530.966 -916.822)" fill="#1d1d1b"/>
      <path id="Path_6303" data-name="Path 6303" d="M1621.156,929.507a3.82,3.82,0,0,1-1.422-.254,2.193,2.193,0,0,1-1.022-.815,2.55,2.55,0,0,1-.384-1.469,2.313,2.313,0,0,1,.822-1.891,3.709,3.709,0,0,1,2.407-.677h2.537v-.523a1.539,1.539,0,0,0-.454-1.268,2.83,2.83,0,0,0-1.684-.362,10.186,10.186,0,0,0-1.391.092,7.286,7.286,0,0,0-1.315.308v-1.292a9.243,9.243,0,0,1,1.392-.331,9.813,9.813,0,0,1,1.591-.131,3.961,3.961,0,0,1,2.675.761,3.012,3.012,0,0,1,.861,2.376v5.32h-1.676v-3.659h-2.429a2.406,2.406,0,0,0-1.3.284,1.091,1.091,0,0,0-.438.991,1.044,1.044,0,0,0,.392.938,2.387,2.387,0,0,0,1.284.261,4.012,4.012,0,0,0,1.06-.123v1.276a5.933,5.933,0,0,1-.676.131A6.035,6.035,0,0,1,1621.156,929.507Z" transform="translate(-1549.197 -916.822)" fill="#1d1d1b"/>
      <path id="Path_6304" data-name="Path 6304" d="M1631.61,911.37v-2.245h1.384V910.2h3.982l-.077,1.169Z" transform="translate(-1558.698 -908.402)" fill="#1d1d1b"/>
      <path id="Path_6305" data-name="Path 6305" d="M1652.98,929.893a7.342,7.342,0,0,1-.784-.046,3.6,3.6,0,0,1-.753-.154L1649.106,924h1.63l1.891,4.613a2.087,2.087,0,0,0,1.922-.761,4.308,4.308,0,0,0,.6-2.529,5.373,5.373,0,0,0-.184-1.576,1.339,1.339,0,0,0-.623-.815,2.547,2.547,0,0,0-1.207-.238h-.584v-1.261h.8a3.242,3.242,0,0,1,2.6.954,4.419,4.419,0,0,1,.815,2.921,6.042,6.042,0,0,1-.492,2.637,3.242,3.242,0,0,1-1.346,1.476A3.968,3.968,0,0,1,1652.98,929.893Z" transform="translate(-1571.212 -917.208)" fill="#1d1d1b"/>
      <path id="Path_6306" data-name="Path 6306" d="M1681.034,929.353v-3a2.6,2.6,0,0,1,.261-1.192,1.45,1.45,0,0,1,.953-.715l-1.661-.415v-1.722a6.229,6.229,0,0,1,1.622-.977,5.881,5.881,0,0,1,2.36-.438,4.521,4.521,0,0,1,2.814.761,3.024,3.024,0,0,1,.984,2.545v5.151h-1.676v-5.2a1.861,1.861,0,0,0-.5-1.484,2.621,2.621,0,0,0-1.684-.423,4.59,4.59,0,0,0-1.43.216,2.8,2.8,0,0,0-1.045.569v.277l1.753.446v1.107a1.446,1.446,0,0,0-.846.492,1.723,1.723,0,0,0-.246,1.015v2.983Z" transform="translate(-1593.73 -916.822)" fill="#1d1d1b"/>
      <path id="Path_6307" data-name="Path 6307" d="M1715.921,929.353v-5.228a3.359,3.359,0,0,0-.138-1.046,1.069,1.069,0,0,0-.523-.623,2.459,2.459,0,0,0-1.138-.208,5.844,5.844,0,0,0-1.069.108,5.516,5.516,0,0,0-1.038.292v-1.292a5.63,5.63,0,0,1,1.115-.331,6.732,6.732,0,0,1,1.315-.131,3.371,3.371,0,0,1,2.406.723,3.073,3.073,0,0,1,.746,2.291v5.443Z" transform="translate(-1616.21 -916.822)" fill="#1d1d1b"/>
      <path id="Path_6308" data-name="Path 6308" d="M1741.009,929.507a6.782,6.782,0,0,1-1.968-.261,2.868,2.868,0,0,1-1.361-.83,2.2,2.2,0,0,1-.5-1.507,2.113,2.113,0,0,1,.292-1.115,1.989,1.989,0,0,1,.861-.761,1.715,1.715,0,0,1-.792-.63,1.868,1.868,0,0,1-.315-1.107,2.2,2.2,0,0,1,.731-1.791,2.823,2.823,0,0,1,1.868-.608,4.747,4.747,0,0,1,.769.054,3.484,3.484,0,0,1,.584.146v1.276a3.956,3.956,0,0,0-1.046-.123,1.6,1.6,0,0,0-.953.246,1.11,1.11,0,0,0,.046,1.637,1.911,1.911,0,0,0,1.061.254h.877l.076,1.245h-.984q-1.461,0-1.461,1.276a1.032,1.032,0,0,0,.523.946,3.213,3.213,0,0,0,1.614.315q2.168,0,2.168-1.768V921.05h1.66V926.2a3.125,3.125,0,0,1-.938,2.491A4.19,4.19,0,0,1,1741.009,929.507Z" transform="translate(-1634.209 -916.822)" fill="#1d1d1b"/>
    </g>
  </g>
</svg>
