<svg xmlns="http://www.w3.org/2000/svg" xmlns:xlink="http://www.w3.org/1999/xlink" width="588.828" height="308.87" viewBox="0 0 588.828 308.87">
  <defs>
    <clipPath id="clip-path">
      <path id="Path_2380" data-name="Path 2380" d="M2970.7,577.011,2852.184,750.4a4.442,4.442,0,0,0,3.667,6.948h351.655a11.8,11.8,0,0,0,10.68-6.783L3299.157,578.2a4.441,4.441,0,0,0-4.02-6.329H2980.445A11.8,11.8,0,0,0,2970.7,577.011Z" fill="none"/>
    </clipPath>
    <clipPath id="clip-path-2">
      <path id="Path_2344" data-name="Path 2344" d="M3012.016,641.355l1.055-2.185c-.035.073-.069.145-.1.219l-1.055,2.186C3011.947,641.5,3011.981,641.428,3012.016,641.355Z" fill="none"/>
    </clipPath>
    <clipPath id="clip-path-3">
      <path id="Path_2350" data-name="Path 2350" d="M2993.139,651l1.095-2.219c-.036.074-.071.148-.1.223-1.615,3.586.5,7.047,4.7,7.673l-1.092,2.243c-4.208-.627-6.319-4.1-4.7-7.7C2993.068,651.147,2993.1,651.073,2993.139,651Z" fill="#0d0d0c" stroke="#0d0d0c" stroke-linecap="round" stroke-linejoin="round" stroke-width="2"/>
    </clipPath>
    <clipPath id="clip-path-4">
      <path id="Path_2357" data-name="Path 2357" d="M3017.873,665.412l-1.066,2.266c-1.67,3.55-6.326,5.936-10.481,5.317-4.251-.634-6.4-4.166-4.784-7.836l1.09-2.262c-1.609,3.659.538,7.18,4.781,7.813C3011.562,671.328,3016.208,668.951,3017.873,665.412Z" fill="none"/>
    </clipPath>
  </defs>
  <g id="Group_2451" data-name="Group 2451" transform="translate(-2739.537 -555.652)">
    <path id="Path_2322" data-name="Path 2322" d="M3327.9,564.3l-128.148,297.47a4.82,4.82,0,0,1-4.561,2.754H2746.469c-4.765,0-8.6-5.184-6.19-8.381l225.272-298.574a4.981,4.981,0,0,1,4.057-1.915h352.326C3326.386,555.652,3329.608,560.33,3327.9,564.3Z" fill="#fff"/>
    <g id="Group_1261" data-name="Group 1261">
      <path id="Path_2323" data-name="Path 2323" d="M3189.764,789.2H2842.935c-3.692,0-4.7-2.938-2.256-6.553h0c2.437-3.6,7.386-6.521,11.06-6.521H3196.87c3.674,0,5.075,2.916,3.124,6.521h0C3198.039,786.266,3193.456,789.2,3189.764,789.2Z" fill="#c9d6e8"/>
      <path id="Path_2324" data-name="Path 2324" d="M3176.219,812.591h-349.87c-3.724,0-4.721-2.99-2.234-6.668h0c2.481-3.669,7.492-6.635,11.2-6.635h348.141c3.706,0,5.1,2.966,3.119,6.635h0C3184.58,809.6,3179.943,812.591,3176.219,812.591Z" fill="#c9d6e8"/>
      <path id="Path_2325" data-name="Path 2325" d="M2923.029,836.391H2810.313c-3.757,0-4.746-3.042-2.214-6.786h0c2.525-3.733,7.6-6.752,11.336-6.752h110.956c3.739,0,5.135,3.019,3.114,6.752h0C2931.479,833.349,2926.786,836.391,2923.029,836.391Z" fill="#c9d6e8"/>
    </g>
    <path id="Path_2326" data-name="Path 2326" d="M2970.7,577.011,2852.184,750.4a4.442,4.442,0,0,0,3.667,6.948h351.655a11.8,11.8,0,0,0,10.68-6.783L3299.157,578.2a4.441,4.441,0,0,0-4.02-6.329H2980.445A11.8,11.8,0,0,0,2970.7,577.011Z" fill="#edde1d"/>
    <line id="Line_146" data-name="Line 146" y1="7.917" x2="3.719" transform="translate(3267.594 637.47)" fill="none" stroke="#0d0d0c" stroke-linecap="round" stroke-linejoin="round" stroke-width="2"/>
    <path id="Path_2327" data-name="Path 2327" d="M3279.726,619.562l19.431-41.363a4.441,4.441,0,0,0-4.02-6.329H2980.445a11.8,11.8,0,0,0-9.742,5.141L2852.184,750.4a4.442,4.442,0,0,0,3.667,6.948H3177.7" fill="none" stroke="#0d0d0c" stroke-linecap="round" stroke-linejoin="round" stroke-width="2"/>
    <g id="Group_1294" data-name="Group 1294">
      <g id="Group_1293" data-name="Group 1293" clip-path="url(#clip-path)">
        <g id="Group_1292" data-name="Group 1292">
          <path id="Path_2328" data-name="Path 2328" d="M2994.761,624.255c27.2-27.182,69.554-17.382,77.38-6.935l56.25,8.784s14.087-9.6,44.609.439c40.679,13.378,51.13,84.176-20.869,100.454l-70.287-24.071-66.189,6.4Z" fill="#0d0d0c"/>
          <g id="Group_1262" data-name="Group 1262">
            <path id="Path_2329" data-name="Path 2329" d="M3094.631,645.9a2.259,2.259,0,0,1-1.54,1.042,2.01,2.01,0,0,1-.945-.048,1.3,1.3,0,0,1-.75-2h0a42.724,42.724,0,0,0,4.646-14.912c1.251-11.076,2.092-24.411-6.488-31.62-14.869-13.314-34.69-8.044-49.5-8.228s-29.17-.48-40.4-6.2c-12.719-6.476-15.7-20.535-16.416-35.215-.036-.74.728-1.5,1.706-1.689s1.8.25,1.837.988" fill="none" stroke="#0d0d0c" stroke-linecap="round" stroke-linejoin="round" stroke-width="4"/>
          </g>
          <g id="Group_1263" data-name="Group 1263">
            <path id="Path_2330" data-name="Path 2330" d="M3093.091,646.943a2.01,2.01,0,0,1-.945-.048,1.3,1.3,0,0,1-.75-2h0a42.724,42.724,0,0,0,4.646-14.912c1.251-11.076-2.5-20.3-11.081-27.513-9.775-8.213-25.5-10.355-42.15-12.623-13.962-1.9-28.4-3.869-39.634-9.587-12.718-6.475-19.224-16.858-19.941-31.538-.036-.74.728-1.5,1.706-1.689s1.8.25,1.837.988c1.612,31.362,29.9,35.216,57.251,38.942,17.1,2.33,33.253,4.531,43.662,13.253,11.545,9.675,12.882,21.431,11.944,29.685a45.014,45.014,0,0,1-5,16A2.259,2.259,0,0,1,3093.091,646.943Z" fill="#fff"/>
          </g>
          <g id="Group_1291" data-name="Group 1291">
            <g id="Group_1290" data-name="Group 1290">
              <g id="Group_1289" data-name="Group 1289">
                <g id="Group_1288" data-name="Group 1288">
                  <g id="Group_1287" data-name="Group 1287">
                    <path id="Path_2331" data-name="Path 2331" d="M3193.413,686.508c-6.242,27.062-34.987,46.11-63.979,41.618a47.654,47.654,0,0,1-28.8-15.291l-61.129-9.468a61.75,61.75,0,0,1-35.214,5.37c-28.959-4.487-43.678-30.244-33.252-56.629q.643-1.626,1.4-3.206c11.18-23.584,39.606-38.593,65.557-34.584a45.82,45.82,0,0,1,23.226,10.347l66.542,10.281a57.031,57.031,0,0,1,27.276-2.548c25.98,4.014,42.9,26.046,39.013,50.784C3193.882,684.286,3193.669,685.4,3193.413,686.508Z" fill="#c9d6e8"/>
                    <path id="Path_2332" data-name="Path 2332" d="M3193.413,686.508c-6.242,27.062-34.987,46.11-63.979,41.618a47.654,47.654,0,0,1-28.8-15.291l-61.129-9.468a61.75,61.75,0,0,1-35.214,5.37c-28.959-4.487-43.678-30.244-33.252-56.629q.643-1.626,1.4-3.206c11.18-23.584,39.606-38.593,65.557-34.584a45.82,45.82,0,0,1,23.226,10.347l66.542,10.281a57.031,57.031,0,0,1,27.276-2.548c25.98,4.014,42.9,26.046,39.013,50.784C3193.882,684.286,3193.669,685.4,3193.413,686.508Z" fill="none" stroke="#0d0d0c" stroke-linecap="round" stroke-linejoin="round" stroke-width="2"/>
                    <g id="Group_1264" data-name="Group 1264">
                      <path id="Path_2333" data-name="Path 2333" d="M3108.869,627.353,3107,632.21c-1.316,3.417-4.443,5.909-6.943,5.523l-13.444-2.078c-2.5-.386-3.417-3.5-2.045-6.91l1.951-4.845c.39-.971,1.3-1.676,2.009-1.566l19.727,3.047C3108.967,625.491,3109.244,626.38,3108.869,627.353Z" fill="#fff"/>
                    </g>
                    <path id="Path_2334" data-name="Path 2334" d="M3192.637,683.179c-9.591,24.748-38.6,41.661-66.247,37.378-11.9-1.843-21.475-7.348-27.879-15.05l-60.848-9.422c-11.379,4.946-23.916,7.023-35.818,5.18-12.468-1.932-22.023-7.81-27.787-16.022l-.02-.037a32.725,32.725,0,0,1-4.344-8.48c-2.877-8.34-2.593-17.979,1.332-27.827,13.061-23.306,42.9-38.084,68.851-34.075,9.3,1.436,17,5.083,22.731,10.259l66.552,10.283a60.1,60.1,0,0,1,27.763-2.461c13.508,2.086,24.119,8.914,30.413,18.4C3193.247,660.132,3195.418,671.329,3192.637,683.179Z" fill="#fff"/>
                    <path id="Path_2335" data-name="Path 2335" d="M3062.61,625.089s2.718,2.954,2.128,9.553c0,0,2.656-4.77,1.8-8.946Z" fill="#c9d6e8"/>
                    <path id="Path_2336" data-name="Path 2336" d="M3129.133,635.368s-4.6,1.823-8.981,7.838a18.32,18.32,0,0,1,5.053-8.445Z" fill="#c9d6e8"/>
                    <path id="Path_2337" data-name="Path 2337" d="M3098.219,705.537s-3.164-4.958-1.936-9.38c0,0-4.173,5.026-2.1,13.628Z" fill="#c9d6e8"/>
                    <path id="Path_2338" data-name="Path 2338" d="M3037.672,696.084a13.553,13.553,0,0,0,5.87-5.9s.317,5.163-5.453,10.837Z" fill="#c9d6e8"/>
                    <path id="Path_2339" data-name="Path 2339" d="M3078.566,627.548l50.594,7.818a60.1,60.1,0,0,1,27.763-2.461c13.508,2.086,24.119,8.914,30.413,18.4,5.911,8.822,8.082,20.019,5.3,31.869-9.591,24.748-38.6,41.661-66.247,37.378-11.9-1.843-21.475-7.348-27.879-15.05l-60.848-9.422c-11.379,4.946-23.916,7.023-35.818,5.18-12.468-1.932-22.023-7.81-27.787-16.022l-.02-.037a32.725,32.725,0,0,1-4.344-8.48c-2.877-8.34-2.593-17.979,1.332-27.827,13.061-23.306,42.9-38.084,68.851-34.075,9.3,1.436,17,5.083,22.731,10.259" fill="none" stroke="#0d0d0c" stroke-linecap="round" stroke-linejoin="round" stroke-width="2"/>
                    <g id="Group_1280" data-name="Group 1280">
                      <path id="Path_2340" data-name="Path 2340" d="M3044.955,658.076c-6.519,15.426-25.657,26.058-42.61,23.434s-24.747-17.422-17.561-32.741c7.031-14.987,25.823-24.858,42.115-22.341S3051.334,642.984,3044.955,658.076Z" fill="#c9d6e8"/>
                      <path id="Path_2341" data-name="Path 2341" d="M3002.345,681.51c-16.951-2.624-24.747-17.422-17.561-32.741,7.031-14.987,25.823-24.858,42.115-22.341s24.435,16.556,18.056,31.648a37.562,37.562,0,0,1-12.242,15.162" fill="none" stroke="#0d0d0c" stroke-linecap="round" stroke-linejoin="round" stroke-width="2"/>
                      <path id="Path_2342" data-name="Path 2342" d="M3024,678.324q-1.937.854-3.943,1.517" fill="none" stroke="#0d0d0c" stroke-linecap="round" stroke-linejoin="round" stroke-width="2"/>
                      <g id="Group_1279" data-name="Group 1279" style="isolation: isolate">
                        <g id="Group_1267" data-name="Group 1267" style="isolation: isolate">
                          <g id="Group_1266" data-name="Group 1266" clip-path="url(#clip-path-2)">
                            <g id="Group_1265" data-name="Group 1265" style="isolation: isolate">
                              <path id="Path_2343" data-name="Path 2343" d="M3012.97,639.389l-1.055,2.186c.032-.074.066-.147.1-.22l1.055-2.185c-.035.073-.069.145-.1.219" fill="#2094b5"/>
                            </g>
                          </g>
                        </g>
                        <g id="Group_1268" data-name="Group 1268">
                          <path id="Path_2345" data-name="Path 2345" d="M3010.7,644.557l-1.063,2.2,2.28-5.184,1.055-2.186Z" fill="#25366f"/>
                        </g>
                        <path id="Path_2346" data-name="Path 2346" d="M3035.02,657.905a9.954,9.954,0,0,1-1.891,1.452,10.913,10.913,0,0,1-2.133.979,10,10,0,0,1-4.6.448l-6.14-.915-1.058,2.248,6.151.916a10,10,0,0,0,4.613-.45,10.956,10.956,0,0,0,2.137-.982,10.04,10.04,0,0,0,1.9-1.458,8,8,0,0,0,1.665-2.331l1.027-2.231A7.956,7.956,0,0,1,3035.02,657.905Z" fill="#0d0d0c" stroke="#0d0d0c" stroke-linecap="round" stroke-linejoin="round" stroke-width="2"/>
                        <g id="Group_1269" data-name="Group 1269">
                          <path id="Path_2347" data-name="Path 2347" d="M3004.966,657.591l-1.083,2.244-6.151-.916,1.092-2.243Z" fill="#0d0d0c" stroke="#0d0d0c" stroke-linecap="round" stroke-linejoin="round" stroke-width="2"/>
                        </g>
                        <g id="Group_1273" data-name="Group 1273" style="isolation: isolate">
                          <path id="Path_2348" data-name="Path 2348" d="M2993.139,651l1.095-2.219c-.036.074-.071.148-.1.223-1.615,3.586.5,7.047,4.7,7.673l-1.092,2.243c-4.208-.627-6.319-4.1-4.7-7.7C2993.068,651.147,2993.1,651.073,2993.139,651Z" fill="#0d0d0c"/>
                          <g id="Group_1272" data-name="Group 1272" clip-path="url(#clip-path-3)">
                            <g id="Group_1271" data-name="Group 1271">
                              <g id="Group_1270" data-name="Group 1270">
                                <path id="Path_2349" data-name="Path 2349" d="M2998.825,656.676l-1.092,2.243c-4.208-.627-6.319-4.1-4.7-7.7.034-.075.069-.149.1-.223l1.095-2.219c-.036.074-.071.148-.1.223-1.615,3.586.5,7.047,4.7,7.673" fill="none" stroke="#0d0d0c" stroke-linecap="round" stroke-linejoin="round" stroke-width="2"/>
                              </g>
                            </g>
                          </g>
                          <path id="Path_2351" data-name="Path 2351" d="M2993.139,651l1.095-2.219c-.036.074-.071.148-.1.223-1.615,3.586.5,7.047,4.7,7.673l-1.092,2.243c-4.208-.627-6.319-4.1-4.7-7.7C2993.068,651.147,2993.1,651.073,2993.139,651Z" fill="none" stroke="#0d0d0c" stroke-linecap="round" stroke-linejoin="round" stroke-width="2"/>
                        </g>
                        <g id="Group_1274" data-name="Group 1274">
                          <path id="Path_2352" data-name="Path 2352" d="M3002.632,662.9l-1.09,2.261,2.341-5.323,1.083-2.244Z" fill="#25366f"/>
                        </g>
                        <g id="Group_1276" data-name="Group 1276">
                          <g id="Group_1275" data-name="Group 1275">
                            <path id="Path_2353" data-name="Path 2353" d="M3023.284,634.133c4.126.615,6.277,3.985,4.771,7.5l-2.216,5.176,6.084.907c4.161.62,6.352,4.054,4.856,7.638-1.5,3.6-6.187,6.052-10.388,5.426l-6.14-.915-2.276,5.315c-1.568,3.664-6.325,6.157-10.562,5.526s-6.39-4.154-4.781-7.813l2.334-5.306-6.141-.915c-4.2-.626-6.311-4.087-4.7-7.673,1.606-3.568,6.324-5.972,10.485-5.352l6.083.906,2.273-5.168C3014.515,635.876,3019.151,633.517,3023.284,634.133Z" fill="#fff"/>
                            <path id="Path_2354" data-name="Path 2354" d="M3023.284,634.133c4.126.615,6.277,3.985,4.771,7.5l-2.216,5.176,6.084.907c4.161.62,6.352,4.054,4.856,7.638-1.5,3.6-6.187,6.052-10.388,5.426l-6.14-.915-2.276,5.315c-1.568,3.664-6.325,6.157-10.562,5.526s-6.39-4.154-4.781-7.813l2.334-5.306-6.141-.915c-4.2-.626-6.311-4.087-4.7-7.673,1.606-3.568,6.324-5.972,10.485-5.352l6.083.906,2.273-5.168C3014.515,635.876,3019.151,633.517,3023.284,634.133Z" fill="none" stroke="#0d0d0c" stroke-linecap="round" stroke-linejoin="round" stroke-width="2"/>
                            <path id="Path_2355" data-name="Path 2355" d="M3009.039,666.443c-2.836-.439-4.281-2.763-3.225-5.17l2.58-5.884-6.714-1c-2.841-.439-4.26-2.72-3.2-5.081a5.965,5.965,0,0,1,2.656-2.7,7.16,7.16,0,0,1,4.355-.826l6.678.995,2.522-5.753a5.761,5.761,0,0,1,2.588-2.647,7.074,7.074,0,0,1,4.31-.81c2.8.433,4.241,2.66,3.244,4.98l-2.468,5.75,6.665.993c2.825.436,4.294,2.705,3.3,5.069a5.771,5.771,0,0,1-2.58,2.714,7.053,7.053,0,0,1-4.363.845l-6.726-1-2.534,5.9a5.986,5.986,0,0,1-2.646,2.766,7.149,7.149,0,0,1-4.411.86Z" fill="#ed759d"/>
                          </g>
                        </g>
                        <g id="Group_1278" data-name="Group 1278" style="isolation: isolate">
                          <g id="Group_1277" data-name="Group 1277" clip-path="url(#clip-path-4)">
                            <path id="Path_2356" data-name="Path 2356" d="M3016.16,667.78a10.3,10.3,0,0,1-1.93,1.478,11.191,11.191,0,0,1-2.164.993,10.073,10.073,0,0,1-4.653.459c-4.243-.633-6.39-4.154-4.781-7.813l-1.09,2.262c-1.614,3.67.533,7.2,4.784,7.836a10.068,10.068,0,0,0,4.66-.461,11.109,11.109,0,0,0,2.169-1,10.348,10.348,0,0,0,1.935-1.482,8.287,8.287,0,0,0,1.717-2.376l1.066-2.266A8.271,8.271,0,0,1,3016.16,667.78Z" fill="#0d0d0c" stroke="#0d0d0c" stroke-linecap="round" stroke-linejoin="round" stroke-width="2"/>
                          </g>
                        </g>
                      </g>
                    </g>
                    <g id="Group_1284" data-name="Group 1284">
                      <path id="Path_2358" data-name="Path 2358" d="M3181.213,679.151c-5.01,15.671-22.916,26.5-39.891,23.874s-26.032-17.63-20.355-33.193c5.555-15.224,23.19-25.282,39.5-22.762S3186.114,663.821,3181.213,679.151Z" fill="#c9d6e8"/>
                      <path id="Path_2359" data-name="Path 2359" d="M3160.469,647.07a29.205,29.205,0,0,1,9.022,2.9" fill="none" stroke="#0d0d0c" stroke-linecap="round" stroke-linejoin="round" stroke-width="2"/>
                      <path id="Path_2360" data-name="Path 2360" d="M3176.417,655.238c5.6,6.106,7.7,14.815,4.8,23.913-5.01,15.671-22.916,26.5-39.891,23.874s-26.032-17.63-20.355-33.193a34.286,34.286,0,0,1,12.212-15.764" fill="none" stroke="#0d0d0c" stroke-linecap="round" stroke-linejoin="round" stroke-width="2"/>
                      <g id="Group_1283" data-name="Group 1283">
                        <g id="Group_1281" data-name="Group 1281">
                          <path id="Path_2361" data-name="Path 2361" d="M3151.963,667.977a11.375,11.375,0,0,1-12.127,7.045c-5.063-.792-7.787-5.236-6.1-9.9a11.4,11.4,0,0,1,12.091-6.943C3150.833,658.965,3153.583,663.338,3151.963,667.977Z" fill="#0d0d0c" stroke="#0d0d0c" stroke-linecap="round" stroke-linejoin="round" stroke-width="2"/>
                          <path id="Path_2362" data-name="Path 2362" d="M3152.472,666.52a11.36,11.36,0,0,1-12.112,7.029c-5.057-.792-7.78-5.226-6.092-9.877a11.382,11.382,0,0,1,12.075-6.928C3151.34,657.526,3154.089,661.891,3152.472,666.52Z" fill="#fff"/>
                          <path id="Path_2363" data-name="Path 2363" d="M3140.91,672.005c-4.127-.647-6.361-4.277-4.987-8.074a9.324,9.324,0,0,1,9.868-5.677c4.1.641,6.352,4.224,5.026,8.007a9.311,9.311,0,0,1-9.892,5.746Z" fill="#ed759d"/>
                        </g>
                        <g id="Group_1282" data-name="Group 1282">
                          <path id="Path_2364" data-name="Path 2364" d="M3166.973,684.813a11.189,11.189,0,0,1-12.05,7.2c-5.1-.8-7.929-5.322-6.32-10.073a11.209,11.209,0,0,1,12.015-7.093C3165.66,675.634,3168.51,680.084,3166.973,684.813Z" fill="#0d0d0c" stroke="#0d0d0c" stroke-linecap="round" stroke-linejoin="round" stroke-width="2"/>
                          <path id="Path_2365" data-name="Path 2365" d="M3167.456,683.328a11.174,11.174,0,0,1-12.035,7.18c-5.1-.8-7.921-5.313-6.316-10.053a11.19,11.19,0,0,1,12-7.076C3166.141,674.167,3168.989,678.608,3167.456,683.328Z" fill="#fff"/>
                          <path id="Path_2366" data-name="Path 2366" d="M3155.944,688.933a6.144,6.144,0,0,1-5.171-8.218,9.171,9.171,0,0,1,9.8-5.8c4.134.648,6.467,4.294,5.209,8.151a9.16,9.16,0,0,1-9.829,5.869Z" fill="#155aa7"/>
                        </g>
                      </g>
                    </g>
                    <g id="Group_1285" data-name="Group 1285">
                      <path id="Path_2367" data-name="Path 2367" d="M3069.821,661.783l-10.306-1.594a1.026,1.026,0,0,1-.844-1.46l.754-1.829a1.818,1.818,0,0,1,1.869-1.033l10.273,1.589a1.031,1.031,0,0,1,.855,1.455l-.738,1.831A1.8,1.8,0,0,1,3069.821,661.783Z" fill="#0d0d0c"/>
                      <path id="Path_2368" data-name="Path 2368" d="M3070.206,660.828l-10.3-1.593a1.024,1.024,0,0,1-.845-1.457l.754-1.827a1.818,1.818,0,0,1,1.867-1.032l10.266,1.588a1.03,1.03,0,0,1,.855,1.453l-.737,1.829A1.8,1.8,0,0,1,3070.206,660.828Z" fill="#0d0d0c"/>
                    </g>
                    <g id="Group_1286" data-name="Group 1286">
                      <path id="Path_2369" data-name="Path 2369" d="M3105.587,667.73l-10.312-1.595a1.053,1.053,0,0,1-.877-1.465l.708-1.837a1.763,1.763,0,0,1,1.837-1.04l10.28,1.59a1.059,1.059,0,0,1,.887,1.461l-.691,1.84A1.749,1.749,0,0,1,3105.587,667.73Z" fill="#0d0d0c"/>
                      <path id="Path_2370" data-name="Path 2370" d="M3105.948,666.771l-10.3-1.594a1.051,1.051,0,0,1-.877-1.463l.707-1.835a1.763,1.763,0,0,1,1.836-1.038l10.273,1.589a1.058,1.058,0,0,1,.886,1.459l-.689,1.838A1.748,1.748,0,0,1,3105.948,666.771Z" fill="#0d0d0c"/>
                    </g>
                  </g>
                </g>
              </g>
            </g>
            <path id="Path_2371" data-name="Path 2371" d="M3018.539,644.742l-2.984-.461,2.54-2.113,2.53-2.1.448,2.565.45,2.575Z" fill="#fff"/>
            <path id="Path_2372" data-name="Path 2372" d="M3011.767,659.934l-3.022-.468.432,2.647.434,2.658,2.595-2.19,2.584-2.181Z" fill="#fff"/>
            <path id="Path_2373" data-name="Path 2373" d="M3005.557,650.312l-1.249,2.747-1.977-1.778-1.973-1.774,3.225-.966,3.217-.964Z" fill="#fff"/>
            <path id="Path_2374" data-name="Path 2374" d="M3025.681,653.58l-1.2,2.755,3.205-.977,3.2-.974-2-1.776-2-1.771Z" fill="#fff"/>
          </g>
          <path id="Path_2375" data-name="Path 2375" d="M3062.61,625.089s4.453,7.478,1.895,15.21" fill="none" stroke="#0d0d0c" stroke-linecap="round" stroke-linejoin="round" stroke-width="2"/>
          <path id="Path_2376" data-name="Path 2376" d="M3037.672,696.084a14.426,14.426,0,0,0,6.836-7.758" fill="none" stroke="#0d0d0c" stroke-linecap="round" stroke-linejoin="round" stroke-width="2"/>
          <path id="Path_2377" data-name="Path 2377" d="M3098.511,705.505a16.4,16.4,0,0,1-2.228-9.348" fill="none" stroke="#0d0d0c" stroke-linecap="round" stroke-linejoin="round" stroke-width="2"/>
          <path id="Path_2378" data-name="Path 2378" d="M3129.133,635.368c-4.4,1.489-9.576,5.835-11.321,9.613" fill="none" stroke="#0d0d0c" stroke-linecap="round" stroke-linejoin="round" stroke-width="2"/>
          <path id="Path_2379" data-name="Path 2379" d="M3115.894,648.173c-.357.692-2.165,3.965-2.165,3.965" fill="none" stroke="#0d0d0c" stroke-linecap="round" stroke-linejoin="round" stroke-width="2"/>
        </g>
      </g>
    </g>
  </g>
</svg>
