<svg xmlns="http://www.w3.org/2000/svg" xmlns:xlink="http://www.w3.org/1999/xlink" width="499.557" height="308.87" viewBox="0 0 499.557 308.87">
  <defs>
    <clipPath id="clip-path">
      <path id="Path_2406" data-name="Path 2406" d="M3559.628,672.834l-1.6,6.839c-1.3,5.535-15.906,7.228-32.629,3.776s-29.224-10.732-27.927-16.267l1.6-6.839c-1.3,5.534,11.21,12.821,27.929,16.27S3558.332,678.368,3559.628,672.834Z" fill="none"/>
    </clipPath>
    <clipPath id="clip-path-2">
      <path id="Path_2417" data-name="Path 2417" d="M3591.758,661l-.124,7c-.1,5.668-14.061,10.045-31.181,9.777s-30.914-5.08-30.813-10.748l.125-7c-.1,5.668,13.7,10.478,30.811,10.75S3591.658,666.661,3591.758,661Z" fill="none"/>
    </clipPath>
    <clipPath id="clip-path-3">
      <path id="Path_2421" data-name="Path 2421" d="M3630.275,660.69l.555,6.982c.45,5.65-13.027,11.205-30.1,12.4s-31.277-2.418-31.727-8.068l-.556-6.981c.45,5.651,14.657,9.262,31.728,8.065S3630.724,666.342,3630.275,660.69Z" fill="none"/>
    </clipPath>
  </defs>
  <g id="Food_Card" data-name="Food Card" transform="translate(-3308.767 -555.652)">
    <path id="Path_2381" data-name="Path 2381" d="M3404.8,559.566l-95.821,298.246c-1.047,3.258,1.876,6.71,5.675,6.71h487.82c3.724,0,6.6-3.327,5.669-6.557l-86.3-298.217a5.676,5.676,0,0,0-5.507-4.1h-306.1A5.646,5.646,0,0,0,3404.8,559.566Z" fill="#fff"/>
    <g id="Group_1296" data-name="Group 1296">
      <path id="Path_2382" data-name="Path 2382" d="M3739.323,788.587H3373.456c-3.74,0-6.111-2.828-5.3-6.284h0a8.576,8.576,0,0,1,8.1-6.173h359.376a9.394,9.394,0,0,1,8.543,6.173h0C3745.229,785.759,3743.063,788.587,3739.323,788.587Z" fill="#c9d6e8"/>
      <path id="Path_2383" data-name="Path 2383" d="M3745.28,811.7H3367.369c-3.864,0-6.286-3.016-5.419-6.7h0a9,9,0,0,1,8.415-6.58h370.991a9.836,9.836,0,0,1,8.875,6.58h0C3751.355,808.686,3749.144,811.7,3745.28,811.7Z" fill="#c9d6e8"/>
      <path id="Path_2384" data-name="Path 2384" d="M3452.723,836.391H3361.8c-4,0-6.475-3.224-5.548-7.164h0A9.457,9.457,0,0,1,3365,822.2h83.529a10.341,10.341,0,0,1,9.241,7.029h0C3458.973,833.167,3456.718,836.391,3452.723,836.391Z" fill="#c9d6e8"/>
    </g>
    <path id="Path_2385" data-name="Path 2385" d="M3421.876,575.6l-54.752,174.846a5.317,5.317,0,0,0,5.073,6.905h372.675a5.317,5.317,0,0,0,5.147-6.646l-45.158-174.846a5.315,5.315,0,0,0-5.147-3.986H3426.949A5.316,5.316,0,0,0,3421.876,575.6Z" fill="#edde1d"/>
    <path id="Path_2386" data-name="Path 2386" d="M3403.935,632.889l-36.811,117.554a5.317,5.317,0,0,0,5.073,6.905h372.675a5.317,5.317,0,0,0,5.147-6.646l-45.158-174.846a5.315,5.315,0,0,0-5.147-3.986H3459.957" fill="none" stroke="#0d0d0c" stroke-linecap="round" stroke-linejoin="round" stroke-width="2"/>
    <g id="Group_1320" data-name="Group 1320">
      <g id="Group_1297" data-name="Group 1297">
        <ellipse id="Ellipse_109" data-name="Ellipse 109" cx="124.801" cy="51.54" rx="124.801" ry="51.54" transform="translate(3453.312 635.757)"/>
        <path id="Path_2387" data-name="Path 2387" d="M3558.929,637.119s12.476-12.265,39.689-13.456l45.042,10.821c25.176-1.509,26.305,6.748,24.926,10.468a136.472,136.472,0,0,1,15.063,10.65c7.287,6.021-11.2,15.06-11.2,15.06Z"/>
      </g>
      <g id="Group_1319" data-name="Group 1319">
        <g id="Group_1318" data-name="Group 1318">
          <g id="Group_1299" data-name="Group 1299">
            <g id="Group_1298" data-name="Group 1298">
              <ellipse id="Ellipse_110" data-name="Ellipse 110" cx="133.528" cy="48.37" rx="133.528" ry="48.37" transform="translate(3429.788 642.323)" fill="#fff"/>
              <path id="Path_2388" data-name="Path 2388" d="M3665.944,690.508c-1.617,14.455-51.183,28.9-102.626,28.9s-95.648-10.91-103.361-28.715c1.971-18.355,43.7-29.086,103.361-29.086S3663.972,672.153,3665.944,690.508Z" fill="#c9d6e8"/>
              <path id="Path_2389" data-name="Path 2389" d="M3664.327,679.446c-11.119-14.107-52.126-24.575-101.011-24.575-57.429,0-103.985,14.447-103.985,32.268,0,4.48,2.942,8.747,8.26,12.625" fill="none" stroke="#0d0d0c" stroke-linecap="round" stroke-linejoin="round" stroke-width="2"/>
              <path id="Path_2390" data-name="Path 2390" d="M3532.363,717.954c9.778.945,20.174,1.454,30.953,1.454,45.644,0,84.42-9.127,98.411-21.82" fill="none" stroke="#0d0d0c" stroke-linecap="round" stroke-linejoin="round" stroke-width="2"/>
            </g>
          </g>
          <path id="Path_2391" data-name="Path 2391" d="M3623,699.172c17.956-7.056,22.526-15.189,21.351-19.282,0,0,3.525.564,3.917-.133s0-3.327,0-3.327,2.936,1.863,4.4-1.082,1.223-4.068,1.223-4.068a13.315,13.315,0,0,0,4.254,2.606c2.26.735,1.607-3.594.562-5.738,0,0,6.528.392,6.659-6.294s-3-9.4-3-9.4l-51.7-11.514Z"/>
          <g id="Group_1317" data-name="Group 1317">
            <g id="Group_1316" data-name="Group 1316">
              <path id="Path_2392" data-name="Path 2392" d="M3623,699.172c-29.666,18.754-100.848,16.008-121.885-3.361-8.353-7.688-9.873-18.638-8.81-23.676.772-3.607,3.858-5.792,6.9-4.957a265.885,265.885,0,0,0,127.257,3.508c3.081-.666,6.061,1.689,6.659,5.332C3633.949,681.106,3633.544,692.505,3623,699.172Z" fill="#fdd89b"/>
              <path id="Path_2393" data-name="Path 2393" d="M3501.3,688.136c3.262,13.044,31.323,23.809,58.132,23.666,19.233-.1,32.762-1.536,51.145-8.506,5.312-2.015,21.929-13.374,14.857-16.808,0,0-23.991,10.306-58.049,11.963-18.473.9-33.584-2.417-51.218-7.466C3511.469,689.639,3500.132,683.476,3501.3,688.136Z" fill="#edc080"/>
              <path id="Path_2394" data-name="Path 2394" d="M3573.718,692.194c3.247-.951,8.829,1.426,13.725.777s4.653-.178,10.183.114,10.323.866,16.052-1.744,11.281-1.566,13.477-4.5.716-9.163.716-9.163Z"/>
              <path id="Path_2395" data-name="Path 2395" d="M3623,699.172c-29.666,18.754-100.848,16.008-121.885-3.361-8.353-7.688-9.873-18.638-8.81-23.676.772-3.607,3.858-5.792,6.9-4.957a265.885,265.885,0,0,0,127.257,3.508c3.081-.666,6.061,1.689,6.659,5.332C3633.949,681.106,3633.544,692.505,3623,699.172Z" fill="none" stroke="#0d0d0c" stroke-linecap="round" stroke-linejoin="round" stroke-width="1.832"/>
              <path id="Path_2396" data-name="Path 2396" d="M3630.658,671.86c-.229.712-.441,1.406-.688,2.051a18.167,18.167,0,0,1-.916,2.3c-.106.248-.23.5-.353.728a9.144,9.144,0,0,1-1.075,1.571c-.758.943-1.622,1.721-2.416,2.614-1.322,1.472-1.868,3.391-3.437,4.434a25.766,25.766,0,0,1-5.253,2.415,1.42,1.42,0,0,1-.282.083c-1.728.578-3.667.248-5.5.645-1.9.4-3.7.777-5.659.992-1.957.2-3.755,2.118-5.712,2.2-1.992.1-4.037-1.721-5.976-1.671-2.027.066-3.984,1.058-5.87,1.174-1.957.116-3.913.414-5.906.53-1.956.1-3.966-.348-5.958-.265-1.975.1-3.878,1.9-5.87,1.968-1.974.067-4.02-2.216-6.011-2.183-1.975.049-3.932,1.489-5.906,1.505a9.393,9.393,0,0,1-3.015-.694,15.922,15.922,0,0,0-1.815-.53,4.155,4.155,0,0,0-1.093-.149,3.708,3.708,0,0,0-1.111.182.054.054,0,0,1-.035.017,9.82,9.82,0,0,0-1.358.595,20.836,20.836,0,0,1-2.044,1.009,3.8,3.8,0,0,1-.565.2,3.315,3.315,0,0,1-.9.1c-1.991-.066-3.931-1.141-5.887-1.274-1.992-.132-3.966-.38-5.924-.579-1.974-.2-3.878-.876-5.817-1.158-1.974-.281-4.195.728-6.117.364-1.957-.364-3.543-2.3-5.447-2.762-2.1-.5-4.372-.033-6.1-.778a3.224,3.224,0,0,0-.353-.132c-1.816-.728-3.861-1.208-5.377-2.217-1.057-.711-1.5-2.167-2.08-3.458a6.053,6.053,0,0,0-.829-1.372,2.025,2.025,0,0,0-.37-.4,8.968,8.968,0,0,0-3.208-1.339.258.258,0,0,1-.106-.034,6.239,6.239,0,0,1-2.609-1.306,7.3,7.3,0,0,1-.652-3.573c0-1.208.071-2.449,0-3.475-.176-2.084-.123-2.944,2.468-3.441.176-.033.388-.082.6-.115h.036a1.011,1.011,0,0,0,.652-.2c.564-.4.987-1.224,1.6-.959a12.172,12.172,0,0,1-.07,2.332,1.688,1.688,0,0,0,.176.943,13.219,13.219,0,0,0,2.627,2.7v.016a1.6,1.6,0,0,0,.3.215,7.7,7.7,0,0,0,2.415,1.241,2.52,2.52,0,0,0,.705.116,4,4,0,0,0,.776.016,8.932,8.932,0,0,0,1.305-.149c.81-.115,1.639-.3,2.45-.413.335-.033.67-.066,1-.066a1.981,1.981,0,0,1,.317-.017,1.041,1.041,0,0,0,.229.017.927.927,0,0,0,.211,0,.123.123,0,0,0,.106,0,14.585,14.585,0,0,0,1.9-.05c.3-.033.618-.05.9-.083.688-.082,1.376-.165,2.045-.231.423-.033.846-.066,1.269-.083.476-.016.97-.05,1.428-.083.741-.066,1.446-.149,2.116-.231.141-.017.264-.017.387-.033.018,0,.018,0,.036-.017.934-.1,1.8-.2,2.539-.215h.158a10.236,10.236,0,0,1,1.586.149c.917.132,1.834.331,2.75.414a.485.485,0,0,0,.142.016,5.417,5.417,0,0,0,.9.05h.141c.176,0,.335-.017.511-.033a21.285,21.285,0,0,0,2.45-.464,4.886,4.886,0,0,1,.67-.149,10.844,10.844,0,0,1,1.428-.264l.564-.05a4.541,4.541,0,0,1,.67.017h.018a2.636,2.636,0,0,1,.493.049c.529.05,1.076.166,1.622.265.388.083.794.149,1.181.215a9.871,9.871,0,0,0,1.551.1h.177c.617-.033,1.251-.082,1.869-.132.14-.017.264-.017.405-.033.617-.05,1.234-.116,1.851-.166.476-.033.952-.082,1.428-.115h.106a4.3,4.3,0,0,1,.652-.017c.9-.05,1.78-.016,2.68.017h.017c.776.016,1.551.016,2.327-.033a.394.394,0,0,1,.141,0,6.84,6.84,0,0,1,1.428.066c.67.115,1.322.264,1.992.4.265.049.529.1.811.132a8.245,8.245,0,0,0,.9.066h.194a1.878,1.878,0,0,0,.3-.016,3.908,3.908,0,0,0,1.128-.281,9.521,9.521,0,0,0,1.27-.679h.018c.07-.049.14-.083.211-.132a11.086,11.086,0,0,1,1.71-.893,1.276,1.276,0,0,1,.317-.133h.018a2.757,2.757,0,0,1,.811-.182,12.113,12.113,0,0,0,1.728-.281,31.222,31.222,0,0,1,3.878-.744c1.586-.133,3.261.91,4.865,1.174h.018a5.623,5.623,0,0,0,.917.033,5.077,5.077,0,0,0,1.269-.3c.246-.1.493-.2.74-.315a.07.07,0,0,0,.053-.016c.652-.3,1.287-.646,1.939-.91a4.774,4.774,0,0,1,1.534-.4,2.465,2.465,0,0,1,.969.116,18.04,18.04,0,0,1,2.856,1.191.868.868,0,0,1,.123.049.068.068,0,0,0,.053.017,4.112,4.112,0,0,0,1.816.4h.018c.863-.066,2.8-.529,5.182-1.076.177-.033.353-.082.529-.115,1.64-.364,3.561-.546,5.588-.976a6.443,6.443,0,0,0,.759-.2c1.516-.446,3.014-1.174,4.653-1.505,1.834-.348,3.579-1.257,5.465-1.539a12.916,12.916,0,0,0,1.6-.347c.811-.232,1.6-.48,2.415-.678a9.694,9.694,0,0,1,1.552-.281,4.133,4.133,0,0,1,.458-.017,9.71,9.71,0,0,1,1.71.116c.776.1,1.534.264,2.274.38.23.033.476.066.705.083.194.016.371.033.565.033.37,0,.74,0,1.11-.033a29.554,29.554,0,0,1,3.684-.2,2.553,2.553,0,0,1,.512.05,2.1,2.1,0,0,1,.458.1c.176.05.37.1.564.166q.635.172,1.269.4l.529.2c.176.066.353.149.511.215a8.914,8.914,0,0,1,1.393.761,3.632,3.632,0,0,1,1.181,1.241C3633.3,667.691,3631.363,669.66,3630.658,671.86Z" fill="#db6729"/>
              <path id="Path_2397" data-name="Path 2397" d="M3545.962,691.813a15.473,15.473,0,0,1-2.8-1.005c-1.018-.307-1.856-1.28-2.994-1.361-1.462-.1-2.946,0-4.394-.153-.748-.079-.65-.9-1.4-.98-.966-.1-1.731-.743-2.755-.989-.9-.216-1.992-.174-2.96-.31a8.958,8.958,0,0,0-1.036.1c-.884,0-1.588,1.519-2.41,1.656-.712.117-1.528-1.68-2.122-1.685-.2,0-.338.785-.529.75a5.828,5.828,0,0,1-2.422-.683,9.49,9.49,0,0,0-3.192-1.057c-1.085-.257-1.98-1.3-2.944-1.33-1.034-.036-1.583-.685-2.27-.979-.708-.3-1.579-.459-2.328-.714-1.231-.419-2.991.376-3.866-.208-.475-.315-.808-1.462-1.163-2.3a10.962,10.962,0,0,0-5.09-4.525,7.818,7.818,0,0,1-2.372-1.1c-.394-.854.627-2.568.648-3.93.012-.8-2.029-1.568-2.088-2.308-.029-.364,2.121-.748,2.242-.926.008-.01-.915-1.152.521-1.391.183,0,.79.111.951.075.013.576.634.628.967,1.078,1.024,1.384,2.516,3.724,5.486,4.605.5.146.788,1.106,1.382,1.109a15.966,15.966,0,0,0,2.928-.382,17.25,17.25,0,0,1,2.394-.706c.113,0,.09.665.2.67.247.013.517-.711.766-.709,1.193.008,2.394.6,3.505.478.838-.1,1.58-.506,2.342-.533,1.386-.047,2.693-.3,3.85-.441.971-.115,1.864-1.436,2.591-1.447.005,0,.036,1.239.042,1.239.866.006,1.511.743,2.324.89.924.164,2.005-.484,3.014-.477.176,0,.187.545.363.54a19.69,19.69,0,0,0,3.418.057c.868-.2,1.426-1.6,2.2-1.639.118,0,.131-.686.249-.686.674.005,1.152,2.279,1.935,2.43a19.1,19.1,0,0,0,3.061-.133c.165,0,.28-1.517.445-1.525,1.037-.062,2.152.92,3.187.826.853-.077,1.634-1.016,2.487-1.073.474-.031.985,1.758,1.461,1.761.407,0,.8-.334,1.21-.322.427.011.878-.621,1.306-.618.589,0,1.182-.176,1.767-.22.1-.008.194.778.294.778.639,0,1.537-1.405,2.293-1.247.883.182,1.616,1.4,2.582,1.411.2,0,.307-1.3.5-1.312,1.329-.1,2.62.333,3.617-.265.727-.435,1.311-2.039,1.87-2.083,1.066-.085,2.441,1.756,3.416,1.528.893-.21,1.49-1.144,2.308-1.211.009,0-.015.717-.006.717.719.005,1,.4,1.759.663.944.329,2.465-.289,3.589-.283.145,0,.371.726.514.714,1.254-.1,2.28-1.549,3.263-2.032.793-.392,1.454-1.87,2.08-1.917l.111.089a8.973,8.973,0,0,1,2.472,1.034c1.017.49,1.763,2.49,3.017,2.5.107,0,.186-1.106.292-1.112.867-.064,2.159-.727,4.165-1.183.825-.188,1.24,1.427,2.066,1.241.766-.172,1.519-.358,2.4-.5.988-.154,2.032-.531,3.1-.762.94-.2,1.743-1.013,2.607-1.335a15.575,15.575,0,0,1,2.742-.328,24.451,24.451,0,0,0,3-.453c.919-.312,1.471-1.229,2.327-1.36.985-.15,1.684-1.272,2.578-1.537.943-.275,2.1.933,2.93.859.175-.015.258-1.995.433-1.994.769.005,1.484,1.511,2.328,1.665s1.8-.385,2.686-.371c.006,0,.006-.209.011-.209.985,0,1.894,1.491,2.671,1.416.65-.06,1.154-.961,1.693-.958.4,0,.842-.541,1.1-.47,3.386.929,3.543,2.374,3.763,2.8.024.257,1.188,1.532.846,2.15-.431.78-3.008.858-3.315,1.821-.58,1.816-.252,3.585-1.029,5.022a12.5,12.5,0,0,1-2.346,2.69c-.35.359-.35,1.011-.687,1.387-.62.689-1.908.98-2.317,1.652-.531.87-.535,1.655-1.187,2.091a20.817,20.817,0,0,1-4.284,1.837c-.311.119-.247.27-.558.389-.781.3-1.559,1.029-2.577,1.066-.9.033-2.13-1.448-3.091-1.243a50.009,50.009,0,0,1-5.341.954c-1.274.135-2.326,1.839-3.313,2.382-.827.45-2.315,1.482-2.16.907a2.2,2.2,0,0,0,.011-1.086c-.7-.005-1.922,1.737-2.756,1.374-1.028-.445-1.765-2.33-3.016-2.338-.019,0-.17-.146-.189-.145-1.267.034-2.393,1.21-3.454,1.5a16.4,16.4,0,0,1-2.407.912c-.979.057-1.911.291-2.9.4s-2.117-1.532-3.112-1.478c-.2.011-.351,1.99-.555,1.988-.715,0-1.475-.533-2.2-.6-.792-.069-1.563-.491-2.4-.5-.244,0-.453.518-.694.53a7.532,7.532,0,0,0-3.151,1.236,8.485,8.485,0,0,1-2.7.837l-.034-.411a6.286,6.286,0,0,1-2.626-.5c-1.089-.605-1.853-1.666-3.24-1.676-1.374.027-2.979-.921-4.011-.534a5.517,5.517,0,0,1-1.99.618c-.75-.005-1.771,1.233-2.655.93-1.023-.349-1.976-2.265-3.209-2.287l-.025,1.229c-1.435-.01-2.431.878-3.529,1.468-.794.424-2.944-.106-3.494-.109C3544.688,690.666,3545.979,691.813,3545.962,691.813Z" fill="#db6729"/>
              <path id="Path_2398" data-name="Path 2398" d="M3554.855,692.258a7.359,7.359,0,0,0,3.015.694c1.155-.152,3.391-3.723,3.929-4.45s13.152-8.612,13.152-8.612l-11.433-1.373Z"/>
              <path id="Path_2399" data-name="Path 2399" d="M3496.524,667c-.2,3.625,3.757,8.636,3.757,8.636l.872-1.309s6.011,4.644,6.473,5.43,0,.9,0,.9,3.5,2.583,12.748,4.8a99.176,99.176,0,0,0,19.307,2.294l-1.394-1.326s11.783,1.09,16.568.091,6.58-7.038,6.58-7.038a30.923,30.923,0,0,1,4.6-.358c1.913.059,1.327,1.188,1.327,1.188s13.2,3.355,18.522.545c0,0,11.58,4.2,23.445,2.571s14.786-4.617,14.786-4.617,4.657,3.541,4.916-.285-4.069-10.6-4.069-10.6l-127.438-1.165Z"/>
              <path id="Path_2400" data-name="Path 2400" d="M3528.707,677.425c4.543,3.107,17.112,18.45,22.392,17.493,3.107-.567,7.393-7.545,9.8-9.68a46.659,46.659,0,0,1,12.125-7.981Z" fill="#edde1d"/>
              <path id="Path_2401" data-name="Path 2401" d="M3504.542,669.638c-3.481,4.286-6.5,10.045-9.164,12.547-1.475,1.387,16.551-1.422,24.109-5.725,6.293-3.583,14.411.74,21.532,1.758Z" fill="#f49d29"/>
              <path id="Path_2402" data-name="Path 2402" d="M3497.889,681.539a.338.338,0,0,1-.316-.539c.821-1.13,1.66-2.4,2.523-3.7,1.182-1.782,2.4-3.618,3.676-5.273l14.5,3.409c-.337.151-.668.321-.991.5C3512.532,678.647,3503.206,680.8,3497.889,681.539Z" fill="#edde1d"/>
              <path id="Path_2403" data-name="Path 2403" d="M3608.191,673.53c6.789.769,15.063,2.2,20.522,5.619a.858.858,0,0,0,1.315-.6,18.071,18.071,0,0,0-3.721-13.178.861.861,0,0,0-1.01-.29l-17.321,6.794A.86.86,0,0,0,3608.191,673.53Z" fill="#f49d29"/>
              <path id="Path_2404" data-name="Path 2404" d="M3627.787,677.191a50.487,50.487,0,0,0-14.205-4.066.709.709,0,0,1-.152-1.36l11.578-4.54a.71.71,0,0,1,.851.266,16.612,16.612,0,0,1,2.95,9.063A.707.707,0,0,1,3627.787,677.191Z" fill="#edde1d"/>
              <g id="Group_1304" data-name="Group 1304">
                <g id="Group_1303" data-name="Group 1303" style="isolation: isolate">
                  <g id="Group_1301" data-name="Group 1301" style="isolation: isolate">
                    <g id="Group_1300" data-name="Group 1300" clip-path="url(#clip-path)">
                      <path id="Path_2405" data-name="Path 2405" d="M3558.964,674.233a5.54,5.54,0,0,1-1.106,1.092,9.919,9.919,0,0,1-2.239,1.241c-5.679,2.35-16.6,2.525-28.619.047-16.719-3.449-29.225-10.736-27.929-16.27l-1.6,6.839c-1.3,5.535,11.209,12.821,27.927,16.267,12.018,2.481,22.942,2.3,28.619-.046a10.077,10.077,0,0,0,2.24-1.24,5.479,5.479,0,0,0,1.106-1.1,3.764,3.764,0,0,0,.664-1.4l1.6-6.839A3.8,3.8,0,0,1,3558.964,674.233Z" fill="#ed759d"/>
                    </g>
                  </g>
                  <g id="Group_1302" data-name="Group 1302">
                    <path id="Path_2407" data-name="Path 2407" d="M3559.633,672.836a4.039,4.039,0,0,1-1.04,1.853,5.279,5.279,0,0,1-1.005.81,12.974,12.974,0,0,1-4.319,1.82,25.16,25.16,0,0,1-2.556.546c-.018,0-.035.017-.053.017q-.925.123-1.9.248h-.053c-.088.016-.194.016-.282.033a68.989,68.989,0,0,1-17.011-.761h-.053c-1.428-.232-2.891-.5-4.355-.794-.123-.033-.246-.05-.37-.083-.916-.182-1.833-.4-2.732-.612-.634-.149-1.252-.314-1.868-.48a76.282,76.282,0,0,1-9.1-2.977c-.035-.017-.053-.017-.071-.033h-.017c-.159-.066-.3-.116-.441-.182a.585.585,0,0,1-.176-.083q-1.771-.72-3.332-1.489c-5.183-2.581-8.691-5.443-9.643-8.089v-.017a3.724,3.724,0,0,1-.176-2.217,3.467,3.467,0,0,1,.441-1.058h.018a5.294,5.294,0,0,1,1.763-1.754,9.934,9.934,0,0,1,1.762-.91,21.54,21.54,0,0,1,3.949-1.141l.264-.05c.071-.016.159-.033.247-.049.652-.116,1.34-.215,2.045-.3h.071c.793-.1,1.621-.166,2.485-.215h.018a8.61,8.61,0,0,1,.934-.05c1.5-.066,3.1-.066,4.76.017.952.016,1.939.082,2.944.165a85.214,85.214,0,0,1,10.894,1.555h.018q1.349.273,2.644.6c.37.082.74.165,1.111.264a76.4,76.4,0,0,1,12.34,4.153c1.375.612,2.661,1.257,3.843,1.9a32.691,32.691,0,0,1,2.979,1.836c.141.1.282.2.405.3a15.729,15.729,0,0,1,3.314,3.061c.071.082.124.148.194.231a6.936,6.936,0,0,1,.97,1.853,1.22,1.22,0,0,1,.1.364,2.244,2.244,0,0,1,.106.678.07.07,0,0,1,0,.083A2.936,2.936,0,0,1,3559.633,672.836Z" fill="#ed759d"/>
                    <path id="Path_2408" data-name="Path 2408" d="M3542.958,676.359a80.9,80.9,0,0,1-15.492-1.738c-17.187-3.544-27.039-10.564-26.272-13.838.456-1.953,5.206-4.03,14.551-3.968a80.892,80.892,0,0,1,15.484,1.737c7.854,1.621,14.972,4.143,20.046,7.1s6.541,5.423,6.23,6.75C3557.049,674.348,3552.3,676.42,3542.958,676.359Z" fill="#f79abe"/>
                  </g>
                </g>
              </g>
              <path id="Path_2409" data-name="Path 2409" d="M3527.607,669.025c-.531.8-4.187,4.578-2.1,4.847,2.128.271,1.8-3.436,2.062-4.5Z" fill="#f9cbbd"/>
              <path id="Path_2410" data-name="Path 2410" d="M3530.379,669.415c.022.946-.845,5.984,1.056,5.138,1.941-.86-.486-3.8-.885-4.821Z" fill="#f9cbbd"/>
              <path id="Path_2411" data-name="Path 2411" d="M3534.02,670.407c.266.914.732,6,2.357,4.743,1.66-1.278-1.457-3.576-2.109-4.475Z" fill="#f9cbbd"/>
              <path id="Path_2412" data-name="Path 2412" d="M3524.424,668.148c-.763.62-5.449,3.205-3.544,4.041,1.945.854,2.81-2.776,3.392-3.714Z" fill="#f9cbbd"/>
              <path id="Path_2413" data-name="Path 2413" d="M3519.53,667.08c-.846.514-5.864,2.478-4.1,3.549,1.8,1.095,3.185-2.391,3.9-3.247Z" fill="#f9cbbd"/>
              <path id="Path_2414" data-name="Path 2414" d="M3515.061,665.475c-.915.4-6.182,1.659-4.6,2.958,1.616,1.325,3.521-1.933,4.358-2.685Z" fill="#f9cbbd"/>
              <path id="Path_2415" data-name="Path 2415" d="M3508.689,661.7c-1.006-.063-6.276-1.319-5.547.533.743,1.89,4.077-.118,5.2-.4Z" fill="#f9cbbd"/>
              <g id="Group_1309" data-name="Group 1309">
                <g id="Group_1308" data-name="Group 1308" style="isolation: isolate">
                  <g id="Group_1306" data-name="Group 1306" style="isolation: isolate">
                    <g id="Group_1305" data-name="Group 1305" clip-path="url(#clip-path-2)">
                      <path id="Path_2416" data-name="Path 2416" d="M3591.4,662.487a5.342,5.342,0,0,1-.853,1.278,9.745,9.745,0,0,1-1.933,1.632c-5.068,3.359-15.738,5.566-28.041,5.376-17.115-.272-30.912-5.082-30.811-10.75l-.125,7c-.1,5.668,13.7,10.48,30.813,10.748,12.3.192,22.972-2.011,28.041-5.372a9.764,9.764,0,0,0,1.932-1.636,5.327,5.327,0,0,0,.853-1.277,3.674,3.674,0,0,0,.355-1.492l.124-7A3.673,3.673,0,0,1,3591.4,662.487Z" fill="#ed759d"/>
                    </g>
                  </g>
                  <g id="Group_1307" data-name="Group 1307">
                    <path id="Path_2418" data-name="Path 2418" d="M3560.941,650.245c17.121.268,30.917,5.079,30.817,10.751s-14.061,10.043-31.182,9.777-30.912-5.082-30.811-10.75S3543.826,649.976,3560.941,650.245Z" fill="#e20613"/>
                    <path id="Path_2419" data-name="Path 2419" d="M3560.614,668.732c-17.595-.276-28.736-5.322-28.677-8.673.06-3.327,10.782-7.9,28.113-7.785.283,0,.569.005.856.008,17.595.276,28.739,5.325,28.68,8.678-.06,3.325-10.786,7.894-28.119,7.782C3561.182,668.74,3560.9,668.735,3560.614,668.732Z" fill="#ed9472"/>
                  </g>
                </g>
              </g>
              <g id="Group_1314" data-name="Group 1314">
                <g id="Group_1313" data-name="Group 1313" style="isolation: isolate">
                  <g id="Group_1311" data-name="Group 1311" style="isolation: isolate">
                    <g id="Group_1310" data-name="Group 1310" clip-path="url(#clip-path-3)">
                      <path id="Path_2420" data-name="Path 2420" d="M3630.83,667.672l-.555-6.982a3.692,3.692,0,0,1-.209,1.517,5.328,5.328,0,0,1-.726,1.346,9.491,9.491,0,0,1-1.767,1.789c-4.72,3.779-15.131,6.889-27.4,7.749-17.071,1.2-31.278-2.414-31.728-8.065l.556,6.981c.45,5.65,14.657,9.263,31.727,8.068,12.27-.862,22.682-3.969,27.4-7.751a9.428,9.428,0,0,0,1.765-1.792,5.182,5.182,0,0,0,.727-1.346A3.681,3.681,0,0,0,3630.83,667.672Z" fill="#ed759d"/>
                    </g>
                  </g>
                  <g id="Group_1312" data-name="Group 1312">
                    <path id="Path_2422" data-name="Path 2422" d="M3598.542,652.619c17.075-1.2,31.281,2.416,31.733,8.071s-13.028,11.205-30.1,12.4-31.278-2.414-31.728-8.065S3581.471,653.817,3598.542,652.619Z" fill="#ed759d"/>
                    <path id="Path_2423" data-name="Path 2423" d="M3593.172,671.278c-13.627-.087-22.321-3.391-22.561-6.4-.136-1.7,2.686-4,7.186-5.857,5.466-2.252,12.89-3.8,20.907-4.363,2.3-.162,4.6-.239,6.84-.224,13.629.088,22.322,3.4,22.563,6.411.266,3.343-10.547,8.987-28.1,10.218C3597.707,671.218,3595.406,671.293,3593.172,671.278Z" fill="#ed9472"/>
                  </g>
                </g>
              </g>
              <path id="Path_2424" data-name="Path 2424" d="M3595.137,673.308a99.828,99.828,0,0,0,18.541-2.524" fill="none" stroke="#0d0d0c" stroke-linecap="round" stroke-linejoin="round" stroke-width="1.832"/>
              <path id="Path_2425" data-name="Path 2425" d="M3629.882,663.241c.071.232.167-1.265.184-1.034l.22.246c.511.232.76,2.393,1.165,2.674-.3.066-.634.133-.969.182h-.018a2.127,2.127,0,0,1-.318.066h-.017c-.512.083-1.058.166-1.64.232a12.594,12.594,0,0,0-1.639.281c-.053.017-.106.017-.141.033a4.823,4.823,0,0,0-2.909,1.721.016.016,0,0,1-.017.016,4.759,4.759,0,0,0-.564,1.158c-.635,1.8-.618,4.053-3.4,6.121-.035.033-.088.066-.123.1a3.426,3.426,0,0,1-.6.348c-2.7,1.191-7.738-.381-12.392-2-.018,0-.018-.016-.036-.016-.44-.166-.881-.315-1.3-.464-.194-.082-.388-.148-.582-.215-.017,0-.035-.016-.07-.016h-.036c-1.78-.645-3.437-1.241-4.812-1.605h-.035a11.523,11.523,0,0,0-1.816-.331,3.53,3.53,0,0,0-.582,0,22.013,22.013,0,0,0-3.508.546h-.035a10.339,10.339,0,0,0-3,1.158,4.624,4.624,0,0,0-1.058.794h-.035c-2.962,2.647-1.534,6.369-5.43,6.518-4.759.182-13.327-3.954-17.751-5.657a6.787,6.787,0,0,0-1.781-.43h-.035a12.863,12.863,0,0,0-6.205,1.025c-.564.2-1.076.43-1.622.678h-.035c-1.6.679-3.121,1.423-4.548,1.969h-.036a15.741,15.741,0,0,1-1.639.529c-.018,0-.035.017-.053.017a7.969,7.969,0,0,1-1.9.248h-.053a2.891,2.891,0,0,1-.758-.1,6.952,6.952,0,0,1-1.851-.678,8.32,8.32,0,0,1-1.5-1.01c-.282-.231-.564-.48-.829-.728a40.266,40.266,0,0,0-3.314-3.06,8.994,8.994,0,0,0-1.974-1.108c-.106-.034-.212-.083-.3-.116-.211-.083-.405-.166-.6-.248h-.018c-.247-.083-.476-.182-.705-.249h-.018a16.172,16.172,0,0,0-6.4-1.306.034.034,0,0,0-.053,0,15.633,15.633,0,0,0-2.891.347v.017c-.229.049-.476.1-.705.165-.388.083-.776.182-1.181.3-.035.016-.07.016-.106.033a6.076,6.076,0,0,1-.635.132,10.58,10.58,0,0,1-1.6.149,20.81,20.81,0,0,1-2.292.017c-1.2-.033-2.5-.133-3.825-.265q-1.032-.1-2.063-.248h-.018c-1.393-.2-2.7-.447-3.843-.711h-.018a.065.065,0,0,0-.052-.017,13.509,13.509,0,0,1-2.715-.927c-.688-.363-.917-.628-.846-.909v-.017a.851.851,0,0,1,.317-.48.616.616,0,0,1,.106-.115c.881-.811,2.609-1.919.317-4.632-.123-.133-.229-.265-.37-.4a4.855,4.855,0,0,0-.405-.43,8.4,8.4,0,0,0-1.358-1.01l-.018-.016c-.282-.133-.546-.281-.846-.4a7.491,7.491,0,0,0-1.71-.529h-.017a12,12,0,0,0-1.34-.183,24.305,24.305,0,0,0-2.732-.115,5.294,5.294,0,0,1,1.763-1.754c-2.539-.546-3.378-1.219-6.622-1.467-.405-.033-2.88.144-3.268.045.3-.215.758.281,1.3-.05a23.543,23.543,0,0,0,2.063-1.373,25.078,25.078,0,0,0,5.324-5.178c.229-.314.44-.612.617-.91.352-.546.616-1.026.846-1.439.053-.083.088-.166.123-.232a4.123,4.123,0,0,1,.247-.4v-.016a4.162,4.162,0,0,1,.388-.612c.07-.1.141-.183.211-.265l.529.579,1.128,1.191.018.016.635.695c.158.149.317.3.476.43,6.17,5.311,17.1,4.732,24.75,5.84,1.322.2,2.626.381,3.931.579,1.252.165,2.5.347,3.755.53l2.274.3h.018c6.363.86,12.622,1.6,18.88,2.068.194.017.405.033.6.033,1.093.083,2.169.149,3.261.2h.018a.658.658,0,0,0,.176.016H3563c1.516.083,3.014.132,4.53.166,1.252.049,2.5.049,3.738.049.405,0,.793,0,1.2-.016.653,0,1.3,0,1.975-.017q3.041-.075,6.082-.3h.035c1.34-.082,2.7-.2,4.019-.331h.018c.6-.066,1.181-.132,1.78-.215.318-.033.635-.066.952-.116h.053c.705-.082,1.41-.181,2.1-.3,1.481-.2,2.962-.447,4.461-.728h.035q1.349-.247,2.7-.546c1.71-.364,3.385-.794,5.077-1.274h.036c2.221-.628,4.424-1.323,6.61-2.035a168.811,168.811,0,0,1,16.853-5.012c.017,0,.053-.017.07-.017a1.889,1.889,0,0,0,.335-.082h.018c.776-.166,1.445-.331,2.01-.464h.017c.229-.049.441-.1.635-.148a4.028,4.028,0,0,1,1.3-.133.974.974,0,0,1,.211.033c.458.133.564.6.405,1.6-.194-.2-1.006-1.475-1.217-1.657-.212,1.257-2.573,4.18-2.379,5.107-.318,1.339,1.145,2.127,1.215,3.086l1.394-.4a5.992,5.992,0,0,0,.352,1.589c1.041,2.961,4.143,3.656,5.924,4.268q.264.1.476.2C3635.329,661.6,3633.672,662.613,3629.882,663.241Z"/>
              <path id="Path_2426" data-name="Path 2426" d="M3636.422,659.205a3.159,3.159,0,0,1-.405,1.224c-.688,1.175-2.345,2.184-6.135,2.812a2.967,2.967,0,0,1-.37.067,10.806,10.806,0,0,1-1.093.148h-.018a4.472,4.472,0,0,1-.458.067.659.659,0,0,0-.194.033,10.749,10.749,0,0,0-1.71.314h-.017a4.549,4.549,0,0,0-2.927,1.8,1.552,1.552,0,0,0-.211.364,4.813,4.813,0,0,0-.494,1.324v.016c-.106.314-.194.629-.282.96v.016c0,.033-.018.05-.018.083a7.394,7.394,0,0,1-3.085,4.533c-1.146.81-2.891.893-4.953.6h-.035c-.529-.116-1.076-.215-1.622-.3-.97-.215-1.975-.5-3-.794-.335-.115-.688-.215-1.04-.331-.194-.066-.388-.132-.582-.181h-.017c-1.252-.414-2.486-.861-3.685-1.274-.952-.331-1.886-.662-2.75-.943h-.017a21.707,21.707,0,0,0-4.179-1.059h-.035a3.412,3.412,0,0,0-.705-.016,23.112,23.112,0,0,0-2.768.363,10.213,10.213,0,0,0-4.953,2.1,6.675,6.675,0,0,0-1.481,1.919c-.053.1-.088.2-.141.3-1,2.134-.97,4.2-3.9,4.318-4.019.165-10.665-2.647-15.372-4.583-.987-.4-1.868-.761-2.644-1.058a8.872,8.872,0,0,0-4.3-.43,6.741,6.741,0,0,0-1.128.2,1.643,1.643,0,0,0-.282.05h-.017c-.071.016-.124.033-.194.049-.176.05-.335.083-.512.149-.405.1-.81.232-1.2.364v.017c-2.344.794-4.654,1.985-6.734,2.762l-.018.017a8.676,8.676,0,0,1-4.583.744,6.81,6.81,0,0,1-1.076-.314,12.531,12.531,0,0,1-4.23-3.11c-.37-.381-.758-.761-1.164-1.125a10.133,10.133,0,0,0-3.12-2.035c-5.271-2.051-7.81-2.58-13.186-1.075a17.841,17.841,0,0,1-4.831.3c-.563-.017-1.163-.05-1.78-.083h-.018c-1.339-.1-2.714-.248-4.036-.43-.864-.132-1.693-.265-2.468-.414-.864-.165-1.657-.347-2.345-.546-.546-.165-1.04-.33-1.445-.5-.142-.066-.283-.116-.406-.182a4.255,4.255,0,0,1-.405-.231.943.943,0,0,0-.159-.116l-.106-.1a1.152,1.152,0,0,1-.141-.165c-.017-.016-.035-.016-.017-.033-.423-.86,2.186-1.473,1.851-3.474a3.082,3.082,0,0,0-.3-.893,5.338,5.338,0,0,0-.582-.894l-.018-.016-.211-.248a6.391,6.391,0,0,0-.828-.827.912.912,0,0,0-.283-.232,6.227,6.227,0,0,0-.969-.711,8.87,8.87,0,0,0-2.591-.96c-2.539-.546-5.448-.215-8.692-.463a7.956,7.956,0,0,1-3.86-1.406c-.018,0-.018-.017-.035-.017a1.091,1.091,0,0,1-.282-.364v-.033c-.018-.016-.018-.016-.018-.033a.228.228,0,0,1,.071-.165l.017-.017c.353-.446,1.939-1.108,3.7-2.432.9-.661,1.675-1.306,2.345-1.886a.822.822,0,0,0,.106-.115c.546-.5,1.039-.96,1.463-1.406a.017.017,0,0,1,.017-.017c.547-.6,1-1.141,1.41-1.654a.5.5,0,0,1,.089-.116c.282-.4.529-.778.758-1.142.141-.215.264-.43.387-.628v-.017c.018-.016.018-.016.018-.033.088-.165.176-.314.247-.446a9.2,9.2,0,0,1,1.04-1.589l1.3,1.373.934.977.106.115c.1.1.211.182.317.282a11.371,11.371,0,0,0,1.445,1.108l.018.016a17.66,17.66,0,0,0,3.226,1.671c6.258,2.5,14.473,2.333,20.59,3.21,3.032.43,6.011.86,8.991,1.273h.017c1.64.216,3.244.43,4.866.629,1.146.149,2.291.281,3.437.414q5.421.645,10.806,1.075a3.255,3.255,0,0,1,.388.033c.706.05,1.41.1,2.116.132h.017c.653.05,1.3.083,1.957.116,2.874.166,5.747.248,8.638.265,1.234.016,2.468,0,3.7-.033.687-.017,1.357-.033,2.027-.066,1.481-.05,2.944-.133,4.425-.232.4-.016.793-.05,1.2-.1h.018c.616-.033,1.2-.083,1.815-.133h.017c1.358-.149,2.751-.3,4.126-.5h.017c2.979-.364,5.994-.86,9.026-1.505,1.6-.331,3.173-.728,4.742-1.158h.018c2.432-.662,4.865-1.407,7.245-2.184a.059.059,0,0,0,.035-.017c1.887-.595,3.755-1.207,5.641-1.836a.069.069,0,0,0,.053-.016c3.279-1.043,6.576-2.035,9.908-2.8a.054.054,0,0,1,.035-.017l1.322-.3c.37-.083.723-.149,1.04-.232.212-.049.406-.083.6-.132a.14.14,0,0,1,.071-.017h.017c.406-.1.758-.182,1.076-.248.176-.05.353-.083.493-.116a7.53,7.53,0,0,1,.882-.116h.176c.829.033.97.563.653,2.1-.071.281-.142.6-.212.927-.088.281-.159.579-.247.91-.723,2.679-.564,4.565.088,5.922v.016c1.693,3.557,6.664,3.425,7.122,4.583v.016A.344.344,0,0,1,3636.422,659.205Z" fill="#edde1d"/>
              <path id="Path_2427" data-name="Path 2427" d="M3499.662,635.164c-3.1.55-2.755,3.137-2.586,5.581.167,2.379.305,4.945,1.274,6.73,1.413,1.566,2.887,2.8,4.244,4.138,1.463,1.446,2.541,3.2,4.1,4.371a30.457,30.457,0,0,0,4.875,3.492c1.67.8,3.834.384,5.861.92,1.844.491,3.775.41,5.663.8,1.866.385,3.458,2.423,5.362,2.722,1.882.294,3.84.18,5.749.4s3.826.14,5.741.288c1.9.146,3.765,1.306,5.68,1.394s3.842.3,5.758.338,3.851.315,5.762.3,3.8-2.688,5.71-2.733,3.845.756,5.749.678c1.921-.079,3.888,1.1,5.788,1,1.925-.1,3.791-1.163,5.687-1.278,1.929-.116,3.858.12,5.749-.007,1.819-.117,3.745.685,5.707.62,1.86-.059,3.682-2.464,5.6-2.564,1.888-.1,3.992,2.31,5.881,2.086s3.679-1.712,5.517-2.153a33.176,33.176,0,0,0,5.425-1.9c1.755-.767,3.978-.93,5.54-2.1a25.373,25.373,0,0,0,4.133-4.455c1.159-1.452,1.005-3.943,1.923-5.844a33.476,33.476,0,0,0,1.98-5.473,5.693,5.693,0,0,0-.454-4.806c-.745-1.639-.889-3.924-2.919-4.55a22.006,22.006,0,0,0-5.6-.462c-1.716-.034-3.683-.8-5.6-.6-1.776.182-3.475,1.816-5.311,2.132-1.815.312-3.742.074-5.514.456-1.861.4-3.759.464-5.457.875-1.961.478-3.7,1.312-5.272,1.709-2.54.638-4.357,1.624-5.267,1.7-1.823.143-3.593.972-5.415,1.125s-3.652.138-5.473.3-3.705-.493-5.527-.322-3.551,1.434-5.373,1.6-3.792-1.6-5.614-1.439-3.526,1.824-5.347,1.975-3.769-1.536-5.59-1.4-3.546,1.781-5.371,1.9-3.7-.93-5.526-.83-3.642.021-5.468.094-3.6,1.675-5.433,1.717c-1.646.037-3.831.53-6.247.621a61.544,61.544,0,0,1-6.337-.021c-2.175-.138-4.011-1.982-5.88-2.6-2.169-.719-4.26-.992-5.4-2.727a8.144,8.144,0,0,1-1.262-2.081C3500.481,635.773,3500.6,635.259,3499.662,635.164Z"/>
              <path id="Path_2428" data-name="Path 2428" d="M3497.46,634.69c-3.205.506-2.85,2.89-2.671,5.142.173,2.192.319,4.556,1.324,6.2,1.464,1.444,2.989,2.582,4.4,3.818,1.515,1.332,2.634,2.951,4.253,4.029a31.833,31.833,0,0,0,5.049,3.223c1.731.735,3.97.358,6.071.854,1.908.45,3.909.38,5.863.739,1.931.358,3.581,2.236,5.551,2.514,1.95.273,3.976.171,5.954.371,1.962.2,3.961.133,5.942.272s3.9,1.2,5.885,1.286,3.977.283,5.96.317,3.988.292,5.968.286,3.933-2.475,5.908-2.519,3.982.7,5.953.633c1.989-.07,4.027,1.017,5.993.927,1.993-.091,3.925-1.069,5.888-1.173,2-.106,3.994.112,5.95,0,1.886-.109,3.879.631,5.91.573,1.927-.053,3.81-2.266,5.8-2.358,1.955-.091,4.136,2.133,6.091,1.923s3.808-1.572,5.71-1.977a37.018,37.018,0,0,0,5.616-1.748c1.816-.706,4.117-.855,5.734-1.935a24.534,24.534,0,0,0,4.273-4.1c1.2-1.337,1.04-3.633,1.987-5.384a28.637,28.637,0,0,0,2.046-5.042,4.757,4.757,0,0,0-.474-4.431c-.772-1.51-.923-3.614-3.025-4.192a25.427,25.427,0,0,0-5.795-.434c-1.777-.029-3.813-.738-5.8-.556-1.838.165-3.6,1.67-5.5,1.961-1.877.285-3.872.065-5.706.417-1.926.369-3.891.424-5.65.8-2.03.437-3.825,1.208-5.455,1.57-2.631.586-4.511,1.491-5.454,1.558-1.887.132-3.719.894-5.6,1.034s-3.783.124-5.668.273-3.837-.455-5.722-.3-3.677,1.318-5.56,1.471-3.93-1.478-5.814-1.328-3.65,1.678-5.536,1.816-3.9-1.421-5.789-1.3-3.671,1.639-5.558,1.748-3.834-.862-5.723-.771-3.771.017-5.661.08-3.732,1.545-5.623,1.582c-1.7.031-3.967.483-6.468.568-2.077.071-4.375.1-6.56-.026-2.253-.131-4.154-1.828-6.09-2.4-2.248-.665-4.413-.919-5.595-2.517a7.51,7.51,0,0,1-1.307-1.919C3498.31,635.25,3498.43,634.777,3497.46,634.69Z" fill="#db6729"/>
              <path id="Path_2429" data-name="Path 2429" d="M3556.8,660c-.933-.007-4.752.287-5.711.269-1.111-.019-2.356,1.4-3.476,1.326-.824-.056-1.631-.443-2.477-.478a13.735,13.735,0,0,1-2.632-.846c-1.039-.314-1.965-1.171-3.151-1.253-.905-.062-1.782-1.135-2.651-1.155-1.116-.029-2.189,1.013-3.221.907-.956-.1-1.88-.915-2.793-.946-1.078-.032-2.157,1.015-3.126.88-.6-.085-1.27-.75-2.045-1.221-.963-.589-1.953-1.856-3.256-2.1a28.887,28.887,0,0,0-2.947-.239,16.983,16.983,0,0,1-2.724-.69c-1.095-.258-2.391.221-3.348.173-1.009-.054-2.4,1.091-3.052.814-1.14-.484-1.86-1.972-2.951-2.761-.472-.344-.111-1.813-.615-2.148-.791-.525-2.245-.291-2.992-1.087-.558-.594-.76-1.582-1.432-2.171-.513-.45-1.309-.628-1.844-1.073-.852-.7-1.773-1.366-2.608-2.173-.656-1.227.082-3.159-.063-5-.022-.3-.645-.261-.669-.565-.133-1.608.229-1.686.508-1.995.008.021-.079-.682-.071-.659.268.792,1.172.922,1.595,1.437.117.142-.586.88-.485,1.018a6.389,6.389,0,0,0,2.168,2.178c.963.453,1.771,1.676,2.744,1.93.406.107,1.373-1.561,1.791-1.436.571.169.625,1.8,1.326,2.169a12.916,12.916,0,0,0,5,1.229c.9.052,1.9.109,2.935.117,1.151.007,2.414-.184,3.84-.231,1.4-.049,2.817.4,3.977.268a21.6,21.6,0,0,1,2.476-.043c1.337-.023,2.028-2.5,3.075-2.924.777-.319,2.01.984,2.578.963.835-.028,1.638.466,2.509.466,1.027,0,2.082-1.2,3.15-1.245.059,0,.116,1.145.174,1.145.62,0,1.23-.394,2-.218.9.2,2.05-.657,3.117-.651.158,0,.386,1.786.543,1.777a12.845,12.845,0,0,0,3.973-1.125c.77-.344,1.021-.8,1.6-.834.031,0-.01-.945.021-.945.507,0,.787,1.357,1.5,1.617.991.362,2.565.014,3.785.022.142,0,.353.459.5.448,1.314-.095,1.847-2.477,2.862-2.942.766-.353,2.04.371,2.617.329.031,0,.061.188.092.188a5.485,5.485,0,0,1,2.013.155c.993.374,2.029,1.91,3.254,1.918.151,0,.232-1.77.381-1.783,1.215-.1,2.752,1.2,3.733.849a8.385,8.385,0,0,1,1.977-.719c.164-.012.273-1.366.462-1.364a18.552,18.552,0,0,1,2.018.089c.767.091,1.462,1.994,2.291,2,.3,0,.52-2.014.8-2.037.915-.072,1.925,1.249,2.893,1.216.932-.032,1.967.5,2.935.433,1.1-.081,1.738-2.451,2.724-2.69a17.276,17.276,0,0,1,2.7-.4c.713-.051,1.809,1.408,2.839,1.062.893-.3,1.641-1.739,2.907-2.023.849-.189,1.666-.394,2.549-.677.929-.3,1.913-.655,2.9-.87a26.312,26.312,0,0,1,2.7-.572c.945-.106,1.854-.3,2.852-.491.808-.154,1.861.92,2.825.894s1.826-1.126,2.835-1.281c1.218-.184,1.841-1.138,2.793-1.593a8.072,8.072,0,0,1,2.618-.4c.165-.014.4,1.3.588,1.3.751.005,1.577-.661,2.426-.52s1.716,1.158,2.612,1.174c.3.006.608-.746.9-.742,1.684.018,2.968,1.01,4.093,1.317.537.15.14-.1.612,1.166.171.459,1.3.616,1.54,1.085.016.034-.146.1-.129.135.586,1.148,1.3,1.613.827,3.1-.651,2.041-.524,3.862-1.218,5.142-.527.975-1.5,1.575-1.709,2.487-.2.878-1.9,1.59-1.992,1.7a20.7,20.7,0,0,1-3.438,3.574c-.715.478-1.288,1.5-2.407,1.77-.814.2-1.931-.292-2.741.022a28.986,28.986,0,0,1-5.312,1.222c-1.059.227-1.707,1.758-2.63,2.168s-5.744-3.148-7.521-1.773c-1.162.9-4.238.8-5.345,1.454a2.348,2.348,0,0,1-1.545.241c-.069,0-1.675.993-2.507.857a18.165,18.165,0,0,0-2.854-.186c-.19,0-.386-.133-.574-.123-.4.023-2.325.221-2.808.208-.515-.015-1.026-.415-1.542-.418-.587-.005-1.069.914-1.549.94a14.333,14.333,0,0,0-3.208.536,7.819,7.819,0,0,1-2.861-.3c-.657,0-4.34-.871-5.5-.878-.1,0-.21.148-.311.15-.077,0-.147-.077-.224-.078-.728,0-1.678.841-2.522.694-.975-.167-3.071-.613-3.161-.608-1.548.031-2.137,1.306-3.272,2.026-.63.4-1.934-.151-2.347-.148C3557.033,660.435,3556.905,660,3556.8,660Z" fill="#db6729"/>
              <path id="Path_2430" data-name="Path 2430" d="M3552.755,647.288c-.536,2.465,10.533,18.131,15.874,18.313,3.141.107,10.11-7.987,12.829-9.312a48.9,48.9,0,0,1,13.241-4.367Z"/>
              <path id="Path_2431" data-name="Path 2431" d="M3548.769,651.219c-.018,2.517,14.072,15.878,19.35,15.088,3.1-.465,8.272-9.673,10.667-11.465a47.669,47.669,0,0,1,12.09-6.693Z" fill="#f49d29"/>
              <path id="Path_2432" data-name="Path 2432" d="M3565.753,664.968c-4.132-.027-13.948-8.809-16.7-12.552l32.627-2.38a53.98,53.98,0,0,0-5.673,3.729,26.742,26.742,0,0,0-3.974,4.688c-1.646,2.2-4.706,6.3-6.019,6.5a1.721,1.721,0,0,1-.26.016Z" fill="#edde1d"/>
              <path id="Path_2433" data-name="Path 2433" d="M3633.017,633.455c-.566,20.584-39.047,25.173-70.236,24.428-22.987-.551-50.753-1.051-63.159-11.326h-.005a17.286,17.286,0,0,1-6.5-15.184,48.419,48.419,0,0,1,.981-6.671c4.619-16.151,27.8-40.243,69.25-38.767a101.965,101.965,0,0,1,14.273,1.5c32.355,5.75,51.894,26.1,55.7,40.357C3633.808,629.641,3633.057,631.853,3633.017,633.455Z" fill="#fdd89b"/>
              <path id="Path_2434" data-name="Path 2434" d="M3633.017,633.455c-.566,20.584-39.047,25.173-70.236,24.428-22.987-.551-50.753-1.051-63.159-11.326,24.553,3.834,45.628,3.919,59.511,2.8,17.971-1.457,48.029-7.032,52.274-26.3,3.015-13.68-20.009-28.578-33.562-35.474a1.241,1.241,0,0,1-.225-.145c32.355,5.75,51.894,26.1,55.7,40.357C3633.808,629.641,3633.057,631.853,3633.017,633.455Z" fill="#edc080"/>
              <path id="Path_2435" data-name="Path 2435" d="M3526.236,592.39q1.525-.642,3.113-1.233" fill="none" stroke="#0d0d0c" stroke-linecap="round" stroke-linejoin="round" stroke-width="1.832"/>
              <path id="Path_2436" data-name="Path 2436" d="M3537.825,588.526a90.878,90.878,0,0,1,25.522-2.591c40.873,1.455,65.636,25.613,69.968,41.858.493,1.85-.257,4.06-.3,5.66-.561,20.588-39.045,25.175-70.235,24.429s-70.39-1.368-69.662-26.507c.165-5.7,2.64-18.981,21.114-32.2" fill="none" stroke="#0d0d0c" stroke-linecap="round" stroke-linejoin="round" stroke-width="1.832"/>
              <g id="Group_1315" data-name="Group 1315">
                <path id="Path_2437" data-name="Path 2437" d="M3550.965,609.489c-.493.9.941,1.79,1.441.877.713-1.3,1.881-2.361,2.229-3.825C3554.871,605.551,3551.61,608.306,3550.965,609.489Z" fill="#ffefdc"/>
                <path id="Path_2438" data-name="Path 2438" d="M3568.168,608.1a28.784,28.784,0,0,0-2.818-2.7c-.853-.639.639,2.888,1.572,3.8C3567.687,609.943,3568.932,608.844,3568.168,608.1Z" fill="#ffefdc"/>
                <path id="Path_2439" data-name="Path 2439" d="M3590.778,606.553c-.958-.571-4.388-.828-3.68-.207a17.684,17.684,0,0,0,2.777,1.561C3590.813,608.47,3591.71,607.11,3590.778,606.553Z" fill="#ffefdc"/>
                <path id="Path_2440" data-name="Path 2440" d="M3580.736,603.587c-.52-.937-3.353-2.73-3.077-1.868a15.9,15.9,0,0,0,1.559,2.627C3579.726,605.262,3581.241,604.5,3580.736,603.587Z" fill="#ffefdc"/>
                <path id="Path_2441" data-name="Path 2441" d="M3597.075,602.057c-.958-.573-4.388-.829-3.679-.208a17.785,17.785,0,0,0,2.774,1.561C3597.11,603.974,3598.007,602.613,3597.075,602.057Z" fill="#ffefdc"/>
                <path id="Path_2442" data-name="Path 2442" d="M3607.28,603.657c-.732-.8-3.926-1.977-3.449-1.19a16.485,16.485,0,0,0,2.156,2.24C3606.7,605.5,3607.992,604.442,3607.28,603.657Z" fill="#ffefdc"/>
                <path id="Path_2443" data-name="Path 2443" d="M3581.949,612.944c-.081-1.047-1.923-3.718-2.036-2.822a14.609,14.609,0,0,0,.317,2.975C3580.308,614.125,3582.027,613.964,3581.949,612.944Z" fill="#ffefdc"/>
                <path id="Path_2444" data-name="Path 2444" d="M3561.832,614.868c.308-1.01-.442-4.1-.877-3.289a14.876,14.876,0,0,0-.8,2.9C3559.852,615.47,3561.53,615.852,3561.832,614.868Z" fill="#ffefdc"/>
                <path id="Path_2445" data-name="Path 2445" d="M3538.771,613.9c.672-.849,1.127-3.985.415-3.367a15.94,15.94,0,0,0-1.838,2.47C3536.69,613.835,3538.12,614.73,3538.771,613.9Z" fill="#ffefdc"/>
                <path id="Path_2446" data-name="Path 2446" d="M3519.619,607.28c.951-.579,2.576-3.368,1.675-3.02a17.658,17.658,0,0,0-2.664,1.717C3517.694,606.546,3518.693,607.844,3519.619,607.28Z" fill="#ffefdc"/>
                <path id="Path_2447" data-name="Path 2447" d="M3531.07,604.5c-1.527.061-2.627,1.017-3.929,1.622-1,.461-.154,1.847.841,1.385C3528.924,607.073,3532.182,604.458,3531.07,604.5Z" fill="#ffefdc"/>
                <path id="Path_2448" data-name="Path 2448" d="M3544.572,619.957c-.493.9.94,1.79,1.441.877.712-1.3,1.882-2.361,2.229-3.825C3548.479,616.021,3545.219,618.774,3544.572,619.957Z" fill="#ffefdc"/>
                <path id="Path_2449" data-name="Path 2449" d="M3581.085,619.65c-.459-.964-3.163-2.917-2.948-2.037a15.649,15.649,0,0,0,1.383,2.707C3579.966,621.263,3581.529,620.583,3581.085,619.65Z" fill="#ffefdc"/>
                <path id="Path_2450" data-name="Path 2450" d="M3590.683,612.528c-.959-.572-4.386-.831-3.68-.21a17.84,17.84,0,0,0,2.778,1.563C3590.717,614.442,3591.613,613.083,3590.683,612.528Z" fill="#ffefdc"/>
                <path id="Path_2451" data-name="Path 2451" d="M3600.888,614.127c-.733-.8-3.928-1.979-3.452-1.192a16.739,16.739,0,0,0,2.156,2.242C3600.308,615.967,3601.6,614.91,3600.888,614.127Z" fill="#ffefdc"/>
                <path id="Path_2452" data-name="Path 2452" d="M3598.637,630.91c-.731-.8-3.927-1.979-3.452-1.192a16.683,16.683,0,0,0,2.157,2.241C3598.057,632.749,3599.348,631.694,3598.637,630.91Z" fill="#ffefdc"/>
                <path id="Path_2453" data-name="Path 2453" d="M3594.267,621.891c-.191-1.036-2.309-3.53-2.326-2.628a14.8,14.8,0,0,0,.633,2.933C3592.759,623.211,3594.454,622.9,3594.267,621.891Z" fill="#ffefdc"/>
                <path id="Path_2454" data-name="Path 2454" d="M3608.947,612.915c-.733-.8-3.928-1.979-3.45-1.192a16.151,16.151,0,0,0,2.156,2.241C3608.368,614.756,3609.658,613.7,3608.947,612.915Z" fill="#ffefdc"/>
                <path id="Path_2455" data-name="Path 2455" d="M3614.905,629.856c-.731-.8-3.926-1.978-3.45-1.193a16.751,16.751,0,0,0,2.155,2.244C3614.325,631.7,3615.619,630.64,3614.905,629.856Z" fill="#ffefdc"/>
                <path id="Path_2456" data-name="Path 2456" d="M3569.149,622.728c-.083-1.047-1.925-3.719-2.038-2.824a14.573,14.573,0,0,0,.318,2.975C3567.506,623.907,3569.226,623.747,3569.149,622.728Z" fill="#ffefdc"/>
                <path id="Path_2457" data-name="Path 2457" d="M3555.437,625.338c.311-1.01-.44-4.1-.875-3.291a15.034,15.034,0,0,0-.8,2.9C3553.459,625.939,3555.137,626.321,3555.437,625.338Z" fill="#ffefdc"/>
                <path id="Path_2458" data-name="Path 2458" d="M3532.38,624.372c.67-.849,1.124-3.985.414-3.367a16.026,16.026,0,0,0-1.839,2.466C3530.3,624.3,3531.727,625.2,3532.38,624.372Z" fill="#ffefdc"/>
                <path id="Path_2459" data-name="Path 2459" d="M3513.226,617.751c.952-.579,2.576-3.371,1.674-3.02a17.452,17.452,0,0,0-2.664,1.717C3511.3,617.014,3512.3,618.312,3513.226,617.751Z" fill="#ffefdc"/>
                <path id="Path_2460" data-name="Path 2460" d="M3524.676,614.972c-1.523.06-2.625,1.016-3.928,1.623-1,.46-.152,1.845.84,1.387C3522.533,617.543,3525.79,614.927,3524.676,614.972Z" fill="#ffefdc"/>
                <path id="Path_2461" data-name="Path 2461" d="M3534.555,631.2c-.495.9.941,1.792,1.441.878.712-1.3,1.881-2.361,2.23-3.826C3538.461,627.26,3535.2,630.012,3534.555,631.2Z" fill="#ffefdc"/>
                <path id="Path_2462" data-name="Path 2462" d="M3571.069,630.889c-.458-.963-3.167-2.919-2.947-2.039a15.544,15.544,0,0,0,1.381,2.71C3569.948,632.5,3571.511,631.824,3571.069,630.889Z" fill="#ffefdc"/>
                <path id="Path_2463" data-name="Path 2463" d="M3590.872,625.367c-.735-.8-3.928-1.981-3.451-1.192a16.635,16.635,0,0,0,2.155,2.241C3590.292,627.206,3591.584,626.151,3590.872,625.367Z" fill="#ffefdc"/>
                <path id="Path_2464" data-name="Path 2464" d="M3606.954,624.27c-.735-.8-3.927-1.978-3.45-1.191a16.585,16.585,0,0,0,2.155,2.242C3606.375,626.112,3607.667,625.056,3606.954,624.27Z" fill="#ffefdc"/>
                <path id="Path_2465" data-name="Path 2465" d="M3584.253,633.128c-.193-1.033-2.312-3.529-2.331-2.626a15.14,15.14,0,0,0,.635,2.935C3582.744,634.45,3584.437,634.136,3584.253,633.128Z" fill="#ffefdc"/>
                <path id="Path_2466" data-name="Path 2466" d="M3619.212,624.51c-.732-.8-3.928-1.979-3.45-1.2a16.446,16.446,0,0,0,2.154,2.244C3618.631,626.349,3619.924,625.294,3619.212,624.51Z" fill="#ffefdc"/>
                <path id="Path_2467" data-name="Path 2467" d="M3619.383,616.821c-.73-.807-3.926-1.982-3.45-1.2a16.635,16.635,0,0,0,2.156,2.244C3618.8,618.658,3620.095,617.6,3619.383,616.821Z" fill="#ffefdc"/>
                <path id="Path_2468" data-name="Path 2468" d="M3559.13,633.968c-.08-1.048-1.924-3.718-2.035-2.826a14.488,14.488,0,0,0,.318,2.978C3557.489,635.147,3559.208,634.986,3559.13,633.968Z" fill="#ffefdc"/>
                <path id="Path_2469" data-name="Path 2469" d="M3545.422,636.576c.31-1.009-.442-4.095-.876-3.289a14.947,14.947,0,0,0-.8,2.9C3543.441,637.178,3545.12,637.56,3545.422,636.576Z" fill="#ffefdc"/>
                <path id="Path_2470" data-name="Path 2470" d="M3522.363,635.612c.669-.85,1.124-3.986.414-3.369a15.949,15.949,0,0,0-1.838,2.469C3520.279,635.544,3521.71,636.438,3522.363,635.612Z" fill="#ffefdc"/>
                <path id="Path_2471" data-name="Path 2471" d="M3503.209,628.988c.953-.577,2.575-3.367,1.674-3.018a17.541,17.541,0,0,0-2.664,1.717C3501.284,628.255,3502.283,629.552,3503.209,628.988Z" fill="#ffefdc"/>
                <path id="Path_2472" data-name="Path 2472" d="M3514.659,626.213c-1.524.06-2.624,1.014-3.928,1.621-.995.46-.153,1.847.841,1.387C3512.516,628.782,3515.773,626.167,3514.659,626.213Z" fill="#ffefdc"/>
                <path id="Path_2473" data-name="Path 2473" d="M3536.147,594.774c-.894.608.316,1.748,1.2,1.145a10.919,10.919,0,0,1,4.555-1.826C3543,593.924,3537.743,593.678,3536.147,594.774Z" fill="#ffefdc"/>
                <path id="Path_2474" data-name="Path 2474" d="M3545.389,600.405c-.672.819.81,1.642,1.472.828.615-.748,1.445-1.319,2.062-2.075C3549.5,598.459,3546.194,599.421,3545.389,600.405Z" fill="#ffefdc"/>
                <path id="Path_2475" data-name="Path 2475" d="M3549.494,594.938c-.671.818.81,1.641,1.473.829.615-.751,1.445-1.323,2.062-2.077C3553.6,592.989,3550.3,593.951,3549.494,594.938Z" fill="#ffefdc"/>
                <path id="Path_2476" data-name="Path 2476" d="M3538,604.156c-.672.819.81,1.637,1.473.828.614-.753,1.444-1.322,2.063-2.078C3542.1,602.205,3538.8,603.169,3538,604.156Z" fill="#ffefdc"/>
                <path id="Path_2477" data-name="Path 2477" d="M3562.943,597.2a1.19,1.19,0,0,1-.306-.733c-.062-1.476-1.45,1.636-.952,2.346C3562.443,599.9,3563.7,598.283,3562.943,597.2Z" fill="#ffefdc"/>
                <path id="Path_2478" data-name="Path 2478" d="M3572.6,595.351c-.6-.325-3.566-.258-2.607.26.6.324,1.1.77,1.7,1.093C3572.661,597.221,3573.561,595.867,3572.6,595.351Z" fill="#ffefdc"/>
                <path id="Path_2479" data-name="Path 2479" d="M3564.525,590.615c-.6-.321-3.567-.255-2.6.263.6.322,1.1.769,1.7,1.093C3564.587,592.49,3565.487,591.135,3564.525,590.615Z" fill="#ffefdc"/>
                <path id="Path_2480" data-name="Path 2480" d="M3587.112,593.96c-1.016-.331-4.244.925-3.133.97a9.443,9.443,0,0,1,2.638.553A.8.8,0,1,0,3587.112,593.96Z" fill="#ffefdc"/>
              </g>
            </g>
            <path id="Path_2481" data-name="Path 2481" d="M3499.5,663.161c3.246,4.744,7.551,7.468,17.147,10.725s24.367,4.332,24.367,4.332" fill="none" stroke="#0d0d0c" stroke-linecap="round" stroke-linejoin="round" stroke-width="1.832"/>
          </g>
        </g>
      </g>
    </g>
    <line id="Line_147" data-name="Line 147" x1="3.048" y2="9.735" transform="translate(3412.411 596.09)" fill="none" stroke="#0d0d0c" stroke-linecap="round" stroke-linejoin="round" stroke-width="2"/>
  </g>
</svg>
