<svg id="Food_card" data-name="Food card" xmlns="http://www.w3.org/2000/svg" xmlns:xlink="http://www.w3.org/1999/xlink" width="278.519" height="115.529" viewBox="0 0 278.519 115.529">
  <defs>
    <clipPath id="clip-path">
      <path id="Path_2674" data-name="Path 2674" d="M-3298.208,1400.982l-.585,2.5c-.474,2.021-5.807,2.638-11.911,1.378s-10.668-3.917-10.2-5.938l.585-2.5c-.473,2.02,4.092,4.68,10.2,5.939S-3298.681,1403-3298.208,1400.982Z" transform="translate(3320.932 -1396.422)" fill="none"/>
    </clipPath>
    <clipPath id="clip-path-2">
      <path id="Path_2685" data-name="Path 2685" d="M-3276.437,1396.56l-.045,2.554c-.037,2.069-5.133,3.667-11.383,3.569s-11.285-1.855-11.248-3.924l.046-2.555c-.037,2.069,5,3.825,11.248,3.924S-3276.474,1398.628-3276.437,1396.56Z" transform="translate(3299.113 -1396.205)" fill="none"/>
    </clipPath>
    <clipPath id="clip-path-3">
      <path id="Path_2689" data-name="Path 2689" d="M-3250.3,1396.656l.2,2.549c.164,2.063-4.756,4.09-10.989,4.527s-11.417-.883-11.582-2.945l-.2-2.548c.165,2.063,5.351,3.381,11.582,2.944S-3250.134,1398.719-3250.3,1396.656Z" transform="translate(3272.87 -1396.656)" fill="none"/>
    </clipPath>
  </defs>
  <g id="Group_1400" data-name="Group 1400" transform="translate(0 0)">
    <rect id="Rectangle_80" data-name="Rectangle 80" width="278.519" height="115.529" rx="7.164" fill="#fff"/>
    <rect id="Rectangle_81" data-name="Rectangle 81" width="123.379" height="95.805" rx="6" transform="translate(10.243 9.413)" fill="#edde1d"/>
    <g id="Group_1399" data-name="Group 1399" transform="translate(22.081 30.391)">
      <g id="Group_1376" data-name="Group 1376" transform="translate(8.587 14.204)">
        <ellipse id="Ellipse_113" data-name="Ellipse 113" cx="45.559" cy="18.815" rx="45.559" ry="18.815" transform="translate(0 4.415)"/>
        <path id="Path_2655" data-name="Path 2655" d="M-3279.3,1376.526s4.554-4.477,14.488-4.912l16.443,3.95c9.19-.551,9.6,2.463,9.1,3.822a49.837,49.837,0,0,1,5.5,3.888c2.66,2.2-4.09,5.5-4.09,5.5Z" transform="translate(3317.86 -1371.614)"/>
      </g>
      <g id="Group_1398" data-name="Group 1398" transform="translate(0 0)">
        <g id="Group_1397" data-name="Group 1397">
          <g id="Group_1378" data-name="Group 1378" transform="translate(0 21.015)">
            <g id="Group_1377" data-name="Group 1377">
              <ellipse id="Ellipse_114" data-name="Ellipse 114" cx="48.744" cy="17.658" rx="48.744" ry="17.658" fill="#fff"/>
              <path id="Path_2656" data-name="Path 2656" d="M-3271.045,1407.826c-.59,5.277-18.684,10.55-37.463,10.55s-34.917-3.982-37.732-10.482c.719-6.7,15.951-10.618,37.732-10.618S-3271.764,1401.126-3271.045,1407.826Z" transform="translate(3357.253 -1390.236)" fill="#c9d6e8"/>
              <path id="Path_2657" data-name="Path 2657" d="M-3344.028,1409.174a.438.438,0,0,1-.262-.086c-2.123-1.547-3.2-3.219-3.2-4.969,0-6.855,16.869-12.225,38.405-12.225,17.675,0,32.983,3.758,37.224,9.14a.446.446,0,0,1-.074.626.446.446,0,0,1-.626-.074c-4.019-5.1-19.38-8.8-36.524-8.8-20.334,0-37.514,5.19-37.514,11.334,0,1.449.953,2.878,2.832,4.248a.446.446,0,0,1,.1.623A.445.445,0,0,1-3344.028,1409.174Z" transform="translate(3357.828 -1387.76)" fill="#0d0d0c"/>
              <path id="Path_2658" data-name="Path 2658" d="M-3286.352,1429.641c-3.867,0-7.682-.179-11.341-.533a.446.446,0,0,1-.4-.486.449.449,0,0,1,.487-.4c3.63.351,7.417.529,11.255.529,16.134,0,30.451-3.155,35.626-7.85a.446.446,0,0,1,.63.03.446.446,0,0,1-.031.63C-3255.455,1426.394-3270.012,1429.641-3286.352,1429.641Z" transform="translate(3335.096 -1401.056)" fill="#0d0d0c"/>
            </g>
          </g>
          <path id="Path_2659" data-name="Path 2659" d="M-3239.813,1404.557c6.555-2.576,8.223-5.544,7.795-7.038,0,0,1.287.205,1.43-.049a3.4,3.4,0,0,0,0-1.215,1.085,1.085,0,0,0,1.608-.4c.537-1.075.447-1.485.447-1.485a4.861,4.861,0,0,0,1.553.951c.825.269.587-1.312.2-2.094a2.246,2.246,0,0,0,2.43-2.3,4.445,4.445,0,0,0-1.1-3.431l-18.873-4.2Z" transform="translate(3310.344 -1362.789)"/>
          <g id="Group_1396" data-name="Group 1396" transform="translate(21.402)">
            <g id="Group_1395" data-name="Group 1395">
              <path id="Path_2660" data-name="Path 2660" d="M-3276.747,1412.668c-10.829,6.846-36.814,5.844-44.494-1.226a10.116,10.116,0,0,1-3.216-8.643,2.114,2.114,0,0,1,2.521-1.809,97.064,97.064,0,0,0,46.455,1.28,2.133,2.133,0,0,1,2.431,1.946A8.4,8.4,0,0,1-3276.747,1412.668Z" transform="translate(3325.876 -1370.9)" fill="#fdd89b"/>
              <path id="Path_2661" data-name="Path 2661" d="M-3318.308,1414.684c1.191,4.762,11.435,8.691,21.222,8.639,7.021-.037,11.959-.561,18.671-3.105,1.939-.735,8-4.882,5.423-6.136a67.124,67.124,0,0,1-21.191,4.367c-6.744.329-12.26-.883-18.7-2.725C-3314.594,1415.232-3318.733,1412.983-3318.308,1414.684Z" transform="translate(3323.011 -1376.944)" fill="#edc080"/>
              <path id="Path_2662" data-name="Path 2662" d="M-3269.3,1413.443c1.186-.347,3.223.521,5.011.284a13.555,13.555,0,0,1,3.718.042c2.018.106,3.768.316,5.859-.636s4.118-.572,4.919-1.645.262-3.345.262-3.345Z" transform="translate(3300.443 -1374.222)"/>
              <path id="Path_2663" data-name="Path 2663" d="M-3298.351,1417.369q-1.084,0-2.184-.035c-9.5-.3-17.677-2.576-21.329-5.94a10.5,10.5,0,0,1-3.339-9.028,2.859,2.859,0,0,1,1.264-1.862,2.235,2.235,0,0,1,1.763-.257,96.117,96.117,0,0,0,46.261,1.276,2.237,2.237,0,0,1,1.744.351A2.877,2.877,0,0,1-3273,1403.8a8.8,8.8,0,0,1-3.881,8.864C-3281.6,1415.651-3289.515,1417.369-3298.351,1417.369Zm-24.414-16.385a1.436,1.436,0,0,0-.751.218,2.041,2.041,0,0,0-.89,1.334,9.767,9.767,0,0,0,3.093,8.257c7.679,7.07,33.585,7.766,44,1.182h0c4.246-2.684,3.6-7.5,3.512-8.042a2.063,2.063,0,0,0-.829-1.384,1.408,1.408,0,0,0-1.113-.228,96.936,96.936,0,0,1-46.649-1.286A1.411,1.411,0,0,0-3322.764,1400.984Z" transform="translate(3326.224 -1370.552)" fill="#0d0d0c"/>
              <path id="Path_2664" data-name="Path 2664" d="M-3273.019,1401.408c-.083.26-.161.513-.251.749a6.623,6.623,0,0,1-.335.839c-.038.091-.084.181-.129.266a3.321,3.321,0,0,1-.392.574c-.277.344-.592.628-.882.954-.482.537-.682,1.238-1.255,1.618a9.391,9.391,0,0,1-1.917.882.5.5,0,0,1-.1.03,19.36,19.36,0,0,1-2.008.236c-.695.145-1.351.284-2.066.362s-1.371.773-2.085.8-1.473-.628-2.181-.61c-.74.024-1.454.386-2.143.429-.714.043-1.429.151-2.156.193s-1.448-.127-2.175-.1-1.416.695-2.143.719-1.468-.809-2.195-.8-1.435.544-2.156.55a3.427,3.427,0,0,1-1.1-.254,5.947,5.947,0,0,0-.663-.193,1.519,1.519,0,0,0-.4-.054,1.36,1.36,0,0,0-.406.067.02.02,0,0,1-.013.006,3.563,3.563,0,0,0-.5.217,7.718,7.718,0,0,1-.746.369,1.369,1.369,0,0,1-.206.072,1.211,1.211,0,0,1-.328.036c-.727-.024-1.435-.417-2.149-.465s-1.448-.139-2.163-.212-1.416-.32-2.123-.423-1.532.266-2.233.133-1.294-.839-1.989-1.008a15.749,15.749,0,0,1-2.227-.284,1.151,1.151,0,0,0-.129-.049,10.984,10.984,0,0,1-1.963-.809,2.856,2.856,0,0,1-.76-1.262,2.233,2.233,0,0,0-.3-.5.751.751,0,0,0-.136-.145,3.268,3.268,0,0,0-1.171-.489.1.1,0,0,1-.039-.012,2.271,2.271,0,0,1-.953-.477,2.66,2.66,0,0,1-.238-1.3c0-.441.025-.894,0-1.268-.065-.761-.045-1.075.9-1.256.064-.012.141-.03.219-.042h.013a.37.37,0,0,0,.238-.072c.205-.145.361-.447.586-.35a4.419,4.419,0,0,1-.026.851.618.618,0,0,0,.065.344,4.815,4.815,0,0,0,.959.984v.006a.6.6,0,0,0,.109.078,2.813,2.813,0,0,0,.882.453.911.911,0,0,0,.257.043,1.482,1.482,0,0,0,.283.006,3.341,3.341,0,0,0,.477-.054c.3-.042.6-.109.894-.151.122-.012.245-.024.367-.024a.754.754,0,0,1,.116-.006.4.4,0,0,0,.084.006.34.34,0,0,0,.077,0,.045.045,0,0,0,.039,0,5.33,5.33,0,0,0,.7-.018c.11-.012.225-.018.328-.03.251-.03.5-.06.746-.084.154-.012.309-.024.463-.03.174-.006.354-.018.521-.03.271-.024.528-.054.773-.085.051-.006.1-.006.141-.012.007,0,.007,0,.013-.006.341-.037.656-.073.927-.079h.058a3.744,3.744,0,0,1,.579.054c.335.048.669.12,1,.151a.167.167,0,0,0,.051.006,2.032,2.032,0,0,0,.328.018h.052c.064,0,.122-.006.186-.012a7.743,7.743,0,0,0,.9-.169,1.7,1.7,0,0,1,.244-.055,3.865,3.865,0,0,1,.521-.1l.206-.018a1.577,1.577,0,0,1,.245.007h.006a.971.971,0,0,1,.18.018c.193.018.392.06.592.1.141.03.29.054.431.079a3.674,3.674,0,0,0,.566.036h.065c.225-.012.457-.03.682-.049.051-.006.1-.006.148-.012.225-.018.45-.043.676-.061.174-.012.347-.03.521-.043h.039a1.615,1.615,0,0,1,.238-.006c.328-.018.65-.006.978.006h.006c.283.006.566.006.849-.012a.149.149,0,0,1,.052,0,2.52,2.52,0,0,1,.521.024c.245.042.483.1.727.145.1.018.193.036.3.048a3.041,3.041,0,0,0,.328.024h.071a.618.618,0,0,0,.109-.006,1.4,1.4,0,0,0,.412-.1,3.464,3.464,0,0,0,.464-.247h.007c.025-.018.051-.03.077-.049a4.057,4.057,0,0,1,.624-.326.476.476,0,0,1,.116-.049h.007a.99.99,0,0,1,.3-.066,4.324,4.324,0,0,0,.63-.1,11.425,11.425,0,0,1,1.416-.272,8.007,8.007,0,0,1,1.776.429h.006a2.028,2.028,0,0,0,.334.012,1.832,1.832,0,0,0,.463-.108c.09-.036.18-.073.27-.115a.023.023,0,0,0,.02-.007c.238-.109.469-.235.708-.332a1.765,1.765,0,0,1,.56-.145.91.91,0,0,1,.354.042,6.578,6.578,0,0,1,1.042.435.456.456,0,0,1,.046.018.025.025,0,0,0,.02.006,1.493,1.493,0,0,0,.663.145h.006c.315-.024,1.023-.193,1.892-.392.064-.012.128-.03.193-.042.6-.133,1.3-.2,2.04-.356a2.414,2.414,0,0,0,.276-.072c.554-.163,1.1-.429,1.7-.549.669-.127,1.306-.459,2-.562a4.764,4.764,0,0,0,.586-.127c.3-.085.585-.175.882-.248a3.609,3.609,0,0,1,.566-.1,1.6,1.6,0,0,1,.167-.006,3.58,3.58,0,0,1,.625.042c.283.036.56.1.83.139.084.012.174.024.257.03s.136.012.206.012c.135,0,.271,0,.406-.012a10.756,10.756,0,0,1,1.345-.073.947.947,0,0,1,.187.018.768.768,0,0,1,.167.036c.065.018.135.036.206.06q.232.063.463.145l.193.073c.064.024.129.054.187.078a3.339,3.339,0,0,1,.509.278,1.326,1.326,0,0,1,.431.453C-3272.053,1399.887-3272.761,1400.605-3273.019,1401.408Z" transform="translate(3324.944 -1369.611)" fill="#db6729"/>
              <path id="Path_2665" data-name="Path 2665" d="M-3303.788,1408.379a5.639,5.639,0,0,1-1.022-.366c-.371-.112-.677-.467-1.093-.5-.534-.037-1.075,0-1.6-.056-.273-.029-.238-.329-.511-.358a8.792,8.792,0,0,1-1.006-.361c-.33-.079-.727-.063-1.081-.113a3.416,3.416,0,0,0-.378.037c-.322,0-.58.554-.88.6-.259.043-.557-.613-.774-.615-.072,0-.123.286-.193.274a2.134,2.134,0,0,1-.885-.249,3.471,3.471,0,0,0-1.165-.386c-.4-.094-.722-.473-1.074-.485-.377-.014-.578-.25-.829-.357s-.577-.168-.85-.261c-.449-.153-1.092.137-1.411-.076-.174-.115-.295-.534-.424-.839a2.753,2.753,0,0,0-.8-.974,2.766,2.766,0,0,0-1.061-.678,2.846,2.846,0,0,1-.865-.4c-.144-.311.228-.937.236-1.435,0-.293-.741-.572-.763-.842-.01-.133.775-.273.819-.339,0,0-.334-.42.19-.507.067,0,.289.04.347.028.005.21.232.229.353.393a3.875,3.875,0,0,0,2,1.681c.181.054.287.4.5.4a5.792,5.792,0,0,0,1.069-.14,6.427,6.427,0,0,1,.874-.257c.041,0,.033.243.074.245.09,0,.188-.259.28-.259a12.637,12.637,0,0,0,1.28.174c.305-.035.577-.185.855-.194.506-.017.983-.111,1.406-.161.354-.042.681-.524.945-.528,0,0,.014.452.016.452.317,0,.552.271.849.324.337.06.732-.176,1.1-.174.064,0,.068.2.132.2a7.215,7.215,0,0,0,1.248.021c.317-.075.521-.586.8-.6.043,0,.048-.251.091-.251.246,0,.42.832.706.887a7.009,7.009,0,0,0,1.117-.048c.061,0,.1-.554.163-.557.378-.022.786.336,1.164.3.311-.028.6-.371.908-.392.173-.012.36.642.534.643.148,0,.292-.121.441-.117s.32-.227.477-.226c.215,0,.432-.064.645-.08.037,0,.071.284.107.284.233,0,.561-.513.837-.456.323.066.59.513.943.515.073,0,.112-.474.183-.479.486-.038.957.122,1.32-.1.266-.158.479-.745.683-.76.389-.031.891.641,1.247.557.326-.077.544-.417.843-.442,0,0-.005.262,0,.262.262,0,.363.145.643.242.344.12.9-.105,1.309-.1.054,0,.135.265.188.261.458-.036.832-.566,1.191-.742.289-.143.531-.682.76-.7l.04.032a3.267,3.267,0,0,1,.9.378c.371.179.644.909,1.1.912.039,0,.068-.4.107-.406.317-.023.788-.265,1.52-.432.3-.068.453.521.754.453.28-.063.555-.13.875-.182.36-.057.742-.194,1.133-.278a7.461,7.461,0,0,0,.952-.487,5.713,5.713,0,0,1,1-.12,8.872,8.872,0,0,0,1.095-.165c.335-.114.537-.449.849-.5.359-.054.615-.464.941-.561.345-.1.767.341,1.07.313.064-.005.094-.728.158-.728.281,0,.542.552.85.608s.658-.14.981-.135l0-.077c.36,0,.692.544.975.517.237-.022.421-.351.618-.35.145,0,.308-.2.4-.172,1.236.339,1.293.866,1.374,1.024.009.094.433.559.308.785-.157.284-1.1.313-1.21.664-.212.663-.092,1.309-.376,1.834a4.527,4.527,0,0,1-.857.982c-.128.131-.128.369-.25.506-.226.252-.7.358-.846.6-.193.318-.2.6-.433.763a7.6,7.6,0,0,1-1.564.671c-.114.043-.09.1-.2.142a2.853,2.853,0,0,1-.941.389c-.327.012-.777-.529-1.128-.454a18.34,18.34,0,0,1-1.949.348c-.465.05-.849.672-1.21.87-.3.164-.845.541-.788.331a.8.8,0,0,0,0-.4c-.255,0-.7.634-1.006.5-.375-.163-.645-.851-1.1-.854-.007,0-.062-.054-.069-.052-.462.012-.873.441-1.261.549a6.037,6.037,0,0,1-.879.333c-.357.021-.7.106-1.058.145s-.773-.559-1.136-.54c-.074,0-.128.727-.2.726-.26,0-.539-.194-.8-.218-.289-.025-.571-.179-.877-.181-.089,0-.165.189-.253.194a2.749,2.749,0,0,0-1.15.451,3.086,3.086,0,0,1-.984.305l-.012-.15a2.3,2.3,0,0,1-.958-.184c-.4-.221-.677-.608-1.183-.612s-1.087-.336-1.465-.195a2,2,0,0,1-.726.225c-.273,0-.646.45-.969.34-.374-.127-.721-.827-1.172-.835l-.009.449a2.647,2.647,0,0,0-1.288.536c-.29.155-1.075-.038-1.275-.039C-3304.254,1407.961-3303.782,1408.379-3303.788,1408.379Z" transform="translate(3324.796 -1369.298)" fill="#db6729"/>
              <path id="Path_2666" data-name="Path 2666" d="M-3282.059,1413.728a2.683,2.683,0,0,0,1.1.254c.422-.056,1.238-1.359,1.435-1.624s4.8-3.144,4.8-3.144l-4.173-.5Z" transform="translate(3306.313 -1374.484)"/>
              <path id="Path_2667" data-name="Path 2667" d="M-3321.513,1400.845c-.072,1.323,1.372,3.152,1.372,3.152l.319-.478a28.271,28.271,0,0,1,2.363,1.983c.169.287,0,.329,0,.329a14.023,14.023,0,0,0,4.654,1.75,36.181,36.181,0,0,0,7.048.837l-.509-.484a31.163,31.163,0,0,0,6.049.034c1.747-.365,2.4-2.569,2.4-2.569a11.284,11.284,0,0,1,1.681-.131c.7.022.484.434.484.434s4.819,1.225,6.761.2a20.315,20.315,0,0,0,8.559.938c4.332-.6,5.4-1.686,5.4-1.686s1.7,1.293,1.795-.1-1.486-3.871-1.486-3.871l-46.521-.425Z" transform="translate(3324.473 -1370.821)"/>
              <path id="Path_2668" data-name="Path 2668" d="M-3299.743,1407.922c1.659,1.134,6.246,6.735,8.174,6.385,1.134-.207,2.7-2.754,3.576-3.533a17.028,17.028,0,0,1,4.426-2.913Z" transform="translate(3314.452 -1374.093)" fill="#edde1d"/>
              <path id="Path_2669" data-name="Path 2669" d="M-3318.966,1402.707c-1.271,1.565-2.373,3.667-3.345,4.581-.539.506,6.042-.519,8.8-2.09,2.3-1.308,5.261.27,7.86.642Z" transform="translate(3324.853 -1371.72)" fill="#f49d29"/>
              <path id="Path_2670" data-name="Path 2670" d="M-3320.706,1407.8a.124.124,0,0,1-.116-.2c.3-.412.606-.874.921-1.349.431-.65.876-1.32,1.342-1.925l5.292,1.245c-.123.056-.244.117-.362.184A24.365,24.365,0,0,1-3320.706,1407.8Z" transform="translate(3324.164 -1372.465)" fill="#edde1d"/>
              <path id="Path_2671" data-name="Path 2671" d="M-3246.226,1402.691c2.479.281,5.5.8,7.492,2.051a.313.313,0,0,0,.48-.22,6.6,6.6,0,0,0-1.358-4.81.314.314,0,0,0-.369-.106l-6.323,2.48A.314.314,0,0,0-3246.226,1402.691Z" transform="translate(3289.95 -1370.283)" fill="#f49d29"/>
              <path id="Path_2672" data-name="Path 2672" d="M-3237.344,1404.7a18.431,18.431,0,0,0-5.185-1.484.259.259,0,0,1-.056-.5l4.227-1.657a.258.258,0,0,1,.311.1,6.062,6.062,0,0,1,1.077,3.308A.258.258,0,0,1-3237.344,1404.7Z" transform="translate(3288.221 -1370.954)" fill="#edde1d"/>
              <g id="Group_1383" data-name="Group 1383" transform="translate(3.272 25.561)">
                <g id="Group_1382" data-name="Group 1382" style="isolation: isolate">
                  <g id="Group_1380" data-name="Group 1380" transform="translate(0 2.034)" style="isolation: isolate">
                    <g id="Group_1379" data-name="Group 1379" clip-path="url(#clip-path)">
                      <path id="Path_2673" data-name="Path 2673" d="M-3298.45,1401.492a2.028,2.028,0,0,1-.4.4,3.659,3.659,0,0,1-.817.453c-2.073.858-6.061.922-10.448.017-6.1-1.26-10.668-3.919-10.2-5.939l-.585,2.5c-.473,2.021,4.092,4.68,10.2,5.938,4.387.906,8.374.841,10.447-.017a3.669,3.669,0,0,0,.818-.453,2.039,2.039,0,0,0,.4-.4,1.385,1.385,0,0,0,.242-.509l.585-2.5A1.383,1.383,0,0,1-3298.45,1401.492Z" transform="translate(3320.932 -1396.422)" fill="#ed759d"/>
                    </g>
                  </g>
                  <g id="Group_1381" data-name="Group 1381" transform="translate(0.586)">
                    <path id="Path_2675" data-name="Path 2675" d="M-3297.706,1399.248a1.468,1.468,0,0,1-.38.677,1.937,1.937,0,0,1-.367.3,4.757,4.757,0,0,1-1.577.664,9.148,9.148,0,0,1-.933.2c-.007,0-.013.006-.02.006l-.695.091h-.019c-.032.006-.071.006-.1.012a25.168,25.168,0,0,1-6.21-.278h-.02c-.521-.084-1.055-.181-1.59-.29-.044-.012-.09-.018-.135-.03-.335-.066-.669-.145-1-.224-.232-.054-.457-.114-.682-.175a27.834,27.834,0,0,1-3.321-1.087c-.013-.006-.02-.006-.026-.012h-.007c-.057-.024-.109-.043-.161-.067a.206.206,0,0,1-.064-.03q-.647-.263-1.217-.544c-1.892-.942-3.172-1.987-3.52-2.953v-.006a1.347,1.347,0,0,1-.064-.809,1.251,1.251,0,0,1,.161-.387h.006a1.94,1.94,0,0,1,.643-.64,3.655,3.655,0,0,1,.644-.332,7.888,7.888,0,0,1,1.442-.417l.1-.018c.026-.006.059-.012.091-.018.238-.042.488-.078.746-.109h.026c.29-.036.592-.06.908-.079h.006a3.2,3.2,0,0,1,.341-.018c.546-.024,1.132-.024,1.738.006.347.006.708.03,1.075.061a31.117,31.117,0,0,1,3.977.567h.007q.493.1.965.218c.135.03.271.06.406.1a27.923,27.923,0,0,1,4.5,1.516c.5.224.972.459,1.4.695a11.926,11.926,0,0,1,1.088.67c.051.036.1.072.148.109a5.747,5.747,0,0,1,1.209,1.117l.07.085a2.487,2.487,0,0,1,.354.677.441.441,0,0,1,.039.133.844.844,0,0,1,.038.247.025.025,0,0,1,0,.03A1.074,1.074,0,0,1-3297.706,1399.248Z" transform="translate(3319.846 -1392.655)" fill="#ed759d"/>
                    <path id="Path_2676" data-name="Path 2676" d="M-3303.118,1401.169a29.574,29.574,0,0,1-5.656-.634c-6.274-1.294-9.871-3.857-9.59-5.052.167-.713,1.9-1.471,5.312-1.449a29.535,29.535,0,0,1,5.653.634,25.184,25.184,0,0,1,7.318,2.591c1.85,1.077,2.388,1.979,2.275,2.464C-3297.975,1400.435-3299.708,1401.191-3303.118,1401.169Z" transform="translate(3319.171 -1393.289)" fill="#f79abe"/>
                  </g>
                </g>
              </g>
              <path id="Path_2677" data-name="Path 2677" d="M-3301.341,1402.293c-.194.293-1.529,1.671-.768,1.769.777.1.658-1.254.753-1.641Z" transform="translate(3315.648 -1371.53)" fill="#f9cbbd"/>
              <path id="Path_2678" data-name="Path 2678" d="M-3298.669,1402.557c.009.345-.309,2.184.386,1.876s-.177-1.388-.323-1.76Z" transform="translate(3313.988 -1371.652)" fill="#f9cbbd"/>
              <path id="Path_2679" data-name="Path 2679" d="M-3296.149,1403.227c.1.333.267,2.189.86,1.731s-.532-1.305-.77-1.633Z" transform="translate(3312.798 -1371.96)" fill="#f9cbbd"/>
              <path id="Path_2680" data-name="Path 2680" d="M-3303.884,1401.7c-.278.226-1.989,1.17-1.293,1.475s1.026-1.014,1.239-1.356Z" transform="translate(3317.03 -1371.257)" fill="#f9cbbd"/>
              <path id="Path_2681" data-name="Path 2681" d="M-3307.342,1400.977c-.309.188-2.141.9-1.5,1.3s1.163-.873,1.423-1.185Z" transform="translate(3318.701 -1370.924)" fill="#f9cbbd"/>
              <path id="Path_2682" data-name="Path 2682" d="M-3310.5,1399.892c-.335.144-2.257.606-1.679,1.08s1.285-.705,1.591-.98Z" transform="translate(3320.223 -1370.425)" fill="#f9cbbd"/>
              <path id="Path_2683" data-name="Path 2683" d="M-3315.03,1397.19c-.368-.023-2.291-.481-2.025.194s1.489-.043,1.9-.147Z" transform="translate(3322.431 -1369.102)" fill="#f9cbbd"/>
              <g id="Group_1388" data-name="Group 1388" transform="translate(15.049 23.903)">
                <g id="Group_1387" data-name="Group 1387" style="isolation: isolate">
                  <g id="Group_1385" data-name="Group 1385" transform="translate(0 3.574)" style="isolation: isolate">
                    <g id="Group_1384" data-name="Group 1384" clip-path="url(#clip-path-2)">
                      <path id="Path_2684" data-name="Path 2684" d="M-3276.567,1397.1a1.918,1.918,0,0,1-.312.466,3.531,3.531,0,0,1-.705.6c-1.85,1.226-5.745,2.032-10.236,1.963-6.249-.1-11.284-1.855-11.248-3.924l-.046,2.555c-.037,2.069,5,3.825,11.248,3.924,4.49.07,8.386-.734,10.236-1.961a3.53,3.53,0,0,0,.705-.6,1.94,1.94,0,0,0,.312-.466,1.342,1.342,0,0,0,.129-.545l.045-2.554A1.327,1.327,0,0,1-3276.567,1397.1Z" transform="translate(3299.113 -1396.205)" fill="#ed759d"/>
                    </g>
                  </g>
                  <g id="Group_1386" data-name="Group 1386" transform="translate(0.046)">
                    <path id="Path_2686" data-name="Path 2686" d="M-3287.647,1389.588c6.25.1,11.287,1.854,11.25,3.925s-5.133,3.666-11.382,3.569-11.285-1.855-11.248-3.924S-3293.9,1389.49-3287.647,1389.588Z" transform="translate(3299.029 -1389.584)" fill="#e20613"/>
                    <path id="Path_2687" data-name="Path 2687" d="M-3287.091,1396.971c-6.423-.1-10.49-1.942-10.468-3.166s3.936-2.883,10.262-2.842l.312,0c6.423.1,10.492,1.944,10.47,3.168s-3.937,2.882-10.265,2.841Z" transform="translate(3298.352 -1390.219)" fill="#ed9472"/>
                  </g>
                </g>
              </g>
              <g id="Group_1393" data-name="Group 1393" transform="translate(29.21 24.69)">
                <g id="Group_1392" data-name="Group 1392" style="isolation: isolate">
                  <g id="Group_1390" data-name="Group 1390" transform="translate(0.004 3.03)" style="isolation: isolate">
                    <g id="Group_1389" data-name="Group 1389" clip-path="url(#clip-path-3)">
                      <path id="Path_2688" data-name="Path 2688" d="M-3250.1,1399.2l-.2-2.549a1.348,1.348,0,0,1-.076.554,1.959,1.959,0,0,1-.265.491,3.446,3.446,0,0,1-.645.653c-1.723,1.38-5.524,2.515-10,2.829-6.231.437-11.417-.881-11.582-2.944l.2,2.548c.164,2.063,5.35,3.382,11.582,2.945,4.479-.315,8.28-1.449,10-2.829a3.422,3.422,0,0,0,.644-.654,1.918,1.918,0,0,0,.266-.491A1.344,1.344,0,0,0-3250.1,1399.2Z" transform="translate(3272.87 -1396.656)" fill="#ed759d"/>
                    </g>
                  </g>
                  <g id="Group_1391" data-name="Group 1391">
                    <path id="Path_2690" data-name="Path 2690" d="M-3261.885,1391.126c6.233-.437,11.419.882,11.584,2.947s-4.756,4.09-10.989,4.527-11.417-.881-11.582-2.944S-3268.117,1391.563-3261.885,1391.126Z" transform="translate(3272.877 -1391.042)" fill="#ed759d"/>
                    <path id="Path_2691" data-name="Path 2691" d="M-3263.169,1398.572c-4.975-.032-8.148-1.238-8.236-2.338-.05-.621.981-1.46,2.623-2.138a25.505,25.505,0,0,1,7.632-1.593c.841-.059,1.681-.087,2.5-.082,4.975.032,8.149,1.24,8.236,2.341.1,1.22-3.85,3.281-10.257,3.73C-3261.514,1398.55-3262.354,1398.578-3263.169,1398.572Z" transform="translate(3272.201 -1391.677)" fill="#ed9472"/>
                  </g>
                </g>
              </g>
              <path id="Path_2692" data-name="Path 2692" d="M-3255.165,1404.464a.408.408,0,0,1-.408-.392.407.407,0,0,1,.392-.424,36.4,36.4,0,0,0,6.683-.909.408.408,0,0,1,.5.295.409.409,0,0,1-.3.5,36.432,36.432,0,0,1-6.853.933Z" transform="translate(3294.123 -1371.729)" fill="#0d0d0c"/>
              <path id="Path_2693" data-name="Path 2693" d="M-3274.418,1392.9c.025.085.061-.462.067-.377l.08.089c.186.085.277.874.425.977-.109.024-.231.048-.354.066h-.007a.852.852,0,0,1-.116.024h-.007c-.187.03-.386.061-.6.084a4.675,4.675,0,0,0-.6.1c-.02.006-.038.006-.051.012a1.758,1.758,0,0,0-1.062.628.006.006,0,0,1-.006.006,1.709,1.709,0,0,0-.206.423,3.467,3.467,0,0,1-1.242,2.234c-.013.012-.032.024-.045.036a1.283,1.283,0,0,1-.219.127c-.984.435-2.825-.139-4.524-.731-.007,0-.007-.006-.013-.006-.161-.06-.322-.114-.477-.169-.07-.03-.142-.054-.212-.078-.007,0-.013-.006-.025-.006h-.013c-.65-.236-1.255-.453-1.757-.586h-.013a4.171,4.171,0,0,0-.663-.12,1.162,1.162,0,0,0-.212,0,7.992,7.992,0,0,0-1.281.2h-.013a3.766,3.766,0,0,0-1.094.423,1.683,1.683,0,0,0-.386.29h-.013c-1.082.966-.56,2.325-1.982,2.379-1.737.067-4.865-1.443-6.48-2.065a2.487,2.487,0,0,0-.651-.157h-.012a4.706,4.706,0,0,0-2.265.374c-.206.073-.393.157-.592.248h-.013c-.585.248-1.139.519-1.66.719h-.013a5.845,5.845,0,0,1-.6.193c-.007,0-.013.006-.02.006a2.893,2.893,0,0,1-.695.091h-.02a1.041,1.041,0,0,1-.277-.037,2.523,2.523,0,0,1-.676-.247,3.038,3.038,0,0,1-.547-.369c-.1-.084-.206-.175-.3-.266a14.647,14.647,0,0,0-1.21-1.117,3.278,3.278,0,0,0-.72-.4c-.039-.012-.077-.03-.11-.043-.077-.03-.148-.061-.219-.09h-.006c-.09-.03-.174-.067-.258-.091h-.007a5.894,5.894,0,0,0-2.336-.477.012.012,0,0,0-.019,0,5.7,5.7,0,0,0-1.056.127v.006c-.083.018-.174.036-.257.061-.141.03-.283.066-.431.108-.013.006-.026.006-.039.013a2.244,2.244,0,0,1-.232.048,3.893,3.893,0,0,1-.586.054,7.789,7.789,0,0,1-.836.006c-.438-.012-.914-.049-1.4-.1q-.376-.037-.753-.091h-.006c-.509-.072-.984-.163-1.4-.26h-.006a.025.025,0,0,0-.02-.006,4.917,4.917,0,0,1-.99-.338c-.252-.133-.334-.229-.309-.332v-.006a.313.313,0,0,1,.116-.175.241.241,0,0,1,.039-.042c.322-.3.953-.7.116-1.691-.045-.048-.083-.1-.135-.145a1.785,1.785,0,0,0-.148-.157,3.082,3.082,0,0,0-.5-.368l-.006-.006c-.1-.048-.2-.1-.309-.145a2.744,2.744,0,0,0-.624-.193h-.007a4.284,4.284,0,0,0-.489-.066,8.851,8.851,0,0,0-1-.043,1.936,1.936,0,0,1,.644-.64,12.553,12.553,0,0,0-2.417-.536c-.148-.012-1.052.053-1.193.017.109-.079.277.1.477-.018a8.646,8.646,0,0,0,.753-.5,9.121,9.121,0,0,0,1.943-1.89c.084-.114.161-.223.226-.332.129-.2.226-.375.309-.525a.919.919,0,0,0,.045-.085,1.522,1.522,0,0,1,.09-.145v-.006a1.551,1.551,0,0,1,.142-.223c.026-.036.052-.066.077-.1l.194.212.411.434.006.007.232.254c.059.054.116.109.174.157,2.252,1.939,6.242,1.727,9.035,2.132.482.072.959.139,1.435.211.457.061.914.127,1.371.193l.83.109h.007c2.323.314,4.607.586,6.892.755.071.006.148.012.219.012.4.03.792.054,1.191.073h.006a.25.25,0,0,0,.065.006h.007c.553.031,1.1.049,1.654.061.457.018.914.018,1.364.018.148,0,.29,0,.438-.006.238,0,.476,0,.72-.006q1.11-.027,2.22-.109h.013c.489-.03.984-.073,1.468-.121h.007c.219-.024.43-.048.65-.078.115-.012.231-.024.348-.043h.019c.257-.03.515-.066.766-.108.54-.072,1.081-.163,1.628-.266h.013q.493-.091.984-.2c.624-.133,1.236-.29,1.854-.464h.013c.811-.229,1.615-.483,2.413-.743a61.58,61.58,0,0,1,6.152-1.83c.007,0,.02-.006.026-.006a.811.811,0,0,0,.122-.03h.007c.283-.061.528-.121.733-.17h.007c.084-.018.161-.036.232-.054a1.48,1.48,0,0,1,.476-.049.32.32,0,0,1,.077.013c.167.048.205.217.148.586-.071-.072-.367-.539-.444-.6-.077.459-.94,1.526-.869,1.864-.116.489.418.777.444,1.126l.509-.145a2.2,2.2,0,0,0,.129.58c.38,1.081,1.512,1.334,2.163,1.558.064.024.122.048.173.072C-3272.429,1392.3-3273.035,1392.673-3274.418,1392.9Z" transform="translate(3326.061 -1364.251)"/>
              <path id="Path_2694" data-name="Path 2694" d="M-3272.964,1390.781a1.136,1.136,0,0,1-.148.446c-.251.429-.855.8-2.239,1.027a1.056,1.056,0,0,1-.135.024c-.129.024-.258.042-.4.054h-.007c-.058.012-.109.018-.167.024a.254.254,0,0,0-.071.012,3.918,3.918,0,0,0-.624.115h-.006a1.659,1.659,0,0,0-1.069.658.539.539,0,0,0-.077.133,1.737,1.737,0,0,0-.181.483v.006c-.039.115-.071.23-.1.35v.006c0,.012-.007.018-.007.03a2.7,2.7,0,0,1-1.127,1.655,2.555,2.555,0,0,1-1.807.217h-.013c-.193-.043-.393-.079-.592-.109-.354-.078-.721-.181-1.094-.29-.123-.042-.251-.078-.38-.121-.071-.024-.142-.048-.213-.066h-.007c-.456-.151-.907-.314-1.344-.465-.348-.121-.689-.242-1-.345h-.006a7.937,7.937,0,0,0-1.526-.386h-.013a1.252,1.252,0,0,0-.257-.006,8.343,8.343,0,0,0-1.01.133,3.732,3.732,0,0,0-1.809.767,2.453,2.453,0,0,0-.54.7c-.019.036-.032.073-.051.109-.367.779-.354,1.534-1.423,1.576-1.467.06-3.893-.966-5.611-1.673-.361-.145-.682-.278-.966-.386a3.24,3.24,0,0,0-1.57-.157,2.486,2.486,0,0,0-.412.072.628.628,0,0,0-.1.018h-.006l-.071.018c-.064.018-.122.03-.186.054-.149.036-.3.085-.438.133v.006c-.855.29-1.7.724-2.458,1.008l-.006.006a3.169,3.169,0,0,1-1.674.272,2.418,2.418,0,0,1-.392-.115,4.579,4.579,0,0,1-1.545-1.135c-.135-.139-.277-.278-.424-.411a3.7,3.7,0,0,0-1.14-.743,6.237,6.237,0,0,0-4.813-.392,6.511,6.511,0,0,1-1.763.109c-.207-.006-.425-.018-.65-.03h-.007c-.489-.036-.991-.09-1.473-.157-.316-.048-.618-.1-.9-.151-.316-.061-.6-.127-.856-.2-.2-.061-.38-.12-.528-.181-.052-.024-.1-.042-.148-.066a1.547,1.547,0,0,1-.148-.084.356.356,0,0,0-.059-.042l-.038-.037a.355.355,0,0,1-.051-.06c-.007-.006-.013-.006-.007-.012-.155-.314.8-.538.676-1.268a1.126,1.126,0,0,0-.109-.326,1.974,1.974,0,0,0-.213-.326l-.007-.007-.077-.091a2.37,2.37,0,0,0-.3-.3.33.33,0,0,0-.1-.084,2.266,2.266,0,0,0-.353-.26,3.255,3.255,0,0,0-.946-.35,27.5,27.5,0,0,0-3.173-.169,2.575,2.575,0,0,1-.437-.072,2.589,2.589,0,0,1-.972-.441c-.007,0-.007-.006-.013-.006a.394.394,0,0,1-.1-.133v-.012c-.006-.006-.006-.006-.006-.012a.085.085,0,0,1,.025-.06l.006-.006c.129-.163.708-.4,1.352-.887.328-.242.611-.477.856-.689a.306.306,0,0,0,.039-.042c.2-.181.379-.35.534-.514,0-.006.006-.006.006-.006.2-.218.367-.417.515-.6a.183.183,0,0,1,.033-.043c.1-.145.193-.283.277-.417.051-.078.1-.156.141-.229v-.006c.007-.006.007-.006.007-.012.032-.06.064-.115.09-.163a3.339,3.339,0,0,1,.379-.58l.477.5.341.356.038.043c.039.036.077.066.116.1a4.093,4.093,0,0,0,.528.4l.007.006a6.509,6.509,0,0,0,1.178.61c2.284.911,5.283.851,7.516,1.171,1.106.157,2.194.314,3.281.465h.007c.6.078,1.184.156,1.776.229.418.054.837.1,1.255.151q1.979.235,3.945.392a1.227,1.227,0,0,1,.141.012c.258.018.516.036.773.049h.007c.238.018.476.03.714.042,1.049.06,2.1.09,3.153.1.451.006.9,0,1.352-.012.251-.006.5-.012.74-.024.54-.018,1.074-.049,1.615-.085.148-.006.29-.018.438-.036h.006c.225-.012.438-.03.663-.049h.006c.5-.054,1-.108,1.506-.181h.007c1.087-.133,2.188-.314,3.295-.55.586-.121,1.158-.266,1.731-.422h.006c.888-.242,1.776-.514,2.645-.8a.019.019,0,0,0,.012-.006c.689-.217,1.372-.44,2.06-.67a.025.025,0,0,0,.019-.006c1.2-.381,2.4-.743,3.617-1.021a.022.022,0,0,1,.014-.007l.482-.108c.135-.03.264-.054.379-.084.077-.019.149-.03.219-.049a.049.049,0,0,1,.025-.006h.006c.148-.036.277-.066.393-.091.065-.018.128-.03.18-.042a2.629,2.629,0,0,1,.322-.043h.065c.3.012.354.206.238.767-.026.1-.052.218-.077.338-.033.1-.059.211-.09.332a3.079,3.079,0,0,0,.032,2.162v.006c.618,1.3,2.433,1.25,2.6,1.673v.006A.124.124,0,0,1-3272.964,1390.781Z" transform="translate(3326.993 -1363.603)" fill="#edde1d"/>
              <path id="Path_2695" data-name="Path 2695" d="M-3320.224,1378.428c-1.13.2-1.006,1.145-.944,2.037a6.4,6.4,0,0,0,.465,2.457c.516.572,1.054,1.022,1.549,1.511a16.668,16.668,0,0,0,1.5,1.6,11.119,11.119,0,0,0,1.779,1.275,13.705,13.705,0,0,0,2.14.336c.673.179,1.378.15,2.067.292s1.263.885,1.958.994,1.4.066,2.1.146,1.4.051,2.1.1,1.374.476,2.074.509,1.4.111,2.1.124,1.406.115,2.1.111,1.388-.981,2.084-1,1.4.276,2.1.247,1.419.4,2.113.366,1.384-.425,2.076-.467,1.408.044,2.1,0c.664-.043,1.367.25,2.083.226.679-.021,1.344-.9,2.046-.936s1.457.843,2.147.762a19.913,19.913,0,0,0,2.014-.786,12.051,12.051,0,0,0,1.98-.694,9.561,9.561,0,0,0,2.023-.768,9.257,9.257,0,0,0,1.509-1.626c.423-.53.367-1.44.7-2.133a12.249,12.249,0,0,0,.723-2,2.078,2.078,0,0,0-.166-1.754c-.272-.6-.325-1.433-1.066-1.661a8.028,8.028,0,0,0-2.043-.168,15.116,15.116,0,0,0-2.043-.22c-.649.066-1.269.663-1.939.778s-1.366.028-2.013.167c-.679.146-1.372.17-1.992.319-.717.174-1.349.479-1.925.624-.928.233-1.591.593-1.923.619-.666.052-1.312.355-1.977.411s-1.333.05-2,.11-1.352-.18-2.018-.117-1.3.523-1.961.584-1.385-.585-2.049-.526-1.288.666-1.952.722-1.376-.561-2.041-.511-1.294.65-1.96.693-1.352-.34-2.017-.3-1.33.008-2,.034-1.316.612-1.983.627c-.6.014-1.4.194-2.281.227a22.566,22.566,0,0,1-2.313-.007c-.794-.051-1.464-.724-2.146-.951-.792-.262-1.555-.362-1.972-1a2.973,2.973,0,0,1-.46-.759C-3319.925,1378.65-3319.882,1378.463-3320.224,1378.428Z" transform="translate(3324.33 -1360.026)"/>
              <path id="Path_2696" data-name="Path 2696" d="M-3321.742,1378.209c-1.17.184-1.041,1.055-.976,1.877a5.337,5.337,0,0,0,.483,2.264c.535.527,1.092.943,1.606,1.394a16.211,16.211,0,0,0,1.552,1.471,11.592,11.592,0,0,0,1.843,1.177,15.85,15.85,0,0,0,2.216.311c.7.165,1.427.139,2.14.27s1.308.816,2.027.918,1.451.062,2.173.135,1.446.049,2.169.1,1.424.44,2.148.47,1.452.1,2.176.115,1.456.107,2.179.1,1.436-.9,2.157-.92,1.454.257,2.173.231,1.47.372,2.188.338,1.433-.39,2.149-.428,1.458.041,2.172,0c.688-.039,1.416.231,2.157.209.7-.019,1.391-.827,2.118-.86s1.509.778,2.223.7a21.592,21.592,0,0,0,2.085-.722,13.478,13.478,0,0,0,2.05-.638,10.69,10.69,0,0,0,2.094-.706,8.958,8.958,0,0,0,1.56-1.5c.438-.488.38-1.326.726-1.965a10.4,10.4,0,0,0,.747-1.84,1.737,1.737,0,0,0-.173-1.617c-.282-.552-.337-1.32-1.1-1.53a9.265,9.265,0,0,0-2.115-.159,17.921,17.921,0,0,0-2.116-.2c-.672.06-1.313.609-2.008.716s-1.414.024-2.083.152c-.7.134-1.42.155-2.062.293-.741.16-1.4.441-1.992.573-.96.214-1.647.545-1.991.569-.688.048-1.358.326-2.045.377s-1.381.045-2.069.1-1.4-.166-2.089-.11-1.343.482-2.03.538-1.435-.54-2.123-.485-1.333.613-2.02.663-1.425-.519-2.114-.473-1.34.6-2.028.638-1.4-.315-2.089-.281-1.376.006-2.066.029-1.363.564-2.053.578c-.622.011-1.448.176-2.362.207-.758.026-1.6.038-2.394-.01-.823-.047-1.517-.667-2.223-.877-.821-.243-1.611-.336-2.043-.919a2.753,2.753,0,0,1-.477-.7C-3321.432,1378.413-3321.388,1378.24-3321.742,1378.209Z" transform="translate(3325.044 -1359.98)" fill="#db6729"/>
              <path id="Path_2697" data-name="Path 2697" d="M-3299.361,1387.544c-.34,0-1.735.105-2.084.1-.405-.007-.86.51-1.269.484-.3-.02-.6-.161-.9-.174a4.994,4.994,0,0,1-.961-.309c-.379-.115-.717-.428-1.15-.458-.331-.023-.651-.415-.968-.422-.407-.011-.8.37-1.176.331-.349-.037-.687-.334-1.02-.345-.393-.012-.787.37-1.14.321-.219-.031-.464-.274-.747-.446-.352-.215-.712-.677-1.189-.765a10.673,10.673,0,0,0-1.075-.087,6.162,6.162,0,0,1-.995-.252,6.334,6.334,0,0,0-1.222.063c-.369-.019-.878.4-1.115.3-.416-.177-.679-.72-1.077-1.008-.172-.126-.04-.662-.224-.784-.289-.192-.82-.106-1.093-.4-.2-.217-.277-.577-.522-.792-.188-.164-.478-.229-.674-.391-.311-.258-.647-.5-.952-.793-.239-.448.03-1.154-.023-1.826-.008-.112-.235-.1-.244-.207-.049-.587.084-.615.185-.728,0,.007-.029-.249-.025-.24.1.289.427.336.582.525.042.051-.214.321-.177.371a2.332,2.332,0,0,0,.791.8c.352.165.646.611,1,.7.148.039.5-.57.654-.524.208.062.227.656.483.792a4.707,4.707,0,0,0,1.825.448c.328.019.692.04,1.071.043.42,0,.882-.067,1.4-.084s1.028.147,1.452.1a7.817,7.817,0,0,1,.9-.016c.488-.008.74-.911,1.123-1.067.283-.117.733.359.941.351.3-.01.6.17.915.17.375,0,.76-.436,1.15-.454.021,0,.042.418.063.418.226,0,.449-.143.729-.079.329.075.748-.24,1.138-.237.058,0,.141.651.2.649a4.7,4.7,0,0,0,1.451-.411c.281-.126.373-.291.582-.3.011,0,0-.345.008-.345.186,0,.288.495.547.59a4.923,4.923,0,0,0,1.382.008c.052,0,.129.168.181.164.48-.035.674-.9,1.045-1.074.28-.129.745.135.955.12.011,0,.022.068.033.068a2.012,2.012,0,0,1,.735.057c.362.137.741.7,1.188.7.055,0,.084-.646.139-.651.443-.035,1,.438,1.363.31a3.066,3.066,0,0,1,.721-.262c.061,0,.1-.5.169-.5a6.932,6.932,0,0,1,.737.033c.28.033.533.728.836.729.111,0,.19-.735.292-.744.334-.026.7.456,1.055.444s.719.184,1.073.158c.4-.029.634-.895.994-.981a6.337,6.337,0,0,1,.985-.147c.261-.018.661.514,1.037.388.326-.109.6-.634,1.062-.738.31-.068.608-.144.929-.247a11,11,0,0,1,1.061-.318,9.745,9.745,0,0,1,.985-.209c.344-.038.677-.109,1.041-.179.294-.056.68.336,1.031.327s.667-.411,1.035-.468c.444-.067.672-.415,1.019-.581a2.958,2.958,0,0,1,.956-.146c.061,0,.147.476.215.476.274,0,.575-.241.885-.19s.626.423.954.429c.108,0,.221-.272.329-.27a5.02,5.02,0,0,1,1.494.481c.2.055.051-.038.223.426.063.167.475.225.562.4.006.013-.053.038-.047.049.214.419.475.589.3,1.133a15.539,15.539,0,0,1-.445,1.877c-.192.356-.547.575-.624.908s-.692.58-.727.62a7.561,7.561,0,0,1-1.255,1.3c-.261.174-.47.546-.879.646-.3.074-.7-.107-1,.008a10.571,10.571,0,0,1-1.939.446c-.387.083-.623.642-.96.792s-2.1-1.149-2.746-.647c-.424.327-1.547.29-1.95.531a.858.858,0,0,1-.564.088c-.025,0-.612.363-.915.313a6.629,6.629,0,0,0-1.042-.068c-.069,0-.14-.048-.21-.045-.146.009-.848.081-1.024.076s-.375-.151-.563-.153c-.215,0-.39.334-.566.343a5.206,5.206,0,0,0-1.17.2,2.866,2.866,0,0,1-1.045-.111c-.24,0-1.585-.318-2.009-.32-.038,0-.076.054-.114.055s-.053-.028-.082-.029c-.265,0-.613.307-.92.253-.356-.061-1.121-.223-1.154-.222-.565.011-.78.477-1.195.739-.23.146-.706-.055-.856-.054C-3299.276,1387.7-3299.323,1387.544-3299.361,1387.544Z" transform="translate(3324.325 -1360.077)" fill="#db6729"/>
              <path id="Path_2698" data-name="Path 2698" d="M-3283.486,1387.592c-.2.9,3.845,6.619,5.794,6.685,1.147.039,3.691-2.916,4.684-3.4a17.878,17.878,0,0,1,4.834-1.594Z" transform="translate(3306.973 -1364.764)"/>
              <path id="Path_2699" data-name="Path 2699" d="M-3286.175,1389.3c-.007.919,5.137,5.8,7.063,5.507,1.133-.17,3.02-3.531,3.894-4.185a17.385,17.385,0,0,1,4.413-2.443Z" transform="translate(3308.208 -1365.032)" fill="#f49d29"/>
              <path id="Path_2700" data-name="Path 2700" d="M-3279.888,1394.9c-1.509-.01-5.092-3.216-6.1-4.582l11.911-.869a19.715,19.715,0,0,0-2.071,1.362,9.746,9.746,0,0,0-1.451,1.711c-.6.8-1.718,2.3-2.2,2.373a.71.71,0,0,1-.095.006Z" transform="translate(3308.12 -1365.619)" fill="#edde1d"/>
              <path id="Path_2701" data-name="Path 2701" d="M-3272.756,1363.425c-.207,7.515-14.254,9.19-25.64,8.918-8.391-.2-18.527-.384-23.056-4.134h0a6.31,6.31,0,0,1-2.373-5.543,17.582,17.582,0,0,1,.358-2.435c1.686-5.9,10.147-14.691,25.279-14.152a37.152,37.152,0,0,1,5.211.548c11.811,2.1,18.944,9.527,20.332,14.732A7.245,7.245,0,0,1-3272.756,1363.425Z" transform="translate(3325.543 -1345.647)" fill="#fdd89b"/>
              <path id="Path_2702" data-name="Path 2702" d="M-3270.719,1363.913c-.206,7.515-14.254,9.19-25.639,8.918-8.392-.2-18.527-.384-23.056-4.134a95.6,95.6,0,0,0,21.724,1.021c6.561-.531,17.533-2.567,19.083-9.6,1.1-4.994-7.3-10.432-12.251-12.95a.444.444,0,0,1-.083-.053c11.811,2.1,18.944,9.528,20.333,14.733A7.236,7.236,0,0,1-3270.719,1363.913Z" transform="translate(3323.505 -1346.135)" fill="#edc080"/>
              <path id="Path_2703" data-name="Path 2703" d="M-3301.762,1350.141a.408.408,0,0,1-.377-.25.409.409,0,0,1,.218-.534q.565-.238,1.153-.456a.408.408,0,0,1,.525.241.409.409,0,0,1-.241.525q-.571.212-1.119.443A.409.409,0,0,1-3301.762,1350.141Z" transform="translate(3315.57 -1346.945)" fill="#0d0d0c"/>
              <path id="Path_2704" data-name="Path 2704" d="M-3296.491,1372.43c-.818,0-1.574-.011-2.253-.027l-.42-.01c-9.043-.215-19.292-.46-23.5-4.9a6.97,6.97,0,0,1-1.9-5.187c.071-2.455,1.189-7.288,7.879-12.075a.408.408,0,0,1,.57.094.408.408,0,0,1-.095.569c-6.4,4.582-7.47,9.131-7.537,11.435a6.1,6.1,0,0,0,1.68,4.6c3.979,4.194,14.488,4.445,22.931,4.646l.42.01c5.859.139,24.99-.06,25.221-8.521a5.613,5.613,0,0,1,.083-.711,3.2,3.2,0,0,0,.041-1.238c-1.574-5.9-10.421-14.452-25.162-14.977a32.843,32.843,0,0,0-9.2.933.406.406,0,0,1-.5-.3.407.407,0,0,1,.3-.495,33.671,33.671,0,0,1,9.431-.958c15.157.539,24.283,9.437,25.922,15.583a3.819,3.819,0,0,1-.023,1.575,5.086,5.086,0,0,0-.072.607C-3272.91,1371.267-3287.968,1372.43-3296.491,1372.43Z" transform="translate(3325.881 -1345.3)" fill="#0d0d0c"/>
              <g id="Group_1394" data-name="Group 1394" transform="translate(4.903 2.068)">
                <path id="Path_2705" data-name="Path 2705" d="M-3284.721,1361.045c-.18.33.343.654.525.32a6.068,6.068,0,0,0,.814-1.4C-3283.3,1359.608-3284.487,1360.613-3284.721,1361.045Z" transform="translate(3302.653 -1354.084)" fill="#ffefdc"/>
                <path id="Path_2706" data-name="Path 2706" d="M-3274.012,1360.222a10.44,10.44,0,0,0-1.029-.986c-.311-.234.234,1.054.574,1.387C-3274.188,1360.9-3273.733,1360.495-3274.012,1360.222Z" transform="translate(3298.224 -1353.769)" fill="#ffefdc"/>
                <path id="Path_2707" data-name="Path 2707" d="M-3258.94,1359.866c-.35-.208-1.6-.3-1.344-.075a6.532,6.532,0,0,0,1.014.569C-3258.927,1360.566-3258.6,1360.07-3258.94,1359.866Z" transform="translate(3291.405 -1353.977)" fill="#ffefdc"/>
                <path id="Path_2708" data-name="Path 2708" d="M-3265.52,1357.384c-.19-.342-1.224-1-1.123-.682a5.786,5.786,0,0,0,.569.959C-3265.888,1358-3265.335,1357.716-3265.52,1357.384Z" transform="translate(3294.319 -1352.578)" fill="#ffefdc"/>
                <path id="Path_2709" data-name="Path 2709" d="M-3254.681,1356.825c-.349-.209-1.6-.3-1.343-.076a6.46,6.46,0,0,0,1.014.57C-3254.668,1357.525-3254.341,1357.028-3254.681,1356.825Z" transform="translate(3289.445 -1352.577)" fill="#ffefdc"/>
                <path id="Path_2710" data-name="Path 2710" d="M-3247.693,1357.633c-.267-.294-1.433-.722-1.26-.434a6.011,6.011,0,0,0,.787.818C-3247.9,1358.3-3247.433,1357.919-3247.693,1357.633Z" transform="translate(3286.182 -1352.801)" fill="#ffefdc"/>
                <path id="Path_2711" data-name="Path 2711" d="M-3264.378,1363.43c-.029-.382-.7-1.357-.743-1.03a5.368,5.368,0,0,0,.115,1.087C-3264.977,1363.861-3264.35,1363.8-3264.378,1363.43Z" transform="translate(3293.62 -1355.208)" fill="#ffefdc"/>
                <path id="Path_2712" data-name="Path 2712" d="M-3277.874,1364.6c.112-.369-.161-1.5-.32-1.2a5.4,5.4,0,0,0-.291,1.058C-3278.6,1364.82-3277.983,1364.96-3277.874,1364.6Z" transform="translate(3299.772 -1355.676)" fill="#ffefdc"/>
                <path id="Path_2713" data-name="Path 2713" d="M-3293.433,1363.94c.245-.31.411-1.455.151-1.229a5.868,5.868,0,0,0-.67.9C-3294.193,1363.916-3293.671,1364.242-3293.433,1363.94Z" transform="translate(3306.913 -1355.368)" fill="#ffefdc"/>
                <path id="Path_2714" data-name="Path 2714" d="M-3306.314,1359.585c.347-.212.94-1.229.611-1.1a6.46,6.46,0,0,0-.973.627C-3307.018,1359.317-3306.652,1359.791-3306.314,1359.585Z" transform="translate(3312.803 -1353.43)" fill="#ffefdc"/>
                <path id="Path_2715" data-name="Path 2715" d="M-3299.508,1358.656a3.779,3.779,0,0,0-1.435.592c-.363.168-.056.674.307.506C-3300.291,1359.594-3299.1,1358.64-3299.508,1358.656Z" transform="translate(3310.177 -1353.515)" fill="#ffefdc"/>
                <path id="Path_2716" data-name="Path 2716" d="M-3289.045,1368.125c-.18.33.343.654.526.32a6.04,6.04,0,0,0,.814-1.4C-3287.619,1366.688-3288.81,1367.693-3289.045,1368.125Z" transform="translate(3304.643 -1357.343)" fill="#ffefdc"/>
                <path id="Path_2717" data-name="Path 2717" d="M-3265.242,1368.2c-.167-.352-1.155-1.065-1.076-.744a5.729,5.729,0,0,0,.5.988C-3265.65,1368.786-3265.08,1368.537-3265.242,1368.2Z" transform="translate(3294.168 -1357.526)" fill="#ffefdc"/>
                <path id="Path_2718" data-name="Path 2718" d="M-3259,1363.907c-.35-.209-1.6-.3-1.343-.077a6.532,6.532,0,0,0,1.014.571C-3258.992,1364.605-3258.665,1364.109-3259,1363.907Z" transform="translate(3291.435 -1355.836)" fill="#ffefdc"/>
                <path id="Path_2719" data-name="Path 2719" d="M-3252.016,1364.713c-.268-.294-1.434-.723-1.26-.435a6.142,6.142,0,0,0,.787.818C-3252.228,1365.385-3251.757,1365-3252.016,1364.713Z" transform="translate(3288.172 -1356.059)" fill="#ffefdc"/>
                <path id="Path_2720" data-name="Path 2720" d="M-3253.538,1376.063c-.268-.293-1.434-.722-1.26-.435a6.146,6.146,0,0,0,.786.818C-3253.75,1376.735-3253.279,1376.349-3253.538,1376.063Z" transform="translate(3288.872 -1361.282)" fill="#ffefdc"/>
                <path id="Path_2721" data-name="Path 2721" d="M-3256.129,1369.538c-.07-.379-.843-1.289-.849-.959a5.392,5.392,0,0,0,.231,1.07C-3256.68,1370.019-3256.061,1369.9-3256.129,1369.538Z" transform="translate(3289.868 -1358.05)" fill="#ffefdc"/>
                <path id="Path_2722" data-name="Path 2722" d="M-3246.566,1363.894c-.268-.294-1.434-.723-1.26-.436a5.955,5.955,0,0,0,.788.818C-3246.777,1364.565-3246.307,1364.18-3246.566,1363.894Z" transform="translate(3285.664 -1355.681)" fill="#ffefdc"/>
                <path id="Path_2723" data-name="Path 2723" d="M-3242.537,1375.351c-.267-.294-1.433-.722-1.26-.436a6.108,6.108,0,0,0,.787.819C-3242.748,1376.022-3242.276,1375.637-3242.537,1375.351Z" transform="translate(3283.81 -1360.955)" fill="#ffefdc"/>
                <path id="Path_2724" data-name="Path 2724" d="M-3273.036,1370.047c-.03-.382-.7-1.358-.743-1.031a5.364,5.364,0,0,0,.116,1.086C-3273.635,1370.477-3273.007,1370.419-3273.036,1370.047Z" transform="translate(3297.604 -1358.253)" fill="#ffefdc"/>
                <path id="Path_2725" data-name="Path 2725" d="M-3282.2,1371.681c.114-.369-.161-1.5-.32-1.2a5.477,5.477,0,0,0-.291,1.058C-3282.92,1371.9-3282.307,1372.04-3282.2,1371.681Z" transform="translate(3301.762 -1358.935)" fill="#ffefdc"/>
                <path id="Path_2726" data-name="Path 2726" d="M-3297.755,1371.021c.243-.31.409-1.455.15-1.23a5.909,5.909,0,0,0-.671.9C-3298.516,1371-3297.994,1371.322-3297.755,1371.021Z" transform="translate(3308.903 -1358.626)" fill="#ffefdc"/>
                <path id="Path_2727" data-name="Path 2727" d="M-3310.639,1366.667c.348-.212.94-1.231.611-1.1a6.351,6.351,0,0,0-.972.627C-3311.343,1366.4-3310.977,1366.871-3310.639,1366.667Z" transform="translate(3314.794 -1356.69)" fill="#ffefdc"/>
                <path id="Path_2728" data-name="Path 2728" d="M-3303.832,1365.736a3.783,3.783,0,0,0-1.434.593c-.363.168-.055.674.307.506C-3304.614,1366.674-3303.425,1365.719-3303.832,1365.736Z" transform="translate(3312.167 -1356.773)" fill="#ffefdc"/>
                <path id="Path_2729" data-name="Path 2729" d="M-3295.821,1375.726c-.18.33.343.654.526.321a6.06,6.06,0,0,0,.814-1.4C-3294.395,1374.289-3295.585,1375.293-3295.821,1375.726Z" transform="translate(3307.762 -1360.841)" fill="#ffefdc"/>
                <path id="Path_2730" data-name="Path 2730" d="M-3272.015,1375.8c-.167-.352-1.156-1.065-1.076-.744a5.626,5.626,0,0,0,.5.989C-3272.424,1376.387-3271.854,1376.139-3272.015,1375.8Z" transform="translate(3297.285 -1361.024)" fill="#ffefdc"/>
                <path id="Path_2731" data-name="Path 2731" d="M-3258.79,1372.315c-.269-.294-1.434-.723-1.26-.435a6.126,6.126,0,0,0,.787.818C-3259,1372.986-3258.531,1372.6-3258.79,1372.315Z" transform="translate(3291.29 -1359.557)" fill="#ffefdc"/>
                <path id="Path_2732" data-name="Path 2732" d="M-3247.914,1371.573c-.268-.293-1.433-.722-1.259-.435a6.047,6.047,0,0,0,.787.819C-3248.125,1372.245-3247.653,1371.86-3247.914,1371.573Z" transform="translate(3286.284 -1359.216)" fill="#ffefdc"/>
                <path id="Path_2733" data-name="Path 2733" d="M-3262.9,1377.138c-.07-.377-.844-1.288-.851-.959a5.523,5.523,0,0,0,.231,1.072C-3263.454,1377.62-3262.835,1377.506-3262.9,1377.138Z" transform="translate(3292.986 -1361.547)" fill="#ffefdc"/>
                <path id="Path_2734" data-name="Path 2734" d="M-3239.624,1371.735c-.267-.294-1.434-.722-1.26-.436a5.927,5.927,0,0,0,.787.819C-3239.836,1372.406-3239.364,1372.021-3239.624,1371.735Z" transform="translate(3282.469 -1359.29)" fill="#ffefdc"/>
                <path id="Path_2735" data-name="Path 2735" d="M-3239.507,1366.534c-.267-.295-1.433-.724-1.259-.436a6.083,6.083,0,0,0,.787.819C-3239.719,1367.2-3239.248,1366.82-3239.507,1366.534Z" transform="translate(3282.415 -1356.896)" fill="#ffefdc"/>
                <path id="Path_2736" data-name="Path 2736" d="M-3279.81,1377.649c-.03-.383-.7-1.358-.744-1.031a5.3,5.3,0,0,0,.116,1.087C-3280.409,1378.079-3279.782,1378.02-3279.81,1377.649Z" transform="translate(3300.722 -1361.751)" fill="#ffefdc"/>
                <path id="Path_2737" data-name="Path 2737" d="M-3288.972,1379.283c.113-.369-.162-1.5-.32-1.2a5.467,5.467,0,0,0-.291,1.058C-3289.7,1379.5-3289.083,1379.642-3288.972,1379.283Z" transform="translate(3304.88 -1362.433)" fill="#ffefdc"/>
                <path id="Path_2738" data-name="Path 2738" d="M-3304.53,1378.622c.244-.311.41-1.455.151-1.23a5.841,5.841,0,0,0-.672.9C-3305.292,1378.6-3304.769,1378.923-3304.53,1378.622Z" transform="translate(3312.021 -1362.125)" fill="#ffefdc"/>
                <path id="Path_2739" data-name="Path 2739" d="M-3317.413,1374.267c.348-.211.94-1.229.611-1.1a6.376,6.376,0,0,0-.973.626C-3318.115,1374-3317.751,1374.473-3317.413,1374.267Z" transform="translate(3317.911 -1360.188)" fill="#ffefdc"/>
                <path id="Path_2740" data-name="Path 2740" d="M-3310.606,1373.338a3.776,3.776,0,0,0-1.434.592c-.364.168-.057.674.307.506C-3311.389,1374.276-3310.2,1373.322-3310.606,1373.338Z" transform="translate(3315.284 -1360.272)" fill="#ffefdc"/>
                <path id="Path_2741" data-name="Path 2741" d="M-3294.81,1351.818c-.327.222.115.638.437.418a3.983,3.983,0,0,1,1.663-.667A3.841,3.841,0,0,0-3294.81,1351.818Z" transform="translate(3307.332 -1350.229)" fill="#ffefdc"/>
                <path id="Path_2742" data-name="Path 2742" d="M-3288.515,1355.422c-.245.3.3.6.537.3.224-.273.528-.481.753-.757C-3287.015,1354.711-3288.221,1355.063-3288.515,1355.422Z" transform="translate(3304.411 -1351.777)" fill="#ffefdc"/>
                <path id="Path_2743" data-name="Path 2743" d="M-3285.738,1351.725c-.245.3.3.6.538.3.225-.274.527-.483.752-.759C-3284.239,1351.013-3285.444,1351.364-3285.738,1351.725Z" transform="translate(3303.132 -1350.075)" fill="#ffefdc"/>
                <path id="Path_2744" data-name="Path 2744" d="M-3293.515,1357.958c-.246.3.3.6.538.3.224-.275.527-.482.753-.758C-3292.016,1357.246-3293.221,1357.6-3293.515,1357.958Z" transform="translate(3306.712 -1352.943)" fill="#ffefdc"/>
                <path id="Path_2745" data-name="Path 2745" d="M-3277.015,1353.369a.438.438,0,0,1-.112-.268c-.022-.539-.529.6-.347.857C-3277.2,1354.354-3276.739,1353.763-3277.015,1353.369Z" transform="translate(3299.319 -1350.893)" fill="#ffefdc"/>
                <path id="Path_2746" data-name="Path 2746" d="M-3270.929,1352.405c-.219-.119-1.3-.094-.952.095.22.118.4.281.623.4C-3270.907,1353.087-3270.579,1352.593-3270.929,1352.405Z" transform="translate(3296.759 -1350.605)" fill="#ffefdc"/>
                <path id="Path_2747" data-name="Path 2747" d="M-3276.39,1349.2c-.218-.117-1.3-.093-.951.1.219.117.4.281.622.4C-3276.368,1349.887-3276.038,1349.393-3276.39,1349.2Z" transform="translate(3299.271 -1349.132)" fill="#ffefdc"/>
                <path id="Path_2748" data-name="Path 2748" d="M-3261.291,1351.509c-.371-.121-1.55.337-1.144.354a3.443,3.443,0,0,1,.963.2A.292.292,0,1,0-3261.291,1351.509Z" transform="translate(3292.418 -1350.217)" fill="#ffefdc"/>
              </g>
            </g>
            <path id="Path_2749" data-name="Path 2749" d="M-3304.687,1403.884h-.03a44.226,44.226,0,0,1-9-1.6c-3.583-1.217-5.214-2.244-6.464-4.072a.408.408,0,0,1,.106-.567.408.408,0,0,1,.567.107c1.136,1.659,2.664,2.608,6.053,3.759a44.345,44.345,0,0,0,8.794,1.562.407.407,0,0,1,.377.436A.407.407,0,0,1-3304.687,1403.884Z" transform="translate(3323.889 -1369.356)" fill="#0d0d0c"/>
          </g>
        </g>
      </g>
    </g>
    <path id="Path_2750" data-name="Path 2750" d="M-3346.24,1306.435" transform="translate(3379.334 -1297.022)" fill="none" stroke="#0d0d0c" stroke-linecap="round" stroke-linejoin="round" stroke-width="2"/>
    <path id="Path_2751" data-name="Path 2751" d="M-3388.574,1313.747" transform="translate(3398.817 -1300.387)" fill="none" stroke="#0d0d0c" stroke-linecap="round" stroke-linejoin="round" stroke-width="2"/>
    <path id="Path_2752" data-name="Path 2752" d="M-3388.574,1331.507" transform="translate(3398.817 -1308.56)" fill="none" stroke="#0d0d0c" stroke-linecap="round" stroke-linejoin="round" stroke-width="2"/>
    <path id="Path_2753" data-name="Path 2753" d="M-3388.954,1338.981a.416.416,0,0,1-.446-.378v-7.419a.416.416,0,0,1,.446-.379.416.416,0,0,1,.446.379v7.419A.416.416,0,0,1-3388.954,1338.981Z" transform="translate(3399.197 -1308.238)" fill="#0d0d0c"/>
    <path id="Path_2754" data-name="Path 2754" d="M-3388.574,1371.3" transform="translate(3398.817 -1326.875)" fill="none" stroke="#0d0d0c" stroke-linecap="round" stroke-linejoin="round" stroke-width="2"/>
    <path id="Path_2755" data-name="Path 2755" d="M-3270.219,1402.3h-114.09c-2.806,0-5.09-1.941-5.09-4.326v-66.491a.416.416,0,0,1,.446-.379.416.416,0,0,1,.446.379v66.491c0,1.967,1.884,3.568,4.2,3.568h114.09c2.315,0,4.2-1.6,4.2-3.568v-87.911c0-1.968-1.883-3.568-4.2-3.568H-3366.1a.417.417,0,0,1-.446-.379.417.417,0,0,1,.446-.379h95.884c2.807,0,5.09,1.941,5.09,4.326v87.911C-3265.129,1400.355-3267.412,1402.3-3270.219,1402.3Z" transform="translate(3399.197 -1296.698)" fill="#0d0d0c"/>
    <path id="Path_3943" data-name="Path 3943" d="M-3067.211,1360.281h-68.683a4.617,4.617,0,0,1-4.68-4.551,4.617,4.617,0,0,1,4.68-4.551h68.683a4.618,4.618,0,0,1,4.68,4.551A4.617,4.617,0,0,1-3067.211,1360.281Z" transform="translate(3288.146 -1285.258)" fill="#c9d6e8"/>
    <path id="Path_3944" data-name="Path 3944" d="M-3067.211,1323.767h-68.683a4.617,4.617,0,0,1-4.68-4.55,4.617,4.617,0,0,1,4.68-4.551h68.683a4.617,4.617,0,0,1,4.68,4.551A4.617,4.617,0,0,1-3067.211,1323.767Z" transform="translate(3288.144 -1268.453)" fill="#c9d6e8"/>
    <path id="Path_3945" data-name="Path 3945" d="M-3098.581,1396.233h-37.313a4.617,4.617,0,0,1-4.68-4.55,4.617,4.617,0,0,1,4.68-4.551h37.313a4.617,4.617,0,0,1,4.68,4.551A4.617,4.617,0,0,1-3098.581,1396.233Z" transform="translate(3288.146 -1301.804)" fill="#c9d6e8"/>
    <g id="Group_2840" data-name="Group 2840" transform="translate(147.57 23.434)">
      <g id="Group_2838" data-name="Group 2838">
        <path id="Path_6288" data-name="Path 6288" d="M881.327,929.507a3.829,3.829,0,0,1-2.652-.815,2.934,2.934,0,0,1-.9-2.291v-.815a2,2,0,0,1,.207-.907,4.568,4.568,0,0,1,.477-.761q.269-.346.477-.646a1,1,0,0,0,.207-.562.381.381,0,0,0-.107-.323.7.7,0,0,0-.385-.077h-1.061l.139-1.261h1.937q1.169,0,1.169,1.123a2.066,2.066,0,0,1-.208.938,5.393,5.393,0,0,1-.492.8,5.616,5.616,0,0,0-.492.792,1.955,1.955,0,0,0-.207.9v.938a1.476,1.476,0,0,0,.5,1.237,2.671,2.671,0,0,0,2.8-.007,1.539,1.539,0,0,0,.5-1.276v-1.015a1.642,1.642,0,0,0-.231-1.007,1.065,1.065,0,0,0-.861-.284h-.43l.077-1.215h.308a1.073,1.073,0,0,0,.891-.315,1.579,1.579,0,0,0,.246-.976V920.9h1.676v.754a2.868,2.868,0,0,1-.215,1.191,1.51,1.51,0,0,1-.892.731,1.549,1.549,0,0,1,.907.769,3.071,3.071,0,0,1,.2,1.184v.861a2.874,2.874,0,0,1-.953,2.3A3.9,3.9,0,0,1,881.327,929.507Z" transform="translate(-877.591 -918.621)" fill="#1d1d1b"/>
        <path id="Path_6289" data-name="Path 6289" d="M911.078,929.507a6.207,6.207,0,0,1-2.491-.462v-1.322a5.673,5.673,0,0,0,1.007.323,4.9,4.9,0,0,0,1.084.123,3.918,3.918,0,0,0,1.661-.292,1.74,1.74,0,0,0,.884-.946,4.62,4.62,0,0,0,.269-1.73,3.221,3.221,0,0,0-.654-2.275,2.935,2.935,0,0,0-2.176-.677,4.98,4.98,0,0,0-1.076.116,5.1,5.1,0,0,0-1,.331v-1.338a6.234,6.234,0,0,1,1.13-.338,6.62,6.62,0,0,1,1.314-.123A3.962,3.962,0,0,1,914.1,922a4.59,4.59,0,0,1,1.007,3.206,4.743,4.743,0,0,1-.961,3.2A3.859,3.859,0,0,1,911.078,929.507Z" transform="translate(-899.761 -918.621)" fill="#1d1d1b"/>
        <path id="Path_6290" data-name="Path 6290" d="M939.713,929.893a2.737,2.737,0,0,1-2.083-.784,3.108,3.108,0,0,1-.746-2.229v-5.443h1.676V926.8a1.83,1.83,0,0,0,.415,1.345,1.783,1.783,0,0,0,1.292.407,3.038,3.038,0,0,0,1.292-.284,3.19,3.19,0,0,0,1.015-.715v-6.12h1.661v8.3h-1.522l-.077-.907a4.82,4.82,0,0,1-1.284.769A4.307,4.307,0,0,1,939.713,929.893Z" transform="translate(-920.001 -919.007)" fill="#1d1d1b"/>
        <path id="Path_6291" data-name="Path 6291" d="M968.866,929.353v-3a2.6,2.6,0,0,1,.261-1.192,1.449,1.449,0,0,1,.953-.715l-1.661-.415v-1.722a6.233,6.233,0,0,1,1.622-.977,5.881,5.881,0,0,1,2.36-.438,4.521,4.521,0,0,1,2.814.761,3.024,3.024,0,0,1,.984,2.545v5.151h-1.676v-5.2a1.861,1.861,0,0,0-.5-1.484,2.621,2.621,0,0,0-1.684-.423,4.592,4.592,0,0,0-1.43.216,2.8,2.8,0,0,0-1.045.569v.277l1.753.446v1.107a1.445,1.445,0,0,0-.846.492,1.724,1.724,0,0,0-.246,1.015v2.983Z" transform="translate(-942.558 -918.621)" fill="#1d1d1b"/>
        <path id="Path_6292" data-name="Path 6292" d="M973.172,914.074l.077-1.169h6.335v1.169Z" transform="translate(-945.957 -912.905)" fill="#1d1d1b"/>
        <path id="Path_6293" data-name="Path 6293" d="M1005.377,929.893a2.736,2.736,0,0,1-2.083-.784,3.106,3.106,0,0,1-.746-2.229v-5.443h1.676V926.8a1.83,1.83,0,0,0,.415,1.345,1.783,1.783,0,0,0,1.292.407,3.038,3.038,0,0,0,1.292-.284,3.189,3.189,0,0,0,1.015-.715v-6.12h1.66v8.3h-1.522l-.077-.907a4.819,4.819,0,0,1-1.284.769A4.307,4.307,0,0,1,1005.377,929.893Z" transform="translate(-966.968 -919.007)" fill="#1d1d1b"/>
      </g>
    </g>
  </g>
</svg>
