<svg id="Group_2253" data-name="Group 2253" xmlns="http://www.w3.org/2000/svg" xmlns:xlink="http://www.w3.org/1999/xlink" width="278.518" height="115.529" viewBox="0 0 278.518 115.529">
  <defs>
    <clipPath id="clip-path">
      <path id="Path_2909" data-name="Path 2909" d="M2276.243,1234.031l.41-.849c-.014.028-.027.056-.039.085l-.41.849C2276.217,1234.088,2276.23,1234.06,2276.243,1234.031Z" transform="translate(-2276.204 -1233.183)" fill="none"/>
    </clipPath>
    <clipPath id="clip-path-2">
      <path id="Intersection_1" data-name="Intersection 1" d="M.212.948C.225.919.238.89.252.862L.678,0C.663.029.65.058.637.087A2.082,2.082,0,0,0,2.46,3.066l-.424.871A2.087,2.087,0,0,1,.212.948ZM.571,2.61A1.915,1.915,0,0,0,1.818,3.5L1.9,3.337a2.714,2.714,0,0,1-1.441-1A1.424,1.424,0,0,0,.571,2.61Z" transform="translate(0)" fill="none"/>
    </clipPath>
    <clipPath id="clip-path-3">
      <path id="Path_2926" data-name="Path 2926" d="M2271.844,1257.887l-.414.88a4.043,4.043,0,0,1-4.07,2.065,2.134,2.134,0,0,1-1.858-3.043l.423-.878a2.13,2.13,0,0,0,1.856,3.034A4.034,4.034,0,0,0,2271.844,1257.887Z" transform="translate(-2265.294 -1256.91)" fill="none"/>
    </clipPath>
  </defs>
  <g id="Group_1401" data-name="Group 1401" transform="translate(0)">
    <rect id="Rectangle_80" data-name="Rectangle 80" width="278.518" height="115.529" rx="7.164" fill="#fff"/>
    <rect id="Rectangle_81" data-name="Rectangle 81" width="123.379" height="95.805" rx="5" transform="translate(10.243 9.413)" fill="#edde1d"/>
    <path id="Path_2750" data-name="Path 2750" d="M-3346.24,1306.435" transform="translate(3379.334 -1297.022)" fill="none" stroke="#0d0d0c" stroke-linecap="round" stroke-linejoin="round" stroke-width="2"/>
    <path id="Path_2751" data-name="Path 2751" d="M-3388.574,1313.747" transform="translate(3398.817 -1300.387)" fill="none" stroke="#0d0d0c" stroke-linecap="round" stroke-linejoin="round" stroke-width="2"/>
    <path id="Path_2752" data-name="Path 2752" d="M-3388.574,1331.507" transform="translate(3398.817 -1308.56)" fill="none" stroke="#0d0d0c" stroke-linecap="round" stroke-linejoin="round" stroke-width="2"/>
    <path id="Path_2753" data-name="Path 2753" d="M-3388.954,1338.981a.416.416,0,0,1-.446-.378v-7.419a.416.416,0,0,1,.446-.379.416.416,0,0,1,.446.379v7.419A.416.416,0,0,1-3388.954,1338.981Z" transform="translate(3399.197 -1308.238)" fill="#0d0d0c"/>
    <path id="Path_2754" data-name="Path 2754" d="M-3388.574,1371.3" transform="translate(3398.817 -1326.875)" fill="none" stroke="#0d0d0c" stroke-linecap="round" stroke-linejoin="round" stroke-width="2"/>
    <path id="Path_2755" data-name="Path 2755" d="M-3270.219,1402.3h-114.09c-2.806,0-5.09-1.941-5.09-4.326v-66.491a.416.416,0,0,1,.446-.379.416.416,0,0,1,.446.379v66.491c0,1.967,1.884,3.568,4.2,3.568h114.09c2.315,0,4.2-1.6,4.2-3.568v-87.911c0-1.968-1.883-3.568-4.2-3.568H-3366.1a.417.417,0,0,1-.446-.379.417.417,0,0,1,.446-.379h95.884c2.807,0,5.09,1.941,5.09,4.326v87.911C-3265.129,1400.355-3267.412,1402.3-3270.219,1402.3Z" transform="translate(3399.197 -1296.698)" fill="#0d0d0c"/>
    <path id="Path_3946" data-name="Path 3946" d="M-3067.211,1360.281h-68.683a4.617,4.617,0,0,1-4.68-4.551,4.617,4.617,0,0,1,4.68-4.551h68.683a4.618,4.618,0,0,1,4.68,4.551A4.617,4.617,0,0,1-3067.211,1360.281Z" transform="translate(3288.145 -1289.813)" fill="#c9d6e8"/>
    <path id="Path_3947" data-name="Path 3947" d="M-3067.211,1323.767h-68.683a4.617,4.617,0,0,1-4.68-4.55,4.617,4.617,0,0,1,4.68-4.551h68.683a4.617,4.617,0,0,1,4.68,4.551A4.617,4.617,0,0,1-3067.211,1323.767Z" transform="translate(3288.145 -1273.008)" fill="#c9d6e8"/>
    <path id="Path_3948" data-name="Path 3948" d="M-3098.581,1396.233h-37.313a4.617,4.617,0,0,1-4.68-4.55,4.617,4.617,0,0,1,4.68-4.551h37.313a4.617,4.617,0,0,1,4.68,4.551A4.617,4.617,0,0,1-3098.581,1396.233Z" transform="translate(3288.145 -1306.359)" fill="#c9d6e8"/>
    <g id="Group_2836" data-name="Group 2836" transform="translate(147.57 15.664)">
      <g id="Group_2837" data-name="Group 2837" transform="translate(0)">
        <g id="Group_2836-2" data-name="Group 2836" transform="translate(0 0)">
          <path id="Path_6276" data-name="Path 6276" d="M215.025,929.507a3.83,3.83,0,0,1-2.652-.815,2.934,2.934,0,0,1-.9-2.291v-.815a2,2,0,0,1,.208-.907,4.538,4.538,0,0,1,.477-.761q.269-.346.477-.646a1,1,0,0,0,.208-.562.38.38,0,0,0-.108-.323.7.7,0,0,0-.384-.077h-1.061l.138-1.261h1.937q1.168,0,1.169,1.123a2.068,2.068,0,0,1-.208.938,5.409,5.409,0,0,1-.492.8,5.6,5.6,0,0,0-.492.792,1.953,1.953,0,0,0-.208.9v.938a1.476,1.476,0,0,0,.5,1.237,2.672,2.672,0,0,0,2.8-.007,1.539,1.539,0,0,0,.5-1.276v-1.015a1.642,1.642,0,0,0-.231-1.007,1.065,1.065,0,0,0-.861-.284h-.43l.077-1.215h.308a1.074,1.074,0,0,0,.892-.315,1.581,1.581,0,0,0,.246-.976V920.9h1.676v.754a2.862,2.862,0,0,1-.215,1.191,1.51,1.51,0,0,1-.892.731,1.55,1.55,0,0,1,.907.769,3.076,3.076,0,0,1,.2,1.184v.861a2.874,2.874,0,0,1-.953,2.3A3.894,3.894,0,0,1,215.025,929.507Z" transform="translate(-211.289 -917.252)" fill="#1d1d1b"/>
          <path id="Path_6277" data-name="Path 6277" d="M244.776,929.507a6.2,6.2,0,0,1-2.491-.462v-1.322a5.656,5.656,0,0,0,1.007.323,4.9,4.9,0,0,0,1.084.123,3.917,3.917,0,0,0,1.661-.292,1.74,1.74,0,0,0,.884-.946,4.62,4.62,0,0,0,.269-1.73,3.219,3.219,0,0,0-.653-2.275,2.934,2.934,0,0,0-2.176-.677,4.982,4.982,0,0,0-1.076.116,5.089,5.089,0,0,0-1,.331v-1.338a6.228,6.228,0,0,1,1.13-.338,6.621,6.621,0,0,1,1.315-.123A3.961,3.961,0,0,1,247.8,922,4.59,4.59,0,0,1,248.8,925.2a4.742,4.742,0,0,1-.961,3.2A3.858,3.858,0,0,1,244.776,929.507Z" transform="translate(-233.459 -917.252)" fill="#1d1d1b"/>
          <path id="Path_6278" data-name="Path 6278" d="M273.411,929.893a2.736,2.736,0,0,1-2.083-.784,3.107,3.107,0,0,1-.746-2.229v-5.443h1.676V926.8a1.831,1.831,0,0,0,.415,1.345,1.784,1.784,0,0,0,1.292.407,3.04,3.04,0,0,0,1.292-.284,3.186,3.186,0,0,0,1.015-.715v-6.12h1.661v8.3h-1.522l-.077-.907a4.82,4.82,0,0,1-1.284.769A4.307,4.307,0,0,1,273.411,929.893Z" transform="translate(-253.699 -917.638)" fill="#1d1d1b"/>
          <path id="Path_6279" data-name="Path 6279" d="M304.919,929.739a1.6,1.6,0,0,1-1.23-.415,1.678,1.678,0,0,1-.385-1.184v-6.7h1.661v6.289a.6.6,0,0,0,.677.692h.708v1.322Z" transform="translate(-277.105 -917.638)" fill="#1d1d1b"/>
          <path id="Path_6280" data-name="Path 6280" d="M321.632,929.507a3.82,3.82,0,0,1-1.422-.254,2.191,2.191,0,0,1-1.022-.815,2.548,2.548,0,0,1-.384-1.469,2.312,2.312,0,0,1,.823-1.891,3.708,3.708,0,0,1,2.406-.677h2.537v-.523a1.538,1.538,0,0,0-.454-1.268,2.828,2.828,0,0,0-1.684-.362,10.182,10.182,0,0,0-1.391.092,7.273,7.273,0,0,0-1.315.308v-1.292a9.243,9.243,0,0,1,1.392-.331,9.821,9.821,0,0,1,1.591-.131,3.963,3.963,0,0,1,2.675.761,3.013,3.013,0,0,1,.861,2.376v5.32h-1.676v-3.659H322.14a2.406,2.406,0,0,0-1.3.284,1.091,1.091,0,0,0-.439.991,1.044,1.044,0,0,0,.392.938,2.386,2.386,0,0,0,1.284.261,4.014,4.014,0,0,0,1.061-.123v1.276a5.972,5.972,0,0,1-.677.131A6.039,6.039,0,0,1,321.632,929.507Z" transform="translate(-288.19 -917.252)" fill="#1d1d1b"/>
          <path id="Path_6281" data-name="Path 6281" d="M339,910.621V908.1h1.676v2.522Z" transform="translate(-302.636 -908.099)" fill="#1d1d1b"/>
          <path id="Path_6282" data-name="Path 6282" d="M354.573,929.893a2.736,2.736,0,0,1-2.083-.784,3.107,3.107,0,0,1-.746-2.229v-5.443h1.676V926.8a1.831,1.831,0,0,0,.415,1.345,1.784,1.784,0,0,0,1.292.407,3.039,3.039,0,0,0,1.292-.284,3.186,3.186,0,0,0,1.015-.715v-6.12h1.661v8.3h-1.522l-.077-.907a4.819,4.819,0,0,1-1.284.769A4.306,4.306,0,0,1,354.573,929.893Z" transform="translate(-311.751 -917.638)" fill="#1d1d1b"/>
          <path id="Path_6283" data-name="Path 6283" d="M386.08,929.739a1.6,1.6,0,0,1-1.23-.415,1.68,1.68,0,0,1-.385-1.184v-6.7h1.661v6.289a.6.6,0,0,0,.677.692h.708v1.322Z" transform="translate(-335.156 -917.638)" fill="#1d1d1b"/>
          <path id="Path_6284" data-name="Path 6284" d="M400.249,929.353v-3a2.6,2.6,0,0,1,.261-1.192,1.449,1.449,0,0,1,.953-.715l-1.661-.415v-1.722a6.235,6.235,0,0,1,1.622-.977,5.882,5.882,0,0,1,2.36-.438,4.519,4.519,0,0,1,2.814.761,3.023,3.023,0,0,1,.984,2.545v5.151h-1.676v-5.2a1.861,1.861,0,0,0-.5-1.484,2.621,2.621,0,0,0-1.684-.423,4.592,4.592,0,0,0-1.43.216,2.8,2.8,0,0,0-1.046.569v.277l1.753.446v1.107a1.444,1.444,0,0,0-.846.492,1.723,1.723,0,0,0-.246,1.015v2.983Z" transform="translate(-346.126 -917.252)" fill="#1d1d1b"/>
          <path id="Path_6285" data-name="Path 6285" d="M438.451,929.893a4.233,4.233,0,0,1-1.638-.292,4.893,4.893,0,0,1-1.268-.769l-.092.907h-1.522v-8.3h1.676v6.12a3.223,3.223,0,0,0,1,.715,2.971,2.971,0,0,0,1.292.284,1.817,1.817,0,0,0,1.292-.407,1.789,1.789,0,0,0,.431-1.345v-5.366h1.661v5.443a3.09,3.09,0,0,1-.753,2.229A2.743,2.743,0,0,1,438.451,929.893Z" transform="translate(-370.537 -917.638)" fill="#1d1d1b"/>
        </g>
      </g>
    </g>
  </g>
  <g id="Group_1476" data-name="Group 1476" transform="translate(24.767 8.134)">
    <g id="Group_1473" data-name="Group 1473">
      <path id="Path_2893" data-name="Path 2893" d="M2259.051,1207.5c10.561-10.555,27.009-6.75,30.048-2.693l21.843,3.411s5.47-3.727,17.323.171c15.8,5.195,19.855,32.687-8.1,39.008l-27.294-9.347-25.7,2.485Z" transform="translate(-2248.144 -1176.724)" fill="#0d0d0c"/>
      <g id="Group_1438" data-name="Group 1438" transform="translate(5.655)">
        <path id="Path_2894" data-name="Path 2894" d="M2288.813,1179.384a1.508,1.508,0,0,1-.45-.067,1.3,1.3,0,0,1-.836-.761,1.319,1.319,0,0,1,.1-1.145,15.971,15.971,0,0,0,1.7-5.489c.484-4.29.75-9.078-2.247-11.6-4.283-3.834-9.788-3.484-14.646-3.175-1.437.092-2.8.176-4.086.162-5.613-.07-11.417-.142-16.032-2.491-5.543-2.822-6.545-9.14-6.8-14.328a1.5,1.5,0,0,1,1.288-1.456,1.463,1.463,0,0,1,1.189.248,1.148,1.148,0,0,1,.45.857.777.777,0,0,1-1.362.549c.267,4.989,1.22,10.343,5.938,12.745,4.291,2.184,9.911,2.254,15.346,2.322,1.234.016,2.562-.069,3.968-.158,5.162-.329,11.013-.7,15.762,3.552,3.567,3,3.3,8.254,2.773,12.944a17.607,17.607,0,0,1-1.521,5.34.77.77,0,0,1,.592.079.778.778,0,0,1,.281,1.063,1.658,1.658,0,0,1-1.132.779A1.6,1.6,0,0,1,2288.813,1179.384Zm.163-1.2h0Zm-42.074-37.966h0Z" transform="translate(-2245.525 -1139.004)" fill="#0d0d0c"/>
      </g>
      <g id="Group_1439" data-name="Group 1439" transform="translate(6.431 0.777)">
        <path id="Path_2895" data-name="Path 2895" d="M2290.184,1179.818a.78.78,0,0,1-.367-.019.506.506,0,0,1-.292-.775h0a16.574,16.574,0,0,0,1.8-5.791,11.549,11.549,0,0,0-4.3-10.684c-3.8-3.189-9.9-4.021-16.367-4.9-5.422-.739-11.029-1.5-15.39-3.723-4.939-2.514-7.466-6.546-7.744-12.247-.014-.287.283-.581.662-.656s.7.1.714.384c.626,12.178,11.612,13.675,22.231,15.122,6.642.9,12.913,1.759,16.955,5.146a12.593,12.593,0,0,1,4.638,11.527,17.485,17.485,0,0,1-1.943,6.212A.878.878,0,0,1,2290.184,1179.818Z" transform="translate(-2247.525 -1141.004)" fill="#fff"/>
      </g>
      <g id="Group_1472" data-name="Group 1472" transform="translate(0 26.278)">
        <g id="Group_1471" data-name="Group 1471">
          <g id="Group_1470" data-name="Group 1470">
            <g id="Group_1469" data-name="Group 1469">
              <g id="Group_1468" data-name="Group 1468">
                <path id="Path_2896" data-name="Path 2896" d="M2319.634,1235.968c-2.424,10.509-13.586,17.906-24.844,16.161a18.5,18.5,0,0,1-11.183-5.938l-23.738-3.677a23.979,23.979,0,0,1-13.675,2.085c-11.245-1.742-16.961-11.744-12.912-21.99q.25-.631.543-1.245c4.341-9.158,15.38-14.986,25.457-13.43a17.787,17.787,0,0,1,9.019,4.018l25.84,3.992a22.145,22.145,0,0,1,10.592-.99c10.088,1.559,16.658,10.114,15.149,19.72Q2319.784,1235.32,2319.634,1235.968Z" transform="translate(-2231.587 -1207.292)" fill="#c9d6e8"/>
                <path id="Path_2897" data-name="Path 2897" d="M2297.523,1252.158a22.321,22.321,0,0,1-3.417-.263,18.813,18.813,0,0,1-11.321-5.959L2259.3,1242.3a24.186,24.186,0,0,1-13.791,2.067c-5.581-.864-10.027-3.736-12.519-8.084a16.4,16.4,0,0,1-.695-14.432c.168-.428.355-.854.553-1.27,4.442-9.371,15.562-15.236,25.867-13.646a18.292,18.292,0,0,1,9.129,4.035l25.635,3.96a22.6,22.6,0,0,1,10.686-.974,18.706,18.706,0,0,1,12.423,7.323,17.11,17.11,0,0,1,3.052,12.841c-.067.437-.152.88-.254,1.319C2317.137,1245.2,2307.723,1252.158,2297.523,1252.158Zm-38.277-10.649a.434.434,0,0,1,.059,0l23.738,3.677a.388.388,0,0,1,.232.127,18.021,18.021,0,0,0,10.951,5.811c11.043,1.712,21.994-5.406,24.406-15.864h0c.1-.42.179-.845.243-1.263a16.334,16.334,0,0,0-2.912-12.264,17.932,17.932,0,0,0-11.914-7.014,21.833,21.833,0,0,0-10.406.973.386.386,0,0,1-.187.017l-25.84-3.992a.382.382,0,0,1-.195-.091,17.493,17.493,0,0,0-8.824-3.927,24.463,24.463,0,0,0-25.047,13.213c-.191.4-.37.811-.533,1.221a15.64,15.64,0,0,0,.646,13.761c2.372,4.139,6.621,6.875,11.964,7.7a23.433,23.433,0,0,0,13.452-2.054A.387.387,0,0,1,2259.246,1241.509Z" transform="translate(-2230.963 -1206.675)" fill="#0d0d0c"/>
                <g id="Group_1440" data-name="Group 1440" transform="translate(45.533 3.751)">
                  <path id="Path_2898" data-name="Path 2898" d="M2357.9,1218.289l-.726,1.886c-.511,1.327-1.725,2.295-2.7,2.145l-5.221-.807c-.971-.15-1.327-1.36-.794-2.683l.757-1.881c.152-.377.5-.651.781-.608l7.661,1.183C2357.942,1217.566,2358.05,1217.911,2357.9,1218.289Z" transform="translate(-2348.219 -1216.336)" fill="#fff"/>
                </g>
                <path id="Path_2899" data-name="Path 2899" d="M2319.382,1234.98c-3.725,9.61-14.988,16.178-25.725,14.515a17.262,17.262,0,0,1-10.826-5.844l-23.628-3.659a25.446,25.446,0,0,1-13.909,2.011,15.737,15.737,0,0,1-10.79-6.222l-.008-.014a12.7,12.7,0,0,1-1.687-3.293,15.4,15.4,0,0,1,.518-10.805c5.072-9.05,16.659-14.789,26.736-13.232a16.824,16.824,0,0,1,8.827,3.984l25.844,3.993a23.332,23.332,0,0,1,10.781-.956,16.94,16.94,0,0,1,11.81,7.147A15.536,15.536,0,0,1,2319.382,1234.98Z" transform="translate(-2231.635 -1207.597)" fill="#fff"/>
                <path id="Path_2900" data-name="Path 2900" d="M2326.9,1219.1a4.957,4.957,0,0,1,.826,3.71,5.947,5.947,0,0,0,.7-3.474Z" transform="translate(-2289.646 -1214.276)" fill="#c9d6e8"/>
                <path id="Path_2901" data-name="Path 2901" d="M2387.929,1229.01a8.995,8.995,0,0,0-3.487,3.044,7.116,7.116,0,0,1,1.962-3.279Z" transform="translate(-2324.843 -1220.193)" fill="#c9d6e8"/>
                <path id="Path_2902" data-name="Path 2902" d="M2359.686,1293.813a5.273,5.273,0,0,1-.752-3.642,6.232,6.232,0,0,0-.815,5.292Z" transform="translate(-2308.605 -1257.747)" fill="#c9d6e8"/>
                <path id="Path_2903" data-name="Path 2903" d="M2301.962,1286.488a5.261,5.261,0,0,0,2.279-2.292s.123,2-2.117,4.208Z" transform="translate(-2274.391 -1254.093)" fill="#c9d6e8"/>
                <path id="Path_2904" data-name="Path 2904" d="M2296.425,1249.524a22.469,22.469,0,0,1-3.444-.263,17.588,17.588,0,0,1-10.97-5.866l-23.373-3.62a25.638,25.638,0,0,1-14.02,1.994,16.221,16.221,0,0,1-11.049-6.382.354.354,0,0,1-.026-.042,13,13,0,0,1-1.718-3.363,15.761,15.761,0,0,1,.524-11.075.419.419,0,0,1,.022-.046c5.18-9.244,16.846-15.014,27.135-13.426a17.3,17.3,0,0,1,9.028,4.079.388.388,0,0,1-.521.577,16.531,16.531,0,0,0-8.626-3.888c-9.977-1.541-21.29,4.054-26.326,13.016a14.99,14.99,0,0,0-.5,10.511,12.305,12.305,0,0,0,1.635,3.194.377.377,0,0,1,.028.045,15.45,15.45,0,0,0,10.514,6.033,24.888,24.888,0,0,0,13.7-1.984.39.39,0,0,1,.214-.028l23.629,3.659a.388.388,0,0,1,.239.135,16.792,16.792,0,0,0,10.587,5.708c10.45,1.621,21.554-4.637,25.293-14.246a15.189,15.189,0,0,0-2.01-12.044,16.55,16.55,0,0,0-11.546-6.98,23.047,23.047,0,0,0-10.6.941.383.383,0,0,1-.18.015l-19.646-3.036a.388.388,0,1,1,.119-.768l19.555,3.021a23.812,23.812,0,0,1,10.873-.941,17.312,17.312,0,0,1,12.074,7.316,15.958,15.958,0,0,1,2.113,12.679.528.528,0,0,1-.016.052C2315.68,1243.4,2306.132,1249.524,2296.425,1249.524Z" transform="translate(-2231.02 -1206.98)" fill="#0d0d0c"/>
                <g id="Group_1459" data-name="Group 1459" transform="translate(5.602 4.809)">
                  <path id="Path_2905" data-name="Path 2905" d="M2270.805,1232.491c-2.532,5.99-9.963,10.119-16.547,9.1s-9.609-6.765-6.819-12.714a16.3,16.3,0,0,1,16.354-8.675C2270.121,1221.179,2273.282,1226.63,2270.805,1232.491Z" transform="translate(-2246.009 -1219.665)" fill="#c9d6e8"/>
                  <path id="Path_2906" data-name="Path 2906" d="M2253.639,1241.373a.461.461,0,0,1-.06,0,8.923,8.923,0,0,1-7.111-13.263c2.77-5.9,10.29-9.892,16.765-8.894a9.517,9.517,0,0,1,7.133,4.589,9.239,9.239,0,0,1,.177,8.236,14.938,14.938,0,0,1-4.879,6.048.389.389,0,0,1-.466-.622,14.154,14.154,0,0,0,4.629-5.728,8.48,8.48,0,0,0-.14-7.555,8.76,8.76,0,0,0-6.573-4.2c-6.159-.954-13.309,2.842-15.943,8.456a8.151,8.151,0,0,0,6.527,12.165.388.388,0,0,1-.059.772Z" transform="translate(-2245.389 -1219.059)" fill="#0d0d0c"/>
                  <path id="Path_2907" data-name="Path 2907" d="M2283.739,1272.7a.388.388,0,0,1-.122-.757c.5-.167,1.009-.361,1.5-.576a.388.388,0,1,1,.314.711c-.511.225-1.038.428-1.566.6A.385.385,0,0,1,2283.739,1272.7Z" transform="translate(-2268.609 -1251.037)" fill="#0d0d0c"/>
                  <g id="Group_1458" data-name="Group 1458" transform="translate(4.034 3.103)" style="isolation: isolate">
                    <g id="Group_1443" data-name="Group 1443" transform="translate(7.933 2.382)" style="isolation: isolate">
                      <g id="Group_1442" data-name="Group 1442" clip-path="url(#clip-path)">
                        <g id="Group_1441" data-name="Group 1441" style="isolation: isolate">
                          <path id="Path_2908" data-name="Path 2908" d="M2276.614,1233.268l-.41.849c.013-.029.026-.057.039-.085l.41-.849c-.014.028-.027.056-.039.085" transform="translate(-2276.204 -1233.183)" fill="#2094b5"/>
                        </g>
                      </g>
                    </g>
                    <g id="Group_1444" data-name="Group 1444" transform="translate(7.047 2.467)">
                      <path id="Path_2910" data-name="Path 2910" d="M2274.337,1235.409l-.413.855.885-2.013.41-.849Z" transform="translate(-2273.924 -1233.402)" fill="#25366f"/>
                    </g>
                    <g id="Group_1445" data-name="Group 1445" transform="translate(10.371 8.366)">
                      <path id="Path_2911" data-name="Path 2911" d="M2289.629,1250.5a3.873,3.873,0,0,1-.734.564,4.251,4.251,0,0,1-.828.38,3.888,3.888,0,0,1-1.789.174l-2.385-.356-.41.873,2.389.356a3.882,3.882,0,0,0,1.791-.175,4.258,4.258,0,0,0,.83-.381,3.888,3.888,0,0,0,.736-.566,3.121,3.121,0,0,0,.647-.905l.4-.866A3.094,3.094,0,0,1,2289.629,1250.5Z" transform="translate(-2283.094 -1249.205)" fill="#0d0d0c"/>
                      <path id="Path_2912" data-name="Path 2912" d="M2285.778,1252.3a3.927,3.927,0,0,1-.576-.042l-2.389-.356a.389.389,0,0,1-.294-.549l.411-.873a.392.392,0,0,1,.409-.219l2.385.355a3.481,3.481,0,0,0,1.607-.158,3.855,3.855,0,0,0,.752-.345,3.5,3.5,0,0,0,.661-.507,2.7,2.7,0,0,0,.565-.788.388.388,0,1,1,.705.325l-.4.866a3.482,3.482,0,0,1-.728,1.019,4.24,4.24,0,0,1-.809.623,4.656,4.656,0,0,1-.906.416A4.409,4.409,0,0,1,2285.778,1252.3Zm-2.333-1.089,1.872.279a3.437,3.437,0,0,0,1.417-.1,4.04,4.04,0,0,1-1.124-.006l-2.1-.313Z" transform="translate(-2282.482 -1248.593)" fill="#0d0d0c"/>
                    </g>
                    <g id="Group_1447" data-name="Group 1447" transform="translate(2.037 8.792)">
                      <g id="Group_1446" data-name="Group 1446">
                        <path id="Path_2913" data-name="Path 2913" d="M2264.831,1251.044l-.42.871-2.389-.356.424-.871Z" transform="translate(-2261.634 -1250.301)" fill="#0d0d0c"/>
                        <path id="Path_2914" data-name="Path 2914" d="M2263.8,1251.693a.419.419,0,0,1-.058,0l-2.388-.356a.388.388,0,0,1-.292-.554l.424-.871a.39.39,0,0,1,.406-.214l2.385.355a.389.389,0,0,1,.292.553l-.42.871A.388.388,0,0,1,2263.8,1251.693Zm-1.808-1.051,1.582.236.067-.139-1.582-.236Z" transform="translate(-2261.022 -1249.69)" fill="#0d0d0c"/>
                      </g>
                    </g>
                    <g id="Group_1451" data-name="Group 1451" transform="translate(0 5.725)" style="isolation: isolate">
                      <path id="Path_2915" data-name="Path 2915" d="M2257.031,1243.655l.426-.862c-.014.029-.028.057-.041.086a2.082,2.082,0,0,0,1.823,2.98l-.424.871a2.087,2.087,0,0,1-1.824-2.989Z" transform="translate(-2256.389 -1242.405)" fill="#0d0d0c"/>
                      <path id="Path_2916" data-name="Path 2916" d="M2258.2,1246.507a.418.418,0,0,1-.057,0,2.779,2.779,0,0,1-2.09-1.339,2.418,2.418,0,0,1-.032-2.194c.015-.033.031-.066.047-.1l.425-.862a.388.388,0,0,1,.7.344l-.035.075a1.649,1.649,0,0,0,.006,1.494,2.013,2.013,0,0,0,1.521.941.389.389,0,0,1,.292.554l-.424.871A.389.389,0,0,1,2258.2,1246.507Zm-1.58-1.986a1.413,1.413,0,0,0,.115.271,1.914,1.914,0,0,0,1.247.888l.079-.161A2.712,2.712,0,0,1,2256.622,1244.521Z" transform="translate(-2255.776 -1241.793)" fill="#0d0d0c"/>
                      <g id="Group_1450" data-name="Group 1450" transform="translate(0.389 0.388)" clip-path="url(#clip-path-2)">
                        <g id="Group_1449" data-name="Group 1449" transform="translate(-0.389 -0.388)">
                          <g id="Group_1448" data-name="Group 1448">
                            <path id="Path_2917" data-name="Path 2917" d="M2258.2,1246.507a.418.418,0,0,1-.057,0,2.779,2.779,0,0,1-2.09-1.339,2.418,2.418,0,0,1-.032-2.194c.015-.033.031-.066.047-.1l.425-.862a.388.388,0,0,1,.7.344l-.035.075a1.649,1.649,0,0,0,.006,1.494,2.013,2.013,0,0,0,1.521.941.389.389,0,0,1,.292.554l-.424.871A.389.389,0,0,1,2258.2,1246.507Zm-1.58-1.986a1.413,1.413,0,0,0,.115.271,1.914,1.914,0,0,0,1.247.888l.079-.161A2.712,2.712,0,0,1,2256.622,1244.521Z" transform="translate(-2255.776 -1241.793)" fill="#0d0d0c"/>
                          </g>
                        </g>
                      </g>
                    </g>
                    <g id="Group_1452" data-name="Group 1452" transform="translate(3.905 9.535)">
                      <path id="Path_2920" data-name="Path 2920" d="M2266.255,1253.664l-.423.878.909-2.067.42-.871Z" transform="translate(-2265.832 -1251.604)" fill="#25366f"/>
                    </g>
                    <g id="Group_1454" data-name="Group 1454" transform="translate(0.426)">
                      <g id="Group_1453" data-name="Group 1453">
                        <path id="Path_2921" data-name="Path 2921" d="M2269.408,1228.086a2.08,2.08,0,0,1,1.853,2.914l-.861,2.01,2.362.352a2.128,2.128,0,0,1,1.886,2.966,3.92,3.92,0,0,1-4.034,2.107l-2.385-.355-.884,2.064a4.012,4.012,0,0,1-4.1,2.146,2.13,2.13,0,0,1-1.857-3.034l.906-2.06-2.385-.355a2.082,2.082,0,0,1-1.824-2.98,4.022,4.022,0,0,1,4.072-2.078l2.362.352.883-2.007A3.925,3.925,0,0,1,2269.408,1228.086Z" transform="translate(-2257.487 -1227.66)" fill="#fff"/>
                        <path id="Path_2922" data-name="Path 2922" d="M2263.149,1242.1a3.929,3.929,0,0,1-.574-.042,2.813,2.813,0,0,1-2.106-1.347,2.465,2.465,0,0,1-.048-2.227l.7-1.6-1.882-.28a2.777,2.777,0,0,1-2.088-1.337,2.408,2.408,0,0,1-.032-2.186,4.425,4.425,0,0,1,4.483-2.3l2.069.308.763-1.735a4.331,4.331,0,0,1,4.418-2.269h0a2.8,2.8,0,0,1,2.084,1.322,2.371,2.371,0,0,1,.068,2.128l-.662,1.547,1.865.278a2.828,2.828,0,0,1,2.1,1.334,2.424,2.424,0,0,1,.085,2.166,4.315,4.315,0,0,1-4.449,2.341l-2.088-.311-.765,1.789A4.4,4.4,0,0,1,2263.149,1242.1Zm-2.116-10.582a3.643,3.643,0,0,0-3.205,1.886,1.651,1.651,0,0,0,.006,1.5,2.012,2.012,0,0,0,1.521.941l2.384.355a.388.388,0,0,1,.3.54l-.906,2.06a1.707,1.707,0,0,0,.017,1.539,2.047,2.047,0,0,0,1.541.954,3.645,3.645,0,0,0,3.687-1.915l.883-2.064a.388.388,0,0,1,.414-.231l2.385.355a3.55,3.55,0,0,0,3.618-1.872,1.665,1.665,0,0,0-.045-1.485,2.064,2.064,0,0,0-1.539-.947l-2.363-.352a.389.389,0,0,1-.3-.537l.861-2.01a1.609,1.609,0,0,0-.032-1.443,2.027,2.027,0,0,0-1.521-.933h0a3.56,3.56,0,0,0-3.593,1.813l-.882,2.007a.389.389,0,0,1-.413.227l-2.362-.352A3.1,3.1,0,0,0,2261.033,1231.523Z" transform="translate(-2256.873 -1227.05)" fill="#0d0d0c"/>
                        <path id="Path_2923" data-name="Path 2923" d="M2266.655,1242.755a1.421,1.421,0,0,1-1.252-2.008l1-2.285-2.607-.388a1.392,1.392,0,0,1-1.243-1.973,2.314,2.314,0,0,1,1.031-1.047,2.782,2.782,0,0,1,1.692-.321l2.593.386.979-2.234a2.236,2.236,0,0,1,1-1.028,2.748,2.748,0,0,1,1.674-.315,1.391,1.391,0,0,1,1.26,1.934l-.959,2.233,2.588.386a1.422,1.422,0,0,1,1.283,1.968,2.239,2.239,0,0,1-1,1.054,2.737,2.737,0,0,1-1.694.328l-2.612-.389-.984,2.292a2.323,2.323,0,0,1-1.028,1.074,2.776,2.776,0,0,1-1.713.334Z" transform="translate(-2260.265 -1229.783)" fill="#ed759d"/>
                      </g>
                    </g>
                    <g id="Group_1457" data-name="Group 1457" transform="translate(3.696 11.595)" style="isolation: isolate">
                      <g id="Group_1456" data-name="Group 1456" clip-path="url(#clip-path-3)">
                        <g id="Group_1455" data-name="Group 1455" transform="translate(-0.389 -0.389)">
                          <path id="Path_2924" data-name="Path 2924" d="M2271.18,1258.806a4,4,0,0,1-.75.574,4.34,4.34,0,0,1-.841.386,3.91,3.91,0,0,1-1.807.178,2.13,2.13,0,0,1-1.856-3.034l-.423.878a2.134,2.134,0,0,0,1.858,3.043,3.91,3.91,0,0,0,1.81-.179,4.326,4.326,0,0,0,.842-.388,4.015,4.015,0,0,0,.751-.575,3.217,3.217,0,0,0,.667-.923l.414-.88A3.218,3.218,0,0,1,2271.18,1258.806Z" transform="translate(-2264.905 -1256.521)" fill="#0d0d0c"/>
                          <path id="Path_2925" data-name="Path 2925" d="M2267.266,1260.645a3.9,3.9,0,0,1-.576-.042,2.816,2.816,0,0,1-2.109-1.349,2.475,2.475,0,0,1-.048-2.235l.43-.891a.388.388,0,0,1,.705.325,1.708,1.708,0,0,0,.017,1.539,2.048,2.048,0,0,0,1.542.954,3.5,3.5,0,0,0,1.625-.162,3.924,3.924,0,0,0,.765-.351,3.6,3.6,0,0,0,.677-.518h0a2.813,2.813,0,0,0,.586-.807.388.388,0,1,1,.7.33h0v0l-.413.878a3.6,3.6,0,0,1-.747,1.035,4.439,4.439,0,0,1-.824.632,4.728,4.728,0,0,1-.918.422A4.458,4.458,0,0,1,2267.266,1260.645Zm-2.132-2.07a1.531,1.531,0,0,0,.128.3,2.049,2.049,0,0,0,1.542.956,3.49,3.49,0,0,0,1.5-.122,4.108,4.108,0,0,1-1.193,0A2.886,2.886,0,0,1,2265.134,1258.575Z" transform="translate(-2264.292 -1255.909)" fill="#0d0d0c"/>
                        </g>
                      </g>
                    </g>
                  </g>
                </g>
                <g id="Group_1465" data-name="Group 1465" transform="translate(58.866 12.973)">
                  <path id="Path_2927" data-name="Path 2927" d="M2407.616,1253.3c-1.946,6.086-8.9,10.291-15.49,9.271s-10.109-6.846-7.9-12.889c2.157-5.912,9.005-9.818,15.339-8.839S2409.52,1247.351,2407.616,1253.3Z" transform="translate(-2383.172 -1240.459)" fill="#c9d6e8"/>
                  <path id="Path_2928" data-name="Path 2928" d="M2427.65,1241.986a.391.391,0,0,1-.178-.043,10.95,10.95,0,0,0-3.384-1.087.388.388,0,0,1,.118-.768,11.717,11.717,0,0,1,3.624,1.165.388.388,0,0,1-.179.733Z" transform="translate(-2407.759 -1240.084)" fill="#0d0d0c"/>
                  <path id="Path_2929" data-name="Path 2929" d="M2393.514,1267.021a13.47,13.47,0,0,1-2.065-.158,10.39,10.39,0,0,1-7.591-4.856,9.873,9.873,0,0,1-.619-8.55,13.63,13.63,0,0,1,4.879-6.3.388.388,0,0,1,.457.628,12.857,12.857,0,0,0-4.606,5.941,9.112,9.112,0,0,0,.558,7.889,9.631,9.631,0,0,0,7.041,4.484c6.4.99,13.157-3.049,15.061-9.006a8.841,8.841,0,0,0-1.779-8.9.388.388,0,1,1,.572-.525,9.6,9.6,0,0,1,1.947,9.667C2405.558,1262.993,2399.608,1267.021,2393.514,1267.021Z" transform="translate(-2382.555 -1244.364)" fill="#0d0d0c"/>
                  <g id="Group_1464" data-name="Group 1464" transform="translate(5.425 4.098)">
                    <g id="Group_1461" data-name="Group 1461">
                      <g id="Group_1460" data-name="Group 1460" transform="translate(0 0.172)">
                        <path id="Path_2930" data-name="Path 2930" d="M2404.8,1255.925a4.417,4.417,0,0,1-4.709,2.736,2.814,2.814,0,0,1-2.367-3.843,4.425,4.425,0,0,1,4.695-2.7A2.813,2.813,0,0,1,2404.8,1255.925Z" transform="translate(-2397.139 -1251.688)" fill="#0d0d0c"/>
                        <path id="Path_2931" data-name="Path 2931" d="M2400.083,1258.487a4.29,4.29,0,0,1-.666-.051,3.382,3.382,0,0,1-2.465-1.585,3.208,3.208,0,0,1-.207-2.774,4.843,4.843,0,0,1,5.12-2.948,3.391,3.391,0,0,1,2.456,1.57,3.2,3.2,0,0,1,.232,2.745l-.367-.128.367.128A4.828,4.828,0,0,1,2400.083,1258.487Zm1.109-6.633a4.034,4.034,0,0,0-3.716,2.487,2.448,2.448,0,0,0,.145,2.115,2.624,2.624,0,0,0,1.917,1.212,4.013,4.013,0,0,0,4.283-2.48,2.44,2.44,0,0,0-.165-2.09,2.629,2.629,0,0,0-1.91-1.2A3.578,3.578,0,0,0,2401.191,1251.854Z" transform="translate(-2396.526 -1251.079)" fill="#0d0d0c"/>
                      </g>
                      <path id="Path_2932" data-name="Path 2932" d="M2405.321,1254.479a4.412,4.412,0,0,1-4.7,2.729,2.81,2.81,0,0,1-2.366-3.836,4.419,4.419,0,0,1,4.689-2.69A2.81,2.81,0,0,1,2405.321,1254.479Z" transform="translate(-2397.462 -1250.636)" fill="#fff"/>
                      <path id="Path_2933" data-name="Path 2933" d="M2401.9,1257.548a2.3,2.3,0,0,1-1.937-3.135,3.621,3.621,0,0,1,3.832-2.2,2.3,2.3,0,0,1,1.952,3.109,3.617,3.617,0,0,1-3.842,2.231Z" transform="translate(-2398.533 -1251.575)" fill="#ed759d"/>
                    </g>
                    <g id="Group_1463" data-name="Group 1463" transform="translate(5.791 6.46)">
                      <g id="Group_1462" data-name="Group 1462" transform="translate(0 0.182)">
                        <path id="Path_2934" data-name="Path 2934" d="M2419.75,1272.655a4.345,4.345,0,0,1-4.679,2.795,2.917,2.917,0,0,1-2.454-3.912,4.352,4.352,0,0,1,4.666-2.754A2.918,2.918,0,0,1,2419.75,1272.655Z" transform="translate(-2412.052 -1268.349)" fill="#0d0d0c"/>
                        <path id="Path_2935" data-name="Path 2935" d="M2415.061,1275.274a4.369,4.369,0,0,1-.664-.051,3.468,3.468,0,0,1-2.5-1.6,3.308,3.308,0,0,1-.263-2.821,4.767,4.767,0,0,1,5.094-3.014,3.475,3.475,0,0,1,2.489,1.583,3.3,3.3,0,0,1,.289,2.792h0A4.752,4.752,0,0,1,2415.061,1275.274Zm1-6.759a3.964,3.964,0,0,0-3.688,2.537,2.547,2.547,0,0,0,.192,2.17,2.706,2.706,0,0,0,1.955,1.234,3.941,3.941,0,0,0,4.25-2.531,2.537,2.537,0,0,0-.212-2.145,2.708,2.708,0,0,0-1.947-1.222A3.492,3.492,0,0,0,2416.059,1268.515Zm3.078,3.53h0Z" transform="translate(-2411.438 -1267.739)" fill="#0d0d0c"/>
                      </g>
                      <path id="Path_2936" data-name="Path 2936" d="M2420.245,1271.181a4.339,4.339,0,0,1-4.674,2.788,2.913,2.913,0,0,1-2.453-3.9,4.345,4.345,0,0,1,4.659-2.748A2.914,2.914,0,0,1,2420.245,1271.181Z" transform="translate(-2412.359 -1267.271)" fill="#fff"/>
                      <path id="Path_2937" data-name="Path 2937" d="M2416.847,1274.313a2.386,2.386,0,0,1-2.008-3.191,3.561,3.561,0,0,1,3.807-2.252,2.388,2.388,0,0,1,2.023,3.165,3.557,3.557,0,0,1-3.817,2.279Z" transform="translate(-2413.433 -1268.226)" fill="#155aa7"/>
                    </g>
                  </g>
                </g>
                <g id="Group_1466" data-name="Group 1466" transform="translate(35.688 16.402)">
                  <path id="Path_2938" data-name="Path 2938" d="M2327.233,1252.167l-4-.619a.4.4,0,0,1-.328-.567l.293-.71a.706.706,0,0,1,.726-.4l3.989.617a.4.4,0,0,1,.332.565l-.286.711A.7.7,0,0,1,2327.233,1252.167Z" transform="translate(-2322.866 -1249.494)" fill="#0d0d0c"/>
                  <path id="Path_2939" data-name="Path 2939" d="M2327.623,1251.216l-4-.619a.4.4,0,0,1-.328-.566l.293-.709a.706.706,0,0,1,.725-.4l3.987.617a.4.4,0,0,1,.332.564l-.286.71A.7.7,0,0,1,2327.623,1251.216Z" transform="translate(-2323.107 -1248.915)" fill="#0d0d0c"/>
                </g>
                <g id="Group_1467" data-name="Group 1467" transform="translate(49.566 18.702)">
                  <path id="Path_2940" data-name="Path 2940" d="M2362.982,1258.1l-4-.62a.408.408,0,0,1-.34-.569l.275-.713a.684.684,0,0,1,.713-.4l3.992.617a.411.411,0,0,1,.344.567l-.269.715A.679.679,0,0,1,2362.982,1258.1Z" transform="translate(-2358.605 -1255.419)" fill="#0d0d0c"/>
                  <path id="Path_2941" data-name="Path 2941" d="M2363.347,1257.146l-4-.619a.409.409,0,0,1-.341-.568l.275-.713a.683.683,0,0,1,.713-.4l3.99.617a.411.411,0,0,1,.344.567l-.268.714A.679.679,0,0,1,2363.347,1257.146Z" transform="translate(-2358.83 -1254.837)" fill="#0d0d0c"/>
                </g>
              </g>
            </g>
          </g>
        </g>
        <path id="Path_2942" data-name="Path 2942" d="M2281,1235.893l-1.159-.179.986-.82.983-.817.174,1,.175,1Z" transform="translate(-2260.863 -1223.436)" fill="#fff"/>
        <path id="Path_2943" data-name="Path 2943" d="M2274.208,1253.661l-1.174-.182.168,1.028.168,1.032,1.007-.85,1-.847Z" transform="translate(-2256.697 -1235.304)" fill="#fff"/>
        <path id="Path_2944" data-name="Path 2944" d="M2266.667,1242.652l-.485,1.067-.768-.69-.766-.689,1.252-.375,1.249-.374Z" transform="translate(-2251.568 -1228.032)" fill="#fff"/>
        <path id="Path_2945" data-name="Path 2945" d="M2289.236,1245.916l-.467,1.07,1.244-.379,1.242-.378-.778-.689-.777-.688Z" transform="translate(-2266.321 -1230.026)" fill="#fff"/>
      </g>
      <path id="Path_2946" data-name="Path 2946" d="M2327.024,1224.785a.388.388,0,0,1-.369-.51,7.565,7.565,0,0,0-.7-5.586.388.388,0,0,1,.667-.4,8.223,8.223,0,0,1,.771,6.227A.388.388,0,0,1,2327.024,1224.785Z" transform="translate(-2289.034 -1187.387)" fill="#0d0d0c"/>
      <path id="Path_2947" data-name="Path 2947" d="M2301.35,1285.129a.389.389,0,0,1-.185-.73,5.276,5.276,0,0,0,2.467-2.782.388.388,0,0,1,.744.222,5.961,5.961,0,0,1-2.842,3.244A.391.391,0,0,1,2301.35,1285.129Z" transform="translate(-2273.78 -1226.068)" fill="#0d0d0c"/>
      <path id="Path_2948" data-name="Path 2948" d="M2360.817,1293.575a.388.388,0,0,1-.339-.2,6.764,6.764,0,0,1-.914-3.833.381.381,0,0,1,.4-.374.388.388,0,0,1,.375.4,5.97,5.97,0,0,0,.815,3.427.388.388,0,0,1-.339.578Z" transform="translate(-2309.621 -1230.856)" fill="#0d0d0c"/>
      <path id="Path_2949" data-name="Path 2949" d="M2381.489,1232.89a.387.387,0,0,1-.352-.551,8.843,8.843,0,0,1,4.623-3.938.389.389,0,1,1,.249.736,8.085,8.085,0,0,0-4.168,3.528A.388.388,0,0,1,2381.489,1232.89Z" transform="translate(-2322.8 -1193.673)" fill="#0d0d0c"/>
      <path id="Path_2950" data-name="Path 2950" d="M2377.823,1243.3l-.68-.375s.7-1.263.835-1.53a.389.389,0,0,1,.69.356C2378.529,1242.023,2377.823,1243.3,2377.823,1243.3Z" transform="translate(-2320.378 -1201.507)" fill="#0d0d0c"/>
    </g>
  </g>
</svg>
