<svg xmlns="http://www.w3.org/2000/svg" width="278.394" height="115.529" viewBox="0 0 278.394 115.529">
  <g id="Exercise_card" data-name="Exercise card" transform="translate(0.001 0)">
    <path id="Path_3949" data-name="Path 3949" d="M6.668,0H271.726a6.668,6.668,0,0,1,6.668,6.668V108.861a6.668,6.668,0,0,1-6.668,6.668H6.668A6.668,6.668,0,0,1,0,108.861V6.668A6.668,6.668,0,0,1,6.668,0Z" transform="translate(-0.001 0)" fill="#fff"/>
    <rect id="Rectangle_81" data-name="Rectangle 81" width="123.379" height="95.805" rx="6" transform="translate(10.242 9.862)" fill="#edde1d"/>
    <path id="Path_2750" data-name="Path 2750" d="M-3346.24,1306.435" transform="translate(3379.333 -1296.573)" fill="none" stroke="#0d0d0c" stroke-linecap="round" stroke-linejoin="round" stroke-width="2"/>
    <path id="Path_2751" data-name="Path 2751" d="M-3388.574,1313.747" transform="translate(3398.816 -1299.938)" fill="none" stroke="#0d0d0c" stroke-linecap="round" stroke-linejoin="round" stroke-width="2"/>
    <path id="Path_2752" data-name="Path 2752" d="M-3388.574,1331.507" transform="translate(3398.816 -1308.111)" fill="none" stroke="#0d0d0c" stroke-linecap="round" stroke-linejoin="round" stroke-width="2"/>
    <path id="Path_2753" data-name="Path 2753" d="M-3388.954,1338.981a.416.416,0,0,1-.446-.378v-7.419a.416.416,0,0,1,.446-.379.416.416,0,0,1,.446.379v7.419A.416.416,0,0,1-3388.954,1338.981Z" transform="translate(3399.196 -1307.789)" fill="#0d0d0c"/>
    <path id="Path_2754" data-name="Path 2754" d="M-3388.574,1371.3" transform="translate(3398.816 -1326.426)" fill="none" stroke="#0d0d0c" stroke-linecap="round" stroke-linejoin="round" stroke-width="2"/>
    <path id="Path_2755" data-name="Path 2755" d="M-3270.219,1402.3h-114.09c-2.806,0-5.09-1.941-5.09-4.326v-66.491a.416.416,0,0,1,.446-.379.416.416,0,0,1,.446.379v66.491c0,1.967,1.884,3.568,4.2,3.568h114.09c2.315,0,4.2-1.6,4.2-3.568v-87.911c0-1.968-1.883-3.568-4.2-3.568H-3366.1a.417.417,0,0,1-.446-.379.417.417,0,0,1,.446-.379h95.884c2.807,0,5.09,1.941,5.09,4.326v87.911C-3265.129,1400.355-3267.412,1402.3-3270.219,1402.3Z" transform="translate(3399.196 -1296.249)" fill="#0d0d0c"/>
    <path id="Path_3950" data-name="Path 3950" d="M-3067.211,1360.281h-68.683a4.617,4.617,0,0,1-4.68-4.551,4.617,4.617,0,0,1,4.68-4.551h68.683a4.618,4.618,0,0,1,4.68,4.551A4.617,4.617,0,0,1-3067.211,1360.281Z" transform="translate(3288.144 -1285.782)" fill="#c9d6e8"/>
    <path id="Path_3951" data-name="Path 3951" d="M-3067.211,1323.767h-68.683a4.617,4.617,0,0,1-4.68-4.55,4.617,4.617,0,0,1,4.68-4.551h68.683a4.617,4.617,0,0,1,4.68,4.551A4.617,4.617,0,0,1-3067.211,1323.767Z" transform="translate(3288.144 -1268.977)" fill="#c9d6e8"/>
    <path id="Path_3952" data-name="Path 3952" d="M-3098.581,1396.233h-37.313a4.617,4.617,0,0,1-4.68-4.55,4.617,4.617,0,0,1,4.68-4.551h37.313a4.617,4.617,0,0,1,4.68,4.551A4.617,4.617,0,0,1-3098.581,1396.233Z" transform="translate(3288.144 -1302.328)" fill="#c9d6e8"/>
    <text id="ชวนออกกำลังกาย" transform="translate(205.569 32.391)" font-size="16" font-family="Kanit-Regular, Kanit"><tspan x="-58.464" y="0">ชวนออกกำลังกาย</tspan></text>
    <g id="Group_2256" data-name="Group 2256" transform="translate(29.042 25.635)">
      <path id="Path_2865" data-name="Path 2865" d="M2439.863,1451.97s15.119-11.186,18.253-14.429-7.886-7.409-11.693-3.812l-12.248,8.427-7.775,6.111-21.207-1.372-26.646-.839s-1.94,4.479,1.187,4.676,8.218.268,8.218.268l6.808,3.195h7.483c4.333,0,8.132-.952,9.184-2.379h10.805Z" transform="translate(-2366.081 -1395.6)"/>
      <g id="Group_1436" data-name="Group 1436" transform="translate(0 0)">
        <g id="Group_1430" data-name="Group 1430" transform="translate(0 23.959)">
          <path id="Path_2866" data-name="Path 2866" d="M2359.835,1407.592a23.732,23.732,0,0,0-8.487,9.2,14.84,14.84,0,0,0,3.206,14.769c8.028,9.148,16.116,4.967,16.116,4.967a27.8,27.8,0,0,0,8.274-7.8Z" transform="translate(-2350.226 -1405.217)" fill="#fdd89b"/>
          <path id="Path_2867" data-name="Path 2867" d="M2382.495,1406.994c5.869,5.328,6.816,13.844,2.117,19.02s-13.267,5.052-19.135-.277-6.816-13.844-2.116-19.02S2376.626,1401.665,2382.495,1406.994Z" transform="translate(-2355.893 -1402.507)" fill="#fff"/>
          <path id="Path_2868" data-name="Path 2868" d="M2384.927,1408.109c5.63,5.111,6.567,13.248,2.094,18.174s-12.662,4.776-18.291-.336-6.567-13.248-2.094-18.174S2379.3,1403,2384.927,1408.109Z" transform="translate(-2357.885 -1403.236)" fill="#c78c50"/>
          <path id="Path_2869" data-name="Path 2869" d="M2375.148,1429.631a15.675,15.675,0,0,1-10.462-4.172,15.358,15.358,0,0,1-5.226-11.713.4.4,0,0,1,.4-.375.386.386,0,0,1,.374.4,14.591,14.591,0,0,0,4.973,11.123c5.7,5.177,14.041,5.312,18.59.3a11.491,11.491,0,0,0,2.808-9.151,14.894,14.894,0,0,0-4.9-9.325c-4.795-4.354-11.744-5.227-16.521-2.076a.385.385,0,0,1-.424-.643c5.149-3.4,12.33-2.512,17.464,2.149a15.669,15.669,0,0,1,5.145,9.81,12,12,0,0,1-12.22,13.675Z" transform="translate(-2355.361 -1401.944)" fill="#0d0d0c"/>
          <path id="Path_2870" data-name="Path 2870" d="M2377.448,1436.905c-2.92.661-3.75,8.359-2.574,11.429,0,0,1.018,6.745-6.085,3.557a11.456,11.456,0,0,0,6.108,2.574c4.057.572,6.063-.7,6.063-.7Z" transform="translate(-2360.77 -1422.203)"/>
          <path id="Path_2871" data-name="Path 2871" d="M2365.527,1442.667c-3.168,0-7.5-1.163-11.768-6.026a15.357,15.357,0,0,1-3.272-15.167,24.3,24.3,0,0,1,3.846-5.428.385.385,0,0,1,.562.526,23.546,23.546,0,0,0-3.709,5.223,14.59,14.59,0,0,0,3.153,14.337c7.722,8.8,15.331,5.044,15.651,4.879a27.641,27.641,0,0,0,8.129-7.672.385.385,0,1,1,.643.425,27.886,27.886,0,0,1-8.4,7.923A11.563,11.563,0,0,1,2365.527,1442.667Z" transform="translate(-2349.72 -1410.045)" fill="#0d0d0c"/>
        </g>
        <g id="Group_1431" data-name="Group 1431" transform="translate(14.736 28.565)">
          <path id="Path_2872" data-name="Path 2872" d="M2405.29,1414.1a23.726,23.726,0,0,0-12.429,1.458,14.842,14.842,0,0,0-7.18,13.3c.141,12.17,9,14.261,9,14.261a27.8,27.8,0,0,0,11.359-.537Z" transform="translate(-2385.294 -1413.436)" fill="#fdd89b"/>
          <path id="Path_2873" data-name="Path 2873" d="M2398.656,1443.316a26.694,26.694,0,0,1-4.575-.364c-.108-.025-9.173-2.307-9.315-14.635a15.361,15.361,0,0,1,7.388-13.645,23.923,23.923,0,0,1,12.684-1.493.386.386,0,0,1,.308.367l.752,28.481a.385.385,0,0,1-.279.381A25.7,25.7,0,0,1,2398.656,1443.316Zm2.721-29.638a23.987,23.987,0,0,0-8.9,1.693,14.59,14.59,0,0,0-6.939,12.937c.135,11.707,8.355,13.807,8.706,13.891a27.787,27.787,0,0,0,10.877-.454l-.736-27.863A20.584,20.584,0,0,0,2401.377,1413.678Z" transform="translate(-2384.764 -1412.896)" fill="#0d0d0c"/>
          <path id="Path_2874" data-name="Path 2874" d="M2424.929,1427.005c.987,7.865-3.836,14.947-10.773,15.817s-13.359-4.8-14.346-12.666,3.837-14.946,10.773-15.816S2423.943,1419.141,2424.929,1427.005Z" transform="translate(-2393.409 -1413.682)" fill="#fff"/>
          <ellipse id="Ellipse_117" data-name="Ellipse 117" cx="12.047" cy="13.768" rx="12.047" ry="13.768" transform="matrix(0.992, -0.125, 0.125, 0.992, 5.983, 3.241)" fill="#c78c50"/>
          <path id="Path_2875" data-name="Path 2875" d="M2412.226,1442.763c-6.564,0-12.385-5.576-13.328-13.09a16.182,16.182,0,0,1,.9-7.758.385.385,0,0,1,.72.274,15.412,15.412,0,0,0-.855,7.388c.959,7.642,7.2,13.178,13.917,12.331s11.4-7.745,10.439-15.387a14.892,14.892,0,0,0-4.814-9.367,11.485,11.485,0,0,0-9.1-2.963.385.385,0,0,1-.1-.765,12.256,12.256,0,0,1,9.707,3.151,15.665,15.665,0,0,1,5.069,9.849c1.011,8.063-3.971,15.352-11.107,16.247A11.659,11.659,0,0,1,2412.226,1442.763Z" transform="translate(-2392.879 -1413.151)" fill="#0d0d0c"/>
          <path id="Path_2876" data-name="Path 2876" d="M2397.73,1418.093c2.328-.864,5.5,1.906,5.5,1.906s9.308,7.526,18.852,2.282l-.325-.582-10.724-4.247s-5.838-2.037-8.17-1.869A7.93,7.93,0,0,0,2397.73,1418.093Z" transform="translate(-2392.278 -1414.449)"/>
        </g>
        <g id="Group_1433" data-name="Group 1433" transform="translate(20.643)">
          <g id="Group_1432" data-name="Group 1432">
            <path id="Path_2877" data-name="Path 2877" d="M2411.032,1350.388a25.423,25.423,0,0,0-10.638,11.359s-3.208,8.309,3.963,16.494c8.674,9.9,17.688,6.035,17.688,6.035a27.208,27.208,0,0,0,10.353-9.24Z" transform="translate(-2399.314 -1348.109)" fill="#fdd89b"/>
            <path id="Path_2878" data-name="Path 2878" d="M2436.67,1350.567c6.745,6.124,7.833,15.909,2.432,21.857s-15.246,5.805-21.989-.318-7.833-15.908-2.432-21.856S2429.926,1344.444,2436.67,1350.567Z" transform="translate(-2406.018 -1345.497)" fill="#fff"/>
            <path id="Path_2879" data-name="Path 2879" d="M2439.466,1351.848c6.469,5.874,7.546,15.225,2.407,20.885s-14.551,5.488-21.02-.386-7.547-15.224-2.407-20.885S2433,1345.974,2439.466,1351.848Z" transform="translate(-2408.307 -1346.336)" fill="#c78c50"/>
            <path id="Path_2880" data-name="Path 2880" d="M2447.557,1418.088c.691-2.63,5.291-9.222,13.067-10.344l-.4.441-7.766,7.776a5.607,5.607,0,0,1-1.972,1.271A8.788,8.788,0,0,1,2447.557,1418.088Z" transform="translate(-2427.059 -1381.346)" fill-rule="evenodd"/>
            <path id="Path_2881" data-name="Path 2881" d="M2443.272,1356.747c-5.064-4.6-12.431-4.734-16.455-.3s-3.18,11.751,1.883,16.349,12.431,4.734,16.455.3S2448.336,1361.345,2443.272,1356.747Zm.714,14.468c-3.32,3.656-9.4,3.545-13.579-.25s-4.875-9.835-1.554-13.491,9.4-3.545,13.578.249S2447.306,1367.559,2443.986,1371.215Z" transform="translate(-2413.567 -1349.744)" fill="#9e6735"/>
            <path id="Path_2882" data-name="Path 2882" d="M2401.1,1386.964l6.322-5.318s-1.728-4.167-1.076-7.169l-6.541,7.211A20.047,20.047,0,0,0,2401.1,1386.964Z" transform="translate(-2399.388 -1362.068)" fill="#fff"/>
            <path id="Path_2883" data-name="Path 2883" d="M2417.158,1396.088c-3.532,0-8.646-1.238-13.593-6.884-7.241-8.264-4.066-16.8-4.033-16.887a28.234,28.234,0,0,1,1.892-3.278.385.385,0,1,1,.64.43,27.375,27.375,0,0,0-1.826,3.158c-.017.049-3.016,8.167,3.908,16.07,8.392,9.579,17.159,5.973,17.247,5.935a27.041,27.041,0,0,0,10.179-9.091.385.385,0,1,1,.652.411,27.306,27.306,0,0,1-10.517,9.384A12.793,12.793,0,0,1,2417.158,1396.088Z" transform="translate(-2398.811 -1358.819)" fill="#0d0d0c"/>
            <path id="Path_2884" data-name="Path 2884" d="M2461.751,1350.373a.383.383,0,0,1-.194-.052c-.458-.268-.935-.519-1.416-.744a.385.385,0,1,1,.327-.7c.5.236,1,.5,1.478.776a.385.385,0,0,1-.2.718Z" transform="translate(-2434.222 -1347.213)" fill="#0d0d0c"/>
            <path id="Path_2885" data-name="Path 2885" d="M2428.319,1376.642a17.959,17.959,0,0,1-11.985-4.78c-6.89-6.256-7.993-16.3-2.458-22.4a14,14,0,0,1,10.3-4.494.4.4,0,0,1,.391.379.386.386,0,0,1-.379.391,13.235,13.235,0,0,0-9.742,4.241c-5.249,5.782-4.169,15.342,2.406,21.313s16.2,6.126,21.445.345a13.265,13.265,0,0,0,3.241-10.561,17.176,17.176,0,0,0-5.647-10.752.385.385,0,0,1,.518-.57,17.942,17.942,0,0,1,5.894,11.237,13.729,13.729,0,0,1-13.984,15.651Z" transform="translate(-2405.498 -1344.969)" fill="#0d0d0c"/>
          </g>
        </g>
        <g id="Group_1435" data-name="Group 1435" transform="translate(34.115 25.071)">
          <path id="Path_2886" data-name="Path 2886" d="M2434.177,1444.327l32.016-.921s.892-9-1.367-11.621l-30.739,3.015a3.308,3.308,0,0,0-2.823,2.242C2430.562,1439.164,2430.3,1442.424,2434.177,1444.327Z" transform="translate(-2430.847 -1420.348)"/>
          <g id="Group_1434" data-name="Group 1434" transform="translate(9.964)">
            <path id="Path_2887" data-name="Path 2887" d="M2478.656,1405.552a25.427,25.427,0,0,0-15.469,1.7s-7.844,4.221-7.728,15.1c.141,13.161,9.5,16.1,9.5,16.1a27.21,27.21,0,0,0,13.874-.276Z" transform="translate(-2455.073 -1404.851)" fill="#fdd89b"/>
            <path id="Path_2888" data-name="Path 2888" d="M2500.5,1420.408c1.134,9.038-4.409,17.175-12.38,18.176s-15.352-5.516-16.486-14.555,4.409-17.175,12.381-18.176S2499.369,1411.37,2500.5,1420.408Z" transform="translate(-2464.363 -1405.262)" fill="#fff"/>
            <ellipse id="Ellipse_118" data-name="Ellipse 118" cx="13.844" cy="15.821" rx="13.844" ry="15.821" transform="matrix(0.992, -0.124, 0.124, 0.992, 6.794, 3.558)" fill="#c78c50"/>
            <path id="Path_2889" data-name="Path 2889" d="M2505.99,1427.448c-.852-6.787-6.356-11.685-12.3-10.94s-10.063,6.851-9.211,13.638,6.356,11.685,12.3,10.94S2506.841,1434.236,2505.99,1427.448Zm-8.875,11.448c-4.9.615-9.443-3.427-10.146-9.028s2.7-10.64,7.6-11.254,9.443,3.427,10.146,9.028S2502.017,1438.282,2497.115,1438.9Z" transform="translate(-2471.828 -1411.453)" fill="#9e6735"/>
            <path id="Path_2890" data-name="Path 2890" d="M2457.554,1423.243l8.261.078s1.4-4.287,3.849-6.142l-9.659,1.216A20.051,20.051,0,0,0,2457.554,1423.243Z" transform="translate(-2456.288 -1411.884)" fill="#fff"/>
            <path id="Path_2891" data-name="Path 2891" d="M2485.982,1438.541c-7.515,0-14.178-6.386-15.258-14.992a18.983,18.983,0,0,1,0-4.726.385.385,0,1,1,.764.1,18.215,18.215,0,0,0,0,4.534c1.106,8.813,8.308,15.19,16.056,14.22s13.152-8.933,12.046-17.746-8.3-15.2-16.056-14.22a.381.381,0,0,1-.429-.334.385.385,0,0,1,.334-.43c8.167-1.019,15.757,5.654,16.916,14.888s-4.545,17.581-12.715,18.607A13.41,13.41,0,0,1,2485.982,1438.541Z" transform="translate(-2463.833 -1404.734)" fill="#0d0d0c"/>
            <path id="Path_2892" data-name="Path 2892" d="M2470.983,1439.344a26.716,26.716,0,0,1-6.659-.789c-.107-.033-9.639-3.174-9.781-16.461-.117-10.987,7.849-15.4,7.93-15.445a27.765,27.765,0,0,1,7.6-2.057.381.381,0,0,1,.429.336.386.386,0,0,1-.336.429,27,27,0,0,0-7.354,1.986c-.045.026-7.606,4.238-7.494,14.743.136,12.709,8.859,15.614,9.23,15.732a27.177,27.177,0,0,0,7.414.74h.013a.385.385,0,0,1,.014.77Q2471.472,1439.344,2470.983,1439.344Z" transform="translate(-2454.542 -1404.588)" fill="#0d0d0c"/>
          </g>
        </g>
      </g>
    </g>
  </g>
</svg>
