<svg xmlns="http://www.w3.org/2000/svg" xmlns:xlink="http://www.w3.org/1999/xlink" width="2319" height="649" viewBox="0 0 2319 649">
  <defs>
    <clipPath id="clip-path">
      <rect id="Rectangle_200" data-name="Rectangle 200" width="2319" height="649" transform="translate(-166 431)" fill="none"/>
    </clipPath>
  </defs>
  <g id="Mask_Group_3" data-name="Mask Group 3" transform="translate(166 -431)" clip-path="url(#clip-path)">
    <g id="Group_2448" data-name="Group 2448" transform="translate(1153 556.904)">
      <path id="Path_4193" data-name="Path 4193" d="M1194.735,651.705c-1.344,35.323,10.359,61.327,27.561,92.475s50.738,54.858,50.738,54.858c21.487,3.709,28.907-1.525,42.027,16.9l-22.849-56.964Z" transform="translate(-1189.552 -580.688)"/>
      <g id="Group_2448-2" data-name="Group 2448" transform="translate(36.608 19.132)">
        <path id="Path_4194" data-name="Path 4194" d="M1230.288,601.783c7.992-2.82,17.944.1,22.844,3.232,0,0,33.6,12.973,44.115,25.783,0,0,10.286,1.194,20.6,10.363,6.316,5.616,19.13,40.732,24.631,57.03,6.882,20.39,9.814,31.561,9.814,31.561l-26.138,59.5-41.324-31.9-58.668-77.163c18.881,3.4,20.293-12.384,21.947-18.361s2.612-17.205.064-20.515-5.168-10.722-9.638-13.327" transform="translate(-1226.16 -600.644)" fill="#f9cfcc"/>
        <path id="Path_4195" data-name="Path 4195" d="M1274.362,616.037c8.116,6.543,14.274,28.014,15.5,36.3,0,0-5.932-15.681-12.057-23.845a170.032,170.032,0,0,0-13.724-15.756Z" transform="translate(-1226.16 -600.448)" fill="#e8b1b1"/>
        <path id="Path_4196" data-name="Path 4196" d="M1297.247,630.319a32.154,32.154,0,0,1,4.448,4.556,42.906,42.906,0,0,1,3.658,5.23,41.355,41.355,0,0,1,2.82,5.749,25.185,25.185,0,0,1,1.694,6.2c-2.083-3.726-4.111-7.316-6.228-10.9-1.077-1.775-2.112-3.58-3.208-5.357C1299.36,634,1298.249,632.222,1297.247,630.319Z" transform="translate(-1226.16 -600.164)" fill="#0d0d0c"/>
        <path id="Path_4197" data-name="Path 4197" d="M1253.868,605.484c2.254,1.558,4.663,2.836,6.876,4.539a53.813,53.813,0,0,1,6.048,5.685c3.762,4.042,7.28,8.282,10.71,12.586,1.719,2.149,3.424,4.308,5.085,6.5l1.256,1.637c.206.262.44.649.639.965l.512.954c.619,1.271,1.175,2.549,1.71,3.828a155.421,155.421,0,0,1,5.5,15.675c-2.463-4.954-4.756-9.977-7.091-14.941-.578-1.243-1.191-2.464-1.814-3.654l-.476-.86c-.177-.259-.29-.469-.509-.748l-1.27-1.621-5.06-6.5c-3.393-4.313-6.745-8.659-10.253-12.849a70.27,70.27,0,0,0-5.532-5.991C1258.237,608.834,1255.887,607.357,1253.868,605.484Z" transform="translate(-1226.16 -600.565)" fill="#0d0d0c"/>
      </g>
      <path id="Path_4198" data-name="Path 4198" d="M1253.132,605.319s-20.85-16.124-26.62-17.307-24.893-8.706-32.055-5.334-12.071,16.464,27.15,31.582c0,0,10.412,5,15.753,10.839" transform="translate(-1189.552 -581.816)" fill="#f9cfcc"/>
      <g id="Group_2449" data-name="Group 2449" transform="translate(4.373 26.078)">
        <path id="Path_4199" data-name="Path 4199" d="M1289.626,753.181l38.235-10.089-39.945-32.875L1280.7,662.2l-31.42-18.731s1.466,5.255-1.8,20.318-12.4,15.881-12.4,15.882c-2.726-2.29-4.905-4.206-6.369-5.564-4.664-4.327-8.209-12.055-12.077-23.239s-14.571-16.157-18.918-12.067-3.356,24.41-.921,34.479,13.662,31.257,21.476,48.782,27.643,43.948,83.867,61.412C1302.139,783.475,1296.809,769.714,1289.626,753.181Z" transform="translate(-1193.925 -606.997)" fill="#f9cfcc"/>
        <path id="Path_4200" data-name="Path 4200" d="M1261.283,687.937c-5.28,3.181-16.99.64-26.2-7.784,10.5-2.256,11.679-13.576,13.02-18.433,1.659-5.975,3.807-12.409-1.174-22.735s-19.448-22.022-23.918-24.623l-15.695-6.883s22.8,9.555,26.18,9.291,7.347,1.53,7.347,1.53.939,5.955,4.98,8.078,11.479,12.59,16.179,18.687.92,20.943-1.57,29.153a18.286,18.286,0,0,1-10.01,11.137s6.76,2.063,10.86-.9,4.4-8.444,4.4-8.444S1266.574,684.757,1261.283,687.937Z" transform="translate(-1193.925 -607.48)" fill="#e8b1b1"/>
        <path id="Path_4201" data-name="Path 4201" d="M1256.953,689.22a36.221,36.221,0,0,1-14.476-3.763,38.027,38.027,0,0,1-6.42-4.08l-1.482-1.211-1.411-1.248c-.939-.837-1.873-1.684-2.8-2.55a45.97,45.97,0,0,1-5.176-5.643,44.459,44.459,0,0,1-4.1-6.52c-1.182-2.274-2.206-4.617-3.154-6.98-.953-2.385-1.762-4.738-2.835-6.945a31.8,31.8,0,0,0-3.8-6.239,16.584,16.584,0,0,0-5.357-4.566,8.044,8.044,0,0,0-6.519-.524,7.909,7.909,0,0,0-.768.335,7.231,7.231,0,0,0-.671.4,3.807,3.807,0,0,0-.936,1.189,12.617,12.617,0,0,0-1.1,3.352,44.518,44.518,0,0,0-.7,7.412c-.067,2.507,0,5.026.12,7.542s.3,5.037.558,7.549q.2,1.882.456,3.76a32.846,32.846,0,0,0,.659,3.729,51.472,51.472,0,0,1-1.639-7.417q-.613-3.754-1.009-7.546a62.769,62.769,0,0,1,.025-15.325,14.154,14.154,0,0,1,1.154-3.854,5.359,5.359,0,0,1,1.363-1.767,8.159,8.159,0,0,1,.925-.585,10.1,10.1,0,0,1,.938-.433,9.844,9.844,0,0,1,7.963.451,18.083,18.083,0,0,1,6.053,5.043,33.681,33.681,0,0,1,4.089,6.609c1.118,2.342,1.94,4.782,2.847,7.089q1.367,3.5,3.019,6.837a42.673,42.673,0,0,0,3.817,6.329,50.118,50.118,0,0,0,4.861,5.578q1.321,1.318,2.686,2.605l1.367,1.287,1.382,1.225a38.273,38.273,0,0,0,20.075,8.875Z" transform="translate(-1193.925 -607.009)" fill="#0d0d0c"/>
        <path id="Path_4202" data-name="Path 4202" d="M1352.29,728.307c1.718,5.38,11.646,6.836,18.349,17.884,3.426,5.649,4.609,11.808,9.212,17.622,7.971,10.067,162.691,146.24,271.07,266.84s128.946,170.37,128.946,170.37l-254,16.17s-61.035-41.673-111.963-128.874-70.738-238.175-117.44-308.776l-36.028-67.259,35.415-22.126Z" transform="translate(-1193.925 -606.145)" fill="#f9cfcc"/>
        <path id="Path_4203" data-name="Path 4203" d="M1564.784,1190.453l-83.347-13.232a472.827,472.827,0,0,1-67.535-89.509c-50.541-86.544-70.429-235.921-116.391-307.176-45.873-15.192-66.176-36.451-75.674-52.932,7.166,10.427,22.909,25.128,50.464,27.181,4.3.318,8.284.792,11.966,1.389,2.827.459,5.485.991,7.945,1.572,14.894,3.524,23.034,9.032,24.279,12.9,1.719,5.331,9.306,20.759,13.853,27.831s29.507,55.25,54.455,94.922S1541.559,1075.739,1564.784,1190.453Z" transform="translate(-1193.925 -605.541)" fill="#e8b1b1"/>
        <path id="Path_4204" data-name="Path 4204" d="M1316.023,639a22.13,22.13,0,0,1,4.961,5.634c1.4,2.1,2.686,4.27,3.871,6.494,2.374,4.451,4.459,9.046,6.419,13.688s3.783,9.338,5.5,14.086c1.7,4.744,3.305,9.511,4.923,14.276,3.175,9.551,6.282,19.12,9.222,28.749l1.093,3.618c.365,1.222.687,2.405,1.121,3.541a7.013,7.013,0,0,0,1.808,2.91c.428.375.939.717,1.453,1.093l1.516,1.081c2.026,1.467,4.028,2.979,5.919,4.631a24.44,24.44,0,0,1,5.023,5.582,17.577,17.577,0,0,0-2.508-2.765,37.1,37.1,0,0,0-2.848-2.4c-1.966-1.517-4.034-2.89-6.13-4.221l-1.576-1.016c-.506-.339-1.05-.665-1.581-1.089a8.2,8.2,0,0,1-2.287-3.3c-.523-1.191-.893-2.432-1.285-3.606l-1.2-3.571-9.631-28.586c-3.179-9.548-6.324-19.072-9.97-28.416-1.826-4.668-3.7-9.319-5.85-13.838q-1.565-3.413-3.446-6.656l-.976-1.6-1.062-1.537c-.367-.5-.773-.973-1.16-1.464C1316.936,639.857,1316.464,639.449,1316.023,639Z" transform="translate(-1193.925 -606.971)" fill="#0d0d0c"/>
        <path id="Path_4205" data-name="Path 4205" d="M1539.917,915.357a.986.986,0,0,1-.7-.288c-10.622-10.471-97.831-93.363-148.995-140.954a1.027,1.027,0,0,1-.063-1.436.988.988,0,0,1,1.412-.063c51.175,47.6,138.411,130.518,149.038,140.994a1.027,1.027,0,0,1,.022,1.437A.991.991,0,0,1,1539.917,915.357Z" transform="translate(-1193.925 -604.818)" fill="#0d0d0c"/>
        <path id="Path_4206" data-name="Path 4206" d="M1525.869,1216.951a.988.988,0,0,1-.557-.173c-.613-.418-61.806-42.8-112.266-129.2-25.339-43.386-44.065-104.739-62.174-164.073-18.572-60.852-36.115-118.328-59.5-153.8a1.028,1.028,0,0,1,.275-1.41.99.99,0,0,1,1.387.278c23.55,35.717,41.135,93.331,59.751,154.328,18.075,59.22,36.766,120.457,61.985,163.638,48.479,83.01,106.861,125.168,111.384,128.357l252.2-16.056c-4.088-8.643-30.662-60.267-128.163-168.763a1.028,1.028,0,0,1,.063-1.436.99.99,0,0,1,1.413.065c107.255,119.35,128.923,170.162,129.129,170.661a1.029,1.029,0,0,1-.072.93,1,1,0,0,1-.787.479l-254,16.17Z" transform="translate(-1193.925 -604.886)" fill="#0d0d0c"/>
        <path id="Path_4207" data-name="Path 4207" d="M1215.948,715.686c2.226,4.027,4.281,8.151,6.581,12.113a79.1,79.1,0,0,0,7.739,11.245c5.825,6.974,13,12.644,20.483,17.735a221.385,221.385,0,0,0,23.576,13.576c2.027,1.017,4.066,2.015,6.122,2.965l1.544.7c.506.239,1.014.426,1.555.638l3.17,1.258,12.669,5.069.019.008a.544.544,0,0,1,.3.29l4.991,11.521c1.66,3.842,3.315,7.686,4.932,11.549-1.864-3.746-3.687-7.51-5.507-11.277l-5.447-11.306.316.3-12.851-4.639-3.209-1.17c-.522-.194-1.085-.392-1.614-.63l-1.577-.685c-2.094-.922-4.165-1.89-6.227-2.88a190.368,190.368,0,0,1-23.837-13.648c-7.551-5.2-14.76-11.147-20.5-18.465a71.6,71.6,0,0,1-7.38-11.743C1219.715,724.088,1217.837,719.886,1215.948,715.686Z" transform="translate(-1193.925 -605.733)" fill="#0d0d0c"/>
        <path id="Path_4208" data-name="Path 4208" d="M1217.241,611.969a16.9,16.9,0,0,1,6.293,2.2,52.971,52.971,0,0,1,5.678,3.587c1.833,1.287,3.586,2.68,5.327,4.083s3.42,2.879,5.1,4.343a.725.725,0,0,1,.12.129l.021.03c1.85,2.561,3.61,5.173,5.342,7.818.85,1.333,1.69,2.675,2.506,4.039.408.685.8,1.377,1.179,2.092a17.589,17.589,0,0,1,1.044,2.273,14.724,14.724,0,0,1,.653,4.962,35.543,35.543,0,0,1-.382,4.811,67.624,67.624,0,0,1-2.017,9.313c.335-3.155.687-6.3.848-9.427.069-1.564.1-3.126.022-4.66a15.045,15.045,0,0,0-.786-4.366,32.8,32.8,0,0,0-2.2-3.973c-.818-1.326-1.665-2.642-2.524-3.952-1.7-2.63-3.454-5.238-5.186-7.85l.141.16c-1.624-1.518-3.272-3-4.917-4.486s-3.336-2.911-5.039-4.321-3.468-2.739-5.3-3.959A18.813,18.813,0,0,0,1217.241,611.969Z" transform="translate(-1193.925 -607.408)" fill="#0d0d0c"/>
      </g>
    </g>
  </g>
</svg>
