<svg xmlns="http://www.w3.org/2000/svg" xmlns:xlink="http://www.w3.org/1999/xlink" width="2319" height="649" viewBox="0 0 2319 649">
  <defs>
    <clipPath id="clip-path">
      <rect id="Rectangle_199" data-name="Rectangle 199" width="2319" height="649" transform="translate(-166 431)" fill="none"/>
    </clipPath>
  </defs>
  <g id="Mask_Group_2" data-name="Mask Group 2" transform="translate(166 -431)" clip-path="url(#clip-path)">
    <g id="Group_2448" data-name="Group 2448" transform="translate(-99.552 -29.6)">
      <path id="Path_4193" data-name="Path 4193" d="M1194.735,651.705c-1.344,34.762,10.359,60.353,27.561,91.006s53.075,48.859,53.075,48.859c18.988,7.434,26.57,3.626,39.69,21.756l-22.849-56.059Z"/>
      <g id="Group_2448-2" data-name="Group 2448">
        <path id="Path_4194" data-name="Path 4194" d="M1230.288,601.765c7.992-2.775,17.944.1,22.844,3.181,0,0,33.6,12.767,44.115,25.373,0,0,10.286,1.175,20.6,10.2,6.316,5.527,19.13,40.085,24.631,56.124,6.882,20.066,9.814,31.06,9.814,31.06l-26.138,58.554-41.324-31.391-58.668-75.937c18.881,3.347,20.293-12.187,21.947-18.069s2.612-16.932.064-20.189-5.168-10.552-9.638-13.115" fill="#f9cfcc"/>
        <path id="Path_4195" data-name="Path 4195" d="M1274.362,615.984c8.116,6.439,14.274,27.569,15.5,35.721,0,0-5.932-15.432-12.057-23.466a168.219,168.219,0,0,0-13.724-15.506Z" fill="#e8b1b1"/>
        <path id="Path_4196" data-name="Path 4196" d="M1297.247,630.319a31.886,31.886,0,0,1,4.448,4.484,42.219,42.219,0,0,1,3.658,5.147,40.433,40.433,0,0,1,2.82,5.658,24.477,24.477,0,0,1,1.694,6.1c-2.083-3.667-4.111-7.2-6.228-10.725-1.077-1.747-2.112-3.523-3.208-5.272C1299.36,633.939,1298.249,632.192,1297.247,630.319Z" fill="#0d0d0c"/>
        <path id="Path_4197" data-name="Path 4197" d="M1253.868,605.484c2.254,1.533,4.663,2.791,6.876,4.467a53.476,53.476,0,0,1,6.048,5.6c3.762,3.978,7.28,8.15,10.71,12.386,1.719,2.115,3.424,4.24,5.085,6.4l1.256,1.611c.206.258.44.639.639.95l.512.939c.619,1.251,1.175,2.508,1.71,3.767a151.336,151.336,0,0,1,5.5,15.426c-2.463-4.875-4.756-9.818-7.091-14.7-.578-1.223-1.191-2.425-1.814-3.6l-.476-.846c-.177-.255-.29-.462-.509-.736l-1.27-1.6-5.06-6.394c-3.393-4.244-6.745-8.521-10.253-12.645a69.589,69.589,0,0,0-5.532-5.9C1258.237,608.781,1255.887,607.327,1253.868,605.484Z" fill="#0d0d0c"/>
      </g>
      <path id="Path_4198" data-name="Path 4198" d="M1253.132,604.946s-20.85-15.868-26.62-17.032-24.893-8.568-32.055-5.249-12.071,16.2,27.15,31.08c0,0,10.412,4.924,15.753,10.667" fill="#f9cfcc"/>
      <g id="Group_2449" data-name="Group 2449">
        <path id="Path_4199" data-name="Path 4199" d="M1289.626,751.341l38.235-9.929-39.945-32.353-7.214-47.25-31.42-18.433s1.466,5.171-1.8,19.995-12.4,15.629-12.4,15.63c-2.726-2.254-4.905-4.139-6.369-5.476-4.664-4.258-8.209-11.863-12.077-22.87s-14.571-15.9-18.918-11.875-3.356,24.022-.921,33.931,13.662,30.76,21.476,48.007,27.643,43.25,83.867,60.436C1302.139,781.154,1296.809,767.611,1289.626,751.341Z" fill="#f9cfcc"/>
        <path id="Path_4200" data-name="Path 4200" d="M1261.283,686.659c-5.28,3.13-16.99.63-26.2-7.66,10.5-2.22,11.679-13.36,13.02-18.14,1.659-5.88,3.807-12.212-1.174-22.374s-19.448-21.672-23.918-24.231l-15.695-6.774s22.8,9.4,26.18,9.143a18.219,18.219,0,0,1,7.347,1.506s.939,5.86,4.98,7.95,11.479,12.39,16.179,18.39.92,20.61-1.57,28.69a18.142,18.142,0,0,1-10.01,10.96s6.76,2.03,10.86-.89,4.4-8.31,4.4-8.31S1266.574,683.529,1261.283,686.659Z" fill="#e8b1b1"/>
        <path id="Path_4201" data-name="Path 4201" d="M1256.953,688.385a36.687,36.687,0,0,1-14.476-3.7,38.122,38.122,0,0,1-6.42-4.015l-1.482-1.192-1.411-1.228c-.939-.824-1.873-1.657-2.8-2.509a45.524,45.524,0,0,1-5.176-5.553,43.654,43.654,0,0,1-4.1-6.416c-1.182-2.238-2.206-4.544-3.154-6.869-.953-2.347-1.762-4.663-2.835-6.835a31.205,31.205,0,0,0-3.8-6.14,16.517,16.517,0,0,0-5.357-4.493,8.161,8.161,0,0,0-6.519-.516,7.988,7.988,0,0,0-.768.33,7.27,7.27,0,0,0-.671.392,3.757,3.757,0,0,0-.936,1.17,12.28,12.28,0,0,0-1.1,3.3,43.136,43.136,0,0,0-.7,7.294c-.067,2.467,0,4.946.12,7.422s.3,4.957.558,7.429q.2,1.852.456,3.7a31.86,31.86,0,0,0,.659,3.67,49.961,49.961,0,0,1-1.639-7.3q-.613-3.695-1.009-7.426a60.8,60.8,0,0,1,.025-15.081,13.765,13.765,0,0,1,1.154-3.793,5.285,5.285,0,0,1,1.363-1.739,8.166,8.166,0,0,1,.925-.576,10.174,10.174,0,0,1,.938-.426,9.989,9.989,0,0,1,7.963.444,18.018,18.018,0,0,1,6.053,4.963,33.059,33.059,0,0,1,4.089,6.5c1.118,2.3,1.94,4.706,2.847,6.976q1.367,3.442,3.019,6.728a41.863,41.863,0,0,0,3.817,6.228,49.548,49.548,0,0,0,4.861,5.489q1.321,1.3,2.686,2.564l1.367,1.267,1.382,1.206a37.726,37.726,0,0,0,6.049,4.165A38.466,38.466,0,0,0,1256.953,688.385Z" fill="#0d0d0c"/>
        <path id="Path_4202" data-name="Path 4202" d="M1352.29,727.7c1.718,5.294,11.646,6.727,18.349,17.6,3.426,5.559,4.609,11.62,9.212,17.342,7.971,9.907,162.691,143.916,271.07,262.6s128.946,167.663,128.946,167.663l-254,15.913s-61.035-41.011-111.963-126.826-70.738-234.39-117.44-303.87l-36.028-66.19,35.415-21.774Z" fill="#f9cfcc"/>
        <path id="Path_4203" data-name="Path 4203" d="M1564.784,1183.1l-83.347-13.022a466.156,466.156,0,0,1-67.535-88.087c-50.541-85.169-70.429-232.172-116.391-302.295-45.873-14.951-66.176-35.872-75.674-52.091,7.166,10.261,22.909,24.729,50.464,26.749,4.3.313,8.284.779,11.966,1.367,2.827.452,5.485.975,7.945,1.547,14.894,3.468,23.034,8.889,24.279,12.694,1.719,5.246,9.306,20.429,13.853,27.389s29.507,54.372,54.455,93.414S1541.559,1070.207,1564.784,1183.1Z" fill="#e8b1b1"/>
        <path id="Path_4204" data-name="Path 4204" d="M1316.023,639a21.892,21.892,0,0,1,4.961,5.544c1.4,2.064,2.686,4.2,3.871,6.391,2.374,4.38,4.459,8.9,6.419,13.47s3.783,9.19,5.5,13.862c1.7,4.669,3.305,9.36,4.923,14.049,3.175,9.4,6.282,18.816,9.222,28.292l1.093,3.561c.365,1.2.687,2.367,1.121,3.485a6.887,6.887,0,0,0,1.808,2.864c.428.369.939.706,1.453,1.076l1.516,1.064c2.026,1.444,4.028,2.932,5.919,4.557a24.189,24.189,0,0,1,5.023,5.493,17.4,17.4,0,0,0-2.508-2.721,36.967,36.967,0,0,0-2.848-2.359c-1.966-1.493-4.034-2.844-6.13-4.154l-1.576-1c-.506-.334-1.05-.654-1.581-1.072a8.072,8.072,0,0,1-2.287-3.246c-.523-1.172-.893-2.393-1.285-3.549l-1.2-3.514-9.631-28.132c-3.179-9.4-6.324-18.769-9.97-27.964-1.826-4.594-3.7-9.171-5.85-13.618q-1.565-3.359-3.446-6.55l-.976-1.572-1.062-1.513c-.367-.495-.773-.958-1.16-1.441C1316.936,639.843,1316.464,639.442,1316.023,639Z" fill="#0d0d0c"/>
        <path id="Path_4205" data-name="Path 4205" d="M1539.917,913.085a.994.994,0,0,1-.7-.283c-10.622-10.3-97.831-91.879-148.995-138.714a1,1,0,1,1,1.349-1.475c51.175,46.844,138.411,128.444,149.038,138.754a1,1,0,0,1-.7,1.718Z" fill="#0d0d0c"/>
        <path id="Path_4206" data-name="Path 4206" d="M1525.869,1209.819a1,1,0,0,1-.557-.17c-.613-.411-61.806-42.12-112.266-127.146-25.339-42.7-44.065-103.075-62.174-161.466-18.572-59.885-36.115-116.448-59.5-151.354a1,1,0,0,1,1.662-1.114c23.55,35.149,41.135,91.848,59.751,151.876,18.075,58.279,36.766,118.543,61.985,161.038,48.479,81.691,106.861,123.179,111.384,126.317l252.2-15.8c-4.088-8.506-30.662-59.309-128.163-166.081a1,1,0,1,1,1.476-1.349c107.255,117.454,128.923,167.458,129.129,167.949a1,1,0,0,1-.859,1.386l-254,15.913Z" fill="#0d0d0c"/>
        <path id="Path_4207" data-name="Path 4207" d="M1215.948,715.686c2.226,3.963,4.281,8.021,6.581,11.921a77.81,77.81,0,0,0,7.739,11.066c5.825,6.863,13,12.443,20.483,17.453a222.318,222.318,0,0,0,23.576,13.36c2.027,1,4.066,1.983,6.122,2.918l1.544.692c.506.235,1.014.419,1.555.628l3.17,1.238,12.669,4.988.019.008a.54.54,0,0,1,.3.285l4.991,11.338c1.66,3.781,3.315,7.564,4.932,11.365-1.864-3.686-3.687-7.391-5.507-11.1l-5.447-11.126.316.293-12.851-4.565-3.209-1.151c-.522-.191-1.085-.386-1.614-.62l-1.577-.674c-2.094-.907-4.165-1.86-6.227-2.834a191.184,191.184,0,0,1-23.837-13.431c-7.551-5.117-14.76-10.97-20.5-18.172a70.3,70.3,0,0,1-7.38-11.556C1219.715,723.954,1217.837,719.819,1215.948,715.686Z" fill="#0d0d0c"/>
        <path id="Path_4208" data-name="Path 4208" d="M1217.241,611.969a17.078,17.078,0,0,1,6.293,2.162,53.1,53.1,0,0,1,5.678,3.53c1.833,1.267,3.586,2.637,5.327,4.018s3.42,2.833,5.1,4.274a.72.72,0,0,1,.12.127l.021.03c1.85,2.52,3.61,5.091,5.342,7.694.85,1.312,1.69,2.633,2.506,3.975.408.674.8,1.355,1.179,2.059a17.179,17.179,0,0,1,1.044,2.237,14.275,14.275,0,0,1,.653,4.883,34.434,34.434,0,0,1-.382,4.735,65.638,65.638,0,0,1-2.017,9.165c.335-3.1.687-6.2.848-9.277.069-1.539.1-3.076.022-4.586a14.6,14.6,0,0,0-.786-4.3,32.128,32.128,0,0,0-2.2-3.91c-.818-1.305-1.665-2.6-2.524-3.889-1.7-2.588-3.454-5.155-5.186-7.725l.141.157c-1.624-1.494-3.272-2.953-4.917-4.415s-3.336-2.865-5.039-4.252-3.468-2.7-5.3-3.9A18.945,18.945,0,0,0,1217.241,611.969Z" fill="#0d0d0c"/>
      </g>
    </g>
  </g>
</svg>
