<svg xmlns="http://www.w3.org/2000/svg" xmlns:xlink="http://www.w3.org/1999/xlink" width="768" height="427" viewBox="0 0 768 427">
  <defs>
    <clipPath id="clip-path">
      <rect id="Rectangle_174" data-name="Rectangle 174" width="768" height="427" transform="translate(-189 436)" fill="none"/>
    </clipPath>
  </defs>
  <g id="Mask_Group_3" data-name="Mask Group 3" transform="translate(189 -436)" clip-path="url(#clip-path)">
    <g id="Group_2761" data-name="Group 2761" transform="translate(17511.578 12969.203)">
      <path id="Path_5521" data-name="Path 5521" d="M109.738,8.849s16.769,60.606-6.116,145.042L0,145.813S10.251,73.49,15.368,0" transform="translate(-17133.453 -12287.435) rotate(-14)" fill="#f9cfcc"/>
      <path id="Path_4193" data-name="Path 4193" d="M.041,0C-.481,13.5,4.065,23.444,10.747,35.351S30.456,56.321,30.456,56.321c8.346,1.418,12.976.073,18.073,7.116L37.905,41.005Z" transform="translate(-17253.068 -12502.446) rotate(-3)"/>
      <g id="Group_2448" data-name="Group 2448" transform="translate(-17241.869 -12522.895) rotate(-3)">
        <path id="Path_4194" data-name="Path 4194" d="M1.6.436c3.1-1.078,6.97.04,8.874,1.236,0,0,13.053,4.959,17.136,9.856a16.216,16.216,0,0,1,8,3.961c2.453,2.147,7.431,15.571,9.568,21.8,2.673,7.795,3.812,12.065,3.812,12.065L38.841,72.1,22.789,59.906,0,30.409c7.334,1.3,7.883-4.734,8.525-7.019s1.155-7.566.166-8.831S6.761,9.882,5.025,8.886" transform="translate(0 0)" fill="#f9cfcc"/>
        <path id="Path_4195" data-name="Path 4195" d="M3.994,1.263c3.153,2.5,5.545,10.709,6.021,13.876,0,0-2.3-5.995-4.684-9.115A65.334,65.334,0,0,0,0,0Z" transform="translate(14.73 4.696)" fill="#e8b1b1"/>
        <path id="Path_4196" data-name="Path 4196" d="M0,0A12.38,12.38,0,0,1,1.728,1.742a16.4,16.4,0,0,1,1.421,2,15.7,15.7,0,0,1,1.1,2.2A9.508,9.508,0,0,1,4.9,8.307c-.809-1.424-1.6-2.8-2.419-4.166-.418-.679-.82-1.369-1.246-2.048S.389.728,0,0Z" transform="translate(27.613 11.527)" fill="#0d0d0c"/>
        <path id="Path_4197" data-name="Path 4197" d="M0,0C.875.6,1.811,1.084,2.671,1.735A20.767,20.767,0,0,1,5.02,3.909C6.482,5.454,7.848,7.074,9.181,8.72c.668.822,1.33,1.647,1.975,2.486l.488.626c.08.1.171.248.248.369l.2.365c.24.486.456.974.664,1.463A58.773,58.773,0,0,1,14.89,20.02c-.957-1.894-1.847-3.814-2.754-5.712-.225-.475-.463-.942-.7-1.4l-.185-.329c-.069-.1-.113-.179-.2-.286l-.493-.62L8.589,9.194c-1.318-1.649-2.62-3.31-3.983-4.912a27.012,27.012,0,0,0-2.149-2.29C1.7,1.281.784.716,0,0Z" transform="translate(10.763 1.88)" fill="#0d0d0c"/>
      </g>
      <path id="Path_4198" data-name="Path 4198" d="M21.354,7.265s-7.01-4.984-8.95-5.35S4.034-.776,1.626.267s-3.982,4.818,9.205,9.491a26.889,26.889,0,0,1,5.22,3.622" transform="translate(-17254.217 -12528.3) rotate(-3)" fill="#f9cfcc"/>
      <g id="Group_2449" data-name="Group 2449" transform="translate(-17254.238 -12520.949) rotate(-3)">
        <path id="Path_4199" data-name="Path 4199" d="M36.868,44.266l14.852-3.857L36.2,27.842,33.4,9.488,21.2,2.328s.57,2.009-.7,7.767-4.816,6.071-4.818,6.071c-1.059-.876-1.905-1.608-2.474-2.127-1.812-1.654-3.189-4.608-4.691-8.884S2.855-1.021,1.167.543s-1.3,9.331-.358,13.18S6.116,25.671,9.151,32.371s10.738,16.8,32.578,23.476C41.729,55.847,39.659,50.586,36.868,44.266Z" transform="translate(0.306 11.616)" fill="#f9cfcc"/>
        <path id="Path_4200" data-name="Path 4200" d="M20.963,30.757c-2.051,1.216-6.6.245-10.177-2.976,4.079-.862,4.537-5.19,5.058-7.046.644-2.284,1.479-4.744-.456-8.691S7.833,3.625,6.1,2.631L0,0S8.856,3.653,10.169,3.552a7.076,7.076,0,0,1,2.854.585s.365,2.276,1.934,3.088,4.459,4.813,6.285,7.144.357,8.006-.61,11.145a7.048,7.048,0,0,1-3.888,4.257s2.626.789,4.219-.346A4.611,4.611,0,0,0,22.672,26.2S23.018,29.541,20.963,30.757Z" transform="translate(5.202 0)" fill="#e8b1b1"/>
        <path id="Path_4201" data-name="Path 4201" d="M24.483,20.1a14.249,14.249,0,0,1-5.623-1.438,14.808,14.808,0,0,1-2.494-1.56l-.576-.463-.548-.477c-.365-.32-.727-.644-1.086-.975a17.68,17.68,0,0,1-2.011-2.157,16.952,16.952,0,0,1-1.593-2.492c-.459-.869-.857-1.765-1.225-2.668s-.685-1.811-1.1-2.655A12.119,12.119,0,0,0,6.748,2.826,6.416,6.416,0,0,0,4.667,1.08,3.17,3.17,0,0,0,2.135.88a3.1,3.1,0,0,0-.3.128,2.838,2.838,0,0,0-.261.152,1.459,1.459,0,0,0-.363.455A4.769,4.769,0,0,0,.784,2.9,16.755,16.755,0,0,0,.512,5.73c-.026.958,0,1.921.047,2.883S.675,10.538.776,11.5q.076.72.177,1.437a12.368,12.368,0,0,0,.256,1.426,19.409,19.409,0,0,1-.637-2.835Q.334,10.091.18,8.641A23.622,23.622,0,0,1,.19,2.783,5.347,5.347,0,0,1,.638,1.31,2.054,2.054,0,0,1,1.168.634,3.167,3.167,0,0,1,1.527.411,3.958,3.958,0,0,1,1.891.245,3.88,3.88,0,0,1,4.984.418,7,7,0,0,1,7.336,2.346,12.849,12.849,0,0,1,8.924,4.872c.434.9.754,1.828,1.106,2.71S10.775,9.346,11.2,10.2a16.26,16.26,0,0,0,1.483,2.419,19.229,19.229,0,0,0,1.888,2.132q.513.5,1.043,1l.531.492.537.468a14.65,14.65,0,0,0,2.349,1.618A14.943,14.943,0,0,0,24.483,20.1Z" transform="translate(0 11.331)" fill="#0d0d0c"/>
        <path id="Path_4208" data-name="Path 4208" d="M0,0A6.633,6.633,0,0,1,2.444.84,20.6,20.6,0,0,1,4.65,2.211c.712.492,1.393,1.024,2.069,1.561s1.329,1.1,1.982,1.66a.281.281,0,0,1,.047.049l.008.012c.719.979,1.4,1.978,2.075,2.989.33.51.656,1.023.973,1.544.158.262.312.526.458.8a6.659,6.659,0,0,1,.406.869,5.544,5.544,0,0,1,.254,1.9,13.359,13.359,0,0,1-.148,1.839,25.517,25.517,0,0,1-.784,3.56c.13-1.206.267-2.407.329-3.6.027-.6.04-1.195.009-1.781a5.671,5.671,0,0,0-.305-1.669,12.477,12.477,0,0,0-.856-1.519c-.318-.507-.647-1.01-.98-1.511-.661-1.005-1.342-2-2.015-3l.055.061c-.631-.58-1.271-1.147-1.91-1.715S5.02,3.139,4.358,2.6,3.011,1.554,2.3,1.087A7.358,7.358,0,0,0,0,0Z" transform="translate(9.057 1.744)" fill="#0d0d0c"/>
        <path id="Path_5516" data-name="Path 5516" d="M34.3,14.546c.715,2.2,4.315,1.928,7.106,6.456,1.427,2.315,6.516,6.9,8.433,9.287,3.319,4.126,60.811,58.547,105.945,107.972s44.886,72.086,44.886,72.086L105.141,216.4s-16.076-20.372-35.473-57.125C50,122.021,34.452,65.567,15,36.632L0,9.068,14.748,0Z" transform="translate(27.948 32.109) rotate(1)" fill="#f9cfcc"/>
        <path id="Path_5517" data-name="Path 5517" d="M59.834,60.291a.416.416,0,0,1-.29-.117c-1.139-1.105-4.413-4.152-8.642-8.559C38.691,38.892,15.959,15.209.135.724A.416.416,0,0,1,.7.109c15.844,14.5,38.587,38.2,50.806,50.929,4.223,4.4,7.493,7.443,8.621,8.537a.417.417,0,0,1-.29.715Z" transform="translate(81.257 67.273) rotate(1)" fill="#0d0d0c"/>
        <path id="Path_5518" data-name="Path 5518" d="M139.531,193.207l-20.791,4.309c-8.478-8.648-24.581-37.43-33-53.83C65.316,103.878,50.428,50.71,31.514,21.693,12.41,15.466,3.955,6.754,0,0,2.984,4.273,9.54,10.3,21.015,11.139c1.792.131,3.449.324,4.983.57,1.177.188,2.284.406,3.308.644,6.2,1.444,9.592,3.7,10.111,5.286a74.507,74.507,0,0,0,5.769,11.406c1.894,2.9,14.857,38.974,25.246,55.233S106.339,137.026,139.531,193.207Z" transform="translate(11.603 47.42) rotate(1)" fill="#e8b1b1"/>
        <path id="Path_5519" data-name="Path 5519" d="M57.505,128.553a.416.416,0,0,1-.364-.213c-9.108-16.2-16.876-36.332-25.83-58.8C20.886,43.389,10.509,16.228.07.649A.417.417,0,0,1,.763.185C11.25,15.837,21.644,43.04,32.085,69.235c8.944,22.44,16.7,42.544,25.783,58.7a.417.417,0,0,1-.363.621Z" transform="translate(42.664 69.706) rotate(1)" fill="#0d0d0c"/>
        <path id="Path_4207" data-name="Path 4207" d="M0,0C.865,1.539,1.663,3.116,2.556,4.631a30.215,30.215,0,0,0,3.006,4.3A39.7,39.7,0,0,0,13.327,16.3c2.932,1.923,6.073,4.386,9.224,5.941.787.389,1.579.77,2.378,1.134l.6.269c.2.091.394.163.6.244l1.231.481,6.785,3.169.007,0a.21.21,0,0,1,.115.111L35.854,30.4c.039.088.082.177.234.455.644,1.226,1.054,1.961,1.644,3.348-.724-1.432-1.395-2.259-2.1-3.7l-1.759-2.668.123.114-6.856-3L25.892,24.5c-.2-.074-.421-.15-.627-.241l-.612-.262c-.813-.352-1.618-.723-2.419-1.1-3.194-1.53-6.374-3.993-9.325-5.969a37.166,37.166,0,0,1-7.77-7.648A27.3,27.3,0,0,1,2.272,4.788C1.463,3.212.734,1.605,0,0Z" transform="translate(8.555 42.032)" fill="#0d0d0c"/>
        <path id="Path_5528" data-name="Path 5528" d="M0,0S52.532,60.022,60.749,73.974" transform="translate(165.281 155.312)" fill="none" stroke="#0d0d0c" stroke-linecap="round" stroke-width="1"/>
        <path id="Path_4204" data-name="Path 4204" d="M0,0A8.5,8.5,0,0,1,1.927,2.154c.542.8,1.044,1.632,1.5,2.483.922,1.7,1.732,3.458,2.493,5.232s1.47,3.57,2.137,5.385,1.284,3.636,1.912,5.457c1.233,3.651,2.44,7.309,3.582,10.99l.425,1.383c.142.467.267.919.435,1.354a2.677,2.677,0,0,0,.7,1.113c.166.143.365.274.565.418l.589.413c.787.561,1.565,1.139,2.3,1.77a9.4,9.4,0,0,1,1.951,2.134,6.758,6.758,0,0,0-.974-1.057,14.33,14.33,0,0,0-1.106-.916c-.764-.58-1.567-1.1-2.381-1.614l-.612-.388c-.2-.13-.408-.254-.614-.416a3.138,3.138,0,0,1-.888-1.261c-.2-.455-.347-.93-.5-1.379l-.467-1.365L9.239,20.961C8,17.311,6.782,13.67,5.366,10.1c-.709-1.785-1.439-3.562-2.272-5.29Q2.486,3.5,1.755,2.264l-.379-.611L.963,1.066C.821.874.663.694.513.506S.171.171,0,0Z" transform="translate(47.428 12.245)" fill="#0d0d0c"/>
      </g>
      <path id="Path_5522" data-name="Path 5522" d="M0,17.97,1.442,28.9l44.187-2.785S22.316,2.464,21.526.181,0,17.97,0,17.97Z" transform="translate(-17116.852 -12301.219)" fill="#e8b1b1"/>
      <path id="Path_5523" data-name="Path 5523" d="M.8,0l99.411,2.955s.035-1.935.555,4.191L0,10.121Z" transform="matrix(0.966, -0.259, 0.259, 0.966, -17118.195, -12284.067)" fill="#e8b1b1"/>
      <g id="Group_2755" data-name="Group 2755" transform="translate(-17131.826 -12323.954) rotate(8)">
        <g id="Group_2754" data-name="Group 2754" transform="translate(0 0)">
          <path id="Path_5492" data-name="Path 5492" d="M124.867,0S27.846,36.61,15.467,51.446c0,0,19.746,56.183,19.069,60.317C28.026,146.083-1.715,201.99.078,191.051l172.609-5.108S178.4,60.676,124.867,0Z" transform="translate(1.084 1.32)" fill="#fff"/>
          <path id="Path_5493" data-name="Path 5493" d="M125.884,1.34c53.435,60.665,47.736,185.909,47.736,185.909L3.072,192.3c6.353-8.362,27.307-51.061,32.64-79.221.675-4.133-19.036-60.306-19.036-60.306C29.033,37.943,125.884,1.34,125.884,1.34M3.072,192.3c-.716.942-1.246,1.447-1.548,1.447-.284,0-.365-.445-.21-1.4l1.758-.052M126.272,0,125.4.329c-3.967,1.5-97.3,36.891-109.717,51.793l-.373.448.187.533c7.575,21.588,19.43,56.919,18.993,59.821-5.322,28.1-25.839,69.528-32.1,78.3l-1.117.033-1.031.031-.149.909a2.435,2.435,0,0,0,.34,2.207,1.523,1.523,0,0,0,1.091.445c.71,0,1.335-.406,2.205-1.466l169.933-5.036,1.146-.034.046-1.019a441.142,441.142,0,0,0-3.837-70.381c-3.06-22.646-7.753-43.255-13.95-61.253-7.764-22.549-17.929-41.053-30.211-55L126.272,0Z" transform="translate(0 0)" fill="#0d0d0c"/>
        </g>
        <path id="Path_5494" data-name="Path 5494" d="M155.772,116.2C170.541,100.73,170.239,83.8,170.239,83.8c2,20.165,3.019,39.451,2.378,57.258L0,146.086C.148,156.846,35.246,81.8,34.771,67.656,32.055,53.636,15.434,9.579,15.39,8.557S23.242,2.09,27.5,0c0,0,24.857,49.56,30.541,50.389s47.489-4.974,53.9-2.211,16.515,6.355-7.8,17.685c0,0-55.029,12.246-54.406,35,.108,3.931.454,8.323.873,12.467.919,9.092,9.907,15.91,20.322,15.431l62.729-2.89A32.656,32.656,0,0,0,155.772,116.2Z" transform="translate(0.867 44.281)" fill="#c9d6e8"/>
        <g id="Group_2759" data-name="Group 2759" transform="translate(33.341 101.075) rotate(-3)" opacity="0.75">
          <path id="Path_5525" data-name="Path 5525" d="M.04,9.79A83.1,83.1,0,0,1,8.889,5.617Q13.438,3.8,18.166,2.439c1.568-.475,3.16-.866,4.751-1.273.8-.188,1.608-.331,2.413-.489l1.213-.21c.406-.062.816-.1,1.224-.147L30.221.085c.823-.028,1.644-.062,2.465-.07L33.916,0l1.232.068c.821.058,1.638.113,2.452.207a.079.079,0,0,1,.069.087A.078.078,0,0,1,37.6.43h0c-3.243.5-6.439.824-9.61,1.433-3.165.574-6.366,1.006-9.506,1.782-3.143.747-6.259,1.644-9.322,2.7A92.2,92.2,0,0,0,.113,9.928h0A.078.078,0,0,1,.04,9.79Z" transform="translate(2.693 4.611)" fill="#0d0d0c"/>
          <path id="Path_5526" data-name="Path 5526" d="M17.266.147c-1.657.946-3.289,1.934-4.871,2.99C10.8,4.174,9.249,5.265,7.774,6.441c-.737.588-1.449,1.2-2.123,1.851L3.625,10.2A16.2,16.2,0,0,0,.152,14.487a.08.08,0,0,1-.107.037A.082.082,0,0,1,0,14.452a6.472,6.472,0,0,1,.8-2.877A12.831,12.831,0,0,1,2.5,9.119,21.681,21.681,0,0,1,7.039,5.434C8.646,4.354,10.309,3.38,12,2.466,13.7,1.581,15.424.733,17.2.006a.077.077,0,0,1,.1.043A.08.08,0,0,1,17.266.147Z" transform="translate(0 0)" fill="#0d0d0c"/>
        </g>
      </g>
      <path id="Path_5527" data-name="Path 5527" d="M-17594.65-12289.8s37.3,42.339,66.477,41.821,1.8,2.064,1.8,2.064l-51.252,13.331Z" transform="translate(461.578 -50.749)" fill="#e8b1b1"/>
    </g>
  </g>
</svg>
