<svg xmlns="http://www.w3.org/2000/svg" xmlns:xlink="http://www.w3.org/1999/xlink" width="176" height="153" viewBox="0 0 176 153">
  <defs>
    <clipPath id="clip-path">
      <rect id="Rectangle_171" data-name="Rectangle 171" width="176" height="153" transform="translate(324.834 -63.174)" fill="none"/>
    </clipPath>
  </defs>
  <g id="Mask_Group_1" data-name="Mask Group 1" transform="translate(-324.834 63.174)" clip-path="url(#clip-path)">
    <g id="Group_2460" data-name="Group 2460" transform="translate(302.668 -63.646) rotate(9)">
      <path id="Path_4191" data-name="Path 4191" d="M1751.976,55.135C1630.8,39.058,1535.37,7.65,1451.656-43.707l14.911-24.3c80.193,49.2,172.074,79.347,289.158,94.88Z" transform="translate(-1428.443 74.127)" fill="#edde1d"/>
      <g id="Group_2457" data-name="Group 2457" transform="translate(62.648 31.392)">
        <path id="Path_4192" data-name="Path 4192" d="M1544.667,10.074a7.517,7.517,0,0,1-4.372-5.541q-.629-3.632,1.818-8.43,2.524-4.951,5.8-6.614a7.448,7.448,0,0,1,7.081.279,9.76,9.76,0,0,1,2.149,1.442,10.485,10.485,0,0,1,1.536,1.746l-2.555,5.013a8.139,8.139,0,0,0-3.345-3.168,3.774,3.774,0,0,0-3.535-.2,7.78,7.78,0,0,0-3.021,3.6,7,7,0,0,0-1.023,4.465,3.944,3.944,0,0,0,2.262,2.674,8.226,8.226,0,0,0,2.141.745,8.883,8.883,0,0,0,2.373.131l-2.571,5.043a10.913,10.913,0,0,1-2.3-.269A10.462,10.462,0,0,1,1544.667,10.074Z" transform="translate(-1540.166 11.277)" fill="#1d1d1b"/>
        <path id="Path_4193" data-name="Path 4193" d="M1563.258,17.564l9.558-19.919,7.253,3.481a4.744,4.744,0,0,1,2.373,2.242,5.937,5.937,0,0,1,.44,3.274,12.74,12.74,0,0,1-1.232,3.955,9.312,9.312,0,0,1-2.4,3.2,6.172,6.172,0,0,1-2.993,1.436,3.055,3.055,0,0,1,.092.863,11.933,11.933,0,0,1-.122,1.254l-.906,6-4.243-2.036.828-5.5a2,2,0,0,0-.044-.991,1.1,1.1,0,0,0-.592-.57l-1.148-.55-2.79,5.815Zm9-8.315,2.144,1.029a1.778,1.778,0,0,0,1.693-.005,3.528,3.528,0,0,0,1.4-1.669q1.261-2.628-.471-3.46l-2.273-1.091Z" transform="translate(-1552.969 6.33)" fill="#1d1d1b"/>
        <path id="Path_4194" data-name="Path 4194" d="M1593.97,31.959l9.21-20.082,4.1,1.882-9.21,20.082Z" transform="translate(-1569.998 -1.561)" fill="#1d1d1b"/>
        <path id="Path_4195" data-name="Path 4195" d="M1607.316,37.953l8.81-20.261,4.03,1.752-.95,11.82,7.975-8.765,4.008,1.743-8.81,20.261-4.14-1.8,4.4-10.131-5.168,5.683-2.224-.967.61-7.665-4.405,10.131Z" transform="translate(-1577.398 -4.785)" fill="#1d1d1b"/>
        <path id="Path_4196" data-name="Path 4196" d="M1645.347,54.086l8.312-20.47,10.858,4.409-1.858,4.577-6.675-2.711-1.355,3.337,5.851,2.376-1.884,4.641-5.852-2.376-1.355,3.337,6.675,2.711-1.859,4.577Z" transform="translate(-1598.485 -13.615)" fill="#1d1d1b"/>
        <path id="Path_4197" data-name="Path 4197" d="M1687.481,72.329a11.751,11.751,0,0,1-2.64-1.374,7.822,7.822,0,0,1-1.871-1.782l1.865-4.98a10.157,10.157,0,0,0,1.839,1.935,7.74,7.74,0,0,0,2.16,1.285,4.379,4.379,0,0,0,1.8.363q.676-.057,1.037-1.022a1.7,1.7,0,0,0,.071-1.182,3.148,3.148,0,0,0-.748-1.086q-.565-.578-1.487-1.473a9.253,9.253,0,0,1-1.763-2.346,4.85,4.85,0,0,1-.491-2.418,9.972,9.972,0,0,1,.688-2.966,6.914,6.914,0,0,1,3.257-4.074,6.354,6.354,0,0,1,5.1.1,11.837,11.837,0,0,1,2.355,1.212,12.022,12.022,0,0,1,1.817,1.413l-1.878,5.012a8.991,8.991,0,0,0-1.7-1.626,7.589,7.589,0,0,0-1.725-.94,5.932,5.932,0,0,0-1.771-.407q-.782-.036-1.13.9a1.362,1.362,0,0,0,.156,1.4,14.579,14.579,0,0,0,1.77,1.744,7.871,7.871,0,0,1,2.1,2.654,5.353,5.353,0,0,1,.434,2.709,11.958,11.958,0,0,1-.74,3,7.033,7.033,0,0,1-3.232,3.973A6.282,6.282,0,0,1,1687.481,72.329Z" transform="translate(-1619.346 -23.1)" fill="#1d1d1b"/>
        <path id="Path_4198" data-name="Path 4198" d="M1720.656,84.2a7.517,7.517,0,0,1-5.07-4.91q-1.107-3.516.68-8.6,1.842-5.243,4.866-7.326a7.448,7.448,0,0,1,7.056-.665,9.737,9.737,0,0,1,2.322,1.143,10.516,10.516,0,0,1,1.755,1.526l-1.866,5.308a8.14,8.14,0,0,0-3.737-2.7,3.774,3.774,0,0,0-3.53.268,7.781,7.781,0,0,0-2.516,3.97,7,7,0,0,0-.42,4.561,3.942,3.942,0,0,0,2.6,2.35,8.226,8.226,0,0,0,2.22.454,8.886,8.886,0,0,0,2.37-.186l-1.877,5.34a10.907,10.907,0,0,1-2.318.04A10.482,10.482,0,0,1,1720.656,84.2Z" transform="translate(-1637.195 -29.423)" fill="#1d1d1b"/>
        <path id="Path_4199" data-name="Path 4199" d="M1741.171,89.481l6.914-20.983,11.13,3.667-1.546,4.692-6.842-2.254-1.128,3.421,6,1.976-1.567,4.757-6-1.976L1747,86.2l6.843,2.254-1.546,4.692Z" transform="translate(-1651.616 -32.955)" fill="#1d1d1b"/>
        <path id="Path_4200" data-name="Path 4200" d="M1768.986,98.463l6.485-21.12,3.673,1.128,2.145,12.9,3.434-11.183,4.315,1.325-6.485,21.12-3.7-1.135-2.132-12.856-3.423,11.15Z" transform="translate(-1667.039 -37.86)" fill="#1d1d1b"/>
        <path id="Path_4201" data-name="Path 4201" d="M1803.848,108.926l6.067-21.244,11.269,3.218-1.357,4.75-6.927-1.979-.99,3.464,6.073,1.734-1.375,4.817-6.073-1.735-.989,3.464,6.927,1.978-1.357,4.75Z" transform="translate(-1686.369 -43.592)" fill="#1d1d1b"/>
        <path id="Path_4202" data-name="Path 4202" d="M1863.868,125.126l5.273-21.455,6.716,1.651a7.183,7.183,0,0,1,3.675,2.051,6.936,6.936,0,0,1,1.644,4.078,19.549,19.549,0,0,1-.689,6.525q-1.359,5.53-3.871,7.6a6.532,6.532,0,0,1-6.032,1.2Zm5.563-3.72,1.773.435a3.618,3.618,0,0,0,1.953,0,2.991,2.991,0,0,0,1.561-1.418,13.151,13.151,0,0,0,1.293-3.55,15.221,15.221,0,0,0,.552-3.8,3.239,3.239,0,0,0-.657-2.1,3.391,3.391,0,0,0-1.786-.986l-1.772-.436Z" transform="translate(-1719.647 -52.458)" fill="#1d1d1b"/>
        <path id="Path_4203" data-name="Path 4203" d="M1907.555,136.814a6.92,6.92,0,0,1-5.141-3.9q-1.392-3.056-.082-8.879a19.924,19.924,0,0,1,2.348-6.276,7.054,7.054,0,0,1,3.418-2.993,8.659,8.659,0,0,1,8.411,1.893,7.052,7.052,0,0,1,1.806,4.169,19.929,19.929,0,0,1-.567,6.676q-1.311,5.824-3.89,7.986A6.928,6.928,0,0,1,1907.555,136.814Zm1.205-5.355a2.664,2.664,0,0,0,2.753-.8,9.5,9.5,0,0,0,1.737-4.163,9.874,9.874,0,0,0,.251-4.673,3,3,0,0,0-4.9-1.1,9.859,9.859,0,0,0-1.774,4.33,9.494,9.494,0,0,0-.214,4.506A2.664,2.664,0,0,0,1908.76,131.459Z" transform="translate(-1740.622 -58.378)" fill="#1d1d1b"/>
        <path id="Path_4204" data-name="Path 4204" d="M1946.522,143.941l4.331-21.665,3.768.753,3.429,12.615,2.293-11.472,4.427.885-4.33,21.664-3.792-.757-3.412-12.577-2.286,11.438Z" transform="translate(-1765.476 -62.774)" fill="#1d1d1b"/>
        <path id="Path_4205" data-name="Path 4205" d="M1990.857,153.661a6.921,6.921,0,0,1-5.3-3.683q-1.518-3-.449-8.869a19.894,19.894,0,0,1,2.085-6.368,7.048,7.048,0,0,1,3.291-3.133,8.659,8.659,0,0,1,8.482,1.542,7.052,7.052,0,0,1,1.977,4.09,19.938,19.938,0,0,1-.29,6.694q-1.068,5.873-3.555,8.141A6.928,6.928,0,0,1,1990.857,153.661Zm.982-5.4a2.663,2.663,0,0,0,2.717-.918,9.492,9.492,0,0,0,1.563-4.231,9.871,9.871,0,0,0,.058-4.679,3,3,0,0,0-4.938-.9,9.863,9.863,0,0,0-1.594,4.4,9.5,9.5,0,0,0-.027,4.511A2.664,2.664,0,0,0,1991.839,148.261Z" transform="translate(-1786.627 -67.659)" fill="#1d1d1b"/>
        <path id="Path_4206" data-name="Path 4206" d="M2024.843,157.894l2.842-17.055-4.288-.715.79-4.737,13.028,2.171-.789,4.738-4.288-.715-2.843,17.055Z" transform="translate(-1808.101 -70.043)" fill="#1d1d1b"/>
      </g>
      <g id="Group_2458" data-name="Group 2458" transform="translate(200.977 74.331)">
        <path id="Path_4207" data-name="Path 4207" d="M1927.63,149.805a.569.569,0,0,0,.161-.241Z" transform="translate(-1893.331 -120.843)"/>
        <path id="Path_4208" data-name="Path 4208" d="M1874.748,118.248a6.067,6.067,0,0,0,3.31,5.31c4.528,2.687,8.814,5.879,13.317,8.665a98.316,98.316,0,0,0,15.18,7.87,9.086,9.086,0,0,0,4.036.925,18.68,18.68,0,0,1,4.1-.24l7.965-42.683c-7.685-1.365-15.369-1.937-23,.283-1.471.428-1.666-.4-1.8-1.385-.46-3.455-2.47-5.622-5.566-7.008-2.259-1.012-4.461-2.151-6.678-3.256-1.475-.736-3.63-2.033-5.353-1.506a2.753,2.753,0,0,0-1.459,1.175,5.412,5.412,0,0,0-.753,2.307c-.544,4.347-1.136,8.687-1.629,13.04-.567,5.005-.957,10.032-1.6,15.027A9.31,9.31,0,0,0,1874.748,118.248Z" transform="translate(-1864.008 -85.1)"/>
        <path id="Path_4209" data-name="Path 4209" d="M1859.18,119.637c2.164-9.249,4.419-18.494,4.829-28.045C1861.58,94.17,1858.182,114.008,1859.18,119.637Z" transform="translate(-1855.279 -88.699)"/>
        <path id="Path_4210" data-name="Path 4210" d="M1871.316,94.726c.075-.46.349-1.018-.509-1.444-2.368,8.906-4.059,17.894-5.564,26.921-.223,1.332-.612,3.436.7,3.647s1.324-1.967,1.463-3.174C1868.41,111.979,1869.9,103.358,1871.316,94.726Z" transform="translate(-1858.611 -89.637)"/>
        <path id="Path_4211" data-name="Path 4211" d="M1850.646,118.532c2.377-7.639,3.208-15.567,4.243-23.423C1852.046,102.678,1851.132,110.565,1850.646,118.532Z" transform="translate(-1850.646 -90.65)"/>
      </g>
      <g id="Group_2459" data-name="Group 2459" transform="translate(0 0)">
        <path id="Path_4212" data-name="Path 4212" d="M1474.458-21.531a.493.493,0,0,1,.057-.274Z" transform="translate(-1441.083 48.506)"/>
        <path id="Path_4213" data-name="Path 4213" d="M1430.326-58.61h0l-8.02,9.718c2.678-4.269,5.391-8.505,9.214-12.094l1.757-1.552A8.66,8.66,0,0,1,1430.326-58.61ZM1419.7-53.737l-3.33,3.546A5.645,5.645,0,0,1,1419.7-53.737Zm-1.7,22.9c6.986-10.143,15.437-19.411,23.562-28.919C1434.378-49.749,1427.281-39.638,1418-30.839Zm1.8-9.247c4.3-5.324,8.542-10.684,13.34-15.693l2.675-3.584.372.236-3.259,4.367c-5.694,6.933-11.094,14.052-17.346,20.641A60.148,60.148,0,0,1,1419.8-40.086Zm29.606,2.37c3.313-3.944,6.849-7.749,10.229-11.652,2.939-3.395,5.791-6.845,8.685-10.269a5.1,5.1,0,0,0,1.169-2.115,2.3,2.3,0,0,0-.254-1.771c-.958-1.482-3.653-1.954-5.381-2.384-2.6-.647-5.207-1.261-7.766-2-3.506-1.014-6.751-.778-9.757,1.368-.858.613-1.644,1.072-2.479-.179-4.327-6.483-10.836-11.03-17.951-15.017L1399.553-46.43a18.369,18.369,0,0,1,3.054,2.81,10.043,10.043,0,0,0,3.9,1.947,118.3,118.3,0,0,0,18.012,4.217c5.687.933,11.515,1.438,17.147,2.456a7.5,7.5,0,0,0,6.676-1.621A9.817,9.817,0,0,0,1449.406-37.715Zm2.882-6.417c-.393.556-.668,1.241-1.695,1.206a4.236,4.236,0,0,1,1.258-1.942A117.731,117.731,0,0,1,1463-58.809,176.768,176.768,0,0,1,1452.289-44.132Z" transform="translate(-1399.553 81.736)"/>
        <path id="Path_4214" data-name="Path 4214" d="M1524.973-2.637c5.364-7.932,10.651-15.922,17.633-22.937C1542.552-22.187,1530.065-5.974,1524.973-2.637Z" transform="translate(-1469.094 50.596)"/>
        <path id="Path_4215" data-name="Path 4215" d="M1530.767-28.777c.292-.374.5-.945,1.505-.693-4.939,7.822-10.478,15.265-16.191,22.616-.843,1.085-2.144,2.824-3.342,2.128s.458-2.244,1.271-3.187C1519.868-14.708,1525.286-21.761,1530.767-28.777Z" transform="translate(-1462.076 52.791)"/>
        <path id="Path_4216" data-name="Path 4216" d="M1537.135,2.694c3.964-6.932,9.37-13.072,14.56-19.293C1548.154-9.416,1542.843-3.252,1537.135,2.694Z" transform="translate(-1475.838 45.62)"/>
      </g>
    </g>
  </g>
</svg>
