<svg xmlns="http://www.w3.org/2000/svg" xmlns:xlink="http://www.w3.org/1999/xlink" width="320" height="320" viewBox="0 0 320 320">
  <defs>
    <clipPath id="clip-path">
      <rect id="Rectangle_172" data-name="Rectangle 172" width="320" height="320" transform="translate(1350 341)" fill="none" stroke="#707070" stroke-width="1"/>
    </clipPath>
    <clipPath id="clip-path-2">
      <path id="Path_1099" data-name="Path 1099" d="M-3627.142-2970.24l-185.348,185.348a130.858,130.858,0,0,1-31.684-85.577,131.441,131.441,0,0,1,131.446-131.446A130.927,130.927,0,0,1-3627.142-2970.24Z" transform="translate(3844.175 3001.915)" fill="none"/>
    </clipPath>
  </defs>
  <g id="Mask_Group_2" data-name="Mask Group 2" transform="translate(-1350 -341)" clip-path="url(#clip-path)">
    <g id="Habit_and_DNA" data-name="Habit and DNA" transform="translate(5249.591 3278.521)">
      <g id="Group_366" data-name="Group 366" transform="translate(-3959.839 -2997.746)">
        <g id="Group_365" data-name="Group 365">
          <circle id="Ellipse_55" data-name="Ellipse 55" cx="155.808" cy="155.808" r="155.808" transform="translate(0 220.346) rotate(-45)" fill="#fff"/>
          <path id="Path_993" data-name="Path 993" d="M-3618.511-2997.653q2.406,1.7,4.743,3.493" transform="translate(3928.769 3090.735)" fill="none" stroke="#0d0d0c" stroke-linecap="round" stroke-linejoin="round" stroke-width="3"/>
          <path id="Path_994" data-name="Path 994" d="M-3602.494-2980.584a155.312,155.312,0,0,1,45.1,109.641A155.808,155.808,0,0,1-3713.2-2715.135a155.809,155.809,0,0,1-155.809-155.808A155.809,155.809,0,0,1-3713.2-3026.752a155.09,155.09,0,0,1,80.529,22.4" transform="translate(3933.543 3091.289)" fill="none" stroke="#0d0d0c" stroke-linecap="round" stroke-linejoin="round" stroke-width="3"/>
        </g>
      </g>
      <g id="Group_591" data-name="Group 591" transform="translate(-3870.945 -2908.845)">
        <g id="Group_590" data-name="Group 590" clip-path="url(#clip-path-2)">
          <g id="Group_589" data-name="Group 589" transform="translate(-56.72 -113.537)">
            <g id="Group_488" data-name="Group 488" transform="translate(42.069)">
              <g id="Group_482" data-name="Group 482">
                <g id="Group_476" data-name="Group 476">
                  <g id="Group_475" data-name="Group 475">
                    <g id="Group_470" data-name="Group 470">
                      <g id="Group_469" data-name="Group 469">
                        <g id="Group_437" data-name="Group 437" transform="translate(14.654)">
                          <g id="Group_436" data-name="Group 436">
                            <g id="Group_431" data-name="Group 431">
                              <g id="Group_430" data-name="Group 430">
                                <g id="Group_429" data-name="Group 429">
                                  <g id="Group_428" data-name="Group 428">
                                    <g id="Group_407" data-name="Group 407">
                                      <g id="Group_406" data-name="Group 406">
                                        <g id="Group_405" data-name="Group 405">
                                          <circle id="Ellipse_60" data-name="Ellipse 60" cx="131.449" cy="131.449" r="131.449" transform="translate(0 113.533)" fill="#c9d6e8"/>
                                          <g id="Group_383" data-name="Group 383" transform="translate(11.584)">
                                            <g id="Group_382" data-name="Group 382">
                                              <g id="Group_381" data-name="Group 381">
                                                <g id="Group_380" data-name="Group 380">
                                                  <g id="Group_379" data-name="Group 379">
                                                    <g id="Group_378" data-name="Group 378">
                                                      <g id="Group_377" data-name="Group 377">
                                                        <g id="Group_376" data-name="Group 376">
                                                          <g id="Group_375" data-name="Group 375">
                                                            <g id="Group_374" data-name="Group 374">
                                                              <path id="Path_1024" data-name="Path 1024" d="M-3727.6-2945.191c-2.569-13.4-4.362-22.575-4.336-22.481,0,0,25.294-9.66,23.785-44.914-.751-17.532-7.259-45.208-13.313-67.681-5.451-20.228-24.13-42.611-44.107-36.306l-60.479,29.054c-6.069,1.915-7.166,7.6-5.778,13.806l.077,3.025,22.827,97.208,7.072,49.22c4.265,18.485,24.488,24.881,43.28,22.283h0A36.652,36.652,0,0,0-3727.6-2945.191Z" transform="translate(3832.364 3117.658)" fill="#f9cfcc"/>
                                                            </g>
                                                          </g>
                                                        </g>
                                                      </g>
                                                    </g>
                                                  </g>
                                                </g>
                                              </g>
                                            </g>
                                          </g>
                                          <g id="Group_394" data-name="Group 394" transform="translate(89.248 82.238)">
                                            <g id="Group_393" data-name="Group 393">
                                              <g id="Group_392" data-name="Group 392">
                                                <g id="Group_391" data-name="Group 391">
                                                  <g id="Group_390" data-name="Group 390">
                                                    <g id="Group_389" data-name="Group 389">
                                                      <g id="Group_388" data-name="Group 388">
                                                        <g id="Group_387" data-name="Group 387">
                                                          <g id="Group_386" data-name="Group 386">
                                                            <g id="Group_385" data-name="Group 385">
                                                              <g id="Group_384" data-name="Group 384">
                                                                <path id="Path_1025" data-name="Path 1025" d="M-3743.034-2994.982c-.077-.264,2.75-1.364,7.375-2.936,1.178-.369,2.269-.839,2.3-1.7.108-.928-.66-2.122-1.526-3.4q-2.585-4.024-5.421-8.442c-7.592-12.045-13.349-22.048-12.86-22.35s7.037,9.217,14.628,21.262q2.763,4.466,5.281,8.528c.733,1.274,1.831,2.667,1.583,4.6a3.083,3.083,0,0,1-1.623,2.162,8.363,8.363,0,0,1-1.986.7C-3740-2995.341-3742.961-2994.718-3743.034-2994.982Z" transform="translate(3753.19 3033.822)"/>
                                                              </g>
                                                            </g>
                                                          </g>
                                                        </g>
                                                      </g>
                                                    </g>
                                                  </g>
                                                </g>
                                              </g>
                                            </g>
                                          </g>
                                          <g id="Group_404" data-name="Group 404" transform="translate(65.766 173.277)">
                                            <g id="Group_403" data-name="Group 403">
                                              <g id="Group_402" data-name="Group 402">
                                                <g id="Group_401" data-name="Group 401">
                                                  <g id="Group_400" data-name="Group 400">
                                                    <g id="Group_399" data-name="Group 399">
                                                      <g id="Group_398" data-name="Group 398">
                                                        <g id="Group_397" data-name="Group 397">
                                                          <g id="Group_396" data-name="Group 396">
                                                            <g id="Group_395" data-name="Group 395">
                                                              <path id="Path_1026" data-name="Path 1026" d="M-3728.912-2938.1a88.659,88.659,0,0,1-48.217-2.916s16.433,21.764,49.966,11.629Z" transform="translate(3777.129 2941.014)" fill="#e8b1b1"/>
                                                            </g>
                                                          </g>
                                                        </g>
                                                      </g>
                                                    </g>
                                                  </g>
                                                </g>
                                              </g>
                                            </g>
                                          </g>
                                        </g>
                                      </g>
                                    </g>
                                    <g id="Group_417" data-name="Group 417" transform="translate(51.632 75.7)">
                                      <g id="Group_416" data-name="Group 416">
                                        <g id="Group_415" data-name="Group 415">
                                          <g id="Group_414" data-name="Group 414">
                                            <g id="Group_413" data-name="Group 413">
                                              <g id="Group_412" data-name="Group 412">
                                                <g id="Group_411" data-name="Group 411">
                                                  <g id="Group_410" data-name="Group 410">
                                                    <g id="Group_409" data-name="Group 409">
                                                      <g id="Group_408" data-name="Group 408">
                                                        <path id="Path_1027" data-name="Path 1027" d="M-3769.97-3037.835c-.322,1.354-5.163,1.288-10.69,2.609-5.555,1.211-9.886,3.374-10.764,2.294-.4-.52.251-1.832,1.934-3.3a18.3,18.3,0,0,1,7.742-3.755,18.293,18.293,0,0,1,8.6.019C-3770.992-3039.376-3769.838-3038.475-3769.97-3037.835Z" transform="translate(3791.537 3040.488)" fill="#1a2e35"/>
                                                      </g>
                                                    </g>
                                                  </g>
                                                </g>
                                              </g>
                                            </g>
                                          </g>
                                        </g>
                                      </g>
                                    </g>
                                    <g id="Group_427" data-name="Group 427" transform="translate(99.121 65.873)">
                                      <g id="Group_426" data-name="Group 426">
                                        <g id="Group_425" data-name="Group 425">
                                          <g id="Group_424" data-name="Group 424">
                                            <g id="Group_423" data-name="Group 423">
                                              <g id="Group_422" data-name="Group 422">
                                                <g id="Group_421" data-name="Group 421">
                                                  <g id="Group_420" data-name="Group 420">
                                                    <g id="Group_419" data-name="Group 419">
                                                      <g id="Group_418" data-name="Group 418">
                                                        <path id="Path_1028" data-name="Path 1028" d="M-3723.945-3047.251c-.764,1.269-4.831.939-9.461,1.823-4.654.749-8.385,2.451-9.512,1.514-.505-.463-.107-1.66,1.4-3.021a15.184,15.184,0,0,1,7.319-3.312,14.942,14.942,0,0,1,7.968.623C-3724.378-3048.854-3723.619-3047.861-3723.945-3047.251Z" transform="translate(3743.125 3050.506)" fill="#1a2e35"/>
                                                      </g>
                                                    </g>
                                                  </g>
                                                </g>
                                              </g>
                                            </g>
                                          </g>
                                        </g>
                                      </g>
                                    </g>
                                  </g>
                                </g>
                              </g>
                            </g>
                            <g id="Group_435" data-name="Group 435" transform="translate(32.994 18.124)">
                              <g id="Group_434" data-name="Group 434">
                                <g id="Group_433" data-name="Group 433">
                                  <g id="Group_432" data-name="Group 432">
                                    <path id="Path_1029" data-name="Path 1029" d="M-3808.685-3083.541a24.2,24.2,0,0,0,11.988,16.335,24.2,24.2,0,0,0,20.226,1.213c5.028-2,10.219-5.789,15.3-3.914,5.34,1.97,6.974,9.1,11.923,11.908,7.073,4.019,15.667-2.809,23.769-2.076,6.257.566,11.078,5.471,15.954,9.432s11.659,7.3,17.212,4.358c-1.442-5.233-2.906-10.519-5.506-15.285s-6.481-9.031-11.523-11.042c-2.763-1.1-5.8-1.5-8.434-2.878-5.7-2.974-8.213-9.634-12.349-14.551a26.137,26.137,0,0,0-22.117-9.031c-6.86.661-13.381,4.069-20.265,3.732-5.088-.248-9.949-2.544-15.043-2.491-9.921.1-17.427,8.741-22.985,16.959" transform="translate(3810.537 3099.182)" fill="#1a2e35"/>
                                  </g>
                                </g>
                              </g>
                            </g>
                          </g>
                        </g>
                        <g id="Group_440" data-name="Group 440" transform="translate(0 27.4)">
                          <g id="Group_439" data-name="Group 439">
                            <g id="Group_438" data-name="Group 438">
                              <path id="Path_1030" data-name="Path 1030" d="M-3776.3-3075.9c-4.529-.367-13.852-1.381-16.895-4.635-6.609-7.07-16.513-10.813-25.4-8.518a22.042,22.042,0,0,0-16.028,20.987c-10.86,2.264-20.1,11.225-23.257,22.552a36.737,36.737,0,0,0,7.691,33.308,65.914,65.914,0,0,1,5.147,7.557s-4.1,5.055-5.688,8.5c-7.337,15.97,12.26,22.232,12.26,22.232-.016,10.767,9.907,10.781,16.275,10.79,6.122.01,11.343,16.332,16.3,15.7l-6.255-51.787a4.793,4.793,0,0,0,2.623-.308c11.067-3.4,8.711-21.689,4.862-27.587,3.413-4.52,6.862-9.1,9.09-14.423s2.454-18.655.625-24.27C-3790.767-3066.381-3774.309-3075.738-3776.3-3075.9Z" transform="translate(3859.111 3089.725)"/>
                            </g>
                          </g>
                        </g>
                        <g id="Group_468" data-name="Group 468" transform="translate(28.665 112.816)">
                          <g id="Group_453" data-name="Group 453">
                            <g id="Group_452" data-name="Group 452">
                              <g id="Group_451" data-name="Group 451">
                                <g id="Group_450" data-name="Group 450">
                                  <g id="Group_449" data-name="Group 449">
                                    <g id="Group_448" data-name="Group 448">
                                      <g id="Group_447" data-name="Group 447">
                                        <g id="Group_446" data-name="Group 446">
                                          <g id="Group_445" data-name="Group 445">
                                            <g id="Group_444" data-name="Group 444">
                                              <g id="Group_443" data-name="Group 443">
                                                <g id="Group_442" data-name="Group 442">
                                                  <g id="Group_441" data-name="Group 441">
                                                    <path id="Path_1031" data-name="Path 1031" d="M-3809.822-2994.756c-1.823-7.2-10.714-10.46-16.285-5.552-3.058,2.693-4.9,7.245-3.031,14.9,4.978,20.412,24.444,11.2,24.337,10.609C-3804.867-2975.167-3807.687-2986.329-3809.822-2994.756Z" transform="translate(3829.889 3002.65)" fill="#f9cfcc"/>
                                                  </g>
                                                </g>
                                              </g>
                                            </g>
                                          </g>
                                        </g>
                                      </g>
                                    </g>
                                  </g>
                                </g>
                              </g>
                            </g>
                          </g>
                          <g id="Group_467" data-name="Group 467" transform="translate(5.635 6.337)">
                            <g id="Group_466" data-name="Group 466">
                              <g id="Group_465" data-name="Group 465">
                                <g id="Group_464" data-name="Group 464">
                                  <g id="Group_463" data-name="Group 463">
                                    <g id="Group_462" data-name="Group 462">
                                      <g id="Group_461" data-name="Group 461">
                                        <g id="Group_460" data-name="Group 460">
                                          <g id="Group_459" data-name="Group 459">
                                            <g id="Group_458" data-name="Group 458">
                                              <g id="Group_457" data-name="Group 457">
                                                <g id="Group_456" data-name="Group 456">
                                                  <g id="Group_455" data-name="Group 455">
                                                    <g id="Group_454" data-name="Group 454">
                                                      <path id="Path_1032" data-name="Path 1032" d="M-3812.812-2980.888c-.106-.043-.3.335-.829.757a3.656,3.656,0,0,1-2.645.7c-2.349-.266-5-3.246-6-6.9a12.092,12.092,0,0,1-.246-5.334c.258-1.645.969-2.924,2.009-3.381a1.865,1.865,0,0,1,2.337.462c.412.5.382.944.5.952.07.036.355-.449-.015-1.252a2.339,2.339,0,0,0-1.115-1.084,2.759,2.759,0,0,0-2.092-.039c-1.548.492-2.612,2.287-2.944,4.07a12.419,12.419,0,0,0,.155,5.99c1.134,4.082,4.179,7.417,7.337,7.549a3.919,3.919,0,0,0,3.121-1.333C-3812.729-2980.387-3812.733-2980.869-3812.812-2980.888Z" transform="translate(3824.145 2996.19)" fill="#e8b1b1"/>
                                                    </g>
                                                  </g>
                                                </g>
                                              </g>
                                            </g>
                                          </g>
                                        </g>
                                      </g>
                                    </g>
                                  </g>
                                </g>
                              </g>
                            </g>
                          </g>
                        </g>
                      </g>
                    </g>
                    <g id="Group_474" data-name="Group 474" transform="translate(1.056 15.963)">
                      <g id="Group_473" data-name="Group 473">
                        <g id="Group_472" data-name="Group 472">
                          <g id="Group_471" data-name="Group 471">
                            <path id="Path_1033" data-name="Path 1033" d="M-3846.4-3035.6a4.559,4.559,0,0,1-1-.57,25.316,25.316,0,0,1-2.611-2.021,24.378,24.378,0,0,1-6.906-9.944,19.164,19.164,0,0,1-1.015-8.4,17.336,17.336,0,0,1,3.6-9.029,13.858,13.858,0,0,1,9.361-5.193,12.894,12.894,0,0,1,10.877,3.6l-.9.621-.1-.215c-3.469-7.1-4.458-15.2-2.086-21.789,2.274-6.59,7.528-11.177,12.663-12.389a15.475,15.475,0,0,1,11.914,1.844,12.243,12.243,0,0,1,2.537,2.161,4.585,4.585,0,0,1,.674.946,18.95,18.95,0,0,0-3.435-2.74,15.324,15.324,0,0,0-11.5-1.456c-4.833,1.24-9.776,5.655-11.9,11.969-2.206,6.286-1.253,14.073,2.12,20.975.034.072.068.143.1.209l1.448,3.086-2.344-2.465a11.853,11.853,0,0,0-9.951-3.286,12.866,12.866,0,0,0-8.7,4.757,16.522,16.522,0,0,0-3.482,8.494,18.574,18.574,0,0,0,.844,8.044,25.011,25.011,0,0,0,6.46,9.882C-3847.672-3036.55-3846.336-3035.69-3846.4-3035.6Z" transform="translate(3858.035 3101.385)" fill="#1a2e35"/>
                          </g>
                        </g>
                      </g>
                    </g>
                  </g>
                </g>
                <g id="Group_477" data-name="Group 477" transform="translate(100.831 129.884)">
                  <path id="Path_1034" data-name="Path 1034" d="M-3755.758-2985.25a19.363,19.363,0,0,0-.3,7.634,9.5,9.5,0,0,0,4.029,6.3,10,10,0,0,0,7.37.955l.074-.017a7.108,7.108,0,0,0,5.46-6.634l.313-6.573C-3743.383-2983.965-3751.192-2984.87-3755.758-2985.25Z" transform="translate(3756.321 2985.25)" fill="#8c5949"/>
                </g>
                <g id="Group_479" data-name="Group 479" transform="translate(100.25 129.27)">
                  <g id="Group_478" data-name="Group 478">
                    <path id="Path_1035" data-name="Path 1035" d="M-3739.324-2973.154c.039.078-.5.422-1.424,1.125a15.682,15.682,0,0,1-1.77,1.237,8.759,8.759,0,0,1-2.758.951,11.532,11.532,0,0,1-3.528.14,8.659,8.659,0,0,1-3.871-1.4,10.6,10.6,0,0,1-4.2-8.138,22,22,0,0,1,.551-6.136l.106-.5.493.052c4.886.514,9.116,1,12.12,1.4s4.784.694,4.773.828-1.812.081-4.833-.116-7.262-.541-12.155-.988l.6-.448a21.972,21.972,0,0,0-.491,5.824,9.714,9.714,0,0,0,3.649,7.339,9.314,9.314,0,0,0,6.651,1.329,8.649,8.649,0,0,0,2.591-.716c.716-.337,1.308-.742,1.818-1.035A4.206,4.206,0,0,1-3739.324-2973.154Z" transform="translate(3756.913 2985.876)" fill="#1a2e35"/>
                  </g>
                </g>
                <g id="Group_481" data-name="Group 481" transform="translate(69.829 113.433)">
                  <g id="Group_480" data-name="Group 480">
                    <path id="Path_1036" data-name="Path 1036" d="M-3756.923-2994.119a26.161,26.161,0,0,0-3.984-3.79,18.572,18.572,0,0,0-5.282-2.67,17.812,17.812,0,0,0-7.163-.776,17.834,17.834,0,0,0-6.847,2.246,18.593,18.593,0,0,0-4.613,3.71,26.272,26.272,0,0,0-3.11,4.535,5.887,5.887,0,0,1,.546-1.394,16.139,16.139,0,0,1,2.252-3.414,18.107,18.107,0,0,1,4.655-3.9,17.829,17.829,0,0,1,7.056-2.363,17.866,17.866,0,0,1,7.391.846,18.111,18.111,0,0,1,5.363,2.851,16.156,16.156,0,0,1,2.912,2.871A5.832,5.832,0,0,1-3756.923-2994.119Z" transform="translate(3787.925 3002.02)" fill="#8c5949"/>
                  </g>
                </g>
              </g>
              <g id="Group_483" data-name="Group 483" transform="translate(100.831 129.884)">
                <path id="Path_1037" data-name="Path 1037" d="M-3755.758-2985.25a19.363,19.363,0,0,0-.3,7.634,9.5,9.5,0,0,0,4.029,6.3,10,10,0,0,0,7.37.955l.074-.017a7.108,7.108,0,0,0,5.46-6.634l.313-6.573C-3743.383-2983.965-3751.192-2984.87-3755.758-2985.25Z" transform="translate(3756.321 2985.25)" fill="#fff"/>
              </g>
              <g id="Group_485" data-name="Group 485" transform="translate(100.25 129.27)">
                <g id="Group_484" data-name="Group 484">
                  <path id="Path_1038" data-name="Path 1038" d="M-3739.324-2973.154c.039.078-.5.422-1.424,1.125a15.682,15.682,0,0,1-1.77,1.237,8.759,8.759,0,0,1-2.758.951,11.532,11.532,0,0,1-3.528.14,8.659,8.659,0,0,1-3.871-1.4,10.6,10.6,0,0,1-4.2-8.138,22,22,0,0,1,.551-6.136l.106-.5.493.052c4.886.514,9.116,1,12.12,1.4s4.784.694,4.773.828-1.812.081-4.833-.116-7.262-.541-12.155-.988l.6-.448a21.972,21.972,0,0,0-.491,5.824,9.714,9.714,0,0,0,3.649,7.339,9.314,9.314,0,0,0,6.651,1.329,8.649,8.649,0,0,0,2.591-.716c.716-.337,1.308-.742,1.818-1.035A4.206,4.206,0,0,1-3739.324-2973.154Z" transform="translate(3756.913 2985.876)"/>
                </g>
              </g>
              <g id="Group_487" data-name="Group 487" transform="translate(69.829 113.433)">
                <g id="Group_486" data-name="Group 486">
                  <path id="Path_1039" data-name="Path 1039" d="M-3756.923-2994.119a26.161,26.161,0,0,0-3.984-3.79,18.572,18.572,0,0,0-5.282-2.67,17.812,17.812,0,0,0-7.163-.776,17.834,17.834,0,0,0-6.847,2.246,18.593,18.593,0,0,0-4.613,3.71,26.272,26.272,0,0,0-3.11,4.535,5.887,5.887,0,0,1,.546-1.394,16.139,16.139,0,0,1,2.252-3.414,18.107,18.107,0,0,1,4.655-3.9,17.829,17.829,0,0,1,7.056-2.363,17.866,17.866,0,0,1,7.391.846,18.111,18.111,0,0,1,5.363,2.851,16.156,16.156,0,0,1,2.912,2.871A5.832,5.832,0,0,1-3756.923-2994.119Z" transform="translate(3787.925 3002.02)" stroke="#000" stroke-miterlimit="10" stroke-width="0.25"/>
                </g>
              </g>
            </g>
            <g id="Group_505" data-name="Group 505" transform="translate(0 142.58)">
              <g id="Group_489" data-name="Group 489" transform="translate(45.632 47.912)">
                <path id="Path_1040" data-name="Path 1040" d="M-3802.292-2920.558l-31.728,11.151-21.459,64.576,30.992,107.257-18.239,58.924h188.481l-17.246-51.622c2.749-19.111,14.915-63.191,13.249-83.692-3.609-44.385-21.161-107.115-21.161-107.115l-48.435-2.387C-3739.012-2894.863-3788.847-2892.685-3802.292-2920.558Z" transform="translate(3855.478 2923.465)" fill="#ed759d"/>
              </g>
              <g id="Group_490" data-name="Group 490" transform="translate(163.044 65.414)" opacity="0.3">
                <path id="Path_1041" data-name="Path 1041" d="M-3735.785-2905.623s.25.517.695,1.4c2.159,4.276,8.911,17.136,13.988,21.158,6.122,4.851,13.513,11.177,13.513,11.177,7.21,46.753,21.434,87.193,41.07,122.758l-12.581-65.123-21.092-77.555-35.343-13.3" transform="translate(3735.785 2905.623)"/>
              </g>
              <g id="Group_492" data-name="Group 492" transform="translate(62.656 213.904)" opacity="0.3">
                <g id="Group_491" data-name="Group 491">
                  <path id="Path_1042" data-name="Path 1042" d="M-3798.124-2736.883l-40,56.136c22.194-5.6,43.1-19.147,53.654-39.458,1.248-2.4,2.428-4.934,4.459-6.72,3.773-3.316,9.251-5,14.034-6.536,14.892-4.78,21.694-9.928,27.181-20.785C-3752.6-2736.605-3777.554-2730.346-3798.124-2736.883Z" transform="translate(3838.124 2754.247)"/>
                </g>
              </g>
              <g id="Group_493" data-name="Group 493" transform="translate(220.936 50.414)">
                <path id="Path_1043" data-name="Path 1043" d="M-3676.768-2920.8s12.662-2.737,29.331,18.433c14.576,18.51,32.827,47.822,32.827,47.822l-43.912,18.8-18.041-78.536Z" transform="translate(3676.768 2920.915)" fill="#ed759d"/>
              </g>
              <g id="Group_494" data-name="Group 494" transform="translate(0 58.449)">
                <path id="Path_1044" data-name="Path 1044" d="M-3902-2809.084s14.494-73.272,29.994-83.848c14.942-10.195,46.642-19.791,46.642-19.791l-1.488,121.8Z" transform="translate(3901.997 2912.723)" fill="#ed759d"/>
              </g>
              <path id="Path_1045" data-name="Path 1045" d="M-3808.993-2972.308l7.587,50.819s11.184,28.156,51.5,17.329" transform="translate(3900.224 2972.308)" fill="none" stroke="#000" stroke-linecap="round" stroke-linejoin="round" stroke-width="2"/>
              <line id="Line_54" data-name="Line 54" x1="41.046" y2="14.12" transform="translate(57.772 50.819)" fill="none" stroke="#000" stroke-linecap="round" stroke-linejoin="round" stroke-width="2"/>
              <g id="Group_496" data-name="Group 496" transform="translate(61.977 111.36)">
                <g id="Group_495" data-name="Group 495">
                  <path id="Path_1046" data-name="Path 1046" d="M-3838.811-2858.784a2.867,2.867,0,0,1,.232.647c.135.431.311,1.07.528,1.9.425,1.655,1.005,4.061,1.593,7.06a200.841,200.841,0,0,1,3.2,23.655,196.76,196.76,0,0,1,.459,23.869c-.081,3.056-.319,5.52-.45,7.223-.073.8-.133,1.448-.179,1.958a2.952,2.952,0,0,1-.1.68,3.17,3.17,0,0,1-.016-.689c.019-.512.041-1.162.069-1.965.063-1.706.237-4.169.265-7.22a226.574,226.574,0,0,0-.629-23.811,232.391,232.391,0,0,0-3.027-23.623c-.535-3-1.052-5.416-1.409-7.084-.172-.784-.311-1.419-.421-1.92A3.339,3.339,0,0,1-3838.811-2858.784Z" transform="translate(3838.816 2858.784)" stroke="#000" stroke-linecap="round" stroke-linejoin="round" stroke-width="0.5"/>
                </g>
              </g>
              <g id="Group_498" data-name="Group 498" transform="translate(133.954 182.633)">
                <g id="Group_497" data-name="Group 497">
                  <path id="Path_1047" data-name="Path 1047" d="M-3726.5-2786.126a3.084,3.084,0,0,1,.044.687c0,.449.038,1.115-.009,1.97a45.819,45.819,0,0,1-.821,7.2,50.161,50.161,0,0,1-9.892,21.594,50.16,50.16,0,0,1-18.829,14.486,45.894,45.894,0,0,1-6.834,2.415c-.822.236-1.479.348-1.917.45a3.054,3.054,0,0,1-.679.11,3.049,3.049,0,0,1,.65-.225c.428-.138,1.074-.284,1.883-.554a52.848,52.848,0,0,0,6.726-2.572,51.385,51.385,0,0,0,18.543-14.473,51.4,51.4,0,0,0,9.945-21.312,53.02,53.02,0,0,0,1-7.132c.082-.848.079-1.511.118-1.96A3.04,3.04,0,0,1-3726.5-2786.126Z" transform="translate(3765.44 2786.126)" fill="#1a2e35"/>
                </g>
              </g>
              <g id="Group_500" data-name="Group 500" transform="translate(19.3 98.262)">
                <g id="Group_499" data-name="Group 499">
                  <path id="Path_1048" data-name="Path 1048" d="M-3839.258-2850.864a12.1,12.1,0,0,1-1.561-1.095c-.974-.742-2.407-1.784-4.2-3.034a116.267,116.267,0,0,0-14.69-8.687,116.464,116.464,0,0,0-15.83-6.384c-2.083-.665-3.783-1.169-4.964-1.492a12.14,12.14,0,0,1-1.817-.574,11.808,11.808,0,0,1,1.875.353c1.2.256,2.921.7,5.028,1.318a101.322,101.322,0,0,1,15.968,6.255,101.3,101.3,0,0,1,14.671,8.875c1.771,1.3,3.17,2.394,4.1,3.192A11.807,11.807,0,0,1-3839.258-2850.864Z" transform="translate(3882.322 2872.137)" fill="#fff"/>
                </g>
              </g>
              <g id="Group_502" data-name="Group 502" transform="translate(66.364 78.952)">
                <g id="Group_501" data-name="Group 501">
                  <path id="Path_1049" data-name="Path 1049" d="M-3726.919-2891.817a1.048,1.048,0,0,1-.275.07l-.815.149-3.143.516-11.563,1.848c-9.761,1.573-23.231,3.838-38.063,6.591s-28.221,5.486-37.9,7.524l-11.455,2.428-3.117.648-.814.154a1.021,1.021,0,0,1-.283.032,1.066,1.066,0,0,1,.269-.091l.8-.21,3.094-.754c2.689-.646,6.59-1.54,11.418-2.61,9.655-2.143,23.034-4.934,37.877-7.695s28.325-4.956,38.105-6.425c4.891-.736,8.852-1.3,11.595-1.664l3.159-.408.823-.091A1.016,1.016,0,0,1-3726.919-2891.817Z" transform="translate(3834.344 2891.822)" fill="#fff"/>
                </g>
              </g>
              <g id="Group_504" data-name="Group 504" transform="translate(233.732 69.603)">
                <g id="Group_503" data-name="Group 503">
                  <path id="Path_1050" data-name="Path 1050" d="M-3648.283-2901.35a116.449,116.449,0,0,1-7.5,8.936,116.649,116.649,0,0,1-7.938,8.55c-.122-.106,3.236-4.106,7.5-8.937S-3648.4-2901.456-3648.283-2901.35Z" transform="translate(3663.723 2901.352)" fill="#fff"/>
                </g>
              </g>
            </g>
            <g id="Group_542" data-name="Group 542" transform="translate(10.088 235.581)">
              <g id="Group_506" data-name="Group 506" transform="translate(0 66.096)">
                <path id="Path_1051" data-name="Path 1051" d="M-3799.434-2810.119l-38.108,46.408.7-28.025-54.71-12.922s-.233,15.7-.13,48.77c.028,8.812,2.6,37.9,6.2,51.417,4.658,17.464,36.219,33.2,53.96,18.062,15.333-13.087,65.384-111.443,65.384-111.443Z" transform="translate(3891.713 2810.119)" fill="#f9cfcc"/>
              </g>
              <g id="Group_507" data-name="Group 507" transform="translate(160.908 10.038)">
                <path id="Path_1052" data-name="Path 1052" d="M-3718.886-2865.265a2.258,2.258,0,0,0-3.825-1.354,14.983,14.983,0,0,0-4.659,9.661c-.691,8.509,0,30.358,0,30.358l12.648-1.613Z" transform="translate(3727.678 2867.266)" fill="#e8b1b1"/>
              </g>
              <g id="Group_536" data-name="Group 536" transform="translate(101.338)">
                <g id="Group_508" data-name="Group 508">
                  <path id="Path_1053" data-name="Path 1053" d="M-3721.562-2848.117c-.283-4.724-1.074-9.543-3.446-13.639a27.776,27.776,0,0,0-7.649-8.1,40.037,40.037,0,0,0-11.354-6.035,34.643,34.643,0,0,0-34.229,7.922,34.728,34.728,0,0,0-9.531,31.108l-.081-.33c.05.247.1.489.154.733.029.134.054.269.084.4,1.7,7.954,4.236,14.423,10.51,19.791,4.124,3.528,9.518,5.182,14.843,6.23,8.181,1.61,17.044,1.908,24.474-1.878,6.241-3.179,10.881-9.03,13.448-15.546S-3721.143-2841.125-3721.562-2848.117Z" transform="translate(3788.405 2877.5)" fill="#fdd89b"/>
                </g>
                <g id="Group_509" data-name="Group 509">
                  <path id="Path_1054" data-name="Path 1054" d="M-3722.179-2853.135c.539,4.376-2.031,8.563-3.632,12.671-1.037,2.66-2.242,5.522-4.723,6.935-1.818,1.036-4.1,1.138-5.779,2.387-1.381,1.027-2.175,2.706-3.579,3.7-3.344,2.369-8.3-.136-11.97,1.69a23.532,23.532,0,0,0-3.029,2.2,4.31,4.31,0,0,1-3.5.956c-1.435-.388-2.283-1.86-3.556-2.629-1.6-.965-3.607-.706-5.473-.753a15.766,15.766,0,0,1-13.892-9.656s-2.99,3.7-4.509,2.252a8.454,8.454,0,0,1-2.03-3.807l.081.33a34.728,34.728,0,0,1,9.531-31.108,34.643,34.643,0,0,1,34.229-7.922,40.037,40.037,0,0,1,11.354,6.035,27.776,27.776,0,0,1,7.649,8.1A23.558,23.558,0,0,1-3722.179-2853.135Z" transform="translate(3788.405 2877.5)" fill="#db6729"/>
                </g>
                <g id="Group_511" data-name="Group 511" transform="translate(20.431 2.968)" opacity="0.3">
                  <g id="Group_510" data-name="Group 510">
                    <path id="Path_1055" data-name="Path 1055" d="M-3727.949-2858.5a8.961,8.961,0,0,0-1.63-3.246,31.429,31.429,0,0,0-16.376-11.7c-6.543-1.964-13.06-.923-19.439,1.522a2.959,2.959,0,0,0-2.1,3.576,4.485,4.485,0,0,0,3.232,3.041,9.756,9.756,0,0,0,4.608-.064c1.518-.317,3.011-.778,4.554-.942a16.773,16.773,0,0,1,10.431,2.881,76.533,76.533,0,0,1,8.614,6.863,10.485,10.485,0,0,0,3.448,2.178,3.836,3.836,0,0,0,3.838-.7A3.745,3.745,0,0,0-3727.949-2858.5Z" transform="translate(3767.577 2874.474)" fill="#fff"/>
                  </g>
                </g>
                <g id="Group_513" data-name="Group 513" transform="translate(8.375 32.113)" opacity="0.3">
                  <g id="Group_512" data-name="Group 512">
                    <path id="Path_1056" data-name="Path 1056" d="M-3751.645-2842.883h0c-2.978-.825-6.029.742-8.812,2.086s-6.168,2.493-8.843.943c-2.426-1.4-3.794-4.8-6.595-4.907a4.081,4.081,0,0,0-3.814,3.214,7.562,7.562,0,0,0,.9,5.2,13.889,13.889,0,0,0,14.412,7.07c2.674-.487,5.175-1.776,7.881-2.037,2.4-.23,5.181.253,6.936-1.4,1.406-1.328,2.741-2.359,3.33-5.132C-3745.8-2839.973-3746.787-2841.974-3751.645-2842.883Z" transform="translate(3779.867 2844.763)" fill="#fff"/>
                  </g>
                </g>
                <g id="Group_515" data-name="Group 515" transform="translate(45.134 32.098)" opacity="0.3">
                  <g id="Group_514" data-name="Group 514">
                    <path id="Path_1057" data-name="Path 1057" d="M-3736.017-2842.583c-.419-1.539-2.45-2.311-4.04-2.181h-.1a3.219,3.219,0,0,0-1.856,4.646,3.318,3.318,0,0,0,4.093,1.479A3.435,3.435,0,0,0-3736.017-2842.583Z" transform="translate(3742.394 2844.778)" fill="#fff"/>
                  </g>
                </g>
                <g id="Group_517" data-name="Group 517" transform="translate(19.051 17.371)" opacity="0.3">
                  <g id="Group_516" data-name="Group 516">
                    <path id="Path_1058" data-name="Path 1058" d="M-3763.59-2844.754a18.448,18.448,0,0,1,17.3-1.025,15.264,15.264,0,0,1,8.107-4.375,18.2,18.2,0,0,0-12.915-9.4,18.192,18.192,0,0,0-15.28,4.658c-1.731,1.638-3.2,4.077-2.363,6.307.721,1.921,2.83,2.869,4.738,3.621" transform="translate(3768.984 2859.792)"/>
                  </g>
                </g>
                <g id="Group_519" data-name="Group 519" transform="translate(22.674 26.656)">
                  <g id="Group_518" data-name="Group 518">
                    <path id="Path_1059" data-name="Path 1059" d="M-3733.059-2849.683a20.1,20.1,0,0,0-4.141-.243,11.871,11.871,0,0,0-4.321,1.318,36.577,36.577,0,0,0-4.791,3.126l-.123.088-.149-.052c-.76-.271-1.562-.536-2.4-.746a19.512,19.512,0,0,0-6.525-.513,21.313,21.313,0,0,0-5.236,1.2c-2.886,1.079-4.491,2.171-4.549,2.07a5.6,5.6,0,0,1,1.1-.789,22.412,22.412,0,0,1,3.3-1.667,20.241,20.241,0,0,1,5.329-1.349,19.312,19.312,0,0,1,6.72.481,25.255,25.255,0,0,1,2.459.772l-.271.035a34.08,34.08,0,0,1,4.9-3.115,11.751,11.751,0,0,1,4.519-1.241,11.515,11.515,0,0,1,3.1.271A4.468,4.468,0,0,1-3733.059-2849.683Z" transform="translate(3765.291 2850.326)" stroke="#000" stroke-linecap="round" stroke-linejoin="round" stroke-width="0.5"/>
                  </g>
                </g>
                <g id="Group_521" data-name="Group 521" transform="translate(18.471 17.152)">
                  <g id="Group_520" data-name="Group 520">
                    <path id="Path_1060" data-name="Path 1060" d="M-3738.275-2850.706a24.679,24.679,0,0,0-3.843-4.4,18.274,18.274,0,0,0-5.41-3.212,16.951,16.951,0,0,0-7.577-1.036,18.082,18.082,0,0,0-7.308,2.314,17.378,17.378,0,0,0-4.8,4.05,10.354,10.354,0,0,0-2,3.718c-.271.972-.26,1.544-.316,1.541-.021,0-.033-.141-.04-.413a6.083,6.083,0,0,1,.134-1.181,9.855,9.855,0,0,1,1.9-3.92,17.113,17.113,0,0,1,4.858-4.259,18.151,18.151,0,0,1,7.526-2.431,17.072,17.072,0,0,1,7.824,1.115,17.924,17.924,0,0,1,5.49,3.4,16.427,16.427,0,0,1,2.822,3.31,9.192,9.192,0,0,1,.589,1.024C-3738.312-2850.846-3738.258-2850.716-3738.275-2850.706Z" transform="translate(3769.575 2860.014)" stroke="#000" stroke-linecap="round" stroke-linejoin="round" stroke-width="0.5"/>
                  </g>
                </g>
                <g id="Group_523" data-name="Group 523" transform="translate(6.033 5.803)">
                  <g id="Group_522" data-name="Group 522">
                    <path id="Path_1061" data-name="Path 1061" d="M-3781.85-2838.41a6.47,6.47,0,0,1-.219-1.389,31.88,31.88,0,0,1-.186-3.828,41.973,41.973,0,0,1,.407-5.677,47.232,47.232,0,0,1,1.518-6.806,47.272,47.272,0,0,1,2.586-6.477,41.98,41.98,0,0,1,2.866-4.918,32,32,0,0,1,2.313-3.056,6.416,6.416,0,0,1,.964-1.023c.085.07-1.208,1.6-2.931,4.305a48.063,48.063,0,0,0-2.729,4.927,51.481,51.481,0,0,0-2.511,6.414,51.585,51.585,0,0,0-1.544,6.712,48.164,48.164,0,0,0-.526,5.606C-3781.946-2840.409-3781.74-2838.419-3781.85-2838.41Z" transform="translate(3782.255 2871.583)" fill="#fff"/>
                  </g>
                </g>
                <g id="Group_525" data-name="Group 525" transform="translate(13.287 2.587)">
                  <g id="Group_524" data-name="Group 524">
                    <path id="Path_1062" data-name="Path 1062" d="M-3772.832-2828a12.565,12.565,0,0,1-.58-1.885,20.347,20.347,0,0,1-.526-2.255c-.163-.888-.4-1.892-.508-3.026a37.16,37.16,0,0,1-.34-3.706c-.111-1.336-.068-2.767-.055-4.273a55.012,55.012,0,0,1,1.268-9.7,54.942,54.942,0,0,1,3.119-9.279c.649-1.359,1.239-2.664,1.925-3.816a36.849,36.849,0,0,1,1.932-3.181c.594-.971,1.248-1.771,1.783-2.5a20.373,20.373,0,0,1,1.463-1.8,12.753,12.753,0,0,1,1.348-1.44,12.637,12.637,0,0,1-1.172,1.584c-.4.49-.876,1.1-1.375,1.845s-1.132,1.549-1.7,2.527c-.6.956-1.252,2-1.854,3.188-.661,1.151-1.227,2.451-1.857,3.8a57.432,57.432,0,0,0-3.042,9.193,57.565,57.565,0,0,0-1.3,9.594c-.027,1.49-.088,2.906,0,4.231.022,1.327.146,2.556.267,3.679.082,1.127.287,2.128.419,3.016s.282,1.646.427,2.262A12.694,12.694,0,0,1-3772.832-2828Z" transform="translate(3774.86 2874.862)" fill="#fff"/>
                  </g>
                </g>
                <g id="Group_527" data-name="Group 527" transform="translate(24.908 32.774)">
                  <g id="Group_526" data-name="Group 526">
                    <path id="Path_1063" data-name="Path 1063" d="M-3760.194-2824.138a10.633,10.633,0,0,1-1.235-2.732,28.777,28.777,0,0,1-1.492-7.087,28.825,28.825,0,0,1,.325-7.236,10.645,10.645,0,0,1,.778-2.9,26.86,26.86,0,0,1-.369,2.956,36.046,36.046,0,0,0-.151,7.129,36.059,36.059,0,0,0,1.3,7.009A26.464,26.464,0,0,1-3760.194-2824.138Z" transform="translate(3763.013 2844.089)" fill="#fff"/>
                  </g>
                </g>
                <g id="Group_529" data-name="Group 529" transform="translate(31.916 1.54)">
                  <g id="Group_528" data-name="Group 528">
                    <path id="Path_1064" data-name="Path 1064" d="M-3755.834-2863.185a17.728,17.728,0,0,1,1.575-6.782,17.7,17.7,0,0,1,3.6-5.96c.149.1-1.64,2.65-3.059,6.18C-3755.161-2866.229-3755.655-2863.155-3755.834-2863.185Z" transform="translate(3755.869 2875.93)" fill="#fff"/>
                  </g>
                </g>
                <g id="Group_531" data-name="Group 531" transform="translate(43.655 6.149)">
                  <g id="Group_530" data-name="Group 530">
                    <path id="Path_1065" data-name="Path 1065" d="M-3743.738-2859.021a15.616,15.616,0,0,1,.36-6.32,15.644,15.644,0,0,1,2.325-5.889c.162.075-1.025,2.64-1.755,6.014C-3743.561-2861.848-3743.56-2859.021-3743.738-2859.021Z" transform="translate(3743.902 2871.232)" fill="#fff"/>
                  </g>
                </g>
                <g id="Group_533" data-name="Group 533" transform="translate(38.218 35.656)">
                  <g id="Group_532" data-name="Group 532">
                    <path id="Path_1066" data-name="Path 1066" d="M-3745.305-2826.951a6.8,6.8,0,0,1-1.167-1.861,27.712,27.712,0,0,1-1.933-4.933,27.855,27.855,0,0,1-.971-5.21,6.786,6.786,0,0,1,.006-2.2c.18-.013.388,3.321,1.527,7.245C-3746.733-2829.976-3745.146-2827.035-3745.305-2826.951Z" transform="translate(3749.445 2841.151)" fill="#fff"/>
                  </g>
                </g>
                <g id="Group_535" data-name="Group 535" transform="translate(47.411 14.987)">
                  <g id="Group_534" data-name="Group 534">
                    <path id="Path_1067" data-name="Path 1067" d="M-3729.895-2862.221a7.584,7.584,0,0,1-.43,1.454,23.518,23.518,0,0,0-.734,4.034,54.064,54.064,0,0,0-.14,6.1,62.028,62.028,0,0,1-.148,7.541,21.153,21.153,0,0,1-.739,3.868,12.6,12.6,0,0,1-.665,1.786,2.622,2.622,0,0,1-.62.783,1.347,1.347,0,0,1-1.018.311,2.482,2.482,0,0,1-1.472-1.106c-.349-.43-.663-.866-.959-1.293a21.308,21.308,0,0,1-1.467-2.483,20.249,20.249,0,0,1-1.493-3.885,5.832,5.832,0,0,1-.284-1.5,36.507,36.507,0,0,0,2.144,5.191,22.424,22.424,0,0,0,1.5,2.4c.3.411.612.833.96,1.247s.709.847,1.139.9.829-.331,1.083-.826a12.744,12.744,0,0,0,.606-1.682,21.211,21.211,0,0,0,.707-3.767,68.562,68.562,0,0,0,.19-7.474,47.471,47.471,0,0,1,.269-6.156,19.562,19.562,0,0,1,.928-4.058A7.576,7.576,0,0,1-3729.895-2862.221Z" transform="translate(3740.073 2862.221)" fill="#fff"/>
                  </g>
                </g>
              </g>
              <g id="Group_537" data-name="Group 537" transform="translate(92.279 25.492)">
                <path id="Path_1068" data-name="Path 1068" d="M-3712.857-2842.706l-2.95-7.38a2.25,2.25,0,0,0-4.1-.2,13.171,13.171,0,0,0-1.157,6.26c.23,7.359-1.15,9.659-1.15,9.659s-4.369-.92-5.519,6.668-8.734,15.408-8.734,15.408l-22.744,1.671s-13.136-4.661-18.425-9.03-3.679-10.119-4.829-20.7-7.819-5.519-7.819-5.519,1.149,9.429-1.839,17.937-5.52,16.1-5.52,17.018l22.077,21.157a14.709,14.709,0,0,1,13.338-8.509s31.735.231,35.185-2.3,4.829-8.279,4.829-8.279,7.575-11.007,9.634-14.378C-3709.925-2827.558-3712.857-2842.706-3712.857-2842.706Z" transform="translate(3797.641 2851.512)" fill="#f9cfcc"/>
              </g>
              <path id="Path_1069" data-name="Path 1069" d="M-3786.855-2846.981c2.654-.256,4.413,2.121,4.935,10.743s-.155,12.512,4.049,16.294,17.914,9.483,18.867,9.413l22.744-1.671s5.88-5.456,7.391-10.908" transform="translate(3889.714 2876.918)" fill="none" stroke="#000" stroke-linecap="round" stroke-linejoin="round" stroke-width="2"/>
              <g id="Group_539" data-name="Group 539" transform="translate(166.589 42.851)">
                <g id="Group_538" data-name="Group 538">
                  <path id="Path_1070" data-name="Path 1070" d="M-3721.886-2833.4q-.016-.027.24-.187a2.138,2.138,0,0,1,.846-.227,3.428,3.428,0,0,1,2.8,1.443,6.826,6.826,0,0,1,.869,4.6c-.148,1.743-.336,3.639-.561,5.639a74.572,74.572,0,0,1-1.761,10.15c-.326,1.28-.655,2.3-.9,2.994a4.318,4.318,0,0,1-.452,1.056c-.09-.029.4-1.581.947-4.145a102.108,102.108,0,0,0,1.583-10.121c.214-1.982.417-3.873.605-5.615a6.614,6.614,0,0,0-.668-4.318,3.283,3.283,0,0,0-2.462-1.457A4.153,4.153,0,0,0-3721.886-2833.4Z" transform="translate(3721.887 2833.815)"/>
                </g>
              </g>
              <g id="Group_541" data-name="Group 541" transform="translate(111.391 78.674)">
                <g id="Group_540" data-name="Group 540">
                  <path id="Path_1071" data-name="Path 1071" d="M-3778.152-2785.755a9.859,9.859,0,0,1,1.469-2.6,25.826,25.826,0,0,1,4.922-5.277,21.672,21.672,0,0,1,3.338-2.2,14.171,14.171,0,0,1,3.053-1.163,7.323,7.323,0,0,1,1.235-.233,4.719,4.719,0,0,1,.945-.069c.521,0,.8.025.8.065,0,.113-1.145.1-2.873.634a16,16,0,0,0-2.913,1.242,24.378,24.378,0,0,0-3.225,2.175,31.4,31.4,0,0,0-4.955,5.067C-3777.475-2786.676-3778.07-2785.707-3778.152-2785.755Z" transform="translate(3778.157 2797.297)" fill="#8c5949"/>
                </g>
              </g>
            </g>
            <g id="Group_588" data-name="Group 588" transform="translate(152.402 126.931)">
              <g id="Group_570" data-name="Group 570" transform="translate(0 7.698)">
                <g id="Group_543" data-name="Group 543" transform="translate(0 0.173)">
                  <path id="Path_1072" data-name="Path 1072" d="M-3685.25-2977.348a14.126,14.126,0,0,1,8.15,9.908c1.811,7.559-1.384,12.692-5,16.076-3.413,3.19-19.065,18.2-31.334,19.641s-19.955,2.615-28.037-3.277c-7.192-5.244-6.545-16.281-.049-22.054s21.666-14.581,29.365-18.912S-3692.215-2982.271-3685.25-2977.348Z" transform="translate(3746.633 2980.237)" fill="#fdd89b"/>
                </g>
                <path id="Path_1073" data-name="Path 1073" d="M-3693.36-2940.884s7.989-6.251,11.611-9.568,8.125-8.592,5.343-17.905" transform="translate(3745.618 2980.184)" fill="none" stroke="#000" stroke-linecap="round" stroke-linejoin="round" stroke-width="2"/>
                <g id="Group_544" data-name="Group 544" transform="translate(1.215)">
                  <path id="Path_1074" data-name="Path 1074" d="M-3683.22-2972.307a7.844,7.844,0,0,1-4.878,5.8c-2.591.941-5.635,1.645-6.981,4.05-.858,1.531-1.015,3.712-2.63,4.4-1.315.562-2.925-.253-4.227.339-2.829,1.287-.447,6.6-3.044,8.315-1.454.957-3.378.006-4.782-1.021s-3.081-2.21-4.728-1.646c-2.591.888-2.385,5.057-4.755,6.427-1.385.8-3.158.334-4.58-.4s-2.767-1.721-4.347-1.973c-1.869-.3-3.726.492-5.422,1.331s-3.445,1.768-5.337,1.773-5.729-1.092-5.81-2.982c0,0-2.815-3.2,3.243-9.164,4.635-4.566,20.331-14.016,20.331-14.016s14.971-10.826,28.224-9.168C-3692.944-2980.24-3681.522-2979.256-3683.22-2972.307Z" transform="translate(3745.395 2980.413)" fill="#db6729"/>
                </g>
                <g id="Group_546" data-name="Group 546" transform="translate(20.071 10.989)">
                  <g id="Group_545" data-name="Group 545">
                    <path id="Path_1075" data-name="Path 1075" d="M-3698.951-2969.205c.038.09-1.556.755-3.913,2.222-2.38,1.432-5.422,3.781-8.941,6.2a30.53,30.53,0,0,1-9.853,4.718,15.528,15.528,0,0,1-3.3.444,4.119,4.119,0,0,1-1.217-.077,34,34,0,0,0,4.411-.766,33.391,33.391,0,0,0,9.629-4.8c3.492-2.4,6.6-4.713,9.057-6.07a26.829,26.829,0,0,1,2.969-1.478A4.382,4.382,0,0,1-3698.951-2969.205Z" transform="translate(3726.172 2969.211)" stroke="#000" stroke-miterlimit="10" stroke-width="0.25"/>
                  </g>
                </g>
                <g id="Group_548" data-name="Group 548" transform="translate(16.32 6.628)" opacity="0.3">
                  <g id="Group_547" data-name="Group 547">
                    <path id="Path_1076" data-name="Path 1076" d="M-3699.042-2973.558a3.87,3.87,0,0,0-2.2.17c-5.37,1.611-9.667,5.542-13.98,9.124s-9.181,7.053-14.776,7.413a10.979,10.979,0,0,0,7.58.69c9.782-2.926,15.467-10.1,23.392-13.129a2.788,2.788,0,0,0,1.521-2.326A2.494,2.494,0,0,0-3699.042-2973.558Z" transform="translate(3729.996 2973.657)"/>
                  </g>
                </g>
                <g id="Group_550" data-name="Group 550" transform="translate(1.997 26.459)">
                  <g id="Group_549" data-name="Group 549">
                    <path id="Path_1077" data-name="Path 1077" d="M-3738.611-2945.751a2.542,2.542,0,0,1-1.729.2,5,5,0,0,1-3.538-2.253,5,5,0,0,1-.46-4.17c.363-1.045.9-1.506.943-1.462.082.056-.314.59-.545,1.576a5.041,5.041,0,0,0,.559,3.748,5.043,5.043,0,0,0,3.115,2.156C-3739.278-2945.73-3738.625-2945.848-3738.611-2945.751Z" transform="translate(3744.597 2953.44)" fill="#fff"/>
                  </g>
                </g>
                <g id="Group_552" data-name="Group 552" transform="translate(20.17 31.557)">
                  <g id="Group_551" data-name="Group 551">
                    <path id="Path_1078" data-name="Path 1078" d="M-3721.169-2946.481a4.558,4.558,0,0,1-2.616-.4c-1.39-.49-2.362-1.2-2.282-1.338a9.257,9.257,0,0,1,2.477.788A9.3,9.3,0,0,1-3721.169-2946.481Z" transform="translate(3726.072 2948.243)" fill="#fff"/>
                  </g>
                </g>
                <g id="Group_554" data-name="Group 554" transform="translate(17.251 22.108)">
                  <g id="Group_553" data-name="Group 553">
                    <path id="Path_1079" data-name="Path 1079" d="M-3714.607-2957.864a6.362,6.362,0,0,1-1.871,1.184,20.851,20.851,0,0,1-5.054,1.736,20.932,20.932,0,0,1-5.33.407,6.336,6.336,0,0,1-2.186-.347c.011-.187,3.375.22,7.4-.632C-3717.622-2956.326-3714.692-2958.031-3714.607-2957.864Z" transform="translate(3729.047 2957.876)" fill="#fff"/>
                  </g>
                </g>
                <g id="Group_556" data-name="Group 556" transform="translate(35.706 27.256)">
                  <g id="Group_555" data-name="Group 555">
                    <path id="Path_1080" data-name="Path 1080" d="M-3706.418-2950.871c.021.152-1.043.329-2.2-.209s-1.723-1.453-1.594-1.536c.129-.109.811.545,1.837,1.005C-3707.36-2951.132-3706.42-2951.041-3706.418-2950.871Z" transform="translate(3710.234 2952.628)" fill="#fff"/>
                  </g>
                </g>
                <g id="Group_558" data-name="Group 558" transform="translate(46.235 19.856)">
                  <g id="Group_557" data-name="Group 557">
                    <path id="Path_1081" data-name="Path 1081" d="M-3697.529-2959.913c.006.161-.43.308-.974.328s-.99-.094-1-.255.431-.308.975-.329S-3697.535-2960.075-3697.529-2959.913Z" transform="translate(3699.5 2960.171)" fill="#fff"/>
                  </g>
                </g>
                <g id="Group_560" data-name="Group 560" transform="translate(53.088 9.681)">
                  <g id="Group_559" data-name="Group 559">
                    <path id="Path_1082" data-name="Path 1082" d="M-3685.021-2970.543c.067.018,0,.564-.459,1.3a6.225,6.225,0,0,1-2.523,2.17,11.374,11.374,0,0,1-3.152.956c-.826.132-1.342.156-1.359.079s.475-.249,1.267-.481a18.7,18.7,0,0,0,2.985-1.078,7.4,7.4,0,0,0,2.446-1.887C-3685.307-2970.1-3685.106-2970.574-3685.021-2970.543Z" transform="translate(3692.513 2970.544)" fill="#fff"/>
                  </g>
                </g>
                <g id="Group_564" data-name="Group 564" transform="translate(29.559 0.714)" opacity="0.2">
                  <g id="Group_561" data-name="Group 561" transform="translate(1.272 5.552)">
                    <path id="Path_1083" data-name="Path 1083" d="M-3713.963-2974.026q-.628.4-1.24.837Z" transform="translate(3715.203 2974.026)" fill="#fff"/>
                  </g>
                  <g id="Group_562" data-name="Group 562" transform="translate(2.512 5.539)">
                    <path id="Path_1084" data-name="Path 1084" d="M-3713.939-2974.026l0,0,.017-.011Z" transform="translate(3713.939 2974.039)" fill="#fff"/>
                  </g>
                  <g id="Group_563" data-name="Group 563">
                    <path id="Path_1085" data-name="Path 1085" d="M-3688.886-2978.417a7.294,7.294,0,0,0-4.127-1.2,35.07,35.07,0,0,0-20.972,5.485,7.21,7.21,0,0,0-2.17,1.961,2.029,2.029,0,0,0,.351,2.683c.894.626,2.118.182,3.091-.31,3.234-1.637,6.292-3.671,9.729-4.824s7.457-1.307,10.472.706c.966.644,1.941,1.533,3.1,1.41a2.707,2.707,0,0,0,2.067-2.9A4.092,4.092,0,0,0-3688.886-2978.417Z" transform="translate(3716.5 2979.686)" fill="#fff"/>
                  </g>
                </g>
                <g id="Group_566" data-name="Group 566" transform="translate(5.608 26.102)" opacity="0.2">
                  <g id="Group_565" data-name="Group 565">
                    <path id="Path_1086" data-name="Path 1086" d="M-3720.4-2952.267a1.584,1.584,0,0,0-.676-.183l-8.917-1.025c-2.764-.318-5.626-.627-8.281.205a2.979,2.979,0,0,0-2.638,2.622,2.328,2.328,0,0,0,2.38,2.185c1.122-.072,2-.945,2.911-1.6a8.754,8.754,0,0,1,6.458-1.514c2.557.421,5.01,1.987,7.554,1.5a2.14,2.14,0,0,0,1.38-.754A1.034,1.034,0,0,0-3720.4-2952.267Z" transform="translate(3740.916 2953.804)" fill="#fff"/>
                  </g>
                </g>
                <g id="Group_567" data-name="Group 567" transform="translate(65.953 17.134)">
                  <path id="Path_1087" data-name="Path 1087" d="M-3677.022-2961.891a1.768,1.768,0,0,0-1.448-1.055c-1.219.263-1,1.686-.676,2.319a1.178,1.178,0,0,0,1.624.4A1.413,1.413,0,0,0-3677.022-2961.891Z" transform="translate(3679.399 2962.946)" fill="#ff9a6c"/>
                </g>
                <g id="Group_568" data-name="Group 568" transform="translate(51.372 30.616)">
                  <path id="Path_1088" data-name="Path 1088" d="M-3692.9-2948.595a1.018,1.018,0,0,0-.833-.607c-.7.152-.574.97-.389,1.334a.678.678,0,0,0,.934.23A.811.811,0,0,0-3692.9-2948.595Z" transform="translate(3694.263 2949.202)" fill="#ff9a6c"/>
                </g>
                <g id="Group_569" data-name="Group 569" transform="translate(61.704 16.527)">
                  <path id="Path_1089" data-name="Path 1089" d="M-3682.363-2962.958a1.015,1.015,0,0,0-.832-.607c-.7.151-.574.97-.389,1.334a.679.679,0,0,0,.935.231A.813.813,0,0,0-3682.363-2962.958Z" transform="translate(3683.73 2963.565)" fill="#ff9a6c"/>
                </g>
              </g>
              <g id="Group_584" data-name="Group 584" transform="translate(3.96 37.195)">
                <g id="Group_571" data-name="Group 571" transform="translate(36.243 54.968)">
                  <path id="Path_1090" data-name="Path 1090" d="M-3705.649-2878.93s34.122,112.645,36.243,119.007,15.689,44.109,44.076,35.492c32.06-9.732,8.113-74.3,8.113-74.3l-13.434-48.9-21.542,7.078-17.379-53.75Z" transform="translate(3705.649 2894.307)" fill="#f9cfcc"/>
                </g>
                <g id="Group_581" data-name="Group 581">
                  <g id="Group_572" data-name="Group 572">
                    <path id="Path_1091" data-name="Path 1091" d="M-3742.6-2934.075s4.7,24.4,7.416,28.1,17.5,18.486,17.5,18.486l16.021,10.6,31.549-17.992-5.666-25.14-7.046-29.7-8.119,6.285.866,9.12s-11.853-19.719-16.278-15.4,3.462,13.187,5.926,20.581.493,11.337.493,11.337-1.972.492-4.683-4.19c-1.963-3.389-9.22-18.823-15.416-24.178a3.64,3.64,0,0,0-6.036,2.976l.254,3.7,9.612,24.153,3.451,5.9-9.216-6.882s-4.185-12.493-8.553-19.441a6.2,6.2,0,0,0-8.436-2.052h0l2.05,8.184S-3736.95-2934.321-3742.6-2934.075Z" transform="translate(3742.596 2950.343)" fill="#f9cfcc"/>
                  </g>
                  <g id="Group_574" data-name="Group 574" transform="translate(5.235 18.911)">
                    <g id="Group_573" data-name="Group 573">
                      <path id="Path_1092" data-name="Path 1092" d="M-3717.671-2895.965a6.534,6.534,0,0,1-1.469-.786c-.911-.566-2.178-1.462-3.7-2.611s-3.313-2.53-5.372-4.026a9.7,9.7,0,0,1-2.574-3.121,9.869,9.869,0,0,1-.772-2q-.287-1.027-.582-2.083c-1.495-5.646-2.582-10.806-3.538-14.5-.468-1.849-.877-3.336-1.165-4.363a9.617,9.617,0,0,1-.407-1.61,8.579,8.579,0,0,1,.624,1.541c.356,1.009.827,2.485,1.348,4.325,1.061,3.675,2.214,8.83,3.7,14.452a21.821,21.821,0,0,0,1.3,3.976,9.291,9.291,0,0,0,2.4,2.964c2.009,1.494,3.8,2.934,5.287,4.118s2.712,2.13,3.578,2.75A14.872,14.872,0,0,1-3717.671-2895.965Z" transform="translate(3737.259 2931.065)" stroke="#000" stroke-linecap="round" stroke-linejoin="round" stroke-width="0.5"/>
                    </g>
                  </g>
                  <g id="Group_576" data-name="Group 576" transform="translate(30.778 42.912)">
                    <g id="Group_575" data-name="Group 575">
                      <path id="Path_1093" data-name="Path 1093" d="M-3703.031-2902.326c0,.071-.542.179-1.43.116a8.792,8.792,0,0,1-3.325-.973,8.787,8.787,0,0,1-2.7-2.171c-.561-.693-.783-1.2-.723-1.239.141-.112,1.371,1.706,3.693,2.892C-3705.217-2902.475-3703.021-2902.505-3703.031-2902.326Z" transform="translate(3711.22 2906.597)" stroke="#000" stroke-linecap="round" stroke-linejoin="round" stroke-width="0.5"/>
                    </g>
                  </g>
                  <g id="Group_578" data-name="Group 578" transform="translate(46.604 32.003)">
                    <g id="Group_577" data-name="Group 577">
                      <path id="Path_1094" data-name="Path 1094" d="M-3687.937-2915.707a12.012,12.012,0,0,1-3.652-.7,12.01,12.01,0,0,1-3.5-1.267,12.043,12.043,0,0,1,3.652.7A12.03,12.03,0,0,1-3687.937-2915.707Z" transform="translate(3695.086 2917.718)" stroke="#000" stroke-miterlimit="10" stroke-width="0.5"/>
                    </g>
                  </g>
                  <g id="Group_580" data-name="Group 580" transform="translate(52.512 16.021)">
                    <g id="Group_579" data-name="Group 579">
                      <path id="Path_1095" data-name="Path 1095" d="M-3681.974-2917a8.666,8.666,0,0,1-1.412-2.323,54.858,54.858,0,0,1-2.405-6.084c-.829-2.409-1.586-4.577-2.23-6.107a22.416,22.416,0,0,1-1.035-2.492,8.666,8.666,0,0,1,1.412,2.323,54.938,54.938,0,0,1,2.405,6.085c.829,2.409,1.586,4.576,2.229,6.106A22.523,22.523,0,0,1-3681.974-2917Z" transform="translate(3689.063 2934.011)"/>
                    </g>
                  </g>
                </g>
                <g id="Group_583" data-name="Group 583" transform="translate(89.696 108.719)">
                  <g id="Group_582" data-name="Group 582">
                    <path id="Path_1096" data-name="Path 1096" d="M-3614.328-2748.735a.882.882,0,0,1,.046-.259c.052-.2.115-.442.192-.739a27.566,27.566,0,0,0,.7-2.842,30.473,30.473,0,0,0,.3-10.677c-.569-4.509-2.351-9.658-4.566-15.248-1.1-2.8-2.295-5.735-3.428-8.82-.54-1.559-1.144-3.1-1.774-4.656-.715-1.521-1.433-3.074-2.31-4.569a190.3,190.3,0,0,0-10.814-16.311c-3.493-4.912-6.6-9.378-8.958-13.289a67.49,67.49,0,0,1-4.951-9.609c-.508-1.171-.745-2.145-.973-2.775-.09-.292-.164-.532-.225-.73a.852.852,0,0,1-.058-.254.851.851,0,0,1,.115.236c.076.193.168.426.28.711.263.617.533,1.571,1.071,2.724a73.713,73.713,0,0,0,5.093,9.48c2.4,3.869,5.527,8.3,9.044,13.194,1.754,2.45,3.606,5.018,5.46,7.729s3.738,5.55,5.426,8.61c.884,1.5,1.611,3.078,2.333,4.62.643,1.585,1.25,3.151,1.78,4.692,1.122,3.075,2.3,6.009,3.392,8.82,2.19,5.608,3.95,10.819,4.474,15.389a29.575,29.575,0,0,1-.483,10.781,22.157,22.157,0,0,1-.806,2.829l-.247.723A.868.868,0,0,1-3614.328-2748.735Z" transform="translate(3651.157 2839.512)" fill="#8c5949"/>
                  </g>
                </g>
              </g>
              <g id="Group_586" data-name="Group 586" transform="translate(3.698 36.939)">
                <g id="Group_585" data-name="Group 585">
                  <path id="Path_1097" data-name="Path 1097" d="M-3717.685-2887.5s-.245-.215-.7-.657l-2.006-1.98c-1.754-1.75-4.338-4.337-7.612-7.729-1.633-1.7-3.449-3.589-5.369-5.727a14.021,14.021,0,0,1-2.655-3.646,40.8,40.8,0,0,1-1.609-4.6c-1.867-6.452-3.514-13.917-5.177-22.208l-.049-.245.252-.012a6.459,6.459,0,0,1,3.9.919,4.843,4.843,0,0,1,2.028,3.731l-.451.058-2.062-8.181-.043-.172.153-.093a8.922,8.922,0,0,1,1.63-.844,5.659,5.659,0,0,1,1.859-.328,5.69,5.69,0,0,1,3.594,1.219,5.856,5.856,0,0,1,1.286,1.467c.341.538.7,1.068,1.013,1.631.654,1.106,1.261,2.253,1.838,3.427a132.763,132.763,0,0,1,6.147,15.042l-.094-.131,9.221,6.875-.406.363c-1.077-1.837-2.26-3.856-3.454-5.895l-.011-.018-.008-.021-7.783-19.535a27.15,27.15,0,0,1-1.7-5.22,21.946,21.946,0,0,1-.381-2.756,4.027,4.027,0,0,1,.76-2.8,4.115,4.115,0,0,1,2.455-1.583,3.938,3.938,0,0,1,2.9.492c.215.13.4.3.6.448l.506.5c.336.335.688.656.989,1.021.64.7,1.236,1.433,1.812,2.185a102.345,102.345,0,0,1,8.052,13.027l3.5,6.618a16.888,16.888,0,0,0,2,3.025,6.809,6.809,0,0,0,1.286,1.2,2.475,2.475,0,0,0,1.463.532l-.187.15a14.4,14.4,0,0,0,.406-7.564,26.54,26.54,0,0,0-2.439-7.2c-1.106-2.274-2.357-4.456-3.471-6.69a31.826,31.826,0,0,1-1.5-3.421,10.8,10.8,0,0,1-.743-3.663,4.721,4.721,0,0,1,1.4-3.45,2.46,2.46,0,0,1,1.827-.675,4.258,4.258,0,0,1,1.8.545,20.89,20.89,0,0,1,5.272,4.692,88.2,88.2,0,0,1,7.779,10.91l-.455.15c-.294-3.141-.579-6.172-.855-9.121l-.013-.129.1-.08,8.129-6.273.27-.209.078.332c3.962,16.884,7.248,30.569,9.289,40.093,1.043,4.744,1.854,8.435,2.41,10.962q.4,1.864.612,2.858c.135.646.188.979.188.979s-.1-.324-.251-.964q-.234-.989-.673-2.845l-2.525-10.934c-2.112-9.508-5.463-23.177-9.477-40.047l.348.124-8.11,6.3.09-.207c.283,2.948.576,5.979.878,9.118l.1,1.046-.557-.9a87.96,87.96,0,0,0-7.75-10.824,20.489,20.489,0,0,0-5.123-4.558,2.5,2.5,0,0,0-3.006.042,4.173,4.173,0,0,0-1.235,3.069,10.29,10.29,0,0,0,.717,3.475,31.208,31.208,0,0,0,1.482,3.359c1.107,2.213,2.361,4.4,3.481,6.692a27.113,27.113,0,0,1,2.495,7.342,14.834,14.834,0,0,1-.452,7.919l-.054.137-.133.014a2.845,2.845,0,0,1-1.93-.616,7.347,7.347,0,0,1-1.394-1.3,17.483,17.483,0,0,1-2.078-3.126l-3.5-6.619a102.215,102.215,0,0,0-8-12.947,22.026,22.026,0,0,0-3.755-4.01,3.473,3.473,0,0,0-4.574.94c-1.108,1.387-.542,3.353-.279,5.1a26.628,26.628,0,0,0,1.668,5.121l7.768,19.541-.018-.038,3.448,5.9.692,1.184-1.1-.821-9.212-6.888-.067-.05-.028-.081a132.716,132.716,0,0,0-6.095-14.986c-.571-1.167-1.171-2.305-1.815-3.4a11.014,11.014,0,0,0-2.174-2.965,5.2,5.2,0,0,0-3.278-1.119,5.187,5.187,0,0,0-1.7.3,8.486,8.486,0,0,0-1.545.8l.109-.264c.712,2.859,1.408,5.65,2.04,8.186l-.451.058a4.4,4.4,0,0,0-1.821-3.368,6.03,6.03,0,0,0-3.631-.854l.2-.257c1.634,8.283,3.253,15.755,5.082,22.193a40.653,40.653,0,0,0,1.571,4.562,13.764,13.764,0,0,0,2.584,3.582c1.9,2.143,3.7,4.045,5.322,5.756l7.527,7.806q1.28,1.322,1.962,2.023C-3717.9-2887.741-3717.685-2887.5-3717.685-2887.5Z" transform="translate(3742.863 2950.604)" stroke="#000" stroke-linecap="round" stroke-linejoin="round" stroke-width="0.5"/>
                </g>
              </g>
              <g id="Group_587" data-name="Group 587" transform="translate(37.908)">
                <path id="Path_1098" data-name="Path 1098" d="M-3699.6-2978.766a7.122,7.122,0,0,1-3.6-4.149l-.891-5.345-.491,5.564a7.98,7.98,0,0,1-3.4,4.441,7.127,7.127,0,0,1,3.663,4.331l.583,4.357.881-4.6a7.12,7.12,0,0,1,3.232-4.355l.236-.141Z" transform="translate(3707.989 2988.261)" fill="#fff"/>
              </g>
            </g>
          </g>
        </g>
      </g>
      <path id="Path_1100" data-name="Path 1100" d="M-3580.382-2869.578a131.449,131.449,0,0,1-131.456,131.446,130.857,130.857,0,0,1-85.577-31.684l185.348-185.338A130.857,130.857,0,0,1-3580.382-2869.578Z" transform="translate(-27.661 92.179)" fill="#c9d6e8"/>
      <line id="Line_55" data-name="Line 55" y1="7.678" x2="7.678" transform="translate(-3665.85 -2878.532)" fill="none" stroke="#0d0d0c" stroke-linecap="round" stroke-linejoin="round" stroke-width="3"/>
      <path id="Path_1101" data-name="Path 1101" d="M-3612.067-2955.155a130.857,130.857,0,0,1,31.685,85.577,131.449,131.449,0,0,1-131.456,131.446,130.857,130.857,0,0,1-85.577-31.684l145.756-145.748" transform="translate(-27.661 92.179)" fill="none" stroke="#0d0d0c" stroke-linecap="round" stroke-linejoin="round" stroke-width="3"/>
      <g id="Group_594" data-name="Group 594" transform="translate(-3764.871 -2802.775)">
        <path id="Path_1102" data-name="Path 1102" d="M-3700.657-2801.219c-20.871-.212-27.059.585-33.844,7.371a5.248,5.248,0,0,0,0,7.424,5.247,5.247,0,0,0,7.424,0c3.9-3.9,7.953-4.481,26.564-4.292C-3700.551-2794.381-3700.6-2797.675-3700.657-2801.219Z" transform="translate(3736.039 2892.021)" fill="#fff"/>
        <path id="Path_1103" data-name="Path 1103" d="M-3700.072-2801.209c-1.833-.018-3.67-.036-5.291-.035l.009.512c.059,3.79.1,7.064.133,9.987,1.613,0,3.4.013,5.293.031C-3699.967-2794.513-3700.018-2797.583-3700.072-2801.209Z" transform="translate(3735.454 2892.021)"/>
        <path id="Path_1104" data-name="Path 1104" d="M-3734.5-2793.7a5.224,5.224,0,0,0-1.507,3.138" transform="translate(3736.039 2891.877)" fill="none" stroke="#000" stroke-linecap="round" stroke-linejoin="round" stroke-width="1"/>
        <path id="Path_1105" data-name="Path 1105" d="M-3734.471-2786.424a5.247,5.247,0,0,0,7.424,0c3.9-3.9,7.953-4.481,26.564-4.292-.037-3.666-.09-6.96-.144-10.5-15.279-.155-22.69.231-28.226,3.112" transform="translate(3736.01 2892.021)" fill="none" stroke="#000" stroke-linecap="round" stroke-linejoin="round" stroke-width="2"/>
        <path id="Path_1106" data-name="Path 1106" d="M-3689.118-2790.568l5.212.079c-.03-3.179-.084-6.661-.144-10.5l-5.214-.079C-3689.21-2797.466-3689.156-2794.359-3689.118-2790.568Z" transform="translate(3735.147 2892.018)" fill="#264c78"/>
        <g id="Group_592" data-name="Group 592" transform="translate(29.696 29.696)">
          <path id="Path_1107" data-name="Path 1107" d="M-3632.628-2847.176c18.359.17,27.131-.653,33.851-7.373a5.25,5.25,0,0,0,0-7.425,5.25,5.25,0,0,0-7.425,0c-3.831,3.832-9.772,4.449-26.572,4.294Q-3632.732-2853.027-3632.628-2847.176Z" transform="translate(3704.375 2863.512)" fill="#fff"/>
          <path id="Path_1108" data-name="Path 1108" d="M-3632.628-2847.176c18.359.17,27.131-.653,33.851-7.373a5.25,5.25,0,0,0,0-7.425,5.25,5.25,0,0,0-7.425,0c-3.831,3.832-9.772,4.449-26.572,4.294Q-3632.732-2853.027-3632.628-2847.176Z" transform="translate(3704.375 2863.512)" fill="none" stroke="#000" stroke-linecap="round" stroke-linejoin="round" stroke-width="2"/>
          <path id="Path_1109" data-name="Path 1109" d="M-3681.868-2839.479c8.965-8.965,25.1-7.927,37.339-7.736-.067-3.82-.124-7.313-.151-10.5-13-.206-32.354-1.446-44.61,10.81-21.214,21.214-3.027,69.764-14.938,81.675a5.249,5.249,0,0,0,0,7.425,5.25,5.25,0,0,0,7.425,0C-3679.969-2774.641-3699.259-2822.089-3681.868-2839.479Z" transform="translate(3705.766 2863.404)" fill="#fff"/>
          <path id="Path_1110" data-name="Path 1110" d="M-3700.195-2810.693q-.019.94-.024,1.883" transform="translate(3705.66 2862.505)" fill="none" stroke="#000" stroke-linecap="round" stroke-linejoin="round" stroke-width="2"/>
          <path id="Path_1111" data-name="Path 1111" d="M-3689-2782.6c.561-20.336-4.148-45.289,7.445-56.883,8.965-8.965,25.1-7.927,37.339-7.736-.067-3.82-.124-7.313-.151-10.5-13-.206-32.354-1.446-44.61,10.81" transform="translate(3705.455 2863.404)" fill="none" stroke="#000" stroke-linecap="round" stroke-linejoin="round" stroke-width="2"/>
          <path id="Path_1112" data-name="Path 1112" d="M-3700.328-2807.011c.05,18.244,2.71,36.14-3.9,42.75a5.249,5.249,0,0,0,0,7.425,5.25,5.25,0,0,0,7.425,0" transform="translate(3705.766 2862.435)" fill="none" stroke="#000" stroke-linecap="round" stroke-linejoin="round" stroke-width="2"/>
        </g>
        <path id="Path_1113" data-name="Path 1113" d="M-3632.758-2866.571l13.488,13.487a5.247,5.247,0,0,0,7.424,0,5.248,5.248,0,0,0,0-7.424l-19.412-19.411C-3632.239-2876.97-3632.644-2872.852-3632.758-2866.571Z" transform="translate(3734.071 2893.521)" fill="#edde1d"/>
        <path id="Path_1114" data-name="Path 1114" d="M-3624-2872.657l-7.263-7.262c-.981,2.948-1.386,7.066-1.5,13.347l13.488,13.487a5.247,5.247,0,0,0,7.424,0,5.248,5.248,0,0,0,0-7.424l-4.01-4.01" transform="translate(3734.071 2893.521)" fill="none" stroke="#000" stroke-linecap="round" stroke-linejoin="round" stroke-width="2"/>
        <path id="Path_1115" data-name="Path 1115" d="M-3647.069-2816.752a40.143,40.143,0,0,0,2.849-11.684l-22.015-22.015a5.248,5.248,0,0,0-7.425,0,5.249,5.249,0,0,0,0,7.424l25.652,25.65A4.984,4.984,0,0,0-3647.069-2816.752Z" transform="translate(3734.879 2892.989)" fill="#155aa7"/>
        <path id="Path_1116" data-name="Path 1116" d="M-3659.455-2828.821l11.446,11.445a4.984,4.984,0,0,0,.94.625,40.143,40.143,0,0,0,2.849-11.684l-22.015-22.015a5.248,5.248,0,0,0-7.425,0,5.249,5.249,0,0,0,0,7.424l5.717,5.716" transform="translate(3734.879 2892.989)" fill="none" stroke="#000" stroke-linecap="round" stroke-linejoin="round" stroke-width="2"/>
        <path id="Path_1117" data-name="Path 1117" d="M-3662.3-2831.522l1.781,1.781" transform="translate(3734.634 2892.598)" fill="none" stroke="#000" stroke-linecap="round" stroke-linejoin="round" stroke-width="2"/>
        <g id="Group_593" data-name="Group 593" transform="translate(85.55 35.301)">
          <path id="Path_1118" data-name="Path 1118" d="M-3632.629-2847.072c1.808.015,3.618.031,5.256.022l-.014-.933c-.062-3.6-.1-6.693-.125-9.561-1.6.006-3.418-.011-5.26-.027Q-3632.732-2852.919-3632.629-2847.072Z" transform="translate(3648.521 2857.793)"/>
          <path id="Path_1119" data-name="Path 1119" d="M-3643.594-2857.714l-5.232-.083c.026,3.149.075,6.484.136,10.16l.006.343,5.241.081C-3643.511-2851.033-3643.567-2854.526-3643.594-2857.714Z" transform="translate(3648.827 2857.798)"/>
        </g>
        <path id="Path_1120" data-name="Path 1120" d="M-3633.568-2839.407c-.5-31.894-1.01-40.388,4.018-45.416a5.248,5.248,0,0,0,0-7.424,5.247,5.247,0,0,0-7.424,0c-8.59,8.589-7.6,20.326-7.093,52.986.194,14.023-2.305,23.15-7.87,28.714-8.922,8.922-25.01,7.9-37.327,7.711.054,3.6.108,6.71.146,10.5,13.056.2,32.383,1.434,44.607-10.79C-3636.809-2810.827-3633.333-2822.358-3633.568-2839.407Z" transform="translate(3735.147 2893.785)" fill="#fff"/>
        <path id="Path_1121" data-name="Path 1121" d="M-3689.262-2801.069s.107,6.9.144,10.5l14.376.095c-.031-3.175-.083-6.654-.143-10.489C-3676.671-2800.991-3687.587-2801.044-3689.262-2801.069Z" transform="translate(3735.147 2892.018)"/>
        <path id="Path_1122" data-name="Path 1122" d="M-3635.095-2816.147q.6-1.97,1.064-4.113" transform="translate(3734.115 2892.383)" fill="none" stroke="#000" stroke-linecap="round" stroke-linejoin="round" stroke-width="2"/>
        <path id="Path_1123" data-name="Path 1123" d="M-3633.568-2839.407c-.5-31.894-1.01-40.388,4.018-45.416a5.248,5.248,0,0,0,0-7.424,5.247,5.247,0,0,0-7.424,0c-8.59,8.589-7.6,20.326-7.093,52.986.194,14.023-2.305,23.15-7.87,28.714-8.922,8.922-25.01,7.9-37.327,7.711.054,3.6.108,6.71.146,10.5,13.056.2,32.383,1.434,44.607-10.79a32.719,32.719,0,0,0,7.3-11.316" transform="translate(3735.147 2893.785)" fill="none" stroke="#000" stroke-linecap="round" stroke-linejoin="round" stroke-width="2"/>
        <path id="Path_1124" data-name="Path 1124" d="M-3688.94-2820.551c2.65,2.651,20.1,20.1,22.626,22.627a5.249,5.249,0,0,0,7.425,0,5.249,5.249,0,0,0,0-7.424l-27.057-27.058A39.253,39.253,0,0,0-3688.94-2820.551Z" transform="translate(3735.141 2892.615)" fill="#ed759d"/>
        <path id="Path_1125" data-name="Path 1125" d="M-3685.946-2832.406a39.253,39.253,0,0,0-2.994,11.855c2.65,2.651,20.1,20.1,22.626,22.627a5.249,5.249,0,0,0,7.425,0,5.249,5.249,0,0,0,0-7.424l-7.837-7.837" transform="translate(3735.141 2892.615)" fill="none" stroke="#000" stroke-linecap="round" stroke-linejoin="round" stroke-width="2"/>
      </g>
      <g id="Group_814" data-name="Group 814" transform="translate(-3870.945 -2908.845)">
        <path id="Path_1203" data-name="Path 1203" d="M-3678.851-2997.425a131.006,131.006,0,0,1,51.709,27.28L-3772.9-2824.4l-39.593,39.591a130.858,130.858,0,0,1-31.684-85.577,130.821,130.821,0,0,1,18.414-67.133" transform="translate(3844.175 3001.829)" fill="none" stroke="#0d0d0c" stroke-linecap="round" stroke-linejoin="round" stroke-width="3"/>
        <path id="Path_1204" data-name="Path 1204" d="M-3710.165-3001.915a132.35,132.35,0,0,1,21.164,1.7" transform="translate(3841.62 3001.915)" fill="none" stroke="#0d0d0c" stroke-linecap="round" stroke-linejoin="round" stroke-width="3"/>
      </g>
    </g>
  </g>
</svg>
