<svg xmlns="http://www.w3.org/2000/svg" xmlns:xlink="http://www.w3.org/1999/xlink" width="320" height="320" viewBox="0 0 320 320">
  <defs>
    <clipPath id="clip-path">
      <rect id="Rectangle_171" data-name="Rectangle 171" width="320" height="320" transform="translate(800 341)" fill="none" stroke="#707070" stroke-width="1"/>
    </clipPath>
  </defs>
  <g id="Mask_Group_1" data-name="Mask Group 1" transform="translate(-800 -341)" clip-path="url(#clip-path)">
    <g id="DNA" transform="translate(5249.591 3278.521)">
      <g id="Group_368" data-name="Group 368" transform="translate(-4445.4 -2933.208)">
        <g id="Group_367" data-name="Group 367">
          <circle id="Ellipse_56" data-name="Ellipse 56" cx="155.808" cy="155.808" r="155.808" transform="translate(0 0)" fill="#fff"/>
          <circle id="Ellipse_57" data-name="Ellipse 57" cx="131.449" cy="131.449" r="131.449" transform="translate(24.36 24.359)" fill="#c9d6e8"/>
          <path id="Path_995" data-name="Path 995" d="M-4380.525-2945.358q1.438-2.031,2.949-4" transform="translate(4428.854 3025.277)" fill="none" stroke="#0d0d0c" stroke-linecap="round" stroke-linejoin="round" stroke-width="3"/>
          <path id="Path_996" data-name="Path 996" d="M-4366.118-2963.91a131.091,131.091,0,0,1,92.542-38.071,131.511,131.511,0,0,1,131.512,131.51,131.511,131.511,0,0,1-131.511,131.511,131.511,131.511,0,0,1-131.511-131.511,130.9,130.9,0,0,1,18.9-67.97" transform="translate(4429.322 3026.28)" fill="none" stroke="#0d0d0c" stroke-linecap="round" stroke-linejoin="round" stroke-width="3"/>
          <path id="Path_997" data-name="Path 997" d="M-4273.984-2715.135a155.808,155.808,0,0,1-155.808-155.808,155.809,155.809,0,0,1,155.808-155.808,155.809,155.809,0,0,1,155.809,155.808,155.818,155.818,0,0,1-87.619,140.134" transform="translate(4429.792 3026.752)" fill="none" stroke="#0d0d0c" stroke-linecap="round" stroke-linejoin="round" stroke-width="3"/>
        </g>
      </g>
      <g id="Group_373" data-name="Group 373" transform="translate(-4380.978 -2869.815)">
        <path id="Path_1000" data-name="Path 1000" d="M-4316.325-2837.09c-28.192-.285-36.553.792-45.717,9.957a7.089,7.089,0,0,0,0,10.028,7.088,7.088,0,0,0,10.028,0c5.271-5.271,10.744-6.052,35.882-5.8C-4316.181-2827.853-4316.252-2832.3-4316.325-2837.09Z" transform="translate(4364.119 2959.745)" fill="#fff"/>
        <path id="Path_1001" data-name="Path 1001" d="M-4315.535-2837.076c-2.475-.024-4.956-.048-7.146-.047l.011.691c.08,5.12.141,9.544.18,13.491,2.177,0,4.592.018,7.149.043C-4315.393-2828.031-4315.461-2832.178-4315.535-2837.076Z" transform="translate(4363.329 2959.745)"/>
        <path id="Path_1002" data-name="Path 1002" d="M-4362.041-2826.939a7.069,7.069,0,0,0-2.036,4.24" transform="translate(4364.118 2959.551)" fill="none" stroke="#000" stroke-linecap="round" stroke-linejoin="round" stroke-width="2"/>
        <path id="Path_1003" data-name="Path 1003" d="M-4362-2817.1a7.088,7.088,0,0,0,10.028,0c5.271-5.271,10.744-6.052,35.882-5.8-.05-4.952-.121-9.4-.194-14.188-20.64-.209-30.65.313-38.128,4.2" transform="translate(4364.079 2959.745)" fill="none" stroke="#000" stroke-linecap="round" stroke-linejoin="round" stroke-width="2"/>
        <path id="Path_1004" data-name="Path 1004" d="M-4300.739-2822.7l7.04.107c-.041-4.293-.112-9-.194-14.185l-7.043-.106C-4300.862-2832.021-4300.79-2827.824-4300.739-2822.7Z" transform="translate(4362.915 2959.74)" fill="#264c78"/>
        <g id="Group_371" data-name="Group 371" transform="translate(40.114 40.114)">
          <path id="Path_1005" data-name="Path 1005" d="M-4224.432-2899.169c24.8.231,36.648-.882,45.726-9.959a7.089,7.089,0,0,0,0-10.028,7.089,7.089,0,0,0-10.028,0c-5.175,5.175-13.2,6.008-35.894,5.8Q-4224.572-2907.072-4224.432-2899.169Z" transform="translate(4321.347 2921.234)" fill="#fff"/>
          <path id="Path_1006" data-name="Path 1006" d="M-4224.432-2899.169c24.8.231,36.648-.882,45.726-9.959a7.089,7.089,0,0,0,0-10.028,7.089,7.089,0,0,0-10.028,0c-5.175,5.175-13.2,6.008-35.894,5.8Q-4224.572-2907.072-4224.432-2899.169Z" transform="translate(4321.347 2921.234)" fill="none" stroke="#000" stroke-linecap="round" stroke-linejoin="round" stroke-width="2"/>
          <path id="Path_1007" data-name="Path 1007" d="M-4290.945-2888.771c12.108-12.109,33.908-10.707,50.438-10.448-.092-5.162-.167-9.88-.2-14.187-17.562-.278-43.7-1.952-60.26,14.6-28.655,28.655-4.089,94.237-20.177,110.326a7.089,7.089,0,0,0,0,10.028,7.09,7.09,0,0,0,10.029,0C-4288.38-2801.187-4314.436-2865.281-4290.945-2888.771Z" transform="translate(4323.226 2921.089)" fill="#fff"/>
          <path id="Path_1008" data-name="Path 1008" d="M-4315.7-2849.888q-.023,1.271-.032,2.543" transform="translate(4323.083 2919.875)" fill="none" stroke="#000" stroke-linecap="round" stroke-linejoin="round" stroke-width="2"/>
          <path id="Path_1009" data-name="Path 1009" d="M-4300.583-2811.935c.757-27.468-5.6-61.175,10.058-76.836,12.108-12.109,33.908-10.707,50.438-10.448-.092-5.162-.167-9.88-.2-14.187-17.562-.278-43.7-1.952-60.26,14.6" transform="translate(4322.807 2921.089)" fill="none" stroke="#000" stroke-linecap="round" stroke-linejoin="round" stroke-width="2"/>
          <path id="Path_1010" data-name="Path 1010" d="M-4315.88-2844.914c.068,24.645,3.661,48.817-5.268,57.747a7.089,7.089,0,0,0,0,10.028,7.09,7.09,0,0,0,10.029,0" transform="translate(4323.226 2919.779)" fill="none" stroke="#000" stroke-linecap="round" stroke-linejoin="round" stroke-width="2"/>
        </g>
        <path id="Path_1011" data-name="Path 1011" d="M-4224.606-2925.367l18.218,18.219a7.09,7.09,0,0,0,10.029,0,7.089,7.089,0,0,0,0-10.028l-26.221-26.221C-4223.906-2939.413-4224.454-2933.851-4224.606-2925.367Z" transform="translate(4361.459 2961.77)" fill="#edde1d"/>
        <path id="Path_1012" data-name="Path 1012" d="M-4212.771-2933.587l-9.811-9.81c-1.325,3.985-1.873,9.546-2.025,18.031l18.218,18.219a7.09,7.09,0,0,0,10.029,0,7.089,7.089,0,0,0,0-10.028l-5.417-5.417" transform="translate(4361.459 2961.77)" fill="none" stroke="#000" stroke-linecap="round" stroke-linejoin="round" stroke-width="2"/>
        <path id="Path_1013" data-name="Path 1013" d="M-4243.939-2858.071a54.245,54.245,0,0,0,3.849-15.782c-9.185-9.184-18.429-18.43-29.739-29.739a7.089,7.089,0,0,0-10.028,0,7.09,7.09,0,0,0,0,10.029l34.649,34.648A6.829,6.829,0,0,0-4243.939-2858.071Z" transform="translate(4362.552 2961.051)" fill="#155aa7"/>
        <path id="Path_1014" data-name="Path 1014" d="M-4260.669-2874.375l15.46,15.461a6.829,6.829,0,0,0,1.269.844,54.245,54.245,0,0,0,3.849-15.782c-9.185-9.184-18.429-18.43-29.739-29.739a7.089,7.089,0,0,0-10.028,0,7.09,7.09,0,0,0,0,10.029l7.722,7.721" transform="translate(4362.552 2961.051)" fill="none" stroke="#000" stroke-linecap="round" stroke-linejoin="round" stroke-width="2"/>
        <path id="Path_1015" data-name="Path 1015" d="M-4264.511-2878.022l2.406,2.405" transform="translate(4362.221 2960.524)" fill="none" stroke="#000" stroke-linecap="round" stroke-linejoin="round" stroke-width="2"/>
        <g id="Group_372" data-name="Group 372" transform="translate(115.561 47.686)">
          <path id="Path_1016" data-name="Path 1016" d="M-4224.433-2899.027c2.442.02,4.886.041,7.1.031l-.02-1.26c-.083-4.87-.136-9.041-.168-12.915-2.156.007-4.617-.015-7.106-.036Q-4224.572-2906.925-4224.433-2899.027Z" transform="translate(4245.899 2913.509)"/>
          <path id="Path_1017" data-name="Path 1017" d="M-4239.245-2913.4l-7.068-.111c.036,4.252.1,8.757.185,13.722l.007.464,7.08.11C-4239.133-2904.379-4239.208-2909.1-4239.245-2913.4Z" transform="translate(4246.313 2913.515)"/>
        </g>
        <path id="Path_1018" data-name="Path 1018" d="M-4225.7-2888.673c-.681-43.082-1.364-54.555,5.429-61.348a7.089,7.089,0,0,0,0-10.028,7.088,7.088,0,0,0-10.028,0c-11.6,11.6-10.271,27.455-9.58,71.572.261,18.943-3.115,31.27-10.631,38.787-12.052,12.051-33.784,10.667-50.422,10.416.074,4.866.146,9.063.2,14.184,17.637.269,43.744,1.938,60.256-14.575C-4230.08-2850.067-4225.384-2865.644-4225.7-2888.673Z" transform="translate(4362.915 2962.127)" fill="#fff"/>
        <path id="Path_1019" data-name="Path 1019" d="M-4300.933-2836.887s.145,9.317.194,14.184l19.42.129c-.042-4.289-.113-8.988-.195-14.168C-4283.927-2836.782-4298.671-2836.854-4300.933-2836.887Z" transform="translate(4362.915 2959.74)"/>
        <path id="Path_1020" data-name="Path 1020" d="M-4227.765-2857.254q.817-2.662,1.439-5.556" transform="translate(4361.52 2960.234)" fill="none" stroke="#000" stroke-linecap="round" stroke-linejoin="round" stroke-width="2"/>
        <path id="Path_1021" data-name="Path 1021" d="M-4225.7-2888.673c-.681-43.082-1.364-54.555,5.429-61.348a7.089,7.089,0,0,0,0-10.028,7.088,7.088,0,0,0-10.028,0c-11.6,11.6-10.271,27.455-9.58,71.572.261,18.943-3.115,31.27-10.631,38.787-12.052,12.051-33.784,10.667-50.422,10.416.074,4.866.146,9.063.2,14.184,17.637.269,43.744,1.938,60.256-14.575a44.174,44.174,0,0,0,9.857-15.284" transform="translate(4362.915 2962.127)" fill="none" stroke="#000" stroke-linecap="round" stroke-linejoin="round" stroke-width="2"/>
        <path id="Path_1022" data-name="Path 1022" d="M-4300.5-2863.2l30.563,30.564a7.09,7.09,0,0,0,10.029,0,7.091,7.091,0,0,0,0-10.029l-36.549-36.549A53.015,53.015,0,0,0-4300.5-2863.2Z" transform="translate(4362.906 2960.547)" fill="#ed759d"/>
        <path id="Path_1023" data-name="Path 1023" d="M-4296.454-2879.216a53.015,53.015,0,0,0-4.043,16.014l30.563,30.564a7.09,7.09,0,0,0,10.029,0,7.091,7.091,0,0,0,0-10.029l-10.585-10.585" transform="translate(4362.906 2960.547)" fill="none" stroke="#000" stroke-linecap="round" stroke-linejoin="round" stroke-width="2"/>
      </g>
    </g>
  </g>
</svg>
