<svg xmlns="http://www.w3.org/2000/svg" xmlns:xlink="http://www.w3.org/1999/xlink" width="1378" height="760" viewBox="0 0 1378 760">
  <defs>
    <clipPath id="clip-path">
      <rect id="Rectangle_173" data-name="Rectangle 173" width="1378" height="760" transform="translate(272 84)" fill="#fff" stroke="#707070" stroke-width="1"/>
    </clipPath>
  </defs>
  <g id="Mask_Group_3" data-name="Mask Group 3" transform="translate(-272 -84)" clip-path="url(#clip-path)">
    <g id="Video_frame" data-name="Video frame" transform="translate(25.691 14.558)">
      <g id="Group_1541" data-name="Group 1541" transform="translate(235.309 62.442)">
        <path id="Rectangle_84" data-name="Rectangle 84" d="M13.166,0H1384.991a13.166,13.166,0,0,1,13.166,13.166v814.5a0,0,0,0,1,0,0H0a0,0,0,0,1,0,0V13.166A13.166,13.166,0,0,1,13.166,0Z" transform="translate(0 0)" fill="#fff"/>
        <g id="Group_1540" data-name="Group 1540" transform="translate(0 775.171)">
          <path id="Rectangle_85" data-name="Rectangle 85" d="M0,0H1398.158a0,0,0,0,1,0,0V138.442a13.166,13.166,0,0,1-13.166,13.166H13.166A13.166,13.166,0,0,1,0,138.442V0A0,0,0,0,1,0,0Z" transform="translate(0 0)" fill="#ed759d"/>
          <g id="Group_1526" data-name="Group 1526" transform="translate(83.993 32.711)">
            <path id="Path_3063" data-name="Path 3063" d="M383.664,930.014l-55.506-36.466c.071,54.977,0,28,0,72.932Z" transform="translate(-328.158 -893.548)" fill="#fff"/>
          </g>
          <g id="Group_1528" data-name="Group 1528" transform="translate(289.023 78.801)">
            <g id="Group_1527" data-name="Group 1527" transform="translate(0 0)">
              <path id="Path_3064" data-name="Path 3064" d="M560.213,955.063,538.578,940.85c.028,21.429,0,10.913,0,28.428Z" transform="translate(-538.578 -940.85)" fill="#fff"/>
            </g>
            <rect id="Rectangle_86" data-name="Rectangle 86" width="4.054" height="28.428" transform="translate(21.26)" fill="#fff"/>
          </g>
          <g id="Group_1530" data-name="Group 1530" transform="translate(198.901 78.801)">
            <g id="Group_1529" data-name="Group 1529" transform="translate(3.679 0)">
              <path id="Path_3065" data-name="Path 3065" d="M449.862,955.063,471.5,969.278c-.027-21.43,0-10.914,0-28.428Z" transform="translate(-449.862 -940.85)" fill="#fff"/>
            </g>
            <rect id="Rectangle_87" data-name="Rectangle 87" width="4.054" height="28.428" transform="translate(4.054 28.428) rotate(180)" fill="#fff"/>
          </g>
          <g id="Group_1532" data-name="Group 1532" transform="translate(182.317 24.775)">
            <rect id="Rectangle_88" data-name="Rectangle 88" width="1134.405" height="8.648" rx="4.324" transform="translate(15.406 11.111)" fill="#c95380"/>
            <g id="Group_1557" data-name="Group 1557" transform="translate(-325.472 -885.776)">
              <rect id="Rectangle_90" data-name="Rectangle 90" width="222.186" height="8.876" rx="4.438" transform="translate(340.879 896.806)" fill="#edde1d"/>
              <g id="Group_1556" data-name="Group 1556" transform="translate(-14.107)">
                <path id="Path_3180" data-name="Path 3180" d="M573.255,901.213a11.9,11.9,0,1,1-11.9-11.9A11.9,11.9,0,0,1,573.255,901.213Z" fill="#f49d29"/>
                <path id="Path_3181" data-name="Path 3181" d="M561.359,917.021a15.809,15.809,0,1,1,15.812-15.808A15.828,15.828,0,0,1,561.359,917.021Zm0-23.791a7.982,7.982,0,1,0,7.98,7.983A7.99,7.99,0,0,0,561.359,893.23Z" fill="#edde1d"/>
              </g>
            </g>
          </g>
          <g id="Group_1538" data-name="Group 1538" transform="translate(379.158 78.802)">
            <g id="Group_1534" data-name="Group 1534">
              <g id="Group_1533" data-name="Group 1533" transform="translate(3.517)">
                <path id="Path_3068" data-name="Path 3068" d="M648.467,940.85l-13.775,10.045v8.337l13.775,10.046C648.442,947.848,648.467,958.364,648.467,940.85Z" transform="translate(-634.692 -940.85)" fill="#fff"/>
              </g>
              <rect id="Rectangle_89" data-name="Rectangle 89" width="7.237" height="13.839" transform="translate(7.237 21.133) rotate(180)" fill="#fff"/>
            </g>
            <g id="Group_1537" data-name="Group 1537" transform="translate(21.346 0.34)">
              <g id="Group_1535" data-name="Group 1535" transform="translate(3.071)">
                <path id="Path_3069" data-name="Path 3069" d="M657.837,968.944a1.7,1.7,0,0,1-.661-3.257,11.443,11.443,0,0,0,3.663-2.468,11.566,11.566,0,0,0,2.47-3.665,11.514,11.514,0,0,0-2.47-12.627,11.57,11.57,0,0,0-3.665-2.471,1.695,1.695,0,1,1,1.324-3.12,14.919,14.919,0,0,1,0,27.475A1.678,1.678,0,0,1,657.837,968.944Z" transform="translate(-656.141 -941.199)" fill="#fff"/>
              </g>
              <g id="Group_1536" data-name="Group 1536" transform="translate(0 6.803)">
                <path id="Path_3070" data-name="Path 3070" d="M654.579,962.315a1.588,1.588,0,0,1-.62-3.051,4.37,4.37,0,0,0,1.384-.932,4.425,4.425,0,0,0,.934-1.385,4.37,4.37,0,0,0,.341-1.7,4.329,4.329,0,0,0-1.273-3.076,4.363,4.363,0,0,0-1.386-.937,1.588,1.588,0,0,1,1.237-2.925,7.534,7.534,0,0,1,0,13.876A1.593,1.593,0,0,1,654.579,962.315Z" transform="translate(-652.989 -948.181)" fill="#fff"/>
              </g>
            </g>
          </g>
          <g id="Group_1539" data-name="Group 1539" transform="translate(1297.56 75.732)">
            <path id="Path_3071" data-name="Path 3071" d="M1604.7,968.769h-8.168v4.084h12.252V960.6H1604.7Z" transform="translate(-1574.213 -938.286)" fill="#fff"/>
            <path id="Path_3072" data-name="Path 3072" d="M1577.71,960.6h-4.084v12.251h12.251v-4.084h-8.168Z" transform="translate(-1573.627 -938.286)" fill="#fff"/>
            <path id="Path_3073" data-name="Path 3073" d="M1573.627,949.951h4.084v-8.167h8.168V937.7h-12.251Z" transform="translate(-1573.627 -937.699)" fill="#fff"/>
            <path id="Path_3074" data-name="Path 3074" d="M1596.528,937.7v4.084h8.168v8.167h4.084V937.7Z" transform="translate(-1574.213 -937.699)" fill="#fff"/>
          </g>
          <path id="Path_3075" data-name="Path 3075" d="M1517.1,951.956a40.838,40.838,0,0,1,4.65-.633v7.2a41.267,41.267,0,0,1-4.65-.633l-2.272,5.484a41.222,41.222,0,0,1,3.737,2.84l-5.092,5.092a41.052,41.052,0,0,1-2.841-3.736l-5.484,2.271a41.115,41.115,0,0,1,.633,4.65h-7.2a41.116,41.116,0,0,1,.632-4.65l-5.483-2.271a41.253,41.253,0,0,1-2.841,3.736l-5.092-5.092a41.229,41.229,0,0,1,3.736-2.84l-2.271-5.484a41.321,41.321,0,0,1-4.65.633v-7.2a40.89,40.89,0,0,1,4.65.633l2.271-5.484a41.206,41.206,0,0,1-3.736-2.84l5.092-5.092a41.108,41.108,0,0,1,2.841,3.736L1499.21,940a41.133,41.133,0,0,1-.632-4.651h7.2a41.132,41.132,0,0,1-.633,4.651l5.484,2.271a40.908,40.908,0,0,1,2.841-3.736l5.092,5.092a41.2,41.2,0,0,1-3.737,2.84Zm-14.92-5.731a8.7,8.7,0,1,0,8.7,8.7A8.7,8.7,0,0,0,1502.178,946.224Z" transform="translate(-273.735 -861.907)" fill="#fff"/>
        </g>
        <path id="Path_3076" data-name="Path 3076" d="M1627.286,64.429H254.787a12.83,12.83,0,0,0-12.83,12.83v901.12a12.83,12.83,0,0,0,12.83,12.83h1372.5a12.83,12.83,0,0,0,12.83-12.83V77.259A12.83,12.83,0,0,0,1627.286,64.429Z" transform="translate(-241.957 -64.429)" fill="none" stroke="#0d0d0c" stroke-linecap="round" stroke-linejoin="round" stroke-width="2"/>
      </g>
      <g id="Group_1544" data-name="Group 1544" transform="translate(259.257 106.766)">
        <path id="Path_3077" data-name="Path 3077" d="M769.075,549.886H315.6L506.259,531.7s-111.351,17.317-144.532-78.2C326.9,353.259,445.18,288.058,506.259,299.181s210.09,91.467,351.917-66.4,370.284-144.42,521.293-66.843c167,85.794,231.6,306.173,16.014,365.763L1576.136,543Z" transform="translate(-267.791 -109.917)" fill="#c9d6e8"/>
        <path id="Path_3078" data-name="Path 3078" d="M581.844,120.273c-103.6,11.981-119.606,146.193,7.217,165.659,127.329,19.544,186.094,6.256,201.739-45.574S704.53,106.084,581.844,120.273Z" transform="translate(-272.489 -110.141)" fill="#c9d6e8"/>
        <g id="Group_1542" data-name="Group 1542" transform="translate(276.465 118.72)">
          <line id="Line_148" data-name="Line 148" x1="1017.387" fill="none" stroke="#fff" stroke-miterlimit="10" stroke-width="2"/>
          <line id="Line_149" data-name="Line 149" x1="927.665" transform="translate(89.722 18.492)" fill="none" stroke="#fff" stroke-miterlimit="10" stroke-width="2"/>
          <line id="Line_150" data-name="Line 150" y2="232.91" transform="translate(955.694 18.492)" fill="none" stroke="#fff" stroke-miterlimit="10" stroke-width="2"/>
          <line id="Line_151" data-name="Line 151" y2="232.91" transform="translate(907.26 18.492)" fill="none" stroke="#fff" stroke-miterlimit="10" stroke-width="2"/>
          <line id="Line_152" data-name="Line 152" y2="176.333" transform="translate(811.162 75.068)" fill="none" stroke="#fff" stroke-miterlimit="10" stroke-width="2"/>
          <line id="Line_153" data-name="Line 153" y2="213.317" transform="translate(765.035 30.159)" fill="none" stroke="#fff" stroke-miterlimit="10" stroke-width="2"/>
          <line id="Line_154" data-name="Line 154" y2="147.935" transform="translate(665.862 152.338)" fill="none" stroke="#fff" stroke-miterlimit="10" stroke-width="2"/>
          <line id="Line_155" data-name="Line 155" y2="159.052" transform="translate(619.735 136.818)" fill="none" stroke="#fff" stroke-miterlimit="10" stroke-width="2"/>
          <line id="Line_156" data-name="Line 156" y2="189.322" transform="translate(526.456 110.951)" fill="none" stroke="#fff" stroke-miterlimit="10" stroke-width="2"/>
          <line id="Line_157" data-name="Line 157" y2="199.008" transform="translate(475.204 110.951)" fill="none" stroke="#fff" stroke-miterlimit="10" stroke-width="2"/>
          <line id="Line_158" data-name="Line 158" y2="190.202" transform="translate(439.327 105.668)" fill="none" stroke="#fff" stroke-miterlimit="10" stroke-width="2"/>
          <line id="Line_159" data-name="Line 159" y2="189.322" transform="translate(380.9 110.951)" fill="none" stroke="#fff" stroke-miterlimit="10" stroke-width="2"/>
          <line id="Line_160" data-name="Line 160" y2="194.605" transform="translate(334.773 105.668)" fill="none" stroke="#fff" stroke-miterlimit="10" stroke-width="2"/>
          <line id="Line_161" data-name="Line 161" y2="103.907" transform="translate(285.57 93.34)" fill="none" stroke="#fff" stroke-miterlimit="10" stroke-width="2"/>
          <line id="Line_162" data-name="Line 162" y2="221.022" transform="translate(241.493 93.34)" fill="none" stroke="#fff" stroke-miterlimit="10" stroke-width="2"/>
          <line id="Line_163" data-name="Line 163" y2="176.333" transform="translate(192.291 75.068)" fill="none" stroke="#fff" stroke-miterlimit="10" stroke-width="2"/>
        </g>
        <g id="Group_1543" data-name="Group 1543" transform="translate(0 137.212)">
          <line id="Line_164" data-name="Line 164" y2="232.91" transform="translate(238.468)" fill="none" stroke="#fff" stroke-miterlimit="10" stroke-width="2"/>
          <line id="Line_165" data-name="Line 165" y2="232.91" transform="translate(190.034)" fill="none" stroke="#fff" stroke-miterlimit="10" stroke-width="2"/>
          <line id="Line_166" data-name="Line 166" y2="213.317" transform="translate(47.809 11.668)" fill="none" stroke="#fff" stroke-miterlimit="10" stroke-width="2"/>
          <line id="Line_167" data-name="Line 167" x1="302.862" transform="translate(0 295.87)" fill="none" stroke="#fff" stroke-miterlimit="10" stroke-width="1.186"/>
          <line id="Line_168" data-name="Line 168" x1="304.327" transform="translate(0 317.884)" fill="none" stroke="#fff" stroke-miterlimit="10" stroke-width="1.186"/>
        </g>
      </g>
      <g id="Doctor" transform="translate(267.381 116.879)">
        <path id="Path_3079" data-name="Path 3079" d="M962.313,308.018V270.79h84.148v75.1l-76.674,74.672-19.979-7.246Z" transform="translate(-292.159 -124.151)" fill="#fedcd2"/>
        <line id="Line_169" data-name="Line 169" x1="2.095" y1="7.766" transform="translate(658.448 282.452)" fill="#00000c"/>
        <path id="Path_3080" data-name="Path 3080" d="M1046.479,270.793v43.994l-28.121,21.524s-11.244-12.959-25.353-14.479-23.073,2.66-22.011,6.918,7.707,2.8,8.808,9.286-18.827,36.713-11.5,59.954l12.2,12.16-10.7,10.416-17.081-6.2-2.095-7.766,11.7-98.588V270.793Z" transform="translate(-292.181 -124.151)" fill="#00000c"/>
        <path id="Path_3081" data-name="Path 3081" d="M857.4,393.31c-6.16,15.79-25.4,58.918-30.6,66.461s-5.591,13.258-3.556,15.4c0,0-9.355,19.571-13.522,25.529s-20.16,34.3-23.571,40.215-10.79,32.56-2.758,45.316c3.974,6.311,15.5,11.762,27.655,14.229,0,0,10.894-6.517,17.216-12.484,6.094-5.752,25.572-2.081,29.148-5.783,3.766-3.9,6.066-6.607,6.753-8.013,1.341-2.742,4.6-22.677,7.587-29.318s22.877-45.1,31.014-60.041,15.056-25.249,10.788-44.318-27.033-42.631-36.136-48.49S860.413,385.578,857.4,393.31Z" transform="translate(-287.804 -127.142)" fill="#fff"/>
        <g id="Group_1545" data-name="Group 1545" transform="translate(569.25 170.242)">
          <path id="Path_3082" data-name="Path 3082" d="M1078.616,331.567c10.924,8.049,43.121,23.572,56.92,30.185s14.661,14.087,14.949,24.436-21.849,188.584-24.436,207.557,6.9,85.38,8.624,90.555,6.9,31.909,6.9,31.909h-188.3l-8.337-54.333L957.3,471.854Z" transform="translate(-861.285 -295.95)" fill="#fff"/>
          <path id="Path_3083" data-name="Path 3083" d="M1099.127,392.268c-14.858,25.767-25.2,100.944-24.6,119.276s-3.115-6.924-5.153-19.193,2.587-41.757,2.387-46.852-17.174,66.078-23.683,83.871-46.678,24.4-58.621,30.248-3.79-25.941-3.79-25.941L953.628,581v30.214L1061.9,605.91l30.248-23.162.509-52.363s-5.617-35.677-6.581-65.8,4.8-49.759,4.8-49.759Z" transform="translate(-861.508 -297.505)" fill="#c9d6e8"/>
          <path id="Path_3084" data-name="Path 3084" d="M1091.912,419c-9.289,44.457-6.06,111.8-4.116,126.679s-10.256-39.01-12.29-40.027,0,52.779,0,52.779L1028.294,571.5l39.583,19.341,38.108-11.908,12.078-42.267Z" transform="translate(-863.42 -298.19)" fill="#00000c"/>
          <path id="Path_3085" data-name="Path 3085" d="M1081.182,331.567c11.819,8.4,37.272,20.21,44.022,23.5s20.108,10.576,20.108,10.576" transform="translate(-864.775 -295.95)" fill="none" stroke="#0d0d0c" stroke-linecap="round" stroke-linejoin="round" stroke-width="2"/>
          <path id="Path_3086" data-name="Path 3086" d="M1079.452,347.646l-1.268,27.05s9.074-2.739,8.541,7.59-100.239,150.26-100.239,150.26Z" transform="translate(-862.349 -296.362)" fill="#00000c"/>
          <path id="Path_3087" data-name="Path 3087" d="M918.593,359.226c-5.389,3.989-41.611,23.178-45.277,27.813s-8.48,40.678-8.48,61.664,1.15,170.759-.576,193.183-5.174,72.874-5.174,72.874l58.644,2.156,18.4-18.973L955.1,472.563,947.484,366.2Z" transform="translate(-859.086 -296.659)" fill="#fff"/>
          <path id="Path_3088" data-name="Path 3088" d="M865.294,525.181c.065,27.381.063,56.468.063,56.468" transform="translate(-859.245 -300.909)" fill="none" stroke="#0d0d0c" stroke-linecap="round" stroke-linejoin="round" stroke-width="2"/>
          <path id="Path_3089" data-name="Path 3089" d="M865.3,452.168c.851-25.3,2.148-43.586,4.662-53.375s2.437-11.594,6.533-14.685,41.4-24.27,41.4-24.27" transform="translate(-859.245 -296.674)" fill="none" stroke="#0d0d0c" stroke-linecap="round" stroke-linejoin="round" stroke-width="2"/>
          <path id="Path_3090" data-name="Path 3090" d="M934.921,344.991c-5.894,4.312-15.381,9.774-17.105,14.086s-7.474,14.23-5.318,18.758c0,0-4.312-2.659-5.031,1.079s.024,146.94,25.166,200.893l16.086-174.159V373.307Z" transform="translate(-860.321 -296.294)" fill="#c9d6e8"/>
          <path id="Path_3091" data-name="Path 3091" d="M961.531,308.639a309.79,309.79,0,0,1,1.078,49.158c-.215,6.253-2.422,15.309.514,26.3s5.954,18.973,5.954,18.973S972.1,387.982,981.8,378.5s15.523-13.584,15.092-17.033-6.208-10.564.022-17.464,44.177-34.5,47.626-39.456a5.69,5.69,0,0,0,1.145-3.631,50.587,50.587,0,0,1,0-5.608s3.173-1.327,6.622,1.692,8.122,11.5-2.227,27.023-59.508,133.1-73.881,175.072-23.573,95.442-23.573,179.385v36.8H919.272s7.187-22.135,8.049-34.785,8.624-150.924,9.774-195.77,9.487-103.779,9.487-103.779S934.8,368,933.071,356.216s.287-13.512,7.187-19.836S961.531,308.639,961.531,308.639Z" transform="translate(-860.628 -295.014)" fill="#ed759d"/>
          <path id="Path_3092" data-name="Path 3092" d="M942.4,580.072l-8.852-4.036c1.8-35.331,3.44-70.3,3.917-89.02,1.043-40.554,7.951-92.645,9.266-102.233l2.036,2.482s-5.844,52.774-6.629,97.916C941.733,508.575,942.4,580.072,942.4,580.072Z" transform="translate(-860.993 -297.313)" fill="#00000c"/>
          <path id="Path_3093" data-name="Path 3093" d="M933.549,576.036c1.8-35.331,3.44-70.3,3.917-89.02,1.043-40.554,7.951-92.645,9.266-102.233Z" transform="translate(-860.993 -297.313)" fill="#00000c"/>
          <path id="Path_3094" data-name="Path 3094" d="M1057.16,304.136c3.738,5.168,22.424,20.691,23.861,24.716s-7.474,41.108-7.474,41.108,6.063-2.587,7.631,0-7.668,26.688-21.228,46c-11.148,15.874-99.672,155.852-99.672,155.852s-.858-33.387,16.965-85.133,47.97-119.811,60.082-139.712,17.541-30.255,18.83-34.785A25.065,25.065,0,0,0,1057.16,304.136Z" transform="translate(-861.678 -295.247)" fill="#c9d6e8"/>
          <path id="Path_3095" data-name="Path 3095" d="M1071.464,373.081l-25.226,11.643L1036.1,369.847" transform="translate(-863.62 -296.931)" fill="none" stroke="#0d0d0c" stroke-linecap="round" stroke-linejoin="round" stroke-width="2"/>
          <path id="Path_3096" data-name="Path 3096" d="M914.552,380.1l10.924,9.055,4.887-5.175" transform="translate(-860.507 -297.193)" fill="none" stroke="#0d0d0c" stroke-linecap="round" stroke-linejoin="round" stroke-width="2"/>
          <path id="Path_3097" data-name="Path 3097" d="M960.271,467.882s4.618-45.517,9.425-61.017c3.784-12.2,15.739-23.214,22.064-27.094s8.768-8.481,7.905-12.505" transform="translate(-861.678 -296.864)" fill="none" stroke="#0d0d0c" stroke-linecap="round" stroke-linejoin="round" stroke-width="2"/>
          <path id="Path_3098" data-name="Path 3098" d="M936.527,352.361c-.97-4.85,1.832-6.576,5.929-.647s20.782,32.455,20.782,32.455" transform="translate(-861.065 -296.37)" fill="none" stroke="#0d0d0c" stroke-linecap="round" stroke-linejoin="round" stroke-width="2"/>
          <path id="Path_3099" data-name="Path 3099" d="M999.226,350.383c.431-3.162,2.8-3.881,7.69,1.007s6.468,36.94,6.468,36.94" transform="translate(-862.675 -296.368)" fill="none" stroke="#0d0d0c" stroke-linecap="round" stroke-linejoin="round" stroke-width="2"/>
          <path id="Path_3100" data-name="Path 3100" d="M978.994,543.749s55.684-89.37,73.327-114.609,28.039-47.64,29.435-55.418-6.816-3.091-6.816-3.091,3.891-20.443,5-26.931" transform="translate(-862.157 -296.261)" fill="none" stroke="#0d0d0c" stroke-linecap="round" stroke-linejoin="round" stroke-width="2"/>
          <path id="Path_3101" data-name="Path 3101" d="M907.31,387.623c-.994,54.333,14.083,157.251,14.083,157.251" transform="translate(-860.32 -297.386)" fill="none" stroke="#0d0d0c" stroke-linecap="round" stroke-linejoin="round" stroke-width="2"/>
          <path id="Path_3102" data-name="Path 3102" d="M946.814,383.2s-6.715,40.758-8.362,80.18-10.139,206.764-10.139,206.764" transform="translate(-860.859 -297.273)" fill="none" stroke="#0d0d0c" stroke-linecap="round" stroke-linejoin="round" stroke-width="2"/>
          <path id="Path_3103" data-name="Path 3103" d="M953.608,664.989c6.656-97.614-1.855-145.066,70.056-290.131" transform="translate(-861.507 -297.059)" fill="none" stroke="#0d0d0c" stroke-linecap="round" stroke-linejoin="round" stroke-width="2"/>
          <path id="Path_3104" data-name="Path 3104" d="M1049.882,329.421c8.568-14.909,13.095-24.826,5.764-32.373" transform="translate(-863.973 -295.066)" fill="none" stroke="#0d0d0c" stroke-linecap="round" stroke-linejoin="round" stroke-width="2"/>
        </g>
        <path id="Path_3105" data-name="Path 3105" d="M803.052,514.64c5.052-8.435,12.232-20.2,15.085-25.878s11.053-20.447,11.053-20.447" transform="translate(-288.401 -129.21)" fill="none" stroke="#0d0d0c" stroke-linecap="round" stroke-linejoin="round" stroke-width="2"/>
        <path id="Path_3106" data-name="Path 3106" d="M824.357,475.173c-1.136-3.555-2.245-5.818,1.079-11.279s11.306-20.835,15.55-30.183,14.673-33.773,16.6-38.072,2.738-8.425,11.075-8.078" transform="translate(-288.917 -127.141)" fill="none" stroke="#0d0d0c" stroke-linecap="round" stroke-linejoin="round" stroke-width="2"/>
        <g id="Group_1546" data-name="Group 1546" transform="translate(632.18)">
          <path id="Path_3107" data-name="Path 3107" d="M942.388,231.982c-5.732-7.055-10.362-7.936-13.118-6.5s-5.511,9.481-2.314,17.859,3.417,14,4.519,17.417a66.783,66.783,0,0,1,1.984,9.481c.331,1.984,2.667,7.338,5.732,8.046S944.7,276.3,944.7,276.3Z" transform="translate(-923.718 -122.976)" fill="#fedcd2"/>
          <path id="Path_3108" data-name="Path 3108" d="M929.751,239.251c-1.079-6.037-.54-8.085,3.126-6.145a8.123,8.123,0,0,1,4.312,4.82s-4.743,5.493-3.126,16.184" transform="translate(-923.813 -123.168)" fill="none" stroke="#0d0d0c" stroke-linecap="round" stroke-linejoin="round" stroke-width="2"/>
          <path id="Path_3109" data-name="Path 3109" d="M934.705,259.53a14.518,14.518,0,0,0,6.612,9.774" transform="translate(-923.953 -123.863)" fill="none" stroke="#0d0d0c" stroke-linecap="round" stroke-linejoin="round" stroke-width="2"/>
          <path id="Path_3110" data-name="Path 3110" d="M951.712,155.3c-7.016,7.847-14.882,22.323-15.047,40.842s3.638,31.583,3.638,34.724-1.488,28.772-.166,37.039,7.441,22.654,14.716,31.087,8.6,10.086,12.072,13.063a33.841,33.841,0,0,0,22.322,7.622c11.079-.181,17.693-3.57,24.637-9.73s16.039-10.458,23.977-18.891a34.087,34.087,0,0,0,8.929-18.023s2.645,5.953,7.606,4.465,10.251-7.937,12.567-17.528,7.441-14.7,8.764-22.477-1.818-15.719-8.929-15.388-9.424,3.141-9.424,3.141.661-28.44-.993-39.685-4.465-18.023-14.882-27.779-25.961-21.166-38.362-21.5S964.279,141.248,951.712,155.3Z" transform="translate(-924.003 -120.706)" fill="#fedcd2"/>
          <path id="Path_3111" data-name="Path 3111" d="M1069.913,224.361c4.272-.359,7.412,3.143,8.172,5.873s1.808,8.786-.375,13.738-5.156,10.913-6.7,15.011-2.97,12.07-7.222,16.291-5.519,4.213-5.519,4.213" transform="translate(-927.118 -122.961)" fill="none" stroke="#0d0d0c" stroke-linecap="round" stroke-linejoin="round" stroke-width="2"/>
          <path id="Path_3112" data-name="Path 3112" d="M1012.916,218.621c-1.627.252-2.692,3.163-2.1,4.4a4.64,4.64,0,0,0,2.309,2.426c.858.324,4.588.646,6.1-.162s1.627-3.127,1.361-4.1-1.1-2.052-1.573-2.094S1012.916,218.621,1012.916,218.621Z" transform="translate(-925.898 -122.815)"/>
          <path id="Path_3113" data-name="Path 3113" d="M1000.882,207.464c-5.4,1.382-3.859,7.056-2.645,7.827s7.386-1.1,12.125-2.977,7.166-2.425,11.575-.33,9.149,5.842,9.149,4.189-7.826-7.166-10.582-8.709S1010.8,204.929,1000.882,207.464Z" transform="translate(-925.55 -122.489)" fill="#00000c"/>
          <path id="Path_3114" data-name="Path 3114" d="M975.112,214.191c1.795,1.025-1.819,2.749-4.216,2.449s-7.193-1.622-11-1.705-9.425,0-10.5.91-6.367,5.043-6.2,4.382,3.473-8.185,3.8-8.516,8.019-3.637,11.245-3.555a28.887,28.887,0,0,1,11.161,2.811C972.549,212.621,974.533,213.86,975.112,214.191Z" transform="translate(-924.17 -122.547)" fill="#00000c"/>
          <path id="Path_3115" data-name="Path 3115" d="M980.413,218.762c.477,2.315-2.169,11.988-3.079,14.882s-4.216,12.4-5.208,17.28.743,7.523,4.547,9.59,9.673,1.323,13.228-1.654" transform="translate(-924.904 -122.818)" fill="none" stroke="#0d0d0c" stroke-linecap="round" stroke-linejoin="round" stroke-width="2"/>
          <path id="Path_3116" data-name="Path 3116" d="M988.594,259.551c1.654-.579,5.043.827,7.689.5s4.382-1.735,4.382-5.457a7.088,7.088,0,0,0-2.811-5.621" transform="translate(-925.333 -123.592)" fill="none" stroke="#0d0d0c" stroke-linecap="round" stroke-linejoin="round" stroke-width="2"/>
          <path id="Path_3117" data-name="Path 3117" d="M971.479,250.457c-1.654,2.977-2.633,6.818-.815,8.8a4.655,4.655,0,0,0,4.508,1.179" transform="translate(-924.849 -123.63)" fill="none" stroke="#0d0d0c" stroke-linecap="round" stroke-linejoin="round" stroke-width="2"/>
          <path id="Path_3118" data-name="Path 3118" d="M967.264,264.242c-3.031,3.362-6.614,12.235-6.614,12.235" transform="translate(-924.618 -123.983)" fill="none" stroke="#0d0d0c" stroke-linecap="round" stroke-linejoin="round" stroke-width="2"/>
          <path id="Path_3119" data-name="Path 3119" d="M1006.7,262.812c5.071,4.975,7.937,12.361,7.937,12.361" transform="translate(-925.797 -123.947)" fill="none" stroke="#0d0d0c" stroke-linecap="round" stroke-linejoin="round" stroke-width="2"/>
          <path id="Path_3120" data-name="Path 3120" d="M969.036,280.7c-1.912-.339-2.589,1.268,0,1.874s4.8.221,7.139,0,5.944.914,7.873.8a45.8,45.8,0,0,0,4.827-.638c.662-.11,8.654.33,10.859.22a21.306,21.306,0,0,0,6.5-1.764c.936-.5-.276-1.1-1.433-.882a37.527,37.527,0,0,1-9.26-.44,68.919,68.919,0,0,0-7.5-1.489c-2.149-.22-4.52,1.378-5.071,1.489s-1.985-1.585-3.693-1.509-4.961,1.784-6.89,2.17A8.706,8.706,0,0,1,969.036,280.7Z" transform="translate(-924.789 -124.345)"/>
          <path id="Path_3121" data-name="Path 3121" d="M972.365,287.9c-.937-.424-1.185.138-.247.965a46.772,46.772,0,0,0,8.287,4.106c2.406.883,5.823,1.433,7.752.993s7.11-3.417,9.26-5.182,2.059-2.866,1.25-2.37a29.883,29.883,0,0,1-7.671,3.2,79.832,79.832,0,0,1-12.319.44A36.366,36.366,0,0,1,972.365,287.9Z" transform="translate(-924.896 -124.548)"/>
          <path id="Path_3122" data-name="Path 3122" d="M948.989,224.2c4.06-4.007,18.174-6.058,25.952-3.939" transform="translate(-924.319 -122.835)" fill="none" stroke="#0d0d0c" stroke-linecap="round" stroke-linejoin="round" stroke-width="2"/>
          <path id="Path_3123" data-name="Path 3123" d="M972.7,224.2c-2.811-2.158-6.719-4.559-8.539-4.634" transform="translate(-924.707 -122.839)" fill="none" stroke="#0d0d0c" stroke-linecap="round" stroke-linejoin="round" stroke-width="2"/>
          <path id="Path_3124" data-name="Path 3124" d="M1000.35,219.322c1.725-.97,3.019-1.078,5.606-1.078s14.769.942,16.386,1.414,6.036,5.069,6.036,5.069" transform="translate(-925.634 -122.805)" fill="none" stroke="#0d0d0c" stroke-linecap="round" stroke-linejoin="round" stroke-width="2"/>
          <path id="Path_3125" data-name="Path 3125" d="M1003.945,222.4c1.079-1.428,4.449-4.075,6.227-3.95" transform="translate(-925.726 -122.81)" fill="none" stroke="#0d0d0c" stroke-linecap="round" stroke-linejoin="round" stroke-width="2"/>
          <path id="Path_3126" data-name="Path 3126" d="M957.765,220.545a3.851,3.851,0,0,0,1.63,6.388,18.948,18.948,0,0,0,3.6-.344c2.511-.407,3.223-1.222,3.529-1.765s.577-2.963,0-3.552a14.559,14.559,0,0,0-2.307-1.543Z" transform="translate(-924.515 -122.843)"/>
          <path id="Path_3127" data-name="Path 3127" d="M1068.86,253.146s4.887-10.493,4.024-16.961-9.665-6.339-15.092,6.325c-1.078,2.515-1.294,2.372-1.222,3.593s2.947,4.96,3.521,7.044-2.3,5.534-4.528,6.324-.575,2.552-.575,2.552" transform="translate(-927.019 -123.157)" fill="none" stroke="#0d0d0c" stroke-linecap="round" stroke-linejoin="round" stroke-width="2"/>
          <path id="Path_3128" data-name="Path 3128" d="M1055.594,267.427c2.372-2.3,6.684-.934,7.762-1.725a17.034,17.034,0,0,0,2.731-3.666" transform="translate(-927.049 -123.927)" fill="none" stroke="#0d0d0c" stroke-linecap="round" stroke-linejoin="round" stroke-width="2"/>
          <path id="Path_3129" data-name="Path 3129" d="M1050.1,269.561c-.486,7.542-3.644,17.854-7.351,22.048a128.041,128.041,0,0,1-9.378,9.183" transform="translate(-926.48 -124.12)" fill="none" stroke="#0d0d0c" stroke-linecap="round" stroke-linejoin="round" stroke-width="2"/>
          <path id="Path_3130" data-name="Path 3130" d="M939.961,245.02c-.284,11.835-1.647,24.135,3.141,35.2s8.5,18.64,16.2,26.632,11.747,14.607,25.24,15.617,18.907-2.335,21.874-4.213,7.544-5.522,7.544-5.522" transform="translate(-924.077 -123.491)" fill="none" stroke="#0d0d0c" stroke-linecap="round" stroke-linejoin="round" stroke-width="2"/>
          <path id="Path_3131" data-name="Path 3131" d="M946.89,148.837c.76,14,12.551,23.315,26.815,24.837s17.733,12.971,25.911,19.236,14.644,4.363,14.644,4.363,6.466,8.939,15.214,5.9c0,0,5.515-.19,7.417,3.613s-.761,11.031,4.754,12.552c0,0-3.993,17.5,4.565,16.545,0,0,3.8,5.041,5.9,5.992s1.047,6.751-.951,8.083,2.282,2.568,5.04-1.426,3.9-9.795,2.662-11.791c0,0,5.99-9.415,6.086-15.024,0,0,2.948,4.66,3.708,3.613s3.8-6.371,2.662-12.077-3.423-7.227-2.662-10.079,2.472-10.65.76-13.883.381-5.9,1.332-8.178.76-18.257-15.595-30.238-17.708-20.408-31.4-22.69-13.933-5.223-19.976-6.683c-16.827-4.068-32.683,2.757-32.873,12.076Z" transform="translate(-924.265 -120.296)" fill="#00000c"/>
          <path id="Path_3132" data-name="Path 3132" d="M970.3,133.888c-14.289-7.512-39.631,19.674-41.19,29.461s.913,18.351,0,21.206-5.224,10.4-5.44,14.272,9.406,24.437,9.406,24.437,5.351,1.845,6.078,4.244.069,6.34.738,5.787,1.314-4.836.956-6.806-1.007-11.351-.216-14,2.336-21.511,8.912-32.316,12.505-11.113,12.505-11.113Z" transform="translate(-923.67 -120.611)" fill="#00000c"/>
        </g>
        <path id="Path_3133" data-name="Path 3133" d="M965.3,388.4c-5.251-17.965-1.515-27.293-1.3-37.148a323.147,323.147,0,0,0-1.491-39.9" transform="translate(-292.485 -125.19)" fill="none" stroke="#0d0d0c" stroke-linecap="round" stroke-linejoin="round" stroke-width="2"/>
        <g id="Group_1547" data-name="Group 1547" transform="translate(651.205 14.872)">
          <path id="Path_3134" data-name="Path 3134" d="M959.818,150.016c-1.089,7.817,6.5,12.01,15.1,13.917s16.194,7.626,18.972,11.056" transform="translate(-943.618 -135.929)" fill="none" stroke="#fff" stroke-linecap="round" stroke-linejoin="round" stroke-width="2"/>
          <path id="Path_3135" data-name="Path 3135" d="M1022.8,195.377c15.831-2.382,7.824-19.731,7.824-19.731" transform="translate(-945.234 -136.586)" fill="none" stroke="#fff" stroke-linecap="round" stroke-linejoin="round" stroke-width="2"/>
          <path id="Path_3136" data-name="Path 3136" d="M971.388,148.255c10.135,8.96,27.385,5.133,34.837,16.967,8.162,12.964,17.919,12.366,17.729,19.573s-5.421,8.541-8.525,8.351" transform="translate(-943.917 -135.884)" fill="none" stroke="#fff" stroke-linecap="round" stroke-linejoin="round" stroke-width="2"/>
          <path id="Path_3137" data-name="Path 3137" d="M978.856,136.255c4.575-3.195,29.358,5.193,36.794,13.391" transform="translate(-944.108 -135.559)" fill="none" stroke="#fff" stroke-linecap="round" stroke-linejoin="round" stroke-width="2"/>
          <path id="Path_3138" data-name="Path 3138" d="M1035.66,202.486c7.753-1.144,13.218-9.278,14.107-13.535,0,0,5.72,4,11.312,3.113" transform="translate(-945.563 -136.927)" fill="none" stroke="#fff" stroke-linecap="round" stroke-linejoin="round" stroke-width="2"/>
          <path id="Path_3139" data-name="Path 3139" d="M1052.316,195.146c-1.016,5.211-6.482,9.024-6.482,9.024" transform="translate(-945.824 -137.085)" fill="none" stroke="#fff" stroke-linecap="round" stroke-linejoin="round" stroke-width="2"/>
          <path id="Path_3140" data-name="Path 3140" d="M1053.242,202.842a15.373,15.373,0,0,1-5.973,6.99" transform="translate(-945.861 -137.282)" fill="none" stroke="#fff" stroke-linecap="round" stroke-linejoin="round" stroke-width="2"/>
          <path id="Path_3141" data-name="Path 3141" d="M948.4,157.06a22.851,22.851,0,0,0,10.168,12.2" transform="translate(-943.328 -136.11)" fill="none" stroke="#fff" stroke-linecap="round" stroke-linejoin="round" stroke-width="2"/>
          <path id="Path_3142" data-name="Path 3142" d="M945.66,162.831c1.779,5.052,8.515,8.865,8.515,8.865" transform="translate(-943.258 -136.258)" fill="none" stroke="#fff" stroke-linecap="round" stroke-linejoin="round" stroke-width="2"/>
          <path id="Path_3143" data-name="Path 3143" d="M943.2,170.568a10.565,10.565,0,0,0,6.66,6.029" transform="translate(-943.195 -136.456)" fill="none" stroke="#fff" stroke-linecap="round" stroke-linejoin="round" stroke-width="2"/>
        </g>
        <path id="Path_3144" data-name="Path 3144" d="M325.839,605.334l165.726,13.819S274.872,629.28,274.872,645.422s108.513,21.883,145.83,25.7c46.314,4.74,27.905,17.257-60.044,32.857-84.634,15.011-97.1,70.323,48,86.6,142.293,15.963,325.452,26.552,553.627,26.552s613.71-14.4,622.794-60.623c13.246-67.4-218.856-49.209-218.856-75.947s243.806-10.6,243.806-33.354c0-15.188-257.185-21.394-257.185-21.394l190.177-19.659Z" transform="translate(-274.872 -132.72)" fill="#fdd89b"/>
        <path id="Path_3145" data-name="Path 3145" d="M779,611.54c-23.382-.272-46.165,16.685-12.707,25.106,32.372,8.148,52.617,10.417,62.53,10.285,0,0,20.272,1.291,23.608-.283a153.16,153.16,0,0,0,20.843,4.686c9.913,1.335,14.865,1.881,19.731,1.875s18.541-3.3,18.541-3.3,9.082,3.259,21.77,6.491,41.989,3.209,41.989,3.209-.8,1.577,8.113,4.136,25.116,4.084,50.28,4.275,69.9-.572,111.778,1.907,65.137-11.624,64.946-21.35-47.85-15.635-47.85-15.635Z" transform="translate(-287.027 -132.879)" fill="#00000c"/>
        <path id="Path_3146" data-name="Path 3146" d="M979.39,653.789c-3.924-21.833-5.857-71.818,5.292-76.628s15.269,56.285,15.269,56.285l-7.82,28.538A12.622,12.622,0,0,1,985,660.56C981.718,658.644,979.39,653.789,979.39,653.789Z" transform="translate(-292.838 -131.991)" fill="#0d0d0c" stroke="#0d0d0c" stroke-linecap="round" stroke-linejoin="round" stroke-width="1"/>
        <line id="Line_170" data-name="Line 170" x2="1217.183" transform="translate(50.987 472.661)" fill="none" stroke="#0d0d0c" stroke-linecap="round" stroke-linejoin="round" stroke-width="2"/>
        <g id="Group_1548" data-name="Group 1548" transform="translate(483.329 328.863)">
          <path id="Path_3147" data-name="Path 3147" d="M847.873,633.757c5.948,1.8,13.294,6.318,18.782,8.548a127.606,127.606,0,0,0,17.567,3.657c5.3.511,15.107.445,15.107.445l-3.088-47.736-23.652-5.013-6.045-3.307-19.055-4.315-28.165,4.382L809.5,605.7l14.932,29.625,8.225,1.814,9.717-.415Z" transform="translate(-771.895 -461.088)" fill="#fedcd2"/>
          <path id="Path_3148" data-name="Path 3148" d="M855.259,592.855c-6.806,6.558-14.424,21.507-12.555,25.818s7.043,7.043,15.955,3.162a8.591,8.591,0,0,0,8.768,7.331s-1.085,11.267,5.422,14.689l11.538,2.187,7.663-10.565L881.8,596.969l-15.871-4.8Z" transform="translate(-772.738 -461.245)" fill="#0d0d0c"/>
          <path id="Path_3149" data-name="Path 3149" d="M826.075,640.523c3.715.992,15.01-.308,18.084-1.17s3.53-5.538,3.53-5.538l-1.725-.268s-6.033,2-9.821.635-9.552-11.33-9.172-15.717,4.912-13.5,10.187-16.969,18.433-9.181,26.526-9.492l-10.549-3.728-34.315,6.061L802.3,609.345l5.788,19.113,9.953,8.744Z" transform="translate(-771.71 -461.146)" fill="#fff"/>
          <path id="Path_3150" data-name="Path 3150" d="M826.7,640.856a67.86,67.86,0,0,0,16.182-.758c4.594-.924,5.551-2.641,5.432-5.951l-1.725-.268s-5.122,1.367-8.046,1.031-5.646-2.647-7.723-6.786-4.061-7.769-2.892-11.175,4.254-12.317,10.716-15.663" transform="translate(-772.335 -461.479)" fill="none" stroke="#0d0d0c" stroke-linecap="round" stroke-linejoin="round" stroke-width="2"/>
          <path id="Path_3151" data-name="Path 3151" d="M848.882,635.011c2.4.836,6.637,2.66,8.233,3.452s13.01,8.308,28.116,8.753,18.87-3.657,18.87-3.657" transform="translate(-772.903 -462.343)" fill="none" stroke="#0d0d0c" stroke-linecap="round" stroke-linejoin="round" stroke-width="2"/>
          <path id="Path_3152" data-name="Path 3152" d="M794.528,529.5c-.744,1.3-9.412,3.3-11.686,12.119a31.879,31.879,0,0,1-9.068,15.949c-3.065,3.185-2.783,27.348-2.868,37.026s6.025,30.5,15.776,36.125,26.428,7.231,30.655,8.807a10.158,10.158,0,0,0,7.932-.513,23.784,23.784,0,0,1-6.439-4.989c-3.062-3.358-8.271-9.138-8.515-15.1s13.71-18.951,21.289-22.713,29.046-6.146,32.492-5.657a66.47,66.47,0,0,1,7.5,1.648s-1.22-3.477-2.888-5.076-14.072-13.046-14.072-13.046Z" transform="translate(-770.906 -459.64)" fill="#fff"/>
          <path id="Path_3153" data-name="Path 3153" d="M847.792,566.738c-15.02-11.141-30.193-17.793-47.35-15.049s3.05-8.187,13.344-8.313,29.828,4.321,29.828,4.321-6.315-11.439-13.56-14.87,1.016-1.779,5.846.635a52.407,52.407,0,0,1,6.736,3.813s-5.846-9.659-12.582-12.71,10.671,2.437,15.884,12.762l7.632,7.447s-.926-16.014-3.578-28.47-5.2-28.586-3.924-25.1,7.5,18.1,7.5,18.1l9.955-51.508-.808,113.024Z" transform="translate(-771.492 -457.804)" fill="#c9d6e8"/>
          <path id="Path_3154" data-name="Path 3154" d="M838.3,559.084l18.067,13.4,8.3,7.671V466.97c0-3.3-3.223,77.527-4.748,78.8s-14.51-11.175-12.839-8.209,8.9,24.732,8.076,27.019S838.3,559.084,838.3,559.084Z" transform="translate(-772.632 -458.036)" fill="#00000c"/>
          <path id="Path_3155" data-name="Path 3155" d="M844.924,536.024c7.331,8.408,19.912,45.9,19.912,45.9" transform="translate(-772.802 -459.807)" fill="none" stroke="#0d0d0c" stroke-linecap="round" stroke-linejoin="round" stroke-width="2"/>
          <path id="Path_3156" data-name="Path 3156" d="M794.528,529.5c-.744,1.3-9.412,3.3-11.686,12.119a31.879,31.879,0,0,1-9.068,15.949c-3.065,3.185-2.783,27.348-2.868,37.026s6.025,30.5,15.776,36.125,26.428,7.231,30.655,8.807a10.158,10.158,0,0,0,7.932-.513,23.784,23.784,0,0,1-6.439-4.989c-3.062-3.358-8.271-9.138-8.515-15.1s13.71-18.951,21.289-22.713,29.046-6.146,32.492-5.657a66.47,66.47,0,0,1,7.5,1.648s-1.22-3.477-2.888-5.076-14.072-13.046-14.072-13.046l-22.455-16.654" transform="translate(-770.906 -459.64)" fill="none" stroke="#0d0d0c" stroke-linecap="round" stroke-linejoin="round" stroke-width="2"/>
        </g>
        <g id="Group_1551" data-name="Group 1551" transform="translate(561.639 236.903)">
          <g id="Group_1549" data-name="Group 1549" transform="translate(0 203.767)">
            <path id="Path_3157" data-name="Path 3157" d="M986.65,600.387c-8.436.628-16.13-.553-19.816-2.911s-47.141-22.629-51.074-24.384-11.324,1.136-20.524,3.285a130.452,130.452,0,0,0-20.747,7.177c-3.62,1.476-9.544,8.828-13.858,12.769s-7.877,13.531-8.915,15.8,1.405,5.6,7.045,4.74,7.021-2.936,7.021-2.936-1.09,10.393,9.972,8.691c0,0-5.869,5.154-2.788,11.177s10.726,5.564,10.726,5.564A19.221,19.221,0,0,0,885,646.613c1.484,3.729,7.987,7.084,12.185,6s4.423-3.949,4.423-3.949,5.724-2.687,9.237-1.161,9.684,7.283,25.088,7.891a73.713,73.713,0,0,0,31.75-5.73c5.107-2.135,26.608-2.128,26.608-2.128Z" transform="translate(-851.28 -572.551)" fill="#fedcd2"/>
            <path id="Path_3158" data-name="Path 3158" d="M976.431,600.5c8.541,14.452,1.44,47.258-17.433,53.566,0,0,15.283-4.957,23.808-5.4s12.515-.225,12.515-.225l-5.5-50.128Z" transform="translate(-854.034 -573.211)" fill="#0d0d0c"/>
            <path id="Path_3159" data-name="Path 3159" d="M867.985,620.88c-1.592-1.914-2.41-5.925.037-8.412s12.463-12.657,15.544-14.5,18.282-8.222,22.4-8.967,10.793,2.048,10.793,2.048" transform="translate(-851.664 -572.969)" fill="none" stroke="#0d0d0c" stroke-linecap="round" stroke-linejoin="round" stroke-width="2"/>
            <path id="Path_3160" data-name="Path 3160" d="M871.97,623.48c3.6.721,6.716-.074,12.557-4.128s21.584-12.14,24.379-12.9a17.839,17.839,0,0,1,5.782-.431" transform="translate(-851.805 -573.407)" fill="none" stroke="#0d0d0c" stroke-linecap="round" stroke-linejoin="round" stroke-width="2"/>
            <path id="Path_3161" data-name="Path 3161" d="M917.2,628.589s-7.682-1.512-12.873.959-16.194,10.859-19.786,11.238" transform="translate(-852.127 -573.975)" fill="none" stroke="#0d0d0c" stroke-linecap="round" stroke-linejoin="round" stroke-width="2"/>
            <path id="Path_3162" data-name="Path 3162" d="M922.818,654.6c10.626,3.964,29.021,3.024,39.65-.4s18.039-4.359,24.581-4.512,12.419-.136,12.419-.136" transform="translate(-853.107 -574.523)" fill="none" stroke="#0d0d0c" stroke-linecap="round" stroke-linejoin="round" stroke-width="2"/>
            <path id="Path_3163" data-name="Path 3163" d="M954.08,591.213s-26.136-11.7-33.419-15.327c-6.343-3.163-7-3.25-10.3-3.187s-17.037,4.123-22.176,5.6a128.928,128.928,0,0,0-14.921,5.825c-2.147,1.008-12.435,11.862-14.41,13.949s-6.409,11.917-7.329,14.077.833,4.622,3.818,4.75c4.057.173,7.429.318,11.348-3.849s7.734-7.928,7.734-7.928" transform="translate(-851.275 -572.555)" fill="none" stroke="#0d0d0c" stroke-linecap="round" stroke-linejoin="round" stroke-width="2"/>
          </g>
          <g id="Group_1550" data-name="Group 1550" transform="translate(124.415)">
            <path id="Path_3164" data-name="Path 3164" d="M1131.774,363.5c-16.3-1.641-35.842,23.859-42.579,61.115s.971,63.666,5.03,87.16c3.608,20.89,9.364,32.813,9.364,32.813s-5.953,9.092-4.768,25c0,0-12.693,1.81-15.82.458s-4.989-6.979-19.349-4.324-58.165,6.785-66.607,5.685-14.383-1.523-13.712,3.616,7.925,32.848,7.327,51.919-3.5,26.494-6.083,26.685-5.292-9.118-5.292-9.118-3.318,13.508,17.451,13.69,52.369-3.326,80.412-2.244,67.669-1.007,84.284-6.281,35.977-16.229,32.262-39.014c0,0,2.182-12.24-1.573-52.06-4.106-43.547-11.448-74.646-22.39-109.288,0,0-5.746-40.362-13.082-61.436S1141.649,364.5,1131.774,363.5Z" transform="translate(-978.964 -363.427)" fill="#fff"/>
            <path id="Path_3165" data-name="Path 3165" d="M1193.98,612.568c3.722,22.781-15.64,33.733-32.263,39.014s-56.232,7.357-84.274,6.275-59.653,2.426-80.416,2.251a33.885,33.885,0,0,1-7.455-.809c4.365.37,14.276-14.119,14.529-23.395s4.58,3.839,11.693,8.214,28.725,7.834,64.31,3.81,43.721-6.3,52.364-6.558c7.581-.224,4.151-29.319-3.547-40.193,3.322,3.469,8.078,9.13,9.841,14.723,2.815,8.955,5.184,24.866,3.381,28.218s5.067-2.368,6.09-17.685-9.666-28.676-12.969-32.418,13.982,8.808,18.3,17.529,7.883.906,4.326-4.463c-2.914-4.395-11.868-17.237-18.065-23.015,4.277,3.147,11.225,8.428,14.664,11.946,5.185,5.291,12.9,8.234,14.363,8.935s.477-6.178-6.646-13.856c-6.04-6.519-16.9-17.792-27.214-22.888,9.9,3.157,26.2,8.136,26.2,8.136s5.224,13.281,10.622,14.752.565-46.566,6.665-34.367,3.3-23.385,3.3-23.385-5.769-72.173-16.477-95.188l3.7,6.411c.653,4.122,1.012,6.655,1.012,6.655,10.942,34.639,18.289,65.742,22.391,109.287C1196.162,600.33,1193.98,612.568,1193.98,612.568Z" transform="translate(-979.232 -365.341)" fill="#c9d6e8"/>
            <path id="Path_3166" data-name="Path 3166" d="M1098.817,569.6s-12.693,1.81-15.82.458-4.989-6.979-19.349-4.324-58.165,6.785-66.607,5.685-14.383-1.523-13.712,3.616,7.925,32.848,7.327,51.919-3.5,26.494-6.083,26.685-5.441-8.09-5.441-8.09-3.169,12.48,17.6,12.662,52.369-3.326,80.412-2.244,67.669-1.007,84.284-6.281,35.977-16.229,32.262-39.014c0,0,2.182-12.24-1.573-52.06-4.106-43.547-11.448-74.646-22.39-109.288,0,0-5.746-40.362-13.082-61.436s-15-23.385-24.878-24.379" transform="translate(-978.96 -363.429)" fill="none" stroke="#0d0d0c" stroke-linecap="round" stroke-linejoin="round" stroke-width="2"/>
            <path id="Path_3167" data-name="Path 3167" d="M1119.626,368.968c-11.814,9.229-22.872,29.607-27.607,55.791-6.737,37.257.971,63.666,5.03,87.16,3.608,20.89,9.364,32.813,9.364,32.813s-3.328,5.084-4.512,14.3" transform="translate(-981.788 -363.569)" fill="none" stroke="#0d0d0c" stroke-linecap="round" stroke-linejoin="round" stroke-width="2"/>
            <path id="Path_3168" data-name="Path 3168" d="M1174.353,450.691c-7.136-22.1-14.914-33.625-14.914-33.625" transform="translate(-983.583 -364.801)" fill="none" stroke="#0d0d0c" stroke-linecap="round" stroke-linejoin="round" stroke-width="2"/>
            <path id="Path_3169" data-name="Path 3169" d="M1112.039,570.916c10.826-9.455,35-6.067,43.575-3.248s19.319,10.38,21.891,15.234.476,17.981-10.8,7.867-21.641-18.567-34.025-21.392S1112.039,570.916,1112.039,570.916Z" transform="translate(-982.369 -368.582)" fill="#00000c"/>
            <path id="Path_3170" data-name="Path 3170" d="M1127.789,581.948c10.513-.121,18.6,7.171,29.2,16.867,9.06,8.288,26.482,14.671,26.482,14.671" transform="translate(-982.772 -369.024)" fill="none" stroke="#0d0d0c" stroke-linecap="round" stroke-linejoin="round" stroke-width="2"/>
            <path id="Path_3171" data-name="Path 3171" d="M1111.518,589.905c19.059,10.11,35.588,26.9,33.931,51.09" transform="translate(-982.356 -369.228)" fill="none" stroke="#0d0d0c" stroke-linecap="round" stroke-linejoin="round" stroke-width="2"/>
            <path id="Path_3172" data-name="Path 3172" d="M1087.687,591.681c10.584,18.237,25.749,38.007,39.638,38.7" transform="translate(-981.745 -369.274)" fill="none" stroke="#0d0d0c" stroke-linecap="round" stroke-linejoin="round" stroke-width="2"/>
          </g>
        </g>
      </g>
      <g id="paper" transform="translate(443.816 601.366)">
        <g id="Group_1553" data-name="Group 1553">
          <path id="Path_3173" data-name="Path 3173" d="M567.854,703.323c-44-4.807-95.309-24.139-110.768-30.271a1.584,1.584,0,0,1,.3-3.1l58.363-14.433Z" transform="translate(-455.945 -618.492)"/>
          <path id="Path_3174" data-name="Path 3174" d="M702.936,645.185,600.19,707.461a389.42,389.42,0,0,1-73.952-16.108c-38-11.879-60.013-27.318-66.917-32.675a1.559,1.559,0,0,1,.742-2.793L598.83,617.519Z" transform="translate(-456.015 -617.519)" fill="#fff"/>
          <path id="Path_3175" data-name="Path 3175" d="M687.91,658.388l20.841-12.632-23.032-5.924" transform="translate(-461.831 -618.09)" fill="none" stroke="#0d0d0c" stroke-linecap="round" stroke-linejoin="round" stroke-width="1.806"/>
          <line id="Line_171" data-name="Line 171" y1="15.599" x2="25.736" transform="translate(149.402 71.175)" fill="none" stroke="#0d0d0c" stroke-linecap="round" stroke-linejoin="round" stroke-width="2"/>
          <path id="Path_3176" data-name="Path 3176" d="M530.946,636.8l69.735-19.28,28.491,7.571" transform="translate(-457.866 -617.519)" fill="none" stroke="#0d0d0c" stroke-linecap="round" stroke-linejoin="round" stroke-width="2"/>
        </g>
        <path id="Path_3177" data-name="Path 3177" d="M650.308,628.871c-14.241-2.31-25.125-3.686-25.125-3.686l-33.661,50.979c-.251.381.021.853.537.927,4.866.7,24.5,2.758,47.948,3.7,26.748,1.078,40.775-1.3,40.775-1.3Z" transform="translate(-459.415 -617.715)"/>
        <path id="Path_3178" data-name="Path 3178" d="M628.506,620.871a256.812,256.812,0,0,0,66.669,6.05l-7.357,54.723s-65.37-.193-94.284-8.891a.591.591,0,0,1-.394-.9Z" transform="translate(-459.457 -617.605)" fill="#fff"/>
        <path id="Path_3179" data-name="Path 3179" d="M594.551,669.874l33.993-49a256.812,256.812,0,0,0,66.669,6.05l-6.258,46.547" transform="translate(-459.495 -617.605)" fill="none" stroke="#0d0d0c" stroke-linecap="round" stroke-linejoin="round" stroke-width="1.806"/>
      </g>
      <g id="Group_1555" data-name="Group 1555" transform="translate(642.462 694.136)">
        <text id="ซึ่งเป็นการแสดงถึงการเกิดโรคร้ายแรง_ที่เรารู้จักกันเป็นอย่างดี" data-name="ซึ่งเป็นการแสดงถึงการเกิดโรคร้ายแรง ที่เรารู้จักกันเป็นอย่างดี" transform="translate(288 53)" font-size="48" font-family="Kanit-Light, Kanit" font-weight="300"><tspan x="-596.16" y="0">ซึ่งเป็นการแสดงถึงการเกิดโรคร้ายแรง ที่เรารู้จักกันเป็นอย่างดี</tspan></text>
      </g>
    </g>
  </g>
</svg>
