<svg xmlns="http://www.w3.org/2000/svg" width="1957.309" height="1530.358" viewBox="0 0 1957.309 1530.358">
  <g id="Group_2412" data-name="Group 2412" transform="translate(10416.909 -1822.438)">
    <rect id="Rectangle_32" data-name="Rectangle 32" width="1957.309" height="1108.391" transform="translate(-10416.909 1877.652)" fill="#155aa7"/>
    <path id="Path_900" data-name="Path 900" d="M-9063.067,2474.243l-303.193,291.815v274.5l12.126,312.244h633.4l-337.229-293.368Z" fill="#dd4d4a"/>
    <g id="Group_296" data-name="Group 296" opacity="0.2">
      <g id="Group_294" data-name="Group 294">
        <line id="Line_37" data-name="Line 37" x1="302.265" y2="388.162" transform="translate(-8876.623 1823.052)" fill="none" stroke="#fff" stroke-miterlimit="10" stroke-width="2"/>
        <path id="Path_902" data-name="Path 902" d="M-8907.268,2258.574l-34.359,43.645v741.966l326.874,158.794" fill="none" stroke="#fff" stroke-miterlimit="10" stroke-width="2"/>
        <line id="Line_38" data-name="Line 38" y2="790.434" transform="translate(-8864.552 2254.68)" fill="none" stroke="#fff" stroke-miterlimit="10" stroke-width="2"/>
        <line id="Line_39" data-name="Line 39" y2="109.577" transform="translate(-8772.618 2109.376)" fill="none" stroke="#fff" stroke-miterlimit="10" stroke-width="2"/>
        <line id="Line_40" data-name="Line 40" y2="138.674" transform="translate(-8664.898 1984.941)" fill="none" stroke="#fff" stroke-miterlimit="10" stroke-width="2"/>
        <line id="Line_41" data-name="Line 41" y2="180.23" transform="translate(-8538.297 1823.052)" fill="none" stroke="#fff" stroke-miterlimit="10" stroke-width="2"/>
      </g>
      <g id="Group_295" data-name="Group 295">
        <line id="Line_42" data-name="Line 42" x2="302.265" y2="388.162" transform="translate(-10313.656 1823.052)" fill="none" stroke="#fff" stroke-miterlimit="10" stroke-width="2"/>
        <path id="Path_903" data-name="Path 903" d="M-9980.746,2258.574l34.358,43.645v741.966l-326.873,158.794" fill="none" stroke="#fff" stroke-miterlimit="10" stroke-width="2"/>
        <line id="Line_43" data-name="Line 43" y2="790.434" transform="translate(-10023.463 2254.68)" fill="none" stroke="#fff" stroke-miterlimit="10" stroke-width="2"/>
        <line id="Line_44" data-name="Line 44" y2="621.4" transform="translate(-10115.396 2109.376)" fill="none" stroke="#fff" stroke-miterlimit="10" stroke-width="2"/>
        <line id="Line_45" data-name="Line 45" y2="1073.447" transform="translate(-10223.116 2050.498)" fill="none" stroke="#fff" stroke-miterlimit="10" stroke-width="2"/>
        <line id="Line_46" data-name="Line 46" y2="653.128" transform="translate(-10349.718 1823.052)" fill="none" stroke="#fff" stroke-miterlimit="10" stroke-width="2"/>
        <line id="Line_47" data-name="Line 47" x2="128.818" transform="translate(-9946.388 2302.219)" fill="none" stroke="#fff" stroke-miterlimit="10" stroke-width="2"/>
      </g>
      <line id="Line_48" data-name="Line 48" x1="615.93" transform="translate(-9557.557 3044.186)" fill="none" stroke="#fff" stroke-miterlimit="10" stroke-width="2"/>
    </g>
    <g id="Group_298" data-name="Group 298">
      <path id="Path_904" data-name="Path 904" d="M-8709.24,2254.68l184.563-174.58v788.285l-184.563-44.462Z"/>
      <g id="Group_297" data-name="Group 297">
        <rect id="Rectangle_33" data-name="Rectangle 33" width="80.093" height="569.243" transform="translate(-8789.333 2254.68)" fill="#fff"/>
        <path id="Path_905" data-name="Path 905" d="M-8709.24,2300.362l-47.6,53.1v470.461h-32.488V2254.68h80.093Z" fill="#dd4d4a"/>
        <path id="Path_906" data-name="Path 906" d="M-8732.224,2433.568l-57.109,33.326-17.18,24.144v-46.431l17.18-19.937,32.488-16.865Z" fill="#155aa7"/>
        <path id="Path_907" data-name="Path 907" d="M-8709.24,2254.68l184.563-174.58v-76.817l-264.656,251.4Z" fill="#dd4d4a"/>
        <path id="Path_908" data-name="Path 908" d="M-8789.333,2254.68l-17.18-10.679,314.085-312.554-32.249,71.835Z" fill="#155aa7"/>
        <path id="Path_909" data-name="Path 909" d="M-8709.24,2823.923l184.563,44.462v22.362l-264.656-66.824Z" fill="#fff"/>
        <path id="Path_910" data-name="Path 910" d="M-8524.677,2003.283v887.465l32.249,27.146V1931.447Z" fill="#155aa7"/>
        <path id="Path_911" data-name="Path 911" d="M-8806.513,2244V2832.46l17.18-8.537V2254.68Z" fill="#155aa7"/>
        <path id="Path_912" data-name="Path 912" d="M-8806.513,2832.46l314.085,85.433-32.249-27.146-264.656-66.824Z" fill="#155aa7"/>
        <rect id="Rectangle_34" data-name="Rectangle 34" width="13.949" height="986.446" transform="translate(-8492.428 1931.447)" fill="#155aa7"/>
        <path id="Path_913" data-name="Path 913" d="M-8756.845,2407.806l232.168-134.45v35.364l-232.168,124.848Z" fill="#155aa7"/>
        <path id="Path_914" data-name="Path 914" d="M-8756.845,2433.568h24.621l207.547-106.74V2308.72Z" fill="#fff"/>
      </g>
    </g>
  </g>
</svg>
