<svg id="Group_132" data-name="Group 132" xmlns="http://www.w3.org/2000/svg" width="40" height="39.956" viewBox="0 0 40 39.956">
  <g id="Group_131" data-name="Group 131">
    <path id="Path_602" data-name="Path 602" d="M5296.49,85.478a19.979,19.979,0,1,1,19.989-20.064A20.03,20.03,0,0,1,5296.49,85.478Z" transform="translate(-5276.479 -45.522)" fill="#fff"/>
    <path id="Icon_material-refresh" data-name="Icon material-refresh" d="M23.542,9.02a10.281,10.281,0,1,0,2.673,9.83H23.542a7.706,7.706,0,1,1-7.26-10.28A7.6,7.6,0,0,1,21.7,10.857l-4.138,4.138h8.995V6Z" transform="translate(6.146 38.373) rotate(-98)"/>
  </g>
  <path id="Path_604" data-name="Path 604" d="M5305.836,49.771c-2.175-.975-3.484,1.642-.826,3.582,5.786,4.223,8.019,9.05,8.41,12.266.317,2.6,1.315,2.326,1.47.613a18.3,18.3,0,0,0-2.976-10.556C5309.766,52.21,5307.643,50.58,5305.836,49.771Z" transform="translate(-5276.479 -44.612)" fill="#c9d6e8"/>
  <path id="Path_605" data-name="Path 605" d="M5300.534,47.412c-2.139-.49-3.768,1.846-.813,2.961S5304.254,48.265,5300.534,47.412Z" transform="translate(-5276.479 -44.612)" fill="#c9d6e8"/>
</svg>
