<svg id="Component_3_78" data-name="Component 3 – 78" xmlns="http://www.w3.org/2000/svg" width="59.173" height="39.166" viewBox="0 0 59.173 39.166">
  <path id="Path_600" data-name="Path 600" d="M4468.474,79.886a2.522,2.522,0,0,1-1.442,2.286,2.456,2.456,0,0,1-1.065.242,2.489,2.489,0,0,1-1.6-.584l-13.7-11.44h-7.3a2.517,2.517,0,0,1-2.5-2.529V57.8a2.517,2.517,0,0,1,2.5-2.529h7.3l13.7-11.442a2.486,2.486,0,0,1,2.667-.339,2.525,2.525,0,0,1,1.438,2.286Z" transform="translate(-4440.87 -43.247)" fill="#fff"/>
  <g id="Group_322" data-name="Group 322" transform="translate(-4454.731 253.652)">
    <g id="Group_317" data-name="Group 317" transform="translate(-26 14)">
      <path id="Path_982" data-name="Path 982" d="M4483.319-184.014l-.385-.385a2.944,2.944,0,0,1,0-4.162l9.457-9.457,8.1-8.1a2.942,2.942,0,0,1,4.162,0l.385.385a2.942,2.942,0,0,1,0,4.162l-17.561,17.561A2.944,2.944,0,0,1,4483.319-184.014Zm-.385-21.723.385-.385a2.942,2.942,0,0,1,4.162,0l17.561,17.561a2.942,2.942,0,0,1,0,4.162l-.385.385a2.944,2.944,0,0,1-4.162,0l-17.561-17.561A2.944,2.944,0,0,1,4482.934-205.737Z" transform="translate(34 -53)" fill="#fff"/>
    </g>
  </g>
</svg>
