<svg xmlns="http://www.w3.org/2000/svg" xmlns:xlink="http://www.w3.org/1999/xlink" width="152" height="92" viewBox="0 0 152 92">
  <defs>
    <clipPath id="clip-path">
      <rect id="Rectangle_172" data-name="Rectangle 172" width="152" height="92" transform="translate(111.953 67.629)" fill="none"/>
    </clipPath>
  </defs>
  <g id="Mask_Group_2" data-name="Mask Group 2" transform="translate(-111.953 -67.629)" clip-path="url(#clip-path)">
    <path id="Path_4217" data-name="Path 4217" d="M-189.177,100.025-197.085,69.8C-69.983,36.546,26.83-18.225,90.663-93l23.762,20.287C46.367,7.011-55.78,65.126-189.177,100.025Z" transform="translate(197.086 92.994)" fill="#edde1d"/>
    <g id="Group_2461" data-name="Group 2461" transform="translate(28.211 13.061)">
      <path id="Path_4218" data-name="Path 4218" d="M-127.224,247.834a7.381,7.381,0,0,1-6.855-1.021q-2.893-2.175-4.372-7.253-1.525-5.24-.3-8.631a7.314,7.314,0,0,1,5.253-4.564,9.568,9.568,0,0,1,2.507-.414,10.328,10.328,0,0,1,2.273.215l1.545,5.3a7.992,7.992,0,0,0-4.524-.016,3.706,3.706,0,0,0-2.666,2.232,7.644,7.644,0,0,0,.261,4.608,6.875,6.875,0,0,0,2.272,3.882,3.872,3.872,0,0,0,3.417.391,8.08,8.08,0,0,0,2.032-.908,8.735,8.735,0,0,0,1.785-1.5l1.554,5.336a10.718,10.718,0,0,1-1.827,1.357A10.271,10.271,0,0,1-127.224,247.834Z" transform="translate(139.297 -83.304)" fill="#1d1d1b"/>
      <path id="Path_4219" data-name="Path 4219" d="M-109.263,242.07l-6.42-20.721,7.545-2.338a4.661,4.661,0,0,1,3.206.03,5.839,5.839,0,0,1,2.5,2.064,12.531,12.531,0,0,1,1.755,3.67,9.153,9.153,0,0,1,.409,3.911,6.06,6.06,0,0,1-1.2,3.033,2.993,2.993,0,0,1,.642.559,11.829,11.829,0,0,1,.749.985l3.351,4.921-4.415,1.368-3.077-4.513a1.981,1.981,0,0,0-.693-.685,1.082,1.082,0,0,0-.806-.014l-1.194.37,1.874,6.049Zm.925-11.994,2.23-.691a1.748,1.748,0,0,0,1.216-1.135,3.467,3.467,0,0,0-.106-2.136q-.847-2.734-2.649-2.177l-2.365.733Z" transform="translate(127.211 -79.615)" fill="#1d1d1b"/>
      <path id="Path_4220" data-name="Path 4220" d="M-80.418,234.349l-6.688-20.636,4.217-1.367,6.688,20.637Z" transform="translate(112.585 -76.342)" fill="#1d1d1b"/>
      <path id="Path_4221" data-name="Path 4221" d="M-68.119,226.4l-7.007-20.531,4.084-1.394,7.129,9.206-.01-11.636,4.062-1.386,7.006,20.531-4.2,1.432-3.5-10.266.007,7.543-2.253.769-4.627-5.967,3.5,10.266Z" transform="translate(106.454 -70.362)" fill="#1d1d1b"/>
      <path id="Path_4222" data-name="Path 4222" d="M-33.429,215.805l-7.419-20.386,10.814-3.935,1.658,4.558-6.647,2.419,1.21,3.324,5.827-2.12,1.682,4.621-5.828,2.121,1.209,3.324,6.648-2.419,1.658,4.558Z" transform="translate(88.91 -65.665)" fill="#1d1d1b"/>
      <path id="Path_4223" data-name="Path 4223" d="M5.9,202.694a11.506,11.506,0,0,1-2.83.728,7.672,7.672,0,0,1-2.536-.074l-1.9-4.862a9.968,9.968,0,0,0,2.613.207,7.6,7.6,0,0,0,2.421-.478,4.3,4.3,0,0,0,1.553-.915,1.288,1.288,0,0,0,.087-1.427,1.673,1.673,0,0,0-.724-.91,3.094,3.094,0,0,0-1.259-.3q-.792-.051-2.052-.1A9.1,9.1,0,0,1-1.558,194,4.764,4.764,0,0,1-3.5,192.555a9.772,9.772,0,0,1-1.443-2.618,6.786,6.786,0,0,1-.292-5.112,6.236,6.236,0,0,1,3.795-3.276,11.6,11.6,0,0,1,2.515-.659,11.8,11.8,0,0,1,2.254-.159l1.916,4.893a8.845,8.845,0,0,0-2.307-.073A7.446,7.446,0,0,0,1.057,186a5.814,5.814,0,0,0-1.561.864,1.115,1.115,0,0,0-.239,1.4,1.34,1.34,0,0,0,1.031.917,14.336,14.336,0,0,0,2.437.113A7.728,7.728,0,0,1,6,189.849a5.261,5.261,0,0,1,2.094,1.695,11.762,11.762,0,0,1,1.429,2.679,6.905,6.905,0,0,1,.244,5.023A6.17,6.17,0,0,1,5.9,202.694Z" transform="translate(70.877 -60.156)" fill="#1d1d1b"/>
      <path id="Path_4224" data-name="Path 4224" d="M34.159,191a7.381,7.381,0,0,1-6.925-.268Q24.121,188.887,22.1,184q-2.086-5.043-1.241-8.546a7.315,7.315,0,0,1,4.725-5.109,9.582,9.582,0,0,1,2.447-.684,10.313,10.313,0,0,1,2.282-.034l2.113,5.1a7.993,7.993,0,0,0-4.5.477,3.7,3.7,0,0,0-2.407,2.509,7.641,7.641,0,0,0,.762,4.551,6.876,6.876,0,0,0,2.682,3.611,3.873,3.873,0,0,0,3.439.016,8.07,8.07,0,0,0,1.921-1.123,8.743,8.743,0,0,0,1.611-1.688l2.126,5.135a10.706,10.706,0,0,1-1.669,1.548A10.269,10.269,0,0,1,34.159,191Z" transform="translate(57.454 -54.453)" fill="#1d1d1b"/>
      <path id="Path_4225" data-name="Path 4225" d="M50.723,182.232l-8.7-19.874,10.542-4.613,1.944,4.444-6.48,2.836,1.418,3.24,5.682-2.486,1.971,4.506-5.682,2.486,1.418,3.241,6.481-2.836,1.944,4.444Z" transform="translate(46.495 -48.397)" fill="#1d1d1b"/>
      <path id="Path_4226" data-name="Path 4226" d="M74.283,170.6l-9.134-19.677,3.422-1.589,10.034,8.006-4.836-10.419,4.021-1.866,9.133,19.677-3.443,1.6-10-7.986L78.3,168.738Z" transform="translate(34.66 -41.904)" fill="#1d1d1b"/>
      <path id="Path_4227" data-name="Path 4227" d="M103.364,157.845l-9.583-19.462L104.1,133.3l2.142,4.352L99.9,140.777l1.563,3.173,5.563-2.74,2.172,4.412-5.563,2.74,1.562,3.173,6.347-3.125,2.143,4.352Z" transform="translate(20.006 -35.885)" fill="#1d1d1b"/>
      <path id="Path_4228" data-name="Path 4228" d="M151.962,133.976,141.445,115l5.939-3.293a7.055,7.055,0,0,1,4.016-.974,6.81,6.81,0,0,1,3.905,1.841,19.206,19.206,0,0,1,3.858,5.16q2.711,4.892,2.282,8.056a6.416,6.416,0,0,1-3.544,4.891Zm1.526-6.392,1.567-.868a3.556,3.556,0,0,0,1.409-1.3,2.937,2.937,0,0,0,.178-2.063,12.937,12.937,0,0,0-1.438-3.421,14.931,14.931,0,0,0-2.141-3.107,3.177,3.177,0,0,0-1.878-1.077,3.326,3.326,0,0,0-1.944.48l-1.567.869Z" transform="translate(-4.388 -24.327)" fill="#1d1d1b"/>
      <path id="Path_4229" data-name="Path 4229" d="M189.005,113.981a6.794,6.794,0,0,1-6.3.684q-3.055-1.242-6.047-6.282a19.57,19.57,0,0,1-2.557-6.062,6.922,6.922,0,0,1,.42-4.442,8.5,8.5,0,0,1,7.279-4.322,6.921,6.921,0,0,1,4.1,1.757,19.569,19.569,0,0,1,4.1,5.147q2.992,5.039,2.61,8.322A6.8,6.8,0,0,1,189.005,113.981Zm-2.751-4.634a2.616,2.616,0,0,0,1.422-2.431,9.335,9.335,0,0,0-1.568-4.142,9.7,9.7,0,0,0-2.972-3.5,2.948,2.948,0,0,0-4.238,2.516,9.7,9.7,0,0,0,1.655,4.287,9.331,9.331,0,0,0,2.886,3.36A2.616,2.616,0,0,0,186.254,109.347Z" transform="translate(-21.014 -15.543)" fill="#1d1d1b"/>
      <path id="Path_4230" data-name="Path 4230" d="M217.989,91.992,206.15,73.815l3.162-2.059,11.07,6.5-6.269-9.625,3.715-2.42,11.839,18.179-3.181,2.071-11.032-6.483,6.25,9.6Z" transform="translate(-37.505 -1.548)" fill="#1d1d1b"/>
      <path id="Path_4231" data-name="Path 4231" d="M254.529,71.694a6.8,6.8,0,0,1-6.229,1.155q-3.14-1.009-6.5-5.81a19.563,19.563,0,0,1-3-5.853,6.92,6.92,0,0,1,.086-4.461,8.5,8.5,0,0,1,6.934-4.856,6.923,6.923,0,0,1,4.221,1.445,19.558,19.558,0,0,1,4.473,4.825q3.362,4.8,3.227,8.1A6.8,6.8,0,0,1,254.529,71.694Zm-3.091-4.415a2.617,2.617,0,0,0,1.236-2.531,9.325,9.325,0,0,0-1.874-4.012,9.692,9.692,0,0,0-3.227-3.272,2.947,2.947,0,0,0-4.036,2.827,9.693,9.693,0,0,0,1.971,4.151,9.318,9.318,0,0,0,3.13,3.133A2.616,2.616,0,0,0,251.438,67.279Z" transform="translate(-54.047 5.793)" fill="#1d1d1b"/>
      <path id="Path_4232" data-name="Path 4232" d="M275.27,52.76,265.1,39.167l-3.417,2.557-2.826-3.776,10.384-7.77,2.825,3.776-3.417,2.557L278.819,50.1Z" transform="translate(-64.48 16.893)" fill="#1d1d1b"/>
      <path id="Path_4233" data-name="Path 4233" d="M302.993,32.194,289.315,15.356,298.246,8.1l3.059,3.765-5.491,4.46,2.23,2.746,4.814-3.91,3.1,3.817-4.814,3.91,2.23,2.746,5.491-4.461,3.059,3.765Z" transform="translate(-80.069 28.192)" fill="#1d1d1b"/>
      <path id="Path_4234" data-name="Path 4234" d="M323.69,13.376,309.456-2.994,312.3-5.469,324.164-.561l-7.537-8.668,3.345-2.909L334.206,4.233l-2.864,2.491-11.822-4.9,7.515,8.643Z" transform="translate(-90.378 38.551)" fill="#1d1d1b"/>
      <path id="Path_4235" data-name="Path 4235" d="M350.288-9.716,338.708-22.13l-3.121,2.911-3.217-3.449,9.484-8.846,3.217,3.449-3.121,2.911,11.58,12.415Z" transform="translate(-102.105 48.467)" fill="#1d1d1b"/>
      <path id="Path_4236" data-name="Path 4236" d="M368.453-26l-15.3-15.383,8.159-8.114,3.421,3.44-5.016,4.988,2.494,2.508,4.4-4.373,3.468,3.487-4.4,4.373,2.495,2.508,5.016-4.988,3.42,3.44Z" transform="translate(-112.743 57.669)" fill="#1d1d1b"/>
      <path id="Path_4237" data-name="Path 4237" d="M387.33-44.039,371.505-58.877l5.4-5.763a4.658,4.658,0,0,1,2.8-1.559,5.833,5.833,0,0,1,3.2.556,12.51,12.51,0,0,1,3.34,2.323,9.151,9.151,0,0,1,2.29,3.2,6.07,6.07,0,0,1,.46,3.227,2.992,2.992,0,0,1,.835.168,11.578,11.578,0,0,1,1.138.485l5.346,2.621-3.161,3.372-4.905-2.4a1.976,1.976,0,0,0-.941-.252,1.082,1.082,0,0,0-.708.386l-.855.911,4.62,4.332ZM382.2-54.923l1.6-1.7a1.746,1.746,0,0,0,.5-1.588,3.465,3.465,0,0,0-1.149-1.8q-2.088-1.958-3.379-.582l-1.694,1.806Z" transform="translate(-122.135 66.241)" fill="#1d1d1b"/>
    </g>
    <g id="Group_2462" data-name="Group 2462" transform="translate(243.377 7.795)">
      <path id="Path_4238" data-name="Path 4238" d="M396.728-16.794a.543.543,0,0,0-.063-.3Z" transform="translate(-350.176 46.352)"/>
      <path id="Path_4239" data-name="Path 4239" d="M369.2-46.346,337.826-27.59a8.221,8.221,0,0,0,7.315,1.777c6.171-1.116,12.557-1.669,18.789-2.691a129.7,129.7,0,0,0,19.736-4.621,11.009,11.009,0,0,0,4.269-2.133,20.148,20.148,0,0,1,3.347-3.08L362.41-77.025c-7.8,4.369-14.928,9.351-19.669,16.455-.915,1.371-1.776.868-2.717.2-3.294-2.351-6.849-2.61-10.69-1.5-2.8.811-5.665,1.483-8.51,2.192-1.894.472-4.846.988-5.9,2.612a2.525,2.525,0,0,0-.278,1.941,5.589,5.589,0,0,0,1.282,2.317c3.171,3.751,6.3,7.532,9.516,11.251,3.7,4.278,7.578,8.446,11.208,12.769A10.709,10.709,0,0,0,337.826-27.59ZM321.755-51.9c4.661,4.743,8.417,10.023,12.219,15.276a4.641,4.641,0,0,1,1.379,2.127c-1.125.039-1.426-.712-1.857-1.321A193.942,193.942,0,0,1,321.755-51.9Z" transform="translate(-308.161 77.025)"/>
      <path id="Path_4240" data-name="Path 4240" d="M326.026,4.269c-5.878-8.691-11.671-17.446-19.321-25.133C306.764-17.152,320.446.614,326.026,4.269Z" transform="translate(-304.134 48.281)"/>
      <path id="Path_4241" data-name="Path 4241" d="M315.795-23.994c-.32-.41-.552-1.035-1.65-.759,5.413,8.571,11.481,16.727,17.741,24.782.924,1.189,2.35,3.094,3.662,2.331s-.5-2.459-1.393-3.492C327.737-8.578,321.8-16.306,315.795-23.994Z" transform="translate(-307.942 50.307)"/>
      <path id="Path_4242" data-name="Path 4242" d="M317.394,9.251c-4.343-7.6-10.267-14.324-15.955-21.14C305.32-4.018,311.139,2.737,317.394,9.251Z" transform="translate(-301.439 43.688)"/>
    </g>
    <g id="Group_2463" data-name="Group 2463" transform="translate(62.209 118.539)">
      <path id="Path_4243" data-name="Path 4243" d="M-15.2,214.548a.625.625,0,0,1-.176-.265Z" transform="translate(41.876 -182.813)"/>
      <path id="Path_4244" data-name="Path 4244" d="M-17.253,184.523c-.7-5.473-1.13-10.981-1.751-16.465-.54-4.769-1.189-9.526-1.785-14.288a5.929,5.929,0,0,0-.825-2.527,3.017,3.017,0,0,0-1.6-1.288c-1.888-.577-4.249.845-5.865,1.651-2.429,1.211-4.842,2.46-7.317,3.568-3.392,1.519-5.594,3.893-6.1,7.679-.144,1.081-.357,1.986-1.969,1.517-8.356-2.432-16.777-1.805-25.2-.31l8.727,46.77a20.467,20.467,0,0,1,4.49.263,9.956,9.956,0,0,0,4.423-1.014,107.738,107.738,0,0,0,16.634-8.623c4.934-3.052,9.631-6.551,14.592-9.495a6.647,6.647,0,0,0,3.627-5.818A10.149,10.149,0,0,0-17.253,184.523Zm-2.991-7.22c.153.722.5,1.47-.288,2.131a4.794,4.794,0,0,1-.62-2.443c-1.265-6.278-2.58-12.549-2.9-18.97A196.019,196.019,0,0,1-20.244,177.3Z" transform="translate(69.66 -149.82)"/>
      <path id="Path_4245" data-name="Path 4245" d="M47.669,187.042c-2.371-10.134-4.842-20.264-5.291-30.731C45.039,159.137,48.762,180.874,47.669,187.042Z" transform="translate(12.318 -153.142)"/>
      <path id="Path_4246" data-name="Path 4246" d="M33.34,159.584c-.083-.5-.383-1.116.557-1.582,2.6,9.759,4.447,19.607,6.1,29.5.243,1.459.67,3.765-.767,4s-1.451-2.156-1.6-3.478C36.524,178.49,34.893,169.043,33.34,159.584Z" transform="translate(17.001 -154.008)"/>
      <path id="Path_4247" data-name="Path 4247" d="M57.1,185.495c-2.6-8.37-3.515-17.057-4.649-25.666C55.564,168.123,56.565,176.765,57.1,185.495Z" transform="translate(7.164 -154.943)"/>
    </g>
  </g>
</svg>
