<svg xmlns="http://www.w3.org/2000/svg" xmlns:xlink="http://www.w3.org/1999/xlink" width="493" height="395" viewBox="0 0 493 395">
  <defs>
    <clipPath id="clip-path">
      <rect id="Rectangle_171" data-name="Rectangle 171" width="493" height="395" transform="translate(0.094 80.41)" fill="none"/>
    </clipPath>
  </defs>
  <g id="Mask_Group_2" data-name="Mask Group 2" transform="translate(-0.094 -80.41)" clip-path="url(#clip-path)">
    <g id="Group_4" data-name="Group 4" transform="translate(79.41) rotate(16)">
      <path id="Path_1" data-name="Path 1" d="M0,0C209.484,128.518,432.724,185.148,651.842,214.217" transform="translate(67.828 40.399)" fill="none" stroke="#edde1d" stroke-miterlimit="10" stroke-width="64"/>
      <g id="Group_1" data-name="Group 1" transform="translate(138.551 69.426)">
        <path id="Path_2" data-name="Path 2" d="M9.954,47.221Q1.673,43,.284,34.967T4.3,16.322Q9.887,5.372,17.126,1.7t15.661.617A21.566,21.566,0,0,1,37.54,5.5a23.194,23.194,0,0,1,3.4,3.861l-5.65,11.086a18,18,0,0,0-7.4-7.007q-4.307-2.2-7.819-.451t-6.682,7.963q-3.1,6.083-2.262,9.875a8.722,8.722,0,0,0,5,5.914,18.189,18.189,0,0,0,4.734,1.647,19.647,19.647,0,0,0,5.247.29L20.426,49.833a24.136,24.136,0,0,1-5.092-.594A23.132,23.132,0,0,1,9.954,47.221Z" transform="translate(0 0)" fill="#1d1d1b"/>
        <path id="Path_3" data-name="Path 3" d="M0,44.052,21.14,0,37.18,7.7a10.489,10.489,0,0,1,5.248,4.959A13.13,13.13,0,0,1,43.4,19.9a28.176,28.176,0,0,1-2.725,8.748,20.591,20.591,0,0,1-5.315,7.086,13.65,13.65,0,0,1-6.62,3.177,6.785,6.785,0,0,1,.2,1.908,26.5,26.5,0,0,1-.271,2.774l-2,13.26-9.384-4.5,1.832-12.165a4.437,4.437,0,0,0-.1-2.192,2.439,2.439,0,0,0-1.31-1.26l-2.538-1.217L9,48.371Zm19.9-18.39,4.74,2.275a3.933,3.933,0,0,0,3.745-.012,7.8,7.8,0,0,0,3.1-3.69q2.789-5.813-1.042-7.652l-5.026-2.413Z" transform="translate(22.754 8.791)" fill="#1d1d1b"/>
        <path id="Path_4" data-name="Path 4" d="M0,44.413,20.368,0l9.076,4.163L9.075,48.575Z" transform="translate(53.016 22.815)" fill="#1d1d1b"/>
        <path id="Path_5" data-name="Path 5" d="M0,44.808,19.485,0,28.4,3.875,26.3,30.016,43.934,10.632,52.8,14.486,33.313,59.295l-9.156-3.982,9.742-22.4L22.469,45.477,17.55,43.338,18.9,26.385,9.156,48.79Z" transform="translate(66.166 28.544)" fill="#1d1d1b"/>
        <path id="Path_6" data-name="Path 6" d="M0,45.271,18.384,0,42.4,9.752l-4.11,10.122L23.524,13.88l-3,7.381,12.94,5.255L29.3,36.779,16.359,31.524l-3,7.381L28.124,44.9l-4.11,10.122Z" transform="translate(103.64 44.235)" fill="#1d1d1b"/>
        <path id="Path_7" data-name="Path 7" d="M9.977,47.784a25.994,25.994,0,0,1-5.838-3.038A17.3,17.3,0,0,1,0,40.805L4.126,29.792a22.468,22.468,0,0,0,4.069,4.279,17.11,17.11,0,0,0,4.777,2.843,9.685,9.685,0,0,0,3.981.8q1.495-.127,2.293-2.26a3.764,3.764,0,0,0,.158-2.615,6.963,6.963,0,0,0-1.653-2.4q-1.25-1.278-3.288-3.258A20.464,20.464,0,0,1,10.563,22a10.717,10.717,0,0,1-1.087-5.348A22.046,22.046,0,0,1,11,10.086q2.529-6.749,7.2-9.009T29.489,1.3A26.19,26.19,0,0,1,34.7,3.976,26.552,26.552,0,0,1,38.715,7.1L34.563,18.186a19.874,19.874,0,0,0-3.758-3.6,16.78,16.78,0,0,0-3.815-2.078,13.119,13.119,0,0,0-3.916-.9q-1.729-.08-2.5,1.981a3.013,3.013,0,0,0,.346,3.086,32.2,32.2,0,0,0,3.915,3.857,17.4,17.4,0,0,1,4.635,5.87,11.836,11.836,0,0,1,.96,5.991,26.451,26.451,0,0,1-1.636,6.637q-2.343,6.253-7.149,8.787T9.977,47.784Z" transform="translate(140.711 61.091)" fill="#1d1d1b"/>
        <path id="Path_8" data-name="Path 8" d="M12.149,48.815Q3.381,45.732.936,37.956t1.5-19.014Q6.515,7.347,13.2,2.74t15.6-1.47A21.546,21.546,0,0,1,33.942,3.8a23.239,23.239,0,0,1,3.88,3.375L33.7,18.912a17.994,17.994,0,0,0-8.263-5.961q-4.56-1.6-7.808.593t-5.564,8.78Q9.8,28.767,11.132,32.412a8.72,8.72,0,0,0,5.745,5.2,18.193,18.193,0,0,0,4.911,1,19.649,19.649,0,0,0,5.24-.411l-4.152,11.81a24.12,24.12,0,0,1-5.126.089A23.182,23.182,0,0,1,12.149,48.815Z" transform="translate(172.432 72.329)" fill="#1d1d1b"/>
        <path id="Path_9" data-name="Path 9" d="M0,46.407,15.291,0,39.906,8.11,36.487,18.487,21.355,13.5l-2.494,7.566,13.267,4.371-3.466,10.52L15.4,31.588,12.9,39.154,28.035,44.14,24.616,54.517Z" transform="translate(198.059 78.606)" fill="#1d1d1b"/>
        <path id="Path_10" data-name="Path 10" d="M0,46.709,14.342,0l8.123,2.494,4.744,28.521L34.8,6.282l9.544,2.93L30.006,55.921l-8.173-2.51L17.116,24.979,9.546,49.64Z" transform="translate(225.466 87.321)" fill="#1d1d1b"/>
        <path id="Path_11" data-name="Path 11" d="M0,46.983,13.417,0,38.339,7.117l-3,10.506-15.32-4.376L17.83,20.908l13.431,3.835L28.219,35.4,14.788,31.559,12.6,39.22l15.32,4.375-3,10.506Z" transform="translate(259.817 97.508)" fill="#1d1d1b"/>
        <path id="Path_12" data-name="Path 12" d="M0,47.45,11.662,0,26.516,3.651a15.889,15.889,0,0,1,8.127,4.537,15.339,15.339,0,0,1,3.636,9.02q.612,5.738-1.523,14.431-3.006,12.231-8.561,16.8T14.853,51.1Zm12.3-8.227,3.921.963a8,8,0,0,0,4.319.007,6.618,6.618,0,0,0,3.451-3.136A29.1,29.1,0,0,0,26.853,29.2a33.667,33.667,0,0,0,1.22-8.412,7.161,7.161,0,0,0-1.453-4.655,7.5,7.5,0,0,0-3.949-2.182l-3.92-.964Z" transform="translate(318.957 113.263)" fill="#1d1d1b"/>
        <path id="Path_13" data-name="Path 13" d="M12.956,49.683q-8.292-1.865-11.37-8.625T1.406,21.42q2-8.883,5.194-13.88A15.6,15.6,0,0,1,14.158.92,17.108,17.108,0,0,1,24.016.534a17.111,17.111,0,0,1,8.743,4.573,15.6,15.6,0,0,1,3.995,9.221Q37.5,20.21,35.5,29.093q-2.9,12.879-8.6,17.662T12.956,49.683ZM15.621,37.84a5.891,5.891,0,0,0,6.088-1.78q2.357-2.619,3.842-9.206,1.581-7.031.556-10.334a5.92,5.92,0,0,0-4.756-4.142,5.919,5.919,0,0,0-6.072,1.7q-2.344,2.545-3.925,9.577-1.484,6.589-.474,9.965A5.892,5.892,0,0,0,15.621,37.84Z" transform="translate(356.232 123.784)" fill="#1d1d1b"/>
        <path id="Path_14" data-name="Path 14" d="M0,47.914,9.578,0,17.91,1.666l7.584,27.9L30.565,4.2l9.79,1.958L30.779,54.066l-8.385-1.675L14.847,24.575l-5.056,25.3Z" transform="translate(400.4 131.595)" fill="#1d1d1b"/>
        <path id="Path_15" data-name="Path 15" d="M13.688,49.927Q5.327,48.406,1.97,41.781T.976,22.167Q2.6,13.209,5.588,8.084a15.587,15.587,0,0,1,7.279-6.928A17.1,17.1,0,0,1,22.7.361a17.1,17.1,0,0,1,8.925,4.206A15.6,15.6,0,0,1,36,13.614q.987,5.847-.641,14.8Q33,41.408,27.5,46.423T13.688,49.927ZM15.86,37.983a5.891,5.891,0,0,0,6.01-2.031q2.248-2.715,3.457-9.358,1.289-7.091.127-10.349A5.923,5.923,0,0,0,20.529,12.3a5.922,5.922,0,0,0-6,1.956Q12.3,16.9,11.009,23.992q-1.209,6.644-.06,9.976A5.893,5.893,0,0,0,15.86,37.983Z" transform="translate(437.986 140.277)" fill="#1d1d1b"/>
        <path id="Path_16" data-name="Path 16" d="M3.2,49.776,9.482,12.058,0,10.477,1.747,0,30.56,4.8,28.815,15.28,19.332,13.7,13.046,51.418Z" transform="translate(476.149 144.514)" fill="#1d1d1b"/>
      </g>
      <g id="Group_2" data-name="Group 2" transform="translate(444.48 164.39)">
        <path id="Path_17" data-name="Path 17" d="M0,.533A1.253,1.253,0,0,0,.356,0Z" transform="translate(75.855 63.519)"/>
        <path id="Path_18" data-name="Path 18" d="M.009,73.31C.17,78.393,2.525,82.2,7.329,85.055c10.014,5.942,19.494,13,29.452,19.163a217.449,217.449,0,0,0,33.573,17.405c2.767,1.1,5.885,2.326,8.926,2.047,3.087-.284,5.89-.91,9.063-.531l17.614-94.4c-16.995-3.018-33.99-4.283-50.856.626-3.255.947-3.684-.881-3.975-3.062-1.019-7.641-5.464-12.433-12.31-15.5-5-2.238-9.866-4.758-14.768-7.2C20.785,1.976,16.02-.894,12.209.271a6.089,6.089,0,0,0-3.226,2.6,11.967,11.967,0,0,0-1.664,5.1c-1.2,9.613-2.514,19.213-3.6,28.839C2.462,47.88,1.6,59,.181,70.044A20.569,20.569,0,0,0,.009,73.31Z" transform="translate(23.745)"/>
        <path id="Path_19" data-name="Path 19" d="M.4,62.025C5.18,41.571,10.169,21.125,11.073,0,5.7,5.7-1.811,49.576.4,62.025Z" transform="translate(8.233 6.396)"/>
        <path id="Path_20" data-name="Path 20" d="M13.943,3.193C14.109,2.176,14.714.94,12.818,0,7.58,19.7,3.842,39.575.512,59.537c-.492,2.945-1.354,7.6,1.547,8.066,2.922.47,2.928-4.351,3.236-7.02C7.517,41.351,10.806,22.284,13.943,3.193Z" transform="translate(14.155 8.062)"/>
        <path id="Path_21" data-name="Path 21" d="M0,51.8C5.257,34.909,7.1,17.375,9.383,0,3.095,16.74,1.075,34.183,0,51.8Z" transform="translate(0 9.862)"/>
      </g>
      <g id="Group_3" data-name="Group 3">
        <path id="Path_22" data-name="Path 22" d="M.007.606A1.088,1.088,0,0,1,.134,0Z" transform="translate(73.803 59.052)"/>
        <path id="Path_23" data-name="Path 23" d="M68.058,51.145h0Q59.19,61.89,50.32,72.636c5.923-9.442,11.924-18.81,20.378-26.747l3.886-3.432A19.152,19.152,0,0,1,68.058,51.145ZM44.567,61.922,37.2,69.764A12.484,12.484,0,0,1,44.567,61.922Zm-3.761,50.643c15.45-22.431,34.14-42.928,52.109-63.957C77.019,70.743,61.323,93.1,40.806,112.564Zm3.972-20.451c9.508-11.774,18.892-23.628,29.5-34.708L80.2,49.479l.822.521L73.81,59.658C61.216,74.992,49.274,90.735,35.448,105.307A132.95,132.95,0,0,1,44.778,92.114Zm65.477,5.242c7.327-8.723,15.147-17.138,22.622-25.771,6.5-7.507,12.807-15.139,19.207-22.71A11.279,11.279,0,0,0,154.67,44.2a5.094,5.094,0,0,0-.561-3.917c-2.12-3.278-8.079-4.321-11.9-5.273-5.742-1.431-11.517-2.789-17.176-4.425-7.754-2.244-14.93-1.72-21.578,3.025-1.9,1.355-3.636,2.371-5.482-.4C88.4,18.874,74.008,8.818,58.273,0L0,78.082c2.8,1.777,4.532,4.026,6.754,6.216,2.189,2.157,5.588,3.3,8.618,4.3A261.631,261.631,0,0,0,55.206,97.93c12.577,2.062,25.467,3.18,37.923,5.431,5.974,1.08,10.749-.1,14.764-3.586A21.707,21.707,0,0,0,110.255,97.356Zm6.375-14.192c-.87,1.23-1.478,2.744-3.748,2.667a9.373,9.373,0,0,1,2.784-4.294c7.673-10.6,15.254-21.26,24.663-30.832A391.074,391.074,0,0,1,116.63,83.164Z"/>
        <path id="Path_24" data-name="Path 24" d="M0,50.727C11.863,33.184,23.557,15.515,39,0,38.878,7.492,11.262,43.348,0,50.727Z" transform="translate(123.582 55.339)"/>
        <path id="Path_25" data-name="Path 25" d="M40.808,1.67c.646-.827,1.113-2.09,3.329-1.533C33.213,17.437,20.965,33.9,8.33,50.155,6.466,52.554,3.588,56.4.939,54.861-1.728,53.31,1.953,49.9,3.75,47.813,16.7,32.786,28.686,17.188,40.808,1.67Z" transform="translate(111.109 51.438)"/>
        <path id="Path_26" data-name="Path 26" d="M0,42.667C8.766,27.337,20.722,13.756,32.2,0,24.368,15.886,12.624,29.519,0,42.667Z" transform="translate(135.565 64.182)"/>
      </g>
    </g>
  </g>
</svg>
