<svg xmlns="http://www.w3.org/2000/svg" width="97" height="38" viewBox="0 0 97 38">
  <g id="Group_176" data-name="Group 176" transform="translate(0 0)">
    <rect id="Rectangle_24" data-name="Rectangle 24" width="97" height="38" rx="19" transform="translate(0 0)" fill="#fff"/>
    <path id="Path_674" data-name="Path 674" d="M2.479.041C.354-.382-1.5,2.551,1.789,3.726S8.821,7.62,10.332,11.02a11.128,11.128,0,0,1,0,8.778c-.855,1.855.526,1.916,1.971.247s2.629-6.182.986-10.447A15.048,15.048,0,0,0,2.479.041Z" transform="matrix(0.998, -0.07, 0.07, 0.998, 78.504, 3.567)" fill="#abb5c4" opacity="0.5"/>
    <path id="Path_675" data-name="Path 675" d="M875.913,637.458c-2.773-.256-4.09,1.756-1.354,2.762s3.8-.644,3.464-1.487C877.778,638.125,877.23,637.579,875.913,637.458Z" transform="translate(-800.309 -635.163)" fill="#abb5c4" opacity="0.5"/>
  </g>
</svg>
