<svg xmlns="http://www.w3.org/2000/svg" xmlns:xlink="http://www.w3.org/1999/xlink" width="1920" height="718" viewBox="0 0 1920 718">
  <defs>
    <clipPath id="clip-path">
      <rect id="Rectangle_202" data-name="Rectangle 202" width="1920" height="718" transform="translate(0 362)" fill="none"/>
    </clipPath>
  </defs>
  <g id="Mask_Group_4" data-name="Mask Group 4" transform="translate(0 -362)" clip-path="url(#clip-path)">
    <g id="Group_2858" data-name="Group 2858">
      <g id="No.1" transform="translate(-5224.727 5.196)">
        <path id="Path_827" data-name="Path 827" d="M6855.786,481.853,6831.04,363.82l169.9,128.023Z"/>
        <g id="Group_267" data-name="Group 267">
          <path id="Path_828" data-name="Path 828" d="M6937.269,534.729l56.739-126.739-82.367-48.865-55.855,122.728Z" fill="#ed759d"/>
          <path id="Path_829" data-name="Path 829" d="M6897.547,485.165l30.563-66.277-13.758-4.8,6.616-14.347,31.279,11.345-38.291,83.037Z" fill="#fff"/>
          <path id="Path_830" data-name="Path 830" d="M6994.008,407.99l6.936,83.853-63.675,42.885Z" fill="#a52959"/>
          <path id="Path_831" data-name="Path 831" d="M6937.269,534.729l44.176-57.492,12.563-69.246Z"/>
          <path id="Path_832" data-name="Path 832" d="M7000.943,491.843l-27.185-20.484,20.25-63.369Z"/>
        </g>
      </g>
      <g id="No.2" transform="translate(-5224.727 5.196)">
        <path id="Path_833" data-name="Path 833" d="M5319.812,689.32l-56.039-83.61,96.261-51.685,104.934,125.3Z"/>
        <g id="Group_269" data-name="Group 269">
          <path id="Path_834" data-name="Path 834" d="M5383.487,732.206l-56.739-126.739,82.367-48.865,55.854,122.728Z" fill="#ed759d"/>
          <path id="Path_835" data-name="Path 835" d="M5326.748,605.467l-6.936,83.853,63.675,42.885Z" fill="#a52959"/>
          <path id="Path_836" data-name="Path 836" d="M5326.748,605.467l17.013,67.75-23.949,16.1,26.688-8.473,36.987,51.358Z"/>
        </g>
        <path id="Path_837" data-name="Path 837" d="M5388.7,698.885l-3.59-8.295a64.087,64.087,0,0,1,2.727-18.289q2.7-9,6.382-18.5,2.736-7.187,4.457-11.866a58.348,58.348,0,0,0,2.4-7.954,19.124,19.124,0,0,0,.351-6.116,23.218,23.218,0,0,0-1.878-6.417q-5.136-11.87-19.26-3.639a54.494,54.494,0,0,0-9.046,6.63,75.96,75.96,0,0,0-7.795,8.138l-6.572-15.187a75.75,75.75,0,0,1,9.461-8.789,93.74,93.74,0,0,1,11.137-7.688q13.4-7.812,23.233-4.67t15.075,15.266a29.425,29.425,0,0,1,2.323,16.624,83.824,83.824,0,0,1-5.061,17.572q-2.92,7.455-5.5,14.31a64.6,64.6,0,0,0-3.528,13.322l31.48-18.344,5.744,13.273Z" fill="#fff"/>
      </g>
      <g id="Group_2602" data-name="Group 2602" transform="translate(-7829.248 3.714)">
        <path id="Path_5640" data-name="Path 5640" d="M8442.508,1260.194c-15.045,18.2-24.555,2.472-33.227-42.416s-6.312-87.018,79.638-156.78,117.951-116.845,141.6-149.212,18.3-50.345,43.471-69.179,61.591-29.764,69.992-29.906,38.78,7.766,38.78,7.766l15.316,6.675,47.267,18.333-55.608,2.288-16.709,11.362s21.372-.01,34.206,1.407,41.979,8.808,41.979,8.808l-7.315,3.51-48.178,9.867s-26.506,21.905-27.357,22.307,2.245,3.285,8.774.551,33.273-4.215,37.967-.182l-8.3,6.69-81.1,32.891-54.6,51.492-30.265,84.149s14.565-16.274,26.123-16.334,77.7-23.135,122.445-61.765,129.5-50.359,129.5-50.359-26.339-22.6-30.847-58.667c-2.176-17.412-1.088-40.039-1.088-40.039l-.227-23.733s-26-17.779.813-51.2a20.2,20.2,0,0,0,2.134-23.216s-37.806-51.665-22.954-99.7c27.516-88.992,117.608-118.013,172.444-123.795,64.456-6.8,86.691,23.041,86.691,23.041l9.066,10.319s-19.006-4.47-24.552-14.945,23.864-7.671,23.864-7.671l62.5,5.607s-13.8-17.466-31.739-17.17-28.517,2.468-36.939-1.53-5.021-9.028.682-13.657,56.446-3.9,56.446-3.9l-28.352-4.346,20.787-17.762,123.61,69.876-61.326,37.239-78.972,31.94-28.837,118.4L9082.56,912.307s86.409-33.671,74.632-19.553,14.786,31.124,20.6,31.162,34.789-19.084,51.645-26.576,102.284-54.3,122.351-62.844,25.238-10.521,25.238-10.521-27.368-19.524-56.2-87.484-58.14-98.619-58.14-98.619-44.77-14.355-56.393-20.324-4.744-15.011-4.744-15.011l36.77,2.345,96.721,21.308,159.08,169.632,8.7,87.657L8877.141,1199.5Z"/>
        <path id="Path_5641" data-name="Path 5641" d="M9208.087,613.692c35.609,26.217,48.062,70.328,45.748,98.36s-78.707-13.415-78.707-13.415l-73.476-95.9,73.476-24.653Z"/>
        <g id="Group_2552" data-name="Group 2552">
          <g id="Group_2551" data-name="Group 2551">
            <path id="Path_5642" data-name="Path 5642" d="M9322.758,569.334c-10.28-27.186-32.812-55.071-44.545-63.607s-39.546-25.35-45.8-27.6-30.656,1.158-32.668,4.919c0,0-15.152-.582-22.773,5.563a16.192,16.192,0,0,0-6.15,14.575s-36.8,6.706-44.073,12.626,5.045,11.285,15.8,10.017,30.4-4.811,37.328-3.611,31.711,20.956,31.711,20.956-31.353-7.387-45.3-8.008-35.936,2.713-40.6,3.5-3.577,8.22,2.632,11.363,36.188,3.038,41.154,5.012,33.612,20.468,39.637,24.47a110.413,110.413,0,0,1,10.554,7.981s-11.494.51-19.459-4.212-21.18-11.481-31.753-11.072-11.937,6.709,2.237,14.575,29.049,22.178,49.527,27.211,59.09,19.488,73.308,25.764,39.922-25.734,46.452-31.915S9331.647,592.844,9322.758,569.334Z" fill="#f9cfcc"/>
            <path id="Path_5643" data-name="Path 5643" d="M9175.128,501.811A55.176,55.176,0,0,1,9182.97,500a33.47,33.47,0,0,1,8.129-.2,32.7,32.7,0,0,1,7.982,1.82c2.586.96,4.964,2.152,7.389,3.3q7.191,3.579,14.147,7.553c4.644,2.641,9.23,5.381,13.7,8.327-4.871-2.217-9.66-4.571-14.435-6.949s-9.521-4.8-14.295-7.138c-2.375-1.172-4.774-2.375-7.172-3.33a35.014,35.014,0,0,0-7.512-2.044,37.97,37.97,0,0,0-7.84-.368C9180.424,501.086,9177.783,501.472,9175.128,501.811Z" fill="#0d0d0c"/>
            <path id="Path_5644" data-name="Path 5644" d="M9205.632,483.59a39.322,39.322,0,0,1,12.053.956,31.026,31.026,0,0,1,5.824,1.974,20.612,20.612,0,0,1,2.732,1.517q1.282.854,2.5,1.745c3.229,2.416,6.324,4.956,9.342,7.6s5.967,5.351,8.764,8.24c-3.331-2.25-6.553-4.624-9.746-7.027l-4.779-3.608c-1.582-1.214-3.164-2.425-4.768-3.591q-1.187-.9-2.391-1.727a22.873,22.873,0,0,0-2.479-1.445,36.444,36.444,0,0,0-5.415-2.175A67.634,67.634,0,0,0,9205.632,483.59Z" fill="#0d0d0c"/>
            <path id="Path_5645" data-name="Path 5645" d="M8653.69,908.624c9.077-27.611,30.365-56.458,41.712-65.5s38.4-27.06,44.544-29.585,30.678-.188,32.853,3.482c0,0,15.112-1.246,23,4.559a16.193,16.193,0,0,1,6.785,14.291s37.058,5.085,44.584,10.681-4.546,11.5-15.352,10.7-30.579-3.473-37.449-1.97-30.762,22.326-30.762,22.326,31-8.755,44.9-9.986,36.021,1.134,40.714,1.718,3.935,8.054-2.131,11.467-36.021,4.622-40.894,6.812-32.685,21.923-38.526,26.185a110.543,110.543,0,0,0-10.194,8.436s11.5.005,19.255-5.062,20.656-12.4,31.237-12.453,12.22,6.179-1.595,14.659-28.049,23.431-48.287,29.357-58.178,22.06-72.107,28.954-41.012-23.958-47.807-29.847S8645.84,932.5,8653.69,908.624Z" fill="#f9cfcc"/>
            <path id="Path_5646" data-name="Path 5646" d="M8793.407,834.91a53.651,53.651,0,0,0-13.841,3.831,133.909,133.909,0,0,0-13.029,6.054c-4.2,2.32-8.5,4.6-12.8,6.789s-8.668,4.311-13.122,6.239c4.031-2.705,8.166-5.216,12.336-7.66s8.367-4.793,12.654-7.11a88.93,88.93,0,0,1,13.453-5.719,56.992,56.992,0,0,1,7.077-1.866A28.622,28.622,0,0,1,8793.407,834.91Z" fill="#0d0d0c"/>
            <path id="Path_5647" data-name="Path 5647" d="M8769.144,818.85c-4.016,1.436-7.807,3.316-11.647,5.113-3.818,1.841-7.645,3.67-11.45,5.543l-11.464,5.538c-3.823,1.853-7.67,3.639-11.489,5.541a93.281,93.281,0,0,1,10.766-6.923c3.7-2.116,7.489-4.071,11.314-5.953,3.841-1.847,7.728-3.61,11.7-5.171A58.538,58.538,0,0,1,8769.144,818.85Z" fill="#0d0d0c"/>
            <path id="Path_5648" data-name="Path 5648" d="M8715.412,964.612c-17.718,9.746-58.355,80.358-72.255,128.865s-46.588,119.5-102.691,158.3-101.51,41.636-105.442,31.62-11.689-83.782,40.226-141.232c77.041-85.256,156.2-192.042,164.31-205.738S8715.412,964.612,8715.412,964.612Z" fill="#f9cfcc"/>
            <path id="Path_5649" data-name="Path 5649" d="M8434.405,1281.391c4.187,19.7,84.258,35.49,185.605,13.18s253.5-66.643,253.5-66.643,27.247-193.072-.722-185.72-106.453,26.686-193.329,66.426-202.725,93.6-202.725,93.6Z" fill="#f9cfcc"/>
            <path id="Path_5650" data-name="Path 5650" d="M8629.9,1131.381c-6.271,14.338-13.737,33.5-20.348,42.857,0,0,45.749,7.231,72.106,43.2s25.976,55.956,25.976,55.956l29.187-7.673-29.314-127.992-34.375-28.555-22.58,11.879Z"/>
            <path id="Path_5651" data-name="Path 5651" d="M9238.927,957.856c77.656-49.353,210.266-128.177,243.26-141.505s106.478,35.453,105.9,53.225-88.568,111.387-140.983,147.109c-117.559,80.117-174.938,99.512-263.154,165.9Z" fill="#f9cfcc"/>
            <path id="Path_5652" data-name="Path 5652" d="M9420.988,842.97c37.565,1.571,51.086,154.679,51.086,154.679l-8.934,7.207-64.092-21.187L9400,860.392Z"/>
            <path id="Path_5653" data-name="Path 5653" d="M9252.738,610.726c17.4,15.453,66.445,71.362,95.4,112.806,28.9,41.362,68.425,108.487,130.873,135.932s107.567,21.611,109.528,11.03,4.637-67.264-66.3-131.028c-85.46-76.816-189.811-158.9-200.376-170.809S9252.738,610.726,9252.738,610.726Z" fill="#f9cfcc"/>
            <path id="Path_5654" data-name="Path 5654" d="M8940.292,722.848c-3.1,13.719-.286,35.177.373,43.454s4.616,11.787.763,21.034-19.236,23.258-21.926,27.865,8.316,15.148,8.316,15.148.4,22.074.3,47.69,10.9,46.44,20.437,51.827,10.725,14.186,54.172,8.947a46.5,46.5,0,0,1-7.106,34.059c-11.238,16.6-25.07,21.387-51,26.076,0,0,33.716,59.018,141.157,59.723s127.105-85.213,127.105-85.213-52.6-14.624-62.293-21.832-18.641-37.527-10.831-63.456c0,0,45.13-24.076,73.078-77.251s3.5-168.343-83.489-187.68S8955.707,654.659,8940.292,722.848Z" fill="#f9cfcc"/>
            <path id="Path_5655" data-name="Path 5655" d="M8933,760.822c9.671,22.7,30,31.19,35.739,30.2s-1.675-5.73-7.229-17.445-9.6-42.759-9.6-42.759l-16.124-10.2Z"/>
            <path id="Path_5656" data-name="Path 5656" d="M9008.035,938.878a1,1,0,0,1-.118-1.994c27.021-3.237,52.28-24.6,52.532-24.811a1,1,0,1,1,1.3,1.519c-.256.22-25.977,21.97-53.593,25.279A.989.989,0,0,1,9008.035,938.878Z" fill="#db8882"/>
            <path id="Path_5657" data-name="Path 5657" d="M8993.663,975.606c20.214,33.319,128.793,32.125,167.563-7.981l3.043-9.6,14.969,5.753s-4.146,31.51-5.1,32.426-124.18,52.094-124.18,52.094l-88-29.756,10.7-26.845s6.479-3.735,13.2-8.645S8993.663,975.606,8993.663,975.606Z"/>
            <path id="Path_5658" data-name="Path 5658" d="M9037.258,767.777c3.982,26.688,35.382,61.768,44.981,93.48s6.735,45.14,6.735,45.14a74.768,74.768,0,0,0,52.1-2.537s45.778-28.617,66.924-60.279,43.588-85.237,43.588-85.237Z" fill="#c95380"/>
            <path id="Path_5659" data-name="Path 5659" d="M8969.587,715.822c-2.544,18.392-3.686,40.3,22.027,54.783s27.276,20.509,25.32,24.342.067,11.037,8.251,0,1.531-23.755,1.531-23.755-2.593,6.326,10.541,11.8,58.619,29.2,73.395,40.435,5.123-20.329,5.123-20.329l9.913,35.478,15.741,12.128,8-25.432,57.486-13.845s6.064,3.391,5.674,3.685-.185,5.9,4.456,11.606l7.772-22.073-35.381-48.787-212.869-84.518Z"/>
            <path id="Path_5660" data-name="Path 5660" d="M9410.843,1091.9l-14.869,36.873a.029.029,0,0,1-.018.017l-1.843,2.043-66.466,73.465-6.554,7.25-445.2,78.068-78.385-236.355c35.151-12.06,50.728-23.719,103.691-38.972,31.016-8.927,64.323-14.956,64.323-14.956s31.316,30.122,98.008,21.688,121.385-62.46,121.385-62.46,4.812-1.684,14.151-5.7q1.784-.762,3.781-1.643l.008,0c10.787-4.736,26.335-12.03,46.353-22.561a83.1,83.1,0,0,1,19.182-6.993,112.607,112.607,0,0,1,24.526-3.066l15.541,22.84Z" fill="#fff"/>
            <path id="Path_5661" data-name="Path 5661" d="M8883.842,1060.754c-30.866-17.59-44.981-25.22-93.149-4.682-29.782,12.7-114.5,45.664-128.658,50.128s-11.483,14.857-11.483,14.857,22.258-1.088,31.573,24.625,10.6,65.1,20.248,84.794,19.826,51.112,19.47,66.769,26.861,16.977,37.708,4.909c0,0,22.708-5.97,56.983-6.829s56.751-5.284,80.007-9.175,31.678-52.053,36.828-95.65S8917.659,1080.026,8883.842,1060.754Z" fill="#fff"/>
            <path id="Path_5662" data-name="Path 5662" d="M9188.715,982.806c-67.6,92.823-207.934,74.066-231.5,81.1s-21.972,24.663-21.972,24.663c19.683,46.956,12.266,105.939,11.676,110.223.127-1.952.872-15.468-1.205-42.415-1.769-22.945-11.916-41.979-28.253-53.971a67.6,67.6,0,0,0-14.833-8.242c-12.844-5.174-51.242-.953-89.377,6.555-35.95,7.072-71.665,17.071-85.533,24.859-28.564,16.058-15.9,27.18-16.575,46.037-.651,18.322,5.109,46.959,5.433,48.566a282.825,282.825,0,0,1-9.974-37.993c-3.876-20.786-7.605-42.841-16.574-52.02-8.21-8.419-17.822-2.906-14.023,4.033a32.242,32.242,0,0,0-25.452-13.143s-2.679-10.4,11.48-14.861,98.876-37.429,128.663-50.128q3.526-1.5,6.818-2.81a.11.11,0,0,1,.047-.013c4.165-1.433,8.058-2.861,11.766-4.282,27.575-10.59,45.22-21.236,91.879-34.677,31.016-8.927,64.323-14.956,64.323-14.956s31.316,30.122,98.008,21.688c38.1-4.817,72.291-24.517,94.6-40.526Z" fill="#c9d6e8"/>
            <path id="Path_5663" data-name="Path 5663" d="M8972.65,991.694c12.666,20.283,58.356,32.539,133.644,12.313s57.975-45.985,57.975-45.985l-9.036-3.774s5.765-5.906,18.183-1.529,17.632,4.036,18.987,9.584,6.1,37.528-70.37,65.3-135.378,10.888-160.547-2.43-20.733-31.059-13.164-35.649,30.255-1.491,30.255-1.491Z" fill="#c9d6e8"/>
            <path id="Path_5664" data-name="Path 5664" d="M9043.351,1044.478c-30.349,0-64.954-8.53-79.529-16.437-18.94-10.277-25.012-18.667-22.4-30.959a1.5,1.5,0,1,1,2.934.625c-2.3,10.83,3.164,18.078,20.894,27.7,17.9,9.713,66.694,20.378,99.455,14.324a1.5,1.5,0,1,1,.545,2.949A121.7,121.7,0,0,1,9043.351,1044.478Z" fill="#0d0d0c"/>
            <path id="Path_5665" data-name="Path 5665" d="M8876.038,1289.595l22.87-4.016a17.611,17.611,0,0,1-2.37.568C8889.738,1287.286,8883.013,1288.47,8876.038,1289.595Z" fill="#c9d6e8"/>
            <path id="Path_5666" data-name="Path 5666" d="M8809.325,1048.967c-3.708,1.421-7.6,2.849-11.766,4.282C8801.741,1051.587,8805.643,1050.162,8809.325,1048.967Z" fill="#c9d6e8"/>
            <path id="Path_5667" data-name="Path 5667" d="M8809.325,1048.967c-3.708,1.421-7.6,2.849-11.766,4.282C8801.741,1051.587,8805.643,1050.162,8809.325,1048.967Z" fill="#c9d6e8"/>
            <path id="Path_5668" data-name="Path 5668" d="M9474.479,1023.751c13.095,15.192-.4,49.3-13.769,46.524,0,0-16.566,5.909-39.136,31.716-9.228,10.546-17.652,19.194-25.6,26.783a.029.029,0,0,1-.018.017c-.819.787-1.631,1.552-2.435,2.313l-.016.007c-10.559,9.923-20.332,18.088-30.139,26.537-8.543,7.363-22.705,5.644-39.187-.782-17.974-6.99-38.706-19.581-57.906-32.051-36.822-23.908-74.908-82.7-68.11-121.028,4.442-25.05,7.327-40.224,25.711-55.607,7.292-6.1,17.015-12.224,30.234-19.014,3.92-2.009,8.778-4.569,14.285-7.506,34.926-18.6,95.729-52.438,106.515-59.376,12.49-8.036,25.089-1.893,25.089-1.893s3,.457,8.285,5.639c.276.269.562.552.846.853a.3.3,0,0,1,.067.066l.357.364c3.5,3.7,7.869,9.353,12.935,17.994,13.813,23.6,16.67,64.359,25.645,84.373S9464.259,1011.884,9474.479,1023.751Z" fill="#fff"/>
            <path id="Path_5669" data-name="Path 5669" d="M9399.908,872.47c8.07,6.131,14.194,16.733,17.325,33.679s-16.88,18.741-52.127,22.861c-16.062,1.878-38.855,5.7-56.645,12.424-21.258,8.035-35.382,20.19-22.4,38.089,23.556,32.462,36.212,80.149,36.528,81.349,0-.406-.027-2.695-.09-13.761-.08-15.489-3.381-46.78-3.381-46.78,12.362,28.489,13.214,95.694,13.214,95.694s.409,7.455,7.591,16.572,40.082,26.243,53.577,18.514l.016-.007a2.836,2.836,0,0,1,.592-.27l-66.466,73.465c-.92-12.731-2.063-28.348-3.467-47.433q-.368-4.983-.755-10.293c-6.592-89.59-14.5-98.656-25.241-122.271s-32.5-62.784-59.85-73a50.669,50.669,0,0,0-14.46-3.123,51.326,51.326,0,0,0-21.015,3.034c10.787-4.736,26.335-12.03,46.353-22.561a83.1,83.1,0,0,1,19.182-6.993c34.926-18.6,95.729-52.438,106.515-59.376,12.49-8.036,25.089-1.893,25.089-1.893s3,.457,8.285,5.639C9402.4,860.837,9392.249,866.651,9399.908,872.47Z" fill="#c9d6e8"/>
            <path id="Path_5670" data-name="Path 5670" d="M9409.554,867.313a2.693,2.693,0,0,1-.357-.364Z" fill="#c9d6e8"/>
            <path id="Path_5671" data-name="Path 5671" d="M9157.624,601.366c-10.174-24.261-69.093-45.125-120.366-25.441s-67.084,23.957-85.475,39.993-20.74,11.078-19.957,6.97-4.5-1.761-3.913,5.674a7.83,7.83,0,0,0,7.431,7.627s-20.147,23.873-24.844,44.22,8.726,59.489,14.439,68.19,5.321,2.245,4.147-4.994-2.739-28.892,7.043-44.968c0,0-3.652,33.064,7.044,54.146s38.609,33.866,36.261,27.083-9.131-23.878-8.348-38.287,20.527-46.1,20.527-46.1-16.123,20.854-4.078,46.1c4.078,8.548,9.48,23.523,28.551,33.109s22.109,25.745,19.37,31.224,5.282,3.326,7.826-6.066,1.107-18.847-5.413-26.674c0,0,53.56,26.781,66.308,43.216s14.3,17.028,15.861,25.077,6.669-.5,4.908-10.244c0,0,11.544,13.732,16.826,21.558s18.057-.162,16.688-7.792a5.2,5.2,0,0,0,3.832,4.539c3.8,1.331,15.928-8.061,15.928-8.061s-8.421,9.392-1.568,9.979,17.137-3.627,41.5-40.081c0,0-4.2,13.242.887,19.7s7.044,4.108,5.674-3.131,8.283-13.857,22.631-38.152c11.709-19.826,15.522-94.3-15.144-134.609-20.781-27.314-59.727-42.87-59.727-42.87s3.132-12.108-5.868-22.086-25.362-12.829-22.109-9.978C9156.559,590.8,9157.624,601.366,9157.624,601.366Z" fill="#ed759d"/>
            <path id="Path_5672" data-name="Path 5672" d="M9061.039,615.918c-2.088,8.226-4.064,16.459-5.462,24.771a137.6,137.6,0,0,0-2.147,25.019,91.1,91.1,0,0,0,3.528,24.566,88.609,88.609,0,0,0,4.32,11.639,98.272,98.272,0,0,0,5.8,11.028c2.167,3.556,4.5,7.02,6.965,10.405l3.8,5.095c1.275,1.719,2.506,3.471,3.716,5.235a171.49,171.49,0,0,1,21.977,46.063q1.866,6.108,3.23,12.344a110.551,110.551,0,0,1,2.061,12.566,158.95,158.95,0,0,0-6.807-24.406,187.769,187.769,0,0,0-10.146-23.128,177.473,177.473,0,0,0-13.115-21.494c-1.216-1.709-2.452-3.4-3.729-5.066l-3.908-5.01a117.914,117.914,0,0,1-7.357-10.584,102.259,102.259,0,0,1-6.121-11.409,86.319,86.319,0,0,1-7.608-37.858,114.138,114.138,0,0,1,1.04-12.837c.57-4.248,1.427-8.441,2.373-12.6A187.036,187.036,0,0,1,9061.039,615.918Z" fill="#fff"/>
            <path id="Path_5673" data-name="Path 5673" d="M9095.806,594.86a18.872,18.872,0,0,0-1.134,3.787,22.166,22.166,0,0,0-.318,3.917,32.528,32.528,0,0,0,1.071,7.761,75.807,75.807,0,0,0,5.711,14.653c4.641,9.454,10.192,18.467,15.634,27.549,10.971,18.1,22.025,36.4,30,56.321a155.838,155.838,0,0,1,5.187,15.231,115.448,115.448,0,0,1,3.259,15.819,161.116,161.116,0,0,1,.829,32.079,219.943,219.943,0,0,1-4.577,31.626c-1.158,5.195-2.5,10.344-3.974,15.448-.75,2.549-1.524,5.089-2.365,7.608-.864,2.512-1.772,5.008-2.767,7.466a239.492,239.492,0,0,0,7.148-30.9q1.339-7.806,2.188-15.672c.566-5.239,1-10.49,1.2-15.745a168.389,168.389,0,0,0-1.458-31.373,113.293,113.293,0,0,0-3.249-15.281c-1.44-5.019-3.2-9.957-5.122-14.835a275.327,275.327,0,0,0-13.468-28.528c-4.936-9.329-10.28-18.462-15.484-27.7a310.941,310.941,0,0,1-14.722-28.3,77.1,77.1,0,0,1-4.979-15.231,32.662,32.662,0,0,1-.646-8,22.664,22.664,0,0,1,.621-3.964A18.958,18.958,0,0,1,9095.806,594.86Z" fill="#fff"/>
            <path id="Path_5674" data-name="Path 5674" d="M9167.261,615.918c14.9,8.594,28.8,19.371,40.077,32.682a124.336,124.336,0,0,1,7.91,10.41,108.987,108.987,0,0,1,6.763,11.218,118.137,118.137,0,0,1,9.54,24.376,141.209,141.209,0,0,1,4.341,25.739,165.072,165.072,0,0,1,.306,26.028,119.268,119.268,0,0,1-1.539,12.939,105.338,105.338,0,0,1-2.965,12.684,81.288,81.288,0,0,1-4.724,12.118,46.144,46.144,0,0,1-7.061,10.834,35.712,35.712,0,0,0,3.437-5.432,62.756,62.756,0,0,0,2.711-5.813,88.175,88.175,0,0,0,3.913-12.179,125.678,125.678,0,0,0,3.312-25.306c.152-4.257.144-8.521-.062-12.778-.151-4.259-.48-8.512-.917-12.754a154.17,154.17,0,0,0-4.562-25.042,125.07,125.07,0,0,0-22.908-44.987,159.61,159.61,0,0,0-17.513-18.607A233.121,233.121,0,0,0,9167.261,615.918Z" fill="#fff"/>
            <path id="Path_5675" data-name="Path 5675" d="M9196.118,736.12a113.471,113.471,0,0,0-3.546-34.532,182.536,182.536,0,0,0-11.746-32.621c-2.4-5.274-5.04-10.439-7.854-15.511-2.766-5.1-5.809-10.048-8.936-14.943-3.168-4.867-6.487-9.646-10.062-14.234a107.452,107.452,0,0,0-11.615-13.055,80.221,80.221,0,0,1,13.116,11.787,150.4,150.4,0,0,1,11.138,13.738c3.485,4.762,6.643,9.756,9.651,14.835q4.449,7.659,8.191,15.708c2.441,5.383,4.681,10.864,6.584,16.469a136.193,136.193,0,0,1,4.567,17.153C9197.875,712.5,9198.53,724.595,9196.118,736.12Z" fill="#fff"/>
            <path id="Path_5676" data-name="Path 5676" d="M9025.186,738.34c-1.174-3.162-2.177-6.379-3.192-9.6-.858-3.257-1.708-6.527-2.438-9.824a145.424,145.424,0,0,1-2.812-20.087c-.281-3.377-.284-6.779-.293-10.17l.219-5.091c.089-1.7.291-3.39.464-5.078.2-1.688.467-3.372.734-5.047.353-1.668.658-3.338,1.09-4.985a40.374,40.374,0,0,1,3.555-9.522,65.565,65.565,0,0,0-1.623,9.871c-.194,1.645-.291,3.307-.42,4.954-.045,1.661-.2,3.305-.223,4.961-.215,6.615.041,13.234.487,19.843.384,6.616,1.161,13.213,1.89,19.837.46,3.3.88,6.612,1.283,9.938C9024.381,731.65,9024.869,734.967,9025.186,738.34Z" fill="#fff"/>
            <path id="Path_5677" data-name="Path 5677" d="M8944.825,681.571a90.848,90.848,0,0,1,11.143-25.632c1.3-1.952,2.519-3.972,3.937-5.846l2.135-2.807c.718-.931,1.4-1.891,2.189-2.765l2.319-2.662c.778-.882,1.54-1.781,2.387-2.6l2.48-2.511c.826-.839,1.644-1.686,2.536-2.455l2.648-2.333c.882-.78,1.759-1.564,2.7-2.269l2.777-2.177c.925-.725,1.836-1.469,2.83-2.1l2.919-1.977c.973-.658,1.935-1.332,2.957-1.912,2.023-1.192,4-2.458,6.1-3.515a104.243,104.243,0,0,1,26.144-9.866,180.427,180.427,0,0,0-24.586,12.571c-1,.562-1.929,1.231-2.88,1.865l-2.863,1.882c-.972.6-1.879,1.3-2.8,1.975l-2.753,2.032c-.93.662-1.818,1.376-2.7,2.1l-2.662,2.145c-.9.694-1.743,1.465-2.585,2.232l-2.537,2.29c-.874.732-1.676,1.541-2.485,2.342l-2.433,2.4c-1.639,1.585-3.07,3.363-4.649,5.008-.8.816-1.5,1.717-2.228,2.591l-2.179,2.637c-.757.859-1.378,1.817-2.073,2.721l-2.062,2.738A141.871,141.871,0,0,0,8944.825,681.571Z" fill="#fff"/>
          </g>
          <path id="Path_5678" data-name="Path 5678" d="M9480.681,845.88c-13.231,0-25.49-1.068-33.947-4.049a1,1,0,1,1,.664-1.887c28.718,10.123,105.178-2.716,105.945-2.847a1,1,0,1,1,.335,1.971C9551.433,839.451,9513.139,845.88,9480.681,845.88Z" fill="#db8882"/>
          <path id="Path_5679" data-name="Path 5679" d="M8547.517,1240.625a1,1,0,0,1-.615-1.788c.623-.487,62.463-49.191,75.77-93.407a1,1,0,1,1,1.916.576c-13.491,44.827-75.826,93.916-76.455,94.407A1,1,0,0,1,8547.517,1240.625Z" fill="#db8882"/>
          <path id="Path_5680" data-name="Path 5680" d="M8870.579,1305.971a1.5,1.5,0,0,1-1.009-2.609c40.268-36.617,55.643-85.588,55.794-86.078a1.5,1.5,0,0,1,2.867.88c-.152.5-15.746,50.229-56.644,87.417A1.5,1.5,0,0,1,8870.579,1305.971Z" fill="#0d0d0c"/>
          <path id="Path_5681" data-name="Path 5681" d="M8925.385,1258.764a1.5,1.5,0,0,1-1.357-2.136c.2-.421,19.764-42.26,21.168-55.69,3.822-36.55,1.81-68.921-5.984-96.215-7.91-27.7-18.768-39.491-21.908-42.446-12.486-11.754-34.232-16.347-34.451-16.392a1.5,1.5,0,1,1,.606-2.937c.924.189,22.787,4.8,35.9,17.145,14.735,13.87,37.391,59.209,28.818,141.158-1.457,13.929-20.621,54.913-21.435,56.65A1.5,1.5,0,0,1,8925.385,1258.764Z" fill="#0d0d0c"/>
          <path id="Path_5682" data-name="Path 5682" d="M9327.124,1208.325a1.5,1.5,0,0,1-1.5-1.421c-.066-1.247-6.617-124.864-12.347-143.03-5.647-17.9-26.576-64.816-49.359-92.125a1.5,1.5,0,1,1,2.3-1.922c23.05,27.628,44.21,75.05,49.918,93.144,5.845,18.528,12.213,138.67,12.482,143.775a1.5,1.5,0,0,1-1.419,1.577Z" fill="#0d0d0c"/>
          <path id="Path_5683" data-name="Path 5683" d="M9320.976,1115.6c-.03,0-.062,0-.093,0a1.5,1.5,0,0,1-1.405-1.59c.065-1.042,6.313-104.574-6.229-125.884a1.5,1.5,0,0,1,2.586-1.522c13,22.1,6.905,123.3,6.638,127.592A1.5,1.5,0,0,1,9320.976,1115.6Z" fill="#0d0d0c"/>
        </g>
      </g>
      <path id="Path_5840" data-name="Path 5840" d="M8336.579,1170.113l-31.484-15.287,56.921-117.235,173.948-157.168,74.952-114.1L8786.2,715.18l-11.8-75.451.354-2.554c.463-3.351,12.354-82.826,99.963-147.324,82.5-60.733,211.5-65.267,227.577-65.6L9232.5,401.682l3.717.994c8.416,2.25,83.089,22.857,113.07,53.135,25.393,25.647,63.394,83.955,72.745,98.525,22.8,14.852,153.786,100.69,194.909,138.6,20.537,18.933,37.371,52.48,50.032,99.707a512.1,512.1,0,0,1,12.79,63.665l.314,2.565L9662.41,960.887l-116.04,87.918-58.554,105.411-30.6-17,62.134-111.858,110.924-84.041,14.421-83.278c-4.209-31.47-20.562-110.873-51.481-139.375-41.98-38.7-191.914-136.064-193.422-137.043l-3.216-2.085-2.05-3.239c-.439-.694-44.264-69.754-70.115-95.864-18.7-18.889-70.777-36.473-93.595-42.941l-125.295,21.719-1.418.014c-1.3.015-131.613,2.094-208.648,58.808-39.238,28.886-60.521,60.994-71.466,82.842-9.418,18.8-13.045,33.488-14.165,38.91l15.7,100.375-192.437,56.143-70.337,107.079L8390.53,1059Z" transform="translate(-7830.221 -0.724)" fill="#fff"/>
      <g id="Group_2603" data-name="Group 2603" transform="translate(-8456.449 552.67)">
        <g id="Group_2554" data-name="Group 2554" transform="translate(8751.117 -121.69)">
          <circle id="Ellipse_140" data-name="Ellipse 140" cx="215.489" cy="215.489" r="215.489"/>
        </g>
        <g id="Group_2562" data-name="Group 2562" transform="translate(8788.047 -84.848)">
          <g id="Group_2555" data-name="Group 2555" transform="translate(4.654)">
            <circle id="Ellipse_141" data-name="Ellipse 141" cx="198.965" cy="198.965" r="198.965" fill="#fff"/>
          </g>
          <g id="Group_2556" data-name="Group 2556" transform="translate(54.018 49.364)">
            <circle id="Ellipse_142" data-name="Ellipse 142" cx="149.601" cy="149.601" r="149.601" transform="translate(0 0)" fill="#c9d6e8"/>
          </g>
          <g id="Group_2557" data-name="Group 2557" transform="translate(39.744 35.09)">
            <path id="Path_5684" data-name="Path 5684" d="M9064.667,288.734a.948.948,0,0,1-.331-1.835c4.277-1.6,8.549-3.4,12.7-5.357a.948.948,0,0,1,.81,1.715c-4.2,1.982-8.521,3.8-12.848,5.417A.949.949,0,0,1,9064.667,288.734Z" transform="translate(-8844.022 28.824)" fill="#0d0d0c"/>
            <path id="Path_5685" data-name="Path 5685" d="M8995.925,281.983a164.267,164.267,0,0,1-148.267-93.978c-38.569-81.721-3.462-179.586,78.258-218.155s179.586-3.464,218.156,78.258a162.991,162.991,0,0,1,6.676,123.519.949.949,0,1,1-1.793-.621,161.087,161.087,0,0,0-6.6-122.089C9104.231-31.86,9007.5-66.56,8926.727-28.436S8811.251,106.42,8849.374,187.2A162.305,162.305,0,0,0,9012,279.283a.948.948,0,1,1,.188,1.888C9006.752,281.715,9001.316,281.983,8995.925,281.983Z" transform="translate(-8831.991 45.818)" fill="#0d0d0c"/>
          </g>
          <path id="Path_5686" data-name="Path 5686" d="M8863.646,180.992c-52.014-60.662-38.7-143.484,5.669-181.8,32.425-28,77.535-34.575,101.225-27.52,0,0,19.187-7.824,65.419.539s76.371,58.051,85.453,96.135Z" transform="translate(-8792.143 80.173)" fill="#080b0a"/>
          <g id="Group_2561" data-name="Group 2561" transform="translate(0 16.9)">
            <circle id="Ellipse_143" data-name="Ellipse 143" cx="121.188" cy="121.188" r="121.188" transform="translate(28.379 195.477) rotate(-45)" fill="#fdd89b"/>
            <path id="Path_5687" data-name="Path 5687" d="M9105.871,94.924c11.519,38.08,4.813,81.754-19.719,113.036s-66.912,48.381-105.972,40.438c-18.294-3.72-35.28-12.453-50.493-23.27-15.605-11.1-29.741-24.673-39.366-41.2-16.149-27.728-18.153-63.174-5.233-92.485,15.2-34.485,49.335-58.419,86.059-67.227,37.972-9.106,81.681-2.01,109.078,25.834C9092.437,62.459,9100.837,78.283,9105.871,94.924Z" transform="translate(-8794.565 60.566)" fill="#c78c50"/>
            <g id="Group_2559" data-name="Group 2559" transform="translate(89.029 110.103)">
              <path id="Path_5688" data-name="Path 5688" d="M9084.619,63.926a2.445,2.445,0,1,1-1.476-3.127A2.446,2.446,0,0,1,9084.619,63.926Z" transform="translate(-8894.146 -51.624)" fill="#f79922"/>
              <path id="Path_5689" data-name="Path 5689" d="M9032.04,90.206a2.445,2.445,0,1,1-1.476-3.128A2.444,2.444,0,0,1,9032.04,90.206Z" transform="translate(-8891.416 -52.988)" fill="#f79922"/>
              <circle id="Ellipse_144" data-name="Ellipse 144" cx="0.731" cy="0.731" r="0.731" transform="translate(171.832 34.317)" fill="#f79922"/>
              <circle id="Ellipse_145" data-name="Ellipse 145" cx="1.79" cy="1.79" r="1.79" transform="translate(187.466 54.775)" fill="#f79922"/>
              <g id="Group_2558" data-name="Group 2558" transform="translate(42.121 91.707)">
                <circle id="Ellipse_146" data-name="Ellipse 146" cx="3.482" cy="3.482" r="3.482" transform="translate(0 0)" fill="#f79922"/>
              </g>
              <circle id="Ellipse_147" data-name="Ellipse 147" cx="2.201" cy="2.201" r="2.201" transform="translate(184.782 125.707)" fill="#f79922"/>
              <circle id="Ellipse_148" data-name="Ellipse 148" cx="3.692" cy="3.692" r="3.692" transform="translate(148.053 133.272)" fill="#f79922"/>
              <path id="Path_5690" data-name="Path 5690" d="M8947.951,201.6a2.862,2.862,0,1,1-1.727-3.661A2.862,2.862,0,0,1,8947.951,201.6Z" transform="translate(-8887.01 -58.744)" fill="#f79922"/>
              <path id="Path_5691" data-name="Path 5691" d="M8983.674,193.016a1.335,1.335,0,1,1-.8-1.706A1.335,1.335,0,0,1,8983.674,193.016Z" transform="translate(-8889.018 -58.404)" fill="#f79922"/>
              <circle id="Ellipse_149" data-name="Ellipse 149" cx="4.02" cy="4.02" r="4.02" transform="translate(25.326 57.37)" fill="#f79922"/>
              <circle id="Ellipse_150" data-name="Ellipse 150" cx="1.827" cy="1.827" r="1.827" transform="translate(121.657 1.464)" fill="#f79922"/>
              <circle id="Ellipse_151" data-name="Ellipse 151" cx="4.385" cy="4.385" r="4.385" transform="translate(52.398)" fill="#f79922"/>
              <path id="Path_5692" data-name="Path 5692" d="M9048.7,59.656l-1.167-.418-1.165-.418,1.165.418Z" transform="translate(-8892.408 -51.528)" fill="#f79922"/>
              <path id="Path_5693" data-name="Path 5693" d="M9090.769,171.131a2.875,2.875,0,1,1-1.735-3.677A2.876,2.876,0,0,1,9090.769,171.131Z" transform="translate(-8894.422 -57.161)" fill="#f79922"/>
              <circle id="Ellipse_152" data-name="Ellipse 152" cx="2.201" cy="2.201" r="2.201" transform="translate(149.615 95.771)" fill="#f79922"/>
              <circle id="Ellipse_153" data-name="Ellipse 153" cx="2.201" cy="2.201" r="2.201" transform="translate(73.239 37.331)" fill="#f79922"/>
              <path id="Path_5694" data-name="Path 5694" d="M9053.676,139.555a2.875,2.875,0,1,1-1.734-3.677A2.876,2.876,0,0,1,9053.676,139.555Z" transform="translate(-8892.498 -55.521)" fill="#f79922"/>
              <circle id="Ellipse_154" data-name="Ellipse 154" cx="4.614" cy="4.614" r="4.614" transform="translate(105.981 166.458)" fill="#f79922"/>
              <circle id="Ellipse_155" data-name="Ellipse 155" cx="2.558" cy="2.558" r="2.558" transform="translate(12.549 132.076)" fill="#fcb830"/>
              <path id="Path_5695" data-name="Path 5695" d="M8890.963,161.607a3.6,3.6,0,1,1-2.173-4.6A3.6,3.6,0,0,1,8890.963,161.607Z" transform="translate(-8883.975 -56.616)" fill="#fcb830"/>
              <circle id="Ellipse_156" data-name="Ellipse 156" cx="1.431" cy="1.431" r="1.431" transform="translate(5.735 120.616)" fill="#fcb830"/>
              <circle id="Ellipse_157" data-name="Ellipse 157" cx="1.644" cy="1.644" r="1.644" transform="translate(216.354 39.802)" fill="#fcb830"/>
            </g>
            <circle id="Ellipse_158" data-name="Ellipse 158" cx="121.188" cy="121.188" r="121.188" transform="translate(43.406 171.386) rotate(-45)" fill="#fdd89b"/>
            <path id="Path_5696" data-name="Path 5696" d="M9121.721,69.515c11.518,38.08,4.813,81.753-19.719,113.035s-66.913,48.381-105.972,40.439c-18.295-3.72-35.28-12.453-50.492-23.27-15.6-11.1-29.742-24.672-39.368-41.2-16.148-27.728-18.153-63.174-5.232-92.485,15.2-34.484,49.334-58.419,86.058-67.226,37.972-9.107,81.682-2.01,109.078,25.833C9108.283,37.05,9116.686,52.873,9121.721,69.515Z" transform="translate(-8795.388 61.885)" fill="#c78c50"/>
            <path id="Path_5697" data-name="Path 5697" d="M9089.127,42.194c15.75,18.242,28.246,39.267,32.454,63.3a150.823,150.823,0,0,1,1.332,41.88c.011-.036.026-.07.036-.105,9.033-29.907,5.739-62.783-5.989-91.739-6.224-15.365-15.163-30.24-28.779-39.7-11.82-8.21-26.271-11.728-40.543-13.594-.84-.11-1.685-.2-2.525-.3C9061.815,12.812,9076.993,28.14,9089.127,42.194Z" transform="translate(-8803.313 61.528)" fill="#fdd89b"/>
            <path id="Path_5698" data-name="Path 5698" d="M9084.783,161.66A124.239,124.239,0,0,0,8992.372-2.187c-1.8.355-3.6.709-5.377,1.136-36.724,8.807-70.856,32.742-86.058,67.226-12.921,29.311-10.916,64.756,5.232,92.485,9.626,16.53,23.764,30.106,39.368,41.2,15.212,10.818,32.2,19.55,50.492,23.27a101.394,101.394,0,0,0,41.289-.452A123.68,123.68,0,0,0,9084.783,161.66Z" transform="translate(-8795.388 61.742)" fill="#080b0a"/>
            <path id="Path_5699" data-name="Path 5699" d="M9040.766,234.352c-10.541,2.354-17.771,4.038-18.754,7.892,0,0-30.21,13.325-63.139,3.991l67.634-23.617Z" transform="translate(-8798.835 50.069)" fill="#080b0a"/>
            <g id="Group_2560" data-name="Group 2560" transform="translate(0 4.235)">
              <circle id="Ellipse_159" data-name="Ellipse 159" cx="121.188" cy="121.188" r="121.188" transform="translate(0 171.386) rotate(-45)" fill="#fdd89b"/>
              <path id="Path_5700" data-name="Path 5700" d="M9075.938,73.981c11.517,38.08,4.813,81.754-19.719,113.036s-66.913,48.381-105.973,40.438c-18.294-3.72-35.279-12.453-50.493-23.27-15.6-11.1-29.741-24.673-39.367-41.2-16.149-27.728-18.152-63.174-5.232-92.485,15.2-34.484,49.335-58.419,86.058-67.227,37.973-9.106,81.682-2.009,109.079,25.834C9062.5,41.516,9070.9,57.34,9075.938,73.981Z" transform="translate(-8793.011 57.418)" fill="#c78c50"/>
              <path id="Path_5701" data-name="Path 5701" d="M8943.081,30.031a22.674,22.674,0,0,0-4.469,3.509c-3.554,3.544-6.715,7.724-11.258,9.854-7.168,3.361-15.725.738-23.458,2.439A21.211,21.211,0,0,0,8888.96,74.9c4.86,11.345,14.98,18.8,9.832,32.542-4.321,11.532-16.483,21.362-12.884,34.958,2.411,9.1,11.712,14.413,20.438,17.942s18.367,6.757,23.718,14.5c3.3,4.782,4.486,10.684,6.989,15.929s7.253,10.257,13.057,9.977c6.258-.3,10.438-6.341,15.728-9.7,5.9-3.743,13.324-4.107,20.284-3.483s13.895,2.12,20.867,1.668,14.286-3.287,17.9-9.27c5.672-9.406.011-17.452-1.483-26.679a28.539,28.539,0,0,1,6.375-23.029c3.36-3.847,7.708-6.7,11.321-10.307s6.591-8.448,6.023-13.524c-.7-6.3-6.424-10.682-11.755-14.114S9024.134,85,9022.655,78.836c-1.286-5.366,1.211-10.844,1.728-16.338a22.837,22.837,0,0,0-31.905-23.054c-3.639,1.595-6.816,4.117-10.479,5.658-12.032,5.06-15.44-6.172-22.227-13.042C8954.6,26.826,8948.491,26.839,8943.081,30.031Z" transform="translate(-8795.013 55.948)" fill="#fafafa"/>
              <path id="Path_5702" data-name="Path 5702" d="M9031.852,127.681a25.288,25.288,0,0,0-5.983,28.718c-5.889-2.217-7.49-10.161-5.571-16.152s6.236-10.885,9.072-16.5,3.905-13.07-.325-17.726c-2.5-2.749-6.294-3.9-9.233-6.166-5.868-4.531-7.427-12.725-7.339-20.137s1.367-14.978-.539-22.14-8.451-13.91-15.769-12.74a19.253,19.253,0,0,1,30.394,14.081c.374,4.537-.867,9.059-.837,13.611a24.773,24.773,0,0,0,7.609,17.581c3.082,2.93,6.87,5.008,10.124,7.746s6.08,6.485,6.121,10.737c.044,4.523-3.07,8.5-6.636,11.285S9035.234,124.678,9031.852,127.681Z" transform="translate(-8800.772 55.249)" fill="#c9d6e8"/>
              <path id="Path_5703" data-name="Path 5703" d="M8892.889,59.493c.938-4.85,5.629-8.171,10.4-9.44s9.808-1,14.716-1.556A43.962,43.962,0,0,0,8946.5,33.114c-2.133,4.892-4.3,9.836-7.538,14.074s-7.724,7.765-12.962,8.784c-5.737,1.117-11.562-.845-17.357-1.616S8895.98,54.532,8892.889,59.493Z" transform="translate(-8795.409 55.674)" fill="#c9d6e8"/>
              <path id="Path_5704" data-name="Path 5704" d="M8940.449,191.351c1.295,3.15,2.239,6.487,4.118,9.326s5,5.177,8.394,4.958c4.723-.3,7.668-5.014,11.178-8.189a20.358,20.358,0,0,1,20.109-3.973c-2.48-3.223-7.2-3.877-11.153-2.925s-7.461,3.174-11.187,4.808-8.045,2.671-11.815,1.15c-5.455-2.2-7.572-8.587-10.5-13.69a34.444,34.444,0,0,0-27.674-16.966A44.514,44.514,0,0,1,8940.449,191.351Z" transform="translate(-8796.397 48.782)" fill="#c9d6e8"/>
            </g>
          </g>
        </g>
      </g>
      <g id="Group_2604" data-name="Group 2604" transform="translate(-7759.002 -77.868)">
        <path id="Path_5705" data-name="Path 5705" d="M8509.741,601.449l-.882-3.441s-.819-.808,2.572-1.882l52.559-15.112s.951-1.058-3.784-.455l-51.814,11.661s-1.653-.595-2.118-4.143l53.98-15.272s3.77-1.986-.534-1.289l-54.5,12.758s-2.21-4.323.132-4.72l54.43-15.8s2.271-3.027-9,.68l-46.6,10.527s-3.7-1.7-.888-4.254l52.636-17.984s21.983-5.638,28.953-.7c0,0,11.951,5.287,15.2,4.454l77.123-21.005,77.84-21.393s14.773-3.935,17.773,1.408c0,0,4.7,8.778-.4,12.734l-98.472,22.348-70.5,16.657a19.469,19.469,0,0,0-8.562,8.715,35.106,35.106,0,0,1-20.071,13.094s-38.706,10.336-55.166,11.3Z"/>
        <path id="Path_5706" data-name="Path 5706" d="M8520.342,605.284l-.883-3.441s-.818-.809,2.573-1.883l52.558-15.111s.951-1.059-3.784-.455l-51.812,11.66s-1.655-.594-2.119-4.142l53.981-15.273s3.769-1.985-.535-1.289l-54.5,12.759s-2.211-4.323.132-4.72l54.429-15.795s2.271-3.027-9,.679l-46.6,10.528s-3.7-1.7-.888-4.254l52.636-17.984s21.983-5.639,28.953-.7c0,0,11.951,5.288,15.2,4.455l77.124-21.006,77.84-21.392s7.2-3.682,10.205,1.66c0,0,4.7,8.779-.4,12.735l-90.9,22.094-70.5,16.657a19.473,19.473,0,0,0-8.563,8.716,35.1,35.1,0,0,1-20.069,13.094s-38.707,10.336-55.166,11.3Z" fill="#fff"/>
        <path id="Path_5707" data-name="Path 5707" d="M8612.171,570.52s-3.012-2.209-2.944-4.327a45.811,45.811,0,0,1,.554-4.992s-11.441-2.111-12.874-3.726c0,0,4.122,4.749,4.541,8.767,0,0,2.247,9.355.7,15.252,0,0,3.018-5.511,4.7-6.706C8606.848,574.788,8610.919,569.652,8612.171,570.52Z" fill="#c9d6e8"/>
        <path id="Path_5708" data-name="Path 5708" d="M8774.281,530.16s4.255-7.051-3.017-11.756L8609.78,561.2l-.215,1.441,154.944-40.977s6.607-2.459,7.933,1.326C8772.442,522.991,8774.86,526.65,8774.281,530.16Z" fill="#c9d6e8"/>
        <path id="Path_5709" data-name="Path 5709" d="M8512.847,576.213s1.443,2.3,2.781,1.957l47.223-10.89,3.919-1.005s3.265-1.009,3.745.583c0,0-1.642-.279-11.26,1.894l-36.389,8.22-8.095,1.829S8512.3,577.365,8512.847,576.213Z" fill="#fff"/>
      </g>
      <g id="Group_2605" data-name="Group 2605" transform="translate(-9189.926 739.476)">
        <ellipse id="Ellipse_160" data-name="Ellipse 160" cx="70.785" cy="75.897" rx="70.785" ry="75.897" transform="matrix(0.841, -0.541, 0.541, 0.841, 9305.467, 133.951)"/>
        <path id="Path_5710" data-name="Path 5710" d="M9452.973,224.113a67.222,67.222,0,1,1,20.139-92.909A67.221,67.221,0,0,1,9452.973,224.113Z" fill="#fff"/>
        <path id="Path_5711" data-name="Path 5711" d="M9466.174,135.589a58.776,58.776,0,0,0-33.948-24.944c-6.644-1.826-13.494-2.274-20.185-3.8a10.88,10.88,0,0,1-4.329-1.74,4.212,4.212,0,0,1-1.736-4.1,2.327,2.327,0,0,0,.146-1.228c-.266-.822-1.449-.748-2.266-.47-9.214,3.136-16.084,10.743-22.365,18.177-6.911,8.18-14.448,16.12-18.849,26.013a59.019,59.019,0,1,0,103.532-7.911Z" fill="#fdd89b"/>
        <path id="Path_5712" data-name="Path 5712" d="M9453.237,214.767a1,1,0,0,1-.621-1.784,58.227,58.227,0,0,0,5.423-4.877,1,1,0,1,1,1.428,1.4,59.864,59.864,0,0,1-5.61,5.045A.991.991,0,0,1,9453.237,214.767Z" fill="#0d0d0c"/>
        <path id="Path_5713" data-name="Path 5713" d="M9416.485,227.621a59.846,59.846,0,0,1-50.4-27.6,60.691,60.691,0,0,1-4.359-56.924c3.812-8.569,9.966-15.726,15.917-22.649,1.033-1.2,2.064-2.4,3.081-3.6a1,1,0,0,1,1.528,1.291c-1.021,1.208-2.056,2.413-3.092,3.618-5.858,6.812-11.915,13.857-15.606,22.157a58.672,58.672,0,0,0,4.212,55.029,57.815,57.815,0,0,0,75.035,20.339,1,1,0,1,1,.906,1.783A59.923,59.923,0,0,1,9416.485,227.621Z" fill="#0d0d0c"/>
        <path id="Path_5714" data-name="Path 5714" d="M9474.9,177.411a.966.966,0,0,1-.151-.012,1,1,0,0,1-.838-1.139,57.962,57.962,0,0,0-41.946-64.651,101.205,101.205,0,0,0-11.2-2.181c-2.935-.457-5.969-.929-8.939-1.607a1,1,0,0,1,.444-1.949c2.9.661,5.9,1.129,8.8,1.58a102.3,102.3,0,0,1,11.426,2.229,60,60,0,0,1,43.394,66.88A1,1,0,0,1,9474.9,177.411Z" fill="#0d0d0c"/>
        <path id="Path_5715" data-name="Path 5715" d="M9440.648,192.289a51.848,51.848,0,0,1-16.831,7.1,4.092,4.092,0,0,0-1.989.844,1.34,1.34,0,0,0-.1,1.929,1.9,1.9,0,0,0,1.135.285,101.383,101.383,0,0,0,19.989-1.7,27.724,27.724,0,0,0,8.639-2.487c5.746-3.081,8.838-9.771,9.263-16.277s-1.4-12.932-3.364-19.149c-1,.055-1.335,1.347-1.429,2.347-.715,7.621-3.41,15.328-8.529,21.22A34.068,34.068,0,0,1,9440.648,192.289Z" fill="#edc080"/>
        <path id="Path_5716" data-name="Path 5716" d="M9385.757,157.767c-.008-.091-.016-.182-.026-.273-4.423,3.228-6.381,8.579-7.868,13.632a26.206,26.206,0,0,0-1.262,9.541c.2,2.4.764,6.529,2.651,8.222a2.355,2.355,0,0,0,2.706.441,3.469,3.469,0,0,0,1.191-2.7c.29-2.51.529-5.025.771-7.541q.858-8.964,1.716-17.93A18.936,18.936,0,0,0,9385.757,157.767Z" fill="#edc080"/>
        <path id="Path_5717" data-name="Path 5717" d="M9440.55,128.554c-.365-.019-1.776-1.955-2.071-2.231a27.209,27.209,0,0,0-6.674-4.566c-8.331-4.059-17.792-3.067-26.73-2.58a31.873,31.873,0,0,0-4.119.4,1.123,1.123,0,0,0-.6.244c-.405.393-.063,1.072.306,1.5,5.745,6.657,14.47,5.9,22.447,6.315Z" fill="#edc080"/>
        <path id="Path_5718" data-name="Path 5718" d="M9364.33,165.425c-.687,9.4,1.907,18.912,6.271,27.212a2.45,2.45,0,0,0,.781,1,.868.868,0,0,0,1.151-.142,1.254,1.254,0,0,0,.16-.573c.38-3.312-.623-6.377-1.184-9.663q-.968-5.687-1.494-11.437t-.6-11.518c-.014-1.1-.46-10.907.268-11.134C9365.441,150.485,9364.6,161.685,9364.33,165.425Z" fill="#edc080"/>
        <path id="Path_5719" data-name="Path 5719" d="M9386.552,128.7a24.976,24.976,0,0,1-1.11,3.523,7.564,7.564,0,0,1-1.405,2.4c-2.423,2.571-4.287.491-3.866-2.221a24.268,24.268,0,0,1,2.291-6.134,15.859,15.859,0,0,1,4.521-6.034c.169-.131.392-.263.581-.164s.208.39.184.617A61.758,61.758,0,0,1,9386.552,128.7Z" fill="#edc080"/>
      </g>
    </g>
  </g>
</svg>
