<svg xmlns="http://www.w3.org/2000/svg" width="1267.411" height="1366.566" viewBox="0 0 1267.411 1366.566">
  <g id="window" transform="translate(0.001 91.612)">
    <g id="Group_116" data-name="Group 116" transform="translate(-0.001 -91.046)">
      <rect id="Rectangle_4" data-name="Rectangle 4" width="1250.981" height="816.82" transform="translate(0 164.917)" opacity="0"/>
      <path id="Path_576" data-name="Path 576" d="M4042.472,473.976,3878.946,655.213V825.694l-323.931,492.155h904.616L4045.227,837.417Z" transform="translate(-3213.01 48.151)" fill="#155aa7"/>
      <path id="Path_577" data-name="Path 577" d="M3837.836,677.193,3673.185,867.759l-32.9,55.617,45.872-41.968L3838,704.349Z" transform="translate(-3006.585 -4.604)"/>
      <g id="Group_112" data-name="Group 112" transform="translate(51.332)" opacity="0.2">
        <g id="Group_110" data-name="Group 110" transform="translate(834.764 24.928)">
          <line id="Line_18" data-name="Line 18" x1="241.295" y2="335.599" transform="translate(35.06)" fill="none" stroke="#fff" stroke-miterlimit="10" stroke-width="2"/>
          <path id="Path_578" data-name="Path 578" d="M4031.486,292.217l-18.531,27.107V780.137l380.81,222.7" transform="translate(-4012.955 72.795)" fill="none" stroke="#fff" stroke-miterlimit="10" stroke-width="2"/>
          <line id="Line_19" data-name="Line 19" y2="490.915" transform="translate(41.57 362.594)" fill="none" stroke="#fff" stroke-miterlimit="10" stroke-width="2"/>
          <line id="Line_20" data-name="Line 20" y2="68.055" transform="translate(91.154 272.35)" fill="none" stroke="#fff" stroke-miterlimit="10" stroke-width="2"/>
          <line id="Line_21" data-name="Line 21" y2="86.126" transform="translate(149.252 195.068)" fill="none" stroke="#fff" stroke-miterlimit="10" stroke-width="2"/>
          <line id="Line_22" data-name="Line 22" y2="111.936" transform="translate(217.533 94.523)" fill="none" stroke="#fff" stroke-miterlimit="10" stroke-width="2"/>
          <line id="Line_174" data-name="Line 174" y2="143.307" transform="translate(285.821 6.288)" fill="none" stroke="#fff" stroke-miterlimit="10" stroke-width="2"/>
        </g>
        <g id="Group_111" data-name="Group 111">
          <line id="Line_23" data-name="Line 23" x2="247.269" y2="360.527" transform="translate(72.337)" fill="none" stroke="#fff" stroke-miterlimit="10" stroke-width="2"/>
          <path id="Path_579" data-name="Path 579" d="M3090.882,292.217l18.53,27.107V780.137L2754.746,983.223" transform="translate(-2754.746 97.723)" fill="none" stroke="#fff" stroke-miterlimit="10" stroke-width="2"/>
          <line id="Line_24" data-name="Line 24" y2="490.915" transform="translate(313.096 387.522)" fill="none" stroke="#fff" stroke-miterlimit="10" stroke-width="2"/>
          <line id="Line_25" data-name="Line 25" y2="385.934" transform="translate(263.512 297.278)" fill="none" stroke="#fff" stroke-miterlimit="10" stroke-width="2"/>
          <line id="Line_26" data-name="Line 26" y2="666.686" transform="translate(205.414 260.711)" fill="none" stroke="#fff" stroke-miterlimit="10" stroke-width="2"/>
          <line id="Line_173" data-name="Line 173" y2="954.175" transform="translate(72.337 45.252)" fill="none" stroke="#fff" stroke-miterlimit="10" stroke-width="2"/>
          <line id="Line_27" data-name="Line 27" y2="405.639" transform="translate(137.132 119.451)" fill="none" stroke="#fff" stroke-miterlimit="10" stroke-width="2"/>
          <line id="Line_28" data-name="Line 28" x2="69.477" transform="translate(354.666 417.047)" fill="none" stroke="#fff" stroke-miterlimit="10" stroke-width="2"/>
        </g>
        <line id="Line_29" data-name="Line 29" x1="332.198" transform="translate(503.269 877.861)" fill="none" stroke="#fff" stroke-miterlimit="10" stroke-width="2"/>
      </g>
      <g id="Group_115" data-name="Group 115" transform="translate(967.793 186.705)">
        <g id="Group_114" data-name="Group 114" transform="translate(0 0)">
          <path id="Path_580" data-name="Path 580" d="M4208.759,250.192l99.567-108.45V631.43l-99.567-27.62Z" transform="translate(-4156.282 -49.397)"/>
          <g id="Group_113" data-name="Group 113">
            <rect id="Rectangle_5" data-name="Rectangle 5" width="43.207" height="353.618" transform="translate(9.268 200.795)" fill="#fff"/>
            <path id="Path_581" data-name="Path 581" d="M4184.453,317.282l-25.681,32.986V642.522h-17.527V288.9h43.208Z" transform="translate(-4131.977 -88.11)" fill="#155aa7"/>
            <path id="Path_582" data-name="Path 582" d="M4166.84,433.985l-30.807,20.7-9.269,15V440.843l9.269-12.385,17.525-10.476Z" transform="translate(-4126.765 -122.064)"/>
            <path id="Path_583" data-name="Path 583" d="M4184.453,233.158l99.565-108.451V76.988l-142.772,156.17Z" transform="translate(-4131.977 -32.363)" fill="#155aa7"/>
            <path id="Path_584" data-name="Path 584" d="M4136.033,217.229l-9.269-6.634L4296.2,16.434l-17.4,44.625Z" transform="translate(-4126.765 -16.434)"/>
            <path id="Path_585" data-name="Path 585" d="M4184.453,768.749l99.565,27.62V810.26l-142.772-41.512Z" transform="translate(-4131.977 -214.336)" fill="#fff"/>
            <path id="Path_586" data-name="Path 586" d="M4364.338,61.059v551.3l17.4,16.863V16.434Z" transform="translate(-4212.299 -16.434)"/>
            <path id="Path_587" data-name="Path 587" d="M4126.765,279.9V645.457l9.269-5.3V286.536Z" transform="translate(-4126.765 -85.742)"/>
            <path id="Path_588" data-name="Path 588" d="M4126.765,774.052,4296.2,827.123l-17.4-16.863-142.771-41.512Z" transform="translate(-4126.765 -214.336)"/>
            <rect id="Rectangle_6" data-name="Rectangle 6" width="7.525" height="612.787" transform="translate(169.437)"/>
            <path id="Path_589" data-name="Path 589" d="M4168.632,388.168l125.246-83.521v21.968l-125.246,77.557Z" transform="translate(-4141.839 -92.251)"/>
            <path id="Path_590" data-name="Path 590" d="M4168.632,412.014h13.283l111.963-66.308V334.457Z" transform="translate(-4141.839 -100.093)" fill="#fff"/>
          </g>
        </g>
        <line id="Line_30" data-name="Line 30" y1="21.331" x2="36.025" transform="translate(43.708 288.439)" fill="none" stroke="#0d0d0c" stroke-linecap="round" stroke-linejoin="round" stroke-width="2"/>
        <line id="Line_31" data-name="Line 31" x2="32.758" transform="translate(9.268 200.795)" fill="none" stroke="#0d0d0c" stroke-linecap="round" stroke-linejoin="round" stroke-width="2"/>
        <path id="Path_591" data-name="Path 591" d="M4141.246,768.749h43.208l13.154,3.65" transform="translate(-4131.977 -214.336)" fill="none" stroke="#0d0d0c" stroke-linecap="round" stroke-linejoin="round" stroke-width="2"/>
        <line id="Line_32" data-name="Line 32" y1="249.834" transform="translate(52.475 304.578)" fill="none" stroke="#0d0d0c" stroke-linecap="round" stroke-linejoin="round" stroke-width="2"/>
        <line id="Line_33" data-name="Line 33" x1="71.386" y1="19.803" transform="translate(80.654 562.229)" fill="none" stroke="#0d0d0c" stroke-linecap="round" stroke-linejoin="round" stroke-width="2"/>
        <line id="Line_34" data-name="Line 34" y1="2.123" x2="3.584" transform="translate(82.891 284.442)" fill="none" stroke="#0d0d0c" stroke-linecap="round" stroke-linejoin="round" stroke-width="2"/>
      </g>
    </g>
  </g>
</svg>
