<svg xmlns="http://www.w3.org/2000/svg" xmlns:xlink="http://www.w3.org/1999/xlink" width="257" height="191" viewBox="0 0 257 191">
  <defs>
    <clipPath id="clip-path">
      <rect id="Rectangle_179" data-name="Rectangle 179" width="257" height="191" transform="translate(0 969)" fill="none"/>
    </clipPath>
  </defs>
  <g id="Mask_Group_2" data-name="Mask Group 2" transform="translate(0 -969)" clip-path="url(#clip-path)">
    <g id="Group_2784" data-name="Group 2784" transform="translate(-54.461 969.226)">
      <path id="Path_5586" data-name="Path 5586" d="M-29.954,1106.554-82.275,846.636l24.94-4.235,1.741,10.307a6.539,6.539,0,0,0-1.238,5.074,6.612,6.612,0,0,0,7.589,5.382,6.585,6.585,0,0,0,5.382-7.589,6.6,6.6,0,0,0-4.917-5.323l-1.545-9.07,35.7-6.067,1.722,10.1a6.522,6.522,0,0,0-1.429,5.329,6.591,6.591,0,0,0,7.589,5.382,6.584,6.584,0,0,0,5.382-7.588A6.6,6.6,0,0,0-6.019,843.1l-1.568-9.175,35.7-6.093,1.7,9.913A6.578,6.578,0,1,0,41.137,841.1a6.654,6.654,0,0,0-4.423-5.176l-1.564-9.279,35.7-6.067L72.5,830.3a6.573,6.573,0,1,0,6.971-1.507l-1.586-9.411,35.7-6.093,1.634,9.57a6.579,6.579,0,1,0,10.919,3.758,6.667,6.667,0,0,0-3.905-4.976L120.6,812.1l1.16-.2,25.468-4.35,4.572,2.139,5.581,2.591.528,3.164a6.582,6.582,0,1,0,10.729,3.936,6.788,6.788,0,0,0-.794-2.228l.413.2,9.276,4.321,1.252-20.112,7.562.584,4.568,25.766s40.221,215.2,42.56,232.394-11.6,32.043-34.762,36.56q-1.112.217-2.2.4l-3.233.583L1.893,1132.274C-12.428,1134.884-26.535,1123.445-29.954,1106.554Z" transform="translate(89.737 -793.094)" fill-rule="evenodd"/>
      <path id="Path_5587" data-name="Path 5587" d="M-91.995,836.2-39.664,1096.1c3.411,16.911,17.505,28.335,31.842,25.735l202.174-36.361c14.239-2.557,23.564-18.048,21.045-35.031L177.206,790.365l-23.588,4.016,1.658,9.74a6.571,6.571,0,1,1-7.08.886l-1.606-9.43-35.7,6.079,1.627,9.558a6.579,6.579,0,1,1-7.027,1.2l-1.628-9.559-35.7,6.079,1.605,9.43a6.586,6.586,0,1,1-6.974,1.507l-1.658-9.74-35.7,6.078L27,825.481a6.666,6.666,0,0,1,4.417,5.176A6.578,6.578,0,1,1,20.083,827.3L18.4,817.4l-35.7,6.079,1.561,9.171a6.613,6.613,0,0,1,4.668,5.24,6.583,6.583,0,0,1-5.38,7.589,6.582,6.582,0,0,1-7.588-5.38,6.492,6.492,0,0,1,1.433-5.322l-1.72-10.1-35.7,6.079,1.544,9.068a6.585,6.585,0,0,1,4.917,5.3,6.581,6.581,0,0,1-5.38,7.588,6.581,6.581,0,0,1-7.589-5.38,6.5,6.5,0,0,1,1.236-5.075l-1.755-10.308Z" transform="translate(92.845 -789.515)" fill="#ed759d" fill-rule="evenodd"/>
      <path id="Path_5588" data-name="Path 5588" d="M-12.384,1122.665c-13.263,0-25.326-10.989-28.514-26.793L-93.228,835.965a.847.847,0,0,1,.133-.649.849.849,0,0,1,.558-.357l24.931-4.245a.852.852,0,0,1,.98.7l1.756,10.308a.854.854,0,0,1-.166.664,5.653,5.653,0,0,0-1.07,4.411,5.69,5.69,0,0,0,2.33,3.707,5.675,5.675,0,0,0,4.278.979,5.734,5.734,0,0,0,4.685-6.607,5.7,5.7,0,0,0-4.277-4.619.85.85,0,0,1-.64-.684l-1.545-9.068a.852.852,0,0,1,.145-.635.848.848,0,0,1,.551-.346l35.7-6.079a.85.85,0,0,1,.98.7l1.72,10.1a.851.851,0,0,1-.192.7,5.633,5.633,0,0,0-1.241,4.627A5.734,5.734,0,0,0-17,844.243a5.734,5.734,0,0,0,4.685-6.608,5.731,5.731,0,0,0-4.069-4.566.851.851,0,0,1-.6-.673l-1.561-9.171a.851.851,0,0,1,.7-.982l35.7-6.078a.85.85,0,0,1,.286,1.677l-34.866,5.936,1.333,7.83a7.414,7.414,0,0,1,4.753,5.742,7.438,7.438,0,0,1-6.076,8.57,7.437,7.437,0,0,1-8.57-6.076,7.345,7.345,0,0,1,1.369-5.7l-1.513-8.886-34.028,5.793,1.311,7.7a7.413,7.413,0,0,1,5.008,5.833,7.437,7.437,0,0,1-6.076,8.57,7.371,7.371,0,0,1-5.548-1.269,7.382,7.382,0,0,1-3.021-4.807,7.386,7.386,0,0,1,1.176-5.43l-1.552-9.115-23.229,3.955,52.158,259.047c3.345,16.588,16.9,27.6,30.857,25.066L193.8,1084.241c13.879-2.493,22.82-17.457,20.355-34.069L176.092,790.95,154.2,794.677l1.444,8.483a7.429,7.429,0,1,1-10.934,7.742.85.85,0,1,1,1.676-.286,5.728,5.728,0,1,0,8.126-6.127.85.85,0,0,1-.473-.625l-1.658-9.74a.85.85,0,0,1,.7-.981l23.587-4.016a.852.852,0,0,1,.984.714l38.191,260.081c2.6,17.526-6.948,33.336-21.736,35.992L-8.071,1122.276A24.093,24.093,0,0,1-12.384,1122.665Z" transform="translate(93.245 -789.115)" fill="#0d0d0c"/>
      <path id="Path_5589" data-name="Path 5589" d="M76.46,844.661a7.44,7.44,0,0,1-7.319-6.182.85.85,0,1,1,1.676-.285,5.728,5.728,0,0,0,11.293-1.923,5.806,5.806,0,0,0-3.854-4.515.85.85,0,0,1-.563-.662l-1.579-9.275a.851.851,0,0,1,.7-.981l35.7-6.079a.851.851,0,0,1,.981.7l1.658,9.74a.851.851,0,0,1-.239.746,5.721,5.721,0,1,0,6.078-1.313.85.85,0,0,1-.541-.654l-1.605-9.43a.85.85,0,0,1,.7-.981l35.7-6.079a.85.85,0,1,1,.285,1.677L120.664,815.1l1.384,8.129a7.442,7.442,0,0,1,2.977,11.059,7.429,7.429,0,1,1-11.62-9.223l-1.444-8.483-34.027,5.793,1.354,7.958a7.445,7.445,0,0,1-2.828,14.331Z" transform="translate(41.318 -794.986)" fill="#0d0d0c"/>
      <path id="Path_5590" data-name="Path 5590" d="M201.418,826.771a7.442,7.442,0,0,1-7.32-6.183.85.85,0,1,1,1.676-.286,5.728,5.728,0,1,0,7.89-6.256.849.849,0,0,1-.5-.637l-1.627-9.558a.851.851,0,0,1,.7-.981l35.7-6.078a.85.85,0,0,1,.285,1.677L203.356,804.4l1.41,8.283a7.441,7.441,0,0,1-3.348,14.084Z" transform="translate(1.358 -791.566)" fill="#0d0d0c"/>
      <g id="Group_2521" data-name="Group 2521" transform="translate(38.223 59.162)">
        <g id="Group_2512" data-name="Group 2512">
          <path id="Path_5591" data-name="Path 5591" d="M-36.947,917.078,174.82,876.643l-.106-.551L-37.051,916.527Z" transform="translate(37.051 -876.092)" fill="#fff"/>
        </g>
        <g id="Group_2513" data-name="Group 2513" transform="translate(4.117 22.78)">
          <path id="Path_5592" data-name="Path 5592" d="M-30.894,950.568l211.768-40.435-.106-.551L-31,950.018Z" transform="translate(30.999 -909.583)" fill="#fff"/>
        </g>
        <g id="Group_2514" data-name="Group 2514" transform="translate(8.235 45.561)">
          <path id="Path_5593" data-name="Path 5593" d="M-24.84,984.059l211.768-40.435-.106-.55L-24.945,983.508Z" transform="translate(24.945 -943.073)" fill="#fff"/>
        </g>
        <g id="Group_2515" data-name="Group 2515" transform="translate(12.352 68.341)">
          <path id="Path_5594" data-name="Path 5594" d="M-18.787,1017.549,192.98,977.114l-.106-.55L-18.891,1017Z" transform="translate(18.891 -976.564)" fill="#fff"/>
        </g>
        <g id="Group_2516" data-name="Group 2516" transform="translate(16.47 91.122)">
          <path id="Path_5595" data-name="Path 5595" d="M-12.734,1051.04,199.034,1010.6l-.107-.55-211.765,40.435Z" transform="translate(12.838 -1010.054)" fill="#fff"/>
        </g>
        <g id="Group_2517" data-name="Group 2517" transform="translate(20.588 113.902)">
          <path id="Path_5596" data-name="Path 5596" d="M-6.68,1084.531l211.768-40.436-.106-.55L-6.784,1083.979Z" transform="translate(6.784 -1043.545)" fill="#fff"/>
        </g>
        <g id="Group_2518" data-name="Group 2518" transform="translate(24.705 136.682)">
          <path id="Path_5597" data-name="Path 5597" d="M-.627,1118.021l211.768-40.435-.106-.55L-.731,1117.47Z" transform="translate(0.731 -1077.035)" fill="#fff"/>
        </g>
        <g id="Group_2519" data-name="Group 2519" transform="translate(28.823 159.463)">
          <path id="Path_5598" data-name="Path 5598" d="M5.426,1151.511l211.768-40.435-.106-.551L5.323,1150.961Z" transform="translate(-5.323 -1110.525)" fill="#fff"/>
        </g>
        <g id="Group_2520" data-name="Group 2520" transform="translate(32.941 182.243)">
          <path id="Path_5599" data-name="Path 5599" d="M11.481,1185l211.767-40.437-.106-.55L11.376,1184.453Z" transform="translate(-11.376 -1144.016)" fill="#fff"/>
        </g>
      </g>
    </g>
  </g>
</svg>
