<svg xmlns="http://www.w3.org/2000/svg" width="955.84" height="897.349" viewBox="0 0 955.84 897.349">
  <g id="Group_2774" data-name="Group 2774" transform="matrix(1, 0.017, -0.017, 1, 8.473, 0)">
    <path id="Path_5558" data-name="Path 5558" d="M0,0S40.592,43.485,43.694,45.909s8.487,0,8.487,0l112.547,76.467,53.7,6.3L323.856,256.463l253.7,216.683S844.161,709.261,921.184,800.967c.25.3-243.252,37.226-243.252,37.226L306.693,434.976,74.368,275.476l-13.031-121.6Z" transform="translate(26.368 2.37)"/>
    <g id="Group_2770" data-name="Group 2770" transform="translate(0)">
      <g id="Group_2769" data-name="Group 2769" transform="translate(221.647 341.532)">
        <path id="Path_5559" data-name="Path 5559" d="M75.346,0S376.729,254.15,540.784,475.919L186.609,540.984,0,154.685Z" transform="translate(95.142 0)" fill="#f9cfcc"/>
        <path id="Path_5560" data-name="Path 5560" d="M394.4,499.239l-112.644,23.8S143.172,227.256,95.143,148.938C53.182,80.515,0,0,0,0L29.288,1.47s98.743,108.358,121.438,136.279,69.225,95.226,94.787,131.2S394.4,499.239,394.4,499.239Z" transform="translate(0 17.94)" fill="#e8b1b1"/>
      </g>
      <path id="Path_5561" data-name="Path 5561" d="M545.489,485.483H324.223l-125.528-158.8s-50.474-19.727-74.565-34.2v-.006c-8.11-4.867-14.483-8.712-17.035-10.28-10.147-6.23-12.935-10.2-18.117-19.86s-25.792-47.616-29.85-55.4S54.675,195.95,56.3,186.052s2.775-14.709,1.632-19.86a84.891,84.891,0,0,0-5.358-15.77c-2.026-4.371-2.391-5.774-1.231-7.938s4.171-3.417,4.171-3.417S39.9,108.056,25.128,77.142.892,20.775.354,18.354a14.176,14.176,0,0,1,2.9-12.186,20,20,0,0,1,2.2-2.374C9.839-.243,17.77-.893,23.506,1.062A10.669,10.669,0,0,1,29.579,5.51C76.414,89.218,104.4,129.35,104.4,129.35s6.031-1.62,8.809-2.236,3.722-.193,6.155,1.228,6.895,3.61,6.895,3.61,1.816-4.482,2.847-6.991,2.573-3.22,6.451-4.611,12.113-4.384,16.2-2.907,11.913,4.722,11.913,4.722,1.047-4.679,4.947-6.677,14.45-4.762,20.267-4.5,8.8,1.616,16.25,3.987,25.628,7.875,30.621,9.383a14.861,14.861,0,0,1,9.045,6.685v0a30.084,30.084,0,0,1,1.773,3.2C249.439,140.188,310,264.434,310,264.434Z" fill="#f9cfcc"/>
      <path id="Path_5562" data-name="Path 5562" d="M4.825,0l50.9,105.884a16.4,16.4,0,0,0-12.6-8.269c-6.927-.656-7.677-2.748-10.817-8.621s-5.345-6.586-10.254-8.324-8.706-3.6-13.614-12.8C4.385,60.078,3.99,56.883,5.612,46.985s2.774-14.709,1.631-19.86a84.9,84.9,0,0,0-5.358-15.77C-.14,6.985-.506,5.582.655,3.417S4.825,0,4.825,0Z" transform="translate(50.684 139.067)" fill="#e8b1b1"/>
      <path id="Path_5563" data-name="Path 5563" d="M140.4,20.073a10.229,10.229,0,0,0-2.823-1.859c-1.859-.861-5.474-.822-13.5.883s-13.81,3.986-16.183,5.715a22.808,22.808,0,0,0-4.64,5.5c-1.717-2-5.088-3.112-7.915-2.961s-7.358,1.476-14.158,3.781-9.539,2.853-11.138,4.482a24.776,24.776,0,0,0-3.283,5.024s-2.543-1.185-4.416-1.988-6.356-.23-13.015,1.03-17.936,4.674-19.3,8.049S26.589,56.7,26.589,56.7L0,18.376s6.031-1.62,8.808-2.236,3.722-.193,6.155,1.228,6.9,3.61,6.9,3.61S23.675,16.5,24.7,13.988s2.573-3.22,6.451-4.611,12.113-4.384,16.2-2.907,11.913,4.722,11.913,4.722,1.047-4.679,4.947-6.677S78.666-.247,84.482.018,93.284,1.633,100.733,4s25.628,7.875,30.621,9.383A14.859,14.859,0,0,1,140.4,20.073Z" transform="translate(104.396 110.974)" fill="#e8b1b1"/>
      <path id="Path_5564" data-name="Path 5564" d="M238.54,193H200.095L74.566,34.2S24.093,14.476,0,.005V0C7.049,4.231,18.817,6.592,27.245,5.891s13.026,2.829,16.841,6.646,10.722,6.308,23.394,5.62S86.966,21.4,94.528,29.74C105.592,41.94,238.54,193,238.54,193Z" transform="translate(124.128 292.48)" fill="#e8b1b1"/>
      <path id="Path_5565" data-name="Path 5565" d="M0,0,6.755,13.436,13.445,26.9,26.719,53.887,39.845,80.942l6.51,13.553L52.8,108.081l.007.013a.664.664,0,0,1-1.2.577L45,95.163,38.461,81.622,25.485,54.489l-12.828-27.2L6.3,13.658Z" transform="translate(55.51 139.067)" fill="#0d0d0c"/>
      <path id="Path_5566" data-name="Path 5566" d="M0,0,14.931,22.842c4.975,7.612,9.926,15.241,14.952,22.819q7.474,11.408,15.133,22.688l3.84,5.63,3.9,5.588c2.6,3.723,5.248,7.409,7.99,11.018l0,.006a.686.686,0,0,1-1.087.837c-2.805-3.6-5.51-7.27-8.162-10.972-2.633-3.716-5.213-7.467-7.772-11.231-5.1-7.539-10.059-15.171-14.994-22.814Q21.4,34.894,14.2,23.308L7.05,11.684Z" transform="translate(73.164 80.38)" fill="#0d0d0c"/>
      <path id="Path_5567" data-name="Path 5567" d="M0,0Q3.514,1.568,7.061,3.046,10.6,4.55,14.156,6c4.74,1.945,9.481,3.89,14.238,5.8,4.738,1.958,9.5,3.851,14.219,5.895l1.772.8.9.438.888.529a14.213,14.213,0,0,1,3.035,2.712,19.194,19.194,0,0,1,2.222,3.336,21.167,21.167,0,0,1,1.548,3.7.783.783,0,0,1-1.492.476l-.015-.045a19.306,19.306,0,0,0-3.53-6.392,12.7,12.7,0,0,0-2.664-2.4,25.042,25.042,0,0,0-3.319-1.657L27.861,13.066c-4.69-2.075-9.387-4.134-14.043-6.291q-3.49-1.62-6.957-3.29Q3.406,1.791,0,0Z" transform="translate(126.255 131.952)" fill="#0d0d0c"/>
      <path id="Path_5568" data-name="Path 5568" d="M0,0C4.649,1.675,9.258,3.456,13.859,5.255l13.766,5.477,6.867,2.752c1.151.451,2.285.88,3.45,1.306a36.763,36.763,0,0,1,3.491,1.442,10.3,10.3,0,0,1,3.2,2.33c.888.968,1.613,1.953,2.378,2.934,1.5,1.994,2.938,4.009,4.249,6.155a.7.7,0,0,1-1.173.749l-.011-.015c-1.343-2.019-2.782-4.023-4.293-5.942-.758-.962-1.5-1.967-2.289-2.816a8.7,8.7,0,0,0-2.755-1.99c-2.138-1.01-4.52-1.809-6.8-2.771-2.292-.938-4.567-1.9-6.841-2.864-4.53-1.975-9.061-3.938-13.574-5.945S4.5,2.041,0,0Z" transform="translate(163.665 122.166)" fill="#0d0d0c"/>
    </g>
  </g>
</svg>
