<svg xmlns="http://www.w3.org/2000/svg" xmlns:xlink="http://www.w3.org/1999/xlink" width="468" height="299" viewBox="0 0 468 299">
  <defs>
    <clipPath id="clip-path">
      <rect id="Rectangle_170" data-name="Rectangle 170" width="468" height="299" transform="translate(182.906 48.051)" fill="none"/>
    </clipPath>
  </defs>
  <g id="Mask_Group_1" data-name="Mask Group 1" transform="translate(-182.906 -48.051)" clip-path="url(#clip-path)">
    <path id="Path_27" data-name="Path 27" d="M-188.986,266.384C53,203.078,264.268,95.89,407.787-72.217" transform="translate(188.986 76.953)" fill="none" stroke="#edde1d" stroke-miterlimit="10" stroke-width="64"/>
    <g id="Group_5" data-name="Group 5" transform="translate(48.961 10.625)">
      <path id="Path_28" data-name="Path 28" d="M-114.93,270.12q-8,2.328-13.835-2.061t-8.824-14.638q-3.079-10.577-.61-17.42t10.6-9.212a19.31,19.31,0,0,1,5.061-.836,20.843,20.843,0,0,1,4.587.434l3.118,10.706a16.131,16.131,0,0,0-9.13-.033q-4.159,1.21-5.38,4.5t.527,9.3q1.71,5.874,4.586,7.834a7.815,7.815,0,0,0,6.9.789,16.306,16.306,0,0,0,4.1-1.832,17.628,17.628,0,0,0,3.6-3.032l3.136,10.771a21.634,21.634,0,0,1-3.688,2.738A20.727,20.727,0,0,1-114.93,270.12Z" transform="translate(139.297 61.957)" fill="#1d1d1b"/>
      <path id="Path_29" data-name="Path 29" d="M-102.726,265.826-115.683,224l15.228-4.719a9.407,9.407,0,0,1,6.472.06,11.784,11.784,0,0,1,5.052,4.165,25.292,25.292,0,0,1,3.541,7.408,18.472,18.472,0,0,1,.825,7.894,12.231,12.231,0,0,1-2.413,6.122,6.041,6.041,0,0,1,1.3,1.128,23.867,23.867,0,0,1,1.513,1.987l6.764,9.933-8.91,2.761-6.211-9.108a4,4,0,0,0-1.4-1.382,2.183,2.183,0,0,0-1.628-.029l-2.409.746,3.783,12.209Zm1.866-24.208,4.5-1.4a3.528,3.528,0,0,0,2.454-2.291,7,7,0,0,0-.215-4.311q-1.71-5.519-5.347-4.394l-4.773,1.479Z" transform="translate(138.951 62.063)" fill="#1d1d1b"/>
      <path id="Path_30" data-name="Path 30" d="M-73.607,256.756l-13.5-41.651,8.511-2.759L-65.1,254Z" transform="translate(138.532 62.157)" fill="#1d1d1b"/>
      <path id="Path_31" data-name="Path 31" d="M-60.984,252.614l-14.142-41.438,8.242-2.813L-52.5,226.945l-.02-23.485,8.2-2.8,14.14,41.439-8.468,2.89-7.07-20.72L-45.7,239.5l-4.548,1.552-9.339-12.043,7.07,20.72Z" transform="translate(138.356 62.328)" fill="#1d1d1b"/>
      <path id="Path_32" data-name="Path 32" d="M-25.875,240.572l-14.973-41.145,21.825-7.942,3.347,9.2-13.416,4.882,2.442,6.708L-14.889,208l3.394,9.327-11.762,4.28,2.441,6.708L-7.4,223.43l3.347,9.2Z" transform="translate(137.854 62.463)" fill="#1d1d1b"/>
      <path id="Path_33" data-name="Path 33" d="M17.619,225.068a23.22,23.22,0,0,1-5.711,1.469,15.481,15.481,0,0,1-5.119-.15l-3.842-9.813a20.117,20.117,0,0,0,5.275.418,15.338,15.338,0,0,0,4.887-.965,8.679,8.679,0,0,0,3.134-1.848q.919-.98.176-2.88a3.377,3.377,0,0,0-1.46-1.838,6.246,6.246,0,0,0-2.54-.612q-1.6-.1-4.142-.2a18.376,18.376,0,0,1-5.705-1.126A9.615,9.615,0,0,1-1.354,204.6a19.723,19.723,0,0,1-2.913-5.284q-2.354-6.013-.59-10.318T2.8,182.389a23.411,23.411,0,0,1,5.075-1.33,23.815,23.815,0,0,1,4.55-.321l3.866,9.876a17.849,17.849,0,0,0-4.657-.148,15.031,15.031,0,0,0-3.789.9,11.735,11.735,0,0,0-3.15,1.744,2.25,2.25,0,0,0-.482,2.818,2.7,2.7,0,0,0,2.08,1.85,28.934,28.934,0,0,0,4.919.228,15.6,15.6,0,0,1,6.6,1.138,10.62,10.62,0,0,1,4.226,3.42,23.741,23.741,0,0,1,2.884,5.407,13.938,13.938,0,0,1,.493,10.138Q23.734,222.675,17.619,225.068Z" transform="translate(137.337 62.62)" fill="#1d1d1b"/>
      <path id="Path_34" data-name="Path 34" d="M47.953,212.818q-7.7,3.187-13.977-.541T23.61,198.687q-4.211-10.178-2.5-17.249t9.536-10.313a19.345,19.345,0,0,1,4.94-1.381,20.813,20.813,0,0,1,4.606-.069l4.266,10.3a16.133,16.133,0,0,0-9.079.964q-4,1.655-4.858,5.065t1.537,9.186q2.341,5.653,5.412,7.289a7.816,7.816,0,0,0,6.942.033,16.286,16.286,0,0,0,3.877-2.266,17.644,17.644,0,0,0,3.252-3.406L55.828,207.2a21.609,21.609,0,0,1-3.369,3.125A20.725,20.725,0,0,1,47.953,212.818Z" transform="translate(136.953 62.784)" fill="#1d1d1b"/>
      <path id="Path_35" data-name="Path 35" d="M59.58,207.168,42.026,167.055l21.277-9.31,3.925,8.969-13.079,5.724,2.861,6.54,11.467-5.017,3.979,9.094-11.467,5.017,2.862,6.541,13.08-5.724,3.925,8.97Z" transform="translate(136.639 62.957)" fill="#1d1d1b"/>
      <path id="Path_36" data-name="Path 36" d="M83.584,196.617,65.149,156.9l6.907-3.206,20.252,16.16-9.761-21.029,8.115-3.767L109.1,184.775,102.147,188,81.968,171.883,91.7,192.85Z" transform="translate(136.3 63.143)" fill="#1d1d1b"/>
      <path id="Path_37" data-name="Path 37" d="M113.123,182.841,93.781,143.559,114.618,133.3l4.324,8.783-12.808,6.307,3.154,6.4,11.229-5.53,4.385,8.906-11.229,5.53,3.153,6.4,12.809-6.307,4.325,8.784Z" transform="translate(135.88 63.316)" fill="#1d1d1b"/>
      <path id="Path_38" data-name="Path 38" d="M162.672,157.662l-21.227-38.294,11.988-6.646a14.24,14.24,0,0,1,8.106-1.967,13.745,13.745,0,0,1,7.882,3.716,38.763,38.763,0,0,1,7.786,10.414q5.472,9.873,4.605,16.26t-7.153,9.872Zm3.079-12.9,3.163-1.753a7.177,7.177,0,0,0,2.844-2.626,5.928,5.928,0,0,0,.359-4.163,26.113,26.113,0,0,0-2.9-6.9,30.135,30.135,0,0,0-4.321-6.272,6.413,6.413,0,0,0-3.791-2.175,6.712,6.712,0,0,0-3.924.97l-3.163,1.755Z" transform="translate(135.181 63.647)" fill="#1d1d1b"/>
      <path id="Path_39" data-name="Path 39" d="M204.358,134.784q-6.546,3.889-12.713,1.381T179.44,123.487a39.5,39.5,0,0,1-5.161-12.235,13.971,13.971,0,0,1,.848-8.965,17.156,17.156,0,0,1,14.691-8.723,13.969,13.969,0,0,1,8.276,3.546,39.5,39.5,0,0,1,8.273,10.388q6.039,10.17,5.269,16.8T204.358,134.784Zm-5.553-9.353a5.28,5.28,0,0,0,2.87-4.907q-.077-3.157-3.165-8.361-3.3-5.553-6-7.073a5.95,5.95,0,0,0-8.554,5.078q.043,3.1,3.339,8.652,3.091,5.2,5.825,6.781A5.28,5.28,0,0,0,198.8,125.431Z" transform="translate(134.705 63.898)" fill="#1d1d1b"/>
      <path id="Path_40" data-name="Path 40" d="M230.045,118.249,206.15,81.56l6.381-4.156,22.344,13.116L222.222,71.093l7.5-4.884L253.614,102.9l-6.42,4.181L224.928,94l12.614,19.37Z" transform="translate(134.233 64.299)" fill="#1d1d1b"/>
      <path id="Path_41" data-name="Path 41" d="M270.882,91.886q-6.237,4.368-12.573,2.33T245.187,82.488a39.482,39.482,0,0,1-6.065-11.813,13.967,13.967,0,0,1,.174-9,17.159,17.159,0,0,1,13.995-9.8,13.973,13.973,0,0,1,8.519,2.916,39.477,39.477,0,0,1,9.028,9.738q6.786,9.69,6.514,16.355T270.882,91.886Zm-6.239-8.91a5.281,5.281,0,0,0,2.494-5.109q-.312-3.142-3.783-8.1-3.7-5.29-6.513-6.6a5.948,5.948,0,0,0-8.147,5.706q.273,3.086,3.978,8.377,3.472,4.957,6.318,6.324A5.28,5.28,0,0,0,264.643,82.975Z" transform="translate(133.759 64.509)" fill="#1d1d1b"/>
      <path id="Path_42" data-name="Path 42" d="M291.985,75.757,271.457,48.32l-6.9,5.161-5.7-7.622,20.959-15.682,5.7,7.622-6.9,5.16L299.149,70.4Z" transform="translate(133.46 64.827)" fill="#1d1d1b"/>
      <path id="Path_43" data-name="Path 43" d="M316.922,56.73,289.315,22.744,307.342,8.1l6.173,7.6-11.082,9,4.5,5.542,9.716-7.893,6.258,7.7-9.715,7.892,4.5,5.542,11.082-9,6.173,7.6Z" transform="translate(133.014 65.151)" fill="#1d1d1b"/>
      <path id="Path_44" data-name="Path 44" d="M338.186,39.359l-28.73-33.04,5.746-5,23.94,9.907L323.929-6.266l6.752-5.872L359.41,20.9l-5.781,5.028-23.86-9.888,15.168,17.444Z" transform="translate(132.719 65.448)" fill="#1d1d1b"/>
      <path id="Path_45" data-name="Path 45" d="M368.534,12.482,345.162-12.575l-6.3,5.875-6.492-6.96,19.141-17.853L358-24.554l-6.3,5.876L375.077,6.38Z" transform="translate(132.383 65.732)" fill="#1d1d1b"/>
      <path id="Path_46" data-name="Path 46" d="M384.031-2.069,353.156-33.116l16.468-16.376,6.9,6.943L366.4-32.482l5.033,5.062,8.876-8.826,7,7.038-8.876,8.826,5.035,5.062L393.6-25.388l6.9,6.943Z" transform="translate(132.078 65.995)" fill="#1d1d1b"/>
      <path id="Path_47" data-name="Path 47" d="M403.446-21.431,371.505-51.378l10.9-11.631a9.4,9.4,0,0,1,5.655-3.147,11.772,11.772,0,0,1,6.449,1.122,25.25,25.25,0,0,1,6.741,4.689,18.47,18.47,0,0,1,4.621,6.453,12.252,12.252,0,0,1,.929,6.514,6.038,6.038,0,0,1,1.685.34,23.359,23.359,0,0,1,2.3.979l10.79,5.289-6.38,6.806-9.9-4.848a3.987,3.987,0,0,0-1.9-.508,2.182,2.182,0,0,0-1.43.779l-1.725,1.84,9.324,8.743ZM393.1-43.4l3.222-3.437a3.523,3.523,0,0,0,1-3.2A6.994,6.994,0,0,0,395-53.679q-4.214-3.952-6.82-1.176l-3.418,3.646Z" transform="translate(131.809 66.241)" fill="#1d1d1b"/>
    </g>
    <g id="Group_6" data-name="Group 6" transform="translate(483.236)">
      <path id="Path_48" data-name="Path 48" d="M396.792-16.488a1.1,1.1,0,0,0-.127-.606Z" transform="translate(-302.835 76.146)"/>
      <path id="Path_49" data-name="Path 49" d="M424.832-15.1,361.506,22.751c4.014,3.488,8.789,4.666,14.764,3.586,12.456-2.252,25.345-3.369,37.923-5.431a261.774,261.774,0,0,0,39.834-9.327c3.03-1,6.428-2.148,8.617-4.3,2.222-2.189,3.958-4.439,6.755-6.216L411.125-77.025C395.39-68.207,381-58.151,371.425-43.813c-1.848,2.767-3.585,1.751-5.483.4-6.648-4.745-13.824-5.269-21.577-3.025-5.659,1.637-11.434,2.993-17.175,4.424-3.822.953-9.781,1.994-11.9,5.273a5.1,5.1,0,0,0-.562,3.918,11.28,11.28,0,0,0,2.587,4.677c6.4,7.571,12.707,15.2,19.207,22.709,7.475,8.634,15.3,17.047,22.621,25.772A21.622,21.622,0,0,0,361.506,22.751ZM329.07-26.32c9.408,9.573,16.989,20.23,24.663,30.832a9.367,9.367,0,0,1,2.783,4.293c-2.27.078-2.877-1.437-3.747-2.666A391.447,391.447,0,0,1,329.07-26.32Z" transform="translate(-301.632 77.025)"/>
      <path id="Path_50" data-name="Path 50" d="M345.7,29.863c-11.864-17.542-23.557-35.211-39-50.727C306.824-13.371,334.438,22.485,345.7,29.863Z" transform="translate(-301.516 76.202)"/>
      <path id="Path_51" data-name="Path 51" d="M317.474-23.152c-.645-.827-1.113-2.09-3.329-1.532,10.925,17.3,23.172,33.761,35.807,50.018,1.864,2.4,4.742,6.245,7.391,4.705,2.667-1.55-1.014-4.962-2.811-7.047C341.579,7.964,329.6-7.634,317.474-23.152Z" transform="translate(-301.625 76.26)"/>
      <path id="Path_52" data-name="Path 52" d="M333.641,30.779c-8.766-15.33-20.722-28.911-32.2-42.668C309.272,4,321.017,17.631,333.641,30.779Z" transform="translate(-301.439 76.07)"/>
    </g>
    <g id="Group_7" data-name="Group 7" transform="translate(117.576 223.52)">
      <path id="Path_53" data-name="Path 53" d="M-15.018,214.817a1.261,1.261,0,0,1-.356-.534Z" transform="translate(68.864 -150.765)"/>
      <path id="Path_54" data-name="Path 54" d="M36.115,219.863C34.7,208.817,33.834,197.7,32.581,186.63c-1.09-9.626-2.4-19.226-3.6-28.839a11.966,11.966,0,0,0-1.664-5.1,6.089,6.089,0,0,0-3.226-2.6c-3.81-1.165-8.575,1.7-11.838,3.331-4.9,2.444-9.773,4.964-14.768,7.2-6.846,3.066-11.291,7.858-12.31,15.5-.291,2.182-.72,4.009-3.975,3.062-16.866-4.909-33.861-3.644-50.856-.626l17.614,94.4c3.173-.379,5.976.247,9.063.531,3.041.28,6.159-.943,8.926-2.047A217.455,217.455,0,0,0-.484,254.038c9.958-6.16,19.438-13.221,29.452-19.164,4.8-2.85,7.159-6.661,7.32-11.743A20.485,20.485,0,0,0,36.115,219.863Zm-6.036-14.572c.309,1.457,1,2.968-.58,4.3a9.676,9.676,0,0,1-1.251-4.932c-2.553-12.671-5.208-25.327-5.844-38.288A395.633,395.633,0,0,1,30.079,205.291Z" transform="translate(69.66 -149.82)"/>
      <path id="Path_55" data-name="Path 55" d="M53.056,218.336c-4.785-20.455-9.774-40.9-10.678-62.025C47.748,162.015,55.262,205.887,53.056,218.336Z" transform="translate(68.018 -149.915)"/>
      <path id="Path_56" data-name="Path 56" d="M33.454,161.195c-.168-1.017-.773-2.253,1.123-3.193,5.238,19.7,8.976,39.574,12.307,59.537.491,2.945,1.353,7.6-1.548,8.066-2.922.47-2.928-4.351-3.236-7.02C39.879,199.353,36.589,180.286,33.454,161.195Z" transform="translate(68.152 -149.94)"/>
      <path id="Path_57" data-name="Path 57" d="M61.831,211.631c-5.257-16.894-7.1-34.428-9.383-51.8C58.736,176.569,60.757,194.012,61.831,211.631Z" transform="translate(67.87 -149.967)"/>
    </g>
  </g>
</svg>
