<svg xmlns="http://www.w3.org/2000/svg" width="1037.177" height="870.46" viewBox="0 0 1037.177 870.46">
  <g id="Group_340" data-name="Group 340" transform="translate(-1265.528 -423.46) rotate(3)">
    <g id="Group_138" data-name="Group 138" transform="translate(1320.22 354.852)">
      <g id="Group_136" data-name="Group 136" transform="translate(65.01 2.629)">
        <path id="Path_609" data-name="Path 609" d="M6727.665,927.774l258.142,234.8h574.45L7036.344,825.234S6978.39,698.7,6974.855,682.043s-3.088-60.365-10.95-85.073-62.166-97.155-62.166-97.155l-96.748,90.136-3.673-65.418-67.245-127.139Z" transform="translate(-6619.293 -367.01)"/>
        <path id="Path_610" data-name="Path 610" d="M6626.973,667.858l122.246,64.361,8.423,53.855s-35.377,25.269-44.643,21.9S6626.973,667.858,6626.973,667.858Z" transform="translate(-6626.973 -346.38)"/>
        <path id="Path_611" data-name="Path 611" d="M6780.879,369.163,6825.5,429.4l.144-11.789,59.8,71.452-33.692,28.077-47.169-8.423Z" transform="translate(-6615.234 -369.163)"/>
      </g>
      <g id="Group_137" data-name="Group 137">
        <path id="Path_612" data-name="Path 612" d="M6865.107,949.245s-97.255-6.378-125.156-19.132S6645.93,816.006,6634.77,800.859s-26.306-66.3-53.411-91.342-15.989-40.877,25.465-29.716,58.99,48.159,67.759,59.381,25.509,16.006,25.509,16.006,3.173-36.871,8.723-103.341c5.477-65.576,7.752-115.008,7.752-115.008s-12.09-116.52-10.895-139.239,22.719-32.286,29.894-24.314,17.14,48.229,21.391,70.55,19.664,72.809,23.384,95.66,10.1,102.038,10.1,102.038l15.411-111.6s-26.572-86.094-32.418-113.73,7.972-47.3,18.6-49.425,32.019,57.131,32.019,57.131,11.027-12.489,17.938-6.111,43.046,74.27,43.046,74.27,11.161-20.229,20.728-7.125,31.764,86.367,33.359,93.541.919,104.728.919,104.728,16.129,140.813,28.884,174.119S6865.107,949.245,6865.107,949.245Z" transform="translate(-6566.571 -366.721)" fill="#f9cfcc"/>
        <path id="Path_613" data-name="Path 613" d="M6869.409,475.175s23,53.251,26.086,72.9-5.9,107.253-4.493,117.361a142.124,142.124,0,0,1-4.813-33.415c-.52-19.089.517-79.636.517-79.636s-5.457-22.954-11.234-38-9.662-24.779-12.875-30.357v-.484s1.271-2.088,3.372-4.841A14.354,14.354,0,0,1,6869.409,475.175Z" transform="translate(-6543.991 -358.449)" fill="#e8b1b1"/>
        <path id="Path_614" data-name="Path 614" d="M6813.438,414.1s45.111,98.212,48.059,110.847-.752,68.494.14,86.758c.933,19.092-2.527,26.222,1.966,54.117,1.343,8.339-6.107,18.32-6.107,18.32s-4.378-25.9-5.769-35.9-2.443-31.27-1.812-60.961-.586-62.395-2.123-66.162-40.935-98.287-41.279-99.109-.634-1.8-.634-1.8a26.392,26.392,0,0,1,3.728-3.657A24.447,24.447,0,0,1,6813.438,414.1Z" transform="translate(-6548.318 -363.108)" fill="#e8b1b1"/>
        <path id="Path_615" data-name="Path 615" d="M6805.805,419.855c12.793,30.625,38.624,92.394,41.993,100.817s2.247,96.429,2.247,105.21,2.808,31.8,2.808,31.8" transform="translate(-6548.323 -362.668)" fill="none" stroke="#0d0d0c" stroke-linecap="round" stroke-linejoin="round" stroke-width="2.045"/>
        <path id="Path_616" data-name="Path 616" d="M6862.467,483.183c8.525,14.97,23.125,57.927,24.248,68.6s-1.685,77.363,0,91.185" transform="translate(-6544.001 -357.838)" fill="none" stroke="#0d0d0c" stroke-linecap="round" stroke-linejoin="round" stroke-width="2"/>
        <path id="Path_617" data-name="Path 617" d="M6774.575,622.06c.781,12.061,2.044,24.274,2.044,24.274" transform="translate(-6550.706 -347.245)" fill="none" stroke="#0d0d0c" stroke-linecap="round" stroke-linejoin="round" stroke-width="2"/>
        <path id="Path_618" data-name="Path 618" d="M6690.63,727.658c2.547,20.921,8.723,31.59,8.723,31.59" transform="translate(-6557.108 -339.191)" fill="none" stroke="#0d0d0c" stroke-linecap="round" stroke-linejoin="round" stroke-width="2"/>
        <path id="Path_619" data-name="Path 619" d="M6760.324,882.182l211.51,286.041h346.1L6882.368,760.063Z" transform="translate(-6551.792 -336.719)" fill="#f9cfcc"/>
        <path id="Path_620" data-name="Path 620" d="M6851.722,922.728c-16.584-21.8-32.9-30.8-49.7-34.8a.218.218,0,0,1-.026-.011c-13.518-4.477-33.37-5.754-72.966-30.6s-93.782-111.044-108.1-148.95-51.23-35.044-45.117-27.316c1.463,1.582,3.1,3.2,4.9,4.865,27.1,25.045,42.244,76.2,53.4,91.344,6.358,8.627,30.555,45.228,55.358,77.492l-.015-.018.032.04c7.163,9.316,14.375,18.273,21.224,26.086l.068.081c5.085,5.973,11.123,13.922,20.7,20.551a40.514,40.514,0,0,0,7.816,5.019,63.2,63.2,0,0,0,6.773,2.567c18.8,6.978,50.836,9.88,50.836,9.88l189.05,255.666h89.815S6881.2,961.474,6851.722,922.728Z" transform="translate(-6565.917 -343.111)" fill="#e8b1b1"/>
      </g>
    </g>
    <path id="Path_621" data-name="Path 621" d="M6757.613,397.619c.677-5.775,11.428-5.1,13.674,13.989s36.01,111.185,38.22,115.677-18.565,115.488-18.565,132.34,12.354,36.12,2.807,47.351c0,0-4.3-23.544-10.056-33.411s-6.514-14.294-6.776-19.093-1.208-14.951-.927-15.792S6791.3,527.818,6791.3,527.818s-23.038-75.236-29.423-100.066S6757.613,397.619,6757.613,397.619Z" transform="translate(-5231.805 -9.756)" fill="#e8b1b1"/>
  </g>
</svg>
