<svg xmlns="http://www.w3.org/2000/svg" xmlns:xlink="http://www.w3.org/1999/xlink" width="586" height="335" viewBox="0 0 586 335">
  <defs>
    <clipPath id="clip-path">
      <rect id="Rectangle_172" data-name="Rectangle 172" width="586" height="335" transform="translate(0 745)" fill="none"/>
    </clipPath>
  </defs>
  <g id="Mask_Group_2" data-name="Mask Group 2" transform="translate(0 -745)" clip-path="url(#clip-path)">
    <g id="Group_2522" data-name="Group 2522" transform="translate(19.313 745.324)">
      <path id="Path_5586" data-name="Path 5586" d="M13.433,1359.467-82.275,884.016l45.621-7.747,3.185,18.854a11.961,11.961,0,0,0-2.265,9.281,12.1,12.1,0,0,0,13.882,9.846,12.045,12.045,0,0,0,9.846-13.882A12.065,12.065,0,0,0-21,890.632l-2.826-16.591,65.3-11.1,3.149,18.471a11.93,11.93,0,0,0-2.614,9.749,12.034,12.034,0,1,0,15.209-13.615l-2.868-16.783,65.3-11.146,3.113,18.134a12.033,12.033,0,1,0,20.716,6.13,12.172,12.172,0,0,0-8.091-9.467l-2.861-16.974,65.3-11.1,3.026,17.8a12.024,12.024,0,1,0,12.751-2.757l-2.9-17.215,65.3-11.146,2.989,17.507a12.035,12.035,0,1,0,19.973,6.874,12.194,12.194,0,0,0-7.143-9.1l-2.99-17.458,2.123-.363,46.586-7.957,8.364,3.913,10.209,4.739.966,5.787a12.041,12.041,0,1,0,19.626,7.2,12.417,12.417,0,0,0-1.452-4.076l.755.361,16.968,7.9,2.291-36.79,13.832,1.069,8.355,47.131s73.574,393.644,77.852,425.1-21.216,58.614-63.588,66.877q-2.034.4-4.023.725l-5.914,1.066L71.688,1406.514C45.491,1411.288,19.687,1390.365,13.433,1359.467Z" transform="translate(95.924 -786.076)" fill-rule="evenodd"/>
      <path id="Path_5587" data-name="Path 5587" d="M-91.995,874.2,3.73,1349.632c6.24,30.935,32.021,51.832,58.247,47.075L431.8,1330.194c26.046-4.677,43.1-33.014,38.5-64.08l-69.86-475.749-43.147,7.346,3.034,17.817a12.019,12.019,0,1,1-12.95,1.621L344.436,799.9l-65.311,11.12L282.1,828.5a12.034,12.034,0,1,1-12.853,2.189l-2.977-17.486-65.311,11.12,2.936,17.249a12.048,12.048,0,1,1-12.757,2.756l-3.033-17.816-65.311,11.119,2.889,16.965a12.2,12.2,0,0,1,8.079,9.469,12.032,12.032,0,1,1-20.74-6.145l-3.082-18.1-65.311,11.12,2.856,16.776A12.049,12.049,0,1,1,32.3,881.344a11.875,11.875,0,0,1,2.622-9.735L31.775,853.13l-65.311,11.12,2.824,16.587a12.045,12.045,0,0,1,8.995,9.7,12.039,12.039,0,0,1-9.842,13.881,12.039,12.039,0,0,1-13.882-9.842,11.9,11.9,0,0,1,2.261-9.283l-3.21-18.855Z" transform="translate(93.55 -788.81)" fill="#ed759d" fill-rule="evenodd"/>
      <path id="Path_5588" data-name="Path 5588" d="M54.669,1399.256c-24.26,0-46.327-20.1-52.158-49.011l-95.725-475.43a1.55,1.55,0,0,1,.243-1.187,1.554,1.554,0,0,1,1.022-.653l45.6-7.764a1.558,1.558,0,0,1,1.793,1.273l3.211,18.855a1.563,1.563,0,0,1-.3,1.214,10.34,10.34,0,0,0-1.957,8.069,10.408,10.408,0,0,0,4.262,6.78,10.381,10.381,0,0,0,7.825,1.79,10.489,10.489,0,0,0,8.57-12.087,10.433,10.433,0,0,0-7.824-8.45,1.555,1.555,0,0,1-1.171-1.252l-2.826-16.587a1.558,1.558,0,0,1,.265-1.161,1.55,1.55,0,0,1,1.008-.633L31.82,851.9a1.556,1.556,0,0,1,1.793,1.272l3.147,18.478a1.556,1.556,0,0,1-.351,1.272,10.3,10.3,0,0,0-2.271,8.463,10.477,10.477,0,1,0,13.214-11.87,1.557,1.557,0,0,1-1.095-1.232L43.4,851.509a1.556,1.556,0,0,1,1.273-1.8l65.31-11.119a1.556,1.556,0,0,1,.523,3.067L46.728,852.519l2.439,14.324a13.607,13.607,0,1,1-15.592,4.641l-2.767-16.255-62.245,10.6,2.4,14.085a13.56,13.56,0,0,1,9.16,10.671,13.6,13.6,0,0,1-11.115,15.676,13.483,13.483,0,0,1-10.149-2.322,13.5,13.5,0,0,1-5.526-8.793,13.509,13.509,0,0,1,2.151-9.932l-2.839-16.674-42.491,7.234L5.561,1349.63c6.119,30.344,30.912,50.489,56.444,45.852l369.824-66.513c25.388-4.56,41.742-31.934,37.234-62.321l-69.63-474.177-40.045,6.818,2.642,15.517a13.589,13.589,0,1,1-20,14.162,1.555,1.555,0,1,1,3.066-.523,10.477,10.477,0,1,0,14.864-11.208,1.553,1.553,0,0,1-.865-1.143l-3.034-17.816a1.556,1.556,0,0,1,1.272-1.794l43.147-7.346a1.557,1.557,0,0,1,1.8,1.306l69.86,475.749c4.757,32.059-12.709,60.98-39.76,65.837L62.558,1398.543A44.069,44.069,0,0,1,54.669,1399.256Z" transform="translate(93.245 -789.115)" fill="#0d0d0c"/>
      <path id="Path_5589" data-name="Path 5589" d="M82.54,875.5A13.609,13.609,0,0,1,69.151,864.19a1.555,1.555,0,1,1,3.066-.521,10.477,10.477,0,0,0,20.657-3.517,10.621,10.621,0,0,0-7.05-8.258,1.556,1.556,0,0,1-1.029-1.211l-2.889-16.965a1.556,1.556,0,0,1,1.273-1.794L148.49,820.8a1.557,1.557,0,0,1,1.794,1.273l3.032,17.816a1.556,1.556,0,0,1-.438,1.365,10.464,10.464,0,1,0,11.119-2.4,1.554,1.554,0,0,1-.989-1.2l-2.936-17.249a1.555,1.555,0,0,1,1.272-1.794l65.312-11.12a1.556,1.556,0,1,1,.521,3.067L163.4,821.42l2.532,14.87a13.613,13.613,0,0,1,5.445,20.229,13.589,13.589,0,1,1-21.256-16.871l-2.642-15.517-62.244,10.6,2.477,14.557A13.618,13.618,0,0,1,82.54,875.5Z" transform="translate(132.905 -784.631)" fill="#0d0d0c"/>
      <path id="Path_5590" data-name="Path 5590" d="M207.5,851.64a13.612,13.612,0,0,1-13.389-11.309,1.555,1.555,0,1,1,3.066-.523,10.478,10.478,0,1,0,14.432-11.445,1.553,1.553,0,0,1-.915-1.166l-2.976-17.484a1.556,1.556,0,0,1,1.272-1.8L274.3,796.8a1.556,1.556,0,0,1,.521,3.067l-63.778,10.857,2.579,15.152A13.61,13.61,0,0,1,207.5,851.64Z" transform="translate(163.426 -787.243)" fill="#0d0d0c"/>
      <g id="Group_2521" data-name="Group 2521" transform="translate(69.919 108.221)">
        <g id="Group_2512" data-name="Group 2512">
          <path id="Path_5591" data-name="Path 5591" d="M-36.862,951.064,350.511,877.1l-.194-1.007L-37.051,950.057Z" transform="translate(37.051 -876.092)" fill="#fff"/>
        </g>
        <g id="Group_2513" data-name="Group 2513" transform="translate(7.531 41.671)">
          <path id="Path_5592" data-name="Path 5592" d="M-30.807,984.555,356.565,910.59l-.194-1.007L-31,983.548Z" transform="translate(30.999 -909.583)" fill="#fff"/>
        </g>
        <g id="Group_2514" data-name="Group 2514" transform="translate(15.063 83.342)">
          <path id="Path_5593" data-name="Path 5593" d="M-24.754,1018.045,362.618,944.08l-.194-1.007-387.369,73.965Z" transform="translate(24.945 -943.073)" fill="#fff"/>
        </g>
        <g id="Group_2515" data-name="Group 2515" transform="translate(22.595 125.012)">
          <path id="Path_5594" data-name="Path 5594" d="M-18.7,1051.536l387.372-73.965-.194-1.007-387.368,73.965Z" transform="translate(18.891 -976.564)" fill="#fff"/>
        </g>
        <g id="Group_2516" data-name="Group 2516" transform="translate(30.128 166.683)">
          <path id="Path_5595" data-name="Path 5595" d="M-12.647,1085.026l387.372-73.965-.195-1.007-387.368,73.964Z" transform="translate(12.838 -1010.054)" fill="#fff"/>
        </g>
        <g id="Group_2517" data-name="Group 2517" transform="translate(37.66 208.354)">
          <path id="Path_5596" data-name="Path 5596" d="M-6.594,1118.517l387.373-73.966-.194-1.006L-6.784,1117.509Z" transform="translate(6.784 -1043.545)" fill="#fff"/>
        </g>
        <g id="Group_2518" data-name="Group 2518" transform="translate(45.191 250.024)">
          <path id="Path_5597" data-name="Path 5597" d="M-.541,1152.007l387.373-73.965-.194-1.007L-.731,1151Z" transform="translate(0.731 -1077.035)" fill="#fff"/>
        </g>
        <g id="Group_2519" data-name="Group 2519" transform="translate(52.724 291.695)">
          <path id="Path_5598" data-name="Path 5598" d="M5.513,1185.5l387.373-73.965-.194-1.007L5.323,1184.49Z" transform="translate(-5.323 -1110.526)" fill="#fff"/>
        </g>
        <g id="Group_2520" data-name="Group 2520" transform="translate(60.256 333.365)">
          <path id="Path_5599" data-name="Path 5599" d="M11.567,1218.992l387.372-73.969-.194-1.007L11.376,1217.985Z" transform="translate(-11.376 -1144.016)" fill="#fff"/>
        </g>
      </g>
    </g>
  </g>
</svg>
