<svg xmlns="http://www.w3.org/2000/svg" xmlns:xlink="http://www.w3.org/1999/xlink" width="1920" height="1408" viewBox="0 0 1920 1408">
  <defs>
    <clipPath id="clip-path">
      <rect id="Rectangle_200" data-name="Rectangle 200" width="1920" height="1408" transform="translate(0 -94)" fill="#fff" stroke="#707070" stroke-width="1"/>
    </clipPath>
  </defs>
  <g id="Mask_Group_3" data-name="Mask Group 3" transform="translate(0 94)" clip-path="url(#clip-path)">
    <g id="Group_2608" data-name="Group 2608">
      <g id="Group_2446" data-name="Group 2446" transform="translate(-13734.644 18364.598)">
        <g id="Group_1506" data-name="Group 1506" transform="translate(14669.567 -18458.621)">
          <g id="Group_1497" data-name="Group 1497" transform="translate(0)">
            <circle id="Ellipse_119" data-name="Ellipse 119" cx="220.507" cy="220.507" r="220.507"/>
          </g>
          <g id="Group_1505" data-name="Group 1505" transform="translate(37.789 37.7)">
            <g id="Group_1498" data-name="Group 1498" transform="translate(4.763)">
              <circle id="Ellipse_120" data-name="Ellipse 120" cx="203.598" cy="203.598" r="203.598" fill="#fff"/>
            </g>
            <g id="Group_1499" data-name="Group 1499" transform="translate(55.276 50.513)">
              <circle id="Ellipse_121" data-name="Ellipse 121" cx="153.084" cy="153.084" r="153.084" transform="translate(0 0)" fill="#c9d6e8"/>
            </g>
            <g id="Group_1500" data-name="Group 1500" transform="translate(41.59 36.828)">
              <path id="Path_2963" data-name="Path 2963" d="M1242.314,282.452q-6.477,3.056-13.072,5.512" transform="translate(-1004.379 35.099)" fill="none" stroke="#0d0d0c" stroke-linecap="round" stroke-linejoin="round" stroke-width="2"/>
              <path id="Path_2964" data-name="Path 2964" d="M1180.844,287.847A166.778,166.778,0,1,1,1321.8,176.4" transform="translate(-997.461 44.869)" fill="none" stroke="#0d0d0c" stroke-linecap="round" stroke-linejoin="round" stroke-width="2"/>
            </g>
            <path id="Path_2965" data-name="Path 2965" d="M1028.952,185.944c-53.224-62.075-39.6-146.825,5.8-186.037,33.18-28.655,79.341-35.38,103.583-28.161,0,0,19.633-8.007,66.941.552s78.15,59.4,87.443,98.373Z" transform="translate(-955.783 81.303)" fill="#080b0a"/>
            <g id="Group_1504" data-name="Group 1504" transform="translate(0 17.294)">
              <circle id="Ellipse_122" data-name="Ellipse 122" cx="124.01" cy="124.01" r="124.01" transform="translate(29.04 200.029) rotate(-45)" fill="#fdd89b"/>
              <path id="Path_2966" data-name="Path 2966" d="M1275.73,96.658c11.787,38.967,4.927,83.658-20.177,115.668s-68.471,49.508-108.439,41.38c-18.72-3.807-36.1-12.743-51.669-23.811-15.968-11.355-30.434-25.247-40.285-42.162-16.523-28.374-18.575-64.645-5.353-94.638,15.556-35.288,50.483-59.78,88.062-68.792,38.857-9.318,83.584-2.057,111.619,26.436C1261.982,63.437,1270.578,79.629,1275.73,96.658Z" transform="translate(-957.175 62.452)" fill="#c78c50"/>
              <g id="Group_1502" data-name="Group 1502" transform="translate(91.102 112.666)">
                <path id="Path_2967" data-name="Path 2967" d="M1249.251,64a2.5,2.5,0,1,1-1.511-3.2A2.5,2.5,0,0,1,1249.251,64Z" transform="translate(-1054.344 -51.413)" fill="#f79922"/>
                <path id="Path_2968" data-name="Path 2968" d="M1196.672,90.282a2.5,2.5,0,1,1-1.51-3.2A2.5,2.5,0,0,1,1196.672,90.282Z" transform="translate(-1052.774 -52.198)" fill="#f79922"/>
                <circle id="Ellipse_123" data-name="Ellipse 123" cx="0.748" cy="0.748" r="0.748" transform="translate(175.834 35.116)" fill="#f79922"/>
                <circle id="Ellipse_124" data-name="Ellipse 124" cx="1.831" cy="1.831" r="1.831" transform="translate(191.832 56.051)" fill="#f79922"/>
                <g id="Group_1501" data-name="Group 1501" transform="translate(43.101 93.843)">
                  <circle id="Ellipse_125" data-name="Ellipse 125" cx="3.563" cy="3.563" r="3.563" fill="#f79922"/>
                </g>
                <circle id="Ellipse_126" data-name="Ellipse 126" cx="2.253" cy="2.253" r="2.253" transform="translate(189.085 128.635)" fill="#f79922"/>
                <circle id="Ellipse_127" data-name="Ellipse 127" cx="3.778" cy="3.778" r="3.778" transform="translate(151.501 136.376)" fill="#f79922"/>
                <path id="Path_2969" data-name="Path 2969" d="M1112.6,201.691a2.929,2.929,0,1,1-1.768-3.746A2.929,2.929,0,0,1,1112.6,201.691Z" transform="translate(-1050.24 -55.506)" fill="#f79922"/>
                <path id="Path_2970" data-name="Path 2970" d="M1148.255,193.058a1.366,1.366,0,1,1-.825-1.745A1.366,1.366,0,0,1,1148.255,193.058Z" transform="translate(-1051.395 -55.311)" fill="#f79922"/>
                <circle id="Ellipse_128" data-name="Ellipse 128" cx="4.113" cy="4.113" r="4.113" transform="translate(25.916 58.706)" fill="#f79922"/>
                <circle id="Ellipse_129" data-name="Ellipse 129" cx="1.87" cy="1.87" r="1.87" transform="translate(124.49 1.498)" fill="#f79922"/>
                <circle id="Ellipse_130" data-name="Ellipse 130" cx="4.487" cy="4.487" r="4.487" transform="translate(53.618 0)" fill="#f79922"/>
                <path id="Path_2971" data-name="Path 2971" d="M1213.28,59.676l-1.193-.428-1.194-.428,1.194.428Z" transform="translate(-1053.344 -51.358)" fill="#f79922"/>
                <path id="Path_2972" data-name="Path 2972" d="M1255.419,171.221a2.942,2.942,0,1,1-1.776-3.762A2.943,2.943,0,0,1,1255.419,171.221Z" transform="translate(-1054.502 -54.596)" fill="#f79922"/>
                <circle id="Ellipse_131" data-name="Ellipse 131" cx="2.253" cy="2.253" r="2.253" transform="translate(153.099 98.002)" fill="#f79922"/>
                <circle id="Ellipse_132" data-name="Ellipse 132" cx="2.253" cy="2.253" r="2.253" transform="translate(74.944 38.201)" fill="#f79922"/>
                <path id="Path_2973" data-name="Path 2973" d="M1218.326,139.645a2.942,2.942,0,1,1-1.775-3.762A2.941,2.941,0,0,1,1218.326,139.645Z" transform="translate(-1053.395 -53.654)" fill="#f79922"/>
                <circle id="Ellipse_133" data-name="Ellipse 133" cx="4.721" cy="4.721" r="4.721" transform="translate(108.45 170.334)" fill="#f79922"/>
                <circle id="Ellipse_134" data-name="Ellipse 134" cx="2.618" cy="2.618" r="2.618" transform="translate(12.841 135.151)" fill="#fcb830"/>
                <path id="Path_2974" data-name="Path 2974" d="M1055.647,161.719a3.683,3.683,0,1,1-2.224-4.71A3.683,3.683,0,0,1,1055.647,161.719Z" transform="translate(-1048.496 -54.283)" fill="#fcb830"/>
                <circle id="Ellipse_135" data-name="Ellipse 135" cx="1.464" cy="1.464" r="1.464" transform="translate(5.869 123.425)" fill="#fcb830"/>
                <circle id="Ellipse_136" data-name="Ellipse 136" cx="1.683" cy="1.683" r="1.683" transform="translate(221.393 40.729)" fill="#fcb830"/>
              </g>
              <circle id="Ellipse_137" data-name="Ellipse 137" cx="124.01" cy="124.01" r="124.01" transform="translate(44.417 175.377) rotate(-45)" fill="#fdd89b"/>
              <path id="Path_2975" data-name="Path 2975" d="M1291.58,71.249c11.787,38.967,4.927,83.657-20.176,115.667s-68.472,49.508-108.44,41.381c-18.72-3.807-36.1-12.743-51.668-23.812-15.969-11.355-30.435-25.246-40.285-42.162-16.525-28.374-18.576-64.645-5.354-94.638C1081.212,32.4,1116.14,7.9,1153.717-1.107c38.856-9.319,83.584-2.057,111.619,26.435C1277.832,38.028,1286.428,54.219,1291.58,71.249Z" transform="translate(-957.648 63.211)" fill="#c78c50"/>
              <path id="Path_2976" data-name="Path 2976" d="M1254.673,43.131c16.117,18.667,28.9,40.182,33.21,64.778a154.381,154.381,0,0,1,1.364,42.855c.011-.037.024-.072.036-.108,9.243-30.6,5.873-64.245-6.128-93.876-6.369-15.723-15.517-30.944-29.45-40.621-12.1-8.4-26.884-12-41.487-13.911-.859-.113-1.723-.2-2.584-.3C1226.725,13.065,1242.256,28.75,1254.673,43.131Z" transform="translate(-962.204 63.006)" fill="#fdd89b"/>
              <path id="Path_2977" data-name="Path 2977" d="M1253.782,165.475A127.132,127.132,0,0,0,1159.219-2.187c-1.841.363-3.683.726-5.5,1.162-37.578,9.012-72.505,33.5-88.062,68.791-13.222,29.993-11.17,66.264,5.354,94.638,9.85,16.915,24.316,30.807,40.285,42.162,15.566,11.069,32.948,20.005,51.668,23.811a103.758,103.758,0,0,0,42.251-.463A126.566,126.566,0,0,0,1253.782,165.475Z" transform="translate(-957.648 63.129)" fill="#080b0a"/>
              <path id="Path_2978" data-name="Path 2978" d="M1207.2,234.626c-10.787,2.409-18.187,4.132-19.192,8.076,0,0-30.915,13.635-64.61,4.084l69.21-24.166Z" transform="translate(-959.63 56.418)" fill="#080b0a"/>
              <g id="Group_1503" data-name="Group 1503" transform="translate(0 4.334)">
                <circle id="Ellipse_138" data-name="Ellipse 138" cx="124.01" cy="124.01" r="124.01" transform="translate(0 175.377) rotate(-45)" fill="#fdd89b"/>
                <path id="Path_2979" data-name="Path 2979" d="M1245.8,75.715c11.788,38.967,4.927,83.658-20.176,115.668s-68.471,49.508-108.44,41.38c-18.719-3.807-36.1-12.743-51.668-23.811-15.968-11.355-30.434-25.247-40.285-42.162-16.524-28.374-18.576-64.645-5.353-94.638,15.556-35.287,50.483-59.78,88.062-68.792,38.857-9.318,83.584-2.056,111.619,26.436C1232.048,42.494,1240.644,58.686,1245.8,75.715Z" transform="translate(-956.281 58.744)" fill="#c78c50"/>
                <path id="Path_2980" data-name="Path 2980" d="M1108.948,30.082a23.313,23.313,0,0,0-4.573,3.591c-3.635,3.626-6.87,7.9-11.519,10.084-7.335,3.439-16.092.755-24,2.5A21.7,21.7,0,0,0,1053.567,76c4.972,11.609,15.329,19.237,10.061,33.3-4.421,11.8-16.868,21.859-13.183,35.772,2.465,9.311,11.984,14.748,20.915,18.36s18.8,6.914,24.268,14.841c3.379,4.893,4.593,10.933,7.154,16.3s7.421,10.5,13.361,10.209c6.4-.309,10.679-6.488,16.093-9.923,6.038-3.83,13.635-4.2,20.757-3.564s14.218,2.169,21.353,1.706,14.618-3.364,18.312-9.486c5.8-9.625.012-17.859-1.517-27.3a29.2,29.2,0,0,1,6.523-23.565c3.436-3.937,7.886-6.853,11.585-10.547s6.743-8.645,6.163-13.839c-.72-6.448-6.574-10.931-12.029-14.443s-11.494-7.486-13.006-13.795c-1.317-5.491,1.238-11.1,1.767-16.719A23.368,23.368,0,0,0,1159.5,39.714c-3.723,1.632-6.975,4.213-10.722,5.79-12.314,5.178-15.8-6.316-22.744-13.345C1120.737,26.8,1114.484,26.816,1108.948,30.082Z" transform="translate(-957.432 57.899)" fill="#fafafa"/>
                <path id="Path_2981" data-name="Path 2981" d="M1197.2,129.692a25.877,25.877,0,0,0-6.123,29.387c-6.026-2.268-7.665-10.4-5.7-16.528s6.38-11.138,9.283-16.885,4-13.374-.334-18.139c-2.557-2.813-6.44-3.986-9.449-6.31-6-4.636-7.6-13.021-7.509-20.606s1.4-15.326-.552-22.656-8.646-14.234-16.135-13.037a19.7,19.7,0,0,1,31.1,14.409c.381,4.642-.887,9.27-.858,13.928a25.361,25.361,0,0,0,7.787,17.99c3.153,3,7.031,5.124,10.359,7.926s6.222,6.636,6.264,10.987c.046,4.629-3.142,8.7-6.789,11.548S1200.666,126.62,1197.2,129.692Z" transform="translate(-960.743 57.497)" fill="#c9d6e8"/>
                <path id="Path_2982" data-name="Path 2982" d="M1057.41,60.107c.959-4.963,5.761-8.362,10.647-9.66s10.035-1.02,15.057-1.592a44.991,44.991,0,0,0,29.153-15.742c-2.183,5.006-4.4,10.065-7.716,14.4s-7.9,7.946-13.262,8.988c-5.871,1.143-11.833-.864-17.762-1.654S1060.574,55.031,1057.41,60.107Z" transform="translate(-957.66 57.741)" fill="#c9d6e8"/>
                <path id="Path_2983" data-name="Path 2983" d="M1105.637,191.945c1.324,3.224,2.291,6.638,4.214,9.543s5.111,5.3,8.588,5.074c4.832-.311,7.848-5.131,11.439-8.38a20.83,20.83,0,0,1,20.577-4.066c-2.538-3.3-7.366-3.967-11.413-2.993s-7.636,3.248-11.447,4.92-8.232,2.733-12.091,1.177c-5.581-2.251-7.75-8.787-10.741-14.009a35.25,35.25,0,0,0-28.32-17.361A45.556,45.556,0,0,1,1105.637,191.945Z" transform="translate(-958.228 53.779)" fill="#c9d6e8"/>
              </g>
            </g>
          </g>
        </g>
        <g id="Group_1507" data-name="Group 1507" transform="translate(14428.108 -17843.184)">
          <path id="Path_2984" data-name="Path 2984" d="M674.039,598.8l-.857-3.338s-.794-.784,2.5-1.826l50.988-14.661s.923-1.026-3.671-.441L672.73,589.846s-1.606-.577-2.056-4.019l52.37-14.816s3.657-1.927-.519-1.251l-52.877,12.377s-2.145-4.194.128-4.579l52.8-15.324s2.2-2.937-8.734.66l-45.212,10.213s-3.586-1.649-.861-4.127l51.065-17.447s21.327-5.47,28.089-.682c0,0,11.594,5.129,14.746,4.321L836.5,534.794l75.516-20.754s14.333-3.818,17.243,1.366c0,0,4.557,8.516-.389,12.354L833.334,549.44,764.942,565.6a18.892,18.892,0,0,0-8.307,8.455,34.053,34.053,0,0,1-19.471,12.7s-37.552,10.027-53.519,10.961Z" transform="translate(-666.751 -512.685)"/>
          <path id="Path_2985" data-name="Path 2985" d="M684.64,602.639l-.857-3.338s-.795-.785,2.5-1.827l50.989-14.66s.923-1.027-3.671-.441l-50.266,11.312s-1.606-.576-2.057-4.018l52.37-14.817s3.656-1.926-.518-1.251l-52.878,12.378s-2.144-4.194.129-4.579l52.8-15.323s2.2-2.937-8.734.659l-45.212,10.214s-3.586-1.649-.861-4.127l51.065-17.447s21.327-5.471,28.09-.683c0,0,11.593,5.13,14.746,4.322L847.1,538.632l75.516-20.753s6.99-3.572,9.9,1.61c0,0,4.557,8.517-.388,12.355l-88.189,21.435-68.394,16.16a18.891,18.891,0,0,0-8.306,8.456,34.057,34.057,0,0,1-19.471,12.7s-37.552,10.027-53.519,10.961Z" transform="translate(-667.068 -512.804)" fill="#fff"/>
          <path id="Path_2986" data-name="Path 2986" d="M776.236,570.131s-2.921-2.143-2.855-4.2a44.428,44.428,0,0,1,.536-4.843s-11.1-2.048-12.49-3.615c0,0,4,4.607,4.405,8.505,0,0,2.18,9.076.682,14.8,0,0,2.928-5.346,4.558-6.506C771.073,574.271,775.022,569.289,776.236,570.131Z" transform="translate(-669.577 -514.022)" fill="#c9d6e8"/>
          <path id="Path_2987" data-name="Path 2987" d="M933.885,529.809s4.129-6.84-2.925-11.405L774.3,559.924l-.21,1.4,150.321-39.754s6.41-2.386,7.7,1.286C932.1,522.854,934.448,526.4,933.885,529.809Z" transform="translate(-669.955 -512.856)" fill="#c9d6e8"/>
          <path id="Path_2988" data-name="Path 2988" d="M677.367,575.907s1.4,2.231,2.7,1.9l45.813-10.565,3.8-.975s3.167-.979,3.632.566c0,0-1.593-.271-10.924,1.838l-35.3,7.975-7.853,1.774S676.836,577.025,677.367,575.907Z" transform="translate(-667.066 -514.275)" fill="#fff"/>
        </g>
        <g id="Group_1508" data-name="Group 1508" transform="translate(15207.369 -18284.953)">
          <ellipse id="Ellipse_139" data-name="Ellipse 139" cx="68.673" cy="73.632" rx="68.673" ry="73.632" transform="matrix(0.841, -0.541, 0.541, 0.841, 0, 74.341)"/>
          <path id="Path_2989" data-name="Path 2989" d="M1614.4,220.419a65.216,65.216,0,1,1,19.537-90.136A65.217,65.217,0,0,1,1614.4,220.419Z" transform="translate(-1471.299 -58.607)" fill="#fff"/>
          <path id="Path_2990" data-name="Path 2990" d="M1627.455,134.5a57.021,57.021,0,0,0-32.935-24.2c-6.446-1.771-13.093-2.206-19.583-3.686a10.565,10.565,0,0,1-4.2-1.688,4.085,4.085,0,0,1-1.683-3.976,2.262,2.262,0,0,0,.141-1.191c-.259-.8-1.406-.726-2.2-.456-8.938,3.042-15.6,10.422-21.7,17.634-6.7,7.936-14.017,15.639-18.286,25.236a57.257,57.257,0,1,0,100.442-7.675Z" transform="translate(-1471.544 -58.57)" fill="#fdd89b"/>
          <path id="Path_2991" data-name="Path 2991" d="M1617.758,213.619a57.048,57.048,0,0,0,5.352-4.813" transform="translate(-1474.4 -61.845)" fill="none" stroke="#0d0d0c" stroke-linecap="round" stroke-linejoin="round" stroke-width="2"/>
          <path id="Path_2992" data-name="Path 2992" d="M1545.3,117.487c-6.7,7.936-14.017,15.639-18.286,25.237a57.264,57.264,0,0,0,78.208,74.378" transform="translate(-1471.544 -59.119)" fill="none" stroke="#0d0d0c" stroke-linecap="round" stroke-linejoin="round" stroke-width="2"/>
          <path id="Path_2993" data-name="Path 2993" d="M1637.542,174.334a57.2,57.2,0,0,0-41.4-63.8c-6.446-1.771-13.093-2.206-19.583-3.686" transform="translate(-1473.17 -58.801)" fill="none" stroke="#0d0d0c" stroke-linecap="round" stroke-linejoin="round" stroke-width="2"/>
          <path id="Path_2994" data-name="Path 2994" d="M1604.594,191.41a50.293,50.293,0,0,1-16.329,6.885,3.973,3.973,0,0,0-1.929.819,1.3,1.3,0,0,0-.094,1.871,1.844,1.844,0,0,0,1.1.277,98.356,98.356,0,0,0,19.393-1.652,26.9,26.9,0,0,0,8.381-2.413c5.573-2.989,8.574-9.479,8.987-15.791s-1.36-12.546-3.264-18.577c-.972.053-1.3,1.307-1.386,2.277-.694,7.394-3.309,14.87-8.274,20.587A33.055,33.055,0,0,1,1604.594,191.41Z" transform="translate(-1473.448 -60.472)" fill="#edc080"/>
          <path id="Path_2995" data-name="Path 2995" d="M1550,157.759c-.008-.088-.016-.177-.026-.265-4.291,3.132-6.189,8.323-7.633,13.225a25.414,25.414,0,0,0-1.223,9.256c.195,2.33.74,6.334,2.572,7.977a2.283,2.283,0,0,0,2.624.428,3.366,3.366,0,0,0,1.156-2.621c.28-2.435.514-4.875.748-7.316q.833-8.7,1.665-17.395A18.386,18.386,0,0,0,1550,157.759Z" transform="translate(-1472.11 -60.313)" fill="#edc080"/>
          <path id="Path_2996" data-name="Path 2996" d="M1603.867,128.26c-.354-.018-1.724-1.9-2.01-2.164a26.394,26.394,0,0,0-6.474-4.43c-8.082-3.938-17.262-2.975-25.933-2.5a30.927,30.927,0,0,0-4,.392,1.089,1.089,0,0,0-.581.237c-.393.381-.062,1.04.3,1.455,5.574,6.458,14.039,5.72,21.777,6.127Z" transform="translate(-1472.816 -59.155)" fill="#edc080"/>
          <path id="Path_2997" data-name="Path 2997" d="M1528.849,164.94c-.666,9.116,1.849,18.347,6.085,26.4a2.382,2.382,0,0,0,.757.968.842.842,0,0,0,1.117-.138,1.215,1.215,0,0,0,.156-.556c.369-3.213-.6-6.187-1.148-9.375q-.94-5.517-1.45-11.1t-.585-11.174c-.015-1.066-.446-10.581.26-10.8C1529.926,150.446,1529.113,161.311,1528.849,164.94Z" transform="translate(-1471.742 -60.064)" fill="#edc080"/>
          <path id="Path_2998" data-name="Path 2998" d="M1550.882,128.437a24.237,24.237,0,0,1-1.078,3.418,7.322,7.322,0,0,1-1.363,2.324c-2.352,2.494-4.16.476-3.752-2.155a23.6,23.6,0,0,1,2.223-5.951,15.4,15.4,0,0,1,4.387-5.854c.163-.127.38-.255.564-.159s.2.378.179.6A60.056,60.056,0,0,1,1550.882,128.437Z" transform="translate(-1472.217 -59.195)" fill="#edc080"/>
        </g>
        <g id="Group_1510" data-name="Group 1510" transform="translate(15365.593 -17976.414)">
          <path id="Path_2999" data-name="Path 2999" d="M1657.089,494.558l-24.008-114.51,164.832,124.2Z" transform="translate(-1633.081 -375.494)"/>
          <g id="Group_1509" data-name="Group 1509" transform="translate(24.008)">
            <path id="Path_3000" data-name="Path 3000" d="M1736.877,545.715l55.046-122.955-79.908-47.406-54.187,119.065Z" transform="translate(-1657.827 -375.354)" fill="#ed759d"/>
            <path id="Path_3001" data-name="Path 3001" d="M1699.588,498.844l29.651-64.3-13.347-4.661,6.419-13.92,30.345,11.006-37.148,80.559Z" transform="translate(-1659.074 -376.566)" fill="#fff"/>
            <path id="Path_3002" data-name="Path 3002" d="M1794.355,424.219l6.728,81.35-61.774,41.605Z" transform="translate(-1660.26 -376.812)" fill="#a52959"/>
            <path id="Path_3003" data-name="Path 3003" d="M1739.31,547.174l42.857-55.776,12.189-67.179Z" transform="translate(-1660.26 -376.812)"/>
            <path id="Path_3004" data-name="Path 3004" d="M1802.173,505.569,1775.8,485.7l19.645-61.478Z" transform="translate(-1661.349 -376.812)"/>
          </g>
        </g>
        <g id="Group_1512" data-name="Group 1512" transform="translate(14411.025 -18294.219)">
          <path id="Path_3005" data-name="Path 3005" d="M703.508,179.028,649.143,97.914,742.53,47.771l101.8,121.564Z" transform="translate(-649.143 -47.771)"/>
          <g id="Group_1511" data-name="Group 1511" transform="translate(54.366 2.5)">
            <path id="Path_3006" data-name="Path 3006" d="M767.162,220.71,712.117,97.755l79.908-47.406,54.187,119.065Z" transform="translate(-705.388 -50.348)" fill="#ed759d"/>
            <path id="Path_3007" data-name="Path 3007" d="M711.909,99.213l-6.728,81.35,61.774,41.605Z" transform="translate(-705.181 -51.807)" fill="#a52959"/>
            <path id="Path_3008" data-name="Path 3008" d="M711.909,99.213l16.506,65.728-23.234,15.622,25.891-8.22,35.883,49.825Z" transform="translate(-705.181 -51.807)"/>
          </g>
          <path id="Path_3009" data-name="Path 3009" d="M773.117,189.54l-3.483-8.047a62.167,62.167,0,0,1,2.646-17.743q2.616-8.734,6.191-17.949,2.654-6.972,4.324-11.512a56.589,56.589,0,0,0,2.332-7.717,18.547,18.547,0,0,0,.34-5.933,22.536,22.536,0,0,0-1.822-6.226q-4.983-11.514-18.685-3.529a52.911,52.911,0,0,0-8.776,6.432,73.738,73.738,0,0,0-7.562,7.9l-6.376-14.734a73.463,73.463,0,0,1,9.179-8.527,90.925,90.925,0,0,1,10.8-7.459q13-7.579,22.54-4.531t14.625,14.81a28.543,28.543,0,0,1,2.254,16.128,81.286,81.286,0,0,1-4.91,17.047q-2.833,7.233-5.334,13.883a62.672,62.672,0,0,0-3.423,12.924l30.54-17.8,5.572,12.877Z" transform="translate(-651.922 -49.005)" fill="#fff"/>
        </g>
        <g id="Group_1520" data-name="Group 1520" transform="translate(14210.234 -17605.438)" opacity="0">
          <path id="Path_2958" data-name="Path 2958" d="M501.33,1173.184l-31.714-15.4L526.953,1039.7,702.168,881.383l75.5-114.936,61.239-17.9,17.32,31.473L800,796.654l-70.85,107.859L555.674,1061.26Z" transform="translate(-469.616 -748.747)" fill="#c9d6e8"/>
        </g>
      </g>
      <path id="Path_5840" data-name="Path 5840" d="M8336.579,1170.113l-31.484-15.287,56.921-117.235,173.948-157.168,74.952-114.1L8786.2,715.18l-11.8-75.451.354-2.554c.463-3.351,12.354-82.826,99.963-147.324,82.5-60.733,211.5-65.267,227.577-65.6L9232.5,401.682l3.717.994c8.416,2.25,83.089,22.857,113.07,53.135,25.393,25.647,63.394,83.955,72.745,98.525,22.8,14.852,153.786,100.69,194.909,138.6,20.537,18.933,37.371,52.48,50.032,99.707a512.1,512.1,0,0,1,12.79,63.665l.314,2.565L9662.41,960.887l-116.04,87.918-58.554,105.411-30.6-17,62.134-111.858,110.924-84.041,14.421-83.278c-4.209-31.47-20.562-110.873-51.481-139.375-41.98-38.7-191.914-136.064-193.422-137.043l-3.216-2.085-2.05-3.239c-.439-.694-44.264-69.754-70.115-95.864-18.7-18.889-70.777-36.473-93.595-42.941l-125.295,21.719-1.418.014c-1.3.015-131.613,2.094-208.648,58.808-39.238,28.886-60.521,60.994-71.466,82.842-9.418,18.8-13.045,33.488-14.165,38.91l15.7,100.375-192.437,56.143-70.337,107.079L8390.53,1059Z" transform="translate(-7830.221 -0.725)" fill="#fff"/>
      <g id="Group_2595" data-name="Group 2595" transform="translate(-10393.074 3.714)">
        <path id="Path_5785" data-name="Path 5785" d="M11006.334,1260.194c-15.045,18.2-24.555,2.472-33.227-42.416s-6.312-87.018,79.638-156.78,117.951-116.845,141.6-149.212,18.3-50.345,43.472-69.179,61.591-29.764,69.991-29.906,38.781,7.766,38.781,7.766l15.316,6.675,47.267,18.333-55.608,2.288-16.709,11.362s21.372-.01,34.206,1.407,41.979,8.808,41.979,8.808l-7.316,3.51-48.177,9.867s-26.5,21.905-27.357,22.307,2.245,3.285,8.774.551,33.273-4.215,37.966-.182l-8.3,6.69-81.1,32.891-54.6,51.492-30.265,84.149s14.564-16.274,26.123-16.334,77.7-23.135,122.444-61.765,129.5-50.359,129.5-50.359-26.338-22.6-30.846-58.667c-2.176-17.412-1.088-40.039-1.088-40.039s-20.161-10.876-27.347-32.974c-4.134-12.712,9.085-26.938,9.6-20.4,1.968,24.792,13.246,17.265,13.246,17.265s-10.1-22.881,5.084-38.817,2.134-23.216,2.134-23.216-37.806-51.665-22.955-99.7c27.517-88.992,117.609-118.013,172.446-123.795,64.455-6.8,86.69,23.041,86.69,23.041l9.066,10.319s-19.006-4.47-24.552-14.945,23.864-7.671,23.864-7.671l62.5,5.607s-13.806-17.466-31.739-17.17-28.516,2.468-36.94-1.53-5.021-9.028.683-13.657,56.446-3.9,56.446-3.9l-28.352-4.346,20.787-17.762,123.61,69.876-61.326,37.239-78.973,31.94-28.837,118.4-47.546,165.053s86.409-33.671,74.631-19.553,14.787,31.124,20.6,31.162,34.789-19.084,51.645-26.576,102.284-54.3,122.352-62.844,25.236-10.521,25.236-10.521-27.367-19.524-56.2-87.484-58.14-98.619-58.14-98.619-44.77-14.355-56.393-20.324-4.744-15.011-4.744-15.011l36.769,2.345,96.722,21.308,159.08,169.632,8.7,87.657L11440.968,1199.5Z"/>
        <g id="Group_2594" data-name="Group 2594">
          <g id="Group_2593" data-name="Group 2593">
            <path id="Path_5786" data-name="Path 5786" d="M11886.584,569.334c-10.28-27.186-32.812-55.071-44.545-63.607s-39.546-25.35-45.8-27.6-30.657,1.158-32.669,4.919c0,0-15.152-.582-22.773,5.563a16.192,16.192,0,0,0-6.15,14.575s-36.8,6.706-44.073,12.626,5.046,11.285,15.8,10.017,30.4-4.811,37.328-3.611,31.711,20.956,31.711,20.956-31.353-7.387-45.3-8.008-35.937,2.713-40.6,3.5-3.577,8.22,2.632,11.363,36.188,3.038,41.153,5.012,33.613,20.468,39.638,24.47a110.413,110.413,0,0,1,10.554,7.981s-11.494.51-19.458-4.212-21.18-11.481-31.754-11.072-11.937,6.709,2.237,14.575,29.049,22.178,49.527,27.211,59.089,19.488,73.309,25.764,39.921-25.734,46.45-31.915S11895.474,592.844,11886.584,569.334Z" fill="#f9cfcc"/>
            <path id="Path_5787" data-name="Path 5787" d="M11778.311,612.3c-11.63-24.861-36.169-41.354-54.106-35.013l-2.754,5.431,7.646,12.727Z"/>
            <path id="Path_5788" data-name="Path 5788" d="M11738.954,501.811a55.163,55.163,0,0,1,7.841-1.812,33.48,33.48,0,0,1,8.13-.2,32.718,32.718,0,0,1,7.983,1.82c2.585.96,4.963,2.152,7.389,3.3q7.191,3.579,14.146,7.553c4.644,2.641,9.231,5.381,13.7,8.327-4.87-2.217-9.659-4.571-14.434-6.949s-9.521-4.8-14.295-7.138c-2.375-1.172-4.775-2.375-7.172-3.33a35.014,35.014,0,0,0-7.512-2.044,37.979,37.979,0,0,0-7.842-.368C11744.25,501.086,11741.61,501.472,11738.954,501.811Z" fill="#0d0d0c"/>
            <path id="Path_5789" data-name="Path 5789" d="M11769.458,483.59a39.326,39.326,0,0,1,12.054.956,31.041,31.041,0,0,1,5.823,1.974,20.747,20.747,0,0,1,2.733,1.517q1.28.854,2.5,1.745c3.229,2.416,6.323,4.956,9.342,7.6s5.967,5.351,8.765,8.24c-3.332-2.25-6.554-4.624-9.747-7.027l-4.779-3.608c-1.582-1.214-3.164-2.425-4.767-3.591-.791-.6-1.591-1.175-2.392-1.727a22.873,22.873,0,0,0-2.479-1.445,36.486,36.486,0,0,0-5.415-2.175A67.653,67.653,0,0,0,11769.458,483.59Z" fill="#0d0d0c"/>
            <path id="Path_5790" data-name="Path 5790" d="M11217.516,908.624c9.078-27.611,30.366-56.458,41.712-65.5s38.4-27.06,44.545-29.585,30.678-.188,32.853,3.482c0,0,15.112-1.246,23,4.559a16.193,16.193,0,0,1,6.785,14.291s37.059,5.085,44.584,10.681-4.546,11.5-15.351,10.7-30.581-3.473-37.45-1.97-30.762,22.326-30.762,22.326,31-8.755,44.9-9.986,36.02,1.134,40.714,1.718,3.934,8.054-2.131,11.467-36.021,4.622-40.895,6.812-32.684,21.923-38.525,26.185a110.543,110.543,0,0,0-10.194,8.436s11.5.005,19.255-5.062,20.656-12.4,31.237-12.453,12.22,6.179-1.595,14.659-28.049,23.431-48.287,29.357-58.177,22.06-72.107,28.954-41.011-23.958-47.807-29.847S11209.666,932.5,11217.516,908.624Z" fill="#f9cfcc"/>
            <path id="Path_5791" data-name="Path 5791" d="M11357.234,834.91a53.654,53.654,0,0,0-13.843,3.831,134,134,0,0,0-13.028,6.054c-4.2,2.32-8.5,4.6-12.8,6.789s-8.668,4.311-13.121,6.239c4.031-2.705,8.166-5.216,12.336-7.66s8.366-4.793,12.654-7.11a88.857,88.857,0,0,1,13.454-5.719,56.887,56.887,0,0,1,7.076-1.866A28.622,28.622,0,0,1,11357.234,834.91Z" fill="#0d0d0c"/>
            <path id="Path_5792" data-name="Path 5792" d="M11332.97,818.85c-4.016,1.436-7.807,3.316-11.647,5.113-3.818,1.841-7.645,3.67-11.45,5.543l-11.464,5.538c-3.823,1.853-7.669,3.639-11.489,5.541a93.27,93.27,0,0,1,10.765-6.923c3.7-2.116,7.491-4.071,11.315-5.953,3.842-1.847,7.727-3.61,11.7-5.171A58.521,58.521,0,0,1,11332.97,818.85Z" fill="#0d0d0c"/>
            <path id="Path_5793" data-name="Path 5793" d="M11279.238,964.612c-17.717,9.746-58.355,80.358-72.255,128.865s-46.589,119.5-102.691,158.3-101.51,41.636-105.443,31.62-11.688-83.782,40.227-141.232c77.041-85.256,156.2-192.042,164.31-205.738S11279.238,964.612,11279.238,964.612Z" fill="#f9cfcc"/>
            <path id="Path_5794" data-name="Path 5794" d="M10998.231,1281.391c4.187,19.7,84.258,35.49,185.605,13.18s253.5-66.643,253.5-66.643,27.247-193.072-.722-185.72-106.453,26.686-193.329,66.426-202.724,93.6-202.724,93.6Z" fill="#f9cfcc"/>
            <path id="Path_5795" data-name="Path 5795" d="M11193.725,1131.381c-6.27,14.338-13.735,33.5-20.346,42.857,0,0,45.748,7.231,72.106,43.2s25.975,55.956,25.975,55.956l29.188-7.673-29.315-127.992-34.375-28.555-22.58,11.879Z"/>
            <path id="Path_5796" data-name="Path 5796" d="M11802.753,957.856c77.656-49.353,210.265-128.177,243.26-141.505s106.479,35.453,105.9,53.225-88.568,111.387-140.983,147.109c-117.559,80.117-174.938,99.512-263.155,165.9Z" fill="#f9cfcc"/>
            <path id="Path_5797" data-name="Path 5797" d="M11984.814,842.97c37.565,1.571,51.086,154.679,51.086,154.679l-8.934,7.207-64.091-21.187.953-123.277Z"/>
            <path id="Path_5798" data-name="Path 5798" d="M11816.564,610.726c17.4,15.453,66.445,71.362,95.4,112.806,28.9,41.362,68.425,108.487,130.873,135.932s107.567,21.611,109.528,11.03,4.637-67.264-66.3-131.028c-85.46-76.816-189.811-158.9-200.376-170.809S11816.564,610.726,11816.564,610.726Z" fill="#f9cfcc"/>
            <path id="Path_5799" data-name="Path 5799" d="M11504.118,722.848c-3.1,13.719-.286,35.177.373,43.454s4.616,11.787.763,21.034-19.237,23.258-21.926,27.865,8.315,15.148,8.315,15.148.4,22.074.3,47.69,5.113,50.384,14.646,55.77,16.515,10.243,59.962,5a46.505,46.505,0,0,1-7.106,34.059c-11.237,16.6-25.07,21.387-51,26.076,0,0,33.716,59.018,141.157,59.723s127.105-85.213,127.105-85.213-52.6-14.624-62.293-21.832-18.641-37.527-10.831-63.456c0,0,45.13-24.076,73.078-77.251s3.5-168.343-83.489-187.68S11519.533,654.659,11504.118,722.848Z" fill="#f9cfcc"/>
            <path id="Path_5800" data-name="Path 5800" d="M11631.554,857.161c6.8,16.254,6.624,36.5-5.228,44.525s6.034,9.839,16.772,1.3,11.633-26.172,11.633-26.172,3.571,11.619,1.35,23.482-1.912,19.884,6.723,14.245,10.875-27.407,10.875-27.407l-16.889-26.411-21.611-20.178Z"/>
            <path id="Path_5801" data-name="Path 5801" d="M11586.287,778.926c12.658,22.891,24.785,47.211,28.366,65.993s-20.2,32.708-25.99,30.8-5.667,2.675,2.146,4.548,16.927,1.049,27.481-5.554,21.532-36.37,21.532-36.37l-30.973-60.439-12.382-36.33-14.461,5.2Z"/>
            <path id="Path_5802" data-name="Path 5802" d="M11567.255,839.251c-12.492,12.361-35.323,19.916-44.007,14.282s1.595-.058,14.177-9.24a42.489,42.489,0,0,0,16.534-42.1c-3.187-16.571-9.778-38.229-8.268-54.492s2.4-26.624,9.941-36.671,9.508-5.877,9.508-5.877l8.055,20.993Z"/>
            <path id="Path_5803" data-name="Path 5803" d="M11491.754,837.819c19.1-12.151,13.5-50.483,13.5-50.483l1.655-7.041,15.4,11.465s1.52,26.047,1.286,27.026-.419,21.574-.711,22.06-24.381,17.937-24.725,17.578-6.257-6.135-6.257-6.135Z"/>
            <path id="Path_5804" data-name="Path 5804" d="M11571.861,938.878a1,1,0,0,1-.118-1.994c27.021-3.237,52.28-24.6,52.532-24.811a1,1,0,0,1,1.3,1.519c-.256.22-25.978,21.97-53.593,25.279A.989.989,0,0,1,11571.861,938.878Z" fill="#db8882"/>
            <path id="Path_5805" data-name="Path 5805" d="M11557.49,975.606c20.213,33.319,128.792,32.125,167.562-7.981l3.043-9.6,14.969,5.753s-4.146,31.51-5.1,32.426-124.18,52.094-124.18,52.094l-88-29.756,10.7-26.845s6.479-3.735,13.2-8.645S11557.49,975.606,11557.49,975.606Z"/>
            <path id="Path_5806" data-name="Path 5806" d="M11592.122,762.462c22.1,35.389,35.076,70.048,47.152,96.327s-6.395,56.17,1.3,55.782,21-16.4,21-16.4-4.676,21.516,1.2,20.212,11.931-13.019,11.931-13.019-.2,9.876,10.792.518,12.064-11.306,12.064-11.306-13.949,13.951-7.7,16.382,34.36-15.573,52.313-37.436a15.316,15.316,0,0,0,2.078,10.541c3.257,5.182,3.424-.11,2.984-3.495s4.52-10.312,23.292-27.978,7.99-13.955,20.487-42.244S11592.122,762.462,11592.122,762.462Z" fill="#ed759d"/>
            <path id="Path_5807" data-name="Path 5807" d="M11974.669,1091.9l-14.868,36.873a.031.031,0,0,1-.019.017l-1.843,2.043-66.467,73.465-6.553,7.25-445.2,78.068-78.385-236.355c35.151-12.06,50.728-23.719,103.691-38.972,31.016-8.927,64.322-14.956,64.322-14.956s31.317,30.122,98.009,21.688,121.385-62.46,121.385-62.46,4.811-1.684,14.151-5.7q1.784-.762,3.781-1.643l.007,0c10.787-4.736,26.337-12.03,46.354-22.561a83.1,83.1,0,0,1,19.182-6.993,112.607,112.607,0,0,1,24.526-3.066l15.541,22.84Z" fill="#fff"/>
            <path id="Path_5808" data-name="Path 5808" d="M11447.668,1060.754c-30.866-17.59-44.982-25.22-93.149-4.682-29.781,12.7-114.5,45.664-128.658,50.128s-11.483,14.857-11.483,14.857,22.258-1.088,31.573,24.625,10.6,65.1,20.248,84.794,19.826,51.112,19.47,66.769,26.861,16.977,37.708,4.909c0,0,22.709-5.97,56.984-6.829s56.75-5.284,80.006-9.175,31.678-52.053,36.828-95.65S11481.485,1080.026,11447.668,1060.754Z" fill="#fff"/>
            <path id="Path_5809" data-name="Path 5809" d="M11752.541,982.806c-67.6,92.823-207.934,74.066-231.5,81.1s-21.972,24.663-21.972,24.663c19.683,46.956,12.266,105.939,11.676,110.223.127-1.952.872-15.468-1.205-42.415-1.77-22.945-11.916-41.979-28.253-53.971a67.6,67.6,0,0,0-14.833-8.242c-12.844-5.174-51.242-.953-89.376,6.555-35.951,7.072-71.666,17.071-85.534,24.859-28.565,16.058-15.9,27.18-16.575,46.037-.651,18.322,5.109,46.959,5.433,48.566a282.825,282.825,0,0,1-9.974-37.993c-3.876-20.786-7.6-42.841-16.575-52.02-8.21-8.419-17.821-2.906-14.022,4.033a32.242,32.242,0,0,0-25.452-13.143s-2.679-10.4,11.48-14.861,98.877-37.429,128.662-50.128q3.527-1.5,6.819-2.81a.107.107,0,0,1,.047-.013c4.165-1.433,8.058-2.861,11.766-4.282,27.574-10.59,45.22-21.236,91.879-34.677,31.016-8.927,64.322-14.956,64.322-14.956s31.317,30.122,98.009,21.688c38.1-4.817,72.291-24.517,94.6-40.526Z" fill="#c9d6e8"/>
            <path id="Path_5810" data-name="Path 5810" d="M11536.476,991.694c12.667,20.283,58.357,32.539,133.645,12.313s57.975-45.985,57.975-45.985l-9.037-3.774s5.766-5.906,18.184-1.529,17.632,4.036,18.986,9.584,6.1,37.528-70.369,65.3-135.378,10.888-160.548-2.43-20.732-31.059-13.163-35.649,30.255-1.491,30.255-1.491Z" fill="#c9d6e8"/>
            <path id="Path_5811" data-name="Path 5811" d="M11607.177,1044.478c-30.35,0-64.956-8.53-79.529-16.437-18.94-10.277-25.011-18.667-22.4-30.959a1.5,1.5,0,1,1,2.933.625c-2.3,10.83,3.164,18.078,20.895,27.7,17.9,9.714,66.7,20.382,99.455,14.324a1.5,1.5,0,1,1,.545,2.949A121.7,121.7,0,0,1,11607.177,1044.478Z" fill="#0d0d0c"/>
            <path id="Path_5812" data-name="Path 5812" d="M11439.864,1289.595l22.87-4.016a17.611,17.611,0,0,1-2.37.568C11453.564,1287.286,11446.839,1288.47,11439.864,1289.595Z" fill="#c9d6e8"/>
            <path id="Path_5813" data-name="Path 5813" d="M11373.151,1048.967c-3.708,1.421-7.6,2.849-11.766,4.282C11365.567,1051.587,11369.469,1050.162,11373.151,1048.967Z" fill="#c9d6e8"/>
            <path id="Path_5814" data-name="Path 5814" d="M11373.151,1048.967c-3.708,1.421-7.6,2.849-11.766,4.282C11365.567,1051.587,11369.469,1050.162,11373.151,1048.967Z" fill="#c9d6e8"/>
            <path id="Path_5815" data-name="Path 5815" d="M12038.3,1023.751c13.095,15.192-.4,49.3-13.769,46.524,0,0-16.566,5.909-39.136,31.716-9.227,10.546-17.652,19.194-25.6,26.783a.031.031,0,0,1-.019.017c-.819.787-1.631,1.552-2.436,2.313l-.015.007c-10.559,9.923-20.332,18.088-30.139,26.537-8.543,7.363-22.705,5.644-39.187-.782-17.974-6.99-38.706-19.581-57.907-32.051-36.821-23.908-74.907-82.7-68.109-121.028,4.441-25.05,7.327-40.224,25.711-55.607,7.292-6.1,17.015-12.224,30.233-19.014,3.921-2.009,8.779-4.569,14.286-7.506,34.926-18.6,95.729-52.438,106.515-59.376,12.489-8.036,25.089-1.893,25.089-1.893s3,.457,8.285,5.639c.276.269.562.552.846.853a.3.3,0,0,1,.067.066c.118.122.238.243.357.364,3.5,3.7,7.87,9.353,12.936,17.994,13.813,23.6,16.669,64.359,25.644,84.373S12028.085,1011.884,12038.3,1023.751Z" fill="#fff"/>
            <path id="Path_5816" data-name="Path 5816" d="M11963.734,872.47c8.07,6.131,14.194,16.733,17.324,33.679s-16.879,18.741-52.127,22.861c-16.062,1.878-38.854,5.7-56.644,12.424-21.258,8.035-35.382,20.19-22.4,38.089,23.557,32.462,36.212,80.149,36.529,81.349,0-.406-.028-2.695-.09-13.761-.08-15.489-3.381-46.78-3.381-46.78,12.363,28.489,13.214,95.694,13.214,95.694s.409,7.455,7.591,16.572,40.082,26.243,53.577,18.514l.015-.007a2.865,2.865,0,0,1,.593-.27l-66.467,73.465c-.919-12.731-2.062-28.348-3.466-47.433q-.368-4.983-.755-10.293c-6.592-89.59-14.5-98.656-25.241-122.271s-32.5-62.784-59.85-73a50.676,50.676,0,0,0-14.46-3.123,51.331,51.331,0,0,0-21.016,3.034c10.787-4.736,26.337-12.03,46.354-22.561a83.1,83.1,0,0,1,19.182-6.993c34.926-18.6,95.729-52.438,106.515-59.376,12.489-8.036,25.089-1.893,25.089-1.893s3,.457,8.285,5.639C11966.229,860.837,11956.075,866.651,11963.734,872.47Z" fill="#c9d6e8"/>
            <path id="Path_5817" data-name="Path 5817" d="M11973.38,867.313a2.693,2.693,0,0,1-.357-.364C11973.141,867.071,11973.261,867.192,11973.38,867.313Z" fill="#c9d6e8"/>
            <path id="Path_5818" data-name="Path 5818" d="M11681.645,586.8c-25.531-28.5-59.477-7.414-100.176-1.508s-84.286,43.272-98.34,76.772-5.126,67.868,4.843,85.182,5.387-.116,3.618-11.786-1.074-21.493,8.678-34.674c0,0-11.668,18.668-.428,56.99,13.453,45.864,25.523,63.878,9.354,83.263-10.663,12.783-26.1,14.888-38.364,9.445s-16.5-22.022-20.153-21.063,2.192,21.525,14.839,33.367,44.566,17.309,71.242-13.312c20.077-23.045,8.673-58.4,5.587-86.623s16.372-51.539,16.372-51.539-18.012,29.544,1.949,81.482c10.654,27.721,5.093,54.751-13.118,64.028-8.79,4.477-2.124,9.467,10.01,1.81,15.89-10.028,39.07-39.52,35.213-68.18-4.159-30.907-1.975-32.1-1.975-32.1s6.21,25.235,32.71,46.185c29.224,23.1,39.924,34.825,42.588,44.959s15.851-.7,11.652-19.965c0,0,11.716,23.138,12.871,32.477s8.928,2.545,9.771-10.685c0,0,2.2,6.564,5.858,6.576s13.392-10.779,13.392-10.779-5.913,15.422,2.3,13.7,17.023-4.476,34.713-21.26,25.436-31.821,25.436-31.821-1.075,29.139,1.441,35.411,4.053-1.065,7.212-8.83,29.073-34.014,38.04-65.84-11.506-100.356-41.337-142.2S11720.3,578.478,11681.645,586.8Z" fill="#ed759d"/>
            <path id="Path_5819" data-name="Path 5819" d="M11786.342,739.248c13.494,58.05,11.794,83.677-7.707,112.654-19.121,28.412-8.479,41.309-6.6,42.279s2.638-15.35,11.223-25.129c20.12-22.917,32.077-23.2,49.779-63.18,25.574-57.756-5.8-142.433-52.109-188.039S11786.342,739.248,11786.342,739.248Z" fill="#ed759d"/>
            <path id="Path_5820" data-name="Path 5820" d="M11766.633,762.315c13.5,58.05,7.03,82.248-19.172,104.3s-18.272,40.358-16.4,41.327,1-7.179,10.94-15.578,53.3-45.576,71.4-85.372-27.139-129.791-73.445-175.4S11766.633,762.315,11766.633,762.315Z" fill="#ed759d"/>
            <path id="Path_5821" data-name="Path 5821" d="M11590.224,762.7c17.957,49.355,40.378,81.641,26.372,104.009s-5.088,17.7,3.473,12.265,22.519-21.034,20.81-41.336-7.894-25.477-7.894-25.477l-35.894-62.767-5.831,2.752Z" fill="#ed759d"/>
            <path id="Path_5822" data-name="Path 5822" d="M11624.865,615.918a105.522,105.522,0,0,0-3.426,29.65,138.819,138.819,0,0,0,1.036,14.879q.864,7.41,2.342,14.736a283.117,283.117,0,0,0,7.46,28.93c2.9,9.546,6.256,18.958,9.7,28.35,3.415,9.4,7.11,18.719,10.523,28.177,1.723,4.717,3.371,9.5,4.884,14.315s2.808,9.7,4,14.6a206.375,206.375,0,0,1,5.016,29.813c.445,5.019.721,10.054.7,15.089a100.34,100.34,0,0,1-1.008,15.037,115.04,115.04,0,0,0-.022-15.008c-.315-4.99-.784-9.966-1.5-14.908a234.634,234.634,0,0,0-6.074-29.281,289.449,289.449,0,0,0-9.436-28.369c-3.639-9.319-7.286-18.673-10.813-28.087-3.509-9.421-6.753-18.959-9.646-28.619a254.769,254.769,0,0,1-6.926-29.465c-.827-4.985-1.482-10-1.882-15.044a141.247,141.247,0,0,1-.377-15.16A94.779,94.779,0,0,1,11624.865,615.918Z" fill="#fff"/>
            <path id="Path_5823" data-name="Path 5823" d="M11659.633,594.86a20.545,20.545,0,0,0-1.452,9.382,39.138,39.138,0,0,0,1.8,9.347,109.786,109.786,0,0,0,7.6,17.554c5.95,11.338,12.726,22.268,19.269,33.362,3.266,5.552,6.509,11.128,9.644,16.776s6.112,11.393,8.93,17.227c2.8,5.844,5.442,11.779,7.7,17.879a191.3,191.3,0,0,1,5.829,18.611,164.768,164.768,0,0,1,5.351,38.578,148.033,148.033,0,0,1-4.455,38.654,159.412,159.412,0,0,1-14.135,36.121c-3.04,5.705-6.381,11.233-9.862,16.654l-5.277,8.087a56.427,56.427,0,0,0-4.819,8.335,56.511,56.511,0,0,1,4.394-8.6l4.93-8.3c3.262-5.539,6.368-11.161,9.16-16.93a188.8,188.8,0,0,0,7.491-17.665,159.887,159.887,0,0,0,5.393-18.36,150.354,150.354,0,0,0,3.683-37.917,168.446,168.446,0,0,0-5.6-37.683,182.49,182.49,0,0,0-5.79-18.19q-3.42-8.914-7.53-17.586c-5.507-11.537-11.692-22.78-18.012-33.977-6.264-11.226-12.767-22.377-18.281-34.1a100.7,100.7,0,0,1-6.8-18.209,40.03,40.03,0,0,1-1.31-9.656A20.387,20.387,0,0,1,11659.633,594.86Z" fill="#fff"/>
            <path id="Path_5824" data-name="Path 5824" d="M11720.386,596.007c4.081,2.529,8.281,4.9,12.229,7.656,2,1.346,4.016,2.66,5.969,4.071l5.817,4.3a168.917,168.917,0,0,1,21.418,19.562,124.89,124.89,0,0,1,27.661,50.876l.992,3.512.785,3.56.779,3.56c.252,1.188.549,2.368.715,3.569l1.166,7.183c.216,1.194.361,2.4.484,3.6l.391,3.611c.6,4.808.78,9.652,1.087,14.481.1,2.418.085,4.844.123,7.264,0,1.211.039,2.421,0,3.632l-.156,3.632a135.02,135.02,0,0,1-4.021,28.738l-.954,3.505-1.129,3.454c-.353,1.158-.793,2.287-1.237,3.414s-.846,2.266-1.378,3.356a50.726,50.726,0,0,1-7.387,12.4,38.707,38.707,0,0,0,3.595-6.209,68.091,68.091,0,0,0,2.764-6.6c.447-1.1.759-2.261,1.141-3.39s.74-2.263,1.021-3.424l.914-3.453.737-3.5a146,146,0,0,0,2.814-28.37l.038-3.569c0-1.189-.079-2.38-.112-3.57-.1-2.379-.115-4.759-.27-7.136-.4-4.748-.661-9.507-1.349-14.223l-.435-3.544c-.128-1.184-.277-2.365-.5-3.533l-1.187-7.03c-.169-1.179-.469-2.327-.722-3.487l-.785-3.471-.786-3.471-.987-3.414-.965-3.42-.483-1.71c-.178-.564-.389-1.118-.581-1.677l-2.36-6.7-2.8-6.517c-.24-.541-.453-1.093-.715-1.623l-.812-1.576-1.61-3.16a133.552,133.552,0,0,0-15.828-23.531,188.4,188.4,0,0,0-20.3-20.088l-5.518-4.59c-1.856-1.514-3.8-2.918-5.681-4.4l-2.846-2.2-2.917-2.106Z" fill="#fff"/>
            <path id="Path_5825" data-name="Path 5825" d="M11759.945,736.12a113.533,113.533,0,0,0-3.547-34.532,182.608,182.608,0,0,0-11.745-32.621c-2.4-5.274-5.041-10.439-7.854-15.511-2.766-5.1-5.808-10.048-8.935-14.943-3.168-4.867-6.488-9.646-10.062-14.234a107.468,107.468,0,0,0-11.617-13.055,80.187,80.187,0,0,1,13.117,11.787,150.4,150.4,0,0,1,11.138,13.738c3.486,4.762,6.643,9.756,9.652,14.835q4.446,7.659,8.191,15.708c2.439,5.383,4.68,10.864,6.583,16.469a135.858,135.858,0,0,1,4.566,17.153C11761.7,712.5,11762.356,724.595,11759.945,736.12Z" fill="#fff"/>
            <path id="Path_5826" data-name="Path 5826" d="M11589.012,738.34c-1.174-3.162-2.177-6.379-3.192-9.6-.858-3.257-1.708-6.527-2.437-9.824a144.98,144.98,0,0,1-2.812-20.087c-.282-3.377-.285-6.779-.293-10.17l.218-5.091c.089-1.7.29-3.39.464-5.078.2-1.688.467-3.372.734-5.047.353-1.668.657-3.338,1.09-4.985a40.248,40.248,0,0,1,3.556-9.522,65.321,65.321,0,0,0-1.624,9.871c-.2,1.645-.291,3.307-.419,4.954-.046,1.661-.2,3.305-.224,4.961-.215,6.615.042,13.234.486,19.843.386,6.616,1.162,13.213,1.892,19.837.459,3.3.88,6.612,1.282,9.938C11588.207,731.65,11588.7,734.967,11589.012,738.34Z" fill="#fff"/>
            <path id="Path_5827" data-name="Path 5827" d="M11508.651,681.571a90.848,90.848,0,0,1,11.143-25.632c1.3-1.952,2.518-3.972,3.937-5.846l2.135-2.807c.718-.931,1.4-1.891,2.189-2.765l2.319-2.662c.778-.882,1.54-1.781,2.387-2.6l2.48-2.511c.826-.839,1.645-1.686,2.536-2.455l2.648-2.333c.881-.78,1.759-1.564,2.7-2.269l2.777-2.177c.925-.725,1.837-1.469,2.83-2.1l2.92-1.977c.972-.658,1.934-1.332,2.957-1.912,2.023-1.192,4-2.458,6.1-3.515a104.236,104.236,0,0,1,26.143-9.866,180.6,180.6,0,0,0-24.586,12.571c-1,.562-1.928,1.231-2.879,1.865l-2.863,1.882c-.971.6-1.88,1.3-2.8,1.975l-2.753,2.032c-.929.662-1.816,1.376-2.7,2.1l-2.662,2.145c-.9.694-1.743,1.465-2.585,2.232l-2.537,2.29c-.874.732-1.677,1.541-2.485,2.342l-2.433,2.4c-1.64,1.585-3.07,3.363-4.649,5.008-.8.816-1.5,1.717-2.227,2.591l-2.182,2.637c-.755.859-1.376,1.817-2.071,2.721l-2.062,2.738A141.938,141.938,0,0,0,11508.651,681.571Z" fill="#fff"/>
          </g>
          <path id="Path_5828" data-name="Path 5828" d="M12044.508,845.88c-13.232,0-25.492-1.068-33.949-4.049a1,1,0,0,1,.664-1.887c28.721,10.123,105.178-2.716,105.946-2.847a1,1,0,0,1,.336,1.971C12115.26,839.451,12076.966,845.88,12044.508,845.88Z" fill="#db8882"/>
          <path id="Path_5829" data-name="Path 5829" d="M11111.344,1240.625a1,1,0,0,1-.617-1.788c.623-.487,62.464-49.191,75.771-93.407a1,1,0,1,1,1.916.576c-13.49,44.827-75.826,93.916-76.455,94.407A1,1,0,0,1,11111.344,1240.625Z" fill="#db8882"/>
          <path id="Path_5830" data-name="Path 5830" d="M11434.405,1305.971a1.5,1.5,0,0,1-1.009-2.609c40.268-36.617,55.643-85.588,55.794-86.078a1.5,1.5,0,1,1,2.866.88c-.151.5-15.746,50.229-56.643,87.417A1.5,1.5,0,0,1,11434.405,1305.971Z" fill="#0d0d0c"/>
          <path id="Path_5831" data-name="Path 5831" d="M11489.211,1258.764a1.5,1.5,0,0,1-1.358-2.136c.2-.421,19.764-42.261,21.169-55.69,3.823-36.55,1.81-68.921-5.984-96.215-7.91-27.7-18.769-39.491-21.907-42.446-12.488-11.754-34.233-16.347-34.452-16.392a1.5,1.5,0,1,1,.606-2.937c.924.189,22.787,4.8,35.9,17.145,14.737,13.87,37.392,59.209,28.82,141.158-1.458,13.929-20.621,54.913-21.436,56.65A1.5,1.5,0,0,1,11489.211,1258.764Z" fill="#0d0d0c"/>
          <path id="Path_5832" data-name="Path 5832" d="M11890.95,1208.325a1.5,1.5,0,0,1-1.5-1.421c-.066-1.247-6.617-124.864-12.347-143.03-5.647-17.9-26.576-64.816-49.359-92.125a1.5,1.5,0,1,1,2.3-1.922c23.048,27.628,44.21,75.05,49.918,93.144,5.843,18.528,12.212,138.67,12.481,143.775a1.5,1.5,0,0,1-1.419,1.577Z" fill="#0d0d0c"/>
          <path id="Path_5833" data-name="Path 5833" d="M11884.8,1115.6q-.047,0-.094,0a1.5,1.5,0,0,1-1.405-1.59c.065-1.042,6.313-104.574-6.229-125.884a1.5,1.5,0,0,1,2.586-1.522c13,22.1,6.905,123.3,6.639,127.592A1.5,1.5,0,0,1,11884.8,1115.6Z" fill="#0d0d0c"/>
        </g>
      </g>
    </g>
  </g>
</svg>
