<svg xmlns="http://www.w3.org/2000/svg" width="589.582" height="308.87" viewBox="0 0 589.582 308.87">
  <g id="Exercise_Card" data-name="Exercise Card" transform="translate(-3800.688 -555.652)">
    <path id="Path_2287" data-name="Path 2287" d="M3801.16,564.292l128.9,297.471a4.843,4.843,0,0,0,4.574,2.759h448.729c4.764,0,8.58-5.18,6.159-8.378L4163.5,557.57a5,5,0,0,0-4.067-1.918H3807.094C3802.644,555.652,3799.441,560.325,3801.16,564.292Z" fill="#fff"/>
    <g id="Group_1251" data-name="Group 1251">
      <path id="Path_2288" data-name="Path 2288" d="M4296.156,788.915h-348.95a10.919,10.919,0,0,1-9.315-6.427h0c-1.418-3.52.417-6.358,4.091-6.358h345.13c3.674,0,8.676,2.838,11.186,6.358h0C4300.823,786.029,4299.871,788.915,4296.156,788.915Z" fill="#c9d6e8"/>
      <path id="Path_2289" data-name="Path 2289" d="M4311.764,812.18h-355.9c-3.789,0-8.067-3-9.548-6.685h0c-1.472-3.66.378-6.611,4.124-6.611h351.929c3.746,0,8.886,2.951,11.493,6.611h0C4316.485,809.178,4315.553,812.18,4311.764,812.18Z" fill="#c9d6e8"/>
      <path id="Path_2290" data-name="Path 2290" d="M4071.259,836.391H3965.738c-3.865,0-8.256-3.125-9.8-6.959h0c-1.532-3.809.331-6.88,4.153-6.88H4061.48c3.821,0,9.107,3.071,11.821,6.88h0C4076.032,833.266,4075.125,836.391,4071.259,836.391Z" fill="#c9d6e8"/>
    </g>
    <path id="Path_2291" data-name="Path 2291" d="M3824.948,577.98,3907.9,752.464a8.558,8.558,0,0,0,7.729,4.884H4284.1a4.275,4.275,0,0,0,3.418-6.843l-131.6-175.217a8.557,8.557,0,0,0-6.843-3.418H3828.809A4.275,4.275,0,0,0,3824.948,577.98Z" fill="#edde1d"/>
    <path id="Path_2292" data-name="Path 2292" d="M4264.359,719.676,4155.915,575.288a8.557,8.557,0,0,0-6.843-3.418H3828.809a4.275,4.275,0,0,0-3.861,6.11l12.933,27.205" fill="none" stroke="#0d0d0c" stroke-linecap="round" stroke-linejoin="round" stroke-width="2"/>
    <path id="Path_2293" data-name="Path 2293" d="M3862.089,656.108l45.807,96.356a8.558,8.558,0,0,0,7.729,4.884H4284.1a4.275,4.275,0,0,0,3.418-6.843l-11.937-15.894" fill="none" stroke="#0d0d0c" stroke-linecap="round" stroke-linejoin="round" stroke-width="2"/>
    <line id="Line_145" data-name="Line 145" x2="3.817" y2="8.028" transform="translate(3854.232 639.579)" fill="none" stroke="#0d0d0c" stroke-linecap="round" stroke-linejoin="round" stroke-width="2"/>
    <g id="Group_1259" data-name="Group 1259">
      <path id="Path_2294" data-name="Path 2294" d="M4129.106,720.873s35.952-26.6,43.406-34.311-18.753-17.621-27.807-9.067l-29.127,20.04-18.49,14.533-50.43-3.263-63.365-2s-4.614,10.651,2.823,11.119,19.541.637,19.541.637l16.189,7.6h17.8c10.3,0,19.338-2.265,21.838-5.659h25.7Z"/>
      <g id="Group_1258" data-name="Group 1258">
        <g id="Group_1252" data-name="Group 1252">
          <path id="Path_2295" data-name="Path 2295" d="M3976.5,649.448a56.435,56.435,0,0,0-20.182,21.872s-7.333,18.08,7.623,35.121c19.091,21.754,38.326,11.812,38.326,11.812S4014.2,711.4,4021.94,699.7Z" fill="#fdd89b"/>
          <path id="Path_2296" data-name="Path 2296" d="M4016.907,654.47c13.955,12.672,16.208,32.922,5.033,45.23s-31.549,12.014-45.5-.658-16.209-32.922-5.033-45.229S4002.952,641.8,4016.907,654.47Z" fill="#fff"/>
          <path id="Path_2297" data-name="Path 2297" d="M4017.954,655.385c13.387,12.156,15.616,31.506,4.98,43.22s-30.111,11.356-43.5-.8-15.616-31.505-4.979-43.219S4004.567,643.231,4017.954,655.385Z" fill="#c78c50"/>
          <path id="Path_2298" data-name="Path 2298" d="M3976.5,649.447c11.566-7.627,28.375-5.9,40.41,5.023,13.955,12.672,16.208,32.922,5.033,45.23s-31.549,12.014-45.5-.658c-8.233-7.476-12.393-17.589-12.126-27.153" fill="none" stroke="#0d0d0c" stroke-linecap="round" stroke-linejoin="round" stroke-width="1.832"/>
          <path id="Path_2299" data-name="Path 2299" d="M3993.306,678.761c-6.944,1.571-8.917,19.879-6.121,27.179,0,0,2.421,16.039-14.47,8.459,0,0,4.877,4.761,14.524,6.122s14.417-1.655,14.417-1.655Z"/>
          <path id="Path_2300" data-name="Path 2300" d="M3965.281,658.7a56.971,56.971,0,0,0-8.965,12.625s-7.333,18.08,7.623,35.121c19.091,21.754,38.326,11.812,38.326,11.812S4014.2,711.4,4021.94,699.7" fill="none" stroke="#0d0d0c" stroke-linecap="round" stroke-linejoin="round" stroke-width="1.832"/>
        </g>
        <g id="Group_1253" data-name="Group 1253">
          <path id="Path_2301" data-name="Path 2301" d="M4036.24,656.321a56.434,56.434,0,0,0-29.558,3.467s-17.334,8.953-17.073,31.625c.333,28.941,21.407,33.913,21.407,33.913s13.523,2.562,27.013-1.278Z" fill="#fdd89b"/>
          <path id="Path_2302" data-name="Path 2302" d="M4036.24,656.321a56.434,56.434,0,0,0-29.558,3.467s-17.334,8.953-17.073,31.625c.333,28.941,21.407,33.913,21.407,33.913s13.523,2.562,27.013-1.278Z" fill="none" stroke="#0d0d0c" stroke-linecap="round" stroke-linejoin="round" stroke-width="1.832"/>
          <path id="Path_2303" data-name="Path 2303" d="M4063.648,686.436c2.347,18.7-9.124,35.543-25.619,37.612s-31.77-11.415-34.117-30.118,9.124-35.543,25.62-37.612S4061.3,667.733,4063.648,686.436Z" fill="#fff"/>
          <ellipse id="Ellipse_107" data-name="Ellipse 107" cx="28.649" cy="32.74" rx="28.649" ry="32.74" transform="matrix(0.992, -0.125, 0.125, 0.992, 4002.919, 662.46)" fill="#c78c50"/>
          <path id="Path_2304" data-name="Path 2304" d="M4029.532,656.318c16.5-2.07,31.77,11.415,34.116,30.118s-9.124,35.543-25.619,37.612-31.77-11.415-34.117-30.118A37.448,37.448,0,0,1,4006,675.92" fill="none" stroke="#0d0d0c" stroke-linecap="round" stroke-linejoin="round" stroke-width="1.832"/>
          <path id="Path_2305" data-name="Path 2305" d="M4001.656,663.419c5.536-2.053,13.074,4.534,13.074,4.534s22.135,17.9,44.829,5.428l-.772-1.383-25.5-10.1s-13.883-4.844-19.428-4.445A18.862,18.862,0,0,0,4001.656,663.419Z"/>
        </g>
        <g id="Group_1255" data-name="Group 1255">
          <g id="Group_1254" data-name="Group 1254">
            <path id="Path_2306" data-name="Path 2306" d="M4030.6,592.243s-15.612,7.357-25.3,27.012c0,0-7.628,19.76,9.425,39.223,20.627,23.543,42.063,14.352,42.063,14.352s15.2-7.038,24.62-21.972Z" fill="#fdd89b"/>
            <path id="Path_2307" data-name="Path 2307" d="M4075.63,598.882c16.038,14.562,18.627,37.833,5.784,51.976s-36.254,13.806-52.292-.756-18.626-37.832-5.783-51.976S4059.593,584.321,4075.63,598.882Z" fill="#fff"/>
            <path id="Path_2308" data-name="Path 2308" d="M4076.834,599.934c15.383,13.969,17.946,36.2,5.723,49.666s-34.6,13.05-49.986-.918-17.946-36.2-5.723-49.666S4061.451,585.966,4076.834,599.934Z" fill="#c78c50"/>
            <path id="Path_2309" data-name="Path 2309" d="M4051.483,674.2c1.643-6.253,12.583-21.928,31.074-24.6l-.955,1.048-18.468,18.493s-.853,1.187-4.691,3.024A20.886,20.886,0,0,1,4051.483,674.2Z" fill-rule="evenodd"/>
            <path id="Path_2310" data-name="Path 2310" d="M4073.377,603.48c-12.043-10.935-29.562-11.256-39.13-.719s-7.563,27.946,4.48,38.88,29.561,11.257,39.13.719S4085.42,614.415,4073.377,603.48Zm1.7,34.405c-7.9,8.7-22.353,8.43-32.291-.593s-11.592-23.387-3.7-32.084,22.352-8.43,32.29.594S4082.971,629.189,4075.076,637.885Z" fill="#9e6735"/>
            <path id="Path_2311" data-name="Path 2311" d="M4006.812,646.027l15.034-12.646s-4.109-9.908-2.558-17.049l-15.556,17.147S4004.608,641.577,4006.812,646.027Z" fill="#fff"/>
            <path id="Path_2312" data-name="Path 2312" d="M4009.71,611.64a65.911,65.911,0,0,0-4.4,7.615s-7.628,19.76,9.425,39.223c20.627,23.543,42.063,14.352,42.063,14.352s15.2-7.038,24.62-21.972" fill="none" stroke="#0d0d0c" stroke-linecap="round" stroke-linejoin="round" stroke-width="1.832"/>
            <path id="Path_2313" data-name="Path 2313" d="M4064.762,591.613q1.745.819,3.441,1.809" fill="none" stroke="#0d0d0c" stroke-linecap="round" stroke-linejoin="round" stroke-width="1.832"/>
            <path id="Path_2314" data-name="Path 2314" d="M4075.63,598.882c16.038,14.562,18.627,37.833,5.784,51.976s-36.254,13.806-52.292-.756-18.626-37.832-5.783-51.976a32.418,32.418,0,0,1,23.831-10.386" fill="none" stroke="#0d0d0c" stroke-linecap="round" stroke-linejoin="round" stroke-width="1.832"/>
          </g>
        </g>
        <g id="Group_1257" data-name="Group 1257">
          <path id="Path_2315" data-name="Path 2315" d="M4042.694,703.467l76.134-2.191s2.121-21.394-3.25-27.635l-73.1,7.168a7.866,7.866,0,0,0-6.712,5.332C4034.1,691.188,4033.481,698.939,4042.694,703.467Z"/>
          <g id="Group_1256" data-name="Group 1256">
            <path id="Path_2316" data-name="Path 2316" d="M4114.55,648.111s-16.64-4.577-36.787,4.04c0,0-18.653,10.036-18.376,35.911.335,31.3,22.591,38.275,22.591,38.275s16.119,4.549,32.992-.655Z" fill="#fdd89b"/>
            <path id="Path_2317" data-name="Path 2317" d="M4144.411,682.459c2.7,21.494-10.485,40.845-29.441,43.223s-36.508-13.118-39.205-34.611,10.485-40.845,29.441-43.222S4141.715,660.966,4144.411,682.459Z" fill="#fff"/>
            <ellipse id="Ellipse_108" data-name="Ellipse 108" cx="32.923" cy="37.624" rx="32.923" ry="37.624" transform="matrix(0.992, -0.124, 0.124, 0.992, 4074.625, 654.905)" fill="#c78c50"/>
            <path id="Path_2318" data-name="Path 2318" d="M4139.707,684.483c-2.024-16.14-15.115-27.788-29.238-26.016s-23.931,16.292-21.906,32.432,15.115,27.787,29.238,26.015S4141.732,700.623,4139.707,684.483Zm-21.1,27.225c-11.654,1.462-22.456-8.15-24.128-21.469s6.423-25.3,18.077-26.762,22.457,8.149,24.128,21.468S4130.258,710.245,4118.6,711.708Z" fill="#9e6735"/>
            <path id="Path_2319" data-name="Path 2319" d="M4061.48,673.456l19.645.185s3.33-10.2,9.155-14.607l-22.97,2.891S4062.7,668.643,4061.48,673.456Z" fill="#fff"/>
            <path id="Path_2320" data-name="Path 2320" d="M4105.206,647.849c18.956-2.379,36.509,13.117,39.205,34.61s-10.485,40.845-29.441,43.223-36.508-13.118-39.205-34.611a44.163,44.163,0,0,1-.01-11.011" fill="none" stroke="#0d0d0c" stroke-linecap="round" stroke-linejoin="round" stroke-width="1.832"/>
            <path id="Path_2321" data-name="Path 2321" d="M4095.5,647.361a65.068,65.068,0,0,0-17.738,4.79s-18.653,10.036-18.376,35.911c.335,31.3,22.591,38.275,22.591,38.275a64.5,64.5,0,0,0,17.937,1.8" fill="none" stroke="#0d0d0c" stroke-linecap="round" stroke-linejoin="round" stroke-width="1.832"/>
          </g>
        </g>
      </g>
    </g>
  </g>
</svg>
