<svg xmlns="http://www.w3.org/2000/svg" xmlns:xlink="http://www.w3.org/1999/xlink" width="320" height="320" viewBox="0 0 320 320">
  <defs>
    <clipPath id="clip-path">
      <rect id="Rectangle_172" data-name="Rectangle 172" width="320" height="320" transform="translate(250 342)" fill="none" stroke="#707070" stroke-width="1"/>
    </clipPath>
    <clipPath id="clip-path-2">
      <circle id="Ellipse_61" data-name="Ellipse 61" cx="131.429" cy="131.429" r="131.429" fill="none"/>
    </clipPath>
  </defs>
  <g id="Mask_Group_1" data-name="Mask Group 1" transform="translate(-250 -342)" clip-path="url(#clip-path)">
    <g id="Habit" transform="translate(5249.591 3278.521)">
      <g id="Group_370" data-name="Group 370" transform="translate(-5060.035 -2997.746)">
        <g id="Group_369" data-name="Group 369">
          <circle id="Ellipse_58" data-name="Ellipse 58" cx="155.808" cy="155.808" r="155.808" transform="translate(0 220.346) rotate(-45)" fill="#fff"/>
          <circle id="Ellipse_59" data-name="Ellipse 59" cx="131.449" cy="131.449" r="131.449" transform="translate(88.897 88.897)" fill="#c9d6e8"/>
          <path id="Path_998" data-name="Path 998" d="M-4923.494-2738.247q-2.406-1.7-4.743-3.492" transform="translate(5053.929 3085.857)" fill="none" stroke="#0d0d0c" stroke-linecap="round" stroke-linejoin="round" stroke-width="3"/>
          <path id="Path_999" data-name="Path 999" d="M-4945.475-2761.3a155.316,155.316,0,0,1-45.105-109.641,155.81,155.81,0,0,1,155.81-155.808,155.808,155.808,0,0,1,155.807,155.808,155.808,155.808,0,0,1-155.807,155.808,155.077,155.077,0,0,1-80.529-22.4" transform="translate(5055.118 3091.289)" fill="none" stroke="#0d0d0c" stroke-linecap="round" stroke-linejoin="round" stroke-width="3"/>
        </g>
      </g>
      <g id="Group_813" data-name="Group 813" transform="translate(-4971.119 -2908.828)">
        <g id="Group_812" data-name="Group 812" clip-path="url(#clip-path-2)">
          <g id="Group_709" data-name="Group 709" transform="translate(-3.48 -128.907)">
            <g id="Group_703" data-name="Group 703">
              <g id="Group_697" data-name="Group 697">
                <g id="Group_696" data-name="Group 696">
                  <g id="Group_691" data-name="Group 691">
                    <g id="Group_690" data-name="Group 690">
                      <g id="Group_658" data-name="Group 658" transform="translate(33.219)">
                        <g id="Group_657" data-name="Group 657">
                          <g id="Group_652" data-name="Group 652">
                            <g id="Group_651" data-name="Group 651">
                              <g id="Group_650" data-name="Group 650">
                                <g id="Group_649" data-name="Group 649">
                                  <g id="Group_628" data-name="Group 628">
                                    <g id="Group_627" data-name="Group 627">
                                      <g id="Group_626" data-name="Group 626">
                                        <g id="Group_604" data-name="Group 604">
                                          <g id="Group_603" data-name="Group 603">
                                            <g id="Group_602" data-name="Group 602">
                                              <g id="Group_601" data-name="Group 601">
                                                <g id="Group_600" data-name="Group 600">
                                                  <g id="Group_599" data-name="Group 599">
                                                    <g id="Group_598" data-name="Group 598">
                                                      <g id="Group_597" data-name="Group 597">
                                                        <g id="Group_596" data-name="Group 596">
                                                          <g id="Group_595" data-name="Group 595">
                                                            <path id="Path_1126" data-name="Path 1126" d="M-4802.772-2914.957c-3.254-16.964-5.524-28.582-5.49-28.462,0,0,32.024-12.23,30.112-56.865-.951-22.2-9.189-57.236-16.855-85.688-6.9-25.609-30.549-53.948-55.842-45.966l-76.57,36.784c-7.684,2.424-9.071,9.616-7.313,17.479l.1,3.83,28.9,123.072,8.953,62.317c5.4,23.4,31,31.5,54.8,28.212h0A46.4,46.4,0,0,0-4802.772-2914.957Z" transform="translate(4935.41 3133.31)" fill="#f9cfcc"/>
                                                          </g>
                                                        </g>
                                                      </g>
                                                    </g>
                                                  </g>
                                                </g>
                                              </g>
                                            </g>
                                          </g>
                                        </g>
                                        <g id="Group_615" data-name="Group 615" transform="translate(98.326 104.119)">
                                          <g id="Group_614" data-name="Group 614">
                                            <g id="Group_613" data-name="Group 613">
                                              <g id="Group_612" data-name="Group 612">
                                                <g id="Group_611" data-name="Group 611">
                                                  <g id="Group_610" data-name="Group 610">
                                                    <g id="Group_609" data-name="Group 609">
                                                      <g id="Group_608" data-name="Group 608">
                                                        <g id="Group_607" data-name="Group 607">
                                                          <g id="Group_606" data-name="Group 606">
                                                            <g id="Group_605" data-name="Group 605">
                                                              <path id="Path_1127" data-name="Path 1127" d="M-4822.314-2977.995c-.1-.333,3.483-1.727,9.338-3.717,1.491-.467,2.872-1.061,2.917-2.153.136-1.175-.835-2.687-1.933-4.311q-3.274-5.094-6.864-10.687c-9.61-15.251-16.9-27.915-16.282-28.3s8.912,11.669,18.521,26.919q3.5,5.653,6.686,10.8c.929,1.615,2.32,3.377,2,5.82a3.9,3.9,0,0,1-2.053,2.737,10.563,10.563,0,0,1-2.515.885C-4818.475-2978.448-4822.223-2977.659-4822.314-2977.995Z" transform="translate(4835.173 3027.168)"/>
                                                            </g>
                                                          </g>
                                                        </g>
                                                      </g>
                                                    </g>
                                                  </g>
                                                </g>
                                              </g>
                                            </g>
                                          </g>
                                        </g>
                                        <g id="Group_625" data-name="Group 625" transform="translate(68.597 219.38)">
                                          <g id="Group_624" data-name="Group 624">
                                            <g id="Group_623" data-name="Group 623">
                                              <g id="Group_622" data-name="Group 622">
                                                <g id="Group_621" data-name="Group 621">
                                                  <g id="Group_620" data-name="Group 620">
                                                    <g id="Group_619" data-name="Group 619">
                                                      <g id="Group_618" data-name="Group 618">
                                                        <g id="Group_617" data-name="Group 617">
                                                          <g id="Group_616" data-name="Group 616">
                                                            <path id="Path_1128" data-name="Path 1128" d="M-4804.435-2905.976s-28.709,7.781-61.045-3.691c0,0,20.8,27.554,63.259,14.722Z" transform="translate(4865.48 2909.667)" fill="#e8b1b1"/>
                                                          </g>
                                                        </g>
                                                      </g>
                                                    </g>
                                                  </g>
                                                </g>
                                              </g>
                                            </g>
                                          </g>
                                        </g>
                                      </g>
                                    </g>
                                  </g>
                                  <g id="Group_638" data-name="Group 638" transform="translate(50.703 95.841)">
                                    <g id="Group_637" data-name="Group 637">
                                      <g id="Group_636" data-name="Group 636">
                                        <g id="Group_635" data-name="Group 635">
                                          <g id="Group_634" data-name="Group 634">
                                            <g id="Group_633" data-name="Group 633">
                                              <g id="Group_632" data-name="Group 632">
                                                <g id="Group_631" data-name="Group 631">
                                                  <g id="Group_630" data-name="Group 630">
                                                    <g id="Group_629" data-name="Group 629">
                                                      <path id="Path_1129" data-name="Path 1129" d="M-4856.417-3032.25c-.406,1.715-6.537,1.631-13.534,3.3-7.033,1.533-12.517,4.271-13.628,2.9-.5-.657.318-2.319,2.448-4.178a23.168,23.168,0,0,1,9.8-4.753,23.166,23.166,0,0,1,10.892.023C-4857.71-3034.2-4856.25-3033.06-4856.417-3032.25Z" transform="translate(4883.722 3035.607)" fill="#1a2e35"/>
                                                    </g>
                                                  </g>
                                                </g>
                                              </g>
                                            </g>
                                          </g>
                                        </g>
                                      </g>
                                    </g>
                                  </g>
                                  <g id="Group_648" data-name="Group 648" transform="translate(110.826 83.399)">
                                    <g id="Group_647" data-name="Group 647">
                                      <g id="Group_646" data-name="Group 646">
                                        <g id="Group_645" data-name="Group 645">
                                          <g id="Group_644" data-name="Group 644">
                                            <g id="Group_643" data-name="Group 643">
                                              <g id="Group_642" data-name="Group 642">
                                                <g id="Group_641" data-name="Group 641">
                                                  <g id="Group_640" data-name="Group 640">
                                                    <g id="Group_639" data-name="Group 639">
                                                      <path id="Path_1130" data-name="Path 1130" d="M-4798.146-3044.171c-.969,1.607-6.117,1.189-11.978,2.309-5.894.948-10.616,3.1-12.043,1.917-.64-.588-.135-2.1,1.769-3.824a19.22,19.22,0,0,1,9.267-4.194,18.915,18.915,0,0,1,10.087.789C-4798.695-3046.2-4797.733-3044.943-4798.146-3044.171Z" transform="translate(4822.43 3048.291)" fill="#1a2e35"/>
                                                    </g>
                                                  </g>
                                                </g>
                                              </g>
                                            </g>
                                          </g>
                                        </g>
                                      </g>
                                    </g>
                                  </g>
                                </g>
                              </g>
                            </g>
                          </g>
                          <g id="Group_656" data-name="Group 656" transform="translate(27.107 22.946)">
                            <g id="Group_655" data-name="Group 655">
                              <g id="Group_654" data-name="Group 654">
                                <g id="Group_653" data-name="Group 653">
                                  <path id="Path_1131" data-name="Path 1131" d="M-4905.433-3090.116a30.632,30.632,0,0,0,15.178,20.68,30.631,30.631,0,0,0,25.606,1.537c6.367-2.535,12.939-7.329,19.369-4.956,6.761,2.494,8.829,11.515,15.095,15.077,8.955,5.088,19.834-3.556,30.092-2.628,7.922.717,14.025,6.927,20.2,11.941s14.761,9.237,21.792,5.519c-1.827-6.626-3.678-13.319-6.97-19.353s-8.206-11.434-14.59-13.979c-3.5-1.395-7.339-1.9-10.679-3.644-7.212-3.765-10.4-12.2-15.635-18.422a33.082,33.082,0,0,0-28-11.434c-8.685.838-16.942,5.152-25.656,4.725-6.443-.315-12.6-3.221-19.046-3.155-12.56.129-22.063,11.068-29.1,21.473" transform="translate(4907.777 3109.918)" fill="#1a2e35"/>
                                </g>
                              </g>
                            </g>
                          </g>
                        </g>
                      </g>
                      <g id="Group_661" data-name="Group 661" transform="translate(0 34.69)">
                        <g id="Group_660" data-name="Group 660">
                          <g id="Group_659" data-name="Group 659">
                            <path id="Path_1132" data-name="Path 1132" d="M-4864.429-3080.44c-5.734-.464-17.537-1.748-21.39-5.868-8.367-8.95-20.907-13.69-32.162-10.784a27.905,27.905,0,0,0-20.292,26.571c-13.75,2.867-25.45,14.213-29.446,28.553a46.514,46.514,0,0,0,9.738,42.169,83.4,83.4,0,0,1,6.517,9.568s-5.2,6.4-7.2,10.765c-9.289,20.219,15.522,28.148,15.522,28.148-.02,13.63,12.542,13.649,20.606,13.66,7.75.012,14.359,20.676,20.636,19.882l-7.919-65.565c.772.313,2.16-.034,3.32-.39,14.013-4.3,11.029-27.458,6.157-34.927,4.321-5.723,8.687-11.525,11.507-18.261s3.107-23.617.791-30.727C-4882.747-3068.39-4861.91-3080.237-4864.429-3080.44Z" transform="translate(4969.274 3097.946)"/>
                          </g>
                        </g>
                      </g>
                      <g id="Group_689" data-name="Group 689" transform="translate(36.292 142.832)">
                        <g id="Group_674" data-name="Group 674">
                          <g id="Group_673" data-name="Group 673">
                            <g id="Group_672" data-name="Group 672">
                              <g id="Group_671" data-name="Group 671">
                                <g id="Group_670" data-name="Group 670">
                                  <g id="Group_669" data-name="Group 669">
                                    <g id="Group_668" data-name="Group 668">
                                      <g id="Group_667" data-name="Group 667">
                                        <g id="Group_666" data-name="Group 666">
                                          <g id="Group_665" data-name="Group 665">
                                            <g id="Group_664" data-name="Group 664">
                                              <g id="Group_663" data-name="Group 663">
                                                <g id="Group_662" data-name="Group 662">
                                                  <path id="Path_1133" data-name="Path 1133" d="M-4906.872-2977.708c-2.307-9.112-13.564-13.243-20.617-7.03-3.873,3.411-6.2,9.174-3.837,18.865,6.3,25.843,30.949,14.184,30.813,13.431C-4900.6-2952.908-4904.169-2967.04-4906.872-2977.708Z" transform="translate(4932.277 2987.703)" fill="#f9cfcc"/>
                                                </g>
                                              </g>
                                            </g>
                                          </g>
                                        </g>
                                      </g>
                                    </g>
                                  </g>
                                </g>
                              </g>
                            </g>
                          </g>
                        </g>
                        <g id="Group_688" data-name="Group 688" transform="translate(7.134 8.023)">
                          <g id="Group_687" data-name="Group 687">
                            <g id="Group_686" data-name="Group 686">
                              <g id="Group_685" data-name="Group 685">
                                <g id="Group_684" data-name="Group 684">
                                  <g id="Group_683" data-name="Group 683">
                                    <g id="Group_682" data-name="Group 682">
                                      <g id="Group_681" data-name="Group 681">
                                        <g id="Group_680" data-name="Group 680">
                                          <g id="Group_679" data-name="Group 679">
                                            <g id="Group_678" data-name="Group 678">
                                              <g id="Group_677" data-name="Group 677">
                                                <g id="Group_676" data-name="Group 676">
                                                  <g id="Group_675" data-name="Group 675">
                                                    <path id="Path_1134" data-name="Path 1134" d="M-4910.656-2960.151c-.135-.055-.375.426-1.051.959a4.625,4.625,0,0,1-3.347.891c-2.975-.336-6.33-4.11-7.592-8.738a15.288,15.288,0,0,1-.312-6.753c.327-2.083,1.227-3.7,2.543-4.282a2.361,2.361,0,0,1,2.958.585c.523.639.485,1.195.632,1.206.088.047.449-.569-.019-1.584a2.965,2.965,0,0,0-1.412-1.372,3.5,3.5,0,0,0-2.651-.05c-1.959.624-3.305,2.895-3.726,5.153a15.723,15.723,0,0,0,.2,7.584c1.435,5.168,5.29,9.39,9.289,9.558a4.96,4.96,0,0,0,3.95-1.688C-4910.552-2959.516-4910.556-2960.126-4910.656-2960.151Z" transform="translate(4925.004 2979.524)" fill="#e8b1b1"/>
                                                  </g>
                                                </g>
                                              </g>
                                            </g>
                                          </g>
                                        </g>
                                      </g>
                                    </g>
                                  </g>
                                </g>
                              </g>
                            </g>
                          </g>
                        </g>
                      </g>
                    </g>
                  </g>
                  <g id="Group_695" data-name="Group 695" transform="translate(1.337 20.211)">
                    <g id="Group_694" data-name="Group 694">
                      <g id="Group_693" data-name="Group 693">
                        <g id="Group_692" data-name="Group 692">
                          <path id="Path_1135" data-name="Path 1135" d="M-4953.178-3029.426a5.718,5.718,0,0,1-1.268-.722,32.12,32.12,0,0,1-3.305-2.557,30.864,30.864,0,0,1-8.744-12.591,24.263,24.263,0,0,1-1.285-10.633,21.951,21.951,0,0,1,4.558-11.431,17.546,17.546,0,0,1,11.853-6.573,16.316,16.316,0,0,1,13.769,4.56l-1.135.785-.127-.272c-4.393-8.986-5.644-19.243-2.642-27.586,2.879-8.343,9.531-14.15,16.033-15.684a19.584,19.584,0,0,1,15.083,2.334,15.468,15.468,0,0,1,3.212,2.736,5.791,5.791,0,0,1,.852,1.2,24.086,24.086,0,0,0-4.348-3.47,19.406,19.406,0,0,0-14.554-1.842c-6.121,1.571-12.378,7.159-15.064,15.153-2.793,7.958-1.585,17.817,2.685,26.557.043.09.085.182.124.264l1.833,3.907-2.966-3.121a15.009,15.009,0,0,0-12.6-4.16,16.282,16.282,0,0,0-11.008,6.022,20.908,20.908,0,0,0-4.409,10.754,23.491,23.491,0,0,0,1.068,10.183,31.665,31.665,0,0,0,8.18,12.513C-4954.793-3030.622-4953.1-3029.534-4953.178-3029.426Z" transform="translate(4967.912 3112.706)" fill="#1a2e35"/>
                        </g>
                      </g>
                    </g>
                  </g>
                </g>
              </g>
              <g id="Group_698" data-name="Group 698" transform="translate(127.659 164.441)">
                <path id="Path_1136" data-name="Path 1136" d="M-4838.423-2965.674a24.529,24.529,0,0,0-.385,9.666,12.04,12.04,0,0,0,5.1,7.975,12.663,12.663,0,0,0,9.331,1.208l.093-.021a9,9,0,0,0,6.913-8.4l.4-8.323C-4822.756-2964.047-4832.642-2965.193-4838.423-2965.674Z" transform="translate(4839.136 2965.674)" fill="#8c5949"/>
              </g>
              <g id="Group_700" data-name="Group 700" transform="translate(126.922 163.665)">
                <g id="Group_699" data-name="Group 699">
                  <path id="Path_1137" data-name="Path 1137" d="M-4817.617-2950.359c.05.1-.639.534-1.8,1.424a20.088,20.088,0,0,1-2.241,1.567,11.081,11.081,0,0,1-3.491,1.2,14.633,14.633,0,0,1-4.468.179,10.955,10.955,0,0,1-4.9-1.776c-3.137-2.12-5.067-6.132-5.315-10.3a27.808,27.808,0,0,1,.7-7.769l.135-.632.624.066c6.187.65,11.542,1.27,15.346,1.77s6.058.879,6.043,1.049-2.293.1-6.119-.146-9.194-.685-15.389-1.251l.759-.566a27.791,27.791,0,0,0-.621,7.373c.228,3.841,1.952,7.407,4.619,9.291a11.786,11.786,0,0,0,8.419,1.683,10.9,10.9,0,0,0,3.281-.906c.907-.428,1.656-.941,2.3-1.311A5.346,5.346,0,0,1-4817.617-2950.359Z" transform="translate(4839.886 2966.465)" fill="#1a2e35"/>
                </g>
              </g>
              <g id="Group_702" data-name="Group 702" transform="translate(88.408 143.614)">
                <g id="Group_701" data-name="Group 701">
                  <path id="Path_1138" data-name="Path 1138" d="M-4839.9-2976.9a33.175,33.175,0,0,0-5.042-4.8,23.552,23.552,0,0,0-6.689-3.38,22.569,22.569,0,0,0-9.067-.982,22.564,22.564,0,0,0-8.67,2.845,23.557,23.557,0,0,0-5.84,4.7,33.343,33.343,0,0,0-3.937,5.741,7.473,7.473,0,0,1,.693-1.765,20.4,20.4,0,0,1,2.851-4.321,22.9,22.9,0,0,1,5.892-4.941,22.584,22.584,0,0,1,8.933-2.991,22.588,22.588,0,0,1,9.357,1.07,22.95,22.95,0,0,1,6.79,3.609,20.4,20.4,0,0,1,3.686,3.635A7.37,7.37,0,0,1-4839.9-2976.9Z" transform="translate(4879.149 2986.906)" fill="#8c5949"/>
                </g>
              </g>
            </g>
            <g id="Group_704" data-name="Group 704" transform="translate(127.659 164.441)">
              <path id="Path_1139" data-name="Path 1139" d="M-4838.423-2965.674a24.529,24.529,0,0,0-.385,9.666,12.04,12.04,0,0,0,5.1,7.975,12.663,12.663,0,0,0,9.331,1.208l.093-.021a9,9,0,0,0,6.913-8.4l.4-8.323C-4822.756-2964.047-4832.642-2965.193-4838.423-2965.674Z" transform="translate(4839.136 2965.674)" fill="#fff"/>
            </g>
            <g id="Group_706" data-name="Group 706" transform="translate(126.922 163.665)">
              <g id="Group_705" data-name="Group 705">
                <path id="Path_1140" data-name="Path 1140" d="M-4817.617-2950.359c.05.1-.639.534-1.8,1.424a20.088,20.088,0,0,1-2.241,1.567,11.081,11.081,0,0,1-3.491,1.2,14.633,14.633,0,0,1-4.468.179,10.955,10.955,0,0,1-4.9-1.776c-3.137-2.12-5.067-6.132-5.315-10.3a27.808,27.808,0,0,1,.7-7.769l.135-.632.624.066c6.187.65,11.542,1.27,15.346,1.77s6.058.879,6.043,1.049-2.293.1-6.119-.146-9.194-.685-15.389-1.251l.759-.566a27.791,27.791,0,0,0-.621,7.373c.228,3.841,1.952,7.407,4.619,9.291a11.786,11.786,0,0,0,8.419,1.683,10.9,10.9,0,0,0,3.281-.906c.907-.428,1.656-.941,2.3-1.311A5.346,5.346,0,0,1-4817.617-2950.359Z" transform="translate(4839.886 2966.465)"/>
              </g>
            </g>
            <g id="Group_708" data-name="Group 708" transform="translate(88.408 143.614)">
              <g id="Group_707" data-name="Group 707">
                <path id="Path_1141" data-name="Path 1141" d="M-4839.9-2976.9a33.175,33.175,0,0,0-5.042-4.8,23.552,23.552,0,0,0-6.689-3.38,22.569,22.569,0,0,0-9.067-.982,22.564,22.564,0,0,0-8.67,2.845,23.557,23.557,0,0,0-5.84,4.7,33.343,33.343,0,0,0-3.937,5.741,7.473,7.473,0,0,1,.693-1.765,20.4,20.4,0,0,1,2.851-4.321,22.9,22.9,0,0,1,5.892-4.941,22.584,22.584,0,0,1,8.933-2.991,22.588,22.588,0,0,1,9.357,1.07,22.95,22.95,0,0,1,6.79,3.609,20.4,20.4,0,0,1,3.686,3.635A7.37,7.37,0,0,1-4839.9-2976.9Z" transform="translate(4879.149 2986.906)" stroke="#000" stroke-miterlimit="10" stroke-width="0.25"/>
              </g>
            </g>
          </g>
          <g id="Group_726" data-name="Group 726" transform="translate(-56.741 51.607)">
            <g id="Group_710" data-name="Group 710" transform="translate(57.773 60.659)">
              <path id="Path_1142" data-name="Path 1142" d="M-4897.338-2883.769l-40.167,14.119-27.169,81.757,39.238,135.793-23.091,74.6H-4709.9l-21.834-65.357c3.48-24.194,18.884-80,16.774-105.958-4.568-56.195-26.79-135.615-26.79-135.615l-61.322-3.021C-4817.222-2851.237-4880.315-2848.48-4897.338-2883.769Z" transform="translate(4964.675 2887.45)" fill="#ed759d"/>
            </g>
            <g id="Group_711" data-name="Group 711" transform="translate(206.423 82.819)" opacity="0.3">
              <path id="Path_1143" data-name="Path 1143" d="M-4813.136-2864.86s.316.654.879,1.769c2.733,5.414,11.283,21.7,17.71,26.787,7.75,6.142,17.108,14.152,17.108,14.152,9.129,59.192,27.137,110.39,52,155.418l-15.929-82.45-26.7-98.189-44.749-16.833" transform="translate(4813.136 2864.86)"/>
            </g>
            <g id="Group_713" data-name="Group 713" transform="translate(79.325 270.817)" opacity="0.3">
              <g id="Group_712" data-name="Group 712">
                <path id="Path_1144" data-name="Path 1144" d="M-4892.061-2651.225l-50.643,71.071c28.1-7.094,54.568-24.24,67.929-49.956,1.579-3.04,3.074-6.247,5.646-8.508,4.777-4.2,11.713-6.331,17.769-8.275,18.854-6.051,27.466-12.569,34.413-26.315C-4834.428-2650.874-4866.018-2642.95-4892.061-2651.225Z" transform="translate(4942.704 2673.209)"/>
              </g>
            </g>
            <g id="Group_714" data-name="Group 714" transform="translate(279.718 63.827)">
              <path id="Path_1145" data-name="Path 1145" d="M-4738.417-2884.075s16.031-3.465,37.135,23.336c18.453,23.436,41.562,60.546,41.562,60.546l-55.6,23.808-22.841-99.432Z" transform="translate(4738.417 2884.221)" fill="#ed759d"/>
            </g>
            <g id="Group_715" data-name="Group 715" transform="translate(0 74)">
              <path id="Path_1146" data-name="Path 1146" d="M-5023.571-2742.635s18.351-92.767,37.974-106.157c18.917-12.907,59.053-25.057,59.053-25.057l-1.884,154.214Z" transform="translate(5023.571 2873.85)" fill="#ed759d"/>
            </g>
            <path id="Path_1147" data-name="Path 1147" d="M-4905.821-2949.288l9.6,64.34s14.161,35.647,65.205,21.939" transform="translate(5021.326 2949.288)" fill="none" stroke="#000" stroke-linecap="round" stroke-linejoin="round" stroke-width="2"/>
            <line id="Line_56" data-name="Line 56" x1="51.967" y2="17.877" transform="translate(73.143 64.34)" fill="none" stroke="#000" stroke-linecap="round" stroke-linejoin="round" stroke-width="2"/>
            <g id="Group_717" data-name="Group 717" transform="translate(78.466 140.989)">
              <g id="Group_716" data-name="Group 716">
                <path id="Path_1148" data-name="Path 1148" d="M-4943.574-2805.559a3.437,3.437,0,0,1,.3.82c.169.544.393,1.354.668,2.4.538,2.1,1.272,5.141,2.017,8.938a254.435,254.435,0,0,1,4.057,29.949,248.943,248.943,0,0,1,.581,30.221c-.1,3.868-.4,6.987-.57,9.142-.092,1.012-.167,1.834-.226,2.481a3.887,3.887,0,0,1-.128.86,3.865,3.865,0,0,1-.02-.872c.022-.648.051-1.472.086-2.488.08-2.16.3-5.278.335-9.142a286.894,286.894,0,0,0-.8-30.146,294.24,294.24,0,0,0-3.834-29.908c-.677-3.8-1.332-6.858-1.783-8.97-.217-.993-.393-1.8-.532-2.431A4.259,4.259,0,0,1-4943.574-2805.559Z" transform="translate(4943.58 2805.559)" stroke="#000" stroke-linecap="round" stroke-linejoin="round" stroke-width="0.5"/>
              </g>
            </g>
            <g id="Group_719" data-name="Group 719" transform="translate(169.593 231.226)">
              <g id="Group_718" data-name="Group 718">
                <path id="Path_1149" data-name="Path 1149" d="M-4801.386-2713.569a3.774,3.774,0,0,1,.057.868c0,.57.048,1.413-.011,2.494a58.206,58.206,0,0,1-1.039,9.118,63.5,63.5,0,0,1-12.525,27.339,63.48,63.48,0,0,1-23.839,18.34,58.039,58.039,0,0,1-8.652,3.056c-1.041.3-1.873.443-2.428.571a3.791,3.791,0,0,1-.859.139,3.973,3.973,0,0,1,.824-.284c.542-.175,1.36-.36,2.384-.7a67.079,67.079,0,0,0,8.517-3.255,65.065,65.065,0,0,0,23.475-18.324,65.043,65.043,0,0,0,12.59-26.982,66.856,66.856,0,0,0,1.265-9.029c.1-1.075.1-1.914.15-2.482A3.99,3.99,0,0,1-4801.386-2713.569Z" transform="translate(4850.682 2713.569)" fill="#1a2e35"/>
              </g>
            </g>
            <g id="Group_721" data-name="Group 721" transform="translate(24.435 124.406)">
              <g id="Group_720" data-name="Group 720">
                <path id="Path_1150" data-name="Path 1150" d="M-4944.14-2795.533a14.93,14.93,0,0,1-1.976-1.386c-1.233-.939-3.048-2.258-5.319-3.84a147.463,147.463,0,0,0-18.6-11,147.4,147.4,0,0,0-20.043-8.082c-2.638-.843-4.789-1.481-6.284-1.889a15.006,15.006,0,0,1-2.3-.726,14.956,14.956,0,0,1,2.373.448c1.52.324,3.7.887,6.366,1.667a128.291,128.291,0,0,1,20.216,7.919,128.176,128.176,0,0,1,18.574,11.237c2.243,1.643,4.014,3.03,5.2,4.041A15.074,15.074,0,0,1-4944.14-2795.533Z" transform="translate(4998.661 2822.465)" fill="#fff"/>
              </g>
            </g>
            <g id="Group_723" data-name="Group 723" transform="translate(84.02 99.958)">
              <g id="Group_722" data-name="Group 722">
                <path id="Path_1151" data-name="Path 1151" d="M-4801.912-2847.381a1.293,1.293,0,0,1-.347.089l-1.033.188-3.978.653-14.64,2.341c-12.359,1.991-29.413,4.858-48.191,8.345s-35.729,6.944-47.979,9.525l-14.5,3.075-3.947.819c-.417.078-.755.142-1.031.2a1.311,1.311,0,0,1-.356.041,1.321,1.321,0,0,1,.34-.116l1.014-.266,3.918-.954c3.4-.818,8.343-1.95,14.455-3.306,12.224-2.712,29.163-6.246,47.954-9.74s35.862-6.275,48.246-8.135c6.191-.931,11.207-1.649,14.679-2.108l4-.516,1.042-.116A1.283,1.283,0,0,1-4801.912-2847.381Z" transform="translate(4937.917 2847.388)" fill="#fff"/>
              </g>
            </g>
            <g id="Group_725" data-name="Group 725" transform="translate(295.919 88.123)">
              <g id="Group_724" data-name="Group 724">
                <path id="Path_1152" data-name="Path 1152" d="M-4702.353-2859.45c.153.135-4.1,5.2-9.494,11.313s-9.9,10.959-10.051,10.824,4.1-5.2,9.5-11.313S-4702.506-2859.585-4702.353-2859.45Z" transform="translate(4721.902 2859.452)" fill="#fff"/>
              </g>
            </g>
          </g>
          <g id="Group_765" data-name="Group 765" transform="translate(-43.969 169.352)">
            <g id="Group_727" data-name="Group 727" transform="translate(0 83.683)">
              <path id="Path_1153" data-name="Path 1153" d="M-4893.72-2743.946l-48.246,58.755.879-35.481-69.266-16.36s-.295,19.873-.164,61.745c.034,11.156,3.291,47.988,7.854,65.1,5.9,22.111,45.854,42.04,68.316,22.868,19.412-16.568,82.781-141.095,82.781-141.095Z" transform="translate(5010.55 2743.946)" fill="#c6846c"/>
            </g>
            <g id="Group_729" data-name="Group 729" transform="translate(51.644 83.683)">
              <g id="Group_728" data-name="Group 728">
                <path id="Path_1154" data-name="Path 1154" d="M-4892.717-2743.946a5.415,5.415,0,0,1-.566.88c-.385.57-.988,1.383-1.788,2.409-1.581,2.07-3.941,5-6.876,8.615-5.873,7.219-14.091,17.1-23.182,28l-23.243,27.954-6.968,8.531-1.87,2.338a5.74,5.74,0,0,1-.692.787,5.512,5.512,0,0,1,.573-.876l1.763-2.426c1.573-2.073,3.881-5.05,6.788-8.683,5.809-7.271,13.988-17.19,23.082-28.1Z" transform="translate(4957.902 2743.946)" fill="#8c5949"/>
              </g>
            </g>
            <g id="Group_730" data-name="Group 730" transform="translate(203.72 12.71)">
              <path id="Path_1155" data-name="Path 1155" d="M-4791.741-2813.764a2.858,2.858,0,0,0-4.843-1.715,18.972,18.972,0,0,0-5.9,12.23c-.874,10.773,0,38.436,0,38.436l16.014-2.042Z" transform="translate(4802.872 2816.299)" fill="#e8b1b1"/>
            </g>
            <g id="Group_759" data-name="Group 759" transform="translate(128.3)">
              <g id="Group_731" data-name="Group 731">
                <path id="Path_1156" data-name="Path 1156" d="M-4795.128-2792.054c-.359-5.982-1.36-12.083-4.364-17.268a35.155,35.155,0,0,0-9.684-10.252,50.689,50.689,0,0,0-14.375-7.64,43.863,43.863,0,0,0-43.337,10.029,43.974,43.974,0,0,0-12.066,39.386l-.1-.417c.063.313.129.618.2.928.035.17.069.341.107.51,2.155,10.068,5.362,18.258,13.306,25.055,5.22,4.466,12.051,6.562,18.792,7.888,10.358,2.037,21.579,2.415,30.985-2.378,7.9-4.025,13.775-11.431,17.027-19.683S-4794.6-2783.2-4795.128-2792.054Z" transform="translate(4879.757 2829.255)" fill="#fdd89b"/>
              </g>
              <g id="Group_732" data-name="Group 732">
                <path id="Path_1157" data-name="Path 1157" d="M-4795.909-2798.407c.681,5.54-2.572,10.84-4.6,16.041-1.312,3.369-2.837,6.991-5.979,8.781-2.3,1.312-5.189,1.441-7.315,3.022-1.75,1.3-2.754,3.425-4.532,4.684-4.235,3-10.511-.172-15.157,2.14a29.9,29.9,0,0,0-3.834,2.788,5.458,5.458,0,0,1-4.431,1.211c-1.817-.493-2.89-2.355-4.5-3.329-2.022-1.221-4.566-.894-6.928-.953a19.962,19.962,0,0,1-17.589-12.226s-3.786,4.687-5.708,2.851a10.7,10.7,0,0,1-2.57-4.819l.1.417a43.974,43.974,0,0,1,12.066-39.386,43.863,43.863,0,0,1,43.337-10.029,50.689,50.689,0,0,1,14.375,7.64,35.155,35.155,0,0,1,9.684,10.252A29.841,29.841,0,0,1-4795.909-2798.407Z" transform="translate(4879.757 2829.255)" fill="#db6729"/>
              </g>
              <g id="Group_734" data-name="Group 734" transform="translate(25.867 3.758)" opacity="0.3">
                <g id="Group_733" data-name="Group 733">
                  <path id="Path_1158" data-name="Path 1158" d="M-4803.215-2805.2a11.347,11.347,0,0,0-2.065-4.11,39.787,39.787,0,0,0-20.732-14.813c-8.284-2.487-16.536-1.168-24.611,1.927a3.747,3.747,0,0,0-2.665,4.528,5.682,5.682,0,0,0,4.094,3.85,12.356,12.356,0,0,0,5.833-.081c1.922-.4,3.813-.985,5.766-1.193,4.627-.49,9.259,1.186,13.208,3.648s7.351,5.687,10.906,8.689a13.254,13.254,0,0,0,4.364,2.756,4.857,4.857,0,0,0,4.861-.884A4.742,4.742,0,0,0-4803.215-2805.2Z" transform="translate(4853.387 2825.424)" fill="#fff"/>
                </g>
              </g>
              <g id="Group_736" data-name="Group 736" transform="translate(10.603 40.657)" opacity="0.3">
                <g id="Group_735" data-name="Group 735">
                  <path id="Path_1159" data-name="Path 1159" d="M-4833.216-2785.427h0c-3.771-1.045-7.633.939-11.157,2.641s-7.808,3.155-11.2,1.194c-3.07-1.778-4.8-6.08-8.35-6.213-2.277-.085-4.28,1.859-4.829,4.07a9.577,9.577,0,0,0,1.141,6.588,17.585,17.585,0,0,0,18.248,8.952c3.384-.618,6.553-2.249,9.977-2.579,3.042-.292,6.56.321,8.782-1.778,1.779-1.68,3.47-2.987,4.216-6.5C-4825.811-2781.744-4827.066-2784.278-4833.216-2785.427Z" transform="translate(4868.948 2787.809)" fill="#fff"/>
                </g>
              </g>
              <g id="Group_738" data-name="Group 738" transform="translate(57.143 40.638)" opacity="0.3">
                <g id="Group_737" data-name="Group 737">
                  <path id="Path_1160" data-name="Path 1160" d="M-4813.43-2785.047c-.53-1.949-3.1-2.927-5.116-2.762h-.131a4.076,4.076,0,0,0-2.35,5.883,4.2,4.2,0,0,0,5.182,1.874A4.351,4.351,0,0,0-4813.43-2785.047Z" transform="translate(4821.503 2787.827)" fill="#fff"/>
                </g>
              </g>
              <g id="Group_740" data-name="Group 740" transform="translate(24.12 21.993)" opacity="0.3">
                <g id="Group_739" data-name="Group 739">
                  <path id="Path_1161" data-name="Path 1161" d="M-4848.338-2787.8a23.355,23.355,0,0,1,21.9-1.3,19.329,19.329,0,0,1,10.263-5.54,23.035,23.035,0,0,0-16.351-11.9,23.032,23.032,0,0,0-19.345,5.9c-2.19,2.075-4.053,5.162-2.993,7.986.914,2.431,3.583,3.632,6,4.584" transform="translate(4855.168 2806.835)"/>
                </g>
              </g>
              <g id="Group_742" data-name="Group 742" transform="translate(28.707 33.749)">
                <g id="Group_741" data-name="Group 741">
                  <path id="Path_1162" data-name="Path 1162" d="M-4809.686-2794.037a25.326,25.326,0,0,0-5.242-.309,15.049,15.049,0,0,0-5.471,1.667,46.258,46.258,0,0,0-6.066,3.959l-.155.112-.189-.067c-.962-.342-1.977-.679-3.034-.944a24.731,24.731,0,0,0-8.261-.648,26.871,26.871,0,0,0-6.628,1.518c-3.654,1.365-5.687,2.748-5.759,2.62a7.022,7.022,0,0,1,1.394-1,28.511,28.511,0,0,1,4.178-2.109,25.664,25.664,0,0,1,6.748-1.708,24.451,24.451,0,0,1,8.509.61,32.008,32.008,0,0,1,3.113.977l-.343.045a43.031,43.031,0,0,1,6.207-3.944,14.861,14.861,0,0,1,5.721-1.571,14.483,14.483,0,0,1,3.925.343A5.615,5.615,0,0,1-4809.686-2794.037Z" transform="translate(4850.492 2794.851)" stroke="#000" stroke-linecap="round" stroke-linejoin="round" stroke-width="0.5"/>
                </g>
              </g>
              <g id="Group_744" data-name="Group 744" transform="translate(23.386 21.716)">
                <g id="Group_743" data-name="Group 743">
                  <path id="Path_1163" data-name="Path 1163" d="M-4816.288-2795.331a31.252,31.252,0,0,0-4.867-5.578,23.127,23.127,0,0,0-6.849-4.066,21.477,21.477,0,0,0-9.594-1.312,22.9,22.9,0,0,0-9.251,2.93,22,22,0,0,0-6.081,5.126,13.125,13.125,0,0,0-2.535,4.708c-.343,1.23-.33,1.955-.4,1.951a1.447,1.447,0,0,1-.05-.524,7.723,7.723,0,0,1,.171-1.495,12.46,12.46,0,0,1,2.4-4.962,21.656,21.656,0,0,1,6.15-5.393,22.978,22.978,0,0,1,9.527-3.077,21.621,21.621,0,0,1,9.907,1.412,22.678,22.678,0,0,1,6.949,4.309,20.815,20.815,0,0,1,3.574,4.19,11.821,11.821,0,0,1,.746,1.3C-4816.336-2795.509-4816.266-2795.344-4816.288-2795.331Z" transform="translate(4855.916 2807.117)" stroke="#000" stroke-linecap="round" stroke-linejoin="round" stroke-width="0.5"/>
                </g>
              </g>
              <g id="Group_746" data-name="Group 746" transform="translate(7.638 7.348)">
                <g id="Group_745" data-name="Group 745">
                  <path id="Path_1164" data-name="Path 1164" d="M-4871.457-2779.764a8.057,8.057,0,0,1-.277-1.758,40.454,40.454,0,0,1-.237-4.847,53.246,53.246,0,0,1,.516-7.187,59.847,59.847,0,0,1,1.921-8.615,60.038,60.038,0,0,1,3.273-8.2,53.268,53.268,0,0,1,3.629-6.225,40.418,40.418,0,0,1,2.928-3.869,8.388,8.388,0,0,1,1.22-1.3c.108.089-1.528,2.022-3.71,5.451a60.877,60.877,0,0,0-3.454,6.237,65.306,65.306,0,0,0-3.181,8.121,65.255,65.255,0,0,0-1.954,8.5,60.887,60.887,0,0,0-.667,7.1C-4871.578-2782.295-4871.319-2779.776-4871.457-2779.764Z" transform="translate(4871.971 2821.764)" fill="#fff"/>
                </g>
              </g>
              <g id="Group_748" data-name="Group 748" transform="translate(16.822 3.277)">
                <g id="Group_747" data-name="Group 747">
                  <path id="Path_1165" data-name="Path 1165" d="M-4860.041-2766.59a16.06,16.06,0,0,1-.733-2.387,25.785,25.785,0,0,1-.667-2.854c-.206-1.124-.505-2.4-.643-3.832a47.065,47.065,0,0,1-.432-4.692c-.14-1.692-.085-3.5-.069-5.411a69.5,69.5,0,0,1,1.607-12.285,69.378,69.378,0,0,1,3.947-11.748c.823-1.72,1.568-3.372,2.437-4.832.793-1.5,1.651-2.825,2.446-4.027.753-1.229,1.581-2.241,2.259-3.162a25.3,25.3,0,0,1,1.851-2.272,16.068,16.068,0,0,1,1.706-1.823,16.208,16.208,0,0,1-1.483,2.005c-.505.621-1.109,1.391-1.743,2.336s-1.433,1.962-2.151,3.2c-.761,1.21-1.585,2.538-2.348,4.037-.836,1.457-1.555,3.1-2.351,4.813a72.751,72.751,0,0,0-3.851,11.64,72.858,72.858,0,0,0-1.646,12.145c-.033,1.886-.111,3.679,0,5.356.027,1.681.184,3.237.337,4.658.1,1.427.364,2.7.53,3.819s.359,2.084.541,2.863A16.094,16.094,0,0,1-4860.041-2766.59Z" transform="translate(4862.608 2825.914)" fill="#fff"/>
                </g>
              </g>
              <g id="Group_750" data-name="Group 750" transform="translate(31.535 41.494)">
                <g id="Group_749" data-name="Group 749">
                  <path id="Path_1166" data-name="Path 1166" d="M-4844.04-2761.695a13.511,13.511,0,0,1-1.563-3.459,36.414,36.414,0,0,1-1.888-8.974,36.406,36.406,0,0,1,.411-9.161,13.522,13.522,0,0,1,.984-3.667,33.754,33.754,0,0,1-.467,3.743,45.59,45.59,0,0,0-.191,9.025,45.6,45.6,0,0,0,1.649,8.875A33.189,33.189,0,0,1-4844.04-2761.695Z" transform="translate(4847.609 2786.955)" fill="#fff"/>
                </g>
              </g>
              <g id="Group_752" data-name="Group 752" transform="translate(40.408 1.951)">
                <g id="Group_751" data-name="Group 751">
                  <path id="Path_1167" data-name="Path 1167" d="M-4838.519-2811.131c-.181-.006.126-4.029,2-8.586,1.839-4.57,4.424-7.667,4.558-7.545.188.129-2.078,3.356-3.873,7.824C-4837.667-2814.986-4838.293-2811.093-4838.519-2811.131Z" transform="translate(4838.564 2827.266)" fill="#fff"/>
                </g>
              </g>
              <g id="Group_754" data-name="Group 754" transform="translate(55.27 7.785)">
                <g id="Group_753" data-name="Group 753">
                  <path id="Path_1168" data-name="Path 1168" d="M-4823.205-2805.859c-.182.021-.521-3.63.456-8,.948-4.379,2.788-7.551,2.944-7.456.205.1-1.3,3.342-2.222,7.615C-4822.981-2809.439-4822.979-2805.86-4823.205-2805.859Z" transform="translate(4823.413 2821.319)" fill="#fff"/>
                </g>
              </g>
              <g id="Group_756" data-name="Group 756" transform="translate(48.386 45.143)">
                <g id="Group_755" data-name="Group 755">
                  <path id="Path_1169" data-name="Path 1169" d="M-4825.189-2765.257a8.6,8.6,0,0,1-1.479-2.355,35.186,35.186,0,0,1-2.446-6.246,35.15,35.15,0,0,1-1.23-6.6,8.621,8.621,0,0,1,.007-2.781c.229-.017.492,4.205,1.933,9.173C-4827-2769.087-4824.986-2765.364-4825.189-2765.257Z" transform="translate(4830.43 2783.235)" fill="#fff"/>
                </g>
              </g>
              <g id="Group_758" data-name="Group 758" transform="translate(60.025 18.975)">
                <g id="Group_757" data-name="Group 757">
                  <path id="Path_1170" data-name="Path 1170" d="M-4805.678-2809.911a9.694,9.694,0,0,1-.544,1.84,29.773,29.773,0,0,0-.928,5.108,68.414,68.414,0,0,0-.178,7.727,78.573,78.573,0,0,1-.187,9.546,26.758,26.758,0,0,1-.936,4.9,16.117,16.117,0,0,1-.841,2.262,3.347,3.347,0,0,1-.786.992,1.715,1.715,0,0,1-1.29.393,3.143,3.143,0,0,1-1.863-1.4c-.442-.543-.839-1.1-1.215-1.636a26.921,26.921,0,0,1-1.857-3.144,25.5,25.5,0,0,1-1.89-4.918,7.374,7.374,0,0,1-.361-1.9,46.418,46.418,0,0,0,2.714,6.572,28.393,28.393,0,0,0,1.9,3.035c.377.52.775,1.054,1.217,1.577.423.526.9,1.074,1.441,1.135.542.079,1.049-.418,1.372-1.045a16.183,16.183,0,0,0,.768-2.131,26.957,26.957,0,0,0,.895-4.769,86.845,86.845,0,0,0,.241-9.462,59.933,59.933,0,0,1,.341-7.792,24.856,24.856,0,0,1,1.174-5.138A9.507,9.507,0,0,1-4805.678-2809.911Z" transform="translate(4818.565 2809.911)" fill="#fff"/>
                </g>
              </g>
            </g>
            <g id="Group_760" data-name="Group 760" transform="translate(116.83 32.275)">
              <path id="Path_1171" data-name="Path 1171" d="M-4784.108-2785.2l-3.734-9.344a2.849,2.849,0,0,0-5.188-.25,16.661,16.661,0,0,0-1.464,7.926c.291,9.317-1.456,12.229-1.456,12.229s-5.532-1.164-6.988,8.444S-4814-2746.692-4814-2746.692l-28.8,2.116s-16.63-5.9-23.326-11.433-4.659-12.811-6.114-26.2-9.9-6.988-9.9-6.988,1.456,11.938-2.329,22.711-6.988,20.38-6.988,21.545l27.951,26.786a18.624,18.624,0,0,1,16.887-10.773s40.18.292,44.547-2.911,6.114-10.481,6.114-10.481,9.589-13.936,12.2-18.2C-4780.4-2766.026-4784.108-2785.2-4784.108-2785.2Z" transform="translate(4891.45 2796.353)" fill="#f9cfcc"/>
            </g>
            <path id="Path_1172" data-name="Path 1172" d="M-4877.793-2790.616c3.358-.325,5.587,2.685,6.249,13.6s-.2,15.841,5.126,20.63,22.68,12.006,23.887,11.917l28.8-2.116s7.444-6.909,9.357-13.811" transform="translate(5008.019 2828.519)" fill="none" stroke="#000" stroke-linecap="round" stroke-linejoin="round" stroke-width="2"/>
            <g id="Group_762" data-name="Group 762" transform="translate(210.911 54.254)">
              <g id="Group_761" data-name="Group 761">
                <path id="Path_1173" data-name="Path 1173" d="M-4795.54-2773.416c-.013-.023.089-.1.3-.238a2.7,2.7,0,0,1,1.072-.286,4.341,4.341,0,0,1,3.545,1.827c1.083,1.449,1.292,3.631,1.1,5.827s-.426,4.607-.71,7.138a94.515,94.515,0,0,1-2.229,12.851c-.412,1.62-.829,2.909-1.136,3.79a5.483,5.483,0,0,1-.572,1.338c-.115-.038.506-2,1.2-5.249a129.211,129.211,0,0,0,2-12.814c.271-2.511.529-4.9.767-7.11.227-2.148.057-4.157-.846-5.467a4.159,4.159,0,0,0-3.117-1.844A5.3,5.3,0,0,0-4795.54-2773.416Z" transform="translate(4795.541 2773.947)" stroke="#000" stroke-miterlimit="10" stroke-width="0.25"/>
              </g>
            </g>
            <g id="Group_764" data-name="Group 764" transform="translate(141.029 99.607)">
              <g id="Group_763" data-name="Group 763">
                <path id="Path_1174" data-name="Path 1174" d="M-4866.775-2713.1a12.482,12.482,0,0,1,1.859-3.293,32.715,32.715,0,0,1,6.232-6.68,27.53,27.53,0,0,1,4.226-2.779,17.875,17.875,0,0,1,3.867-1.474,9.246,9.246,0,0,1,1.563-.295,5.977,5.977,0,0,1,1.2-.087c.659,0,1.018.031,1.018.083,0,.142-1.449.129-3.637.8a20.217,20.217,0,0,0-3.687,1.572,30.874,30.874,0,0,0-4.084,2.754,39.865,39.865,0,0,0-6.273,6.414C-4865.918-2714.265-4866.671-2713.04-4866.775-2713.1Z" transform="translate(4866.781 2727.713)" fill="#8c5949"/>
              </g>
            </g>
          </g>
          <g id="Group_811" data-name="Group 811" transform="translate(136.209 31.795)">
            <g id="Group_793" data-name="Group 793" transform="translate(0 9.746)">
              <g id="Group_766" data-name="Group 766" transform="translate(0 0.219)">
                <path id="Path_1175" data-name="Path 1175" d="M-4749.155-2955.669a17.886,17.886,0,0,1,10.317,12.544c2.292,9.57-1.752,16.071-6.333,20.354-4.319,4.038-24.137,23.039-39.67,24.867s-25.265,3.311-35.5-4.148c-9.106-6.639-8.287-20.612-.062-27.922s27.43-18.46,37.177-23.943S-4757.975-2961.9-4749.155-2955.669Z" transform="translate(4826.871 2959.327)" fill="#fdd89b"/>
              </g>
              <path id="Path_1176" data-name="Path 1176" d="M-4759.423-2909.5s10.114-7.914,14.7-12.114,10.287-10.877,6.765-22.668" transform="translate(4825.585 2959.259)" fill="none" stroke="#000" stroke-linecap="round" stroke-linejoin="round" stroke-width="1"/>
              <g id="Group_767" data-name="Group 767" transform="translate(1.538)">
                <path id="Path_1177" data-name="Path 1177" d="M-4746.585-2949.287a9.933,9.933,0,0,1-6.176,7.34c-3.28,1.191-7.135,2.083-8.839,5.127-1.086,1.939-1.286,4.7-3.329,5.573-1.664.712-3.7-.32-5.351.43-3.583,1.63-.567,8.362-3.854,10.528-1.84,1.211-4.277.007-6.055-1.294s-3.9-2.8-5.985-2.083c-3.28,1.124-3.02,6.4-6.021,8.138-1.752,1.013-4,.421-5.8-.5s-3.5-2.18-5.5-2.5c-2.367-.376-4.717.624-6.866,1.685s-4.361,2.239-6.756,2.244-7.252-1.382-7.356-3.775c0,0-3.564-4.046,4.106-11.6,5.868-5.781,25.74-17.745,25.74-17.745s18.955-13.708,35.734-11.608C-4758.9-2959.331-4744.435-2958.085-4746.585-2949.287Z" transform="translate(4825.303 2959.55)" fill="#db6729"/>
              </g>
              <g id="Group_769" data-name="Group 769" transform="translate(25.411 13.913)">
                <g id="Group_768" data-name="Group 768">
                  <path id="Path_1178" data-name="Path 1178" d="M-4766.5-2945.36c.049.115-1.97.957-4.954,2.814-3.015,1.813-6.865,4.787-11.32,7.847a38.692,38.692,0,0,1-12.475,5.974,19.63,19.63,0,0,1-4.175.56,5.215,5.215,0,0,1-1.541-.1,43.006,43.006,0,0,0,5.585-.97,42.226,42.226,0,0,0,12.191-6.081c4.421-3.035,8.354-5.967,11.467-7.685a33.952,33.952,0,0,1,3.76-1.872A5.654,5.654,0,0,1-4766.5-2945.36Z" transform="translate(4800.966 2945.367)" stroke="#000" stroke-miterlimit="10" stroke-width="0.25"/>
                </g>
              </g>
              <g id="Group_771" data-name="Group 771" transform="translate(20.662 8.392)" opacity="0.3">
                <g id="Group_770" data-name="Group 770">
                  <path id="Path_1179" data-name="Path 1179" d="M-4766.617-2950.869a4.89,4.89,0,0,0-2.782.214c-6.8,2.038-12.239,7.017-17.7,11.552s-11.625,8.929-18.708,9.385a13.9,13.9,0,0,0,9.6.874c12.385-3.7,19.582-12.784,29.617-16.623a3.528,3.528,0,0,0,1.924-2.944A3.152,3.152,0,0,0-4766.617-2950.869Z" transform="translate(4805.807 2950.995)"/>
                </g>
              </g>
              <g id="Group_773" data-name="Group 773" transform="translate(2.529 33.499)">
                <g id="Group_772" data-name="Group 772">
                  <path id="Path_1180" data-name="Path 1180" d="M-4816.714-2915.665a3.219,3.219,0,0,1-2.188.253,6.328,6.328,0,0,1-4.479-2.853,6.326,6.326,0,0,1-.583-5.28c.459-1.324,1.14-1.908,1.192-1.852.1.071-.4.747-.69,2a6.383,6.383,0,0,0,.708,4.744,6.385,6.385,0,0,0,3.944,2.73C-4817.559-2915.638-4816.732-2915.789-4816.714-2915.665Z" transform="translate(4824.292 2925.4)" fill="#fff"/>
                </g>
              </g>
              <g id="Group_775" data-name="Group 775" transform="translate(25.537 39.954)">
                <g id="Group_774" data-name="Group 774">
                  <path id="Path_1181" data-name="Path 1181" d="M-4794.633-2916.591c-.027.2-1.554.126-3.311-.5s-2.991-1.524-2.889-1.694,1.447.4,3.135,1S-4794.6-2916.8-4794.633-2916.591Z" transform="translate(4800.838 2918.82)" fill="#fff"/>
                </g>
              </g>
              <g id="Group_777" data-name="Group 777" transform="translate(21.841 27.991)">
                <g id="Group_776" data-name="Group 776">
                  <path id="Path_1182" data-name="Path 1182" d="M-4786.324-2931a8.071,8.071,0,0,1-2.368,1.5,26.522,26.522,0,0,1-6.4,2.2,26.525,26.525,0,0,1-6.749.515,8.068,8.068,0,0,1-2.767-.439c.015-.237,4.275.277,9.366-.8C-4790.14-2929.053-4786.431-2931.212-4786.324-2931Z" transform="translate(4804.606 2931.016)" fill="#fff"/>
                </g>
              </g>
              <g id="Group_779" data-name="Group 779" transform="translate(45.206 34.508)">
                <g id="Group_778" data-name="Group 778">
                  <path id="Path_1183" data-name="Path 1183" d="M-4775.956-2922.147c.026.193-1.32.418-2.79-.265s-2.182-1.838-2.018-1.944c.164-.137,1.027.689,2.327,1.272C-4777.148-2922.478-4775.959-2922.362-4775.956-2922.147Z" transform="translate(4780.787 2924.371)" fill="#fff"/>
                </g>
              </g>
              <g id="Group_781" data-name="Group 781" transform="translate(58.538 25.14)">
                <g id="Group_780" data-name="Group 780">
                  <path id="Path_1184" data-name="Path 1184" d="M-4764.7-2933.6c.007.2-.546.391-1.234.416s-1.253-.12-1.26-.324.544-.39,1.233-.416S-4764.709-2933.8-4764.7-2933.6Z" transform="translate(4767.196 2933.922)" fill="#fff"/>
                </g>
              </g>
              <g id="Group_783" data-name="Group 783" transform="translate(67.214 12.257)">
                <g id="Group_782" data-name="Group 782">
                  <path id="Path_1185" data-name="Path 1185" d="M-4748.864-2947.053c.083.021,0,.714-.583,1.648a7.881,7.881,0,0,1-3.193,2.747,14.385,14.385,0,0,1-3.99,1.212c-1.045.167-1.7.2-1.719.1s.6-.315,1.6-.609a23.824,23.824,0,0,0,3.779-1.365,9.386,9.386,0,0,0,3.1-2.39C-4749.228-2946.491-4748.974-2947.093-4748.864-2947.053Z" transform="translate(4758.35 2947.055)" fill="#fff"/>
                </g>
              </g>
              <g id="Group_787" data-name="Group 787" transform="translate(37.425 0.905)" opacity="0.2">
                <g id="Group_784" data-name="Group 784" transform="translate(1.61 7.028)">
                  <path id="Path_1186" data-name="Path 1186" d="M-4785.508-2951.463q-.8.513-1.57,1.06Z" transform="translate(4787.078 2951.463)" fill="#fff"/>
                </g>
                <g id="Group_785" data-name="Group 785" transform="translate(3.179 7.013)">
                  <path id="Path_1187" data-name="Path 1187" d="M-4785.478-2951.463l0,0,.021-.014Z" transform="translate(4785.478 2951.479)" fill="#fff"/>
                </g>
                <g id="Group_786" data-name="Group 786">
                  <path id="Path_1188" data-name="Path 1188" d="M-4753.758-2957.022a9.23,9.23,0,0,0-5.227-1.524,44.384,44.384,0,0,0-26.551,6.945,9.133,9.133,0,0,0-2.748,2.483,2.569,2.569,0,0,0,.445,3.4c1.131.791,2.681.229,3.913-.395,4.095-2.072,7.968-4.646,12.318-6.107s9.442-1.653,13.259.895c1.222.815,2.457,1.942,3.918,1.784,1.646-.178,2.685-2.017,2.617-3.672A5.182,5.182,0,0,0-4753.758-2957.022Z" transform="translate(4788.719 2958.628)" fill="#fff"/>
                </g>
              </g>
              <g id="Group_789" data-name="Group 789" transform="translate(7.101 33.047)" opacity="0.2">
                <g id="Group_788" data-name="Group 788">
                  <path id="Path_1189" data-name="Path 1189" d="M-4793.664-2923.914a1.984,1.984,0,0,0-.856-.232l-11.288-1.3c-3.5-.4-7.123-.794-10.484.26a3.769,3.769,0,0,0-3.34,3.318,2.947,2.947,0,0,0,3.012,2.767c1.422-.092,2.53-1.2,3.686-2.029a11.084,11.084,0,0,1,8.175-1.916c3.238.533,6.343,2.516,9.565,1.893a2.7,2.7,0,0,0,1.747-.954A1.31,1.31,0,0,0-4793.664-2923.914Z" transform="translate(4819.632 2925.86)" fill="#fff"/>
                </g>
              </g>
              <g id="Group_790" data-name="Group 790" transform="translate(83.5 21.693)">
                <path id="Path_1190" data-name="Path 1190" d="M-4738.739-2936.1a2.239,2.239,0,0,0-1.832-1.336c-1.544.334-1.264,2.135-.856,2.936a1.492,1.492,0,0,0,2.057.507A1.787,1.787,0,0,0-4738.739-2936.1Z" transform="translate(4741.748 2937.435)" fill="#ff9a6c"/>
              </g>
              <g id="Group_791" data-name="Group 791" transform="translate(65.041 38.763)">
                <path id="Path_1191" data-name="Path 1191" d="M-4758.834-2919.265a1.288,1.288,0,0,0-1.055-.769c-.887.191-.727,1.228-.492,1.689a.858.858,0,0,0,1.183.292A1.028,1.028,0,0,0-4758.834-2919.265Z" transform="translate(4760.566 2920.034)" fill="#ff9a6c"/>
              </g>
              <g id="Group_792" data-name="Group 792" transform="translate(78.122 20.924)">
                <path id="Path_1192" data-name="Path 1192" d="M-4745.5-2937.45a1.293,1.293,0,0,0-1.055-.769c-.888.192-.726,1.228-.493,1.689a.859.859,0,0,0,1.183.292A1.028,1.028,0,0,0-4745.5-2937.45Z" transform="translate(4747.231 2938.219)" fill="#ff9a6c"/>
              </g>
            </g>
            <g id="Group_807" data-name="Group 807" transform="translate(5.014 47.091)">
              <g id="Group_794" data-name="Group 794" transform="translate(45.886 69.594)">
                <path id="Path_1193" data-name="Path 1193" d="M-4774.982-2831.065s43.2,142.617,45.885,150.669,19.864,55.845,55.8,44.936c40.589-12.322,10.27-94.071,10.27-94.071l-17.007-61.912-27.273,8.961-22-68.051Z" transform="translate(4774.982 2850.533)" fill="#f9cfcc"/>
              </g>
              <g id="Group_804" data-name="Group 804">
                <g id="Group_795" data-name="Group 795">
                  <path id="Path_1194" data-name="Path 1194" d="M-4821.76-2900.882s5.957,30.893,9.389,35.574,22.157,23.4,22.157,23.4l20.283,13.418,39.943-22.781-7.174-31.829-8.92-37.6-10.279,7.958,1.1,11.546s-15.007-24.966-20.609-19.5,4.383,16.7,7.5,26.057.625,14.355.625,14.355-2.5.624-5.929-5.3c-2.485-4.292-11.673-23.831-19.517-30.611a4.608,4.608,0,0,0-7.641,3.768l.322,4.688,12.169,30.581,4.369,7.464-11.668-8.712s-5.3-15.818-10.829-24.614a7.844,7.844,0,0,0-10.681-2.6h0l2.6,10.361S-4814.61-2901.194-4821.76-2900.882Z" transform="translate(4821.76 2921.479)" fill="#f9cfcc"/>
                </g>
                <g id="Group_797" data-name="Group 797" transform="translate(6.628 23.942)">
                  <g id="Group_796" data-name="Group 796">
                    <path id="Path_1195" data-name="Path 1195" d="M-4790.2-2852.634a8.269,8.269,0,0,1-1.859-.995c-1.153-.716-2.756-1.85-4.689-3.3s-4.193-3.2-6.8-5.1a12.29,12.29,0,0,1-3.26-3.952,12.483,12.483,0,0,1-.976-2.537q-.363-1.3-.737-2.637c-1.893-7.148-3.269-13.681-4.479-18.354-.593-2.341-1.111-4.223-1.476-5.523a12.182,12.182,0,0,1-.516-2.039,10.848,10.848,0,0,1,.791,1.952c.45,1.277,1.046,3.145,1.706,5.475,1.344,4.652,2.8,11.181,4.689,18.3a27.559,27.559,0,0,0,1.643,5.033,11.726,11.726,0,0,0,3.043,3.754c2.543,1.891,4.811,3.715,6.692,5.214s3.435,2.7,4.531,3.48A18.661,18.661,0,0,1-4790.2-2852.634Z" transform="translate(4815.003 2897.072)" stroke="#000" stroke-miterlimit="10" stroke-width="0.25"/>
                  </g>
                </g>
                <g id="Group_799" data-name="Group 799" transform="translate(38.968 54.33)">
                  <g id="Group_798" data-name="Group 798">
                    <path id="Path_1196" data-name="Path 1196" d="M-4771.668-2860.686c0,.089-.684.228-1.81.147a11.124,11.124,0,0,1-4.21-1.231,11.136,11.136,0,0,1-3.419-2.75c-.71-.877-.99-1.521-.915-1.568.18-.141,1.737,2.161,4.677,3.662C-4774.434-2860.874-4771.655-2860.914-4771.668-2860.686Z" transform="translate(4782.035 2866.094)" stroke="#000" stroke-linecap="round" stroke-linejoin="round" stroke-width="0.5"/>
                  </g>
                </g>
                <g id="Group_801" data-name="Group 801" transform="translate(59.005 40.518)">
                  <g id="Group_800" data-name="Group 800">
                    <path id="Path_1197" data-name="Path 1197" d="M-4752.558-2877.627c-.054.2-2.124-.2-4.624-.892s-4.481-1.408-4.426-1.6,2.124.2,4.623.893S-4752.5-2877.824-4752.558-2877.627Z" transform="translate(4761.608 2880.174)" stroke="#000" stroke-linecap="round" stroke-linejoin="round" stroke-width="0.5"/>
                  </g>
                </g>
                <g id="Group_803" data-name="Group 803" transform="translate(66.484 20.284)">
                  <g id="Group_802" data-name="Group 802">
                    <path id="Path_1198" data-name="Path 1198" d="M-4745.008-2879.269a11.034,11.034,0,0,1-1.786-2.942,69.336,69.336,0,0,1-3.045-7.7c-1.05-3.05-2.008-5.794-2.823-7.732a27.988,27.988,0,0,1-1.31-3.156,11.065,11.065,0,0,1,1.787,2.941,69.8,69.8,0,0,1,3.045,7.7c1.049,3.049,2.008,5.792,2.823,7.729A28.317,28.317,0,0,1-4745.008-2879.269Z" transform="translate(4753.983 2900.802)" stroke="#000" stroke-linecap="round" stroke-linejoin="round" stroke-width="0.5"/>
                  </g>
                </g>
              </g>
              <g id="Group_806" data-name="Group 806" transform="translate(113.561 137.645)">
                <g id="Group_805" data-name="Group 805">
                  <path id="Path_1199" data-name="Path 1199" d="M-4659.364-2666.23a1.185,1.185,0,0,1,.059-.328c.065-.253.146-.56.243-.936a34.876,34.876,0,0,0,.882-3.6,38.587,38.587,0,0,0,.375-13.519c-.722-5.708-2.977-12.227-5.782-19.3-1.4-3.547-2.905-7.261-4.34-11.166-.683-1.974-1.448-3.929-2.248-5.9-.905-1.926-1.813-3.892-2.924-5.784-4.29-7.66-9.319-14.405-13.691-20.651-4.423-6.219-8.353-11.873-11.342-16.825a85.3,85.3,0,0,1-6.268-12.166c-.644-1.483-.944-2.714-1.232-3.512-.114-.371-.208-.674-.285-.925a1.082,1.082,0,0,1-.072-.322,1.11,1.11,0,0,1,.145.3c.1.243.212.539.354.9.333.782.675,1.99,1.356,3.45a93.449,93.449,0,0,0,6.447,12c3.034,4.9,7,10.508,11.452,16.7,2.221,3.1,4.565,6.354,6.912,9.786s4.732,7.027,6.869,10.9c1.119,1.907,2.039,3.9,2.954,5.849.813,2.008,1.583,3.99,2.253,5.941,1.419,3.892,2.912,7.607,4.294,11.166,2.773,7.1,5,13.7,5.665,19.484a37.478,37.478,0,0,1-.611,13.649,28,28,0,0,1-1.021,3.581c-.125.367-.228.667-.314.916A1.04,1.04,0,0,1-4659.364-2666.23Z" transform="translate(4705.991 2781.16)" fill="#8c5949"/>
                </g>
              </g>
            </g>
            <g id="Group_809" data-name="Group 809" transform="translate(4.683 46.767)">
              <g id="Group_808" data-name="Group 808">
                <path id="Path_1200" data-name="Path 1200" d="M-4790.22-2841.91s-.31-.273-.887-.832l-2.54-2.507c-2.221-2.216-5.491-5.491-9.636-9.784-2.069-2.151-4.368-4.544-6.8-7.251a17.756,17.756,0,0,1-3.36-4.616,51.669,51.669,0,0,1-2.039-5.818c-2.363-8.169-4.448-17.622-6.555-28.118l-.062-.31.319-.016a8.173,8.173,0,0,1,4.94,1.163,6.133,6.133,0,0,1,2.567,4.724l-.571.073c-.808-3.208-1.7-6.74-2.61-10.357l-.055-.218.193-.117a11.388,11.388,0,0,1,2.065-1.07,7.162,7.162,0,0,1,2.354-.415,7.208,7.208,0,0,1,4.549,1.544,7.414,7.414,0,0,1,1.628,1.858c.432.681.889,1.353,1.282,2.064.829,1.4,1.6,2.853,2.329,4.339a167.9,167.9,0,0,1,7.782,19.044l-.118-.166,11.673,8.7-.514.459-4.372-7.461-.014-.023-.01-.025c-3.177-7.973-6.472-16.244-9.854-24.733a34.443,34.443,0,0,1-2.152-6.609,28.03,28.03,0,0,1-.483-3.49,5.1,5.1,0,0,1,.963-3.545,5.219,5.219,0,0,1,3.107-2.005,4.992,4.992,0,0,1,3.667.624c.272.164.51.377.764.566l.642.631c.426.424.871.832,1.251,1.293.81.886,1.564,1.815,2.294,2.766a129.811,129.811,0,0,1,10.2,16.492q2.229,4.221,4.426,8.38a21.383,21.383,0,0,0,2.539,3.83,8.6,8.6,0,0,0,1.627,1.522,3.131,3.131,0,0,0,1.852.673l-.236.19a18.244,18.244,0,0,0,.514-9.576,33.638,33.638,0,0,0-3.088-9.11c-1.4-2.879-2.984-5.642-4.395-8.47a40.107,40.107,0,0,1-1.9-4.331,13.707,13.707,0,0,1-.943-4.639,5.987,5.987,0,0,1,1.776-4.367,3.12,3.12,0,0,1,2.314-.854,5.387,5.387,0,0,1,2.276.689,26.455,26.455,0,0,1,6.673,5.94,111.5,111.5,0,0,1,9.849,13.813l-.576.19c-.374-3.976-.734-7.813-1.084-11.548l-.015-.163.129-.1,10.291-7.943.343-.264.1.42c5.016,21.376,9.177,38.7,11.76,50.76,1.32,6.006,2.347,10.679,3.051,13.878q.506,2.361.775,3.619c.17.816.237,1.239.237,1.239s-.122-.411-.317-1.221q-.3-1.251-.853-3.6c-.735-3.19-1.812-7.852-3.2-13.844-2.674-12.036-6.917-29.343-12-50.7l.441.155-10.268,7.973.114-.263c.359,3.733.729,7.57,1.111,11.545l.127,1.324-.7-1.135a111.262,111.262,0,0,0-9.812-13.7,25.948,25.948,0,0,0-6.485-5.772c-1.241-.7-2.813-.936-3.806.053a5.283,5.283,0,0,0-1.563,3.886,13.039,13.039,0,0,0,.907,4.4,39.629,39.629,0,0,0,1.877,4.252c1.4,2.8,2.989,5.567,4.408,8.472a34.305,34.305,0,0,1,3.157,9.294,18.779,18.779,0,0,1-.573,10.027l-.068.174-.169.017a3.6,3.6,0,0,1-2.443-.779,9.383,9.383,0,0,1-1.764-1.644,22.115,22.115,0,0,1-2.63-3.958l-4.431-8.38a129.472,129.472,0,0,0-10.133-16.392,27.9,27.9,0,0,0-4.754-5.077,4.4,4.4,0,0,0-5.792,1.19c-1.4,1.755-.686,4.244-.353,6.45a33.7,33.7,0,0,0,2.112,6.484l9.836,24.741-.023-.048,4.364,7.467.877,1.5-1.391-1.04c-4.039-3.021-8.01-5.989-11.662-8.721l-.085-.063-.035-.1a168.556,168.556,0,0,0-7.716-18.972c-.724-1.477-1.483-2.919-2.3-4.3a13.973,13.973,0,0,0-2.752-3.754,6.589,6.589,0,0,0-4.15-1.417,6.574,6.574,0,0,0-2.155.374,10.763,10.763,0,0,0-1.957,1.013l.138-.333c.9,3.62,1.783,7.153,2.583,10.364l-.571.073a5.575,5.575,0,0,0-2.305-4.264,7.642,7.642,0,0,0-4.6-1.082l.257-.326c2.07,10.487,4.119,19.948,6.435,28.1a51.407,51.407,0,0,0,1.988,5.776,17.451,17.451,0,0,0,3.271,4.535c2.407,2.713,4.688,5.122,6.739,7.287l9.53,9.884,2.484,2.562C-4790.492-2842.22-4790.22-2841.91-4790.22-2841.91Z" transform="translate(4822.097 2921.809)" stroke="#000" stroke-linecap="round" stroke-linejoin="round" stroke-width="0.5"/>
              </g>
            </g>
            <g id="Group_810" data-name="Group 810" transform="translate(47.995)">
              <path id="Path_1201" data-name="Path 1201" d="M-4767.321-2957.464a9.015,9.015,0,0,1-4.565-5.254l-1.127-6.767-.623,7.044a10.1,10.1,0,0,1-4.307,5.623,9.019,9.019,0,0,1,4.637,5.483l.738,5.516,1.115-5.824a9.022,9.022,0,0,1,4.093-5.515l.3-.178Z" transform="translate(4777.943 2969.485)" fill="#fff"/>
            </g>
          </g>
        </g>
      </g>
      <path id="Path_1202" data-name="Path 1202" d="M-4741.322-2963.442a131.37,131.37,0,0,1,0,185.783,131.37,131.37,0,0,1-185.784,0,131.369,131.369,0,0,1,0-185.784,131.377,131.377,0,0,1,135.785-31.31" transform="translate(-5.395 93.071)" fill="none" stroke="#0d0d0c" stroke-linecap="round" stroke-linejoin="round" stroke-width="3"/>
    </g>
  </g>
</svg>
