<svg xmlns="http://www.w3.org/2000/svg" xmlns:xlink="http://www.w3.org/1999/xlink" width="1114" height="926" viewBox="0 0 1114 926">
  <defs>
    <clipPath id="clip-path">
      <rect id="Rectangle_197" data-name="Rectangle 197" width="1114" height="926" transform="translate(806)" fill="none"/>
    </clipPath>
    <radialGradient id="radial-gradient" cx="0.5" cy="0.503" r="0.508" gradientTransform="matrix(0.878, 0.17, -0.127, 0.828, 0.364, 0.295)" gradientUnits="objectBoundingBox">
      <stop offset="0" stop-color="#97d5ee"/>
      <stop offset="0.032" stop-color="#9ad5ed"/>
      <stop offset="0.45" stop-color="#c2daed"/>
      <stop offset="0.781" stop-color="#dadced"/>
      <stop offset="0.983" stop-color="#e4deed"/>
    </radialGradient>
    <clipPath id="clip-path-2">
      <path id="Path_5619" data-name="Path 5619" d="M1525.065,47.073l144.306,14.673-18.215,149.927-80.018,200.374,11.571,40.248,25.017-2.784,54.1-49.583L1704,394.222l26.743,32.481,41.508-9.929L1871.6,293.489l16.21,31.648,38.13,10.952,17.564-16.138L1986.773,159.7l-14.608-76.639L1977.329-70.8l86.189-305.406-249.139-30.017-163.5,301.853L1566.72-9.946Z" transform="translate(-1525.065 406.224)" fill="none"/>
    </clipPath>
  </defs>
  <g id="Mask_Group_5" data-name="Mask Group 5" transform="translate(-806)" clip-path="url(#clip-path)">
    <g id="Group_2527" data-name="Group 2527" transform="matrix(0.996, -0.087, 0.087, 0.996, 724.992, -194.459)">
      <path id="Path_5600" data-name="Path 5600" d="M1926.014,136.138c-8.341,103.209-.689,122.313-11.168,158.455-10.718,36.968-37.029,8.635-40.043-19.268-4.783-44.3,2.891-59.31-9.024-95.906-8.7-26.72-23.832,3.562-23.832,3.562l-50.827,107.085s-55.953,67.073-85.438,86.79c-28.582,19.114-52.273,26.018-58.9,22.294-14.934-8.4-4.264-37.465-4.264-37.465s-28.26,14.1-36.909,30.292c-17.588,32.918-37.359,1.146-35.822-17.875,2.794-34.561,16.328-64.77,44.245-139.112s36.091-156.4,36.091-156.4-105.751,110.922-124.2,115.184-23.384-5.294-17.058-26.286,1.055-39.57,14.855-78.122,46.4-104.931,55.324-125.438c14.853-34.143,72.071-101.316,92.113-126.189,33.341-41.374,68.54-65.087,89.2-118.409s35.6-135.766,35.6-135.766l163.519,24.8Z" transform="translate(-825.405 416.438)"/>
      <path id="Path_5601" data-name="Path 5601" d="M782.124,89.841s-54.043-7.722-55.3,5.294S723.665,502.5,723.665,502.5L699.088,783.756a13.062,13.062,0,0,0,12.24,13.3c96.75,6.077,723.181,45.436,735.938,46.6,13.825,1.257,15.082-3.77,16.339-24.718s36.972-419.2,36.972-419.2Z" transform="translate(-678.044 324.424)"/>
      <g id="Group_2523" data-name="Group 2523" transform="translate(0 381.816)">
        <path id="Path_5602" data-name="Path 5602" d="M805.518,50.731,1578.743,166.3,1415.9,855.872,674.594,745.787,797.559,56.448A7.03,7.03,0,0,1,805.518,50.731Z" transform="translate(-673.572 -50.652)" fill-rule="evenodd" fill="url(#radial-gradient)"/>
        <path id="Path_5603" data-name="Path 5603" d="M1415.674,858.468a1.042,1.042,0,0,1-.151-.01L674.215,748.372a1.021,1.021,0,0,1-.855-1.19L796.069,60.121a1.022,1.022,0,1,1,2.012.359L675.557,746.506,1414.894,856.3l162.371-687.579L905.807,68.361a1.022,1.022,0,1,1,.3-2.021l672.556,100.521a1.022,1.022,0,0,1,.844,1.245L1416.667,857.681A1.022,1.022,0,0,1,1415.674,858.468Z" transform="translate(-673.344 -52.227)" fill="#0d0d0c"/>
        <path id="Path_5604" data-name="Path 5604" d="M755.728,66.708l784.536,84.877L1433.955,849.551,688.365,769.6Z" transform="translate(-676.086 -53.584)" fill="#fff" fill-rule="evenodd"/>
        <path id="Path_5605" data-name="Path 5605" d="M1640.34,430.418c40.336-68.3,32.225-205.959,32.745-233.37s-1.882-33.092-7.718-33.723,52.3,5.678,52.3,5.678l19.888,40.1-38.216,121.59Z" transform="translate(-849.885 -71.215)"/>
        <path id="Path_5606" data-name="Path 5606" d="M1433.728,907.943c-.037,0-.074,0-.11-.006l-745.59-79.955a1.023,1.023,0,0,1-.908-1.112l41.718-444.993a1.022,1.022,0,1,1,2.035.19l-41.624,443.99L1432.872,905.8l60.364-374.821a1.022,1.022,0,1,1,2.018.325l-60.519,375.778A1.023,1.023,0,0,1,1433.728,907.943Z" transform="translate(-675.858 -110.954)" fill="#0d0d0c"/>
        <path id="Path_5607" data-name="Path 5607" d="M1516.093,420.9a1.268,1.268,0,0,1-.174-.012,1.226,1.226,0,0,1-1.041-1.386l37.963-267.111L770.795,67.786l-3.469,34.883a1.226,1.226,0,0,1-2.44-.243l3.591-36.114a1.225,1.225,0,0,1,1.352-1.1l784.536,84.877a1.225,1.225,0,0,1,1.082,1.391l-38.141,268.367A1.226,1.226,0,0,1,1516.093,420.9Z" transform="translate(-690.055 -53.31)" fill="#0d0d0c"/>
        <path id="Path_5608" data-name="Path 5608" d="M741.782,351.481c-.04,0-.081,0-.123-.007a1.226,1.226,0,0,1-1.1-1.341l2.214-22.268a1.226,1.226,0,0,1,2.44.243L743,350.376A1.226,1.226,0,0,1,741.782,351.481Z" transform="translate(-685.615 -101.061)" fill="#0d0d0c"/>
      </g>
      <g id="Group_2526" data-name="Group 2526" transform="translate(696.225 8.349)">
        <g id="Group_2525" data-name="Group 2525" clip-path="url(#clip-path-2)">
          <g id="Group_2524" data-name="Group 2524" transform="translate(-16.223 -255.174)">
            <path id="Path_5609" data-name="Path 5609" d="M1869.842-671.684s-35.339,234.762-103.8,384.21c-13.4,29.247-45.407,82.887-45.407,82.887s-80.281,68.2-102.882,107.863-58.686,115.942-67.133,131.065-14.742,46.554-18.334,62.825-26.75,53.968-25.784,65.679,25.354,18.453,54.3-3.679,42.614-44.927,49.724-75.1,55.134-81.1,58.025-82.437c0,0,8.528,22.014,7,44.7s-6.557,86.727-8.877,98.242-26.818,82.678-39.613,105.264-28.251,49.766-35.7,70.856,1.081,37.026,10.829,39.655,22.89-9.752,30.634-19.056a191.787,191.787,0,0,1,16.248-17.026s5.192,13.268,25.166-1.449,63.4-49.268,70.074-56.088,14.563-14.791,14.563-14.791-29.2,41.07-35.828,60.381-1.476,32.245,9.568,31.353,29.127-20.464,40.8-33.919,21.714-22.34,32.434-39.292,53.8-62.719,57.608-69,8.323-18.261,14.223-46.158,13.506-54.632,13.506-54.632,11.348,35.207,11.99,38.963-5.083,39.287-7.649,56.682-2.933,40.4,8.262,49.959,22.436,9.434,26.387-5.639,14.293-73.855,21.677-94.488,6.936-38.818,3.078-63.377-3.9-89.617-3.6-99.1,3.6-151.685,12.567-186.451,11.356-55.744,26.152-76.527,20.181-33.088,22.227-59.205,23.481-92.438,44.965-154.262,83.675-224.36,83.675-224.36Z" transform="translate(-1505.447 718.161)" fill="#f9cfcc"/>
            <path id="Path_5610" data-name="Path 5610" d="M1764.123,527.156a10.922,10.922,0,0,1-8.963-4.325c-4.456-5.737-4.643-16.363-.5-28.425,4.686-13.649,20.235-37.626,29.293-50.995-2.048,2.082-4.254,4.327-6.33,6.45-6.755,6.907-49.961,41.285-70.2,56.2-11.325,8.345-18.175,7.86-21.927,5.984a1.022,1.022,0,0,1,.914-1.828c3.241,1.622,9.307,1.93,19.8-5.8,19.7-14.518,63.4-49.278,69.95-55.98,6.6-6.746,14.489-14.716,14.568-14.8a1.022,1.022,0,0,1,1.559,1.311c-.291.41-29.188,41.171-35.695,60.121-3.917,11.409-3.849,21.319.182,26.509a9.133,9.133,0,0,0,8.337,3.494c11.817-.954,33.112-25.5,40.11-33.57,3.237-3.732,6.358-7.122,9.376-10.4,7.847-8.527,15.26-16.581,22.967-28.768,6.581-10.407,24.872-31.141,39.569-47.8,8.9-10.092,16.591-18.808,18.028-21.179,4.614-7.613,9.093-22.178,14.1-45.839,5.84-27.611,13.446-54.433,13.523-54.7a1.021,1.021,0,1,1,1.965.558c-.076.267-7.663,27.024-13.488,54.565-5.053,23.892-9.613,38.66-14.349,46.475-1.532,2.527-8.906,10.887-18.243,21.471-14.648,16.606-32.88,37.273-39.374,47.542-7.806,12.343-15.28,20.463-23.191,29.06-3.008,3.268-6.119,6.647-9.335,10.356-12.381,14.272-30.152,33.353-41.49,34.268Q1764.69,527.157,1764.123,527.156Z" transform="translate(-1538.028 535.739)" fill="#0d0d0c"/>
            <path id="Path_5611" data-name="Path 5611" d="M1604.793,361.5a11.825,11.825,0,0,1-3.1-.4c-4.292-1.157-8.264-4.695-10.9-9.7-4.437-8.442-4.667-19.842-.629-31.277,7.383-20.912,22.857-48.225,35.29-70.173l.48-.847c12.92-22.806,37.349-94.283,39.5-104.963,2.23-11.067,7.22-73.785,8.859-98.108,1.287-19.115-4.73-37.988-6.473-42.982-7.451,6.541-49.981,53.2-56.539,81.026-7.529,31.949-22.512,54.581-50.1,75.675-20.744,15.863-38.808,16.739-47.975,12.669-4.722-2.1-7.623-5.639-7.959-9.718-.56-6.792,6.2-21,13.367-36.049,5.344-11.225,10.869-22.833,12.437-29.934.338-1.53.7-3.195,1.085-4.967,3.835-17.642,9.629-44.3,17.356-58.136,3.051-5.462,9.7-18.885,18.112-35.879,14.6-29.5,34.607-69.891,49.026-95.193,22.006-38.617,99.3-104.887,102.979-108.026,1.853-3.113,32.387-54.523,45.27-82.645,67.622-147.61,103.369-381.59,103.722-383.936a1.022,1.022,0,0,1,.842-.856l271.071-45.455a1.019,1.019,0,0,1,.958.36,1.02,1.02,0,0,1,.165,1.012c-.622,1.626-62.43,163.229-83.665,224.332-28.139,80.971-43.249,132.786-44.912,154.006-2.141,27.32-8.36,39.98-22.413,59.718-11.59,16.278-15.562,32.967-21.06,56.064-1.5,6.319-3.06,12.853-4.935,20.124-7.275,28.223-10.917,126.674-12.441,182.849-.044,1.625-.075,2.773-.094,3.378-.271,8.7-.3,74.161,3.589,98.914,3.717,23.66,4.491,42.6-3.125,63.88-4.819,13.465-10.835,42.926-15.67,66.6-2.475,12.122-4.614,22.59-5.98,27.8-1.755,6.7-5.088,10.994-9.636,12.42-5.22,1.638-11.756-.587-18.4-6.264-12.454-10.635-10.74-36.446-8.609-50.885.53-3.591,1.194-7.954,1.91-12.651,2.627-17.258,6.226-40.891,5.743-43.709-.168-.985-1.284-5.076-5.644-18.973a1.022,1.022,0,0,1,1.949-.611c3.527,11.244,5.448,17.717,5.708,19.24.5,2.912-2.181,21.007-5.737,44.361-.716,4.694-1.379,9.054-1.908,12.642-2.069,14.021-3.792,39.036,7.913,49.032,6.093,5.2,11.941,7.287,16.465,5.868,3.843-1.2,6.7-5,8.272-10.989,1.352-5.159,3.485-15.6,5.954-27.695,4.847-23.736,10.881-53.277,15.749-66.879,7.47-20.871,6.7-39.532,3.03-62.874-3.91-24.886-3.885-90.568-3.613-99.3.019-.6.05-1.748.094-3.37,1.527-56.261,5.179-154.887,12.506-183.3,1.87-7.253,3.423-13.777,4.924-20.087,5.552-23.323,9.563-40.174,21.385-56.777,14.463-20.315,19.968-32.236,22.04-58.692,1.7-21.7,16.426-72.239,45.02-154.518,20.079-57.778,76.4-205.331,83.048-222.722l-268.58,45.037c-1.085,7.028-9.964,63.488-26.129,135.4-15.88,70.641-42.241,171.069-77.644,248.35-13.269,28.963-45.139,82.449-45.458,82.986a1.03,1.03,0,0,1-.217.255c-.8.681-80.4,68.539-102.656,107.59-14.389,25.251-34.375,65.615-48.97,95.089-8.427,17.019-15.083,30.462-18.159,35.969-7.578,13.568-13.565,41.114-17.142,57.574-.386,1.774-.748,3.441-1.086,4.972-1.618,7.329-6.946,18.522-12.587,30.372-6.731,14.139-13.69,28.76-13.175,35,.273,3.311,2.734,6.235,6.752,8.018,8.655,3.844,25.871,2.9,45.9-12.425,27.179-20.783,41.938-43.07,49.35-74.52,7.11-30.168,55.211-81.57,58.59-83.131a1.022,1.022,0,0,1,1.382.558c.087.222,8.593,22.487,7.068,45.134-1.512,22.436-6.535,86.667-8.9,98.375-2.165,10.742-26.733,82.63-39.726,105.567l-.479.847c-12.394,21.876-27.819,49.1-35.142,69.845-3.849,10.9-3.662,21.707.512,29.646,2.369,4.508,5.876,7.672,9.62,8.683,10.61,2.866,25.326-13.608,29.584-18.723a194.435,194.435,0,0,1,16.346-17.128,1.022,1.022,0,1,1,1.373,1.513,192.5,192.5,0,0,0-16.149,16.922C1628.174,347.967,1615.648,361.5,1604.793,361.5Z" transform="translate(-1505.219 718.389)" fill="#0d0d0c"/>
            <path id="Path_5612" data-name="Path 5612" d="M1698,134.542a66.4,66.4,0,0,1-4.726-15.39,75.693,75.693,0,0,1-1.038-16.148l.1-2.024c.047-.674.123-1.345.185-2.018.13-1.345.235-2.692.464-4.023.208-1.335.4-2.671.684-3.991l.4-1.983c.135-.66.325-1.31.485-1.964a59.956,59.956,0,0,1,5.774-15.02,109.177,109.177,0,0,0-3.9,15.425c-.253,1.3-.432,2.6-.637,3.907-.224,1.3-.352,2.613-.5,3.922-.172,1.306-.279,2.619-.38,3.932-.049.656-.115,1.311-.152,1.968l-.069,1.972-.1,1.972c-.025.657,0,1.315-.01,1.972.014,1.315-.03,2.634.055,3.947.062,1.314.083,2.633.179,3.946.135,1.31.244,2.623.348,3.939A131.975,131.975,0,0,0,1698,134.542Z" transform="translate(-1539.351 574.094)" fill="#0d0d0c"/>
            <path id="Path_5613" data-name="Path 5613" d="M1688.351,498.1a96.265,96.265,0,0,1,9.562-11.125c3.391-3.526,6.81-7.017,10.145-10.578a190.124,190.124,0,0,0,18.463-22.59,184.464,184.464,0,0,0,14.46-25.273c4.15-8.824,8.071-17.763,11.864-26.758,3.834-8.978,7.51-18.027,11.138-27.1,3.666-9.055,7.2-18.166,10.813-27.245,3.6-9.087,7.129-18.2,10.806-27.27,1.859-4.532,3.876-8.989,5.847-13.461s3.964-8.939,5.978-13.392q-2.657,6.838-5.379,13.645c-1.8,4.544-3.648,9.069-5.327,13.649-3.442,9.14-6.773,18.333-10.163,27.5-6.784,18.341-13.842,36.59-21.456,54.624-3.846,9-7.787,17.965-12.031,26.8a171.741,171.741,0,0,1-15.013,25.357,189.382,189.382,0,0,1-19.14,22.341c-3.479,3.448-7.03,6.812-10.545,10.2A110.9,110.9,0,0,0,1688.351,498.1Z" transform="translate(-1538.653 533.687)" fill="#0d0d0c"/>
            <path id="Path_5614" data-name="Path 5614" d="M1819.732,429.248c5.2-5.451,10.588-10.733,15.371-16.508a75.469,75.469,0,0,0,11.953-18.8c1.512-3.413,2.611-6.91,3.869-10.525,1.264-3.567,2.605-7.093,3.968-10.611,2.748-7.027,5.645-13.987,8.593-20.926,5.965-13.848,12.239-27.567,19.1-41.006,3.42-6.723,7.015-13.363,10.886-19.845,1.964-3.224,3.972-6.424,6.166-9.5a45.71,45.71,0,0,1,7.387-8.551,32.262,32.262,0,0,0-3.666,4.273c-.562.751-1.121,1.5-1.633,2.291s-1.062,1.547-1.55,2.35c-2.026,3.16-3.867,6.439-5.661,9.738-3.6,6.592-6.954,13.323-10.215,20.1-3.234,6.787-6.425,13.6-9.49,20.463q-4.644,10.28-9.07,20.658-4.475,10.355-8.693,20.815c-1.41,3.482-2.8,6.974-4.1,10.485l-1.927,5.312c-.317.9-.684,1.78-1.063,2.656s-.729,1.762-1.158,2.616a65.984,65.984,0,0,1-5.668,9.92,86.742,86.742,0,0,1-7.122,8.876C1830.865,419.091,1825.315,424.192,1819.732,429.248Z" transform="translate(-1562.638 537.399)" fill="#0d0d0c"/>
            <path id="Path_5615" data-name="Path 5615" d="M1979.023,265.05a89.5,89.5,0,0,1,3.894-12.886c1.6-4.194,3.436-8.294,5.4-12.325,1.022-2,2.028-4,3.1-5.964s2.171-3.92,3.34-5.832a115.38,115.38,0,0,1,7.494-11.165c-1.871,4.084-3.834,8.089-5.814,12.083l-5.926,11.964c-.992,1.989-1.975,3.983-2.933,5.988-1.014,1.98-1.905,4.014-2.908,6Z" transform="translate(-1591.72 547.641)" fill="#0d0d0c"/>
            <path id="Path_5616" data-name="Path 5616" d="M1811.648,221.084a82.258,82.258,0,0,1,1.792,11.76,45.159,45.159,0,0,1-.557,11.977,41.175,41.175,0,0,1-4.029,11.307,58.725,58.725,0,0,1-6.611,9.9c1.945-3.454,3.865-6.893,5.463-10.458a49.8,49.8,0,0,0,3.573-11.057,56,56,0,0,0,.893-11.617C1812.119,228.979,1811.837,225.043,1811.648,221.084Z" transform="translate(-1559.446 546.873)" fill="#0d0d0c"/>
            <path id="Path_5617" data-name="Path 5617" d="M1908.156,264.133a90.414,90.414,0,0,0,7.479-10.792,39.124,39.124,0,0,0,4.483-11.956c.191-1.047.333-2.107.484-3.163.066-1.07.176-2.135.208-3.21.089-2.151.009-4.314-.109-6.49-.276-4.35-.861-8.72-1.313-13.14a71.332,71.332,0,0,1,3.217,12.943,40.8,40.8,0,0,1-.08,13.519,34.982,34.982,0,0,1-2,6.54,28.324,28.324,0,0,1-1.494,3.065l-.828,1.486c-.29.486-.632.938-.944,1.408A45.8,45.8,0,0,1,1908.156,264.133Z" transform="translate(-1578.782 547.914)" fill="#0d0d0c"/>
            <path id="Path_5618" data-name="Path 5618" d="M1982.834,203.015c.335-1.092.765-2.108,1.169-3.131l1.157-3.061c.343-1.028.77-2.017,1.074-3.046l.509-1.521.45-1.534a53.777,53.777,0,0,0,1.4-6.221,34.446,34.446,0,0,0,.463-6.492,14.548,14.548,0,0,1,1.461,6.627,24.176,24.176,0,0,1-.967,6.76l-.514,1.628c-.2.532-.415,1.056-.634,1.579a27.958,27.958,0,0,1-1.5,3.038c-.55.984-1.223,1.9-1.848,2.825A33.439,33.439,0,0,1,1982.834,203.015Z" transform="translate(-1592.415 554.737)" fill="#0d0d0c"/>
          </g>
        </g>
      </g>
      <g id="Group_2799" data-name="Group 2799" transform="translate(195.646 553.453) rotate(5)">
        <g id="Group_2792" data-name="Group 2792" transform="translate(0)">
          <path id="Path_5919" data-name="Path 5919" d="M0,29.559v-18A11.157,11.157,0,0,1,3.251,3.145Q6.5,0,13.7,0T24.131,3.145a11.208,11.208,0,0,1,3.225,8.411v18H20.1V11.019a4.834,4.834,0,0,0-1.693-4.031,7.382,7.382,0,0,0-4.7-1.344q-6.449,0-6.45,5.375v5.213A9.608,9.608,0,0,1,9.539,15a7.674,7.674,0,0,1,2.768-.484H15.8l.215,5.751h-3.87a8.3,8.3,0,0,0-2.687.4,8.1,8.1,0,0,0-2.2,1.156v7.738Z" transform="translate(34.558 23.11)" fill="#ed759d"/>
          <path id="Path_5920" data-name="Path 5920" d="M3.225,10.857V4.623H0L.269,0H9.352V10.857Z" transform="translate(52.455 55.41)" fill="#ed759d"/>
          <path id="Path_5921" data-name="Path 5921" d="M30.1,30.1a9.246,9.246,0,0,1-7.229-2.822q-2.553-2.821-2.553-7.874V11.878q0-3.386-1.531-4.81T13.92,5.644a13.466,13.466,0,0,0-4.434.7A9.791,9.791,0,0,0,6.234,8.115v.753L12.2,10.481v4.407a4.4,4.4,0,0,0-2.875,1.747A7.466,7.466,0,0,0,8.6,20.37v1.559a2.037,2.037,0,0,0,.484,1.532,2.13,2.13,0,0,0,1.5.457h2.849v5.642H6.879a5.27,5.27,0,0,1-4-1.612,5.7,5.7,0,0,1-1.531-4.085V20.316a10.855,10.855,0,0,1,.833-4.38,4.893,4.893,0,0,1,3.305-2.66L0,11.824V4.891A21.674,21.674,0,0,1,5.885,1.505,22.084,22.084,0,0,1,14.3,0a19.3,19.3,0,0,1,6.987,1.129,8.7,8.7,0,0,1,4.461,3.762A14.02,14.02,0,0,1,27.3,12.039v6.933q0,2.956,1.317,4.219a5.421,5.421,0,0,0,3.9,1.264,8.8,8.8,0,0,0,3.843-.861,9.589,9.589,0,0,0,2.983-2.149V.538H46.6V29.559H39.932l-.322-2.848a12.545,12.545,0,0,1-4.165,2.526A15.447,15.447,0,0,1,30.1,30.1Z" transform="translate(67.181 23.11)" fill="#ed759d"/>
          <path id="Path_5922" data-name="Path 5922" d="M16.768,29.56a15.274,15.274,0,0,1-5.428-.913,15.766,15.766,0,0,1-4.353-2.473l-.323,2.848H0V0H7.255V20.907A9.175,9.175,0,0,0,10.4,23.056a9.75,9.75,0,0,0,3.95.861,5.423,5.423,0,0,0,3.9-1.264q1.316-1.263,1.317-4.219V0h7.255V18.864q0,5.052-2.687,7.874A9.682,9.682,0,0,1,16.768,29.56Z" transform="translate(120.119 23.648)" fill="#ed759d"/>
          <path id="Path_5923" data-name="Path 5923" d="M0,9.3.376,4.354h17.2V0h5.912V9.3Z" transform="translate(123.398 10.372)" fill="#ed759d"/>
          <path id="Path_5924" data-name="Path 5924" d="M0,29.559v-18A11.158,11.158,0,0,1,3.252,3.145Q6.5,0,13.7,0T24.131,3.145a11.211,11.211,0,0,1,3.225,8.411v18H20.1V11.019a4.834,4.834,0,0,0-1.693-4.031,7.382,7.382,0,0,0-4.7-1.344q-6.449,0-6.449,5.375v5.213A9.629,9.629,0,0,1,9.54,15a7.67,7.67,0,0,1,2.768-.484H15.8l.214,5.751H12.146a8.3,8.3,0,0,0-2.687.4,8.1,8.1,0,0,0-2.2,1.156v7.738Z" transform="translate(153.279 23.11)" fill="#ed759d"/>
          <path id="Path_5925" data-name="Path 5925" d="M9.244,30.1A23.359,23.359,0,0,1,0,28.378V22.841A22.786,22.786,0,0,0,3.6,24a17.011,17.011,0,0,0,3.923.457q5.051,0,7.229-2.1T16.93,15.05q0-5.214-2.177-7.31t-7.229-2.1A18.1,18.1,0,0,0,3.6,6.073,18.517,18.517,0,0,0,0,7.256V1.72A23.37,23.37,0,0,1,9.244,0q7.362,0,10.964,3.843t3.6,11.206q0,7.363-3.6,11.2T9.244,30.1Z" transform="translate(185.043 23.11)" fill="#ed759d"/>
          <path id="Path_5926" data-name="Path 5926" d="M12.952,29.559V11.717a7.656,7.656,0,0,0-1.129-4.488Q10.7,5.644,7.309,5.644a18.992,18.992,0,0,0-3.762.4A22.916,22.916,0,0,0,0,7.041V1.72A18,18,0,0,1,3.977.484,23.546,23.546,0,0,1,8.707,0q6.127,0,8.814,2.607T20.208,10.7V29.559Z" transform="translate(210.625 23.11)" fill="#ed759d"/>
          <path id="Path_5927" data-name="Path 5927" d="M16.768,29.56a15.274,15.274,0,0,1-5.428-.913,15.768,15.768,0,0,1-4.353-2.473l-.323,2.848H0V0H7.255V20.907A9.18,9.18,0,0,0,10.4,23.056a9.75,9.75,0,0,0,3.95.861,5.423,5.423,0,0,0,3.9-1.264q1.316-1.263,1.317-4.219V0h7.256V18.864q0,5.052-2.687,7.874A9.683,9.683,0,0,1,16.768,29.56Z" transform="translate(237.175 23.648)" fill="#ed759d"/>
          <path id="Path_5928" data-name="Path 5928" d="M6.342,29.021q-3.494,0-4.917-1.451A6.314,6.314,0,0,1,0,23V0H7.256V21.122a1.971,1.971,0,0,0,2.2,2.257h1.827v5.643Z" transform="translate(270.496 23.648)" fill="#ed759d"/>
          <path id="Path_5929" data-name="Path 5929" d="M10.1,30.1a13.985,13.985,0,0,1-5.052-.887,7.667,7.667,0,0,1-3.682-2.9A9.354,9.354,0,0,1,0,20.961,8.03,8.03,0,0,1,2.956,14.27q2.955-2.338,8.492-2.338H19.67v-1.4a4.393,4.393,0,0,0-1.5-3.79q-1.5-1.1-5.321-1.1a33.761,33.761,0,0,0-4.972.349,28.69,28.69,0,0,0-4.649,1.1V1.667A37.412,37.412,0,0,1,8.33.484,34.64,34.64,0,0,1,14.027,0a26.614,26.614,0,0,1,2.741.135,18.956,18.956,0,0,1,2.418.4h10.1l-.376,5.535H25.636A7.83,7.83,0,0,1,26.6,8.438a12.176,12.176,0,0,1,.322,2.849V29.559H19.67V17.253H11.878a7.08,7.08,0,0,0-3.654.806,3.1,3.1,0,0,0-1.344,2.9A2.994,2.994,0,0,0,8.062,23.7a7.763,7.763,0,0,0,3.977.753,18.611,18.611,0,0,0,2.015-.108,9.2,9.2,0,0,0,1.693-.323v5.321a16.321,16.321,0,0,1-2.5.538A21.961,21.961,0,0,1,10.1,30.1Z" transform="translate(285.921 23.11)" fill="#ed759d"/>
          <path id="Path_5930" data-name="Path 5930" d="M0,9.3.376,4.354h17.2V0h5.912V9.3Z" transform="translate(289.361 10.372)" fill="#ed759d"/>
          <path id="Path_5931" data-name="Path 5931" d="M0,7.524V0H5.912V7.524Z" transform="translate(306.667 0)" fill="#ed759d"/>
          <path id="Path_5932" data-name="Path 5932" d="M13.92,30.1a26.669,26.669,0,0,1-6.987-.86,10.255,10.255,0,0,1-5.052-2.929A7.948,7.948,0,0,1,0,20.746a7.6,7.6,0,0,1,.887-3.574,6.531,6.531,0,0,1,2.768-2.714,5.916,5.916,0,0,1-2.553-2.2A6.477,6.477,0,0,1,.107,8.6,7.779,7.779,0,0,1,2.795,2.177,10.662,10.662,0,0,1,9.728,0a18.476,18.476,0,0,1,2.849.189,10.592,10.592,0,0,1,2.15.564V6.073a14.126,14.126,0,0,0-3.708-.429,5.509,5.509,0,0,0-3.01.672A2.525,2.525,0,0,0,6.987,8.6a2.606,2.606,0,0,0,1.129,2.446,6.76,6.76,0,0,0,3.386.672h3.01l.269,5.32H11.448q-4.569,0-4.568,3.708a3.007,3.007,0,0,0,1.639,2.767,10.544,10.544,0,0,0,5.079.942q3.493,0,5.159-1.452a5.262,5.262,0,0,0,1.666-4.193V.538h7.256V18.165q0,6.289-3.574,9.11T13.92,30.1Z" transform="translate(318.759 23.11)" fill="#ed759d"/>
          <path id="Path_5933" data-name="Path 5933" d="M14.135,29.56a23.93,23.93,0,0,1-3.09-.215,18.038,18.038,0,0,1-2.875-.591L0,8.867H7.041l6.4,15.532q4.032,0,5.831-2.714t1.8-8.089a16.383,16.383,0,0,0-.618-5.051,4.466,4.466,0,0,0-2.016-2.607,8.014,8.014,0,0,0-3.87-.779h-2.2V0h3.225q6.4,0,9.378,3.359T27.947,13.6a20.4,20.4,0,0,1-1.774,9.164,11.448,11.448,0,0,1-4.864,5.16A15.084,15.084,0,0,1,14.135,29.56Z" transform="translate(349.555 23.648)" fill="#ed759d"/>
          <path id="Path_5934" data-name="Path 5934" d="M6.342,29.021q-3.494,0-4.918-1.451A6.316,6.316,0,0,1,0,23V0H7.255V21.122a1.972,1.972,0,0,0,2.2,2.257h1.827v5.643Z" transform="translate(381.21 23.648)" fill="#ed759d"/>
          <path id="Path_5935" data-name="Path 5935" d="M13.812,38.159q-6.4,0-10.1-3.037T0,25.959V8.6H7.255V26.067q0,6.449,6.557,6.45t6.557-6.45V0h7.255V25.959q0,6.127-3.708,9.164T13.812,38.159Z" transform="translate(397.549 15.048)" fill="#ed759d"/>
          <path id="Path_5936" data-name="Path 5936" d="M6.933,13.275a7.235,7.235,0,0,1-5.106-1.692A6.236,6.236,0,0,1,0,6.772,6.52,6.52,0,0,1,1.935,1.881,7.621,7.621,0,0,1,7.47,0H19.509l-.322,4.031H8.169a4.1,4.1,0,0,0-2.419.617,2.444,2.444,0,0,0-.86,2.124A2.232,2.232,0,0,0,7.417,9.3a2.545,2.545,0,0,0,1.935-.59,2.227,2.227,0,0,0,.537-1.559V6.181h4.3v.967a1.851,1.851,0,0,0,.564,1.559,2.875,2.875,0,0,0,1.747.43h2.042v4.031h-2.58a7.138,7.138,0,0,1-2.418-.4A2.624,2.624,0,0,1,11.985,11.5a3.513,3.513,0,0,1-2.1,1.317A10.491,10.491,0,0,1,6.933,13.275Z" transform="translate(396.205 7.793)" fill="#ed759d"/>
          <path id="Path_5937" data-name="Path 5937" d="M10.05,29.56a9.679,9.679,0,0,1-7.363-2.822Q0,23.916,0,18.864V0H7.256V18.434q0,2.956,1.317,4.219a5.42,5.42,0,0,0,3.9,1.264,9.69,9.69,0,0,0,3.977-.861,9.254,9.254,0,0,0,3.117-2.149V0h7.255V29.021H20.154l-.323-2.848a15.769,15.769,0,0,1-4.353,2.473A15.279,15.279,0,0,1,10.05,29.56Z" transform="translate(431.515 23.648)" fill="#ed759d"/>
          <path id="Path_5938" data-name="Path 5938" d="M0,10.8V0H6.127L5.374,10.8Zm9.3,0V0h6.127l-.753,10.8Z" transform="translate(0 97.687)" fill="#ed759d"/>
          <path id="Path_5939" data-name="Path 5939" d="M11.662,42.673q-3.494,0-4.917-1.451a6.312,6.312,0,0,1-1.425-4.569V13.06A8.362,8.362,0,0,0,4,8.009,8.016,8.016,0,0,0,0,5.321V0H17.574V5.643H9.137a6.485,6.485,0,0,1,2.579,2.794,10.078,10.078,0,0,1,.86,4.408V34.773a1.972,1.972,0,0,0,2.2,2.257h1.827v5.643Z" transform="translate(16.93 89.626)" fill="#ed759d"/>
          <path id="Path_5940" data-name="Path 5940" d="M10.857,30.1a37.6,37.6,0,0,1-5.778-.43A20.548,20.548,0,0,1,.591,28.539V22.681A21.832,21.832,0,0,0,5.079,24a24.326,24.326,0,0,0,4.434.457,17.268,17.268,0,0,0,5.079-.538,2.137,2.137,0,0,0,1.585-2.2,2.45,2.45,0,0,0-.833-1.989,7.84,7.84,0,0,0-2.553-1.263q-1.721-.564-4.407-1.478A21.989,21.989,0,0,1,2.23,13.84,6.182,6.182,0,0,1,0,8.653,7.613,7.613,0,0,1,3.01,2.392Q6.019,0,12.093,0a34.259,34.259,0,0,1,5.052.377,25.192,25.192,0,0,1,4.138.914V7.1a16.935,16.935,0,0,0-4.058-1.1,27.528,27.528,0,0,0-4.111-.349,15.117,15.117,0,0,0-4.38.564A2.264,2.264,0,0,0,6.88,8.492a1.989,1.989,0,0,0,.94,1.72,10.065,10.065,0,0,0,2.687,1.182q1.746.538,4.165,1.4a24.862,24.862,0,0,1,4.864,2.151,7.02,7.02,0,0,1,2.687,2.741,8.729,8.729,0,0,1,.833,4.031A6.97,6.97,0,0,1,19.8,28.028Q16.553,30.1,10.857,30.1Z" transform="translate(36.116 102.739)" fill="#ed759d"/>
          <path id="Path_5941" data-name="Path 5941" d="M0,29.56v-18A11.157,11.157,0,0,1,3.252,3.145Q6.5,0,13.705,0T24.132,3.145a11.21,11.21,0,0,1,3.225,8.411v18H20.1V11.019a4.835,4.835,0,0,0-1.693-4.031,7.384,7.384,0,0,0-4.7-1.344q-6.449,0-6.449,5.375v5.213A9.605,9.605,0,0,1,9.54,15a7.67,7.67,0,0,1,2.768-.484H15.8l.215,5.751h-3.87a8.3,8.3,0,0,0-2.687.4,8.105,8.105,0,0,0-2.2,1.156V29.56Z" transform="translate(64.171 102.739)" fill="#ed759d"/>
          <path id="Path_5942" data-name="Path 5942" d="M6.342,29.021q-3.494,0-4.918-1.45A6.317,6.317,0,0,1,0,23V0H7.255V21.122a1.972,1.972,0,0,0,2.2,2.257h1.827v5.643Z" transform="translate(98.03 103.277)" fill="#ed759d"/>
          <path id="Path_5943" data-name="Path 5943" d="M13.813,29.559q-6.4,0-10.1-3.037T0,17.359V0H7.256V17.467q0,6.449,6.557,6.45t6.557-6.45V0h7.255V17.359q0,6.127-3.708,9.164T13.813,29.559Z" transform="translate(114.368 103.277)" fill="#ed759d"/>
          <path id="Path_5944" data-name="Path 5944" d="M12.953,29.56V11.718a7.655,7.655,0,0,0-1.129-4.488Q10.7,5.644,7.31,5.644a19,19,0,0,0-3.762.4A22.956,22.956,0,0,0,0,7.041V1.721A18.014,18.014,0,0,1,3.977.484,23.537,23.537,0,0,1,8.707,0q6.127,0,8.814,2.607T20.208,10.7V29.56Z" transform="translate(145.648 102.739)" fill="#ed759d"/>
          <path id="Path_5945" data-name="Path 5945" d="M0,29.021V0H7.255V8.814h7.2q2.794,0,3.843-1.21a5.5,5.5,0,0,0,1.048-3.681V0H26.6V3.655a11.978,11.978,0,0,1-.887,4.756,5.485,5.485,0,0,1-3.251,2.983,5.258,5.258,0,0,1,3.09,2.66,9.827,9.827,0,0,1,.833,4.165v10.8H19.133v-10q0-2.739-1.048-3.815T14.3,14.135H7.255V29.021Z" transform="translate(172.198 103.277)" fill="#ed759d"/>
          <path id="Path_5946" data-name="Path 5946" d="M9.244,30.1A23.357,23.357,0,0,1,0,28.378V22.841A22.731,22.731,0,0,0,3.6,24a17.012,17.012,0,0,0,3.924.457q5.051,0,7.229-2.1T16.93,15.05q0-5.214-2.177-7.31t-7.229-2.1A18.113,18.113,0,0,0,3.6,6.073,18.523,18.523,0,0,0,0,7.256V1.721A23.368,23.368,0,0,1,9.244,0q7.362,0,10.964,3.843t3.6,11.206q0,7.363-3.6,11.2T9.244,30.1Z" transform="translate(202.993 102.739)" fill="#ed759d"/>
          <path id="Path_5947" data-name="Path 5947" d="M12.952,29.56V11.718a7.657,7.657,0,0,0-1.129-4.488Q10.7,5.644,7.309,5.644a19,19,0,0,0-3.762.4A22.948,22.948,0,0,0,0,7.041V1.721A18.018,18.018,0,0,1,3.977.484,23.546,23.546,0,0,1,8.707,0q6.127,0,8.814,2.607T20.208,10.7V29.56Z" transform="translate(228.576 102.739)" fill="#ed759d"/>
          <path id="Path_5948" data-name="Path 5948" d="M10.05,29.559a9.681,9.681,0,0,1-7.363-2.821Q0,23.916,0,18.864V0H7.256V18.434q0,2.956,1.317,4.219a5.422,5.422,0,0,0,3.9,1.264,9.689,9.689,0,0,0,3.977-.861,9.252,9.252,0,0,0,3.117-2.149V0h7.256V29.021H20.154l-.322-2.848a15.773,15.773,0,0,1-4.353,2.473A15.285,15.285,0,0,1,10.05,29.559Z" transform="translate(255.125 103.277)" fill="#ed759d"/>
          <path id="Path_5949" data-name="Path 5949" d="M0,10.8V0H6.127L5.374,10.8Zm9.3,0V0h6.127l-.753,10.8Z" transform="translate(287.211 97.687)" fill="#ed759d"/>
          <path id="Path_5950" data-name="Path 5950" d="M6.342,29.021q-3.494,0-4.917-1.45A6.314,6.314,0,0,1,0,23V0H7.255V21.122a1.972,1.972,0,0,0,2.2,2.257h1.827v5.643Z" transform="translate(319.565 103.277)" fill="#ed759d"/>
          <path id="Path_5951" data-name="Path 5951" d="M10.1,30.1a13.984,13.984,0,0,1-5.052-.887,7.666,7.666,0,0,1-3.682-2.9A9.352,9.352,0,0,1,0,20.961,8.031,8.031,0,0,1,2.956,14.27q2.955-2.338,8.492-2.338h8.223v-1.4a4.394,4.394,0,0,0-1.5-3.79q-1.5-1.1-5.321-1.1a33.728,33.728,0,0,0-4.971.349A28.67,28.67,0,0,0,3.225,7.1V1.667A37.4,37.4,0,0,1,8.331.484,34.621,34.621,0,0,1,14.027,0q6.5,0,9.7,2.741t3.2,8.546V29.56H19.671V17.253H11.878a7.079,7.079,0,0,0-3.655.806,3.1,3.1,0,0,0-1.344,2.9A2.993,2.993,0,0,0,8.062,23.7a7.763,7.763,0,0,0,3.977.753,18.583,18.583,0,0,0,2.016-.108,9.219,9.219,0,0,0,1.693-.322v5.321a16.3,16.3,0,0,1-2.5.538A21.949,21.949,0,0,1,10.1,30.1Z" transform="translate(334.99 102.739)" fill="#ed759d"/>
          <path id="Path_5952" data-name="Path 5952" d="M7.094,13.274a7.535,7.535,0,0,1-5.186-1.692A6.094,6.094,0,0,1,0,6.772,6.521,6.521,0,0,1,1.935,1.881,7.622,7.622,0,0,1,7.471,0H21.014l-.322,4.031H8.169a4.1,4.1,0,0,0-2.419.618,2.441,2.441,0,0,0-.86,2.123Q4.891,9.3,7.578,9.3a2.745,2.745,0,0,0,1.989-.591,2.1,2.1,0,0,0,.591-1.559V6.181h4.3v.967a1.853,1.853,0,0,0,.564,1.559,2.878,2.878,0,0,0,1.747.43h3.279v4.031H16.231a7.135,7.135,0,0,1-2.418-.4A2.624,2.624,0,0,1,12.254,11.5a3.554,3.554,0,0,1-2.15,1.316A11.07,11.07,0,0,1,7.094,13.274Z" transform="translate(338.645 86.132)" fill="#ed759d"/>
          <path id="Path_5953" data-name="Path 5953" d="M1.344,29.56V20.316a10.846,10.846,0,0,1,.833-4.38,4.893,4.893,0,0,1,3.305-2.66L0,11.825V4.891A21.682,21.682,0,0,1,5.885,1.506,22.084,22.084,0,0,1,14.3,0,21.771,21.771,0,0,1,21.74,1.129a9.038,9.038,0,0,1,4.729,3.762,13.453,13.453,0,0,1,1.639,7.148V29.56H20.853V11.878q0-3.386-1.585-4.81T13.92,5.644a13.456,13.456,0,0,0-4.434.7A9.786,9.786,0,0,0,6.234,8.115v.753L12.2,10.481v4.407a4.407,4.407,0,0,0-2.876,1.747A7.471,7.471,0,0,0,8.6,20.37v9.19Z" transform="translate(367.183 102.739)" fill="#ed759d"/>
          <path id="Path_5954" data-name="Path 5954" d="M10.05,29.559a9.681,9.681,0,0,1-7.363-2.821Q0,23.916,0,18.864V0H7.256V18.434q0,2.956,1.317,4.219a5.42,5.42,0,0,0,3.9,1.264,9.69,9.69,0,0,0,3.977-.861,9.252,9.252,0,0,0,3.117-2.149V0h7.255V29.021H20.154l-.323-2.848a15.764,15.764,0,0,1-4.353,2.473A15.283,15.283,0,0,1,10.05,29.559Z" transform="translate(401.633 103.277)" fill="#ed759d"/>
          <path id="Path_5955" data-name="Path 5955" d="M4.192,9.727V4.944H0V0H9.083V4.783h11.5l-.269,4.944Z" transform="translate(410.877 89.572)" fill="#ed759d"/>
          <path id="Path_5956" data-name="Path 5956" d="M11.985,30.1a31.857,31.857,0,0,1-6.718-.672A29.487,29.487,0,0,1,0,27.841V12.577H12.307L12.63,17.9H6.879v5.858a14.492,14.492,0,0,0,2.445.51,20.687,20.687,0,0,0,2.714.189q4.406,0,6.181-2.1t1.774-7.2a14.153,14.153,0,0,0-.941-5.724A5.53,5.53,0,0,0,15.989,6.5a15.784,15.784,0,0,0-5.777-.859,36.356,36.356,0,0,0-4.918.349A29.254,29.254,0,0,0,.376,7.1V1.667A30.991,30.991,0,0,1,5.912.431,44.443,44.443,0,0,1,11.985,0q7.846,0,11.367,3.9t3.52,11.259q0,7.2-3.52,11.071T11.985,30.1Z" transform="translate(433.719 102.739)" fill="#ed759d"/>
          <path id="Path_5957" data-name="Path 5957" d="M13.92,30.1a26.684,26.684,0,0,1-6.987-.86,10.257,10.257,0,0,1-5.052-2.929A7.949,7.949,0,0,1,0,20.746a7.6,7.6,0,0,1,.887-3.574,6.532,6.532,0,0,1,2.768-2.714,5.915,5.915,0,0,1-2.553-2.2A6.477,6.477,0,0,1,.107,8.6,7.778,7.778,0,0,1,2.795,2.177,10.661,10.661,0,0,1,9.728,0a18.471,18.471,0,0,1,2.849.189,10.578,10.578,0,0,1,2.15.564V6.073a14.128,14.128,0,0,0-3.709-.429,5.506,5.506,0,0,0-3.009.672A2.526,2.526,0,0,0,6.987,8.6a2.607,2.607,0,0,0,1.129,2.446,6.76,6.76,0,0,0,3.386.672h3.01l.269,5.32H11.447q-4.568,0-4.568,3.708a3.007,3.007,0,0,0,1.639,2.767,10.553,10.553,0,0,0,5.079.941q3.494,0,5.16-1.452a5.262,5.262,0,0,0,1.666-4.193V.538h7.256V18.166q0,6.289-3.574,9.11T13.92,30.1Z" transform="translate(464.138 102.739)" fill="#ed759d"/>
        </g>
        <g id="Group_2793" data-name="Group 2793" transform="translate(11.394 164.697)">
          <path id="Path_5958" data-name="Path 5958" d="M4.474,26.261a4.248,4.248,0,0,1-3.282-1.288A4.776,4.776,0,0,1,0,21.593V0H3.988V20.62Q3.988,23,6.274,23H8.56v3.258Zm11.137,0a4.25,4.25,0,0,1-3.283-1.288,4.777,4.777,0,0,1-1.192-3.38V0h3.988V20.62Q15.125,23,17.411,23H19.7v3.258Z" transform="translate(0 20.573)"/>
          <path id="Path_5959" data-name="Path 5959" d="M10.506,27.235a10.4,10.4,0,0,1-5.4-1.411,9.491,9.491,0,0,1-3.745-4.353A18.217,18.217,0,0,1,0,13.861Q0,7.2,2.116,3.6A6.663,6.663,0,0,1,8.17,0a6.45,6.45,0,0,1,3.162.681,6.971,6.971,0,0,1,2.139,1.9,7.342,7.342,0,0,1,2.651-1.9A8.1,8.1,0,0,1,19.356,0a5.427,5.427,0,0,1,4.329,1.678,7.161,7.161,0,0,1,1.459,4.839V26.748H21.156V7.052a4.908,4.908,0,0,0-.608-2.845,2.761,2.761,0,0,0-2.311-.8,4.058,4.058,0,0,0-1.994.511A3.468,3.468,0,0,0,14.785,5.69H12.11A5.067,5.067,0,0,0,10.7,3.915,3.524,3.524,0,0,0,8.657,3.4,3.676,3.676,0,0,0,4.937,6.25a24.771,24.771,0,0,0-.948,7.611q0,5.543,1.824,7.757a6.559,6.559,0,0,0,5.374,2.212,17.006,17.006,0,0,0,1.824-.1,8.379,8.379,0,0,0,1.532-.292v3.307A14.166,14.166,0,0,1,10.506,27.235Z" transform="translate(24.511 20.086)"/>
          <path id="Path_5960" data-name="Path 5960" d="M0,7.879V0H3.988V7.879Z" transform="translate(45.667 8.269)"/>
          <path id="Path_5961" data-name="Path 5961" d="M4.475,26.261a4.249,4.249,0,0,1-3.283-1.288A4.778,4.778,0,0,1,0,21.593V0H3.989V20.62Q3.989,23,6.274,23H9.047v3.258Z" transform="translate(56.415 20.573)"/>
          <path id="Path_5962" data-name="Path 5962" d="M6.031,26.261,0,0H4.085L8.414,20.669,13.958,3.306V0h2.967l5.933,20.669L27.138,0h4.037L25.193,26.261H21.205l-5.4-18.481L9.971,26.261Z" transform="translate(69.789 20.573)"/>
          <path id="Path_5963" data-name="Path 5963" d="M0,7l.195-2.87h9.97V0H13.18V4.135h3.113V0h3.015V7Z" transform="translate(78.641 9.143)"/>
          <path id="Path_5964" data-name="Path 5964" d="M0,6.76V0H3.357V6.76Z" transform="translate(94.544)"/>
          <path id="Path_5965" data-name="Path 5965" d="M10.067,27.235a27.106,27.106,0,0,1-5.642-.56A26.82,26.82,0,0,1,0,25.388V12.158H9.63l.194,3.258H3.988v7.441a17.726,17.726,0,0,0,2.845.706,18.83,18.83,0,0,0,3.137.267A10.977,10.977,0,0,0,15,22.858a5.741,5.741,0,0,0,2.724-3.21,17.229,17.229,0,0,0,.851-5.982,16.872,16.872,0,0,0-.9-6.128,5.663,5.663,0,0,0-3.015-3.185A14.349,14.349,0,0,0,8.9,3.4,33.147,33.147,0,0,0,4.6,3.7,21.846,21.846,0,0,0,.39,4.669V1.362A22.755,22.755,0,0,1,4.839.341,37.793,37.793,0,0,1,9.921,0Q16.633,0,19.6,3.429t2.967,10.237q0,6.664-2.967,10.116T10.067,27.235Z" transform="translate(105.292 20.086)"/>
          <path id="Path_5966" data-name="Path 5966" d="M8.754,26.748a8.43,8.43,0,0,1-6.493-2.432Q0,21.886,0,17.313V0H3.988V17.264q0,3.259,1.459,4.669a6.454,6.454,0,0,0,4.62,1.411,10.28,10.28,0,0,0,4.572-1.021,12.765,12.765,0,0,0,3.6-2.577V0h3.988V26.261h-3.6L18.384,23.1a14.42,14.42,0,0,1-4.134,2.65A13.927,13.927,0,0,1,8.754,26.748Z" transform="translate(133.646 20.573)"/>
          <path id="Path_5967" data-name="Path 5967" d="M11.186,26.748q-5.156,0-7.9-2.456A8.934,8.934,0,0,1,.536,17.264v-3.55a5.941,5.941,0,0,1,.681-2.771,15.384,15.384,0,0,1,1.6-2.481q.924-1.167,1.6-2.188a3.482,3.482,0,0,0,.681-1.9q0-.825-.364-1.045A2.563,2.563,0,0,0,3.5,3.112H0L.341,0h5.4Q9.095,0,9.1,3.306a6.348,6.348,0,0,1-.681,2.967A17.536,17.536,0,0,1,6.81,8.8,20.758,20.758,0,0,0,5.2,11.234a5.281,5.281,0,0,0-.68,2.625V17.7a5,5,0,0,0,1.8,4.329,8.088,8.088,0,0,0,4.864,1.313,8.293,8.293,0,0,0,4.936-1.313q1.823-1.314,1.824-4.426V0h3.988V17.215a8.853,8.853,0,0,1-2.845,7.052Q16.244,26.748,11.186,26.748Z" transform="translate(161.659 20.573)"/>
          <path id="Path_5968" data-name="Path 5968" d="M10.068,27.235a27.1,27.1,0,0,1-5.642-.56A26.8,26.8,0,0,1,0,25.388V12.158h9.63l.194,3.258H3.989v7.441a17.693,17.693,0,0,0,2.844.706,18.826,18.826,0,0,0,3.137.267A10.981,10.981,0,0,0,15,22.858a5.738,5.738,0,0,0,2.723-3.21,17.215,17.215,0,0,0,.852-5.982,16.887,16.887,0,0,0-.9-6.128,5.663,5.663,0,0,0-3.015-3.185A14.354,14.354,0,0,0,8.9,3.4,33.122,33.122,0,0,0,4.6,3.7,21.839,21.839,0,0,0,.39,4.669V1.362A22.761,22.761,0,0,1,4.839.341,37.807,37.807,0,0,1,9.922,0q6.71,0,9.678,3.429t2.966,10.237q0,6.664-2.966,10.116T10.068,27.235Z" transform="translate(189.38 20.086)"/>
          <path id="Path_5969" data-name="Path 5969" d="M11.672,26.748q-.922,0-2.164-.1a7.5,7.5,0,0,1-2.116-.437L0,8.218H3.892l6.224,15.125q4.622.341,6.833-2.383t2.213-8.706a18.245,18.245,0,0,0-.633-5.374,4.653,4.653,0,0,0-2.116-2.8,8.629,8.629,0,0,0-4.158-.827h-1.7V0h2.139q5.592,0,8.025,2.99t2.432,9.216a19.537,19.537,0,0,1-1.532,8.365,10.339,10.339,0,0,1-4.11,4.693A11.486,11.486,0,0,1,11.672,26.748Z" transform="translate(215.545 20.573)"/>
          <path id="Path_5970" data-name="Path 5970" d="M0,26.748V9.727q0-4.668,2.748-7.2T11.381,0q5.882,0,8.583,2.529t2.7,7.2V26.748H18.676V9.29q0-3.162-1.873-4.524A9.141,9.141,0,0,0,11.381,3.4,9.34,9.34,0,0,0,5.86,4.766Q3.989,6.128,3.988,9.29v6.079a8.279,8.279,0,0,1,5.642-1.995h3.21l.2,3.258h-3.5a8.28,8.28,0,0,0-5.545,1.9v8.219Z" transform="translate(244.482 20.086)"/>
          <path id="Path_5971" data-name="Path 5971" d="M3.21,9.094V2.723H0L.195,0H6.664V9.094Z" transform="translate(260.434 49.899)"/>
          <path id="Path_5972" data-name="Path 5972" d="M27.673,27.235a8.081,8.081,0,0,1-6.3-2.432q-2.213-2.431-2.213-7V9.873q0-3.648-1.6-5.058T11.916,3.4a15.376,15.376,0,0,0-4.888.754A8.868,8.868,0,0,0,3.5,6.176V7.2L9.193,8.559v3.016a5.275,5.275,0,0,0-2.748,1.532,4.616,4.616,0,0,0-.9,3.088v4.912q0,2.383,2.286,2.383H10.6v3.258H6.031A4.25,4.25,0,0,1,2.748,25.46a4.783,4.783,0,0,1-1.191-3.38V16.1a6.69,6.69,0,0,1,.924-3.526A5.041,5.041,0,0,1,5.5,10.407L0,9.144V4.474A18.709,18.709,0,0,1,4.839,1.387,16.7,16.7,0,0,1,11.916,0q5.643,0,8.414,2.407T23.1,10.018v7.733q0,3.258,1.434,4.669a6.127,6.127,0,0,0,4.45,1.41,9.137,9.137,0,0,0,4.353-1.021,13.691,13.691,0,0,0,3.428-2.577V.487h3.989V26.748h-3.6l-.244-3.161a15.27,15.27,0,0,1-3.964,2.65A12.569,12.569,0,0,1,27.673,27.235Z" transform="translate(272.933 20.086)"/>
          <path id="Path_5973" data-name="Path 5973" d="M4.474,26.261a4.246,4.246,0,0,1-3.282-1.288A4.774,4.774,0,0,1,0,21.593V0H3.988V20.62Q3.988,23,6.274,23H9.046v3.258Z" transform="translate(320.448 20.573)"/>
          <path id="Path_5974" data-name="Path 5974" d="M8.754,27.235a11.7,11.7,0,0,1-4.449-.8A6.791,6.791,0,0,1,1.168,23.9,7.879,7.879,0,0,1,0,19.4a7.38,7.38,0,0,1,2.48-5.86q2.48-2.164,7.587-2.165h8.608V9.338a7.849,7.849,0,0,0-.657-3.525,3.793,3.793,0,0,0-2.26-1.848,14.11,14.11,0,0,0-4.475-.56,31.683,31.683,0,0,0-4.3.292,22.059,22.059,0,0,0-4.109.973V1.362a24.632,24.632,0,0,1,4.255-1A32.568,32.568,0,0,1,12.013,0,22.291,22.291,0,0,1,14.4.121a15.5,15.5,0,0,1,2.091.366h8.365l-.195,3.257h-3.5a6.94,6.94,0,0,1,1.167,2.578,14.634,14.634,0,0,1,.34,3.307V26.748H18.676V14.687H10.311a8.566,8.566,0,0,0-4.864,1.094A4.117,4.117,0,0,0,3.891,19.4,3.9,3.9,0,0,0,5.3,22.858a8.137,8.137,0,0,0,4.523.973,12.484,12.484,0,0,0,3.307-.388v3.307q-.827.194-1.945.341A18.994,18.994,0,0,1,8.754,27.235Z" transform="translate(334.309 20.086)"/>
          <path id="Path_5975" data-name="Path 5975" d="M0,7l.195-2.87H15.952V0h3.356V7Z" transform="translate(337.616 9.143)"/>
          <path id="Path_5976" data-name="Path 5976" d="M11.575,27.235a16.05,16.05,0,0,1-8.438-1.922A6.581,6.581,0,0,1,0,19.259a6.851,6.851,0,0,1,1.045-3.866,6.28,6.28,0,0,1,2.942-2.359A5.582,5.582,0,0,1,1.24,11.088,5.946,5.946,0,0,1,.146,7.344a6.777,6.777,0,0,1,2.188-5.52A8.441,8.441,0,0,1,7.927,0a15.622,15.622,0,0,1,2.286.146,11.87,11.87,0,0,1,1.751.389V3.842a6.081,6.081,0,0,0-1.508-.34,16.265,16.265,0,0,0-1.8-.1,5.221,5.221,0,0,0-3.332.949A3.591,3.591,0,0,0,4.134,7.344a3.574,3.574,0,0,0,1.41,3.137,6.268,6.268,0,0,0,3.7,1h2.772l.243,3.015H9.095a5.291,5.291,0,0,0-3.843,1.24,4.712,4.712,0,0,0-1.264,3.526q0,4.572,7.441,4.571A9.161,9.161,0,0,0,17.046,22.4,5.421,5.421,0,0,0,18.918,17.8V.487h3.988V17.119q0,4.913-2.724,7.515T11.575,27.235Z" transform="translate(363.003 20.086)"/>
          <path id="Path_5977" data-name="Path 5977" d="M11.186,27.235q-5.156,0-7.9-2.456A8.935,8.935,0,0,1,.535,17.751V14.2a5.934,5.934,0,0,1,.681-2.772,15.408,15.408,0,0,1,1.6-2.481Q3.745,7.782,4.427,6.76a3.485,3.485,0,0,0,.68-1.9q0-.825-.365-1.045A2.56,2.56,0,0,0,3.5,3.6H0L.341.487h5.4q3.356,0,3.355,3.306a6.354,6.354,0,0,1-.68,2.967,17.444,17.444,0,0,1-1.6,2.529,20.982,20.982,0,0,0-1.6,2.432,5.284,5.284,0,0,0-.681,2.625v3.842a5,5,0,0,0,1.8,4.329,8.09,8.09,0,0,0,4.864,1.312,8.3,8.3,0,0,0,4.937-1.312q1.824-1.315,1.824-4.426V14.736q0-2.723-.876-3.72a4.152,4.152,0,0,0-3.209-1H12.5l.194-3.161h1.07q2.48,0,3.331-1.168a6.031,6.031,0,0,0,.852-3.55V0h3.987V2.091a10.051,10.051,0,0,1-.681,3.964,4.556,4.556,0,0,1-2.918,2.359,4.615,4.615,0,0,1,2.991,2.48,11.182,11.182,0,0,1,.608,3.939V17.7a8.849,8.849,0,0,1-2.845,7.052Q16.245,27.235,11.186,27.235Z" transform="translate(391.697 20.086)"/>
          <path id="Path_5978" data-name="Path 5978" d="M0,7l.195-2.87H15.952V0h3.356V7Z" transform="translate(394.226 9.143)"/>
          <path id="Path_5979" data-name="Path 5979" d="M7.344,27.235A18.452,18.452,0,0,1,0,25.874V22.518a18.191,18.191,0,0,0,3.088.948,15.642,15.642,0,0,0,3.332.365,12.219,12.219,0,0,0,5.593-1.046A5.84,5.84,0,0,0,14.833,19.5a17.326,17.326,0,0,0,.827-5.885q0-5.446-2.14-7.83T6.274,3.4a15.24,15.24,0,0,0-3.258.34A14.449,14.449,0,0,0,0,4.766v-3.4A14.89,14.89,0,0,1,3.186.341,19.93,19.93,0,0,1,7.1,0q6.37,0,9.458,3.453t3.088,10.165q0,6.517-2.82,10.067T7.344,27.235Z" transform="translate(419.419 20.086)"/>
          <path id="Path_5980" data-name="Path 5980" d="M0,2.869.195,0H19.308V2.869Z" transform="translate(418.689 13.278)"/>
          <path id="Path_5981" data-name="Path 5981" d="M10.5,27.235a10.4,10.4,0,0,1-5.4-1.411,9.491,9.491,0,0,1-3.745-4.353A18.21,18.21,0,0,1,0,13.861Q0,7.2,2.116,3.6A6.663,6.663,0,0,1,8.171,0a6.445,6.445,0,0,1,3.16.681,6.976,6.976,0,0,1,2.14,1.9,7.345,7.345,0,0,1,2.65-1.9A8.111,8.111,0,0,1,19.356,0a5.429,5.429,0,0,1,4.329,1.678,7.162,7.162,0,0,1,1.458,4.839V26.748H21.156V7.052a4.9,4.9,0,0,0-.608-2.845,2.759,2.759,0,0,0-2.31-.8,4.057,4.057,0,0,0-1.994.511A3.466,3.466,0,0,0,14.785,5.69H12.111A5.068,5.068,0,0,0,10.7,3.915,3.522,3.522,0,0,0,8.657,3.4,3.676,3.676,0,0,0,4.937,6.25a24.762,24.762,0,0,0-.948,7.611q0,5.543,1.824,7.757a6.559,6.559,0,0,0,5.374,2.212,17.006,17.006,0,0,0,1.824-.1,8.39,8.39,0,0,0,1.532-.292v3.307A14.171,14.171,0,0,1,10.5,27.235Z" transform="translate(443.881 20.086)"/>
          <path id="Path_5982" data-name="Path 5982" d="M10.894,27.236a14.855,14.855,0,0,1-1.92-.146A8.915,8.915,0,0,1,7.2,26.7L3.113,15.806H0l.195-3.259h5.5L9.921,23.83a8.409,8.409,0,0,0,4.329-.754,7.224,7.224,0,0,0,3.307-3.332,13.765,13.765,0,0,0,1.264-6.419,14.57,14.57,0,0,0-.972-5.836,5.93,5.93,0,0,0-3.161-3.137A15.218,15.218,0,0,0,8.755,3.4a30.915,30.915,0,0,0-4.11.292,21.9,21.9,0,0,0-4.158.973V1.362a24.63,24.63,0,0,1,4.256-1A33.948,33.948,0,0,1,9.824,0Q16.583,0,19.7,3.453t3.113,9.873a16.089,16.089,0,0,1-1.654,7.66A11.572,11.572,0,0,1,16.8,25.654,11.476,11.476,0,0,1,10.894,27.236Z" transform="translate(55.516 89.563)"/>
          <path id="Path_5983" data-name="Path 5983" d="M12.986,26.749V9.775a12.388,12.388,0,0,0-.438-3.6,3.4,3.4,0,0,0-1.775-2.091A9.315,9.315,0,0,0,6.712,3.4a18.523,18.523,0,0,0-3.38.341A18.825,18.825,0,0,0,0,4.668V1.362A19.344,19.344,0,0,1,3.453.389,20.812,20.812,0,0,1,7.441,0q5.008,0,7.271,2.213t2.261,7.125V26.749Z" transform="translate(81.681 89.563)"/>
          <path id="Path_5984" data-name="Path 5984" d="M1.556,26.749V16.1a6.691,6.691,0,0,1,.924-3.526A5.04,5.04,0,0,1,5.5,10.407L0,9.144V4.474A18.312,18.312,0,0,1,4.937,1.386,17.631,17.631,0,0,1,12.207,0q5.738,0,8.633,2.407t2.893,7.611v16.73H19.745V9.873q0-3.648-1.7-5.058T12.207,3.4a16.611,16.611,0,0,0-5.082.754A8.851,8.851,0,0,0,3.5,6.176V7.2l5.69,1.362v3.016a5.279,5.279,0,0,0-2.748,1.532,4.616,4.616,0,0,0-.9,3.088V26.749Z" transform="translate(104.441 89.563)"/>
          <path id="Path_5985" data-name="Path 5985" d="M0,8.9,3.015,0H5.788L3.4,8.9Zm6.663,0L9.678,0H12.4L10.019,8.9Z" transform="translate(145.099 84.505)"/>
          <path id="Path_5986" data-name="Path 5986" d="M9.63,38.615a4.245,4.245,0,0,1-3.282-1.289,4.772,4.772,0,0,1-1.192-3.38V10.7A7.665,7.665,0,0,0,3.891,5.836,9.543,9.543,0,0,0,0,3.21V0H13.958V3.21h-8.9A8.038,8.038,0,0,1,7.49,5.083,6.433,6.433,0,0,1,8.754,7.757a18.41,18.41,0,0,1,.389,4.158V32.974q0,2.383,2.286,2.383H14.2v3.258Z" transform="translate(160.127 77.696)"/>
          <path id="Path_5987" data-name="Path 5987" d="M9.29,27.236a35.1,35.1,0,0,1-4.742-.316A16.22,16.22,0,0,1,.681,25.97V22.42a18.991,18.991,0,0,0,3.94,1.07,24.811,24.811,0,0,0,3.988.34,15.251,15.251,0,0,0,5.325-.7,2.956,2.956,0,0,0,1.776-3.089,3.355,3.355,0,0,0-.9-2.553,6.9,6.9,0,0,0-2.554-1.411q-1.653-.558-3.988-1.337a38.074,38.074,0,0,1-4.036-1.629A8.8,8.8,0,0,1,1.167,10.8,5.612,5.612,0,0,1,0,7.1,6.084,6.084,0,0,1,2.554,1.824Q5.107,0,10.165,0A26.315,26.315,0,0,1,14.4.341a21.581,21.581,0,0,1,3.5.826v3.5A17.508,17.508,0,0,0,14.42,3.72,22.066,22.066,0,0,0,10.749,3.4a13.9,13.9,0,0,0-5.033.706A2.8,2.8,0,0,0,3.989,7a2.963,2.963,0,0,0,.9,2.261,7.377,7.377,0,0,0,2.578,1.459q1.678.609,4.061,1.386a28.989,28.989,0,0,1,4.231,1.727,8.041,8.041,0,0,1,2.894,2.382A6.256,6.256,0,0,1,19.7,19.988q0,3.939-2.87,5.593A15.005,15.005,0,0,1,9.29,27.236Z" transform="translate(177.684 89.563)"/>
          <path id="Path_5988" data-name="Path 5988" d="M0,26.749V9.727q0-4.669,2.748-7.2T11.381,0q5.884,0,8.584,2.529t2.7,7.2V26.749H18.676V9.29q0-3.162-1.872-4.523A9.14,9.14,0,0,0,11.381,3.4a9.335,9.335,0,0,0-5.52,1.362Q3.989,6.128,3.988,9.29v6.079A8.28,8.28,0,0,1,9.63,13.374h3.21l.195,3.259h-3.5a8.278,8.278,0,0,0-5.545,1.9v8.219Z" transform="translate(203.168 89.563)"/>
          <path id="Path_5989" data-name="Path 5989" d="M4.474,26.261a4.246,4.246,0,0,1-3.282-1.289A4.775,4.775,0,0,1,0,21.593V0H3.988V20.62Q3.988,23,6.274,23H9.046v3.258Z" transform="translate(232.591 90.05)"/>
          <path id="Path_5990" data-name="Path 5990" d="M11.526,26.748q-5.544,0-8.535-2.627T0,16.34V0H3.988V16.632q0,3.551,1.945,5.131a8.674,8.674,0,0,0,5.593,1.58,8.675,8.675,0,0,0,5.593-1.58q1.945-1.581,1.946-5.131V0h3.987V16.34q0,5.156-2.991,7.781T11.526,26.748Z" transform="translate(247.425 90.05)"/>
          <path id="Path_5991" data-name="Path 5991" d="M12.985,26.749V9.775a12.381,12.381,0,0,0-.438-3.6,3.4,3.4,0,0,0-1.775-2.091A9.312,9.312,0,0,0,6.712,3.4a18.542,18.542,0,0,0-3.381.341A18.834,18.834,0,0,0,0,4.668V1.362A19.35,19.35,0,0,1,3.453.389,20.794,20.794,0,0,1,7.441,0q5.008,0,7.271,2.213t2.261,7.125V26.749Z" transform="translate(274.806 89.563)"/>
          <path id="Path_5992" data-name="Path 5992" d="M0,26.261V0H3.988V8.51h8.705q3.21,0,4.426-1.362a5.733,5.733,0,0,0,1.216-3.94V0h3.988V3.16A9.559,9.559,0,0,1,21.4,7.489a5.129,5.129,0,0,1-3.258,2.578A4.691,4.691,0,0,1,21.3,12.6a10.554,10.554,0,0,1,.729,4.084v9.581H18.043V17.167q0-3.113-1.191-4.255t-4.4-1.144H3.988V26.261Z" transform="translate(298.539 90.05)"/>
          <path id="Path_5993" data-name="Path 5993" d="M7.344,27.236A18.447,18.447,0,0,1,0,25.874V22.518a18.261,18.261,0,0,0,3.088.948,15.648,15.648,0,0,0,3.332.365,12.219,12.219,0,0,0,5.594-1.046,5.846,5.846,0,0,0,2.82-3.283,17.318,17.318,0,0,0,.827-5.885q0-5.446-2.14-7.83T6.274,3.4a15.236,15.236,0,0,0-3.259.341A14.405,14.405,0,0,0,0,4.766v-3.4A14.858,14.858,0,0,1,3.186.341,19.874,19.874,0,0,1,7.1,0q6.372,0,9.46,3.453t3.087,10.165q0,6.517-2.821,10.067T7.344,27.236Z" transform="translate(326.358 89.563)"/>
          <path id="Path_5994" data-name="Path 5994" d="M12.985,26.749V9.775a12.39,12.39,0,0,0-.437-3.6,3.4,3.4,0,0,0-1.775-2.091A9.312,9.312,0,0,0,6.711,3.4a18.536,18.536,0,0,0-3.38.341A18.828,18.828,0,0,0,0,4.668V1.362A19.359,19.359,0,0,1,3.454.389,20.79,20.79,0,0,1,7.441,0q5.009,0,7.271,2.213t2.262,7.125V26.749Z" transform="translate(349.361 89.563)"/>
          <path id="Path_5995" data-name="Path 5995" d="M8.754,26.748a8.428,8.428,0,0,1-6.493-2.432Q0,21.885,0,17.313V0H3.988V17.264q0,3.259,1.459,4.669a6.451,6.451,0,0,0,4.62,1.41,10.283,10.283,0,0,0,4.571-1.021,12.758,12.758,0,0,0,3.6-2.577V0h3.988V26.261h-3.6l-.243-3.16a14.43,14.43,0,0,1-4.134,2.65A13.929,13.929,0,0,1,8.754,26.748Z" transform="translate(373.095 90.05)"/>
          <path id="Path_5996" data-name="Path 5996" d="M0,8.9,2.432,0H5.787L2.772,8.9Zm6.663,0L9.046,0H12.4L9.386,8.9Z" transform="translate(401.108 84.505)"/>
          <path id="Path_5997" data-name="Path 5997" d="M4.474,26.261a4.249,4.249,0,0,1-3.283-1.289A4.776,4.776,0,0,1,0,21.593V0H3.988V20.62Q3.988,23,6.274,23H9.046v3.259Z" transform="translate(51.941 159.527)"/>
          <path id="Path_5998" data-name="Path 5998" d="M6.031,26.261,0,0H4.086L8.414,20.669,13.958,3.306V0h2.967l5.933,20.669L27.138,0h4.036L25.193,26.261H21.2l-5.4-18.481L9.971,26.261Z" transform="translate(65.315 159.527)"/>
          <path id="Path_5999" data-name="Path 5999" d="M9.29,27.236a35.1,35.1,0,0,1-4.742-.316A16.239,16.239,0,0,1,.68,25.97V22.42A18.986,18.986,0,0,0,4.62,23.49a24.806,24.806,0,0,0,3.988.341,15.246,15.246,0,0,0,5.325-.7,2.955,2.955,0,0,0,1.776-3.089,3.354,3.354,0,0,0-.9-2.553,6.9,6.9,0,0,0-2.553-1.411q-1.654-.558-3.988-1.337a38.037,38.037,0,0,1-4.037-1.629A8.783,8.783,0,0,1,1.167,10.8,5.607,5.607,0,0,1,0,7.1,6.084,6.084,0,0,1,2.553,1.824Q5.107,0,10.164,0A26.372,26.372,0,0,1,14.4.341a21.631,21.631,0,0,1,3.5.826v3.5a17.51,17.51,0,0,0-3.478-.948A22.038,22.038,0,0,0,10.748,3.4a13.9,13.9,0,0,0-5.033.706A2.8,2.8,0,0,0,3.988,7a2.963,2.963,0,0,0,.9,2.261,7.369,7.369,0,0,0,2.578,1.459q1.677.608,4.06,1.386a28.972,28.972,0,0,1,4.231,1.727,8.042,8.042,0,0,1,2.894,2.383A6.252,6.252,0,0,1,19.7,19.989q0,3.94-2.87,5.593A15,15,0,0,1,9.29,27.236Z" transform="translate(100.818 159.04)"/>
          <path id="Path_6000" data-name="Path 6000" d="M12.986,26.749V9.775a12.366,12.366,0,0,0-.439-3.6,3.4,3.4,0,0,0-1.775-2.091A9.319,9.319,0,0,0,6.712,3.4a18.511,18.511,0,0,0-3.38.34A18.8,18.8,0,0,0,0,4.669V1.362A19.3,19.3,0,0,1,3.453.389,20.764,20.764,0,0,1,7.441,0q5.008,0,7.27,2.213t2.262,7.125V26.749Z" transform="translate(123.87 159.04)"/>
          <path id="Path_6001" data-name="Path 6001" d="M0,5.448V0H3.453V2.384h7.538l-.146,3.064ZM0,18.87V13.423H3.453v2.432h7.538l-.146,3.015Z" transform="translate(146.631 163.806)"/>
          <path id="Path_6002" data-name="Path 6002" d="M8.755,27.236a11.7,11.7,0,0,1-4.451-.8A6.788,6.788,0,0,1,1.167,23.9,7.887,7.887,0,0,1,0,19.4a7.379,7.379,0,0,1,2.48-5.859q2.48-2.165,7.587-2.165h8.608V9.338a7.862,7.862,0,0,0-.656-3.526,3.8,3.8,0,0,0-2.262-1.848,14.115,14.115,0,0,0-4.474-.56,31.568,31.568,0,0,0-4.3.292,22.018,22.018,0,0,0-4.11.973V1.362a24.59,24.59,0,0,1,4.256-1A32.582,32.582,0,0,1,12.012,0,22.162,22.162,0,0,1,14.4.122a15.494,15.494,0,0,1,2.091.366h8.366l-.2,3.258h-3.5a6.951,6.951,0,0,1,1.167,2.578,14.644,14.644,0,0,1,.34,3.307V26.749H18.676V14.688H10.311a8.565,8.565,0,0,0-4.864,1.094A4.116,4.116,0,0,0,3.892,19.4,3.9,3.9,0,0,0,5.3,22.858a8.139,8.139,0,0,0,4.523.973,12.482,12.482,0,0,0,3.307-.388v3.306q-.828.194-1.945.341A18.986,18.986,0,0,1,8.755,27.236Z" transform="translate(162.437 159.04)"/>
          <path id="Path_6003" data-name="Path 6003" d="M12.986,26.749V9.775a12.367,12.367,0,0,0-.438-3.6,3.4,3.4,0,0,0-1.775-2.091A9.319,9.319,0,0,0,6.712,3.4a18.515,18.515,0,0,0-3.38.34A18.827,18.827,0,0,0,0,4.669V1.362A19.316,19.316,0,0,1,3.454.389,20.754,20.754,0,0,1,7.441,0q5.009,0,7.271,2.213t2.261,7.125V26.749Z" transform="translate(189.672 159.04)"/>
          <path id="Path_6004" data-name="Path 6004" d="M4.474,26.261a4.248,4.248,0,0,1-3.282-1.289A4.776,4.776,0,0,1,0,21.593V0H3.988V20.62Q3.988,23,6.274,23H9.046v3.259Z" transform="translate(213.405 159.527)"/>
          <path id="Path_6005" data-name="Path 6005" d="M0,26.261V0H3.988V8.511h8.705q3.211,0,4.426-1.362a5.732,5.732,0,0,0,1.216-3.94V0h3.988V3.16A9.57,9.57,0,0,1,21.4,7.489a5.13,5.13,0,0,1-3.259,2.578A4.69,4.69,0,0,1,21.3,12.6a10.553,10.553,0,0,1,.73,4.085v9.581H18.044V17.168q0-3.113-1.192-4.255t-4.4-1.144H3.988V26.261Z" transform="translate(228.238 159.527)"/>
          <path id="Path_6006" data-name="Path 6006" d="M10.5,27.236a10.39,10.39,0,0,1-5.4-1.411,9.488,9.488,0,0,1-3.745-4.353A18.216,18.216,0,0,1,0,13.862Q0,7.2,2.116,3.6A6.664,6.664,0,0,1,8.171,0a6.454,6.454,0,0,1,3.162.681,6.981,6.981,0,0,1,2.139,1.9,7.344,7.344,0,0,1,2.65-1.9A8.118,8.118,0,0,1,19.356,0a5.426,5.426,0,0,1,4.329,1.678,7.16,7.16,0,0,1,1.459,4.838V26.749H21.156V7.052a4.9,4.9,0,0,0-.608-2.845,2.76,2.76,0,0,0-2.311-.8,4.053,4.053,0,0,0-1.994.51A3.464,3.464,0,0,0,14.785,5.69H12.11A5.061,5.061,0,0,0,10.7,3.915,3.523,3.523,0,0,0,8.657,3.4,3.675,3.675,0,0,0,4.936,6.25a24.77,24.77,0,0,0-.948,7.611q0,5.543,1.824,7.757a6.56,6.56,0,0,0,5.375,2.212,17.09,17.09,0,0,0,1.824-.1,8.418,8.418,0,0,0,1.531-.292v3.306A14.171,14.171,0,0,1,10.5,27.236Z" transform="translate(256.057 159.04)"/>
          <path id="Path_6007" data-name="Path 6007" d="M3.21,9.094V2.723H0L.2,0H6.663V9.094Z" transform="translate(274.489 188.853)"/>
          <path id="Path_6008" data-name="Path 6008" d="M10.894,27.236a14.843,14.843,0,0,1-1.92-.146A8.912,8.912,0,0,1,7.2,26.7L3.112,15.806H0l.194-3.259h5.5L9.921,23.831a8.408,8.408,0,0,0,4.328-.754,7.225,7.225,0,0,0,3.307-3.332,13.763,13.763,0,0,0,1.264-6.419,14.568,14.568,0,0,0-.973-5.836,5.93,5.93,0,0,0-3.161-3.137A15.22,15.22,0,0,0,8.754,3.4a30.913,30.913,0,0,0-4.11.292,21.925,21.925,0,0,0-4.158.973V1.362a24.6,24.6,0,0,1,4.255-1A33.925,33.925,0,0,1,9.823,0q6.76,0,9.873,3.453t3.113,9.873a16.086,16.086,0,0,1-1.654,7.66A11.572,11.572,0,0,1,16.8,25.655,11.484,11.484,0,0,1,10.894,27.236Z" transform="translate(286.989 159.04)"/>
          <path id="Path_6009" data-name="Path 6009" d="M5.107,9.873a5.084,5.084,0,0,1-3.6-1.41A4.6,4.6,0,0,1,0,4.961a4.655,4.655,0,0,1,1.508-3.55A5.086,5.086,0,0,1,5.107,0a4.975,4.975,0,0,1,3.6,1.411,4.725,4.725,0,0,1,1.459,3.55,4.669,4.669,0,0,1-1.459,3.5A4.973,4.973,0,0,1,5.107,9.873Zm0-2.529a2.251,2.251,0,0,0,1.677-.73A2.312,2.312,0,0,0,7.49,4.961a2.372,2.372,0,0,0-.706-1.7,2.254,2.254,0,0,0-1.677-.729,2.313,2.313,0,0,0-1.727.729,2.375,2.375,0,0,0-.705,1.7A2.316,2.316,0,0,0,3.38,6.614,2.31,2.31,0,0,0,5.107,7.344Z" transform="translate(301.627 146.249)"/>
          <path id="Path_6010" data-name="Path 6010" d="M12.985,26.749V9.775a12.378,12.378,0,0,0-.438-3.6,3.4,3.4,0,0,0-1.774-2.091A9.322,9.322,0,0,0,6.711,3.4a18.508,18.508,0,0,0-3.379.34A18.807,18.807,0,0,0,0,4.669V1.362A19.3,19.3,0,0,1,3.453.389,20.772,20.772,0,0,1,7.442,0q5.008,0,7.27,2.213t2.262,7.125V26.749Z" transform="translate(313.153 159.04)"/>
          <path id="Path_6011" data-name="Path 6011" d="M4.475,26.261a4.246,4.246,0,0,1-3.282-1.289A4.774,4.774,0,0,1,0,21.593V0H3.988V20.62Q3.988,23,6.274,23H9.046v3.259Z" transform="translate(336.886 159.527)"/>
          <path id="Path_6012" data-name="Path 6012" d="M6.031,26.261,0,0H4.085L8.414,20.669,13.958,3.306V0h2.967l5.933,20.669L27.137,0h4.037L25.193,26.261H21.2l-5.4-18.481L9.97,26.261Z" transform="translate(350.261 159.527)"/>
          <path id="Path_6013" data-name="Path 6013" d="M12.985,26.749V9.775a12.388,12.388,0,0,0-.437-3.6,3.4,3.4,0,0,0-1.774-2.091A9.326,9.326,0,0,0,6.711,3.4a18.505,18.505,0,0,0-3.379.34A18.824,18.824,0,0,0,0,4.669V1.362A19.293,19.293,0,0,1,3.454.389,20.759,20.759,0,0,1,7.442,0q5.008,0,7.271,2.213t2.261,7.125V26.749Z" transform="translate(384.305 159.04)"/>
          <path id="Path_6014" data-name="Path 6014" d="M0,5.448V0H3.452V2.384h7.539l-.146,3.064ZM0,18.87V13.423H3.452v2.432h7.539l-.146,3.015Z" transform="translate(407.066 163.806)"/>
          <path id="Path_6015" data-name="Path 6015" d="M0,26.748V.487H3.6l.243,3.16A15.282,15.282,0,0,1,8,1a13.743,13.743,0,0,1,5.471-1A8.447,8.447,0,0,1,19.94,2.431q2.285,2.432,2.286,6.955V26.748H18.238V9.435q0-3.211-1.508-4.621A6.651,6.651,0,0,0,12.062,3.4,9.732,9.732,0,0,0,7.515,4.45a13.563,13.563,0,0,0-3.526,2.6v19.7Z" transform="translate(9.727 228.517)"/>
          <path id="Path_6016" data-name="Path 6016" d="M0,7,.195,4.135H15.952V0h3.355V7Z" transform="translate(12.547 217.574)"/>
          <path id="Path_6017" data-name="Path 6017" d="M0,6.76V0H3.356V6.76Z" transform="translate(28.451 208.431)"/>
          <path id="Path_6018" data-name="Path 6018" d="M10.067,27.236a27.085,27.085,0,0,1-5.641-.56A26.72,26.72,0,0,1,0,25.387V12.158H9.629l.195,3.259H3.988v7.441a17.758,17.758,0,0,0,2.845.706,18.824,18.824,0,0,0,3.137.267A10.982,10.982,0,0,0,15,22.858a5.743,5.743,0,0,0,2.724-3.21,17.217,17.217,0,0,0,.851-5.982,16.869,16.869,0,0,0-.9-6.128,5.665,5.665,0,0,0-3.015-3.186A14.362,14.362,0,0,0,8.9,3.4,33.08,33.08,0,0,0,4.6,3.7a21.866,21.866,0,0,0-4.207.973V1.362A22.793,22.793,0,0,1,4.839.341,37.741,37.741,0,0,1,9.921,0Q16.632,0,19.6,3.429t2.967,10.238q0,6.663-2.967,10.115T10.067,27.236Z" transform="translate(37.741 228.517)"/>
          <path id="Path_6019" data-name="Path 6019" d="M12.986,26.748V9.775a12.379,12.379,0,0,0-.438-3.6,3.4,3.4,0,0,0-1.775-2.091A9.312,9.312,0,0,0,6.712,3.4a18.548,18.548,0,0,0-3.38.34A18.789,18.789,0,0,0,0,4.669V1.362A19.325,19.325,0,0,1,3.453.389,20.781,20.781,0,0,1,7.441,0q5.009,0,7.271,2.213t2.261,7.125V26.748Z" transform="translate(63.662 228.517)"/>
          <path id="Path_6020" data-name="Path 6020" d="M10.9,27.236a14.838,14.838,0,0,1-1.922-.146A8.923,8.923,0,0,1,7.2,26.7L3.113,15.806H0l.195-3.258h5.5L9.922,23.83a8.41,8.41,0,0,0,4.329-.754,7.228,7.228,0,0,0,3.307-3.332,13.769,13.769,0,0,0,1.265-6.42,14.579,14.579,0,0,0-.974-5.836,5.932,5.932,0,0,0-3.161-3.137A15.224,15.224,0,0,0,8.754,3.4a30.968,30.968,0,0,0-4.11.292,21.957,21.957,0,0,0-4.158.973V1.362a24.6,24.6,0,0,1,4.255-1A33.912,33.912,0,0,1,9.824,0q6.76,0,9.873,3.453t3.113,9.872a16.093,16.093,0,0,1-1.653,7.661A11.574,11.574,0,0,1,16.8,25.654,11.479,11.479,0,0,1,10.9,27.236Z" transform="translate(86.422 228.517)"/>
          <path id="Path_6021" data-name="Path 6021" d="M4.474,26.261a4.248,4.248,0,0,1-3.282-1.289A4.775,4.775,0,0,1,0,21.593V0H3.988V20.62Q3.988,23,6.274,23H9.047v3.258Z" transform="translate(115.019 229.004)"/>
          <path id="Path_6022" data-name="Path 6022" d="M1.556,26.748V16.1a6.686,6.686,0,0,1,.924-3.526A5.042,5.042,0,0,1,5.5,10.407L0,9.144V4.474A18.327,18.327,0,0,1,4.936,1.386,17.63,17.63,0,0,1,12.208,0q5.737,0,8.632,2.408t2.894,7.611v16.73H19.745V9.873q0-3.647-1.7-5.058T12.208,3.4a16.6,16.6,0,0,0-5.083.754A8.848,8.848,0,0,0,3.5,6.176V7.2L9.192,8.559v3.016a5.278,5.278,0,0,0-2.748,1.532,4.615,4.615,0,0,0-.9,3.087V26.748Z" transform="translate(128.88 228.517)"/>
          <path id="Path_6023" data-name="Path 6023" d="M0,2.869.194,0H19.308V2.869Z" transform="translate(133.208 221.709)"/>
          <path id="Path_6024" data-name="Path 6024" d="M10.506,27.236a10.4,10.4,0,0,1-5.4-1.411,9.492,9.492,0,0,1-3.745-4.353A18.213,18.213,0,0,1,0,13.861Q0,7.441,3.211,3.72T13.131,0a14.138,14.138,0,0,1,6.93,1.483A9.262,9.262,0,0,1,23.928,5.35a11.081,11.081,0,0,1,1.215,5.106V26.748H21.156V10.506a8.272,8.272,0,0,0-.778-3.648,5.6,5.6,0,0,0-2.554-2.53,10.453,10.453,0,0,0-4.79-.924Q8.17,3.4,6.08,6.128T3.988,13.861q0,5.543,1.823,7.757a6.559,6.559,0,0,0,5.374,2.212,17.07,17.07,0,0,0,1.824-.1,8.4,8.4,0,0,0,1.532-.292v3.306A14.164,14.164,0,0,1,10.506,27.236Z" transform="translate(158.401 228.517)"/>
          <path id="Path_6025" data-name="Path 6025" d="M10.894,27.236a14.818,14.818,0,0,1-1.921-.146A8.929,8.929,0,0,1,7.2,26.7L3.113,15.806H0l.194-3.258h5.5L9.921,23.83a8.407,8.407,0,0,0,4.328-.754,7.227,7.227,0,0,0,3.308-3.332,13.767,13.767,0,0,0,1.264-6.42,14.585,14.585,0,0,0-.973-5.836,5.931,5.931,0,0,0-3.161-3.137A15.224,15.224,0,0,0,8.755,3.4a30.945,30.945,0,0,0-4.11.292,21.944,21.944,0,0,0-4.159.973V1.362a24.6,24.6,0,0,1,4.255-1A33.892,33.892,0,0,1,9.824,0q6.76,0,9.874,3.453t3.112,9.872a16.087,16.087,0,0,1-1.654,7.661A11.573,11.573,0,0,1,16.8,25.654,11.485,11.485,0,0,1,10.894,27.236Z" transform="translate(189.332 228.517)"/>
          <path id="Path_6026" data-name="Path 6026" d="M12.986,26.748V9.775a12.387,12.387,0,0,0-.438-3.6,3.4,3.4,0,0,0-1.775-2.091A9.312,9.312,0,0,0,6.711,3.4a18.563,18.563,0,0,0-3.38.34A18.807,18.807,0,0,0,0,4.669V1.362A19.352,19.352,0,0,1,3.453.389,20.781,20.781,0,0,1,7.441,0q5.009,0,7.271,2.213t2.261,7.125V26.748Z" transform="translate(215.496 228.517)"/>
          <path id="Path_6027" data-name="Path 6027" d="M1.556,26.748V16.1a6.686,6.686,0,0,1,.924-3.526A5.041,5.041,0,0,1,5.5,10.407L0,9.144V4.474A18.326,18.326,0,0,1,4.937,1.386,17.63,17.63,0,0,1,12.208,0q5.738,0,8.632,2.408t2.894,7.611v16.73H19.745V9.873q0-3.647-1.7-5.058T12.208,3.4a16.6,16.6,0,0,0-5.083.754A8.849,8.849,0,0,0,3.5,6.176V7.2l5.69,1.362v3.016a5.284,5.284,0,0,0-2.747,1.532,4.614,4.614,0,0,0-.9,3.087V26.748Z" transform="translate(238.257 228.517)"/>
          <path id="Path_6028" data-name="Path 6028" d="M6.031,26.261,0,0H4.085L8.414,20.669,13.958,3.306V0h2.967l5.933,20.669L27.137,0h4.036L25.193,26.261H21.2l-5.4-18.48L9.97,26.261Z" transform="translate(267.292 229.004)"/>
          <path id="Path_6029" data-name="Path 6029" d="M0,6.42V0H3.356V3.551H16.438L16.244,6.42Z" transform="translate(284.946 218.158)"/>
          <path id="Path_6030" data-name="Path 6030" d="M8.755,26.749a8.432,8.432,0,0,1-6.494-2.431Q0,21.885,0,17.313V0H3.988V17.264q0,3.259,1.459,4.669a6.454,6.454,0,0,0,4.62,1.41,10.285,10.285,0,0,0,4.572-1.021,12.755,12.755,0,0,0,3.6-2.578V0h3.988V26.261h-3.6l-.243-3.16a14.422,14.422,0,0,1-4.134,2.65A13.93,13.93,0,0,1,8.755,26.749Z" transform="translate(303.767 229.004)"/>
          <path id="Path_6031" data-name="Path 6031" d="M10.651,27.236a27.7,27.7,0,0,1-5.714-.56,26.623,26.623,0,0,1-4.45-1.289v-9.97h3.7V22.81a17.774,17.774,0,0,0,6.177,1.021,10.044,10.044,0,0,0,4.912-.973q1.7-.972,1.7-3.647a4.885,4.885,0,0,0-.875-3.186,5.532,5.532,0,0,0-2.674-1.6q-1.8-.558-4.524-1.143-2.188-.486-4.231-1.143a8.344,8.344,0,0,1-3.355-1.945A4.915,4.915,0,0,1,0,6.517,5.228,5.228,0,0,1,2.87,1.533,17.12,17.12,0,0,1,10.846,0a33.7,33.7,0,0,1,4.912.365,19.338,19.338,0,0,1,3.891.9v3.5a22.762,22.762,0,0,0-3.867-.973,25.98,25.98,0,0,0-4.4-.389A34.1,34.1,0,0,0,7.611,3.6a6.849,6.849,0,0,0-2.772.828A2.158,2.158,0,0,0,3.794,6.42,2.338,2.338,0,0,0,4.888,8.559,9.536,9.536,0,0,0,7.879,9.654q1.9.413,4.377,1.046a28.338,28.338,0,0,1,4.474,1.484,7.274,7.274,0,0,1,3.088,2.456,7.81,7.81,0,0,1,1.143,4.572q0,4.135-2.82,6.079A12.965,12.965,0,0,1,10.651,27.236Z" transform="translate(331.78 228.517)"/>
          <path id="Path_6032" data-name="Path 6032" d="M3.209,9.094V2.724H0L.194,0H6.662V9.094Z" transform="translate(345.058 258.33)"/>
          <path id="Path_6033" data-name="Path 6033" d="M1.556,26.748V16.1a6.691,6.691,0,0,1,.925-3.526A5.041,5.041,0,0,1,5.5,10.407L0,9.144V4.474A18.335,18.335,0,0,1,4.936,1.386,17.631,17.631,0,0,1,12.208,0q5.738,0,8.632,2.408t2.894,7.611v16.73H19.745V9.873q0-3.647-1.7-5.058T12.208,3.4a16.6,16.6,0,0,0-5.082.754A8.849,8.849,0,0,0,3.5,6.176V7.2l5.69,1.362v3.016a5.284,5.284,0,0,0-2.748,1.532,4.615,4.615,0,0,0-.9,3.087V26.748Z" transform="translate(357.556 228.517)"/>
          <path id="Path_6034" data-name="Path 6034" d="M9.289,27.236a35.141,35.141,0,0,1-4.742-.316,16.252,16.252,0,0,1-3.866-.949V22.42A19,19,0,0,0,4.62,23.49a24.807,24.807,0,0,0,3.988.34,15.238,15.238,0,0,0,5.326-.7,2.955,2.955,0,0,0,1.775-3.089,3.357,3.357,0,0,0-.9-2.552,6.909,6.909,0,0,0-2.554-1.411q-1.654-.558-3.988-1.337a38.1,38.1,0,0,1-4.036-1.628A8.8,8.8,0,0,1,1.167,10.8,5.614,5.614,0,0,1,0,7.1,6.086,6.086,0,0,1,2.554,1.823Q5.107,0,10.165,0A26.336,26.336,0,0,1,14.4.341a21.571,21.571,0,0,1,3.5.826v3.5A17.494,17.494,0,0,0,14.42,3.72,22.071,22.071,0,0,0,10.749,3.4a13.9,13.9,0,0,0-5.033.706A2.8,2.8,0,0,0,3.988,7a2.965,2.965,0,0,0,.9,2.261,7.38,7.38,0,0,0,2.578,1.459q1.678.608,4.061,1.386a29.014,29.014,0,0,1,4.231,1.728,8.042,8.042,0,0,1,2.894,2.382,6.255,6.255,0,0,1,1.047,3.77q0,3.939-2.87,5.593A15.006,15.006,0,0,1,9.289,27.236Z" transform="translate(387.077 228.517)"/>
          <path id="Path_6035" data-name="Path 6035" d="M9.289,27.236a35.137,35.137,0,0,1-4.742-.316,16.262,16.262,0,0,1-3.866-.949V22.42A19,19,0,0,0,4.62,23.49a24.814,24.814,0,0,0,3.988.34,15.24,15.24,0,0,0,5.326-.7,2.955,2.955,0,0,0,1.776-3.089,3.355,3.355,0,0,0-.9-2.552,6.9,6.9,0,0,0-2.553-1.411q-1.654-.558-3.988-1.337a38.173,38.173,0,0,1-4.037-1.628A8.8,8.8,0,0,1,1.167,10.8,5.611,5.611,0,0,1,0,7.1,6.084,6.084,0,0,1,2.553,1.823Q5.107,0,10.165,0A26.343,26.343,0,0,1,14.4.341a21.548,21.548,0,0,1,3.5.826v3.5A17.49,17.49,0,0,0,14.42,3.72,22.062,22.062,0,0,0,10.748,3.4a13.914,13.914,0,0,0-5.034.706A2.8,2.8,0,0,0,3.989,7a2.961,2.961,0,0,0,.9,2.261,7.365,7.365,0,0,0,2.577,1.459q1.678.608,4.061,1.386a28.98,28.98,0,0,1,4.231,1.728,8.044,8.044,0,0,1,2.894,2.382,6.255,6.255,0,0,1,1.046,3.77q0,3.939-2.869,5.593A15.008,15.008,0,0,1,9.289,27.236Z" transform="translate(411.588 228.517)"/>
          <path id="Path_6036" data-name="Path 6036" d="M13.375,26.749a13.355,13.355,0,0,1-5.447-1A15.636,15.636,0,0,1,3.842,23.1L3.6,26.261H0V0H3.989V19.745a13.109,13.109,0,0,0,3.525,2.578,9.94,9.94,0,0,0,4.548,1.021,6.642,6.642,0,0,0,4.669-1.41q1.507-1.41,1.508-4.669V0h3.988V17.313q0,4.571-2.334,7A8.606,8.606,0,0,1,13.375,26.749Z" transform="translate(437.072 229.004)"/>
        </g>
      </g>
    </g>
  </g>
</svg>
