<svg xmlns="http://www.w3.org/2000/svg" xmlns:xlink="http://www.w3.org/1999/xlink" width="1114" height="927" viewBox="0 0 1114 927">
  <defs>
    <clipPath id="clip-path">
      <rect id="Rectangle_198" data-name="Rectangle 198" width="1114" height="927" transform="translate(806)" fill="none"/>
    </clipPath>
    <radialGradient id="radial-gradient" cx="0.5" cy="0.503" r="0.508" gradientTransform="matrix(0.878, 0.17, -0.127, 0.828, 0.364, 0.295)" gradientUnits="objectBoundingBox">
      <stop offset="0" stop-color="#97d5ee"/>
      <stop offset="0.032" stop-color="#9ad5ed"/>
      <stop offset="0.45" stop-color="#c2daed"/>
      <stop offset="0.781" stop-color="#dadced"/>
      <stop offset="0.983" stop-color="#e4deed"/>
    </radialGradient>
    <clipPath id="clip-path-2">
      <path id="Path_5619" data-name="Path 5619" d="M1525.065,47.073l144.306,14.673-18.215,149.927-80.018,200.374,11.571,40.248,25.017-2.784,54.1-49.583L1704,394.222l26.743,32.481,41.508-9.929L1871.6,293.489l16.21,31.648,38.13,10.952,17.564-16.138L1986.773,159.7l-14.608-76.639L1977.329-70.8l86.189-305.406-249.139-30.017-163.5,301.853L1566.72-9.946Z" transform="translate(-1525.065 406.224)" fill="none"/>
    </clipPath>
  </defs>
  <g id="Mask_Group_6" data-name="Mask Group 6" transform="translate(-806)" clip-path="url(#clip-path)">
    <g id="Group_2527" data-name="Group 2527" transform="matrix(0.996, -0.087, 0.087, 0.996, 724.992, -194.459)">
      <path id="Path_5600" data-name="Path 5600" d="M1926.014,136.138c-8.341,103.209-.689,122.313-11.168,158.455-10.718,36.968-37.029,8.635-40.043-19.268-4.783-44.3,2.891-59.31-9.024-95.906-8.7-26.72-23.832,3.562-23.832,3.562l-50.827,107.085s-55.953,67.073-85.438,86.79c-28.582,19.114-52.273,26.018-58.9,22.294-14.934-8.4-4.264-37.465-4.264-37.465s-28.26,14.1-36.909,30.292c-17.588,32.918-37.359,1.146-35.822-17.875,2.794-34.561,16.328-64.77,44.245-139.112s36.091-156.4,36.091-156.4-105.751,110.922-124.2,115.184-23.384-5.294-17.058-26.286,1.055-39.57,14.855-78.122,46.4-104.931,55.324-125.438c14.853-34.143,72.071-101.316,92.113-126.189,33.341-41.374,68.54-65.087,89.2-118.409s35.6-135.766,35.6-135.766l163.519,24.8Z" transform="translate(-825.405 416.438)"/>
      <path id="Path_5601" data-name="Path 5601" d="M782.124,89.841s-54.043-7.722-55.3,5.294S723.665,502.5,723.665,502.5L699.088,783.756a13.062,13.062,0,0,0,12.24,13.3c96.75,6.077,723.181,45.436,735.938,46.6,13.825,1.257,15.082-3.77,16.339-24.718s36.972-419.2,36.972-419.2Z" transform="translate(-678.044 324.424)"/>
      <g id="Group_2523" data-name="Group 2523" transform="translate(0 381.816)">
        <path id="Path_5602" data-name="Path 5602" d="M805.518,50.731,1578.743,166.3,1415.9,855.872,674.594,745.787,797.559,56.448A7.03,7.03,0,0,1,805.518,50.731Z" transform="translate(-673.572 -50.652)" fill-rule="evenodd" fill="url(#radial-gradient)"/>
        <path id="Path_5603" data-name="Path 5603" d="M1415.674,858.468a1.042,1.042,0,0,1-.151-.01L674.215,748.372a1.021,1.021,0,0,1-.855-1.19L796.069,60.121a1.022,1.022,0,1,1,2.012.359L675.557,746.506,1414.894,856.3l162.371-687.579L905.807,68.361a1.022,1.022,0,1,1,.3-2.021l672.556,100.521a1.022,1.022,0,0,1,.844,1.245L1416.667,857.681A1.022,1.022,0,0,1,1415.674,858.468Z" transform="translate(-673.344 -52.227)" fill="#0d0d0c"/>
        <path id="Path_5604" data-name="Path 5604" d="M755.728,66.708l784.536,84.877L1433.955,849.551,688.365,769.6Z" transform="translate(-676.086 -53.584)" fill="#fff" fill-rule="evenodd"/>
        <path id="Path_5605" data-name="Path 5605" d="M1640.34,430.418c40.336-68.3,32.225-205.959,32.745-233.37s-1.882-33.092-7.718-33.723,52.3,5.678,52.3,5.678l19.888,40.1-38.216,121.59Z" transform="translate(-849.885 -71.215)"/>
        <path id="Path_5606" data-name="Path 5606" d="M1433.728,907.943c-.037,0-.074,0-.11-.006l-745.59-79.955a1.023,1.023,0,0,1-.908-1.112l41.718-444.993a1.022,1.022,0,1,1,2.035.19l-41.624,443.99L1432.872,905.8l60.364-374.821a1.022,1.022,0,1,1,2.018.325l-60.519,375.778A1.023,1.023,0,0,1,1433.728,907.943Z" transform="translate(-675.858 -110.954)" fill="#0d0d0c"/>
        <path id="Path_5607" data-name="Path 5607" d="M1516.093,420.9a1.268,1.268,0,0,1-.174-.012,1.226,1.226,0,0,1-1.041-1.386l37.963-267.111L770.795,67.786l-3.469,34.883a1.226,1.226,0,0,1-2.44-.243l3.591-36.114a1.225,1.225,0,0,1,1.352-1.1l784.536,84.877a1.225,1.225,0,0,1,1.082,1.391l-38.141,268.367A1.226,1.226,0,0,1,1516.093,420.9Z" transform="translate(-690.055 -53.31)" fill="#0d0d0c"/>
        <path id="Path_5608" data-name="Path 5608" d="M741.782,351.481c-.04,0-.081,0-.123-.007a1.226,1.226,0,0,1-1.1-1.341l2.214-22.268a1.226,1.226,0,0,1,2.44.243L743,350.376A1.226,1.226,0,0,1,741.782,351.481Z" transform="translate(-685.615 -101.061)" fill="#0d0d0c"/>
      </g>
      <g id="Group_2526" data-name="Group 2526" transform="translate(696.225 8.349)">
        <g id="Group_2525" data-name="Group 2525" clip-path="url(#clip-path-2)">
          <g id="Group_2524" data-name="Group 2524" transform="translate(-16.223 -255.174)">
            <path id="Path_5609" data-name="Path 5609" d="M1869.842-671.684s-35.339,234.762-103.8,384.21c-13.4,29.247-45.407,82.887-45.407,82.887s-80.281,68.2-102.882,107.863-58.686,115.942-67.133,131.065-14.742,46.554-18.334,62.825-26.75,53.968-25.784,65.679,25.354,18.453,54.3-3.679,42.614-44.927,49.724-75.1,55.134-81.1,58.025-82.437c0,0,8.528,22.014,7,44.7s-6.557,86.727-8.877,98.242-26.818,82.678-39.613,105.264-28.251,49.766-35.7,70.856,1.081,37.026,10.829,39.655,22.89-9.752,30.634-19.056a191.787,191.787,0,0,1,16.248-17.026s5.192,13.268,25.166-1.449,63.4-49.268,70.074-56.088,14.563-14.791,14.563-14.791-29.2,41.07-35.828,60.381-1.476,32.245,9.568,31.353,29.127-20.464,40.8-33.919,21.714-22.34,32.434-39.292,53.8-62.719,57.608-69,8.323-18.261,14.223-46.158,13.506-54.632,13.506-54.632,11.348,35.207,11.99,38.963-5.083,39.287-7.649,56.682-2.933,40.4,8.262,49.959,22.436,9.434,26.387-5.639,14.293-73.855,21.677-94.488,6.936-38.818,3.078-63.377-3.9-89.617-3.6-99.1,3.6-151.685,12.567-186.451,11.356-55.744,26.152-76.527,20.181-33.088,22.227-59.205,23.481-92.438,44.965-154.262,83.675-224.36,83.675-224.36Z" transform="translate(-1505.447 718.161)" fill="#f9cfcc"/>
            <path id="Path_5610" data-name="Path 5610" d="M1764.123,527.156a10.922,10.922,0,0,1-8.963-4.325c-4.456-5.737-4.643-16.363-.5-28.425,4.686-13.649,20.235-37.626,29.293-50.995-2.048,2.082-4.254,4.327-6.33,6.45-6.755,6.907-49.961,41.285-70.2,56.2-11.325,8.345-18.175,7.86-21.927,5.984a1.022,1.022,0,0,1,.914-1.828c3.241,1.622,9.307,1.93,19.8-5.8,19.7-14.518,63.4-49.278,69.95-55.98,6.6-6.746,14.489-14.716,14.568-14.8a1.022,1.022,0,0,1,1.559,1.311c-.291.41-29.188,41.171-35.695,60.121-3.917,11.409-3.849,21.319.182,26.509a9.133,9.133,0,0,0,8.337,3.494c11.817-.954,33.112-25.5,40.11-33.57,3.237-3.732,6.358-7.122,9.376-10.4,7.847-8.527,15.26-16.581,22.967-28.768,6.581-10.407,24.872-31.141,39.569-47.8,8.9-10.092,16.591-18.808,18.028-21.179,4.614-7.613,9.093-22.178,14.1-45.839,5.84-27.611,13.446-54.433,13.523-54.7a1.021,1.021,0,1,1,1.965.558c-.076.267-7.663,27.024-13.488,54.565-5.053,23.892-9.613,38.66-14.349,46.475-1.532,2.527-8.906,10.887-18.243,21.471-14.648,16.606-32.88,37.273-39.374,47.542-7.806,12.343-15.28,20.463-23.191,29.06-3.008,3.268-6.119,6.647-9.335,10.356-12.381,14.272-30.152,33.353-41.49,34.268Q1764.69,527.157,1764.123,527.156Z" transform="translate(-1538.028 535.739)" fill="#0d0d0c"/>
            <path id="Path_5611" data-name="Path 5611" d="M1604.793,361.5a11.825,11.825,0,0,1-3.1-.4c-4.292-1.157-8.264-4.695-10.9-9.7-4.437-8.442-4.667-19.842-.629-31.277,7.383-20.912,22.857-48.225,35.29-70.173l.48-.847c12.92-22.806,37.349-94.283,39.5-104.963,2.23-11.067,7.22-73.785,8.859-98.108,1.287-19.115-4.73-37.988-6.473-42.982-7.451,6.541-49.981,53.2-56.539,81.026-7.529,31.949-22.512,54.581-50.1,75.675-20.744,15.863-38.808,16.739-47.975,12.669-4.722-2.1-7.623-5.639-7.959-9.718-.56-6.792,6.2-21,13.367-36.049,5.344-11.225,10.869-22.833,12.437-29.934.338-1.53.7-3.195,1.085-4.967,3.835-17.642,9.629-44.3,17.356-58.136,3.051-5.462,9.7-18.885,18.112-35.879,14.6-29.5,34.607-69.891,49.026-95.193,22.006-38.617,99.3-104.887,102.979-108.026,1.853-3.113,32.387-54.523,45.27-82.645,67.622-147.61,103.369-381.59,103.722-383.936a1.022,1.022,0,0,1,.842-.856l271.071-45.455a1.019,1.019,0,0,1,.958.36,1.02,1.02,0,0,1,.165,1.012c-.622,1.626-62.43,163.229-83.665,224.332-28.139,80.971-43.249,132.786-44.912,154.006-2.141,27.32-8.36,39.98-22.413,59.718-11.59,16.278-15.562,32.967-21.06,56.064-1.5,6.319-3.06,12.853-4.935,20.124-7.275,28.223-10.917,126.674-12.441,182.849-.044,1.625-.075,2.773-.094,3.378-.271,8.7-.3,74.161,3.589,98.914,3.717,23.66,4.491,42.6-3.125,63.88-4.819,13.465-10.835,42.926-15.67,66.6-2.475,12.122-4.614,22.59-5.98,27.8-1.755,6.7-5.088,10.994-9.636,12.42-5.22,1.638-11.756-.587-18.4-6.264-12.454-10.635-10.74-36.446-8.609-50.885.53-3.591,1.194-7.954,1.91-12.651,2.627-17.258,6.226-40.891,5.743-43.709-.168-.985-1.284-5.076-5.644-18.973a1.022,1.022,0,0,1,1.949-.611c3.527,11.244,5.448,17.717,5.708,19.24.5,2.912-2.181,21.007-5.737,44.361-.716,4.694-1.379,9.054-1.908,12.642-2.069,14.021-3.792,39.036,7.913,49.032,6.093,5.2,11.941,7.287,16.465,5.868,3.843-1.2,6.7-5,8.272-10.989,1.352-5.159,3.485-15.6,5.954-27.695,4.847-23.736,10.881-53.277,15.749-66.879,7.47-20.871,6.7-39.532,3.03-62.874-3.91-24.886-3.885-90.568-3.613-99.3.019-.6.05-1.748.094-3.37,1.527-56.261,5.179-154.887,12.506-183.3,1.87-7.253,3.423-13.777,4.924-20.087,5.552-23.323,9.563-40.174,21.385-56.777,14.463-20.315,19.968-32.236,22.04-58.692,1.7-21.7,16.426-72.239,45.02-154.518,20.079-57.778,76.4-205.331,83.048-222.722l-268.58,45.037c-1.085,7.028-9.964,63.488-26.129,135.4-15.88,70.641-42.241,171.069-77.644,248.35-13.269,28.963-45.139,82.449-45.458,82.986a1.03,1.03,0,0,1-.217.255c-.8.681-80.4,68.539-102.656,107.59-14.389,25.251-34.375,65.615-48.97,95.089-8.427,17.019-15.083,30.462-18.159,35.969-7.578,13.568-13.565,41.114-17.142,57.574-.386,1.774-.748,3.441-1.086,4.972-1.618,7.329-6.946,18.522-12.587,30.372-6.731,14.139-13.69,28.76-13.175,35,.273,3.311,2.734,6.235,6.752,8.018,8.655,3.844,25.871,2.9,45.9-12.425,27.179-20.783,41.938-43.07,49.35-74.52,7.11-30.168,55.211-81.57,58.59-83.131a1.022,1.022,0,0,1,1.382.558c.087.222,8.593,22.487,7.068,45.134-1.512,22.436-6.535,86.667-8.9,98.375-2.165,10.742-26.733,82.63-39.726,105.567l-.479.847c-12.394,21.876-27.819,49.1-35.142,69.845-3.849,10.9-3.662,21.707.512,29.646,2.369,4.508,5.876,7.672,9.62,8.683,10.61,2.866,25.326-13.608,29.584-18.723a194.435,194.435,0,0,1,16.346-17.128,1.022,1.022,0,1,1,1.373,1.513,192.5,192.5,0,0,0-16.149,16.922C1628.174,347.967,1615.648,361.5,1604.793,361.5Z" transform="translate(-1505.219 718.389)" fill="#0d0d0c"/>
            <path id="Path_5612" data-name="Path 5612" d="M1698,134.542a66.4,66.4,0,0,1-4.726-15.39,75.693,75.693,0,0,1-1.038-16.148l.1-2.024c.047-.674.123-1.345.185-2.018.13-1.345.235-2.692.464-4.023.208-1.335.4-2.671.684-3.991l.4-1.983c.135-.66.325-1.31.485-1.964a59.956,59.956,0,0,1,5.774-15.02,109.177,109.177,0,0,0-3.9,15.425c-.253,1.3-.432,2.6-.637,3.907-.224,1.3-.352,2.613-.5,3.922-.172,1.306-.279,2.619-.38,3.932-.049.656-.115,1.311-.152,1.968l-.069,1.972-.1,1.972c-.025.657,0,1.315-.01,1.972.014,1.315-.03,2.634.055,3.947.062,1.314.083,2.633.179,3.946.135,1.31.244,2.623.348,3.939A131.975,131.975,0,0,0,1698,134.542Z" transform="translate(-1539.351 574.094)" fill="#0d0d0c"/>
            <path id="Path_5613" data-name="Path 5613" d="M1688.351,498.1a96.265,96.265,0,0,1,9.562-11.125c3.391-3.526,6.81-7.017,10.145-10.578a190.124,190.124,0,0,0,18.463-22.59,184.464,184.464,0,0,0,14.46-25.273c4.15-8.824,8.071-17.763,11.864-26.758,3.834-8.978,7.51-18.027,11.138-27.1,3.666-9.055,7.2-18.166,10.813-27.245,3.6-9.087,7.129-18.2,10.806-27.27,1.859-4.532,3.876-8.989,5.847-13.461s3.964-8.939,5.978-13.392q-2.657,6.838-5.379,13.645c-1.8,4.544-3.648,9.069-5.327,13.649-3.442,9.14-6.773,18.333-10.163,27.5-6.784,18.341-13.842,36.59-21.456,54.624-3.846,9-7.787,17.965-12.031,26.8a171.741,171.741,0,0,1-15.013,25.357,189.382,189.382,0,0,1-19.14,22.341c-3.479,3.448-7.03,6.812-10.545,10.2A110.9,110.9,0,0,0,1688.351,498.1Z" transform="translate(-1538.653 533.687)" fill="#0d0d0c"/>
            <path id="Path_5614" data-name="Path 5614" d="M1819.732,429.248c5.2-5.451,10.588-10.733,15.371-16.508a75.469,75.469,0,0,0,11.953-18.8c1.512-3.413,2.611-6.91,3.869-10.525,1.264-3.567,2.605-7.093,3.968-10.611,2.748-7.027,5.645-13.987,8.593-20.926,5.965-13.848,12.239-27.567,19.1-41.006,3.42-6.723,7.015-13.363,10.886-19.845,1.964-3.224,3.972-6.424,6.166-9.5a45.71,45.71,0,0,1,7.387-8.551,32.262,32.262,0,0,0-3.666,4.273c-.562.751-1.121,1.5-1.633,2.291s-1.062,1.547-1.55,2.35c-2.026,3.16-3.867,6.439-5.661,9.738-3.6,6.592-6.954,13.323-10.215,20.1-3.234,6.787-6.425,13.6-9.49,20.463q-4.644,10.28-9.07,20.658-4.475,10.355-8.693,20.815c-1.41,3.482-2.8,6.974-4.1,10.485l-1.927,5.312c-.317.9-.684,1.78-1.063,2.656s-.729,1.762-1.158,2.616a65.984,65.984,0,0,1-5.668,9.92,86.742,86.742,0,0,1-7.122,8.876C1830.865,419.091,1825.315,424.192,1819.732,429.248Z" transform="translate(-1562.638 537.399)" fill="#0d0d0c"/>
            <path id="Path_5615" data-name="Path 5615" d="M1979.023,265.05a89.5,89.5,0,0,1,3.894-12.886c1.6-4.194,3.436-8.294,5.4-12.325,1.022-2,2.028-4,3.1-5.964s2.171-3.92,3.34-5.832a115.38,115.38,0,0,1,7.494-11.165c-1.871,4.084-3.834,8.089-5.814,12.083l-5.926,11.964c-.992,1.989-1.975,3.983-2.933,5.988-1.014,1.98-1.905,4.014-2.908,6Z" transform="translate(-1591.72 547.641)" fill="#0d0d0c"/>
            <path id="Path_5616" data-name="Path 5616" d="M1811.648,221.084a82.258,82.258,0,0,1,1.792,11.76,45.159,45.159,0,0,1-.557,11.977,41.175,41.175,0,0,1-4.029,11.307,58.725,58.725,0,0,1-6.611,9.9c1.945-3.454,3.865-6.893,5.463-10.458a49.8,49.8,0,0,0,3.573-11.057,56,56,0,0,0,.893-11.617C1812.119,228.979,1811.837,225.043,1811.648,221.084Z" transform="translate(-1559.446 546.873)" fill="#0d0d0c"/>
            <path id="Path_5617" data-name="Path 5617" d="M1908.156,264.133a90.414,90.414,0,0,0,7.479-10.792,39.124,39.124,0,0,0,4.483-11.956c.191-1.047.333-2.107.484-3.163.066-1.07.176-2.135.208-3.21.089-2.151.009-4.314-.109-6.49-.276-4.35-.861-8.72-1.313-13.14a71.332,71.332,0,0,1,3.217,12.943,40.8,40.8,0,0,1-.08,13.519,34.982,34.982,0,0,1-2,6.54,28.324,28.324,0,0,1-1.494,3.065l-.828,1.486c-.29.486-.632.938-.944,1.408A45.8,45.8,0,0,1,1908.156,264.133Z" transform="translate(-1578.782 547.914)" fill="#0d0d0c"/>
            <path id="Path_5618" data-name="Path 5618" d="M1982.834,203.015c.335-1.092.765-2.108,1.169-3.131l1.157-3.061c.343-1.028.77-2.017,1.074-3.046l.509-1.521.45-1.534a53.777,53.777,0,0,0,1.4-6.221,34.446,34.446,0,0,0,.463-6.492,14.548,14.548,0,0,1,1.461,6.627,24.176,24.176,0,0,1-.967,6.76l-.514,1.628c-.2.532-.415,1.056-.634,1.579a27.958,27.958,0,0,1-1.5,3.038c-.55.984-1.223,1.9-1.848,2.825A33.439,33.439,0,0,1,1982.834,203.015Z" transform="translate(-1592.415 554.737)" fill="#0d0d0c"/>
          </g>
        </g>
      </g>
      <g id="Group_2798" data-name="Group 2798" transform="translate(206.139 564.27) rotate(5)">
        <g id="Group_2794" data-name="Group 2794" transform="translate(72.508)">
          <path id="Path_6037" data-name="Path 6037" d="M-2241.518,1723.615v-18a11.157,11.157,0,0,1,3.251-8.411q3.251-3.144,10.453-3.145t10.427,3.145a11.213,11.213,0,0,1,3.224,8.411v18h-7.255v-18.54a4.837,4.837,0,0,0-1.693-4.031,7.383,7.383,0,0,0-4.7-1.344q-6.449,0-6.449,5.375v5.213a9.6,9.6,0,0,1,2.284-1.236,7.676,7.676,0,0,1,2.768-.484h3.493l.216,5.751h-3.87a8.31,8.31,0,0,0-2.687.4,8.1,8.1,0,0,0-2.2,1.156v7.738Z" transform="translate(2241.518 -1670.946)" fill="#ed759d"/>
          <path id="Path_6038" data-name="Path 6038" d="M-2208.324,1759v-6.234h-3.225l.269-4.622h9.083V1759Z" transform="translate(2229.445 -1692.736)" fill="#ed759d"/>
          <path id="Path_6039" data-name="Path 6039" d="M-2156.792,1724.153a9.248,9.248,0,0,1-7.229-2.822q-2.553-2.821-2.552-7.874v-7.524q0-3.386-1.532-4.81t-4.864-1.423a13.461,13.461,0,0,0-4.433.7,9.789,9.789,0,0,0-3.252,1.772v.753l5.965,1.612v4.407a4.4,4.4,0,0,0-2.875,1.747,7.465,7.465,0,0,0-.726,3.735v1.559a2.037,2.037,0,0,0,.483,1.532,2.131,2.131,0,0,0,1.506.457h2.847v5.642h-6.556a5.27,5.27,0,0,1-4-1.611,5.7,5.7,0,0,1-1.532-4.085v-3.547a10.833,10.833,0,0,1,.834-4.38,4.893,4.893,0,0,1,3.305-2.66l-5.483-1.451v-6.933a21.68,21.68,0,0,1,5.885-3.386,22.083,22.083,0,0,1,8.411-1.505,19.3,19.3,0,0,1,6.987,1.129,8.7,8.7,0,0,1,4.461,3.762,14.018,14.018,0,0,1,1.559,7.148v6.933q0,2.956,1.316,4.219a5.423,5.423,0,0,0,3.9,1.264,8.8,8.8,0,0,0,3.843-.861,9.589,9.589,0,0,0,2.982-2.149v-20.906h7.256v29.021h-6.664l-.323-2.848a12.555,12.555,0,0,1-4.165,2.526A15.449,15.449,0,0,1-2156.792,1724.153Z" transform="translate(2219.511 -1670.946)" fill="#ed759d"/>
          <path id="Path_6040" data-name="Path 6040" d="M-2093.863,1714.77q-3.494,0-4.919-1.45a6.318,6.318,0,0,1-1.424-4.569v-23.109a10.81,10.81,0,0,1,.968-4.81,7.994,7.994,0,0,1,2.58-3.09h-8.33V1672.1h17.091v5.267a6.946,6.946,0,0,0-3.87,3.037,11.206,11.206,0,0,0-1.182,5.562v20.907a1.971,1.971,0,0,0,2.2,2.257h1.828v5.642Z" transform="translate(2186.518 -1662.1)" fill="#ed759d"/>
          <path id="Path_6041" data-name="Path 6041" d="M-2053.84,1724.517a15.27,15.27,0,0,1-5.428-.913,15.769,15.769,0,0,1-4.353-2.473l-.323,2.848h-6.664v-29.021h7.255v20.907a9.171,9.171,0,0,0,3.144,2.149,9.75,9.75,0,0,0,3.95.861,5.423,5.423,0,0,0,3.9-1.264q1.317-1.263,1.317-4.219v-18.434h7.255v18.864q0,5.052-2.687,7.874A9.682,9.682,0,0,1-2053.84,1724.517Z" transform="translate(2172.669 -1671.309)" fill="#ed759d"/>
          <path id="Path_6042" data-name="Path 6042" d="M-2038.3,1682.315v-8.868h7.256v8.868Z" transform="translate(2159.653 -1662.644)" fill="#ed759d"/>
          <path id="Path_6043" data-name="Path 6043" d="M-2008.466,1723.978q-3.494,0-4.918-1.451a6.314,6.314,0,0,1-1.425-4.569v-23h7.255v21.122a1.972,1.972,0,0,0,2.2,2.257h1.827v5.643Z" transform="translate(2150.191 -1671.309)" fill="#ed759d"/>
          <path id="Path_6044" data-name="Path 6044" d="M-1978.875,1724.153a13.984,13.984,0,0,1-5.052-.887,7.666,7.666,0,0,1-3.682-2.9,9.357,9.357,0,0,1-1.37-5.348,8.03,8.03,0,0,1,2.955-6.691q2.956-2.338,8.491-2.338h8.224v-1.4a4.392,4.392,0,0,0-1.506-3.79q-1.5-1.1-5.321-1.1a33.758,33.758,0,0,0-4.971.349,28.684,28.684,0,0,0-4.649,1.1v-5.428a37.467,37.467,0,0,1,5.106-1.182,34.645,34.645,0,0,1,5.7-.484,26.628,26.628,0,0,1,2.741.135,18.936,18.936,0,0,1,2.418.4h10.1l-.376,5.535h-3.278a7.8,7.8,0,0,1,.967,2.365,12.176,12.176,0,0,1,.323,2.849v18.272h-7.255v-12.307h-7.793a7.078,7.078,0,0,0-3.654.806,3.1,3.1,0,0,0-1.344,2.9,2.993,2.993,0,0,0,1.182,2.741,7.76,7.76,0,0,0,3.977.753,18.6,18.6,0,0,0,2.015-.108,9.208,9.208,0,0,0,1.693-.323v5.321a16.358,16.358,0,0,1-2.5.538A21.984,21.984,0,0,1-1978.875,1724.153Z" transform="translate(2139.785 -1670.946)" fill="#ed759d"/>
          <path id="Path_6045" data-name="Path 6045" d="M-1983.219,1682.024l.377-4.944h17.2v-4.354h5.911v9.3Z" transform="translate(2137.465 -1662.354)" fill="#ed759d"/>
          <path id="Path_6046" data-name="Path 6046" d="M-1954.239,1662.881v-7.524h5.912v7.524Z" transform="translate(2125.791 -1655.357)" fill="#ed759d"/>
          <path id="Path_6047" data-name="Path 6047" d="M-1920.069,1724.153a26.675,26.675,0,0,1-6.987-.86,10.252,10.252,0,0,1-5.052-2.929,7.949,7.949,0,0,1-1.881-5.563,7.59,7.59,0,0,1,.887-3.574,6.527,6.527,0,0,1,2.767-2.714,5.917,5.917,0,0,1-2.552-2.2,6.477,6.477,0,0,1-.995-3.655,7.781,7.781,0,0,1,2.687-6.422,10.665,10.665,0,0,1,6.934-2.177,18.457,18.457,0,0,1,2.848.189,10.578,10.578,0,0,1,2.15.564v5.321a14.119,14.119,0,0,0-3.708-.429,5.51,5.51,0,0,0-3.01.672,2.525,2.525,0,0,0-1.021,2.284,2.605,2.605,0,0,0,1.129,2.446,6.76,6.76,0,0,0,3.386.672h3.01l.269,5.32h-3.332q-4.569,0-4.568,3.708a3.008,3.008,0,0,0,1.638,2.767,10.55,10.55,0,0,0,5.08.942q3.492,0,5.159-1.452a5.261,5.261,0,0,0,1.667-4.193v-18.273h7.255v17.627q0,6.289-3.573,9.11T-1920.069,1724.153Z" transform="translate(2117.633 -1670.946)" fill="#ed759d"/>
          <path id="Path_6048" data-name="Path 6048" d="M-1868.283,1724.517a23.917,23.917,0,0,1-3.09-.215,18.048,18.048,0,0,1-2.875-.591l-8.169-19.886h7.04l6.4,15.532q4.031,0,5.831-2.714t1.8-8.089a16.384,16.384,0,0,0-.617-5.052,4.47,4.47,0,0,0-2.016-2.607,8.011,8.011,0,0,0-3.87-.779h-2.2v-5.16h3.225q6.395,0,9.378,3.359t2.982,10.238a20.407,20.407,0,0,1-1.773,9.164,11.45,11.45,0,0,1-4.864,5.16A15.083,15.083,0,0,1-1868.283,1724.517Z" transform="translate(2096.859 -1671.309)" fill="#ed759d"/>
          <path id="Path_6049" data-name="Path 6049" d="M-1823.067,1723.978q-3.494,0-4.918-1.451a6.314,6.314,0,0,1-1.425-4.569v-23h7.255v21.122a1.972,1.972,0,0,0,2.2,2.257h1.827v5.643Z" transform="translate(2075.505 -1671.309)" fill="#ed759d"/>
          <path id="Path_6050" data-name="Path 6050" d="M-1788.236,1718.715q-6.4,0-10.1-3.037t-3.708-9.163v-17.359h7.255v17.467q0,6.449,6.557,6.45t6.557-6.45v-26.067h7.255v25.959q0,6.127-3.708,9.163T-1788.236,1718.715Z" transform="translate(2064.483 -1665.508)" fill="#ed759d"/>
          <path id="Path_6051" data-name="Path 6051" d="M-1797.365,1681.682a7.236,7.236,0,0,1-5.106-1.692,6.236,6.236,0,0,1-1.827-4.811,6.52,6.52,0,0,1,1.934-4.891,7.623,7.623,0,0,1,5.536-1.881h12.039l-.322,4.031h-11.018a4.1,4.1,0,0,0-2.418.617,2.444,2.444,0,0,0-.86,2.124,2.232,2.232,0,0,0,2.526,2.525,2.544,2.544,0,0,0,1.934-.59,2.225,2.225,0,0,0,.537-1.559v-.967h4.3v.967a1.852,1.852,0,0,0,.564,1.559,2.877,2.877,0,0,0,1.747.43h2.042v4.031h-2.58a7.146,7.146,0,0,1-2.419-.4,2.624,2.624,0,0,1-1.558-1.263,3.512,3.512,0,0,1-2.1,1.317A10.487,10.487,0,0,1-1797.365,1681.682Z" transform="translate(2065.389 -1660.614)" fill="#ed759d"/>
          <path id="Path_6052" data-name="Path 6052" d="M-1735.118,1724.517a9.68,9.68,0,0,1-7.363-2.822q-2.688-2.822-2.687-7.874v-18.864h7.255v18.434q0,2.956,1.317,4.219a5.42,5.42,0,0,0,3.9,1.264,9.688,9.688,0,0,0,3.977-.861,9.248,9.248,0,0,0,3.117-2.149v-20.907h7.255v29.021h-6.664l-.322-2.848a15.772,15.772,0,0,1-4.353,2.473A15.279,15.279,0,0,1-1735.118,1724.517Z" transform="translate(2041.569 -1671.309)" fill="#ed759d"/>
          <path id="Path_6053" data-name="Path 6053" d="M-2224.059,1812.4v-10.8h6.127l-.753,10.8Zm9.3,0v-10.8h6.127l-.752,10.8Z" transform="translate(2234.485 -1703.909)" fill="#ed759d"/>
          <path id="Path_6054" data-name="Path 6054" d="M-2184.046,1830.77q-3.494,0-4.917-1.451a6.315,6.315,0,0,1-1.425-4.569v-23.593a8.357,8.357,0,0,0-1.316-5.051,8.015,8.015,0,0,0-4-2.687V1788.1h17.574v5.643h-8.438a6.481,6.481,0,0,1,2.579,2.794,10.068,10.068,0,0,1,.86,4.408v21.928a1.972,1.972,0,0,0,2.2,2.257h1.827v5.643Z" transform="translate(2223.064 -1698.471)" fill="#ed759d"/>
          <path id="Path_6055" data-name="Path 6055" d="M-2152.722,1840.154a37.608,37.608,0,0,1-5.778-.43,20.54,20.54,0,0,1-4.487-1.129v-5.858a21.808,21.808,0,0,0,4.487,1.317,24.324,24.324,0,0,0,4.434.458,17.269,17.269,0,0,0,5.078-.538,2.137,2.137,0,0,0,1.586-2.2,2.451,2.451,0,0,0-.833-1.989,7.83,7.83,0,0,0-2.552-1.263q-1.72-.564-4.407-1.478a22,22,0,0,1-6.154-3.144,6.182,6.182,0,0,1-2.23-5.187,7.613,7.613,0,0,1,3.01-6.261q3.009-2.392,9.083-2.392a34.263,34.263,0,0,1,5.052.377,25.2,25.2,0,0,1,4.138.914v5.8a16.943,16.943,0,0,0-4.058-1.1,27.539,27.539,0,0,0-4.111-.349,15.119,15.119,0,0,0-4.38.563,2.265,2.265,0,0,0-1.855,2.284,1.989,1.989,0,0,0,.941,1.72,10.053,10.053,0,0,0,2.687,1.182q1.746.538,4.165,1.4a24.861,24.861,0,0,1,4.864,2.151,7.02,7.02,0,0,1,2.687,2.741,8.737,8.737,0,0,1,.832,4.031,6.969,6.969,0,0,1-3.251,6.315Q-2147.026,1840.155-2152.722,1840.154Z" transform="translate(2210.121 -1707.317)" fill="#ed759d"/>
          <path id="Path_6056" data-name="Path 6056" d="M-2116.6,1839.615v-18a11.158,11.158,0,0,1,3.252-8.411q3.25-3.144,10.453-3.145t10.427,3.145a11.213,11.213,0,0,1,3.224,8.411v18h-7.255v-18.541a4.837,4.837,0,0,0-1.693-4.031,7.385,7.385,0,0,0-4.7-1.344q-6.45,0-6.449,5.375v5.213a9.609,9.609,0,0,1,2.284-1.236,7.672,7.672,0,0,1,2.768-.484h3.493l.216,5.751h-3.87a8.306,8.306,0,0,0-2.687.4,8.11,8.11,0,0,0-2.2,1.156v7.739Z" transform="translate(2191.196 -1707.317)" fill="#ed759d"/>
          <path id="Path_6057" data-name="Path 6057" d="M-2053.556,1839.978q-3.494,0-4.918-1.45a6.318,6.318,0,0,1-1.424-4.569v-23h7.255v21.122a1.971,1.971,0,0,0,2.2,2.257h1.827v5.643Z" transform="translate(2168.354 -1707.68)" fill="#ed759d"/>
          <path id="Path_6058" data-name="Path 6058" d="M-2018.726,1840.516q-6.4,0-10.1-3.037t-3.708-9.163v-17.359h7.255v17.467q0,6.45,6.557,6.45t6.557-6.45v-17.467h7.256v17.359q0,6.127-3.708,9.163T-2018.726,1840.516Z" transform="translate(2157.333 -1707.68)" fill="#ed759d"/>
          <path id="Path_6059" data-name="Path 6059" d="M-1967.207,1839.615v-17.842a7.661,7.661,0,0,0-1.128-4.488q-1.13-1.586-4.515-1.585a19.006,19.006,0,0,0-3.763.4,22.946,22.946,0,0,0-3.547.995v-5.321a18.028,18.028,0,0,1,3.978-1.236,23.536,23.536,0,0,1,4.729-.484q6.127,0,8.815,2.607t2.687,8.089v18.864Z" transform="translate(2136.232 -1707.317)" fill="#ed759d"/>
          <path id="Path_6060" data-name="Path 6060" d="M-1935.7,1839.978v-29.021h7.256v8.814h7.2q2.794,0,3.843-1.21a5.5,5.5,0,0,0,1.048-3.681v-3.923h7.256v3.655a11.962,11.962,0,0,1-.888,4.756,5.482,5.482,0,0,1-3.251,2.983,5.257,5.257,0,0,1,3.09,2.66,9.83,9.83,0,0,1,.833,4.165v10.8h-7.256v-10q0-2.739-1.047-3.815t-3.79-1.075h-7.04v14.887Z" transform="translate(2118.323 -1707.68)" fill="#ed759d"/>
          <path id="Path_6061" data-name="Path 6061" d="M-1874.884,1840.154a23.356,23.356,0,0,1-9.244-1.72V1832.9a22.724,22.724,0,0,0,3.6,1.156,17.01,17.01,0,0,0,3.924.458q5.05,0,7.229-2.1t2.177-7.309q0-5.214-2.177-7.31t-7.229-2.1a18.115,18.115,0,0,0-3.924.429,18.521,18.521,0,0,0-3.6,1.183v-5.536a23.369,23.369,0,0,1,9.244-1.721q7.362,0,10.964,3.843t3.6,11.206q0,7.363-3.6,11.2T-1874.884,1840.154Z" transform="translate(2097.548 -1707.317)" fill="#ed759d"/>
          <path id="Path_6062" data-name="Path 6062" d="M-1828.336,1839.615v-17.842a7.657,7.657,0,0,0-1.128-4.488q-1.128-1.586-4.515-1.585a19.006,19.006,0,0,0-3.763.4,22.918,22.918,0,0,0-3.547.995v-5.321a18.022,18.022,0,0,1,3.977-1.236,23.536,23.536,0,0,1,4.729-.484q6.126,0,8.814,2.607t2.687,8.089v18.864Z" transform="translate(2080.29 -1707.317)" fill="#ed759d"/>
          <path id="Path_6063" data-name="Path 6063" d="M-1786.778,1840.516a9.682,9.682,0,0,1-7.363-2.822q-2.688-2.822-2.687-7.874v-18.864h7.255v18.434q0,2.956,1.317,4.219a5.421,5.421,0,0,0,3.9,1.264,9.7,9.7,0,0,0,3.978-.861,9.251,9.251,0,0,0,3.117-2.149v-20.907h7.256v29.021h-6.665l-.323-2.848a15.746,15.746,0,0,1-4.353,2.473A15.275,15.275,0,0,1-1786.778,1840.516Z" transform="translate(2062.38 -1707.68)" fill="#ed759d"/>
          <path id="Path_6064" data-name="Path 6064" d="M-1743.1,1812.4v-10.8h6.127l-.752,10.8Zm9.3,0v-10.8h6.127l-.752,10.8Z" transform="translate(2040.736 -1703.909)" fill="#ed759d"/>
        </g>
        <g id="Group_2795" data-name="Group 2795" transform="translate(0 164.697)">
          <path id="Path_6065" data-name="Path 6065" d="M-2313.741,1946.226a4.251,4.251,0,0,1-3.283-1.288,4.777,4.777,0,0,1-1.191-3.38v-21.593h3.988v20.62q0,2.383,2.286,2.383h2.286v3.258Zm11.137,0a4.25,4.25,0,0,1-3.283-1.288,4.778,4.778,0,0,1-1.192-3.38v-21.593h3.989v20.62q0,2.383,2.285,2.383h2.286v3.258Z" transform="translate(2318.215 -1899.392)"/>
          <path id="Path_6066" data-name="Path 6066" d="M-2272.43,1946.5a10.4,10.4,0,0,1-5.4-1.411,9.495,9.495,0,0,1-3.745-4.353,18.214,18.214,0,0,1-1.362-7.61q0-6.664,2.116-10.262a6.663,6.663,0,0,1,6.055-3.6,6.446,6.446,0,0,1,3.161.681,6.967,6.967,0,0,1,2.14,1.9,7.347,7.347,0,0,1,2.65-1.9,8.111,8.111,0,0,1,3.234-.681,5.426,5.426,0,0,1,4.328,1.678,7.16,7.16,0,0,1,1.459,4.839v20.232h-3.988v-19.7a4.9,4.9,0,0,0-.609-2.845,2.758,2.758,0,0,0-2.31-.8,4.056,4.056,0,0,0-1.994.511,3.467,3.467,0,0,0-1.459,1.775h-2.675a5.067,5.067,0,0,0-1.41-1.775,3.527,3.527,0,0,0-2.043-.511,3.676,3.676,0,0,0-3.72,2.846,24.778,24.778,0,0,0-.948,7.611q0,5.543,1.824,7.757a6.559,6.559,0,0,0,5.374,2.212,17,17,0,0,0,1.823-.1,8.379,8.379,0,0,0,1.532-.292v3.307A14.166,14.166,0,0,1-2272.43,1946.5Z" transform="translate(2307.447 -1899.178)"/>
          <path id="Path_6067" data-name="Path 6067" d="M-2252.485,1910.134v-7.879h3.988v7.879Z" transform="translate(2298.153 -1893.986)"/>
          <path id="Path_6068" data-name="Path 6068" d="M-2232.541,1946.226a4.251,4.251,0,0,1-3.283-1.288,4.778,4.778,0,0,1-1.191-3.38v-21.593h3.988v20.62q0,2.383,2.286,2.383h2.772v3.258Z" transform="translate(2293.43 -1899.392)"/>
          <path id="Path_6069" data-name="Path 6069" d="M-2211.734,1946.226l-6.031-26.261h4.085l4.328,20.669,5.544-17.363v-3.306h2.966l5.934,20.669,4.28-20.669h4.037l-5.982,26.261h-3.988l-5.4-18.481-5.836,18.481Z" transform="translate(2287.555 -1899.392)"/>
          <path id="Path_6070" data-name="Path 6070" d="M-2205.025,1910.518l.194-2.87h9.97v-4.135h3.016v4.135h3.113v-4.135h3.015v7Z" transform="translate(2283.666 -1894.371)"/>
          <path id="Path_6071" data-name="Path 6071" d="M-2182.135,1897.114v-6.76h3.355v6.76Z" transform="translate(2276.679 -1890.354)"/>
          <path id="Path_6072" data-name="Path 6072" d="M-2156.6,1946.5a27.1,27.1,0,0,1-5.641-.56,26.792,26.792,0,0,1-4.426-1.288v-13.229h9.629l.195,3.258h-5.836v7.441a17.726,17.726,0,0,0,2.845.706,18.824,18.824,0,0,0,3.137.267,10.98,10.98,0,0,0,5.034-.973,5.742,5.742,0,0,0,2.723-3.21,17.217,17.217,0,0,0,.851-5.982,16.882,16.882,0,0,0-.9-6.128,5.663,5.663,0,0,0-3.016-3.185,14.349,14.349,0,0,0-5.763-.949,33.14,33.14,0,0,0-4.3.292,21.857,21.857,0,0,0-4.207.973v-3.307a22.77,22.77,0,0,1,4.45-1.021,37.794,37.794,0,0,1,5.083-.341q6.711,0,9.678,3.429t2.967,10.237q0,6.664-2.967,10.116T-2156.6,1946.5Z" transform="translate(2271.957 -1899.178)"/>
          <path id="Path_6073" data-name="Path 6073" d="M-2117.1,1946.714a8.43,8.43,0,0,1-6.493-2.432q-2.261-2.431-2.261-7v-17.313h3.988v17.264q0,3.259,1.459,4.669a6.454,6.454,0,0,0,4.62,1.411,10.281,10.281,0,0,0,4.572-1.021,12.745,12.745,0,0,0,3.6-2.577v-19.745h3.988v26.261h-3.6l-.242-3.161a14.428,14.428,0,0,1-4.135,2.65A13.926,13.926,0,0,1-2117.1,1946.714Z" transform="translate(2259.501 -1899.392)"/>
          <path id="Path_6074" data-name="Path 6074" d="M-2074.349,1946.714q-5.157,0-7.9-2.456a8.933,8.933,0,0,1-2.748-7.028v-3.55a5.929,5.929,0,0,1,.681-2.771,15.366,15.366,0,0,1,1.6-2.481q.923-1.167,1.6-2.188a3.482,3.482,0,0,0,.681-1.9q0-.825-.365-1.045a2.557,2.557,0,0,0-1.24-.219h-3.5l.341-3.112h5.4q3.356,0,3.356,3.306a6.351,6.351,0,0,1-.681,2.967,17.5,17.5,0,0,1-1.6,2.529,20.937,20.937,0,0,0-1.6,2.432,5.279,5.279,0,0,0-.681,2.625v3.842a5,5,0,0,0,1.8,4.329,8.086,8.086,0,0,0,4.863,1.313,8.3,8.3,0,0,0,4.936-1.313q1.824-1.314,1.824-4.426v-17.605h3.988v17.215a8.854,8.854,0,0,1-2.844,7.052Q-2069.292,1946.713-2074.349,1946.714Z" transform="translate(2247.194 -1899.392)"/>
          <path id="Path_6075" data-name="Path 6075" d="M-2035.568,1946.5a27.105,27.105,0,0,1-5.641-.56,26.8,26.8,0,0,1-4.426-1.288v-13.229h9.63l.195,3.258h-5.836v7.441a17.722,17.722,0,0,0,2.845.706,18.826,18.826,0,0,0,3.137.267,10.98,10.98,0,0,0,5.034-.973,5.742,5.742,0,0,0,2.724-3.21,17.23,17.23,0,0,0,.851-5.982,16.872,16.872,0,0,0-.9-6.128,5.663,5.663,0,0,0-3.015-3.185,14.354,14.354,0,0,0-5.763-.949,33.137,33.137,0,0,0-4.3.292,21.857,21.857,0,0,0-4.207.973v-3.307a22.769,22.769,0,0,1,4.45-1.021,37.793,37.793,0,0,1,5.082-.341q6.712,0,9.678,3.429t2.967,10.237q0,6.664-2.967,10.116T-2035.568,1946.5Z" transform="translate(2235.015 -1899.178)"/>
          <path id="Path_6076" data-name="Path 6076" d="M-1996.3,1946.714q-.923,0-2.164-.1a7.5,7.5,0,0,1-2.116-.437l-7.392-17.995h3.891l6.225,15.125q4.62.341,6.833-2.383t2.214-8.706a18.236,18.236,0,0,0-.633-5.374,4.652,4.652,0,0,0-2.115-2.8,8.629,8.629,0,0,0-4.158-.827h-1.7v-3.258h2.14q5.592,0,8.025,2.99t2.431,9.216a19.522,19.522,0,0,1-1.532,8.365,10.33,10.33,0,0,1-4.11,4.693A11.483,11.483,0,0,1-1996.3,1946.714Z" transform="translate(2223.521 -1899.392)"/>
          <path id="Path_6077" data-name="Path 6077" d="M-1966.325,1946.013v-17.022q0-4.668,2.748-7.2t8.633-2.529q5.884,0,8.584,2.529t2.7,7.2v17.022h-3.988v-17.459q0-3.162-1.873-4.524a9.141,9.141,0,0,0-5.422-1.362,9.337,9.337,0,0,0-5.52,1.362q-1.872,1.362-1.872,4.524v6.079a8.279,8.279,0,0,1,5.642-1.995h3.209l.195,3.258h-3.5a8.276,8.276,0,0,0-5.545,1.9v8.219Z" transform="translate(2210.807 -1899.178)"/>
          <path id="Path_6078" data-name="Path 6078" d="M-1940.155,1971.269v-6.37h-3.21l.194-2.723h6.468v9.094Z" transform="translate(2203.799 -1912.276)"/>
          <path id="Path_6079" data-name="Path 6079" d="M-1897.7,1946.5a8.08,8.08,0,0,1-6.3-2.432q-2.214-2.431-2.213-7v-7.928q0-3.648-1.605-5.058t-5.641-1.41a15.375,15.375,0,0,0-4.888.754,8.869,8.869,0,0,0-3.526,2.018v1.021l5.69,1.362v3.016a5.275,5.275,0,0,0-2.748,1.532,4.616,4.616,0,0,0-.9,3.088v4.912q0,2.383,2.286,2.383h2.772v3.258h-4.572a4.25,4.25,0,0,1-3.283-1.288,4.779,4.779,0,0,1-1.191-3.38v-5.982a6.689,6.689,0,0,1,.924-3.526,5.041,5.041,0,0,1,3.015-2.164l-5.5-1.263v-4.67a18.708,18.708,0,0,1,4.839-3.087,16.7,16.7,0,0,1,7.076-1.387q5.641,0,8.414,2.407t2.772,7.611v7.733q0,3.258,1.434,4.669a6.127,6.127,0,0,0,4.45,1.41,9.136,9.136,0,0,0,4.353-1.021,13.7,13.7,0,0,0,3.429-2.577v-19.745h3.988v26.261h-3.6l-.243-3.161a15.278,15.278,0,0,1-3.964,2.65A12.569,12.569,0,0,1-1897.7,1946.5Z" transform="translate(2198.308 -1899.178)"/>
          <path id="Path_6080" data-name="Path 6080" d="M-1852.511,1946.226a4.249,4.249,0,0,1-3.283-1.288,4.777,4.777,0,0,1-1.192-3.38v-21.593H-1853v20.62q0,2.383,2.286,2.383h2.772v3.258Z" transform="translate(2177.434 -1899.392)"/>
          <path id="Path_6081" data-name="Path 6081" d="M-1828.28,1946.5a11.706,11.706,0,0,1-4.451-.8,6.79,6.79,0,0,1-3.137-2.529,7.884,7.884,0,0,1-1.167-4.5,7.38,7.38,0,0,1,2.48-5.86q2.48-2.164,7.587-2.165h8.608V1928.6a7.855,7.855,0,0,0-.656-3.525,3.8,3.8,0,0,0-2.261-1.848,14.105,14.105,0,0,0-4.474-.56,31.675,31.675,0,0,0-4.3.292,22.042,22.042,0,0,0-4.109.973v-3.307a24.627,24.627,0,0,1,4.255-1,32.568,32.568,0,0,1,4.888-.365,22.259,22.259,0,0,1,2.383.121,15.486,15.486,0,0,1,2.091.366h8.365l-.195,3.257h-3.5a6.949,6.949,0,0,1,1.167,2.578,14.627,14.627,0,0,1,.34,3.307v17.119h-3.988v-12.061h-8.365a8.567,8.567,0,0,0-4.863,1.094,4.116,4.116,0,0,0-1.555,3.623,3.9,3.9,0,0,0,1.409,3.453,8.138,8.138,0,0,0,4.523.973,12.488,12.488,0,0,0,3.307-.388v3.307q-.828.194-1.945.341A19.007,19.007,0,0,1-1828.28,1946.5Z" transform="translate(2171.344 -1899.178)"/>
          <path id="Path_6082" data-name="Path 6082" d="M-1832.275,1910.518l.194-2.87h15.757v-4.135h3.356v7Z" transform="translate(2169.891 -1894.371)"/>
          <path id="Path_6083" data-name="Path 6083" d="M-1784.16,1946.5a16.049,16.049,0,0,1-8.438-1.922,6.581,6.581,0,0,1-3.137-6.055,6.851,6.851,0,0,1,1.046-3.866,6.28,6.28,0,0,1,2.942-2.359,5.583,5.583,0,0,1-2.748-1.945,5.945,5.945,0,0,1-1.094-3.745,6.776,6.776,0,0,1,2.189-5.52,8.441,8.441,0,0,1,5.593-1.824,15.622,15.622,0,0,1,2.286.146,11.86,11.86,0,0,1,1.751.389v3.307a6.077,6.077,0,0,0-1.508-.34,16.266,16.266,0,0,0-1.8-.1,5.22,5.22,0,0,0-3.331.949,3.591,3.591,0,0,0-1.192,2.991,3.573,3.573,0,0,0,1.41,3.137,6.268,6.268,0,0,0,3.7,1h2.772l.243,3.015h-3.161a5.29,5.29,0,0,0-3.842,1.24,4.714,4.714,0,0,0-1.264,3.526q0,4.572,7.441,4.571a9.16,9.16,0,0,0,5.617-1.435,5.421,5.421,0,0,0,1.873-4.595v-17.313h3.988v16.632q0,4.913-2.723,7.515T-1784.16,1946.5Z" transform="translate(2158.738 -1899.178)"/>
          <path id="Path_6084" data-name="Path 6084" d="M-1743.249,1946.5q-5.156,0-7.9-2.456a8.935,8.935,0,0,1-2.748-7.028v-3.551a5.933,5.933,0,0,1,.681-2.772,15.384,15.384,0,0,1,1.6-2.481q.923-1.167,1.6-2.188a3.482,3.482,0,0,0,.681-1.9q0-.825-.365-1.045a2.559,2.559,0,0,0-1.24-.219h-3.5l.341-3.112h5.4q3.356,0,3.356,3.306a6.354,6.354,0,0,1-.681,2.967,17.487,17.487,0,0,1-1.605,2.529,20.949,20.949,0,0,0-1.6,2.432,5.28,5.28,0,0,0-.681,2.625v3.842a5,5,0,0,0,1.8,4.329,8.088,8.088,0,0,0,4.863,1.312,8.3,8.3,0,0,0,4.936-1.312q1.824-1.315,1.824-4.426V1934q0-2.723-.875-3.72a4.153,4.153,0,0,0-3.21-1h-1.362l.194-3.161h1.07q2.481,0,3.332-1.168a6.035,6.035,0,0,0,.851-3.55v-2.14h3.988v2.091a10.056,10.056,0,0,1-.681,3.964,4.557,4.557,0,0,1-2.918,2.359,4.616,4.616,0,0,1,2.991,2.48,11.179,11.179,0,0,1,.608,3.939v2.869a8.852,8.852,0,0,1-2.845,7.052Q-1738.191,1946.5-1743.249,1946.5Z" transform="translate(2146.132 -1899.178)"/>
          <path id="Path_6085" data-name="Path 6085" d="M-1750.8,1910.518l.195-2.87h15.757v-4.135h3.356v7Z" transform="translate(2145.021 -1894.371)"/>
          <path id="Path_6086" data-name="Path 6086" d="M-1707.191,1946.5a18.452,18.452,0,0,1-7.344-1.362v-3.356a18.2,18.2,0,0,0,3.088.948,15.635,15.635,0,0,0,3.331.365,12.22,12.22,0,0,0,5.593-1.046,5.846,5.846,0,0,0,2.821-3.283,17.349,17.349,0,0,0,.826-5.885q0-5.446-2.14-7.83t-7.246-2.384a15.247,15.247,0,0,0-3.259.34,14.444,14.444,0,0,0-3.015,1.021v-3.4a14.907,14.907,0,0,1,3.186-1.021,19.926,19.926,0,0,1,3.915-.341q6.37,0,9.459,3.453t3.088,10.165q0,6.517-2.821,10.067T-1707.191,1946.5Z" transform="translate(2133.954 -1899.178)"/>
          <path id="Path_6087" data-name="Path 6087" d="M-1715.585,1912.334l.194-2.869h19.113v2.869Z" transform="translate(2134.274 -1896.187)"/>
          <path id="Path_6088" data-name="Path 6088" d="M-1668.82,1946.5a10.4,10.4,0,0,1-5.4-1.411,9.495,9.495,0,0,1-3.745-4.353,18.216,18.216,0,0,1-1.362-7.61q0-6.664,2.116-10.262a6.664,6.664,0,0,1,6.055-3.6,6.447,6.447,0,0,1,3.161.681,6.972,6.972,0,0,1,2.14,1.9,7.345,7.345,0,0,1,2.651-1.9,8.108,8.108,0,0,1,3.234-.681,5.426,5.426,0,0,1,4.328,1.678,7.16,7.16,0,0,1,1.459,4.839v20.232h-3.988v-19.7a4.9,4.9,0,0,0-.608-2.845,2.761,2.761,0,0,0-2.31-.8,4.057,4.057,0,0,0-1.994.511,3.467,3.467,0,0,0-1.459,1.775h-2.675a5.064,5.064,0,0,0-1.41-1.775,3.523,3.523,0,0,0-2.042-.511,3.676,3.676,0,0,0-3.721,2.846,24.767,24.767,0,0,0-.948,7.611q0,5.543,1.824,7.757a6.559,6.559,0,0,0,5.374,2.212,17.01,17.01,0,0,0,1.824-.1,8.366,8.366,0,0,0,1.532-.292v3.307A14.164,14.164,0,0,1-1668.82,1946.5Z" transform="translate(2123.206 -1899.178)"/>
          <path id="Path_6089" data-name="Path 6089" d="M-2227.416,2046.5a14.852,14.852,0,0,1-1.921-.146,8.908,8.908,0,0,1-1.775-.39l-4.085-10.894h-3.113l.195-3.259h5.5l4.231,11.283a8.4,8.4,0,0,0,4.328-.754,7.223,7.223,0,0,0,3.307-3.332,13.761,13.761,0,0,0,1.265-6.419,14.578,14.578,0,0,0-.973-5.836,5.929,5.929,0,0,0-3.161-3.137,15.217,15.217,0,0,0-5.933-.948,30.914,30.914,0,0,0-4.11.292,21.922,21.922,0,0,0-4.158.973v-3.307a24.646,24.646,0,0,1,4.256-1,33.956,33.956,0,0,1,5.082-.365q6.76,0,9.873,3.453t3.113,9.873a16.081,16.081,0,0,1-1.654,7.66,11.565,11.565,0,0,1-4.352,4.668A11.482,11.482,0,0,1-2227.416,2046.5Z" transform="translate(2293.826 -1929.701)"/>
          <path id="Path_6090" data-name="Path 6090" d="M-2187.665,2046.013v-16.973a12.379,12.379,0,0,0-.438-3.6,3.4,3.4,0,0,0-1.775-2.091,9.315,9.315,0,0,0-4.061-.681,18.532,18.532,0,0,0-3.38.341,18.831,18.831,0,0,0-3.332.924v-3.307a19.361,19.361,0,0,1,3.453-.973,20.8,20.8,0,0,1,3.988-.389q5.009,0,7.271,2.213t2.261,7.125v17.411Z" transform="translate(2282.331 -1929.701)"/>
          <path id="Path_6091" data-name="Path 6091" d="M-2166.333,2046.013v-10.651a6.687,6.687,0,0,1,.924-3.526,5.037,5.037,0,0,1,3.015-2.164l-5.5-1.264v-4.67a18.318,18.318,0,0,1,4.936-3.087,17.632,17.632,0,0,1,7.271-1.387q5.739,0,8.633,2.407t2.894,7.611v16.73h-3.988v-16.876q0-3.648-1.7-5.058t-5.836-1.41a16.613,16.613,0,0,0-5.082.754,8.859,8.859,0,0,0-3.623,2.018v1.021l5.69,1.362v3.016a5.281,5.281,0,0,0-2.748,1.532,4.616,4.616,0,0,0-.9,3.088v10.554Z" transform="translate(2272.331 -1929.701)"/>
          <path id="Path_6092" data-name="Path 6092" d="M-2109.37,2020.884l3.015-8.9h2.772l-2.383,8.9Zm6.663,0,3.016-8.9h2.723l-2.383,8.9Z" transform="translate(2254.469 -1927.479)"/>
          <path id="Path_6093" data-name="Path 6093" d="M-2078.11,2040.8a4.249,4.249,0,0,1-3.283-1.289,4.776,4.776,0,0,1-1.192-3.38v-23.247a7.665,7.665,0,0,0-1.264-4.864,9.539,9.539,0,0,0-3.891-2.625v-3.21h13.958v3.21h-8.9a8.048,8.048,0,0,1,2.432,1.872,6.438,6.438,0,0,1,1.264,2.675,18.4,18.4,0,0,1,.389,4.158v21.059q0,2.383,2.285,2.383h2.773v3.258Z" transform="translate(2247.867 -1924.488)"/>
          <path id="Path_6094" data-name="Path 6094" d="M-2053.181,2046.5a35.1,35.1,0,0,1-4.742-.316,16.214,16.214,0,0,1-3.866-.949v-3.55a18.986,18.986,0,0,0,3.939,1.07,24.8,24.8,0,0,0,3.988.34,15.254,15.254,0,0,0,5.326-.7,2.956,2.956,0,0,0,1.775-3.089,3.354,3.354,0,0,0-.9-2.553,6.893,6.893,0,0,0-2.553-1.411q-1.653-.558-3.988-1.337a38.058,38.058,0,0,1-4.037-1.629,8.8,8.8,0,0,1-3.064-2.31,5.608,5.608,0,0,1-1.167-3.7,6.084,6.084,0,0,1,2.553-5.277q2.553-1.824,7.611-1.824a26.312,26.312,0,0,1,4.231.341,21.6,21.6,0,0,1,3.5.826v3.5a17.52,17.52,0,0,0-3.477-.948,22.071,22.071,0,0,0-3.672-.316,13.9,13.9,0,0,0-5.033.706,2.8,2.8,0,0,0-1.727,2.894,2.964,2.964,0,0,0,.9,2.261,7.369,7.369,0,0,0,2.578,1.459q1.678.609,4.061,1.386a29.06,29.06,0,0,1,4.231,1.727,8.044,8.044,0,0,1,2.894,2.382,6.254,6.254,0,0,1,1.046,3.769q0,3.939-2.87,5.593A15,15,0,0,1-2053.181,2046.5Z" transform="translate(2240.154 -1929.701)"/>
          <path id="Path_6095" data-name="Path 6095" d="M-2025.79,2046.013v-17.022q0-4.669,2.748-7.2t8.632-2.529q5.884,0,8.584,2.529t2.7,7.2v17.022h-3.988v-17.459q0-3.162-1.872-4.523a9.14,9.14,0,0,0-5.423-1.362,9.335,9.335,0,0,0-5.52,1.362q-1.873,1.362-1.873,4.523v6.079a8.279,8.279,0,0,1,5.642-1.995h3.21l.195,3.259h-3.5a8.277,8.277,0,0,0-5.544,1.9v8.219Z" transform="translate(2228.958 -1929.701)"/>
          <path id="Path_6096" data-name="Path 6096" d="M-1978.966,2046.226a4.248,4.248,0,0,1-3.283-1.289,4.774,4.774,0,0,1-1.191-3.38v-21.593h3.988v20.62q0,2.383,2.286,2.383h2.772v3.258Z" transform="translate(2216.031 -1929.915)"/>
          <path id="Path_6097" data-name="Path 6097" d="M-1950.564,2046.713q-5.544,0-8.535-2.627t-2.991-7.781v-16.34h3.988V2036.6q0,3.551,1.945,5.131a8.674,8.674,0,0,0,5.593,1.58,8.675,8.675,0,0,0,5.593-1.58q1.945-1.581,1.945-5.131v-16.632h3.988v16.34q0,5.156-2.991,7.781T-1950.564,2046.713Z" transform="translate(2209.515 -1929.915)"/>
          <path id="Path_6098" data-name="Path 6098" d="M-1909.695,2046.013v-16.973a12.385,12.385,0,0,0-.438-3.6,3.4,3.4,0,0,0-1.775-2.091,9.313,9.313,0,0,0-4.061-.681,18.532,18.532,0,0,0-3.38.341,18.828,18.828,0,0,0-3.331.924v-3.307a19.355,19.355,0,0,1,3.453-.973,20.8,20.8,0,0,1,3.988-.389q5.009,0,7.271,2.213t2.261,7.125v17.411Z" transform="translate(2197.486 -1929.701)"/>
          <path id="Path_6099" data-name="Path 6099" d="M-1888.52,2046.226v-26.261h3.988v8.51h8.705q3.21,0,4.426-1.362a5.734,5.734,0,0,0,1.215-3.94v-3.209h3.988v3.16a9.572,9.572,0,0,1-.924,4.328,5.132,5.132,0,0,1-3.258,2.578,4.691,4.691,0,0,1,3.161,2.53,10.558,10.558,0,0,1,.729,4.084v9.581h-3.988v-9.094q0-3.113-1.192-4.255t-4.4-1.144h-8.462v14.493Z" transform="translate(2187.059 -1929.915)"/>
          <path id="Path_6100" data-name="Path 6100" d="M-1841.136,2046.5a18.45,18.45,0,0,1-7.344-1.362v-3.356a18.252,18.252,0,0,0,3.088.948,15.644,15.644,0,0,0,3.331.365,12.22,12.22,0,0,0,5.593-1.046,5.843,5.843,0,0,0,2.821-3.283,17.333,17.333,0,0,0,.827-5.885q0-5.446-2.14-7.83t-7.247-2.384a15.23,15.23,0,0,0-3.258.341,14.418,14.418,0,0,0-3.015,1.021v-3.4a14.874,14.874,0,0,1,3.185-1.021,19.884,19.884,0,0,1,3.915-.341q6.37,0,9.459,3.453t3.088,10.165q0,6.517-2.821,10.067T-1841.136,2046.5Z" transform="translate(2174.837 -1929.701)"/>
          <path id="Path_6101" data-name="Path 6101" d="M-1802.385,2046.013v-16.973a12.381,12.381,0,0,0-.438-3.6,3.4,3.4,0,0,0-1.775-2.091,9.314,9.314,0,0,0-4.061-.681,18.534,18.534,0,0,0-3.38.341,18.831,18.831,0,0,0-3.332.924v-3.307a19.361,19.361,0,0,1,3.453-.973,20.8,20.8,0,0,1,3.988-.389q5.009,0,7.271,2.213t2.262,7.125v17.411Z" transform="translate(2164.731 -1929.701)"/>
          <path id="Path_6102" data-name="Path 6102" d="M-1772.456,2046.713a8.428,8.428,0,0,1-6.493-2.432q-2.261-2.431-2.261-7v-17.313h3.988v17.264q0,3.259,1.459,4.669a6.451,6.451,0,0,0,4.62,1.41,10.286,10.286,0,0,0,4.572-1.021,12.76,12.76,0,0,0,3.6-2.577v-19.745h3.988v26.261h-3.6l-.243-3.16a14.432,14.432,0,0,1-4.134,2.65A13.93,13.93,0,0,1-1772.456,2046.713Z" transform="translate(2154.304 -1929.915)"/>
          <path id="Path_6103" data-name="Path 6103" d="M-1740.89,2020.884l2.432-8.9h3.356l-3.015,8.9Zm6.663,0,2.383-8.9h3.356l-3.015,8.9Z" transform="translate(2141.998 -1927.479)"/>
          <path id="Path_6104" data-name="Path 6104" d="M-2238.981,2146.227a4.248,4.248,0,0,1-3.282-1.289,4.775,4.775,0,0,1-1.192-3.38v-21.593h3.988v20.62q0,2.383,2.286,2.383h2.772v3.259Z" transform="translate(2295.397 -1960.438)"/>
          <path id="Path_6105" data-name="Path 6105" d="M-2218.175,2146.227l-6.031-26.261h4.085l4.328,20.669,5.545-17.363v-3.306h2.967l5.933,20.669,4.28-20.669h4.036l-5.982,26.261H-2203l-5.4-18.481-5.836,18.481Z" transform="translate(2289.521 -1960.438)"/>
          <path id="Path_6106" data-name="Path 6106" d="M-2163.816,2146.5a35.1,35.1,0,0,1-4.742-.316,16.238,16.238,0,0,1-3.866-.949v-3.55a18.99,18.99,0,0,0,3.939,1.07,24.808,24.808,0,0,0,3.988.341,15.244,15.244,0,0,0,5.325-.7,2.955,2.955,0,0,0,1.775-3.089,3.354,3.354,0,0,0-.9-2.553,6.9,6.9,0,0,0-2.553-1.411q-1.654-.558-3.988-1.337a38.037,38.037,0,0,1-4.037-1.629,8.786,8.786,0,0,1-3.064-2.31,5.611,5.611,0,0,1-1.167-3.7,6.085,6.085,0,0,1,2.553-5.277q2.554-1.824,7.611-1.824a26.366,26.366,0,0,1,4.231.341,21.616,21.616,0,0,1,3.5.826v3.5a17.5,17.5,0,0,0-3.477-.948,22.05,22.05,0,0,0-3.672-.316,13.908,13.908,0,0,0-5.034.706,2.8,2.8,0,0,0-1.726,2.894,2.964,2.964,0,0,0,.9,2.261,7.376,7.376,0,0,0,2.578,1.459q1.678.608,4.061,1.386a28.965,28.965,0,0,1,4.231,1.727,8.043,8.043,0,0,1,2.894,2.383,6.254,6.254,0,0,1,1.046,3.769q0,3.94-2.869,5.593A15.007,15.007,0,0,1-2163.816,2146.5Z" transform="translate(2273.923 -1960.224)"/>
          <path id="Path_6107" data-name="Path 6107" d="M-2126.94,2146.012v-16.973a12.4,12.4,0,0,0-.437-3.6,3.4,3.4,0,0,0-1.775-2.091,9.319,9.319,0,0,0-4.061-.681,18.508,18.508,0,0,0-3.38.34,18.81,18.81,0,0,0-3.332.924v-3.307a19.3,19.3,0,0,1,3.453-.973,20.762,20.762,0,0,1,3.988-.389q5.009,0,7.271,2.213t2.261,7.125v17.411Z" transform="translate(2263.795 -1960.224)"/>
          <path id="Path_6108" data-name="Path 6108" d="M-2107.165,2131.572v-5.448h3.453v2.384h7.538l-.146,3.064Zm0,13.422v-5.447h3.453v2.432h7.538l-.146,3.015Z" transform="translate(2253.796 -1962.318)"/>
          <path id="Path_6109" data-name="Path 6109" d="M-2075.661,2146.5a11.7,11.7,0,0,1-4.45-.8,6.789,6.789,0,0,1-3.137-2.529,7.883,7.883,0,0,1-1.167-4.5,7.378,7.378,0,0,1,2.48-5.859q2.48-2.165,7.587-2.165h8.608V2128.6a7.855,7.855,0,0,0-.656-3.526,3.8,3.8,0,0,0-2.262-1.848,14.112,14.112,0,0,0-4.474-.56,31.569,31.569,0,0,0-4.3.292,22.02,22.02,0,0,0-4.11.973v-3.307a24.6,24.6,0,0,1,4.255-1,32.582,32.582,0,0,1,4.888-.365,22.15,22.15,0,0,1,2.383.122,15.484,15.484,0,0,1,2.091.366h8.365l-.195,3.258h-3.5a6.956,6.956,0,0,1,1.167,2.578,14.63,14.63,0,0,1,.34,3.307v17.119h-3.988v-12.061h-8.365a8.566,8.566,0,0,0-4.864,1.094,4.117,4.117,0,0,0-1.556,3.623,3.9,3.9,0,0,0,1.411,3.453,8.139,8.139,0,0,0,4.523.973,12.482,12.482,0,0,0,3.307-.388v3.306q-.828.194-1.946.341A18.966,18.966,0,0,1-2075.661,2146.5Z" transform="translate(2246.852 -1960.224)"/>
          <path id="Path_6110" data-name="Path 6110" d="M-2032.23,2146.012v-16.973a12.379,12.379,0,0,0-.438-3.6,3.4,3.4,0,0,0-1.775-2.091,9.317,9.317,0,0,0-4.061-.681,18.511,18.511,0,0,0-3.38.34,18.81,18.81,0,0,0-3.332.924v-3.307a19.3,19.3,0,0,1,3.453-.973,20.763,20.763,0,0,1,3.988-.389q5.009,0,7.271,2.213t2.261,7.125v17.411Z" transform="translate(2234.887 -1960.224)"/>
          <path id="Path_6111" data-name="Path 6111" d="M-2006.581,2146.227a4.248,4.248,0,0,1-3.283-1.289,4.777,4.777,0,0,1-1.192-3.38v-21.593h3.988v20.62q0,2.383,2.286,2.383h2.772v3.259Z" transform="translate(2224.46 -1960.438)"/>
          <path id="Path_6112" data-name="Path 6112" d="M-1989.705,2146.227v-26.261h3.988v8.511h8.705q3.21,0,4.426-1.362a5.734,5.734,0,0,0,1.216-3.94v-3.209h3.988v3.16a9.567,9.567,0,0,1-.924,4.328,5.129,5.129,0,0,1-3.258,2.578,4.691,4.691,0,0,1,3.161,2.53,10.558,10.558,0,0,1,.729,4.085v9.581h-3.988v-9.094q0-3.113-1.191-4.255t-4.4-1.144h-8.462v14.493Z" transform="translate(2217.944 -1960.438)"/>
          <path id="Path_6113" data-name="Path 6113" d="M-1939.16,2146.5a10.394,10.394,0,0,1-5.4-1.411,9.492,9.492,0,0,1-3.745-4.353,18.216,18.216,0,0,1-1.362-7.61q0-6.664,2.116-10.263a6.664,6.664,0,0,1,6.055-3.6,6.449,6.449,0,0,1,3.161.681,6.971,6.971,0,0,1,2.14,1.9,7.345,7.345,0,0,1,2.651-1.9,8.115,8.115,0,0,1,3.234-.681,5.425,5.425,0,0,1,4.328,1.678,7.16,7.16,0,0,1,1.459,4.838v20.232h-3.988v-19.7a4.9,4.9,0,0,0-.608-2.845,2.759,2.759,0,0,0-2.31-.8,4.054,4.054,0,0,0-1.994.51,3.469,3.469,0,0,0-1.459,1.775h-2.675a5.063,5.063,0,0,0-1.41-1.775,3.522,3.522,0,0,0-2.043-.51,3.675,3.675,0,0,0-3.72,2.846,24.765,24.765,0,0,0-.948,7.611q0,5.543,1.824,7.757a6.559,6.559,0,0,0,5.374,2.212,17.073,17.073,0,0,0,1.824-.1,8.425,8.425,0,0,0,1.532-.292v3.306A14.173,14.173,0,0,1-1939.16,2146.5Z" transform="translate(2205.722 -1960.224)"/>
          <path id="Path_6114" data-name="Path 6114" d="M-1919.925,2171.269v-6.37h-3.21l.195-2.724h6.468v9.094Z" transform="translate(2197.625 -1973.322)"/>
          <path id="Path_6115" data-name="Path 6115" d="M-1894.251,2146.5a14.861,14.861,0,0,1-1.921-.146,8.927,8.927,0,0,1-1.775-.389l-4.085-10.894h-3.113l.195-3.259h5.5l4.231,11.283a8.409,8.409,0,0,0,4.328-.754,7.227,7.227,0,0,0,3.307-3.332,13.764,13.764,0,0,0,1.265-6.419,14.579,14.579,0,0,0-.973-5.836,5.93,5.93,0,0,0-3.161-3.137,15.222,15.222,0,0,0-5.933-.948,30.906,30.906,0,0,0-4.109.292,21.919,21.919,0,0,0-4.158.973v-3.307a24.593,24.593,0,0,1,4.255-1,33.925,33.925,0,0,1,5.082-.365q6.759,0,9.872,3.453t3.113,9.873a16.086,16.086,0,0,1-1.653,7.66,11.572,11.572,0,0,1-4.353,4.668A11.482,11.482,0,0,1-1894.251,2146.5Z" transform="translate(2192.133 -1960.224)"/>
          <path id="Path_6116" data-name="Path 6116" d="M-1878.968,2110.727a5.083,5.083,0,0,1-3.6-1.41,4.6,4.6,0,0,1-1.507-3.5,4.655,4.655,0,0,1,1.507-3.55,5.085,5.085,0,0,1,3.6-1.411,4.975,4.975,0,0,1,3.6,1.411,4.729,4.729,0,0,1,1.459,3.55,4.673,4.673,0,0,1-1.459,3.5A4.974,4.974,0,0,1-1878.968,2110.727Zm0-2.529a2.253,2.253,0,0,0,1.678-.73,2.314,2.314,0,0,0,.705-1.654,2.374,2.374,0,0,0-.705-1.7,2.257,2.257,0,0,0-1.678-.729,2.314,2.314,0,0,0-1.726.729,2.376,2.376,0,0,0-.705,1.7,2.316,2.316,0,0,0,.705,1.654A2.31,2.31,0,0,0-1878.968,2108.2Z" transform="translate(2185.702 -1954.605)"/>
          <path id="Path_6117" data-name="Path 6117" d="M-1854.5,2146.012v-16.973a12.374,12.374,0,0,0-.438-3.6,3.4,3.4,0,0,0-1.775-2.091,9.318,9.318,0,0,0-4.061-.681,18.511,18.511,0,0,0-3.38.34,18.817,18.817,0,0,0-3.331.924v-3.307a19.3,19.3,0,0,1,3.453-.973,20.761,20.761,0,0,1,3.988-.389q5.009,0,7.271,2.213t2.261,7.125v17.411Z" transform="translate(2180.638 -1960.224)"/>
          <path id="Path_6118" data-name="Path 6118" d="M-1828.851,2146.227a4.249,4.249,0,0,1-3.283-1.289,4.776,4.776,0,0,1-1.191-3.38v-21.593h3.988v20.62q0,2.383,2.286,2.383h2.772v3.259Z" transform="translate(2170.212 -1960.438)"/>
          <path id="Path_6119" data-name="Path 6119" d="M-1808.044,2146.227l-6.031-26.261h4.085l4.328,20.669,5.544-17.363v-3.306h2.967l5.933,20.669,4.28-20.669h4.037l-5.982,26.261h-3.988l-5.4-18.481-5.836,18.481Z" transform="translate(2164.336 -1960.438)"/>
          <path id="Path_6120" data-name="Path 6120" d="M-1752.09,2146.012v-16.973a12.387,12.387,0,0,0-.438-3.6,3.4,3.4,0,0,0-1.775-2.091,9.318,9.318,0,0,0-4.061-.681,18.512,18.512,0,0,0-3.38.34,18.81,18.81,0,0,0-3.331.924v-3.307a19.3,19.3,0,0,1,3.453-.973,20.752,20.752,0,0,1,3.987-.389q5.008,0,7.271,2.213t2.262,7.125v17.411Z" transform="translate(2149.379 -1960.224)"/>
          <path id="Path_6121" data-name="Path 6121" d="M-1732.315,2131.572v-5.448h3.453v2.384h7.538l-.146,3.064Zm0,13.422v-5.447h3.453v2.432h7.538l-.146,3.015Z" transform="translate(2139.38 -1962.318)"/>
          <path id="Path_6122" data-name="Path 6122" d="M-2304.215,2246.012v-26.261h3.6l.243,3.16a15.265,15.265,0,0,1,4.158-2.65,13.74,13.74,0,0,1,5.471-1,8.448,8.448,0,0,1,6.468,2.432q2.285,2.432,2.286,6.955v17.362h-3.988V2228.7q0-3.211-1.508-4.621a6.652,6.652,0,0,0-4.669-1.41,9.737,9.737,0,0,0-4.547,1.046,13.574,13.574,0,0,0-3.526,2.6v19.7Z" transform="translate(2313.942 -1990.747)"/>
          <path id="Path_6123" data-name="Path 6123" d="M-2300.155,2210.518l.194-2.869h15.757v-4.135h3.356v7Z" transform="translate(2312.703 -1985.94)"/>
          <path id="Path_6124" data-name="Path 6124" d="M-2277.265,2197.114v-6.76h3.355v6.76Z" transform="translate(2305.716 -1981.923)"/>
          <path id="Path_6125" data-name="Path 6125" d="M-2253.828,2246.5a27.092,27.092,0,0,1-5.641-.56,26.752,26.752,0,0,1-4.426-1.289v-13.229h9.63l.194,3.259h-5.836v7.441a17.758,17.758,0,0,0,2.845.706,18.826,18.826,0,0,0,3.137.267,10.982,10.982,0,0,0,5.033-.973,5.742,5.742,0,0,0,2.724-3.21,17.228,17.228,0,0,0,.851-5.982,16.88,16.88,0,0,0-.9-6.128,5.668,5.668,0,0,0-3.016-3.186,14.36,14.36,0,0,0-5.763-.948,33.077,33.077,0,0,0-4.3.292,21.855,21.855,0,0,0-4.207.973v-3.307a22.777,22.777,0,0,1,4.45-1.021,37.752,37.752,0,0,1,5.082-.341q6.712,0,9.678,3.429t2.967,10.238q0,6.663-2.967,10.115T-2253.828,2246.5Z" transform="translate(2301.635 -1990.747)"/>
          <path id="Path_6126" data-name="Path 6126" d="M-2213.6,2246.012v-16.973a12.4,12.4,0,0,0-.438-3.6,3.4,3.4,0,0,0-1.775-2.091,9.309,9.309,0,0,0-4.061-.681,18.556,18.556,0,0,0-3.38.34,18.783,18.783,0,0,0-3.331.924v-3.307a19.325,19.325,0,0,1,3.453-.972,20.784,20.784,0,0,1,3.988-.389q5.008,0,7.271,2.213t2.262,7.125v17.411Z" transform="translate(2290.247 -1990.747)"/>
          <path id="Path_6127" data-name="Path 6127" d="M-2182.931,2246.5a14.815,14.815,0,0,1-1.921-.146,8.914,8.914,0,0,1-1.775-.39l-4.085-10.894h-3.113l.195-3.258h5.5l4.231,11.283a8.409,8.409,0,0,0,4.328-.754,7.226,7.226,0,0,0,3.307-3.332,13.764,13.764,0,0,0,1.265-6.42,14.576,14.576,0,0,0-.973-5.836,5.931,5.931,0,0,0-3.161-3.137,15.222,15.222,0,0,0-5.933-.948,30.95,30.95,0,0,0-4.109.292,21.935,21.935,0,0,0-4.158.973v-3.307a24.584,24.584,0,0,1,4.255-1,33.89,33.89,0,0,1,5.082-.365q6.76,0,9.873,3.453t3.113,9.872a16.09,16.09,0,0,1-1.654,7.661,11.574,11.574,0,0,1-4.353,4.668A11.484,11.484,0,0,1-2182.931,2246.5Z" transform="translate(2280.248 -1990.747)"/>
          <path id="Path_6128" data-name="Path 6128" d="M-2148.191,2246.226a4.249,4.249,0,0,1-3.283-1.289,4.776,4.776,0,0,1-1.191-3.38v-21.593h3.988v20.62q0,2.383,2.286,2.383h2.772v3.258Z" transform="translate(2267.684 -1990.961)"/>
          <path id="Path_6129" data-name="Path 6129" d="M-2131.159,2246.012v-10.651a6.688,6.688,0,0,1,.924-3.526,5.039,5.039,0,0,1,3.015-2.164l-5.5-1.263v-4.67a18.336,18.336,0,0,1,4.936-3.088,17.629,17.629,0,0,1,7.271-1.387q5.738,0,8.632,2.408t2.894,7.611v16.73h-3.988v-16.875q0-3.647-1.7-5.058t-5.836-1.41a16.6,16.6,0,0,0-5.083.754,8.85,8.85,0,0,0-3.623,2.018v1.021l5.69,1.362v3.016a5.281,5.281,0,0,0-2.748,1.532,4.615,4.615,0,0,0-.9,3.087v10.554Z" transform="translate(2261.595 -1990.747)"/>
          <path id="Path_6130" data-name="Path 6130" d="M-2126.485,2212.334l.194-2.869h19.114v2.869Z" transform="translate(2259.693 -1987.756)"/>
          <path id="Path_6131" data-name="Path 6131" d="M-2079.72,2246.5a10.4,10.4,0,0,1-5.4-1.411,9.49,9.49,0,0,1-3.745-4.353,18.209,18.209,0,0,1-1.362-7.61q0-6.42,3.21-10.141t9.921-3.72a14.137,14.137,0,0,1,6.93,1.483,9.258,9.258,0,0,1,3.867,3.867,11.081,11.081,0,0,1,1.216,5.106v16.292h-3.988V2229.77a8.265,8.265,0,0,0-.778-3.648,5.6,5.6,0,0,0-2.554-2.53,10.45,10.45,0,0,0-4.79-.924q-4.864,0-6.955,2.723t-2.091,7.734q0,5.543,1.824,7.757a6.558,6.558,0,0,0,5.374,2.212,17.07,17.07,0,0,0,1.824-.1,8.411,8.411,0,0,0,1.532-.292v3.306A14.166,14.166,0,0,1-2079.72,2246.5Z" transform="translate(2248.626 -1990.747)"/>
          <path id="Path_6132" data-name="Path 6132" d="M-2034.811,2246.5a14.818,14.818,0,0,1-1.921-.146,8.925,8.925,0,0,1-1.775-.39l-4.085-10.894h-3.113l.195-3.258h5.5l4.231,11.283a8.409,8.409,0,0,0,4.328-.754,7.229,7.229,0,0,0,3.307-3.332,13.77,13.77,0,0,0,1.264-6.42,14.581,14.581,0,0,0-.973-5.836,5.931,5.931,0,0,0-3.161-3.137,15.225,15.225,0,0,0-5.934-.948,30.953,30.953,0,0,0-4.109.292,21.935,21.935,0,0,0-4.158.973v-3.307a24.587,24.587,0,0,1,4.256-1,33.886,33.886,0,0,1,5.082-.365q6.76,0,9.873,3.453t3.112,9.872a16.087,16.087,0,0,1-1.653,7.661,11.573,11.573,0,0,1-4.353,4.668A11.483,11.483,0,0,1-2034.811,2246.5Z" transform="translate(2235.037 -1990.747)"/>
          <path id="Path_6133" data-name="Path 6133" d="M-1995.06,2246.012v-16.973a12.389,12.389,0,0,0-.438-3.6,3.4,3.4,0,0,0-1.775-2.091,9.309,9.309,0,0,0-4.061-.681,18.552,18.552,0,0,0-3.38.34,18.789,18.789,0,0,0-3.332.924v-3.307a19.343,19.343,0,0,1,3.453-.972,20.784,20.784,0,0,1,3.988-.389q5.009,0,7.271,2.213t2.262,7.125v17.411Z" transform="translate(2223.542 -1990.747)"/>
          <path id="Path_6134" data-name="Path 6134" d="M-1973.729,2246.012v-10.651a6.689,6.689,0,0,1,.924-3.526,5.041,5.041,0,0,1,3.015-2.164l-5.5-1.263v-4.67a18.33,18.33,0,0,1,4.936-3.088,17.627,17.627,0,0,1,7.271-1.387q5.739,0,8.633,2.408t2.894,7.611v16.73h-3.988v-16.875q0-3.647-1.7-5.058t-5.836-1.41a16.6,16.6,0,0,0-5.082.754,8.845,8.845,0,0,0-3.623,2.018v1.021l5.69,1.362v3.016a5.28,5.28,0,0,0-2.748,1.532,4.614,4.614,0,0,0-.9,3.087v10.554Z" transform="translate(2213.542 -1990.747)"/>
          <path id="Path_6135" data-name="Path 6135" d="M-1927.464,2246.226l-6.031-26.262h4.085l4.328,20.669,5.544-17.363v-3.307h2.967l5.933,20.669,4.281-20.669h4.036l-5.982,26.262h-3.988l-5.4-18.48-5.836,18.48Z" transform="translate(2200.787 -1990.961)"/>
          <path id="Path_6136" data-name="Path 6136" d="M-1908.085,2210.774v-6.42h3.356v3.551h13.083l-.194,2.869Z" transform="translate(2193.031 -1986.196)"/>
          <path id="Path_6137" data-name="Path 6137" d="M-1872.241,2246.713a8.43,8.43,0,0,1-6.493-2.431q-2.262-2.432-2.261-7v-17.314h3.988v17.264q0,3.259,1.459,4.669a6.454,6.454,0,0,0,4.62,1.41,10.284,10.284,0,0,0,4.571-1.021,12.748,12.748,0,0,0,3.6-2.578v-19.746h3.988v26.262h-3.6l-.243-3.16a14.421,14.421,0,0,1-4.134,2.65A13.93,13.93,0,0,1-1872.241,2246.713Z" transform="translate(2184.762 -1990.961)"/>
          <path id="Path_6138" data-name="Path 6138" d="M-1830.024,2246.5a27.7,27.7,0,0,1-5.715-.56,26.62,26.62,0,0,1-4.45-1.289v-9.97h3.7v7.393a17.772,17.772,0,0,0,6.176,1.021,10.044,10.044,0,0,0,4.912-.973q1.7-.972,1.7-3.647a4.886,4.886,0,0,0-.875-3.186,5.532,5.532,0,0,0-2.675-1.6q-1.8-.558-4.523-1.143-2.188-.486-4.231-1.143a8.341,8.341,0,0,1-3.356-1.945,4.914,4.914,0,0,1-1.313-3.673,5.228,5.228,0,0,1,2.87-4.984,17.121,17.121,0,0,1,7.976-1.533,33.7,33.7,0,0,1,4.912.365,19.323,19.323,0,0,1,3.891.9v3.5a22.733,22.733,0,0,0-3.866-.973,25.987,25.987,0,0,0-4.4-.389,34.093,34.093,0,0,0-3.769.194,6.846,6.846,0,0,0-2.772.828,2.158,2.158,0,0,0-1.046,1.994,2.336,2.336,0,0,0,1.094,2.139,9.534,9.534,0,0,0,2.991,1.094q1.9.413,4.377,1.046a28.347,28.347,0,0,1,4.474,1.484,7.278,7.278,0,0,1,3.088,2.456,7.808,7.808,0,0,1,1.143,4.572q0,4.135-2.821,6.079A12.96,12.96,0,0,1-1830.024,2246.5Z" transform="translate(2172.455 -1990.747)"/>
          <path id="Path_6139" data-name="Path 6139" d="M-1818.355,2271.269V2264.9h-3.21l.195-2.724h6.468v9.094Z" transform="translate(2166.623 -2003.845)"/>
          <path id="Path_6140" data-name="Path 6140" d="M-1802.019,2246.012v-10.651a6.691,6.691,0,0,1,.924-3.526,5.041,5.041,0,0,1,3.015-2.164l-5.5-1.263v-4.67a18.331,18.331,0,0,1,4.936-3.088,17.625,17.625,0,0,1,7.271-1.387q5.738,0,8.633,2.408t2.894,7.611v16.73h-3.988v-16.875q0-3.647-1.7-5.058t-5.836-1.41a16.6,16.6,0,0,0-5.082.754,8.847,8.847,0,0,0-3.623,2.018v1.021l5.69,1.362v3.016a5.28,5.28,0,0,0-2.748,1.532,4.614,4.614,0,0,0-.9,3.087v10.554Z" transform="translate(2161.131 -1990.747)"/>
          <path id="Path_6141" data-name="Path 6141" d="M-1751.8,2246.5a35.138,35.138,0,0,1-4.742-.316,16.263,16.263,0,0,1-3.866-.949v-3.551a19,19,0,0,0,3.939,1.07,24.806,24.806,0,0,0,3.988.34,15.238,15.238,0,0,0,5.325-.7,2.955,2.955,0,0,0,1.775-3.089,3.355,3.355,0,0,0-.9-2.552,6.9,6.9,0,0,0-2.553-1.411q-1.654-.558-3.988-1.337a38.1,38.1,0,0,1-4.036-1.628,8.8,8.8,0,0,1-3.064-2.31,5.61,5.61,0,0,1-1.167-3.7,6.084,6.084,0,0,1,2.553-5.277q2.553-1.824,7.611-1.824a26.338,26.338,0,0,1,4.231.341,21.571,21.571,0,0,1,3.5.826v3.5a17.5,17.5,0,0,0-3.477-.948,22.072,22.072,0,0,0-3.672-.316,13.913,13.913,0,0,0-5.034.706,2.8,2.8,0,0,0-1.726,2.894,2.964,2.964,0,0,0,.9,2.261,7.372,7.372,0,0,0,2.578,1.459q1.678.608,4.061,1.386a29.012,29.012,0,0,1,4.231,1.728,8.045,8.045,0,0,1,2.894,2.382,6.256,6.256,0,0,1,1.046,3.77q0,3.939-2.869,5.593A15.007,15.007,0,0,1-1751.8,2246.5Z" transform="translate(2148.162 -1990.747)"/>
          <path id="Path_6142" data-name="Path 6142" d="M-1716.515,2246.5a35.143,35.143,0,0,1-4.742-.316,16.263,16.263,0,0,1-3.866-.949v-3.551a19,19,0,0,0,3.939,1.07,24.8,24.8,0,0,0,3.988.34,15.241,15.241,0,0,0,5.326-.7,2.955,2.955,0,0,0,1.775-3.089,3.354,3.354,0,0,0-.9-2.552,6.9,6.9,0,0,0-2.553-1.411q-1.654-.558-3.988-1.337a38.088,38.088,0,0,1-4.037-1.628,8.8,8.8,0,0,1-3.064-2.31,5.609,5.609,0,0,1-1.167-3.7,6.085,6.085,0,0,1,2.553-5.277q2.553-1.824,7.611-1.824a26.343,26.343,0,0,1,4.231.341,21.572,21.572,0,0,1,3.5.826v3.5a17.5,17.5,0,0,0-3.477-.948,22.073,22.073,0,0,0-3.672-.316,13.911,13.911,0,0,0-5.033.706,2.8,2.8,0,0,0-1.727,2.894,2.964,2.964,0,0,0,.9,2.261,7.373,7.373,0,0,0,2.578,1.459q1.677.608,4.06,1.386a29.012,29.012,0,0,1,4.231,1.728,8.047,8.047,0,0,1,2.894,2.382,6.256,6.256,0,0,1,1.046,3.77q0,3.939-2.869,5.593A15.006,15.006,0,0,1-1716.515,2246.5Z" transform="translate(2137.394 -1990.747)"/>
          <path id="Path_6143" data-name="Path 6143" d="M-1675.751,2246.713a13.354,13.354,0,0,1-5.447-1,15.618,15.618,0,0,1-4.085-2.65l-.243,3.16h-3.6v-26.262h3.988v19.746a13.085,13.085,0,0,0,3.527,2.578,9.929,9.929,0,0,0,4.546,1.021,6.642,6.642,0,0,0,4.669-1.41q1.507-1.41,1.508-4.669v-17.264h3.988v17.314q0,4.571-2.334,7A8.607,8.607,0,0,1-1675.751,2246.713Z" transform="translate(2126.198 -1990.961)"/>
        </g>
      </g>
    </g>
  </g>
</svg>
