<svg xmlns="http://www.w3.org/2000/svg" xmlns:xlink="http://www.w3.org/1999/xlink" width="886" height="854" viewBox="0 0 886 854">
  <defs>
    <clipPath id="clip-path">
      <rect id="Rectangle_178" data-name="Rectangle 178" width="886" height="854" transform="translate(115 -25)" fill="none"/>
    </clipPath>
    <radialGradient id="radial-gradient" cx="0.5" cy="0.503" r="0.508" gradientTransform="matrix(0.878, 0.17, -0.127, 0.828, 0.364, 0.295)" gradientUnits="objectBoundingBox">
      <stop offset="0" stop-color="#97d5ee"/>
      <stop offset="0.032" stop-color="#9ad5ed"/>
      <stop offset="0.45" stop-color="#c2daed"/>
      <stop offset="0.781" stop-color="#dadced"/>
      <stop offset="0.983" stop-color="#e4deed"/>
    </radialGradient>
    <clipPath id="clip-path-2">
      <path id="Path_5619" data-name="Path 5619" d="M0,473.77l79.5-15.453s.45,13.411.421,35.269-3.327,52.595-3.327,52.595L17.569,666.152,35.38,698.746l15.9-1.769,34.379-31.506,17.756,6.613,26.033,10.4,26.375-6.309,63.131-78.338,10.3,20.11,24.228,6.959,11.161-10.254,27.492-101.827-9.282-48.7,3.281-97.768L381.793,0,266.272-192.327,78.7,345.027l-53.478,60Z" transform="translate(0 0)" fill="none"/>
    </clipPath>
  </defs>
  <g id="Mask_Group_1" data-name="Mask Group 1" transform="translate(-115 25)" clip-path="url(#clip-path)">
    <g id="Group_2785" data-name="Group 2785" transform="matrix(0.995, -0.105, 0.105, 0.995, 51.052, 56.091)">
      <path id="Path_5600" data-name="Path 5600" d="M266.725,514.732c-5.3,65.581-.438,77.721-7.1,100.686-6.811,23.491-23.529,5.487-25.444-12.243-3.04-28.146,1.837-37.687-5.734-60.941-5.528-16.979-15.143,2.264-15.143,2.264l-32.3,68.045s-35.554,42.62-54.289,55.148C108.56,679.836,93.506,684.222,89.3,681.856c-9.489-5.336-2.709-23.806-2.709-23.806S68.63,667.012,63.134,677.3c-11.176,20.917-23.739.728-22.762-11.358,1.776-21.961,10.375-41.156,28.115-88.4s22.933-99.381,22.933-99.381-67.2,70.483-78.918,73.19-14.859-3.364-10.839-16.7.67-25.143,9.439-49.641S40.587,418.335,46.256,405.3c9.438-21.695,45.8-64.378,58.531-80.183,21.185-26.29,43.552-41.357,56.682-75.24s99.844-449.074,99.844-449.074L381.743,0S303.365,180.977,276.793,306.906,266.725,514.732,266.725,514.732Z" transform="translate(582.118 -111.578) rotate(17)"/>
      <path id="Path_5601" data-name="Path 5601" d="M751.85,89.012s-34.34-4.907-35.138,3.364-2.008,258.85-2.008,258.85L699.087,529.942a8.3,8.3,0,0,0,7.778,8.453c61.477,3.861,459.526,28.871,467.632,29.608,8.785.8,9.583-2.4,10.382-15.706s23.493-266.372,23.493-266.372Z" transform="translate(-685.715 239.481)"/>
      <g id="Group_2523" data-name="Group 2523" transform="translate(0 307.874)">
        <path id="Path_5602" data-name="Path 5602" d="M757.786,50.7l491.325,73.434L1145.637,562.308l-471.043-69.95L752.729,54.335A4.467,4.467,0,0,1,757.786,50.7Z" transform="translate(-673.945 -50.652)" fill-rule="evenodd" fill="url(#radial-gradient)"/>
        <path id="Path_5603" data-name="Path 5603" d="M1145.038,567.1a.68.68,0,0,1-.1-.007L673.9,497.144a.649.649,0,0,1-.543-.756L751.326,59.813a.649.649,0,0,1,1.278.228L674.75,495.959l469.792,69.764,103.174-436.9L821.057,65.05a.649.649,0,1,1,.192-1.284l427.358,63.874a.649.649,0,0,1,.536.791L1145.668,566.6A.649.649,0,0,1,1145.038,567.1Z" transform="translate(-673.344 -54.798)" fill="#0d0d0c"/>
        <path id="Path_5604" data-name="Path 5604" d="M731.169,66.708l498.513,53.933-67.551,443.5L688.365,513.339Z" transform="translate(-680.563 -58.368)" fill="#fff" fill-rule="evenodd"/>
        <path id="Path_5606" data-name="Path 5606" d="M1161.53,715.815c-.024,0-.047,0-.07,0L687.694,665.006a.649.649,0,0,1-.577-.706l26.508-282.759a.649.649,0,0,1,1.293.121L688.47,663.783l472.517,50.671,38.357-238.17a.649.649,0,0,1,1.282.206L1162.17,715.269A.65.65,0,0,1,1161.53,715.815Z" transform="translate(-679.962 -209.389)" fill="#0d0d0c"/>
        <path id="Path_5607" data-name="Path 5607" d="M1242.219,291.226a.807.807,0,0,1-.111-.008.779.779,0,0,1-.662-.881l24.123-169.729L768.638,66.846l-2.2,22.166a.779.779,0,1,1-1.55-.154l2.282-22.948a.778.778,0,0,1,.859-.7l498.513,53.933a.779.779,0,0,1,.688.884l-24.236,170.526A.779.779,0,0,1,1242.219,291.226Z" transform="translate(-717.334 -57.648)" fill="#0d0d0c"/>
        <path id="Path_5608" data-name="Path 5608" d="M741.334,342.469c-.026,0-.051,0-.078,0a.779.779,0,0,1-.7-.852l1.407-14.149a.779.779,0,0,1,1.55.154l-1.407,14.15A.78.78,0,0,1,741.334,342.469Z" transform="translate(-705.644 -183.346)" fill="#0d0d0c"/>
      </g>
      <path id="Path_5633" data-name="Path 5633" d="M0,169.745c25.631-43.4,20.477-130.871,20.807-148.289S19.612.429,15.9.028s33.23,3.608,33.23,3.608L61.77,29.113,37.487,106.375Z" transform="translate(512.847 353.205) rotate(17)"/>
      <g id="Group_2526" data-name="Group 2526" transform="translate(588.066 -93.348) rotate(17)">
        <g id="Group_2525" data-name="Group 2525" transform="translate(0 0)" clip-path="url(#clip-path-2)">
          <g id="Group_2524" data-name="Group 2524" transform="translate(-22.792 -0.278)">
            <path id="Path_5609" data-name="Path 5609" d="M286.8-182.449S265.69-85.343,239.358,21.129c-24.508,99.1-53.5,206.213-74.422,251.89-8.514,18.584-28.853,52.668-28.853,52.668S85.072,369.025,70.71,394.226,33.42,467.9,28.052,477.508s-9.367,29.581-11.65,39.92S-.6,551.721.019,559.162s16.11,11.725,34.5-2.338,27.077-28.548,31.6-47.719,35.033-51.534,36.871-52.383c0,0,5.419,13.988,4.448,28.4s-4.166,55.108-5.641,62.425-17.041,52.536-25.171,66.887S58.671,646.059,53.941,659.46s.687,23.527,6.881,25.2,14.545-6.2,19.465-12.109a121.884,121.884,0,0,1,10.324-10.818s3.3,8.431,15.991-.921,40.288-31.306,44.527-35.64,9.253-9.4,9.253-9.4-18.552,26.1-22.766,38.367-.938,20.489,6.08,19.923,18.508-13,25.925-21.553,13.8-14.2,20.609-24.967,34.188-39.853,36.606-43.841,5.289-11.6,9.038-29.33,8.582-34.715,8.582-34.715,7.211,22.371,7.619,24.758-3.229,24.964-4.86,36.017-1.864,25.671,5.249,31.745,14.257,5.995,16.767-3.583,9.082-46.929,13.774-60.04,4.407-24.666,1.956-40.271-2.476-56.945-2.288-62.974,2.29-96.384,7.986-118.475,7.216-35.421,16.618-48.627,12.823-21.025,14.123-37.62,14.92-58.737,28.572-98.022S403.14,0,403.14,0Z" transform="translate(0.649 0.649)" fill="#f9cfcc"/>
            <path id="Path_5610" data-name="Path 5610" d="M50.321,155.734a6.941,6.941,0,0,1-5.7-2.748c-2.831-3.645-2.95-10.4-.318-18.062,2.978-8.673,12.858-23.908,18.613-32.4-1.3,1.323-2.7,2.749-4.022,4.1-4.293,4.389-31.747,26.233-44.607,35.708-7.2,5.3-11.548,4.994-13.933,3.8a.649.649,0,0,1,.581-1.161C3,146,6.854,146.195,13.522,141.281c12.519-9.225,40.284-31.312,44.448-35.571,4.191-4.286,9.207-9.351,9.256-9.4a.649.649,0,0,1,.991.833c-.185.26-18.547,26.161-22.681,38.2-2.489,7.249-2.445,13.546.116,16.845a5.8,5.8,0,0,0,5.3,2.22c7.509-.606,21.04-16.205,25.487-21.331,2.057-2.371,4.04-4.526,5.957-6.609,4.987-5.418,9.7-10.536,14.594-18.28,4.182-6.613,15.8-19.788,25.143-30.374,5.656-6.413,10.542-11.951,11.455-13.458,2.932-4.837,5.778-14.092,8.958-29.127C146.254,17.685,151.088.642,151.136.472a.649.649,0,1,1,1.249.355C152.337,1,147.516,18,143.814,35.5c-3.211,15.182-6.109,24.565-9.118,29.531-.973,1.606-5.659,6.918-11.592,13.643-9.308,10.552-20.893,23.684-25.019,30.209-4.96,7.843-9.709,13-14.737,18.465-1.911,2.077-3.888,4.224-5.931,6.581C69.549,143,58.257,155.122,51.053,155.7Q50.682,155.734,50.321,155.734Z" transform="translate(93.345 519.655)" fill="#0d0d0c"/>
            <path id="Path_5611" data-name="Path 5611" d="M63.271,686.188a7.516,7.516,0,0,1-1.97-.254,11.758,11.758,0,0,1-6.924-6.166c-2.819-5.364-2.965-12.608-.4-19.874C58.668,646.6,68.5,629.25,76.4,615.3l.3-.538c8.21-14.492,23.732-59.909,25.1-66.7,1.417-7.032,4.588-46.885,5.63-62.34.818-12.146-2.78-30.3-2.78-30.3S71.563,492.225,67.4,509.9c-4.785,20.3-14.3,34.682-31.834,48.086-13.181,10.08-24.66,10.637-30.485,8.05-3-1.332-4.844-3.583-5.057-6.175-.356-4.316,3.942-13.346,8.493-22.906,3.4-7.133,6.907-14.509,7.9-19.021.214-.972.444-2.03.689-3.156,2.437-11.21,6.118-28.151,11.028-36.941,1.939-3.471,6.162-12,11.509-22.8,9.28-18.742,21.99-44.411,31.152-60.488,13.983-24.538,63.1-66.647,65.435-68.642,1.178-1.978,20.579-34.645,28.765-52.515C207.964,179.6,230.678,30.927,230.9,29.436a.65.65,0,0,1,.535-.544L403.682.009a.649.649,0,0,1,.714.872c-.4,1.033-39.669,103.72-53.163,142.546-17.881,51.451-27.481,84.375-28.538,97.859-1.36,17.36-5.312,25.4-14.242,37.946-7.365,10.344-9.888,20.948-13.382,35.624-.956,4.015-1.944,8.167-3.136,12.787-4.623,17.933-6.937,80.492-7.905,116.187-.028,1.033-.048,1.762-.06,2.147-.172,5.529-.191,47.123,2.281,62.852,2.362,15.034,2.854,27.068-1.985,40.591-3.062,8.556-6.885,27.276-9.958,42.319-1.573,7.7-2.932,14.354-3.8,17.667-1.115,4.257-3.233,6.986-6.123,7.892-3.317,1.041-7.47-.373-11.694-3.98-7.913-6.758-6.824-23.159-5.471-32.333.337-2.282.759-5.055,1.214-8.039,1.669-10.966,3.956-25.983,3.649-27.774-.107-.626-.816-3.226-3.586-12.056a.649.649,0,0,1,1.239-.388c2.241,7.145,3.461,11.258,3.627,12.226.318,1.85-1.386,13.349-3.645,28.188-.454,2.982-.876,5.753-1.212,8.033-1.315,8.909-2.409,24.8,5.028,31.156,3.872,3.306,7.587,4.631,10.462,3.729,2.441-.766,4.259-3.18,5.256-6.982.859-3.278,2.214-9.914,3.783-17.6,3.08-15.082,6.914-33.854,10.007-42.5,4.747-13.262,4.256-25.12,1.925-39.951-2.485-15.813-2.468-57.549-2.3-63.095.012-.384.032-1.111.06-2.141.97-35.749,3.291-98.419,7.946-116.475,1.188-4.609,2.175-8.754,3.129-12.764,3.528-14.82,6.077-25.527,13.589-36.078,9.19-12.908,12.688-20.483,14-37.294,1.081-13.786,10.437-45.9,28.606-98.184,12.759-36.713,48.548-130.472,52.771-141.523L232.116,30.1c-.689,4.466-6.331,40.342-16.6,86.037-10.091,44.887-26.841,108.7-49.337,157.807-8.431,18.4-28.682,52.39-28.885,52.731a.649.649,0,0,1-.138.162c-.509.433-51.09,43.552-65.23,68.365-9.144,16.045-21.843,41.693-31.117,60.422-5.355,10.814-9.584,19.356-11.539,22.855-4.816,8.621-8.619,26.125-10.892,36.584-.245,1.127-.475,2.186-.691,3.16-1.028,4.657-4.414,11.77-8,19.3C5.41,546.5.988,555.791,1.315,559.758c.174,2.1,1.737,3.962,4.29,5.095,5.5,2.442,16.439,1.84,29.169-7.9,17.27-13.206,26.648-27.367,31.359-47.352,4.518-19.17,36.416-54.821,38.563-55.813a.65.65,0,0,1,.878.355c.054.141,4.126,17.278,3.157,31.669-.96,14.256-4.152,55.07-5.652,62.51-1.375,6.826-16.986,52.505-25.243,67.08l-.3.538c-7.875,13.9-17.677,31.2-22.33,44.381-2.445,6.927-2.327,13.793.325,18.838a10.476,10.476,0,0,0,6.113,5.517c6.741,1.821,16.093-8.647,18.8-11.9A123.6,123.6,0,0,1,90.824,661.9a.649.649,0,1,1,.873.961,122.328,122.328,0,0,0-10.261,10.753C78.128,677.587,70.169,686.187,63.271,686.188Z" transform="translate(0 0)" fill="#0d0d0c"/>
            <path id="Path_5612" data-name="Path 5612" d="M3.7,39.753a42.186,42.186,0,0,1-3-9.779,48.106,48.106,0,0,1-.66-10.261L.1,18.427c.03-.429.079-.855.117-1.282.083-.854.149-1.71.295-2.557s.253-1.7.435-2.536l.253-1.26c.086-.42.207-.832.308-1.248A38.108,38.108,0,0,1,5.175,0,69.33,69.33,0,0,0,2.7,9.8c-.161.823-.275,1.655-.4,2.482s-.224,1.661-.317,2.492c-.11.83-.177,1.664-.241,2.5-.031.417-.073.833-.1,1.251l-.043,1.253-.061,1.253c-.015.418,0,.836-.006,1.253.009.836-.019,1.674.034,2.508s.053,1.673.114,2.507c.086.832.155,1.667.222,2.5A83.851,83.851,0,0,0,3.7,39.753Z" transform="translate(97.109 410.531)" fill="#0d0d0c"/>
            <path id="Path_5613" data-name="Path 5613" d="M0,130.128a61.125,61.125,0,0,1,6.076-7.069c2.155-2.241,4.327-4.459,6.446-6.722a120.844,120.844,0,0,0,11.732-14.354,117.25,117.25,0,0,0,9.187-16.059c2.637-5.607,5.129-11.287,7.538-17,2.437-5.7,4.772-11.455,7.078-17.218,2.329-5.754,4.572-11.543,6.87-17.312s4.53-11.565,6.866-17.328c1.181-2.88,2.463-5.712,3.716-8.554s2.519-5.68,3.8-8.51Q67.62,4.345,65.891,8.67c-1.145,2.887-2.318,5.762-3.385,8.673-2.187,5.808-4.3,11.649-6.458,17.476-4.31,11.654-8.8,23.25-13.633,34.71-2.444,5.719-4.948,11.415-7.645,17.029a109.124,109.124,0,0,1-9.539,16.112,120.353,120.353,0,0,1-12.162,14.2c-2.211,2.191-4.467,4.328-6.7,6.483A70.373,70.373,0,0,0,0,130.128Z" transform="translate(95.122 525.493)" fill="#0d0d0c"/>
            <path id="Path_5614" data-name="Path 5614" d="M0,99.3c3.3-3.463,6.728-6.82,9.767-10.49a47.956,47.956,0,0,0,7.6-11.944c.96-2.169,1.659-4.391,2.458-6.688.8-2.267,1.656-4.507,2.521-6.743,1.746-4.465,3.587-8.888,5.46-13.3,3.79-8.8,7.777-17.517,12.135-26.056,2.173-4.272,4.458-8.491,6.917-12.61C48.1,9.423,49.379,7.39,50.773,5.434A29.047,29.047,0,0,1,55.467,0a20.489,20.489,0,0,0-2.329,2.715c-.357.477-.712.955-1.038,1.456s-.675.983-.985,1.493c-1.287,2.008-2.457,4.091-3.6,6.188-2.291,4.189-4.419,8.466-6.491,12.77-2.055,4.313-4.083,8.639-6.03,13q-2.95,6.532-5.763,13.127-2.844,6.58-5.523,13.226c-.9,2.213-1.78,4.432-2.608,6.663l-1.225,3.375c-.2.571-.435,1.131-.676,1.688s-.463,1.119-.736,1.662a42,42,0,0,1-3.6,6.3,55.092,55.092,0,0,1-4.526,5.64C7.074,92.844,3.547,96.085,0,99.3Z" transform="translate(163.363 514.932)" fill="#0d0d0c"/>
            <path id="Path_5615" data-name="Path 5615" d="M0,30.61a56.925,56.925,0,0,1,2.475-8.188c1.018-2.665,2.183-5.27,3.43-7.832.649-1.268,1.288-2.541,1.972-3.79S9.256,8.31,10,7.095A73.287,73.287,0,0,1,14.761,0c-1.189,2.6-2.437,5.14-3.695,7.677L7.3,15.28c-.631,1.264-1.255,2.531-1.864,3.8-.644,1.258-1.211,2.55-1.848,3.814Z" transform="translate(246.101 485.793)" fill="#0d0d0c"/>
            <path id="Path_5616" data-name="Path 5616" d="M5.977,0A52.211,52.211,0,0,1,7.116,7.472a28.689,28.689,0,0,1-.354,7.61A26.147,26.147,0,0,1,4.2,22.267,37.31,37.31,0,0,1,0,28.56c1.236-2.194,2.456-4.38,3.471-6.645a31.607,31.607,0,0,0,2.27-7.026,35.547,35.547,0,0,0,.568-7.381C6.276,5.017,6.1,2.516,5.977,0Z" transform="translate(154.278 487.978)" fill="#0d0d0c"/>
            <path id="Path_5617" data-name="Path 5617" d="M0,30.978a57.516,57.516,0,0,0,4.752-6.857,24.855,24.855,0,0,0,2.849-7.6c.121-.665.212-1.339.308-2.01.042-.68.112-1.357.132-2.04.056-1.367.005-2.742-.07-4.124C7.8,5.586,7.425,2.809,7.138,0A45.365,45.365,0,0,1,9.182,8.224a25.933,25.933,0,0,1-.051,8.59A22.225,22.225,0,0,1,7.858,20.97a17.938,17.938,0,0,1-.95,1.948l-.526.944c-.184.309-.4.6-.6.895A29.116,29.116,0,0,1,0,30.978Z" transform="translate(209.292 485.016)" fill="#0d0d0c"/>
            <path id="Path_5618" data-name="Path 5618" d="M0,15.89C.213,15.2.486,14.55.743,13.9l.735-1.945c.217-.653.489-1.281.682-1.935l.324-.967.285-.975a34.129,34.129,0,0,0,.89-3.953A21.857,21.857,0,0,0,3.954,0a9.249,9.249,0,0,1,.928,4.211,15.362,15.362,0,0,1-.614,4.3L3.941,9.541c-.126.338-.264.671-.4,1a17.828,17.828,0,0,1-.956,1.931c-.349.625-.777,1.206-1.174,1.8A21.256,21.256,0,0,1,0,15.89Z" transform="translate(248.081 465.604)" fill="#0d0d0c"/>
          </g>
        </g>
      </g>
      <path id="Path_5634" data-name="Path 5634" d="M333.583,192.139l.916-.479,4.2-2.192-2.842,17.276-.35-13.763Z" transform="translate(195.107 176.076)" fill="#0d0d0c"/>
      <g id="Group_2801" data-name="Group 2801" transform="matrix(0.995, 0.105, -0.105, 0.995, 120.725, 453.03)">
        <g id="Group_2790" data-name="Group 2790" transform="matrix(1, 0, 0, 1, -0.471, 0)">
          <path id="Path_5851" data-name="Path 5851" d="M0,20.727V8.1A7.826,7.826,0,0,1,2.28,2.2Q4.56,0,9.61,0T16.92,2.2a7.861,7.861,0,0,1,2.261,5.9V20.727H14.094v-13A3.39,3.39,0,0,0,12.907,4.9a5.178,5.178,0,0,0-3.3-.942q-4.523,0-4.522,3.768v3.655a6.756,6.756,0,0,1,1.6-.867,5.384,5.384,0,0,1,1.941-.339h2.45l.15,4.032H8.517a5.821,5.821,0,0,0-1.884.283,5.676,5.676,0,0,0-1.545.811v5.426Z" transform="translate(0 16.205)" fill="#ed759d"/>
          <path id="Path_5852" data-name="Path 5852" d="M2.261,7.612V3.241H0L.189,0H6.557V7.612Z" transform="translate(12.549 38.853)" fill="#ed759d"/>
          <path id="Path_5853" data-name="Path 5853" d="M21.1,21.1a6.483,6.483,0,0,1-5.069-1.979,7.931,7.931,0,0,1-1.79-5.52V8.328a4.453,4.453,0,0,0-1.074-3.373,4.9,4.9,0,0,0-3.411-1,9.439,9.439,0,0,0-3.109.49A6.867,6.867,0,0,0,4.371,5.69v.528L8.555,7.349v3.09a3.091,3.091,0,0,0-2.016,1.225,5.238,5.238,0,0,0-.509,2.619v1.093a1.43,1.43,0,0,0,.339,1.075,1.5,1.5,0,0,0,1.055.32h2v3.957h-4.6A3.694,3.694,0,0,1,2.016,19.6,3.991,3.991,0,0,1,.942,16.732V14.245a7.6,7.6,0,0,1,.584-3.071A3.432,3.432,0,0,1,3.844,9.308L0,8.291V3.429A15.2,15.2,0,0,1,4.126,1.055,15.486,15.486,0,0,1,10.024,0a13.535,13.535,0,0,1,4.9.791,6.1,6.1,0,0,1,3.128,2.638,9.825,9.825,0,0,1,1.093,5.012V13.3a3.971,3.971,0,0,0,.923,2.958,3.8,3.8,0,0,0,2.732.886,6.168,6.168,0,0,0,2.694-.6,6.729,6.729,0,0,0,2.092-1.507V.377h5.087v20.35H28l-.226-2A8.8,8.8,0,0,1,24.853,20.5,10.829,10.829,0,0,1,21.1,21.1Z" transform="translate(22.875 16.205)" fill="#ed759d"/>
          <path id="Path_5854" data-name="Path 5854" d="M4.447,20.35A4.732,4.732,0,0,1,1,19.332a4.428,4.428,0,0,1-1-3.2V0H5.087V14.81a1.382,1.382,0,0,0,1.545,1.583H7.914V20.35Z" transform="translate(60.108 16.582)" fill="#ed759d"/>
          <path id="Path_5855" data-name="Path 5855" d="M8.4,21.1a22.341,22.341,0,0,1-4.711-.471A20.643,20.643,0,0,1,0,19.521V8.818H8.63l.226,3.731H4.824v4.108a10.185,10.185,0,0,0,1.715.358,14.489,14.489,0,0,0,1.9.132q3.089,0,4.333-1.47t1.244-5.05a9.915,9.915,0,0,0-.66-4.013A3.871,3.871,0,0,0,11.211,4.56a11.067,11.067,0,0,0-4.051-.6A25.435,25.435,0,0,0,3.712,4.2a20.581,20.581,0,0,0-3.448.772V1.169A21.723,21.723,0,0,1,4.145.3,31.226,31.226,0,0,1,8.4,0q5.5,0,7.971,2.732t2.468,7.895q0,5.051-2.468,7.763T8.4,21.1Z" transform="translate(70.81 16.205)" fill="#ed759d"/>
          <path id="Path_5856" data-name="Path 5856" d="M9.911,20.727a16.768,16.768,0,0,1-2.167-.15,12.648,12.648,0,0,1-2.016-.415L0,6.218H4.936L9.421,17.109a4.544,4.544,0,0,0,4.089-1.9,10.337,10.337,0,0,0,1.263-5.672,11.488,11.488,0,0,0-.434-3.542,3.129,3.129,0,0,0-1.413-1.828,5.615,5.615,0,0,0-2.713-.546H8.668V0h2.261Q15.413,0,17.5,2.355T19.6,9.534a14.306,14.306,0,0,1-1.244,6.425,8.023,8.023,0,0,1-3.41,3.618A10.575,10.575,0,0,1,9.911,20.727Z" transform="translate(90.897 16.582)" fill="#ed759d"/>
          <path id="Path_5857" data-name="Path 5857" d="M.942,20.727V14.245a7.6,7.6,0,0,1,.584-3.071A3.432,3.432,0,0,1,3.843,9.308L0,8.291V3.429A15.2,15.2,0,0,1,4.126,1.055,15.485,15.485,0,0,1,10.024,0a15.268,15.268,0,0,1,5.219.791A6.335,6.335,0,0,1,18.56,3.429a9.43,9.43,0,0,1,1.149,5.012V20.727H14.622V8.328A4.358,4.358,0,0,0,13.51,4.955a5.59,5.59,0,0,0-3.749-1,9.441,9.441,0,0,0-3.109.49A6.868,6.868,0,0,0,4.372,5.69v.528L8.554,7.349v3.09a3.091,3.091,0,0,0-2.016,1.225,5.236,5.236,0,0,0-.509,2.619v6.444Z" transform="translate(112.227 16.205)" fill="#ed759d"/>
          <path id="Path_5858" data-name="Path 5858" d="M4.974,9.308A5.284,5.284,0,0,1,1.338,8.121,4.275,4.275,0,0,1,0,4.749a4.57,4.57,0,0,1,1.357-3.43A5.345,5.345,0,0,1,5.238,0h9.5l-.226,2.827H5.728a2.878,2.878,0,0,0-1.7.433,1.712,1.712,0,0,0-.6,1.489q0,1.772,1.884,1.771a1.924,1.924,0,0,0,1.394-.414,1.473,1.473,0,0,0,.415-1.092V4.334h3.015v.678a1.3,1.3,0,0,0,.4,1.092,2.019,2.019,0,0,0,1.225.3h2.3V9.233H11.381a5,5,0,0,1-1.7-.283,1.838,1.838,0,0,1-1.093-.885,2.492,2.492,0,0,1-1.507.923A7.749,7.749,0,0,1,4.974,9.308Z" transform="translate(115.618 4.56)" fill="#ed759d"/>
          <path id="Path_5859" data-name="Path 5859" d="M11.758,20.727a10.711,10.711,0,0,1-3.806-.64A11.058,11.058,0,0,1,4.9,18.353l-.226,2H0V0H5.087V14.66a6.446,6.446,0,0,0,2.2,1.507,6.839,6.839,0,0,0,2.77.6,3.8,3.8,0,0,0,2.732-.886,3.972,3.972,0,0,0,.923-2.958V0H18.8V13.228a7.683,7.683,0,0,1-1.884,5.521A6.79,6.79,0,0,1,11.758,20.727Z" transform="translate(136.383 16.582)" fill="#ed759d"/>
          <path id="Path_5860" data-name="Path 5860" d="M0,6.52.264,3.053H12.324V0h4.145V6.52Z" transform="translate(138.682 7.273)" fill="#ed759d"/>
          <path id="Path_5861" data-name="Path 5861" d="M0,20.727V8.1A7.824,7.824,0,0,1,2.28,2.2Q4.56,0,9.61,0t7.311,2.2a7.862,7.862,0,0,1,2.261,5.9V20.727H14.095v-13A3.39,3.39,0,0,0,12.908,4.9a5.18,5.18,0,0,0-3.3-.942q-4.523,0-4.522,3.768v3.655a6.755,6.755,0,0,1,1.6-.867,5.385,5.385,0,0,1,1.941-.339H11.08l.151,4.032H8.517a5.822,5.822,0,0,0-1.884.283,5.672,5.672,0,0,0-1.545.811v5.426Z" transform="translate(159.635 16.205)" fill="#ed759d"/>
          <path id="Path_5862" data-name="Path 5862" d="M6.482,21.1A16.381,16.381,0,0,1,0,19.9V16.016a15.959,15.959,0,0,0,2.525.81,11.9,11.9,0,0,0,2.751.321q3.542,0,5.069-1.47t1.526-5.125q0-3.655-1.526-5.126T5.276,3.957a12.666,12.666,0,0,0-2.751.3A12.983,12.983,0,0,0,0,5.087V1.206A16.388,16.388,0,0,1,6.482,0q5.163,0,7.688,2.695t2.525,7.858q0,5.163-2.525,7.857T6.482,21.1Z" transform="translate(181.907 16.205)" fill="#ed759d"/>
          <path id="Path_5863" data-name="Path 5863" d="M9.082,20.727V8.216a5.369,5.369,0,0,0-.791-3.147Q7.5,3.958,5.126,3.957a13.282,13.282,0,0,0-2.638.282A16,16,0,0,0,0,4.937V1.206A12.669,12.669,0,0,1,2.789.339,16.506,16.506,0,0,1,6.105,0q4.3,0,6.181,1.828T14.17,7.5V20.727Z" transform="translate(199.845 16.205)" fill="#ed759d"/>
          <path id="Path_5864" data-name="Path 5864" d="M11.758,20.727a10.714,10.714,0,0,1-3.806-.64A11.057,11.057,0,0,1,4.9,18.353l-.226,2H0V0H5.087V14.66a6.445,6.445,0,0,0,2.2,1.507,6.838,6.838,0,0,0,2.77.6,3.8,3.8,0,0,0,2.732-.886,3.971,3.971,0,0,0,.924-2.958V0H18.8V13.228a7.683,7.683,0,0,1-1.884,5.521A6.79,6.79,0,0,1,11.758,20.727Z" transform="translate(218.461 16.582)" fill="#ed759d"/>
          <path id="Path_5865" data-name="Path 5865" d="M4.447,20.35A4.732,4.732,0,0,1,1,19.332a4.427,4.427,0,0,1-1-3.2V0H5.088V14.81a1.382,1.382,0,0,0,1.545,1.583H7.914V20.35Z" transform="translate(241.826 16.582)" fill="#ed759d"/>
          <path id="Path_5866" data-name="Path 5866" d="M7.084,21.1a9.817,9.817,0,0,1-3.542-.621A5.379,5.379,0,0,1,.961,18.447,6.562,6.562,0,0,1,0,14.7a5.631,5.631,0,0,1,2.072-4.692A9.417,9.417,0,0,1,8.027,8.366h5.767v-.98a3.079,3.079,0,0,0-1.056-2.657,6.6,6.6,0,0,0-3.73-.772A23.593,23.593,0,0,0,5.521,4.2a20.162,20.162,0,0,0-3.26.772V1.169a26.192,26.192,0,0,1,3.58-.83A24.278,24.278,0,0,1,9.836,0a18.807,18.807,0,0,1,1.923.094,13.33,13.33,0,0,1,1.7.283h7.085l-.264,3.882h-2.3a5.474,5.474,0,0,1,.678,1.658,8.547,8.547,0,0,1,.226,2V20.727H13.793V12.1H8.329a4.964,4.964,0,0,0-2.562.566A2.173,2.173,0,0,0,4.824,14.7a2.1,2.1,0,0,0,.83,1.922,5.439,5.439,0,0,0,2.788.528,13.056,13.056,0,0,0,1.413-.076,6.4,6.4,0,0,0,1.187-.226v3.731a11.491,11.491,0,0,1-1.752.377A15.422,15.422,0,0,1,7.084,21.1Z" transform="translate(252.642 16.205)" fill="#ed759d"/>
          <path id="Path_5867" data-name="Path 5867" d="M0,6.52.264,3.053H12.324V0h4.145V6.52Z" transform="translate(255.054 7.273)" fill="#ed759d"/>
          <path id="Path_5868" data-name="Path 5868" d="M0,5.276V0H4.146V5.276Z" transform="translate(267.189 0)" fill="#ed759d"/>
          <path id="Path_5869" data-name="Path 5869" d="M9.76,21.1a18.7,18.7,0,0,1-4.9-.6,7.189,7.189,0,0,1-3.543-2.054A5.573,5.573,0,0,1,0,14.547,5.322,5.322,0,0,1,.622,12.04a4.579,4.579,0,0,1,1.94-1.9A4.149,4.149,0,0,1,.773,8.592a4.54,4.54,0,0,1-.7-2.562,5.455,5.455,0,0,1,1.885-4.5A7.478,7.478,0,0,1,6.821,0a13,13,0,0,1,2,.132,7.4,7.4,0,0,1,1.507.4V4.258a9.885,9.885,0,0,0-2.6-.3,3.865,3.865,0,0,0-2.111.471A1.772,1.772,0,0,0,4.9,6.03,1.827,1.827,0,0,0,5.69,7.745a4.736,4.736,0,0,0,2.374.471h2.11l.189,3.73H8.027q-3.2,0-3.2,2.6a2.109,2.109,0,0,0,1.149,1.94,7.4,7.4,0,0,0,3.562.66,5.41,5.41,0,0,0,3.618-1.018,3.689,3.689,0,0,0,1.169-2.939V.377h5.087V12.737q0,4.409-2.506,6.388T9.76,21.1Z" transform="translate(275.668 16.205)" fill="#ed759d"/>
          <path id="Path_5870" data-name="Path 5870" d="M9.911,20.727a16.763,16.763,0,0,1-2.167-.15,12.634,12.634,0,0,1-2.016-.415L0,6.218H4.937L9.421,17.109a4.544,4.544,0,0,0,4.089-1.9,10.342,10.342,0,0,0,1.262-5.672,11.49,11.49,0,0,0-.433-3.542,3.135,3.135,0,0,0-1.413-1.828,5.617,5.617,0,0,0-2.713-.546H8.668V0h2.261Q15.413,0,17.5,2.355T19.6,9.534a14.308,14.308,0,0,1-1.243,6.425,8.028,8.028,0,0,1-3.41,3.618A10.578,10.578,0,0,1,9.911,20.727Z" transform="translate(297.262 16.582)" fill="#ed759d"/>
          <path id="Path_5871" data-name="Path 5871" d="M0,7.574V0H4.3L3.769,7.574Zm6.52,0V0h4.3l-.527,7.574Z" transform="translate(51.44 63.347)" fill="#ed759d"/>
          <path id="Path_5872" data-name="Path 5872" d="M8.178,29.922A4.731,4.731,0,0,1,4.729,28.9a4.427,4.427,0,0,1-1-3.2V9.157a5.858,5.858,0,0,0-.923-3.542A5.621,5.621,0,0,0,0,3.731V0H12.323V3.957H6.407A4.536,4.536,0,0,1,8.215,5.916a7.06,7.06,0,0,1,.6,3.09V24.382a1.382,1.382,0,0,0,1.545,1.583h1.281v3.957Z" transform="translate(63.311 57.694)" fill="#ed759d"/>
          <path id="Path_5873" data-name="Path 5873" d="M7.612,21.1a26.38,26.38,0,0,1-4.051-.3,14.392,14.392,0,0,1-3.146-.791V15.9a15.277,15.277,0,0,0,3.146.923,17.036,17.036,0,0,0,3.109.321,12.088,12.088,0,0,0,3.561-.377,1.5,1.5,0,0,0,1.112-1.545,1.72,1.72,0,0,0-.584-1.394,5.5,5.5,0,0,0-1.79-.885q-1.206-.4-3.09-1.037A15.419,15.419,0,0,1,1.564,9.7,4.334,4.334,0,0,1,0,6.068,5.339,5.339,0,0,1,2.11,1.677Q4.221,0,8.479,0a24.078,24.078,0,0,1,3.542.264,17.6,17.6,0,0,1,2.9.641v4.07A11.9,11.9,0,0,0,12.078,4.2,19.282,19.282,0,0,0,9.2,3.957a10.6,10.6,0,0,0-3.071.4,1.587,1.587,0,0,0-1.3,1.6,1.4,1.4,0,0,0,.66,1.206,7.059,7.059,0,0,0,1.884.829q1.224.377,2.92.979a17.443,17.443,0,0,1,3.41,1.508A4.925,4.925,0,0,1,15.583,12.4a6.119,6.119,0,0,1,.584,2.826,4.885,4.885,0,0,1-2.28,4.428A11.625,11.625,0,0,1,7.612,21.1Z" transform="translate(76.765 66.889)" fill="#ed759d"/>
          <path id="Path_5874" data-name="Path 5874" d="M0,20.727V8.1A7.825,7.825,0,0,1,2.28,2.2Q4.56,0,9.61,0t7.311,2.2a7.859,7.859,0,0,1,2.261,5.9V20.727H14.094v-13A3.39,3.39,0,0,0,12.907,4.9a5.179,5.179,0,0,0-3.3-.942q-4.522,0-4.522,3.769v3.655a6.742,6.742,0,0,1,1.6-.867,5.386,5.386,0,0,1,1.941-.339H11.08l.151,4.032H8.516a5.821,5.821,0,0,0-1.884.283,5.67,5.67,0,0,0-1.545.811v5.426Z" transform="translate(96.437 66.889)" fill="#ed759d"/>
          <path id="Path_5875" data-name="Path 5875" d="M4.447,20.35A4.733,4.733,0,0,1,1,19.332a4.427,4.427,0,0,1-1-3.2V0H5.087V14.81a1.383,1.383,0,0,0,1.546,1.583H7.914V20.35Z" transform="translate(120.178 67.266)" fill="#ed759d"/>
          <path id="Path_5876" data-name="Path 5876" d="M9.685,20.727A10.855,10.855,0,0,1,2.6,18.6Q0,16.469,0,12.172V0H5.088V12.248q0,4.522,4.6,4.523t4.6-4.523V0h5.087V12.172q0,4.3-2.6,6.425A10.858,10.858,0,0,1,9.685,20.727Z" transform="translate(131.634 67.266)" fill="#ed759d"/>
          <path id="Path_5877" data-name="Path 5877" d="M9.082,20.727V8.216a5.372,5.372,0,0,0-.791-3.147Q7.5,3.958,5.125,3.957a13.284,13.284,0,0,0-2.638.282A16.011,16.011,0,0,0,0,4.937V1.206A12.661,12.661,0,0,1,2.789.339,16.508,16.508,0,0,1,6.105,0q4.3,0,6.181,1.828T14.17,7.5V20.727Z" transform="translate(153.567 66.889)" fill="#ed759d"/>
          <path id="Path_5878" data-name="Path 5878" d="M0,20.35V0H5.088V6.181h5.05a3.458,3.458,0,0,0,2.694-.848,3.859,3.859,0,0,0,.735-2.581V0h5.087V2.563A8.4,8.4,0,0,1,18.033,5.9a3.847,3.847,0,0,1-2.28,2.092A3.686,3.686,0,0,1,17.92,9.855a6.893,6.893,0,0,1,.584,2.921V20.35H13.416V13.341a3.807,3.807,0,0,0-.735-2.675,3.666,3.666,0,0,0-2.657-.754H5.088V20.35Z" transform="translate(172.184 67.266)" fill="#ed759d"/>
          <path id="Path_5879" data-name="Path 5879" d="M6.482,21.1A16.381,16.381,0,0,1,0,19.9V16.016a15.948,15.948,0,0,0,2.525.81,11.912,11.912,0,0,0,2.752.321q3.541,0,5.069-1.47t1.526-5.125q0-3.655-1.526-5.126T5.276,3.957a12.671,12.671,0,0,0-2.752.3A12.976,12.976,0,0,0,0,5.088V1.206A16.385,16.385,0,0,1,6.482,0q5.163,0,7.688,2.695t2.525,7.858q0,5.163-2.525,7.857T6.482,21.1Z" transform="translate(193.777 66.889)" fill="#ed759d"/>
          <path id="Path_5880" data-name="Path 5880" d="M9.082,20.727V8.216a5.372,5.372,0,0,0-.791-3.147Q7.5,3.958,5.126,3.957a13.3,13.3,0,0,0-2.639.282A16,16,0,0,0,0,4.937V1.206A12.661,12.661,0,0,1,2.789.339,16.51,16.51,0,0,1,6.1,0q4.3,0,6.181,1.828T14.17,7.5V20.727Z" transform="translate(211.716 66.889)" fill="#ed759d"/>
          <path id="Path_5881" data-name="Path 5881" d="M7.048,20.727a6.788,6.788,0,0,1-5.163-1.979A7.681,7.681,0,0,1,0,13.228V0H5.088V12.926a3.972,3.972,0,0,0,.923,2.958,3.8,3.8,0,0,0,2.732.886,6.794,6.794,0,0,0,2.789-.6,6.5,6.5,0,0,0,2.186-1.507V0H18.8V20.35H14.132l-.226-2a11.039,11.039,0,0,1-3.053,1.734A10.708,10.708,0,0,1,7.048,20.727Z" transform="translate(230.332 67.266)" fill="#ed759d"/>
          <path id="Path_5882" data-name="Path 5882" d="M0,7.574V0H4.3L3.769,7.574Zm6.52,0V0h4.3l-.527,7.574Z" transform="translate(252.831 63.347)" fill="#ed759d"/>
        </g>
        <g id="Group_2791" data-name="Group 2791" transform="matrix(1, 0, 0, 1, 17.17, 123.204)">
          <g id="Group_2813" data-name="Group 2813" transform="translate(0.359 0)">
            <path id="Path_5883" data-name="Path 5883" d="M2.707,15.886a2.571,2.571,0,0,1-1.986-.779A2.889,2.889,0,0,1,0,13.062V0H2.412V12.473q0,1.442,1.382,1.442H5.472v1.971Z" transform="translate(0 4.413)"/>
            <path id="Path_5884" data-name="Path 5884" d="M3.648,15.886,0,0H2.471L5.089,12.5,8.443,2V0h1.795l3.589,12.5L16.416,0h2.442L15.239,15.886H12.827L9.561,4.707,6.031,15.886Z" transform="translate(8.09 4.413)"/>
            <path id="Path_5885" data-name="Path 5885" d="M5.619,16.475a21.241,21.241,0,0,1-2.868-.191A9.779,9.779,0,0,1,.412,15.71V13.563a11.459,11.459,0,0,0,2.383.647,14.988,14.988,0,0,0,2.412.206,9.216,9.216,0,0,0,3.221-.426A1.787,1.787,0,0,0,9.5,12.121a2.032,2.032,0,0,0-.543-1.544,4.184,4.184,0,0,0-1.545-.854q-1-.337-2.412-.809a22.937,22.937,0,0,1-2.442-.985,5.322,5.322,0,0,1-1.853-1.4A3.391,3.391,0,0,1,0,4.3,3.682,3.682,0,0,1,1.544,1.1,7.915,7.915,0,0,1,6.149,0,15.944,15.944,0,0,1,8.708.206a13.034,13.034,0,0,1,2.118.5V2.825a10.507,10.507,0,0,0-2.1-.574A13.36,13.36,0,0,0,6.5,2.06a8.415,8.415,0,0,0-3.045.426,1.7,1.7,0,0,0-1.045,1.75A1.791,1.791,0,0,0,2.956,5.6a4.45,4.45,0,0,0,1.559.883q1.016.368,2.457.838A17.559,17.559,0,0,1,9.532,8.37a4.857,4.857,0,0,1,1.75,1.441,3.784,3.784,0,0,1,.633,2.28,3.587,3.587,0,0,1-1.736,3.383A9.085,9.085,0,0,1,5.619,16.475Z" transform="translate(29.568 4.118)"/>
            <path id="Path_5886" data-name="Path 5886" d="M7.855,16.181V5.914a7.5,7.5,0,0,0-.265-2.177A2.054,2.054,0,0,0,6.517,2.471,5.642,5.642,0,0,0,4.06,2.06a11.2,11.2,0,0,0-2.045.206A11.325,11.325,0,0,0,0,2.825v-2A11.752,11.752,0,0,1,2.089.236,12.573,12.573,0,0,1,4.5,0,6.117,6.117,0,0,1,8.9,1.339a5.83,5.83,0,0,1,1.368,4.31V16.181Z" transform="translate(43.512 4.118)"/>
            <path id="Path_5887" data-name="Path 5887" d="M0,3.295V0H2.089V1.442h4.56L6.561,3.295Zm0,8.12V8.12H2.089V9.591h4.56l-.088,1.824Z" transform="translate(57.281 7.002)"/>
            <path id="Path_5888" data-name="Path 5888" d="M3.648,15.886,0,0H2.471L5.09,12.5,8.444,2V0h1.795l3.589,12.5L16.417,0h2.442L15.239,15.886H12.827L9.561,4.707,6.031,15.886Z" transform="translate(66.548 4.413)"/>
            <path id="Path_5889" data-name="Path 5889" d="M11.944,20.888V5.972a3.8,3.8,0,0,0-1.03-3.059,5.611,5.611,0,0,0-3.53-.853,10.05,10.05,0,0,0-3.074.456A5.358,5.358,0,0,0,2.118,3.737v.618l3.443.824V7A3.194,3.194,0,0,0,3.9,7.929,2.794,2.794,0,0,0,3.354,9.8v2.971q0,1.442,1.383,1.442H6.414v1.971H3.648A2.571,2.571,0,0,1,1.662,15.4a2.891,2.891,0,0,1-.721-2.045V9.738A4.046,4.046,0,0,1,1.5,7.605,3.045,3.045,0,0,1,3.324,6.3L0,5.531V2.707A11.076,11.076,0,0,1,2.987.839,10.662,10.662,0,0,1,7.384,0a8.015,8.015,0,0,1,5.222,1.456,5.659,5.659,0,0,1,1.751,4.6V20.888Z" transform="translate(88.025 4.118)"/>
            <path id="Path_5890" data-name="Path 5890" d="M6.354,16.475a6.287,6.287,0,0,1-3.265-.853A5.743,5.743,0,0,1,.824,12.989,11.021,11.021,0,0,1,0,8.385,12.364,12.364,0,0,1,1.28,2.177,4.032,4.032,0,0,1,4.943,0,3.9,3.9,0,0,1,6.855.412,4.214,4.214,0,0,1,8.149,1.559,4.447,4.447,0,0,1,9.752.412,4.9,4.9,0,0,1,11.709,0a3.283,3.283,0,0,1,2.619,1.015,4.333,4.333,0,0,1,.883,2.927V16.181H12.8V4.266a2.963,2.963,0,0,0-.368-1.721,1.667,1.667,0,0,0-1.4-.485,2.455,2.455,0,0,0-1.206.308,2.1,2.1,0,0,0-.883,1.074H7.325a3.066,3.066,0,0,0-.853-1.074A2.134,2.134,0,0,0,5.237,2.06,2.223,2.223,0,0,0,2.986,3.781a14.979,14.979,0,0,0-.574,4.6q0,3.354,1.1,4.692a3.968,3.968,0,0,0,3.251,1.338,10.282,10.282,0,0,0,1.1-.058,5,5,0,0,0,.927-.177v2A8.568,8.568,0,0,1,6.354,16.475Z" transform="translate(105.883 4.118)"/>
            <path id="Path_5891" data-name="Path 5891" d="M0,1.736.118,0H11.68V1.736Z" transform="translate(109.355 0)"/>
            <path id="Path_5892" data-name="Path 5892" d="M.941,16.181V9.738A4.046,4.046,0,0,1,1.5,7.605,3.045,3.045,0,0,1,3.324,6.3L0,5.531V2.707A11.072,11.072,0,0,1,2.986.839,10.662,10.662,0,0,1,7.384,0a8.017,8.017,0,0,1,5.223,1.456,5.658,5.658,0,0,1,1.75,4.6v10.12H11.944V5.972a3.805,3.805,0,0,0-1.029-3.059A5.614,5.614,0,0,0,7.384,2.06a10.053,10.053,0,0,0-3.075.456A5.347,5.347,0,0,0,2.118,3.737v.618l3.442.824V7A3.2,3.2,0,0,0,3.9,7.929,2.794,2.794,0,0,0,3.354,9.8v6.384Z" transform="translate(124.594 4.118)"/>
            <path id="Path_5893" data-name="Path 5893" d="M5.619,16.475a21.241,21.241,0,0,1-2.868-.191A9.785,9.785,0,0,1,.412,15.71V13.563A11.471,11.471,0,0,0,2.8,14.21a14.988,14.988,0,0,0,2.412.206,9.22,9.22,0,0,0,3.221-.426A1.788,1.788,0,0,0,9.5,12.121a2.031,2.031,0,0,0-.544-1.544,4.177,4.177,0,0,0-1.545-.854q-1-.337-2.413-.809a22.957,22.957,0,0,1-2.442-.985,5.316,5.316,0,0,1-1.853-1.4A3.393,3.393,0,0,1,0,4.3,3.68,3.68,0,0,1,1.545,1.1,7.914,7.914,0,0,1,6.149,0,15.948,15.948,0,0,1,8.708.206a13.054,13.054,0,0,1,2.118.5V2.825a10.53,10.53,0,0,0-2.1-.574A13.362,13.362,0,0,0,6.5,2.06a8.415,8.415,0,0,0-3.045.426,1.7,1.7,0,0,0-1.044,1.75A1.79,1.79,0,0,0,2.957,5.6a4.452,4.452,0,0,0,1.559.883q1.016.368,2.457.838A17.55,17.55,0,0,1,9.532,8.37a4.865,4.865,0,0,1,1.75,1.441,3.784,3.784,0,0,1,.633,2.28,3.586,3.586,0,0,1-1.736,3.383A9.085,9.085,0,0,1,5.619,16.475Z" transform="translate(142.452 4.118)"/>
            <path id="Path_5894" data-name="Path 5894" d="M5.619,16.475a21.244,21.244,0,0,1-2.868-.191A9.785,9.785,0,0,1,.412,15.71V13.563A11.466,11.466,0,0,0,2.8,14.21a14.991,14.991,0,0,0,2.412.206,9.219,9.219,0,0,0,3.221-.426A1.787,1.787,0,0,0,9.5,12.121a2.031,2.031,0,0,0-.544-1.544,4.184,4.184,0,0,0-1.545-.854q-1-.337-2.413-.809A22.926,22.926,0,0,1,2.56,7.929a5.317,5.317,0,0,1-1.854-1.4A3.393,3.393,0,0,1,0,4.3,3.68,3.68,0,0,1,1.545,1.1,7.913,7.913,0,0,1,6.149,0,15.945,15.945,0,0,1,8.708.206a13.05,13.05,0,0,1,2.118.5V2.825a10.527,10.527,0,0,0-2.1-.574A13.357,13.357,0,0,0,6.5,2.06a8.417,8.417,0,0,0-3.045.426,1.7,1.7,0,0,0-1.044,1.75A1.792,1.792,0,0,0,2.956,5.6a4.458,4.458,0,0,0,1.56.883q1.015.368,2.457.838A17.559,17.559,0,0,1,9.532,8.37a4.86,4.86,0,0,1,1.75,1.441,3.784,3.784,0,0,1,.633,2.28,3.587,3.587,0,0,1-1.736,3.383A9.083,9.083,0,0,1,5.619,16.475Z" transform="translate(157.28 4.118)"/>
            <path id="Path_5895" data-name="Path 5895" d="M8.09,16.181a8.081,8.081,0,0,1-3.295-.6,9.427,9.427,0,0,1-2.471-1.6l-.147,1.912H0V0H2.412V11.945A7.926,7.926,0,0,0,4.545,13.5a6,6,0,0,0,2.751.618,4.021,4.021,0,0,0,2.825-.853,3.731,3.731,0,0,0,.912-2.825V0h2.412V10.473a5.879,5.879,0,0,1-1.412,4.236A5.207,5.207,0,0,1,8.09,16.181Z" transform="translate(172.696 4.413)"/>
            <path id="Path_5896" data-name="Path 5896" d="M6.767,16.181A6.943,6.943,0,0,1,1.986,14.7,5.4,5.4,0,0,1,.324,10.444V8.3A3.587,3.587,0,0,1,.736,6.619a9.338,9.338,0,0,1,.971-1.5q.559-.706.971-1.323a2.108,2.108,0,0,0,.412-1.148q0-.5-.22-.632a1.551,1.551,0,0,0-.751-.132H0L.206,0H3.472A1.781,1.781,0,0,1,5.5,2,3.845,3.845,0,0,1,5.09,3.8a10.6,10.6,0,0,1-.971,1.53A12.608,12.608,0,0,0,3.148,6.8a3.194,3.194,0,0,0-.412,1.589v2.324a3.022,3.022,0,0,0,1.088,2.618,4.892,4.892,0,0,0,2.942.794,5.017,5.017,0,0,0,2.986-.794,3.074,3.074,0,0,0,1.1-2.677V0h2.412V10.415a5.356,5.356,0,0,1-1.721,4.265A7.038,7.038,0,0,1,6.767,16.181Z" transform="translate(189.642 4.413)"/>
            <path id="Path_5897" data-name="Path 5897" d="M6.09,16.475a16.376,16.376,0,0,1-3.413-.338A16.2,16.2,0,0,1,0,15.358v-8H5.825l.118,1.972H2.413v4.5a10.764,10.764,0,0,0,1.721.427,11.388,11.388,0,0,0,1.9.161,6.648,6.648,0,0,0,3.045-.588,3.476,3.476,0,0,0,1.648-1.942,10.418,10.418,0,0,0,.515-3.619,10.207,10.207,0,0,0-.544-3.706A3.424,3.424,0,0,0,8.87,2.633,8.686,8.686,0,0,0,5.384,2.06a19.943,19.943,0,0,0-2.6.176,13.2,13.2,0,0,0-2.545.589v-2A13.829,13.829,0,0,1,2.928.206,22.859,22.859,0,0,1,6,0q4.06,0,5.855,2.074t1.795,6.193q0,4.032-1.795,6.12T6.09,16.475Z" transform="translate(206.411 4.118)"/>
            <path id="Path_5898" data-name="Path 5898" d="M7.061,16.181q-.56,0-1.309-.059a4.571,4.571,0,0,1-1.28-.265L0,4.972H2.354l3.766,9.149a4.546,4.546,0,0,0,4.133-1.441q1.338-1.648,1.339-5.266a11.02,11.02,0,0,0-.383-3.25,2.815,2.815,0,0,0-1.28-1.692,5.221,5.221,0,0,0-2.515-.5H6.384V0H7.679q3.383,0,4.854,1.809T14,7.384a11.812,11.812,0,0,1-.927,5.06,6.251,6.251,0,0,1-2.486,2.839A6.95,6.95,0,0,1,7.061,16.181Z" transform="translate(222.24 4.413)"/>
            <path id="Path_5899" data-name="Path 5899" d="M0,16.181V5.884A5.621,5.621,0,0,1,1.662,1.53Q3.324,0,6.884,0t5.193,1.53A5.675,5.675,0,0,1,13.71,5.884v10.3H11.3V5.619a3.156,3.156,0,0,0-1.133-2.736,5.529,5.529,0,0,0-3.28-.824,5.645,5.645,0,0,0-3.339.824A3.154,3.154,0,0,0,2.412,5.619V9.3A5.009,5.009,0,0,1,5.825,8.09H7.767l.118,1.971H5.766a5.01,5.01,0,0,0-3.354,1.147v4.972Z" transform="translate(239.744 4.118)"/>
            <path id="Path_5900" data-name="Path 5900" d="M1.942,5.5V1.647H0L.118,0H4.031V5.5Z" transform="translate(249.394 22.152)"/>
            <path id="Path_5901" data-name="Path 5901" d="M16.74,16.475A4.888,4.888,0,0,1,12.93,15a6.081,6.081,0,0,1-1.339-4.236v-4.8a3.942,3.942,0,0,0-.971-3.059A5.227,5.227,0,0,0,7.208,2.06a9.3,9.3,0,0,0-2.957.456A5.361,5.361,0,0,0,2.118,3.737v.618l3.442.824V7A3.2,3.2,0,0,0,3.9,7.929,2.793,2.793,0,0,0,3.354,9.8v2.971q0,1.442,1.383,1.442H6.413v1.971H3.648A2.571,2.571,0,0,1,1.662,15.4a2.891,2.891,0,0,1-.721-2.045V9.738A4.044,4.044,0,0,1,1.5,7.605,3.046,3.046,0,0,1,3.324,6.3L0,5.531V2.707A11.317,11.317,0,0,1,2.927.839,10.1,10.1,0,0,1,7.208,0,7.6,7.6,0,0,1,12.3,1.456a5.788,5.788,0,0,1,1.677,4.6v4.678a3.848,3.848,0,0,0,.868,2.824,3.708,3.708,0,0,0,2.692.853,5.525,5.525,0,0,0,2.633-.617,8.286,8.286,0,0,0,2.074-1.559V.295h2.413V16.181H22.477l-.147-1.912a9.241,9.241,0,0,1-2.4,1.6A7.614,7.614,0,0,1,16.74,16.475Z" transform="translate(256.955 4.118)"/>
          </g>
          <g id="Group_2812" data-name="Group 2812" transform="translate(-7.344 0)">
            <path id="Path_5902" data-name="Path 5902" d="M0,16.181V5.884A5.618,5.618,0,0,1,1.662,1.53Q3.323,0,6.884,0t5.193,1.53A5.676,5.676,0,0,1,13.71,5.884v10.3H11.3V5.62a3.155,3.155,0,0,0-1.133-2.736,5.529,5.529,0,0,0-3.28-.824,5.648,5.648,0,0,0-3.339.824A3.155,3.155,0,0,0,2.412,5.62V9.3A5.008,5.008,0,0,1,5.825,8.09H7.767l.118,1.971H5.766a5.007,5.007,0,0,0-3.354,1.147v4.972Z" transform="translate(42.703 46.146)"/>
            <path id="Path_5903" data-name="Path 5903" d="M5.3,16.476A7.072,7.072,0,0,1,2.6,15.99a4.1,4.1,0,0,1-1.9-1.529A4.768,4.768,0,0,1,0,11.739,4.464,4.464,0,0,1,1.5,8.194a6.835,6.835,0,0,1,4.59-1.31H11.3V5.649a4.754,4.754,0,0,0-.4-2.133A2.3,2.3,0,0,0,9.532,2.4,8.541,8.541,0,0,0,6.825,2.06a19.025,19.025,0,0,0-2.6.176,13.313,13.313,0,0,0-2.486.588v-2A14.883,14.883,0,0,1,4.31.221,19.651,19.651,0,0,1,7.267,0q3.354,0,4.9,1.4A5.7,5.7,0,0,1,13.71,5.826V16.181H11.3v-7.3H6.237a5.181,5.181,0,0,0-2.942.662,2.491,2.491,0,0,0-.941,2.192,2.359,2.359,0,0,0,.853,2.089,4.928,4.928,0,0,0,2.736.588,7.565,7.565,0,0,0,2-.235v2q-.5.118-1.177.206A11.463,11.463,0,0,1,5.3,16.476Z" transform="translate(59.914 46.146)"/>
            <path id="Path_5904" data-name="Path 5904" d="M2.324,4.5V1.735H0V0H4.06V2.765H10.5L10.385,4.5Z" transform="translate(65.063 39.263)"/>
            <path id="Path_5905" data-name="Path 5905" d="M7.855,16.181V5.914A7.507,7.507,0,0,0,7.59,3.737,2.057,2.057,0,0,0,6.516,2.471,5.64,5.64,0,0,0,4.06,2.06a11.213,11.213,0,0,0-2.045.206A11.313,11.313,0,0,0,0,2.825v-2A11.742,11.742,0,0,1,2.089.236,12.587,12.587,0,0,1,4.5,0,6.117,6.117,0,0,1,8.9,1.339a5.829,5.829,0,0,1,1.368,4.31V16.181Z" transform="translate(76.242 46.146)"/>
            <path id="Path_5906" data-name="Path 5906" d="M7,16.476a9.71,9.71,0,0,1-5.1-1.162A3.981,3.981,0,0,1,0,11.651,4.143,4.143,0,0,1,.632,9.312a3.8,3.8,0,0,1,1.78-1.427A3.372,3.372,0,0,1,.75,6.708,3.6,3.6,0,0,1,.088,4.443,4.1,4.1,0,0,1,1.412,1.1,5.106,5.106,0,0,1,4.8,0,9.5,9.5,0,0,1,6.178.088,7.13,7.13,0,0,1,7.236.324v2a3.689,3.689,0,0,0-.912-.206A9.9,9.9,0,0,0,5.236,2.06a3.158,3.158,0,0,0-2.015.574A2.171,2.171,0,0,0,2.5,4.443a2.162,2.162,0,0,0,.852,1.9,3.792,3.792,0,0,0,2.236.6H7.267l.147,1.824H5.5a3.2,3.2,0,0,0-2.324.75,2.851,2.851,0,0,0-.765,2.133q0,2.766,4.5,2.765a5.541,5.541,0,0,0,3.4-.868,3.281,3.281,0,0,0,1.133-2.78V.295h2.412V10.356A5.99,5.99,0,0,1,12.209,14.9Q10.561,16.476,7,16.476Z" transform="translate(90.011 46.146)"/>
            <path id="Path_5907" data-name="Path 5907" d="M.942,16.181V9.738A4.046,4.046,0,0,1,1.5,7.605,3.046,3.046,0,0,1,3.324,6.3L0,5.531V2.707A11.084,11.084,0,0,1,2.986.839,10.667,10.667,0,0,1,7.384,0a8.015,8.015,0,0,1,5.222,1.456,5.658,5.658,0,0,1,1.751,4.6V16.181H11.944V5.972a3.805,3.805,0,0,0-1.03-3.059,5.611,5.611,0,0,0-3.53-.853,10.047,10.047,0,0,0-3.074.456A5.347,5.347,0,0,0,2.118,3.737v.618l3.442.824V7A3.193,3.193,0,0,0,3.9,7.929,2.791,2.791,0,0,0,3.353,9.8v6.384Z" transform="translate(107.368 46.146)"/>
            <path id="Path_5908" data-name="Path 5908" d="M0,3.884V0H2.03V2.148H9.944L9.826,3.884Z" transform="translate(115.312 39.88)"/>
            <path id="Path_5909" data-name="Path 5909" d="M6.972,16.181a7.582,7.582,0,0,1-5.163-1.589A5.931,5.931,0,0,1,0,9.885V0H2.413V10.061a3.771,3.771,0,0,0,1.177,3.1,5.248,5.248,0,0,0,3.383.956,5.251,5.251,0,0,0,3.384-.956,3.775,3.775,0,0,0,1.176-3.1V0h2.412V9.885a5.93,5.93,0,0,1-1.809,4.707A7.583,7.583,0,0,1,6.972,16.181Z" transform="translate(125.815 46.441)"/>
            <path id="Path_5910" data-name="Path 5910" d="M2.707,15.886a2.571,2.571,0,0,1-1.986-.779A2.891,2.891,0,0,1,0,13.062V0H2.412V12.473q0,1.441,1.383,1.442H5.472v1.971Z" transform="translate(143.849 46.441)"/>
            <path id="Path_5911" data-name="Path 5911" d="M3.648,15.886,0,0H2.472L5.09,12.5,8.444,2V0h1.794l3.589,12.5L16.417,0h2.442L15.24,15.886H12.827L9.562,4.707,6.031,15.886Z" transform="translate(151.94 46.441)"/>
            <path id="Path_5912" data-name="Path 5912" d="M0,4.237.118,2.5H6.149V0H7.973V2.5H9.856V0H11.68V4.237Z" transform="translate(157.294 39.527)"/>
            <path id="Path_5913" data-name="Path 5913" d="M0,4.09V0H2.03V4.09Z" transform="translate(166.915 33.996)"/>
            <path id="Path_5914" data-name="Path 5914" d="M6.09,16.476a16.38,16.38,0,0,1-3.413-.338A16.161,16.161,0,0,1,0,15.358v-8H5.825l.117,1.972H2.413v4.5a10.7,10.7,0,0,0,1.721.427,11.358,11.358,0,0,0,1.9.161,6.649,6.649,0,0,0,3.045-.588,3.475,3.475,0,0,0,1.647-1.942,10.413,10.413,0,0,0,.515-3.619,10.217,10.217,0,0,0-.544-3.706A3.422,3.422,0,0,0,8.87,2.634,8.683,8.683,0,0,0,5.384,2.06a19.909,19.909,0,0,0-2.6.176,13.191,13.191,0,0,0-2.545.588v-2A13.827,13.827,0,0,1,2.927.206,22.808,22.808,0,0,1,6,0q4.06,0,5.854,2.075t1.795,6.192q0,4.032-1.795,6.12T6.09,16.476Z" transform="translate(173.417 46.146)"/>
            <path id="Path_5915" data-name="Path 5915" d="M5.3,16.476A7.072,7.072,0,0,1,2.6,15.99a4.106,4.106,0,0,1-1.9-1.529A4.772,4.772,0,0,1,0,11.739,4.466,4.466,0,0,1,1.5,8.194a6.837,6.837,0,0,1,4.59-1.31H11.3V5.649a4.754,4.754,0,0,0-.4-2.133A2.3,2.3,0,0,0,9.532,2.4,8.546,8.546,0,0,0,6.825,2.06a19.034,19.034,0,0,0-2.6.176,13.318,13.318,0,0,0-2.486.588v-2A14.908,14.908,0,0,1,4.31.221,19.647,19.647,0,0,1,7.267,0,13.561,13.561,0,0,1,8.708.074,9.367,9.367,0,0,1,9.973.295h5.06l-.118,1.971H12.8A4.188,4.188,0,0,1,13.5,3.825a8.836,8.836,0,0,1,.206,2V16.181H11.3v-7.3H6.237A5.181,5.181,0,0,0,3.3,9.547a2.492,2.492,0,0,0-.942,2.192,2.359,2.359,0,0,0,.853,2.089,4.929,4.929,0,0,0,2.736.588,7.561,7.561,0,0,0,2-.235v2q-.5.118-1.177.206A11.473,11.473,0,0,1,5.3,16.476Z" transform="translate(205.749 46.146)"/>
            <path id="Path_5916" data-name="Path 5916" d="M5.3,16.181A5.1,5.1,0,0,1,1.368,14.71,6,6,0,0,1,0,10.473V0H2.412V10.444a3.808,3.808,0,0,0,.883,2.825,3.906,3.906,0,0,0,2.795.853A6.217,6.217,0,0,0,8.855,13.5a7.712,7.712,0,0,0,2.177-1.559V0h2.412V15.886H11.268l-.147-1.912a8.724,8.724,0,0,1-2.5,1.6A8.432,8.432,0,0,1,5.3,16.181Z" transform="translate(223.695 46.441)"/>
            <path id="Path_6145" data-name="Path 6145" d="M5.3,16.181A5.1,5.1,0,0,1,1.368,14.71,6,6,0,0,1,0,10.473V0H2.412V10.444a3.808,3.808,0,0,0,.883,2.825,3.906,3.906,0,0,0,2.795.853A6.217,6.217,0,0,0,8.855,13.5a7.712,7.712,0,0,0,2.177-1.559V0h2.412V15.886H11.268l-.147-1.912a8.724,8.724,0,0,1-2.5,1.6A8.432,8.432,0,0,1,5.3,16.181Z" transform="translate(189.686 46.441)"/>
            <path id="Path_5917" data-name="Path 5917" d="M0,1.736.117,0H11.68V1.736Z" transform="translate(225.401 42.028)"/>
            <path id="Path_5918" data-name="Path 5918" d="M0,16.181V.295H2.177l.147,1.912A9.24,9.24,0,0,1,4.84.6,8.313,8.313,0,0,1,8.149,0a5.111,5.111,0,0,1,3.913,1.471,5.914,5.914,0,0,1,1.383,4.207v10.5H11.033V5.708a3.685,3.685,0,0,0-.912-2.795A4.022,4.022,0,0,0,7.3,2.06a5.891,5.891,0,0,0-2.751.633A8.183,8.183,0,0,0,2.412,4.266V16.181Z" transform="translate(241.23 46.146)"/>
          </g>
        </g>
      </g>
    </g>
  </g>
</svg>
