<svg xmlns="http://www.w3.org/2000/svg" xmlns:xlink="http://www.w3.org/1999/xlink" width="886" height="854" viewBox="0 0 886 854">
  <defs>
    <clipPath id="clip-path">
      <rect id="Rectangle_179" data-name="Rectangle 179" width="886" height="854" transform="translate(114 -25)" fill="none"/>
    </clipPath>
    <radialGradient id="radial-gradient" cx="0.5" cy="0.503" r="0.508" gradientTransform="matrix(0.878, 0.17, -0.127, 0.828, 0.364, 0.295)" gradientUnits="objectBoundingBox">
      <stop offset="0" stop-color="#97d5ee"/>
      <stop offset="0.032" stop-color="#9ad5ed"/>
      <stop offset="0.45" stop-color="#c2daed"/>
      <stop offset="0.781" stop-color="#dadced"/>
      <stop offset="0.983" stop-color="#e4deed"/>
    </radialGradient>
    <clipPath id="clip-path-2">
      <path id="Path_5619" data-name="Path 5619" d="M0,473.77l79.5-15.453s.45,13.411.421,35.269-3.327,52.595-3.327,52.595L17.569,666.152,35.38,698.746l15.9-1.769,34.379-31.506,17.756,6.613,26.033,10.4,26.375-6.309,63.131-78.338,10.3,20.11,24.228,6.959,11.161-10.254,27.492-101.827-9.282-48.7,3.281-97.768L381.793,0,266.272-192.327,78.7,345.027l-53.478,60Z" transform="translate(0 0)" fill="none"/>
    </clipPath>
  </defs>
  <g id="Mask_Group_2" data-name="Mask Group 2" transform="translate(-114 25)" clip-path="url(#clip-path)">
    <g id="Group_2785" data-name="Group 2785" transform="matrix(0.995, -0.105, 0.105, 0.995, 51.052, 56.091)">
      <path id="Path_5600" data-name="Path 5600" d="M266.725,514.732c-5.3,65.581-.438,77.721-7.1,100.686-6.811,23.491-23.529,5.487-25.444-12.243-3.04-28.146,1.837-37.687-5.734-60.941-5.528-16.979-15.143,2.264-15.143,2.264l-32.3,68.045s-35.554,42.62-54.289,55.148C108.56,679.836,93.506,684.222,89.3,681.856c-9.489-5.336-2.709-23.806-2.709-23.806S68.63,667.012,63.134,677.3c-11.176,20.917-23.739.728-22.762-11.358,1.776-21.961,10.375-41.156,28.115-88.4s22.933-99.381,22.933-99.381-67.2,70.483-78.918,73.19-14.859-3.364-10.839-16.7.67-25.143,9.439-49.641S40.587,418.335,46.256,405.3c9.438-21.695,45.8-64.378,58.531-80.183,21.185-26.29,43.552-41.357,56.682-75.24s99.844-449.074,99.844-449.074L381.743,0S303.365,180.977,276.793,306.906,266.725,514.732,266.725,514.732Z" transform="translate(582.118 -111.578) rotate(17)"/>
      <path id="Path_5601" data-name="Path 5601" d="M751.85,89.012s-34.34-4.907-35.138,3.364-2.008,258.85-2.008,258.85L699.087,529.942a8.3,8.3,0,0,0,7.778,8.453c61.477,3.861,459.526,28.871,467.632,29.608,8.785.8,9.583-2.4,10.382-15.706s23.493-266.372,23.493-266.372Z" transform="translate(-685.715 239.481)"/>
      <g id="Group_2523" data-name="Group 2523" transform="translate(0 307.874)">
        <path id="Path_5602" data-name="Path 5602" d="M757.786,50.7l491.325,73.434L1145.637,562.308l-471.043-69.95L752.729,54.335A4.467,4.467,0,0,1,757.786,50.7Z" transform="translate(-673.945 -50.652)" fill-rule="evenodd" fill="url(#radial-gradient)"/>
        <path id="Path_5603" data-name="Path 5603" d="M1145.038,567.1a.68.68,0,0,1-.1-.007L673.9,497.144a.649.649,0,0,1-.543-.756L751.326,59.813a.649.649,0,0,1,1.278.228L674.75,495.959l469.792,69.764,103.174-436.9L821.057,65.05a.649.649,0,1,1,.192-1.284l427.358,63.874a.649.649,0,0,1,.536.791L1145.668,566.6A.649.649,0,0,1,1145.038,567.1Z" transform="translate(-673.344 -54.798)" fill="#0d0d0c"/>
        <path id="Path_5604" data-name="Path 5604" d="M731.169,66.708l498.513,53.933-67.551,443.5L688.365,513.339Z" transform="translate(-680.563 -58.368)" fill="#fff" fill-rule="evenodd"/>
        <path id="Path_5606" data-name="Path 5606" d="M1161.53,715.815c-.024,0-.047,0-.07,0L687.694,665.006a.649.649,0,0,1-.577-.706l26.508-282.759a.649.649,0,0,1,1.293.121L688.47,663.783l472.517,50.671,38.357-238.17a.649.649,0,0,1,1.282.206L1162.17,715.269A.65.65,0,0,1,1161.53,715.815Z" transform="translate(-679.962 -209.389)" fill="#0d0d0c"/>
        <path id="Path_5607" data-name="Path 5607" d="M1242.219,291.226a.807.807,0,0,1-.111-.008.779.779,0,0,1-.662-.881l24.123-169.729L768.638,66.846l-2.2,22.166a.779.779,0,1,1-1.55-.154l2.282-22.948a.778.778,0,0,1,.859-.7l498.513,53.933a.779.779,0,0,1,.688.884l-24.236,170.526A.779.779,0,0,1,1242.219,291.226Z" transform="translate(-717.334 -57.648)" fill="#0d0d0c"/>
        <path id="Path_5608" data-name="Path 5608" d="M741.334,342.469c-.026,0-.051,0-.078,0a.779.779,0,0,1-.7-.852l1.407-14.149a.779.779,0,0,1,1.55.154l-1.407,14.15A.78.78,0,0,1,741.334,342.469Z" transform="translate(-705.644 -183.346)" fill="#0d0d0c"/>
        <g id="Group_2804" data-name="Group 2804" transform="matrix(0.995, 0.105, -0.105, 0.995, 113.222, 93.026)">
          <path id="Path_5919" data-name="Path 5919" d="M0,20.264V7.922A7.648,7.648,0,0,1,2.229,2.156Q4.457,0,9.395,0t7.147,2.156a7.683,7.683,0,0,1,2.211,5.766V20.264H13.779V7.554A3.314,3.314,0,0,0,12.618,4.79a5.061,5.061,0,0,0-3.223-.921q-4.421,0-4.421,3.684v3.573a6.586,6.586,0,0,1,1.566-.847,5.261,5.261,0,0,1,1.9-.332h2.395l.147,3.942H8.326a5.691,5.691,0,0,0-1.842.276,5.555,5.555,0,0,0-1.511.792v5.3Z" transform="translate(23.69 15.842)" fill="#ed759d"/>
          <path id="Path_5920" data-name="Path 5920" d="M2.211,7.443V3.169H0L.184,0H6.411V7.443Z" transform="translate(35.959 37.985)" fill="#ed759d"/>
          <path id="Path_5921" data-name="Path 5921" d="M20.632,20.632A6.338,6.338,0,0,1,15.677,18.7a7.756,7.756,0,0,1-1.75-5.4V8.143a4.352,4.352,0,0,0-1.05-3.3,4.79,4.79,0,0,0-3.334-.976,9.231,9.231,0,0,0-3.04.479A6.712,6.712,0,0,0,4.274,5.563v.516L8.363,7.185v3.021a3.019,3.019,0,0,0-1.971,1.2,5.118,5.118,0,0,0-.5,2.561v1.068a1.4,1.4,0,0,0,.332,1.05,1.46,1.46,0,0,0,1.031.313H9.211v3.868h-4.5a3.613,3.613,0,0,1-2.745-1.1,3.9,3.9,0,0,1-1.05-2.8V13.927a7.441,7.441,0,0,1,.571-3A3.354,3.354,0,0,1,3.758,9.1L0,8.106V3.353A14.858,14.858,0,0,1,4.034,1.032,15.139,15.139,0,0,1,9.8,0a13.228,13.228,0,0,1,4.79.774,5.964,5.964,0,0,1,3.058,2.579,9.611,9.611,0,0,1,1.068,4.9v4.753a3.883,3.883,0,0,0,.9,2.892,3.716,3.716,0,0,0,2.671.866,6.031,6.031,0,0,0,2.634-.59A6.573,6.573,0,0,0,26.969,14.7V.369h4.974V20.264H27.374l-.221-1.952A8.6,8.6,0,0,1,24.3,20.043,10.589,10.589,0,0,1,20.632,20.632Z" transform="translate(46.054 15.842)" fill="#ed759d"/>
          <path id="Path_5922" data-name="Path 5922" d="M11.495,20.264a10.471,10.471,0,0,1-3.721-.626,10.808,10.808,0,0,1-2.984-1.7l-.221,1.952H0V0H4.974V14.332a6.29,6.29,0,0,0,2.155,1.473,6.684,6.684,0,0,0,2.708.59,3.718,3.718,0,0,0,2.671-.866,3.887,3.887,0,0,0,.9-2.892V0h4.974V12.932a7.512,7.512,0,0,1-1.842,5.4A6.638,6.638,0,0,1,11.495,20.264Z" transform="translate(82.344 16.211)" fill="#ed759d"/>
          <path id="Path_5923" data-name="Path 5923" d="M0,6.374l.258-3.39h11.79V0H16.1V6.374Z" transform="translate(84.592 7.11)" fill="#ed759d"/>
          <path id="Path_5924" data-name="Path 5924" d="M0,20.264V7.922A7.649,7.649,0,0,1,2.229,2.156Q4.457,0,9.395,0t7.148,2.156a7.685,7.685,0,0,1,2.211,5.766V20.264H13.779V7.554A3.314,3.314,0,0,0,12.619,4.79a5.061,5.061,0,0,0-3.224-.921q-4.421,0-4.421,3.684v3.573A6.6,6.6,0,0,1,6.54,10.28a5.258,5.258,0,0,1,1.9-.332h2.395l.147,3.942H8.326a5.692,5.692,0,0,0-1.842.276,5.555,5.555,0,0,0-1.511.792v5.3Z" transform="translate(105.076 15.842)" fill="#ed759d"/>
          <path id="Path_5925" data-name="Path 5925" d="M6.337,20.632A16.013,16.013,0,0,1,0,19.454v-3.8a15.62,15.62,0,0,0,2.469.793,11.661,11.661,0,0,0,2.689.314q3.463,0,4.955-1.438t1.492-5.01q0-3.574-1.492-5.011T5.158,3.869a12.411,12.411,0,0,0-2.689.294A12.694,12.694,0,0,0,0,4.974V1.179A16.02,16.02,0,0,1,6.337,0q5.047,0,7.516,2.635t2.468,7.682q0,5.048-2.468,7.681T6.337,20.632Z" transform="translate(126.851 15.842)" fill="#ed759d"/>
          <path id="Path_5926" data-name="Path 5926" d="M8.879,20.264V8.033a5.248,5.248,0,0,0-.774-3.077q-.774-1.087-3.1-1.086a13.02,13.02,0,0,0-2.579.276A15.709,15.709,0,0,0,0,4.827V1.179A12.34,12.34,0,0,1,2.727.332,16.141,16.141,0,0,1,5.969,0q4.2,0,6.042,1.787t1.842,5.545V20.264Z" transform="translate(144.388 15.842)" fill="#ed759d"/>
          <path id="Path_5927" data-name="Path 5927" d="M11.495,20.264a10.471,10.471,0,0,1-3.721-.626,10.809,10.809,0,0,1-2.984-1.7l-.221,1.952H0V0H4.974V14.332a6.293,6.293,0,0,0,2.155,1.473,6.684,6.684,0,0,0,2.708.59,3.718,3.718,0,0,0,2.671-.866,3.887,3.887,0,0,0,.9-2.892V0h4.974V12.932a7.512,7.512,0,0,1-1.842,5.4A6.638,6.638,0,0,1,11.495,20.264Z" transform="translate(162.588 16.211)" fill="#ed759d"/>
          <path id="Path_5928" data-name="Path 5928" d="M4.348,19.895A4.625,4.625,0,0,1,.977,18.9,4.328,4.328,0,0,1,0,15.768V0H4.974V14.479a1.351,1.351,0,0,0,1.51,1.547H7.737v3.868Z" transform="translate(185.431 16.211)" fill="#ed759d"/>
          <path id="Path_5929" data-name="Path 5929" d="M6.926,20.632a9.587,9.587,0,0,1-3.463-.608A5.256,5.256,0,0,1,.94,18.035,6.413,6.413,0,0,1,0,14.369,5.5,5.5,0,0,1,2.026,9.782a9.2,9.2,0,0,1,5.821-1.6h5.637V7.222a3.012,3.012,0,0,0-1.031-2.6,6.458,6.458,0,0,0-3.647-.754A23.144,23.144,0,0,0,5.4,4.108a19.668,19.668,0,0,0-3.187.755V1.143a25.647,25.647,0,0,1,3.5-.811A23.746,23.746,0,0,1,9.616,0,18.245,18.245,0,0,1,11.5.092a13,13,0,0,1,1.658.276H20.08l-.258,3.794H17.574a5.368,5.368,0,0,1,.663,1.622,8.347,8.347,0,0,1,.221,1.953V20.264H13.484V11.827H8.142a4.853,4.853,0,0,0-2.505.553,2.126,2.126,0,0,0-.921,1.99,2.053,2.053,0,0,0,.81,1.879,5.322,5.322,0,0,0,2.727.516,12.758,12.758,0,0,0,1.382-.074,6.3,6.3,0,0,0,1.161-.221v3.647a11.189,11.189,0,0,1-1.713.369A15.055,15.055,0,0,1,6.926,20.632Z" transform="translate(196.005 15.842)" fill="#ed759d"/>
          <path id="Path_5930" data-name="Path 5930" d="M0,6.374l.258-3.39h11.79V0H16.1V6.374Z" transform="translate(198.363 7.11)" fill="#ed759d"/>
          <path id="Path_5931" data-name="Path 5931" d="M0,5.158V0H4.053V5.158Z" transform="translate(210.226 0)" fill="#ed759d"/>
          <path id="Path_5932" data-name="Path 5932" d="M9.542,20.632a18.282,18.282,0,0,1-4.79-.59A7.03,7.03,0,0,1,1.29,18.035,5.449,5.449,0,0,1,0,14.222a5.208,5.208,0,0,1,.608-2.45,4.477,4.477,0,0,1,1.9-1.861A4.056,4.056,0,0,1,.755,8.4,4.44,4.44,0,0,1,.074,5.9a5.333,5.333,0,0,1,1.842-4.4A7.309,7.309,0,0,1,6.669,0,12.666,12.666,0,0,1,8.621.129,7.261,7.261,0,0,1,10.1.516V4.163a9.684,9.684,0,0,0-2.542-.294A3.776,3.776,0,0,0,5.49,4.33,1.731,1.731,0,0,0,4.79,5.9a1.787,1.787,0,0,0,.774,1.677,4.634,4.634,0,0,0,2.321.461H9.948l.184,3.647H7.848q-3.132,0-3.132,2.542a2.062,2.062,0,0,0,1.124,1.9,7.228,7.228,0,0,0,3.482.646,5.289,5.289,0,0,0,3.537-1A3.607,3.607,0,0,0,14,12.9V.369h4.974V12.453q0,4.311-2.45,6.245T9.542,20.632Z" transform="translate(218.516 15.842)" fill="#ed759d"/>
          <path id="Path_5933" data-name="Path 5933" d="M9.69,20.264a16.4,16.4,0,0,1-2.118-.147A12.365,12.365,0,0,1,5.6,19.711L0,6.079H4.827L9.211,16.726a4.441,4.441,0,0,0,4-1.861,10.1,10.1,0,0,0,1.234-5.545,11.231,11.231,0,0,0-.424-3.463,3.062,3.062,0,0,0-1.382-1.787,5.494,5.494,0,0,0-2.653-.534H8.474V0h2.211q4.385,0,6.429,2.3t2.045,7.018A13.987,13.987,0,0,1,17.943,15.6a7.848,7.848,0,0,1-3.334,3.537A10.34,10.34,0,0,1,9.69,20.264Z" transform="translate(239.627 16.211)" fill="#ed759d"/>
          <path id="Path_5934" data-name="Path 5934" d="M4.347,19.895A4.625,4.625,0,0,1,.976,18.9,4.33,4.33,0,0,1,0,15.768V0H4.974V14.479a1.352,1.352,0,0,0,1.511,1.547H7.737v3.868Z" transform="translate(261.328 16.211)" fill="#ed759d"/>
          <path id="Path_5935" data-name="Path 5935" d="M9.469,26.159a10.612,10.612,0,0,1-6.926-2.082Q0,22,0,17.8V5.9H4.974V17.869q0,4.421,4.495,4.422t4.495-4.422V0h4.974V17.8q0,4.2-2.542,6.282A10.614,10.614,0,0,1,9.469,26.159Z" transform="translate(272.528 10.316)" fill="#ed759d"/>
          <path id="Path_5936" data-name="Path 5936" d="M4.753,9.1a4.96,4.96,0,0,1-3.5-1.16A4.275,4.275,0,0,1,0,4.642,4.47,4.47,0,0,1,1.326,1.289,5.224,5.224,0,0,1,5.121,0h8.253l-.221,2.763H5.6a2.81,2.81,0,0,0-1.658.423,1.675,1.675,0,0,0-.589,1.456A1.53,1.53,0,0,0,5.084,6.374a1.745,1.745,0,0,0,1.326-.4A1.527,1.527,0,0,0,6.779,4.9V4.237H9.727V4.9a1.269,1.269,0,0,0,.387,1.069,1.971,1.971,0,0,0,1.2.295h1.4V9.027H10.942A4.893,4.893,0,0,1,9.284,8.75a1.8,1.8,0,0,1-1.068-.866,2.408,2.408,0,0,1-1.437.9A7.192,7.192,0,0,1,4.753,9.1Z" transform="translate(271.607 5.342)" fill="#ed759d"/>
          <path id="Path_5937" data-name="Path 5937" d="M6.89,20.264a6.635,6.635,0,0,1-5.047-1.934A7.509,7.509,0,0,1,0,12.932V0H4.974V12.637a3.883,3.883,0,0,0,.9,2.892,3.716,3.716,0,0,0,2.671.866,6.643,6.643,0,0,0,2.727-.59,6.344,6.344,0,0,0,2.137-1.473V0h4.974V19.895H13.816l-.221-1.952a10.81,10.81,0,0,1-2.984,1.7A10.474,10.474,0,0,1,6.89,20.264Z" transform="translate(295.813 16.211)" fill="#ed759d"/>
          <path id="Path_5938" data-name="Path 5938" d="M0,7.405V0H4.2L3.684,7.405Zm6.374,0V0h4.2l-.516,7.405Z" transform="translate(0 66.967)" fill="#ed759d"/>
          <path id="Path_5939" data-name="Path 5939" d="M7.995,29.253a4.625,4.625,0,0,1-3.371-.994,4.327,4.327,0,0,1-.977-3.132V8.953a5.732,5.732,0,0,0-.9-3.463A5.5,5.5,0,0,0,0,3.648V0H12.048V3.869H6.263A4.445,4.445,0,0,1,8.032,5.784a6.908,6.908,0,0,1,.59,3.022V23.838a1.352,1.352,0,0,0,1.51,1.547h1.253v3.868Z" transform="translate(11.606 61.44)" fill="#ed759d"/>
          <path id="Path_5940" data-name="Path 5940" d="M7.443,20.633a25.774,25.774,0,0,1-3.961-.295,14.086,14.086,0,0,1-3.077-.774V15.548a14.966,14.966,0,0,0,3.077.9,16.676,16.676,0,0,0,3.04.314A11.838,11.838,0,0,0,10,16.4a1.465,1.465,0,0,0,1.087-1.511,1.679,1.679,0,0,0-.571-1.363,5.374,5.374,0,0,0-1.75-.866q-1.18-.387-3.021-1.013A15.074,15.074,0,0,1,1.529,9.488,4.238,4.238,0,0,1,0,5.932,5.219,5.219,0,0,1,2.063,1.64Q4.126,0,8.29,0a23.485,23.485,0,0,1,3.463.258A17.27,17.27,0,0,1,14.59.885V4.864a11.609,11.609,0,0,0-2.782-.755A18.871,18.871,0,0,0,8.99,3.869a10.363,10.363,0,0,0-3,.386A1.552,1.552,0,0,0,4.716,5.822,1.363,1.363,0,0,0,5.361,7,6.9,6.9,0,0,0,7.2,7.811q1.2.369,2.855.957a17.043,17.043,0,0,1,3.334,1.474,4.812,4.812,0,0,1,1.842,1.879,5.984,5.984,0,0,1,.571,2.763,4.778,4.778,0,0,1-2.229,4.329A11.363,11.363,0,0,1,7.443,20.633Z" transform="translate(24.758 70.43)" fill="#ed759d"/>
          <path id="Path_5941" data-name="Path 5941" d="M0,20.264V7.922A7.649,7.649,0,0,1,2.229,2.156Q4.458,0,9.4,0t7.148,2.156a7.685,7.685,0,0,1,2.211,5.766V20.264H13.78V7.554a3.314,3.314,0,0,0-1.16-2.763A5.062,5.062,0,0,0,9.4,3.869q-4.421,0-4.421,3.684v3.573A6.585,6.585,0,0,1,6.54,10.28a5.258,5.258,0,0,1,1.9-.332h2.395l.147,3.942H8.327a5.691,5.691,0,0,0-1.842.276,5.556,5.556,0,0,0-1.51.792v5.305Z" transform="translate(43.99 70.43)" fill="#ed759d"/>
          <path id="Path_5942" data-name="Path 5942" d="M4.347,19.895A4.626,4.626,0,0,1,.976,18.9,4.331,4.331,0,0,1,0,15.768V0H4.974V14.479a1.352,1.352,0,0,0,1.511,1.547H7.737v3.868Z" transform="translate(67.202 70.798)" fill="#ed759d"/>
          <path id="Path_5943" data-name="Path 5943" d="M9.469,20.264a10.613,10.613,0,0,1-6.927-2.082Q0,16.1,0,11.9V0H4.974V11.974q0,4.421,4.5,4.422t4.495-4.422V0h4.974V11.9q0,4.2-2.542,6.282A10.613,10.613,0,0,1,9.469,20.264Z" transform="translate(78.402 70.798)" fill="#ed759d"/>
          <path id="Path_5944" data-name="Path 5944" d="M8.879,20.264V8.033a5.248,5.248,0,0,0-.774-3.077Q7.332,3.869,5.011,3.869a13.024,13.024,0,0,0-2.579.276A15.737,15.737,0,0,0,0,4.827V1.179A12.349,12.349,0,0,1,2.727.332,16.135,16.135,0,0,1,5.969,0q4.2,0,6.042,1.787t1.842,5.545V20.264Z" transform="translate(99.845 70.43)" fill="#ed759d"/>
          <path id="Path_5945" data-name="Path 5945" d="M0,19.895V0H4.974V6.042H9.911a3.379,3.379,0,0,0,2.634-.829,3.774,3.774,0,0,0,.719-2.524V0h4.974V2.505a8.211,8.211,0,0,1-.608,3.261A3.76,3.76,0,0,1,15.4,7.811a3.6,3.6,0,0,1,2.118,1.824,6.737,6.737,0,0,1,.571,2.856v7.4H13.116V13.042a3.723,3.723,0,0,0-.719-2.615A3.584,3.584,0,0,0,9.8,9.69H4.974V19.895Z" transform="translate(118.045 70.798)" fill="#ed759d"/>
          <path id="Path_5946" data-name="Path 5946" d="M6.337,20.633A16.012,16.012,0,0,1,0,19.454v-3.8a15.583,15.583,0,0,0,2.468.792,11.662,11.662,0,0,0,2.69.314q3.463,0,4.955-1.437t1.492-5.01q0-3.574-1.492-5.011T5.158,3.869a12.417,12.417,0,0,0-2.69.294A12.7,12.7,0,0,0,0,4.974V1.179A16.019,16.019,0,0,1,6.337,0q5.047,0,7.516,2.635t2.468,7.682q0,5.048-2.468,7.681T6.337,20.633Z" transform="translate(139.156 70.43)" fill="#ed759d"/>
          <path id="Path_5947" data-name="Path 5947" d="M8.879,20.264V8.033a5.249,5.249,0,0,0-.774-3.077Q7.332,3.869,5.011,3.869a13.022,13.022,0,0,0-2.579.276A15.731,15.731,0,0,0,0,4.827V1.179A12.351,12.351,0,0,1,2.726.332,16.141,16.141,0,0,1,5.969,0q4.2,0,6.042,1.787t1.842,5.545V20.264Z" transform="translate(156.693 70.43)" fill="#ed759d"/>
          <path id="Path_5948" data-name="Path 5948" d="M6.89,20.264a6.637,6.637,0,0,1-5.047-1.934A7.509,7.509,0,0,1,0,12.932V0H4.974V12.637a3.883,3.883,0,0,0,.9,2.892,3.717,3.717,0,0,0,2.671.866,6.642,6.642,0,0,0,2.726-.59,6.343,6.343,0,0,0,2.137-1.473V0h4.974V19.895H13.816L13.6,17.943a10.813,10.813,0,0,1-2.984,1.7A10.479,10.479,0,0,1,6.89,20.264Z" transform="translate(174.894 70.798)" fill="#ed759d"/>
          <path id="Path_5949" data-name="Path 5949" d="M0,7.405V0H4.2L3.684,7.405Zm6.374,0V0h4.2l-.516,7.405Z" transform="translate(196.889 66.967)" fill="#ed759d"/>
          <path id="Path_5950" data-name="Path 5950" d="M4.347,19.895A4.626,4.626,0,0,1,.976,18.9,4.328,4.328,0,0,1,0,15.768V0H4.974V14.479a1.352,1.352,0,0,0,1.511,1.547H7.737v3.868Z" transform="translate(219.069 70.798)" fill="#ed759d"/>
          <path id="Path_5951" data-name="Path 5951" d="M6.926,20.633a9.586,9.586,0,0,1-3.463-.608A5.255,5.255,0,0,1,.94,18.035,6.411,6.411,0,0,1,0,14.369,5.505,5.505,0,0,1,2.026,9.782a9.2,9.2,0,0,1,5.821-1.6h5.637V7.222a3.012,3.012,0,0,0-1.032-2.6,6.46,6.46,0,0,0-3.647-.754A23.121,23.121,0,0,0,5.4,4.108a19.654,19.654,0,0,0-3.187.755V1.143a25.637,25.637,0,0,1,3.5-.811A23.733,23.733,0,0,1,9.616,0q4.457,0,6.65,1.879t2.192,5.858V20.264H13.485V11.827H8.143a4.853,4.853,0,0,0-2.506.553,2.126,2.126,0,0,0-.921,1.989,2.052,2.052,0,0,0,.81,1.879,5.322,5.322,0,0,0,2.726.516,12.738,12.738,0,0,0,1.382-.074,6.32,6.32,0,0,0,1.161-.221v3.647a11.174,11.174,0,0,1-1.713.368A15.047,15.047,0,0,1,6.926,20.633Z" transform="translate(229.643 70.43)" fill="#ed759d"/>
          <path id="Path_5952" data-name="Path 5952" d="M4.863,9.1A5.165,5.165,0,0,1,1.308,7.94,4.177,4.177,0,0,1,0,4.642,4.47,4.47,0,0,1,1.327,1.289,5.225,5.225,0,0,1,5.121,0h9.284l-.221,2.763H5.6a2.811,2.811,0,0,0-1.658.424,1.673,1.673,0,0,0-.59,1.455q0,1.732,1.842,1.731a1.882,1.882,0,0,0,1.363-.4A1.442,1.442,0,0,0,6.963,4.9V4.237H9.911V4.9A1.27,1.27,0,0,0,10.3,5.969a1.973,1.973,0,0,0,1.2.295h2.248V9.027H11.127A4.891,4.891,0,0,1,9.469,8.75,1.8,1.8,0,0,1,8.4,7.885a2.436,2.436,0,0,1-1.474.9A7.589,7.589,0,0,1,4.863,9.1Z" transform="translate(232.148 59.045)" fill="#ed759d"/>
          <path id="Path_5953" data-name="Path 5953" d="M.921,20.264V13.927a7.435,7.435,0,0,1,.571-3A3.354,3.354,0,0,1,3.758,9.1L0,8.106V3.353A14.863,14.863,0,0,1,4.034,1.032,15.139,15.139,0,0,1,9.8,0a14.925,14.925,0,0,1,5.1.774,6.2,6.2,0,0,1,3.242,2.579,9.222,9.222,0,0,1,1.124,4.9V20.264H14.3V8.143a4.262,4.262,0,0,0-1.087-3.3,5.464,5.464,0,0,0-3.666-.976,9.224,9.224,0,0,0-3.04.479A6.708,6.708,0,0,0,4.274,5.563V6.08l4.09,1.105v3.021a3.021,3.021,0,0,0-1.971,1.2,5.121,5.121,0,0,0-.5,2.561v6.3Z" transform="translate(251.712 70.43)" fill="#ed759d"/>
          <path id="Path_5954" data-name="Path 5954" d="M6.89,20.264a6.636,6.636,0,0,1-5.048-1.934A7.51,7.51,0,0,1,0,12.932V0H4.974V12.637a3.883,3.883,0,0,0,.9,2.892,3.716,3.716,0,0,0,2.671.866,6.643,6.643,0,0,0,2.727-.59,6.343,6.343,0,0,0,2.137-1.473V0h4.974V19.895H13.816l-.221-1.952a10.807,10.807,0,0,1-2.984,1.7A10.477,10.477,0,0,1,6.89,20.264Z" transform="translate(275.328 70.798)" fill="#ed759d"/>
          <path id="Path_5955" data-name="Path 5955" d="M2.874,6.668V3.389H0V0H6.226V3.279h7.884l-.184,3.39Z" transform="translate(281.665 61.404)" fill="#ed759d"/>
          <path id="Path_5956" data-name="Path 5956" d="M8.216,20.633a21.839,21.839,0,0,1-4.605-.461A20.215,20.215,0,0,1,0,19.086V8.622H8.437l.221,3.648H4.716v4.016a9.934,9.934,0,0,0,1.676.35,14.181,14.181,0,0,0,1.861.13q3.021,0,4.237-1.437t1.216-4.937a9.7,9.7,0,0,0-.645-3.924,3.791,3.791,0,0,0-2.1-2.008A10.82,10.82,0,0,0,7,3.869a24.923,24.923,0,0,0-3.371.239,20.054,20.054,0,0,0-3.371.755V1.143A21.245,21.245,0,0,1,4.052.3,30.467,30.467,0,0,1,8.216,0q5.379,0,7.792,2.672t2.413,7.719q0,4.938-2.413,7.589T8.216,20.633Z" transform="translate(297.323 70.43)" fill="#ed759d"/>
          <path id="Path_5957" data-name="Path 5957" d="M9.542,20.633a18.292,18.292,0,0,1-4.79-.59A7.031,7.031,0,0,1,1.29,18.035,5.449,5.449,0,0,1,0,14.222a5.208,5.208,0,0,1,.608-2.45,4.478,4.478,0,0,1,1.9-1.861A4.055,4.055,0,0,1,.755,8.4,4.44,4.44,0,0,1,.074,5.9a5.332,5.332,0,0,1,1.842-4.4A7.308,7.308,0,0,1,6.669,0,12.662,12.662,0,0,1,8.621.129,7.251,7.251,0,0,1,10.1.516V4.163a9.685,9.685,0,0,0-2.542-.294A3.774,3.774,0,0,0,5.49,4.33a1.731,1.731,0,0,0-.7,1.565,1.787,1.787,0,0,0,.774,1.677,4.634,4.634,0,0,0,2.321.461H9.948l.184,3.647H7.847q-3.132,0-3.132,2.542a2.061,2.061,0,0,0,1.124,1.9,7.234,7.234,0,0,0,3.482.645,5.288,5.288,0,0,0,3.537-1A3.607,3.607,0,0,0,14,12.9V.369h4.974V12.453q0,4.311-2.45,6.245T9.542,20.633Z" transform="translate(318.176 70.43)" fill="#ed759d"/>
        </g>
      </g>
      <path id="Path_5633" data-name="Path 5633" d="M0,169.745c25.631-43.4,20.477-130.871,20.807-148.289S19.612.429,15.9.028s33.23,3.608,33.23,3.608L61.77,29.113,37.487,106.375Z" transform="translate(512.847 353.205) rotate(17)"/>
      <g id="Group_2526" data-name="Group 2526" transform="translate(588.066 -93.348) rotate(17)">
        <g id="Group_2525" data-name="Group 2525" transform="translate(0 0)" clip-path="url(#clip-path-2)">
          <g id="Group_2524" data-name="Group 2524" transform="translate(-22.792 -0.278)">
            <path id="Path_5609" data-name="Path 5609" d="M286.8-182.449S265.69-85.343,239.358,21.129c-24.508,99.1-53.5,206.213-74.422,251.89-8.514,18.584-28.853,52.668-28.853,52.668S85.072,369.025,70.71,394.226,33.42,467.9,28.052,477.508s-9.367,29.581-11.65,39.92S-.6,551.721.019,559.162s16.11,11.725,34.5-2.338,27.077-28.548,31.6-47.719,35.033-51.534,36.871-52.383c0,0,5.419,13.988,4.448,28.4s-4.166,55.108-5.641,62.425-17.041,52.536-25.171,66.887S58.671,646.059,53.941,659.46s.687,23.527,6.881,25.2,14.545-6.2,19.465-12.109a121.884,121.884,0,0,1,10.324-10.818s3.3,8.431,15.991-.921,40.288-31.306,44.527-35.64,9.253-9.4,9.253-9.4-18.552,26.1-22.766,38.367-.938,20.489,6.08,19.923,18.508-13,25.925-21.553,13.8-14.2,20.609-24.967,34.188-39.853,36.606-43.841,5.289-11.6,9.038-29.33,8.582-34.715,8.582-34.715,7.211,22.371,7.619,24.758-3.229,24.964-4.86,36.017-1.864,25.671,5.249,31.745,14.257,5.995,16.767-3.583,9.082-46.929,13.774-60.04,4.407-24.666,1.956-40.271-2.476-56.945-2.288-62.974,2.29-96.384,7.986-118.475,7.216-35.421,16.618-48.627,12.823-21.025,14.123-37.62,14.92-58.737,28.572-98.022S403.14,0,403.14,0Z" transform="translate(0.649 0.649)" fill="#f9cfcc"/>
            <path id="Path_5610" data-name="Path 5610" d="M50.321,155.734a6.941,6.941,0,0,1-5.7-2.748c-2.831-3.645-2.95-10.4-.318-18.062,2.978-8.673,12.858-23.908,18.613-32.4-1.3,1.323-2.7,2.749-4.022,4.1-4.293,4.389-31.747,26.233-44.607,35.708-7.2,5.3-11.548,4.994-13.933,3.8a.649.649,0,0,1,.581-1.161C3,146,6.854,146.195,13.522,141.281c12.519-9.225,40.284-31.312,44.448-35.571,4.191-4.286,9.207-9.351,9.256-9.4a.649.649,0,0,1,.991.833c-.185.26-18.547,26.161-22.681,38.2-2.489,7.249-2.445,13.546.116,16.845a5.8,5.8,0,0,0,5.3,2.22c7.509-.606,21.04-16.205,25.487-21.331,2.057-2.371,4.04-4.526,5.957-6.609,4.987-5.418,9.7-10.536,14.594-18.28,4.182-6.613,15.8-19.788,25.143-30.374,5.656-6.413,10.542-11.951,11.455-13.458,2.932-4.837,5.778-14.092,8.958-29.127C146.254,17.685,151.088.642,151.136.472a.649.649,0,1,1,1.249.355C152.337,1,147.516,18,143.814,35.5c-3.211,15.182-6.109,24.565-9.118,29.531-.973,1.606-5.659,6.918-11.592,13.643-9.308,10.552-20.893,23.684-25.019,30.209-4.96,7.843-9.709,13-14.737,18.465-1.911,2.077-3.888,4.224-5.931,6.581C69.549,143,58.257,155.122,51.053,155.7Q50.682,155.734,50.321,155.734Z" transform="translate(93.345 519.655)" fill="#0d0d0c"/>
            <path id="Path_5611" data-name="Path 5611" d="M63.271,686.188a7.516,7.516,0,0,1-1.97-.254,11.758,11.758,0,0,1-6.924-6.166c-2.819-5.364-2.965-12.608-.4-19.874C58.668,646.6,68.5,629.25,76.4,615.3l.3-.538c8.21-14.492,23.732-59.909,25.1-66.7,1.417-7.032,4.588-46.885,5.63-62.34.818-12.146-2.78-30.3-2.78-30.3S71.563,492.225,67.4,509.9c-4.785,20.3-14.3,34.682-31.834,48.086-13.181,10.08-24.66,10.637-30.485,8.05-3-1.332-4.844-3.583-5.057-6.175-.356-4.316,3.942-13.346,8.493-22.906,3.4-7.133,6.907-14.509,7.9-19.021.214-.972.444-2.03.689-3.156,2.437-11.21,6.118-28.151,11.028-36.941,1.939-3.471,6.162-12,11.509-22.8,9.28-18.742,21.99-44.411,31.152-60.488,13.983-24.538,63.1-66.647,65.435-68.642,1.178-1.978,20.579-34.645,28.765-52.515C207.964,179.6,230.678,30.927,230.9,29.436a.65.65,0,0,1,.535-.544L403.682.009a.649.649,0,0,1,.714.872c-.4,1.033-39.669,103.72-53.163,142.546-17.881,51.451-27.481,84.375-28.538,97.859-1.36,17.36-5.312,25.4-14.242,37.946-7.365,10.344-9.888,20.948-13.382,35.624-.956,4.015-1.944,8.167-3.136,12.787-4.623,17.933-6.937,80.492-7.905,116.187-.028,1.033-.048,1.762-.06,2.147-.172,5.529-.191,47.123,2.281,62.852,2.362,15.034,2.854,27.068-1.985,40.591-3.062,8.556-6.885,27.276-9.958,42.319-1.573,7.7-2.932,14.354-3.8,17.667-1.115,4.257-3.233,6.986-6.123,7.892-3.317,1.041-7.47-.373-11.694-3.98-7.913-6.758-6.824-23.159-5.471-32.333.337-2.282.759-5.055,1.214-8.039,1.669-10.966,3.956-25.983,3.649-27.774-.107-.626-.816-3.226-3.586-12.056a.649.649,0,0,1,1.239-.388c2.241,7.145,3.461,11.258,3.627,12.226.318,1.85-1.386,13.349-3.645,28.188-.454,2.982-.876,5.753-1.212,8.033-1.315,8.909-2.409,24.8,5.028,31.156,3.872,3.306,7.587,4.631,10.462,3.729,2.441-.766,4.259-3.18,5.256-6.982.859-3.278,2.214-9.914,3.783-17.6,3.08-15.082,6.914-33.854,10.007-42.5,4.747-13.262,4.256-25.12,1.925-39.951-2.485-15.813-2.468-57.549-2.3-63.095.012-.384.032-1.111.06-2.141.97-35.749,3.291-98.419,7.946-116.475,1.188-4.609,2.175-8.754,3.129-12.764,3.528-14.82,6.077-25.527,13.589-36.078,9.19-12.908,12.688-20.483,14-37.294,1.081-13.786,10.437-45.9,28.606-98.184,12.759-36.713,48.548-130.472,52.771-141.523L232.116,30.1c-.689,4.466-6.331,40.342-16.6,86.037-10.091,44.887-26.841,108.7-49.337,157.807-8.431,18.4-28.682,52.39-28.885,52.731a.649.649,0,0,1-.138.162c-.509.433-51.09,43.552-65.23,68.365-9.144,16.045-21.843,41.693-31.117,60.422-5.355,10.814-9.584,19.356-11.539,22.855-4.816,8.621-8.619,26.125-10.892,36.584-.245,1.127-.475,2.186-.691,3.16-1.028,4.657-4.414,11.77-8,19.3C5.41,546.5.988,555.791,1.315,559.758c.174,2.1,1.737,3.962,4.29,5.095,5.5,2.442,16.439,1.84,29.169-7.9,17.27-13.206,26.648-27.367,31.359-47.352,4.518-19.17,36.416-54.821,38.563-55.813a.65.65,0,0,1,.878.355c.054.141,4.126,17.278,3.157,31.669-.96,14.256-4.152,55.07-5.652,62.51-1.375,6.826-16.986,52.505-25.243,67.08l-.3.538c-7.875,13.9-17.677,31.2-22.33,44.381-2.445,6.927-2.327,13.793.325,18.838a10.476,10.476,0,0,0,6.113,5.517c6.741,1.821,16.093-8.647,18.8-11.9A123.6,123.6,0,0,1,90.824,661.9a.649.649,0,1,1,.873.961,122.328,122.328,0,0,0-10.261,10.753C78.128,677.587,70.169,686.187,63.271,686.188Z" transform="translate(0 0)" fill="#0d0d0c"/>
            <path id="Path_5612" data-name="Path 5612" d="M3.7,39.753a42.186,42.186,0,0,1-3-9.779,48.106,48.106,0,0,1-.66-10.261L.1,18.427c.03-.429.079-.855.117-1.282.083-.854.149-1.71.295-2.557s.253-1.7.435-2.536l.253-1.26c.086-.42.207-.832.308-1.248A38.108,38.108,0,0,1,5.175,0,69.33,69.33,0,0,0,2.7,9.8c-.161.823-.275,1.655-.4,2.482s-.224,1.661-.317,2.492c-.11.83-.177,1.664-.241,2.5-.031.417-.073.833-.1,1.251l-.043,1.253-.061,1.253c-.015.418,0,.836-.006,1.253.009.836-.019,1.674.034,2.508s.053,1.673.114,2.507c.086.832.155,1.667.222,2.5A83.851,83.851,0,0,0,3.7,39.753Z" transform="translate(97.109 410.531)" fill="#0d0d0c"/>
            <path id="Path_5613" data-name="Path 5613" d="M0,130.128a61.125,61.125,0,0,1,6.076-7.069c2.155-2.241,4.327-4.459,6.446-6.722a120.844,120.844,0,0,0,11.732-14.354,117.25,117.25,0,0,0,9.187-16.059c2.637-5.607,5.129-11.287,7.538-17,2.437-5.7,4.772-11.455,7.078-17.218,2.329-5.754,4.572-11.543,6.87-17.312s4.53-11.565,6.866-17.328c1.181-2.88,2.463-5.712,3.716-8.554s2.519-5.68,3.8-8.51Q67.62,4.345,65.891,8.67c-1.145,2.887-2.318,5.762-3.385,8.673-2.187,5.808-4.3,11.649-6.458,17.476-4.31,11.654-8.8,23.25-13.633,34.71-2.444,5.719-4.948,11.415-7.645,17.029a109.124,109.124,0,0,1-9.539,16.112,120.353,120.353,0,0,1-12.162,14.2c-2.211,2.191-4.467,4.328-6.7,6.483A70.373,70.373,0,0,0,0,130.128Z" transform="translate(95.122 525.493)" fill="#0d0d0c"/>
            <path id="Path_5614" data-name="Path 5614" d="M0,99.3c3.3-3.463,6.728-6.82,9.767-10.49a47.956,47.956,0,0,0,7.6-11.944c.96-2.169,1.659-4.391,2.458-6.688.8-2.267,1.656-4.507,2.521-6.743,1.746-4.465,3.587-8.888,5.46-13.3,3.79-8.8,7.777-17.517,12.135-26.056,2.173-4.272,4.458-8.491,6.917-12.61C48.1,9.423,49.379,7.39,50.773,5.434A29.047,29.047,0,0,1,55.467,0a20.489,20.489,0,0,0-2.329,2.715c-.357.477-.712.955-1.038,1.456s-.675.983-.985,1.493c-1.287,2.008-2.457,4.091-3.6,6.188-2.291,4.189-4.419,8.466-6.491,12.77-2.055,4.313-4.083,8.639-6.03,13q-2.95,6.532-5.763,13.127-2.844,6.58-5.523,13.226c-.9,2.213-1.78,4.432-2.608,6.663l-1.225,3.375c-.2.571-.435,1.131-.676,1.688s-.463,1.119-.736,1.662a42,42,0,0,1-3.6,6.3,55.092,55.092,0,0,1-4.526,5.64C7.074,92.844,3.547,96.085,0,99.3Z" transform="translate(163.363 514.932)" fill="#0d0d0c"/>
            <path id="Path_5615" data-name="Path 5615" d="M0,30.61a56.925,56.925,0,0,1,2.475-8.188c1.018-2.665,2.183-5.27,3.43-7.832.649-1.268,1.288-2.541,1.972-3.79S9.256,8.31,10,7.095A73.287,73.287,0,0,1,14.761,0c-1.189,2.6-2.437,5.14-3.695,7.677L7.3,15.28c-.631,1.264-1.255,2.531-1.864,3.8-.644,1.258-1.211,2.55-1.848,3.814Z" transform="translate(246.101 485.793)" fill="#0d0d0c"/>
            <path id="Path_5616" data-name="Path 5616" d="M5.977,0A52.211,52.211,0,0,1,7.116,7.472a28.689,28.689,0,0,1-.354,7.61A26.147,26.147,0,0,1,4.2,22.267,37.31,37.31,0,0,1,0,28.56c1.236-2.194,2.456-4.38,3.471-6.645a31.607,31.607,0,0,0,2.27-7.026,35.547,35.547,0,0,0,.568-7.381C6.276,5.017,6.1,2.516,5.977,0Z" transform="translate(154.278 487.978)" fill="#0d0d0c"/>
            <path id="Path_5617" data-name="Path 5617" d="M0,30.978a57.516,57.516,0,0,0,4.752-6.857,24.855,24.855,0,0,0,2.849-7.6c.121-.665.212-1.339.308-2.01.042-.68.112-1.357.132-2.04.056-1.367.005-2.742-.07-4.124C7.8,5.586,7.425,2.809,7.138,0A45.365,45.365,0,0,1,9.182,8.224a25.933,25.933,0,0,1-.051,8.59A22.225,22.225,0,0,1,7.858,20.97a17.938,17.938,0,0,1-.95,1.948l-.526.944c-.184.309-.4.6-.6.895A29.116,29.116,0,0,1,0,30.978Z" transform="translate(209.292 485.016)" fill="#0d0d0c"/>
            <path id="Path_5618" data-name="Path 5618" d="M0,15.89C.213,15.2.486,14.55.743,13.9l.735-1.945c.217-.653.489-1.281.682-1.935l.324-.967.285-.975a34.129,34.129,0,0,0,.89-3.953A21.857,21.857,0,0,0,3.954,0a9.249,9.249,0,0,1,.928,4.211,15.362,15.362,0,0,1-.614,4.3L3.941,9.541c-.126.338-.264.671-.4,1a17.828,17.828,0,0,1-.956,1.931c-.349.625-.777,1.206-1.174,1.8A21.256,21.256,0,0,1,0,15.89Z" transform="translate(248.081 465.604)" fill="#0d0d0c"/>
          </g>
        </g>
      </g>
      <path id="Path_5634" data-name="Path 5634" d="M333.583,192.139l.916-.479,4.2-2.192-2.842,17.276-.35-13.763Z" transform="translate(195.107 176.076)" fill="#0d0d0c"/>
      <g id="Group_2798" data-name="Group 2798" transform="translate(126.161 401.312) rotate(6)">
        <path id="Path_6065" data-name="Path 6065" d="M-2315.508,1935.851a2.57,2.57,0,0,1-1.986-.779,2.891,2.891,0,0,1-.72-2.045v-13.062h2.412v12.474q0,1.441,1.383,1.442h1.383v1.971Zm6.737,0a2.568,2.568,0,0,1-1.985-.779,2.889,2.889,0,0,1-.722-2.045v-13.062h2.413v12.474q0,1.441,1.383,1.442h1.382v1.971Z" transform="translate(2335.385 -1796.335)"/>
        <path id="Path_6066" data-name="Path 6066" d="M-2276.58,1935.74a6.29,6.29,0,0,1-3.266-.854,5.741,5.741,0,0,1-2.265-2.633,11.01,11.01,0,0,1-.824-4.6,12.358,12.358,0,0,1,1.28-6.208,4.029,4.029,0,0,1,3.662-2.177,3.9,3.9,0,0,1,1.913.412,4.22,4.22,0,0,1,1.294,1.147,4.45,4.45,0,0,1,1.6-1.147,4.907,4.907,0,0,1,1.957-.412,3.282,3.282,0,0,1,2.618,1.015,4.328,4.328,0,0,1,.883,2.927v12.238h-2.412V1923.53a2.964,2.964,0,0,0-.368-1.721,1.669,1.669,0,0,0-1.4-.485,2.452,2.452,0,0,0-1.206.309,2.1,2.1,0,0,0-.883,1.074h-1.618a3.063,3.063,0,0,0-.853-1.074,2.134,2.134,0,0,0-1.236-.309,2.223,2.223,0,0,0-2.25,1.721,14.956,14.956,0,0,0-.575,4.6q0,3.353,1.1,4.692a3.968,3.968,0,0,0,3.251,1.338,10.27,10.27,0,0,0,1.1-.058,5.089,5.089,0,0,0,.927-.177v2A8.562,8.562,0,0,1-2276.58,1935.74Z" transform="translate(2314.933 -1795.929)"/>
        <path id="Path_6067" data-name="Path 6067" d="M-2252.485,1907.021v-4.766h2.413v4.766Z" transform="translate(2297.281 -1786.068)"/>
        <path id="Path_6068" data-name="Path 6068" d="M-2234.308,1935.851a2.57,2.57,0,0,1-1.986-.779,2.891,2.891,0,0,1-.721-2.045v-13.062h2.412v12.474q0,1.441,1.383,1.442h1.677v1.971Z" transform="translate(2288.312 -1796.335)"/>
        <path id="Path_6069" data-name="Path 6069" d="M-2214.117,1935.851l-3.648-15.886h2.472l2.618,12.5,3.354-10.5v-2h1.794l3.59,12.5,2.589-12.5h2.442l-3.619,15.886h-2.412l-3.266-11.179-3.53,11.179Z" transform="translate(2277.153 -1796.335)"/>
        <path id="Path_6070" data-name="Path 6070" d="M-2205.025,1907.751l.118-1.736h6.031v-2.5h1.824v2.5h1.883v-2.5h1.824v4.237Z" transform="translate(2269.767 -1786.798)"/>
        <path id="Path_6071" data-name="Path 6071" d="M-2182.135,1894.443v-4.089h2.03v4.089Z" transform="translate(2256.497 -1779.169)"/>
        <path id="Path_6072" data-name="Path 6072" d="M-2160.575,1935.74a16.389,16.389,0,0,1-3.413-.339,16.293,16.293,0,0,1-2.677-.779v-8h5.825l.118,1.971h-3.53v4.5a10.684,10.684,0,0,0,1.72.427,11.407,11.407,0,0,0,1.9.161,6.637,6.637,0,0,0,3.044-.589,3.47,3.47,0,0,0,1.648-1.942,10.409,10.409,0,0,0,.515-3.618,10.21,10.21,0,0,0-.545-3.707,3.423,3.423,0,0,0-1.824-1.927,8.683,8.683,0,0,0-3.486-.574,20.094,20.094,0,0,0-2.6.176,13.248,13.248,0,0,0-2.545.589v-2a13.8,13.8,0,0,1,2.692-.617,22.823,22.823,0,0,1,3.074-.206q4.06,0,5.854,2.074t1.795,6.193q0,4.031-1.795,6.119T-2160.575,1935.74Z" transform="translate(2247.53 -1795.929)"/>
        <path id="Path_6073" data-name="Path 6073" d="M-2120.56,1936.146a5.1,5.1,0,0,1-3.927-1.471,6,6,0,0,1-1.368-4.237v-10.473h2.412v10.443a3.806,3.806,0,0,0,.883,2.824,3.906,3.906,0,0,0,2.8.853,6.224,6.224,0,0,0,2.765-.617,7.735,7.735,0,0,0,2.177-1.559v-11.945h2.412v15.886h-2.177l-.147-1.912a8.736,8.736,0,0,1-2.5,1.6A8.423,8.423,0,0,1-2120.56,1936.146Z" transform="translate(2223.872 -1796.335)"/>
        <path id="Path_6074" data-name="Path 6074" d="M-2078.768,1936.146a6.944,6.944,0,0,1-4.781-1.486,5.4,5.4,0,0,1-1.662-4.251v-2.147a3.589,3.589,0,0,1,.411-1.677,9.239,9.239,0,0,1,.971-1.5q.558-.706.97-1.324a2.11,2.11,0,0,0,.412-1.148q0-.5-.221-.632a1.554,1.554,0,0,0-.75-.132h-2.118l.206-1.883h3.266a1.782,1.782,0,0,1,2.03,2,3.837,3.837,0,0,1-.413,1.8,10.633,10.633,0,0,1-.97,1.53,12.539,12.539,0,0,0-.971,1.471,3.187,3.187,0,0,0-.412,1.588v2.324a3.023,3.023,0,0,0,1.089,2.619,4.89,4.89,0,0,0,2.942.794,5.016,5.016,0,0,0,2.986-.794,3.076,3.076,0,0,0,1.1-2.677v-10.65h2.413v10.414a5.355,5.355,0,0,1-1.721,4.266A7.038,7.038,0,0,1-2078.768,1936.146Z" transform="translate(2200.498 -1796.335)"/>
        <path id="Path_6075" data-name="Path 6075" d="M-2039.545,1935.74a16.393,16.393,0,0,1-3.413-.339,16.3,16.3,0,0,1-2.677-.779v-8h5.826l.117,1.971h-3.53v4.5a10.7,10.7,0,0,0,1.721.427,11.41,11.41,0,0,0,1.9.161,6.64,6.64,0,0,0,3.045-.589,3.475,3.475,0,0,0,1.648-1.942,10.428,10.428,0,0,0,.515-3.618,10.209,10.209,0,0,0-.544-3.707,3.426,3.426,0,0,0-1.824-1.927,8.685,8.685,0,0,0-3.486-.574,20.078,20.078,0,0,0-2.6.176,13.226,13.226,0,0,0-2.545.589v-2a13.778,13.778,0,0,1,2.692-.617,22.814,22.814,0,0,1,3.074-.206q4.06,0,5.854,2.074t1.795,6.193q0,4.031-1.795,6.119T-2039.545,1935.74Z" transform="translate(2177.367 -1795.929)"/>
        <path id="Path_6076" data-name="Path 6076" d="M-2000.914,1936.146q-.558,0-1.309-.06a4.563,4.563,0,0,1-1.28-.265l-4.472-10.885h2.354l3.766,9.149a4.548,4.548,0,0,0,4.134-1.441q1.339-1.648,1.339-5.267a11.02,11.02,0,0,0-.383-3.251,2.813,2.813,0,0,0-1.279-1.691,5.223,5.223,0,0,0-2.516-.5h-1.03v-1.971h1.295q3.383,0,4.854,1.808t1.471,5.576a11.813,11.813,0,0,1-.927,5.06,6.248,6.248,0,0,1-2.486,2.839A6.944,6.944,0,0,1-2000.914,1936.146Z" transform="translate(2155.535 -1796.335)"/>
        <path id="Path_6077" data-name="Path 6077" d="M-1966.325,1935.445v-10.3a5.62,5.62,0,0,1,1.662-4.354q1.662-1.529,5.222-1.53t5.193,1.53a5.676,5.676,0,0,1,1.633,4.354v10.3h-2.413v-10.561a3.156,3.156,0,0,0-1.132-2.736,5.53,5.53,0,0,0-3.281-.824,5.648,5.648,0,0,0-3.339.824,3.156,3.156,0,0,0-1.132,2.736v3.677a5.008,5.008,0,0,1,3.413-1.206h1.941l.118,1.971h-2.118a5.006,5.006,0,0,0-3.354,1.147v4.972Z" transform="translate(2131.39 -1795.929)"/>
        <path id="Path_6078" data-name="Path 6078" d="M-1941.423,1967.676v-3.853h-1.942l.118-1.648h3.913v5.5Z" transform="translate(2118.079 -1820.805)"/>
        <path id="Path_6079" data-name="Path 6079" d="M-1908.635,1935.74a4.889,4.889,0,0,1-3.81-1.471,6.079,6.079,0,0,1-1.339-4.236v-4.8a3.943,3.943,0,0,0-.971-3.06,5.228,5.228,0,0,0-3.412-.853,9.29,9.29,0,0,0-2.957.456,5.364,5.364,0,0,0-2.133,1.221v.618l3.442.824v1.824a3.192,3.192,0,0,0-1.662.927,2.792,2.792,0,0,0-.544,1.868v2.971q0,1.442,1.383,1.441h1.677v1.971h-2.765a2.57,2.57,0,0,1-1.986-.779,2.89,2.89,0,0,1-.721-2.045V1929a4.044,4.044,0,0,1,.559-2.133,3.048,3.048,0,0,1,1.824-1.309l-3.324-.764v-2.825a11.331,11.331,0,0,1,2.928-1.867,10.1,10.1,0,0,1,4.281-.839,7.6,7.6,0,0,1,5.09,1.456,5.787,5.787,0,0,1,1.677,4.6V1930a3.845,3.845,0,0,0,.868,2.824,3.7,3.7,0,0,0,2.692.853,5.527,5.527,0,0,0,2.633-.617,8.291,8.291,0,0,0,2.074-1.559v-11.944h2.412v15.886h-2.177l-.147-1.912a9.225,9.225,0,0,1-2.4,1.6A7.607,7.607,0,0,1-1908.635,1935.74Z" transform="translate(2107.651 -1795.929)"/>
        <path id="Path_6080" data-name="Path 6080" d="M-1854.279,1935.851a2.568,2.568,0,0,1-1.985-.779,2.889,2.889,0,0,1-.721-2.045v-13.062h2.412v12.474q0,1.441,1.383,1.442h1.676v1.971Z" transform="translate(2068.004 -1796.335)"/>
        <path id="Path_6081" data-name="Path 6081" d="M-1831.739,1935.74a7.082,7.082,0,0,1-2.692-.486,4.1,4.1,0,0,1-1.9-1.53,4.772,4.772,0,0,1-.706-2.721,4.464,4.464,0,0,1,1.5-3.545,6.837,6.837,0,0,1,4.59-1.31h5.207v-1.235a4.747,4.747,0,0,0-.4-2.133,2.3,2.3,0,0,0-1.368-1.118,8.538,8.538,0,0,0-2.706-.339,19.2,19.2,0,0,0-2.6.176,13.351,13.351,0,0,0-2.486.589v-2a14.9,14.9,0,0,1,2.574-.6,19.665,19.665,0,0,1,2.957-.22,13.523,13.523,0,0,1,1.441.073,9.377,9.377,0,0,1,1.265.222h5.06l-.118,1.97h-2.118a4.2,4.2,0,0,1,.706,1.559,8.84,8.84,0,0,1,.206,2v10.356h-2.412v-7.3h-5.061a5.18,5.18,0,0,0-2.942.662,2.489,2.489,0,0,0-.941,2.192,2.356,2.356,0,0,0,.853,2.089,4.92,4.92,0,0,0,2.736.589,7.553,7.553,0,0,0,2-.235v2q-.5.118-1.177.207A11.445,11.445,0,0,1-1831.739,1935.74Z" transform="translate(2056.438 -1795.929)"/>
        <path id="Path_6082" data-name="Path 6082" d="M-1832.275,1907.751l.117-1.736h9.532v-2.5h2.03v4.237Z" transform="translate(2053.679 -1786.798)"/>
        <path id="Path_6083" data-name="Path 6083" d="M-1788.733,1935.74a9.708,9.708,0,0,1-5.1-1.163,3.981,3.981,0,0,1-1.9-3.662,4.142,4.142,0,0,1,.633-2.339,3.8,3.8,0,0,1,1.78-1.427,3.378,3.378,0,0,1-1.662-1.177,3.592,3.592,0,0,1-.662-2.265,4.1,4.1,0,0,1,1.324-3.339,5.106,5.106,0,0,1,3.383-1.1,9.508,9.508,0,0,1,1.383.088,7.137,7.137,0,0,1,1.059.235v2a3.671,3.671,0,0,0-.912-.205,9.829,9.829,0,0,0-1.089-.059,3.158,3.158,0,0,0-2.015.574,2.172,2.172,0,0,0-.721,1.809,2.162,2.162,0,0,0,.853,1.9,3.794,3.794,0,0,0,2.236.6h1.677l.147,1.824h-1.912a3.2,3.2,0,0,0-2.324.75,2.851,2.851,0,0,0-.765,2.133q0,2.765,4.5,2.765a5.539,5.539,0,0,0,3.4-.868,3.279,3.279,0,0,0,1.133-2.78v-10.473h2.412v10.061a5.994,5.994,0,0,1-1.647,4.546Q-1785.174,1935.74-1788.733,1935.74Z" transform="translate(2032.497 -1795.929)"/>
        <path id="Path_6084" data-name="Path 6084" d="M-1747.668,1935.74a6.943,6.943,0,0,1-4.781-1.486,5.4,5.4,0,0,1-1.662-4.251v-2.147a3.589,3.589,0,0,1,.412-1.677,9.287,9.287,0,0,1,.971-1.5q.559-.706.971-1.324a2.105,2.105,0,0,0,.412-1.147q0-.5-.221-.632a1.549,1.549,0,0,0-.75-.132h-2.118l.206-1.883h3.266a1.781,1.781,0,0,1,2.03,2,3.847,3.847,0,0,1-.412,1.795,10.592,10.592,0,0,1-.971,1.53,12.743,12.743,0,0,0-.971,1.471,3.2,3.2,0,0,0-.411,1.588v2.324a3.022,3.022,0,0,0,1.088,2.619,4.892,4.892,0,0,0,2.942.794,5.017,5.017,0,0,0,2.986-.794,3.075,3.075,0,0,0,1.1-2.677v-2.031a3.51,3.51,0,0,0-.529-2.25,2.512,2.512,0,0,0-1.942-.6h-.824l.118-1.912h.647a2.368,2.368,0,0,0,2.016-.706,3.653,3.653,0,0,0,.514-2.147v-1.295h2.413v1.265a6.083,6.083,0,0,1-.412,2.4,2.757,2.757,0,0,1-1.766,1.427,2.793,2.793,0,0,1,1.81,1.5,6.757,6.757,0,0,1,.368,2.383v1.736a5.357,5.357,0,0,1-1.721,4.266A7.037,7.037,0,0,1-1747.668,1935.74Z" transform="translate(2008.555 -1795.929)"/>
        <path id="Path_6085" data-name="Path 6085" d="M-1750.8,1907.751l.118-1.736h9.532v-2.5h2.03v4.237Z" transform="translate(2006.444 -1786.798)"/>
        <path id="Path_6086" data-name="Path 6086" d="M-1710.093,1935.74a11.156,11.156,0,0,1-4.442-.824v-2.03a10.942,10.942,0,0,0,1.868.573,9.443,9.443,0,0,0,2.015.221,7.393,7.393,0,0,0,3.383-.633,3.537,3.537,0,0,0,1.707-1.986,10.489,10.489,0,0,0,.5-3.56q0-3.294-1.294-4.736t-4.384-1.442a9.232,9.232,0,0,0-1.972.206,8.752,8.752,0,0,0-1.824.618v-2.06a9.016,9.016,0,0,1,1.927-.617,12.03,12.03,0,0,1,2.368-.206q3.854,0,5.722,2.089t1.868,6.149a9.577,9.577,0,0,1-1.707,6.09Q-1706.062,1935.74-1710.093,1935.74Z" transform="translate(1985.424 -1795.929)"/>
        <path id="Path_6087" data-name="Path 6087" d="M-1715.585,1911.2l.117-1.735h11.562v1.735Z" transform="translate(1986.032 -1790.248)"/>
        <path id="Path_6088" data-name="Path 6088" d="M-1672.971,1935.74a6.29,6.29,0,0,1-3.265-.854,5.743,5.743,0,0,1-2.265-2.633,11.012,11.012,0,0,1-.824-4.6,12.365,12.365,0,0,1,1.28-6.208,4.031,4.031,0,0,1,3.663-2.177,3.9,3.9,0,0,1,1.912.412,4.215,4.215,0,0,1,1.294,1.147,4.449,4.449,0,0,1,1.6-1.147,4.9,4.9,0,0,1,1.956-.412,3.282,3.282,0,0,1,2.618,1.015,4.332,4.332,0,0,1,.883,2.927v12.238h-2.413V1923.53a2.972,2.972,0,0,0-.367-1.721,1.671,1.671,0,0,0-1.4-.485,2.456,2.456,0,0,0-1.206.309,2.1,2.1,0,0,0-.882,1.074H-1672a3.064,3.064,0,0,0-.853-1.074,2.133,2.133,0,0,0-1.236-.309,2.224,2.224,0,0,0-2.25,1.721,14.973,14.973,0,0,0-.573,4.6q0,3.353,1.1,4.692a3.968,3.968,0,0,0,3.251,1.338,10.284,10.284,0,0,0,1.1-.058,5.078,5.078,0,0,0,.927-.177v2A8.561,8.561,0,0,1-1672.971,1935.74Z" transform="translate(1965.012 -1795.929)"/>
        <path id="Path_6089" data-name="Path 6089" d="M-2231.72,2035.74a8.976,8.976,0,0,1-1.162-.088,5.37,5.37,0,0,1-1.073-.236l-2.471-6.59h-1.883l.118-1.972h3.324l2.56,6.825a5.08,5.08,0,0,0,2.618-.456,4.367,4.367,0,0,0,2-2.015,8.316,8.316,0,0,0,.765-3.883,8.821,8.821,0,0,0-.589-3.53,3.579,3.579,0,0,0-1.912-1.9,9.2,9.2,0,0,0-3.589-.574,18.681,18.681,0,0,0-2.486.176,13.214,13.214,0,0,0-2.516.589v-2a14.912,14.912,0,0,1,2.574-.6,20.518,20.518,0,0,1,3.074-.22q4.089,0,5.972,2.088a8.624,8.624,0,0,1,1.884,5.973,9.733,9.733,0,0,1-1,4.634,7,7,0,0,1-2.633,2.824A6.949,6.949,0,0,1-2231.72,2035.74Z" transform="translate(2289.063 -1853.9)"/>
        <path id="Path_6090" data-name="Path 6090" d="M-2192.795,2035.445v-10.267a7.5,7.5,0,0,0-.264-2.177,2.057,2.057,0,0,0-1.074-1.265,5.63,5.63,0,0,0-2.456-.412,11.227,11.227,0,0,0-2.045.206,11.414,11.414,0,0,0-2.016.559v-2a11.719,11.719,0,0,1,2.089-.589,12.608,12.608,0,0,1,2.413-.235,6.115,6.115,0,0,1,4.4,1.338,5.829,5.829,0,0,1,1.368,4.31v10.532Z" transform="translate(2267.231 -1853.9)"/>
        <path id="Path_6091" data-name="Path 6091" d="M-2166.948,2035.445V2029a4.045,4.045,0,0,1,.559-2.133,3.045,3.045,0,0,1,1.824-1.309l-3.324-.765v-2.825a11.09,11.09,0,0,1,2.985-1.868,10.675,10.675,0,0,1,4.4-.839,8.012,8.012,0,0,1,5.222,1.456,5.656,5.656,0,0,1,1.75,4.6v10.121h-2.413v-10.209a3.806,3.806,0,0,0-1.03-3.06,5.614,5.614,0,0,0-3.53-.853,10.054,10.054,0,0,0-3.075.456,5.358,5.358,0,0,0-2.191,1.221v.618l3.442.824v1.824a3.2,3.2,0,0,0-1.662.927,2.794,2.794,0,0,0-.543,1.868v6.384Z" transform="translate(2248.24 -1853.9)"/>
        <path id="Path_6092" data-name="Path 6092" d="M-2109.37,2017.368l1.824-5.384h1.677l-1.442,5.384Zm4.031,0,1.824-5.384h1.646l-1.441,5.384Z" transform="translate(2214.315 -1849.679)"/>
        <path id="Path_6093" data-name="Path 6093" d="M-2081.915,2025.543a2.571,2.571,0,0,1-1.986-.779,2.889,2.889,0,0,1-.721-2.045v-14.062a4.638,4.638,0,0,0-.765-2.942,5.778,5.778,0,0,0-2.354-1.588v-1.942h8.443v1.942h-5.384a4.879,4.879,0,0,1,1.472,1.133,3.9,3.9,0,0,1,.765,1.618,11.14,11.14,0,0,1,.235,2.515v12.739q0,1.441,1.382,1.441h1.677v1.971Z" transform="translate(2201.776 -1843.999)"/>
        <path id="Path_6094" data-name="Path 6094" d="M-2056.85,2035.74a21.253,21.253,0,0,1-2.869-.191,9.83,9.83,0,0,1-2.339-.574v-2.148a11.48,11.48,0,0,0,2.383.647,14.953,14.953,0,0,0,2.412.206,9.245,9.245,0,0,0,3.222-.426,1.788,1.788,0,0,0,1.074-1.869,2.027,2.027,0,0,0-.544-1.544,4.172,4.172,0,0,0-1.545-.854q-1-.338-2.413-.809a23.039,23.039,0,0,1-2.442-.985,5.332,5.332,0,0,1-1.854-1.4,3.393,3.393,0,0,1-.706-2.236,3.68,3.68,0,0,1,1.545-3.192,7.911,7.911,0,0,1,4.6-1.1,15.94,15.94,0,0,1,2.56.206,13.1,13.1,0,0,1,2.118.5v2.119a10.6,10.6,0,0,0-2.1-.574,13.371,13.371,0,0,0-2.222-.191,8.409,8.409,0,0,0-3.044.427,1.7,1.7,0,0,0-1.045,1.751,1.791,1.791,0,0,0,.545,1.367,4.452,4.452,0,0,0,1.559.883q1.016.368,2.457.839a17.616,17.616,0,0,1,2.559,1.045,4.875,4.875,0,0,1,1.751,1.441,3.789,3.789,0,0,1,.633,2.281,3.587,3.587,0,0,1-1.736,3.383A9.083,9.083,0,0,1-2056.85,2035.74Z" transform="translate(2187.127 -1853.9)"/>
        <path id="Path_6095" data-name="Path 6095" d="M-2025.79,2035.445v-10.3a5.621,5.621,0,0,1,1.662-4.354q1.661-1.53,5.222-1.53t5.192,1.53a5.675,5.675,0,0,1,1.633,4.354v10.3h-2.413v-10.561a3.156,3.156,0,0,0-1.133-2.736,5.53,5.53,0,0,0-3.28-.824,5.649,5.649,0,0,0-3.339.824,3.156,3.156,0,0,0-1.133,2.736v3.677a5.006,5.006,0,0,1,3.413-1.207h1.942l.118,1.971h-2.118a5.008,5.008,0,0,0-3.354,1.147v4.972Z" transform="translate(2165.862 -1853.9)"/>
        <path id="Path_6096" data-name="Path 6096" d="M-1980.733,2035.851a2.57,2.57,0,0,1-1.986-.78,2.888,2.888,0,0,1-.721-2.045v-13.062h2.412v12.473q0,1.441,1.383,1.442h1.677v1.971Z" transform="translate(2141.312 -1854.307)"/>
        <path id="Path_6097" data-name="Path 6097" d="M-1955.117,2036.146a7.584,7.584,0,0,1-5.163-1.589,5.932,5.932,0,0,1-1.81-4.707v-9.885h2.413v10.061a3.772,3.772,0,0,0,1.177,3.1,5.247,5.247,0,0,0,3.383.956,5.247,5.247,0,0,0,3.383-.956,3.772,3.772,0,0,0,1.177-3.1v-10.061h2.413v9.885a5.932,5.932,0,0,1-1.81,4.707A7.583,7.583,0,0,1-1955.117,2036.146Z" transform="translate(2128.935 -1854.307)"/>
        <path id="Path_6098" data-name="Path 6098" d="M-1914.825,2035.445v-10.267a7.5,7.5,0,0,0-.265-2.177,2.056,2.056,0,0,0-1.074-1.265,5.632,5.632,0,0,0-2.457-.412,11.223,11.223,0,0,0-2.044.206,11.409,11.409,0,0,0-2.016.559v-2a11.716,11.716,0,0,1,2.089-.589,12.6,12.6,0,0,1,2.412-.235,6.116,6.116,0,0,1,4.4,1.338,5.829,5.829,0,0,1,1.368,4.31v10.532Z" transform="translate(2106.088 -1853.9)"/>
        <path id="Path_6099" data-name="Path 6099" d="M-1888.52,2035.851v-15.886h2.412v5.148h5.267a3.494,3.494,0,0,0,2.677-.824,3.468,3.468,0,0,0,.735-2.383v-1.941h2.412v1.912a5.8,5.8,0,0,1-.558,2.618,3.107,3.107,0,0,1-1.971,1.56,2.837,2.837,0,0,1,1.912,1.53,6.389,6.389,0,0,1,.441,2.471v5.8h-2.412v-5.5a3.542,3.542,0,0,0-.721-2.574,3.874,3.874,0,0,0-2.662-.692h-5.12v8.767Z" transform="translate(2086.285 -1854.307)"/>
        <path id="Path_6100" data-name="Path 6100" d="M-1844.037,2035.74a11.158,11.158,0,0,1-4.443-.824v-2.03a11.079,11.079,0,0,0,1.868.573,9.458,9.458,0,0,0,2.015.22,7.386,7.386,0,0,0,3.384-.633,3.533,3.533,0,0,0,1.707-1.986,10.484,10.484,0,0,0,.5-3.56q0-3.294-1.294-4.736t-4.384-1.442a9.227,9.227,0,0,0-1.971.206,8.768,8.768,0,0,0-1.824.618v-2.059a9.008,9.008,0,0,1,1.927-.617,12.037,12.037,0,0,1,2.368-.206q3.854,0,5.723,2.088t1.868,6.149a9.577,9.577,0,0,1-1.706,6.09Q-1840.007,2035.74-1844.037,2035.74Z" transform="translate(2063.074 -1853.9)"/>
        <path id="Path_6101" data-name="Path 6101" d="M-1807.515,2035.445v-10.267a7.5,7.5,0,0,0-.265-2.177,2.055,2.055,0,0,0-1.074-1.265,5.632,5.632,0,0,0-2.457-.412,11.228,11.228,0,0,0-2.044.206,11.409,11.409,0,0,0-2.015.559v-2a11.7,11.7,0,0,1,2.089-.589,12.591,12.591,0,0,1,2.412-.235,6.115,6.115,0,0,1,4.4,1.338,5.827,5.827,0,0,1,1.368,4.31v10.532Z" transform="translate(2043.879 -1853.9)"/>
        <path id="Path_6102" data-name="Path 6102" d="M-1775.914,2036.146a5.1,5.1,0,0,1-3.928-1.471,6,6,0,0,1-1.367-4.236v-10.473h2.412v10.443a3.8,3.8,0,0,0,.883,2.824,3.9,3.9,0,0,0,2.795.853,6.217,6.217,0,0,0,2.765-.617,7.709,7.709,0,0,0,2.177-1.559v-11.944h2.413v15.886h-2.177l-.147-1.912a8.733,8.733,0,0,1-2.5,1.6A8.431,8.431,0,0,1-1775.914,2036.146Z" transform="translate(2024.075 -1854.307)"/>
        <path id="Path_6103" data-name="Path 6103" d="M-1740.89,2017.368l1.471-5.384h2.03l-1.824,5.384Zm4.03,0,1.441-5.384h2.03l-1.824,5.384Z" transform="translate(2000.702 -1849.679)"/>
        <path id="Path_6104" data-name="Path 6104" d="M-2240.749,2135.851a2.572,2.572,0,0,1-1.986-.779,2.894,2.894,0,0,1-.721-2.045v-13.063h2.412v12.474q0,1.44,1.383,1.441h1.677v1.971Z" transform="translate(2292.046 -1912.277)"/>
        <path id="Path_6105" data-name="Path 6105" d="M-2220.557,2135.851l-3.648-15.886h2.471l2.619,12.5,3.354-10.5v-2h1.794l3.589,12.5,2.59-12.5h2.441l-3.619,15.886h-2.412l-3.266-11.179-3.531,11.179Z" transform="translate(2280.886 -1912.277)"/>
        <path id="Path_6106" data-name="Path 6106" d="M-2167.486,2135.74a21.215,21.215,0,0,1-2.868-.191,9.766,9.766,0,0,1-2.338-.575v-2.147a11.471,11.471,0,0,0,2.383.647,14.98,14.98,0,0,0,2.412.207,9.216,9.216,0,0,0,3.221-.426,1.789,1.789,0,0,0,1.074-1.869,2.029,2.029,0,0,0-.545-1.544,4.178,4.178,0,0,0-1.544-.854q-1-.337-2.412-.808a22.955,22.955,0,0,1-2.442-.986,5.315,5.315,0,0,1-1.854-1.4,3.4,3.4,0,0,1-.706-2.236,3.679,3.679,0,0,1,1.545-3.192,7.909,7.909,0,0,1,4.6-1.1,15.95,15.95,0,0,1,2.56.207,13.1,13.1,0,0,1,2.118.5v2.118a10.56,10.56,0,0,0-2.1-.573,13.348,13.348,0,0,0-2.221-.191,8.42,8.42,0,0,0-3.046.427,1.7,1.7,0,0,0-1.044,1.751,1.791,1.791,0,0,0,.545,1.368,4.461,4.461,0,0,0,1.559.882q1.015.368,2.457.838a17.472,17.472,0,0,1,2.56,1.046,4.863,4.863,0,0,1,1.75,1.441,3.782,3.782,0,0,1,.633,2.28,3.588,3.588,0,0,1-1.736,3.384A9.085,9.085,0,0,1-2167.486,2135.74Z" transform="translate(2251.262 -1911.872)"/>
        <path id="Path_6107" data-name="Path 6107" d="M-2132.07,2135.445v-10.268a7.492,7.492,0,0,0-.264-2.177,2.056,2.056,0,0,0-1.074-1.265,5.632,5.632,0,0,0-2.456-.412,11.2,11.2,0,0,0-2.045.206,11.349,11.349,0,0,0-2.015.559v-2a11.669,11.669,0,0,1,2.089-.588,12.544,12.544,0,0,1,2.412-.236,6.116,6.116,0,0,1,4.4,1.339,5.829,5.829,0,0,1,1.368,4.31v10.532Z" transform="translate(2232.027 -1911.872)"/>
        <path id="Path_6108" data-name="Path 6108" d="M-2107.165,2129.419v-3.3h2.089v1.442h4.561l-.089,1.853Zm0,8.12v-3.295h2.089v1.471h4.561l-.089,1.824Z" transform="translate(2213.037 -1915.849)"/>
        <path id="Path_6109" data-name="Path 6109" d="M-2079.12,2135.74a7.085,7.085,0,0,1-2.692-.486,4.1,4.1,0,0,1-1.9-1.53,4.767,4.767,0,0,1-.706-2.722,4.462,4.462,0,0,1,1.5-3.544,6.835,6.835,0,0,1,4.59-1.31h5.207v-1.236a4.763,4.763,0,0,0-.4-2.133,2.3,2.3,0,0,0-1.369-1.118,8.53,8.53,0,0,0-2.707-.339,19.079,19.079,0,0,0-2.6.176,13.3,13.3,0,0,0-2.486.589v-2a14.858,14.858,0,0,1,2.574-.6,19.655,19.655,0,0,1,2.956-.221,13.486,13.486,0,0,1,1.442.073,9.577,9.577,0,0,1,1.265.221h5.061l-.119,1.971h-2.118a4.213,4.213,0,0,1,.706,1.559,8.828,8.828,0,0,1,.207,2v10.356h-2.413v-7.3h-5.06a5.179,5.179,0,0,0-2.942.662,2.489,2.489,0,0,0-.941,2.191,2.358,2.358,0,0,0,.853,2.089,4.925,4.925,0,0,0,2.736.589,7.534,7.534,0,0,0,2-.235v2q-.5.117-1.177.206A11.422,11.422,0,0,1-2079.12,2135.74Z" transform="translate(2199.847 -1911.872)"/>
        <path id="Path_6110" data-name="Path 6110" d="M-2037.361,2135.445v-10.268a7.491,7.491,0,0,0-.265-2.177,2.057,2.057,0,0,0-1.074-1.265,5.633,5.633,0,0,0-2.456-.412,11.2,11.2,0,0,0-2.045.206,11.359,11.359,0,0,0-2.015.559v-2a11.674,11.674,0,0,1,2.089-.588,12.545,12.545,0,0,1,2.413-.236,6.115,6.115,0,0,1,4.4,1.339,5.827,5.827,0,0,1,1.368,4.31v10.532Z" transform="translate(2177.124 -1911.872)"/>
        <path id="Path_6111" data-name="Path 6111" d="M-2008.348,2135.851a2.571,2.571,0,0,1-1.986-.779,2.893,2.893,0,0,1-.721-2.045v-13.063h2.412v12.474q0,1.44,1.383,1.441h1.677v1.971Z" transform="translate(2157.32 -1912.277)"/>
        <path id="Path_6112" data-name="Path 6112" d="M-1989.705,2135.851v-15.886h2.413v5.149h5.266a3.5,3.5,0,0,0,2.677-.823,3.472,3.472,0,0,0,.736-2.384v-1.941h2.412v1.912a5.781,5.781,0,0,1-.559,2.618,3.1,3.1,0,0,1-1.971,1.56,2.834,2.834,0,0,1,1.912,1.53,6.38,6.38,0,0,1,.441,2.471v5.8h-2.412v-5.5a3.546,3.546,0,0,0-.72-2.575,3.878,3.878,0,0,0-2.663-.692h-5.119v8.767Z" transform="translate(2144.944 -1912.277)"/>
        <path id="Path_6113" data-name="Path 6113" d="M-1943.31,2135.74a6.3,6.3,0,0,1-3.266-.854,5.747,5.747,0,0,1-2.265-2.634,11.02,11.02,0,0,1-.824-4.6,12.367,12.367,0,0,1,1.28-6.208,4.031,4.031,0,0,1,3.663-2.177,3.9,3.9,0,0,1,1.912.412,4.213,4.213,0,0,1,1.295,1.147,4.43,4.43,0,0,1,1.6-1.147,4.907,4.907,0,0,1,1.957-.412,3.284,3.284,0,0,1,2.618,1.015,4.333,4.333,0,0,1,.883,2.927v12.239h-2.413V2123.53a2.972,2.972,0,0,0-.368-1.722,1.671,1.671,0,0,0-1.4-.485,2.459,2.459,0,0,0-1.207.308,2.1,2.1,0,0,0-.882,1.074h-1.618a3.072,3.072,0,0,0-.853-1.074,2.135,2.135,0,0,0-1.236-.308,2.223,2.223,0,0,0-2.25,1.721,14.97,14.97,0,0,0-.574,4.6q0,3.353,1.1,4.693a3.969,3.969,0,0,0,3.251,1.338,10.387,10.387,0,0,0,1.1-.059,5.094,5.094,0,0,0,.927-.177v2A8.593,8.593,0,0,1-1943.31,2135.74Z" transform="translate(2121.732 -1911.872)"/>
        <path id="Path_6114" data-name="Path 6114" d="M-1921.193,2167.677v-3.854h-1.942l.118-1.648h3.913v5.5Z" transform="translate(2106.352 -1936.748)"/>
        <path id="Path_6115" data-name="Path 6115" d="M-1898.555,2135.74a8.931,8.931,0,0,1-1.162-.089,5.4,5.4,0,0,1-1.074-.236l-2.472-6.59h-1.883l.118-1.971h3.324l2.559,6.826a5.086,5.086,0,0,0,2.619-.456,4.372,4.372,0,0,0,2-2.015,8.328,8.328,0,0,0,.765-3.884,8.818,8.818,0,0,0-.589-3.531,3.585,3.585,0,0,0-1.912-1.9,9.207,9.207,0,0,0-3.589-.574,18.67,18.67,0,0,0-2.486.176,13.225,13.225,0,0,0-2.515.589v-2a14.855,14.855,0,0,1,2.574-.6,20.467,20.467,0,0,1,3.074-.221q4.089,0,5.972,2.089a8.625,8.625,0,0,1,1.883,5.972,9.735,9.735,0,0,1-1,4.634,7,7,0,0,1-2.633,2.824A6.949,6.949,0,0,1-1898.555,2135.74Z" transform="translate(2095.923 -1911.872)"/>
        <path id="Path_6116" data-name="Path 6116" d="M-1880.986,2106.826a3.074,3.074,0,0,1-2.177-.853,2.784,2.784,0,0,1-.912-2.118,2.816,2.816,0,0,1,.912-2.147,3.076,3.076,0,0,1,2.177-.854,3.01,3.01,0,0,1,2.177.854,2.861,2.861,0,0,1,.882,2.147,2.829,2.829,0,0,1-.882,2.118A3.008,3.008,0,0,1-1880.986,2106.826Zm0-1.53a1.362,1.362,0,0,0,1.015-.442,1.4,1.4,0,0,0,.427-1,1.435,1.435,0,0,0-.427-1.03,1.365,1.365,0,0,0-1.015-.442,1.4,1.4,0,0,0-1.044.442,1.437,1.437,0,0,0-.427,1.03,1.4,1.4,0,0,0,.427,1A1.4,1.4,0,0,0-1880.986,2105.3Z" transform="translate(2083.708 -1901.199)"/>
        <path id="Path_6117" data-name="Path 6117" d="M-1859.63,2135.445v-10.268a7.487,7.487,0,0,0-.264-2.177,2.061,2.061,0,0,0-1.074-1.265,5.634,5.634,0,0,0-2.457-.412,11.2,11.2,0,0,0-2.045.206,11.365,11.365,0,0,0-2.016.559v-2a11.668,11.668,0,0,1,2.089-.588,12.535,12.535,0,0,1,2.412-.236,6.117,6.117,0,0,1,4.4,1.339,5.827,5.827,0,0,1,1.368,4.31v10.532Z" transform="translate(2074.091 -1911.872)"/>
        <path id="Path_6118" data-name="Path 6118" d="M-1830.618,2135.851a2.57,2.57,0,0,1-1.986-.779,2.893,2.893,0,0,1-.721-2.045v-13.063h2.412v12.474q0,1.44,1.383,1.441h1.677v1.971Z" transform="translate(2054.287 -1912.277)"/>
        <path id="Path_6119" data-name="Path 6119" d="M-1810.427,2135.851l-3.648-15.886h2.472l2.618,12.5,3.354-10.5v-2h1.795l3.589,12.5,2.589-12.5h2.442l-3.619,15.886h-2.413l-3.266-11.179-3.531,11.179Z" transform="translate(2043.128 -1912.277)"/>
        <path id="Path_6120" data-name="Path 6120" d="M-1757.22,2135.445v-10.268a7.486,7.486,0,0,0-.265-2.177,2.054,2.054,0,0,0-1.074-1.265,5.632,5.632,0,0,0-2.457-.412,11.193,11.193,0,0,0-2.045.206,11.356,11.356,0,0,0-2.015.559v-2a11.678,11.678,0,0,1,2.089-.588,12.53,12.53,0,0,1,2.412-.236,6.116,6.116,0,0,1,4.4,1.339,5.827,5.827,0,0,1,1.368,4.31v10.532Z" transform="translate(2014.722 -1911.872)"/>
        <path id="Path_6121" data-name="Path 6121" d="M-1732.315,2129.419v-3.3h2.089v1.442h4.56l-.089,1.853Zm0,8.12v-3.295h2.089v1.471h4.56l-.089,1.824Z" transform="translate(1995.731 -1915.849)"/>
        <path id="Path_6122" data-name="Path 6122" d="M-2304.215,2235.445v-15.886h2.177l.147,1.911a9.25,9.25,0,0,1,2.516-1.6,8.325,8.325,0,0,1,3.31-.6,5.11,5.11,0,0,1,3.913,1.471,5.914,5.914,0,0,1,1.382,4.207v10.5h-2.412v-10.473a3.686,3.686,0,0,0-.912-2.8,4.023,4.023,0,0,0-2.824-.853,5.891,5.891,0,0,0-2.751.633,8.211,8.211,0,0,0-2.133,1.574v11.915Z" transform="translate(2327.269 -1969.844)"/>
        <path id="Path_6123" data-name="Path 6123" d="M-2300.155,2207.751l.117-1.736h9.532v-2.5h2.03v4.237Z" transform="translate(2324.915 -1960.714)"/>
        <path id="Path_6124" data-name="Path 6124" d="M-2277.265,2194.443v-4.089h2.03v4.089Z" transform="translate(2311.646 -1953.083)"/>
        <path id="Path_6125" data-name="Path 6125" d="M-2257.8,2235.74a16.365,16.365,0,0,1-3.413-.339,16.167,16.167,0,0,1-2.677-.78v-8h5.825l.118,1.972h-3.53v4.5a10.7,10.7,0,0,0,1.721.427,11.375,11.375,0,0,0,1.9.161,6.65,6.65,0,0,0,3.045-.589,3.471,3.471,0,0,0,1.648-1.942,10.42,10.42,0,0,0,.515-3.618,10.213,10.213,0,0,0-.544-3.708,3.432,3.432,0,0,0-1.824-1.927,8.7,8.7,0,0,0-3.487-.573,20.045,20.045,0,0,0-2.6.176,13.21,13.21,0,0,0-2.545.589v-2a13.837,13.837,0,0,1,2.692-.617,22.811,22.811,0,0,1,3.074-.207q4.061,0,5.854,2.074t1.8,6.193q0,4.03-1.8,6.119T-2257.8,2235.74Z" transform="translate(2303.895 -1969.844)"/>
        <path id="Path_6126" data-name="Path 6126" d="M-2218.729,2235.445v-10.268a7.505,7.505,0,0,0-.265-2.177,2.058,2.058,0,0,0-1.074-1.265,5.628,5.628,0,0,0-2.457-.412,11.247,11.247,0,0,0-2.045.206,11.39,11.39,0,0,0-2.015.559v-2a11.673,11.673,0,0,1,2.089-.588,12.523,12.523,0,0,1,2.412-.236,6.117,6.117,0,0,1,4.4,1.339,5.828,5.828,0,0,1,1.368,4.31v10.532Z" transform="translate(2282.266 -1969.844)"/>
        <path id="Path_6127" data-name="Path 6127" d="M-2187.235,2235.74a8.962,8.962,0,0,1-1.162-.088,5.419,5.419,0,0,1-1.074-.236l-2.471-6.59h-1.883l.117-1.971h3.325l2.56,6.825a5.084,5.084,0,0,0,2.618-.456,4.372,4.372,0,0,0,2-2.016,8.327,8.327,0,0,0,.765-3.884,8.814,8.814,0,0,0-.589-3.53,3.589,3.589,0,0,0-1.912-1.9,9.217,9.217,0,0,0-3.589-.573,18.752,18.752,0,0,0-2.486.176,13.236,13.236,0,0,0-2.515.589v-2a14.905,14.905,0,0,1,2.574-.6,20.537,20.537,0,0,1,3.074-.221q4.089,0,5.972,2.089a8.624,8.624,0,0,1,1.883,5.972,9.723,9.723,0,0,1-1,4.635,7,7,0,0,1-2.633,2.824A6.947,6.947,0,0,1-2187.235,2235.74Z" transform="translate(2263.274 -1969.844)"/>
        <path id="Path_6128" data-name="Path 6128" d="M-2149.958,2235.851a2.569,2.569,0,0,1-1.986-.779,2.891,2.891,0,0,1-.721-2.045v-13.062h2.412v12.474q0,1.441,1.383,1.442h1.677v1.97Z" transform="translate(2239.413 -1970.249)"/>
        <path id="Path_6129" data-name="Path 6129" d="M-2131.774,2235.445V2229a4.06,4.06,0,0,1,.558-2.134,3.053,3.053,0,0,1,1.825-1.309l-3.324-.764v-2.825a11.079,11.079,0,0,1,2.986-1.867,10.66,10.66,0,0,1,4.4-.839,8.008,8.008,0,0,1,5.222,1.457,5.656,5.656,0,0,1,1.751,4.6v10.12h-2.412v-10.209a3.807,3.807,0,0,0-1.03-3.06,5.614,5.614,0,0,0-3.531-.853,10.053,10.053,0,0,0-3.074.456A5.353,5.353,0,0,0-2130.6,2223v.618l3.442.824v1.824a3.2,3.2,0,0,0-1.662.927,2.79,2.79,0,0,0-.544,1.868v6.384Z" transform="translate(2227.848 -1969.844)"/>
        <path id="Path_6130" data-name="Path 6130" d="M-2126.485,2211.2l.117-1.736h11.563v1.736Z" transform="translate(2224.236 -1964.163)"/>
        <path id="Path_6131" data-name="Path 6131" d="M-2083.87,2235.74a6.29,6.29,0,0,1-3.265-.854,5.738,5.738,0,0,1-2.266-2.633,11.021,11.021,0,0,1-.824-4.6,9.075,9.075,0,0,1,1.942-6.134q1.942-2.251,6-2.251a8.557,8.557,0,0,1,4.192.9,5.6,5.6,0,0,1,2.339,2.339,6.7,6.7,0,0,1,.736,3.088v9.856h-2.413v-9.825a5,5,0,0,0-.471-2.207,3.39,3.39,0,0,0-1.544-1.53,6.334,6.334,0,0,0-2.9-.559q-2.943,0-4.207,1.647a7.547,7.547,0,0,0-1.265,4.678q0,3.353,1.1,4.693a3.97,3.97,0,0,0,3.251,1.338,10.361,10.361,0,0,0,1.1-.059,5.122,5.122,0,0,0,.927-.176v2A8.57,8.57,0,0,1-2083.87,2235.74Z" transform="translate(2203.216 -1969.844)"/>
        <path id="Path_6132" data-name="Path 6132" d="M-2039.115,2235.74a8.965,8.965,0,0,1-1.162-.088,5.428,5.428,0,0,1-1.074-.236l-2.471-6.59h-1.883l.118-1.971h3.324l2.56,6.825a5.089,5.089,0,0,0,2.619-.456,4.377,4.377,0,0,0,2-2.016,8.331,8.331,0,0,0,.765-3.884,8.823,8.823,0,0,0-.589-3.53,3.588,3.588,0,0,0-1.912-1.9,9.219,9.219,0,0,0-3.589-.573,18.754,18.754,0,0,0-2.486.176,13.242,13.242,0,0,0-2.516.589v-2a14.9,14.9,0,0,1,2.575-.6,20.531,20.531,0,0,1,3.074-.221q4.089,0,5.973,2.089a8.625,8.625,0,0,1,1.883,5.972,9.735,9.735,0,0,1-1,4.635,7.01,7.01,0,0,1-2.633,2.824A6.949,6.949,0,0,1-2039.115,2235.74Z" transform="translate(2177.408 -1969.844)"/>
        <path id="Path_6133" data-name="Path 6133" d="M-2000.19,2235.445v-10.268a7.494,7.494,0,0,0-.265-2.177,2.054,2.054,0,0,0-1.074-1.265,5.626,5.626,0,0,0-2.456-.412,11.245,11.245,0,0,0-2.045.206,11.384,11.384,0,0,0-2.016.559v-2a11.682,11.682,0,0,1,2.089-.588,12.522,12.522,0,0,1,2.413-.236,6.115,6.115,0,0,1,4.4,1.339,5.825,5.825,0,0,1,1.369,4.31v10.532Z" transform="translate(2155.575 -1969.844)"/>
        <path id="Path_6134" data-name="Path 6134" d="M-1974.343,2235.445V2229a4.051,4.051,0,0,1,.559-2.134,3.053,3.053,0,0,1,1.824-1.309l-3.325-.764v-2.825a11.086,11.086,0,0,1,2.986-1.867,10.66,10.66,0,0,1,4.4-.839,8.009,8.009,0,0,1,5.222,1.457,5.654,5.654,0,0,1,1.751,4.6v10.12h-2.413v-10.209a3.8,3.8,0,0,0-1.03-3.06,5.608,5.608,0,0,0-3.53-.853,10.054,10.054,0,0,0-3.075.456,5.349,5.349,0,0,0-2.192,1.221v.618l3.442.824v1.824a3.2,3.2,0,0,0-1.663.927,2.792,2.792,0,0,0-.544,1.868v6.384Z" transform="translate(2136.584 -1969.844)"/>
        <path id="Path_6135" data-name="Path 6135" d="M-1929.847,2235.851l-3.648-15.886h2.471l2.618,12.5,3.354-10.5v-2h1.795l3.589,12.5,2.589-12.5h2.441l-3.619,15.886h-2.412l-3.266-11.179-3.531,11.179Z" transform="translate(2112.358 -1970.249)"/>
        <path id="Path_6136" data-name="Path 6136" d="M-1908.085,2208.237v-3.884h2.03v2.148h7.914l-.117,1.736Z" transform="translate(2097.627 -1961.198)"/>
        <path id="Path_6137" data-name="Path 6137" d="M-1875.7,2236.146a5.1,5.1,0,0,1-3.928-1.471,6,6,0,0,1-1.368-4.237v-10.473h2.412v10.443a3.806,3.806,0,0,0,.883,2.825,3.9,3.9,0,0,0,2.795.853,6.224,6.224,0,0,0,2.766-.617,7.747,7.747,0,0,0,2.177-1.559v-11.945h2.413v15.886h-2.177l-.147-1.912a8.722,8.722,0,0,1-2.5,1.6A8.422,8.422,0,0,1-1875.7,2236.146Z" transform="translate(2081.922 -1970.249)"/>
        <path id="Path_6138" data-name="Path 6138" d="M-1834.232,2235.74a16.738,16.738,0,0,1-3.457-.339,16.109,16.109,0,0,1-2.692-.78v-6.031h2.236v4.472a10.746,10.746,0,0,0,3.736.617,6.083,6.083,0,0,0,2.972-.589,2.317,2.317,0,0,0,1.029-2.206,2.954,2.954,0,0,0-.529-1.927,3.345,3.345,0,0,0-1.618-.971q-1.089-.338-2.736-.691-1.323-.294-2.559-.691a5.04,5.04,0,0,1-2.03-1.177,2.971,2.971,0,0,1-.8-2.221,3.164,3.164,0,0,1,1.736-3.016,10.366,10.366,0,0,1,4.825-.927,20.418,20.418,0,0,1,2.971.221,11.7,11.7,0,0,1,2.354.544v2.118a13.746,13.746,0,0,0-2.339-.588,15.685,15.685,0,0,0-2.662-.236,20.689,20.689,0,0,0-2.28.118,4.135,4.135,0,0,0-1.677.5,1.306,1.306,0,0,0-.633,1.207,1.413,1.413,0,0,0,.662,1.294,5.782,5.782,0,0,0,1.809.661q1.147.25,2.648.633a17.157,17.157,0,0,1,2.706.9,4.407,4.407,0,0,1,1.868,1.485,4.723,4.723,0,0,1,.692,2.766,4.155,4.155,0,0,1-1.706,3.677A7.84,7.84,0,0,1-1834.232,2235.74Z" transform="translate(2058.549 -1969.844)"/>
        <path id="Path_6139" data-name="Path 6139" d="M-1819.623,2267.676v-3.853h-1.942l.117-1.648h3.913v5.5Z" transform="translate(2047.471 -1994.719)"/>
        <path id="Path_6140" data-name="Path 6140" d="M-1802.633,2235.445V2229a4.053,4.053,0,0,1,.559-2.134,3.051,3.051,0,0,1,1.824-1.309l-3.324-.764v-2.825a11.085,11.085,0,0,1,2.986-1.867,10.659,10.659,0,0,1,4.4-.839,8.009,8.009,0,0,1,5.222,1.457,5.655,5.655,0,0,1,1.751,4.6v10.12h-2.412v-10.209a3.806,3.806,0,0,0-1.03-3.06,5.613,5.613,0,0,0-3.531-.853,10.054,10.054,0,0,0-3.075.456,5.352,5.352,0,0,0-2.192,1.221v.618l3.442.824v1.824a3.2,3.2,0,0,0-1.662.927,2.79,2.79,0,0,0-.544,1.868v6.384Z" transform="translate(2037.041 -1969.844)"/>
        <path id="Path_6141" data-name="Path 6141" d="M-1755.466,2235.74a21.217,21.217,0,0,1-2.869-.191,9.806,9.806,0,0,1-2.339-.574v-2.147a11.553,11.553,0,0,0,2.383.647,15.035,15.035,0,0,0,2.412.206,9.211,9.211,0,0,0,3.222-.427,1.787,1.787,0,0,0,1.074-1.869,2.032,2.032,0,0,0-.544-1.545,4.187,4.187,0,0,0-1.545-.853l-2.413-.809a23.05,23.05,0,0,1-2.442-.985,5.32,5.32,0,0,1-1.853-1.4,3.4,3.4,0,0,1-.706-2.237,3.68,3.68,0,0,1,1.545-3.192,7.915,7.915,0,0,1,4.6-1.1,15.909,15.909,0,0,1,2.56.207,13.136,13.136,0,0,1,2.118.5v2.119a10.558,10.558,0,0,0-2.1-.574,13.317,13.317,0,0,0-2.221-.192,8.414,8.414,0,0,0-3.045.427,1.7,1.7,0,0,0-1.044,1.751,1.794,1.794,0,0,0,.544,1.368,4.454,4.454,0,0,0,1.559.882q1.016.368,2.457.838a17.574,17.574,0,0,1,2.559,1.046,4.86,4.86,0,0,1,1.75,1.441,3.785,3.785,0,0,1,.632,2.28,3.585,3.585,0,0,1-1.736,3.383A9.082,9.082,0,0,1-1755.466,2235.74Z" transform="translate(2012.41 -1969.844)"/>
        <path id="Path_6142" data-name="Path 6142" d="M-1720.186,2235.74a21.2,21.2,0,0,1-2.868-.191,9.8,9.8,0,0,1-2.34-.574v-2.147a11.567,11.567,0,0,0,2.383.647,15.038,15.038,0,0,0,2.413.206,9.211,9.211,0,0,0,3.221-.427,1.787,1.787,0,0,0,1.073-1.869,2.032,2.032,0,0,0-.544-1.545,4.185,4.185,0,0,0-1.545-.853l-2.412-.809a23.029,23.029,0,0,1-2.442-.985,5.319,5.319,0,0,1-1.853-1.4,3.393,3.393,0,0,1-.706-2.237,3.681,3.681,0,0,1,1.545-3.192,7.916,7.916,0,0,1,4.6-1.1,15.909,15.909,0,0,1,2.559.207,13.156,13.156,0,0,1,2.119.5v2.119a10.57,10.57,0,0,0-2.1-.574,13.311,13.311,0,0,0-2.221-.192,8.414,8.414,0,0,0-3.045.427,1.7,1.7,0,0,0-1.044,1.751,1.793,1.793,0,0,0,.544,1.368,4.456,4.456,0,0,0,1.56.882q1.014.368,2.456.838a17.548,17.548,0,0,1,2.559,1.046,4.86,4.86,0,0,1,1.751,1.441,3.787,3.787,0,0,1,.633,2.28,3.587,3.587,0,0,1-1.736,3.383A9.083,9.083,0,0,1-1720.186,2235.74Z" transform="translate(1991.957 -1969.844)"/>
        <path id="Path_6143" data-name="Path 6143" d="M-1681.034,2236.146a8.074,8.074,0,0,1-3.3-.6,9.441,9.441,0,0,1-2.471-1.6l-.147,1.912h-2.177v-15.886h2.412v11.945a7.938,7.938,0,0,0,2.134,1.559,6,6,0,0,0,2.75.617,4.017,4.017,0,0,0,2.824-.853,3.731,3.731,0,0,0,.912-2.825v-10.443h2.412v10.473a5.881,5.881,0,0,1-1.412,4.237A5.208,5.208,0,0,1-1681.034,2236.146Z" transform="translate(1970.693 -1970.249)"/>
      </g>
    </g>
  </g>
</svg>
