<svg xmlns="http://www.w3.org/2000/svg" width="577.082" height="541.769" viewBox="0 0 577.082 541.769">
  <g id="Group_2834" data-name="Group 2834" transform="matrix(1, 0.017, -0.017, 1, 5.115, 0)">
    <path id="Path_5558" data-name="Path 5558" d="M0,0,53.467,61.18l20.909,1.485,26.092,3.113,31.4,11.909,63.652,77.15L348.693,285.659s160.963,142.553,207.466,197.92c.151.179-146.862,22.475-146.862,22.475L185.164,262.614,44.9,166.317,37.032,92.9Z" transform="translate(15.92 1.431)"/>
    <g id="Group_2770" data-name="Group 2770" transform="translate(0 0)">
      <g id="Group_2769" data-name="Group 2769" transform="translate(133.818 206.198)">
        <path id="Path_5559" data-name="Path 5559" d="M45.49,0S227.448,153.442,326.495,287.333L112.664,326.616,0,93.39Z" transform="translate(57.442 0)" fill="#f9cfcc"/>
        <path id="Path_5560" data-name="Path 5560" d="M238.114,301.412l-68.008,14.372S86.439,137.2,57.442,89.92C32.108,48.61,0,0,0,0L17.683.887S77.3,66.308,91,83.165s41.794,57.492,57.227,79.211S238.114,301.412,238.114,301.412Z" transform="translate(0 10.831)" fill="#e8b1b1"/>
      </g>
      <path id="Path_5561" data-name="Path 5561" d="M329.336,293.108H195.748l-75.787-95.874s-30.473-11.91-45.018-20.647v0c-4.9-2.939-8.744-5.26-10.285-6.206-6.126-3.761-7.809-6.161-10.938-11.99S38.147,129.639,35.7,124.937s-2.688-6.633-1.709-12.609,1.675-8.88.985-11.99a51.253,51.253,0,0,0-3.235-9.521c-1.223-2.639-1.444-3.486-.743-4.793a5.756,5.756,0,0,1,2.518-2.063S24.091,65.238,15.171,46.574.538,12.543.214,11.081A8.559,8.559,0,0,1,1.966,3.724,12.074,12.074,0,0,1,3.3,2.291C5.94-.147,10.729-.539,14.192.641a6.442,6.442,0,0,1,3.667,2.685c28.276,50.538,45.17,74.768,45.17,74.768s3.641-.978,5.318-1.35,2.247-.116,3.716.742,4.163,2.18,4.163,2.18,1.1-2.706,1.719-4.221S79.5,73.5,81.839,72.661s7.313-2.647,9.78-1.755,7.193,2.851,7.193,2.851a6.53,6.53,0,0,1,2.987-4.031c2.355-1.206,8.724-2.875,12.236-2.715s5.314.976,9.811,2.407,15.473,4.755,18.487,5.665a8.972,8.972,0,0,1,5.461,4.036v0a18.163,18.163,0,0,1,1.07,1.934c1.733,3.582,38.3,78.594,38.3,78.594Z" transform="translate(0 0)" fill="#f9cfcc"/>
      <path id="Path_5562" data-name="Path 5562" d="M2.913,0,33.647,63.927a9.9,9.9,0,0,0-7.609-4.992c-4.182-.4-4.635-1.659-6.531-5.2S16.28,49.753,13.316,48.7,8.06,46.532,5.1,40.976c-2.45-4.7-2.688-6.633-1.709-12.609s1.675-8.88.985-11.991A51.258,51.258,0,0,0,1.138,6.856C-.085,4.217-.306,3.37.4,2.063A5.755,5.755,0,0,1,2.913,0Z" transform="translate(30.6 83.961)" fill="#e8b1b1"/>
      <path id="Path_5563" data-name="Path 5563" d="M84.765,12.119A6.175,6.175,0,0,0,83.06,11c-1.122-.52-3.305-.5-8.151.533s-8.338,2.407-9.771,3.45a13.77,13.77,0,0,0-2.8,3.32,6.244,6.244,0,0,0-4.779-1.788c-1.709.091-4.442.891-8.548,2.283s-5.759,1.723-6.725,2.706A14.959,14.959,0,0,0,40.3,24.534s-1.536-.715-2.666-1.2-3.837-.139-7.858.622-10.829,2.822-11.655,4.86-2.071,5.417-2.071,5.417L0,11.095s3.641-.978,5.318-1.35,2.247-.116,3.716.742,4.163,2.18,4.163,2.18,1.1-2.706,1.719-4.221S16.469,6.5,18.81,5.661s7.313-2.647,9.78-1.755,7.193,2.851,7.193,2.851A6.53,6.53,0,0,1,38.77,2.726C41.125,1.52,47.494-.149,51.005.011s5.314.975,9.811,2.407S76.289,7.172,79.3,8.083A8.971,8.971,0,0,1,84.765,12.119Z" transform="translate(63.029 67)" fill="#e8b1b1"/>
      <path id="Path_5564" data-name="Path 5564" d="M144.017,116.525H120.806L45.019,20.65S14.546,8.74,0,0V0C4.256,2.554,11.361,3.98,16.449,3.556s7.865,1.708,10.168,4.012,6.473,3.809,14.124,3.393,11.764,1.959,16.329,6.994C63.751,25.321,144.017,116.525,144.017,116.525Z" transform="translate(74.942 176.583)" fill="#e8b1b1"/>
      <path id="Path_5565" data-name="Path 5565" d="M0,0,4.079,8.112l4.038,8.131,8.014,16.291,7.925,16.334,3.931,8.182,3.89,8.2,0,.008a.4.4,0,0,1-.723.348L27.17,57.454,23.22,49.279,15.386,32.9,7.641,16.473,3.8,8.246Z" transform="translate(33.514 83.961)" fill="#0d0d0c"/>
      <path id="Path_5566" data-name="Path 5566" d="M0,0,9.014,13.79c3,4.6,5.993,9.2,9.027,13.777q4.512,6.888,9.136,13.7l2.319,3.4,2.353,3.374c1.569,2.248,3.169,4.473,4.824,6.652l0,0a.414.414,0,0,1-.657.505c-1.694-2.174-3.326-4.389-4.928-6.624s-3.147-4.508-4.692-6.781c-3.081-4.551-6.073-9.159-9.053-13.774q-4.423-6.952-8.775-13.947L4.256,7.054Z" transform="translate(44.172 48.529)" fill="#0d0d0c"/>
      <path id="Path_5567" data-name="Path 5567" d="M0,0Q2.121.947,4.263,1.839,6.4,2.747,8.547,3.624c2.862,1.174,5.724,2.348,8.6,3.5C20,8.307,22.876,9.45,25.728,10.683l1.07.483.541.264.536.319a8.581,8.581,0,0,1,1.833,1.637A11.588,11.588,0,0,1,31.049,15.4a12.78,12.78,0,0,1,.935,2.232.473.473,0,0,1-.9.287l-.009-.027a11.656,11.656,0,0,0-2.131-3.859,7.666,7.666,0,0,0-1.609-1.451,15.119,15.119,0,0,0-2-1L16.821,7.889c-2.831-1.253-5.667-2.5-8.478-3.8Q6.236,3.112,4.142,2.1T0,0Z" transform="translate(76.225 79.665)" fill="#0d0d0c"/>
      <path id="Path_5568" data-name="Path 5568" d="M0,0C2.807,1.011,5.59,2.086,8.367,3.173l8.311,3.307,4.146,1.662c.7.272,1.379.532,2.083.788a22.2,22.2,0,0,1,2.108.87,6.22,6.22,0,0,1,1.934,1.407c.536.585.974,1.179,1.436,1.771.9,1.2,1.774,2.42,2.565,3.716a.42.42,0,0,1-.708.452l-.006-.009c-.811-1.219-1.679-2.429-2.592-3.588-.458-.581-.908-1.188-1.382-1.7a5.251,5.251,0,0,0-1.663-1.2c-1.291-.61-2.729-1.092-4.107-1.673s-2.758-1.147-4.13-1.729c-2.735-1.192-5.471-2.378-8.2-3.589S2.717,1.233,0,0Z" transform="translate(98.812 73.757)" fill="#0d0d0c"/>
    </g>
  </g>
</svg>
