<svg xmlns="http://www.w3.org/2000/svg" width="219.688" height="342.879" viewBox="0 0 219.688 342.879">
  <g id="Group_155" data-name="Group 155" transform="translate(-9069.343 -242.957)">
    <rect id="Rectangle_9" data-name="Rectangle 9" width="204.093" height="327.285" rx="28.5" transform="translate(9084.938 258.551)"/>
    <g id="Group_154" data-name="Group 154">
      <rect id="Rectangle_10" data-name="Rectangle 10" width="204.093" height="327.285" rx="28.5" transform="translate(9070.344 243.957)" fill="#6fa9d8"/>
      <path id="Path_636" data-name="Path 636" d="M9070.343,522.043v-251.2a26.889,26.889,0,0,1,26.89-26.888h118.452" fill="none" stroke="#0d0d0c" stroke-linecap="round" stroke-linejoin="round" stroke-width="2"/>
      <line id="Line_35" data-name="Line 35" x2="4.696" transform="translate(9221.62 243.957)" fill="none" stroke="#0d0d0c" stroke-linecap="round" stroke-linejoin="round" stroke-width="2"/>
      <path id="Path_637" data-name="Path 637" d="M9274.437,302.181c0,97.515-89.013,144.471-194.664,111.6V543.174c0,11.739,7.3,28.067,23.478,28.067h143.821a27.366,27.366,0,0,0,27.365-27.366Z" fill="#518cc8"/>
      <circle id="Ellipse_21" data-name="Ellipse 21" cx="12.871" cy="12.871" r="12.871" transform="translate(9162.737 279.198)"/>
      <circle id="Ellipse_22" data-name="Ellipse 22" cx="12.871" cy="12.871" r="12.871" transform="translate(9162.737 515.775)"/>
      <path id="Path_638" data-name="Path 638" d="M9198.527,366.311l6.727,6.119a7.739,7.739,0,0,1,2.531,5.724v60.7l23.87,36.441a7.738,7.738,0,0,1-6.474,11.978h-43.957a7.738,7.738,0,0,1-6.521-3.571L9160.317,461.2a7.733,7.733,0,0,1-.868-6.469l26.482-84.993A7.738,7.738,0,0,1,9198.527,366.311Z"/>
      <circle id="Ellipse_23" data-name="Ellipse 23" cx="12.871" cy="12.871" r="12.871" transform="translate(9159.52 276.44)" fill="#fff"/>
      <circle id="Ellipse_24" data-name="Ellipse 24" cx="12.871" cy="12.871" r="12.871" transform="translate(9159.52 513.016)" fill="#fff"/>
      <rect id="Rectangle_12" data-name="Rectangle 12" width="14.939" height="2.413" rx="1.207" transform="translate(9164.652 288.161)"/>
      <rect id="Rectangle_13" data-name="Rectangle 13" width="14.939" height="2.413" rx="1.207" transform="translate(9164.921 524.681)"/>
    </g>
  </g>
</svg>
