<svg xmlns="http://www.w3.org/2000/svg" xmlns:xlink="http://www.w3.org/1999/xlink" width="175" height="175" viewBox="0 0 175 175">
  <defs>
    <clipPath id="clip-path">
      <rect id="Rectangle_176" data-name="Rectangle 176" width="175" height="175" transform="translate(1393.396 330)" fill="none"/>
    </clipPath>
    <clipPath id="clip-path-2">
      <circle id="Ellipse_77" data-name="Ellipse 77" cx="72.151" cy="72.151" r="72.151" fill="none"/>
    </clipPath>
  </defs>
  <g id="Mask_Group_6" data-name="Mask Group 6" transform="translate(-1393.396 -330)" clip-path="url(#clip-path)">
    <g id="Tired" transform="translate(0 35)">
      <text id="เหนื่อยง่าย" transform="translate(1481.022 517.269)" fill="#fff" font-size="35" font-family="Kanit-Light, Kanit" font-weight="300"><tspan x="-74.497" y="0">เหนื่อยง่าย</tspan></text>
      <g id="Tired_icon" data-name="Tired icon">
        <g id="Group_986" data-name="Group 986" transform="translate(1360.328 261.73)">
          <g id="Group_985" data-name="Group 985">
            <circle id="Ellipse_63" data-name="Ellipse 63" cx="85.522" cy="85.522" r="85.522" transform="translate(0 120.946) rotate(-45)" fill="#fff"/>
            <circle id="Ellipse_64" data-name="Ellipse 64" cx="72.151" cy="72.151" r="72.151" transform="translate(48.795 48.795)" fill="#f4ada5"/>
            <path id="Path_1495" data-name="Path 1495" d="M4171.265,282.85q1.321.934,2.6,1.917" transform="translate(-4000.968 -231.758)" fill="none" stroke="#0d0d0c" stroke-linecap="round" stroke-linejoin="round" stroke-width="3"/>
            <path id="Path_1496" data-name="Path 1496" d="M4180.151,292.229a85.346,85.346,0,1,1-16.562-13.048" transform="translate(-3998.44 -231.464)" fill="none" stroke="#0d0d0c" stroke-linecap="round" stroke-linejoin="round" stroke-width="3"/>
            <path id="Path_1497" data-name="Path 1497" d="M4049.706,336.008q.334-1.322.718-2.632" transform="translate(-3998.732 -232.687)" fill="none" stroke="#0d0d0c" stroke-linecap="round" stroke-linejoin="round" stroke-width="3"/>
            <path id="Path_1498" data-name="Path 1498" d="M4053.812,323.114a72,72,0,1,1-5.239,17" transform="translate(-3998.69 -231.714)" fill="none" stroke="#0d0d0c" stroke-linecap="round" stroke-linejoin="round" stroke-width="3"/>
          </g>
        </g>
        <g id="Group_1057" data-name="Group 1057" transform="translate(1409.123 310.525)">
          <g id="Group_1056" data-name="Group 1056" clip-path="url(#clip-path-2)">
            <g id="Group_1055" data-name="Group 1055" transform="translate(-11.668 16.437)">
              <path id="Path_1591" data-name="Path 1591" d="M4131.692,481.4c-.155,1.326.3,2.725.234,4.047-.076,1.578-.389,3.136-.606,4.7-.35,2.511.177,4.973.1,7.5-.018.581-.4,1.386-.449,2.048-3.95-.2-8.09.225-12.073.128-3.731-.093-7.415-1.135-11.12-1.535a31.048,31.048,0,0,0-3.513-.282c.176-5.5-.611-10.967-1.022-16.44-.4-5.291-.253-10.641-.962-15.922-.6-4.5-1.69-8.919-2.336-13.411-.746-5.184-1.207-10.406-2.017-15.582-.917-5.849-2.243-11.648-2.65-17.568a52.947,52.947,0,0,0-.776-8.29c-.619-2.763-1.49-5.469-1.957-8.263-.4-2.368-.725-4.727-1.007-7.092l.213-.026c.29,2.944,4.956,6.656,7.077,7.983a28.341,28.341,0,0,0,6.486,2.733c2.1.67,4.114,1.038,6.182,1.642,3.2.94,6.4.038,9.367-1.242,1.187-.512,2.6-.873,3.7-1.494a14.646,14.646,0,0,0,4.074-3.806c.328-.45.457-1.214.9-1.549-.089,1.411-.142,2.825-.307,4.1-.17,1.314.03,2.938-.273,4.249a1.383,1.383,0,0,0-.821,1.193c-.051,2.031.269,4.048.208,6.091a64.653,64.653,0,0,0,.549,9.19c.4,3.683-.029,7.554-.209,11.242a181.411,181.411,0,0,0,.711,29.064c.371,3.347.368,6.725.765,10.071A40.493,40.493,0,0,0,4131.692,481.4Z" transform="translate(-4036.628 -299.059)" fill="#fff"/>
              <path id="Path_1592" data-name="Path 1592" d="M4141.094,502.408c.542.424.424,1.276.495,1.88.1.882.246,1.74.283,2.63.074,1.818-.044,3.639.048,5.457.113,2.209-.34,4.416-.175,6.622.1,1.283.507,3.069-.442,4.142a2.186,2.186,0,0,1-.464.394c-1.249.794-2.883.683-4.3.686l-.084,0c-.03-2.257-.157-4.511-.311-6.762-.33-4.857-.8-9.711-.808-14.583a.77.77,0,0,0-.205-.528c1.751-.078,4.4-1.059,5.931.037Z" transform="translate(-4037.43 -301.017)" fill="#fff"/>
              <path id="Path_1593" data-name="Path 1593" d="M4135.641,492.794c-.23,1.1-.7,2.312-.951,3.207-.469,1.7-1.361,3.6-1.486,5.416-.494-.05-.993-.084-1.5-.11.046-.662.432-1.466.449-2.048.079-2.53-.448-4.991-.1-7.5.217-1.561.53-3.119.606-4.7.062-1.322-.389-2.721-.234-4.047.219.756.434,1.515.63,2.286A36.8,36.8,0,0,0,4135.641,492.794Z" transform="translate(-4037.367 -300.671)" fill="#1a5f92"/>
              <path id="Path_1594" data-name="Path 1594" d="M4166.173,523.724c-2.944-.163-5.822-.728-8.8-.733-1.271,0-13.734.424-15.961.012.949-1.073.538-2.859.442-4.142-.165-2.206.289-4.413.175-6.622-.092-1.818.026-3.639-.048-5.457-.037-.889-.179-1.747-.283-2.63-.07-.6.048-1.456-.495-1.88.842.065,2.38-.227,2.812-.214a24.083,24.083,0,0,0,6.76,2.726c5.073,1.266,9.8-.472,13.828-3.7a23.481,23.481,0,0,0,4.965-5.811h0c3.152-1,11.827-2.011,10.489,3.388-.165.667-.656,1.319-.312,1.968.208.391.819.61,1.13.891a3.872,3.872,0,0,1,.906,3.474c-.38,1.367-1.745,2.245-2.555,3.334-1.063,1.429.126,3.381-.284,4.962a8.218,8.218,0,0,1-2.21,3.544,4.962,4.962,0,0,0-1.3,3.146,4.481,4.481,0,0,1-1.7,2.86c-1.652,1.365-3.975.923-5.977.927C4167.226,523.772,4166.7,523.754,4166.173,523.724Z" transform="translate(-4037.542 -300.881)" fill="#f3b39a"/>
              <path id="Path_1595" data-name="Path 1595" d="M4143.872,502.03c-.432-.013-1.97.279-2.812.214l-.032-.024c-1.531-1.1-4.18-.116-5.931-.037a2.89,2.89,0,0,0-1.716-.569l-.148-.015c.125-1.819,1.017-3.72,1.486-5.416.246-.9.72-2.108.951-3.207a18.971,18.971,0,0,0,1.024,1.8A22.236,22.236,0,0,0,4143.872,502.03Z" transform="translate(-4037.395 -300.854)" fill="#1a5f92"/>
              <path id="Path_1596" data-name="Path 1596" d="M4130.069,340.492a17.924,17.924,0,0,1-.687-3.076,11.321,11.321,0,0,1-.344-3.2,2.925,2.925,0,0,1,1.844-2.47,3.176,3.176,0,0,1,3.627,1.639,11.609,11.609,0,0,1,.882,1.51,27.2,27.2,0,0,1,1.015,3.28c.47,1.689.843,3.375,1.281,5.064a29.641,29.641,0,0,1,1.006,4.938c.069.862.146,1.715.247,2.573.051.434.009,1.583.547,1.751,1.022.32,1-6.093.967-6.78-.066-1.277-.409-2.493-.491-3.782-.045-.694.018-1.4-.094-2.075a37.631,37.631,0,0,1-.5-4.284,14.73,14.73,0,0,0-.455-2.248c-.147-.706-.295-1.412-.421-2.121a7.106,7.106,0,0,1,0-3.862c.7-1.61,3.181-1.37,4.21-.26.49.528.835,1.155,1.292,1.7a4.61,4.61,0,0,1,.932,1.364c.187.472.36.98.509,1.495a1.8,1.8,0,0,1,1-1.19,3.344,3.344,0,0,1,2.167.03,3.794,3.794,0,0,1,2.132,2.717c.482,1.4,1.379,2.619,1.817,4.037.421,1.362.958,2.693,1.252,4.093a49.518,49.518,0,0,1,.729,5.589c.076.825.228,1.683.339,2.543l.064-.008a19.458,19.458,0,0,0,1.18,3.085,16.544,16.544,0,0,1,.548,2.078,24.1,24.1,0,0,1,.4,4.692,54.29,54.29,0,0,1-4.323,22.138,16.879,16.879,0,0,0-1.076,5.16,27.79,27.79,0,0,0-.027,4.766,37.3,37.3,0,0,0,.573,4.223c-.5-.431-1.463,0-1.98.237a12.419,12.419,0,0,1-2.035.733c-1.489.4-3,.735-4.509,1.044-1.809.369-3.553.962-5.408,1.178a51.718,51.718,0,0,1-5.851.236.565.565,0,0,0-.594.326l-.08-.018c.262-.493-.037-1.216-.125-1.7-.147-.808-.121-1.661-.229-2.478q-.122-.917-.3-1.825c-.2-1.03-.45-2.051-.72-3.066-.432-1.616-.92-3.219-1.374-4.83a49.11,49.11,0,0,1-1.155-4.881,62.376,62.376,0,0,1-.768-10.695c0-.729.009-1.462.018-2.191.037-2.539.207-5.037.131-7.581-.091-3.126.105-6.271-.216-9.389-.081-.765-.233-1.531-.357-2.3a14.513,14.513,0,0,1-.183-1.607c-.021-.472.1-.9.045-1.377q-.1-.917-.269-1.823a5.76,5.76,0,0,1,.1-3.53,1.56,1.56,0,0,1,2.4-.834A4.438,4.438,0,0,1,4130.069,340.492Z" transform="translate(-4037.262 -297.786)" fill="#f9cfcc"/>
              <path id="Path_1597" data-name="Path 1597" d="M4152.5,397.168a6.2,6.2,0,0,1,.36,2.192c.048.712.319,1.384.351,2.089l-.315.041a1.08,1.08,0,0,0-.123.008c-2.312,1.857-9.4,3.458-10.24,3.711a51.122,51.122,0,0,1-5.789,1.274c-1.5.271-3,.526-4.481.861-.17.038-.374.076-.592.116-.043-1.443-.469-5.589.257-6.8a.565.565,0,0,1,.594-.326c1.917,0,17.194-2.962,17.8-3.191.532-.2,1.484-.667,1.98-.237A.741.741,0,0,1,4152.5,397.168Z" transform="translate(-4037.364 -299.084)" fill="#fff"/>
              <path id="Path_1598" data-name="Path 1598" d="M4061.881,529.637a44.322,44.322,0,0,1-8.364-2.581c-4.587-1.728-9.21-3.174-13.05-6.421-2.16-1.827-2.865-4.61-3.544-7.23a55.236,55.236,0,0,1-1.32-12.817c-.037-1.6.224-3.218.221-4.852-.01-4.044-.036-8.088-.058-12.131-.039-8.169-.046-16.34.207-24.5.053-1.721.465-3.383.561-5.081.369-6.648.965-13.282,1.279-19.933.139-2.949.232-5.893.315-8.841a20.2,20.2,0,0,1,1.47-8.227,20.866,20.866,0,0,1,7.255-7.846c3.333-2.285,6.658-4.595,10.19-6.566a43.922,43.922,0,0,1,5.418-2.6c1.771-.691,3.625-1.205,5.4-1.917,1.807-.727,3.647-1.383,5.4-2.256,1.041-.517,1.905-1.195,2.964-1.673,1.228-.556,2.413-1.2,3.594-1.844a14.677,14.677,0,0,0,1.754-1.007c-.3.64-.559,1.3-.8,1.951a19.46,19.46,0,0,0-1.025,3.862c-.248,1.61-.392,3.236-.724,4.834-.6,2.867-2.318,5.225-.33,7.918,1.695,2.294,4.79,3.966,7.267,5.311a5.046,5.046,0,0,1,.962.621,15.562,15.562,0,0,1-3.387,3.812,22,22,0,0,0-3.784,3.37c-.588.668-2.32,1.622-2.054,2.678-1.327,1.947.279,4.453,1.3,6.154,2.974,4.973,5.6,11.094,6.076,16.947.5,6.115,3.141,11.667,4.694,17.544,1.3,4.905,2.372,9.94,3.826,14.786,1,3.333,2.872,6.228,3.931,9.549.5,1.583.829,3.216,1.3,4.807a18.526,18.526,0,0,0,.918,3.045,11.882,11.882,0,0,0,1.449-.317,7.658,7.658,0,0,1,2.04-.249,31.048,31.048,0,0,1,3.513.282c3.7.4,7.388,1.442,11.12,1.535,3.983.1,8.123-.332,12.073-.128.5.026,1,.06,1.5.11l.148.015a2.891,2.891,0,0,1,1.716.569.77.77,0,0,1,.205.528c0,4.872.479,9.726.808,14.583.154,2.251.281,4.506.311,6.762l0,.343c.014,1.462.417,3.319,0,4.738-.339,1.136-1.1,1.2-2.229,1.332-.166.022-.333.037-.5.048-2.382.183-4.735-.365-7.112-.368-5.028-.008-10.2.071-15.208.474-6.63.533-13.22,1.46-19.838,2.2a84.117,84.117,0,0,1-19.587.009c-2.345-.3-4.635-.918-6.98-1.153C4062.737,529.767,4062.308,529.708,4061.881,529.637Z" transform="translate(-4035.599 -298.984)" fill="#155aa7"/>
              <path id="Path_1599" data-name="Path 1599" d="M4090.572,385.512c.06.447-.131,1.279-.1,1.69.233,2.7.492,5.372.811,8.044.282,2.365.61,4.724,1.007,7.092.467,2.795,1.338,5.5,1.957,8.263a52.947,52.947,0,0,1,.776,8.29c.406,5.92,1.732,11.718,2.649,17.568.81,5.176,1.271,10.4,2.017,15.582.646,4.492,1.733,8.91,2.336,13.411.708,5.281.563,10.631.962,15.922.411,5.473,1.2,10.939,1.022,16.44a7.658,7.658,0,0,0-2.04.249,11.882,11.882,0,0,1-1.449.317,18.526,18.526,0,0,1-.918-3.045c-.476-1.591-.8-3.224-1.3-4.807-1.059-3.321-2.93-6.217-3.931-9.549-1.455-4.846-2.529-9.881-3.826-14.786-1.553-5.877-4.2-11.429-4.694-17.544-.475-5.853-3.1-11.975-6.076-16.947-1.017-1.7-2.623-4.207-1.3-6.154-.265-1.056,1.467-2.01,2.054-2.678a22,22,0,0,1,3.784-3.37,15.562,15.562,0,0,0,3.387-3.812,5.046,5.046,0,0,0-.962-.621c-2.477-1.345-5.572-3.016-7.267-5.311-1.988-2.693-.267-5.05.33-7.918.332-1.6.476-3.225.724-4.834a19.46,19.46,0,0,1,1.025-3.862c.24-.653.5-1.311.8-1.951a9.923,9.923,0,0,1,3.344-4.252c.624-.417,4.391-2.845,4.842-1.566A.6.6,0,0,1,4090.572,385.512Z" transform="translate(-4036.379 -298.868)" fill="#155aa7"/>
              <path id="Path_1600" data-name="Path 1600" d="M4082.207,391.685s-2.824,15.936-3.272,17.246,13,8.414,13,8.414" transform="translate(-4036.396 -298.991)" fill="none" stroke="#000" stroke-linecap="round" stroke-linejoin="round" stroke-width="1.5"/>
              <line id="Line_138" data-name="Line 138" x1="8.609" y2="9.864" transform="translate(43.051 116.237)" fill="none" stroke="#000" stroke-linecap="round" stroke-linejoin="round" stroke-width="1.5"/>
              <path id="Path_1601" data-name="Path 1601" d="M4131.684,407.858c0,.079,0,.142-.007.192C4131.529,407.991,4131.628,407.954,4131.684,407.858Z" transform="translate(-4037.365 -299.288)" fill="#229f49"/>
              <path id="Path_1602" data-name="Path 1602" d="M4129.646,407.978a6.932,6.932,0,0,1,1.981-.594c.219-.04.422-.078.592-.116,1.484-.335,2.984-.59,4.481-.861a51.114,51.114,0,0,0,5.788-1.274c.836-.253,7.928-1.854,10.24-3.711a1.073,1.073,0,0,1,.123-.008l.315-.041c-.032-.7-.3-1.377-.352-2.089a6.2,6.2,0,0,0-.36-2.192.729.729,0,0,0-.194-.261,37.409,37.409,0,0,1-.573-4.223l.06,0c.713.264,1.42.767,2.04,1.066,2.817,1.362,6.171,1.409,8.961,2.854a34.7,34.7,0,0,1,6.149,4.33,18.628,18.628,0,0,1,6.494,10.972,45.922,45.922,0,0,1,1.09,8.515c.31,9.813.388,19.633.366,29.451-.021,9.533-.049,18.8-1.733,28.216-.472,2.64-.541,5.365-1.282,7.955-.7,2.427-2.568,4.386-3.89,6.5q-.3.476-.6.94h0a23.483,23.483,0,0,1-4.965,5.811c-4.022,3.225-8.755,4.963-13.828,3.7a24.086,24.086,0,0,1-6.759-2.726,22.236,22.236,0,0,1-7.179-7.252,18.971,18.971,0,0,1-1.024-1.8,36.828,36.828,0,0,1-2.58-7.5c-.2-.772-.411-1.53-.63-2.286a40.545,40.545,0,0,1-1.529-6.52c-.4-3.346-.394-6.724-.765-10.071a181.411,181.411,0,0,1-.71-29.064c.181-3.688.606-7.559.209-11.242a64.582,64.582,0,0,1-.549-9.19c.061-2.043-.259-4.06-.208-6.091A1.382,1.382,0,0,1,4129.646,407.978Z" transform="translate(-4037.314 -299.008)" fill="#155aa7"/>
              <line id="Line_139" data-name="Line 139" x2="3.505" y2="18.869" transform="translate(116.319 102.574)" fill="none" stroke="#000" stroke-linecap="round" stroke-linejoin="round" stroke-width="1.5"/>
              <path id="Path_1603" data-name="Path 1603" d="M4131.82,400.6l.08.018c-.726,1.21-.3,5.357-.257,6.8a6.932,6.932,0,0,0-1.981.594c.3-1.311.1-2.935.273-4.249.165-1.274.217-2.689.307-4.1a17.822,17.822,0,0,1,.843-5.051l.079-.014q.179.907.3,1.825c.108.817.082,1.67.229,2.478C4131.783,399.387,4132.083,400.111,4131.82,400.6Z" transform="translate(-4037.329 -299.044)" fill="#155aa7"/>
              <path id="Path_1604" data-name="Path 1604" d="M4118.828,344.318c.711.323,1.545.924,1.458,1.814-.07.709-1.132,1.186-1.762,1.266a7.46,7.46,0,0,1-2.485-.243,8.021,8.021,0,0,0-2-.255c-.742.023-1.479.134-2.221.161a10.023,10.023,0,0,1-3.865-.473c-.642-.241-1.339-.353-1.586-1.1-.614-1.865,3.083-2.041,4.1-2.052.773-.009,1.547-.169,2.322-.109.312.026.579.139.9.161.411.029.825.03,1.236.074.752.079,1.514.306,2.265.345A4.3,4.3,0,0,1,4118.828,344.318Z" transform="translate(-4036.9 -298.101)"/>
              <path id="Path_1605" data-name="Path 1605" d="M4088.822,342.155c.094.1.18.2.258.3a18.042,18.042,0,0,1,.88,1.761c.368.607.933,1.087,1.3,1.716a.184.184,0,0,0,0,.047c.013.147.031.293.051.439a28.878,28.878,0,0,0,.813,2.971,8.981,8.981,0,0,1,.045,2.481c0,.458.018.918.061,1.372.026.287.013,1.434.309,1.588.459.237.784-1.076.842-1.388a29.26,29.26,0,0,1,1.178-2.994,25.629,25.629,0,0,0,.432-3.388,13,13,0,0,1,.879-2.933c.346-.86.863-1.627,1.214-2.482a5.554,5.554,0,0,0,.221-.65,2.92,2.92,0,0,0,1.076.488,9.266,9.266,0,0,0,1.531.5,4.271,4.271,0,0,0,2.589-.168,22.915,22.915,0,0,0,2.737-1.052c.521-.323,1.128-.459,1.668-.746a8.509,8.509,0,0,0,1.319-.914,15.424,15.424,0,0,0,1.935-2.121,12.164,12.164,0,0,0,.974-.927,6.7,6.7,0,0,0,.5-1.426c.231-.594.576-1.105.789-1.7.181-.51.431-1,.63-1.51.41-1.034.78-2.084,1.154-3.131a38.144,38.144,0,0,1,2.616-6.164,11.607,11.607,0,0,1,3.251-3.753c1.431-1.022,3.535-1.42,4.34.554a8.61,8.61,0,0,1,.294,4.326c-.31,2.262-.174,4.538-.625,6.78-.371,1.826-1.114,3.528-1.55,5.326-.4,1.647-.074,3.409-.49,5.015a7.14,7.14,0,0,0,.285,4.4c.471,1.165,2.037,3.266,3.336,3.5l.168-.027c.125.768.277,1.534.357,2.3.321,3.119.125,6.263.216,9.389.076,2.544-.095,5.042-.131,7.581-.009.729-.018,1.462-.018,2.191a62.376,62.376,0,0,0,.768,10.695,49.11,49.11,0,0,0,1.155,4.881,13.794,13.794,0,0,1-2.456,1.95,26.111,26.111,0,0,1-3.155,1.365,12.7,12.7,0,0,1-6.376.877,14.444,14.444,0,0,1-3.861-1.275,25.955,25.955,0,0,1-2.443-1.132c-1.039-.59-1.882-1.451-2.92-2.009a13.338,13.338,0,0,1-2.807-2.367c-1.463-1.419-2.618-3.036-4.187-4.317a21.492,21.492,0,0,1-4.331-5.753q-.121-.208-.234-.413c-.6-1.083-1.076-2.2-1.616-3.311-1.244-2.547-1.617-5.686-2.06-8.468a4.937,4.937,0,0,0-2.515-3.761c-1.25-.571-2.8-.733-3.908-1.58-2.177-1.654-3.093-4.727-3.405-7.332-.224-1.877-.33-4.094.727-5.762a3.727,3.727,0,0,1,3.091-1.631,2.842,2.842,0,0,1,1.774.594A13.275,13.275,0,0,1,4088.822,342.155Zm31.014,3.5c.087-.89-.748-1.491-1.458-1.814a4.3,4.3,0,0,0-1.639-.413c-.751-.038-1.513-.266-2.265-.345-.411-.043-.825-.044-1.236-.074-.316-.022-.583-.135-.9-.161-.775-.06-1.548.1-2.322.109-1.02.011-4.717.187-4.1,2.052.247.748.944.86,1.586,1.1a10.023,10.023,0,0,0,3.865.473c.742-.027,1.479-.138,2.221-.161a8.021,8.021,0,0,1,2,.255,7.46,7.46,0,0,0,2.485.243C4118.7,346.844,4119.765,346.367,4119.835,345.658Z" transform="translate(-4036.448 -297.627)" fill="#f9cfcc"/>
              <path id="Path_1606" data-name="Path 1606" d="M4091.443,346.468l.011.02a.114.114,0,0,1-.006.027A.184.184,0,0,1,4091.443,346.468Z" transform="translate(-4036.626 -298.159)" fill="#229f49"/>
              <path id="Path_1607" data-name="Path 1607" d="M4091.382,345.563c-.372-.629-.937-1.109-1.3-1.716a18.042,18.042,0,0,0-.88-1.761c-.078-.1-.164-.2-.258-.3-.173-.906.02-1.881-.1-2.8-.158-1.177-.431-2.334-.592-3.509a33.8,33.8,0,0,1,.127-5.382,36.038,36.038,0,0,1,1.978-12.175,29.041,29.041,0,0,1,4.037-6.911,35.85,35.85,0,0,1,5.028-5.946,33.074,33.074,0,0,1,9.194-5.365,41.482,41.482,0,0,1,13.839-2.383,67.275,67.275,0,0,1,10.542.314,22.7,22.7,0,0,1,11.153,4.619c2.122-.043,4.008,1.87,5.378,3.253,2.522,2.544,4.883,5.241,7.233,7.943,1.2,1.375,2.34,2.833,3.613,4.137a15.882,15.882,0,0,1,3.828,5.327,22.529,22.529,0,0,1,2.149,10.115,36.585,36.585,0,0,1-2.468,10.168,23.1,23.1,0,0,1-7.212,10.381l-.7.524a16.544,16.544,0,0,0-.548-2.078,19.41,19.41,0,0,1-1.181-3.085l-.064.008c-.111-.86-.263-1.719-.339-2.543a49.407,49.407,0,0,0-.729-5.589c-.294-1.4-.831-2.731-1.252-4.093-.438-1.418-1.335-2.637-1.817-4.037a3.792,3.792,0,0,0-2.132-2.717,3.344,3.344,0,0,0-2.167-.03,1.8,1.8,0,0,0-1,1.19c-.149-.515-.322-1.023-.51-1.495a4.618,4.618,0,0,0-.931-1.364c-.457-.549-.8-1.176-1.292-1.7-1.029-1.11-3.509-1.35-4.21.26a7.1,7.1,0,0,0,0,3.862c.125.71.273,1.415.421,2.121a14.67,14.67,0,0,1,.455,2.248,37.743,37.743,0,0,0,.505,4.284c.111.679.048,1.381.093,2.075.082,1.289.424,2.505.491,3.782.035.687.055,7.1-.967,6.78-.539-.168-.5-1.317-.547-1.751-.1-.858-.178-1.711-.248-2.573a29.64,29.64,0,0,0-1.006-4.938c-.438-1.689-.811-3.375-1.281-5.064a27.2,27.2,0,0,0-1.015-3.28,11.721,11.721,0,0,0-.882-1.51,3.177,3.177,0,0,0-3.627-1.639,2.924,2.924,0,0,0-1.844,2.47,11.321,11.321,0,0,0,.344,3.2,18.016,18.016,0,0,0,.687,3.076,4.437,4.437,0,0,0-1.319-1.252,1.56,1.56,0,0,0-2.4.834,5.756,5.756,0,0,0-.1,3.53q.168.906.269,1.823c.053.482-.065.905-.045,1.377a14.513,14.513,0,0,0,.183,1.607l-.168.027c-1.3-.237-2.865-2.337-3.336-3.5a7.14,7.14,0,0,1-.285-4.4c.416-1.606.089-3.368.49-5.015.437-1.8,1.179-3.5,1.55-5.326.452-2.242.315-4.518.625-6.78a8.6,8.6,0,0,0-.294-4.326c-.805-1.974-2.909-1.576-4.34-.554a11.6,11.6,0,0,0-3.25,3.753,38.1,38.1,0,0,0-2.616,6.164c-.374,1.047-.743,2.1-1.154,3.131-.2.507-.449,1-.63,1.51-.213.6-.559,1.108-.789,1.7a6.7,6.7,0,0,1-.5,1.426,12,12,0,0,1-.974.927,15.451,15.451,0,0,1-1.935,2.121,8.513,8.513,0,0,1-1.319.914c-.54.287-1.147.423-1.668.746a22.883,22.883,0,0,1-2.737,1.052,4.269,4.269,0,0,1-2.589.168,9.272,9.272,0,0,1-1.532-.5,2.921,2.921,0,0,1-1.076-.488,5.557,5.557,0,0,1-.221.65c-.351.855-.868,1.622-1.214,2.482a13,13,0,0,0-.879,2.933,25.629,25.629,0,0,1-.432,3.388,29.26,29.26,0,0,0-1.178,2.994c-.058.312-.383,1.625-.842,1.388-.3-.154-.284-1.3-.309-1.588-.043-.454-.059-.914-.061-1.372a8.981,8.981,0,0,0-.045-2.481,28.878,28.878,0,0,1-.813-2.971c-.021-.146-.038-.292-.051-.439C4091.39,345.6,4091.392,345.592,4091.382,345.563Z" transform="translate(-4036.566 -297.254)"/>
              <path id="Path_1608" data-name="Path 1608" d="M4128.557,386.452a13.794,13.794,0,0,1-2.456,1.95,26.111,26.111,0,0,1-3.155,1.365,12.7,12.7,0,0,1-6.376.877,14.444,14.444,0,0,1-3.861-1.275,25.955,25.955,0,0,1-2.443-1.132c-1.039-.59-1.882-1.451-2.92-2.009a13.338,13.338,0,0,1-2.807-2.367c-.992-.963-1.843-2.016-2.777-2.995a29.009,29.009,0,0,0,5.692,8.173,20.266,20.266,0,0,0,12.464,5.988,15.573,15.573,0,0,0,10.245-2.845c-.075-.3-.152-.6-.232-.9C4129.5,389.667,4129.01,388.064,4128.557,386.452Z" transform="translate(-4036.816 -298.792)" fill="#eab8b7"/>
              <path id="Path_1609" data-name="Path 1609" d="M4096.776,375.1c2.685,3.928,5.437,6.494,9.726,10.54a17.514,17.514,0,0,0,13.308,4.855,14.614,14.614,0,0,0,8.2-3.726" transform="translate(-4036.725 -298.686)" fill="none" stroke="#000" stroke-linecap="round" stroke-linejoin="round" stroke-width="1.5"/>
              <path id="Path_1610" data-name="Path 1610" d="M4119.714,394.887a20.265,20.265,0,0,1-12.464-5.988,29.011,29.011,0,0,1-5.692-8.173,15.715,15.715,0,0,0-1.41-1.322,21.491,21.491,0,0,1-4.331-5.753q-.121-.208-.234-.413c-.022,1.069-.292,2.039-.4,3.107a16.435,16.435,0,0,1-.347,2.775,10.119,10.119,0,0,1-2,4.085c-.359.4-.814.582-1.162,1.011-.3.37-.568.738-.875,1.08.06.447-.131,1.279-.1,1.69.232,2.7.491,5.372.81,8.044l.213-.026c.29,2.944,4.956,6.656,7.077,7.983a28.341,28.341,0,0,0,6.486,2.733c2.1.67,4.114,1.038,6.182,1.642,3.2.94,6.4.038,9.366-1.242,1.187-.512,2.6-.873,3.7-1.494a14.642,14.642,0,0,0,4.075-3.806c.328-.45.456-1.214.9-1.549a17.839,17.839,0,0,1,.843-5.051l.079-.014c-.143-.725-.309-1.447-.488-2.165A15.572,15.572,0,0,1,4119.714,394.887Z" transform="translate(-4036.613 -298.651)" fill="#f9cfcc"/>
              <path id="Path_1611" data-name="Path 1611" d="M4062.377,537.041c0-.04.007-.081.01-.123C4062.384,536.959,4062.381,537,4062.377,537.041Z" transform="translate(-4036.092 -301.662)" fill="none"/>
              <path id="Path_1612" data-name="Path 1612" d="M4062.418,536.49c0-.054.007-.108.01-.162C4062.425,536.382,4062.421,536.436,4062.418,536.49Z" transform="translate(-4036.093 -301.651)" fill="none"/>
              <path id="Path_1613" data-name="Path 1613" d="M4060.924,548.679c0-.058.006-.116.01-.175C4060.93,548.563,4060.927,548.621,4060.924,548.679Z" transform="translate(-4036.065 -301.875)" fill="none"/>
              <path id="Path_1614" data-name="Path 1614" d="M4062.45,535.917c0-.048,0-.1.008-.143C4062.455,535.822,4062.453,535.869,4062.45,535.917Z" transform="translate(-4036.093 -301.641)" fill="none"/>
              <path id="Path_1615" data-name="Path 1615" d="M4062.463,533.488l0-.079Z" transform="translate(-4036.094 -301.597)" fill="none"/>
              <path id="Path_1616" data-name="Path 1616" d="M4060.89,549.464q0-.078.006-.156Q4060.893,549.386,4060.89,549.464Z" transform="translate(-4036.064 -301.89)" fill="none"/>
              <path id="Path_1617" data-name="Path 1617" d="M4062.481,534.091l0-.12Z" transform="translate(-4036.094 -301.608)" fill="none"/>
              <path id="Path_1618" data-name="Path 1618" d="M4062.185,538.891c.01-.081.02-.16.029-.24C4062.2,538.73,4062.195,538.81,4062.185,538.891Z" transform="translate(-4036.088 -301.694)" fill="none"/>
              <path id="Path_1619" data-name="Path 1619" d="M4062.251,538.332l.023-.215Z" transform="translate(-4036.09 -301.684)" fill="none"/>
              <path id="Path_1620" data-name="Path 1620" d="M4060.978,547.845c0-.038,0-.078.008-.117C4060.983,547.767,4060.981,547.807,4060.978,547.845Z" transform="translate(-4036.066 -301.861)" fill="none"/>
              <path id="Path_1621" data-name="Path 1621" d="M4061.218,545.556q.077-.593.163-1.186Q4061.3,544.962,4061.218,545.556Z" transform="translate(-4036.07 -301.799)" fill="none"/>
              <path id="Path_1622" data-name="Path 1622" d="M4060.864,551.232c0-.074,0-.147,0-.221C4060.863,551.085,4060.864,551.158,4060.864,551.232Z" transform="translate(-4036.064 -301.921)" fill="none"/>
              <path id="Path_1623" data-name="Path 1623" d="M4061.067,546.838q.06-.57.133-1.138C4061.151,546.079,4061.106,546.458,4061.067,546.838Z" transform="translate(-4036.068 -301.824)" fill="none"/>
              <path id="Path_1624" data-name="Path 1624" d="M4062.315,537.724c0-.048.01-.1.015-.143C4062.325,537.629,4062.32,537.676,4062.315,537.724Z" transform="translate(-4036.091 -301.674)" fill="none"/>
              <path id="Path_1625" data-name="Path 1625" d="M4066.607,594.415c.106,0,.212,0,.318-.006h0C4066.819,594.409,4066.713,594.411,4066.607,594.415Z" transform="translate(-4036.169 -302.719)" fill="none"/>
              <path id="Path_1626" data-name="Path 1626" d="M4066.052,594.451c-.115.01-.23.023-.345.037C4065.822,594.474,4065.937,594.461,4066.052,594.451Z" transform="translate(-4036.153 -302.72)" fill="none"/>
              <path id="Path_1627" data-name="Path 1627" d="M4060.9,553.527q-.018-.571-.029-1.141c.007.38.016.761.029,1.141a71.649,71.649,0,0,1-.068,8.161c-.087,1.048-.15,2.1-.2,3.147.054-1.049.118-2.1.205-3.147A71.368,71.368,0,0,0,4060.9,553.527Z" transform="translate(-4036.06 -301.946)" fill="#1a5f92"/>
              <path id="Path_1628" data-name="Path 1628" d="M4059.771,573.629c-.183.873-.373,1.751-.524,2.669a57.316,57.316,0,0,0-.516,6.283,57.3,57.3,0,0,1,.516-6.283C4059.4,575.379,4059.589,574.5,4059.771,573.629Z" transform="translate(-4036.025 -302.337)" fill="#1a5f92"/>
              <path id="Path_1629" data-name="Path 1629" d="M4057.679,590.249c.1-.482.2-.958.292-1.433-.094.475-.193.951-.293,1.433a2.972,2.972,0,0,0,.066,1.484A2.961,2.961,0,0,1,4057.679,590.249Z" transform="translate(-4036.004 -302.616)" fill="none"/>
              <path id="Path_1630" data-name="Path 1630" d="M4066.5,594.42c-.1,0-.209.011-.314.02C4066.294,594.431,4066.4,594.425,4066.5,594.42Z" transform="translate(-4036.162 -302.72)" fill="none"/>
              <path id="Path_1631" data-name="Path 1631" d="M4060.871,552.058c0-.1,0-.2,0-.293C4060.868,551.863,4060.87,551.961,4060.871,552.058Z" transform="translate(-4036.064 -301.935)" fill="none"/>
              <path id="Path_1632" data-name="Path 1632" d="M4062.485,534.566v0Z" transform="translate(-4036.094 -301.619)" fill="none"/>
              <path id="Path_1633" data-name="Path 1633" d="M4062.137,539.168c-.214,1.676-.5,3.348-.741,5.03.121-.832.251-1.662.379-2.491C4061.9,540.86,4062.029,540.014,4062.137,539.168Z" transform="translate(-4036.074 -301.703)" fill="none"/>
              <path id="Path_1634" data-name="Path 1634" d="M4060.867,551.755c0-.173,0-.347,0-.519C4060.864,551.409,4060.865,551.583,4060.867,551.755Z" transform="translate(-4036.064 -301.925)" fill="#229f49"/>
              <path id="Path_1635" data-name="Path 1635" d="M4061.2,545.7l.016-.12Z" transform="translate(-4036.07 -301.821)" fill="#229f49"/>
              <path id="Path_1636" data-name="Path 1636" d="M4066.6,594.415l-.1,0Z" transform="translate(-4036.168 -302.72)" fill="#229f49"/>
              <path id="Path_1637" data-name="Path 1637" d="M4060.9,549.3c.008-.205.017-.409.027-.614C4060.913,548.887,4060.9,549.091,4060.9,549.3Z" transform="translate(-4036.065 -301.878)" fill="#229f49"/>
              <path id="Path_1638" data-name="Path 1638" d="M4060.864,550.983q0-.758.025-1.516Q4060.865,550.225,4060.864,550.983Z" transform="translate(-4036.064 -301.893)" fill="#229f49"/>
              <path id="Path_1639" data-name="Path 1639" d="M4066.187,594.44l-.128.011Z" transform="translate(-4036.16 -302.72)" fill="#229f49"/>
              <path id="Path_1640" data-name="Path 1640" d="M4060.934,548.492q.018-.323.043-.645Q4060.952,548.169,4060.934,548.492Z" transform="translate(-4036.065 -301.863)" fill="#229f49"/>
              <path id="Path_1641" data-name="Path 1641" d="M4060.874,552.251c0,.043,0,.086,0,.129l-.006-.316C4060.872,552.127,4060.872,552.189,4060.874,552.251Z" transform="translate(-4036.064 -301.941)" fill="#229f49"/>
              <path id="Path_1642" data-name="Path 1642" d="M4061.384,544.369l.012-.077Z" transform="translate(-4036.074 -301.798)" fill="#229f49"/>
              <path id="Path_1643" data-name="Path 1643" d="M4060.614,565.068c-.076,1.469-.135,2.94-.218,4.409a26.326,26.326,0,0,1-.6,3.994,26.479,26.479,0,0,0,.605-4C4060.478,568.008,4060.537,566.537,4060.614,565.068Z" transform="translate(-4036.044 -302.18)" fill="#1a5f92"/>
              <path id="Path_1644" data-name="Path 1644" d="M4058.717,582.749c-.039.736-.087,1.475-.157,2.22a36.167,36.167,0,0,1-.582,3.735,35.646,35.646,0,0,0,.582-3.735C4058.631,584.224,4058.678,583.485,4058.717,582.749Z" transform="translate(-4036.011 -302.505)" fill="#1a5f92"/>
              <path id="Path_1645" data-name="Path 1645" d="M4061.065,546.859c0,.026-.007.05-.009.075-.027.259-.05.519-.071.778.021-.259.044-.519.071-.778Z" transform="translate(-4036.066 -301.845)" fill="#229f49"/>
              <path id="Path_1646" data-name="Path 1646" d="M4062.485,534.656c0,.367-.011.732-.027,1.1C4062.474,535.388,4062.483,535.022,4062.485,534.656Z" transform="translate(-4036.093 -301.62)" fill="#229f49"/>
              <path id="Path_1647" data-name="Path 1647" d="M4102.789,532.633c.157,4.384-.059,8.766-.261,13.144l.53.024c4.907-.328,10.007.349,14.965.135,4.807-.209,11.67,1.2,16.219-.063-.025-.857-.062-1.714-.147-2.568a108.074,108.074,0,0,1-.939-11.21c0-.358-.02-.66-.028-.88-2.382.183-4.735-.365-7.112-.368-5.028-.008-10.2.071-15.208.474-2.679.215-5.351.5-8.021.8C4102.784,532.277,4102.782,532.437,4102.789,532.633Z" transform="translate(-4036.83 -301.55)" fill="#fff"/>
              <path id="Path_1648" data-name="Path 1648" d="M4167.626,597.389c-.283-.035-.561-.073-.825-.1a47.313,47.313,0,0,0-5.7-.685c-2.632,0-5.226.619-7.861.568a19.061,19.061,0,0,1-3.618-.586c-1.323-.274-2.693-.116-4.026-.3a57.1,57.1,0,0,0-7.427-.461,3.56,3.56,0,0,1-3.659-3.566c-.127-2.085.5-4.145.682-6.209.564-6.567-.535-13.122-.738-19.666-.053-1.7.24-3.325.2-5.022-.089-3.725-.5-7.431-.88-11.135-.14-1.355-.152-2.715-.195-4.073v0c-4.548,1.267-11.412-.146-16.219.063-4.958.215-10.059-.462-14.966-.135l-.53-.024c-.015.34-.031.678-.047,1.018-.1,2.2-.125,4.412-.138,6.62a36.5,36.5,0,0,1-.148,6.671c-.78,3.971-.132,8.245-.21,12.309-.062,3.3-.255,6.451-.01,9.752.26,3.5,1.569,8.294-1.456,11.035-2.237,2.026-5.879,1.526-8.644,1.526-2.418,0-4.88.452-7.294.227-2.083-.194-4.194-.37-6.3-.5-1.591-.1-3.154-.091-4.756-.346a36.407,36.407,0,0,0-5.939-.85v.126c-.721,1.5-.464,7.527.687,9.247H4167.5C4167.636,600.985,4167.659,598.82,4167.626,597.389Z" transform="translate(-4036.168 -301.829)" fill="#dbd0c3"/>
              <path id="Path_1649" data-name="Path 1649" d="M4059.015,593.448a3.1,3.1,0,0,1-1.269-1.66,3.1,3.1,0,0,0,1.269,1.66c1.754,1.165,4.457,1.272,6.489,1l.057-.007-.057.007C4063.472,594.721,4060.769,594.612,4059.015,593.448Z" transform="translate(-4036.007 -302.671)" fill="#229f49"/>
              <path id="Path_1650" data-name="Path 1650" d="M4062.151,539.163c.011-.089.023-.179.033-.268C4062.174,538.984,4062.162,539.074,4062.151,539.163Z" transform="translate(-4036.088 -301.698)" fill="#229f49"/>
              <path id="Path_1651" data-name="Path 1651" d="M4062.275,538.11c.014-.128.027-.255.039-.383C4062.3,537.855,4062.289,537.982,4062.275,538.11Z" transform="translate(-4036.09 -301.677)" fill="#229f49"/>
              <path id="Path_1652" data-name="Path 1652" d="M4062.33,537.571c.016-.176.032-.351.046-.528C4062.362,537.22,4062.346,537.4,4062.33,537.571Z" transform="translate(-4036.091 -301.664)" fill="#229f49"/>
              <path id="Path_1653" data-name="Path 1653" d="M4062.387,536.91c.011-.138.021-.278.031-.417C4062.407,536.632,4062.4,536.772,4062.387,536.91Z" transform="translate(-4036.092 -301.654)" fill="#229f49"/>
              <path id="Path_1654" data-name="Path 1654" d="M4062.214,538.645c.013-.1.024-.206.036-.309C4062.238,538.439,4062.227,538.542,4062.214,538.645Z" transform="translate(-4036.089 -301.688)" fill="#229f49"/>
              <path id="Path_1655" data-name="Path 1655" d="M4062.458,533.388q-.027-.57-.083-1.142Q4062.432,532.817,4062.458,533.388Z" transform="translate(-4036.092 -301.576)" fill="#229f49"/>
              <path id="Path_1656" data-name="Path 1656" d="M4062.428,536.32c.008-.133.016-.267.022-.4C4062.444,536.053,4062.436,536.187,4062.428,536.32Z" transform="translate(-4036.093 -301.644)" fill="#229f49"/>
              <path id="Path_1657" data-name="Path 1657" d="M4062.479,533.962c0-.158-.009-.315-.016-.473C4062.47,533.647,4062.475,533.8,4062.479,533.962Z" transform="translate(-4036.094 -301.599)" fill="#229f49"/>
              <path id="Path_1658" data-name="Path 1658" d="M4062.485,534.557c0-.155,0-.309,0-.464C4062.484,534.248,4062.485,534.4,4062.485,534.557Z" transform="translate(-4036.094 -301.61)" fill="#229f49"/>
              <path id="Path_1659" data-name="Path 1659" d="M4102.05,532.656c-.006-.2,0-.355,0-.511-3.939.451-7.873.958-11.818,1.4a84.117,84.117,0,0,1-19.587.009c-2.345-.3-4.635-.918-6.98-1.153-.435-.043-.864-.1-1.29-.173v.017q.057.571.083,1.142l0,.079c.007.158.012.315.016.473l0,.12c0,.155,0,.309,0,.464v.088c0,.223-.006.446-.012.668,13.116,1.767,26.374,2.255,39.612,2.642C4102.115,536.166,4102.113,534.411,4102.05,532.656Z" transform="translate(-4036.092 -301.574)" fill="#124b73"/>
              <path id="Path_1660" data-name="Path 1660" d="M4062.384,535.337c0,.142-.009.286-.015.429,0,.048-.005.1-.008.143-.006.134-.014.267-.022.4,0,.054-.007.108-.01.162-.01.139-.02.279-.031.417,0,.041-.006.082-.01.123-.014.177-.03.352-.046.528-.005.048-.01.1-.015.143-.013.128-.025.255-.039.383l-.023.215c-.012.1-.024.206-.036.309-.009.08-.019.159-.029.24s-.022.179-.033.268c-.108.846-.232,1.692-.362,2.538-.127.829-.258,1.659-.379,2.491l-.012.077q-.086.592-.163,1.186l-.016.12q-.072.568-.133,1.138l-.009.075c-.027.259-.05.519-.071.778,0,.039-.005.078-.008.117q-.025.322-.043.645c0,.059-.007.117-.01.175-.011.205-.02.409-.027.614q0,.078-.006.156-.025.758-.025,1.516c0,.074,0,.147,0,.221,0,.173,0,.346,0,.519,0,.1,0,.2,0,.293l.006.316q.012.57.029,1.141a71.368,71.368,0,0,1-.067,8.161c-.087,1.048-.151,2.1-.205,3.147-.076,1.469-.135,2.94-.217,4.408a26.479,26.479,0,0,1-.605,4c-.183.873-.373,1.75-.524,2.669a57.3,57.3,0,0,0-.516,6.283c-.039.736-.086,1.475-.157,2.22a35.646,35.646,0,0,1-.582,3.735c-.094.475-.193.951-.292,1.433a2.961,2.961,0,0,0,.065,1.484,3.1,3.1,0,0,0,1.269,1.66c1.754,1.164,4.457,1.273,6.489,1l.057-.007c.115-.015.23-.028.345-.037l.128-.011c.1-.009.21-.015.314-.02l.1,0c.106,0,.212-.006.318-.007h0a36.407,36.407,0,0,1,5.939.85c1.6.255,3.165.249,4.756.346,2.107.129,4.218.3,6.3.5,2.415.225,4.876-.227,7.294-.227,2.764,0,6.407.5,8.644-1.526,3.025-2.742,1.716-7.533,1.456-11.035-.246-3.3-.053-6.457.01-9.752.078-4.065-.57-8.339.21-12.309a36.545,36.545,0,0,0,.148-6.671c.012-2.208.038-4.415.138-6.62l.047-1.018c-.261-.011-.507-.02-.817-.035.31.016.556.024.817.035.121-2.626.245-5.253.294-7.88C4088.758,537.592,4075.5,537.1,4062.384,535.337Z" transform="translate(-4036.004 -301.633)" fill="#1a5f92"/>
              <path id="Path_1661" data-name="Path 1661" d="M4139.427,530.774a5.775,5.775,0,0,1,.637-2.2,3.065,3.065,0,0,1,1.458-.874,37.177,37.177,0,0,1,11.734-2.15c2.72-.054,5.524.181,8.087-.736a12.8,12.8,0,0,0,1.785-.818,53.861,53.861,0,0,0-5.892-.474c-1.271,0-13.734.424-15.961.012a2.186,2.186,0,0,1-.464.394c-1.249.794-2.883.683-4.3.686l-.084,0,0,.343c.014,1.462.417,3.319,0,4.738-.339,1.136-1.1,1.2-2.229,1.332-.166.022-.333.037-.5.048.008.221.03.522.028.88,0,.755.019,1.515.059,2.278a8.994,8.994,0,0,0,2.1-.289A4.852,4.852,0,0,0,4139.427,530.774Z" transform="translate(-4037.404 -301.416)" fill="#124b73"/>
              <path id="Path_1662" data-name="Path 1662" d="M4173.291,588.962c-.138-3.462-.451-6.917-.788-10.364a37.108,37.108,0,0,0-.424-4.245,26.709,26.709,0,0,1-.716-3.279c-.119-1.269-.124-2.547-.233-3.818-.2-2.268-.882-4.527-1.269-6.771-.21-1.207-.386-2.423-.486-3.643a20.246,20.246,0,0,1,.052-2.116,5.732,5.732,0,0,0-.031-.821c-.445-3.889-1.156-7.742-1.582-11.631-.142-1.295-.252-2.594-.311-3.9-.091-2.008-.145-4.013-.339-6.015-.183-1.872-.909-3.674-.957-5.554a21.556,21.556,0,0,1-.17-2.537c-.974-.054-1.94-.152-2.906-.259a12.78,12.78,0,0,1-1.785.818c-2.562.917-5.367.682-8.087.736a37.177,37.177,0,0,0-11.734,2.15,3.063,3.063,0,0,0-1.458.874,5.776,5.776,0,0,0-.637,2.2,4.851,4.851,0,0,1-3.543,3.176,8.986,8.986,0,0,1-2.1.289c.154,2.976.583,6,.88,8.932.085.855.122,1.713.147,2.571.042,1.358.055,2.718.195,4.073.38,3.7.792,7.41.88,11.135.04,1.7-.253,3.327-.2,5.022.2,6.543,1.3,13.1.738,19.666-.177,2.063-.809,4.124-.682,6.209a3.56,3.56,0,0,0,3.659,3.566,57.1,57.1,0,0,1,7.427.461c1.333.181,2.7.023,4.026.3a19.061,19.061,0,0,0,3.618.586c2.635.051,5.229-.563,7.861-.568a47.313,47.313,0,0,1,5.7.685c.264.031.542.069.825.1,1.745.214,3.7.315,4.278-1.722C4173.708,593.265,4173.372,591,4173.291,588.962Z" transform="translate(-4037.405 -301.425)" fill="#1a5f92"/>
              <g id="Group_1021" data-name="Group 1021" transform="translate(62.686 31.509)">
                <path id="Path_1663" data-name="Path 1663" d="M4099.938,340.641a.47.47,0,0,1-.226-.057.479.479,0,0,1-.195-.648,9.379,9.379,0,0,1,2.364-2.591c.221-.187.44-.373.652-.562a13.216,13.216,0,0,0,1.614-1.846c.337-.437.685-.888,1.072-1.316a6.464,6.464,0,0,0,1.521-3.815.478.478,0,0,1,.955.054,7.465,7.465,0,0,1-1.766,4.4c-.362.4-.7.836-1.024,1.258a13.973,13.973,0,0,1-1.733,1.975c-.218.2-.443.387-.669.579a8.646,8.646,0,0,0-2.142,2.316A.478.478,0,0,1,4099.938,340.641Z" transform="translate(-4099.46 -329.353)"/>
              </g>
              <g id="Group_1022" data-name="Group 1022" transform="translate(54.279 43.483)">
                <path id="Path_1664" data-name="Path 1664" d="M4091.4,346.491a.479.479,0,0,1-.477-.448c-.055-.865-.025-1.736.006-2.579.018-.472.034-.961.036-1.436a.478.478,0,0,1,.478-.477h0a.478.478,0,0,1,.477.48c0,.491-.02.987-.037,1.467-.029.819-.06,1.666-.008,2.482a.479.479,0,0,1-.447.508Z" transform="translate(-4090.895 -341.552)"/>
              </g>
              <g id="Group_1023" data-name="Group 1023" transform="translate(60.168 34.208)">
                <path id="Path_1665" data-name="Path 1665" d="M4097.373,342.4a.478.478,0,0,1-.441-.662,9.712,9.712,0,0,0,.464-1.742c.08-.4.163-.81.275-1.2a11.643,11.643,0,0,1,2.074-4.312c.151-.179.321-.414.5-.664a5.849,5.849,0,0,1,1.522-1.649.479.479,0,1,1,.473.832,5.447,5.447,0,0,0-1.219,1.376c-.191.265-.371.514-.545.721a10.7,10.7,0,0,0-1.886,3.957c-.1.355-.178.731-.258,1.129a10.3,10.3,0,0,1-.517,1.918A.48.48,0,0,1,4097.373,342.4Z" transform="translate(-4096.895 -332.103)"/>
              </g>
              <g id="Group_1024" data-name="Group 1024" transform="translate(47.639 46.149)">
                <path id="Path_1666" data-name="Path 1666" d="M4088.718,353.6a.474.474,0,0,1-.267-.082c-.667-.45-2.381-2.106-1.99-3.458a2.355,2.355,0,0,1,.65-.975c.3-.306.406-.442.377-.658a5.689,5.689,0,0,0-.568-1.557c-.373-.771-1.142-1.994-2.1-1.534a.479.479,0,0,1-.413-.865c1.249-.595,2.48.128,3.378,1.981a6.476,6.476,0,0,1,.655,1.845,1.7,1.7,0,0,1-.638,1.454,1.524,1.524,0,0,0-.418.573c-.176.61.846,1.888,1.606,2.4a.479.479,0,0,1-.268.876Z" transform="translate(-4084.131 -344.268)"/>
              </g>
              <g id="Group_1025" data-name="Group 1025" transform="translate(83.01 70.935)">
                <path id="Path_1667" data-name="Path 1667" d="M4124.741,372.508a6.615,6.615,0,0,1-4.457-2.194.479.479,0,0,1,.718-.634,5.443,5.443,0,0,0,4.067,1.85,1.86,1.86,0,0,0,1.494-1.112.478.478,0,1,1,.856.427,2.825,2.825,0,0,1-2.226,1.634A3.445,3.445,0,0,1,4124.741,372.508Z" transform="translate(-4120.165 -369.518)"/>
              </g>
              <g id="Group_1026" data-name="Group 1026" transform="translate(75.663 74.54)">
                <path id="Path_1668" data-name="Path 1668" d="M4119.427,377.554a.482.482,0,0,1-.215-.051,19.362,19.362,0,0,1-1.748-1.042c-.312-.2-.634-.41-.953-.6a22.632,22.632,0,0,0-2.09-1.053c-.491-.226-1-.46-1.483-.714a.479.479,0,0,1,.444-.848c.463.242.96.471,1.44.693a22.853,22.853,0,0,1,2.179,1.1c.333.2.664.412.982.618a18.533,18.533,0,0,0,1.659.991.479.479,0,0,1-.215.906Z" transform="translate(-4112.68 -373.191)"/>
              </g>
              <g id="Group_1027" data-name="Group 1027" transform="translate(72.46 55.271)">
                <path id="Path_1669" data-name="Path 1669" d="M4116.625,357.076c-.965.536-2.895-.214-3.846-.62-.767-.328-3.1-1.527-3.089-2.375-.279.063-.348-.064-.187-.3a.652.652,0,0,1,.779-.159,2.476,2.476,0,0,1,.678.522,9.728,9.728,0,0,0,5.238,2.032,1.523,1.523,0,0,1,.552.157.511.511,0,0,1,.273.472C4117,357,4116.794,357.168,4116.625,357.076Z" transform="translate(-4109.417 -353.56)" fill="#231f20"/>
              </g>
              <g id="Group_1028" data-name="Group 1028" transform="translate(88.931 50.235)">
                <path id="Path_1670" data-name="Path 1670" d="M4131.1,394.232a.48.48,0,0,1-.469-.387c-.18-.919-.407-1.884-.714-3.036-.264-.989-.556-1.994-.837-2.964a63.133,63.133,0,0,1-1.7-6.789,70,70,0,0,1-.756-12.974c.014-.9.043-1.807.073-2.685.052-1.594.107-3.243.059-4.874-.033-1.125-.029-2.268-.024-3.373a56.475,56.475,0,0,0-.19-5.981c-.055-.535-.15-1.087-.242-1.621-.032-.187-.065-.375-.095-.562a.478.478,0,1,1,.944-.155q.045.278.095.556c.094.55.191,1.117.25,1.683a57.346,57.346,0,0,1,.2,6.084c0,1.1-.009,2.231.025,3.34.048,1.661-.007,3.325-.06,4.934-.029.874-.058,1.776-.072,2.667a69.244,69.244,0,0,0,.741,12.8,62.725,62.725,0,0,0,1.678,6.685c.283.977.577,1.985.844,2.985.312,1.174.543,2.159.728,3.1a.477.477,0,0,1-.377.561A.438.438,0,0,1,4131.1,394.232Z" transform="translate(-4126.197 -348.43)"/>
              </g>
              <g id="Group_1029" data-name="Group 1029" transform="translate(92.084 41.911)">
                <path id="Path_1671" data-name="Path 1671" d="M4133.94,355.69a.479.479,0,0,1-.459-.347,16.918,16.918,0,0,1-.472-2.635,15.348,15.348,0,0,0-.481-2.617c-.317-1.031-.54-2.092-.755-3.119-.187-.9-.381-1.821-.636-2.708a9.737,9.737,0,0,0-1.617-3.529.479.479,0,1,1,.735-.613,10.572,10.572,0,0,1,1.8,3.878c.264.922.462,1.864.653,2.776.211,1.005.429,2.045.733,3.033a16.257,16.257,0,0,1,.515,2.779,16.085,16.085,0,0,0,.443,2.489.478.478,0,0,1-.327.592A.488.488,0,0,1,4133.94,355.69Z" transform="translate(-4129.409 -339.95)"/>
              </g>
              <g id="Group_1030" data-name="Group 1030" transform="translate(107.621 33.164)">
                <path id="Path_1672" data-name="Path 1672" d="M4148.449,352a.473.473,0,0,1-.3-.109.478.478,0,0,1-.067-.673c.378-.461.188-1.662.048-2.538a10.389,10.389,0,0,1-.132-1.032q-.018-.331-.033-.661c-.045-.926-.092-1.883-.2-2.81-.088-.753-.15-1.518-.211-2.257-.091-1.107-.184-2.253-.364-3.36a14.261,14.261,0,0,0-.74-2.536,15.707,15.707,0,0,1-.768-2.613,15.059,15.059,0,0,0-.423-1.752.479.479,0,0,1,.917-.277,16.018,16.018,0,0,1,.448,1.864,14.789,14.789,0,0,0,.727,2.455,15.255,15.255,0,0,1,.784,2.705c.187,1.146.281,2.31.373,3.437.06.731.122,1.487.207,2.223.112.96.159,1.934.205,2.875.011.219.021.438.034.657.012.245.065.579.122.932.176,1.114.4,2.5-.254,3.294A.477.477,0,0,1,4148.449,352Z" transform="translate(-4145.237 -331.039)"/>
              </g>
              <g id="Group_1031" data-name="Group 1031" transform="translate(117.18 51.65)">
                <path id="Path_1673" data-name="Path 1673" d="M4155.685,363.569h-.007a.479.479,0,0,1-.472-.486c.01-.677,0-1.37,0-2.04-.009-1.191-.017-2.422.055-3.638a14.373,14.373,0,0,0-.122-2.365,13.982,13.982,0,0,1-.108-2.729,9.779,9.779,0,0,0-.053-1.909.478.478,0,1,1,.951-.105,10.516,10.516,0,0,1,.055,2.1,13.2,13.2,0,0,0,.107,2.543,15.272,15.272,0,0,1,.126,2.523c-.07,1.184-.061,2.4-.053,3.575,0,.674.009,1.372,0,2.059A.478.478,0,0,1,4155.685,363.569Z" transform="translate(-4154.975 -349.872)"/>
              </g>
              <g id="Group_1032" data-name="Group 1032" transform="translate(94.555 181.754)">
                <path id="Path_1674" data-name="Path 1674" d="M4143.558,502.136a.472.472,0,0,1-.254-.074,22.98,22.98,0,0,1-7.036-7.221,31.485,31.485,0,0,1-3.665-9.437c-.208-.819-.439-1.625-.658-2.379a.479.479,0,0,1,.92-.267c.221.764.455,1.577.666,2.411a30.679,30.679,0,0,0,3.542,9.154,21.754,21.754,0,0,0,6.743,6.929.479.479,0,0,1-.256.883Z" transform="translate(-4131.925 -482.413)" fill="#3f85ba"/>
              </g>
              <g id="Group_1033" data-name="Group 1033" transform="translate(25.536 230.097)">
                <path id="Path_1675" data-name="Path 1675" d="M4080.074,534.59a75.924,75.924,0,0,1-9.5-.571c-1.089-.137-2.176-.346-3.227-.548-1.225-.236-2.491-.478-3.742-.6-.521-.052-1.057-.128-1.593-.224a.478.478,0,1,1,.168-.941c.512.091,1.024.163,1.522.213,1.292.13,2.581.377,3.825.615,1.036.2,2.108.4,3.167.539a83.719,83.719,0,0,0,19.473-.009c2.137-.239,4.307-.5,6.406-.757,1.756-.213,3.572-.433,5.359-.638a.478.478,0,1,1,.109.95c-1.785.205-3.6.425-5.354.638-2.1.254-4.273.518-6.414.758A92.152,92.152,0,0,1,4080.074,534.59Z" transform="translate(-4061.613 -531.662)" fill="#3f85ba"/>
              </g>
              <g id="Group_1034" data-name="Group 1034" transform="translate(95.539 222.553)">
                <path id="Path_1676" data-name="Path 1676" d="M4133.406,531.586a.479.479,0,0,1-.024-.957c.256-.013.509-.034.747-.064l.092-.011c1.137-.137,1.506-.217,1.735-.984a8.97,8.97,0,0,0,.075-3.1c-.044-.524-.086-1.02-.091-1.494,0-.17,0-.34-.006-.51a.479.479,0,1,1,.957-.015c0,.172,0,.345.006.516,0,.438.045.916.087,1.421a9.577,9.577,0,0,1-.112,3.458c-.416,1.406-1.446,1.529-2.536,1.661l-.092.011c-.26.031-.533.055-.812.07Z" transform="translate(-4132.928 -523.977)" fill="#3f85ba"/>
              </g>
              <g id="Group_1035" data-name="Group 1035" transform="translate(93.497 200.139)">
                <path id="Path_1677" data-name="Path 1677" d="M4135.067,502.829a.477.477,0,0,1-.36-.164c-.267-.305-1.135-.4-1.42-.425-.627-.066-1.274-.112-1.979-.141a.478.478,0,0,1,.039-.956c.726.03,1.392.078,2.039.145a3.138,3.138,0,0,1,2.042.747.479.479,0,0,1-.36.794Z" transform="translate(-4130.849 -501.143)" fill="#3f85ba"/>
              </g>
              <g id="Group_1036" data-name="Group 1036" transform="translate(27.186 198.468)">
                <path id="Path_1678" data-name="Path 1678" d="M4063.773,502.212a.479.479,0,0,1-.186-.92c5.272-2.224,11.085-1.873,16.119-1.368.576.057,1.153.118,1.728.179,2.048.215,4.165.438,6.249.518a34.787,34.787,0,0,0,3.9-.048,13.523,13.523,0,0,0,1.427-.208,10.508,10.508,0,0,1,2.114-.234c.253.006.5.014.748.021a17.841,17.841,0,0,0,5.705-.444,8.324,8.324,0,0,1,2.309-.267.479.479,0,0,1,0,.957h-.075a7.233,7.233,0,0,0-1.97.231,18.554,18.554,0,0,1-5.994.479l-.744-.021a9.581,9.581,0,0,0-1.919.22,14.7,14.7,0,0,1-1.527.22,35.539,35.539,0,0,1-4.005.05c-2.116-.081-4.25-.306-6.313-.523-.574-.06-1.148-.121-1.723-.178-4.917-.493-10.587-.838-15.652,1.3A.48.48,0,0,1,4063.773,502.212Z" transform="translate(-4063.294 -499.441)" fill="#3f85ba"/>
              </g>
              <g id="Group_1037" data-name="Group 1037" transform="translate(16.595 201.38)">
                <path id="Path_1679" data-name="Path 1679" d="M4052.984,506.365a.478.478,0,0,1-.325-.829,5.594,5.594,0,0,1,.683-.518l.086-.058a.472.472,0,0,1,.4-.066l.24-.132c1.868-1.025,4.192-2.3,6.2-2.355a.478.478,0,0,1,.025.956c-1.779.048-3.991,1.262-5.769,2.238-.468.257-.911.5-1.324.712A.48.48,0,0,1,4052.984,506.365Z" transform="translate(-4052.505 -502.407)" fill="#3f85ba"/>
              </g>
              <g id="Group_1038" data-name="Group 1038" transform="translate(15.937 196.982)">
                <path id="Path_1680" data-name="Path 1680" d="M4052.313,500.812a.479.479,0,0,1-.336-.821c2.76-2.712,8.991-2.217,12.238-1.5a.478.478,0,0,1-.207.934,23.693,23.693,0,0,0-6.015-.514c-2.455.13-4.3.738-5.344,1.761A.48.48,0,0,1,4052.313,500.812Z" transform="translate(-4051.834 -497.927)" fill="#3f85ba"/>
              </g>
              <g id="Group_1039" data-name="Group 1039" transform="translate(7.157 119.065)">
                <path id="Path_1681" data-name="Path 1681" d="M4063.946,453.8a.478.478,0,0,1-.478-.472c-.023-1.764-.963-3.511-1.871-5.2a22.836,22.836,0,0,1-1.405-2.933c-.26-.714-.515-1.426-.769-2.139-.892-2.5-1.814-5.081-2.9-7.576a33.478,33.478,0,0,0-6.425-9.6c-.345-.381-.749-.881-1.216-1.462-1.518-1.885-3.811-4.731-5.56-4.916a.479.479,0,0,1,.1-.952c2.144.227,4.491,3.14,6.2,5.267.458.568.853,1.059,1.18,1.419a34.359,34.359,0,0,1,6.593,9.861c1.1,2.525,2.03,5.124,2.928,7.637.254.711.508,1.422.767,2.134a22.144,22.144,0,0,0,1.349,2.807c.963,1.79,1.959,3.642,1.986,5.64a.478.478,0,0,1-.472.485Z" transform="translate(-4042.89 -418.55)" fill="#3f85ba"/>
              </g>
              <g id="Group_1040" data-name="Group 1040" transform="translate(5.51 152.54)">
                <path id="Path_1682" data-name="Path 1682" d="M4041.691,464.31a.478.478,0,0,1-.307-.845,48.452,48.452,0,0,1,5.7-3.867c3.206-1.962,6.521-3.992,8.485-6.746a.479.479,0,0,1,.78.557c-2.078,2.91-5.478,4.992-8.765,7.006A46.9,46.9,0,0,0,4042,464.2.477.477,0,0,1,4041.691,464.31Z" transform="translate(-4041.213 -452.652)" fill="#3f85ba"/>
              </g>
              <g id="Group_1041" data-name="Group 1041" transform="translate(28.282 158.027)">
                <path id="Path_1683" data-name="Path 1683" d="M4068.567,500.489a.479.479,0,0,1-.433-.275c-.946-2.013-.917-4.386-.888-6.68.012-.94.022-1.828-.032-2.671-.244-3.711-.672-7.457-1.053-10.677q-.118-1-.239-2a155.436,155.436,0,0,1-1.509-19.474.478.478,0,1,1,.957.007,154.8,154.8,0,0,0,1.5,19.353q.119,1,.239,2c.384,3.231.814,6.993,1.058,10.727.058.88.046,1.786.034,2.746-.027,2.186-.056,4.447.8,6.261a.477.477,0,0,1-.23.636A.469.469,0,0,1,4068.567,500.489Z" transform="translate(-4064.411 -458.242)" fill="#3f85ba"/>
              </g>
              <g id="Group_1042" data-name="Group 1042" transform="translate(24.273 240.031)">
                <path id="Path_1684" data-name="Path 1684" d="M4076.337,554.025c-.251,0-.5,0-.753-.014a50.319,50.319,0,0,1-5.4-.6,35.066,35.066,0,0,0-7.4-.57,3.242,3.242,0,0,1-2.285-.453.479.479,0,0,1,.614-.735,2.51,2.51,0,0,0,1.608.233,35.751,35.751,0,0,1,7.6.579,49.954,49.954,0,0,0,5.3.594c.9.034,1.829-.007,2.724-.048.938-.042,1.907-.086,2.866-.043,1.581.07,3.181.015,4.164-.863,1.057-.943,1.353-2.743,1.614-4.331.1-.618.2-1.2.333-1.729.429-1.668.393-2.258-.662-2.7a10.3,10.3,0,0,0-3.446-.571,44.057,44.057,0,0,0-4.631.1c-.77.044-1.564.09-2.352.115a.478.478,0,1,1-.03-.956c.775-.025,1.564-.071,2.325-.114a44.757,44.757,0,0,1,4.732-.105,11.071,11.071,0,0,1,3.771.645c1.986.836,1.561,2.492,1.219,3.823-.126.485-.218,1.048-.316,1.645-.287,1.744-.612,3.721-1.92,4.889-1.239,1.105-3.06,1.185-4.844,1.105-.915-.041-1.863,0-2.78.043C4077.716,553.993,4077.028,554.025,4076.337,554.025Z" transform="translate(-4060.327 -541.783)" fill="#3f85ba"/>
              </g>
              <g id="Group_1043" data-name="Group 1043" transform="translate(25.399 239.547)">
                <path id="Path_1685" data-name="Path 1685" d="M4072.206,542.709a.479.479,0,0,1-.127-.018,19.34,19.34,0,0,0-5.731-.361,27.455,27.455,0,0,1-4.457-.087.479.479,0,0,1,.124-.949,26.665,26.665,0,0,0,4.3.079,20.079,20.079,0,0,1,6.017.4.479.479,0,0,1-.127.94Z" transform="translate(-4061.475 -541.29)" fill="#3f85ba"/>
              </g>
              <g id="Group_1044" data-name="Group 1044" transform="translate(122.719 240.371)">
                <path id="Path_1686" data-name="Path 1686" d="M4161.1,543.8a.479.479,0,0,1-.1-.946,35.177,35.177,0,0,1,5.814-.639c.491-.026.981-.053,1.47-.084a.479.479,0,0,1,.062.955c-.493.031-.986.058-1.479.084a34.511,34.511,0,0,0-5.657.618A.476.476,0,0,1,4161.1,543.8Z" transform="translate(-4160.618 -542.129)" fill="#3f85ba"/>
              </g>
              <g id="Group_1045" data-name="Group 1045" transform="translate(135.29 252.849)">
                <path id="Path_1687" data-name="Path 1687" d="M4173.425,554.841" transform="translate(-4173.425 -554.841)" fill="none" stroke="#3f85ba" stroke-linecap="round" stroke-linejoin="round" stroke-width="5"/>
              </g>
              <g id="Group_1046" data-name="Group 1046" transform="translate(111.216 241.085)">
                <path id="Path_1688" data-name="Path 1688" d="M4158.788,555.556a22.666,22.666,0,0,1-3.375-.226,9.805,9.805,0,0,1-3.193-.926,4.668,4.668,0,0,1-2.252-2.655c-.759-2.127-1.45-4.554-.828-6.417a1.689,1.689,0,0,0,.033-.495c-.009-.428-.025-1.223.848-1.432a29.574,29.574,0,0,1,6.486-.521c.675,0,1.313-.01,1.94-.028a.478.478,0,1,1,.028.956c-.638.02-1.281.024-1.961.029a28.874,28.874,0,0,0-6.272.5c-.1.023-.122.029-.113.481a2.348,2.348,0,0,1-.081.818c-.6,1.8.359,4.5.82,5.792.707,1.98,2.317,2.6,4.687,2.956a33.219,33.219,0,0,0,6.7.091q.615-.034,1.231-.064c.946-.045,2.055.016,3.23.079,1.016.055,2.065.112,3.053.1a.479.479,0,1,1,.009.957c-1.018.009-2.084-.047-3.114-.1-1.15-.063-2.237-.122-3.133-.08-.408.019-.817.041-1.225.063C4161.148,555.493,4159.972,555.556,4158.788,555.556Z" transform="translate(-4148.899 -542.856)" fill="#3f85ba"/>
              </g>
              <g id="Group_1047" data-name="Group 1047" transform="translate(118.449 39.376)">
                <path id="Path_1689" data-name="Path 1689" d="M4156.746,348.429a.479.479,0,0,1-.42-.708,19.759,19.759,0,0,1,1.227-1.894,12.889,12.889,0,0,0,1.609-2.732,27.173,27.173,0,0,0,1.157-4.622c.046-.241.092-.482.139-.719a.479.479,0,0,1,.939.184c-.046.235-.092.473-.138.715a27.915,27.915,0,0,1-1.2,4.787,13.775,13.775,0,0,1-1.72,2.938,18.812,18.812,0,0,0-1.169,1.8A.476.476,0,0,1,4156.746,348.429Z" transform="translate(-4156.268 -337.368)"/>
              </g>
              <g id="Group_1048" data-name="Group 1048" transform="translate(94.933 24.047)">
                <path id="Path_1690" data-name="Path 1690" d="M4132.789,330.025a.472.472,0,0,1-.339-.142.479.479,0,0,1,0-.676c.964-.956.759-4.649.388-6.9a.478.478,0,1,1,.944-.157c.168,1.016.927,6.163-.657,7.734A.478.478,0,0,1,4132.789,330.025Z" transform="translate(-4132.311 -321.751)"/>
              </g>
              <g id="Group_1049" data-name="Group 1049" transform="translate(122.966 113.566)">
                <path id="Path_1691" data-name="Path 1691" d="M4161.348,425.558h-.005a.479.479,0,0,1-.473-.484c.022-1.875,2.913-5.439,4.155-6.884,1.989-2.315,4.564-4.816,5.834-5.187a.837.837,0,0,1,1.02.287.478.478,0,0,1-.717.62,8.528,8.528,0,0,0-2.736,2.066c-3.758,3.588-6.584,7.768-6.6,9.109A.479.479,0,0,1,4161.348,425.558Z" transform="translate(-4160.869 -412.948)" fill="#3f85ba"/>
              </g>
              <g id="Group_1050" data-name="Group 1050" transform="translate(95.355 191.593)">
                <path id="Path_1692" data-name="Path 1692" d="M4133.22,502.1h-.031a.479.479,0,0,1-.446-.508,15.24,15.24,0,0,1,.967-3.869c.2-.584.391-1.137.538-1.67.1-.346.222-.729.354-1.136a20.034,20.034,0,0,0,.6-2.091.479.479,0,1,1,.938.192,20.71,20.71,0,0,1-.629,2.2c-.129.4-.252.769-.341,1.093-.155.561-.35,1.127-.556,1.726a14.587,14.587,0,0,0-.917,3.62A.477.477,0,0,1,4133.22,502.1Z" transform="translate(-4132.741 -492.437)" fill="#3f85ba"/>
              </g>
              <g id="Group_1051" data-name="Group 1051" transform="translate(79.986 290.679)">
                <path id="Path_1693" data-name="Path 1693" d="M4117.563,603.584h0a.479.479,0,0,1-.475-.483c0-.424,0-.852,0-1.28a31.629,31.629,0,0,1,.691-8.088.479.479,0,1,1,.923.252,30.913,30.913,0,0,0-.657,7.837c0,.43,0,.86,0,1.287A.479.479,0,0,1,4117.563,603.584Z" transform="translate(-4117.084 -593.38)" fill="#c0a78a"/>
              </g>
              <g id="Group_1052" data-name="Group 1052" transform="translate(82.048 270.152)">
                <path id="Path_1694" data-name="Path 1694" d="M4119.662,590.87a.479.479,0,0,1-.4-.742,27.206,27.206,0,0,0,4.384-17.142.479.479,0,1,1,.954-.078,28.174,28.174,0,0,1-4.539,17.747A.478.478,0,0,1,4119.662,590.87Z" transform="translate(-4119.185 -572.468)" fill="#c0a78a"/>
              </g>
              <g id="Group_1053" data-name="Group 1053" transform="translate(86.336 250.213)">
                <path id="Path_1695" data-name="Path 1695" d="M4124.429,571.682a.479.479,0,0,1-.478-.468l-.4-18.57a.478.478,0,0,1,.468-.489h.01a.478.478,0,0,1,.479.468l.4,18.57a.478.478,0,0,1-.468.488Z" transform="translate(-4123.553 -552.155)" fill="#c0a78a"/>
              </g>
              <g id="Group_1054" data-name="Group 1054" transform="translate(80.131 247.999)">
                <path id="Path_1696" data-name="Path 1696" d="M4117.71,585.778h0a.479.479,0,0,1-.477-.48l.077-34.921a.479.479,0,0,1,.479-.477h0a.478.478,0,0,1,.477.48l-.077,34.92A.479.479,0,0,1,4117.71,585.778Z" transform="translate(-4117.232 -549.9)" fill="#c0a78a"/>
              </g>
            </g>
          </g>
        </g>
        <path id="Path_1697" data-name="Path 1697" d="M4088.954,342.021a25.806,25.806,0,0,1,2.792,8.657c.336,3.072.176,4.737.752,4.913s5.569-12.755,5.569-12.755,7.491,1.056,12.1-4.61,5.6-17.025,10.048-19.987,4.355,2.8,3.875,5.583-4.184,17.085-1.25,21.557,3.267,3.7,3.267,3.7-.034-1.907-.259-3.679-1.158-7.1-1.158-7.1,5.514-16.877,5.514-17.9-5.057-9.987-5.89-10.115a89.014,89.014,0,0,0-12.227,1.92c-2.048.64-7.491,8.771-7.618,9.027S4088.954,342.021,4088.954,342.021Z" transform="translate(-2639.125 29.468)"/>
      </g>
    </g>
  </g>
</svg>
