<svg xmlns="http://www.w3.org/2000/svg" xmlns:xlink="http://www.w3.org/1999/xlink" width="175" height="175" viewBox="0 0 175 175">
  <defs>
    <clipPath id="clip-path">
      <rect id="Rectangle_177" data-name="Rectangle 177" width="175" height="175" transform="translate(369.396 650)" fill="none"/>
    </clipPath>
    <clipPath id="clip-path-2">
      <circle id="Ellipse_76" data-name="Ellipse 76" cx="72.151" cy="72.151" r="72.151" fill="none"/>
    </clipPath>
  </defs>
  <g id="Mask_Group_7" data-name="Mask Group 7" transform="translate(-369.396 -650)" clip-path="url(#clip-path)">
    <g id="Numb" transform="translate(0 35)">
      <text id="มือเท้ามีอาการชา" transform="translate(456.753 837.613)" fill="#fff" font-size="35" font-family="Kanit-Light, Kanit" font-weight="300"><tspan x="-116.638" y="0">มือเท้ามีอาการชา</tspan></text>
      <g id="Group_1080" data-name="Group 1080">
        <g id="Group_1012" data-name="Group 1012" transform="translate(336.047 582.076)">
          <g id="Group_1011" data-name="Group 1011">
            <circle id="Ellipse_74" data-name="Ellipse 74" cx="85.522" cy="85.522" r="85.522" transform="translate(0 120.946) rotate(-45)" fill="#fff"/>
            <circle id="Ellipse_75" data-name="Ellipse 75" cx="72.151" cy="72.151" r="72.151" transform="translate(48.795 48.795)" fill="#f4ada5"/>
            <g id="Group_1010" data-name="Group 1010" transform="translate(48.795 48.795)">
              <g id="Group_1009" data-name="Group 1009" clip-path="url(#clip-path-2)">
                <g id="Group_1005" data-name="Group 1005" transform="translate(14.654 -11.83)">
                  <g id="Group_1003" data-name="Group 1003">
                    <path id="Path_1544" data-name="Path 1544" d="M3021.809,676.846c2.581-.8,5.546-3.592,11.218-8.057,5.688-4.478,11.6-7.405,12.115-7.121.763.419-6.069,7.037-11.739,12.113-3.55,3.177-5.951,6.164-7.725,7.909-3.324,3.269-2.293,6.6-.593,7.031,3.2.815,9.641-6.936,13.194-10.077,1.961-1.735,8.292-7.817,12.372-10.733a.373.373,0,0,1,.538.493,114.541,114.541,0,0,1-9.452,12.27c-2.52,2.521-5.343,5.531-6.465,7.75a2.931,2.931,0,0,0-.04,3.245c1.773,2.963,9.806-4.887,14.967-10.45a82.084,82.084,0,0,0,5.526-7.04c.854-1.151,1.583-2.071,2.514-3.162.32-.375,2.165-2.478,2.218-.792a6.4,6.4,0,0,1-.617,2.023,91.442,91.442,0,0,1-4.565,8.9c-2.68,4.123-5.027,7.187-1.926,8.641,1.6.752,3.419-1.463,4.852-3.3.407-.523,2.46-3.462,4.281-6.483,2.392-3.965,4.86-9.038,5.724-10.462,1.522-2.51,11.413-15.388,16.266-19.794,3.656-3.32,11.444-8.594,15.559-12.337.032-.029,35.705-26.182,35.692-26.224a27.265,27.265,0,0,0-6.923-11.371,62.29,62.29,0,0,0-6.168-4.985c1.361-1.02-44.892,34.113-50.467,34.726-6.464.712-16.648.408-20.783,1.949s-6.4,3.8-13.121,7.556c-8.647,4.83-12.4,4.84-13.025,7.131-.26.958,2.834,6.237,15.141.148,2.237-1.107,9.444-3.725,10.581-2.324,1.253,1.542-4.5,5.243-6.273,6.975-1.531,1.493-7.761,5.234-13.221,10.078-4.451,3.951-13.915,10.362-12.347,14.016C3019.661,676.36,3020.648,677.206,3021.809,676.846Z" transform="translate(-3018.941 -594.806)" fill="#f9cfcc"/>
                    <path id="Path_1545" data-name="Path 1545" d="M3071.83,645.993c-4.381,5.334-11.292,3.292-12.074,3.058a23.133,23.133,0,0,0-8.581-1.189c.094-.1.19-.189.288-.281,1.075-1.005,1.328-4.2,2.318-3.5,2.1,1.467,3.478,1.111,5.005,1.645,1.09.381,2.412,1.035,3.487,1.355C3066.367,648.3,3071.757,645.947,3071.83,645.993Z" transform="translate(-3019.534 -595.71)" fill="#eab8b7"/>
                    <path id="Path_1546" data-name="Path 1546" d="M3052.646,643.464c1.26.966,1.61,1.672-.7,3.7a34.144,34.144,0,0,1-6.556,4.276c1.95-1.689,6.1-4.542,5.957-6.114h0a.984.984,0,0,0-.041-.2.731.731,0,0,0-.117-.226.827.827,0,0,0-.253-.2,1.138,1.138,0,0,0-.109-.047,1.536,1.536,0,0,0-.248-.081c-.05-.012-.1-.024-.153-.032a3.3,3.3,0,0,0-.332-.033c-.048,0-.091-.01-.14-.011-2.469-.057-7.534,1.828-9.345,2.724a24.733,24.733,0,0,1-9.131,2.861,50.326,50.326,0,0,0,10.907-4.861C3043.939,644.348,3049.6,641.587,3052.646,643.464Z" transform="translate(-3019.172 -595.689)" fill="#eab8b7"/>
                    <path id="Path_1547" data-name="Path 1547" d="M3097.221,637.031c-1.31-4.6-4.766-8.541-9.912-8.259a24.4,24.4,0,0,0-8.595,2.512,16.339,16.339,0,0,1-4.644,1.313,15.3,15.3,0,0,1-3.423.181c-2.157-.214-4.31-.739-6.479-.806-4.708-.146-10.09-.485-14.662.834-.293.084-.6.175-.9.262a22.6,22.6,0,0,1,3.317-1.565c4.135-1.541,14.32-1.238,20.783-1.949,4.947-.545,49.479-33.834,50.467-34.726a61.481,61.481,0,0,1,6.146,4.968,27.273,27.273,0,0,1,6.923,11.373c-.011.041-35.658,26.2-35.668,26.237-.834.758-1.824,1.581-2.895,2.437A12.757,12.757,0,0,0,3097.221,637.031Z" transform="translate(-3019.487 -594.806)" fill="#eab8b7"/>
                    <path id="Path_1548" data-name="Path 1548" d="M3073.083,630.205c-1.26.138-2.663.239-4.135.322" transform="translate(-3019.861 -595.457)" fill="none" stroke="#000" stroke-linecap="round" stroke-linejoin="round" stroke-width="2"/>
                    <path id="Path_1549" data-name="Path 1549" d="M3094.73,642.539c2.382-1.808,4.684-3.6,6.371-5.132.032-.029,35.705-26.182,35.692-26.224a27.265,27.265,0,0,0-6.923-11.371,62.29,62.29,0,0,0-6.168-4.985c1.187-.889-33.824,25.706-46.508,32.94" transform="translate(-3020.013 -594.806)" fill="none" stroke="#000" stroke-linecap="round" stroke-linejoin="round" stroke-width="2"/>
                    <path id="Path_1550" data-name="Path 1550" d="M3033.112,669.818c5.688-4.478,11.6-7.405,12.115-7.121.763.419-6.069,7.037-11.739,12.113-3.55,3.177-5.951,6.164-7.725,7.909-3.324,3.269-2.293,6.6-.593,7.031,3.2.815,9.641-6.936,13.194-10.077,1.961-1.735,8.292-7.817,12.372-10.733a.373.373,0,0,1,.538.493,114.541,114.541,0,0,1-9.452,12.27c-2.52,2.521-5.343,5.531-6.465,7.75a2.931,2.931,0,0,0-.04,3.245c1.773,2.963,9.806-4.887,14.967-10.45a82.084,82.084,0,0,0,5.526-7.04c.854-1.151,1.583-2.071,2.514-3.162.32-.375,2.165-2.478,2.218-.792a6.4,6.4,0,0,1-.617,2.023,91.442,91.442,0,0,1-4.565,8.9c-2.68,4.123-5.027,7.187-1.926,8.641,1.6.752,3.419-1.463,4.852-3.3.407-.523,2.46-3.462,4.281-6.483,2.392-3.965,4.86-9.038,5.724-10.462,1.522-2.51,11.413-15.388,16.266-19.794" transform="translate(-3019.027 -595.835)" fill="none" stroke="#000" stroke-linecap="round" stroke-linejoin="round" stroke-width="2"/>
                    <path id="Path_1551" data-name="Path 1551" d="M3051.38,632.191c-4.135,1.541-6.4,3.8-13.121,7.556-8.647,4.83-12.4,4.84-13.025,7.131-.26.958,2.834,6.237,15.141.148,2.237-1.107,9.444-3.725,10.581-2.324,1.253,1.542-4.5,5.243-6.273,6.975-1.531,1.493-7.761,5.234-13.221,10.078-4.451,3.951-13.915,10.362-12.347,14.016.547,1.275,1.533,2.121,2.695,1.761a18.329,18.329,0,0,0,5.3-3.316" transform="translate(-3018.941 -595.493)" fill="none" stroke="#000" stroke-linecap="round" stroke-linejoin="round" stroke-width="2"/>
                    <path id="Path_1552" data-name="Path 1552" d="M3051.556,644.937c2.735,2.377,9.159,6.054,15.677,4.2" transform="translate(-3019.541 -595.728)" fill="none" stroke="#000" stroke-linecap="round" stroke-linejoin="round" stroke-width="2"/>
                  </g>
                  <g id="Group_1004" data-name="Group 1004" transform="translate(24.569 19.254)">
                    <path id="Path_1553" data-name="Path 1553" d="M3072.93,619.328l-1.112-.77,1.316-1.98q-.527-.194-1.057-.372l-2.044,2.551,2,.648-2.071,3.788,1.243.89-1.63,3.474,2.487-3.432-1.207-1.262Z" transform="translate(-3044.442 -614.454)" fill="#fff"/>
                    <path id="Path_1554" data-name="Path 1554" d="M3047.037,625.614l-.726,1.206-2.007-1.192c-.117.371-.227.744-.333,1.117l2.6,1.893.574-2.111,3.826,1.821.84-1.351,3.5,1.392-3.486-2.275-1.21,1.343Z" transform="translate(-3043.971 -614.627)" fill="#fff"/>
                    <path id="Path_1555" data-name="Path 1555" d="M3059.473,621.737l-1.336-5.181-1.84.348-.483-2.483-1.472.516.379,3.832,2.605-1.3,1.579,5.41,2.085-.36,1.717,4.706-.828-5.476Z" transform="translate(-3044.162 -614.421)" fill="#fff"/>
                  </g>
                </g>
                <g id="Group_1008" data-name="Group 1008" transform="translate(48.079 39.71)">
                  <g id="Group_1006" data-name="Group 1006">
                    <path id="Path_1556" data-name="Path 1556" d="M3121.862,707.359c2.29-3.721,17.617-18.826,45.139-45.624l-19.272-14.424c-25.567,27.089-42.42,49.268-49.962,52.077-1.887.7-10.246,6.073-11.751,7.173-6.3,4.6-8.511,7.924-16.741,10.089,0,0-6.391.006-9.778.927,0,0-4.209-.135-5.624,0s-1.024,3.605.453,4.12c0,0-1.415,1.988,1.73,2.889,0,0-.789,2.645,3.22,2.337,0,0-.616,3.485,4.925,2.484,0,0-1.74,3.307,6.422,1.676,0,0,4.585,1.569,6.4,2.328,3.511,1.473,8.031.764,11.919-2.992s8.905-5.143,14.377-5.785,12.713,3.122,16.228-3.219S3120.856,708.993,3121.862,707.359Z" transform="translate(-3052.993 -647.311)" fill="#f9cfcc"/>
                    <path id="Path_1557" data-name="Path 1557" d="M3085.338,730.443c2.928-1.389,4.76-4.246,7.7-5.6,3.265-1.506,7.019-1.749,10.524-2.314a59.719,59.719,0,0,0,9.633-2.809c4.386-1.491,6.117-10.057,7.235-12.925h0a3,3,0,0,1,.243-.565c1.313-2.446,6.466-8.148,7.945-10.369,3.047-4.574,8.843-11.983,33.228-37.79l5.184,3.879c-26.429,26.174-39.45,38.86-43.208,43.415a11.421,11.421,0,0,0-1.817,2.68.158.158,0,0,0-.1-.175c.047.122.08.193.1.175.165,6.5,0,9.711-2.136,13.573-3.515,6.34-10.757,2.577-16.228,3.219s-10.49,2.029-14.377,5.785-8.407,4.465-11.919,2.992c-1.364-.572-5.03-1.854-6.4-2.328C3075.409,730.5,3081.122,732.442,3085.338,730.443Z" transform="translate(-3053.323 -647.509)" fill="#eab8b7"/>
                    <path id="Path_1558" data-name="Path 1558" d="M3064.666,720.815c-.076-.015-3.487-1.382-10.422,2.015a.229.229,0,0,0-.105.11,1.335,1.335,0,0,0,.186.09,1.433,1.433,0,0,1,.556-.138,1.591,1.591,0,0,1,.325.015c6.571-2.879,9.3-1.64,9.372-1.628a.236.236,0,0,0,.088-.464Z" transform="translate(-3053.014 -648.658)" fill="#db8882"/>
                    <path id="Path_1559" data-name="Path 1559" d="M3065.46,723.19c-.08-.014-3.972-1.318-9.487,2.592a.232.232,0,0,0-.086.125c.072.024.144.046.222.069l0,.009a1.4,1.4,0,0,1,.792-.3c.031,0,.059,0,.09,0,5.3-3.194,8.315-2.046,8.389-2.032a.24.24,0,0,0,.275-.192A.237.237,0,0,0,3065.46,723.19Z" transform="translate(-3053.046 -648.703)" fill="#db8882"/>
                    <path id="Path_1560" data-name="Path 1560" d="M3067.245,725.584a8.928,8.928,0,0,0-8.017,2.6.233.233,0,0,0-.072.186c.077,0,.152-.007.233-.013l0,.014a1.3,1.3,0,0,1,.981-.5c3.858-2.707,6.753-1.826,6.822-1.817a.237.237,0,0,0,.055-.47Z" transform="translate(-3053.106 -648.748)" fill="#db8882"/>
                    <path id="Path_1561" data-name="Path 1561" d="M3070.944,728.678a8.1,8.1,0,0,0-6.7,2.055.23.23,0,0,0-.062.2c.077-.013.15-.023.229-.037l-.006.012a1.324,1.324,0,0,1,.759-.332,8.325,8.325,0,0,1,5.717-1.435.236.236,0,1,0,.068-.467Z" transform="translate(-3053.199 -648.806)" fill="#db8882"/>
                  </g>
                  <g id="Group_1007" data-name="Group 1007" transform="translate(13.267 28.218)">
                    <path id="Path_1562" data-name="Path 1562" d="M3093.194,680.938l-2.54-.654,1.062-4.218q-1.089-.016-2.172,0l-2,5.644,4.075-.1-1.217,7.8,2.857.783-.624,6.986,2.21-7.433L3091.8,688.3Z" transform="translate(-3066.896 -676.058)" fill="#fff"/>
                    <path id="Path_1563" data-name="Path 1563" d="M3070.1,705.836l-.382,1.934-3.211-.616c.022.546.055,1.089.093,1.63l4.321,1.257-.248-3.054,5.9.579.465-2.177,5.27.169-5.673-1.339-.956,2.344Z" transform="translate(-3066.509 -676.576)" fill="#fff"/>
                    <path id="Path_1564" data-name="Path 1564" d="M3086.407,699.182l-4.5-5.382-2.574,1.466-4.652-6.374-2.813,2.948-3.7-7.757,1.583-.981,3.306,5.532,2.258-1.333,4.222,6.189,3.175-1.127Z" transform="translate(-3066.54 -676.188)" fill="#fff"/>
                  </g>
                </g>
                <path id="Path_1565" data-name="Path 1565" d="M3103.072,697.461q-1.09.9-2.047,1.555" transform="translate(-3005.797 -608.524)" fill="none" stroke="#000" stroke-linecap="round" stroke-linejoin="round" stroke-width="2"/>
                <path id="Path_1566" data-name="Path 1566" d="M3123.055,707.359c2.29-3.721,17.617-18.826,45.139-45.624l-19.272-14.424c-12.432,13.172-22.8,25.183-31.046,34.371" transform="translate(-3006.107 -607.601)" fill="none" stroke="#000" stroke-linecap="round" stroke-linejoin="round" stroke-width="2"/>
                <path id="Path_1567" data-name="Path 1567" d="M3097.767,700.364c-1.887.7-10.246,6.073-11.751,7.173-6.3,4.6-8.511,7.924-16.741,10.089,0,0-6.391.006-9.778.927,0,0-4.209-.134-5.624,0s-1.024,3.605.453,4.12c0,0-1.415,1.988,1.73,2.889,0,0-.789,2.645,3.22,2.337,0,0-.616,3.485,4.925,2.484,0,0-1.74,3.307,6.422,1.676,0,0,4.585,1.569,6.4,2.328,3.511,1.473,8.031.764,11.919-2.992s8.905-5.143,14.377-5.785,12.713,3.122,16.228-3.219a17.086,17.086,0,0,0,2.064-7.527" transform="translate(-3004.914 -608.577)" fill="none" stroke="#000" stroke-linecap="round" stroke-linejoin="round" stroke-width="2"/>
              </g>
            </g>
            <path id="Path_1568" data-name="Path 1568" d="M3027.191,751.488q-1.319-.935-2.6-1.918" transform="translate(-2955.597 -560.687)" fill="none" stroke="#0d0d0c" stroke-linecap="round" stroke-linejoin="round" stroke-width="3"/>
            <path id="Path_1569" data-name="Path 1569" d="M3015.15,738.939a85.348,85.348,0,1,1,16.563,13.047" transform="translate(-2954.968 -557.812)" fill="none" stroke="#0d0d0c" stroke-linecap="round" stroke-linejoin="round" stroke-width="3"/>
            <path id="Path_1570" data-name="Path 1570" d="M3140.052,645.479a72,72,0,1,1-10.136-14.618" transform="translate(-2955.218 -558.062)" fill="none" stroke="#0d0d0c" stroke-linecap="round" stroke-linejoin="round" stroke-width="3"/>
          </g>
        </g>
      </g>
    </g>
  </g>
</svg>
