<svg xmlns="http://www.w3.org/2000/svg" xmlns:xlink="http://www.w3.org/1999/xlink" width="1920" height="1414" viewBox="0 0 1920 1414">
  <defs>
    <clipPath id="clip-path">
      <rect id="Rectangle_170" data-name="Rectangle 170" width="1920" height="1414" transform="translate(0 -94)" fill="#fff" stroke="#707070" stroke-width="1"/>
    </clipPath>
  </defs>
  <g id="กฟห" transform="translate(0 94)" clip-path="url(#clip-path)">
    <g id="Group_2446" data-name="Group 2446" transform="translate(-13734.644 18364.598)">
      <path id="Path" d="M5716.315,1162.47l55.437-114.175,173.086-156.39,72.644-110.592,183.858-53.64-13.782-88.1s10.336-74.768,93-135.628,218.85-62.214,218.85-62.214l127.762-22.148s77.644,20.758,105.155,48.543,72.466,98.817,72.466,98.817S6957,665.648,7000.556,705.8s57.314,152.63,57.314,152.63L7041.822,951.1l-113.481,85.979L6868,1145.719" transform="translate(8512.273 -18353.805)" fill="none" stroke="#fff" stroke-miterlimit="10" stroke-width="35"/>
      <g id="Group_1506" data-name="Group 1506" transform="translate(14669.567 -18458.621)">
        <g id="Group_1497" data-name="Group 1497" transform="translate(0)">
          <circle id="Ellipse_119" data-name="Ellipse 119" cx="220.507" cy="220.507" r="220.507"/>
        </g>
        <g id="Group_1505" data-name="Group 1505" transform="translate(37.789 37.7)">
          <g id="Group_1498" data-name="Group 1498" transform="translate(4.763)">
            <circle id="Ellipse_120" data-name="Ellipse 120" cx="203.598" cy="203.598" r="203.598" fill="#fff"/>
          </g>
          <g id="Group_1499" data-name="Group 1499" transform="translate(55.276 50.513)">
            <circle id="Ellipse_121" data-name="Ellipse 121" cx="153.084" cy="153.084" r="153.084" transform="translate(0 0)" fill="#c9d6e8"/>
          </g>
          <g id="Group_1500" data-name="Group 1500" transform="translate(41.59 36.828)">
            <path id="Path_2963" data-name="Path 2963" d="M1242.314,282.452q-6.477,3.056-13.072,5.512" transform="translate(-1004.379 35.099)" fill="none" stroke="#0d0d0c" stroke-linecap="round" stroke-linejoin="round" stroke-width="2"/>
            <path id="Path_2964" data-name="Path 2964" d="M1180.844,287.847A166.778,166.778,0,1,1,1321.8,176.4" transform="translate(-997.461 44.869)" fill="none" stroke="#0d0d0c" stroke-linecap="round" stroke-linejoin="round" stroke-width="2"/>
          </g>
          <path id="Path_2965" data-name="Path 2965" d="M1028.952,185.944c-53.224-62.075-39.6-146.825,5.8-186.037,33.18-28.655,79.341-35.38,103.583-28.161,0,0,19.633-8.007,66.941.552s78.15,59.4,87.443,98.373Z" transform="translate(-955.783 81.303)" fill="#080b0a"/>
          <g id="Group_1504" data-name="Group 1504" transform="translate(0 17.294)">
            <circle id="Ellipse_122" data-name="Ellipse 122" cx="124.01" cy="124.01" r="124.01" transform="translate(29.04 200.029) rotate(-45)" fill="#fdd89b"/>
            <path id="Path_2966" data-name="Path 2966" d="M1275.73,96.658c11.787,38.967,4.927,83.658-20.177,115.668s-68.471,49.508-108.439,41.38c-18.72-3.807-36.1-12.743-51.669-23.811-15.968-11.355-30.434-25.247-40.285-42.162-16.523-28.374-18.575-64.645-5.353-94.638,15.556-35.288,50.483-59.78,88.062-68.792,38.857-9.318,83.584-2.057,111.619,26.436C1261.982,63.437,1270.578,79.629,1275.73,96.658Z" transform="translate(-957.175 62.452)" fill="#c78c50"/>
            <g id="Group_1502" data-name="Group 1502" transform="translate(91.102 112.666)">
              <path id="Path_2967" data-name="Path 2967" d="M1249.251,64a2.5,2.5,0,1,1-1.511-3.2A2.5,2.5,0,0,1,1249.251,64Z" transform="translate(-1054.344 -51.413)" fill="#f79922"/>
              <path id="Path_2968" data-name="Path 2968" d="M1196.672,90.282a2.5,2.5,0,1,1-1.51-3.2A2.5,2.5,0,0,1,1196.672,90.282Z" transform="translate(-1052.774 -52.198)" fill="#f79922"/>
              <circle id="Ellipse_123" data-name="Ellipse 123" cx="0.748" cy="0.748" r="0.748" transform="translate(175.834 35.116)" fill="#f79922"/>
              <circle id="Ellipse_124" data-name="Ellipse 124" cx="1.831" cy="1.831" r="1.831" transform="translate(191.832 56.051)" fill="#f79922"/>
              <g id="Group_1501" data-name="Group 1501" transform="translate(43.101 93.843)">
                <circle id="Ellipse_125" data-name="Ellipse 125" cx="3.563" cy="3.563" r="3.563" fill="#f79922"/>
              </g>
              <circle id="Ellipse_126" data-name="Ellipse 126" cx="2.253" cy="2.253" r="2.253" transform="translate(189.085 128.635)" fill="#f79922"/>
              <circle id="Ellipse_127" data-name="Ellipse 127" cx="3.778" cy="3.778" r="3.778" transform="translate(151.501 136.376)" fill="#f79922"/>
              <path id="Path_2969" data-name="Path 2969" d="M1112.6,201.691a2.929,2.929,0,1,1-1.768-3.746A2.929,2.929,0,0,1,1112.6,201.691Z" transform="translate(-1050.24 -55.506)" fill="#f79922"/>
              <path id="Path_2970" data-name="Path 2970" d="M1148.255,193.058a1.366,1.366,0,1,1-.825-1.745A1.366,1.366,0,0,1,1148.255,193.058Z" transform="translate(-1051.395 -55.311)" fill="#f79922"/>
              <circle id="Ellipse_128" data-name="Ellipse 128" cx="4.113" cy="4.113" r="4.113" transform="translate(25.916 58.706)" fill="#f79922"/>
              <circle id="Ellipse_129" data-name="Ellipse 129" cx="1.87" cy="1.87" r="1.87" transform="translate(124.49 1.498)" fill="#f79922"/>
              <circle id="Ellipse_130" data-name="Ellipse 130" cx="4.487" cy="4.487" r="4.487" transform="translate(53.618 0)" fill="#f79922"/>
              <path id="Path_2971" data-name="Path 2971" d="M1213.28,59.676l-1.193-.428-1.194-.428,1.194.428Z" transform="translate(-1053.344 -51.358)" fill="#f79922"/>
              <path id="Path_2972" data-name="Path 2972" d="M1255.419,171.221a2.942,2.942,0,1,1-1.776-3.762A2.943,2.943,0,0,1,1255.419,171.221Z" transform="translate(-1054.502 -54.596)" fill="#f79922"/>
              <circle id="Ellipse_131" data-name="Ellipse 131" cx="2.253" cy="2.253" r="2.253" transform="translate(153.099 98.002)" fill="#f79922"/>
              <circle id="Ellipse_132" data-name="Ellipse 132" cx="2.253" cy="2.253" r="2.253" transform="translate(74.944 38.201)" fill="#f79922"/>
              <path id="Path_2973" data-name="Path 2973" d="M1218.326,139.645a2.942,2.942,0,1,1-1.775-3.762A2.941,2.941,0,0,1,1218.326,139.645Z" transform="translate(-1053.395 -53.654)" fill="#f79922"/>
              <circle id="Ellipse_133" data-name="Ellipse 133" cx="4.721" cy="4.721" r="4.721" transform="translate(108.45 170.334)" fill="#f79922"/>
              <circle id="Ellipse_134" data-name="Ellipse 134" cx="2.618" cy="2.618" r="2.618" transform="translate(12.841 135.151)" fill="#fcb830"/>
              <path id="Path_2974" data-name="Path 2974" d="M1055.647,161.719a3.683,3.683,0,1,1-2.224-4.71A3.683,3.683,0,0,1,1055.647,161.719Z" transform="translate(-1048.496 -54.283)" fill="#fcb830"/>
              <circle id="Ellipse_135" data-name="Ellipse 135" cx="1.464" cy="1.464" r="1.464" transform="translate(5.869 123.425)" fill="#fcb830"/>
              <circle id="Ellipse_136" data-name="Ellipse 136" cx="1.683" cy="1.683" r="1.683" transform="translate(221.393 40.729)" fill="#fcb830"/>
            </g>
            <circle id="Ellipse_137" data-name="Ellipse 137" cx="124.01" cy="124.01" r="124.01" transform="translate(44.417 175.377) rotate(-45)" fill="#fdd89b"/>
            <path id="Path_2975" data-name="Path 2975" d="M1291.58,71.249c11.787,38.967,4.927,83.657-20.176,115.667s-68.472,49.508-108.44,41.381c-18.72-3.807-36.1-12.743-51.668-23.812-15.969-11.355-30.435-25.246-40.285-42.162-16.525-28.374-18.576-64.645-5.354-94.638C1081.212,32.4,1116.14,7.9,1153.717-1.107c38.856-9.319,83.584-2.057,111.619,26.435C1277.832,38.028,1286.428,54.219,1291.58,71.249Z" transform="translate(-957.648 63.211)" fill="#c78c50"/>
            <path id="Path_2976" data-name="Path 2976" d="M1254.673,43.131c16.117,18.667,28.9,40.182,33.21,64.778a154.381,154.381,0,0,1,1.364,42.855c.011-.037.024-.072.036-.108,9.243-30.6,5.873-64.245-6.128-93.876-6.369-15.723-15.517-30.944-29.45-40.621-12.1-8.4-26.884-12-41.487-13.911-.859-.113-1.723-.2-2.584-.3C1226.725,13.065,1242.256,28.75,1254.673,43.131Z" transform="translate(-962.204 63.006)" fill="#fdd89b"/>
            <path id="Path_2977" data-name="Path 2977" d="M1253.782,165.475A127.132,127.132,0,0,0,1159.219-2.187c-1.841.363-3.683.726-5.5,1.162-37.578,9.012-72.505,33.5-88.062,68.791-13.222,29.993-11.17,66.264,5.354,94.638,9.85,16.915,24.316,30.807,40.285,42.162,15.566,11.069,32.948,20.005,51.668,23.811a103.758,103.758,0,0,0,42.251-.463A126.566,126.566,0,0,0,1253.782,165.475Z" transform="translate(-957.648 63.129)" fill="#080b0a"/>
            <path id="Path_2978" data-name="Path 2978" d="M1207.2,234.626c-10.787,2.409-18.187,4.132-19.192,8.076,0,0-30.915,13.635-64.61,4.084l69.21-24.166Z" transform="translate(-959.63 56.418)" fill="#080b0a"/>
            <g id="Group_1503" data-name="Group 1503" transform="translate(0 4.334)">
              <circle id="Ellipse_138" data-name="Ellipse 138" cx="124.01" cy="124.01" r="124.01" transform="translate(0 175.377) rotate(-45)" fill="#fdd89b"/>
              <path id="Path_2979" data-name="Path 2979" d="M1245.8,75.715c11.788,38.967,4.927,83.658-20.176,115.668s-68.471,49.508-108.44,41.38c-18.719-3.807-36.1-12.743-51.668-23.811-15.968-11.355-30.434-25.247-40.285-42.162-16.524-28.374-18.576-64.645-5.353-94.638,15.556-35.287,50.483-59.78,88.062-68.792,38.857-9.318,83.584-2.056,111.619,26.436C1232.048,42.494,1240.644,58.686,1245.8,75.715Z" transform="translate(-956.281 58.744)" fill="#c78c50"/>
              <path id="Path_2980" data-name="Path 2980" d="M1108.948,30.082a23.313,23.313,0,0,0-4.573,3.591c-3.635,3.626-6.87,7.9-11.519,10.084-7.335,3.439-16.092.755-24,2.5A21.7,21.7,0,0,0,1053.567,76c4.972,11.609,15.329,19.237,10.061,33.3-4.421,11.8-16.868,21.859-13.183,35.772,2.465,9.311,11.984,14.748,20.915,18.36s18.8,6.914,24.268,14.841c3.379,4.893,4.593,10.933,7.154,16.3s7.421,10.5,13.361,10.209c6.4-.309,10.679-6.488,16.093-9.923,6.038-3.83,13.635-4.2,20.757-3.564s14.218,2.169,21.353,1.706,14.618-3.364,18.312-9.486c5.8-9.625.012-17.859-1.517-27.3a29.2,29.2,0,0,1,6.523-23.565c3.436-3.937,7.886-6.853,11.585-10.547s6.743-8.645,6.163-13.839c-.72-6.448-6.574-10.931-12.029-14.443s-11.494-7.486-13.006-13.795c-1.317-5.491,1.238-11.1,1.767-16.719A23.368,23.368,0,0,0,1159.5,39.714c-3.723,1.632-6.975,4.213-10.722,5.79-12.314,5.178-15.8-6.316-22.744-13.345C1120.737,26.8,1114.484,26.816,1108.948,30.082Z" transform="translate(-957.432 57.899)" fill="#fafafa"/>
              <path id="Path_2981" data-name="Path 2981" d="M1197.2,129.692a25.877,25.877,0,0,0-6.123,29.387c-6.026-2.268-7.665-10.4-5.7-16.528s6.38-11.138,9.283-16.885,4-13.374-.334-18.139c-2.557-2.813-6.44-3.986-9.449-6.31-6-4.636-7.6-13.021-7.509-20.606s1.4-15.326-.552-22.656-8.646-14.234-16.135-13.037a19.7,19.7,0,0,1,31.1,14.409c.381,4.642-.887,9.27-.858,13.928a25.361,25.361,0,0,0,7.787,17.99c3.153,3,7.031,5.124,10.359,7.926s6.222,6.636,6.264,10.987c.046,4.629-3.142,8.7-6.789,11.548S1200.666,126.62,1197.2,129.692Z" transform="translate(-960.743 57.497)" fill="#c9d6e8"/>
              <path id="Path_2982" data-name="Path 2982" d="M1057.41,60.107c.959-4.963,5.761-8.362,10.647-9.66s10.035-1.02,15.057-1.592a44.991,44.991,0,0,0,29.153-15.742c-2.183,5.006-4.4,10.065-7.716,14.4s-7.9,7.946-13.262,8.988c-5.871,1.143-11.833-.864-17.762-1.654S1060.574,55.031,1057.41,60.107Z" transform="translate(-957.66 57.741)" fill="#c9d6e8"/>
              <path id="Path_2983" data-name="Path 2983" d="M1105.637,191.945c1.324,3.224,2.291,6.638,4.214,9.543s5.111,5.3,8.588,5.074c4.832-.311,7.848-5.131,11.439-8.38a20.83,20.83,0,0,1,20.577-4.066c-2.538-3.3-7.366-3.967-11.413-2.993s-7.636,3.248-11.447,4.92-8.232,2.733-12.091,1.177c-5.581-2.251-7.75-8.787-10.741-14.009a35.25,35.25,0,0,0-28.32-17.361A45.556,45.556,0,0,1,1105.637,191.945Z" transform="translate(-958.228 53.779)" fill="#c9d6e8"/>
            </g>
          </g>
        </g>
      </g>
      <g id="Group_1507" data-name="Group 1507" transform="translate(14428.108 -17843.184)">
        <path id="Path_2984" data-name="Path 2984" d="M674.039,598.8l-.857-3.338s-.794-.784,2.5-1.826l50.988-14.661s.923-1.026-3.671-.441L672.73,589.846s-1.606-.577-2.056-4.019l52.37-14.816s3.657-1.927-.519-1.251l-52.877,12.377s-2.145-4.194.128-4.579l52.8-15.324s2.2-2.937-8.734.66l-45.212,10.213s-3.586-1.649-.861-4.127l51.065-17.447s21.327-5.47,28.089-.682c0,0,11.594,5.129,14.746,4.321L836.5,534.794l75.516-20.754s14.333-3.818,17.243,1.366c0,0,4.557,8.516-.389,12.354L833.334,549.44,764.942,565.6a18.892,18.892,0,0,0-8.307,8.455,34.053,34.053,0,0,1-19.471,12.7s-37.552,10.027-53.519,10.961Z" transform="translate(-666.751 -512.685)"/>
        <path id="Path_2985" data-name="Path 2985" d="M684.64,602.639l-.857-3.338s-.795-.785,2.5-1.827l50.989-14.66s.923-1.027-3.671-.441l-50.266,11.312s-1.606-.576-2.057-4.018l52.37-14.817s3.656-1.926-.518-1.251l-52.878,12.378s-2.144-4.194.129-4.579l52.8-15.323s2.2-2.937-8.734.659l-45.212,10.214s-3.586-1.649-.861-4.127l51.065-17.447s21.327-5.471,28.09-.683c0,0,11.593,5.13,14.746,4.322L847.1,538.632l75.516-20.753s6.99-3.572,9.9,1.61c0,0,4.557,8.517-.388,12.355l-88.189,21.435-68.394,16.16a18.891,18.891,0,0,0-8.306,8.456,34.057,34.057,0,0,1-19.471,12.7s-37.552,10.027-53.519,10.961Z" transform="translate(-667.068 -512.804)" fill="#fff"/>
        <path id="Path_2986" data-name="Path 2986" d="M776.236,570.131s-2.921-2.143-2.855-4.2a44.428,44.428,0,0,1,.536-4.843s-11.1-2.048-12.49-3.615c0,0,4,4.607,4.405,8.505,0,0,2.18,9.076.682,14.8,0,0,2.928-5.346,4.558-6.506C771.073,574.271,775.022,569.289,776.236,570.131Z" transform="translate(-669.577 -514.022)" fill="#c9d6e8"/>
        <path id="Path_2987" data-name="Path 2987" d="M933.885,529.809s4.129-6.84-2.925-11.405L774.3,559.924l-.21,1.4,150.321-39.754s6.41-2.386,7.7,1.286C932.1,522.854,934.448,526.4,933.885,529.809Z" transform="translate(-669.955 -512.856)" fill="#c9d6e8"/>
        <path id="Path_2988" data-name="Path 2988" d="M677.367,575.907s1.4,2.231,2.7,1.9l45.813-10.565,3.8-.975s3.167-.979,3.632.566c0,0-1.593-.271-10.924,1.838l-35.3,7.975-7.853,1.774S676.836,577.025,677.367,575.907Z" transform="translate(-667.066 -514.275)" fill="#fff"/>
      </g>
      <g id="Group_1508" data-name="Group 1508" transform="translate(15207.369 -18284.953)">
        <ellipse id="Ellipse_139" data-name="Ellipse 139" cx="68.673" cy="73.632" rx="68.673" ry="73.632" transform="matrix(0.841, -0.541, 0.541, 0.841, 0, 74.341)"/>
        <path id="Path_2989" data-name="Path 2989" d="M1614.4,220.419a65.216,65.216,0,1,1,19.537-90.136A65.217,65.217,0,0,1,1614.4,220.419Z" transform="translate(-1471.299 -58.607)" fill="#fff"/>
        <path id="Path_2990" data-name="Path 2990" d="M1627.455,134.5a57.021,57.021,0,0,0-32.935-24.2c-6.446-1.771-13.093-2.206-19.583-3.686a10.565,10.565,0,0,1-4.2-1.688,4.085,4.085,0,0,1-1.683-3.976,2.262,2.262,0,0,0,.141-1.191c-.259-.8-1.406-.726-2.2-.456-8.938,3.042-15.6,10.422-21.7,17.634-6.7,7.936-14.017,15.639-18.286,25.236a57.257,57.257,0,1,0,100.442-7.675Z" transform="translate(-1471.544 -58.57)" fill="#fdd89b"/>
        <path id="Path_2991" data-name="Path 2991" d="M1617.758,213.619a57.048,57.048,0,0,0,5.352-4.813" transform="translate(-1474.4 -61.845)" fill="none" stroke="#0d0d0c" stroke-linecap="round" stroke-linejoin="round" stroke-width="2"/>
        <path id="Path_2992" data-name="Path 2992" d="M1545.3,117.487c-6.7,7.936-14.017,15.639-18.286,25.237a57.264,57.264,0,0,0,78.208,74.378" transform="translate(-1471.544 -59.119)" fill="none" stroke="#0d0d0c" stroke-linecap="round" stroke-linejoin="round" stroke-width="2"/>
        <path id="Path_2993" data-name="Path 2993" d="M1637.542,174.334a57.2,57.2,0,0,0-41.4-63.8c-6.446-1.771-13.093-2.206-19.583-3.686" transform="translate(-1473.17 -58.801)" fill="none" stroke="#0d0d0c" stroke-linecap="round" stroke-linejoin="round" stroke-width="2"/>
        <path id="Path_2994" data-name="Path 2994" d="M1604.594,191.41a50.293,50.293,0,0,1-16.329,6.885,3.973,3.973,0,0,0-1.929.819,1.3,1.3,0,0,0-.094,1.871,1.844,1.844,0,0,0,1.1.277,98.356,98.356,0,0,0,19.393-1.652,26.9,26.9,0,0,0,8.381-2.413c5.573-2.989,8.574-9.479,8.987-15.791s-1.36-12.546-3.264-18.577c-.972.053-1.3,1.307-1.386,2.277-.694,7.394-3.309,14.87-8.274,20.587A33.055,33.055,0,0,1,1604.594,191.41Z" transform="translate(-1473.448 -60.472)" fill="#edc080"/>
        <path id="Path_2995" data-name="Path 2995" d="M1550,157.759c-.008-.088-.016-.177-.026-.265-4.291,3.132-6.189,8.323-7.633,13.225a25.414,25.414,0,0,0-1.223,9.256c.195,2.33.74,6.334,2.572,7.977a2.283,2.283,0,0,0,2.624.428,3.366,3.366,0,0,0,1.156-2.621c.28-2.435.514-4.875.748-7.316q.833-8.7,1.665-17.395A18.386,18.386,0,0,0,1550,157.759Z" transform="translate(-1472.11 -60.313)" fill="#edc080"/>
        <path id="Path_2996" data-name="Path 2996" d="M1603.867,128.26c-.354-.018-1.724-1.9-2.01-2.164a26.394,26.394,0,0,0-6.474-4.43c-8.082-3.938-17.262-2.975-25.933-2.5a30.927,30.927,0,0,0-4,.392,1.089,1.089,0,0,0-.581.237c-.393.381-.062,1.04.3,1.455,5.574,6.458,14.039,5.72,21.777,6.127Z" transform="translate(-1472.816 -59.155)" fill="#edc080"/>
        <path id="Path_2997" data-name="Path 2997" d="M1528.849,164.94c-.666,9.116,1.849,18.347,6.085,26.4a2.382,2.382,0,0,0,.757.968.842.842,0,0,0,1.117-.138,1.215,1.215,0,0,0,.156-.556c.369-3.213-.6-6.187-1.148-9.375q-.94-5.517-1.45-11.1t-.585-11.174c-.015-1.066-.446-10.581.26-10.8C1529.926,150.446,1529.113,161.311,1528.849,164.94Z" transform="translate(-1471.742 -60.064)" fill="#edc080"/>
        <path id="Path_2998" data-name="Path 2998" d="M1550.882,128.437a24.237,24.237,0,0,1-1.078,3.418,7.322,7.322,0,0,1-1.363,2.324c-2.352,2.494-4.16.476-3.752-2.155a23.6,23.6,0,0,1,2.223-5.951,15.4,15.4,0,0,1,4.387-5.854c.163-.127.38-.255.564-.159s.2.378.179.6A60.056,60.056,0,0,1,1550.882,128.437Z" transform="translate(-1472.217 -59.195)" fill="#edc080"/>
      </g>
      <g id="Group_1510" data-name="Group 1510" transform="translate(15365.593 -17976.414)">
        <path id="Path_2999" data-name="Path 2999" d="M1657.089,494.558l-24.008-114.51,164.832,124.2Z" transform="translate(-1633.081 -375.494)"/>
        <g id="Group_1509" data-name="Group 1509" transform="translate(24.008)">
          <path id="Path_3000" data-name="Path 3000" d="M1736.877,545.715l55.046-122.955-79.908-47.406-54.187,119.065Z" transform="translate(-1657.827 -375.354)" fill="#ed759d"/>
          <path id="Path_3001" data-name="Path 3001" d="M1699.588,498.844l29.651-64.3-13.347-4.661,6.419-13.92,30.345,11.006-37.148,80.559Z" transform="translate(-1659.074 -376.566)" fill="#fff"/>
          <path id="Path_3002" data-name="Path 3002" d="M1794.355,424.219l6.728,81.35-61.774,41.605Z" transform="translate(-1660.26 -376.812)" fill="#a52959"/>
          <path id="Path_3003" data-name="Path 3003" d="M1739.31,547.174l42.857-55.776,12.189-67.179Z" transform="translate(-1660.26 -376.812)"/>
          <path id="Path_3004" data-name="Path 3004" d="M1802.173,505.569,1775.8,485.7l19.645-61.478Z" transform="translate(-1661.349 -376.812)"/>
        </g>
      </g>
      <g id="Group_1512" data-name="Group 1512" transform="translate(14411.025 -18294.219)">
        <path id="Path_3005" data-name="Path 3005" d="M703.508,179.028,649.143,97.914,742.53,47.771l101.8,121.564Z" transform="translate(-649.143 -47.771)"/>
        <g id="Group_1511" data-name="Group 1511" transform="translate(54.366 2.5)">
          <path id="Path_3006" data-name="Path 3006" d="M767.162,220.71,712.117,97.755l79.908-47.406,54.187,119.065Z" transform="translate(-705.388 -50.348)" fill="#ed759d"/>
          <path id="Path_3007" data-name="Path 3007" d="M711.909,99.213l-6.728,81.35,61.774,41.605Z" transform="translate(-705.181 -51.807)" fill="#a52959"/>
          <path id="Path_3008" data-name="Path 3008" d="M711.909,99.213l16.506,65.728-23.234,15.622,25.891-8.22,35.883,49.825Z" transform="translate(-705.181 -51.807)"/>
        </g>
        <path id="Path_3009" data-name="Path 3009" d="M773.117,189.54l-3.483-8.047a62.167,62.167,0,0,1,2.646-17.743q2.616-8.734,6.191-17.949,2.654-6.972,4.324-11.512a56.589,56.589,0,0,0,2.332-7.717,18.547,18.547,0,0,0,.34-5.933,22.536,22.536,0,0,0-1.822-6.226q-4.983-11.514-18.685-3.529a52.911,52.911,0,0,0-8.776,6.432,73.738,73.738,0,0,0-7.562,7.9l-6.376-14.734a73.463,73.463,0,0,1,9.179-8.527,90.925,90.925,0,0,1,10.8-7.459q13-7.579,22.54-4.531t14.625,14.81a28.543,28.543,0,0,1,2.254,16.128,81.286,81.286,0,0,1-4.91,17.047q-2.833,7.233-5.334,13.883a62.672,62.672,0,0,0-3.423,12.924l30.54-17.8,5.572,12.877Z" transform="translate(-651.922 -49.005)" fill="#fff"/>
      </g>
      <g id="Group_1520" data-name="Group 1520" transform="translate(14210.234 -17605.438)" opacity="0">
        <path id="Path_2958" data-name="Path 2958" d="M501.33,1173.184l-31.714-15.4L526.953,1039.7,702.168,881.383l75.5-114.936,61.239-17.9,17.32,31.473L800,796.654l-70.85,107.859L555.674,1061.26Z" transform="translate(-469.616 -748.747)" fill="#c9d6e8"/>
      </g>
      <g id="Group_2445" data-name="Group 2445" transform="translate(13741.904 -18354.402)">
        <path id="Path_3010" data-name="Path 3010" d="M607.03,1260.194c-15.046,18.2-24.555,2.472-33.228-42.416S567.491,1130.76,653.44,1061s117.951-116.845,141.6-149.212,18.3-50.345,43.471-69.179,61.591-29.764,69.992-29.906,38.781,7.766,38.781,7.766l15.316,6.675,47.267,18.333-55.609,2.288-16.709,11.362s21.372-.01,34.206,1.407,41.98,8.808,41.98,8.808l-7.317,3.51-48.176,9.867s-26.506,21.905-27.359,22.307,2.246,3.285,8.776.551,33.273-4.215,37.966-.182l-8.3,6.69-81.1,32.891-54.6,51.492-30.265,84.149s14.565-16.274,26.123-16.334,77.7-23.135,122.445-61.765,129.5-50.359,129.5-50.359-26.339-22.6-30.846-58.667c-2.176-17.412-1.088-40.039-1.088-40.039s-20.162-10.876-27.347-32.974c-4.134-12.712,9.084-26.938,9.6-20.4,1.969,24.792,13.247,17.265,13.247,17.265s-10.1-22.881,5.084-38.817,2.134-23.216,2.134-23.216-37.807-51.665-22.955-99.7c27.515-88.992,117.609-118.013,172.445-123.795,64.456-6.8,86.69,23.041,86.69,23.041l9.068,10.319s-19.006-4.47-24.552-14.945,23.864-7.671,23.864-7.671l62.5,5.607s-13.8-17.466-31.74-17.17-28.516,2.468-36.939-1.53-5.021-9.028.681-13.657,56.447-3.9,56.447-3.9l-28.352-4.346,20.788-17.762,123.61,69.876-61.326,37.239-78.973,31.94-28.836,118.4-47.546,165.053s86.409-33.671,74.631-19.553,14.787,31.124,20.6,31.162,34.788-19.084,51.644-26.576,102.284-54.3,122.351-62.844,25.238-10.521,25.238-10.521-27.369-19.524-56.2-87.484-58.139-98.619-58.139-98.619-44.771-14.355-56.393-20.324-4.744-15.011-4.744-15.011l36.768,2.345,96.722,21.308,159.079,169.632,8.7,87.657L1041.663,1199.5Z"/>
        <g id="Group_1518" data-name="Group 1518">
          <g id="Group_1517" data-name="Group 1517">
            <path id="Path_3011" data-name="Path 3011" d="M1487.279,569.334c-10.279-27.186-32.812-55.071-44.544-63.607s-39.546-25.35-45.8-27.6-30.656,1.158-32.669,4.919c0,0-15.151-.582-22.773,5.563a16.194,16.194,0,0,0-6.151,14.575s-36.8,6.706-44.073,12.626,5.046,11.285,15.8,10.017,30.4-4.811,37.329-3.611,31.71,20.956,31.71,20.956-31.352-7.387-45.3-8.008-35.936,2.713-40.6,3.5-3.576,8.22,2.633,11.363,36.189,3.038,41.153,5.012,33.614,20.468,39.637,24.47a110.3,110.3,0,0,1,10.555,7.981s-11.494.51-19.459-4.212-21.18-11.481-31.753-11.072-11.937,6.709,2.237,14.575,29.049,22.178,49.528,27.211,59.089,19.488,73.307,25.764,39.921-25.734,46.452-31.915S1496.169,592.844,1487.279,569.334Z" fill="#f9cfcc"/>
            <path id="Path_3012" data-name="Path 3012" d="M1379.007,612.3c-11.63-24.861-36.169-41.354-54.107-35.013l-2.754,5.431,7.647,12.727Z"/>
            <path id="Path_3013" data-name="Path 3013" d="M1339.65,501.811c6.64-1.4,15.188-3.171,25.767,1.568s33.422,17.421,33.422,17.421" fill="none" stroke="#0d0d0c" stroke-linecap="round" stroke-linejoin="round" stroke-width="2"/>
            <path id="Path_3014" data-name="Path 3014" d="M1370.154,483.59c7.027.16,14.3,1.824,19.111,4.652s22.1,17.375,22.1,17.375" fill="none" stroke="#0d0d0c" stroke-linecap="round" stroke-linejoin="round" stroke-width="2"/>
            <path id="Path_3015" data-name="Path 3015" d="M818.212,908.624c9.078-27.611,30.365-56.458,41.712-65.5s38.4-27.06,44.544-29.585,30.678-.188,32.853,3.482c0,0,15.112-1.246,22.995,4.559a16.192,16.192,0,0,1,6.784,14.291s37.059,5.085,44.585,10.681-4.546,11.5-15.351,10.7-30.58-3.473-37.451-1.97-30.76,22.326-30.76,22.326,31-8.755,44.9-9.986,36.02,1.134,40.714,1.718,3.934,8.054-2.132,11.467-36.02,4.622-40.894,6.812-32.683,21.923-38.525,26.185a110.472,110.472,0,0,0-10.194,8.436s11.505.005,19.255-5.062,20.656-12.4,31.237-12.453,12.22,6.179-1.6,14.659-28.048,23.431-48.287,29.357S864.427,970.8,850.5,977.7s-41.012-23.958-47.807-29.847S810.362,932.5,818.212,908.624Z" fill="#f9cfcc"/>
            <path id="Path_3016" data-name="Path 3016" d="M957.929,834.91c-9.7.061-24.351,7.322-28.2,9.484s-24.6,13.429-24.6,13.429" fill="none" stroke="#0d0d0c" stroke-linecap="round" stroke-linejoin="round" stroke-width="2"/>
            <path id="Path_3017" data-name="Path 3017" d="M933.665,818.85c-9.163,1.944-39.472,17.422-46.051,21.735" fill="none" stroke="#0d0d0c" stroke-linecap="round" stroke-linejoin="round" stroke-width="2"/>
            <path id="Path_3018" data-name="Path 3018" d="M879.934,964.612c-17.718,9.746-58.356,80.358-72.255,128.865s-46.588,119.5-102.691,158.3-101.51,41.636-105.443,31.62-11.689-83.782,40.225-141.232c77.042-85.256,156.2-192.042,164.311-205.738S879.934,964.612,879.934,964.612Z" fill="#f9cfcc"/>
            <path id="Path_3019" data-name="Path 3019" d="M598.926,1281.391c4.188,19.7,84.258,35.49,185.607,13.18s253.5-66.643,253.5-66.643,27.247-193.072-.722-185.72-106.453,26.686-193.329,66.426-202.725,93.6-202.725,93.6Z" fill="#f9cfcc"/>
            <path id="Path_3020" data-name="Path 3020" d="M794.421,1131.381c-6.27,14.338-13.737,33.5-20.347,42.857,0,0,45.748,7.231,72.106,43.2s25.976,55.956,25.976,55.956l29.186-7.673-29.314-127.992-34.375-28.555-22.58,11.879Z"/>
            <path id="Path_3021" data-name="Path 3021" d="M1403.449,957.856c77.656-49.353,210.265-128.177,243.26-141.505S1753.186,851.8,1752.6,869.576s-88.567,111.387-140.983,147.109c-117.558,80.117-174.938,99.512-263.154,165.9Z" fill="#f9cfcc"/>
            <path id="Path_3022" data-name="Path 3022" d="M1585.51,842.97c37.565,1.571,51.086,154.679,51.086,154.679l-8.933,7.207-64.092-21.187.953-123.277Z"/>
            <path id="Path_3023" data-name="Path 3023" d="M1417.26,610.726c17.4,15.453,66.446,71.362,95.4,112.806,28.9,41.362,68.425,108.487,130.873,135.932s107.568,21.611,109.528,11.03,4.637-67.264-66.3-131.028c-85.461-76.816-189.81-158.9-200.376-170.809S1417.26,610.726,1417.26,610.726Z" fill="#f9cfcc"/>
            <path id="Path_3024" data-name="Path 3024" d="M1104.814,722.848c-3.1,13.719-.286,35.177.373,43.454s4.616,11.787.763,21.034-19.237,23.258-21.926,27.865,8.316,15.148,8.316,15.148.4,22.074.3,47.69,5.113,50.384,14.647,55.77,16.513,10.243,59.962,5a46.507,46.507,0,0,1-7.108,34.059c-11.237,16.6-25.069,21.387-51,26.076,0,0,33.716,59.018,141.156,59.723s127.106-85.213,127.106-85.213-52.6-14.624-62.292-21.832-18.641-37.527-10.832-63.456c0,0,45.131-24.076,73.079-77.251s3.5-168.343-83.489-187.68S1120.228,654.659,1104.814,722.848Z" fill="#f9cfcc"/>
            <path id="Path_3025" data-name="Path 3025" d="M1232.249,857.161c6.8,16.254,6.625,36.5-5.228,44.525s6.034,9.839,16.774,1.3,11.632-26.172,11.632-26.172,3.572,11.619,1.35,23.482-1.912,19.884,6.723,14.245,10.874-27.407,10.874-27.407l-16.888-26.411-21.611-20.178Z"/>
            <path id="Path_3026" data-name="Path 3026" d="M1186.983,778.926c12.658,22.891,24.785,47.211,28.366,65.993s-20.2,32.708-25.991,30.8-5.667,2.675,2.147,4.548,16.925,1.049,27.48-5.554,21.533-36.37,21.533-36.37l-30.973-60.439-12.382-36.33-14.46,5.2Z"/>
            <path id="Path_3027" data-name="Path 3027" d="M1167.951,839.251c-12.492,12.361-35.323,19.916-44.007,14.282s1.595-.058,14.177-9.24a42.485,42.485,0,0,0,16.533-42.1c-3.186-16.571-9.777-38.229-8.268-54.492s2.4-26.624,9.943-36.671,9.507-5.877,9.507-5.877l8.055,20.993Z"/>
            <path id="Path_3028" data-name="Path 3028" d="M1092.45,837.819c19.1-12.151,13.5-50.483,13.5-50.483l1.655-7.041L1123,791.76s1.519,26.047,1.285,27.026-.418,21.574-.711,22.06-24.381,17.937-24.724,17.578-6.257-6.135-6.257-6.135Z"/>
            <path id="Path_3029" data-name="Path 3029" d="M1172.557,937.877c27.635-3.31,53.063-25.044,53.063-25.044" fill="none" stroke="#db8882" stroke-linecap="round" stroke-linejoin="round" stroke-width="2"/>
            <path id="Path_3030" data-name="Path 3030" d="M1158.185,975.606c20.214,33.319,128.793,32.125,167.563-7.981l3.043-9.6,14.967,5.753s-4.144,31.51-5.1,32.426-124.181,52.094-124.181,52.094l-88-29.756,10.7-26.845s6.48-3.735,13.2-8.645S1158.185,975.606,1158.185,975.606Z"/>
            <path id="Path_3031" data-name="Path 3031" d="M1192.818,762.462c22.1,35.389,35.076,70.048,47.152,96.327s-6.4,56.17,1.3,55.782,20.995-16.4,20.995-16.4-4.675,21.516,1.2,20.212,11.93-13.019,11.93-13.019-.2,9.876,10.792.518,12.066-11.306,12.066-11.306-13.95,13.951-7.7,16.382,34.36-15.573,52.312-37.436a15.315,15.315,0,0,0,2.078,10.541c3.257,5.182,3.424-.11,2.985-3.495s4.518-10.312,23.292-27.978,7.989-13.955,20.487-42.244S1192.818,762.462,1192.818,762.462Z" fill="#ed759d"/>
            <path id="Path_3032" data-name="Path 3032" d="M1575.364,1091.9l-14.868,36.873a.03.03,0,0,1-.018.017l-1.843,2.043-66.466,73.465-6.554,7.25-445.2,78.068-78.384-236.355c35.151-12.06,50.727-23.719,103.691-38.972,31.016-8.927,64.323-14.956,64.323-14.956s31.316,30.122,98.007,21.688,121.386-62.46,121.386-62.46,4.81-1.684,14.151-5.7q1.785-.762,3.781-1.643l.007,0c10.788-4.736,26.336-12.03,46.353-22.561a83.1,83.1,0,0,1,19.182-6.993,112.61,112.61,0,0,1,24.526-3.066l15.541,22.84Z" fill="#fff"/>
            <path id="Path_3033" data-name="Path 3033" d="M1048.364,1060.754c-30.866-17.59-44.982-25.22-93.15-4.682-29.782,12.7-114.5,45.664-128.658,50.128s-11.483,14.857-11.483,14.857,22.258-1.088,31.573,24.625,10.6,65.1,20.248,84.794,19.826,51.112,19.469,66.769,26.862,16.977,37.708,4.909c0,0,22.709-5.97,56.984-6.829s56.751-5.284,80.006-9.175,31.678-52.053,36.829-95.65S1082.181,1080.026,1048.364,1060.754Z" fill="#fff"/>
            <path id="Path_3034" data-name="Path 3034" d="M1353.236,982.806c-67.6,92.823-207.933,74.066-231.5,81.1s-21.973,24.663-21.973,24.663c19.684,46.956,12.266,105.939,11.677,110.223.126-1.952.872-15.468-1.2-42.415-1.769-22.945-11.916-41.979-28.253-53.971a67.613,67.613,0,0,0-14.833-8.242c-12.844-5.174-51.242-.953-89.377,6.555-35.95,7.072-71.666,17.071-85.533,24.859-28.565,16.058-15.9,27.18-16.575,46.037-.652,18.322,5.109,46.959,5.432,48.566a282.967,282.967,0,0,1-9.973-37.993c-3.877-20.786-7.606-42.841-16.575-52.02-8.21-8.419-17.822-2.906-14.023,4.033a32.242,32.242,0,0,0-25.452-13.143s-2.679-10.4,11.48-14.861,98.876-37.429,128.663-50.128q3.527-1.5,6.819-2.81a.1.1,0,0,1,.047-.013c4.165-1.433,8.056-2.861,11.765-4.282,27.575-10.59,45.219-21.236,91.879-34.677,31.016-8.927,64.323-14.956,64.323-14.956s31.316,30.122,98.007,21.688c38.1-4.817,72.291-24.517,94.6-40.526Z" fill="#c9d6e8"/>
            <path id="Path_3035" data-name="Path 3035" d="M1137.171,991.694c12.667,20.283,58.358,32.539,133.645,12.313s57.975-45.985,57.975-45.985l-9.038-3.774s5.766-5.906,18.184-1.529,17.632,4.036,18.987,9.584,6.1,37.528-70.371,65.3-135.378,10.888-160.546-2.43-20.733-31.059-13.164-35.649,30.255-1.491,30.255-1.491Z" fill="#c9d6e8"/>
            <path id="Path_3036" data-name="Path 3036" d="M1107.414,997.394c-2.423,11.389,2.9,19.158,21.645,29.328s67.738,20.53,100.443,14.481" fill="none" stroke="#0d0d0c" stroke-linecap="round" stroke-linejoin="round" stroke-width="3"/>
            <path id="Path_3037" data-name="Path 3037" d="M1040.56,1289.595l22.869-4.016a17.543,17.543,0,0,1-2.37.568C1054.26,1287.286,1047.535,1288.47,1040.56,1289.595Z" fill="#c9d6e8"/>
            <path id="Path_3038" data-name="Path 3038" d="M973.847,1048.967c-3.709,1.421-7.6,2.849-11.765,4.282C966.263,1051.587,970.165,1050.162,973.847,1048.967Z" fill="#c9d6e8"/>
            <path id="Path_3039" data-name="Path 3039" d="M973.847,1048.967c-3.709,1.421-7.6,2.849-11.765,4.282C966.263,1051.587,970.165,1050.162,973.847,1048.967Z" fill="#c9d6e8"/>
            <path id="Path_3040" data-name="Path 3040" d="M1639,1023.751c13.095,15.192-.4,49.3-13.768,46.524,0,0-16.567,5.909-39.136,31.716-9.227,10.546-17.652,19.194-25.6,26.783a.03.03,0,0,1-.018.017c-.819.787-1.631,1.552-2.435,2.313l-.015.007c-10.559,9.923-20.332,18.088-30.139,26.537-8.543,7.363-22.706,5.644-39.186-.782-17.975-6.99-38.707-19.581-57.907-32.051-36.822-23.908-74.909-82.7-68.11-121.028,4.442-25.05,7.326-40.224,25.71-55.607,7.293-6.1,17.016-12.224,30.235-19.014,3.919-2.009,8.778-4.569,14.285-7.506,34.926-18.6,95.728-52.438,106.515-59.376,12.49-8.036,25.089-1.893,25.089-1.893s3,.457,8.284,5.639c.278.269.563.552.847.853a.321.321,0,0,1,.067.066q.179.183.358.364c3.5,3.7,7.869,9.353,12.934,17.994,13.813,23.6,16.669,64.359,25.645,84.373S1628.78,1011.884,1639,1023.751Z" fill="#fff"/>
            <path id="Path_3041" data-name="Path 3041" d="M1564.429,872.47c8.072,6.131,14.2,16.733,17.326,33.679s-16.88,18.741-52.127,22.861c-16.062,1.878-38.856,5.7-56.645,12.424-21.257,8.035-35.382,20.19-22.4,38.089,23.555,32.462,36.212,80.149,36.529,81.349,0-.406-.029-2.695-.09-13.761-.08-15.489-3.381-46.78-3.381-46.78,12.362,28.489,13.213,95.694,13.213,95.694s.41,7.455,7.591,16.572,40.082,26.243,53.578,18.514l.015-.007a2.86,2.86,0,0,1,.592-.27l-66.466,73.465c-.919-12.731-2.063-28.348-3.466-47.433q-.367-4.983-.755-10.293c-6.593-89.59-14.5-98.656-25.241-122.271s-32.5-62.784-59.85-73a50.67,50.67,0,0,0-14.461-3.123,51.335,51.335,0,0,0-21.015,3.034c10.788-4.736,26.336-12.03,46.353-22.561a83.1,83.1,0,0,1,19.182-6.993c34.926-18.6,95.728-52.438,106.515-59.376,12.49-8.036,25.089-1.893,25.089-1.893s3,.457,8.284,5.639C1566.924,860.837,1556.771,866.651,1564.429,872.47Z" fill="#c9d6e8"/>
            <path id="Path_3042" data-name="Path 3042" d="M1574.076,867.313a2.691,2.691,0,0,1-.358-.364Q1573.9,867.132,1574.076,867.313Z" fill="#c9d6e8"/>
            <path id="Path_3043" data-name="Path 3043" d="M1282.341,586.8c-25.532-28.5-59.477-7.414-100.176-1.508s-84.286,43.272-98.34,76.772-5.126,67.868,4.842,85.182,5.387-.116,3.619-11.786-1.075-21.493,8.678-34.674c0,0-11.669,18.668-.428,56.99,13.453,45.864,25.522,63.878,9.353,83.263-10.663,12.783-26.1,14.888-38.364,9.445s-16.505-22.022-20.154-21.063,2.192,21.525,14.839,33.367,44.567,17.309,71.243-13.312c20.077-23.045,8.673-58.4,5.587-86.623s16.371-51.539,16.371-51.539-18.011,29.544,1.949,81.482c10.654,27.721,5.094,54.751-13.118,64.028-8.79,4.477-2.124,9.467,10.01,1.81,15.89-10.028,39.071-39.52,35.213-68.18-4.159-30.907-1.974-32.1-1.974-32.1s6.21,25.235,32.71,46.185c29.224,23.1,39.923,34.825,42.587,44.959s15.85-.7,11.653-19.965c0,0,11.716,23.138,12.871,32.477s8.928,2.545,9.771-10.685c0,0,2.2,6.564,5.858,6.576s13.392-10.779,13.392-10.779-5.913,15.422,2.3,13.7,17.025-4.476,34.714-21.26,25.436-31.821,25.436-31.821-1.075,29.139,1.44,35.411,4.054-1.065,7.213-8.83,29.072-34.014,38.04-65.84-11.506-100.356-41.337-142.2S1321,578.478,1282.341,586.8Z" fill="#ed759d"/>
            <path id="Path_3044" data-name="Path 3044" d="M1387.037,739.248c13.495,58.05,11.8,83.677-7.706,112.654-19.121,28.412-8.48,41.309-6.605,42.279s2.638-15.35,11.223-25.129c20.119-22.917,32.077-23.2,49.778-63.18,25.575-57.756-5.8-142.433-52.108-188.039S1387.037,739.248,1387.037,739.248Z" fill="#ed759d"/>
            <path id="Path_3045" data-name="Path 3045" d="M1367.329,762.315c13.494,58.05,7.03,82.248-19.173,104.3s-18.273,40.358-16.4,41.327,1-7.179,10.94-15.578,53.3-45.576,71.4-85.372-27.138-129.791-73.445-175.4S1367.329,762.315,1367.329,762.315Z" fill="#ed759d"/>
            <path id="Path_3046" data-name="Path 3046" d="M1190.919,762.7c17.957,49.355,40.379,81.641,26.373,104.009s-5.088,17.7,3.472,12.265,22.519-21.034,20.81-41.336-7.894-25.477-7.894-25.477L1197.786,749.4l-5.831,2.752Z" fill="#ed759d"/>
            <path id="Path_3047" data-name="Path 3047" d="M1225.56,615.918c-15.478,48.271,13.327,110.863,27.487,149.6,18.521,50.669,13.741,83.972,13.741,83.972" fill="none" stroke="#fff" stroke-linecap="round" stroke-linejoin="round" stroke-width="4"/>
            <path id="Path_3048" data-name="Path 3048" d="M1260.328,594.86c-11.751,24.541,36.736,75.939,54.172,129.416,29.019,89-22.558,142.058-28.044,157.151" fill="none" stroke="#fff" stroke-linecap="round" stroke-linejoin="round" stroke-width="4"/>
            <path id="Path_3049" data-name="Path 3049" d="M1321.081,596.007c48.513,31.231,71.821,63.023,77.087,120.141s-13.737,78.8-13.737,78.8" fill="none" stroke="#fff" stroke-linecap="round" stroke-linejoin="round" stroke-width="4"/>
            <path id="Path_3050" data-name="Path 3050" d="M1360.64,736.12c6.732-48.572-33.284-108.828-53.759-124.9" fill="none" stroke="#fff" stroke-linecap="round" stroke-linejoin="round" stroke-width="4"/>
            <path id="Path_3051" data-name="Path 3051" d="M1189.708,738.341c-13.655-55.239-2.675-79.407-2.675-79.407" fill="none" stroke="#fff" stroke-linecap="round" stroke-linejoin="round" stroke-width="4"/>
            <path id="Path_3052" data-name="Path 3052" d="M1109.347,681.571c11.89-33.894,40.632-61.384,78.2-73.428" fill="none" stroke="#fff" stroke-linecap="round" stroke-linejoin="round" stroke-width="4"/>
          </g>
          <path id="Path_3053" data-name="Path 3053" d="M1611.587,840.888c29.294,10.326,106.446-2.806,106.446-2.806" fill="none" stroke="#db8882" stroke-linecap="round" stroke-linejoin="round" stroke-width="2"/>
          <path id="Path_3054" data-name="Path 3054" d="M788.151,1145.719c-13.556,45.039-76.113,93.905-76.113,93.905" fill="none" stroke="#db8882" stroke-linecap="round" stroke-linejoin="round" stroke-width="2"/>
          <path id="Path_3055" data-name="Path 3055" d="M1035.1,1304.471c41.066-37.341,56.219-86.747,56.219-86.747" fill="none" stroke="#0d0d0c" stroke-linecap="round" stroke-linejoin="round" stroke-width="3"/>
          <path id="Path_3056" data-name="Path 3056" d="M1047.677,1044.417s22.22,4.573,35.177,16.768,37.113,56.172,28.355,139.909c-1.448,13.838-21.3,56.171-21.3,56.171" fill="none" stroke="#0d0d0c" stroke-linecap="round" stroke-linejoin="round" stroke-width="3"/>
          <path id="Path_3057" data-name="Path 3057" d="M1429.594,970.788c22.683,27.189,43.784,74.075,49.638,92.634s12.414,143.4,12.414,143.4" fill="none" stroke="#0d0d0c" stroke-linecap="round" stroke-linejoin="round" stroke-width="3"/>
          <path id="Path_3058" data-name="Path 3058" d="M1479.062,987.36c12.922,21.954,6.436,126.738,6.436,126.738" fill="none" stroke="#0d0d0c" stroke-linecap="round" stroke-linejoin="round" stroke-width="3"/>
        </g>
      </g>
    </g>
  </g>
</svg>
