<svg xmlns="http://www.w3.org/2000/svg" xmlns:xlink="http://www.w3.org/1999/xlink" width="565" height="812" viewBox="0 0 565 812">
  <defs>
    <clipPath id="clip-path">
      <rect id="Rectangle_199" data-name="Rectangle 199" width="565" height="812" transform="translate(-34)" fill="#fff" stroke="#707070" stroke-width="1"/>
    </clipPath>
  </defs>
  <g id="Mask_Group_3" data-name="Mask Group 3" transform="translate(34)" clip-path="url(#clip-path)">
    <g id="Group_2594" data-name="Group 2594">
      <g id="Group_2588" data-name="Group 2588" transform="translate(-34.004 610.483)">
        <ellipse id="Ellipse_205" data-name="Ellipse 205" cx="24.438" cy="26.202" rx="24.438" ry="26.202" transform="matrix(0.841, -0.541, 0.541, 0.841, 0, 26.455)"/>
        <path id="Path_4855" data-name="Path 4855" d="M188.973,877.364a23.208,23.208,0,1,1,6.952-32.076A23.208,23.208,0,0,1,188.973,877.364Z" transform="translate(-138.048 -819.782)" fill="#fff"/>
        <path id="Path_4856" data-name="Path 4856" d="M198.921,845.99a20.287,20.287,0,0,0-11.72-8.612c-2.294-.63-4.659-.785-6.969-1.312a3.758,3.758,0,0,1-1.495-.6,1.454,1.454,0,0,1-.6-1.415.807.807,0,0,0,.05-.424c-.092-.284-.5-.258-.783-.162-3.18,1.083-5.553,3.709-7.721,6.275-2.386,2.824-4.988,5.565-6.507,8.981a20.375,20.375,0,1,0,35.743-2.731Z" transform="translate(-143.439 -818.969)" fill="#fdd89b"/>
        <path id="Path_4857" data-name="Path 4857" d="M256.425,944.49a.345.345,0,0,1-.214-.616,20.025,20.025,0,0,0,1.872-1.683.345.345,0,1,1,.493.483,20.743,20.743,0,0,1-1.937,1.742A.344.344,0,0,1,256.425,944.49Z" transform="translate(-205.41 -890.134)" fill="#0d0d0c"/>
        <path id="Path_4858" data-name="Path 4858" d="M181.13,889.134a20.664,20.664,0,0,1-17.4-9.529,20.953,20.953,0,0,1-1.5-19.652,32.863,32.863,0,0,1,5.5-7.822c.356-.414.711-.827,1.061-1.242a.345.345,0,1,1,.528.446c-.352.416-.708.831-1.065,1.246a32.351,32.351,0,0,0-5.39,7.652,20.255,20.255,0,0,0,1.454,19,19.961,19.961,0,0,0,25.905,7.022.345.345,0,1,1,.313.615A20.683,20.683,0,0,1,181.13,889.134Z" transform="translate(-142.802 -830.341)" fill="#0d0d0c"/>
        <path id="Path_4859" data-name="Path 4859" d="M236.93,864.833a.344.344,0,0,1-.341-.4,20.01,20.01,0,0,0-14.481-22.319,34.806,34.806,0,0,0-3.868-.753c-1.013-.158-2.061-.321-3.086-.555a.345.345,0,0,1,.154-.673c1,.229,2.037.39,3.038.546a35.383,35.383,0,0,1,3.945.77,20.716,20.716,0,0,1,14.981,23.09A.345.345,0,0,1,236.93,864.833Z" transform="translate(-178.437 -823.374)" fill="#0d0d0c"/>
        <path id="Path_4860" data-name="Path 4860" d="M231.865,907.279a17.9,17.9,0,0,1-5.811,2.45,1.413,1.413,0,0,0-.687.291.463.463,0,0,0-.033.666.653.653,0,0,0,.391.1,35.019,35.019,0,0,0,6.9-.588,9.562,9.562,0,0,0,2.983-.859,6.8,6.8,0,0,0,3.2-5.619,18.281,18.281,0,0,0-1.161-6.611c-.346.019-.461.465-.493.81a13.031,13.031,0,0,1-2.945,7.326A11.771,11.771,0,0,1,231.865,907.279Z" transform="translate(-185.195 -860.684)" fill="#edc080"/>
        <path id="Path_4861" data-name="Path 4861" d="M183.564,891.868q0-.047-.009-.094c-1.527,1.115-2.2,2.962-2.717,4.707a9.049,9.049,0,0,0-.435,3.294,4.83,4.83,0,0,0,.916,2.839.813.813,0,0,0,.934.152,1.2,1.2,0,0,0,.411-.933c.1-.866.183-1.735.266-2.6l.592-6.191A6.537,6.537,0,0,0,183.564,891.868Z" transform="translate(-155.845 -857.191)" fill="#edc080"/>
        <path id="Path_4862" data-name="Path 4862" d="M217.956,856.386c-.126-.006-.613-.675-.715-.77a9.392,9.392,0,0,0-2.3-1.576c-2.876-1.4-6.143-1.059-9.229-.891a11.037,11.037,0,0,0-1.422.139.391.391,0,0,0-.207.084c-.14.136-.022.37.105.518,1.984,2.3,5,2.036,7.75,2.18Z" transform="translate(-171.321 -831.794)" fill="#edc080"/>
        <path id="Path_4863" data-name="Path 4863" d="M168.1,889.06a17.7,17.7,0,0,0,2.166,9.395.848.848,0,0,0,.269.344.3.3,0,0,0,.4-.049.435.435,0,0,0,.056-.2,11.71,11.71,0,0,0-.408-3.336q-.335-1.963-.516-3.948t-.208-3.976c-.005-.38-.159-3.766.093-3.844C168.485,883.9,168.2,887.77,168.1,889.06Z" transform="translate(-147.78 -851.74)" fill="#edc080"/>
        <path id="Path_4864" data-name="Path 4864" d="M186.178,857.3a8.649,8.649,0,0,1-.384,1.216,2.614,2.614,0,0,1-.485.827c-.837.888-1.48.169-1.335-.766a8.391,8.391,0,0,1,.791-2.118,5.478,5.478,0,0,1,1.561-2.083c.058-.045.135-.091.2-.057s.072.135.064.213A21.357,21.357,0,0,1,186.178,857.3Z" transform="translate(-158.184 -832.66)" fill="#edc080"/>
      </g>
      <g id="Group_2593" data-name="Group 2593" transform="translate(20992.027 8591.049)">
        <path id="Path_4865" data-name="Path 4865" d="M482.215,709.184l-12.6-6.118,22.778-46.914L562,593.259,592,547.6l70.141-20.463-4.724-30.194.142-1.022c.185-1.341,4.944-33.144,40-58.954,33.012-24.3,84.634-26.118,91.069-26.249l52.107-9.033,1.487.4c3.368.9,33.25,9.147,45.247,21.263,10.161,10.262,25.368,33.6,29.11,39.426,9.123,5.944,61.54,40.293,78,55.462,8.219,7.576,14.955,21,20.022,39.9a204.9,204.9,0,0,1,5.118,25.476l.126,1.026-7.07,40.824L966.335,660.64,942.9,702.823l-12.243-6.8,24.864-44.762,44.388-33.631,5.771-33.325c-1.684-12.593-8.228-44.368-20.6-55.773-16.8-15.483-76.8-54.449-77.4-54.841l-1.286-.834-.82-1.3c-.176-.278-17.713-27.913-28.058-38.361-7.5-7.578-28.328-14.6-37.452-17.185L789.923,424.7l-.568.006c-.519.006-52.667.838-83.494,23.533-15.7,11.56-24.219,24.408-28.6,33.151a65.76,65.76,0,0,0-5.668,15.57l6.284,40.167L600.87,559.6l-28.147,42.85L503.8,664.719Z" transform="translate(-21480.498 -8502.674)" fill="#fff"/>
      </g>
      <g id="Group_2586" data-name="Group 2586" transform="translate(35.764 378.365)">
        <g id="Group_2577" data-name="Group 2577">
          <ellipse id="Ellipse_185" data-name="Ellipse 185" cx="74.395" cy="74.394" rx="74.395" ry="74.394"/>
        </g>
        <g id="Group_2585" data-name="Group 2585" transform="translate(12.749 12.719)">
          <g id="Group_2578" data-name="Group 2578" transform="translate(1.607)">
            <ellipse id="Ellipse_186" data-name="Ellipse 186" cx="68.69" cy="68.69" rx="68.69" ry="68.69" fill="#fff"/>
          </g>
          <g id="Group_2579" data-name="Group 2579" transform="translate(18.649 17.042)">
            <ellipse id="Ellipse_187" data-name="Ellipse 187" cx="51.648" cy="51.647" rx="51.648" ry="51.647" fill="#c9d6e8"/>
          </g>
          <g id="Group_2580" data-name="Group 2580" transform="translate(13.703 12.097)">
            <path id="Path_4829" data-name="Path 4829" d="M585.1,810.491a.345.345,0,0,1-.121-.669c1.477-.551,2.952-1.173,4.383-1.848a.345.345,0,1,1,.295.624c-1.449.684-2.941,1.313-4.437,1.871A.346.346,0,0,1,585.1,810.491Z" transform="translate(-508.909 -700.822)" fill="#0d0d0c"/>
            <path id="Path_4830" data-name="Path 4830" d="M421.674,610.869a56.61,56.61,0,1,1,53.467-38.111.345.345,0,0,1-.653-.226A55.9,55.9,0,1,0,427.223,609.9a.345.345,0,1,1,.069.687C425.412,610.777,423.535,610.869,421.674,610.869Z" transform="translate(-365.059 -497.665)" fill="#0d0d0c"/>
          </g>
          <path id="Path_4831" data-name="Path 4831" d="M374.836,584.558c-17.957-20.943-13.361-49.536,1.957-62.765,11.194-9.668,26.768-11.937,34.947-9.5,0,0,6.624-2.7,22.585.186s26.366,20.042,29.5,33.189Z" transform="translate(-350.15 -494.394)" fill="#080b0a"/>
          <g id="Group_2584" data-name="Group 2584" transform="translate(0 5.835)">
            <circle id="Ellipse_188" data-name="Ellipse 188" cx="41.839" cy="41.839" r="41.839" transform="translate(9.798 67.486) rotate(-45)" fill="#fdd89b"/>
            <path id="Path_4832" data-name="Path 4832" d="M486.578,586.268c3.977,13.147,1.662,28.224-6.807,39.024s-23.1,16.7-36.585,13.961a51.949,51.949,0,0,1-31.023-22.258,35.8,35.8,0,0,1-1.806-31.929c5.248-11.905,17.032-20.168,29.71-23.209,13.109-3.144,28.2-.694,37.658,8.919A37.449,37.449,0,0,1,486.578,586.268Z" transform="translate(-379.104 -532.587)" fill="#c78c50"/>
            <g id="Group_2582" data-name="Group 2582" transform="translate(30.736 38.011)">
              <path id="Path_4833" data-name="Path 4833" d="M601.76,599.789a.844.844,0,1,1-.51-1.08A.845.845,0,0,1,601.76,599.789Z" transform="translate(-536.002 -595.542)" fill="#f79922"/>
              <path id="Path_4834" data-name="Path 4834" d="M551.911,624.705a.844.844,0,1,1-.51-1.08A.844.844,0,0,1,551.911,624.705Z" transform="translate(-503.363 -611.856)" fill="#f79922"/>
              <ellipse id="Ellipse_189" data-name="Ellipse 189" cx="0.252" cy="0.252" rx="0.252" ry="0.252" transform="translate(59.323 11.847)" fill="#f79922"/>
              <ellipse id="Ellipse_190" data-name="Ellipse 190" cx="0.618" cy="0.618" rx="0.618" ry="0.618" transform="translate(64.72 18.91)" fill="#f79922"/>
              <g id="Group_2581" data-name="Group 2581" transform="translate(14.541 31.661)">
                <ellipse id="Ellipse_191" data-name="Ellipse 191" cx="1.202" cy="1.202" rx="1.202" ry="1.202" fill="#f79922"/>
              </g>
              <ellipse id="Ellipse_192" data-name="Ellipse 192" cx="0.76" cy="0.76" rx="0.76" ry="0.76" transform="translate(63.793 43.399)" fill="#f79922"/>
              <ellipse id="Ellipse_193" data-name="Ellipse 193" cx="1.275" cy="1.275" rx="1.275" ry="1.275" transform="translate(51.113 46.01)" fill="#f79922"/>
              <path id="Path_4835" data-name="Path 4835" d="M471.7,729.981a.988.988,0,1,1-.6-1.264A.988.988,0,0,1,471.7,729.981Z" transform="translate(-450.662 -680.661)" fill="#f79922"/>
              <path id="Path_4836" data-name="Path 4836" d="M507.357,723.073a.461.461,0,1,1-.278-.589A.461.461,0,0,1,507.357,723.073Z" transform="translate(-474.678 -676.6)" fill="#f79922"/>
              <ellipse id="Ellipse_194" data-name="Ellipse 194" cx="1.388" cy="1.388" rx="1.388" ry="1.388" transform="translate(8.743 19.806)" fill="#f79922"/>
              <ellipse id="Ellipse_195" data-name="Ellipse 195" cx="0.631" cy="0.631" rx="0.631" ry="0.631" transform="translate(42 0.505)" fill="#f79922"/>
              <ellipse id="Ellipse_196" data-name="Ellipse 196" cx="1.514" cy="1.514" rx="1.514" ry="1.514" transform="translate(18.09)" fill="#f79922"/>
              <path id="Path_4837" data-name="Path 4837" d="M569.166,597.21l-.4-.144-.4-.144.4.144Z" transform="translate(-515.206 -594.404)" fill="#f79922"/>
              <path id="Path_4838" data-name="Path 4838" d="M607.086,701.081a.992.992,0,1,1-.6-1.27A.992.992,0,0,1,607.086,701.081Z" transform="translate(-539.301 -661.735)" fill="#f79922"/>
              <ellipse id="Ellipse_197" data-name="Ellipse 197" cx="0.76" cy="0.76" rx="0.76" ry="0.76" transform="translate(51.652 33.064)" fill="#f79922"/>
              <ellipse id="Ellipse_198" data-name="Ellipse 198" cx="0.76" cy="0.76" rx="0.76" ry="0.76" transform="translate(25.285 12.888)" fill="#f79922"/>
              <path id="Path_4839" data-name="Path 4839" d="M571.919,671.145a.992.992,0,1,1-.6-1.269A.992.992,0,0,1,571.919,671.145Z" transform="translate(-516.275 -642.134)" fill="#f79922"/>
              <ellipse id="Ellipse_199" data-name="Ellipse 199" cx="1.593" cy="1.593" rx="1.593" ry="1.593" transform="translate(36.589 57.467)" fill="#f79922"/>
              <ellipse id="Ellipse_200" data-name="Ellipse 200" cx="0.883" cy="0.883" rx="0.883" ry="0.883" transform="translate(4.332 45.597)" fill="#fcb830"/>
              <path id="Path_4840" data-name="Path 4840" d="M416.809,691.468a1.242,1.242,0,1,1-.75-1.589A1.243,1.243,0,0,1,416.809,691.468Z" transform="translate(-414.397 -655.221)" fill="#fcb830"/>
              <ellipse id="Ellipse_201" data-name="Ellipse 201" cx="0.494" cy="0.494" rx="0.494" ry="0.494" transform="translate(1.98 41.641)" fill="#fcb830"/>
              <ellipse id="Ellipse_202" data-name="Ellipse 202" cx="0.568" cy="0.568" rx="0.568" ry="0.568" transform="translate(74.693 13.741)" fill="#fcb830"/>
            </g>
            <circle id="Ellipse_203" data-name="Ellipse 203" cx="41.839" cy="41.839" r="41.839" transform="translate(14.985 59.169) rotate(-45)" fill="#fdd89b"/>
            <path id="Path_4841" data-name="Path 4841" d="M501.6,562.178c3.977,13.147,1.662,28.224-6.807,39.024s-23.1,16.7-36.586,13.961A51.95,51.95,0,0,1,427.188,592.9a35.8,35.8,0,0,1-1.806-31.929c5.248-11.905,17.032-20.169,29.71-23.209,13.109-3.144,28.2-.694,37.658,8.919A37.443,37.443,0,0,1,501.6,562.178Z" transform="translate(-388.943 -516.814)" fill="#c78c50"/>
            <path id="Path_4842" data-name="Path 4842" d="M582.362,556.894c5.437,6.3,9.751,13.557,11.2,21.855a52.1,52.1,0,0,1,.46,14.458c0-.012.008-.025.012-.037,3.118-10.325,1.981-21.675-2.068-31.672-2.149-5.3-5.235-10.44-9.936-13.7-4.081-2.835-9.07-4.049-14-4.693-.29-.038-.581-.068-.872-.1C572.933,546.751,578.172,552.042,582.362,556.894Z" transform="translate(-483.688 -521.086)" fill="#fdd89b"/>
            <path id="Path_4843" data-name="Path 4843" d="M488.853,595.648a42.892,42.892,0,0,0-31.9-56.566c-.621.123-1.243.245-1.856.392-12.678,3.04-24.462,11.3-29.71,23.209a35.8,35.8,0,0,0,1.806,31.929,51.946,51.946,0,0,0,31.023,22.258,35,35,0,0,0,14.254-.156A42.7,42.7,0,0,0,488.853,595.648Z" transform="translate(-388.943 -518.521)" fill="#080b0a"/>
            <path id="Path_4844" data-name="Path 4844" d="M513.678,756.266c-3.639.813-6.136,1.394-6.475,2.724,0,0-10.43,4.6-21.8,1.378l23.35-8.153Z" transform="translate(-430.154 -658.073)" fill="#080b0a"/>
            <g id="Group_2583" data-name="Group 2583" transform="translate(0 1.462)">
              <circle id="Ellipse_204" data-name="Ellipse 204" cx="41.839" cy="41.839" r="41.839" transform="translate(0 59.169) rotate(-45)" fill="#fdd89b"/>
              <path id="Path_4845" data-name="Path 4845" d="M458.2,566.412c3.977,13.147,1.662,28.224-6.807,39.024s-23.1,16.7-36.586,13.961a51.945,51.945,0,0,1-31.023-22.258,35.8,35.8,0,0,1-1.806-31.929c5.248-11.905,17.032-20.168,29.71-23.209,13.11-3.144,28.2-.694,37.658,8.919A37.44,37.44,0,0,1,458.2,566.412Z" transform="translate(-360.522 -521.049)" fill="#c78c50"/>
              <path id="Path_4846" data-name="Path 4846" d="M435.571,568.306a7.851,7.851,0,0,0-1.542,1.211c-1.227,1.223-2.318,2.666-3.886,3.4-2.475,1.16-5.429.255-8.1.842a7.322,7.322,0,0,0-5.157,10.035c1.677,3.917,5.172,6.49,3.394,11.235-1.491,3.981-5.691,7.375-4.448,12.069.832,3.142,4.043,4.976,7.056,6.194s6.341,2.333,8.188,5.007c1.14,1.651,1.549,3.689,2.414,5.5s2.5,3.541,4.508,3.444c2.16-.1,3.6-2.189,5.429-3.348,2.037-1.292,4.6-1.418,7-1.2a47,47,0,0,0,7.2.576c2.407-.156,4.932-1.134,6.178-3.2,1.958-3.247,0-6.025-.512-9.21a9.853,9.853,0,0,1,2.2-7.95c1.16-1.328,2.661-2.312,3.909-3.558a6,6,0,0,0,2.079-4.669c-.243-2.175-2.218-3.688-4.058-4.873s-3.878-2.525-4.388-4.654c-.444-1.852.418-3.744.6-5.64a7.884,7.884,0,0,0-11.015-7.959c-1.256.551-2.353,1.422-3.617,1.953-4.154,1.747-5.33-2.13-7.674-4.5A4.416,4.416,0,0,0,435.571,568.306Z" transform="translate(-384.453 -538.623)" fill="#fafafa"/>
              <path id="Path_4847" data-name="Path 4847" d="M533.08,610.13a8.73,8.73,0,0,0-2.066,9.914c-2.033-.765-2.586-3.508-1.923-5.576s2.152-3.758,3.132-5.7,1.348-4.512-.113-6.12c-.863-.949-2.173-1.345-3.188-2.129-2.026-1.564-2.564-4.393-2.534-6.952s.473-5.171-.186-7.644-2.917-4.8-5.444-4.4a6.647,6.647,0,0,1,10.493,4.861c.129,1.566-.3,3.128-.289,4.7a8.557,8.557,0,0,0,2.627,6.07c1.064,1.012,2.372,1.729,3.5,2.674a4.385,4.385,0,0,1-.177,7.6C535.678,608.4,534.248,609.093,533.08,610.13Z" transform="translate(-453.303 -546.976)" fill="#c9d6e8"/>
              <path id="Path_4848" data-name="Path 4848" d="M422.848,581.657a4.678,4.678,0,0,1,3.592-3.259,35.133,35.133,0,0,1,5.08-.537,15.177,15.177,0,0,0,9.835-5.311,22.881,22.881,0,0,1-2.6,4.859,7.7,7.7,0,0,1-4.474,3.032c-1.981.385-3.992-.292-5.993-.558S423.915,579.944,422.848,581.657Z" transform="translate(-389.194 -541.897)" fill="#c9d6e8"/>
              <path id="Path_4849" data-name="Path 4849" d="M450.741,707.2a18.144,18.144,0,0,0,1.422,3.22,3.429,3.429,0,0,0,2.9,1.712c1.63-.1,2.648-1.731,3.859-2.827a7.027,7.027,0,0,1,6.942-1.372,3.751,3.751,0,0,0-3.85-1.01,23.845,23.845,0,0,0-3.862,1.66,5.361,5.361,0,0,1-4.079.4c-1.883-.759-2.614-2.965-3.624-4.726a11.893,11.893,0,0,0-9.554-5.857A15.369,15.369,0,0,1,450.741,707.2Z" transform="translate(-401.009 -624.295)" fill="#c9d6e8"/>
            </g>
          </g>
        </g>
      </g>
      <g id="Group_2587" data-name="Group 2587" transform="translate(187.5 390.016)">
        <path id="Path_4850" data-name="Path 4850" d="M739.591,460.266l-.3-1.188s-.282-.279.889-.65l18.145-5.217s.328-.366-1.306-.157l-17.888,4.026s-.572-.205-.732-1.43l18.636-5.273s1.3-.685-.185-.445l-18.817,4.4s-.763-1.492.046-1.629l18.791-5.453s.784-1.045-3.108.235l-16.089,3.635s-1.276-.587-.307-1.469l18.172-6.208s7.589-1.947,10-.243c0,0,4.126,1.826,5.248,1.538l26.626-7.252,26.873-7.386s5.1-1.359,6.136.486c0,0,1.621,3.031-.138,4.4l-34,7.715-24.338,5.751a6.721,6.721,0,0,0-2.956,3.009,12.119,12.119,0,0,1-6.929,4.521s-13.363,3.568-19.045,3.9Z" transform="translate(-736.997 -429.621)"/>
        <path id="Path_4851" data-name="Path 4851" d="M750.192,464.2l-.3-1.188s-.282-.279.888-.65l18.145-5.217s.328-.365-1.306-.157l-17.888,4.026s-.571-.205-.732-1.43l18.636-5.272s1.3-.686-.184-.445l-18.817,4.4s-.763-1.492.046-1.629l18.791-5.453s.784-1.045-3.108.235l-16.089,3.635s-1.276-.587-.307-1.469l18.172-6.209s7.589-1.946,10-.243c0,0,4.126,1.825,5.248,1.538L808,441.428l26.873-7.386s2.487-1.271,3.523.573c0,0,1.621,3.03-.138,4.4l-31.383,7.628-24.338,5.751a6.723,6.723,0,0,0-2.956,3.009,12.119,12.119,0,0,1-6.929,4.52s-13.363,3.568-19.045,3.9Z" transform="translate(-743.938 -432.236)" fill="#fff"/>
        <path id="Path_4852" data-name="Path 4852" d="M836.944,478.915s-1.04-.763-1.016-1.493a15.829,15.829,0,0,1,.191-1.724s-3.95-.729-4.444-1.286a7.1,7.1,0,0,1,1.568,3.027,13.721,13.721,0,0,1,.243,5.266,10.869,10.869,0,0,1,1.622-2.315S836.511,478.615,836.944,478.915Z" transform="translate(-798.988 -458.948)" fill="#c9d6e8"/>
        <path id="Path_4853" data-name="Path 4853" d="M901.2,439.4a2.938,2.938,0,0,0-1.041-4.059l-55.75,14.775-.075.5,53.493-14.147s2.281-.849,2.738.458A4.034,4.034,0,0,1,901.2,439.4Z" transform="translate(-807.276 -433.366)" fill="#c9d6e8"/>
        <path id="Path_4854" data-name="Path 4854" d="M747.563,486.436s.5.794.96.676l16.3-3.76,1.353-.347s1.127-.348,1.293.2a16.031,16.031,0,0,0-3.887.654L751.022,486.7l-2.795.631S747.374,486.833,747.563,486.436Z" transform="translate(-743.898 -464.504)" fill="#fff"/>
      </g>
      <g id="Group_2592" data-name="Group 2592" transform="translate(19.588 556.573)">
        <path id="Path_4872" data-name="Path 4872" d="M52.164,600.734,32.817,571.869,66.05,554.026l36.227,43.26Z" transform="translate(-32.817 -554.026)"/>
        <g id="Group_2591" data-name="Group 2591" transform="translate(19.347 0.89)">
          <path id="Path_4873" data-name="Path 4873" d="M115.379,617.227,95.791,573.472l28.436-16.87,19.283,42.37Z" transform="translate(-93.397 -556.602)" fill="#ed759d"/>
          <path id="Path_4874" data-name="Path 4874" d="M91.25,605.467l-2.394,28.949,21.983,14.806Z" transform="translate(-88.856 -588.597)" fill="#a52959"/>
          <path id="Path_4875" data-name="Path 4875" d="M91.25,605.467l5.874,23.39-8.268,5.559,9.214-2.925,12.769,17.731Z" transform="translate(-88.856 -588.597)"/>
        </g>
        <path id="Path_4876" data-name="Path 4876" d="M136.907,631.088l-1.239-2.864a22.123,22.123,0,0,1,.941-6.314q.932-3.108,2.2-6.387.945-2.481,1.539-4.1a20.133,20.133,0,0,0,.83-2.746,6.61,6.61,0,0,0,.121-2.112,8.015,8.015,0,0,0-.648-2.215q-1.773-4.1-6.649-1.256a18.816,18.816,0,0,0-3.123,2.289,26.231,26.231,0,0,0-2.691,2.81l-2.269-5.243a26.156,26.156,0,0,1,3.266-3.034,32.38,32.38,0,0,1,3.845-2.654q4.628-2.7,8.021-1.612t5.2,5.27a10.158,10.158,0,0,1,.8,5.739,28.9,28.9,0,0,1-1.747,6.066q-1.008,2.574-1.9,4.94a22.279,22.279,0,0,0-1.218,4.6l10.868-6.333,1.983,4.582Z" transform="translate(-93.779 -581.077)" fill="#fff"/>
      </g>
      <g id="Group_2590" data-name="Group 2590" transform="translate(288.666 396.177)">
        <path id="Path_4866" data-name="Path 4866" d="M1608.627,404.569l-8.543-40.749,58.657,44.2Z" transform="translate(-1600.083 -362.199)"/>
        <g id="Group_2589" data-name="Group 2589" transform="translate(8.543)">
          <path id="Path_4867" data-name="Path 4867" d="M1652.96,419.75l19.588-43.755-28.436-16.87L1624.83,401.5Z" transform="translate(-1624.83 -359.125)" fill="#ed759d"/>
          <path id="Path_4868" data-name="Path 4868" d="M1666.591,429.229l10.551-22.881-4.749-1.659,2.284-4.953,10.8,3.917-13.22,28.667Z" transform="translate(-1652.174 -385.716)" fill="#fff"/>
          <path id="Path_4869" data-name="Path 4869" d="M1725.9,407.99l2.395,28.949-21.983,14.806Z" transform="translate(-1678.182 -391.12)" fill="#a52959"/>
          <path id="Path_4870" data-name="Path 4870" d="M1706.312,451.745l15.251-19.848,4.337-23.906Z" transform="translate(-1678.182 -391.12)"/>
          <path id="Path_4871" data-name="Path 4871" d="M1752.187,436.939l-9.385-7.072,6.991-21.877Z" transform="translate(-1702.074 -391.12)"/>
        </g>
      </g>
      <g id="Group_2689" data-name="Group 2689" transform="translate(-549.449 42.956)">
        <path id="Path_5282" data-name="Path 5282" d="M585.088,798.086c-6.021,7.284-9.826.989-13.3-16.974s-2.526-34.822,31.869-62.738,47.2-46.758,56.666-59.71,7.321-20.146,17.4-27.683,24.647-11.911,28.009-11.967,15.519,3.108,15.519,3.108l6.129,2.671,18.915,7.336-22.253.916-6.686,4.547s8.552,0,13.688.563,16.8,3.525,16.8,3.525l-2.928,1.4-19.278,3.948s-10.607,8.766-10.948,8.927.9,1.315,3.512.22,13.315-1.687,15.193-.073l-3.323,2.677-32.456,13.162-21.849,20.606-12.111,33.674s5.828-6.512,10.454-6.536,31.091-9.258,49-24.716,51.821-20.152,51.821-20.152-10.54-9.045-12.344-23.477a112.43,112.43,0,0,1-.435-16.022s-8.068-4.352-10.943-13.2c-1.654-5.087,3.635-10.78,3.843-8.165.788,9.921,5.3,6.909,5.3,6.909s-4.043-9.156,2.034-15.533.854-9.29.854-9.29-15.129-20.675-9.186-39.9c11.011-35.612,47.063-47.225,69.007-49.539,25.793-2.72,34.691,9.22,34.691,9.22l3.629,4.129s-7.606-1.789-9.825-5.98,9.55-3.07,9.55-3.07l25.01,2.244s-5.524-6.989-12.7-6.871-11.411.988-14.782-.612-2.009-3.613.273-5.465,22.588-1.561,22.588-1.561l-11.346-1.739,8.319-7.108,49.465,27.962-24.541,14.9-31.6,12.781-11.539,47.38-19.026,66.049s34.578-13.474,29.865-7.824,5.917,12.455,8.243,12.47,13.921-7.637,20.666-10.635,40.931-21.729,48.961-25.148,10.1-4.21,10.1-4.21-10.952-7.813-22.489-35.008S913.3,549.053,913.3,549.053s-17.916-5.744-22.567-8.133-1.9-6.007-1.9-6.007l14.713.938,38.7,8.527,63.658,67.881,3.481,35.077L759.015,773.8Z" transform="translate(0 -7.436)"/>
        <g id="Group_2688" data-name="Group 2688" transform="translate(580.944 477.403)">
          <g id="Group_2687" data-name="Group 2687">
            <path id="Path_5283" data-name="Path 5283" d="M1367.347,514.191c-4.113-10.879-13.13-22.038-17.825-25.453s-15.825-10.144-18.327-11.046-12.268.463-13.073,1.968c0,0-6.063-.233-9.113,2.226a6.48,6.48,0,0,0-2.461,5.832s-14.726,2.684-17.637,5.052,2.019,4.516,6.325,4.008,12.165-1.925,14.938-1.445,12.689,8.386,12.689,8.386-12.546-2.956-18.127-3.2-14.38,1.086-16.247,1.4-1.431,3.289,1.054,4.547,14.482,1.216,16.468,2.006,13.451,8.191,15.862,9.792a44.134,44.134,0,0,1,4.224,3.194s-4.6.2-7.787-1.686-8.476-4.594-12.707-4.431-4.777,2.685.9,5.832,11.625,8.875,19.819,10.889,23.646,7.8,29.335,10.31,15.975-10.3,18.589-12.771S1370.9,523.6,1367.347,514.191Z" transform="translate(-1010.956 -477.403)" fill="#f9cfcc"/>
            <path id="Path_5284" data-name="Path 5284" d="M1344.9,590.481c-4.654-9.949-14.474-16.549-21.652-14.011l-1.1,2.173,3.06,5.093Z" transform="translate(-1031.836 -536.499)"/>
            <path id="Path_5285" data-name="Path 5285" d="M1339.65,500.508a22.074,22.074,0,0,1,3.138-.725,13.415,13.415,0,0,1,3.253-.081,13.09,13.09,0,0,1,3.194.728c1.035.384,1.986.861,2.957,1.322q2.878,1.433,5.661,3.023c1.858,1.057,3.694,2.153,5.482,3.332-1.949-.887-3.866-1.829-5.776-2.781s-3.81-1.921-5.72-2.856c-.951-.469-1.911-.95-2.87-1.333a14,14,0,0,0-3.006-.818,15.167,15.167,0,0,0-3.138-.147C1341.769,500.218,1340.713,500.372,1339.65,500.508Z" transform="translate(-1042.335 -490.741)" fill="#0d0d0c"/>
            <path id="Path_5286" data-name="Path 5286" d="M1370.154,483.523a15.735,15.735,0,0,1,4.823.383,12.418,12.418,0,0,1,2.33.79,8.274,8.274,0,0,1,1.093.607q.513.341,1,.7c1.292.967,2.531,1.983,3.738,3.039s2.388,2.141,3.507,3.3c-1.333-.9-2.622-1.851-3.9-2.812l-1.913-1.444c-.633-.485-1.266-.97-1.907-1.437q-.475-.359-.957-.691a9.219,9.219,0,0,0-.991-.578,14.606,14.606,0,0,0-2.167-.87A27.082,27.082,0,0,0,1370.154,483.523Z" transform="translate(-1060.633 -481.047)" fill="#0d0d0c"/>
            <path id="Path_5287" data-name="Path 5287" d="M807.843,850.955c3.633-11.049,12.151-22.593,16.692-26.211s15.365-10.828,17.825-11.839,12.276-.075,13.147,1.393c0,0,6.047-.5,9.2,1.824a6.48,6.48,0,0,1,2.715,5.719s14.83,2.035,17.841,4.274-1.819,4.6-6.143,4.282-12.237-1.39-14.987-.788-12.309,8.934-12.309,8.934,12.4-3.5,17.969-4,14.414.454,16.292.687,1.574,3.223-.853,4.589-14.414,1.849-16.364,2.726-13.079,8.773-15.416,10.478a44.213,44.213,0,0,0-4.079,3.376s4.6,0,7.705-2.026,8.266-4.961,12.5-4.983,4.89,2.473-.639,5.866-11.224,9.376-19.323,11.748-23.281,8.828-28.854,11.586-16.412-9.587-19.131-11.944S804.7,860.51,807.843,850.955Z" transform="translate(-719.191 -678.395)" fill="#f9cfcc"/>
            <path id="Path_5288" data-name="Path 5288" d="M926.262,834.878a21.463,21.463,0,0,0-5.539,1.533,53.773,53.773,0,0,0-5.214,2.422c-1.679.929-3.4,1.84-5.123,2.717s-3.468,1.725-5.251,2.5c1.613-1.082,3.267-2.088,4.936-3.065s3.348-1.918,5.064-2.845a35.582,35.582,0,0,1,5.383-2.289,22.84,22.84,0,0,1,2.832-.747A11.454,11.454,0,0,1,926.262,834.878Z" transform="translate(-781.699 -691.815)" fill="#0d0d0c"/>
            <path id="Path_5289" data-name="Path 5289" d="M906.042,818.85c-1.607.575-3.124,1.327-4.661,2.046-1.528.737-3.059,1.469-4.582,2.219l-4.588,2.216c-1.53.742-3.069,1.456-4.6,2.217a37.345,37.345,0,0,1,4.308-2.771c1.481-.847,3-1.629,4.527-2.382s3.092-1.445,4.684-2.069A23.383,23.383,0,0,1,906.042,818.85Z" transform="translate(-771.189 -682.214)" fill="#0d0d0c"/>
            <path id="Path_5290" data-name="Path 5290" d="M710.026,946.057c-7.09,3.9-23.352,32.157-28.914,51.568s-18.643,47.821-41.094,63.348-40.621,16.661-42.195,12.653-4.677-33.527,16.1-56.517c30.83-34.117,62.5-76.849,65.752-82.33S710.026,946.057,710.026,946.057Z" transform="translate(-596.674 -751.091)" fill="#f9cfcc"/>
            <path id="Path_5291" data-name="Path 5291" d="M598.926,1137.8c1.676,7.885,33.717,14.2,74.274,5.274S774.643,1116.4,774.643,1116.4s10.9-77.261-.289-74.319-42.6,10.679-77.364,26.582-81.124,37.454-81.124,37.454Z" transform="translate(-598.025 -816.068)" fill="#f9cfcc"/>
            <path id="Path_5292" data-name="Path 5292" d="M782.216,1118.063c-2.509,5.738-5.5,13.407-8.142,17.15,0,0,18.307,2.894,28.855,17.289s10.395,22.392,10.395,22.392l11.679-3.07-11.73-51.218-13.756-11.427-9.036,4.754Z" transform="translate(-703.084 -856.362)"/>
            <path id="Path_5293" data-name="Path 5293" d="M1370.468,871.611c31.076-19.749,84.141-51.292,97.345-56.626s42.609,14.187,42.375,21.3-35.442,44.573-56.417,58.868c-47.043,32.06-70,39.821-105.306,66.387Z" transform="translate(-1047.623 -679.349)" fill="#f9cfcc"/>
            <path id="Path_5294" data-name="Path 5294" d="M1572.35,842.97c15.032.629,20.443,61.9,20.443,61.9l-3.575,2.884-25.647-8.478.381-49.331Z" transform="translate(-1176.65 -696.682)"/>
            <path id="Path_5295" data-name="Path 5295" d="M1417.26,584.463c6.962,6.184,26.589,28.557,38.177,45.141,11.565,16.552,27.382,43.413,52.371,54.4s43.045,8.648,43.83,4.414,1.856-26.917-26.532-52.433c-34.2-30.739-75.956-63.587-80.184-68.352S1417.26,584.463,1417.26,584.463Z" transform="translate(-1088.888 -531.111)" fill="#f9cfcc"/>
            <path id="Path_5296" data-name="Path 5296" d="M1092.09,660.61c-1.241,5.49-.115,14.077.149,17.389s1.847,4.717.305,8.417-7.7,9.307-8.774,11.151,3.328,6.062,3.328,6.062.16,8.833.12,19.084,2.046,20.162,5.861,22.317,6.608,4.1,23.995,2a18.611,18.611,0,0,1-2.844,13.629c-4.5,6.642-10.032,8.558-20.407,10.435,0,0,13.492,23.617,56.486,23.9s50.864-34.1,50.864-34.1-21.048-5.852-24.927-8.737-7.459-15.017-4.335-25.393a79.125,79.125,0,0,0,29.244-30.913c11.184-21.279,1.4-67.365-33.41-75.1S1098.258,633.322,1092.09,660.61Z" transform="translate(-888.749 -562.39)" fill="#f9cfcc"/>
            <path id="Path_5297" data-name="Path 5297" d="M1226.769,847.191c2.722,6.5,2.651,14.605-2.092,17.817s2.415,3.937,6.712.518,4.655-10.473,4.655-10.473a22.187,22.187,0,0,1,.54,9.4c-.889,4.747-.765,7.957,2.69,5.7s4.351-10.967,4.351-10.967l-6.758-10.569-8.648-8.075Z" transform="translate(-972.433 -695.224)"/>
            <path id="Path_5298" data-name="Path 5298" d="M1184.416,756.524c5.065,9.16,9.918,18.892,11.351,26.408s-8.085,13.089-10.4,12.327-2.268,1.07.859,1.82,6.773.42,11-2.222,8.617-14.554,8.617-14.554l-12.394-24.186-4.955-14.538-5.786,2.082Z" transform="translate(-948.193 -635.864)"/>
            <path id="Path_5299" data-name="Path 5299" d="M1139.622,758.3c-5,4.946-14.135,7.97-17.61,5.715s.638-.023,5.673-3.7a17,17,0,0,0,6.616-16.847c-1.275-6.631-3.912-15.3-3.309-21.806s.962-10.654,3.979-14.675,3.8-2.352,3.8-2.352l3.224,8.4Z" transform="translate(-911.016 -613.501)"/>
            <path id="Path_5300" data-name="Path 5300" d="M1092.45,803.314c7.642-4.862,5.4-20.2,5.4-20.2l.662-2.818,6.161,4.588s.608,10.423.514,10.815-.167,8.633-.284,8.828-9.756,7.178-9.894,7.034-2.5-2.455-2.5-2.455Z" transform="translate(-894.057 -659.087)"/>
            <path id="Path_5301" data-name="Path 5301" d="M1171.958,922.655a.4.4,0,0,1-.047-.8c10.813-1.3,20.921-9.843,21.021-9.929a.4.4,0,0,1,.52.609c-.1.088-10.4,8.791-21.446,10.115A.392.392,0,0,1,1171.958,922.655Z" transform="translate(-941.508 -737.988)" fill="#db8882"/>
            <path id="Path_5302" data-name="Path 5302" d="M1139.163,965.059c8.089,13.333,51.539,12.855,67.053-3.194l1.218-3.843,5.99,2.3s-1.658,12.609-2.042,12.976-49.693,20.846-49.693,20.846l-35.215-11.907,4.281-10.742s2.593-1.495,5.282-3.459S1139.163,965.059,1139.163,965.059Z" transform="translate(-914.465 -765.694)"/>
            <path id="Path_5303" data-name="Path 5303" d="M1192.818,762.462c8.843,14.161,14.036,28.031,18.869,38.547s-2.559,22.477.521,22.322,8.4-6.562,8.4-6.562-1.871,8.61.479,8.088,4.774-5.21,4.774-5.21-.079,3.952,4.319.207,4.828-4.524,4.828-4.524-5.583,5.583-3.083,6.556,13.75-6.232,20.934-14.981a6.127,6.127,0,0,0,.832,4.218c1.3,2.074,1.37-.044,1.195-1.4s1.808-4.127,9.321-11.2,3.2-5.584,8.2-16.9S1192.818,762.462,1192.818,762.462Z" transform="translate(-954.261 -648.391)" fill="#ed759d"/>
            <path id="Path_5304" data-name="Path 5304" d="M1207.469,987.946l-5.95,14.755a.012.012,0,0,1-.007.007l-.738.817-26.6,29.4-2.623,2.9L993.4,1067.065l-31.367-94.582c14.066-4.826,20.3-9.492,41.494-15.6,12.412-3.572,25.74-5.985,25.74-5.985s12.532,12.054,39.219,8.679,48.575-24.995,48.575-24.995,1.925-.674,5.663-2.282q.714-.3,1.513-.657h0c4.317-1.9,10.539-4.814,18.549-9.028a33.257,33.257,0,0,1,7.676-2.8,45.069,45.069,0,0,1,9.815-1.227l6.219,9.14Z" transform="translate(-815.83 -742.043)" fill="#fff"/>
            <path id="Path_5305" data-name="Path 5305" d="M908.308,1050.555c-12.352-7.039-18-10.092-37.276-1.874-11.918,5.082-45.818,18.273-51.485,20.06s-4.6,5.945-4.6,5.945,8.907-.435,12.635,9.854,4.241,26.05,8.1,33.932,7.934,20.453,7.791,26.719,10.749,6.794,15.09,1.964a109.481,109.481,0,0,1,22.8-2.733c13.716-.343,22.71-2.115,32.016-3.672s12.677-20.83,14.738-38.276S921.84,1058.267,908.308,1050.555Z" transform="translate(-727.556 -817.117)" fill="#fff"/>
            <path id="Path_5306" data-name="Path 5306" d="M1030.307,981.42c-27.051,37.145-83.208,29.639-92.639,32.455s-8.793,9.869-8.793,9.869c7.877,18.79,4.908,42.393,4.673,44.108a129.52,129.52,0,0,0-.482-16.973c-.708-9.182-4.768-16.8-11.306-21.6a27.039,27.039,0,0,0-5.936-3.3c-5.14-2.07-20.505-.381-35.766,2.623-14.386,2.83-28.678,6.831-34.228,9.948-11.431,6.426-6.362,10.877-6.633,18.423-.261,7.332,2.045,18.791,2.174,19.434a113.235,113.235,0,0,1-3.991-15.2c-1.551-8.318-3.044-17.144-6.633-20.817-3.285-3.369-7.132-1.163-5.612,1.614a12.9,12.9,0,0,0-10.185-5.26s-1.072-4.161,4.594-5.947,39.567-14.978,51.487-20.06q1.411-.6,2.729-1.125a.043.043,0,0,1,.019-.005c1.667-.573,3.224-1.145,4.708-1.714,11.035-4.238,18.1-8.5,36.767-13.877,12.412-3.572,25.74-5.985,25.74-5.985s12.532,12.054,39.219,8.679c15.246-1.928,28.929-9.811,37.855-16.217Z" transform="translate(-727.556 -779.174)" fill="#c9d6e8"/>
            <path id="Path_5307" data-name="Path 5307" d="M1119.026,967.347c5.069,8.117,23.353,13.021,53.48,4.927s23.2-18.4,23.2-18.4l-3.617-1.51s2.307-2.363,7.277-.612,7.056,1.615,7.6,3.835,2.441,15.018-28.16,26.132-54.174,4.357-64.245-.972-8.3-12.429-5.268-14.266,12.107-.6,12.107-.6Z" transform="translate(-902.737 -761.544)" fill="#c9d6e8"/>
            <path id="Path_5308" data-name="Path 5308" d="M1146.389,1015.335c-12.145,0-25.993-3.413-31.825-6.578-7.58-4.113-10.009-7.47-8.962-12.388a.6.6,0,0,1,1.174.25c-.922,4.334,1.266,7.234,8.361,11.084,7.164,3.887,26.689,8.156,39.8,5.732a.6.6,0,0,1,.218,1.181A48.743,48.743,0,0,1,1146.389,1015.335Z" transform="translate(-901.807 -788.41)" fill="#0d0d0c"/>
            <path id="Path_5309" data-name="Path 5309" d="M1040.56,1287.186l9.152-1.607a7.007,7.007,0,0,1-.949.227C1046.042,1286.262,1043.351,1286.736,1040.56,1287.186Z" transform="translate(-862.931 -962.173)" fill="#c9d6e8"/>
            <path id="Path_5310" data-name="Path 5310" d="M966.79,1048.967c-1.484.568-3.041,1.14-4.708,1.714C963.755,1050.015,965.317,1049.445,966.79,1048.967Z" transform="translate(-815.858 -820.246)" fill="#c9d6e8"/>
            <path id="Path_5311" data-name="Path 5311" d="M966.79,1048.967c-1.484.568-3.041,1.14-4.708,1.714C963.755,1050.015,965.317,1049.445,966.79,1048.967Z" transform="translate(-815.858 -820.246)" fill="#c9d6e8"/>
            <path id="Path_5312" data-name="Path 5312" d="M1472.782,924.416c5.24,6.079-.158,19.728-5.51,18.617,0,0-6.63,2.365-15.661,12.692-3.692,4.22-7.064,7.681-10.244,10.718a.012.012,0,0,1-.007.007c-.328.315-.653.621-.974.926l-.006,0c-4.225,3.971-8.136,7.238-12.06,10.619-3.419,2.946-9.086,2.259-15.681-.313-7.193-2.8-15.49-7.836-23.173-12.826-14.735-9.567-29.976-33.093-27.255-48.432,1.777-10.024,2.932-16.1,10.288-22.252a65.588,65.588,0,0,1,12.1-7.609c1.568-.8,3.513-1.828,5.717-3,13.976-7.442,38.307-20.984,42.624-23.76a10.838,10.838,0,0,1,10.04-.758s1.2.183,3.315,2.257c.111.108.225.221.339.341a.13.13,0,0,1,.027.026l.143.146a39.507,39.507,0,0,1,5.176,7.2c5.528,9.445,6.67,25.754,10.262,33.763S1468.692,919.667,1472.782,924.416Z" transform="translate(-1055.677 -705.785)" fill="#fff"/>
            <path id="Path_5313" data-name="Path 5313" d="M1446.233,863.878c3.23,2.453,5.681,6.7,6.933,13.477s-6.755,7.5-20.859,9.148c-6.427.751-15.549,2.28-22.667,4.972-8.506,3.215-14.159,8.079-8.962,15.242,9.426,12.99,14.491,32.073,14.618,32.553,0-.162-.011-1.078-.036-5.507-.032-6.2-1.353-18.72-1.353-18.72,4.947,11.4,5.287,38.294,5.287,38.294a13.044,13.044,0,0,0,3.038,6.632c2.875,3.651,16.04,10.5,21.44,7.409l.006,0a1.142,1.142,0,0,1,.237-.108l-26.6,29.4c-.368-5.095-.825-11.344-1.387-18.981q-.147-1.994-.3-4.119c-2.638-35.851-5.8-39.479-10.1-48.929s-13.006-25.124-23.95-29.212a20.275,20.275,0,0,0-5.787-1.25,20.542,20.542,0,0,0-8.41,1.214c4.317-1.9,10.539-4.814,18.549-9.028a33.255,33.255,0,0,1,7.676-2.8c13.976-7.442,38.307-20.984,42.624-23.76a10.838,10.838,0,0,1,10.04-.758s1.2.183,3.315,2.257C1447.232,859.223,1443.169,861.549,1446.233,863.878Z" transform="translate(-1058.969 -705.785)" fill="#c9d6e8"/>
            <path id="Path_5314" data-name="Path 5314" d="M1573.861,867.095a1.084,1.084,0,0,1-.143-.146Z" transform="translate(-1182.737 -711.065)" fill="#c9d6e8"/>
            <path id="Path_5315" data-name="Path 5315" d="M1143.155,578.063c-10.217-11.4-23.8-2.967-40.087-.6s-33.729,17.316-39.353,30.722-2.051,27.159,1.937,34.087,2.156-.046,1.448-4.716-.43-8.6,3.473-13.875c0,0-4.669,7.47-.171,22.806,5.384,18.353,10.213,25.562,3.743,33.319a12.847,12.847,0,0,1-15.352,3.78c-4.908-2.178-6.6-8.812-8.065-8.429s.877,8.614,5.938,13.352,17.834,6.927,28.509-5.327c8.034-9.222,3.471-23.369,2.236-34.664s6.551-20.624,6.551-20.624-7.207,11.823.78,32.606c4.263,11.093,2.038,21.91-5.249,25.622-3.518,1.792-.85,3.788,4.006.724,6.359-4.013,15.635-15.815,14.091-27.283-1.664-12.368-.79-12.847-.79-12.847s2.485,10.1,13.089,18.482c11.694,9.245,15.976,13.936,17.042,17.991s6.343-.28,4.663-7.989c0,0,4.688,9.259,5.15,13s3.573,1.018,3.91-4.276c0,0,.879,2.627,2.344,2.632s5.359-4.313,5.359-4.313-2.366,6.171.921,5.481,6.813-1.791,13.891-8.508a53.6,53.6,0,0,0,10.179-12.734s-.43,11.66.576,14.17,1.622-.426,2.886-3.534,11.634-13.611,15.223-26.347-4.6-40.159-16.542-56.9S1158.624,574.733,1143.155,578.063Z" transform="translate(-868.773 -534.286)" fill="#ed759d"/>
            <path id="Path_5316" data-name="Path 5316" d="M1372.232,661.687c5.4,23.23,4.72,33.485-3.084,45.081-7.652,11.37-3.393,16.53-2.643,16.919s1.056-6.143,4.491-10.056c8.051-9.171,12.836-9.286,19.92-25.283,10.234-23.112-2.321-57-20.852-75.247S1372.232,661.687,1372.232,661.687Z" transform="translate(-1055.954 -556.905)" fill="#ed759d"/>
            <path id="Path_5317" data-name="Path 5317" d="M1342.1,679.385c5.4,23.23,2.813,32.913-7.672,41.738s-7.312,16.15-6.562,16.538.4-2.873,4.378-6.234,21.327-18.238,28.571-34.163-10.86-51.938-29.39-70.188S1342.1,679.385,1342.1,679.385Z" transform="translate(-1033.707 -565.373)" fill="#ed759d"/>
            <path id="Path_5318" data-name="Path 5318" d="M1190.919,754.721c7.186,19.75,16.158,32.67,10.554,41.621s-2.036,7.081,1.39,4.908,9.011-8.417,8.327-16.541-3.159-10.2-3.159-10.2L1193.667,749.4l-2.333,1.1Z" transform="translate(-953.121 -640.553)" fill="#ed759d"/>
            <path id="Path_5319" data-name="Path 5319" d="M1222.258,615.918a42.223,42.223,0,0,0-1.371,11.865,55.385,55.385,0,0,0,.415,5.954q.346,2.965.936,5.9a113.619,113.619,0,0,0,2.985,11.577c1.16,3.82,2.5,7.586,3.882,11.345s2.845,7.491,4.21,11.276c.69,1.888,1.35,3.8,1.955,5.728s1.123,3.88,1.6,5.842a82.538,82.538,0,0,1,2.007,11.93c.179,2.008.289,4.023.281,6.038a40.137,40.137,0,0,1-.4,6.017,45.986,45.986,0,0,0-.009-6.006c-.126-2-.313-3.988-.6-5.966a93.961,93.961,0,0,0-2.431-11.718,115.858,115.858,0,0,0-3.776-11.352c-1.456-3.73-2.915-7.472-4.327-11.24s-2.7-7.587-3.86-11.452a102,102,0,0,1-2.771-11.791c-.331-1.995-.593-4-.753-6.021a56.544,56.544,0,0,1-.151-6.066A37.922,37.922,0,0,1,1222.258,615.918Z" transform="translate(-970.598 -560.489)" fill="#fff"/>
            <path id="Path_5320" data-name="Path 5320" d="M1259.041,594.86a8.218,8.218,0,0,0-.581,3.754,15.668,15.668,0,0,0,.721,3.74,43.969,43.969,0,0,0,3.041,7.024c2.381,4.537,5.093,8.911,7.711,13.35,1.307,2.222,2.6,4.453,3.859,6.713s2.445,4.559,3.573,6.894,2.178,4.714,3.083,7.155a76.411,76.411,0,0,1,2.332,7.447,65.939,65.939,0,0,1,2.142,15.438,59.253,59.253,0,0,1-1.783,15.468,63.826,63.826,0,0,1-5.657,14.455c-1.216,2.283-2.553,4.5-3.947,6.664l-2.111,3.236a22.586,22.586,0,0,0-1.928,3.335,22.652,22.652,0,0,1,1.758-3.441l1.973-3.321c1.305-2.217,2.549-4.466,3.666-6.775a75.482,75.482,0,0,0,3-7.069,64.053,64.053,0,0,0,2.158-7.347,60.157,60.157,0,0,0,1.473-15.173,67.411,67.411,0,0,0-2.242-15.08,72.967,72.967,0,0,0-2.317-7.279q-1.369-3.567-3.013-7.037c-2.2-4.617-4.679-9.116-7.207-13.6-2.507-4.492-5.109-8.955-7.316-13.644a40.282,40.282,0,0,1-2.72-7.287,16.037,16.037,0,0,1-.524-3.864A8.167,8.167,0,0,1,1259.041,594.86Z" transform="translate(-993.468 -547.857)" fill="#fff"/>
            <path id="Path_5321" data-name="Path 5321" d="M1321.081,596.007c1.633,1.012,3.314,1.961,4.894,3.064.8.539,1.608,1.064,2.389,1.629l2.327,1.721a67.542,67.542,0,0,1,8.571,7.828,49.968,49.968,0,0,1,11.069,20.359l.4,1.405.314,1.425.312,1.425c.1.475.22.948.286,1.429l.467,2.874c.086.478.145.959.194,1.441l.156,1.445c.241,1.924.312,3.862.435,5.795.042.968.034,1.938.049,2.907,0,.485.015.969,0,1.453l-.062,1.453a53.99,53.99,0,0,1-1.61,11.5l-.381,1.4-.452,1.382c-.141.463-.318.915-.5,1.366s-.339.907-.552,1.343a20.3,20.3,0,0,1-2.956,4.962,15.493,15.493,0,0,0,1.439-2.485,27.3,27.3,0,0,0,1.106-2.643c.179-.442.3-.9.456-1.357s.3-.906.409-1.37l.366-1.382.295-1.4a58.5,58.5,0,0,0,1.127-11.353l.015-1.428c0-.476-.031-.952-.045-1.429-.04-.952-.046-1.9-.107-2.856-.159-1.9-.264-3.8-.54-5.692l-.174-1.418c-.051-.474-.111-.946-.2-1.414l-.475-2.814c-.068-.471-.188-.931-.289-1.4l-.314-1.389-.314-1.389-.395-1.366-.387-1.369-.193-.684c-.072-.226-.156-.447-.233-.671l-.945-2.679-1.12-2.608c-.1-.216-.182-.437-.286-.649l-.325-.631-.644-1.265a53.485,53.485,0,0,0-6.334-9.416,75.394,75.394,0,0,0-8.125-8.039l-2.208-1.837c-.742-.606-1.519-1.168-2.272-1.762l-1.139-.881-1.168-.843Z" transform="translate(-1031.197 -548.546)" fill="#fff"/>
            <path id="Path_5322" data-name="Path 5322" d="M1328.393,661.2a45.4,45.4,0,0,0-1.419-13.819,72.985,72.985,0,0,0-4.7-13.054c-.96-2.11-2.017-4.177-3.143-6.207-1.107-2.041-2.324-4.021-3.576-5.98-1.268-1.948-2.6-3.86-4.026-5.7a42.935,42.935,0,0,0-4.649-5.225,32.06,32.06,0,0,1,5.249,4.718,60.116,60.116,0,0,1,4.457,5.5c1.4,1.906,2.658,3.9,3.863,5.937q1.78,3.065,3.278,6.286c.977,2.154,1.873,4.347,2.635,6.59a54.431,54.431,0,0,1,1.828,6.864A35.7,35.7,0,0,1,1328.393,661.2Z" transform="translate(-1022.679 -557.672)" fill="#fff"/>
            <path id="Path_5323" data-name="Path 5323" d="M1184.467,690.71c-.47-1.265-.871-2.553-1.278-3.843-.343-1.3-.683-2.612-.976-3.931a58.132,58.132,0,0,1-1.126-8.038c-.112-1.351-.114-2.713-.117-4.07l.088-2.037c.036-.679.116-1.356.186-2.032s.186-1.349.294-2.02c.141-.667.263-1.336.436-1.995a16.151,16.151,0,0,1,1.423-3.81,26.132,26.132,0,0,0-.649,3.95c-.079.658-.117,1.323-.168,1.982-.018.665-.08,1.323-.089,1.985-.086,2.647.016,5.3.195,7.94.154,2.648.465,5.288.756,7.939.184,1.32.352,2.645.513,3.976C1184.145,688.033,1184.34,689.36,1184.467,690.71Z" transform="translate(-947.154 -586.291)" fill="#fff"/>
            <path id="Path_5324" data-name="Path 5324" d="M1109.347,637.526a36.342,36.342,0,0,1,4.459-10.257c.52-.781,1.008-1.589,1.575-2.339l.855-1.124c.287-.372.561-.757.876-1.106l.928-1.065c.312-.353.617-.713.956-1.04l.992-1.005c.33-.336.658-.675,1.014-.982l1.06-.934c.353-.312.7-.626,1.081-.908l1.111-.871c.371-.29.735-.588,1.133-.841l1.168-.791c.389-.263.774-.533,1.183-.766.81-.477,1.6-.983,2.44-1.406a41.7,41.7,0,0,1,10.462-3.948,72.2,72.2,0,0,0-9.839,5.031c-.4.225-.771.492-1.152.746l-1.146.753c-.388.241-.752.519-1.119.79l-1.1.813c-.372.265-.728.551-1.081.839l-1.065.858c-.362.278-.7.587-1.035.894l-1.015.916c-.35.293-.671.617-.995.938l-.974.96c-.656.634-1.228,1.346-1.86,2-.32.326-.6.687-.892,1.037l-.872,1.055c-.3.343-.55.727-.829,1.089l-.825,1.1A56.761,56.761,0,0,0,1109.347,637.526Z" transform="translate(-904.192 -555.825)" fill="#fff"/>
          </g>
          <path id="Path_5325" data-name="Path 5325" d="M1624.438,840.6c-5.295,0-10.2-.427-13.584-1.62a.4.4,0,1,1,.266-.755c11.493,4.051,42.089-1.088,42.4-1.14a.4.4,0,0,1,.135.789C1652.752,838.03,1637.427,840.6,1624.438,840.6Z" transform="translate(-1204.852 -693.15)" fill="#db8882"/>
          <path id="Path_5326" data-name="Path 5326" d="M711.439,1183.1a.4.4,0,0,1-.247-.715c.249-.195,25-19.684,30.321-37.378a.4.4,0,0,1,.767.231c-5.4,17.938-30.344,37.582-30.6,37.778A.4.4,0,0,1,711.439,1183.1Z" transform="translate(-665.273 -877.68)" fill="#db8882"/>
          <path id="Path_5327" data-name="Path 5327" d="M1034.2,1252.137a.6.6,0,0,1-.4-1.044c16.114-14.653,22.267-34.249,22.327-34.445a.6.6,0,1,1,1.147.352c-.061.2-6.3,20.1-22.667,34.982A.6.6,0,0,1,1034.2,1252.137Z" transform="translate(-858.757 -920.571)" fill="#0d0d0c"/>
          <path id="Path_5328" data-name="Path 5328" d="M1063.676,1129.292a.6.6,0,0,1-.543-.855c.079-.169,7.909-16.911,8.471-22.285,1.53-14.626.724-27.58-2.395-38.5-3.166-11.084-7.511-15.8-8.767-16.986-5-4.7-13.7-6.541-13.786-6.559a.6.6,0,0,1,.242-1.176c.369.076,9.119,1.921,14.367,6.861,5.9,5.551,14.963,23.694,11.533,56.487-.583,5.574-8.252,21.974-8.578,22.67A.6.6,0,0,1,1063.676,1129.292Z" transform="translate(-866.3 -816.617)" fill="#0d0d0c"/>
          <path id="Path_5329" data-name="Path 5329" d="M1453.526,1064.943a.6.6,0,0,1-.6-.569c-.026-.5-2.648-49.967-4.941-57.236-2.26-7.164-10.634-25.936-19.752-36.865a.6.6,0,1,1,.921-.769c9.224,11.055,17.691,30.033,19.975,37.273,2.339,7.414,4.887,55.491,4.995,57.534a.6.6,0,0,1-.568.631Z" transform="translate(-1095.387 -772.451)" fill="#0d0d0c"/>
          <path id="Path_5330" data-name="Path 5330" d="M1480.738,1037.777h-.038a.6.6,0,0,1-.562-.636c.026-.417,2.526-41.848-2.493-50.376a.6.6,0,0,1,1.035-.609c5.2,8.842,2.763,49.339,2.656,51.058A.6.6,0,0,1,1480.738,1037.777Z" transform="translate(-1125.06 -782.392)" fill="#0d0d0c"/>
        </g>
      </g>
    </g>
  </g>
</svg>
