<svg xmlns="http://www.w3.org/2000/svg" width="378.966" height="378.966" viewBox="0 0 378.966 378.966">
  <g id="Group_231" data-name="Group 231" transform="translate(-770.517 -613.097)">
    <g id="Group_229" data-name="Group 229">
      <g id="Group_228" data-name="Group 228">
        <circle id="Ellipse_29" data-name="Ellipse 29" cx="133.985" cy="133.985" r="133.985" transform="translate(770.517 802.58) rotate(-45)"/>
        <path id="Path_720" data-name="Path 720" d="M1037.318,693.142q2.069,1.464,4.079,3" fill="none" stroke="#fff" stroke-linecap="round" stroke-linejoin="round" stroke-width="3"/>
        <path id="Path_721" data-name="Path 721" d="M1055.2,708.3a133.709,133.709,0,1,1-25.948-20.441" fill="none" stroke="#fff" stroke-linecap="round" stroke-linejoin="round" stroke-width="3"/>
      </g>
    </g>
    <g id="Group_230" data-name="Group 230">
      <path id="Path_722" data-name="Path 722" d="M960.061,915.466c-63.686.039-113.442-52.241-113.071-113.706.35-58.045,46.381-110.255,109.587-112.018,67.1-1.872,116.388,52.056,116.435,112.356A112.836,112.836,0,0,1,960.061,915.466Z" fill="#5fce62"/>
      <path id="Path_723" data-name="Path 723" d="M992.819,875.265c-4.634.708-9.462-.924-14.19-3.056-9.778-4.411-19.469-9.01-28.436-14.939-11.62-7.682-21.258-17.474-29.7-28.491-9.646-12.587-17.123-26.433-23.307-40.966a52.073,52.073,0,0,1-4.025-28.565c1.77-11.651,7.948-20.534,17.483-27.192a12.891,12.891,0,0,1,10.755-2.033c1.872.442,3.791.694,5.7.988a6.562,6.562,0,0,1,5.61,4.7c1.465,4.322,2.6,8.739,3.747,13.149,1.6,6.139,3.245,12.269,4.5,18.494a6.068,6.068,0,0,1-.929,4.7c-2.482,3.865-5.971,6.741-9.371,9.71-.815.712-1.583,1.482-2.433,2.148-1.762,1.381-1.908,3.075-1.185,5.046a90.943,90.943,0,0,0,5.53,11.721c8.6,15.967,21.06,28.131,36.6,37.272.445.261.919.476,1.368.731a5.421,5.421,0,0,0,6.752-.706c3.53-2.973,6.8-6.218,10.2-9.335,1.385-1.271,2.848-2.457,4.259-3.7a3.516,3.516,0,0,1,3.927-.593,26.11,26.11,0,0,1,4.394,2.225c8.383,5.226,16.565,10.751,24.677,16.389a5.543,5.543,0,0,1,2.507,6.151c-1.815,10.666-7.035,18.624-17.434,22.828A43.659,43.659,0,0,1,992.819,875.265Z" fill="#f6f6f6"/>
    </g>
    <path id="Path_724" data-name="Path 724" d="M1012.875,713.7c-12.291-5.5-19.687,9.283-4.67,20.242,32.7,23.861,45.31,51.138,47.523,69.311,1.79,14.7,7.429,13.141,8.3,3.462,1.574-17.438-4.675-40.066-16.814-59.648S1023.086,718.276,1012.875,713.7Z" fill="#f6f6f6" opacity="0.5"/>
    <path id="Path_725" data-name="Path 725" d="M982.915,700.377c-12.088-2.769-21.291,10.432-4.6,16.73S1003.936,705.194,982.915,700.377Z" fill="#f6f6f6" opacity="0.5"/>
  </g>
</svg>
