<svg xmlns="http://www.w3.org/2000/svg" width="39.443" height="55.22" viewBox="0 0 39.443 55.22">
  <path id="Icon_material-touch-app" data-name="Icon material-touch-app" d="M18.3,26.167V16.333a6.574,6.574,0,0,1,13.148,0v9.834a11.833,11.833,0,1,0-13.148,0ZM44.175,38.342,32.237,32.4a3.7,3.7,0,0,0-1.42-.289h-2V16.333a3.944,3.944,0,0,0-7.889,0V44.574l-9.019-1.893a4.6,4.6,0,0,0-.631-.079A2.942,2.942,0,0,0,9.2,43.47l-2.077,2.1,12.99,12.99A3.958,3.958,0,0,0,22.9,59.72H40.757a3.83,3.83,0,0,0,3.787-3.366L46.515,42.5a3.779,3.779,0,0,0-2.34-4.155Z" transform="translate(-7.125 -4.5)" fill="#fff"/>
</svg>
