<svg xmlns="http://www.w3.org/2000/svg" xmlns:xlink="http://www.w3.org/1999/xlink" width="1114" height="370" viewBox="0 0 1114 370">
  <defs>
    <clipPath id="clip-path">
      <rect id="Rectangle_179" data-name="Rectangle 179" width="1114" height="370" transform="translate(-173 152)" fill="none"/>
    </clipPath>
  </defs>
  <g id="Mask_Group_4" data-name="Mask Group 4" transform="translate(173 -152)" clip-path="url(#clip-path)">
    <path id="desk" d="M-17.6,575.672s176.472,210.769,557.36,210.769c396.993,0,557.361-210.769,557.361-210.769V1700.485H-17.6Z" transform="translate(-155.754 -312.389)" fill="#155aa7"/>
    <g id="Group_356" data-name="Group 356" transform="translate(176.963 152.729)">
      <g id="Group_307" data-name="Group 307" transform="translate(28.065 129.442)">
        <path id="Path_921" data-name="Path 921" d="M3614.672,573.694s-7.607-6.8-22.347-8.768-69.893-5.541-139.481-5.541-110.933.571-129.639,3.787-29.953,10.522-29.953,10.522c-6.421-10.522,2.376-49.841,4.636-62.284,0,0,11.337-63.208,13.451-74.234s8.3-17.816,32.316-21,37.559-3.4,111.734-3.4,107.032,1.5,117.47,3.272,20.493,10.455,23.58,25.744c3.019,14.936,11.865,66.99,12.278,69.421.006.034.006.062.012.09,1.076,6.566,6.659,34.221,7.843,45.616S3614.672,573.694,3614.672,573.694Z" transform="translate(-3270.874 -406.144)" fill="#f49d29"/>
        <path id="Path_922" data-name="Path 922" d="M3287.664,462.82a38.193,38.193,0,0,0,10.187-14.561c.946-2.269,10.779-1.8,10.779-1.8L3324.136,432,3330,401.93l210.063-1.7-8.67,12.177S3552.6,430.717,3557,440.938s10.194,17.383,18.515,28.047,20.423,18.334,20.423,18.334l10.083,73.474L3362.3,594.2l-109.338-31.18Z" transform="translate(-3252.966 -400.228)"/>
      </g>
      <g id="Group_314" data-name="Group 314" transform="translate(-0.001 0)">
        <g id="Group_308" data-name="Group 308" transform="translate(154.642)">
          <path id="Path_924" data-name="Path 924" d="M3526.285,337.169l.849,20.585,27.765,22.63h4.785l26.879-23.857,1.556-23.448Z" transform="translate(-3508.402 -239.128)" fill="#f9cfcc"/>
          <path id="Path_925" data-name="Path 925" d="M3530.546,339.31c1.891,3.28,1.513,7.227,1.891,9.656s-5.043-.972-5.043-.972l2.111,9.75,14.934,20.074,16.345,4.493,27.857-28.547.351-23.9Z" transform="translate(-3508.925 -237.611)"/>
          <path id="Path_926" data-name="Path 926" d="M3534.256,190.211l-18.819,3.272-6.083,14.314-.81,16.858s-1.375-2.322-3.046-1.069-2.945,5.061-2.388,6.9a70.96,70.96,0,0,1,1.362,8.426c.177,1.636.837,7.5,1.224,9.032s1.924,3.579,3.038,3.527,3.237-1.636,3.237-1.636,1.38,15.439,2.016,17.279a98.582,98.582,0,0,0,9.755,16.287c3.5,4.294,13.609,11.456,16.58,12.325s10.86.886,13.672-.8,12.417-8.231,14.541-10.889,10.081-18.506,10.4-22.289,1.008-9.611,1.432-12.065a19.253,19.253,0,0,0,2.282,2.249c.425.17,2.547.409,3.219-.511a19.7,19.7,0,0,0,2.653-6.848,117.893,117.893,0,0,1,2.477-13.4,9.662,9.662,0,0,0-.707-6.885c-.637-.818-5.236.068-5.236.068l.248-18.131-6.686-13.8-7.428-4.5Z" transform="translate(-3497.413 -170.694)" fill="#f9cfcc"/>
          <path id="Path_927" data-name="Path 927" d="M3591,231.179a117.7,117.7,0,0,0-2.478,13.394,10.651,10.651,0,0,1-.353,1.668.239.239,0,0,1-.011.04c-.126.434-.274.877-.432,1.312a.232.232,0,0,1-.011.024.124.124,0,0,1-.011.026c-.006.011-.008.021-.014.032a19.242,19.242,0,0,1-1.822,3.747c-.672.92-2.794.682-3.218.511a19.123,19.123,0,0,1-2.281-2.248c-.424,2.453-1.113,8.28-1.434,12.064s-8.275,19.631-10.4,22.29c-1.941,2.435-10.16,8.124-13.691,10.361l-.006.005c-.325.206-.61.379-.845.522-1.581.946-4.767,1.357-7.781,1.378a23.019,23.019,0,0,1-5.889-.577c-2.974-.869-13.079-8.032-16.58-12.324a98.487,98.487,0,0,1-9.756-16.288c-.637-1.839-2.016-17.278-2.016-17.278s-2.123,1.584-3.238,1.636c-.776.034-1.759-.943-2.409-2.063,0-.005-.009-.011-.011-.016l-.005-.008a5.737,5.737,0,0,1-.613-1.441c-.066-.266-.142-.667-.221-1.152a.287.287,0,0,1-.006-.034c0-.021-.008-.048-.014-.077s-.014-.087-.022-.137c-.005-.029-.008-.058-.013-.092s-.008-.058-.014-.09c-.178-1.136-.369-2.614-.531-3.981-.005-.034-.008-.069-.013-.1-.008-.071-.017-.137-.025-.2a0,0,0,0,0,0-.008c-.011-.1-.022-.179-.03-.237l-.008-.056c0-.013,0-.026,0-.034a.129.129,0,0,1,0-.021c-.142-1.2-.26-2.255-.32-2.814-.013-.127-.03-.272-.049-.432v0a67.266,67.266,0,0,0-1.313-7.992c-.558-1.842.716-5.65,2.387-6.9s3.047,1.067,3.047,1.067l.81-16.857,6.083-14.314,18.819-3.273,36.932-2.282,7.428,4.5,6.684,13.8-.246,18.132s4.6-.886,5.235-.069A9.667,9.667,0,0,1,3591,231.179Z" transform="translate(-3497.413 -170.694)" fill="#f9cfcc" stroke="#000" stroke-miterlimit="10" stroke-width="0.5"/>
          <path id="Path_928" data-name="Path 928" d="M3591,231.179a117.7,117.7,0,0,0-2.478,13.394,10.651,10.651,0,0,1-.353,1.668c.049-.361-.418-.7-.659-.309a9.917,9.917,0,0,1-1.318,2.235c-.536.446-2.461,1.616-2.354,1.339a4.333,4.333,0,0,0-.006-1.246,5.892,5.892,0,0,1,.233-1.643c.541-1.68.9-3.386,1.343-5.1a3.228,3.228,0,0,0,.125-.755,2.468,2.468,0,0,0-.333-1.217c-1.2-2.172-2.833.872-2.9,2.086-.07,1.375-.319,6.943-.319,7.631s.856,1.307,1.39,1.616,1.857-.309,2.677-.791a6.65,6.65,0,0,0,1.641-2.417,19.242,19.242,0,0,1-1.822,3.747c-.672.92-2.794.682-3.218.511a19.123,19.123,0,0,1-2.281-2.248c-.424,2.453-1.113,8.28-1.434,12.064s-8.275,19.631-10.4,22.29c-1.941,2.435-10.16,8.124-13.691,10.361.915-.851,1.818-1.715,2.719-2.58a10.278,10.278,0,0,0,2.467-4.487q.6-1.694,1.186-3.4c.392-1.154.777-2.312,1.122-3.482a7.929,7.929,0,0,0,.484-2.11c0-1.444-1.712-6.256-1.211-7.494s2.995,2.82,3.14,4.332.928,1.786,1.354,0,.713-6.875.926-8.111,7.85-7.289,8.279-8.593,1-11.068.927-11.892c-.12-1.394-3.666-4.627-5.019-3.416a7.7,7.7,0,0,0-1.125,1.688c-1.43,2.191-7.88,4.977-10.625,3.771a22.63,22.63,0,0,1-3.282-1.768,5.854,5.854,0,0,1-2.426-2.99c-.284-1.065-3.066-2.886-3.46-3.539s-.249-3.473-.249-4.021c0-.462-.563-.8-.911-1s-1.158-.238-1.075-.808c.009-.06.033-.117.037-.178a.37.37,0,0,0-.228-.331,1.089,1.089,0,0,0-.417-.076l-.713-.035a.2.2,0,0,1-.1-.023.164.164,0,0,1-.055-.078.715.715,0,0,1,.035-.548,2.131,2.131,0,0,1,.315-.465,14.691,14.691,0,0,1,2.7-2.855.776.776,0,0,1,.212-.121.756.756,0,0,1,.229-.024,8.618,8.618,0,0,1,1.537.107,8.222,8.222,0,0,1,1.661.769q1.1.52,2.2,1.038s-.7-3.041-.457-3.634a12.974,12.974,0,0,1,3.239-3.2c1.124-.722.829-1.573-.694-1.882s-7.12-.722-7.12-.722a27.913,27.913,0,0,0,6.773-.364c-.056-2.669-2.9-7.373-4.988-8.911-.53-.391-3.27-2.175-3.979-1.682-2.825,1.988-5.2,5.147-8.354,6.56-1.046.468-2.323.874-2.691,1.959a38.363,38.363,0,0,0,6.709,2.329c-.555-.119-10.057-2.153-10.888-1.853-.855.311,2.462,4.435,1.285,5.571-.81.779,2.313,1.612,2.7,1.752a26.524,26.524,0,0,1,3.16,1.322,19.527,19.527,0,0,0,3.6,1.488c1.189.356,1.248,1.159,1.317,2.208a9.976,9.976,0,0,1,0,2.739c-.106.464-1.365.619-2.836,1.444s-1.417,1.934-1.2,3.154-.643,3.246-1.285,3.523a6.858,6.858,0,0,0-3.424,1.718c-1.171,1.039-3.875,2.045-5.6,2.614,2.8-1.246,5.292-4.258,5.172-4.609-.145-.411-1.857.756-4.141,1.17s-9.7.551-12.486-.069-3.708-.756-2.568.962,4.923,4.124,4.923,4.124a10.462,10.462,0,0,1-5.421-2.475,5.888,5.888,0,0,0,.142,2.82c.427,1.992,2.995,5.911,3.424,7.286s-.284,3.094,1.211,5.017a17.179,17.179,0,0,1,3.569,8.319c.426,3.5,1.212,4.329,1.926,3.85s1.925-3.507,4.28-4.606,6.288-1.349,7.037-2.356-.161-3.479-.375-5.128,2.276-2.089,3.345-1.728,2.864,1.728,4.789,1.728,3.692-1.675,5.085-1.934a2.449,2.449,0,0,1,2.272,1.212,3.421,3.421,0,0,0-2.3-.155c-1.151.387-2.461,1.7-2.382,2.3a18.056,18.056,0,0,0,1.821,3.789c.615.954-.35,3.17.186,3.816s3.318,1.16,4.415,1.468,4.095.672,4.095.672-5.834.1-7.6.824a9.99,9.99,0,0,1-3.317.733,8.869,8.869,0,0,1-2.3.348c-1.175,0-3.049,4.952-1.608,5.157a13.81,13.81,0,0,0,5.462-.258c1.285-.514,3.373-.67,4.174-.206s2.729,2.061,2.249,2.788a5.709,5.709,0,0,1-3.585,1.9c-1.231,0-2.892-.616-5.728-.566s-6.564,1.547-7.349,2.405.785,2.406,1.285,3.333.178,3.37.928,4.264,4.707,2.245,4.83,2.287a23.019,23.019,0,0,1-5.889-.577c-2.974-.869-13.079-8.032-16.58-12.324a98.487,98.487,0,0,1-9.756-16.288c-.637-1.839-2.016-17.278-2.016-17.278s-2.123,1.584-3.238,1.636c-.776.034-1.759-.943-2.409-2.063.084.116.454.59.919.508.525-.093,1.034-1.031.64-2.44a5.879,5.879,0,0,0-1.657-2.493s.533,1.683.284,2.132-1.036-.324-1.036-.324a.287.287,0,0,1-.006-.034c0-.021-.008-.048-.014-.077s-.014-.087-.022-.137c-.005-.029-.008-.058-.013-.092s-.008-.058-.014-.09c-.134-.941-.4-2.943-.531-3.981-.005-.034-.008-.069-.013-.1-.008-.071-.017-.137-.025-.206-.011-.1-.022-.179-.03-.237a.487.487,0,0,0-.008-.056c0-.013,0-.026,0-.034a2.744,2.744,0,0,0,.733,1.157,14.471,14.471,0,0,0,1.715,1.513,5.408,5.408,0,0,0-.93-1.41,3.93,3.93,0,0,1-.785-3.162,13.908,13.908,0,0,1,1.6-2.709l.336-.618a.957.957,0,0,0,.15-.433.941.941,0,0,0-.11-.386c-.156-.349-.271-.922-.655-1.082a.838.838,0,0,0-.966.314c-.5.619-1.617,2.3-1.463,3.547a67.266,67.266,0,0,0-1.313-7.992c-.558-1.842.716-5.65,2.387-6.9s3.047,1.067,3.047,1.067l.81-16.857,6.083-14.314,18.819-3.273,36.932-2.282,7.428,4.5,6.684,13.8-.246,18.132s4.6-.886,5.235-.069A9.667,9.667,0,0,1,3591,231.179Z" transform="translate(-3497.413 -170.694)" stroke="#000" stroke-linecap="round" stroke-linejoin="round" stroke-width="0.75"/>
          <path id="Path_929" data-name="Path 929" d="M3567.082,316.272c-1.284,1.718-1.463,3.471-.535,4.674" transform="translate(-3527.108 -231.204)" fill="none" stroke="#0d0d0c" stroke-linecap="round" stroke-linejoin="round" stroke-width="2"/>
          <path id="Path_930" data-name="Path 930" d="M3555.053,326.744c1.284-2.44,4.852-5.465,4.852-5.465" transform="translate(-3521.965 -233.564)" fill="none" stroke="#0d0d0c" stroke-linecap="round" stroke-linejoin="round" stroke-width="2"/>
          <path id="Path_931" data-name="Path 931" d="M3602.975,319.328c1.5,1.788,3.781,3.712,4.781,5.568" transform="translate(-3544.558 -232.644)" fill="none" stroke="#0d0d0c" stroke-linecap="round" stroke-linejoin="round" stroke-width="2"/>
          <path id="Path_932" data-name="Path 932" d="M3514.75,233.254s-.5-14.655,0-19.086,3.607-11.724,4.81-13.633c0,0-1.415-9.611-1.98-11.656s4.669-6,6.58-6.339a4.647,4.647,0,0,1,2.972.273s4.1-1.432,6.862-1.159a33.155,33.155,0,0,1,7.157,2.113l-1.568-1.431a36.111,36.111,0,0,0,5.872,1.466c2.618.341,6.722,1.09,10.436-.409s6.757-.443,8.383-2.181a13.271,13.271,0,0,1,4.634-.477c2.9.136,5.129-.613,6.084-2.011,0,0,1.38-.2,3.5,2.522s3.608,8.384,4.74,10.565l-3.679,8.589s2.264,5.794,2.971,7.771.213,22.358.213,22.358a35.168,35.168,0,0,1,1.556-7.907c1.132-2.794,4.634-12.61,4.634-12.61l.99,1.329,1.627-1.67-1.8-4.226s3.007-7.4,3.219-8.111-.177-12.406-2.724-18.2-8.985-11.042-12.38-11.451c0,0,.778-2.249-2.76-4.635s-15.706-6.407-20.092-7.566-28.158,4.385-30.421,5.181-6.509,4.09-7.075,5.18-.071,1.636-.071,1.636-7.287,9.884-8.207,11.452-.637,8.793-.991,10.5.142,6.68.566,9.543,3.308,15.353,3.308,15.353Z" transform="translate(-3499.838 -155.321)" fill="#ed759d"/>
          <path id="Path_933" data-name="Path 933" d="M3570.469,172.4a6.171,6.171,0,0,1-1.526,4.042s-5.106-7.014-8.6-8.108a122.276,122.276,0,0,0-16.536-3.006c-2.28-.091-14,2.733-14,2.733s10.968-1.549,14.655-1.184,13.521,2.366,16.263,4.007a17.578,17.578,0,0,1,4.728,4.556s-4.161-3.28-7.469-3.826-12.387-2.733-16.83-2.368-15.652,2-18.227,3.461c0,0,15.106-1.551,18.416-1.823s13.994,2.37,17.3,3.736a11.667,11.667,0,0,1,5.106,4.555,20.4,20.4,0,0,1-3.687-1.9c-1.8-1.2-9.739-1.743-12.67-1.743s-11.534,1.743-11.534,1.743,7.127.012,10.844,0,10.619,1.9,10.619,1.9a21.294,21.294,0,0,1-7.753,1.366c-3.877-.182-13.8.273-17.208-.547s-11.914-.608-15.6.561a48.442,48.442,0,0,1,8.51-4.3c3.781-1.275,13.9-2.459,13.9-2.459s-14.844,1-17.492,2.186-8.793,3.1-9.36,4.1-.378-1.549,1.891-4.373a14.836,14.836,0,0,1,5.862-4.1s-9.266,4.58-9.928,5.661-4.35,7-4.917,9.553a29.328,29.328,0,0,0-.52,5.739,45.387,45.387,0,0,1-.756-6.285,20.976,20.976,0,0,1,1.513-4.828s-2.317,2.96-2.647,4.509-.9,4.555-.9,4.555-.9-3.868-.479-5.369l-8.976,15.162,10.117,19.313s2.426,2.208,2.159-.581-.931-10.168-.931-10.168l1.986,9.383,1.229-8.381v4.373l1.513-3.28s2.065-4.259,3.648-5.713c0,0,2.214-4.611,1.9-5.036s18.353-6.134,18.353-6.134l36.991.486,3.025,2.368-2.363,14.211,5.061,1.739-1.469-8.025s3.026,7.652,3.026,7.288-2.08-8.29-2.08-8.29l3.12,6.013-2.553-9.93,1.325,2.368s.377-3.553,1.229-4.555,4.255,4.646,4.255,6.013.365,6.392.365,6.392l6.632-8.3s-4.231-12.712-5.265-15.536c0,0,.5,2.783.757,6.123a31.444,31.444,0,0,0-4.034-10.324,59.148,59.148,0,0,1,2.584,9.413s-1.827-6.438-4.6-9.656c0,0,2.458,6.255,2.837,8.016s-1.766,3.7-2.648,3.887-3.718-5.1-3.718-5.1l1.512,4.21s-1.954-4.21-3.971-7.671-2.9-3.4-2.9-3.4a17.936,17.936,0,0,0,1.828-9.6Z" transform="translate(-3492.45 -160.037)" stroke="#000" stroke-linecap="round" stroke-linejoin="round" stroke-width="0.75"/>
        </g>
        <g id="Group_313" data-name="Group 313" transform="translate(0 101.372)">
          <rect id="Rectangle_36" data-name="Rectangle 36" width="85.91" height="160.889" transform="translate(155.511 40.786)" fill="#fff"/>
          <path id="Path_934" data-name="Path 934" d="M3552.222,433.967a48.5,48.5,0,0,0,8.313,21.02l-22.375,56.878v99.466H3592.8V512.924l-24.182-57.231a37.749,37.749,0,0,0,8.571-21.727s-4.474-9.833-13.071-9.833S3552.222,433.967,3552.222,433.967Z" transform="translate(-3359.359 -383.429)" stroke="#000" stroke-linecap="round" stroke-linejoin="round" stroke-width="0.25"/>
          <path id="Path_935" data-name="Path 935" d="M3539.434,455.234c4.949-6.429,13.622-13.86,13.622-13.86l-1.124-3.448s7.1-12.163,10.111-13.17,11.929,15.232,11.929,15.232l-1.1,3.146s8.7,6.448,11.351,10.424l3.4-11.53-11.094-19.541-12.753-3.656-12.586,4.16-13.3,10.909-3.343,18.533Z" transform="translate(-3357.656 -380.929)" stroke="#000" stroke-linecap="round" stroke-linejoin="round" stroke-width="0.25"/>
          <g id="Group_309" data-name="Group 309" transform="translate(91.771)">
            <path id="Path_936" data-name="Path 936" d="M3464.763,587.662l-69.947,1.416s0-61.3-1.769-67.477a40.514,40.514,0,0,0-2.88-7.307,44.937,44.937,0,0,1-2.6-5.939c-1.589-4.77,1.5-14.576,1.5-14.576s-3.533-5.035-3.18-9.182c.343-4.045,2.9-10.8,1.721-22.689v0c-.034-.309-.067-.628-.1-.947-1.151-10.192-8.9-22.583-12.348-36.781a57.184,57.184,0,0,1-1.547-9.854c-.019-.261-.034-.517-.043-.773-.927-17.958,6.35-30.532,11.111-29.02,4.054,1.285,18.4-.082,27.985-3.136.014,0,.024,0,.039-.01a33.113,33.113,0,0,0,4.832-1.919c7.612-3.857,11.618-5.132,14.4-4.876a6.249,6.249,0,0,1,1.025.169l21.9,50.752Z" transform="translate(-3373.496 -360.055)" fill="#155aa7"/>
            <path id="Path_937" data-name="Path 937" d="M3647.916,364.85,3634.58,467.536l-2.8,112.489h55.8s2.12-34.916,4.416-41.8,6.536-18.371,8.3-28.793a116.177,116.177,0,0,0,1.06-22.433s-3.356-28.086-1.413-38.508,12.895-31.971,13.955-40.273,1.943-14.131,0-20.313-14.838-3.533-20.49-6.182-27.379-10.765-32.678-11.742S3647.916,364.85,3647.916,364.85Z" transform="translate(-3495.266 -355.479)" fill="#155aa7"/>
            <path id="Path_938" data-name="Path 938" d="M3518.294,359.781c10.364,10.6,18.842,25.436,34.5,31.442,0,0,22.61-13.425,30.029-29.322A102.82,102.82,0,0,1,3584,386.277c-.941,13.66-9.539,35.21-9.539,35.21s-16.839-25.789-21.314-25.789-18.371,17.9-22.61,28.027l-15.78-25.318Z" transform="translate(-3440.098 -353.089)" fill="#fff"/>
            <path id="Path_939" data-name="Path 939" d="M3539.71,434.738c-5.1,6.046-10.539,14.2-12.924,19.9l-15.78-25.318" transform="translate(-3438.327 -385.873)" fill="none" stroke="#0d0d0c" stroke-linecap="round" stroke-linejoin="round" stroke-width="2"/>
            <path id="Path_940" data-name="Path 940" d="M3500.51,352.5c-4.881,2.024-21.066,9.441-22.656,11.737s-1.767,32.325-3.886,40.273.177,7.949,3.886,10.422,4.416,3.356,4.416,3.356-10.775,12.718-11.3,20.314,10.068,35.858,17.84,56.7,21.9,81.96,21.9,81.96,2.472-102.1,1.767-130.712-6.712-54.4-8.655-67.476S3500.51,352.5,3500.51,352.5Z" transform="translate(-3419.441 -349.657)" fill="#155aa7"/>
            <path id="Path_941" data-name="Path 941" d="M3478.908,383.107s-1.408,26.813-2.316,31.637-2.491,9.635-1.133,11.192,7.052,5.126,8.689,6.784" transform="translate(-3421.319 -364.086)" fill="none" stroke="#0d0d0c" stroke-linecap="round" stroke-linejoin="round" stroke-width="2"/>
            <path id="Path_942" data-name="Path 942" d="M3500.427,569.321c-5.238-19.546-14.723-47.008-20.458-64.132s-8.6-26.7-9.088-29.989,1.6-9.188,4.094-13.035,11.35-15.721,13.6-19.013,11.222-19.019,11.222-19.019" transform="translate(-3419.375 -383.429)" fill="none" stroke="#0d0d0c" stroke-linecap="round" stroke-linejoin="round" stroke-width="2"/>
            <path id="Path_943" data-name="Path 943" d="M3632.387,347.119c-.618,9.89-2.191,35.9-6.431,52.147s-4.946,38.625-4.239,59.35,5.2,113.049,5.2,113.049,5.866-51.343,7.985-61.706,28.5-71.127,31.56-78.192-14.837-18.606-14.837-18.606,14.129-4.946,15.19-5.888-13.777-39.1-19.43-47.81A35.033,35.033,0,0,0,3632.387,347.119Z" transform="translate(-3490.41 -347.119)" fill="#155aa7"/>
            <path id="Path_944" data-name="Path 944" d="M3673.94,376.5s8.882,19.8,11.942,27.516c1.809,4.562,7.028,15.553,5.67,17.111s-12.215,4.832-15.19,5.888" transform="translate(-3515.144 -360.971)" fill="none" stroke="#0d0d0c" stroke-linecap="round" stroke-linejoin="round" stroke-width="2"/>
            <path id="Path_945" data-name="Path 945" d="M3643.939,566.795c0-20.094,13.423-46.828,20.5-63.444,7.478-17.565,11.764-26.558,12.256-29.85s.77-5.388-5.983-11.656c-3.359-3.118-11.346-8.8-14.3-11.481-5.312-4.827-10.74-13.951-10.74-13.951" transform="translate(-3501 -389.217)" fill="none" stroke="#0d0d0c" stroke-linecap="round" stroke-linejoin="round" stroke-width="2"/>
          </g>
          <path id="Path_946" data-name="Path 946" d="M3427.172,751.076c34.555-3.192,57.6-13.922,65.744-17.823A176.627,176.627,0,0,1,3511.41,726s14.913.955,19.175-3.584c0,0,1.428.308,10.976-2.367s36.275-15.811,55.563-27.914,14.75-35.022,14.75-35.022a85.48,85.48,0,0,1-26.1,6.808c-13.994,1.134-67.028,7.791-187.821,7.791s-152.94-10.388-152.94-10.388h-45.152s7.081,26.382,19.435,32.1,60.619,39.076,64.672,39.46,11.1-1.5,11.1-1.5,20.172,11.193,31,12.741,57.813,13.8,57.813,13.8Z" transform="translate(-3199.865 -493.271)" stroke="#000" stroke-linecap="round" stroke-linejoin="round" stroke-width="0.25"/>
          <g id="Group_310" data-name="Group 310" transform="translate(76.543 159.057)">
            <path id="Path_947" data-name="Path 947" d="M3588.922,689.856l-14.467-17.236s-21.575,2.255-29.43,2.479-13.6.372-14.834-1.139a16.671,16.671,0,0,0-3.524-3.057,23.976,23.976,0,0,0-3.53-1.871c-9.025-4-13.454-5.115-19.167-7.63-8.836-3.89-11.9.172-31.01-11.73a7.836,7.836,0,0,0-8.695,0s-2.98-3.736-9.137.16-21.839,5.194-27.624,8.688c-4.1,2.468-16.438,11.008-24.4,18.747l-.018.018c-.7.673-1.357,1.346-1.977,2-2.007,1.895-3.606,2.656-7.313,2.568-4.828-.118-15.494-3.6-15.494-3.6l-22.9,8.075-8.411,8.942,2.119,18.752,25.281,13.092s18.422,8.387,23.758,9.615A109.052,109.052,0,0,0,3411.7,738.5c5.377.39,22.3,3.324,22.3,3.324a2.973,2.973,0,0,0,.565,3.641c1.753,1.612,17.017,9.881,26.939,9.061s7.756-2.479,7.756-2.479a17.174,17.174,0,0,0,6.08.484,13.251,13.251,0,0,0,4.751-1.865c8.016-1.027,25.617-6.216,34.672-10.323.667-.307,1.357-.637,2.066-.986,7.538-3.613,26.609-12.856,31.307-13.983,5.224-1.257,26.686-5.973,26.686-5.973l3.919,1.186,3-.531,10.619-14.5Zm-121.6-22.412c-3.482-.46-15.393-.041-15.393-.041s12.041-6.558,12.336-10.347a21.637,21.637,0,0,0,5.519,6.658,43.919,43.919,0,0,0,12.154,6.658S3470.8,667.91,3467.323,667.444Z" transform="translate(-3345.774 -648.057)" fill="#f9cfcc"/>
            <path id="Path_948" data-name="Path 948" d="M3538.4,651.032c-1.943-.122-1.418,7.375-5.011,9.833s-25.5,11.733-25.5,11.733,9.867-2.642,13.427-2.9a35.4,35.4,0,0,0,5.646-.795,5.371,5.371,0,0,0,1.966-.747c1.117-.66,4.709-2.877,7.325-4.422s3.96-5.07,3.96-5.07a19.093,19.093,0,0,0,6.5,7.56,54.519,54.519,0,0,0,11.074,5.55c3,1.143,6.441,2.046,6.441,2.046a93.882,93.882,0,0,1-8.5-4.6c-1.828-1.355-5.8-4.57-7.375-7.816s-2.206-6.335-4.1-7.722-3.972.567-3.972.567S3540.42,651.158,3538.4,651.032Z" transform="translate(-3421.633 -649.459)"/>
            <path id="Path_949" data-name="Path 949" d="M3686.6,771.069c-2.018,3.251-12.576,6.03-15.979,6.372s-12.292,6.175-23.259,6.757-19.194,8.524-19.194,8.524l-18.143,8.667-11.2,7.272a117.445,117.445,0,0,0,18.541-4.487l5.352-.473,46.125-15.2,13.883-5.547,5.421-8.053Z" transform="translate(-3464.504 -706.053)"/>
            <path id="Path_950" data-name="Path 950" d="M3680.233,784.715c7.214-2.79,12.973-6.9,13.769-10.212s3.669-5.995,3.183-2.924-1.923,8.257-3.436,9.433,8.863-2.478,11.141-2.607-10.824,7.019-10.824,7.019-8.982,3.861-9.55,3.727S3680.233,784.715,3680.233,784.715Z" transform="translate(-3502.885 -705.657)"/>
            <path id="Path_951" data-name="Path 951" d="M3376.784,769.607c1.441,4.373,15.06,6.65,20.648,6.942s9.5-2.492,12.018-4.189,7.438,10.658,11.095,15.574,14,2.454,14.289,1.595,6.512,3.743,6.512,3.743l17.028,6.72s-5.43.991-5.871,2.378,6.693,6.525,6.693,6.525l-13.753-4.382-11.535-5.673s-19.1-1.8-26.568-3.971-24.682-12.377-24.682-12.377l-9.165-5.942Z" transform="translate(-3358.267 -705.363)"/>
            <path id="Path_952" data-name="Path 952" d="M3636.194,806.027c2.08.118,2,2.561,1.481,3.6s-11.251,5.437-14.608,6.808-9.5,3.746-9.5,3.746,7.92-5.3,10.931-6.814,7.785-3.314,9.25-4.591A15.447,15.447,0,0,0,3636.194,806.027Z" transform="translate(-3471.455 -722.534)"/>
            <path id="Path_953" data-name="Path 953" d="M3571.909,779.329c7.733-2.224,28.79-5.775,31.642-7.374s12.309-8.774,14.1-10.718.233-8-4.092-6.482a18.922,18.922,0,0,1-3.242,6.889,45.477,45.477,0,0,1-7.176,7.3,21.891,21.891,0,0,1-6.6,3.456C3593.453,773.433,3571.909,779.329,3571.909,779.329Z" transform="translate(-3451.813 -698.248)"/>
            <path id="Path_954" data-name="Path 954" d="M3560.68,730.677c10.833-.541,21.62.64,27.258.892a39.183,39.183,0,0,0,14.715-2.647c2.4-1.071,1.775-5.848.761-6.958a6.692,6.692,0,0,0-2.221-1.586,6.483,6.483,0,0,1-.352,4.132c-.962,1.828-2.3,2.648-6.958,3.877s-15.6,1.5-17.916,1.615S3560.68,730.677,3560.68,730.677Z" transform="translate(-3446.52 -682.153)"/>
            <path id="Path_955" data-name="Path 955" d="M3478.078,758.543s-3.768,3.228-4.335,4.594,1.083,6.308,2.168,6.976c2.056,1.265,10.187,1.265,13.717,1.2,3.56-.068,31.753-3.76,31.753-3.76a104.744,104.744,0,0,1-15.365,1.313c-7.847.02-15.64.352-20.127-.381s-5.349-1.488-6.62-3.522a8.994,8.994,0,0,1-1.3-4.177Z" transform="translate(-3405.477 -700.147)"/>
            <path id="Path_956" data-name="Path 956" d="M3485.676,710.3c-2.792,2.823-.774,6.878,1.747,9.011s13.993,1.881,16.01,1.377,19.541-6.808,22.818-8.447,6.193-3.444,6.193-3.444l-5.058.544a20.57,20.57,0,0,1-2.742,1.859c-1.26.662-9.427,2.565-13.415,3.333s-11.41,2.226-14.856,1.968-6.137-.475-8.032-1.982a7.415,7.415,0,0,1-2.434-3.361Z" transform="translate(-3410.522 -676.695)"/>
            <path id="Path_957" data-name="Path 957" d="M3731.3,698.213c7.358,3.643,14.733,12.645,17.759,15.85s1.513,18.144,0,22.4-8.979,9.845-12.511,10.644h14.258l4.375-3.978,6.383-1.016,10.282-28.048s-9.361-11.734-11.062-12.018-24.174-4.381-24.174-4.381Z" transform="translate(-3526.961 -671.445)"/>
            <path id="Path_958" data-name="Path 958" d="M3385.492,708.739c-7.272,1.857-20.583,12.995-22.474,19.612s.854,22.432,8.528,25.976c0,0-14.254-5.848-15.892-6.73s-8.825-5.8-8.825-5.8l-2.143-19.225,19.95-12.292,17.2-2.569Z" transform="translate(-3344.686 -676.182)"/>
            <path id="Path_959" data-name="Path 959" d="M3517.772,684.661c-7.956.91-18.723,2.93-22.879,4.9s-10.5,5.259-7.436,11.276,13.85,4.245,19.977,3.236,18.367-3.81,20.529-5.494a5.861,5.861,0,0,0,2.146-4.316" transform="translate(-3411.617 -665.314)" fill="none" stroke="#0d0d0c" stroke-linecap="round" stroke-linejoin="round" stroke-width="2"/>
            <path id="Path_960" data-name="Path 960" d="M3526.34,709.1c5.962-1.167,20.764-.791,24-.827a22.412,22.412,0,0,1,11.7,3.311c2.29,1.566,3.293,6.529.777,8.745s-11.169,3.684-23.3,3.936-19.378,1.133-27.284,1.035-26.859,2.885-29.195,6.465-1.389,10.724,3.642,12.377,20.128,1.089,29.152.844,18.271-2.966,20.777-6.935" transform="translate(-3409.347 -676.431)" fill="none" stroke="#0d0d0c" stroke-linecap="round" stroke-linejoin="round" stroke-width="2"/>
            <path id="Path_961" data-name="Path 961" d="M3605.482,691.838c6.005,1.386,12.924,3.7,12.924,3.7" transform="translate(-3467.642 -668.698)" fill="none" stroke="#0d0d0c" stroke-linecap="round" stroke-linejoin="round" stroke-width="2"/>
            <path id="Path_962" data-name="Path 962" d="M3579.313,767.414c6.667.13,17.41-3.394,17.41-3.394" transform="translate(-3455.304 -702.729)" fill="none" stroke="#0d0d0c" stroke-linecap="round" stroke-linejoin="round" stroke-width="2"/>
            <path id="Path_963" data-name="Path 963" d="M3593.146,756.917c1.037-2.151,5.86-7.472,7.9-8.958s5.462-3.634,9.18-3.566,5.551,2.627,3.324,8.33-8.027,10.717-12.01,13.242c-2.864,1.815-24.841,8.08-27.613,8.435" transform="translate(-3452.763 -693.475)" fill="none" stroke="#0d0d0c" stroke-linecap="round" stroke-linejoin="round" stroke-width="2"/>
            <path id="Path_964" data-name="Path 964" d="M3536.288,796.2c-7.455,1.227-13.657-.49-17.071-.96s-10.839-3.743-14.139-4.473-12.1,1.441-10.865,6.136,7.761,6.913,13.34,9.085,16.741,5.887,28.881,2.437,17.121-9.319,17.121-9.319" transform="translate(-3415.127 -715.274)" fill="none" stroke="#0d0d0c" stroke-linecap="round" stroke-linejoin="round" stroke-width="2"/>
            <path id="Path_965" data-name="Path 965" d="M3572.207,804.37c5.256-2.41,11.542-5.564,16.059-6.44s9.607.27,12.021,2.516-4.45,5.761-11.339,8.966S3571.18,822.05,3565.725,823s-20.842-4.3-27.565-7.253" transform="translate(-3435.902 -718.578)" fill="none" stroke="#0d0d0c" stroke-linecap="round" stroke-linejoin="round" stroke-width="2"/>
            <path id="Path_966" data-name="Path 966" d="M3523.833,828.5c6.666,1.957,8.431,2.65,13.159,3.281s12.166.378,13.363-2.207c0,0-11.346-3.169-13.324-4.1s-4.452-3.144.906-3.585,12.544-1.828,14.938-3.467,7.943-6.618,7.943-6.618-4.1,3.277-12.355,5.988-20.422,1.513-20.422,1.513l-6.619-.5-5.357,1.016.441,3.711Z" transform="translate(-3425.484 -725.254)"/>
            <path id="Path_967" data-name="Path 967" d="M3491.842,801.169c-1.374.448-2.7,2.844-2.508,4.545s5.8,3.957,10.337,6.328,16.781,3.774,26.922,2.757a50.166,50.166,0,0,1-11.461-.9,89.471,89.471,0,0,1-14.526-4.8c-2.963-1.324-7.343-4.461-7.995-5.846A9.155,9.155,0,0,1,3491.842,801.169Z" transform="translate(-3412.874 -720.244)"/>
          </g>
          <g id="Group_311" data-name="Group 311" transform="translate(28.066 14.502)">
            <path id="Path_968" data-name="Path 968" d="M3369.078,698.76a9.38,9.38,0,0,0-3.8.657c-2.354.822-20.253,7.181-23.2,9.772a9.8,9.8,0,0,0-1.682,2.272c-.43.729-.875,1.575-1.324,2.493l-.014.029c-2.581,5.316-5.19,12.99-5.108,14.4.121,2,0,12.366,1.295,14.6s11.657,4.354,16.195-.827l1.353.827a19.975,19.975,0,0,1-6.123,3.533c-3.648,1.295-7.534,1.647-11.187,0s-15.663-12.957-15.663-12.957l-6.476-12.927,6.611-23.979,2.518-9.139,29.319,1.237,9.849,1.856,1.765,1.368.869,1.667Z" transform="translate(-3281.434 -522.107)" fill="#fff"/>
            <path id="Path_969" data-name="Path 969" d="M3352.8,750.842a19.976,19.976,0,0,1-6.123,3.533c-3.648,1.295-7.534,1.647-11.187,0s-15.663-12.957-15.663-12.957l-6.476-12.927,6.611-23.979c5.625-.435,19.35-1.126,13.98,2.977-6.693,5.112-8.19,14.048-8.19,14.048a8.6,8.6,0,0,1,1.614,5.3c-.281,2.769-2.745,8.824-1.992,9.955s3.91,2.4,4.538,3.218,1.513-4.605,2.484-7.094c.822-2.1,4.093-6.534,6.669-11.077-2.581,5.316-5.19,12.99-5.108,14.4.121,2,0,12.366,1.295,14.6s11.657,4.354,16.195-.827Z" transform="translate(-3281.434 -529.961)" fill="#c9d6e8"/>
            <path id="Path_970" data-name="Path 970" d="M3333.342,548.609l-12.574,14.551s8.124,9.8,12.1,12.894,2.943,4.359,2.943,4.359l-.884-.826s-13.657.942-23.786,4.238-15.073,10.6-18.137,21.433-1.647,15.073-1.647,15.073c-3.533.942-7.3-5.417-10.835-10.6s-19.311-20.727-22.844-24.26-4.712-18.132-4.712-23.786,3.064-16.721,8.718-25.2c3.939-5.905,19.195-27.135,28.363-40.42.019-.024.038-.053.063-.082,3.958-5.741,6.771-9.984,7.017-10.839.57-1.943,1.745-7.674,2.963-12.246l0-.01a36.115,36.115,0,0,1,1.628-5.055c1.648-3.648,7.887-2.827,7.887-2.827s.706-.116,1.885-4.354c1.063-3.832,1.169-10.642,5.258-12.787a5.571,5.571,0,0,1,1.454-.522l4.572,4.838,5.669,5.993,16.373,17.315-5.887,66.651Z" transform="translate(-3252.966 -408.872)" fill="#155aa7"/>
            <path id="Path_971" data-name="Path 971" d="M3412.635,428.689s-2.5,2.952-5.156,6.867c-5.34-2.973-13.241-7.723-15.667-11.125-3.785-5.3-17.4-5.8-20.171-5.8-2.726,0,12.7,9.723,13.222,10.052-.508-.184-16.847-6.152-18.707-6.712-1.044-.315-2.9.744-4.577,1.885-1.353.913-2.586,1.89-3.175,2.242-1.325.793,7.515,24.975,12.289,34.075s-1.57,37.375-3.62,39.395,1.918-23.322-1.483-33.91a19.436,19.436,0,0,0-1.667-3.75v0c-4.572-7.954-13.8-11.666-16.112-13.643-2.6-2.237-22.853,11.386-24.569,13.406,3.958-5.741,6.771-9.984,7.017-10.839.57-1.943,1.744-7.674,2.962-12.246l0-.009,0-.014s-.831,6.205-.072,6.485,6.05-7.655,8.036-7.752,8.984-2.8,8.134-6.6c-.353-1.566.71-4.064,2.146-6.514a51.8,51.8,0,0,1,4.437-6.311,11.8,11.8,0,0,1,.884-1c.85-.758,16.073-2.083,13.807-2.933s-15.507-.909-15.507-.909,2.933-10.269,11.5-9.646,34.127-12.733,34.712-15.508-6.171-8.061-12.289-6.49a33.12,33.12,0,0,0,4.833-1.919c7.611-3.857,11.618-5.132,14.4-4.876a.375.375,0,0,1-.034.049c-1.59,2.3-1.768,32.325-3.885,40.274s.174,7.95,3.885,10.419S3412.635,428.689,3412.635,428.689Z" transform="translate(-3286.099 -374.556)" stroke="#000" stroke-linecap="round" stroke-linejoin="round" stroke-width="0.25"/>
            <path id="Path_972" data-name="Path 972" d="M3486.353,579.712l-.275,1.508c-5.862-14.015-19.983-37.97-20.741-42-.382-2.034,1.836-5.736,4.122-8.9,2.915,11.985,10.651,32.639,16.682,48.819C3486.213,579.326,3486.28,579.518,3486.353,579.712Z" transform="translate(-3353.07 -447.992)" stroke="#000" stroke-linecap="round" stroke-linejoin="round" stroke-width="0.25"/>
          </g>
          <path id="Path_973" data-name="Path 973" d="M3406.2,705.153c-.045-.018-.045-.036.018-.036C3406.245,705.117,3406.237,705.126,3406.2,705.153Z" transform="translate(-3297.129 -515.902)" fill="#f49c9a" opacity="0.39"/>
          <g id="Group_312" data-name="Group 312" transform="translate(234.97 9.377)">
            <path id="Path_974" data-name="Path 974" d="M3799.377,699.6l-.382,1.411-7.215,26.5-13.246,2.648s-9.54,6.36-12.628,6.712-6.625-2.286-6.625-2.286,4.591-.183,5.3-1.421,4.417-14.841,4.243-17.31c-.125-1.72-2.8-6.423-5.079-10.492l0,0c-1-1.788-1.919-3.455-2.513-4.7-1.942-4.059-6.359-6.712-10.6-8.124s-10.96-3.025-10.96-3.025c1.237-1.329,5.393-6.248,9.486-7.809l3.064-1.532,30.735,1.532.826.9,13.483,14.7Z" transform="translate(-3689.331 -513.516)" fill="#fff"/>
            <path id="Path_975" data-name="Path 975" d="M3816.493,702.39l-7.215,26.5-13.247,2.648s-9.54,6.36-12.627,6.712-6.625-2.286-6.625-2.286,4.591-.183,5.3-1.421,4.417-14.841,4.243-17.31c-.125-1.72-2.8-6.423-5.079-10.492.333.6,2.909,2.334,2.165-.314s-1.653-4.915,0-4.538,2.382-.251,4.146.913,3.785,9.931,4.539,11.211,5.547-1.281,5.17-2.165-1.387-8.07-3.973-12.227-9.075-11.1-12.776-12.729l20.765-2.914,6.321-.884s3.277,7.229,7.162,15.58C3815.329,699.9,3815.908,701.139,3816.493,702.39Z" transform="translate(-3706.829 -514.896)" fill="#c9d6e8"/>
            <path id="Path_976" data-name="Path 976" d="M3744.066,555.39c.588-2.473.942-3.651,2.944-4s4.828-.942,4.828-.942l12.129-10.363s-3.062-1.413-5.888-5.829-12.717-14.926-12.717-14.926l-16.487-38.478,14.6-50.047s12.955-18.6,16.722-18.544,5.534,5.767,6.535,10.359,3.239,6.241,4,8.243-.412,7.654-.412,7.654a40.173,40.173,0,0,1,9.833,15.368c3.179,9.362,24.376,45.4,29.5,52.108s12.366,18.194,14.838,27.555,6.535,16.487,6.535,21.845.883,11.54-3.18,15.073-24.2,23.846-30.911,29.852-14.463,8.126-16.947,7.949-6.546-4.416-6.546-4.416l6.546-3.533a70.947,70.947,0,0,0,1.314-10.686c.177-5.3-9.1-20.137-16.163-26.5C3759.718,558.248,3744.066,555.39,3744.066,555.39Z" transform="translate(-3684.244 -387.206)" fill="#155aa7"/>
            <path id="Path_977" data-name="Path 977" d="M3772.673,592.414c-.426-.271-14.053-8.824-18.195-8.824-4.209,0-20.375,2.271-30.324,12.024l-21.641,13.777-10.008,4.079-31.846-1.251-16.227-6.354c.938-7.026.718-6.844,1.3-9.662,1.285-6.282,11.481-31.083,20-51.216l7.234-7.568c-.223.633-14.991,42.527-13.991,43.672s7.563,7.921,18.891,0,24.515-13.638,24.651-19.562-.435-23.69,0-30.006,3.856,9.331,6.012,14.227,4.4,20.823,5.915,21.916,9.834,11.955,14.749,10.061,22.694-3.214,26.855-1.13C3760.137,578.641,3772.3,591.993,3772.673,592.414Z" transform="translate(-3644.432 -442.739)"/>
            <path id="Path_978" data-name="Path 978" d="M3683.691,510.69c-3.958,8.109-25.1,45.823-32.276,65.327,7.041-19.61,26.554-64.568,29.164-70.585a4.444,4.444,0,0,0,.343-2.068C3683.552,505.162,3685.209,507.583,3683.691,510.69Z" transform="translate(-3647.724 -430.16)" stroke="#000" stroke-linecap="round" stroke-linejoin="round" stroke-width="0.25"/>
            <path id="Path_979" data-name="Path 979" d="M3759.345,449.1s-10.762-11.463-19.078-9.569-19.292,13.048-20.993,19.287.377,12.671.947,19.857,1.89,13.048,0,9.249-7.819-14.86-8.071-19.141,1.639-31.9,1.639-31.9L3694.5,476.715l15.508-50.6s-8.887-2.474-11.724,0c-1.754,1.532-10.6,1.885-17.088,1.933a71.9,71.9,0,0,0-8.429-6.524s14.126-4.949,15.189-5.891-13.778-39.1-19.431-47.809a29.582,29.582,0,0,0-2.209-2.967c.319.164,9.346,4.818,7.52,4.282-1.861-.551-.894,4.2,4.4,8.549s20.8,10.776,26.473,12.221,20.046-.875,18.721,2.151c-1.3,2.977-9.2,15.977-9.448,16.382.31-.4,10.352-13.309,12.285-12.714,1.962.6,3.025,7.3,6.239,10.7s4.731-6.166,4.021-9.013c-.274-1.108,1.456.948,3.674,3.876a72.713,72.713,0,0,1,11.674,22.965Z" transform="translate(-3654.75 -364.86)" stroke="#000" stroke-linecap="round" stroke-linejoin="round" stroke-width="0.25"/>
          </g>
        </g>
        <path id="Path_980" data-name="Path 980" d="M3352.693,533.039c2,10.2-.037,42.72-.037,42.72l-12.906,17.59-5.259,3.43s-4.2-7.78-6.844-12.507-23.292-7.837-29.043-8.551-16.53,4.58-16.53,4.58,8.666-6.051,16.53-8.321,21.433-2.458,27.791-3.593,13.544-17.32,15.624-27.1-.738-16.09-2.88-17.806,2.5-4.83,2.5-4.83Z" transform="translate(-3238.623 -326.619)" stroke="#000" stroke-linecap="round" stroke-linejoin="round" stroke-width="0.25"/>
        <path id="Path_981" data-name="Path 981" d="M3438.541,569.279c.74,7.016,5.717,26.474,1.787,31.265s-20.066,6.14-20.066,6.14-8.069-18.242-8.825-13.955-3.782,13.287-4.791,13.955-3.064-38.274-3.064-38.274L3390,605.586l10.338,24.266s29.1,4.455,29.455,4.164,10.666-8.191,12.745-9.605a71.382,71.382,0,0,1,8.315-4.836c1.2-.4,5.768-1.666,5.768-1.666s-4.832-14.6-6.5-19.811S3438.541,569.279,3438.541,569.279Z" transform="translate(-3289.508 -350.077)"/>
      </g>
    </g>
  </g>
</svg>
