<svg xmlns="http://www.w3.org/2000/svg" xmlns:xlink="http://www.w3.org/1999/xlink" width="1025" height="290" viewBox="0 0 1025 290">
  <defs>
    <clipPath id="clip-path">
      <rect id="Rectangle_178" data-name="Rectangle 178" width="1025" height="290" transform="translate(-325 161)" fill="none"/>
    </clipPath>
  </defs>
  <g id="Mask_Group_1" data-name="Mask Group 1" transform="translate(325 -161)" clip-path="url(#clip-path)">
    <path id="desk" d="M-17.605,575.672s162.11,193.616,512,193.616c364.684,0,512-193.616,512-193.616v714.79h-1024Z" transform="translate(-306.895 -360.831)" fill="#155aa7"/>
    <g id="Group_356" data-name="Group 356" transform="translate(229.047 103.137)">
      <g id="Group_307" data-name="Group 307" transform="translate(-180.255 160.019)">
        <path id="Path_921" data-name="Path 921" d="M3542.3,537.718s-5.906-5.277-17.35-6.808-54.267-4.3-108.3-4.3-86.132.444-100.656,2.94-23.256,8.169-23.256,8.169c-4.986-8.169,1.845-38.7,3.6-48.359,0,0,8.8-49.077,10.444-57.637s6.444-13.833,25.091-16.3,29.162-2.64,86.754-2.64,83.1,1.161,91.207,2.54,15.911,8.118,18.308,19.989c2.344,11.6,9.212,52.013,9.533,53.9,0,.026,0,.048.009.07.835,5.1,5.17,26.57,6.09,35.418S3542.3,537.718,3542.3,537.718Z" transform="translate(-3275.361 -407.627)" fill="#f49d29"/>
        <path id="Path_922" data-name="Path 922" d="M3279.906,448.827a29.658,29.658,0,0,0,7.909-11.306c.734-1.762,8.369-1.395,8.369-1.395l12.04-11.232,4.551-23.345,163.1-1.321-6.731,9.455s16.47,14.218,19.883,22.153,7.916,13.5,14.376,21.777,15.857,14.235,15.857,14.235l7.829,57.047-189.229,25.941-84.893-24.209Z" transform="translate(-3252.966 -400.228)"/>
      </g>
      <g id="Group_314" data-name="Group 314" transform="translate(-202.046 59.516)">
        <g id="Group_308" data-name="Group 308" transform="translate(120.068)">
          <path id="Path_924" data-name="Path 924" d="M3526.285,336.255l.659,15.983,21.557,17.571h3.715l20.869-18.523,1.208-18.206Z" transform="translate(-3512.4 -260.132)" fill="#f9cfcc"/>
          <path id="Path_925" data-name="Path 925" d="M3529.841,337.2c1.468,2.546,1.175,5.611,1.468,7.5s-3.915-.755-3.915-.755l1.639,7.57,11.595,15.586,12.691,3.489,21.629-22.165.272-18.557Z" transform="translate(-3513.054 -258.236)"/>
          <path id="Path_926" data-name="Path 926" d="M3527.263,189.7l-14.612,2.54-4.724,11.114-.628,13.089s-1.068-1.8-2.365-.83a6.339,6.339,0,0,0-1.854,5.359,55.052,55.052,0,0,1,1.057,6.543c.137,1.27.65,5.822.95,7.012s1.494,2.779,2.359,2.739a7.183,7.183,0,0,0,2.513-1.27s1.071,11.987,1.565,13.416a76.542,76.542,0,0,0,7.574,12.646c2.719,3.334,10.566,8.895,12.873,9.569s8.432.688,10.615-.622,9.641-6.391,11.29-8.455,7.827-14.369,8.075-17.306.783-7.462,1.112-9.368a14.94,14.94,0,0,0,1.772,1.747c.33.132,1.978.318,2.5-.4a15.294,15.294,0,0,0,2.06-5.317,91.518,91.518,0,0,1,1.923-10.4,7.5,7.5,0,0,0-.549-5.346c-.495-.635-4.065.053-4.065.053l.192-14.078L3561.7,191.42l-5.768-3.493Z" transform="translate(-3498.657 -174.546)" fill="#f9cfcc"/>
          <path id="Path_927" data-name="Path 927" d="M3571.319,221.51a91.317,91.317,0,0,0-1.924,10.4,8.257,8.257,0,0,1-.274,1.3.18.18,0,0,1-.008.031c-.1.337-.213.681-.335,1.019a.157.157,0,0,1-.009.018.108.108,0,0,1-.008.021c0,.008-.006.016-.01.025a14.957,14.957,0,0,1-1.415,2.91c-.522.714-2.17.53-2.5.4a14.865,14.865,0,0,1-1.771-1.745c-.329,1.9-.864,6.428-1.113,9.367s-6.426,15.242-8.074,17.307c-1.508,1.891-7.889,6.308-10.63,8.045l0,0c-.252.16-.474.295-.656.405-1.227.735-3.7,1.054-6.041,1.07a17.871,17.871,0,0,1-4.572-.448c-2.309-.675-10.155-6.236-12.873-9.569a76.484,76.484,0,0,1-7.575-12.646c-.494-1.428-1.565-13.415-1.565-13.415a7.2,7.2,0,0,1-2.514,1.27c-.6.027-1.366-.732-1.871-1.6,0,0-.007-.008-.009-.012l0-.006a4.457,4.457,0,0,1-.476-1.119c-.051-.207-.11-.518-.172-.894a.227.227,0,0,1,0-.027c0-.016-.006-.037-.011-.06s-.01-.067-.017-.106c0-.023-.006-.045-.01-.071s-.006-.045-.011-.07c-.138-.882-.286-2.03-.412-3.091,0-.027-.006-.053-.01-.078-.007-.055-.013-.106-.019-.153a0,0,0,0,0,0-.006c-.009-.076-.017-.139-.023-.184l-.007-.043c0-.01,0-.021,0-.027a.1.1,0,0,1,0-.016c-.11-.935-.2-1.751-.249-2.185-.01-.1-.023-.211-.038-.336v0a52.165,52.165,0,0,0-1.019-6.206,6.335,6.335,0,0,1,1.854-5.358c1.3-.974,2.366.829,2.366.829l.628-13.088,4.723-11.114,14.612-2.541,28.675-1.772,5.768,3.492,5.19,10.717-.191,14.079s3.57-.688,4.064-.053A7.505,7.505,0,0,1,3571.319,221.51Z" transform="translate(-3498.657 -174.548)" fill="#f9cfcc" stroke="#000" stroke-miterlimit="10" stroke-width="0.5"/>
          <path id="Path_928" data-name="Path 928" d="M3571.319,221.51a91.317,91.317,0,0,0-1.924,10.4,8.257,8.257,0,0,1-.274,1.3c.038-.28-.324-.544-.512-.24a7.7,7.7,0,0,1-1.024,1.735c-.416.346-1.911,1.255-1.828,1.039a3.364,3.364,0,0,0,0-.967,4.568,4.568,0,0,1,.181-1.275c.419-1.3.7-2.629,1.043-3.957a2.506,2.506,0,0,0,.1-.586,1.914,1.914,0,0,0-.259-.945c-.928-1.687-2.2.677-2.249,1.62-.055,1.068-.248,5.391-.248,5.925s.665,1.015,1.079,1.255,1.442-.24,2.079-.614a5.163,5.163,0,0,0,1.274-1.876,14.957,14.957,0,0,1-1.415,2.91c-.522.714-2.17.53-2.5.4a14.865,14.865,0,0,1-1.771-1.745c-.329,1.9-.864,6.428-1.113,9.367s-6.426,15.242-8.074,17.307c-1.508,1.891-7.889,6.308-10.63,8.045.71-.661,1.412-1.331,2.111-2a7.977,7.977,0,0,0,1.915-3.484q.469-1.315.921-2.637c.3-.9.6-1.8.871-2.7a6.147,6.147,0,0,0,.376-1.639c0-1.121-1.329-4.857-.94-5.819s2.325,2.189,2.438,3.364.72,1.387,1.052,0,.554-5.338.719-6.3,6.095-5.659,6.428-6.672a80.25,80.25,0,0,0,.72-9.233c-.093-1.082-2.846-3.592-3.9-2.652a5.987,5.987,0,0,0-.873,1.31c-1.11,1.7-6.119,3.864-8.25,2.928a17.582,17.582,0,0,1-2.548-1.373,4.546,4.546,0,0,1-1.884-2.322c-.221-.827-2.381-2.241-2.686-2.748a10.993,10.993,0,0,1-.193-3.122c0-.359-.438-.62-.707-.775s-.9-.185-.834-.627c.007-.046.025-.091.028-.138a.288.288,0,0,0-.177-.257.844.844,0,0,0-.324-.059l-.553-.027a.152.152,0,0,1-.075-.018.127.127,0,0,1-.043-.061.557.557,0,0,1,.027-.425,1.643,1.643,0,0,1,.245-.361,11.4,11.4,0,0,1,2.1-2.216.6.6,0,0,1,.165-.094.587.587,0,0,1,.177-.019,6.693,6.693,0,0,1,1.193.083,6.391,6.391,0,0,1,1.289.6l1.708.806a11.008,11.008,0,0,1-.354-2.821,10.074,10.074,0,0,1,2.515-2.482c.873-.561.643-1.221-.539-1.461s-5.528-.561-5.528-.561a21.673,21.673,0,0,0,5.259-.282c-.044-2.072-2.25-5.724-3.873-6.918-.412-.3-2.539-1.689-3.09-1.306-2.193,1.544-4.037,4-6.486,5.094-.812.364-1.8.679-2.089,1.521a29.785,29.785,0,0,0,5.209,1.809c-.431-.092-7.808-1.672-8.454-1.438-.664.241,1.911,3.443,1,4.325-.628.6,1.8,1.251,2.1,1.36a20.592,20.592,0,0,1,2.454,1.026,15.166,15.166,0,0,0,2.8,1.156c.924.276.969.9,1.023,1.715a7.758,7.758,0,0,1,0,2.127c-.083.36-1.06.481-2.2,1.121a1.966,1.966,0,0,0-.935,2.449,3.353,3.353,0,0,1-1,2.736,5.326,5.326,0,0,0-2.659,1.334,15.068,15.068,0,0,1-4.347,2.03c2.177-.968,4.109-3.306,4.015-3.578-.112-.319-1.442.587-3.215.909a39.369,39.369,0,0,1-9.694-.053c-2.16-.481-2.879-.587-1.994.747a17.427,17.427,0,0,0,3.822,3.2,8.122,8.122,0,0,1-4.209-1.921,4.572,4.572,0,0,0,.11,2.189c.331,1.547,2.325,4.589,2.659,5.657s-.221,2.4.941,3.9a13.34,13.34,0,0,1,2.771,6.459c.331,2.721.941,3.361,1.5,2.989s1.495-2.723,3.323-3.576,4.882-1.048,5.464-1.829-.125-2.7-.291-3.982,1.767-1.622,2.6-1.342,2.223,1.342,3.718,1.342,2.867-1.3,3.948-1.5a1.9,1.9,0,0,1,1.764.941,2.656,2.656,0,0,0-1.786-.121c-.894.3-1.911,1.322-1.85,1.782a14.015,14.015,0,0,0,1.414,2.942c.478.741-.271,2.461.145,2.962s2.576.9,3.427,1.14,3.179.522,3.179.522-4.53.08-5.9.64a7.758,7.758,0,0,1-2.576.569,6.886,6.886,0,0,1-1.788.27c-.913,0-2.367,3.845-1.249,4a10.722,10.722,0,0,0,4.241-.2,4.842,4.842,0,0,1,3.241-.16c.624.36,2.119,1.6,1.746,2.165a4.433,4.433,0,0,1-2.784,1.477,39.508,39.508,0,0,0-4.447-.44c-2.2.041-5.1,1.2-5.706,1.868s.609,1.868,1,2.588.138,2.617.72,3.31,3.654,1.743,3.75,1.776a17.871,17.871,0,0,1-4.572-.448c-2.309-.675-10.155-6.236-12.873-9.569a76.484,76.484,0,0,1-7.575-12.646c-.494-1.428-1.565-13.415-1.565-13.415a7.2,7.2,0,0,1-2.514,1.27c-.6.027-1.366-.732-1.871-1.6.065.09.352.458.713.395.407-.072.8-.8.5-1.895a4.567,4.567,0,0,0-1.287-1.935s.414,1.307.221,1.655-.8-.252-.8-.252a.227.227,0,0,1,0-.027c0-.016-.006-.037-.011-.06s-.01-.067-.017-.106c0-.023-.006-.045-.01-.071s-.006-.045-.011-.07c-.1-.73-.308-2.285-.412-3.091,0-.027-.006-.053-.01-.078-.007-.055-.013-.106-.019-.16-.009-.076-.017-.139-.023-.184a.379.379,0,0,0-.007-.043c0-.01,0-.021,0-.027a2.129,2.129,0,0,0,.569.9,11.26,11.26,0,0,0,1.332,1.174,4.189,4.189,0,0,0-.722-1.095,3.053,3.053,0,0,1-.609-2.455,10.79,10.79,0,0,1,1.244-2.1l.261-.48a.556.556,0,0,0,.031-.636c-.122-.271-.211-.716-.509-.84a.651.651,0,0,0-.75.244,4.624,4.624,0,0,0-1.136,2.754,52.165,52.165,0,0,0-1.019-6.206,6.335,6.335,0,0,1,1.854-5.358c1.3-.974,2.366.829,2.366.829l.628-13.088,4.723-11.114,14.612-2.541,28.675-1.772,5.768,3.492,5.19,10.717-.191,14.079s3.57-.688,4.064-.053A7.505,7.505,0,0,1,3571.319,221.51Z" transform="translate(-3498.657 -174.548)" stroke="#000" stroke-linecap="round" stroke-linejoin="round" stroke-width="0.75"/>
          <path id="Path_929" data-name="Path 929" d="M3566.832,316.272c-1,1.334-1.136,2.7-.416,3.629" transform="translate(-3535.795 -250.222)" fill="none" stroke="#0d0d0c" stroke-linecap="round" stroke-linejoin="round" stroke-width="2"/>
          <path id="Path_930" data-name="Path 930" d="M3555.053,325.522a19.48,19.48,0,0,1,3.767-4.243" transform="translate(-3529.363 -253.175)" fill="none" stroke="#0d0d0c" stroke-linecap="round" stroke-linejoin="round" stroke-width="2"/>
          <path id="Path_931" data-name="Path 931" d="M3602.975,319.328c1.163,1.388,2.936,2.882,3.712,4.323" transform="translate(-3557.619 -252.024)" fill="none" stroke="#0d0d0c" stroke-linecap="round" stroke-linejoin="round" stroke-width="2"/>
          <path id="Path_932" data-name="Path 932" d="M3513.267,215.831s-.385-11.379,0-14.819A35.679,35.679,0,0,1,3517,190.427s-1.1-7.462-1.538-9.05,3.625-4.657,5.109-4.922a3.607,3.607,0,0,1,2.307.212,15.9,15.9,0,0,1,5.328-.9,25.744,25.744,0,0,1,5.557,1.641l-1.218-1.111a28.034,28.034,0,0,0,4.559,1.138c2.033.265,5.219.847,8.1-.318s5.246-.344,6.509-1.694a10.3,10.3,0,0,1,3.6-.371c2.252.106,3.983-.476,4.724-1.561,0,0,1.071-.159,2.719,1.958s2.8,6.51,3.68,8.2l-2.857,6.669s1.758,4.5,2.307,6.033.165,17.359.165,17.359a27.3,27.3,0,0,1,1.208-6.139c.879-2.17,3.6-9.791,3.6-9.791l.769,1.032,1.263-1.3-1.4-3.281s2.335-5.742,2.5-6.3-.137-9.632-2.115-14.131-6.976-8.573-9.613-8.891c0,0,.6-1.747-2.143-3.6s-12.195-4.975-15.6-5.874-21.863,3.4-23.62,4.022-5.054,3.175-5.493,4.022-.055,1.27-.055,1.27-5.658,7.674-6.372,8.891-.494,6.827-.769,8.15.11,5.187.439,7.41,2.568,11.921,2.568,11.921Z" transform="translate(-3501.69 -155.321)" fill="#ed759d"/>
          <path id="Path_933" data-name="Path 933" d="M3553.026,170.815a4.793,4.793,0,0,1-1.185,3.139s-3.965-5.446-6.681-6.3a94.933,94.933,0,0,0-12.839-2.334c-1.77-.071-10.873,2.122-10.873,2.122s8.516-1.2,11.379-.919,10.5,1.837,12.627,3.111a13.652,13.652,0,0,1,3.671,3.537s-3.23-2.546-5.8-2.971-9.617-2.122-13.067-1.839-12.153,1.556-14.152,2.688c0,0,11.729-1.2,14.3-1.415s10.865,1.84,13.434,2.9a9.059,9.059,0,0,1,3.964,3.537,15.843,15.843,0,0,1-2.863-1.477c-1.395-.928-7.561-1.353-9.837-1.353a77.72,77.72,0,0,0-8.956,1.353s5.534.009,8.419,0a42.37,42.37,0,0,1,8.245,1.477,16.532,16.532,0,0,1-6.02,1.061c-3.01-.142-10.718.212-13.361-.424a32.176,32.176,0,0,0-12.113.436,37.62,37.62,0,0,1,6.607-3.336c2.936-.99,10.791-1.909,10.791-1.909s-11.526.778-13.581,1.7-6.827,2.4-7.268,3.183-.294-1.2,1.468-3.4a11.52,11.52,0,0,1,4.552-3.183s-7.195,3.556-7.708,4.4-3.377,5.437-3.817,7.417a22.761,22.761,0,0,0-.4,4.456,35.253,35.253,0,0,1-.587-4.88,16.29,16.29,0,0,1,1.175-3.749,13.6,13.6,0,0,0-2.055,3.5c-.257,1.2-.7,3.537-.7,3.537s-.7-3-.372-4.169l-6.969,11.772,7.855,14.995s1.884,1.715,1.676-.451-.722-7.895-.722-7.895l1.542,7.285.955-6.507v3.395l1.175-2.546a20.491,20.491,0,0,1,2.833-4.436s1.719-3.58,1.474-3.91,14.249-4.762,14.249-4.762l28.721.377,2.349,1.839-1.835,11.034,3.93,1.35-1.14-6.231s2.349,5.941,2.349,5.659-1.615-6.437-1.615-6.437l2.422,4.668-1.982-7.71,1.028,1.839s.293-2.759.954-3.537,3.3,3.608,3.3,4.668.283,4.963.283,4.963l5.149-6.448s-3.285-9.87-4.088-12.062c0,0,.392,2.161.588,4.754a24.419,24.419,0,0,0-3.132-8.016,45.948,45.948,0,0,1,2.006,7.309s-1.419-5-3.573-7.5c0,0,1.909,4.857,2.2,6.224s-1.371,2.876-2.056,3.018-2.887-3.961-2.887-3.961l1.174,3.269s-1.517-3.269-3.083-5.956-2.251-2.641-2.251-2.641a13.926,13.926,0,0,0,1.419-7.45Z" transform="translate(-3492.45 -161.218)" stroke="#000" stroke-linecap="round" stroke-linejoin="round" stroke-width="0.75"/>
        </g>
        <g id="Group_313" data-name="Group 313" transform="translate(0 78.708)">
          <rect id="Rectangle_36" data-name="Rectangle 36" width="66.703" height="124.919" transform="translate(120.744 31.667)" fill="#fff"/>
          <path id="Path_934" data-name="Path 934" d="M3549.079,431.769a37.657,37.657,0,0,0,6.455,16.32l-17.373,44.162v77.229h42.422V493.074l-18.775-44.436a29.312,29.312,0,0,0,6.655-16.869s-3.474-7.635-10.149-7.635S3549.079,431.769,3549.079,431.769Z" transform="translate(-3399.333 -392.529)" stroke="#000" stroke-linecap="round" stroke-linejoin="round" stroke-width="0.25"/>
          <path id="Path_935" data-name="Path 935" d="M3538.343,447.1a90.541,90.541,0,0,1,10.576-10.761l-.873-2.677s5.51-9.443,7.851-10.226,9.262,11.826,9.262,11.826l-.857,2.443s6.758,5.007,8.813,8.094l2.643-8.952-8.614-15.172-9.9-2.839-9.772,3.23-10.325,8.47-2.6,14.389Z" transform="translate(-3397.205 -389.403)" stroke="#000" stroke-linecap="round" stroke-linejoin="round" stroke-width="0.25"/>
          <g id="Group_309" data-name="Group 309" transform="translate(71.253)">
            <path id="Path_936" data-name="Path 936" d="M3444.359,540.018l-54.309,1.1s0-47.592-1.373-52.391a31.436,31.436,0,0,0-2.236-5.673,34.882,34.882,0,0,1-2.015-4.611c-1.234-3.7,1.167-11.317,1.167-11.317s-2.743-3.91-2.469-7.129c.267-3.141,2.251-8.386,1.336-17.616v0c-.026-.24-.052-.488-.078-.735-.894-7.913-6.912-17.534-9.587-28.558a44.379,44.379,0,0,1-1.2-7.651c-.015-.2-.026-.4-.034-.6-.72-13.943,4.93-23.706,8.627-22.532,3.148,1,14.284-.064,21.729-2.435.011,0,.019,0,.03-.007a25.717,25.717,0,0,0,3.752-1.49c5.91-2.994,9.021-3.985,11.182-3.786a4.851,4.851,0,0,1,.8.131l17,39.405Z" transform="translate(-3373.496 -363.297)" fill="#155aa7"/>
            <path id="Path_937" data-name="Path 937" d="M3644.307,364.85l-10.354,79.729-2.177,87.34H3675.1s1.646-27.11,3.428-32.458,5.074-14.264,6.446-22.355a90.2,90.2,0,0,0,.823-17.417s-2.605-21.807-1.1-29.9,10.012-24.823,10.835-31.269,1.509-10.972,0-15.772-11.521-2.743-15.909-4.8-21.258-8.358-25.372-9.117S3644.307,364.85,3644.307,364.85Z" transform="translate(-3525.785 -357.574)" fill="#155aa7"/>
            <path id="Path_938" data-name="Path 938" d="M3517.5,359.781c8.046,8.229,14.629,19.75,26.79,24.413,0,0,17.555-10.423,23.315-22.767a79.839,79.839,0,0,1,.914,18.926c-.731,10.606-7.406,27.338-7.406,27.338s-13.075-20.024-16.549-20.024-14.263,13.9-17.555,21.761l-12.252-19.658Z" transform="translate(-3456.791 -354.585)" fill="#fff"/>
            <path id="Path_939" data-name="Path 939" d="M3533.293,433.526c-3.96,4.694-8.183,11.027-10.035,15.45l-12.252-19.658" transform="translate(-3454.576 -395.586)" fill="none" stroke="#0d0d0c" stroke-linecap="round" stroke-linejoin="round" stroke-width="2"/>
            <path id="Path_940" data-name="Path 940" d="M3493.9,352.5c-3.79,1.572-16.357,7.33-17.591,9.113s-1.372,25.1-3.017,31.269.137,6.172,3.017,8.092a18.529,18.529,0,0,1,3.429,2.606s-8.366,9.875-8.777,15.772,7.817,27.841,13.852,44.024,17.007,63.636,17.007,63.636,1.92-79.271,1.372-101.489-5.212-42.242-6.72-52.39S3493.9,352.5,3493.9,352.5Z" transform="translate(-3430.956 -350.293)" fill="#155aa7"/>
            <path id="Path_941" data-name="Path 941" d="M3478.02,383.107s-1.093,20.819-1.8,24.564-1.934,7.481-.88,8.69,5.475,3.98,6.747,5.267" transform="translate(-3433.305 -368.339)" fill="none" stroke="#0d0d0c" stroke-linecap="round" stroke-linejoin="round" stroke-width="2"/>
            <path id="Path_942" data-name="Path 942" d="M3493.805,536.861c-4.067-15.176-11.431-36.5-15.884-49.794s-6.674-20.729-7.056-23.284,1.244-7.133,3.179-10.121,8.813-12.206,10.561-14.762,8.713-14.767,8.713-14.767" transform="translate(-3430.875 -392.529)" fill="none" stroke="#0d0d0c" stroke-linecap="round" stroke-linejoin="round" stroke-width="2"/>
            <path id="Path_943" data-name="Path 943" d="M3629.948,347.119c-.48,7.679-1.7,27.871-4.993,40.489s-3.84,29.99-3.291,46.081,4.04,87.774,4.04,87.774,4.554-39.864,6.2-47.91,22.126-55.225,24.5-60.711-11.52-14.446-11.52-14.446,10.97-3.84,11.794-4.572-10.7-30.356-15.086-37.121A27.2,27.2,0,0,0,3629.948,347.119Z" transform="translate(-3519.714 -347.119)" fill="#155aa7"/>
            <path id="Path_944" data-name="Path 944" d="M3673.94,376.5s6.9,15.371,9.272,21.364c1.4,3.542,5.457,12.076,4.4,13.285s-9.484,3.752-11.794,4.572" transform="translate(-3550.646 -364.443)" fill="none" stroke="#0d0d0c" stroke-linecap="round" stroke-linejoin="round" stroke-width="2"/>
            <path id="Path_945" data-name="Path 945" d="M3643.939,537.645c0-15.6,10.422-36.359,15.914-49.26,5.806-13.638,9.134-20.62,9.516-23.176s.6-4.183-4.646-9.05c-2.608-2.421-8.809-6.832-11.1-8.914-4.125-3.748-8.339-10.832-8.339-10.832" transform="translate(-3532.957 -399.769)" fill="none" stroke="#0d0d0c" stroke-linecap="round" stroke-linejoin="round" stroke-width="2"/>
          </g>
          <path id="Path_946" data-name="Path 946" d="M3376.353,730.069c26.829-2.479,44.722-10.81,51.045-13.839a137.161,137.161,0,0,1,14.359-5.63s11.579.742,14.888-2.782c0,0,1.109.239,8.522-1.838s28.165-12.276,43.141-21.673,11.452-27.192,11.452-27.192A66.368,66.368,0,0,1,3499.5,662.4c-10.865.881-52.042,6.049-145.83,6.049s-118.747-8.066-118.747-8.066h-35.058s5.5,20.484,15.09,24.921,47.067,30.34,50.213,30.638,8.62-1.163,8.62-1.163,15.663,8.691,24.073,9.892,44.888,10.715,44.888,10.715Z" transform="translate(-3199.865 -529.901)" stroke="#000" stroke-linecap="round" stroke-linejoin="round" stroke-width="0.25"/>
          <g id="Group_310" data-name="Group 310" transform="translate(59.43 123.496)">
            <path id="Path_947" data-name="Path 947" d="M3534.834,680.511,3523.6,667.128s-16.751,1.751-22.85,1.925-10.56.289-11.518-.884a12.947,12.947,0,0,0-2.736-2.374,18.615,18.615,0,0,0-2.741-1.453c-7.007-3.107-10.446-3.972-14.882-5.924-6.86-3.02-9.24.133-24.077-9.108a6.084,6.084,0,0,0-6.751,0s-2.314-2.9-7.094.124S3414,653.467,3409.5,656.18a131.239,131.239,0,0,0-18.946,14.555l-.014.014c-.541.522-1.054,1.045-1.535,1.554-1.558,1.471-2.8,2.062-5.678,1.994-3.749-.092-12.03-2.8-12.03-2.8l-17.777,6.27-6.53,6.943,1.645,14.56,19.629,10.165s14.3,6.512,18.446,7.465a84.668,84.668,0,0,0,10.522,1.375c4.175.3,17.315,2.581,17.315,2.581a2.308,2.308,0,0,0,.439,2.827c1.361,1.251,13.212,7.672,20.917,7.035s6.022-1.925,6.022-1.925a13.334,13.334,0,0,0,4.72.376,10.29,10.29,0,0,0,3.689-1.448c6.224-.8,19.89-4.826,26.92-8.015.518-.238,1.054-.495,1.6-.765,5.853-2.8,20.66-9.982,24.308-10.857,4.056-.976,20.72-4.638,20.72-4.638l3.043.921,2.328-.412,8.245-11.26Zm-94.413-17.4c-2.7-.357-11.952-.032-11.952-.032s9.349-5.092,9.578-8.034a16.8,16.8,0,0,0,4.285,5.169,34.1,34.1,0,0,0,9.437,5.169S3443.121,663.471,3440.421,663.109Z" transform="translate(-3346.047 -648.057)" fill="#f9cfcc"/>
            <path id="Path_948" data-name="Path 948" d="M3531.582,651.031c-1.509-.094-1.1,5.726-3.891,7.635s-19.8,9.11-19.8,9.11,7.661-2.051,10.425-2.253a27.5,27.5,0,0,0,4.384-.617,4.172,4.172,0,0,0,1.526-.58c.867-.513,3.656-2.234,5.688-3.433a8.8,8.8,0,0,0,3.075-3.937,14.822,14.822,0,0,0,5.049,5.87,42.33,42.33,0,0,0,8.6,4.309c2.332.887,5,1.589,5,1.589a72.9,72.9,0,0,1-6.6-3.573c-1.42-1.052-4.5-3.548-5.727-6.069s-1.713-4.919-3.181-6-3.083.44-3.083.44S3533.148,651.129,3531.582,651.031Z" transform="translate(-3440.919 -649.81)"/>
            <path id="Path_949" data-name="Path 949" d="M3666.979,771.069c-1.566,2.524-9.764,4.682-12.407,4.947s-9.543,4.794-18.059,5.246-14.9,6.618-14.9,6.618l-14.086,6.729-8.7,5.646a91.181,91.181,0,0,0,14.4-3.484l4.156-.367,35.813-11.8,10.779-4.307,4.209-6.252Z" transform="translate(-3494.534 -720.588)"/>
            <path id="Path_950" data-name="Path 950" d="M3680.233,781.476c5.6-2.166,10.073-5.359,10.691-7.929s2.849-4.654,2.471-2.271-1.493,6.411-2.668,7.324,6.882-1.924,8.65-2.024-8.4,5.45-8.4,5.45-6.974,3-7.415,2.893S3680.233,781.476,3680.233,781.476Z" transform="translate(-3542.534 -720.093)"/>
            <path id="Path_951" data-name="Path 951" d="M3376.049,769.607c1.119,3.4,11.693,5.163,16.032,5.39s7.374-1.935,9.331-3.252,5.775,8.275,8.614,12.092,10.873,1.905,11.094,1.238,5.056,2.906,5.056,2.906L3439.4,793.2s-4.216.769-4.559,1.846,5.2,5.066,5.2,5.066l-10.679-3.4-8.956-4.4s-14.829-1.395-20.628-3.084-19.164-9.61-19.164-9.61L3373.493,775Z" transform="translate(-3361.672 -719.726)"/>
            <path id="Path_952" data-name="Path 952" d="M3631.136,806.027c1.615.092,1.553,1.989,1.15,2.8s-8.736,4.222-11.342,5.286-7.374,2.908-7.374,2.908,6.149-4.112,8.487-5.291,6.044-2.573,7.182-3.565A12,12,0,0,0,3631.136,806.027Z" transform="translate(-3503.228 -741.201)"/>
            <path id="Path_953" data-name="Path 953" d="M3571.909,773.781c6-1.727,22.353-4.484,24.568-5.725a88.925,88.925,0,0,0,10.951-8.322c1.395-1.509.181-6.208-3.177-5.033a14.694,14.694,0,0,1-2.517,5.349,35.32,35.32,0,0,1-5.572,5.667,17,17,0,0,1-5.128,2.683C3588.636,769.2,3571.909,773.781,3571.909,773.781Z" transform="translate(-3478.663 -710.827)"/>
            <path id="Path_954" data-name="Path 954" d="M3560.68,728.374c8.411-.42,16.786.5,21.164.692a30.424,30.424,0,0,0,11.425-2.056c1.86-.832,1.378-4.541.591-5.4a5.2,5.2,0,0,0-1.724-1.232,5.033,5.033,0,0,1-.273,3.208c-.747,1.419-1.786,2.056-5.4,3.01s-12.116,1.161-13.91,1.254S3560.68,728.374,3560.68,728.374Z" transform="translate(-3472.042 -690.699)"/>
            <path id="Path_955" data-name="Path 955" d="M3477.083,758.543s-2.926,2.507-3.366,3.567.841,4.9,1.683,5.416c1.6.982,7.909.982,10.65.93,2.764-.053,24.654-2.919,24.654-2.919a81.324,81.324,0,0,1-11.93,1.019c-6.093.016-12.144.273-15.627-.3s-4.153-1.155-5.14-2.734a6.983,6.983,0,0,1-1.011-3.243Z" transform="translate(-3420.714 -713.203)"/>
            <path id="Path_956" data-name="Path 956" d="M3485.375,709.966c-2.167,2.192-.6,5.341,1.356,7s10.865,1.461,12.431,1.069,15.172-5.286,17.717-6.558,4.808-2.674,4.808-2.674l-3.927.423a15.973,15.973,0,0,1-2.129,1.444c-.979.514-7.32,1.991-10.416,2.588s-8.859,1.729-11.535,1.528-4.765-.369-6.236-1.539a5.757,5.757,0,0,1-1.889-2.61Z" transform="translate(-3427.023 -683.872)"/>
            <path id="Path_957" data-name="Path 957" d="M3731.3,698.09c5.713,2.828,11.439,9.818,13.789,12.306s1.175,14.087,0,17.391-6.971,7.644-9.714,8.264h11.07l3.4-3.088,4.956-.789,7.983-21.777s-7.268-9.111-8.589-9.331-18.769-3.4-18.769-3.4Z" transform="translate(-3572.646 -677.307)"/>
            <path id="Path_958" data-name="Path 958" d="M3376.369,708.509c-5.646,1.442-15.982,10.089-17.449,15.227s.663,17.417,6.622,20.169c0,0-11.067-4.54-12.339-5.226s-6.852-4.5-6.852-4.5l-1.664-14.927,15.49-9.544,13.355-1.994Z" transform="translate(-3344.686 -683.231)"/>
            <path id="Path_959" data-name="Path 959" d="M3510.814,684.661c-6.177.707-14.537,2.275-17.764,3.808s-8.151,4.083-5.773,8.755,10.754,3.3,15.51,2.513,14.261-2.958,15.939-4.266a4.551,4.551,0,0,0,1.667-3.351" transform="translate(-3428.392 -669.64)" fill="none" stroke="#0d0d0c" stroke-linecap="round" stroke-linejoin="round" stroke-width="2"/>
            <path id="Path_960" data-name="Path 960" d="M3516.39,708.906c4.63-.906,16.122-.614,18.638-.642a17.4,17.4,0,0,1,9.086,2.571c1.778,1.216,2.557,5.07.6,6.79s-8.672,2.86-18.089,3.056-15.046.88-21.184.8-20.854,2.24-22.668,5.019-1.079,8.327,2.827,9.61,15.628.846,22.635.655,14.186-2.3,16.132-5.385" transform="translate(-3425.553 -683.543)" fill="none" stroke="#0d0d0c" stroke-linecap="round" stroke-linejoin="round" stroke-width="2"/>
            <path id="Path_961" data-name="Path 961" d="M3605.482,691.838c4.663,1.076,10.035,2.869,10.035,2.869" transform="translate(-3498.459 -673.871)" fill="none" stroke="#0d0d0c" stroke-linecap="round" stroke-linejoin="round" stroke-width="2"/>
            <path id="Path_962" data-name="Path 962" d="M3579.313,766.655c5.177.1,13.518-2.635,13.518-2.635" transform="translate(-3483.029 -716.432)" fill="none" stroke="#0d0d0c" stroke-linecap="round" stroke-linejoin="round" stroke-width="2"/>
            <path id="Path_963" data-name="Path 963" d="M3588.849,754.117a31.171,31.171,0,0,1,6.132-6.955c1.582-1.154,4.241-2.821,7.128-2.768s4.31,2.04,2.581,6.468-6.232,8.321-9.325,10.282c-2.223,1.409-19.287,6.274-21.439,6.549" transform="translate(-3479.851 -704.859)" fill="none" stroke="#0d0d0c" stroke-linecap="round" stroke-linejoin="round" stroke-width="2"/>
            <path id="Path_964" data-name="Path 964" d="M3526.854,794.954c-5.788.953-10.6-.381-13.255-.746s-8.416-2.906-10.978-3.473-9.393,1.119-8.436,4.764,6.026,5.368,10.358,7.053,13,4.571,22.424,1.892,13.293-7.236,13.293-7.236" transform="translate(-3432.782 -732.121)" fill="none" stroke="#0d0d0c" stroke-linecap="round" stroke-linejoin="round" stroke-width="2"/>
            <path id="Path_965" data-name="Path 965" d="M3564.6,802.864c4.081-1.871,8.962-4.32,12.469-5s7.459.21,9.333,1.953-3.455,4.473-8.8,6.961-13.794,9.813-18.03,10.553-16.182-3.338-21.4-5.632" transform="translate(-3458.764 -736.253)" fill="none" stroke="#0d0d0c" stroke-linecap="round" stroke-linejoin="round" stroke-width="2"/>
            <path id="Path_966" data-name="Path 966" d="M3522.1,824.764c5.176,1.519,6.546,2.058,10.217,2.547s9.446.293,10.375-1.713c0,0-8.809-2.461-10.345-3.187s-3.457-2.441.7-2.784,9.739-1.419,11.6-2.692,6.167-5.139,6.167-5.139a32.953,32.953,0,0,1-9.593,4.65c-6.411,2.1-15.856,1.174-15.856,1.174l-5.139-.391-4.16.789.343,2.881Z" transform="translate(-3445.735 -744.603)"/>
            <path id="Path_967" data-name="Path 967" d="M3491.277,801.169a3.813,3.813,0,0,0-1.947,3.529c.146,1.321,4.5,3.073,8.026,4.913s13.029,2.93,20.9,2.141a38.954,38.954,0,0,1-8.9-.7,69.479,69.479,0,0,1-11.278-3.727c-2.3-1.028-5.7-3.464-6.207-4.539A7.11,7.11,0,0,1,3491.277,801.169Z" transform="translate(-3429.964 -738.336)"/>
          </g>
          <g id="Group_311" data-name="Group 311" transform="translate(21.791 11.26)">
            <path id="Path_968" data-name="Path 968" d="M3356.619,696.247a7.282,7.282,0,0,0-2.949.51c-1.827.638-15.725,5.576-18.01,7.587a7.623,7.623,0,0,0-1.306,1.764c-.334.566-.679,1.223-1.028,1.936l-.011.023c-2,4.128-4.03,10.086-3.966,11.182.094,1.553,0,9.6,1.005,11.339s9.051,3.381,12.574-.642l1.05.642a15.51,15.51,0,0,1-4.754,2.743,11.436,11.436,0,0,1-8.686,0c-2.833-1.284-12.161-10.06-12.161-10.06l-5.028-10.037,5.133-18.618,1.955-7.1,22.764.961,7.647,1.441,1.37,1.062.675,1.294Z" transform="translate(-3288.57 -559.088)" fill="#fff"/>
            <path id="Path_969" data-name="Path 969" d="M3343.978,740.409a15.51,15.51,0,0,1-4.754,2.743,11.436,11.436,0,0,1-8.686,0c-2.833-1.284-12.161-10.06-12.161-10.06l-5.028-10.037,5.133-18.618c4.368-.338,15.024-.875,10.854,2.311-5.2,3.969-6.359,10.907-6.359,10.907a6.675,6.675,0,0,1,1.253,4.113c-.218,2.15-2.132,6.851-1.547,7.729s3.036,1.861,3.524,2.5,1.175-3.576,1.929-5.508c.638-1.632,3.178-5.073,5.178-8.6-2,4.128-4.03,10.086-3.966,11.182.094,1.553,0,9.6,1.005,11.339s9.051,3.381,12.574-.642Z" transform="translate(-3288.57 -568.91)" fill="#c9d6e8"/>
            <path id="Path_970" data-name="Path 970" d="M3315.372,525.969l-9.763,11.3s6.307,7.61,9.4,10.011,2.285,3.384,2.285,3.384l-.687-.641s-10.6.732-18.468,3.29-11.7,8.229-14.082,16.641-1.279,11.7-1.279,11.7c-2.743.732-5.67-4.206-8.413-8.228s-14.994-16.093-17.736-18.836-3.659-14.078-3.659-18.468,2.379-12.983,6.769-19.568c3.058-4.585,14.9-21.069,22.021-31.383.015-.018.03-.041.049-.064,3.073-4.457,5.257-7.752,5.448-8.416.443-1.509,1.355-5.959,2.3-9.508l0-.007a28.019,28.019,0,0,1,1.264-3.925c1.28-2.833,6.124-2.2,6.124-2.2s.548-.09,1.463-3.381c.826-2.976.908-8.262,4.082-9.928a4.332,4.332,0,0,1,1.129-.405l3.55,3.756,4.4,4.653,12.712,13.444-4.57,51.75Z" transform="translate(-3252.966 -417.473)" fill="#155aa7"/>
            <path id="Path_971" data-name="Path 971" d="M3392.649,416.587s-1.943,2.292-4,5.332c-4.146-2.308-10.281-6-12.164-8.638-2.938-4.113-13.508-4.5-15.662-4.5-2.116,0,9.865,7.549,10.266,7.8-.394-.143-13.08-4.777-14.525-5.212-.811-.244-2.256.578-3.553,1.463-1.051.709-2.008,1.467-2.465,1.741-1.029.616,5.835,19.391,9.542,26.457s-1.219,29.019-2.81,30.587,1.49-18.108-1.152-26.329a15.083,15.083,0,0,0-1.294-2.912v0c-3.55-6.176-10.717-9.058-12.51-10.593-2.023-1.737-17.744,8.84-19.076,10.409,3.073-4.457,5.257-7.752,5.448-8.416.443-1.509,1.354-5.959,2.3-9.508l0-.007,0-.011s-.645,4.818-.056,5.035,4.7-5.943,6.24-6.019,6.976-2.172,6.315-5.126c-.274-1.216.552-3.155,1.666-5.058a40.193,40.193,0,0,1,3.445-4.9,9.1,9.1,0,0,1,.687-.773c.66-.589,12.48-1.617,10.72-2.278s-12.041-.705-12.041-.705,2.277-7.973,8.93-7.489,26.5-9.887,26.952-12.041-4.792-6.259-9.542-5.039a25.735,25.735,0,0,0,3.752-1.49c5.91-2.994,9.02-3.985,11.181-3.786a.306.306,0,0,1-.026.038c-1.234,1.782-1.373,25.1-3.017,31.27s.135,6.172,3.017,8.09A18.648,18.648,0,0,1,3392.649,416.587Z" transform="translate(-3294.403 -374.556)" stroke="#000" stroke-linecap="round" stroke-linejoin="round" stroke-width="0.25"/>
            <path id="Path_972" data-name="Path 972" d="M3481.645,568.669l-.214,1.171c-4.552-10.881-15.515-29.481-16.1-32.61-.3-1.58,1.426-4.454,3.2-6.911,2.263,9.306,8.27,25.342,12.952,37.9C3481.536,568.369,3481.589,568.519,3481.645,568.669Z" transform="translate(-3378.16 -466.398)" stroke="#000" stroke-linecap="round" stroke-linejoin="round" stroke-width="0.25"/>
          </g>
          <path id="Path_973" data-name="Path 973" d="M3406.193,705.145c-.035-.014-.035-.028.014-.028C3406.228,705.117,3406.221,705.124,3406.193,705.145Z" transform="translate(-3321.507 -558.205)" fill="#f49c9a" opacity="0.39"/>
          <g id="Group_312" data-name="Group 312" transform="translate(182.437 7.28)">
            <path id="Path_974" data-name="Path 974" d="M3786.028,695.256l-.3,1.1-5.6,20.573-10.285,2.056s-7.407,4.938-9.8,5.212-5.144-1.775-5.144-1.775,3.564-.142,4.112-1.1,3.43-11.523,3.294-13.44c-.1-1.336-2.176-4.987-3.943-8.146l0,0c-.777-1.388-1.49-2.683-1.951-3.647-1.508-3.152-4.938-5.212-8.229-6.307s-8.51-2.349-8.51-2.349c.961-1.032,4.187-4.851,7.365-6.063l2.379-1.19,23.864,1.19.641.7,10.469,11.41Z" transform="translate(-3700.584 -550.775)" fill="#fff"/>
            <path id="Path_975" data-name="Path 975" d="M3807.614,698.076l-5.6,20.573-10.285,2.056s-7.407,4.938-9.8,5.212-5.144-1.775-5.144-1.775,3.564-.142,4.112-1.1,3.429-11.523,3.294-13.44c-.1-1.336-2.176-4.987-3.944-8.146.259.465,2.259,1.813,1.681-.244s-1.283-3.816,0-3.523,1.85-.2,3.219.709,2.938,7.711,3.524,8.7,4.307-.994,4.014-1.681-1.077-6.266-3.084-9.493-7.046-8.619-9.92-9.883l16.123-2.263,4.908-.687s2.544,5.613,5.561,12.1Z" transform="translate(-3722.468 -552.5)" fill="#c9d6e8"/>
            <path id="Path_976" data-name="Path 976" d="M3740.67,523.39c.457-1.92.731-2.835,2.286-3.109s3.749-.731,3.749-.731l9.417-8.046a12.4,12.4,0,0,1-4.572-4.526c-2.194-3.429-9.874-11.589-9.874-11.589l-12.8-29.875,11.338-38.858s10.059-14.441,12.984-14.4,4.3,4.478,5.074,8.043,2.515,4.846,3.109,6.4-.32,5.943-.32,5.943a31.192,31.192,0,0,1,7.635,11.932c2.468,7.269,18.926,35.247,22.9,40.459s9.6,14.126,11.521,21.395,5.074,12.8,5.074,16.961.686,8.96-2.469,11.7-18.789,18.515-24,23.178-11.229,6.309-13.158,6.172-5.083-3.429-5.083-3.429l5.083-2.743a55.1,55.1,0,0,0,1.02-8.3c.137-4.114-7.063-15.635-12.549-20.572C3752.822,525.609,3740.67,523.39,3740.67,523.39Z" transform="translate(-3694.222 -392.807)" fill="#155aa7"/>
            <path id="Path_977" data-name="Path 977" d="M3744,578.47c-.33-.21-10.911-6.852-14.127-6.852-3.268,0-15.819,1.763-23.544,9.336l-16.8,10.7-7.771,3.167-24.726-.971-12.6-4.934c.728-5.455.558-5.314,1.009-7.5,1-4.878,8.915-24.134,15.526-39.765l5.617-5.876c-.173.491-11.639,33.019-10.863,33.908s5.872,6.15,14.668,0,19.034-10.589,19.14-15.189-.338-18.393,0-23.3,2.994,7.245,4.668,11.046,3.418,16.168,4.593,17.016,7.636,9.283,11.452,7.812,17.62-2.5,20.851-.878C3734.269,567.776,3743.709,578.144,3744,578.47Z" transform="translate(-3644.432 -462.258)"/>
            <path id="Path_978" data-name="Path 978" d="M3676.476,509.052c-3.073,6.3-19.489,35.578-25.061,50.722,5.467-15.226,20.618-50.133,22.644-54.8a3.448,3.448,0,0,0,.267-1.606C3676.367,504.76,3677.654,506.64,3676.476,509.052Z" transform="translate(-3648.549 -446.526)" stroke="#000" stroke-linecap="round" stroke-linejoin="round" stroke-width="0.25"/>
            <path id="Path_979" data-name="Path 979" d="M3738.547,430.264s-8.356-8.9-14.813-7.429-14.979,10.131-16.3,14.975.292,9.838.735,15.418,1.467,10.131,0,7.181-6.071-11.538-6.267-14.862,1.272-24.768,1.272-24.768L3688.2,451.708l12.041-39.285s-6.9-1.921-9.1,0c-1.362,1.19-8.229,1.463-13.268,1.5a55.828,55.828,0,0,0-6.544-5.066s10.968-3.842,11.793-4.574-10.7-30.355-15.087-37.12a22.915,22.915,0,0,0-1.715-2.3c.248.128,7.256,3.741,5.838,3.324-1.445-.428-.694,3.261,3.418,6.638s16.149,8.367,20.554,9.489,15.564-.679,14.536,1.67c-1.013,2.311-7.144,12.4-7.335,12.72.24-.308,8.037-10.334,9.538-9.872,1.524.469,2.349,5.67,4.844,8.311s3.674-4.788,3.122-7c-.213-.86,1.13.736,2.852,3.009a56.455,56.455,0,0,1,9.064,17.831Z" transform="translate(-3657.337 -364.86)" stroke="#000" stroke-linecap="round" stroke-linejoin="round" stroke-width="0.25"/>
          </g>
        </g>
        <path id="Path_980" data-name="Path 980" d="M3336.9,529.823c1.55,7.918-.029,33.169-.029,33.169l-10.021,13.657-4.083,2.663s-3.258-6.04-5.314-9.711-18.084-6.085-22.55-6.639-12.834,3.556-12.834,3.556,6.729-4.7,12.834-6.461,16.641-1.909,21.578-2.79,10.516-13.447,12.131-21.039-.573-12.493-2.236-13.825,1.943-3.75,1.943-3.75Z" transform="translate(-3248.338 -369.553)" stroke="#000" stroke-linecap="round" stroke-linejoin="round" stroke-width="0.25"/>
        <path id="Path_981" data-name="Path 981" d="M3427.689,569.084c.574,5.448,4.439,20.556,1.387,24.275s-15.58,4.767-15.58,4.767-6.265-14.164-6.852-10.835-2.937,10.317-3.72,10.835-2.379-29.717-2.379-29.717L3390,597.274l8.026,18.841s22.595,3.459,22.87,3.233,8.281-6.359,9.9-7.458a55.429,55.429,0,0,1,6.456-3.755c.928-.314,4.478-1.293,4.478-1.293s-3.751-11.333-5.048-15.381S3427.689,569.084,3427.689,569.084Z" transform="translate(-3311.977 -398.889)"/>
      </g>
    </g>
  </g>
</svg>
