<svg xmlns="http://www.w3.org/2000/svg" xmlns:xlink="http://www.w3.org/1999/xlink" width="2500" height="696" viewBox="0 0 2500 696">
  <defs>
    <clipPath id="clip-path">
      <rect id="Rectangle_182" data-name="Rectangle 182" width="2500" height="696" transform="translate(-290 40)" fill="none"/>
    </clipPath>
  </defs>
  <g id="Mask_Group_11" data-name="Mask Group 11" transform="translate(290 -40)" clip-path="url(#clip-path)">
    <g id="Group_332" data-name="Group 332" transform="translate(0 -114.517)">
      <g id="Chair" transform="translate(-2629.911 0.196)">
        <path id="Path_921" data-name="Path 921" d="M3903.439,717.235s-14.392-12.858-42.279-16.589-132.238-10.483-263.9-10.483-209.887,1.081-245.28,7.165-56.67,19.907-56.67,19.907c-12.15-19.907,4.495-94.3,8.771-117.842,0,0,21.45-119.591,25.45-140.452s15.7-33.709,61.142-39.73,71.062-6.434,211.4-6.434,202.507,2.83,222.255,6.19,38.773,19.781,44.613,48.709c5.712,28.26,22.449,126.746,23.231,131.346.011.064.011.117.022.17,2.036,12.423,12.6,64.746,14.84,86.307S3903.439,717.235,3903.439,717.235Z" fill="#f49d29"/>
        <path id="Path_922" data-name="Path 922" d="M3318.615,518.654c12.118-10.376,17.484-23.256,19.273-27.55s20.394-3.4,20.394-3.4l29.338-27.37,11.091-56.887,397.443-3.22-16.4,23.04s40.134,34.646,48.451,53.984,19.289,32.888,35.032,53.066,38.64,34.688,38.64,34.688l19.078,139.014-461.116,63.214-206.869-58.993Z"/>
      </g>
      <path id="Path_923" data-name="Path 923" d="M2611.96,574.914s395.777,198.792,1250,198.792c890.342,0,1250-198.792,1250-198.792V1408.79h-2500Z" transform="translate(-2901.959 -44.982)" fill="#155aa7"/>
      <g id="Officer" transform="translate(-2629.911 0.196)">
        <g id="Group_308" data-name="Group 308">
          <path id="Path_924" data-name="Path 924" d="M3526.285,340.817l1.606,38.948,52.531,42.817h9.054l50.854-45.138,2.945-44.365Z" fill="#f9cfcc"/>
          <path id="Path_925" data-name="Path 925" d="M3533.357,347.737c3.578,6.2,2.862,13.673,3.578,18.27s-9.541-1.839-9.541-1.839l3.994,18.447,28.255,37.98,30.925,8.5,52.707-54.012.664-45.221Z"/>
          <path id="Path_926" data-name="Path 926" d="M3562.158,192.248l-35.606,6.19-11.511,27.083-1.531,31.895s-2.6-4.393-5.764-2.023-5.572,9.576-4.518,13.058,2.242,12.848,2.577,15.943,1.584,14.187,2.315,17.088,3.641,6.771,5.749,6.674,6.124-3.1,6.124-3.1,2.611,29.211,3.815,32.693,11.83,22.69,18.456,30.815,25.748,21.675,31.37,23.319,20.547,1.676,25.868-1.515,23.494-15.573,27.51-20.6,19.074-35.014,19.677-42.172,1.907-18.184,2.71-22.827c0,0,3.514,3.933,4.317,4.256s4.819.774,6.091-.967,4.484-8.375,5.019-12.957,3.079-20.446,4.685-25.346-.134-11.479-1.338-13.026-9.906.129-9.906.129l.469-34.3-12.65-26.116-14.055-8.512Z" fill="#f9cfcc"/>
          <path id="Path_927" data-name="Path 927" d="M3669.513,269.759c-1.609,4.9-4.15,20.76-4.688,25.342a20.093,20.093,0,0,1-.668,3.156.406.406,0,0,1-.02.075c-.238.822-.518,1.66-.818,2.482a.932.932,0,0,0-.041.1c-.011.02-.016.04-.026.06a36.428,36.428,0,0,1-3.447,7.09c-1.273,1.74-5.288,1.291-6.09.967s-4.316-4.253-4.316-4.253c-.8,4.642-2.106,15.665-2.712,22.825s-15.658,37.143-19.674,42.173c-3.674,4.607-19.224,15.371-25.9,19.6l-.011.01c-.615.389-1.154.718-1.6.987-2.991,1.79-9.019,2.568-14.722,2.608a43.547,43.547,0,0,1-11.141-1.092c-5.625-1.645-24.746-15.2-31.369-23.318s-17.253-27.332-18.459-30.817S3520,305.062,3520,305.062s-4.016,3-6.127,3.1c-1.47.065-3.328-1.785-4.559-3.9-.005-.01-.016-.02-.021-.03a.067.067,0,0,0-.01-.015,10.864,10.864,0,0,1-1.159-2.727c-.125-.5-.269-1.262-.419-2.179-.006-.02-.006-.04-.011-.065,0-.04-.015-.09-.026-.145-.01-.074-.026-.164-.041-.259-.01-.055-.016-.11-.026-.174s-.015-.11-.026-.17c-.336-2.149-.7-4.946-1-7.533-.01-.065-.015-.13-.025-.19-.016-.134-.032-.259-.047-.374a.009.009,0,0,0,0-.015c-.021-.184-.042-.339-.057-.448l-.016-.105c0-.025,0-.05,0-.065a.221.221,0,0,1-.005-.04c-.269-2.278-.492-4.267-.6-5.324-.026-.24-.057-.514-.093-.818v-.005c-.425-3.684-1.512-11.911-2.484-15.122-1.056-3.485,1.355-10.689,4.517-13.057s5.765,2.019,5.765,2.019l1.531-31.893,11.509-27.083,35.607-6.192,69.875-4.317,14.054,8.51,12.647,26.115-.465,34.307s8.7-1.676,9.9-.13S3671.117,264.858,3669.513,269.759Z" fill="#f9cfcc" stroke="#000" stroke-miterlimit="10" stroke-width="0.5"/>
          <path id="Path_928" data-name="Path 928" d="M3669.513,269.759c-1.609,4.9-4.15,20.76-4.688,25.342a20.093,20.093,0,0,1-.668,3.156c.093-.683-.791-1.326-1.247-.584-.471.778-1.485,3.381-2.494,4.228s-4.657,3.057-4.455,2.533a8.171,8.171,0,0,0-.011-2.357,11.144,11.144,0,0,1,.441-3.108c1.022-3.178,1.7-6.407,2.541-9.643a6.087,6.087,0,0,0,.235-1.428,4.657,4.657,0,0,0-.63-2.3c-2.262-4.11-5.36,1.65-5.48,3.947-.134,2.6-.6,13.137-.6,14.438s1.62,2.473,2.629,3.057,3.514-.584,5.066-1.5c1.361-.8,2.784-3.854,3.1-4.572a36.428,36.428,0,0,1-3.447,7.09c-1.273,1.74-5.288,1.291-6.09.967s-4.316-4.253-4.316-4.253c-.8,4.642-2.106,15.665-2.712,22.825s-15.658,37.143-19.674,42.173c-3.674,4.607-19.224,15.371-25.9,19.6,1.73-1.61,3.44-3.244,5.144-4.882,2.594-2.492,3.476-5.157,4.667-8.489q1.145-3.205,2.244-6.426c.742-2.184,1.471-4.375,2.122-6.588A14.946,14.946,0,0,0,3616.2,359c0-2.732-3.239-11.836-2.292-14.179s5.666,5.335,5.94,8.2,1.755,3.38,2.562,0,1.35-13.008,1.754-15.346,14.852-13.791,15.664-16.259,1.889-20.94,1.754-22.5c-.227-2.637-6.936-8.754-9.5-6.463a14.619,14.619,0,0,0-2.128,3.193c-2.7,4.146-14.91,9.416-20.1,7.134a42.813,42.813,0,0,1-6.21-3.346,11.079,11.079,0,0,1-4.59-5.658c-.538-2.015-5.8-5.46-6.546-6.7s-.471-6.571-.471-7.608c0-.874-1.067-1.511-1.724-1.888s-2.19-.45-2.032-1.528c.017-.113.062-.222.068-.336a.7.7,0,0,0-.43-.627,2.062,2.062,0,0,0-.789-.144l-1.348-.066a.37.37,0,0,1-.184-.043.308.308,0,0,1-.1-.148,1.354,1.354,0,0,1,.066-1.036,3.984,3.984,0,0,1,.6-.88,27.8,27.8,0,0,1,5.113-5.4,1.46,1.46,0,0,1,.4-.228,1.424,1.424,0,0,1,.432-.046,16.322,16.322,0,0,1,2.908.2,15.579,15.579,0,0,1,3.142,1.454q2.079.984,4.161,1.964s-1.319-5.754-.864-6.875,4-4.682,6.127-6.048,1.568-2.976-1.314-3.56-13.47-1.366-13.47-1.366a52.813,52.813,0,0,0,12.815-.688c-.107-5.049-5.482-13.949-9.437-16.859-1-.739-6.187-4.115-7.529-3.183-5.344,3.762-9.837,9.739-15.8,12.412-1.979.886-4.4,1.654-5.091,3.707a72.572,72.572,0,0,0,12.694,4.407c-1.05-.225-19.028-4.074-20.6-3.5-1.619.588,4.658,8.391,2.432,10.54-1.532,1.473,4.375,3.049,5.11,3.315a50.155,50.155,0,0,1,5.979,2.5,36.97,36.97,0,0,0,6.814,2.816c2.251.673,2.362,2.192,2.492,4.178a18.908,18.908,0,0,1,0,5.183c-.2.877-2.582,1.172-5.366,2.732s-2.681,3.659-2.277,5.968-1.216,6.142-2.432,6.666-3.1.259-6.479,3.25c-2.215,1.965-7.332,3.869-10.592,4.946,5.3-2.358,10.013-8.057,9.785-8.72-.274-.778-3.514,1.431-7.834,2.214s-18.355,1.042-23.623-.13-7.017-1.431-4.859,1.82,9.314,7.8,9.314,7.8c-7.017-1.3-10.256-4.682-10.256-4.682s-.543,1.561.269,5.335,5.666,11.183,6.479,13.785-.538,5.853,2.292,9.493a32.51,32.51,0,0,1,6.753,15.74c.807,6.631,2.293,8.191,3.643,7.284s3.643-6.636,8.1-8.715,11.9-2.553,13.314-4.457-.3-6.582-.709-9.7,4.306-3.953,6.329-3.27,5.418,3.27,9.061,3.27,6.986-3.17,9.62-3.659,4.3,2.293,4.3,2.293a6.472,6.472,0,0,0-4.352-.294c-2.179.733-4.657,3.221-4.507,4.343s2.282,5.364,3.446,7.169-.662,6,.352,7.219,6.277,2.194,8.352,2.777,7.747,1.272,7.747,1.272-11.038.194-14.376,1.56a18.906,18.906,0,0,1-6.277,1.386,16.783,16.783,0,0,1-4.357.658c-2.225,0-5.77,9.369-3.043,9.757s7.9.489,10.334-.488,6.381-1.267,7.9-.389,5.164,3.9,4.254,5.275-4.456,3.6-6.784,3.6-5.47-1.166-10.836-1.071-12.42,2.926-13.905,4.551,1.485,4.552,2.432,6.307.337,6.377,1.755,8.067c1.4,1.665,8.905,4.248,9.138,4.328a43.547,43.547,0,0,1-11.141-1.092c-5.625-1.645-24.746-15.2-31.369-23.318s-17.253-27.332-18.459-30.817S3520,305.062,3520,305.062s-4.016,3-6.127,3.1c-1.47.065-3.328-1.785-4.559-3.9.16.219.859,1.116,1.739.962.993-.175,1.956-1.95,1.211-4.617a11.131,11.131,0,0,0-3.136-4.716s1.009,3.185.538,4.033-1.961-.613-1.961-.613c-.006-.02-.006-.04-.011-.065,0-.04-.015-.09-.026-.145-.01-.074-.026-.164-.041-.259-.01-.055-.016-.11-.026-.174s-.015-.11-.026-.17c-.253-1.78-.75-5.569-1-7.533-.01-.065-.015-.13-.025-.19-.016-.134-.032-.259-.047-.389-.021-.184-.042-.339-.057-.448-.005-.045-.01-.075-.016-.105s0-.05,0-.065a5.19,5.19,0,0,0,1.387,2.189,27.456,27.456,0,0,0,3.245,2.862,10.219,10.219,0,0,0-1.76-2.668,7.445,7.445,0,0,1-1.485-5.982c.534-1.931,2.092-3.393,3.032-5.126l.636-1.17a1.353,1.353,0,0,0,.076-1.55c-.3-.661-.513-1.745-1.239-2.048a1.585,1.585,0,0,0-1.827.6c-.947,1.172-3.058,4.353-2.768,6.711-.425-3.684-1.512-11.911-2.484-15.122-1.056-3.485,1.355-10.689,4.517-13.057s5.765,2.019,5.765,2.019l1.531-31.893,11.509-27.083,35.607-6.192,69.875-4.317,14.054,8.51,12.647,26.115-.465,34.307s8.7-1.676,9.9-.13S3671.117,264.858,3669.513,269.759Z" stroke="#000" stroke-linecap="round" stroke-linejoin="round" stroke-width="0.75"/>
          <path id="Path_929" data-name="Path 929" d="M3568.08,316.272c-2.43,3.251-2.768,6.568-1.013,8.844" fill="none" stroke="#0d0d0c" stroke-linecap="round" stroke-linejoin="round" stroke-width="2"/>
          <path id="Path_930" data-name="Path 930" d="M3555.053,331.619c2.43-4.617,9.18-10.34,9.18-10.34" fill="none" stroke="#0d0d0c" stroke-linecap="round" stroke-linejoin="round" stroke-width="2"/>
          <path id="Path_931" data-name="Path 931" d="M3602.975,319.328c2.835,3.382,7.155,7.024,9.045,10.535" fill="none" stroke="#0d0d0c" stroke-linecap="round" stroke-linejoin="round" stroke-width="2"/>
          <path id="Path_932" data-name="Path 932" d="M3520.663,302.772s-.937-27.728,0-36.111,6.826-22.182,9.1-25.793c0,0-2.677-18.184-3.748-22.053s8.834-11.349,12.449-11.994a8.79,8.79,0,0,1,5.622.516s7.763-2.709,12.984-2.193,13.542,4,13.542,4l-2.968-2.708a68.309,68.309,0,0,0,11.11,2.773c4.953.645,12.717,2.063,19.744-.774s12.784-.838,15.862-4.127a25.1,25.1,0,0,1,8.768-.9c5.488.258,9.705-1.16,11.512-3.8,0,0,2.61-.387,6.625,4.771s6.827,15.863,8.969,19.99l-6.961,16.25s4.284,10.962,5.622,14.7.4,42.3.4,42.3.8-9.672,2.945-14.96,8.767-23.859,8.767-23.859l1.874,2.515,3.079-3.159-3.413-8s5.689-13.993,6.09-15.347-.334-23.472-5.153-34.435-17-20.892-23.425-21.666c0,0,1.472-4.256-5.221-8.77s-29.716-12.122-38.015-14.315-53.275,8.3-57.558,9.8-12.315,7.738-13.386,9.8-.134,3.1-.134,3.1-13.787,18.7-15.527,21.667-1.2,16.636-1.874,19.86.268,12.639,1.071,18.056,6.258,29.049,6.258,29.049Z" fill="#ed759d"/>
          <path id="Path_933" data-name="Path 933" d="M3640.063,178.706a11.679,11.679,0,0,1-2.889,7.648s-9.661-13.271-16.28-15.34-26.972-5.515-31.286-5.687-26.495,5.17-26.495,5.17,20.751-2.93,27.728-2.24,25.581,4.477,30.769,7.581a33.266,33.266,0,0,1,8.945,8.62s-7.872-6.2-14.133-7.239-23.435-5.171-31.842-4.481-29.613,3.792-34.485,6.549c0,0,28.581-2.934,34.842-3.449s26.476,4.484,32.737,7.069,9.661,8.618,9.661,8.618a38.614,38.614,0,0,1-6.977-3.6c-3.4-2.262-18.426-3.3-23.972-3.3s-21.824,3.3-21.824,3.3,13.485.022,20.517,0,20.091,3.6,20.091,3.6a40.287,40.287,0,0,1-14.669,2.585c-7.335-.345-26.118.517-32.558-1.034s-22.541-1.15-29.517,1.062c0,0,8.944-5.716,16.1-8.129s26.3-4.653,26.3-4.653-28.086,1.9-33.095,4.136-16.637,5.86-17.71,7.756-.716-2.93,3.577-8.273,11.092-7.756,11.092-7.756-17.532,8.665-18.784,10.71-8.229,13.248-9.3,18.074a55.537,55.537,0,0,0-.984,10.858s-1.61-8.876-1.431-11.892,2.862-9.135,2.862-9.135-4.383,5.6-5.009,8.531-1.7,8.618-1.7,8.618-1.7-7.319-.907-10.158l-16.983,28.686,19.142,36.54s4.591,4.178,4.085-1.1-1.76-19.238-1.76-19.238l3.757,17.753L3520,249.609v8.273l2.862-6.2s3.907-8.059,6.9-10.809c0,0,4.188-8.725,3.592-9.529s34.723-11.605,34.723-11.605l69.988.919,5.725,4.481-4.473,26.888,9.577,3.29-2.779-15.183s5.725,14.478,5.725,13.789-3.936-15.685-3.936-15.685l5.9,11.376-4.83-18.787,2.505,4.481s.715-6.722,2.325-8.618,8.051,8.791,8.051,11.376.69,12.093.69,12.093l12.548-15.713s-8.005-24.052-9.961-29.394c0,0,.956,5.265,1.433,11.584,0,0-1.908-10.8-7.632-19.533,0,0,4.174,11.6,4.889,17.81,0,0-3.458-12.18-8.706-18.27,0,0,4.652,11.835,5.367,15.167s-3.339,7.009-5.009,7.354-7.036-9.652-7.036-9.652l2.862,7.965s-3.7-7.965-7.513-14.514-5.486-6.435-5.486-6.435,4.651-8.618,3.458-18.155Z" stroke="#000" stroke-linecap="round" stroke-linejoin="round" stroke-width="0.75"/>
        </g>
        <g id="Group_313" data-name="Group 313">
          <rect id="Rectangle_36" data-name="Rectangle 36" width="162.543" height="304.404" transform="translate(3494.095 424.287)" fill="#fff"/>
          <path id="Path_934" data-name="Path 934" d="M3564.767,442.738c3.677,24.4,15.728,39.77,15.728,39.77L3538.16,590.122V778.314h103.375V592.127l-45.751-108.282A71.43,71.43,0,0,0,3612,442.738s-8.466-18.6-24.731-18.6S3564.767,442.738,3564.767,442.738Z" stroke="#000" stroke-linecap="round" stroke-linejoin="round" stroke-width="0.25"/>
          <path id="Path_935" data-name="Path 935" d="M3543.792,487.7c9.362-12.164,25.772-26.223,25.772-26.223l-2.126-6.523s13.426-23.012,19.13-24.918,22.571,28.819,22.571,28.819l-2.088,5.952s16.467,12.2,21.476,19.723l6.44-21.815-20.99-36.971-24.129-6.917-23.814,7.871-25.16,20.64-6.324,35.064Z" stroke="#000" stroke-linecap="round" stroke-linejoin="round" stroke-width="0.25"/>
          <g id="Group_309" data-name="Group 309">
            <path id="Path_936" data-name="Path 936" d="M3546.175,777.755l-132.341,2.679s0-115.974-3.346-127.668a76.636,76.636,0,0,0-5.45-13.825,85.107,85.107,0,0,1-4.91-11.237c-3.008-9.025,2.844-27.577,2.844-27.577s-6.684-9.527-6.017-17.372c.65-7.653,5.486-20.435,3.256-42.928v-.009c-.065-.585-.129-1.189-.192-1.792-2.177-19.283-16.842-42.727-23.362-69.59a108.176,108.176,0,0,1-2.926-18.643c-.036-.494-.064-.979-.082-1.463-1.755-33.977,12.014-57.768,21.021-54.906,7.671,2.432,34.808-.155,52.949-5.934.027-.009.045-.009.073-.018a62.688,62.688,0,0,0,9.143-3.63c14.4-7.3,21.981-9.71,27.247-9.226a11.818,11.818,0,0,1,1.939.32l41.437,96.024Z" fill="#155aa7"/>
            <path id="Path_937" data-name="Path 937" d="M3662.313,364.85l-25.232,194.284-5.305,212.831h105.566s4.01-66.061,8.355-79.094,12.365-34.758,15.707-54.476,2.006-42.443,2.006-42.443-6.35-53.139-2.674-72.857,24.4-60.49,26.4-76.2,3.676-26.736,0-38.433-28.073-6.684-38.768-11.7-51.8-20.368-61.827-22.216S3662.313,364.85,3662.313,364.85Z" fill="#155aa7"/>
            <path id="Path_938" data-name="Path 938" d="M3521.446,359.781c19.607,20.053,35.649,48.126,65.282,59.489,0,0,42.778-25.4,56.814-55.478a194.58,194.58,0,0,1,2.228,46.12c-1.782,25.845-18.047,66.618-18.047,66.618s-31.861-48.794-40.327-48.794-34.757,33.866-42.778,53.027l-29.856-47.9Z" fill="#fff"/>
            <path id="Path_939" data-name="Path 939" d="M3565.314,439.572c-9.649,11.439-19.941,26.87-24.453,37.648l-29.855-47.9" fill="none" stroke="#0d0d0c" stroke-linecap="round" stroke-linejoin="round" stroke-width="2"/>
            <path id="Path_940" data-name="Path 940" d="M3526.882,352.5c-9.235,3.83-39.858,17.862-42.866,22.207s-3.342,61.159-7.353,76.2.334,15.04,7.353,19.718,8.355,6.35,8.355,6.35-20.387,24.063-21.389,38.434,19.049,67.843,33.754,107.279,41.442,155.07,41.442,155.07,4.678-193.169,3.342-247.31-12.7-102.935-16.376-127.666S3526.882,352.5,3526.882,352.5Z" fill="#155aa7"/>
            <path id="Path_941" data-name="Path 941" d="M3482.456,383.107s-2.664,50.731-4.381,59.857-4.713,18.229-2.144,21.176,13.342,9.7,16.44,12.835" fill="none" stroke="#0d0d0c" stroke-linecap="round" stroke-linejoin="round" stroke-width="2"/>
            <path id="Path_942" data-name="Path 942" d="M3526.847,698.83c-9.91-36.982-27.856-88.939-38.707-121.338s-16.263-50.512-17.194-56.739,3.032-17.383,7.746-24.662,21.475-29.744,25.735-35.972,21.231-35.985,21.231-35.985" fill="none" stroke="#0d0d0c" stroke-linecap="round" stroke-linejoin="round" stroke-width="2"/>
            <path id="Path_943" data-name="Path 943" d="M3642.118,347.119c-1.17,18.713-4.146,67.917-12.167,98.664s-9.358,73.079-8.021,112.292,9.846,213.89,9.846,213.89,11.1-97.141,15.108-116.748,53.918-134.573,59.711-147.941-28.073-35.2-28.073-35.2,26.733-9.358,28.74-11.14-26.066-73.971-36.761-90.458S3642.118,347.119,3642.118,347.119Z" fill="#155aa7"/>
            <path id="Path_944" data-name="Path 944" d="M3673.94,376.5s16.8,37.457,22.593,52.06c3.422,8.632,13.3,29.426,10.729,32.374s-23.113,9.142-28.74,11.14" fill="none" stroke="#0d0d0c" stroke-linecap="round" stroke-linejoin="round" stroke-width="2"/>
            <path id="Path_945" data-name="Path 945" d="M3643.939,683.1c0-38.019,25.4-88.6,38.779-120.038,14.147-33.234,22.257-50.248,23.189-56.476s1.457-10.194-11.32-22.054c-6.356-5.9-21.466-16.649-27.05-21.723-10.051-9.133-20.32-26.4-20.32-26.4" fill="none" stroke="#0d0d0c" stroke-linecap="round" stroke-linejoin="round" stroke-width="2"/>
          </g>
          <path id="Path_946" data-name="Path 946" d="M3629.934,834.891c65.379-6.04,108.98-26.341,124.389-33.722s34.99-13.719,34.99-13.719,28.216,1.807,36.279-6.78c0,0,2.7.583,20.768-4.479s68.632-29.915,105.126-52.813,27.907-66.263,27.907-66.263-22.9,10.734-49.374,12.881-126.818,14.741-355.36,14.741-289.365-19.655-289.365-19.655h-85.429s13.4,49.916,36.771,60.728S3351.329,799.742,3359,800.469,3380,797.636,3380,797.636s38.167,21.178,58.661,24.106,109.384,26.11,109.384,26.11Z" stroke="#000" stroke-linecap="round" stroke-linejoin="round" stroke-width="0.25"/>
          <g id="Group_310" data-name="Group 310">
            <path id="Path_947" data-name="Path 947" d="M3804.726,727.141l-27.372-32.61s-40.818,4.266-55.682,4.69-25.731.7-28.065-2.155a31.558,31.558,0,0,0-6.667-5.785,45.344,45.344,0,0,0-6.679-3.54c-17.075-7.571-25.455-9.678-36.265-14.436-16.718-7.359-22.517.325-58.671-22.194a14.823,14.823,0,0,0-16.45,0s-5.64-7.069-17.288.3-41.321,9.827-52.265,16.438c-7.762,4.669-31.1,20.828-46.168,35.469l-.033.034c-1.318,1.273-2.569,2.546-3.741,3.786-3.8,3.585-6.824,5.025-13.837,4.858-9.135-.224-29.315-6.813-29.315-6.813l-43.32,15.278-15.914,16.919,4.009,35.48,47.832,24.77s34.854,15.869,44.95,18.192,25.641,3.35,25.641,3.35c10.174.737,42.194,6.29,42.194,6.29a5.623,5.623,0,0,0,1.07,6.888c3.317,3.049,32.2,18.7,50.969,17.143s14.675-4.691,14.675-4.691,6.466,1.754,11.5.916a25.063,25.063,0,0,0,8.99-3.529c15.166-1.943,48.468-11.76,65.6-19.532,1.262-.581,2.568-1.206,3.908-1.865,14.262-6.835,50.345-24.324,59.234-26.457,9.883-2.379,50.489-11.3,50.489-11.3l7.416,2.244,5.673-1.005,20.091-27.439Zm-230.067-42.4c-6.589-.871-29.125-.078-29.125-.078s22.782-12.407,23.341-19.577a40.949,40.949,0,0,0,10.441,12.6,83.082,83.082,0,0,0,23,12.6S3581.237,685.619,3574.659,684.737Z" fill="#f9cfcc"/>
            <path id="Path_948" data-name="Path 948" d="M3565.617,651.033c-3.676-.23-2.683,13.954-9.481,18.6s-48.241,22.2-48.241,22.2,18.668-5,25.405-5.49a67,67,0,0,0,10.683-1.5,10.17,10.17,0,0,0,3.72-1.414c2.112-1.249,8.91-5.444,13.859-8.366s7.492-9.593,7.492-9.593a36.119,36.119,0,0,0,12.3,14.3,103.138,103.138,0,0,0,20.952,10.5c5.683,2.162,12.186,3.871,12.186,3.871s-12.625-6.143-16.083-8.707-10.972-8.646-13.954-14.788-4.174-11.986-7.752-14.61-7.513,1.073-7.513,1.073S3569.433,651.272,3565.617,651.033Z"/>
            <path id="Path_949" data-name="Path 949" d="M3764.9,771.069c-3.817,6.15-23.793,11.409-30.233,12.055s-23.256,11.683-44.007,12.784-36.315,16.127-36.315,16.127l-34.326,16.4-21.2,13.758a222.17,222.17,0,0,0,35.079-8.489l10.126-.894,87.27-28.763,26.266-10.495,10.257-15.236Z"/>
            <path id="Path_950" data-name="Path 950" d="M3680.233,797.636c13.649-5.279,24.546-13.06,26.052-19.322s6.943-11.342,6.023-5.533-3.639,15.623-6.5,17.847,16.769-4.689,21.078-4.932-20.48,13.28-20.48,13.28-17,7.3-18.068,7.051S3680.233,797.636,3680.233,797.636Z"/>
            <path id="Path_951" data-name="Path 951" d="M3379.721,769.607c2.727,8.274,28.494,12.581,39.067,13.134s17.968-4.715,22.738-7.925,14.073,20.165,20.99,29.467,26.5,4.643,27.035,3.017,12.321,7.081,12.321,7.081l32.217,12.715s-10.273,1.874-11.108,4.5,12.664,12.346,12.664,12.346l-26.021-8.291L3487.8,824.916s-36.136-3.4-50.268-7.514-46.7-23.418-46.7-23.418l-17.34-11.243Z"/>
            <path id="Path_952" data-name="Path 952" d="M3656.376,806.027c3.934.224,3.785,4.846,2.8,6.813s-21.288,10.287-27.639,12.881-17.968,7.087-17.968,7.087,14.985-10.021,20.681-12.892,14.729-6.271,17.5-8.686A29.243,29.243,0,0,0,3656.376,806.027Z"/>
            <path id="Path_953" data-name="Path 953" d="M3571.909,801.463c14.632-4.208,54.47-10.926,59.867-13.951s23.287-16.6,26.686-20.278.441-15.127-7.741-12.265c0,0-1.651,7.5-6.135,13.034s-9.948,11.2-13.577,13.809a41.43,41.43,0,0,1-12.5,6.539C3612.671,790.309,3571.909,801.463,3571.909,801.463Z"/>
            <path id="Path_954" data-name="Path 954" d="M3560.68,739.865c20.5-1.023,40.906,1.21,51.574,1.687s23.31-2.981,27.841-5.009,3.357-11.065,1.44-13.165a12.66,12.66,0,0,0-4.2-3s1.154,4.359-.666,7.818-4.351,5.01-13.163,7.335-29.523,2.83-33.9,3.055S3560.68,739.865,3560.68,739.865Z"/>
            <path id="Path_955" data-name="Path 955" d="M3482.048,758.543s-7.129,6.108-8.2,8.691,2.049,11.935,4.1,13.2c3.889,2.393,19.274,2.393,25.953,2.265,6.735-.129,60.076-7.113,60.076-7.113a198.132,198.132,0,0,1-29.071,2.484c-14.846.038-29.591.666-38.08-.721s-10.121-2.815-12.525-6.663a17.023,17.023,0,0,1-2.464-7.9Z"/>
            <path id="Path_956" data-name="Path 956" d="M3486.88,711.642c-5.282,5.342-1.466,13.014,3.305,17.049s26.475,3.559,30.292,2.605,36.971-12.88,43.172-15.981,11.717-6.516,11.717-6.516l-9.57,1.03a38.948,38.948,0,0,1-5.188,3.518c-2.385,1.252-17.837,4.852-25.381,6.306s-21.589,4.212-28.108,3.723-11.611-.9-15.2-3.75a14.027,14.027,0,0,1-4.6-6.359Z"/>
            <path id="Path_957" data-name="Path 957" d="M3731.3,698.7c13.923,6.892,27.876,23.925,33.6,29.988s2.862,34.328,0,42.378-16.988,18.627-23.671,20.138h26.976l8.278-7.526,12.075-1.923,19.455-53.067s-17.71-22.2-20.93-22.738-45.737-8.289-45.737-8.289Z"/>
            <path id="Path_958" data-name="Path 958" d="M3421.892,709.655c-13.759,3.513-38.945,24.586-42.522,37.106s1.615,42.441,16.136,49.147c0,0-26.968-11.064-30.068-12.734s-16.7-10.972-16.7-10.972l-4.055-36.374,37.746-23.256,32.544-4.86Z"/>
            <path id="Path_959" data-name="Path 959" d="M3545.534,684.661c-15.054,1.722-35.425,5.544-43.288,9.28s-19.863,9.95-14.068,21.334,26.205,8.032,37.8,6.123,34.751-7.209,38.841-10.4a11.092,11.092,0,0,0,4.061-8.166" fill="none" stroke="#0d0d0c" stroke-linecap="round" stroke-linejoin="round" stroke-width="2"/>
            <path id="Path_960" data-name="Path 960" d="M3566.039,709.863c11.281-2.209,39.285-1.5,45.417-1.565,8.885-.1,17.809,3.3,22.141,6.264s6.231,12.354,1.471,16.545-21.132,6.97-44.079,7.447-36.665,2.144-51.621,1.959-50.818,5.458-55.237,12.231-2.629,20.291,6.889,23.418,38.084,2.061,55.158,1.6,34.568-5.611,39.31-13.122" fill="none" stroke="#0d0d0c" stroke-linecap="round" stroke-linejoin="round" stroke-width="2"/>
            <path id="Path_961" data-name="Path 961" d="M3605.482,691.838c11.362,2.622,24.452,6.992,24.452,6.992" fill="none" stroke="#0d0d0c" stroke-linecap="round" stroke-linejoin="round" stroke-width="2"/>
            <path id="Path_962" data-name="Path 962" d="M3579.313,770.441c12.614.246,32.941-6.421,32.941-6.421" fill="none" stroke="#0d0d0c" stroke-linecap="round" stroke-linejoin="round" stroke-width="2"/>
            <path id="Path_963" data-name="Path 963" d="M3610.292,768.089c1.962-4.069,11.088-14.138,14.942-16.948s10.334-6.875,17.369-6.746,10.5,4.971,6.289,15.76-15.187,20.277-22.724,25.055c-5.418,3.434-47,15.288-52.244,15.959" fill="none" stroke="#0d0d0c" stroke-linecap="round" stroke-linejoin="round" stroke-width="2"/>
            <path id="Path_964" data-name="Path 964" d="M3573.924,801.169c-14.1,2.322-25.84-.928-32.3-1.817s-20.508-7.081-26.752-8.462-22.888,2.727-20.556,11.609,14.684,13.08,25.24,17.188,31.674,11.139,54.642,4.61,32.393-17.632,32.393-17.632" fill="none" stroke="#0d0d0c" stroke-linecap="round" stroke-linejoin="round" stroke-width="2"/>
            <path id="Path_965" data-name="Path 965" d="M3602.578,810.377c9.945-4.559,21.838-10.527,30.384-12.184s18.176.511,22.742,4.76-8.419,10.9-21.453,16.963-33.615,23.912-43.937,25.716-39.432-8.133-52.154-13.723" fill="none" stroke="#0d0d0c" stroke-linecap="round" stroke-linejoin="round" stroke-width="2"/>
            <path id="Path_966" data-name="Path 966" d="M3530.762,843.4c12.613,3.7,15.952,5.014,24.9,6.207s23.017.715,25.283-4.175c0,0-21.466-6-25.209-7.766s-8.423-5.949,1.715-6.783,23.733-3.459,28.264-6.56S3600.74,811.8,3600.74,811.8s-7.753,6.2-23.376,11.33-38.64,2.862-38.64,2.862l-12.523-.954-10.137,1.923.835,7.021Z"/>
            <path id="Path_967" data-name="Path 967" d="M3494.095,801.169c-2.6.848-5.1,5.38-4.745,8.6s10.972,7.487,19.558,11.973,31.75,7.14,50.938,5.216c0,0-11.635.555-21.686-1.7a169.314,169.314,0,0,1-27.483-9.082c-5.606-2.505-13.892-8.441-15.126-11.06A17.33,17.33,0,0,1,3494.095,801.169Z"/>
          </g>
          <g id="Group_311" data-name="Group 311">
            <path id="Path_968" data-name="Path 968" d="M3418.79,708.787a17.746,17.746,0,0,0-7.187,1.243c-4.453,1.555-38.32,13.587-43.888,18.488a18.62,18.62,0,0,0-3.182,4.3c-.814,1.38-1.655,2.98-2.5,4.717l-.028.055c-4.882,10.058-9.819,24.578-9.664,27.248.228,3.785,0,23.4,2.45,27.631s22.054,8.238,30.64-1.564l2.56,1.564a37.8,37.8,0,0,1-11.585,6.684c-6.9,2.45-14.254,3.117-21.166,0s-29.634-24.514-29.634-24.514l-12.252-24.458,12.508-45.369,4.763-17.291,55.473,2.341,18.634,3.511,3.338,2.588,1.645,3.154Z" fill="#fff"/>
            <path id="Path_969" data-name="Path 969" d="M3387.986,792.467a37.8,37.8,0,0,1-11.585,6.684c-6.9,2.45-14.254,3.117-21.166,0s-29.634-24.514-29.634-24.514l-12.252-24.458,12.508-45.369c10.643-.823,36.61-2.131,26.451,5.632-12.663,9.673-15.5,26.579-15.5,26.579s3.584,4.773,3.054,10.022-5.194,16.695-3.768,18.835,7.4,4.535,8.586,6.089,2.862-8.713,4.7-13.422c1.554-3.977,7.744-12.362,12.617-20.957-4.882,10.058-9.819,24.578-9.664,27.248.228,3.785,0,23.4,2.45,27.631s22.054,8.238,30.64-1.564Z" fill="#c9d6e8"/>
            <path id="Path_970" data-name="Path 970" d="M3405.038,638.941l-23.791,27.53s15.37,18.543,22.9,24.4,5.568,8.247,5.568,8.247l-1.673-1.563s-25.839,1.783-45,8.018-28.518,20.052-34.315,40.551-3.118,28.518-3.118,28.518c-6.684,1.783-13.816-10.249-20.5-20.051s-36.537-39.216-43.221-45.9-8.915-34.306-8.915-45,5.8-31.636,16.495-47.683c7.452-11.173,36.317-51.34,53.662-76.475.037-.045.073-.1.119-.155,7.488-10.862,12.81-18.89,13.276-20.508,1.079-3.676,3.3-14.52,5.6-23.17l.009-.018a68.265,68.265,0,0,1,3.081-9.564c3.118-6.9,14.922-5.349,14.922-5.349s1.335-.219,3.566-8.238c2.012-7.251,2.213-20.134,9.948-24.193a10.561,10.561,0,0,1,2.752-.988l8.65,9.153,10.725,11.338,30.978,32.76L3415.617,626.7Z" fill="#155aa7"/>
            <path id="Path_971" data-name="Path 971" d="M3492.375,476.976s-4.736,5.586-9.756,12.993c-10.1-5.624-25.052-14.612-29.642-21.048-7.16-10.022-32.916-10.972-38.165-10.972-5.156,0,24.038,18.4,25.017,19.018-.96-.348-31.874-11.64-35.394-12.7-1.975-.6-5.5,1.408-8.659,3.566-2.56,1.728-4.892,3.575-6.007,4.242-2.506,1.5,14.218,47.253,23.251,64.47s-2.971,70.714-6.848,74.536,3.63-44.126-2.807-64.159a36.67,36.67,0,0,0-3.154-7.095v-.009c-8.65-15.05-26.114-22.072-30.484-25.812-4.929-4.233-43.239,21.542-46.485,25.364,7.488-10.862,12.81-18.89,13.276-20.508,1.079-3.676,3.3-14.52,5.6-23.17l.009-.018.009-.027s-1.572,11.74-.137,12.27,11.447-14.483,15.205-14.666,17-5.294,15.389-12.49c-.668-2.962,1.344-7.689,4.059-12.325a97.96,97.96,0,0,1,8.394-11.941,22.334,22.334,0,0,1,1.673-1.884c1.609-1.435,30.411-3.941,26.123-5.55s-29.341-1.719-29.341-1.719,5.55-19.429,21.761-18.25,64.57-24.092,65.676-29.341-11.676-15.251-23.251-12.279a62.688,62.688,0,0,0,9.143-3.63c14.4-7.3,21.981-9.71,27.247-9.226a.7.7,0,0,1-.064.092c-3.008,4.343-3.346,61.159-7.351,76.2s.329,15.041,7.351,19.713S3492.375,476.976,3492.375,476.976Z" stroke="#000" stroke-linecap="round" stroke-linejoin="round" stroke-width="0.25"/>
            <path id="Path_972" data-name="Path 972" d="M3505.139,623.772l-.521,2.853c-11.091-26.516-37.808-71.839-39.243-79.465-.722-3.849,3.475-10.853,7.8-16.842,5.514,22.676,20.152,61.754,31.563,92.366C3504.874,623.041,3505,623.406,3505.139,623.772Z" stroke="#000" stroke-linecap="round" stroke-linejoin="round" stroke-width="0.25"/>
          </g>
          <path id="Path_973" data-name="Path 973" d="M3406.229,705.185c-.086-.034-.086-.068.034-.068C3406.314,705.117,3406.3,705.134,3406.229,705.185Z" fill="#f49c9a" opacity="0.39"/>
          <g id="Group_312" data-name="Group 312">
            <path id="Path_974" data-name="Path 974" d="M3852.641,716.934l-.722,2.669-13.651,50.133-25.062,5.011s-18.049,12.033-23.892,12.7-12.535-4.325-12.535-4.325,8.686-.347,10.021-2.688,8.357-28.079,8.028-32.751c-.238-3.255-5.3-12.152-9.61-19.851l-.009-.009c-1.893-3.383-3.63-6.537-4.754-8.887-3.676-7.68-12.033-12.7-20.052-15.37s-20.737-5.724-20.737-5.724c2.341-2.514,10.2-11.822,17.948-14.775l5.8-2.9,58.152,2.9,1.563,1.7,25.51,27.8Z" fill="#fff"/>
            <path id="Path_975" data-name="Path 975" d="M3851.919,719.6l-13.651,50.133-25.062,5.011s-18.049,12.033-23.892,12.7-12.535-4.325-12.535-4.325,8.686-.347,10.021-2.688,8.357-28.079,8.028-32.751c-.238-3.255-5.3-12.152-9.61-19.851.631,1.134,5.5,4.417,4.1-.594s-3.127-9.3,0-8.585,4.508-.476,7.845,1.728,7.16,18.789,8.586,21.212,10.5-2.423,9.783-4.1-2.624-15.269-7.516-23.133-17.171-21-24.174-24.083l39.288-5.514,11.96-1.673s6.2,13.678,13.55,29.478C3849.715,714.885,3850.812,717.235,3851.919,719.6Z" fill="#c9d6e8"/>
            <path id="Path_976" data-name="Path 976" d="M3757.617,683.067c1.114-4.679,1.782-6.907,5.57-7.575s9.135-1.782,9.135-1.782L3795.27,654.1s-5.793-2.674-11.14-11.029-24.062-28.24-24.062-28.24l-31.193-72.8,27.628-94.69s24.511-35.19,31.639-35.085,10.47,10.911,12.364,19.6,6.127,11.808,7.575,15.6-.779,14.482-.779,14.482a76.011,76.011,0,0,1,18.6,29.076c6.015,17.713,46.12,85.89,55.811,98.59s23.4,34.423,28.074,52.135,12.365,31.193,12.365,41.33,1.671,21.835-6.016,28.519-45.785,45.117-58.485,56.48-27.363,15.374-32.063,15.039-12.386-8.355-12.386-8.355l12.386-6.684a134.318,134.318,0,0,0,2.486-20.219c.334-10.026-17.212-38.1-30.58-50.131C3787.229,688.474,3757.617,683.067,3757.617,683.067Z" fill="#155aa7"/>
            <path id="Path_977" data-name="Path 977" d="M3887.066,648.048c-.8-.512-26.589-16.7-34.425-16.7-7.964,0-38.548,4.3-57.374,22.749l-40.944,26.067-18.936,7.717-60.253-2.367-30.7-12.022c1.774-13.294,1.359-12.949,2.457-18.28,2.432-11.886,21.724-58.81,37.835-96.9L3698.411,544c-.42,1.2-28.362,80.461-26.47,82.628,1.9,2.185,14.31,14.986,35.742,0s46.384-25.8,46.64-37.012-.823-44.821,0-56.771,7.3,17.655,11.374,26.918,8.33,39.4,11.192,41.465,18.606,22.62,27.905,19.036,42.937-6.08,50.81-2.139C3863.348,621.989,3886.353,647.252,3887.066,648.048Z"/>
            <path id="Path_978" data-name="Path 978" d="M3712.483,517.225c-7.489,15.342-47.491,86.7-61.068,123.6,13.321-37.1,50.242-122.164,55.179-133.547a8.4,8.4,0,0,0,.65-3.913C3712.218,506.765,3715.354,511.346,3712.483,517.225Z" stroke="#000" stroke-linecap="round" stroke-linejoin="round" stroke-width="0.25"/>
            <path id="Path_979" data-name="Path 979" d="M3842.327,524.238s-20.362-21.688-36.1-18.1-36.5,24.687-39.719,36.491.713,23.974,1.792,37.57,3.575,24.687,0,17.5-14.794-28.115-15.27-36.216,3.1-60.356,3.1-60.356l-36.491,75.369,29.341-95.731s-16.814-4.681-22.182,0c-3.319,2.9-20.051,3.566-32.33,3.658a136.076,136.076,0,0,0-15.947-12.344s26.727-9.363,28.738-11.146-26.068-73.969-36.765-90.455a55.744,55.744,0,0,0-4.179-5.614c.6.311,17.683,9.116,14.227,8.1-3.52-1.042-1.691,7.946,8.33,16.175s39.353,20.389,50.087,23.123,37.927-1.655,35.421,4.069c-2.468,5.632-17.409,30.228-17.875,31,.585-.75,19.585-25.181,23.242-24.056,3.713,1.143,5.724,13.816,11.8,20.252s8.952-11.667,7.608-17.052c-.519-2.1,2.754,1.793,6.951,7.333a137.566,137.566,0,0,1,22.088,43.451Z" stroke="#000" stroke-linecap="round" stroke-linejoin="round" stroke-width="0.25"/>
          </g>
        </g>
        <path id="Path_980" data-name="Path 980" d="M3415.687,545.871c3.776,19.294-.071,80.827-.071,80.827l-24.418,33.28-9.95,6.49s-7.939-14.719-12.948-23.664-44.069-14.827-54.951-16.179-31.275,8.666-31.275,8.666,16.4-11.449,31.275-15.743,40.552-4.651,52.582-6.8,25.625-32.769,29.56-51.268-1.4-30.442-5.449-33.69,4.734-9.138,4.734-9.138Z" stroke="#000" stroke-linecap="round" stroke-linejoin="round" stroke-width="0.25"/>
        <path id="Path_981" data-name="Path 981" d="M3481.836,570.055c1.4,13.275,10.816,50.09,3.38,59.153s-37.965,11.616-37.965,11.616-15.266-34.514-16.7-26.4-7.156,25.14-9.064,26.4-5.8-72.416-5.8-72.416L3390,638.749l19.559,45.912s55.059,8.429,55.73,7.878,20.179-15.5,24.113-18.173,13.471-8.384,15.732-9.15,10.912-3.151,10.912-3.151-9.142-27.616-12.3-37.482S3481.836,570.055,3481.836,570.055Z"/>
      </g>
    </g>
  </g>
</svg>
