<svg xmlns="http://www.w3.org/2000/svg" xmlns:xlink="http://www.w3.org/1999/xlink" width="1077" height="925" viewBox="0 0 1077 925">
  <defs>
    <clipPath id="clip-path">
      <rect id="Rectangle_196" data-name="Rectangle 196" width="1077" height="925" transform="translate(843)" fill="none"/>
    </clipPath>
    <radialGradient id="radial-gradient" cx="0.5" cy="0.503" r="0.508" gradientTransform="matrix(0.878, 0.17, -0.127, 0.828, 0.364, 0.295)" gradientUnits="objectBoundingBox">
      <stop offset="0" stop-color="#97d5ee"/>
      <stop offset="0.032" stop-color="#9ad5ed"/>
      <stop offset="0.45" stop-color="#c2daed"/>
      <stop offset="0.781" stop-color="#dadced"/>
      <stop offset="0.983" stop-color="#e4deed"/>
    </radialGradient>
    <clipPath id="clip-path-2">
      <path id="Path_5619" data-name="Path 5619" d="M1525.065,47.073l144.306,14.673-18.215,149.927-80.018,200.374,11.571,40.248,25.017-2.784,54.1-49.583L1704,394.222l26.743,32.481,41.508-9.929L1871.6,293.489l16.21,31.648,38.13,10.952,17.564-16.138L1986.773,159.7l-14.608-76.639L1977.329-70.8l86.189-305.406-249.139-30.017-163.5,301.853L1566.72-9.946Z" transform="translate(-1525.065 406.224)" fill="none"/>
    </clipPath>
  </defs>
  <g id="Mask_Group_7" data-name="Mask Group 7" transform="translate(-843)" clip-path="url(#clip-path)">
    <g id="Group_2527" data-name="Group 2527" transform="matrix(0.996, -0.087, 0.087, 0.996, 766.992, -194.459)">
      <path id="Path_5600" data-name="Path 5600" d="M1926.014,136.138c-8.341,103.209-.689,122.313-11.168,158.455-10.718,36.968-37.029,8.635-40.043-19.268-4.783-44.3,2.891-59.31-9.024-95.906-8.7-26.72-23.832,3.562-23.832,3.562l-50.827,107.085s-55.953,67.073-85.438,86.79c-28.582,19.114-52.273,26.018-58.9,22.294-14.934-8.4-4.264-37.465-4.264-37.465s-28.26,14.1-36.909,30.292c-17.588,32.918-37.359,1.146-35.822-17.875,2.794-34.561,16.328-64.77,44.245-139.112s36.091-156.4,36.091-156.4-105.751,110.922-124.2,115.184-23.384-5.294-17.058-26.286,1.055-39.57,14.855-78.122,46.4-104.931,55.324-125.438c14.853-34.143,72.071-101.316,92.113-126.189,33.341-41.374,68.54-65.087,89.2-118.409s35.6-135.766,35.6-135.766l163.519,24.8Z" transform="translate(-825.405 416.438)"/>
      <path id="Path_5601" data-name="Path 5601" d="M782.124,89.841s-54.043-7.722-55.3,5.294S723.665,502.5,723.665,502.5L699.088,783.756a13.062,13.062,0,0,0,12.24,13.3c96.75,6.077,723.181,45.436,735.938,46.6,13.825,1.257,15.082-3.77,16.339-24.718s36.972-419.2,36.972-419.2Z" transform="translate(-678.044 324.424)"/>
      <g id="Group_2523" data-name="Group 2523" transform="translate(0 381.816)">
        <path id="Path_5602" data-name="Path 5602" d="M805.518,50.731,1578.743,166.3,1415.9,855.872,674.594,745.787,797.559,56.448A7.03,7.03,0,0,1,805.518,50.731Z" transform="translate(-673.572 -50.652)" fill-rule="evenodd" fill="url(#radial-gradient)"/>
        <path id="Path_5603" data-name="Path 5603" d="M1415.674,858.468a1.042,1.042,0,0,1-.151-.01L674.215,748.372a1.021,1.021,0,0,1-.855-1.19L796.069,60.121a1.022,1.022,0,1,1,2.012.359L675.557,746.506,1414.894,856.3l162.371-687.579L905.807,68.361a1.022,1.022,0,1,1,.3-2.021l672.556,100.521a1.022,1.022,0,0,1,.844,1.245L1416.667,857.681A1.022,1.022,0,0,1,1415.674,858.468Z" transform="translate(-673.344 -52.227)" fill="#0d0d0c"/>
        <path id="Path_5604" data-name="Path 5604" d="M755.728,66.708l784.536,84.877L1433.955,849.551,688.365,769.6Z" transform="translate(-676.086 -53.584)" fill="#fff" fill-rule="evenodd"/>
        <path id="Path_5605" data-name="Path 5605" d="M1640.34,430.418c40.336-68.3,32.225-205.959,32.745-233.37s-1.882-33.092-7.718-33.723,52.3,5.678,52.3,5.678l19.888,40.1-38.216,121.59Z" transform="translate(-849.885 -71.215)"/>
        <path id="Path_5606" data-name="Path 5606" d="M1433.728,907.943c-.037,0-.074,0-.11-.006l-745.59-79.955a1.023,1.023,0,0,1-.908-1.112l41.718-444.993a1.022,1.022,0,1,1,2.035.19l-41.624,443.99L1432.872,905.8l60.364-374.821a1.022,1.022,0,1,1,2.018.325l-60.519,375.778A1.023,1.023,0,0,1,1433.728,907.943Z" transform="translate(-675.858 -110.954)" fill="#0d0d0c"/>
        <path id="Path_5607" data-name="Path 5607" d="M1516.093,420.9a1.268,1.268,0,0,1-.174-.012,1.226,1.226,0,0,1-1.041-1.386l37.963-267.111L770.795,67.786l-3.469,34.883a1.226,1.226,0,0,1-2.44-.243l3.591-36.114a1.225,1.225,0,0,1,1.352-1.1l784.536,84.877a1.225,1.225,0,0,1,1.082,1.391l-38.141,268.367A1.226,1.226,0,0,1,1516.093,420.9Z" transform="translate(-690.055 -53.31)" fill="#0d0d0c"/>
        <path id="Path_5608" data-name="Path 5608" d="M741.782,351.481c-.04,0-.081,0-.123-.007a1.226,1.226,0,0,1-1.1-1.341l2.214-22.268a1.226,1.226,0,0,1,2.44.243L743,350.376A1.226,1.226,0,0,1,741.782,351.481Z" transform="translate(-685.615 -101.061)" fill="#0d0d0c"/>
      </g>
      <g id="Group_2526" data-name="Group 2526" transform="translate(696.225 8.349)">
        <g id="Group_2525" data-name="Group 2525" clip-path="url(#clip-path-2)">
          <g id="Group_2524" data-name="Group 2524" transform="translate(-16.223 -255.174)">
            <path id="Path_5609" data-name="Path 5609" d="M1869.842-671.684s-35.339,234.762-103.8,384.21c-13.4,29.247-45.407,82.887-45.407,82.887s-80.281,68.2-102.882,107.863-58.686,115.942-67.133,131.065-14.742,46.554-18.334,62.825-26.75,53.968-25.784,65.679,25.354,18.453,54.3-3.679,42.614-44.927,49.724-75.1,55.134-81.1,58.025-82.437c0,0,8.528,22.014,7,44.7s-6.557,86.727-8.877,98.242-26.818,82.678-39.613,105.264-28.251,49.766-35.7,70.856,1.081,37.026,10.829,39.655,22.89-9.752,30.634-19.056a191.787,191.787,0,0,1,16.248-17.026s5.192,13.268,25.166-1.449,63.4-49.268,70.074-56.088,14.563-14.791,14.563-14.791-29.2,41.07-35.828,60.381-1.476,32.245,9.568,31.353,29.127-20.464,40.8-33.919,21.714-22.34,32.434-39.292,53.8-62.719,57.608-69,8.323-18.261,14.223-46.158,13.506-54.632,13.506-54.632,11.348,35.207,11.99,38.963-5.083,39.287-7.649,56.682-2.933,40.4,8.262,49.959,22.436,9.434,26.387-5.639,14.293-73.855,21.677-94.488,6.936-38.818,3.078-63.377-3.9-89.617-3.6-99.1,3.6-151.685,12.567-186.451,11.356-55.744,26.152-76.527,20.181-33.088,22.227-59.205,23.481-92.438,44.965-154.262,83.675-224.36,83.675-224.36Z" transform="translate(-1505.447 718.161)" fill="#f9cfcc"/>
            <path id="Path_5610" data-name="Path 5610" d="M1764.123,527.156a10.922,10.922,0,0,1-8.963-4.325c-4.456-5.737-4.643-16.363-.5-28.425,4.686-13.649,20.235-37.626,29.293-50.995-2.048,2.082-4.254,4.327-6.33,6.45-6.755,6.907-49.961,41.285-70.2,56.2-11.325,8.345-18.175,7.86-21.927,5.984a1.022,1.022,0,0,1,.914-1.828c3.241,1.622,9.307,1.93,19.8-5.8,19.7-14.518,63.4-49.278,69.95-55.98,6.6-6.746,14.489-14.716,14.568-14.8a1.022,1.022,0,0,1,1.559,1.311c-.291.41-29.188,41.171-35.695,60.121-3.917,11.409-3.849,21.319.182,26.509a9.133,9.133,0,0,0,8.337,3.494c11.817-.954,33.112-25.5,40.11-33.57,3.237-3.732,6.358-7.122,9.376-10.4,7.847-8.527,15.26-16.581,22.967-28.768,6.581-10.407,24.872-31.141,39.569-47.8,8.9-10.092,16.591-18.808,18.028-21.179,4.614-7.613,9.093-22.178,14.1-45.839,5.84-27.611,13.446-54.433,13.523-54.7a1.021,1.021,0,1,1,1.965.558c-.076.267-7.663,27.024-13.488,54.565-5.053,23.892-9.613,38.66-14.349,46.475-1.532,2.527-8.906,10.887-18.243,21.471-14.648,16.606-32.88,37.273-39.374,47.542-7.806,12.343-15.28,20.463-23.191,29.06-3.008,3.268-6.119,6.647-9.335,10.356-12.381,14.272-30.152,33.353-41.49,34.268Q1764.69,527.157,1764.123,527.156Z" transform="translate(-1538.028 535.739)" fill="#0d0d0c"/>
            <path id="Path_5611" data-name="Path 5611" d="M1604.793,361.5a11.825,11.825,0,0,1-3.1-.4c-4.292-1.157-8.264-4.695-10.9-9.7-4.437-8.442-4.667-19.842-.629-31.277,7.383-20.912,22.857-48.225,35.29-70.173l.48-.847c12.92-22.806,37.349-94.283,39.5-104.963,2.23-11.067,7.22-73.785,8.859-98.108,1.287-19.115-4.73-37.988-6.473-42.982-7.451,6.541-49.981,53.2-56.539,81.026-7.529,31.949-22.512,54.581-50.1,75.675-20.744,15.863-38.808,16.739-47.975,12.669-4.722-2.1-7.623-5.639-7.959-9.718-.56-6.792,6.2-21,13.367-36.049,5.344-11.225,10.869-22.833,12.437-29.934.338-1.53.7-3.195,1.085-4.967,3.835-17.642,9.629-44.3,17.356-58.136,3.051-5.462,9.7-18.885,18.112-35.879,14.6-29.5,34.607-69.891,49.026-95.193,22.006-38.617,99.3-104.887,102.979-108.026,1.853-3.113,32.387-54.523,45.27-82.645,67.622-147.61,103.369-381.59,103.722-383.936a1.022,1.022,0,0,1,.842-.856l271.071-45.455a1.019,1.019,0,0,1,.958.36,1.02,1.02,0,0,1,.165,1.012c-.622,1.626-62.43,163.229-83.665,224.332-28.139,80.971-43.249,132.786-44.912,154.006-2.141,27.32-8.36,39.98-22.413,59.718-11.59,16.278-15.562,32.967-21.06,56.064-1.5,6.319-3.06,12.853-4.935,20.124-7.275,28.223-10.917,126.674-12.441,182.849-.044,1.625-.075,2.773-.094,3.378-.271,8.7-.3,74.161,3.589,98.914,3.717,23.66,4.491,42.6-3.125,63.88-4.819,13.465-10.835,42.926-15.67,66.6-2.475,12.122-4.614,22.59-5.98,27.8-1.755,6.7-5.088,10.994-9.636,12.42-5.22,1.638-11.756-.587-18.4-6.264-12.454-10.635-10.74-36.446-8.609-50.885.53-3.591,1.194-7.954,1.91-12.651,2.627-17.258,6.226-40.891,5.743-43.709-.168-.985-1.284-5.076-5.644-18.973a1.022,1.022,0,0,1,1.949-.611c3.527,11.244,5.448,17.717,5.708,19.24.5,2.912-2.181,21.007-5.737,44.361-.716,4.694-1.379,9.054-1.908,12.642-2.069,14.021-3.792,39.036,7.913,49.032,6.093,5.2,11.941,7.287,16.465,5.868,3.843-1.2,6.7-5,8.272-10.989,1.352-5.159,3.485-15.6,5.954-27.695,4.847-23.736,10.881-53.277,15.749-66.879,7.47-20.871,6.7-39.532,3.03-62.874-3.91-24.886-3.885-90.568-3.613-99.3.019-.6.05-1.748.094-3.37,1.527-56.261,5.179-154.887,12.506-183.3,1.87-7.253,3.423-13.777,4.924-20.087,5.552-23.323,9.563-40.174,21.385-56.777,14.463-20.315,19.968-32.236,22.04-58.692,1.7-21.7,16.426-72.239,45.02-154.518,20.079-57.778,76.4-205.331,83.048-222.722l-268.58,45.037c-1.085,7.028-9.964,63.488-26.129,135.4-15.88,70.641-42.241,171.069-77.644,248.35-13.269,28.963-45.139,82.449-45.458,82.986a1.03,1.03,0,0,1-.217.255c-.8.681-80.4,68.539-102.656,107.59-14.389,25.251-34.375,65.615-48.97,95.089-8.427,17.019-15.083,30.462-18.159,35.969-7.578,13.568-13.565,41.114-17.142,57.574-.386,1.774-.748,3.441-1.086,4.972-1.618,7.329-6.946,18.522-12.587,30.372-6.731,14.139-13.69,28.76-13.175,35,.273,3.311,2.734,6.235,6.752,8.018,8.655,3.844,25.871,2.9,45.9-12.425,27.179-20.783,41.938-43.07,49.35-74.52,7.11-30.168,55.211-81.57,58.59-83.131a1.022,1.022,0,0,1,1.382.558c.087.222,8.593,22.487,7.068,45.134-1.512,22.436-6.535,86.667-8.9,98.375-2.165,10.742-26.733,82.63-39.726,105.567l-.479.847c-12.394,21.876-27.819,49.1-35.142,69.845-3.849,10.9-3.662,21.707.512,29.646,2.369,4.508,5.876,7.672,9.62,8.683,10.61,2.866,25.326-13.608,29.584-18.723a194.435,194.435,0,0,1,16.346-17.128,1.022,1.022,0,1,1,1.373,1.513,192.5,192.5,0,0,0-16.149,16.922C1628.174,347.967,1615.648,361.5,1604.793,361.5Z" transform="translate(-1505.219 718.389)" fill="#0d0d0c"/>
            <path id="Path_5612" data-name="Path 5612" d="M1698,134.542a66.4,66.4,0,0,1-4.726-15.39,75.693,75.693,0,0,1-1.038-16.148l.1-2.024c.047-.674.123-1.345.185-2.018.13-1.345.235-2.692.464-4.023.208-1.335.4-2.671.684-3.991l.4-1.983c.135-.66.325-1.31.485-1.964a59.956,59.956,0,0,1,5.774-15.02,109.177,109.177,0,0,0-3.9,15.425c-.253,1.3-.432,2.6-.637,3.907-.224,1.3-.352,2.613-.5,3.922-.172,1.306-.279,2.619-.38,3.932-.049.656-.115,1.311-.152,1.968l-.069,1.972-.1,1.972c-.025.657,0,1.315-.01,1.972.014,1.315-.03,2.634.055,3.947.062,1.314.083,2.633.179,3.946.135,1.31.244,2.623.348,3.939A131.975,131.975,0,0,0,1698,134.542Z" transform="translate(-1539.351 574.094)" fill="#0d0d0c"/>
            <path id="Path_5613" data-name="Path 5613" d="M1688.351,498.1a96.265,96.265,0,0,1,9.562-11.125c3.391-3.526,6.81-7.017,10.145-10.578a190.124,190.124,0,0,0,18.463-22.59,184.464,184.464,0,0,0,14.46-25.273c4.15-8.824,8.071-17.763,11.864-26.758,3.834-8.978,7.51-18.027,11.138-27.1,3.666-9.055,7.2-18.166,10.813-27.245,3.6-9.087,7.129-18.2,10.806-27.27,1.859-4.532,3.876-8.989,5.847-13.461s3.964-8.939,5.978-13.392q-2.657,6.838-5.379,13.645c-1.8,4.544-3.648,9.069-5.327,13.649-3.442,9.14-6.773,18.333-10.163,27.5-6.784,18.341-13.842,36.59-21.456,54.624-3.846,9-7.787,17.965-12.031,26.8a171.741,171.741,0,0,1-15.013,25.357,189.382,189.382,0,0,1-19.14,22.341c-3.479,3.448-7.03,6.812-10.545,10.2A110.9,110.9,0,0,0,1688.351,498.1Z" transform="translate(-1538.653 533.687)" fill="#0d0d0c"/>
            <path id="Path_5614" data-name="Path 5614" d="M1819.732,429.248c5.2-5.451,10.588-10.733,15.371-16.508a75.469,75.469,0,0,0,11.953-18.8c1.512-3.413,2.611-6.91,3.869-10.525,1.264-3.567,2.605-7.093,3.968-10.611,2.748-7.027,5.645-13.987,8.593-20.926,5.965-13.848,12.239-27.567,19.1-41.006,3.42-6.723,7.015-13.363,10.886-19.845,1.964-3.224,3.972-6.424,6.166-9.5a45.71,45.71,0,0,1,7.387-8.551,32.262,32.262,0,0,0-3.666,4.273c-.562.751-1.121,1.5-1.633,2.291s-1.062,1.547-1.55,2.35c-2.026,3.16-3.867,6.439-5.661,9.738-3.6,6.592-6.954,13.323-10.215,20.1-3.234,6.787-6.425,13.6-9.49,20.463q-4.644,10.28-9.07,20.658-4.475,10.355-8.693,20.815c-1.41,3.482-2.8,6.974-4.1,10.485l-1.927,5.312c-.317.9-.684,1.78-1.063,2.656s-.729,1.762-1.158,2.616a65.984,65.984,0,0,1-5.668,9.92,86.742,86.742,0,0,1-7.122,8.876C1830.865,419.091,1825.315,424.192,1819.732,429.248Z" transform="translate(-1562.638 537.399)" fill="#0d0d0c"/>
            <path id="Path_5615" data-name="Path 5615" d="M1979.023,265.05a89.5,89.5,0,0,1,3.894-12.886c1.6-4.194,3.436-8.294,5.4-12.325,1.022-2,2.028-4,3.1-5.964s2.171-3.92,3.34-5.832a115.38,115.38,0,0,1,7.494-11.165c-1.871,4.084-3.834,8.089-5.814,12.083l-5.926,11.964c-.992,1.989-1.975,3.983-2.933,5.988-1.014,1.98-1.905,4.014-2.908,6Z" transform="translate(-1591.72 547.641)" fill="#0d0d0c"/>
            <path id="Path_5616" data-name="Path 5616" d="M1811.648,221.084a82.258,82.258,0,0,1,1.792,11.76,45.159,45.159,0,0,1-.557,11.977,41.175,41.175,0,0,1-4.029,11.307,58.725,58.725,0,0,1-6.611,9.9c1.945-3.454,3.865-6.893,5.463-10.458a49.8,49.8,0,0,0,3.573-11.057,56,56,0,0,0,.893-11.617C1812.119,228.979,1811.837,225.043,1811.648,221.084Z" transform="translate(-1559.446 546.873)" fill="#0d0d0c"/>
            <path id="Path_5617" data-name="Path 5617" d="M1908.156,264.133a90.414,90.414,0,0,0,7.479-10.792,39.124,39.124,0,0,0,4.483-11.956c.191-1.047.333-2.107.484-3.163.066-1.07.176-2.135.208-3.21.089-2.151.009-4.314-.109-6.49-.276-4.35-.861-8.72-1.313-13.14a71.332,71.332,0,0,1,3.217,12.943,40.8,40.8,0,0,1-.08,13.519,34.982,34.982,0,0,1-2,6.54,28.324,28.324,0,0,1-1.494,3.065l-.828,1.486c-.29.486-.632.938-.944,1.408A45.8,45.8,0,0,1,1908.156,264.133Z" transform="translate(-1578.782 547.914)" fill="#0d0d0c"/>
            <path id="Path_5618" data-name="Path 5618" d="M1982.834,203.015c.335-1.092.765-2.108,1.169-3.131l1.157-3.061c.343-1.028.77-2.017,1.074-3.046l.509-1.521.45-1.534a53.777,53.777,0,0,0,1.4-6.221,34.446,34.446,0,0,0,.463-6.492,14.548,14.548,0,0,1,1.461,6.627,24.176,24.176,0,0,1-.967,6.76l-.514,1.628c-.2.532-.415,1.056-.634,1.579a27.958,27.958,0,0,1-1.5,3.038c-.55.984-1.223,1.9-1.848,2.825A33.439,33.439,0,0,1,1982.834,203.015Z" transform="translate(-1592.415 554.737)" fill="#0d0d0c"/>
          </g>
        </g>
      </g>
      <g id="Group_2797" data-name="Group 2797" transform="translate(200.742 646.062) rotate(5)">
        <g id="Group_2790" data-name="Group 2790" transform="translate(6.215 0)">
          <path id="Path_5851" data-name="Path 5851" d="M0,29.559v-18A11.161,11.161,0,0,1,3.251,3.144Q6.5,0,13.7,0T24.131,3.144a11.211,11.211,0,0,1,3.225,8.411v18H20.1V11.018a4.834,4.834,0,0,0-1.693-4.031,7.384,7.384,0,0,0-4.7-1.343q-6.45,0-6.449,5.374v5.213A9.636,9.636,0,0,1,9.54,14.995a7.679,7.679,0,0,1,2.768-.484H15.8l.214,5.751H12.146a8.3,8.3,0,0,0-2.687.4,8.1,8.1,0,0,0-2.2,1.156v7.738Z" transform="translate(0 23.11)" fill="#ed759d"/>
          <path id="Path_5852" data-name="Path 5852" d="M3.225,10.856V4.623H0L.269,0H9.352V10.856Z" transform="translate(17.897 55.411)" fill="#ed759d"/>
          <path id="Path_5853" data-name="Path 5853" d="M30.1,30.1a9.246,9.246,0,0,1-7.229-2.822q-2.554-2.821-2.553-7.873V11.878q0-3.386-1.531-4.81T13.919,5.644a13.461,13.461,0,0,0-4.434.7A9.794,9.794,0,0,0,6.234,8.115v.752L12.2,10.48v4.407a4.408,4.408,0,0,0-2.876,1.747A7.471,7.471,0,0,0,8.6,20.369v1.558a2.04,2.04,0,0,0,.484,1.533,2.132,2.132,0,0,0,1.5.456h2.848v5.643H6.879a5.269,5.269,0,0,1-4-1.612,5.692,5.692,0,0,1-1.532-4.085V20.315a10.841,10.841,0,0,1,.834-4.38,4.894,4.894,0,0,1,3.3-2.66L0,11.824V4.891A21.671,21.671,0,0,1,5.885,1.5,22.085,22.085,0,0,1,14.3,0a19.3,19.3,0,0,1,6.987,1.129,8.7,8.7,0,0,1,4.461,3.762A14.013,14.013,0,0,1,27.3,12.039v6.933q0,2.957,1.316,4.219a5.422,5.422,0,0,0,3.9,1.264,8.8,8.8,0,0,0,3.842-.861,9.6,9.6,0,0,0,2.983-2.149V.537H46.6V29.559H39.932l-.322-2.848a12.543,12.543,0,0,1-4.166,2.526A15.444,15.444,0,0,1,30.1,30.1Z" transform="translate(32.623 23.11)" fill="#ed759d"/>
          <path id="Path_5854" data-name="Path 5854" d="M6.342,29.022q-3.494,0-4.918-1.451A6.315,6.315,0,0,1,0,23V0H7.255V21.122a1.971,1.971,0,0,0,2.2,2.257h1.827v5.643Z" transform="translate(85.722 23.648)" fill="#ed759d"/>
          <path id="Path_5855" data-name="Path 5855" d="M11.985,30.1a31.862,31.862,0,0,1-6.718-.672A29.439,29.439,0,0,1,0,27.84V12.576H12.308L12.63,17.9H6.879v5.858a14.526,14.526,0,0,0,2.445.51,20.665,20.665,0,0,0,2.715.189q4.406,0,6.18-2.1t1.774-7.2a14.14,14.14,0,0,0-.941-5.724A5.521,5.521,0,0,0,15.989,6.5a15.784,15.784,0,0,0-5.777-.859,36.274,36.274,0,0,0-4.918.349,29.351,29.351,0,0,0-4.918,1.1V1.667A30.98,30.98,0,0,1,5.912.43,44.532,44.532,0,0,1,11.985,0q7.847,0,11.368,3.9t3.52,11.259q0,7.2-3.52,11.071T11.985,30.1Z" transform="translate(100.986 23.11)" fill="#ed759d"/>
          <path id="Path_5856" data-name="Path 5856" d="M14.135,29.56a23.914,23.914,0,0,1-3.091-.214,18.037,18.037,0,0,1-2.876-.592L0,8.868H7.04l6.4,15.532q4.031,0,5.831-2.714t1.8-8.089a16.384,16.384,0,0,0-.618-5.052,4.463,4.463,0,0,0-2.016-2.607,8.008,8.008,0,0,0-3.869-.779h-2.2V0h3.224q6.4,0,9.38,3.359T27.947,13.6a20.4,20.4,0,0,1-1.774,9.164,11.442,11.442,0,0,1-4.864,5.159A15.081,15.081,0,0,1,14.135,29.56Z" transform="translate(129.632 23.648)" fill="#ed759d"/>
          <path id="Path_5857" data-name="Path 5857" d="M1.343,29.559V20.315a10.841,10.841,0,0,1,.834-4.38,4.894,4.894,0,0,1,3.3-2.66L0,11.824V4.891A21.675,21.675,0,0,1,5.885,1.5,22.084,22.084,0,0,1,14.3,0,21.775,21.775,0,0,1,21.74,1.129a9.035,9.035,0,0,1,4.729,3.762,13.449,13.449,0,0,1,1.639,7.149v17.52H20.853V11.878q0-3.386-1.586-4.81T13.92,5.644a13.464,13.464,0,0,0-4.434.7A9.8,9.8,0,0,0,6.234,8.115v.752L12.2,10.48v4.407a4.408,4.408,0,0,0-2.875,1.747A7.468,7.468,0,0,0,8.6,20.369v9.19Z" transform="translate(160.051 23.11)" fill="#ed759d"/>
          <path id="Path_5858" data-name="Path 5858" d="M7.094,13.275a7.536,7.536,0,0,1-5.186-1.693A6.1,6.1,0,0,1,0,6.772,6.517,6.517,0,0,1,1.935,1.881,7.622,7.622,0,0,1,7.471,0H21.014l-.322,4.031H8.169a4.1,4.1,0,0,0-2.419.618,2.441,2.441,0,0,0-.86,2.123Q4.891,9.3,7.578,9.3a2.744,2.744,0,0,0,1.989-.591,2.1,2.1,0,0,0,.591-1.558V6.181h4.3v.968a1.853,1.853,0,0,0,.564,1.558,2.879,2.879,0,0,0,1.747.431h3.278v4.031H16.231a7.136,7.136,0,0,1-2.419-.4A2.622,2.622,0,0,1,12.253,11.5,3.554,3.554,0,0,1,10.1,12.818,11.051,11.051,0,0,1,7.094,13.275Z" transform="translate(164.888 6.503)" fill="#ed759d"/>
          <path id="Path_5859" data-name="Path 5859" d="M16.768,29.56a15.276,15.276,0,0,1-5.428-.913,15.77,15.77,0,0,1-4.354-2.473l-.322,2.849H0V0H7.255V20.907A9.193,9.193,0,0,0,10.4,23.056a9.754,9.754,0,0,0,3.95.86,5.423,5.423,0,0,0,3.9-1.264q1.317-1.262,1.317-4.219V0h7.256V18.865q0,5.051-2.687,7.873A9.684,9.684,0,0,1,16.768,29.56Z" transform="translate(194.501 23.648)" fill="#ed759d"/>
          <path id="Path_5860" data-name="Path 5860" d="M0,9.3.377,4.353h17.2V0h5.912V9.3Z" transform="translate(197.78 10.373)" fill="#ed759d"/>
          <path id="Path_5861" data-name="Path 5861" d="M0,29.559v-18A11.159,11.159,0,0,1,3.252,3.144Q6.5,0,13.706,0T24.132,3.144a11.213,11.213,0,0,1,3.224,8.411v18H20.1V11.018a4.834,4.834,0,0,0-1.693-4.031,7.387,7.387,0,0,0-4.7-1.343q-6.45,0-6.45,5.374v5.213A9.634,9.634,0,0,1,9.54,14.995a7.68,7.68,0,0,1,2.768-.484H15.8l.215,5.751H12.147a8.3,8.3,0,0,0-2.687.4,8.089,8.089,0,0,0-2.2,1.156v7.738Z" transform="translate(227.662 23.11)" fill="#ed759d"/>
          <path id="Path_5862" data-name="Path 5862" d="M9.244,30.1A23.361,23.361,0,0,1,0,28.377V22.841A22.76,22.76,0,0,0,3.6,24a16.974,16.974,0,0,0,3.923.457q5.051,0,7.229-2.1t2.177-7.309q0-5.213-2.177-7.31t-7.229-2.1A18.064,18.064,0,0,0,3.6,6.073,18.516,18.516,0,0,0,0,7.255V1.72A23.372,23.372,0,0,1,9.244,0q7.363,0,10.964,3.843t3.6,11.206q0,7.363-3.6,11.205T9.244,30.1Z" transform="translate(259.425 23.11)" fill="#ed759d"/>
          <path id="Path_5863" data-name="Path 5863" d="M12.953,29.559V11.717a7.656,7.656,0,0,0-1.128-4.488Q10.7,5.644,7.31,5.644a18.942,18.942,0,0,0-3.762.4A22.824,22.824,0,0,0,0,7.041V1.72A18.068,18.068,0,0,1,3.978.484,23.54,23.54,0,0,1,8.707,0q6.127,0,8.814,2.607T20.209,10.7V29.559Z" transform="translate(285.007 23.11)" fill="#ed759d"/>
          <path id="Path_5864" data-name="Path 5864" d="M16.768,29.56a15.28,15.28,0,0,1-5.428-.913,15.769,15.769,0,0,1-4.353-2.473l-.323,2.849H0V0H7.255V20.907A9.192,9.192,0,0,0,10.4,23.056a9.752,9.752,0,0,0,3.95.86,5.42,5.42,0,0,0,3.9-1.264q1.317-1.262,1.317-4.219V0h7.256V18.865q0,5.051-2.687,7.873A9.684,9.684,0,0,1,16.768,29.56Z" transform="translate(311.557 23.648)" fill="#ed759d"/>
          <path id="Path_5865" data-name="Path 5865" d="M6.342,29.022q-3.5,0-4.918-1.451A6.313,6.313,0,0,1,0,23V0H7.256V21.122a1.971,1.971,0,0,0,2.2,2.257h1.827v5.643Z" transform="translate(344.879 23.648)" fill="#ed759d"/>
          <path id="Path_5866" data-name="Path 5866" d="M10.1,30.1a14,14,0,0,1-5.051-.886,7.671,7.671,0,0,1-3.682-2.9A9.359,9.359,0,0,1,0,20.96a8.031,8.031,0,0,1,2.955-6.691q2.956-2.337,8.492-2.338h8.224v-1.4a4.391,4.391,0,0,0-1.506-3.789q-1.5-1.1-5.32-1.1a33.647,33.647,0,0,0-4.971.349,28.754,28.754,0,0,0-4.649,1.1V1.667A37.354,37.354,0,0,1,8.33.484,34.624,34.624,0,0,1,14.027,0a26.822,26.822,0,0,1,2.742.134,19.011,19.011,0,0,1,2.418.4h10.1l-.376,5.536H25.636A7.806,7.806,0,0,1,26.6,8.438a12.189,12.189,0,0,1,.322,2.848V29.559H19.671V17.252H11.878a7.079,7.079,0,0,0-3.654.807,3.1,3.1,0,0,0-1.344,2.9A2.991,2.991,0,0,0,8.062,23.7a7.756,7.756,0,0,0,3.976.753,18.619,18.619,0,0,0,2.016-.108,9.125,9.125,0,0,0,1.693-.322v5.321a16.387,16.387,0,0,1-2.5.538A21.993,21.993,0,0,1,10.1,30.1Z" transform="translate(360.304 23.11)" fill="#ed759d"/>
          <path id="Path_5867" data-name="Path 5867" d="M0,9.3.377,4.353h17.2V0h5.911V9.3Z" transform="translate(363.743 10.373)" fill="#ed759d"/>
          <path id="Path_5868" data-name="Path 5868" d="M0,7.524V0H5.913V7.524Z" transform="translate(381.049 0)" fill="#ed759d"/>
          <path id="Path_5869" data-name="Path 5869" d="M13.919,30.1a26.672,26.672,0,0,1-6.986-.86,10.253,10.253,0,0,1-5.052-2.929A7.948,7.948,0,0,1,0,20.746a7.589,7.589,0,0,1,.887-3.575,6.53,6.53,0,0,1,2.767-2.714,5.918,5.918,0,0,1-2.552-2.2A6.475,6.475,0,0,1,.107,8.6,7.779,7.779,0,0,1,2.795,2.177,10.665,10.665,0,0,1,9.728,0a18.536,18.536,0,0,1,2.848.188,10.559,10.559,0,0,1,2.15.564V6.073a14.1,14.1,0,0,0-3.708-.429,5.512,5.512,0,0,0-3.01.672A2.527,2.527,0,0,0,6.987,8.6a2.606,2.606,0,0,0,1.129,2.446,6.755,6.755,0,0,0,3.386.672h3.009l.269,5.32H11.448q-4.569,0-4.568,3.709a3.008,3.008,0,0,0,1.638,2.767,10.558,10.558,0,0,0,5.08.941q3.492,0,5.159-1.452a5.262,5.262,0,0,0,1.667-4.192V.537h7.255V18.165q0,6.288-3.573,9.11T13.919,30.1Z" transform="translate(393.142 23.11)" fill="#ed759d"/>
          <path id="Path_5870" data-name="Path 5870" d="M14.135,29.56a23.907,23.907,0,0,1-3.091-.214,18.018,18.018,0,0,1-2.875-.592L0,8.868H7.041l6.4,15.532q4.032,0,5.832-2.714t1.8-8.089a16.387,16.387,0,0,0-.618-5.052,4.472,4.472,0,0,0-2.016-2.607,8.011,8.011,0,0,0-3.87-.779h-2.2V0h3.224q6.4,0,9.379,3.359T27.947,13.6a20.406,20.406,0,0,1-1.773,9.164A11.449,11.449,0,0,1,21.31,27.92,15.085,15.085,0,0,1,14.135,29.56Z" transform="translate(423.938 23.648)" fill="#ed759d"/>
          <path id="Path_5871" data-name="Path 5871" d="M0,10.8V0H6.127L5.375,10.8Zm9.3,0V0h6.126l-.752,10.8Z" transform="translate(73.361 97.688)" fill="#ed759d"/>
          <path id="Path_5872" data-name="Path 5872" d="M11.662,42.673q-3.494,0-4.918-1.451a6.313,6.313,0,0,1-1.424-4.568V13.06A8.355,8.355,0,0,0,4,8.008,8.017,8.017,0,0,0,0,5.321V0H17.575V5.643H9.137a6.47,6.47,0,0,1,2.579,2.794,10.069,10.069,0,0,1,.86,4.407V34.772a1.971,1.971,0,0,0,2.2,2.257h1.827v5.643Z" transform="translate(90.291 89.626)" fill="#ed759d"/>
          <path id="Path_5873" data-name="Path 5873" d="M10.856,30.1a37.621,37.621,0,0,1-5.777-.43A20.525,20.525,0,0,1,.592,28.539V22.68A21.787,21.787,0,0,0,5.079,24a24.3,24.3,0,0,0,4.434.457,17.239,17.239,0,0,0,5.079-.538,2.136,2.136,0,0,0,1.586-2.2,2.453,2.453,0,0,0-.833-1.989,7.843,7.843,0,0,0-2.553-1.262q-1.72-.564-4.407-1.479A21.99,21.99,0,0,1,2.23,13.839,6.181,6.181,0,0,1,0,8.653,7.615,7.615,0,0,1,3.009,2.392Q6.019,0,12.092,0a34.338,34.338,0,0,1,5.052.376,25.1,25.1,0,0,1,4.139.914v5.8a16.967,16.967,0,0,0-4.057-1.1,27.5,27.5,0,0,0-4.112-.349,15.117,15.117,0,0,0-4.38.564A2.264,2.264,0,0,0,6.879,8.492a1.99,1.99,0,0,0,.941,1.72,10.068,10.068,0,0,0,2.687,1.183q1.745.538,4.165,1.4a24.876,24.876,0,0,1,4.864,2.15,7.024,7.024,0,0,1,2.687,2.741,8.727,8.727,0,0,1,.833,4.031A6.967,6.967,0,0,1,19.8,28.028Q16.552,30.1,10.856,30.1Z" transform="translate(109.478 102.74)" fill="#ed759d"/>
          <path id="Path_5874" data-name="Path 5874" d="M0,29.56v-18A11.159,11.159,0,0,1,3.251,3.144Q6.5,0,13.705,0T24.131,3.144a11.208,11.208,0,0,1,3.225,8.411v18H20.1V11.018a4.834,4.834,0,0,0-1.693-4.031,7.386,7.386,0,0,0-4.7-1.344q-6.449,0-6.449,5.375v5.213a9.616,9.616,0,0,1,2.284-1.236,7.681,7.681,0,0,1,2.769-.484H15.8l.215,5.751H12.146a8.3,8.3,0,0,0-2.686.4,8.086,8.086,0,0,0-2.2,1.156V29.56Z" transform="translate(137.532 102.74)" fill="#ed759d"/>
          <path id="Path_5875" data-name="Path 5875" d="M6.343,29.022q-3.494,0-4.918-1.451A6.313,6.313,0,0,1,0,23V0H7.255V21.122a1.972,1.972,0,0,0,2.2,2.257h1.826v5.643Z" transform="translate(171.391 103.277)" fill="#ed759d"/>
          <path id="Path_5876" data-name="Path 5876" d="M13.813,29.56q-6.4,0-10.1-3.037T0,17.36V0H7.256V17.467q0,6.449,6.557,6.45t6.558-6.45V0h7.255V17.36q0,6.127-3.708,9.163T13.813,29.56Z" transform="translate(187.73 103.277)" fill="#ed759d"/>
          <path id="Path_5877" data-name="Path 5877" d="M12.952,29.56V11.717a7.662,7.662,0,0,0-1.128-4.488q-1.13-1.585-4.515-1.585a18.945,18.945,0,0,0-3.762.4A22.834,22.834,0,0,0,0,7.041V1.72A18.056,18.056,0,0,1,3.977.484,23.543,23.543,0,0,1,8.707,0q6.127,0,8.815,2.607T20.208,10.7V29.56Z" transform="translate(219.009 102.74)" fill="#ed759d"/>
          <path id="Path_5878" data-name="Path 5878" d="M0,29.022V0H7.256V8.815h7.2q2.793,0,3.842-1.21a5.5,5.5,0,0,0,1.048-3.682V0H26.6V3.655a11.976,11.976,0,0,1-.886,4.756,5.487,5.487,0,0,1-3.252,2.983,5.257,5.257,0,0,1,3.091,2.66,9.831,9.831,0,0,1,.833,4.166v10.8H19.133v-10q0-2.74-1.048-3.815T14.3,14.135H7.256V29.022Z" transform="translate(245.559 103.277)" fill="#ed759d"/>
          <path id="Path_5879" data-name="Path 5879" d="M9.244,30.1A23.361,23.361,0,0,1,0,28.377V22.841A22.745,22.745,0,0,0,3.6,24a16.988,16.988,0,0,0,3.924.457q5.05,0,7.229-2.1t2.177-7.309q0-5.213-2.177-7.31t-7.229-2.1A18.071,18.071,0,0,0,3.6,6.073,18.506,18.506,0,0,0,0,7.256V1.72A23.368,23.368,0,0,1,9.244,0q7.364,0,10.964,3.843t3.6,11.206q0,7.363-3.6,11.205T9.244,30.1Z" transform="translate(276.354 102.74)" fill="#ed759d"/>
          <path id="Path_5880" data-name="Path 5880" d="M12.952,29.56V11.717a7.662,7.662,0,0,0-1.128-4.488Q10.695,5.644,7.31,5.644a18.96,18.96,0,0,0-3.763.4A22.822,22.822,0,0,0,0,7.041V1.72A18.056,18.056,0,0,1,3.977.484,23.546,23.546,0,0,1,8.706,0q6.127,0,8.815,2.607T20.209,10.7V29.56Z" transform="translate(301.937 102.74)" fill="#ed759d"/>
          <path id="Path_5881" data-name="Path 5881" d="M10.051,29.56a9.681,9.681,0,0,1-7.363-2.822Q0,23.916,0,18.865V0H7.256V18.435q0,2.957,1.317,4.219a5.421,5.421,0,0,0,3.9,1.264,9.689,9.689,0,0,0,3.977-.86,9.268,9.268,0,0,0,3.118-2.149V0h7.255V29.022H20.154l-.322-2.849a15.743,15.743,0,0,1-4.353,2.473A15.271,15.271,0,0,1,10.051,29.56Z" transform="translate(328.486 103.277)" fill="#ed759d"/>
          <path id="Path_5882" data-name="Path 5882" d="M0,10.8V0H6.127L5.375,10.8Zm9.3,0V0h6.126l-.752,10.8Z" transform="translate(360.573 97.688)" fill="#ed759d"/>
        </g>
        <g id="Group_2791" data-name="Group 2791" transform="translate(0 164.697)">
          <path id="Path_5883" data-name="Path 5883" d="M4.474,26.261a4.25,4.25,0,0,1-3.283-1.288A4.776,4.776,0,0,1,0,21.593V0H3.988V20.62Q3.988,23,6.273,23H9.045v3.258Z" transform="translate(0 7.295)"/>
          <path id="Path_5884" data-name="Path 5884" d="M6.03,26.261,0,0H4.084L8.413,20.669,13.958,3.306V0h2.967l5.934,20.669L27.138,0h4.036L25.192,26.261H21.2l-5.4-18.48L9.97,26.261Z" transform="translate(13.374 7.295)"/>
          <path id="Path_5885" data-name="Path 5885" d="M9.289,27.235a35.112,35.112,0,0,1-4.742-.316A16.165,16.165,0,0,1,.681,25.97v-3.55a18.942,18.942,0,0,0,3.939,1.07,24.776,24.776,0,0,0,3.988.34,15.235,15.235,0,0,0,5.325-.7,2.953,2.953,0,0,0,1.775-3.089,3.358,3.358,0,0,0-.9-2.552,6.916,6.916,0,0,0-2.554-1.411q-1.654-.557-3.988-1.338a37.916,37.916,0,0,1-4.037-1.628A8.8,8.8,0,0,1,1.167,10.8,5.606,5.606,0,0,1,0,7.1,6.086,6.086,0,0,1,2.553,1.824Q5.107,0,10.165,0A26.357,26.357,0,0,1,14.4.341a21.547,21.547,0,0,1,3.5.827v3.5a17.37,17.37,0,0,0-3.477-.949,22.086,22.086,0,0,0-3.672-.316,13.911,13.911,0,0,0-5.033.7A2.8,2.8,0,0,0,3.987,7a2.96,2.96,0,0,0,.9,2.261,7.356,7.356,0,0,0,2.577,1.46q1.679.608,4.062,1.386a29.027,29.027,0,0,1,4.231,1.727,8.03,8.03,0,0,1,2.894,2.383A6.255,6.255,0,0,1,19.7,19.989q0,3.938-2.87,5.593A15.019,15.019,0,0,1,9.289,27.235Z" transform="translate(48.877 6.808)"/>
          <path id="Path_5886" data-name="Path 5886" d="M12.985,26.748V9.776a12.393,12.393,0,0,0-.437-3.6,3.4,3.4,0,0,0-1.775-2.092,9.327,9.327,0,0,0-4.061-.68,18.518,18.518,0,0,0-3.38.34A18.721,18.721,0,0,0,0,4.67V1.362A19.426,19.426,0,0,1,3.454.39,20.784,20.784,0,0,1,7.441,0q5.008,0,7.271,2.213t2.261,7.125v17.41Z" transform="translate(71.929 6.808)"/>
          <path id="Path_5887" data-name="Path 5887" d="M0,5.447V0H3.453V2.383h7.538l-.146,3.064ZM0,18.87V13.423H3.453v2.432h7.538l-.146,3.016Z" transform="translate(94.69 11.575)"/>
          <path id="Path_5888" data-name="Path 5888" d="M6.03,26.261,0,0H4.085L8.414,20.669,13.958,3.306V0h2.967l5.934,20.669L27.138,0h4.036L25.192,26.261H21.2l-5.4-18.48L9.97,26.261Z" transform="translate(110.01 7.295)"/>
          <path id="Path_5889" data-name="Path 5889" d="M19.745,34.531V9.873q0-3.648-1.7-5.057t-5.836-1.41a16.613,16.613,0,0,0-5.082.754A8.857,8.857,0,0,0,3.5,6.177V7.2L9.192,8.56v3.016a5.281,5.281,0,0,0-2.749,1.532,4.618,4.618,0,0,0-.9,3.088v4.912q0,2.383,2.287,2.383H10.6v3.258H6.031A4.25,4.25,0,0,1,2.748,25.46a4.78,4.78,0,0,1-1.192-3.38V16.1a6.688,6.688,0,0,1,.924-3.525A5.033,5.033,0,0,1,5.5,10.408L0,9.144V4.475A18.31,18.31,0,0,1,4.937,1.387,17.625,17.625,0,0,1,12.207,0q5.739,0,8.633,2.407t2.894,7.611V34.531Z" transform="translate(145.513 6.808)"/>
          <path id="Path_5890" data-name="Path 5890" d="M10.5,27.235a10.393,10.393,0,0,1-5.4-1.411,9.494,9.494,0,0,1-3.745-4.352A18.218,18.218,0,0,1,0,13.861Q0,7.2,2.116,3.6A6.664,6.664,0,0,1,8.171,0a6.444,6.444,0,0,1,3.162.682,6.967,6.967,0,0,1,2.139,1.9,7.351,7.351,0,0,1,2.65-1.9A8.1,8.1,0,0,1,19.356,0a5.427,5.427,0,0,1,4.329,1.678,7.163,7.163,0,0,1,1.459,4.839V26.748H21.156V7.052a4.9,4.9,0,0,0-.608-2.845,2.756,2.756,0,0,0-2.31-.8,4.058,4.058,0,0,0-1.994.51,3.469,3.469,0,0,0-1.459,1.776H12.11A5.069,5.069,0,0,0,10.7,3.915a3.528,3.528,0,0,0-2.042-.51A3.675,3.675,0,0,0,4.937,6.25a24.763,24.763,0,0,0-.949,7.611q0,5.544,1.824,7.757a6.559,6.559,0,0,0,5.374,2.212,17,17,0,0,0,1.824-.1,8.257,8.257,0,0,0,1.532-.292v3.307A14.163,14.163,0,0,1,10.5,27.235Z" transform="translate(175.033 6.808)"/>
          <path id="Path_5891" data-name="Path 5891" d="M0,2.869.2,0H19.308V2.869Z" transform="translate(180.772)"/>
          <path id="Path_5892" data-name="Path 5892" d="M1.556,26.748V16.1a6.688,6.688,0,0,1,.924-3.525A5.033,5.033,0,0,1,5.5,10.408L0,9.144V4.475A18.3,18.3,0,0,1,4.937,1.387,17.626,17.626,0,0,1,12.207,0q5.738,0,8.633,2.407t2.894,7.611v16.73H19.745V9.873q0-3.648-1.7-5.057t-5.836-1.41a16.618,16.618,0,0,0-5.083.754A8.838,8.838,0,0,0,3.5,6.177V7.2L9.192,8.56v3.016a5.281,5.281,0,0,0-2.748,1.532,4.618,4.618,0,0,0-.9,3.088V26.748Z" transform="translate(205.965 6.808)"/>
          <path id="Path_5893" data-name="Path 5893" d="M9.29,27.235a35.112,35.112,0,0,1-4.742-.316A16.176,16.176,0,0,1,.681,25.97v-3.55a18.963,18.963,0,0,0,3.94,1.07,24.776,24.776,0,0,0,3.988.34,15.242,15.242,0,0,0,5.325-.7,2.955,2.955,0,0,0,1.775-3.089,3.357,3.357,0,0,0-.9-2.552,6.905,6.905,0,0,0-2.553-1.411q-1.655-.557-3.988-1.338a37.949,37.949,0,0,1-4.037-1.628A8.788,8.788,0,0,1,1.167,10.8,5.609,5.609,0,0,1,0,7.1,6.083,6.083,0,0,1,2.554,1.824Q5.107,0,10.165,0A26.363,26.363,0,0,1,14.4.341a21.579,21.579,0,0,1,3.5.827v3.5a17.406,17.406,0,0,0-3.478-.949,22.089,22.089,0,0,0-3.672-.316,13.91,13.91,0,0,0-5.034.7A2.8,2.8,0,0,0,3.989,7a2.96,2.96,0,0,0,.9,2.261,7.36,7.36,0,0,0,2.577,1.46q1.679.608,4.061,1.386a29.011,29.011,0,0,1,4.231,1.727,8.042,8.042,0,0,1,2.894,2.383A6.255,6.255,0,0,1,19.7,19.989q0,3.938-2.869,5.593A15.018,15.018,0,0,1,9.29,27.235Z" transform="translate(235.485 6.808)"/>
          <path id="Path_5894" data-name="Path 5894" d="M9.289,27.235a35.117,35.117,0,0,1-4.742-.316A16.176,16.176,0,0,1,.681,25.97v-3.55a18.954,18.954,0,0,0,3.94,1.07,24.781,24.781,0,0,0,3.988.34,15.24,15.24,0,0,0,5.325-.7,2.955,2.955,0,0,0,1.775-3.089,3.357,3.357,0,0,0-.9-2.552,6.916,6.916,0,0,0-2.554-1.411q-1.654-.557-3.988-1.338a37.9,37.9,0,0,1-4.036-1.628A8.79,8.79,0,0,1,1.167,10.8,5.609,5.609,0,0,1,0,7.1,6.084,6.084,0,0,1,2.554,1.824Q5.106,0,10.165,0A26.359,26.359,0,0,1,14.4.341a21.572,21.572,0,0,1,3.5.827v3.5a17.4,17.4,0,0,0-3.477-.949,22.08,22.08,0,0,0-3.672-.316,13.914,13.914,0,0,0-5.034.7A2.8,2.8,0,0,0,3.988,7a2.963,2.963,0,0,0,.9,2.261,7.37,7.37,0,0,0,2.578,1.46q1.677.608,4.061,1.386a29.027,29.027,0,0,1,4.231,1.727,8.034,8.034,0,0,1,2.894,2.383A6.255,6.255,0,0,1,19.7,19.989q0,3.938-2.87,5.593A15.014,15.014,0,0,1,9.289,27.235Z" transform="translate(259.997 6.808)"/>
          <path id="Path_5895" data-name="Path 5895" d="M13.374,26.748a13.358,13.358,0,0,1-5.446-1A15.584,15.584,0,0,1,3.842,23.1L3.6,26.261H0V0H3.987V19.745a13.1,13.1,0,0,0,3.527,2.577,9.924,9.924,0,0,0,4.547,1.021,6.647,6.647,0,0,0,4.669-1.41q1.507-1.411,1.507-4.67V0h3.987V17.313q0,4.57-2.333,7A8.608,8.608,0,0,1,13.374,26.748Z" transform="translate(285.48 7.295)"/>
          <path id="Path_5896" data-name="Path 5896" d="M11.186,26.748q-5.154,0-7.9-2.456A8.933,8.933,0,0,1,.536,17.264v-3.55a5.93,5.93,0,0,1,.681-2.772,15.436,15.436,0,0,1,1.6-2.481q.924-1.167,1.605-2.188a3.485,3.485,0,0,0,.681-1.9q0-.825-.364-1.045A2.564,2.564,0,0,0,3.5,3.112H0L.341,0h5.4Q9.094,0,9.095,3.306a6.355,6.355,0,0,1-.681,2.968A17.52,17.52,0,0,1,6.809,8.8a20.843,20.843,0,0,0-1.6,2.432,5.279,5.279,0,0,0-.681,2.626V17.7a5,5,0,0,0,1.8,4.328,8.086,8.086,0,0,0,4.863,1.313,8.293,8.293,0,0,0,4.937-1.313q1.824-1.313,1.824-4.426V0h3.988V17.216a8.853,8.853,0,0,1-2.845,7.051Q16.244,26.748,11.186,26.748Z" transform="translate(313.494 7.295)"/>
          <path id="Path_5897" data-name="Path 5897" d="M10.068,27.235a27.07,27.07,0,0,1-5.642-.559A26.779,26.779,0,0,1,0,25.388V12.158H9.63l.195,3.259H3.989v7.441a17.794,17.794,0,0,0,2.845.705,18.825,18.825,0,0,0,3.137.267A10.99,10.99,0,0,0,15,22.859a5.746,5.746,0,0,0,2.724-3.21,17.222,17.222,0,0,0,.851-5.982,16.874,16.874,0,0,0-.9-6.127,5.66,5.66,0,0,0-3.015-3.186A14.358,14.358,0,0,0,8.9,3.405,32.967,32.967,0,0,0,4.6,3.7,21.82,21.82,0,0,0,.39,4.67V1.362A22.86,22.86,0,0,1,4.84.341,37.788,37.788,0,0,1,9.922,0Q16.634,0,19.6,3.429t2.967,10.237q0,6.664-2.967,10.116T10.068,27.235Z" transform="translate(341.215 6.808)"/>
          <path id="Path_5898" data-name="Path 5898" d="M11.672,26.748q-.925,0-2.165-.1a7.557,7.557,0,0,1-2.116-.438L0,8.219H3.891l6.225,15.125q4.62.341,6.833-2.383t2.213-8.706a18.217,18.217,0,0,0-.633-5.373,4.653,4.653,0,0,0-2.115-2.8,8.631,8.631,0,0,0-4.158-.827h-1.7V0h2.14q5.592,0,8.025,2.99t2.432,9.217a19.526,19.526,0,0,1-1.532,8.365,10.334,10.334,0,0,1-4.11,4.693A11.49,11.49,0,0,1,11.672,26.748Z" transform="translate(367.381 7.295)"/>
          <path id="Path_5899" data-name="Path 5899" d="M0,26.748V9.727q0-4.668,2.748-7.2T11.38,0q5.885,0,8.584,2.53t2.7,7.2V26.748H18.676V9.29q0-3.162-1.873-4.523A9.14,9.14,0,0,0,11.38,3.405,9.331,9.331,0,0,0,5.86,4.767Q3.988,6.128,3.988,9.29v6.079a8.28,8.28,0,0,1,5.642-1.995h3.209l.2,3.259h-3.5a8.282,8.282,0,0,0-5.544,1.9v8.219Z" transform="translate(396.317 6.808)"/>
          <path id="Path_5900" data-name="Path 5900" d="M3.211,9.094V2.723H0L.195,0H6.663V9.094Z" transform="translate(412.269 36.621)"/>
          <path id="Path_5901" data-name="Path 5901" d="M27.672,27.235a8.081,8.081,0,0,1-6.3-2.432q-2.214-2.431-2.213-7V9.873q0-3.648-1.6-5.057t-5.642-1.41a15.378,15.378,0,0,0-4.888.754A8.862,8.862,0,0,0,3.5,6.177V7.2L9.192,8.56v3.016a5.281,5.281,0,0,0-2.748,1.532,4.617,4.617,0,0,0-.9,3.088v4.912q0,2.383,2.286,2.383H10.6v3.258H6.031A4.25,4.25,0,0,1,2.748,25.46a4.779,4.779,0,0,1-1.191-3.38V16.1a6.686,6.686,0,0,1,.924-3.525A5.036,5.036,0,0,1,5.5,10.408L0,9.144V4.475A18.708,18.708,0,0,1,4.839,1.387,16.7,16.7,0,0,1,11.915,0q5.641,0,8.414,2.407T23.1,10.018v7.733q0,3.26,1.434,4.669a6.13,6.13,0,0,0,4.45,1.41,9.134,9.134,0,0,0,4.353-1.021,13.7,13.7,0,0,0,3.428-2.577V.487h3.989V26.748h-3.6l-.243-3.161a15.277,15.277,0,0,1-3.964,2.651A12.586,12.586,0,0,1,27.672,27.235Z" transform="translate(424.768 6.808)"/>
          <path id="Path_5902" data-name="Path 5902" d="M0,26.749V9.727q0-4.668,2.748-7.2T11.38,0q5.884,0,8.584,2.53t2.7,7.2V26.749H18.675V9.29q0-3.162-1.873-4.523A9.14,9.14,0,0,0,11.38,3.4,9.337,9.337,0,0,0,5.86,4.767Q3.989,6.128,3.988,9.29v6.079a8.278,8.278,0,0,1,5.641-1.995h3.21l.195,3.259h-3.5a8.278,8.278,0,0,0-5.544,1.9v8.219Z" transform="translate(70.592 76.285)"/>
          <path id="Path_5903" data-name="Path 5903" d="M8.754,27.236a11.691,11.691,0,0,1-4.45-.8A6.782,6.782,0,0,1,1.167,23.9,7.882,7.882,0,0,1,0,19.406a7.38,7.38,0,0,1,2.48-5.86q2.48-2.165,7.587-2.165h8.608V9.338a7.859,7.859,0,0,0-.656-3.526,3.8,3.8,0,0,0-2.262-1.848A14.119,14.119,0,0,0,11.283,3.4a31.45,31.45,0,0,0-4.3.292,22.007,22.007,0,0,0-4.109.973V1.362a24.6,24.6,0,0,1,4.255-1A32.484,32.484,0,0,1,12.012,0q5.544,0,8.1,2.311T22.664,9.63V26.749H18.675V14.688H10.31a8.565,8.565,0,0,0-4.863,1.094,4.117,4.117,0,0,0-1.556,3.624A3.9,3.9,0,0,0,5.3,22.858a8.146,8.146,0,0,0,4.522.972,12.505,12.505,0,0,0,3.308-.388v3.307q-.828.195-1.946.341A18.949,18.949,0,0,1,8.754,27.236Z" transform="translate(99.043 76.285)"/>
          <path id="Path_5904" data-name="Path 5904" d="M3.842,7.441V2.869H0V0H6.711V4.572H17.362l-.195,2.869Z" transform="translate(107.554 64.905)"/>
          <path id="Path_5905" data-name="Path 5905" d="M12.985,26.749V9.776a12.409,12.409,0,0,0-.437-3.6,3.4,3.4,0,0,0-1.775-2.092A9.323,9.323,0,0,0,6.711,3.4a18.536,18.536,0,0,0-3.38.341A18.7,18.7,0,0,0,0,4.669V1.362A19.411,19.411,0,0,1,3.453.389,20.807,20.807,0,0,1,7.441,0q5.008,0,7.271,2.213t2.261,7.125v17.41Z" transform="translate(126.034 76.285)"/>
          <path id="Path_5906" data-name="Path 5906" d="M11.575,27.236a16.051,16.051,0,0,1-8.437-1.921A6.58,6.58,0,0,1,0,19.259a6.85,6.85,0,0,1,1.045-3.866,6.286,6.286,0,0,1,2.943-2.36A5.574,5.574,0,0,1,1.24,11.088,5.944,5.944,0,0,1,.146,7.344a6.779,6.779,0,0,1,2.188-5.52A8.441,8.441,0,0,1,7.928,0a15.712,15.712,0,0,1,2.286.146,11.787,11.787,0,0,1,1.75.39V3.843A6.1,6.1,0,0,0,10.456,3.5a16.369,16.369,0,0,0-1.8-.1,5.22,5.22,0,0,0-3.331.948A3.588,3.588,0,0,0,4.134,7.344,3.574,3.574,0,0,0,5.543,10.48a6.269,6.269,0,0,0,3.7,1h2.773l.242,3.015H9.094a5.284,5.284,0,0,0-3.841,1.24,4.713,4.713,0,0,0-1.265,3.526q0,4.572,7.44,4.571A9.16,9.16,0,0,0,17.046,22.4a5.424,5.424,0,0,0,1.873-4.6V.487h3.988V17.119q0,4.913-2.724,7.514T11.575,27.236Z" transform="translate(148.795 76.285)"/>
          <path id="Path_5907" data-name="Path 5907" d="M1.557,26.749V16.1a6.688,6.688,0,0,1,.924-3.525A5.035,5.035,0,0,1,5.5,10.408L0,9.144V4.475A18.323,18.323,0,0,1,4.936,1.386,17.634,17.634,0,0,1,12.207,0q5.738,0,8.632,2.407t2.894,7.611v16.73H19.745V9.873q0-3.648-1.7-5.057T12.207,3.4a16.608,16.608,0,0,0-5.082.754A8.839,8.839,0,0,0,3.5,6.177V7.2L9.191,8.56v3.015a5.279,5.279,0,0,0-2.747,1.532,4.614,4.614,0,0,0-.9,3.088V26.749Z" transform="translate(177.489 76.285)"/>
          <path id="Path_5908" data-name="Path 5908" d="M0,6.42V0H3.355V3.551H16.438L16.244,6.42Z" transform="translate(190.62 65.926)"/>
          <path id="Path_5909" data-name="Path 5909" d="M11.526,26.748q-5.543,0-8.535-2.627T0,16.341V0H3.989V16.633q0,3.55,1.945,5.131a8.675,8.675,0,0,0,5.592,1.58,8.68,8.68,0,0,0,5.594-1.58q1.944-1.58,1.945-5.131V0h3.988V16.341q0,5.155-2.991,7.781T11.526,26.748Z" transform="translate(207.983 76.772)"/>
          <path id="Path_5910" data-name="Path 5910" d="M4.476,26.261a4.25,4.25,0,0,1-3.283-1.288A4.779,4.779,0,0,1,0,21.593V0H3.988V20.62Q3.988,23,6.275,23H9.047v3.258Z" transform="translate(237.795 76.772)"/>
          <path id="Path_5911" data-name="Path 5911" d="M6.031,26.261,0,0H4.086L8.414,20.669,13.958,3.306V0h2.966l5.934,20.669L27.138,0h4.037L25.193,26.261H21.2l-5.4-18.48L9.97,26.261Z" transform="translate(251.17 76.772)"/>
          <path id="Path_5912" data-name="Path 5912" d="M0,7,.2,4.135h9.97V0H13.18V4.135h3.112V0h3.016V7Z" transform="translate(260.02 65.342)"/>
          <path id="Path_5913" data-name="Path 5913" d="M0,6.761V0H3.355V6.761Z" transform="translate(275.924 56.199)"/>
          <path id="Path_5914" data-name="Path 5914" d="M10.067,27.236a27.077,27.077,0,0,1-5.642-.559A26.714,26.714,0,0,1,0,25.387V12.158H9.629l.194,3.259H3.988v7.441a17.693,17.693,0,0,0,2.845.705,18.775,18.775,0,0,0,3.137.267A10.992,10.992,0,0,0,15,22.858a5.744,5.744,0,0,0,2.723-3.21,17.214,17.214,0,0,0,.852-5.983,16.89,16.89,0,0,0-.9-6.127,5.657,5.657,0,0,0-3.016-3.185A14.353,14.353,0,0,0,8.9,3.4,32.911,32.911,0,0,0,4.6,3.7a21.806,21.806,0,0,0-4.207.973V1.362A22.857,22.857,0,0,1,4.839.341,37.7,37.7,0,0,1,9.922,0Q16.633,0,19.6,3.429t2.967,10.237q0,6.665-2.967,10.117T10.067,27.236Z" transform="translate(286.672 76.285)"/>
          <path id="Path_5915" data-name="Path 5915" d="M8.754,27.236a11.69,11.69,0,0,1-4.45-.8A6.788,6.788,0,0,1,1.167,23.9,7.889,7.889,0,0,1,0,19.406a7.382,7.382,0,0,1,2.48-5.86q2.481-2.165,7.587-2.165h8.608V9.338a7.859,7.859,0,0,0-.657-3.526,3.8,3.8,0,0,0-2.261-1.848A14.127,14.127,0,0,0,11.283,3.4a31.464,31.464,0,0,0-4.3.292,22.016,22.016,0,0,0-4.11.973V1.362a24.645,24.645,0,0,1,4.256-1A32.478,32.478,0,0,1,12.012,0,22.417,22.417,0,0,1,14.4.121a15.485,15.485,0,0,1,2.091.365h8.365l-.194,3.259h-3.5a6.923,6.923,0,0,1,1.167,2.578,14.606,14.606,0,0,1,.341,3.307V26.749H18.676V14.688H10.311a8.565,8.565,0,0,0-4.864,1.094,4.119,4.119,0,0,0-1.556,3.624A3.9,3.9,0,0,0,5.3,22.858a8.148,8.148,0,0,0,4.523.972,12.5,12.5,0,0,0,3.307-.388v3.307q-.828.195-1.946.341A18.966,18.966,0,0,1,8.754,27.236Z" transform="translate(314.053 76.285)"/>
          <path id="Path_5916" data-name="Path 5916" d="M8.754,26.748a8.428,8.428,0,0,1-6.493-2.432Q0,21.885,0,17.313V0H3.988V17.264q0,3.26,1.459,4.67a6.457,6.457,0,0,0,4.62,1.409,10.277,10.277,0,0,0,4.572-1.021,12.748,12.748,0,0,0,3.6-2.577V0h3.988V26.261h-3.6l-.243-3.16a14.421,14.421,0,0,1-4.134,2.651A13.938,13.938,0,0,1,8.754,26.748Z" transform="translate(343.72 76.772)"/>
          <path id="Path_5917" data-name="Path 5917" d="M0,2.869.194,0H19.308V2.869Z" transform="translate(346.541 69.477)"/>
          <path id="Path_5918" data-name="Path 5918" d="M0,26.749V.487H3.6l.243,3.161A15.275,15.275,0,0,1,8,1a13.742,13.742,0,0,1,5.471-1A8.449,8.449,0,0,1,19.94,2.431q2.285,2.433,2.286,6.955V26.749H18.238V9.435q0-3.211-1.508-4.62A6.648,6.648,0,0,0,12.062,3.4,9.739,9.739,0,0,0,7.514,4.45a13.527,13.527,0,0,0-3.526,2.6v19.7Z" transform="translate(372.706 76.285)"/>
        </g>
      </g>
    </g>
  </g>
</svg>
