<svg xmlns="http://www.w3.org/2000/svg" xmlns:xlink="http://www.w3.org/1999/xlink" width="560" height="541" viewBox="0 0 560 541">
  <defs>
    <clipPath id="clip-path">
      <rect id="Rectangle_178" data-name="Rectangle 178" width="560" height="541" transform="translate(19 82)" fill="none"/>
    </clipPath>
    <radialGradient id="radial-gradient" cx="0.5" cy="0.503" r="0.508" gradientTransform="matrix(0.878, 0.17, -0.127, 0.828, 0.364, 0.295)" gradientUnits="objectBoundingBox">
      <stop offset="0" stop-color="#97d5ee"/>
      <stop offset="0.032" stop-color="#9ad5ed"/>
      <stop offset="0.45" stop-color="#c2daed"/>
      <stop offset="0.781" stop-color="#dadced"/>
      <stop offset="0.983" stop-color="#e4deed"/>
    </radialGradient>
    <clipPath id="clip-path-2">
      <path id="Path_5619" data-name="Path 5619" d="M1525.852-203.971l50.162-9.75s.284,8.462.266,22.254-2.1,33.185-2.1,33.185l-37.242,75.7,11.238,20.566,10.03-1.116L1579.9-83.015l11.2,4.173,16.426,6.562,16.642-3.981L1664-125.69,1670.5-113l15.287,4.391,7.042-6.47,17.347-64.249-5.857-30.727,2.07-61.688L1766.749-502.9l-108.757,14.356L1575.509-285.2l-33.743,37.858Z" transform="translate(-1525.065 406.224)" fill="none"/>
    </clipPath>
  </defs>
  <g id="Mask_Group_1" data-name="Mask Group 1" transform="translate(-19 -82)" clip-path="url(#clip-path)">
    <g id="Group_2785" data-name="Group 2785" transform="matrix(0.995, -0.105, 0.105, 0.995, -15.018, 172.956)">
      <path id="Path_5600" data-name="Path 5600" d="M1674.548-194.895c-3.344,41.379-.276,49.039-4.477,63.529-4.3,14.822-14.846,3.462-16.054-7.725-1.918-17.759,1.159-23.779-3.618-38.452-3.488-10.713-9.555,1.428-9.555,1.428l-20.378,42.934s-22.433,26.891-34.255,34.8c-11.459,7.663-20.958,10.431-23.614,8.938-5.987-3.367-1.709-15.021-1.709-15.021s-11.331,5.655-14.8,12.145c-7.051,13.2-14.978.46-14.362-7.167,1.12-13.857,6.546-25.968,17.739-55.774s14.47-62.706,14.47-62.706-42.4,44.472-49.795,46.18-9.375-2.122-6.839-10.539.423-15.865,5.956-31.321,18.6-42.07,22.181-50.292c5.955-13.689,28.9-40.62,36.931-50.593,13.367-16.588,27.48-26.095,35.764-47.473s26.841-139.787,26.841-139.787l112.143-17.879s-49.453,114.189-66.219,193.646S1674.548-194.895,1674.548-194.895Z" transform="translate(-1225.081 -55) rotate(17)"/>
      <path id="Path_5601" data-name="Path 5601" d="M732.378,88.479s-21.667-3.1-22.171,2.122-1.267,163.324-1.267,163.324l-9.854,112.763a5.237,5.237,0,0,0,4.907,5.333c38.79,2.436,289.944,18.217,295.058,18.681,5.543.5,6.047-1.512,6.551-9.91s14.823-168.071,14.823-168.071Z" transform="translate(-690.649 77.612)"/>
      <g id="Group_2523" data-name="Group 2523" transform="translate(0 153.081)">
        <path id="Path_5602" data-name="Path 5602" d="M727.085,50.684l310.008,46.334L971.8,373.488,674.594,329.352l49.3-276.376A2.818,2.818,0,0,1,727.085,50.684Z" transform="translate(-674.184 -50.652)" fill-rule="evenodd" fill="url(#radial-gradient)"/>
        <path id="Path_5603" data-name="Path 5603" d="M970.965,379.7a.425.425,0,0,1-.061,0L673.694,335.555a.41.41,0,0,1-.343-.477l49.2-275.462a.41.41,0,1,1,.807.144L674.231,334.807l296.421,44.019,65.1-275.67L766.545,62.92a.41.41,0,1,1,.121-.81l269.647,40.3a.41.41,0,0,1,.338.5L971.363,379.38A.409.409,0,0,1,970.965,379.7Z" transform="translate(-673.344 -56.451)" fill="#0d0d0c"/>
        <path id="Path_5604" data-name="Path 5604" d="M715.373,66.708l314.543,34.03L987.293,380.572,688.365,348.516Z" transform="translate(-683.442 -61.446)" fill="#fff" fill-rule="evenodd"/>
        <path id="Path_5606" data-name="Path 5606" d="M986.453,592.238l-.044,0L687.48,560.179a.409.409,0,0,1-.364-.446l16.726-178.41a.41.41,0,0,1,.816.076L687.97,559.408,986.11,591.38l24.2-150.276a.41.41,0,0,1,.809.13l-24.264,150.66A.41.41,0,0,1,986.453,592.238Z" transform="translate(-682.602 -272.702)" fill="#0d0d0c"/>
        <path id="Path_5607" data-name="Path 5607" d="M1066.063,207.817a.508.508,0,0,1-.07,0,.492.492,0,0,1-.417-.556l15.22-107.092L767.251,66.242,765.86,80.227a.492.492,0,1,1-.978-.1l1.44-14.479a.491.491,0,0,1,.542-.44l314.543,34.03a.491.491,0,0,1,.434.558l-15.292,107.6A.492.492,0,0,1,1066.063,207.817Z" transform="translate(-734.88 -60.438)" fill="#0d0d0c"/>
        <path id="Path_5608" data-name="Path 5608" d="M741.047,336.672l-.049,0a.491.491,0,0,1-.44-.538l.888-8.928a.492.492,0,0,1,.978.1l-.888,8.928A.492.492,0,0,1,741.047,336.672Z" transform="translate(-718.528 -236.272)" fill="#0d0d0c"/>
      </g>
      <path id="Path_5633" data-name="Path 5633" d="M1640.34,270.384c16.172-27.383,12.92-82.575,13.129-93.565s-.754-13.268-3.094-13.521l20.967,2.276,7.974,16.075L1663.993,230.4Z" transform="translate(-1197.339 -454.053) rotate(17)"/>
      <g id="Group_2526" data-name="Group 2526" transform="translate(342.029 -7.852) rotate(17)">
        <g id="Group_2525" data-name="Group 2525" clip-path="url(#clip-path-2)">
          <g id="Group_2524" data-name="Group 2524" transform="translate(-13.594 -96.854)">
            <path id="Path_5609" data-name="Path 5609" d="M1652.156-698.915s-14.169,94.123-41.618,154.041c-5.372,11.726-18.2,33.232-18.2,33.232s-32.187,27.344-41.248,43.245-23.529,46.484-26.916,52.548-5.911,18.665-7.351,25.188-10.725,21.637-10.337,26.333,10.165,7.4,21.769-1.475,17.085-18.013,19.936-30.109,22.1-32.516,23.264-33.051c0,0,3.419,8.826,2.807,17.92s-2.629,34.771-3.559,39.388-10.752,33.148-15.882,42.2-11.326,19.953-14.311,28.408.434,14.845,4.342,15.9,9.177-3.91,12.282-7.64a76.9,76.9,0,0,1,6.514-6.826s2.082,5.319,10.09-.581,25.42-19.753,28.095-22.487,5.839-5.93,5.839-5.93-11.706,16.466-14.365,24.208-.592,12.928,3.836,12.57,11.678-8.2,16.358-13.6,8.706-8.957,13-15.753,21.571-25.146,23.1-27.662,3.337-7.322,5.7-18.506,5.415-21.9,5.415-21.9,4.55,14.115,4.807,15.621-2.038,15.751-3.067,22.725-1.176,16.2,3.312,20.03,9,3.782,10.579-2.261,5.73-29.611,8.691-37.883,2.781-15.563,1.234-25.41-1.562-35.93-1.444-39.734,1.445-60.815,5.039-74.753,4.553-22.349,10.485-30.682,8.091-13.266,8.911-23.737,9.414-37.061,18.028-61.848,33.548-89.952,33.548-89.952Z" transform="translate(-1506.059 717.549)" fill="#f9cfcc"/>
            <path id="Path_5610" data-name="Path 5610" d="M1716.681,380.332a4.379,4.379,0,0,1-3.594-1.734c-1.786-2.3-1.861-6.561-.2-11.4,1.879-5.472,8.113-15.085,11.744-20.445-.821.835-1.705,1.735-2.538,2.586-2.708,2.769-20.031,16.552-28.145,22.531-4.541,3.346-7.287,3.151-8.791,2.4a.41.41,0,0,1,.366-.733c1.3.65,3.732.774,7.939-2.326,7.9-5.821,25.417-19.757,28.045-22.444,2.644-2.7,5.809-5.9,5.84-5.932a.41.41,0,0,1,.625.526c-.117.164-11.7,16.507-14.311,24.1-1.571,4.574-1.543,8.547.073,10.628a3.662,3.662,0,0,0,3.343,1.4c4.738-.382,13.276-10.225,16.081-13.459,1.3-1.5,2.549-2.855,3.759-4.17a75.619,75.619,0,0,0,9.208-11.534c2.639-4.172,9.972-12.485,15.865-19.165,3.569-4.046,6.651-7.54,7.228-8.491,1.85-3.052,3.646-8.892,5.652-18.378,2.341-11.07,5.391-21.824,5.422-21.931a.41.41,0,1,1,.788.224c-.031.107-3.073,10.835-5.408,21.877-2.026,9.579-3.854,15.5-5.753,18.633-.614,1.013-3.57,4.365-7.314,8.608-5.873,6.658-13.183,14.944-15.786,19.061a76.261,76.261,0,0,1-9.3,11.651c-1.206,1.31-2.453,2.665-3.743,4.152-4.964,5.722-12.089,13.372-16.634,13.739Q1716.908,380.332,1716.681,380.332Z" transform="translate(-1626.033 45.813)" fill="#0d0d0c"/>
            <path id="Path_5611" data-name="Path 5611" d="M1545.141-285.43a4.741,4.741,0,0,1-1.243-.16,7.419,7.419,0,0,1-4.369-3.891c-1.779-3.384-1.871-7.955-.252-12.54,2.96-8.384,9.164-19.335,14.149-28.134l.192-.34c5.18-9.144,14.974-37.8,15.837-42.082.894-4.437,2.895-29.582,3.552-39.334.516-7.664-1.754-19.119-1.754-19.119s-20.88,23.217-23.509,34.372c-3.019,12.809-9.026,21.883-20.086,30.34-8.317,6.36-15.559,6.711-19.235,5.079a4.864,4.864,0,0,1-3.191-3.9c-.225-2.723,2.487-8.421,5.359-14.453,2.143-4.5,4.358-9.155,4.987-12,.135-.614.28-1.281.435-1.991,1.537-7.073,3.86-17.762,6.958-23.308,1.223-2.19,3.888-7.572,7.262-14.385,5.855-11.826,13.875-28.021,19.656-38.166,8.823-15.483,39.813-42.052,41.287-43.31.743-1.248,12.985-21.86,18.15-33.135,27.112-59.181,41.443-152.99,41.585-153.931a.41.41,0,0,1,.337-.343l108.68-18.224a.408.408,0,0,1,.385.144.41.41,0,0,1,.066.406c-.25.652-25.03,65.443-33.544,89.941-11.282,32.463-17.34,53.237-18.007,61.745-.858,10.953-3.352,16.029-8.986,23.943-4.647,6.526-6.239,13.217-8.444,22.478-.6,2.533-1.227,5.153-1.979,8.068-2.917,11.315-4.377,50.787-4.988,73.309-.018.652-.031,1.112-.038,1.355-.109,3.488-.12,29.733,1.439,39.658,1.49,9.486,1.8,17.079-1.253,25.611-1.932,5.4-4.344,17.21-6.283,26.7-.992,4.86-1.85,9.057-2.4,11.147-.7,2.686-2.04,4.408-3.863,4.98-2.093.657-4.713-.235-7.378-2.511-4.993-4.264-4.306-14.612-3.452-20.4.212-1.44.479-3.189.766-5.072,1.053-6.919,2.5-16.394,2.3-17.524-.068-.395-.515-2.035-2.263-7.607a.409.409,0,0,1,.268-.513.41.41,0,0,1,.514.268c1.414,4.508,2.184,7.1,2.288,7.714.2,1.167-.875,8.422-2.3,17.786-.287,1.882-.553,3.63-.765,5.069-.829,5.621-1.52,15.651,3.173,19.658,2.443,2.086,4.787,2.922,6.6,2.353,1.54-.483,2.687-2.006,3.316-4.406.542-2.068,1.4-6.255,2.387-11.1,1.943-9.516,4.363-21.36,6.314-26.814,2.995-8.368,2.685-15.849,1.215-25.208-1.568-9.977-1.557-36.311-1.449-39.81.008-.242.02-.7.038-1.351.612-22.557,2.076-62.1,5.014-73.492.75-2.908,1.372-5.524,1.974-8.053,2.226-9.351,3.834-16.107,8.574-22.764,5.8-8.145,8.005-12.924,8.836-23.531.682-8.7,6.586-28.963,18.049-61.951,8.05-23.165,30.632-82.323,33.3-89.3L1651.675-699.4c-.435,2.818-3.995,25.454-10.476,54.286-6.367,28.322-16.936,68.586-31.13,99.57-5.32,11.612-18.1,33.056-18.225,33.271a.409.409,0,0,1-.087.1c-.321.273-32.236,27.479-41.157,43.136-5.769,10.124-13.782,26.307-19.633,38.124-3.379,6.823-6.047,12.213-7.281,14.421-3.038,5.44-5.438,16.484-6.873,23.083-.155.711-.3,1.379-.436,1.994-.649,2.938-2.785,7.426-5.046,12.177-2.7,5.669-5.489,11.531-5.282,14.034a4.079,4.079,0,0,0,2.707,3.215c3.47,1.541,10.372,1.161,18.4-4.982,10.9-8.333,16.814-17.268,19.786-29.877,2.85-12.1,22.977-34.59,24.332-35.216a.407.407,0,0,1,.325-.008.409.409,0,0,1,.229.232c.034.089,2.6,10.9,1.992,19.982-.606,9-2.62,34.747-3.566,39.441-.868,4.307-10.718,33.129-15.927,42.325l-.192.34c-4.969,8.771-11.153,19.687-14.089,28-1.543,4.371-1.468,8.7.205,11.886a6.61,6.61,0,0,0,3.857,3.481c4.254,1.149,10.154-5.456,11.861-7.507a77.978,77.978,0,0,1,6.553-6.867.41.41,0,0,1,.579.028.41.41,0,0,1-.028.579,77.179,77.179,0,0,0-6.474,6.785C1554.515-290.857,1549.493-285.431,1545.141-285.43Z" transform="translate(-1505.219 718.389)" fill="#0d0d0c"/>
            <path id="Path_5612" data-name="Path 5612" d="M1694.51,97.064a26.614,26.614,0,0,1-1.894-6.17,30.351,30.351,0,0,1-.417-6.474l.039-.811c.019-.27.05-.539.074-.809.052-.539.094-1.079.186-1.613s.159-1.071.274-1.6l.159-.8c.054-.265.13-.525.194-.788a24.044,24.044,0,0,1,2.315-6.022,43.725,43.725,0,0,0-1.565,6.184c-.1.519-.173,1.044-.255,1.566s-.141,1.048-.2,1.572-.112,1.05-.152,1.576c-.02.263-.046.526-.061.789l-.027.791-.039.791c-.01.263,0,.527,0,.791.006.527-.012,1.056.022,1.582s.033,1.056.072,1.582c.054.525.1,1.052.14,1.579A52.9,52.9,0,0,0,1694.51,97.064Z" transform="translate(-1630.905 187.049)" fill="#0d0d0c"/>
            <path id="Path_5613" data-name="Path 5613" d="M1688.351,375.415a38.569,38.569,0,0,1,3.834-4.46c1.359-1.414,2.73-2.813,4.067-4.241a76.239,76.239,0,0,0,7.4-9.057,73.991,73.991,0,0,0,5.8-10.133c1.664-3.538,3.236-7.122,4.756-10.728,1.537-3.6,3.011-7.227,4.466-10.864s2.885-7.283,4.335-10.923,2.859-7.3,4.332-10.933c.745-1.817,1.554-3.6,2.344-5.4s1.589-3.584,2.4-5.369q-1.065,2.742-2.157,5.471c-.723,1.822-1.463,3.636-2.136,5.472-1.38,3.664-2.716,7.35-4.075,11.027-2.72,7.353-5.549,14.67-8.6,21.9-1.542,3.608-3.122,7.2-4.824,10.744a68.862,68.862,0,0,1-6.019,10.166,75.936,75.936,0,0,1-7.674,8.957c-1.4,1.382-2.818,2.731-4.228,4.091A44.41,44.41,0,0,0,1688.351,375.415Z" transform="translate(-1628.333 38.257)" fill="#0d0d0c"/>
            <path id="Path_5614" data-name="Path 5614" d="M1819.732,335.631c2.084-2.185,4.245-4.3,6.163-6.619a30.257,30.257,0,0,0,4.792-7.536c.606-1.368,1.047-2.77,1.551-4.22.507-1.43,1.045-2.844,1.591-4.254,1.1-2.817,2.263-5.608,3.445-8.39,2.391-5.552,4.907-11.052,7.657-16.44,1.371-2.7,2.813-5.357,4.365-7.956.788-1.293,1.592-2.576,2.472-3.81a18.328,18.328,0,0,1,2.962-3.428,12.927,12.927,0,0,0-1.469,1.713c-.225.3-.449.6-.655.919s-.426.62-.621.942c-.812,1.267-1.55,2.582-2.27,3.9-1.445,2.643-2.788,5.342-4.1,8.057s-2.576,5.451-3.805,8.2-2.456,5.508-3.636,8.282q-1.794,4.152-3.485,8.345c-.565,1.4-1.123,2.8-1.646,4.2l-.773,2.13c-.127.36-.275.713-.426,1.065s-.292.706-.464,1.049a26.492,26.492,0,0,1-2.272,3.977,34.761,34.761,0,0,1-2.856,3.559C1824.2,331.558,1821.97,333.6,1819.732,335.631Z" transform="translate(-1716.656 51.926)" fill="#0d0d0c"/>
            <path id="Path_5615" data-name="Path 5615" d="M1979.023,236.191a35.913,35.913,0,0,1,1.562-5.166c.642-1.682,1.377-3.325,2.164-4.942.41-.8.813-1.6,1.244-2.391s.87-1.572,1.339-2.338a46.242,46.242,0,0,1,3-4.476c-.75,1.637-1.537,3.243-2.331,4.844l-2.376,4.8c-.4.8-.792,1.6-1.176,2.4-.407.794-.764,1.609-1.166,2.406Z" transform="translate(-1823.742 89.64)" fill="#0d0d0c"/>
            <path id="Path_5616" data-name="Path 5616" d="M1806.013,221.084a32.944,32.944,0,0,1,.719,4.715,18.107,18.107,0,0,1-.224,4.8,16.5,16.5,0,0,1-1.615,4.533,23.546,23.546,0,0,1-2.651,3.97c.78-1.385,1.549-2.763,2.19-4.193a19.943,19.943,0,0,0,1.432-4.433,22.431,22.431,0,0,0,.358-4.657C1806.2,224.249,1806.089,222.671,1806.013,221.084Z" transform="translate(-1704.898 86.812)" fill="#0d0d0c"/>
            <path id="Path_5617" data-name="Path 5617" d="M1908.156,234.927a36.284,36.284,0,0,0,3-4.327,15.685,15.685,0,0,0,1.8-4.793c.077-.42.134-.845.194-1.268.026-.429.07-.856.084-1.287.035-.863,0-1.73-.044-2.6-.111-1.744-.345-3.5-.526-5.268a28.617,28.617,0,0,1,1.29,5.189,16.363,16.363,0,0,1-.032,5.42,14.026,14.026,0,0,1-.8,2.622,11.3,11.3,0,0,1-.6,1.229l-.332.6c-.116.2-.253.376-.378.565A18.373,18.373,0,0,1,1908.156,234.927Z" transform="translate(-1776.101 90.646)" fill="#0d0d0c"/>
            <path id="Path_5618" data-name="Path 5618" d="M1982.834,188.035c.134-.438.307-.845.469-1.255l.464-1.227c.137-.412.309-.809.431-1.221l.2-.61.18-.615a21.537,21.537,0,0,0,.562-2.494,13.8,13.8,0,0,0,.186-2.6,5.835,5.835,0,0,1,.585,2.657,9.688,9.688,0,0,1-.388,2.71l-.206.653c-.08.213-.167.423-.254.633a11.253,11.253,0,0,1-.6,1.218c-.22.395-.49.761-.741,1.133A13.43,13.43,0,0,1,1982.834,188.035Z" transform="translate(-1826.304 115.77)" fill="#0d0d0c"/>
          </g>
        </g>
      </g>
      <path id="Path_5634" data-name="Path 5634" d="M333.583,191.153l.578-.3,2.648-1.383-1.793,10.9-.221-8.684Z" fill="#0d0d0c"/>
      <g id="Group_2792" data-name="Group 2792" transform="translate(21.064 -181.111) rotate(6)">
        <text id="เพราะพฤติกรรมของคุณ_คล้ายกับเพื่อนสนิท" data-name="เพราะพฤติกรรมของคุณ
คล้ายกับเพื่อนสนิท" transform="translate(200.27 502.869) rotate(0.201)" font-size="20" font-family="Kanit-Light, Kanit" font-weight="300" opacity="0.9"><tspan x="-97.53" y="0">เพราะพฤติกรรมของคุณ</tspan><tspan x="-74.17" y="34">คล้ายกับเพื่อนสนิท</tspan></text>
        <text id="คุณเองก็มีความเสี่ยง_โรคเบาหวาน_" data-name="คุณเองก็มีความเสี่ยง
&quot;โรคเบาหวาน&quot;" transform="translate(200.179 413.205) rotate(0.201)" fill="#ed759d" font-size="22" font-family="Kanit-Medium, Kanit" font-weight="500"><tspan x="-93.379" y="0">คุณเองก็มีความเสี่ยง</tspan><tspan x="-62.876" y="41">&quot;โรคเบาหวาน&quot;</tspan></text>
      </g>
    </g>
  </g>
</svg>
