<svg xmlns="http://www.w3.org/2000/svg" xmlns:xlink="http://www.w3.org/1999/xlink" width="1080" height="930" viewBox="0 0 1080 930">
  <defs>
    <clipPath id="clip-path">
      <rect id="Rectangle_171" data-name="Rectangle 171" width="1080" height="930" transform="translate(840)" fill="none"/>
    </clipPath>
    <radialGradient id="radial-gradient" cx="0.5" cy="0.503" r="0.508" gradientTransform="matrix(0.878, 0.17, -0.127, 0.828, 0.364, 0.295)" gradientUnits="objectBoundingBox">
      <stop offset="0" stop-color="#97d5ee"/>
      <stop offset="0.032" stop-color="#9ad5ed"/>
      <stop offset="0.45" stop-color="#c2daed"/>
      <stop offset="0.781" stop-color="#dadced"/>
      <stop offset="0.983" stop-color="#e4deed"/>
    </radialGradient>
    <clipPath id="clip-path-2">
      <path id="Path_5619" data-name="Path 5619" d="M1525.065,47.073l144.306,14.673-18.215,149.927-80.018,200.374,11.571,40.248,25.017-2.784,54.1-49.583L1704,394.222l26.743,32.481,41.508-9.929L1871.6,293.489l16.21,31.648,38.13,10.952,17.564-16.138L1986.773,159.7l-14.608-76.639L1977.329-70.8l86.189-305.406-249.139-30.017-163.5,301.853L1566.72-9.946Z" transform="translate(-1525.065 406.224)" fill="none"/>
    </clipPath>
  </defs>
  <g id="Mask_Group_1" data-name="Mask Group 1" transform="translate(-840)" clip-path="url(#clip-path)">
    <g id="Group_2527" data-name="Group 2527" transform="matrix(0.996, -0.087, 0.087, 0.996, 766.992, -194.459)">
      <path id="Path_5600" data-name="Path 5600" d="M1926.014,136.138c-8.341,103.209-.689,122.313-11.168,158.455-10.718,36.968-37.029,8.635-40.043-19.268-4.783-44.3,2.891-59.31-9.024-95.906-8.7-26.72-23.832,3.562-23.832,3.562l-50.827,107.085s-55.953,67.073-85.438,86.79c-28.582,19.114-52.273,26.018-58.9,22.294-14.934-8.4-4.264-37.465-4.264-37.465s-28.26,14.1-36.909,30.292c-17.588,32.918-37.359,1.146-35.822-17.875,2.794-34.561,16.328-64.77,44.245-139.112s36.091-156.4,36.091-156.4-105.751,110.922-124.2,115.184-23.384-5.294-17.058-26.286,1.055-39.57,14.855-78.122,46.4-104.931,55.324-125.438c14.853-34.143,72.071-101.316,92.113-126.189,33.341-41.374,68.54-65.087,89.2-118.409s35.6-135.766,35.6-135.766l163.519,24.8Z" transform="translate(-825.405 416.438)"/>
      <path id="Path_5601" data-name="Path 5601" d="M782.124,89.841s-54.043-7.722-55.3,5.294S723.665,502.5,723.665,502.5L699.088,783.756a13.062,13.062,0,0,0,12.24,13.3c96.75,6.077,723.181,45.436,735.938,46.6,13.825,1.257,15.082-3.77,16.339-24.718s36.972-419.2,36.972-419.2Z" transform="translate(-678.044 324.424)"/>
      <g id="Group_2523" data-name="Group 2523" transform="translate(0 381.816)">
        <path id="Path_5602" data-name="Path 5602" d="M805.518,50.731,1578.743,166.3,1415.9,855.872,674.594,745.787,797.559,56.448A7.03,7.03,0,0,1,805.518,50.731Z" transform="translate(-673.572 -50.652)" fill-rule="evenodd" fill="url(#radial-gradient)"/>
        <path id="Path_5603" data-name="Path 5603" d="M1415.674,858.468a1.042,1.042,0,0,1-.151-.01L674.215,748.372a1.021,1.021,0,0,1-.855-1.19L796.069,60.121a1.022,1.022,0,1,1,2.012.359L675.557,746.506,1414.894,856.3l162.371-687.579L905.807,68.361a1.022,1.022,0,1,1,.3-2.021l672.556,100.521a1.022,1.022,0,0,1,.844,1.245L1416.667,857.681A1.022,1.022,0,0,1,1415.674,858.468Z" transform="translate(-673.344 -52.227)" fill="#0d0d0c"/>
        <path id="Path_5604" data-name="Path 5604" d="M755.728,66.708l784.536,84.877L1433.955,849.551,688.365,769.6Z" transform="translate(-676.086 -53.584)" fill="#fff" fill-rule="evenodd"/>
        <path id="Path_5605" data-name="Path 5605" d="M1640.34,430.418c40.336-68.3,32.225-205.959,32.745-233.37s-1.882-33.092-7.718-33.723,52.3,5.678,52.3,5.678l19.888,40.1-38.216,121.59Z" transform="translate(-849.885 -71.215)"/>
        <path id="Path_5606" data-name="Path 5606" d="M1433.728,907.943c-.037,0-.074,0-.11-.006l-745.59-79.955a1.023,1.023,0,0,1-.908-1.112l41.718-444.993a1.022,1.022,0,1,1,2.035.19l-41.624,443.99L1432.872,905.8l60.364-374.821a1.022,1.022,0,1,1,2.018.325l-60.519,375.778A1.023,1.023,0,0,1,1433.728,907.943Z" transform="translate(-675.858 -110.954)" fill="#0d0d0c"/>
        <path id="Path_5607" data-name="Path 5607" d="M1516.093,420.9a1.268,1.268,0,0,1-.174-.012,1.226,1.226,0,0,1-1.041-1.386l37.963-267.111L770.795,67.786l-3.469,34.883a1.226,1.226,0,0,1-2.44-.243l3.591-36.114a1.225,1.225,0,0,1,1.352-1.1l784.536,84.877a1.225,1.225,0,0,1,1.082,1.391l-38.141,268.367A1.226,1.226,0,0,1,1516.093,420.9Z" transform="translate(-690.055 -53.31)" fill="#0d0d0c"/>
        <path id="Path_5608" data-name="Path 5608" d="M741.782,351.481c-.04,0-.081,0-.123-.007a1.226,1.226,0,0,1-1.1-1.341l2.214-22.268a1.226,1.226,0,0,1,2.44.243L743,350.376A1.226,1.226,0,0,1,741.782,351.481Z" transform="translate(-685.615 -101.061)" fill="#0d0d0c"/>
      </g>
      <g id="Group_2526" data-name="Group 2526" transform="translate(696.225 8.349)">
        <g id="Group_2525" data-name="Group 2525" clip-path="url(#clip-path-2)">
          <g id="Group_2524" data-name="Group 2524" transform="translate(-16.223 -255.174)">
            <path id="Path_5609" data-name="Path 5609" d="M1869.842-671.684s-35.339,234.762-103.8,384.21c-13.4,29.247-45.407,82.887-45.407,82.887s-80.281,68.2-102.882,107.863-58.686,115.942-67.133,131.065-14.742,46.554-18.334,62.825-26.75,53.968-25.784,65.679,25.354,18.453,54.3-3.679,42.614-44.927,49.724-75.1,55.134-81.1,58.025-82.437c0,0,8.528,22.014,7,44.7s-6.557,86.727-8.877,98.242-26.818,82.678-39.613,105.264-28.251,49.766-35.7,70.856,1.081,37.026,10.829,39.655,22.89-9.752,30.634-19.056a191.787,191.787,0,0,1,16.248-17.026s5.192,13.268,25.166-1.449,63.4-49.268,70.074-56.088,14.563-14.791,14.563-14.791-29.2,41.07-35.828,60.381-1.476,32.245,9.568,31.353,29.127-20.464,40.8-33.919,21.714-22.34,32.434-39.292,53.8-62.719,57.608-69,8.323-18.261,14.223-46.158,13.506-54.632,13.506-54.632,11.348,35.207,11.99,38.963-5.083,39.287-7.649,56.682-2.933,40.4,8.262,49.959,22.436,9.434,26.387-5.639,14.293-73.855,21.677-94.488,6.936-38.818,3.078-63.377-3.9-89.617-3.6-99.1,3.6-151.685,12.567-186.451,11.356-55.744,26.152-76.527,20.181-33.088,22.227-59.205,23.481-92.438,44.965-154.262,83.675-224.36,83.675-224.36Z" transform="translate(-1505.447 718.161)" fill="#f9cfcc"/>
            <path id="Path_5610" data-name="Path 5610" d="M1764.123,527.156a10.922,10.922,0,0,1-8.963-4.325c-4.456-5.737-4.643-16.363-.5-28.425,4.686-13.649,20.235-37.626,29.293-50.995-2.048,2.082-4.254,4.327-6.33,6.45-6.755,6.907-49.961,41.285-70.2,56.2-11.325,8.345-18.175,7.86-21.927,5.984a1.022,1.022,0,0,1,.914-1.828c3.241,1.622,9.307,1.93,19.8-5.8,19.7-14.518,63.4-49.278,69.95-55.98,6.6-6.746,14.489-14.716,14.568-14.8a1.022,1.022,0,0,1,1.559,1.311c-.291.41-29.188,41.171-35.695,60.121-3.917,11.409-3.849,21.319.182,26.509a9.133,9.133,0,0,0,8.337,3.494c11.817-.954,33.112-25.5,40.11-33.57,3.237-3.732,6.358-7.122,9.376-10.4,7.847-8.527,15.26-16.581,22.967-28.768,6.581-10.407,24.872-31.141,39.569-47.8,8.9-10.092,16.591-18.808,18.028-21.179,4.614-7.613,9.093-22.178,14.1-45.839,5.84-27.611,13.446-54.433,13.523-54.7a1.021,1.021,0,1,1,1.965.558c-.076.267-7.663,27.024-13.488,54.565-5.053,23.892-9.613,38.66-14.349,46.475-1.532,2.527-8.906,10.887-18.243,21.471-14.648,16.606-32.88,37.273-39.374,47.542-7.806,12.343-15.28,20.463-23.191,29.06-3.008,3.268-6.119,6.647-9.335,10.356-12.381,14.272-30.152,33.353-41.49,34.268Q1764.69,527.157,1764.123,527.156Z" transform="translate(-1538.028 535.739)" fill="#0d0d0c"/>
            <path id="Path_5611" data-name="Path 5611" d="M1604.793,361.5a11.825,11.825,0,0,1-3.1-.4c-4.292-1.157-8.264-4.695-10.9-9.7-4.437-8.442-4.667-19.842-.629-31.277,7.383-20.912,22.857-48.225,35.29-70.173l.48-.847c12.92-22.806,37.349-94.283,39.5-104.963,2.23-11.067,7.22-73.785,8.859-98.108,1.287-19.115-4.73-37.988-6.473-42.982-7.451,6.541-49.981,53.2-56.539,81.026-7.529,31.949-22.512,54.581-50.1,75.675-20.744,15.863-38.808,16.739-47.975,12.669-4.722-2.1-7.623-5.639-7.959-9.718-.56-6.792,6.2-21,13.367-36.049,5.344-11.225,10.869-22.833,12.437-29.934.338-1.53.7-3.195,1.085-4.967,3.835-17.642,9.629-44.3,17.356-58.136,3.051-5.462,9.7-18.885,18.112-35.879,14.6-29.5,34.607-69.891,49.026-95.193,22.006-38.617,99.3-104.887,102.979-108.026,1.853-3.113,32.387-54.523,45.27-82.645,67.622-147.61,103.369-381.59,103.722-383.936a1.022,1.022,0,0,1,.842-.856l271.071-45.455a1.019,1.019,0,0,1,.958.36,1.02,1.02,0,0,1,.165,1.012c-.622,1.626-62.43,163.229-83.665,224.332-28.139,80.971-43.249,132.786-44.912,154.006-2.141,27.32-8.36,39.98-22.413,59.718-11.59,16.278-15.562,32.967-21.06,56.064-1.5,6.319-3.06,12.853-4.935,20.124-7.275,28.223-10.917,126.674-12.441,182.849-.044,1.625-.075,2.773-.094,3.378-.271,8.7-.3,74.161,3.589,98.914,3.717,23.66,4.491,42.6-3.125,63.88-4.819,13.465-10.835,42.926-15.67,66.6-2.475,12.122-4.614,22.59-5.98,27.8-1.755,6.7-5.088,10.994-9.636,12.42-5.22,1.638-11.756-.587-18.4-6.264-12.454-10.635-10.74-36.446-8.609-50.885.53-3.591,1.194-7.954,1.91-12.651,2.627-17.258,6.226-40.891,5.743-43.709-.168-.985-1.284-5.076-5.644-18.973a1.022,1.022,0,0,1,1.949-.611c3.527,11.244,5.448,17.717,5.708,19.24.5,2.912-2.181,21.007-5.737,44.361-.716,4.694-1.379,9.054-1.908,12.642-2.069,14.021-3.792,39.036,7.913,49.032,6.093,5.2,11.941,7.287,16.465,5.868,3.843-1.2,6.7-5,8.272-10.989,1.352-5.159,3.485-15.6,5.954-27.695,4.847-23.736,10.881-53.277,15.749-66.879,7.47-20.871,6.7-39.532,3.03-62.874-3.91-24.886-3.885-90.568-3.613-99.3.019-.6.05-1.748.094-3.37,1.527-56.261,5.179-154.887,12.506-183.3,1.87-7.253,3.423-13.777,4.924-20.087,5.552-23.323,9.563-40.174,21.385-56.777,14.463-20.315,19.968-32.236,22.04-58.692,1.7-21.7,16.426-72.239,45.02-154.518,20.079-57.778,76.4-205.331,83.048-222.722l-268.58,45.037c-1.085,7.028-9.964,63.488-26.129,135.4-15.88,70.641-42.241,171.069-77.644,248.35-13.269,28.963-45.139,82.449-45.458,82.986a1.03,1.03,0,0,1-.217.255c-.8.681-80.4,68.539-102.656,107.59-14.389,25.251-34.375,65.615-48.97,95.089-8.427,17.019-15.083,30.462-18.159,35.969-7.578,13.568-13.565,41.114-17.142,57.574-.386,1.774-.748,3.441-1.086,4.972-1.618,7.329-6.946,18.522-12.587,30.372-6.731,14.139-13.69,28.76-13.175,35,.273,3.311,2.734,6.235,6.752,8.018,8.655,3.844,25.871,2.9,45.9-12.425,27.179-20.783,41.938-43.07,49.35-74.52,7.11-30.168,55.211-81.57,58.59-83.131a1.022,1.022,0,0,1,1.382.558c.087.222,8.593,22.487,7.068,45.134-1.512,22.436-6.535,86.667-8.9,98.375-2.165,10.742-26.733,82.63-39.726,105.567l-.479.847c-12.394,21.876-27.819,49.1-35.142,69.845-3.849,10.9-3.662,21.707.512,29.646,2.369,4.508,5.876,7.672,9.62,8.683,10.61,2.866,25.326-13.608,29.584-18.723a194.435,194.435,0,0,1,16.346-17.128,1.022,1.022,0,1,1,1.373,1.513,192.5,192.5,0,0,0-16.149,16.922C1628.174,347.967,1615.648,361.5,1604.793,361.5Z" transform="translate(-1505.219 718.389)" fill="#0d0d0c"/>
            <path id="Path_5612" data-name="Path 5612" d="M1698,134.542a66.4,66.4,0,0,1-4.726-15.39,75.693,75.693,0,0,1-1.038-16.148l.1-2.024c.047-.674.123-1.345.185-2.018.13-1.345.235-2.692.464-4.023.208-1.335.4-2.671.684-3.991l.4-1.983c.135-.66.325-1.31.485-1.964a59.956,59.956,0,0,1,5.774-15.02,109.177,109.177,0,0,0-3.9,15.425c-.253,1.3-.432,2.6-.637,3.907-.224,1.3-.352,2.613-.5,3.922-.172,1.306-.279,2.619-.38,3.932-.049.656-.115,1.311-.152,1.968l-.069,1.972-.1,1.972c-.025.657,0,1.315-.01,1.972.014,1.315-.03,2.634.055,3.947.062,1.314.083,2.633.179,3.946.135,1.31.244,2.623.348,3.939A131.975,131.975,0,0,0,1698,134.542Z" transform="translate(-1539.351 574.094)" fill="#0d0d0c"/>
            <path id="Path_5613" data-name="Path 5613" d="M1688.351,498.1a96.265,96.265,0,0,1,9.562-11.125c3.391-3.526,6.81-7.017,10.145-10.578a190.124,190.124,0,0,0,18.463-22.59,184.464,184.464,0,0,0,14.46-25.273c4.15-8.824,8.071-17.763,11.864-26.758,3.834-8.978,7.51-18.027,11.138-27.1,3.666-9.055,7.2-18.166,10.813-27.245,3.6-9.087,7.129-18.2,10.806-27.27,1.859-4.532,3.876-8.989,5.847-13.461s3.964-8.939,5.978-13.392q-2.657,6.838-5.379,13.645c-1.8,4.544-3.648,9.069-5.327,13.649-3.442,9.14-6.773,18.333-10.163,27.5-6.784,18.341-13.842,36.59-21.456,54.624-3.846,9-7.787,17.965-12.031,26.8a171.741,171.741,0,0,1-15.013,25.357,189.382,189.382,0,0,1-19.14,22.341c-3.479,3.448-7.03,6.812-10.545,10.2A110.9,110.9,0,0,0,1688.351,498.1Z" transform="translate(-1538.653 533.687)" fill="#0d0d0c"/>
            <path id="Path_5614" data-name="Path 5614" d="M1819.732,429.248c5.2-5.451,10.588-10.733,15.371-16.508a75.469,75.469,0,0,0,11.953-18.8c1.512-3.413,2.611-6.91,3.869-10.525,1.264-3.567,2.605-7.093,3.968-10.611,2.748-7.027,5.645-13.987,8.593-20.926,5.965-13.848,12.239-27.567,19.1-41.006,3.42-6.723,7.015-13.363,10.886-19.845,1.964-3.224,3.972-6.424,6.166-9.5a45.71,45.71,0,0,1,7.387-8.551,32.262,32.262,0,0,0-3.666,4.273c-.562.751-1.121,1.5-1.633,2.291s-1.062,1.547-1.55,2.35c-2.026,3.16-3.867,6.439-5.661,9.738-3.6,6.592-6.954,13.323-10.215,20.1-3.234,6.787-6.425,13.6-9.49,20.463q-4.644,10.28-9.07,20.658-4.475,10.355-8.693,20.815c-1.41,3.482-2.8,6.974-4.1,10.485l-1.927,5.312c-.317.9-.684,1.78-1.063,2.656s-.729,1.762-1.158,2.616a65.984,65.984,0,0,1-5.668,9.92,86.742,86.742,0,0,1-7.122,8.876C1830.865,419.091,1825.315,424.192,1819.732,429.248Z" transform="translate(-1562.638 537.399)" fill="#0d0d0c"/>
            <path id="Path_5615" data-name="Path 5615" d="M1979.023,265.05a89.5,89.5,0,0,1,3.894-12.886c1.6-4.194,3.436-8.294,5.4-12.325,1.022-2,2.028-4,3.1-5.964s2.171-3.92,3.34-5.832a115.38,115.38,0,0,1,7.494-11.165c-1.871,4.084-3.834,8.089-5.814,12.083l-5.926,11.964c-.992,1.989-1.975,3.983-2.933,5.988-1.014,1.98-1.905,4.014-2.908,6Z" transform="translate(-1591.72 547.641)" fill="#0d0d0c"/>
            <path id="Path_5616" data-name="Path 5616" d="M1811.648,221.084a82.258,82.258,0,0,1,1.792,11.76,45.159,45.159,0,0,1-.557,11.977,41.175,41.175,0,0,1-4.029,11.307,58.725,58.725,0,0,1-6.611,9.9c1.945-3.454,3.865-6.893,5.463-10.458a49.8,49.8,0,0,0,3.573-11.057,56,56,0,0,0,.893-11.617C1812.119,228.979,1811.837,225.043,1811.648,221.084Z" transform="translate(-1559.446 546.873)" fill="#0d0d0c"/>
            <path id="Path_5617" data-name="Path 5617" d="M1908.156,264.133a90.414,90.414,0,0,0,7.479-10.792,39.124,39.124,0,0,0,4.483-11.956c.191-1.047.333-2.107.484-3.163.066-1.07.176-2.135.208-3.21.089-2.151.009-4.314-.109-6.49-.276-4.35-.861-8.72-1.313-13.14a71.332,71.332,0,0,1,3.217,12.943,40.8,40.8,0,0,1-.08,13.519,34.982,34.982,0,0,1-2,6.54,28.324,28.324,0,0,1-1.494,3.065l-.828,1.486c-.29.486-.632.938-.944,1.408A45.8,45.8,0,0,1,1908.156,264.133Z" transform="translate(-1578.782 547.914)" fill="#0d0d0c"/>
            <path id="Path_5618" data-name="Path 5618" d="M1982.834,203.015c.335-1.092.765-2.108,1.169-3.131l1.157-3.061c.343-1.028.77-2.017,1.074-3.046l.509-1.521.45-1.534a53.777,53.777,0,0,0,1.4-6.221,34.446,34.446,0,0,0,.463-6.492,14.548,14.548,0,0,1,1.461,6.627,24.176,24.176,0,0,1-.967,6.76l-.514,1.628c-.2.532-.415,1.056-.634,1.579a27.958,27.958,0,0,1-1.5,3.038c-.55.984-1.223,1.9-1.848,2.825A33.439,33.439,0,0,1,1982.834,203.015Z" transform="translate(-1592.415 554.737)" fill="#0d0d0c"/>
          </g>
        </g>
      </g>
      <text id="เพราะพฤติกรรมของคุณ_คล้ายกับเพื่อนสนิท" data-name="เพราะพฤติกรรมของคุณ
คล้ายกับเพื่อนสนิท" transform="translate(407.35 852.633) rotate(5)" font-size="47" font-family="Kanit-Light, Kanit" font-weight="300" opacity="0.9"><tspan x="-229.195" y="0">เพราะพฤติกรรมของคุณ</tspan><tspan x="-174.299" y="73">คล้ายกับเพื่อนสนิท</tspan></text>
      <text id="คุณเองก็มีความเสี่ยง_โรคเบาหวาน_" data-name="คุณเองก็มีความเสี่ยง
&quot;โรคเบาหวาน&quot;" transform="translate(429.36 663.979) rotate(5)" fill="#ed759d" font-size="55" font-family="Kanit-Medium, Kanit" font-weight="500"><tspan x="-233.447" y="0">คุณเองก็มีความเสี่ยง</tspan><tspan x="-157.19" y="86">&quot;โรคเบาหวาน&quot;</tspan></text>
    </g>
  </g>
</svg>
