<svg xmlns="http://www.w3.org/2000/svg" xmlns:xlink="http://www.w3.org/1999/xlink" width="175" height="175" viewBox="0 0 175 175">
  <defs>
    <clipPath id="clip-path">
      <rect id="Rectangle_179" data-name="Rectangle 179" width="175" height="175" transform="translate(1393.396 650)" fill="none"/>
    </clipPath>
    <clipPath id="clip-path-2">
      <circle id="Ellipse_71" data-name="Ellipse 71" cx="72.083" cy="72.083" r="72.083" transform="translate(0 101.941) rotate(-45)" fill="none"/>
    </clipPath>
  </defs>
  <g id="Mask_Group_9" data-name="Mask Group 9" transform="translate(-1393.396 -650)" clip-path="url(#clip-path)">
    <g id="Slow_recovery" data-name="Slow recovery" transform="translate(0 35)">
      <text id="แผลหายช้า" transform="translate(1480.096 837.613)" fill="#fff" font-size="35" font-family="Kanit-Light, Kanit" font-weight="300"><tspan x="-76.755" y="0">แผลหายช้า</tspan></text>
      <g id="wound">
        <g id="Group_1000" data-name="Group 1000" transform="translate(1360.328 582.076)">
          <g id="Group_999" data-name="Group 999">
            <circle id="Ellipse_69" data-name="Ellipse 69" cx="85.522" cy="85.522" r="85.522" transform="translate(0 120.946) rotate(-45)" fill="#fff"/>
            <circle id="Ellipse_70" data-name="Ellipse 70" cx="72.151" cy="72.151" r="72.151" transform="translate(48.795 48.795)" fill="#f4ada5"/>
            <g id="Group_998" data-name="Group 998" transform="translate(19.038 18.974)">
              <g id="Group_997" data-name="Group 997" clip-path="url(#clip-path-2)">
                <g id="Group_992" data-name="Group 992" transform="translate(97.087 19.264)">
                  <path id="Path_1506" data-name="Path 1506" d="M4122.4,603.758s2.355,21.668,1.884,25.28-.157,14.288,2.512,23.552,4.239,17.115,1.1,24.5-5.731,13.582-3.848,35.015,2.355,48.047-1.648,58.174-4.946,9.893-4.946,13.661.2,11.659-1.021,14.013,1.139,8.244.55,14.838-.785,20.138,7.851,20.295,32.895.314,27.243-9.343c-4.241-7.243-8.48-12.764-11.03-19.841a18.468,18.468,0,0,1-.3-11.525,23,23,0,0,0,.18-12.127c-2.355-9.578,12.089-45.064,19.391-69.559s4.24-50.4,2.827-63.12c-1.257-11.318,4.945-31.028,6.327-40.709.171-1.2,1.475-5.9,1.475-6.756C4170.946,592.329,4133.468,597.164,4122.4,603.758Z" transform="translate(-4116.077 -596.102)" fill="#f9cfcc"/>
                  <path id="Path_1507" data-name="Path 1507" d="M4167.951,614.788c-.232.256-.465.508-.695.756-5.271,5.672-10.1,10.2-9.8,18.355.175,4.735.888,10.587-2.478,14.481-3.244,3.755-9.423,5.111-14.191,4.367-6.091-.95-8.674-5.446-9.366-11.211-.953-7.962-4.83-14.594-4.5-22.8.224-5.549-.064-11.248.066-16.872a24.154,24.154,0,0,0-4.595,2s2.356,21.668,1.885,25.28-.157,14.288,2.512,23.552,4.239,17.115,1.1,24.5-5.731,13.582-3.848,35.015,2.355,48.047-1.649,58.174-4.945,9.893-4.945,13.661.2,11.659-1.021,14.013,1.139,8.244.55,14.838-.785,20.138,7.851,20.295,32.895.314,27.243-9.343c-4.241-7.243-8.48-12.764-11.03-19.841a18.468,18.468,0,0,1-.3-11.525,23,23,0,0,0,.18-12.127c-2.355-9.578,12.089-45.064,19.391-69.559s4.24-50.4,2.827-63.12C4162.168,638.894,4165.681,625.068,4167.951,614.788Zm-7.082,75.279c-.686,7.859-2.2,15.823-3.651,23.552-1.659,8.841-6.238,16.338-9.9,24.495a134.292,134.292,0,0,0-8.124,22.61c-1.06,4.243-3.207,22.626-9.317,11.774-4.036-7.165-1.863-14.852-1.872-22.584-.009-7.386.015-14.914.366-22.164.36-7.429.816-15.783-.263-23.081-.446-3.023-.1-15.183,1.424-20.326,2.33-7.856,3.258-11.523,3.655-19.715.576-11.926,6.628,1.331,13.765-.827,2.852-.862,5.554-5.149,8.385-4.836,3.5.385,4.284,5.478,4.7,8.02A95.7,95.7,0,0,1,4160.869,690.067Z" transform="translate(-4116.077 -596.208)" fill="#eab8b7"/>
                  <path id="Path_1508" data-name="Path 1508" d="M4164.137,655.858c-.3-3.152-.615-5.946-.875-8.292-1.257-11.318,4.946-31.028,6.327-40.709.17-1.2,1.475-5.9,1.475-6.756,0-7.772-37.478-2.937-48.547,3.657,0,0,2.355,21.668,1.884,25.28s-.157,14.288,2.512,23.552,4.24,17.115,1.1,24.5" transform="translate(-4116.196 -596.102)" fill="none" stroke="#000" stroke-linecap="round" stroke-linejoin="round" stroke-width="2"/>
                  <path id="Path_1509" data-name="Path 1509" d="M4125.528,684.51c-1.854,5.789-2.852,13.319-1.481,28.912,1.885,21.432,2.355,48.047-1.648,58.174s-4.946,9.893-4.946,13.661.2,11.659-1.021,14.013,1.139,8.244.55,14.838-.785,20.138,7.851,20.295,32.895.314,27.243-9.343c-4.241-7.243-8.48-12.764-11.03-19.841a18.468,18.468,0,0,1-.3-11.525,23,23,0,0,0,.18-12.127c-2.355-9.578,12.089-45.064,19.391-69.559,4.563-15.309,5.079-31.17,4.479-44.018" transform="translate(-4116.077 -597.424)" fill="none" stroke="#000" stroke-linecap="round" stroke-linejoin="round" stroke-width="2"/>
                  <path id="Path_1510" data-name="Path 1510" d="M4151.158,623.73c-5.618,0-8.505-.989-13.935.321-1.787.432-4.229.774-5.476,2.284a3.542,3.542,0,0,0-.878,2.24,17.548,17.548,0,0,1,6.443-2.116c5.52-.853,12.075-.177,17.693-.177a2.825,2.825,0,0,1,1.924.5A5.966,5.966,0,0,0,4151.158,623.73Z" transform="translate(-4116.349 -596.603)" fill="#eab8b7"/>
                </g>
                <g id="Group_993" data-name="Group 993" transform="translate(51.926 19.264)">
                  <path id="Path_1511" data-name="Path 1511" d="M4118.617,603.758s-2.355,21.668-1.885,25.28.157,14.288-2.512,23.552-4.24,17.115-1.1,24.5,5.731,13.582,3.847,35.015-2.354,48.047,1.649,58.174,4.945,9.893,4.945,13.661-.195,11.659,1.021,14.013-1.138,8.244-.55,14.838.786,20.138-7.851,20.295-32.895.314-27.241-9.343c4.24-7.243,8.479-12.764,11.03-19.841a18.479,18.479,0,0,0,.3-11.525,22.974,22.974,0,0,1-.18-12.127c2.355-9.578-12.091-45.064-19.392-69.559s-4.24-50.4-2.826-63.12c1.257-11.318-4.946-31.028-6.328-40.709-.171-1.2-1.474-5.9-1.474-6.756C4070.07,592.329,4107.548,597.164,4118.617,603.758Z" transform="translate(-4070.07 -596.102)" fill="#f9cfcc"/>
                  <path id="Path_1512" data-name="Path 1512" d="M4077.928,647.673c-1.414,12.718-4.475,38.626,2.826,63.12s21.746,59.98,19.392,69.559a22.974,22.974,0,0,0,.18,12.127,18.475,18.475,0,0,1-.3,11.525c-2.55,7.077-6.789,12.6-11.029,19.841-5.653,9.657,18.606,9.5,27.241,9.343s8.44-13.7,7.851-20.295,1.767-12.483.55-14.838-1.02-10.245-1.02-14.013-.942-3.533-4.946-13.661-3.533-36.742-1.649-58.174-.706-27.635-3.847-35.015-1.57-15.231,1.1-24.5,2.983-19.94,2.512-23.552,1.885-25.28,1.885-25.28a24.113,24.113,0,0,0-4.595-2c.131,5.624-.157,11.323.067,16.872.331,8.208-3.546,14.84-4.5,22.8-.69,5.765-3.274,10.261-9.364,11.211-4.768.744-10.948-.613-14.192-4.367-3.365-3.894-2.652-9.745-2.478-14.481.3-8.159-4.525-12.683-9.8-18.355q-.344-.371-.694-.756C4075.39,625.068,4078.9,638.894,4077.928,647.673Zm3.112,19.314c.416-2.541,1.2-7.635,4.7-8.02,2.83-.312,5.533,3.975,8.385,4.836,7.135,2.158,13.188-11.1,13.765.827.4,8.191,1.323,11.859,3.654,19.715,1.525,5.143,1.871,17.3,1.423,20.326-1.078,7.3-.624,15.652-.263,23.081.353,7.25.375,14.778.366,22.164-.008,7.732,2.164,15.419-1.871,22.584-6.11,10.852-8.257-7.531-9.318-11.774a134.2,134.2,0,0,0-8.123-22.61c-3.667-8.157-8.247-15.654-9.906-24.495-1.45-7.729-2.965-15.693-3.651-23.552A95.757,95.757,0,0,1,4081.04,666.987Z" transform="translate(-4070.126 -596.208)" fill="#eab8b7"/>
                  <path id="Path_1513" data-name="Path 1513" d="M4076.176,667.672c.338-8.137,1.143-15.13,1.7-20.105,1.257-11.318-4.946-31.028-6.328-40.709-.171-1.2-1.474-5.9-1.474-6.756,0-7.772,37.478-2.937,48.547,3.657,0,0-2.355,21.668-1.885,25.28s.157,14.288-2.512,23.552" transform="translate(-4070.07 -596.102)" fill="none" stroke="#000" stroke-linecap="round" stroke-linejoin="round" stroke-width="2"/>
                  <path id="Path_1514" data-name="Path 1514" d="M4111.585,667.1a29.612,29.612,0,0,0-.06,3.639,22.021,22.021,0,0,0,1.708,7.652c3.141,7.38,5.731,13.582,3.847,35.015s-2.354,48.047,1.649,58.174,4.945,9.893,4.945,13.661-.195,11.659,1.021,14.013-1.138,8.244-.55,14.838.786,20.138-7.851,20.295-32.895.314-27.241-9.343c4.24-7.243,8.479-12.764,11.03-19.841a18.479,18.479,0,0,0,.3-11.525,22.974,22.974,0,0,1-.18-12.127c2.355-9.578-12.091-45.064-19.392-69.559a122.612,122.612,0,0,1-4.66-32.839" transform="translate(-4070.182 -597.408)" fill="none" stroke="#000" stroke-linecap="round" stroke-linejoin="round" stroke-width="2"/>
                  <path id="Path_1515" data-name="Path 1515" d="M4113.532,659.313q-.252,1.062-.464,2.1" transform="translate(-4070.861 -597.264)" fill="none" stroke="#000" stroke-linecap="round" stroke-linejoin="round" stroke-width="2"/>
                  <path id="Path_1516" data-name="Path 1516" d="M4090.4,623.73c5.617,0,8.5-.989,13.935.321,1.787.432,4.229.774,5.476,2.284a3.536,3.536,0,0,1,.878,2.24,17.538,17.538,0,0,0-6.442-2.116c-5.521-.853-12.076-.177-17.693-.177a2.822,2.822,0,0,0-1.924.5A5.965,5.965,0,0,1,4090.4,623.73Z" transform="translate(-4070.338 -596.603)" fill="#eab8b7"/>
                </g>
                <g id="Group_994" data-name="Group 994" transform="translate(66.026 105.591)">
                  <path id="Path_1517" data-name="Path 1517" d="M4087.352,684.233c4.88-.378,6.332,5.3,8.617,8.618,2.267,3.292,3.666,6.739,6.464,9.619,1.192,1.228,9.029,8.12,3.876,8.765-2.192.275-4.115-1.7-5.885-2.532-3.49-1.65-4.664-2.275-5.407-6.281-.7-3.789-2.185-7.212-3.442-10.729C4090.952,689.951,4085.193,686.12,4087.352,684.233Z" transform="translate(-4084.479 -684.05)" fill="#eab8b7"/>
                  <path id="Path_1518" data-name="Path 1518" d="M4136.121,700.024a25.472,25.472,0,0,0,7.24,2.63c2.344.562,4.553,1.06,5.59,3.116a27.3,27.3,0,0,1,1.737,3.633c-.451,2.071-4.618.559-5.576-.373-1.074-1.044-1.12-2.694-2.236-3.7-1.219-1.094-2.573-.709-4.031-1.054C4137.217,703.893,4132.308,701.34,4136.121,700.024Z" transform="translate(-4085.359 -684.341)" fill="#eab8b7"/>
                  <path id="Path_1519" data-name="Path 1519" d="M4084.434,684.23c3.06-.154,6.144,2.565,7.421,5.181,1.329,2.722,1.084,5.51,3.064,8.085,2.491,3.238,1.294,4.929,1.379,8.565.132,5.651,5.787.823,6.52,4.787.27,1.457-.45,3.319,1.14,4.266,1.72,1.024,3.146-.853,2.893-2.542-.195-1.289-1.406-2.4-1.734-3.639-.413-1.562.5-3-.719-4.212-2.618-2.619-6.208,4.255-5.259-2.49.282-2,1.249-4.107-.331-5.787-1.019-1.084-2.612-1.4-3.6-2.682-1.758-2.281-1.2-5.177-3.35-7.378A7.923,7.923,0,0,0,4084.434,684.23Z" transform="translate(-4084.434 -684.047)" fill="#e72527"/>
                  <path id="Path_1520" data-name="Path 1520" d="M4135.562,701.2a9.7,9.7,0,0,1,2.924,3.068c.352.7.393,2.095,1.045,2.533,1.953,1.306,2.923-1.668,4.647,1.484.842,1.537,1.244,3.642,2.733,4.749,1.905,1.416,2.536-.121,2.275-2.039a4.113,4.113,0,0,1,.7,0c.083.438.619,2.32,1.219,2.417,1.049.17.934-2.7.738-3.416a4.217,4.217,0,0,0-2.307-2.49c-1.482-.741-1.35-.328-2.245-1.714-1.335-2.066-3.385-2.719-5.8-3.3-1.63-.393-1.339.478-2.877.631C4138.077,703.172,4136.149,701.474,4135.562,701.2Z" transform="translate(-4085.375 -684.362)" fill="#e72527"/>
                  <path id="Path_1521" data-name="Path 1521" d="M4088.914,692.427c-.008,1.127-1.257,5.365,1.106,4.552C4092.45,696.143,4088.972,693.445,4088.914,692.427Z" transform="translate(-4084.51 -684.201)" fill="#e72527"/>
                  <path id="Path_1522" data-name="Path 1522" d="M4098.087,691.059c0,1.039-.283,5.013,1.92,4.408,1.667-.457-1.528-3.019-.991-4.38a2.585,2.585,0,0,0-1.091,0C4097.884,691.371,4098.087,690.764,4098.087,691.059Z" transform="translate(-4084.682 -684.174)" fill="#e72527"/>
                  <path id="Path_1523" data-name="Path 1523" d="M4102.965,699.447c-.713,1.529,2.159,2.33,3.227,2.46C4106.452,700.445,4104.383,698.718,4102.965,699.447Z" transform="translate(-4084.773 -684.327)" fill="#e72527"/>
                  <path id="Path_1524" data-name="Path 1524" d="M4092.406,701.986c-1.813,1.08-1.662,2.053-.924,3.8C4094.205,706.345,4092.313,703.185,4092.406,701.986Z" transform="translate(-4084.554 -684.377)" fill="#e72527"/>
                  <path id="Path_1525" data-name="Path 1525" d="M4095.16,709.4c-1.042,1.895,1.665,2.12,2.484,2.911.654.63,1.13,3.686,2.458,3.37,3.177-.758-3.829-6.031-4.721-6.251C4095.332,709.615,4095.249,709.236,4095.16,709.4Z" transform="translate(-4084.627 -684.512)" fill="#e72527"/>
                  <path id="Path_1526" data-name="Path 1526" d="M4108.972,715.641c-.676.388-2.446,1.356-2.307,2.3.206,1.382,2.21.8,3.072,1.321.847-1.242.226-2.329-.608-3.2C4108.733,715.938,4109.284,715.463,4108.972,715.641Z" transform="translate(-4084.843 -684.627)" fill="#e72527"/>
                  <path id="Path_1527" data-name="Path 1527" d="M4137.69,697.488a2.644,2.644,0,0,0-.732.033c-1.037,1.8,1.775,2.963,3.188,3C4141.137,698.651,4139.249,697.628,4137.69,697.488Z" transform="translate(-4085.396 -684.294)" fill="#e72527"/>
                  <path id="Path_1528" data-name="Path 1528" d="M4143.561,699.819c-.247,1.314.937,1.441,1.9,1.729.535.158,1.089-.135,1.584.13s.432,1.255.906,1.363c1.548.351,1.607-1.165.774-1.886-.5-.43-2.185-.422-2.838-.6a1.247,1.247,0,0,0-1.341-1.273C4144.5,699.593,4143.6,699.623,4143.561,699.819Z" transform="translate(-4085.521 -684.327)" fill="#e72527"/>
                  <path id="Path_1529" data-name="Path 1529" d="M4151.362,705.1c-.517,1.17,1,2.08,1.325,3.235C4155.74,707.418,4151.6,705.713,4151.362,705.1Z" transform="translate(-4085.663 -684.434)" fill="#e72527"/>
                  <path id="Path_1530" data-name="Path 1530" d="M4135.562,706.462c.363,1.576.145,4.16,2.456,4.185C4139.21,708.841,4137.243,706.937,4135.562,706.462Z" transform="translate(-4085.375 -684.459)" fill="#e72527"/>
                  <path id="Path_1531" data-name="Path 1531" d="M4142.369,709.974c-1.7-.089-.973.837-.91,1.713.1,1.406.385,1.784,1.485,2.257,3.519,1.512,0-2.457.358-3.75C4143.016,710.157,4142.665,709.99,4142.369,709.974Z" transform="translate(-4085.479 -684.524)" fill="#e72527"/>
                  <path id="Path_1532" data-name="Path 1532" d="M4147.064,715.431c.16,1,1.016,1.53.986,2.656,2.705-.726.3-4.148-1.368-2.465Z" transform="translate(-4085.579 -684.619)" fill="#e72527"/>
                </g>
                <g id="Group_995" data-name="Group 995" transform="translate(37.933 106.632)">
                  <path id="Path_1533" data-name="Path 1533" d="M4060.555,698.055l-.969,1.582-3.452-2.037c-.118.518-.222,1.036-.319,1.55l4.451,3.009.592-2.8,6.025,3.031,1.157-1.664,5.1,2.3-5.136-3.5-1.723,1.628Z" transform="translate(-4055.815 -685.337)" fill="#fff"/>
                  <path id="Path_1534" data-name="Path 1534" d="M4066.056,707.791l-1.671,2.542-2.346-1.053c-.212.575-.28.912-.479,1.484l3.212,1.7,1.151-3.275,3.588,2.439,1.317-2.215,3.575,1.864L4071.1,708l-1.729,2.263Z" transform="translate(-4055.921 -685.524)" fill="#fff"/>
                  <path id="Path_1535" data-name="Path 1535" d="M4069.49,688.2l-1.712-.084-.4-3c-.459.092-.914.193-1.366.3l.22,4.065,2.459-.619,1.087,5.043,1.833.087,1.1,4.1-.273-4.577-2.085-.468Z" transform="translate(-4056.002 -685.107)" fill="#fff"/>
                </g>
                <g id="Group_996" data-name="Group 996" transform="translate(145.687 117.621)">
                  <path id="Path_1536" data-name="Path 1536" d="M4176.526,699.774l-.922-1.5,2.3-.918q-.505-.536-1.019-1.055l-3.352.925,1.951,1.993-4.063,2.166,1,1.79-3.595,2.34,4.565-1.666-.8-2.143Z" transform="translate(-4165.647 -696.302)" fill="#fff"/>
                  <path id="Path_1537" data-name="Path 1537" d="M4174.069,711.694l-.115-1.54,2.641-.693c-.133-.4-.275-.8-.421-1.188l-3.61.651.829,2.131L4169,712.591l.127,1.648-3.544,1.437,4.063-.755.186-1.917Z" transform="translate(-4165.588 -696.522)" fill="#fff"/>
                </g>
              </g>
            </g>
            <path id="Path_1538" data-name="Path 1538" d="M4078.532,740.368q-1.115-.788-2.2-1.618" transform="translate(-3999.221 -560.488)" fill="none" stroke="#0d0d0c" stroke-linecap="round" stroke-linejoin="round" stroke-width="3"/>
            <path id="Path_1539" data-name="Path 1539" d="M4068.373,729.781a72,72,0,1,1,13.973,11.008" transform="translate(-3998.691 -558.062)" fill="none" stroke="#0d0d0c" stroke-linecap="round" stroke-linejoin="round" stroke-width="3"/>
            <path id="Path_1540" data-name="Path 1540" d="M4171.265,609.2q1.321.935,2.6,1.918" transform="translate(-4000.968 -558.105)" fill="none" stroke="#0d0d0c" stroke-linecap="round" stroke-linejoin="round" stroke-width="3"/>
            <path id="Path_1541" data-name="Path 1541" d="M4180.151,618.577a85.346,85.346,0,1,1-16.562-13.048" transform="translate(-3998.44 -557.812)" fill="none" stroke="#0d0d0c" stroke-linecap="round" stroke-linejoin="round" stroke-width="3"/>
          </g>
        </g>
      </g>
    </g>
  </g>
</svg>
