<svg xmlns="http://www.w3.org/2000/svg" xmlns:xlink="http://www.w3.org/1999/xlink" width="175" height="175" viewBox="0 0 175 175">
  <defs>
    <clipPath id="clip-path">
      <rect id="Rectangle_175" data-name="Rectangle 175" width="175" height="175" transform="translate(881.396 330)" fill="none"/>
    </clipPath>
  </defs>
  <g id="Mask_Group_5" data-name="Mask Group 5" transform="translate(-881.396 -330)" clip-path="url(#clip-path)">
    <g id="Weight_loss" data-name="Weight loss" transform="translate(0 35)">
      <text id="น้ำหนักลดไม่มีสาเหตุ" transform="translate(967.499 517.269)" fill="#fff" font-size="35" font-family="Kanit-Light, Kanit" font-weight="300"><tspan x="-141.96" y="0">น้ำหนักลดไม่มีสาเหตุ</tspan></text>
      <g id="Scale">
        <g id="Group_988" data-name="Group 988" transform="translate(883.611 297.154)">
          <g id="Group_987" data-name="Group 987">
            <circle id="Ellipse_65" data-name="Ellipse 65" cx="85.522" cy="85.522" r="85.522" transform="translate(0 0)" fill="#fff"/>
            <circle id="Ellipse_66" data-name="Ellipse 66" cx="72.151" cy="72.151" r="72.151" transform="translate(13.371 13.371)" fill="#f4ada5"/>
            <path id="Path_1499" data-name="Path 1499" d="M3597.65,437.932a85.464,85.464,0,1,1,37.429-8.6" transform="translate(-3512.128 -266.888)" fill="none" stroke="#0d0d0c" stroke-linecap="round" stroke-linejoin="round" stroke-width="3"/>
          </g>
        </g>
        <g id="Group_989" data-name="Group 989" transform="translate(896.895 313.755)">
          <path id="Path_1500" data-name="Path 1500" d="M3648.352,299.35a71.856,71.856,0,0,1,10.034,11.13" transform="translate(-3527.917 -284.086)" fill="none" stroke="#0d0d0c" stroke-linecap="round" stroke-linejoin="round" stroke-width="3"/>
          <path id="Path_1501" data-name="Path 1501" d="M3664.751,325.753a72.151,72.151,0,1,1-88.272-41.953" transform="translate(-3525.66 -283.8)" fill="none" stroke="#0d0d0c" stroke-linecap="round" stroke-linejoin="round" stroke-width="3"/>
        </g>
        <g id="Group_1019" data-name="Group 1019" transform="translate(920.92 339.575)">
          <g id="Group_1018" data-name="Group 1018">
            <path id="Path_1575" data-name="Path 1575" d="M3598.432,314.807c-14.518,0-37.323,3.583-42.568,11.547-.828,1.26-1.745,3.372-.121,7.156l.131.31.088.327c5.767,21.717,15.386,56.92,17.682,62.856,1.429.945,6.9,3.814,20.447,3.814q1.972,0,4.161-.086H3599c16.482,0,22.661-2.852,24.243-3.786,2.338-6.109,11.912-41.151,17.661-62.8l.086-.327.133-.31c1.634-3.8.717-5.927-.119-7.191C3635.773,318.378,3612.96,314.807,3598.432,314.807Z" transform="translate(-3550.222 -310.19)" fill="#155aa7"/>
            <path id="Path_1576" data-name="Path 1576" d="M3598.345,310.1c-11.539,0-56.291,3.341-46.933,25.14,0,0,16.83,63.377,18.464,64.627,0,0,5.644,6.287,28.469,5.386,23.592.09,28.469-5.386,28.469-5.386,1.634-1.25,18.463-64.627,18.463-64.627C3654.637,313.445,3610.146,310.1,3598.345,310.1Zm42.691,23.319-.133.31-.086.327c-5.75,21.646-15.323,56.688-17.661,62.8-1.581.935-7.76,3.786-24.243,3.786h-.749q-2.191.09-4.161.086c-13.55,0-19.018-2.868-20.447-3.814-2.3-5.936-11.915-41.139-17.682-62.856l-.088-.327-.131-.31c-1.625-3.784-.708-5.9.121-7.156,5.246-7.964,28.051-11.547,42.568-11.547s37.341,3.571,42.572,11.511C3641.753,327.5,3642.67,329.618,3641.037,333.423Z" transform="translate(-3550.135 -310.104)" fill="#fff"/>
            <path id="Path_1577" data-name="Path 1577" d="M3569.877,399.871s5.644,6.287,28.469,5.386c23.592.09,28.469-5.386,28.469-5.386,1.634-1.25,18.463-64.627,18.463-64.627,4.937-11.5-5.11-17.861-17.439-21.308m-29.493-3.832c-11.539,0-56.291,3.341-46.933,25.14,0,0,9.574,36.054,14.981,54.311m56.974-76.727c-1.395-.306-2.8-.58-4.2-.825M3594,400.73c-13.55,0-19.018-2.868-20.447-3.814-2.3-5.936-11.915-41.139-17.682-62.856l-.088-.327-.131-.31c-1.625-3.784-.708-5.9.121-7.156m10.143-6.534c9.387-3.421,22.747-5.013,32.425-5.013,14.528,0,37.341,3.571,42.572,11.511.835,1.264,1.752,3.387.119,7.191l-.133.31-.086.327c-5.75,21.646-15.323,56.688-17.661,62.8" transform="translate(-3550.135 -310.104)" fill="none" stroke="#000" stroke-linecap="round" stroke-linejoin="round" stroke-width="2"/>
            <path id="Path_1578" data-name="Path 1578" d="M3566.915,348.558c5.845-2.118,35.269-11.648,63.28-.064a.921.921,0,0,0,1.268-.7l3.349-20.45a.919.919,0,0,0-.545-1c-4.743-2.014-34.494-13.426-71.328.024a.935.935,0,0,0-.6,1.027l3.349,20.438A.923.923,0,0,0,3566.915,348.558Z" transform="translate(-3550.36 -310.284)" fill="#fff"/>
            <path id="Path_1579" data-name="Path 1579" d="M3595.667,343.179l2.432-13c.318-1.72.847-1.72,1.167,0l2.4,12.863Z" transform="translate(-3550.973 -310.449)" fill="#ed759d"/>
            <path id="Path_1580" data-name="Path 1580" d="M3566.915,348.558c5.845-2.118,35.269-11.648,63.28-.064a.921.921,0,0,0,1.268-.7l3.349-20.45a.919.919,0,0,0-.545-1c-4.743-2.014-34.494-13.426-71.328.024a.935.935,0,0,0-.6,1.027l3.349,20.438A.923.923,0,0,0,3566.915,348.558Z" transform="translate(-3550.36 -310.284)" fill="none" stroke="#000" stroke-linecap="round" stroke-linejoin="round" stroke-width="2"/>
          </g>
        </g>
      </g>
    </g>
  </g>
</svg>
