<svg xmlns="http://www.w3.org/2000/svg" xmlns:xlink="http://www.w3.org/1999/xlink" width="175" height="175" viewBox="0 0 175 175">
  <defs>
    <clipPath id="clip-path">
      <rect id="Rectangle_174" data-name="Rectangle 174" width="175" height="175" transform="translate(369.396 330)" fill="none"/>
    </clipPath>
  </defs>
  <g id="Mask_Group_4" data-name="Mask Group 4" transform="translate(-369.396 -330)" clip-path="url(#clip-path)">
    <g id="Toilet" transform="translate(0 35)">
      <text id="กลางคืนปัสสาวะบ่อย" transform="translate(456.396 517.269)" fill="#fff" font-size="35" font-family="Kanit-Light, Kanit" font-weight="300"><tspan x="-144.305" y="0">กลางคืนปัสสาวะบ่อย</tspan></text>
      <g id="Toilet_icon" data-name="Toilet icon">
        <g id="Group_991" data-name="Group 991" transform="translate(336.047 261.73)">
          <g id="Group_990" data-name="Group 990">
            <circle id="Ellipse_67" data-name="Ellipse 67" cx="85.522" cy="85.522" r="85.522" transform="translate(0 120.946) rotate(-45)" fill="#fff"/>
            <circle id="Ellipse_68" data-name="Ellipse 68" cx="72.151" cy="72.151" r="72.151" transform="translate(48.795 48.795)" fill="#f4ada5"/>
            <path id="Path_1502" data-name="Path 1502" d="M3027.191,425.14q-1.319-.935-2.6-1.917" transform="translate(-2955.597 -234.339)" fill="none" stroke="#0d0d0c" stroke-linecap="round" stroke-linejoin="round" stroke-width="3"/>
            <path id="Path_1503" data-name="Path 1503" d="M3015.15,412.591a85.348,85.348,0,1,1,16.563,13.048" transform="translate(-2954.968 -231.464)" fill="none" stroke="#0d0d0c" stroke-linecap="round" stroke-linejoin="round" stroke-width="3"/>
          </g>
        </g>
        <path id="Path_1504" data-name="Path 1504" d="M3018.357,309.945a71.805,71.805,0,0,1,30.478-23.859" transform="translate(-2618.435 29.951)" fill="none" stroke="#0d0d0c" stroke-linecap="round" stroke-linejoin="round" stroke-width="3"/>
        <path id="Path_1505" data-name="Path 1505" d="M3065.725,281.269a72.151,72.151,0,1,1-61.569,75.9" transform="translate(-2619.174 30.016)" fill="none" stroke="#0d0d0c" stroke-linecap="round" stroke-linejoin="round" stroke-width="3"/>
        <g id="Group_1020" data-name="Group 1020" transform="translate(423.92 335.912)">
          <rect id="Rectangle_62" data-name="Rectangle 62" width="29.288" height="13.03" transform="translate(0 53.292)" fill="#c9d6e8"/>
          <rect id="Rectangle_63" data-name="Rectangle 63" width="29.288" height="13.03" transform="translate(0 53.292)" fill="none" stroke="#000" stroke-linecap="round" stroke-linejoin="round" stroke-width="2"/>
          <rect id="Rectangle_64" data-name="Rectangle 64" width="51.652" height="0.451" transform="translate(19.857 46.94)" fill="#dbdbdb"/>
          <path id="Path_1581" data-name="Path 1581" d="M3047.246,350.958V362.62a4.4,4.4,0,0,0,1.7,3.458c8.836,6.911,12.489,15.9,12.625,33.622a1.024,1.024,0,0,0,1.014,1.021h39.891a1.026,1.026,0,0,0,1.021-1.079c-.317-5.608-2.869-13.115-2.869-14.351.065-.051.136-.108.216-.181,2.409-1.97,13.165-12.137,13.165-24.547h.022a1.872,1.872,0,0,0,1.84-1.531l.582-3.178a1.077,1.077,0,0,0-1.056-1.272h-47.341a2.071,2.071,0,0,1-2.07-2.071v-1.553Z" transform="translate(-3043.886 -307.192)" fill="#fff"/>
          <path id="Path_1582" data-name="Path 1582" d="M3048.975,366.362c8.836,6.911,12.489,15.9,12.625,33.622a1.024,1.024,0,0,0,1.014,1.021h39.891a1.026,1.026,0,0,0,1.021-1.079,31.045,31.045,0,0,0-.354-3.118" transform="translate(-3043.917 -307.475)" fill="none" stroke="#000" stroke-linecap="round" stroke-linejoin="round" stroke-width="2"/>
          <path id="Path_1583" data-name="Path 1583" d="M3101.7,389.855a39.89,39.89,0,0,1-1.071-4.564c.065-.051.136-.108.216-.181,2.409-1.97,13.165-12.137,13.165-24.547h.022a1.872,1.872,0,0,0,1.84-1.531l.582-3.178a1.077,1.077,0,0,0-1.056-1.272h-47.341a2.071,2.071,0,0,1-2.07-2.071v-1.553h-18.738v6.549" transform="translate(-3043.886 -307.192)" fill="none" stroke="#000" stroke-linecap="round" stroke-linejoin="round" stroke-width="2"/>
          <path id="Path_1584" data-name="Path 1584" d="M3066.068,350.142h-18.919a.89.89,0,0,1-.89-.89V308.057a1.685,1.685,0,0,1,2.088-1.636l8.149,2.007a5.963,5.963,0,0,1,4.457,4.808l5.994,35.869A.89.89,0,0,1,3066.068,350.142Z" transform="translate(-3043.867 -306.372)" fill="#fff"/>
          <line id="Line_137" data-name="Line 137" y1="2.497" transform="translate(2.391 20.068)" fill="none" stroke="#000" stroke-linecap="round" stroke-linejoin="round" stroke-width="2"/>
          <path id="Path_1585" data-name="Path 1585" d="M3046.258,308.057a1.685,1.685,0,0,1,2.088-1.636l8.149,2.007a5.963,5.963,0,0,1,4.457,4.808l5.994,35.869a.89.89,0,0,1-.878,1.037h-18.919a.89.89,0,0,1-.89-.89v-15.9" transform="translate(-3043.867 -306.372)" fill="none" stroke="#000" stroke-linecap="round" stroke-linejoin="round" stroke-width="2"/>
          <path id="Path_1586" data-name="Path 1586" d="M3068.444,360.744s.259.748.748,1.985c2.287,5.839,9.563,22.562,17.709,22.562h14.33c2.279-1.862,12.029-11.066,13.072-22.562.064-.655.093-1.316.093-1.985Z" transform="translate(-3044.276 -307.372)" fill="#fff"/>
          <path id="Path_1587" data-name="Path 1587" d="M3068.935,354.12h47.43a.5.5,0,0,0,.5-.5v-.038a3.265,3.265,0,0,0-3.265-3.265H3072.68a3.745,3.745,0,0,0-3.745,3.745Z" transform="translate(-3044.285 -307.18)"/>
          <rect id="Rectangle_65" data-name="Rectangle 65" width="18.738" height="1.03" transform="translate(3.36 43.767)" fill="#e6e6e6" style="mix-blend-mode: multiply;isolation: isolate"/>
          <path id="Path_1588" data-name="Path 1588" d="M3092.478,360.744h21.657c0,.668-.029,1.33-.093,1.985h-44.156a4.144,4.144,0,0,0-1.7.539c-1.675,1.848.447,5.249,1.381,7.176,2.143,4.314,3.955,8.628,3.955,9.542,0,2.243-1.079,4.76-4.314,4.76-2.913,0-5.328-1.438-5.328-4.76,0-2.236.74-11.109-6.773-17.257a20.506,20.506,0,0,0-2.906-1.985Z" transform="translate(-3044.013 -307.372)" fill="#c9d6e8"/>
          <path id="Path_1589" data-name="Path 1589" d="M3073.007,371.043c3.438,6.718,8.512,14.248,13.978,14.248h14.33c2.279-1.862,12.029-11.066,13.072-22.562.064-.655.093-1.316.093-1.985" transform="translate(-3044.359 -307.372)" fill="none" stroke="#000" stroke-linecap="round" stroke-linejoin="round" stroke-width="2"/>
          <path id="Path_1590" data-name="Path 1590" d="M3069.206,362.766c.336.857.779,1.948,1.317,3.187" transform="translate(-3044.29 -307.409)" fill="none" stroke="#000" stroke-linecap="round" stroke-linejoin="round" stroke-width="2"/>
        </g>
      </g>
    </g>
  </g>
</svg>
