<svg xmlns="http://www.w3.org/2000/svg" xmlns:xlink="http://www.w3.org/1999/xlink" width="1920" height="718" viewBox="0 0 1920 718">
  <defs>
    <clipPath id="clip-path">
      <rect id="Rectangle_203" data-name="Rectangle 203" width="1920" height="718" transform="translate(0 362)" fill="none"/>
    </clipPath>
  </defs>
  <g id="Mask_Group_5" data-name="Mask Group 5" transform="translate(0 -362)" clip-path="url(#clip-path)">
    <g id="Pancake_top" data-name="Pancake top" transform="translate(-5224.727 5.196)">
      <g id="Group_255" data-name="Group 255">
        <circle id="Ellipse_31" data-name="Ellipse 31" cx="215.489" cy="215.489" r="215.489" transform="translate(5519.395 425.785)"/>
      </g>
      <g id="Group_263" data-name="Group 263">
        <g id="Group_256" data-name="Group 256">
          <circle id="Ellipse_32" data-name="Ellipse 32" cx="198.965" cy="198.965" r="198.965" transform="translate(5560.979 462.626)" fill="#fff"/>
        </g>
        <g id="Group_257" data-name="Group 257">
          <circle id="Ellipse_33" data-name="Ellipse 33" cx="149.601" cy="149.601" r="149.601" transform="translate(5610.342 511.99)" fill="#c9d6e8"/>
        </g>
        <g id="Group_258" data-name="Group 258">
          <path id="Path_790" data-name="Path 790" d="M5829.487,808.94q-6.328,2.987-12.774,5.387" fill="none" stroke="#0d0d0c" stroke-linecap="round" stroke-linejoin="round" stroke-width="2"/>
          <path id="Path_791" data-name="Path 791" d="M5776.177,823.761a162.982,162.982,0,1,1,137.752-108.91" fill="none" stroke="#0d0d0c" stroke-linecap="round" stroke-linejoin="round" stroke-width="2"/>
        </g>
        <path id="Path_792" data-name="Path 792" d="M5627.829,723.792c-52.014-60.663-38.7-143.485,5.669-181.8,32.425-28,77.535-34.576,101.225-27.52,0,0,19.186-7.825,65.418.539s76.371,58.052,85.453,96.135Z" fill="#080b0a"/>
        <g id="Group_262" data-name="Group 262">
          <circle id="Ellipse_34" data-name="Ellipse 34" cx="121.188" cy="121.188" r="121.188" transform="translate(5584.704 675.004) rotate(-45)" fill="#fdd89b"/>
          <path id="Path_793" data-name="Path 793" d="M5867.63,635.017c11.519,38.08,4.815,81.753-19.717,113.035S5781,796.434,5741.94,788.491c-18.294-3.721-35.281-12.453-50.493-23.27-15.6-11.1-29.741-24.672-39.367-41.2-16.148-27.729-18.154-63.174-5.232-92.485,15.2-34.485,49.334-58.419,86.057-67.227,37.973-9.106,81.682-2.009,109.079,25.834C5854.195,602.552,5862.6,618.375,5867.63,635.017Z" fill="#c78c50"/>
          <g id="Group_260" data-name="Group 260">
            <path id="Path_794" data-name="Path 794" d="M5835.825,601.932a2.445,2.445,0,1,1-1.476-3.128A2.445,2.445,0,0,1,5835.825,601.932Z" fill="#f79922"/>
            <path id="Path_795" data-name="Path 795" d="M5785.977,626.847a2.446,2.446,0,1,1-1.477-3.127A2.445,2.445,0,0,1,5785.977,626.847Z" fill="#f79922"/>
            <circle id="Ellipse_35" data-name="Ellipse 35" cx="0.731" cy="0.731" r="0.731" transform="translate(5817.186 623.946)" fill="#f79922"/>
            <circle id="Ellipse_36" data-name="Ellipse 36" cx="1.79" cy="1.79" r="1.79" transform="translate(5832.819 644.404)" fill="#f79922"/>
            <g id="Group_259" data-name="Group 259">
              <circle id="Ellipse_37" data-name="Ellipse 37" cx="3.482" cy="3.482" r="3.482" transform="translate(5687.474 681.336)" fill="#f79922"/>
            </g>
            <circle id="Ellipse_38" data-name="Ellipse 38" cx="2.201" cy="2.201" r="2.201" transform="translate(5830.135 715.337)" fill="#f79922"/>
            <circle id="Ellipse_39" data-name="Ellipse 39" cx="3.692" cy="3.692" r="3.692" transform="translate(5793.407 722.901)" fill="#f79922"/>
            <path id="Path_796" data-name="Path 796" d="M5706.3,732.488a2.862,2.862,0,1,1-1.727-3.661A2.861,2.861,0,0,1,5706.3,732.488Z" fill="#f79922"/>
            <path id="Path_797" data-name="Path 797" d="M5740.009,724.242a1.334,1.334,0,1,1-.8-1.706A1.333,1.333,0,0,1,5740.009,724.242Z" fill="#f79922"/>
            <circle id="Ellipse_40" data-name="Ellipse 40" cx="4.02" cy="4.02" r="4.02" transform="translate(5670.679 646.999)" fill="#f79922"/>
            <circle id="Ellipse_41" data-name="Ellipse 41" cx="1.827" cy="1.827" r="1.827" transform="translate(5767.01 591.093)" fill="#f79922"/>
            <circle id="Ellipse_42" data-name="Ellipse 42" cx="4.385" cy="4.385" r="4.385" transform="translate(5697.751 589.629)" fill="#f79922"/>
            <path id="Path_798" data-name="Path 798" d="M5801.649,597.757l-1.166-.418-1.166-.418,1.166.418Z" fill="#f79922"/>
            <path id="Path_799" data-name="Path 799" d="M5841.7,703.6a2.875,2.875,0,1,1-1.736-3.677A2.876,2.876,0,0,1,5841.7,703.6Z" fill="#f79922"/>
            <circle id="Ellipse_43" data-name="Ellipse 43" cx="2.201" cy="2.201" r="2.201" transform="translate(5794.968 685.401)" fill="#f79922"/>
            <circle id="Ellipse_44" data-name="Ellipse 44" cx="2.201" cy="2.201" r="2.201" transform="translate(5718.591 626.961)" fill="#f79922"/>
            <path id="Path_800" data-name="Path 800" d="M5806.531,673.664a2.875,2.875,0,1,1-1.735-3.677A2.875,2.875,0,0,1,5806.531,673.664Z" fill="#f79922"/>
            <circle id="Ellipse_45" data-name="Ellipse 45" cx="4.614" cy="4.614" r="4.614" transform="translate(5751.335 756.087)" fill="#f79922"/>
            <circle id="Ellipse_46" data-name="Ellipse 46" cx="2.558" cy="2.558" r="2.558" transform="translate(5657.902 721.705)" fill="#fcb830"/>
            <path id="Path_801" data-name="Path 801" d="M5652.341,694.621a3.6,3.6,0,1,1-2.173-4.6A3.6,3.6,0,0,1,5652.341,694.621Z" fill="#fcb830"/>
            <circle id="Ellipse_47" data-name="Ellipse 47" cx="1.431" cy="1.431" r="1.431" transform="translate(5651.088 710.245)" fill="#fcb830"/>
            <circle id="Ellipse_48" data-name="Ellipse 48" cx="1.644" cy="1.644" r="1.644" transform="translate(5861.708 629.431)" fill="#fcb830"/>
          </g>
          <circle id="Ellipse_49" data-name="Ellipse 49" cx="121.188" cy="121.188" r="121.188" transform="translate(5599.73 650.913) rotate(-45)" fill="#fdd89b"/>
          <path id="Path_802" data-name="Path 802" d="M5882.656,610.927c11.519,38.08,4.815,81.753-19.717,113.035s-66.913,48.381-105.973,40.439c-18.293-3.721-35.28-12.453-50.492-23.27-15.6-11.1-29.741-24.673-39.368-41.2-16.148-27.728-18.153-63.174-5.232-92.484,15.2-34.485,49.334-58.42,86.058-67.227,37.972-9.106,81.682-2.01,109.078,25.834C5869.221,578.462,5877.622,594.284,5882.656,610.927Z" fill="#c78c50"/>
          <path id="Path_803" data-name="Path 803" d="M5842.138,583.248c15.75,18.242,28.245,39.267,32.455,63.3a150.877,150.877,0,0,1,1.332,41.88c.011-.036.024-.071.035-.106,9.033-29.907,5.74-62.783-5.989-91.739-6.223-15.365-15.163-30.24-28.779-39.7-11.822-8.211-26.272-11.728-40.544-13.595-.84-.11-1.684-.2-2.526-.3C5814.826,553.867,5830,569.194,5842.138,583.248Z" fill="#fdd89b"/>
          <path id="Path_804" data-name="Path 804" d="M5845.719,702.929a124.24,124.24,0,0,0-92.41-163.847c-1.8.355-3.6.709-5.377,1.135-36.723,8.807-70.856,32.742-86.058,67.227-12.921,29.31-10.916,64.756,5.232,92.485,9.626,16.529,23.763,30.1,39.368,41.2,15.212,10.817,32.2,19.549,50.493,23.269a101.391,101.391,0,0,0,41.289-.452A123.678,123.678,0,0,0,5845.719,702.929Z" fill="#080b0a"/>
          <path id="Path_805" data-name="Path 805" d="M5798.256,763.948c-10.541,2.354-17.772,4.038-18.755,7.891,0,0-30.211,13.326-63.14,3.992L5784,752.215Z" fill="#080b0a"/>
          <g id="Group_261" data-name="Group 261">
            <circle id="Ellipse_50" data-name="Ellipse 50" cx="121.188" cy="121.188" r="121.188" transform="translate(5556.324 655.148) rotate(-45)" fill="#fdd89b"/>
            <path id="Path_806" data-name="Path 806" d="M5839.25,615.161c11.519,38.081,4.815,81.754-19.717,113.036s-66.913,48.381-105.973,40.438c-18.293-3.72-35.28-12.453-50.492-23.269-15.6-11.1-29.741-24.673-39.368-41.2-16.148-27.728-18.153-63.174-5.232-92.485,15.2-34.484,49.335-58.419,86.058-67.226,37.972-9.107,81.682-2.01,109.078,25.834C5825.815,582.7,5834.216,598.519,5839.25,615.161Z" fill="#c78c50"/>
            <path id="Path_807" data-name="Path 807" d="M5704.392,569.741a22.757,22.757,0,0,0-4.469,3.509c-3.552,3.543-6.714,7.723-11.257,9.854-7.168,3.361-15.725.738-23.457,2.439a21.211,21.211,0,0,0-14.938,29.067c4.86,11.345,14.981,18.8,9.832,32.542-4.32,11.532-16.483,21.362-12.883,34.958,2.41,9.1,11.712,14.413,20.439,17.942s18.368,6.757,23.716,14.5c3.3,4.782,4.488,10.684,6.991,15.929s7.252,10.256,13.057,9.976c6.258-.3,10.437-6.34,15.727-9.7,5.9-3.743,13.325-4.107,20.285-3.483s13.893,2.12,20.867,1.667,14.286-3.286,17.894-9.27c5.673-9.406.012-17.452-1.482-26.678a28.536,28.536,0,0,1,6.375-23.029c3.358-3.848,7.707-6.7,11.321-10.306s6.59-8.449,6.023-13.525c-.7-6.3-6.425-10.682-11.756-14.114s-11.232-7.315-12.709-13.481c-1.287-5.366,1.21-10.844,1.727-16.338a22.836,22.836,0,0,0-31.9-23.054c-3.639,1.595-6.817,4.118-10.479,5.658-12.033,5.06-15.439-6.171-22.226-13.041C5715.913,566.535,5709.8,566.548,5704.392,569.741Z" fill="#fafafa"/>
            <path id="Path_808" data-name="Path 808" d="M5787.4,666.692a25.285,25.285,0,0,0-5.984,28.717c-5.889-2.215-7.491-10.161-5.571-16.152s6.235-10.885,9.073-16.5,3.905-13.07-.327-17.726c-2.5-2.749-6.293-3.9-9.234-6.166-5.866-4.531-7.426-12.725-7.338-20.137s1.369-14.978-.539-22.141-8.449-13.91-15.769-12.74a19.254,19.254,0,0,1,30.4,14.08c.373,4.537-.867,9.06-.838,13.612a24.776,24.776,0,0,0,7.61,17.581c3.081,2.93,6.87,5.008,10.123,7.746s6.08,6.485,6.122,10.737c.044,4.523-3.071,8.5-6.635,11.285S5790.788,663.689,5787.4,666.692Z" fill="#c9d6e8"/>
            <path id="Path_809" data-name="Path 809" d="M5653.8,598.929c.937-4.851,5.63-8.172,10.4-9.44s9.807-1,14.715-1.556a43.964,43.964,0,0,0,28.489-15.383c-2.133,4.891-4.3,9.836-7.539,14.074s-7.723,7.765-12.961,8.784c-5.737,1.116-11.563-.845-17.357-1.617S5656.9,593.968,5653.8,598.929Z" fill="#c9d6e8"/>
            <path id="Path_810" data-name="Path 810" d="M5700.378,723.894c1.294,3.151,2.238,6.487,4.118,9.327s4.994,5.177,8.392,4.958c4.722-.3,7.67-5.015,11.179-8.189a20.355,20.355,0,0,1,20.108-3.974c-2.48-3.223-7.2-3.876-11.153-2.925s-7.462,3.175-11.186,4.808-8.045,2.671-11.816,1.15c-5.455-2.2-7.573-8.587-10.5-13.69a34.451,34.451,0,0,0-27.675-16.966A44.523,44.523,0,0,1,5700.378,723.894Z" fill="#c9d6e8"/>
          </g>
        </g>
      </g>
    </g>
    <g id="Fork" transform="translate(-5224.727 5.196)">
      <path id="Path_811" data-name="Path 811" d="M5975.466,518.385l-.883-3.44s-.819-.809,2.573-1.883l52.558-15.111s.951-1.059-3.784-.456l-51.813,11.661s-1.655-.594-2.119-4.142l53.98-15.273s3.769-1.985-.534-1.289l-54.5,12.758s-2.21-4.322.133-4.719l54.429-15.8s2.27-3.027-9,.68L5969.9,491.9s-3.7-1.7-.887-4.255l52.635-17.983s21.983-5.639,28.954-.7c0,0,11.95,5.288,15.2,4.454l77.124-21.005,77.839-21.393s14.774-3.935,17.775,1.408c0,0,4.7,8.778-.4,12.734l-98.471,22.348-70.5,16.657a19.471,19.471,0,0,0-8.562,8.716,35.106,35.106,0,0,1-20.07,13.094s-38.707,10.336-55.166,11.3Z"/>
      <path id="Path_812" data-name="Path 812" d="M5986.066,522.22l-.882-3.441s-.819-.808,2.573-1.882l52.558-15.112s.951-1.058-3.784-.455l-51.814,11.661s-1.654-.6-2.119-4.143l53.981-15.272s3.769-1.986-.534-1.289l-54.5,12.758s-2.21-4.323.132-4.72l54.429-15.8s2.271-3.027-9,.68l-46.6,10.528s-3.7-1.7-.888-4.255l52.636-17.984s21.983-5.638,28.954-.7c0,0,11.95,5.287,15.2,4.454l77.124-21.005,77.839-21.393s7.205-3.682,10.205,1.661c0,0,4.7,8.778-.4,12.734l-90.9,22.1L6079.766,488a19.467,19.467,0,0,0-8.562,8.715,35.106,35.106,0,0,1-20.071,13.094s-38.706,10.336-55.166,11.3Z" fill="#fff"/>
      <path id="Path_813" data-name="Path 813" d="M6077.9,487.456s-3.011-2.209-2.943-4.326a45.785,45.785,0,0,1,.553-4.993s-11.442-2.111-12.874-3.726c0,0,4.121,4.749,4.54,8.767,0,0,2.247,9.356.7,15.253,0,0,3.018-5.511,4.7-6.706C6072.572,491.725,6076.643,486.588,6077.9,487.456Z" fill="#c9d6e8"/>
      <path id="Path_814" data-name="Path 814" d="M6240,447.1s4.255-7.051-3.015-11.756l-161.485,42.8-.216,1.441L6230.234,438.6s6.607-2.459,7.932,1.327C6238.166,439.928,6240.585,443.586,6240,447.1Z" fill="#c9d6e8"/>
      <path id="Path_815" data-name="Path 815" d="M5978.571,493.15s1.443,2.3,2.781,1.957l47.224-10.891,3.918-1.005s3.264-1.009,3.745.584c0,0-1.642-.279-11.26,1.893l-36.388,8.221-8.095,1.829S5978.024,494.3,5978.571,493.15Z" fill="#fff"/>
    </g>
    <g id="Mayonnaise" transform="translate(-5224.727 5.196)">
      <ellipse id="Ellipse_51" data-name="Ellipse 51" cx="70.785" cy="75.897" rx="70.785" ry="75.897" transform="matrix(0.841, -0.541, 0.541, 0.841, 5340.267, 868.232)"/>
      <path id="Path_816" data-name="Path 816" d="M5487.773,958.394a67.223,67.223,0,1,1,20.138-92.91A67.223,67.223,0,0,1,5487.773,958.394Z" fill="#fff"/>
      <path id="Path_817" data-name="Path 817" d="M5500.975,869.87a58.776,58.776,0,0,0-33.948-24.944c-6.645-1.826-13.5-2.274-20.186-3.8a10.876,10.876,0,0,1-4.329-1.739,4.212,4.212,0,0,1-1.736-4.1,2.336,2.336,0,0,0,.145-1.229c-.266-.821-1.449-.748-2.266-.47-9.213,3.136-16.084,10.743-22.365,18.177-6.911,8.18-14.448,16.12-18.847,26.013a59.019,59.019,0,1,0,103.532-7.91Z" fill="#fdd89b"/>
      <path id="Path_818" data-name="Path 818" d="M5488.037,948.047a58.953,58.953,0,0,0,5.516-4.96" fill="none" stroke="#0d0d0c" stroke-linecap="round" stroke-linejoin="round" stroke-width="2"/>
      <path id="Path_819" data-name="Path 819" d="M5416.29,851.767c-6.911,8.18-14.448,16.12-18.847,26.013a59.025,59.025,0,0,0,80.613,76.667" fill="none" stroke="#0d0d0c" stroke-linecap="round" stroke-linejoin="round" stroke-width="2"/>
      <path id="Path_820" data-name="Path 820" d="M5509.7,910.691a58.959,58.959,0,0,0-42.67-65.765c-6.645-1.826-13.5-2.274-20.186-3.8" fill="none" stroke="#0d0d0c" stroke-linecap="round" stroke-linejoin="round" stroke-width="2"/>
      <path id="Path_821" data-name="Path 821" d="M5475.448,926.569a51.864,51.864,0,0,1-16.831,7.1,4.073,4.073,0,0,0-1.989.844,1.34,1.34,0,0,0-.1,1.928,1.9,1.9,0,0,0,1.135.286,101.437,101.437,0,0,0,19.989-1.7,27.687,27.687,0,0,0,8.639-2.488c5.746-3.081,8.839-9.771,9.263-16.277s-1.4-12.931-3.364-19.149c-1,.055-1.335,1.348-1.428,2.347-.715,7.622-3.411,15.329-8.53,21.221A34.044,34.044,0,0,1,5475.448,926.569Z" fill="#edc080"/>
      <path id="Path_822" data-name="Path 822" d="M5420.557,892.047c-.007-.091-.016-.182-.027-.273-4.422,3.228-6.38,8.579-7.868,13.633a26.19,26.19,0,0,0-1.261,9.54c.2,2.4.763,6.529,2.651,8.223a2.356,2.356,0,0,0,2.706.44,3.468,3.468,0,0,0,1.191-2.7c.29-2.51.531-5.025.771-7.54q.858-8.965,1.716-17.931A18.888,18.888,0,0,0,5420.557,892.047Z" fill="#edc080"/>
      <path id="Path_823" data-name="Path 823" d="M5475.35,862.834c-.365-.019-1.777-1.955-2.071-2.231a27.218,27.218,0,0,0-6.674-4.566c-8.33-4.059-17.792-3.067-26.731-2.58a31.875,31.875,0,0,0-4.119.4,1.135,1.135,0,0,0-.6.244c-.4.394-.063,1.072.306,1.5,5.745,6.657,14.47,5.9,22.447,6.315Z" fill="#edc080"/>
      <path id="Path_824" data-name="Path 824" d="M5399.13,899.705c-.686,9.4,1.907,18.912,6.272,27.212a2.45,2.45,0,0,0,.781,1,.868.868,0,0,0,1.151-.141,1.262,1.262,0,0,0,.16-.574c.381-3.312-.623-6.377-1.183-9.663q-.969-5.687-1.494-11.437t-.6-11.518c-.015-1.1-.461-10.907.267-11.134C5400.241,884.766,5399.4,895.966,5399.13,899.705Z" fill="#edc080"/>
      <path id="Path_825" data-name="Path 825" d="M5421.352,862.976a24.812,24.812,0,0,1-1.111,3.523,7.562,7.562,0,0,1-1.4,2.4c-2.424,2.571-4.288.491-3.867-2.22a24.258,24.258,0,0,1,2.291-6.134,15.859,15.859,0,0,1,4.521-6.035c.169-.131.392-.263.582-.164s.207.39.184.617A61.675,61.675,0,0,1,5421.352,862.976Z" fill="#edc080"/>
    </g>
    <g id="No.1" transform="translate(-5224.727 5.196)">
      <path id="Path_827" data-name="Path 827" d="M6855.786,481.853,6831.04,363.82l169.9,128.023Z"/>
      <g id="Group_267" data-name="Group 267">
        <path id="Path_828" data-name="Path 828" d="M6937.269,534.729l56.739-126.739-82.367-48.865-55.855,122.728Z" fill="#ed759d"/>
        <path id="Path_829" data-name="Path 829" d="M6897.547,485.165l30.563-66.277-13.758-4.8,6.616-14.347,31.279,11.345-38.291,83.037Z" fill="#fff"/>
        <path id="Path_830" data-name="Path 830" d="M6994.008,407.99l6.936,83.853-63.675,42.885Z" fill="#a52959"/>
        <path id="Path_831" data-name="Path 831" d="M6937.269,534.729l44.176-57.492,12.563-69.246Z"/>
        <path id="Path_832" data-name="Path 832" d="M7000.943,491.843l-27.185-20.484,20.25-63.369Z"/>
      </g>
    </g>
    <g id="No.2" transform="translate(-5224.727 5.196)">
      <path id="Path_833" data-name="Path 833" d="M5319.812,689.32l-56.039-83.61,96.261-51.685,104.934,125.3Z"/>
      <g id="Group_269" data-name="Group 269">
        <path id="Path_834" data-name="Path 834" d="M5383.487,732.206l-56.739-126.739,82.367-48.865,55.854,122.728Z" fill="#ed759d"/>
        <path id="Path_835" data-name="Path 835" d="M5326.748,605.467l-6.936,83.853,63.675,42.885Z" fill="#a52959"/>
        <path id="Path_836" data-name="Path 836" d="M5326.748,605.467l17.013,67.75-23.949,16.1,26.688-8.473,36.987,51.358Z"/>
      </g>
      <path id="Path_837" data-name="Path 837" d="M5388.7,698.885l-3.59-8.295a64.087,64.087,0,0,1,2.727-18.289q2.7-9,6.382-18.5,2.736-7.187,4.457-11.866a58.348,58.348,0,0,0,2.4-7.954,19.124,19.124,0,0,0,.351-6.116,23.218,23.218,0,0,0-1.878-6.417q-5.136-11.87-19.26-3.639a54.494,54.494,0,0,0-9.046,6.63,75.96,75.96,0,0,0-7.795,8.138l-6.572-15.187a75.75,75.75,0,0,1,9.461-8.789,93.74,93.74,0,0,1,11.137-7.688q13.4-7.812,23.233-4.67t15.075,15.266a29.425,29.425,0,0,1,2.323,16.624,83.824,83.824,0,0,1-5.061,17.572q-2.92,7.455-5.5,14.31a64.6,64.6,0,0,0-3.528,13.322l31.48-18.344,5.744,13.273Z" fill="#fff"/>
    </g>
    <path id="Path_5840" data-name="Path 5840" d="M8336.579,1170.113l-31.484-15.287,56.921-117.235,173.948-157.168,74.952-114.1L8786.2,715.18l-11.8-75.451.354-2.554c.463-3.351,12.354-82.826,99.963-147.324,82.5-60.733,211.5-65.267,227.577-65.6L9232.5,401.682l3.717.994c8.416,2.25,83.089,22.857,113.07,53.135,25.393,25.647,63.394,83.955,72.745,98.525,22.8,14.852,153.786,100.69,194.909,138.6,20.537,18.933,37.371,52.48,50.032,99.707a512.1,512.1,0,0,1,12.79,63.665l.314,2.565L9662.41,960.887l-116.04,87.918-58.554,105.411-30.6-17,62.134-111.858,110.924-84.041,14.421-83.278c-4.209-31.47-20.562-110.873-51.481-139.375-41.98-38.7-191.914-136.064-193.422-137.043l-3.216-2.085-2.05-3.239c-.439-.694-44.264-69.754-70.115-95.864-18.7-18.889-70.777-36.473-93.595-42.941l-125.295,21.719-1.418.014c-1.3.015-131.613,2.094-208.648,58.808-39.238,28.886-60.521,60.994-71.466,82.842-9.418,18.8-13.045,33.488-14.165,38.91l15.7,100.375-192.437,56.143-70.337,107.079L8390.53,1059Z" transform="translate(-7830.221 -0.725)" fill="#fff"/>
    <g id="Group_2595" data-name="Group 2595" transform="translate(-10393.074 3.714)">
      <path id="Path_5785" data-name="Path 5785" d="M11006.334,1260.194c-15.045,18.2-24.555,2.472-33.227-42.416s-6.312-87.018,79.638-156.78,117.951-116.845,141.6-149.212,18.3-50.345,43.472-69.179,61.591-29.764,69.991-29.906,38.781,7.766,38.781,7.766l15.316,6.675,47.267,18.333-55.608,2.288-16.709,11.362s21.372-.01,34.206,1.407,41.979,8.808,41.979,8.808l-7.316,3.51-48.177,9.867s-26.5,21.905-27.357,22.307,2.245,3.285,8.774.551,33.273-4.215,37.966-.182l-8.3,6.69-81.1,32.891-54.6,51.492-30.265,84.149s14.564-16.274,26.123-16.334,77.7-23.135,122.444-61.765,129.5-50.359,129.5-50.359-26.338-22.6-30.846-58.667c-2.176-17.412-1.088-40.039-1.088-40.039s-20.161-10.876-27.347-32.974c-4.134-12.712,9.085-26.938,9.6-20.4,1.968,24.792,13.246,17.265,13.246,17.265s-10.1-22.881,5.084-38.817,2.134-23.216,2.134-23.216-37.806-51.665-22.955-99.7c27.517-88.992,117.609-118.013,172.446-123.795,64.455-6.8,86.69,23.041,86.69,23.041l9.066,10.319s-19.006-4.47-24.552-14.945,23.864-7.671,23.864-7.671l62.5,5.607s-13.806-17.466-31.739-17.17-28.516,2.468-36.94-1.53-5.021-9.028.683-13.657,56.446-3.9,56.446-3.9l-28.352-4.346,20.787-17.762,123.61,69.876-61.326,37.239-78.973,31.94-28.837,118.4-47.546,165.053s86.409-33.671,74.631-19.553,14.787,31.124,20.6,31.162,34.789-19.084,51.645-26.576,102.284-54.3,122.352-62.844,25.236-10.521,25.236-10.521-27.367-19.524-56.2-87.484-58.14-98.619-58.14-98.619-44.77-14.355-56.393-20.324-4.744-15.011-4.744-15.011l36.769,2.345,96.722,21.308,159.08,169.632,8.7,87.657L11440.968,1199.5Z"/>
      <g id="Group_2594" data-name="Group 2594">
        <g id="Group_2593" data-name="Group 2593">
          <path id="Path_5786" data-name="Path 5786" d="M11886.584,569.334c-10.28-27.186-32.812-55.071-44.545-63.607s-39.546-25.35-45.8-27.6-30.657,1.158-32.669,4.919c0,0-15.152-.582-22.773,5.563a16.192,16.192,0,0,0-6.15,14.575s-36.8,6.706-44.073,12.626,5.046,11.285,15.8,10.017,30.4-4.811,37.328-3.611,31.711,20.956,31.711,20.956-31.353-7.387-45.3-8.008-35.937,2.713-40.6,3.5-3.577,8.22,2.632,11.363,36.188,3.038,41.153,5.012,33.613,20.468,39.638,24.47a110.413,110.413,0,0,1,10.554,7.981s-11.494.51-19.458-4.212-21.18-11.481-31.754-11.072-11.937,6.709,2.237,14.575,29.049,22.178,49.527,27.211,59.089,19.488,73.309,25.764,39.921-25.734,46.45-31.915S11895.474,592.844,11886.584,569.334Z" fill="#f9cfcc"/>
          <path id="Path_5787" data-name="Path 5787" d="M11778.311,612.3c-11.63-24.861-36.169-41.354-54.106-35.013l-2.754,5.431,7.646,12.727Z"/>
          <path id="Path_5788" data-name="Path 5788" d="M11738.954,501.811a55.163,55.163,0,0,1,7.841-1.812,33.48,33.48,0,0,1,8.13-.2,32.718,32.718,0,0,1,7.983,1.82c2.585.96,4.963,2.152,7.389,3.3q7.191,3.579,14.146,7.553c4.644,2.641,9.231,5.381,13.7,8.327-4.87-2.217-9.659-4.571-14.434-6.949s-9.521-4.8-14.295-7.138c-2.375-1.172-4.775-2.375-7.172-3.33a35.014,35.014,0,0,0-7.512-2.044,37.979,37.979,0,0,0-7.842-.368C11744.25,501.086,11741.61,501.472,11738.954,501.811Z" fill="#0d0d0c"/>
          <path id="Path_5789" data-name="Path 5789" d="M11769.458,483.59a39.326,39.326,0,0,1,12.054.956,31.041,31.041,0,0,1,5.823,1.974,20.747,20.747,0,0,1,2.733,1.517q1.28.854,2.5,1.745c3.229,2.416,6.323,4.956,9.342,7.6s5.967,5.351,8.765,8.24c-3.332-2.25-6.554-4.624-9.747-7.027l-4.779-3.608c-1.582-1.214-3.164-2.425-4.767-3.591-.791-.6-1.591-1.175-2.392-1.727a22.873,22.873,0,0,0-2.479-1.445,36.486,36.486,0,0,0-5.415-2.175A67.653,67.653,0,0,0,11769.458,483.59Z" fill="#0d0d0c"/>
          <path id="Path_5790" data-name="Path 5790" d="M11217.516,908.624c9.078-27.611,30.366-56.458,41.712-65.5s38.4-27.06,44.545-29.585,30.678-.188,32.853,3.482c0,0,15.112-1.246,23,4.559a16.193,16.193,0,0,1,6.785,14.291s37.059,5.085,44.584,10.681-4.546,11.5-15.351,10.7-30.581-3.473-37.45-1.97-30.762,22.326-30.762,22.326,31-8.755,44.9-9.986,36.02,1.134,40.714,1.718,3.934,8.054-2.131,11.467-36.021,4.622-40.895,6.812-32.684,21.923-38.525,26.185a110.543,110.543,0,0,0-10.194,8.436s11.5.005,19.255-5.062,20.656-12.4,31.237-12.453,12.22,6.179-1.595,14.659-28.049,23.431-48.287,29.357-58.177,22.06-72.107,28.954-41.011-23.958-47.807-29.847S11209.666,932.5,11217.516,908.624Z" fill="#f9cfcc"/>
          <path id="Path_5791" data-name="Path 5791" d="M11357.234,834.91a53.654,53.654,0,0,0-13.843,3.831,134,134,0,0,0-13.028,6.054c-4.2,2.32-8.5,4.6-12.8,6.789s-8.668,4.311-13.121,6.239c4.031-2.705,8.166-5.216,12.336-7.66s8.366-4.793,12.654-7.11a88.857,88.857,0,0,1,13.454-5.719,56.887,56.887,0,0,1,7.076-1.866A28.622,28.622,0,0,1,11357.234,834.91Z" fill="#0d0d0c"/>
          <path id="Path_5792" data-name="Path 5792" d="M11332.97,818.85c-4.016,1.436-7.807,3.316-11.647,5.113-3.818,1.841-7.645,3.67-11.45,5.543l-11.464,5.538c-3.823,1.853-7.669,3.639-11.489,5.541a93.27,93.27,0,0,1,10.765-6.923c3.7-2.116,7.491-4.071,11.315-5.953,3.842-1.847,7.727-3.61,11.7-5.171A58.521,58.521,0,0,1,11332.97,818.85Z" fill="#0d0d0c"/>
          <path id="Path_5793" data-name="Path 5793" d="M11279.238,964.612c-17.717,9.746-58.355,80.358-72.255,128.865s-46.589,119.5-102.691,158.3-101.51,41.636-105.443,31.62-11.688-83.782,40.227-141.232c77.041-85.256,156.2-192.042,164.31-205.738S11279.238,964.612,11279.238,964.612Z" fill="#f9cfcc"/>
          <path id="Path_5794" data-name="Path 5794" d="M10998.231,1281.391c4.187,19.7,84.258,35.49,185.605,13.18s253.5-66.643,253.5-66.643,27.247-193.072-.722-185.72-106.453,26.686-193.329,66.426-202.724,93.6-202.724,93.6Z" fill="#f9cfcc"/>
          <path id="Path_5795" data-name="Path 5795" d="M11193.725,1131.381c-6.27,14.338-13.735,33.5-20.346,42.857,0,0,45.748,7.231,72.106,43.2s25.975,55.956,25.975,55.956l29.188-7.673-29.315-127.992-34.375-28.555-22.58,11.879Z"/>
          <path id="Path_5796" data-name="Path 5796" d="M11802.753,957.856c77.656-49.353,210.265-128.177,243.26-141.505s106.479,35.453,105.9,53.225-88.568,111.387-140.983,147.109c-117.559,80.117-174.938,99.512-263.155,165.9Z" fill="#f9cfcc"/>
          <path id="Path_5797" data-name="Path 5797" d="M11984.814,842.97c37.565,1.571,51.086,154.679,51.086,154.679l-8.934,7.207-64.091-21.187.953-123.277Z"/>
          <path id="Path_5798" data-name="Path 5798" d="M11816.564,610.726c17.4,15.453,66.445,71.362,95.4,112.806,28.9,41.362,68.425,108.487,130.873,135.932s107.567,21.611,109.528,11.03,4.637-67.264-66.3-131.028c-85.46-76.816-189.811-158.9-200.376-170.809S11816.564,610.726,11816.564,610.726Z" fill="#f9cfcc"/>
          <path id="Path_5799" data-name="Path 5799" d="M11504.118,722.848c-3.1,13.719-.286,35.177.373,43.454s4.616,11.787.763,21.034-19.237,23.258-21.926,27.865,8.315,15.148,8.315,15.148.4,22.074.3,47.69,5.113,50.384,14.646,55.77,16.515,10.243,59.962,5a46.505,46.505,0,0,1-7.106,34.059c-11.237,16.6-25.07,21.387-51,26.076,0,0,33.716,59.018,141.157,59.723s127.105-85.213,127.105-85.213-52.6-14.624-62.293-21.832-18.641-37.527-10.831-63.456c0,0,45.13-24.076,73.078-77.251s3.5-168.343-83.489-187.68S11519.533,654.659,11504.118,722.848Z" fill="#f9cfcc"/>
          <path id="Path_5800" data-name="Path 5800" d="M11631.554,857.161c6.8,16.254,6.624,36.5-5.228,44.525s6.034,9.839,16.772,1.3,11.633-26.172,11.633-26.172,3.571,11.619,1.35,23.482-1.912,19.884,6.723,14.245,10.875-27.407,10.875-27.407l-16.889-26.411-21.611-20.178Z"/>
          <path id="Path_5801" data-name="Path 5801" d="M11586.287,778.926c12.658,22.891,24.785,47.211,28.366,65.993s-20.2,32.708-25.99,30.8-5.667,2.675,2.146,4.548,16.927,1.049,27.481-5.554,21.532-36.37,21.532-36.37l-30.973-60.439-12.382-36.33-14.461,5.2Z"/>
          <path id="Path_5802" data-name="Path 5802" d="M11567.255,839.251c-12.492,12.361-35.323,19.916-44.007,14.282s1.595-.058,14.177-9.24a42.489,42.489,0,0,0,16.534-42.1c-3.187-16.571-9.778-38.229-8.268-54.492s2.4-26.624,9.941-36.671,9.508-5.877,9.508-5.877l8.055,20.993Z"/>
          <path id="Path_5803" data-name="Path 5803" d="M11491.754,837.819c19.1-12.151,13.5-50.483,13.5-50.483l1.655-7.041,15.4,11.465s1.52,26.047,1.286,27.026-.419,21.574-.711,22.06-24.381,17.937-24.725,17.578-6.257-6.135-6.257-6.135Z"/>
          <path id="Path_5804" data-name="Path 5804" d="M11571.861,938.878a1,1,0,0,1-.118-1.994c27.021-3.237,52.28-24.6,52.532-24.811a1,1,0,0,1,1.3,1.519c-.256.22-25.978,21.97-53.593,25.279A.989.989,0,0,1,11571.861,938.878Z" fill="#db8882"/>
          <path id="Path_5805" data-name="Path 5805" d="M11557.49,975.606c20.213,33.319,128.792,32.125,167.562-7.981l3.043-9.6,14.969,5.753s-4.146,31.51-5.1,32.426-124.18,52.094-124.18,52.094l-88-29.756,10.7-26.845s6.479-3.735,13.2-8.645S11557.49,975.606,11557.49,975.606Z"/>
          <path id="Path_5806" data-name="Path 5806" d="M11592.122,762.462c22.1,35.389,35.076,70.048,47.152,96.327s-6.395,56.17,1.3,55.782,21-16.4,21-16.4-4.676,21.516,1.2,20.212,11.931-13.019,11.931-13.019-.2,9.876,10.792.518,12.064-11.306,12.064-11.306-13.949,13.951-7.7,16.382,34.36-15.573,52.313-37.436a15.316,15.316,0,0,0,2.078,10.541c3.257,5.182,3.424-.11,2.984-3.495s4.52-10.312,23.292-27.978,7.99-13.955,20.487-42.244S11592.122,762.462,11592.122,762.462Z" fill="#ed759d"/>
          <path id="Path_5807" data-name="Path 5807" d="M11974.669,1091.9l-14.868,36.873a.031.031,0,0,1-.019.017l-1.843,2.043-66.467,73.465-6.553,7.25-445.2,78.068-78.385-236.355c35.151-12.06,50.728-23.719,103.691-38.972,31.016-8.927,64.322-14.956,64.322-14.956s31.317,30.122,98.009,21.688,121.385-62.46,121.385-62.46,4.811-1.684,14.151-5.7q1.784-.762,3.781-1.643l.007,0c10.787-4.736,26.337-12.03,46.354-22.561a83.1,83.1,0,0,1,19.182-6.993,112.607,112.607,0,0,1,24.526-3.066l15.541,22.84Z" fill="#fff"/>
          <path id="Path_5808" data-name="Path 5808" d="M11447.668,1060.754c-30.866-17.59-44.982-25.22-93.149-4.682-29.781,12.7-114.5,45.664-128.658,50.128s-11.483,14.857-11.483,14.857,22.258-1.088,31.573,24.625,10.6,65.1,20.248,84.794,19.826,51.112,19.47,66.769,26.861,16.977,37.708,4.909c0,0,22.709-5.97,56.984-6.829s56.75-5.284,80.006-9.175,31.678-52.053,36.828-95.65S11481.485,1080.026,11447.668,1060.754Z" fill="#fff"/>
          <path id="Path_5809" data-name="Path 5809" d="M11752.541,982.806c-67.6,92.823-207.934,74.066-231.5,81.1s-21.972,24.663-21.972,24.663c19.683,46.956,12.266,105.939,11.676,110.223.127-1.952.872-15.468-1.205-42.415-1.77-22.945-11.916-41.979-28.253-53.971a67.6,67.6,0,0,0-14.833-8.242c-12.844-5.174-51.242-.953-89.376,6.555-35.951,7.072-71.666,17.071-85.534,24.859-28.565,16.058-15.9,27.18-16.575,46.037-.651,18.322,5.109,46.959,5.433,48.566a282.825,282.825,0,0,1-9.974-37.993c-3.876-20.786-7.6-42.841-16.575-52.02-8.21-8.419-17.821-2.906-14.022,4.033a32.242,32.242,0,0,0-25.452-13.143s-2.679-10.4,11.48-14.861,98.877-37.429,128.662-50.128q3.527-1.5,6.819-2.81a.107.107,0,0,1,.047-.013c4.165-1.433,8.058-2.861,11.766-4.282,27.574-10.59,45.22-21.236,91.879-34.677,31.016-8.927,64.322-14.956,64.322-14.956s31.317,30.122,98.009,21.688c38.1-4.817,72.291-24.517,94.6-40.526Z" fill="#c9d6e8"/>
          <path id="Path_5810" data-name="Path 5810" d="M11536.476,991.694c12.667,20.283,58.357,32.539,133.645,12.313s57.975-45.985,57.975-45.985l-9.037-3.774s5.766-5.906,18.184-1.529,17.632,4.036,18.986,9.584,6.1,37.528-70.369,65.3-135.378,10.888-160.548-2.43-20.732-31.059-13.163-35.649,30.255-1.491,30.255-1.491Z" fill="#c9d6e8"/>
          <path id="Path_5811" data-name="Path 5811" d="M11607.177,1044.478c-30.35,0-64.956-8.53-79.529-16.437-18.94-10.277-25.011-18.667-22.4-30.959a1.5,1.5,0,1,1,2.933.625c-2.3,10.83,3.164,18.078,20.895,27.7,17.9,9.714,66.7,20.382,99.455,14.324a1.5,1.5,0,1,1,.545,2.949A121.7,121.7,0,0,1,11607.177,1044.478Z" fill="#0d0d0c"/>
          <path id="Path_5812" data-name="Path 5812" d="M11439.864,1289.595l22.87-4.016a17.611,17.611,0,0,1-2.37.568C11453.564,1287.286,11446.839,1288.47,11439.864,1289.595Z" fill="#c9d6e8"/>
          <path id="Path_5813" data-name="Path 5813" d="M11373.151,1048.967c-3.708,1.421-7.6,2.849-11.766,4.282C11365.567,1051.587,11369.469,1050.162,11373.151,1048.967Z" fill="#c9d6e8"/>
          <path id="Path_5814" data-name="Path 5814" d="M11373.151,1048.967c-3.708,1.421-7.6,2.849-11.766,4.282C11365.567,1051.587,11369.469,1050.162,11373.151,1048.967Z" fill="#c9d6e8"/>
          <path id="Path_5815" data-name="Path 5815" d="M12038.3,1023.751c13.095,15.192-.4,49.3-13.769,46.524,0,0-16.566,5.909-39.136,31.716-9.227,10.546-17.652,19.194-25.6,26.783a.031.031,0,0,1-.019.017c-.819.787-1.631,1.552-2.436,2.313l-.015.007c-10.559,9.923-20.332,18.088-30.139,26.537-8.543,7.363-22.705,5.644-39.187-.782-17.974-6.99-38.706-19.581-57.907-32.051-36.821-23.908-74.907-82.7-68.109-121.028,4.441-25.05,7.327-40.224,25.711-55.607,7.292-6.1,17.015-12.224,30.233-19.014,3.921-2.009,8.779-4.569,14.286-7.506,34.926-18.6,95.729-52.438,106.515-59.376,12.489-8.036,25.089-1.893,25.089-1.893s3,.457,8.285,5.639c.276.269.562.552.846.853a.3.3,0,0,1,.067.066c.118.122.238.243.357.364,3.5,3.7,7.87,9.353,12.936,17.994,13.813,23.6,16.669,64.359,25.644,84.373S12028.085,1011.884,12038.3,1023.751Z" fill="#fff"/>
          <path id="Path_5816" data-name="Path 5816" d="M11963.734,872.47c8.07,6.131,14.194,16.733,17.324,33.679s-16.879,18.741-52.127,22.861c-16.062,1.878-38.854,5.7-56.644,12.424-21.258,8.035-35.382,20.19-22.4,38.089,23.557,32.462,36.212,80.149,36.529,81.349,0-.406-.028-2.695-.09-13.761-.08-15.489-3.381-46.78-3.381-46.78,12.363,28.489,13.214,95.694,13.214,95.694s.409,7.455,7.591,16.572,40.082,26.243,53.577,18.514l.015-.007a2.865,2.865,0,0,1,.593-.27l-66.467,73.465c-.919-12.731-2.062-28.348-3.466-47.433q-.368-4.983-.755-10.293c-6.592-89.59-14.5-98.656-25.241-122.271s-32.5-62.784-59.85-73a50.676,50.676,0,0,0-14.46-3.123,51.331,51.331,0,0,0-21.016,3.034c10.787-4.736,26.337-12.03,46.354-22.561a83.1,83.1,0,0,1,19.182-6.993c34.926-18.6,95.729-52.438,106.515-59.376,12.489-8.036,25.089-1.893,25.089-1.893s3,.457,8.285,5.639C11966.229,860.837,11956.075,866.651,11963.734,872.47Z" fill="#c9d6e8"/>
          <path id="Path_5817" data-name="Path 5817" d="M11973.38,867.313a2.693,2.693,0,0,1-.357-.364C11973.141,867.071,11973.261,867.192,11973.38,867.313Z" fill="#c9d6e8"/>
          <path id="Path_5818" data-name="Path 5818" d="M11681.645,586.8c-25.531-28.5-59.477-7.414-100.176-1.508s-84.286,43.272-98.34,76.772-5.126,67.868,4.843,85.182,5.387-.116,3.618-11.786-1.074-21.493,8.678-34.674c0,0-11.668,18.668-.428,56.99,13.453,45.864,25.523,63.878,9.354,83.263-10.663,12.783-26.1,14.888-38.364,9.445s-16.5-22.022-20.153-21.063,2.192,21.525,14.839,33.367,44.566,17.309,71.242-13.312c20.077-23.045,8.673-58.4,5.587-86.623s16.372-51.539,16.372-51.539-18.012,29.544,1.949,81.482c10.654,27.721,5.093,54.751-13.118,64.028-8.79,4.477-2.124,9.467,10.01,1.81,15.89-10.028,39.07-39.52,35.213-68.18-4.159-30.907-1.975-32.1-1.975-32.1s6.21,25.235,32.71,46.185c29.224,23.1,39.924,34.825,42.588,44.959s15.851-.7,11.652-19.965c0,0,11.716,23.138,12.871,32.477s8.928,2.545,9.771-10.685c0,0,2.2,6.564,5.858,6.576s13.392-10.779,13.392-10.779-5.913,15.422,2.3,13.7,17.023-4.476,34.713-21.26,25.436-31.821,25.436-31.821-1.075,29.139,1.441,35.411,4.053-1.065,7.212-8.83,29.073-34.014,38.04-65.84-11.506-100.356-41.337-142.2S11720.3,578.478,11681.645,586.8Z" fill="#ed759d"/>
          <path id="Path_5819" data-name="Path 5819" d="M11786.342,739.248c13.494,58.05,11.794,83.677-7.707,112.654-19.121,28.412-8.479,41.309-6.6,42.279s2.638-15.35,11.223-25.129c20.12-22.917,32.077-23.2,49.779-63.18,25.574-57.756-5.8-142.433-52.109-188.039S11786.342,739.248,11786.342,739.248Z" fill="#ed759d"/>
          <path id="Path_5820" data-name="Path 5820" d="M11766.633,762.315c13.5,58.05,7.03,82.248-19.172,104.3s-18.272,40.358-16.4,41.327,1-7.179,10.94-15.578,53.3-45.576,71.4-85.372-27.139-129.791-73.445-175.4S11766.633,762.315,11766.633,762.315Z" fill="#ed759d"/>
          <path id="Path_5821" data-name="Path 5821" d="M11590.224,762.7c17.957,49.355,40.378,81.641,26.372,104.009s-5.088,17.7,3.473,12.265,22.519-21.034,20.81-41.336-7.894-25.477-7.894-25.477l-35.894-62.767-5.831,2.752Z" fill="#ed759d"/>
          <path id="Path_5822" data-name="Path 5822" d="M11624.865,615.918a105.522,105.522,0,0,0-3.426,29.65,138.819,138.819,0,0,0,1.036,14.879q.864,7.41,2.342,14.736a283.117,283.117,0,0,0,7.46,28.93c2.9,9.546,6.256,18.958,9.7,28.35,3.415,9.4,7.11,18.719,10.523,28.177,1.723,4.717,3.371,9.5,4.884,14.315s2.808,9.7,4,14.6a206.375,206.375,0,0,1,5.016,29.813c.445,5.019.721,10.054.7,15.089a100.34,100.34,0,0,1-1.008,15.037,115.04,115.04,0,0,0-.022-15.008c-.315-4.99-.784-9.966-1.5-14.908a234.634,234.634,0,0,0-6.074-29.281,289.449,289.449,0,0,0-9.436-28.369c-3.639-9.319-7.286-18.673-10.813-28.087-3.509-9.421-6.753-18.959-9.646-28.619a254.769,254.769,0,0,1-6.926-29.465c-.827-4.985-1.482-10-1.882-15.044a141.247,141.247,0,0,1-.377-15.16A94.779,94.779,0,0,1,11624.865,615.918Z" fill="#fff"/>
          <path id="Path_5823" data-name="Path 5823" d="M11659.633,594.86a20.545,20.545,0,0,0-1.452,9.382,39.138,39.138,0,0,0,1.8,9.347,109.786,109.786,0,0,0,7.6,17.554c5.95,11.338,12.726,22.268,19.269,33.362,3.266,5.552,6.509,11.128,9.644,16.776s6.112,11.393,8.93,17.227c2.8,5.844,5.442,11.779,7.7,17.879a191.3,191.3,0,0,1,5.829,18.611,164.768,164.768,0,0,1,5.351,38.578,148.033,148.033,0,0,1-4.455,38.654,159.412,159.412,0,0,1-14.135,36.121c-3.04,5.705-6.381,11.233-9.862,16.654l-5.277,8.087a56.427,56.427,0,0,0-4.819,8.335,56.511,56.511,0,0,1,4.394-8.6l4.93-8.3c3.262-5.539,6.368-11.161,9.16-16.93a188.8,188.8,0,0,0,7.491-17.665,159.887,159.887,0,0,0,5.393-18.36,150.354,150.354,0,0,0,3.683-37.917,168.446,168.446,0,0,0-5.6-37.683,182.49,182.49,0,0,0-5.79-18.19q-3.42-8.914-7.53-17.586c-5.507-11.537-11.692-22.78-18.012-33.977-6.264-11.226-12.767-22.377-18.281-34.1a100.7,100.7,0,0,1-6.8-18.209,40.03,40.03,0,0,1-1.31-9.656A20.387,20.387,0,0,1,11659.633,594.86Z" fill="#fff"/>
          <path id="Path_5824" data-name="Path 5824" d="M11720.386,596.007c4.081,2.529,8.281,4.9,12.229,7.656,2,1.346,4.016,2.66,5.969,4.071l5.817,4.3a168.917,168.917,0,0,1,21.418,19.562,124.89,124.89,0,0,1,27.661,50.876l.992,3.512.785,3.56.779,3.56c.252,1.188.549,2.368.715,3.569l1.166,7.183c.216,1.194.361,2.4.484,3.6l.391,3.611c.6,4.808.78,9.652,1.087,14.481.1,2.418.085,4.844.123,7.264,0,1.211.039,2.421,0,3.632l-.156,3.632a135.02,135.02,0,0,1-4.021,28.738l-.954,3.505-1.129,3.454c-.353,1.158-.793,2.287-1.237,3.414s-.846,2.266-1.378,3.356a50.726,50.726,0,0,1-7.387,12.4,38.707,38.707,0,0,0,3.595-6.209,68.091,68.091,0,0,0,2.764-6.6c.447-1.1.759-2.261,1.141-3.39s.74-2.263,1.021-3.424l.914-3.453.737-3.5a146,146,0,0,0,2.814-28.37l.038-3.569c0-1.189-.079-2.38-.112-3.57-.1-2.379-.115-4.759-.27-7.136-.4-4.748-.661-9.507-1.349-14.223l-.435-3.544c-.128-1.184-.277-2.365-.5-3.533l-1.187-7.03c-.169-1.179-.469-2.327-.722-3.487l-.785-3.471-.786-3.471-.987-3.414-.965-3.42-.483-1.71c-.178-.564-.389-1.118-.581-1.677l-2.36-6.7-2.8-6.517c-.24-.541-.453-1.093-.715-1.623l-.812-1.576-1.61-3.16a133.552,133.552,0,0,0-15.828-23.531,188.4,188.4,0,0,0-20.3-20.088l-5.518-4.59c-1.856-1.514-3.8-2.918-5.681-4.4l-2.846-2.2-2.917-2.106Z" fill="#fff"/>
          <path id="Path_5825" data-name="Path 5825" d="M11759.945,736.12a113.533,113.533,0,0,0-3.547-34.532,182.608,182.608,0,0,0-11.745-32.621c-2.4-5.274-5.041-10.439-7.854-15.511-2.766-5.1-5.808-10.048-8.935-14.943-3.168-4.867-6.488-9.646-10.062-14.234a107.468,107.468,0,0,0-11.617-13.055,80.187,80.187,0,0,1,13.117,11.787,150.4,150.4,0,0,1,11.138,13.738c3.486,4.762,6.643,9.756,9.652,14.835q4.446,7.659,8.191,15.708c2.439,5.383,4.68,10.864,6.583,16.469a135.858,135.858,0,0,1,4.566,17.153C11761.7,712.5,11762.356,724.595,11759.945,736.12Z" fill="#fff"/>
          <path id="Path_5826" data-name="Path 5826" d="M11589.012,738.34c-1.174-3.162-2.177-6.379-3.192-9.6-.858-3.257-1.708-6.527-2.437-9.824a144.98,144.98,0,0,1-2.812-20.087c-.282-3.377-.285-6.779-.293-10.17l.218-5.091c.089-1.7.29-3.39.464-5.078.2-1.688.467-3.372.734-5.047.353-1.668.657-3.338,1.09-4.985a40.248,40.248,0,0,1,3.556-9.522,65.321,65.321,0,0,0-1.624,9.871c-.2,1.645-.291,3.307-.419,4.954-.046,1.661-.2,3.305-.224,4.961-.215,6.615.042,13.234.486,19.843.386,6.616,1.162,13.213,1.892,19.837.459,3.3.88,6.612,1.282,9.938C11588.207,731.65,11588.7,734.967,11589.012,738.34Z" fill="#fff"/>
          <path id="Path_5827" data-name="Path 5827" d="M11508.651,681.571a90.848,90.848,0,0,1,11.143-25.632c1.3-1.952,2.518-3.972,3.937-5.846l2.135-2.807c.718-.931,1.4-1.891,2.189-2.765l2.319-2.662c.778-.882,1.54-1.781,2.387-2.6l2.48-2.511c.826-.839,1.645-1.686,2.536-2.455l2.648-2.333c.881-.78,1.759-1.564,2.7-2.269l2.777-2.177c.925-.725,1.837-1.469,2.83-2.1l2.92-1.977c.972-.658,1.934-1.332,2.957-1.912,2.023-1.192,4-2.458,6.1-3.515a104.236,104.236,0,0,1,26.143-9.866,180.6,180.6,0,0,0-24.586,12.571c-1,.562-1.928,1.231-2.879,1.865l-2.863,1.882c-.971.6-1.88,1.3-2.8,1.975l-2.753,2.032c-.929.662-1.816,1.376-2.7,2.1l-2.662,2.145c-.9.694-1.743,1.465-2.585,2.232l-2.537,2.29c-.874.732-1.677,1.541-2.485,2.342l-2.433,2.4c-1.64,1.585-3.07,3.363-4.649,5.008-.8.816-1.5,1.717-2.227,2.591l-2.182,2.637c-.755.859-1.376,1.817-2.071,2.721l-2.062,2.738A141.938,141.938,0,0,0,11508.651,681.571Z" fill="#fff"/>
        </g>
        <path id="Path_5828" data-name="Path 5828" d="M12044.508,845.88c-13.232,0-25.492-1.068-33.949-4.049a1,1,0,0,1,.664-1.887c28.721,10.123,105.178-2.716,105.946-2.847a1,1,0,0,1,.336,1.971C12115.26,839.451,12076.966,845.88,12044.508,845.88Z" fill="#db8882"/>
        <path id="Path_5829" data-name="Path 5829" d="M11111.344,1240.625a1,1,0,0,1-.617-1.788c.623-.487,62.464-49.191,75.771-93.407a1,1,0,1,1,1.916.576c-13.49,44.827-75.826,93.916-76.455,94.407A1,1,0,0,1,11111.344,1240.625Z" fill="#db8882"/>
        <path id="Path_5830" data-name="Path 5830" d="M11434.405,1305.971a1.5,1.5,0,0,1-1.009-2.609c40.268-36.617,55.643-85.588,55.794-86.078a1.5,1.5,0,1,1,2.866.88c-.151.5-15.746,50.229-56.643,87.417A1.5,1.5,0,0,1,11434.405,1305.971Z" fill="#0d0d0c"/>
        <path id="Path_5831" data-name="Path 5831" d="M11489.211,1258.764a1.5,1.5,0,0,1-1.358-2.136c.2-.421,19.764-42.261,21.169-55.69,3.823-36.55,1.81-68.921-5.984-96.215-7.91-27.7-18.769-39.491-21.907-42.446-12.488-11.754-34.233-16.347-34.452-16.392a1.5,1.5,0,1,1,.606-2.937c.924.189,22.787,4.8,35.9,17.145,14.737,13.87,37.392,59.209,28.82,141.158-1.458,13.929-20.621,54.913-21.436,56.65A1.5,1.5,0,0,1,11489.211,1258.764Z" fill="#0d0d0c"/>
        <path id="Path_5832" data-name="Path 5832" d="M11890.95,1208.325a1.5,1.5,0,0,1-1.5-1.421c-.066-1.247-6.617-124.864-12.347-143.03-5.647-17.9-26.576-64.816-49.359-92.125a1.5,1.5,0,1,1,2.3-1.922c23.048,27.628,44.21,75.05,49.918,93.144,5.843,18.528,12.212,138.67,12.481,143.775a1.5,1.5,0,0,1-1.419,1.577Z" fill="#0d0d0c"/>
        <path id="Path_5833" data-name="Path 5833" d="M11884.8,1115.6q-.047,0-.094,0a1.5,1.5,0,0,1-1.405-1.59c.065-1.042,6.313-104.574-6.229-125.884a1.5,1.5,0,0,1,2.586-1.522c13,22.1,6.905,123.3,6.639,127.592A1.5,1.5,0,0,1,11884.8,1115.6Z" fill="#0d0d0c"/>
      </g>
    </g>
  </g>
</svg>
