<svg xmlns="http://www.w3.org/2000/svg" xmlns:xlink="http://www.w3.org/1999/xlink" width="1920" height="716" viewBox="0 0 1920 716">
  <defs>
    <clipPath id="clip-path">
      <rect id="Rectangle_170" data-name="Rectangle 170" width="1920" height="716" transform="translate(0 364)" fill="none"/>
    </clipPath>
  </defs>
  <g id="Mask_Group_1" data-name="Mask Group 1" transform="translate(0 -364)" clip-path="url(#clip-path)">
    <g id="Group_2436" data-name="Group 2436">
      <g id="Human" transform="translate(-5224.727 5.196)">
        <path id="Path_746" data-name="Path 746" d="M5837.986,1260.194c-15.045,18.2-24.555,2.472-33.227-42.416s-6.311-87.018,79.638-156.78S6002.348,944.153,6026,911.786s18.3-50.345,43.471-69.179,61.59-29.764,69.991-29.906,38.781,7.766,38.781,7.766l15.316,6.675,47.267,18.333-55.609,2.288-16.709,11.362s21.372-.01,34.207,1.407,41.98,8.808,41.98,8.808l-7.317,3.51-48.177,9.867s-26.5,21.905-27.358,22.307,2.245,3.285,8.776.551,33.272-4.215,37.965-.182l-8.3,6.69-81.106,32.891-54.6,51.492-30.265,84.149s14.565-16.274,26.123-16.334,77.7-23.135,122.445-61.765,129.5-50.359,129.5-50.359-26.338-22.6-30.846-58.667c-2.176-17.412-1.087-40.039-1.087-40.039l-.228-23.733s-26-17.779.814-51.2a20.2,20.2,0,0,0,2.134-23.216s-37.806-51.665-22.955-99.7c27.516-88.992,117.609-118.013,172.446-123.795,64.456-6.8,86.69,23.041,86.69,23.041l9.068,10.319s-19.007-4.47-24.553-14.945,23.864-7.671,23.864-7.671l62.5,5.607s-13.8-17.466-31.739-17.17-28.516,2.468-36.939-1.53-5.022-9.028.681-13.657,56.447-3.9,56.447-3.9l-28.352-4.346,20.787-17.762,123.611,69.876-61.327,37.239-78.972,31.94-28.837,118.4-47.546,165.053s86.409-33.671,74.631-19.553,14.787,31.124,20.6,31.162,34.789-19.084,51.645-26.576,102.284-54.3,122.351-62.844,25.237-10.521,25.237-10.521-27.368-19.524-56.2-87.484-58.139-98.619-58.139-98.619-44.77-14.355-56.393-20.324-4.744-15.011-4.744-15.011l36.769,2.345,96.722,21.308L6889.6,795.822l8.7,87.657L6272.62,1199.5Z"/>
        <path id="Path_747" data-name="Path 747" d="M6603.565,613.692c35.609,26.217,48.062,70.328,45.748,98.36s-78.706-13.415-78.706-13.415l-73.477-95.9,73.477-24.653Z"/>
        <g id="Group_253" data-name="Group 253">
          <g id="Group_252" data-name="Group 252">
            <path id="Path_748" data-name="Path 748" d="M6718.236,569.334c-10.28-27.186-32.812-55.071-44.545-63.607s-39.546-25.35-45.8-27.6-30.657,1.158-32.669,4.919c0,0-15.152-.582-22.773,5.563a16.194,16.194,0,0,0-6.151,14.575s-36.8,6.706-44.073,12.626,5.046,11.285,15.805,10.017,30.4-4.811,37.328-3.611,31.711,20.956,31.711,20.956-31.353-7.387-45.3-8.008-35.936,2.713-40.6,3.5-3.577,8.22,2.633,11.363,36.188,3.038,41.153,5.012,33.613,20.468,39.637,24.47a110.337,110.337,0,0,1,10.554,7.981s-11.494.51-19.458-4.212-21.18-11.481-31.754-11.072-11.937,6.709,2.237,14.575,29.049,22.178,49.528,27.211,59.089,19.488,73.308,25.764,39.921-25.734,46.451-31.915S6727.126,592.844,6718.236,569.334Z" fill="#f9cfcc"/>
            <path id="Path_749" data-name="Path 749" d="M6570.607,501.811c6.64-1.4,15.187-3.171,25.766,1.568s33.422,17.421,33.422,17.421" fill="none" stroke="#0d0d0c" stroke-linecap="round" stroke-linejoin="round" stroke-width="2"/>
            <path id="Path_750" data-name="Path 750" d="M6601.111,483.59c7.027.16,14.3,1.824,19.111,4.652s22.1,17.375,22.1,17.375" fill="none" stroke="#0d0d0c" stroke-linecap="round" stroke-linejoin="round" stroke-width="2"/>
            <path id="Path_751" data-name="Path 751" d="M6049.169,908.624c9.077-27.611,30.365-56.458,41.712-65.5s38.4-27.06,44.543-29.585,30.678-.188,32.854,3.482c0,0,15.111-1.246,23,4.559a16.193,16.193,0,0,1,6.784,14.291s37.059,5.085,44.584,10.681-4.546,11.5-15.35,10.7-30.581-3.473-37.451-1.97-30.761,22.326-30.761,22.326,31-8.755,44.9-9.986,36.02,1.134,40.715,1.718,3.934,8.054-2.132,11.467-36.021,4.622-40.894,6.812-32.683,21.923-38.526,26.185a110.493,110.493,0,0,0-10.194,8.436s11.5.005,19.255-5.062,20.656-12.4,31.237-12.453,12.22,6.179-1.595,14.659-28.049,23.431-48.287,29.357-58.177,22.06-72.107,28.954-41.011-23.958-47.807-29.847S6041.318,932.5,6049.169,908.624Z" fill="#f9cfcc"/>
            <path id="Path_752" data-name="Path 752" d="M6188.886,834.91c-9.7.061-24.352,7.322-28.2,9.484s-24.6,13.429-24.6,13.429" fill="none" stroke="#0d0d0c" stroke-linecap="round" stroke-linejoin="round" stroke-width="2"/>
            <path id="Path_753" data-name="Path 753" d="M6164.622,818.85c-9.163,1.944-39.472,17.422-46.051,21.735" fill="none" stroke="#0d0d0c" stroke-linecap="round" stroke-linejoin="round" stroke-width="2"/>
            <path id="Path_754" data-name="Path 754" d="M6110.891,964.612c-17.718,9.746-58.356,80.358-72.256,128.865s-46.587,119.5-102.691,158.3-101.509,41.636-105.443,31.62-11.689-83.782,40.226-141.232c77.042-85.256,156.2-192.042,164.31-205.738S6110.891,964.612,6110.891,964.612Z" fill="#f9cfcc"/>
            <path id="Path_755" data-name="Path 755" d="M5829.883,1281.391c4.187,19.7,84.258,35.49,185.606,13.18s253.5-66.643,253.5-66.643,27.247-193.072-.721-185.72-106.454,26.686-193.33,66.426-202.724,93.6-202.724,93.6Z" fill="#f9cfcc"/>
            <path id="Path_756" data-name="Path 756" d="M6025.377,1131.381c-6.27,14.338-13.736,33.5-20.346,42.857,0,0,45.748,7.231,72.106,43.2s25.975,55.956,25.975,55.956l29.187-7.673-29.315-127.992-34.374-28.555-22.581,11.879Z"/>
            <path id="Path_757" data-name="Path 757" d="M6634.4,957.856c77.656-49.353,210.265-128.177,243.26-141.505s106.478,35.453,105.9,53.225-88.568,111.387-140.983,147.109c-117.559,80.117-174.939,99.512-263.154,165.9Z" fill="#f9cfcc"/>
            <path id="Path_758" data-name="Path 758" d="M6816.467,842.97c37.565,1.571,51.085,154.679,51.085,154.679l-8.933,7.207-64.091-21.187.953-123.277Z"/>
            <path id="Path_759" data-name="Path 759" d="M6648.216,610.726c17.4,15.453,66.446,71.362,95.4,112.806,28.9,41.362,68.425,108.487,130.873,135.932s107.568,21.611,109.528,11.03,4.637-67.264-66.3-131.028c-85.46-76.816-189.81-158.9-200.376-170.809S6648.216,610.726,6648.216,610.726Z" fill="#f9cfcc"/>
            <path id="Path_760" data-name="Path 760" d="M6335.77,722.848c-3.1,13.719-.286,35.177.374,43.454s4.615,11.787.762,21.034-19.237,23.258-21.926,27.865,8.316,15.148,8.316,15.148.4,22.074.3,47.69,10.9,46.44,20.437,51.827,10.724,14.186,54.172,8.947a46.5,46.5,0,0,1-7.107,34.059c-11.237,16.6-25.069,21.387-51,26.076,0,0,33.716,59.018,141.157,59.723s127.106-85.213,127.106-85.213-52.6-14.624-62.292-21.832-18.641-37.527-10.832-63.456c0,0,45.13-24.076,73.078-77.251s3.5-168.343-83.489-187.68S6351.185,654.659,6335.77,722.848Z" fill="#f9cfcc"/>
            <path id="Path_761" data-name="Path 761" d="M6328.478,760.822c9.671,22.7,30,31.19,35.739,30.2s-1.675-5.73-7.229-17.445-9.6-42.759-9.6-42.759l-16.125-10.2Z"/>
            <path id="Path_762" data-name="Path 762" d="M6403.514,937.877c27.635-3.31,53.063-25.044,53.063-25.044" fill="none" stroke="#db8882" stroke-linecap="round" stroke-linejoin="round" stroke-width="2"/>
            <path id="Path_763" data-name="Path 763" d="M6389.142,975.606c20.213,33.319,128.792,32.125,167.563-7.981l3.042-9.6,14.968,5.753s-4.144,31.51-5.1,32.426-124.18,52.094-124.18,52.094l-88-29.756,10.7-26.845s6.479-3.735,13.2-8.645S6389.142,975.606,6389.142,975.606Z"/>
            <path id="Path_764" data-name="Path 764" d="M6432.736,767.777c3.983,26.688,35.382,61.768,44.981,93.48s6.737,45.14,6.737,45.14a74.763,74.763,0,0,0,52.094-2.537s45.779-28.617,66.924-60.279,43.588-85.237,43.588-85.237Z" fill="#c95380"/>
            <path id="Path_765" data-name="Path 765" d="M6365.065,715.822c-2.543,18.392-3.685,40.3,22.027,54.783s27.278,20.509,25.321,24.342.067,11.037,8.251,0,1.532-23.755,1.532-23.755-2.593,6.326,10.54,11.8,58.619,29.2,73.394,40.435,5.123-20.329,5.123-20.329l9.914,35.478,15.741,12.128,8-25.432,57.485-13.845s6.066,3.391,5.674,3.685-.185,5.9,4.457,11.606l7.771-22.073-35.38-48.787-212.87-84.518Z"/>
            <path id="Path_766" data-name="Path 766" d="M6806.321,1091.9l-14.868,36.873a.032.032,0,0,1-.019.017l-1.843,2.043-66.466,73.465-6.553,7.25-445.2,78.068-78.385-236.355c35.151-12.06,50.727-23.719,103.691-38.972,31.016-8.927,64.324-14.956,64.324-14.956s31.316,30.122,98.007,21.688,121.386-62.46,121.386-62.46,4.81-1.684,14.15-5.7q1.785-.762,3.782-1.643l.007,0c10.787-4.736,26.336-12.03,46.353-22.561a83.1,83.1,0,0,1,19.182-6.993,112.61,112.61,0,0,1,24.526-3.066l15.541,22.84Z" fill="#fff"/>
            <path id="Path_767" data-name="Path 767" d="M6279.32,1060.754c-30.866-17.59-44.982-25.22-93.149-4.682-29.782,12.7-114.5,45.664-128.659,50.128s-11.483,14.857-11.483,14.857,22.258-1.088,31.574,24.625,10.6,65.1,20.247,84.794,19.826,51.112,19.47,66.769,26.861,16.977,37.708,4.909c0,0,22.709-5.97,56.984-6.829s56.75-5.284,80.006-9.175,31.678-52.053,36.828-95.65S6313.137,1080.026,6279.32,1060.754Z" fill="#fff"/>
            <path id="Path_768" data-name="Path 768" d="M6584.193,982.806c-67.6,92.823-207.934,74.066-231.5,81.1s-21.972,24.663-21.972,24.663c19.683,46.956,12.266,105.939,11.676,110.223.127-1.952.872-15.468-1.205-42.415-1.768-22.945-11.916-41.979-28.252-53.971a67.617,67.617,0,0,0-14.834-8.242c-12.844-5.174-51.242-.953-89.376,6.555-35.951,7.072-71.666,17.071-85.534,24.859-28.565,16.058-15.9,27.18-16.574,46.037-.653,18.322,5.108,46.959,5.431,48.566a283.406,283.406,0,0,1-9.973-37.993c-3.876-20.786-7.6-42.841-16.575-52.02-8.21-8.419-17.821-2.906-14.023,4.033a32.241,32.241,0,0,0-25.452-13.143s-2.678-10.4,11.48-14.861,98.877-37.429,128.663-50.128q3.528-1.5,6.819-2.81a.109.109,0,0,1,.047-.013c4.166-1.433,8.057-2.861,11.765-4.282,27.576-10.59,45.22-21.236,91.879-34.677,31.016-8.927,64.324-14.956,64.324-14.956s31.316,30.122,98.007,21.688c38.1-4.817,72.291-24.517,94.6-40.526Z" fill="#c9d6e8"/>
            <path id="Path_769" data-name="Path 769" d="M6368.128,991.694c12.667,20.283,58.358,32.539,133.645,12.313s57.974-45.985,57.974-45.985l-9.037-3.774s5.765-5.906,18.183-1.529,17.632,4.036,18.987,9.584,6.1,37.528-70.37,65.3-135.378,10.888-160.547-2.43-20.732-31.059-13.164-35.649,30.255-1.491,30.255-1.491Z" fill="#c9d6e8"/>
            <path id="Path_770" data-name="Path 770" d="M6338.371,997.394c-2.424,11.389,2.9,19.158,21.644,29.328s67.738,20.53,100.444,14.481" fill="none" stroke="#0d0d0c" stroke-linecap="round" stroke-linejoin="round" stroke-width="3"/>
            <path id="Path_771" data-name="Path 771" d="M6271.516,1289.595l22.87-4.016a17.593,17.593,0,0,1-2.37.568C6285.216,1287.286,6278.492,1288.47,6271.516,1289.595Z" fill="#c9d6e8"/>
            <path id="Path_772" data-name="Path 772" d="M6204.8,1048.967c-3.708,1.421-7.6,2.849-11.765,4.282C6197.219,1051.587,6201.122,1050.162,6204.8,1048.967Z" fill="#c9d6e8"/>
            <path id="Path_773" data-name="Path 773" d="M6204.8,1048.967c-3.708,1.421-7.6,2.849-11.765,4.282C6197.219,1051.587,6201.122,1050.162,6204.8,1048.967Z" fill="#c9d6e8"/>
            <path id="Path_774" data-name="Path 774" d="M6869.957,1023.751c13.095,15.192-.4,49.3-13.768,46.524,0,0-16.567,5.909-39.137,31.716-9.226,10.546-17.651,19.194-25.6,26.783a.032.032,0,0,1-.019.017c-.819.787-1.631,1.552-2.434,2.313l-.015.007c-10.56,9.923-20.332,18.088-30.14,26.537-8.543,7.363-22.705,5.644-39.186-.782-17.974-6.99-38.706-19.581-57.907-32.051-36.822-23.908-74.908-82.7-68.11-121.028,4.442-25.05,7.327-40.224,25.711-55.607,7.293-6.1,17.015-12.224,30.235-19.014,3.919-2.009,8.778-4.569,14.285-7.506,34.925-18.6,95.728-52.438,106.515-59.376,12.489-8.036,25.088-1.893,25.088-1.893s3,.457,8.285,5.639c.278.269.562.552.847.853a.32.32,0,0,1,.066.066l.359.364c3.5,3.7,7.869,9.353,12.934,17.994,13.813,23.6,16.669,64.359,25.644,84.373S6859.737,1011.884,6869.957,1023.751Z" fill="#fff"/>
            <path id="Path_775" data-name="Path 775" d="M6795.386,872.47c8.071,6.131,14.195,16.733,17.325,33.679s-16.879,18.741-52.127,22.861c-16.062,1.878-38.855,5.7-56.644,12.424-21.257,8.035-35.382,20.19-22.4,38.089,23.555,32.462,36.211,80.149,36.529,81.349-.006-.406-.029-2.695-.091-13.761-.08-15.489-3.38-46.78-3.38-46.78,12.362,28.489,13.213,95.694,13.213,95.694s.409,7.455,7.591,16.572,40.082,26.243,53.578,18.514l.015-.007a2.854,2.854,0,0,1,.591-.27l-66.466,73.465c-.918-12.731-2.063-28.348-3.466-47.433q-.368-4.983-.755-10.293c-6.592-89.59-14.5-98.656-25.241-122.271s-32.5-62.784-59.849-73a50.682,50.682,0,0,0-14.461-3.123,51.328,51.328,0,0,0-21.015,3.034c10.787-4.736,26.336-12.03,46.353-22.561a83.1,83.1,0,0,1,19.182-6.993c34.925-18.6,95.728-52.438,106.515-59.376,12.489-8.036,25.088-1.893,25.088-1.893s3,.457,8.285,5.639C6797.881,860.837,6787.727,866.651,6795.386,872.47Z" fill="#c9d6e8"/>
            <path id="Path_776" data-name="Path 776" d="M6805.033,867.313a2.631,2.631,0,0,1-.359-.364Z" fill="#c9d6e8"/>
            <path id="Path_777" data-name="Path 777" d="M6553.1,601.366c-10.174-24.261-69.092-45.125-120.366-25.441s-67.084,23.957-85.475,39.993-20.739,11.078-19.957,6.97-4.5-1.761-3.913,5.674a7.83,7.83,0,0,0,7.431,7.627s-20.148,23.873-24.844,44.22,8.726,59.489,14.439,68.19,5.322,2.245,4.148-4.994-2.739-28.892,7.044-44.968c0,0-3.652,33.064,7.043,54.146s38.609,33.866,36.261,27.083-9.13-23.878-8.348-38.287,20.527-46.1,20.527-46.1-16.122,20.854-4.078,46.1c4.078,8.548,9.481,23.523,28.551,33.109s22.109,25.745,19.37,31.224,5.282,3.326,7.826-6.066,1.109-18.847-5.413-26.674c0,0,53.56,26.781,66.308,43.216s14.305,17.028,15.861,25.077,6.67-.5,4.909-10.244c0,0,11.543,13.732,16.826,21.558s18.056-.162,16.687-7.792a5.2,5.2,0,0,0,3.833,4.539c3.8,1.331,15.928-8.061,15.928-8.061s-8.421,9.392-1.57,9.979,17.138-3.627,41.5-40.081c0,0-4.2,13.242.888,19.7s7.043,4.108,5.674-3.131,8.282-13.857,22.63-38.152c11.709-19.826,15.522-94.3-15.143-134.609-20.782-27.314-59.726-42.87-59.726-42.87s3.13-12.108-5.87-22.086-25.362-12.829-22.109-9.978C6552.038,590.8,6553.1,601.366,6553.1,601.366Z" fill="#ed759d"/>
            <path id="Path_778" data-name="Path 778" d="M6456.517,615.918c-15.478,48.271-12.113,78.4,13.326,110.863,29.813,38.05,34.461,77.868,34.461,77.868" fill="none" stroke="#fff" stroke-linecap="round" stroke-linejoin="round" stroke-width="4"/>
            <path id="Path_779" data-name="Path 779" d="M6491.285,594.86c-11.751,24.541,38.582,75.372,54.171,129.416,12.2,42.286-2.132,94.756-7.619,109.849" fill="none" stroke="#fff" stroke-linecap="round" stroke-linejoin="round" stroke-width="4"/>
            <path id="Path_780" data-name="Path 780" d="M6562.739,615.918c48.513,31.231,62.609,67.687,66.385,100.23,6.612,56.979-13.736,78.8-13.736,78.8" fill="none" stroke="#fff" stroke-linecap="round" stroke-linejoin="round" stroke-width="4"/>
            <path id="Path_781" data-name="Path 781" d="M6591.6,736.12c6.732-48.572-33.285-108.828-53.76-124.9" fill="none" stroke="#fff" stroke-linecap="round" stroke-linejoin="round" stroke-width="4"/>
            <path id="Path_782" data-name="Path 782" d="M6420.664,738.341c-13.655-55.239-2.674-79.407-2.674-79.407" fill="none" stroke="#fff" stroke-linecap="round" stroke-linejoin="round" stroke-width="4"/>
            <path id="Path_783" data-name="Path 783" d="M6340.3,681.571c11.891-33.894,40.632-61.384,78.2-73.428" fill="none" stroke="#fff" stroke-linecap="round" stroke-linejoin="round" stroke-width="4"/>
          </g>
          <path id="Path_784" data-name="Path 784" d="M6842.543,840.888c29.294,10.326,106.446-2.806,106.446-2.806" fill="none" stroke="#db8882" stroke-linecap="round" stroke-linejoin="round" stroke-width="2"/>
          <path id="Path_785" data-name="Path 785" d="M6019.107,1145.719c-13.555,45.039-76.112,93.905-76.112,93.905" fill="none" stroke="#db8882" stroke-linecap="round" stroke-linejoin="round" stroke-width="2"/>
          <path id="Path_786" data-name="Path 786" d="M6266.057,1304.471c41.066-37.341,56.219-86.747,56.219-86.747" fill="none" stroke="#0d0d0c" stroke-linecap="round" stroke-linejoin="round" stroke-width="3"/>
          <path id="Path_787" data-name="Path 787" d="M6278.633,1044.417s22.221,4.573,35.177,16.768,37.114,56.172,28.355,139.909c-1.447,13.838-21.3,56.171-21.3,56.171" fill="none" stroke="#0d0d0c" stroke-linecap="round" stroke-linejoin="round" stroke-width="3"/>
          <path id="Path_788" data-name="Path 788" d="M6660.551,970.788c22.682,27.189,43.784,74.075,49.638,92.634s12.414,143.4,12.414,143.4" fill="none" stroke="#0d0d0c" stroke-linecap="round" stroke-linejoin="round" stroke-width="3"/>
          <path id="Path_789" data-name="Path 789" d="M6710.019,987.36c12.922,21.954,6.435,126.738,6.435,126.738" fill="none" stroke="#0d0d0c" stroke-linecap="round" stroke-linejoin="round" stroke-width="3"/>
        </g>
      </g>
      <g id="Pancake_top" data-name="Pancake top" transform="translate(-5224.727 5.196)">
        <g id="Group_255" data-name="Group 255">
          <circle id="Ellipse_31" data-name="Ellipse 31" cx="215.489" cy="215.489" r="215.489" transform="translate(5519.395 425.785)"/>
        </g>
        <g id="Group_263" data-name="Group 263">
          <g id="Group_256" data-name="Group 256">
            <circle id="Ellipse_32" data-name="Ellipse 32" cx="198.965" cy="198.965" r="198.965" transform="translate(5560.979 462.626)" fill="#fff"/>
          </g>
          <g id="Group_257" data-name="Group 257">
            <circle id="Ellipse_33" data-name="Ellipse 33" cx="149.601" cy="149.601" r="149.601" transform="translate(5610.342 511.99)" fill="#c9d6e8"/>
          </g>
          <g id="Group_258" data-name="Group 258">
            <path id="Path_790" data-name="Path 790" d="M5829.487,808.94q-6.328,2.987-12.774,5.387" fill="none" stroke="#0d0d0c" stroke-linecap="round" stroke-linejoin="round" stroke-width="2"/>
            <path id="Path_791" data-name="Path 791" d="M5776.177,823.761a162.982,162.982,0,1,1,137.752-108.91" fill="none" stroke="#0d0d0c" stroke-linecap="round" stroke-linejoin="round" stroke-width="2"/>
          </g>
          <path id="Path_792" data-name="Path 792" d="M5627.829,723.792c-52.014-60.663-38.7-143.485,5.669-181.8,32.425-28,77.535-34.576,101.225-27.52,0,0,19.186-7.825,65.418.539s76.371,58.052,85.453,96.135Z" fill="#080b0a"/>
          <g id="Group_262" data-name="Group 262">
            <circle id="Ellipse_34" data-name="Ellipse 34" cx="121.188" cy="121.188" r="121.188" transform="translate(5584.704 675.004) rotate(-45)" fill="#fdd89b"/>
            <path id="Path_793" data-name="Path 793" d="M5867.63,635.017c11.519,38.08,4.815,81.753-19.717,113.035S5781,796.434,5741.94,788.491c-18.294-3.721-35.281-12.453-50.493-23.27-15.6-11.1-29.741-24.672-39.367-41.2-16.148-27.729-18.154-63.174-5.232-92.485,15.2-34.485,49.334-58.419,86.057-67.227,37.973-9.106,81.682-2.009,109.079,25.834C5854.195,602.552,5862.6,618.375,5867.63,635.017Z" fill="#c78c50"/>
            <g id="Group_260" data-name="Group 260">
              <path id="Path_794" data-name="Path 794" d="M5835.825,601.932a2.445,2.445,0,1,1-1.476-3.128A2.445,2.445,0,0,1,5835.825,601.932Z" fill="#f79922"/>
              <path id="Path_795" data-name="Path 795" d="M5785.977,626.847a2.446,2.446,0,1,1-1.477-3.127A2.445,2.445,0,0,1,5785.977,626.847Z" fill="#f79922"/>
              <circle id="Ellipse_35" data-name="Ellipse 35" cx="0.731" cy="0.731" r="0.731" transform="translate(5817.186 623.946)" fill="#f79922"/>
              <circle id="Ellipse_36" data-name="Ellipse 36" cx="1.79" cy="1.79" r="1.79" transform="translate(5832.819 644.404)" fill="#f79922"/>
              <g id="Group_259" data-name="Group 259">
                <circle id="Ellipse_37" data-name="Ellipse 37" cx="3.482" cy="3.482" r="3.482" transform="translate(5687.474 681.336)" fill="#f79922"/>
              </g>
              <circle id="Ellipse_38" data-name="Ellipse 38" cx="2.201" cy="2.201" r="2.201" transform="translate(5830.135 715.337)" fill="#f79922"/>
              <circle id="Ellipse_39" data-name="Ellipse 39" cx="3.692" cy="3.692" r="3.692" transform="translate(5793.407 722.901)" fill="#f79922"/>
              <path id="Path_796" data-name="Path 796" d="M5706.3,732.488a2.862,2.862,0,1,1-1.727-3.661A2.861,2.861,0,0,1,5706.3,732.488Z" fill="#f79922"/>
              <path id="Path_797" data-name="Path 797" d="M5740.009,724.242a1.334,1.334,0,1,1-.8-1.706A1.333,1.333,0,0,1,5740.009,724.242Z" fill="#f79922"/>
              <circle id="Ellipse_40" data-name="Ellipse 40" cx="4.02" cy="4.02" r="4.02" transform="translate(5670.679 646.999)" fill="#f79922"/>
              <circle id="Ellipse_41" data-name="Ellipse 41" cx="1.827" cy="1.827" r="1.827" transform="translate(5767.01 591.093)" fill="#f79922"/>
              <circle id="Ellipse_42" data-name="Ellipse 42" cx="4.385" cy="4.385" r="4.385" transform="translate(5697.751 589.629)" fill="#f79922"/>
              <path id="Path_798" data-name="Path 798" d="M5801.649,597.757l-1.166-.418-1.166-.418,1.166.418Z" fill="#f79922"/>
              <path id="Path_799" data-name="Path 799" d="M5841.7,703.6a2.875,2.875,0,1,1-1.736-3.677A2.876,2.876,0,0,1,5841.7,703.6Z" fill="#f79922"/>
              <circle id="Ellipse_43" data-name="Ellipse 43" cx="2.201" cy="2.201" r="2.201" transform="translate(5794.968 685.401)" fill="#f79922"/>
              <circle id="Ellipse_44" data-name="Ellipse 44" cx="2.201" cy="2.201" r="2.201" transform="translate(5718.591 626.961)" fill="#f79922"/>
              <path id="Path_800" data-name="Path 800" d="M5806.531,673.664a2.875,2.875,0,1,1-1.735-3.677A2.875,2.875,0,0,1,5806.531,673.664Z" fill="#f79922"/>
              <circle id="Ellipse_45" data-name="Ellipse 45" cx="4.614" cy="4.614" r="4.614" transform="translate(5751.335 756.087)" fill="#f79922"/>
              <circle id="Ellipse_46" data-name="Ellipse 46" cx="2.558" cy="2.558" r="2.558" transform="translate(5657.902 721.705)" fill="#fcb830"/>
              <path id="Path_801" data-name="Path 801" d="M5652.341,694.621a3.6,3.6,0,1,1-2.173-4.6A3.6,3.6,0,0,1,5652.341,694.621Z" fill="#fcb830"/>
              <circle id="Ellipse_47" data-name="Ellipse 47" cx="1.431" cy="1.431" r="1.431" transform="translate(5651.088 710.245)" fill="#fcb830"/>
              <circle id="Ellipse_48" data-name="Ellipse 48" cx="1.644" cy="1.644" r="1.644" transform="translate(5861.708 629.431)" fill="#fcb830"/>
            </g>
            <circle id="Ellipse_49" data-name="Ellipse 49" cx="121.188" cy="121.188" r="121.188" transform="translate(5599.73 650.913) rotate(-45)" fill="#fdd89b"/>
            <path id="Path_802" data-name="Path 802" d="M5882.656,610.927c11.519,38.08,4.815,81.753-19.717,113.035s-66.913,48.381-105.973,40.439c-18.293-3.721-35.28-12.453-50.492-23.27-15.6-11.1-29.741-24.673-39.368-41.2-16.148-27.728-18.153-63.174-5.232-92.484,15.2-34.485,49.334-58.42,86.058-67.227,37.972-9.106,81.682-2.01,109.078,25.834C5869.221,578.462,5877.622,594.284,5882.656,610.927Z" fill="#c78c50"/>
            <path id="Path_803" data-name="Path 803" d="M5842.138,583.248c15.75,18.242,28.245,39.267,32.455,63.3a150.877,150.877,0,0,1,1.332,41.88c.011-.036.024-.071.035-.106,9.033-29.907,5.74-62.783-5.989-91.739-6.223-15.365-15.163-30.24-28.779-39.7-11.822-8.211-26.272-11.728-40.544-13.595-.84-.11-1.684-.2-2.526-.3C5814.826,553.867,5830,569.194,5842.138,583.248Z" fill="#fdd89b"/>
            <path id="Path_804" data-name="Path 804" d="M5845.719,702.929a124.24,124.24,0,0,0-92.41-163.847c-1.8.355-3.6.709-5.377,1.135-36.723,8.807-70.856,32.742-86.058,67.227-12.921,29.31-10.916,64.756,5.232,92.485,9.626,16.529,23.763,30.1,39.368,41.2,15.212,10.817,32.2,19.549,50.493,23.269a101.391,101.391,0,0,0,41.289-.452A123.678,123.678,0,0,0,5845.719,702.929Z" fill="#080b0a"/>
            <path id="Path_805" data-name="Path 805" d="M5798.256,763.948c-10.541,2.354-17.772,4.038-18.755,7.891,0,0-30.211,13.326-63.14,3.992L5784,752.215Z" fill="#080b0a"/>
            <g id="Group_261" data-name="Group 261">
              <circle id="Ellipse_50" data-name="Ellipse 50" cx="121.188" cy="121.188" r="121.188" transform="translate(5556.324 655.148) rotate(-45)" fill="#fdd89b"/>
              <path id="Path_806" data-name="Path 806" d="M5839.25,615.161c11.519,38.081,4.815,81.754-19.717,113.036s-66.913,48.381-105.973,40.438c-18.293-3.72-35.28-12.453-50.492-23.269-15.6-11.1-29.741-24.673-39.368-41.2-16.148-27.728-18.153-63.174-5.232-92.485,15.2-34.484,49.335-58.419,86.058-67.226,37.972-9.107,81.682-2.01,109.078,25.834C5825.815,582.7,5834.216,598.519,5839.25,615.161Z" fill="#c78c50"/>
              <path id="Path_807" data-name="Path 807" d="M5704.392,569.741a22.757,22.757,0,0,0-4.469,3.509c-3.552,3.543-6.714,7.723-11.257,9.854-7.168,3.361-15.725.738-23.457,2.439a21.211,21.211,0,0,0-14.938,29.067c4.86,11.345,14.981,18.8,9.832,32.542-4.32,11.532-16.483,21.362-12.883,34.958,2.41,9.1,11.712,14.413,20.439,17.942s18.368,6.757,23.716,14.5c3.3,4.782,4.488,10.684,6.991,15.929s7.252,10.256,13.057,9.976c6.258-.3,10.437-6.34,15.727-9.7,5.9-3.743,13.325-4.107,20.285-3.483s13.893,2.12,20.867,1.667,14.286-3.286,17.894-9.27c5.673-9.406.012-17.452-1.482-26.678a28.536,28.536,0,0,1,6.375-23.029c3.358-3.848,7.707-6.7,11.321-10.306s6.59-8.449,6.023-13.525c-.7-6.3-6.425-10.682-11.756-14.114s-11.232-7.315-12.709-13.481c-1.287-5.366,1.21-10.844,1.727-16.338a22.836,22.836,0,0,0-31.9-23.054c-3.639,1.595-6.817,4.118-10.479,5.658-12.033,5.06-15.439-6.171-22.226-13.041C5715.913,566.535,5709.8,566.548,5704.392,569.741Z" fill="#fafafa"/>
              <path id="Path_808" data-name="Path 808" d="M5787.4,666.692a25.285,25.285,0,0,0-5.984,28.717c-5.889-2.215-7.491-10.161-5.571-16.152s6.235-10.885,9.073-16.5,3.905-13.07-.327-17.726c-2.5-2.749-6.293-3.9-9.234-6.166-5.866-4.531-7.426-12.725-7.338-20.137s1.369-14.978-.539-22.141-8.449-13.91-15.769-12.74a19.254,19.254,0,0,1,30.4,14.08c.373,4.537-.867,9.06-.838,13.612a24.776,24.776,0,0,0,7.61,17.581c3.081,2.93,6.87,5.008,10.123,7.746s6.08,6.485,6.122,10.737c.044,4.523-3.071,8.5-6.635,11.285S5790.788,663.689,5787.4,666.692Z" fill="#c9d6e8"/>
              <path id="Path_809" data-name="Path 809" d="M5653.8,598.929c.937-4.851,5.63-8.172,10.4-9.44s9.807-1,14.715-1.556a43.964,43.964,0,0,0,28.489-15.383c-2.133,4.891-4.3,9.836-7.539,14.074s-7.723,7.765-12.961,8.784c-5.737,1.116-11.563-.845-17.357-1.617S5656.9,593.968,5653.8,598.929Z" fill="#c9d6e8"/>
              <path id="Path_810" data-name="Path 810" d="M5700.378,723.894c1.294,3.151,2.238,6.487,4.118,9.327s4.994,5.177,8.392,4.958c4.722-.3,7.67-5.015,11.179-8.189a20.355,20.355,0,0,1,20.108-3.974c-2.48-3.223-7.2-3.876-11.153-2.925s-7.462,3.175-11.186,4.808-8.045,2.671-11.816,1.15c-5.455-2.2-7.573-8.587-10.5-13.69a34.451,34.451,0,0,0-27.675-16.966A44.523,44.523,0,0,1,5700.378,723.894Z" fill="#c9d6e8"/>
            </g>
          </g>
        </g>
      </g>
      <g id="Fork" transform="translate(-5224.727 5.196)">
        <path id="Path_811" data-name="Path 811" d="M5975.466,518.385l-.883-3.44s-.819-.809,2.573-1.883l52.558-15.111s.951-1.059-3.784-.456l-51.813,11.661s-1.655-.594-2.119-4.142l53.98-15.273s3.769-1.985-.534-1.289l-54.5,12.758s-2.21-4.322.133-4.719l54.429-15.8s2.27-3.027-9,.68L5969.9,491.9s-3.7-1.7-.887-4.255l52.635-17.983s21.983-5.639,28.954-.7c0,0,11.95,5.288,15.2,4.454l77.124-21.005,77.839-21.393s14.774-3.935,17.775,1.408c0,0,4.7,8.778-.4,12.734l-98.471,22.348-70.5,16.657a19.471,19.471,0,0,0-8.562,8.716,35.106,35.106,0,0,1-20.07,13.094s-38.707,10.336-55.166,11.3Z"/>
        <path id="Path_812" data-name="Path 812" d="M5986.066,522.22l-.882-3.441s-.819-.808,2.573-1.882l52.558-15.112s.951-1.058-3.784-.455l-51.814,11.661s-1.654-.6-2.119-4.143l53.981-15.272s3.769-1.986-.534-1.289l-54.5,12.758s-2.21-4.323.132-4.72l54.429-15.8s2.271-3.027-9,.68l-46.6,10.528s-3.7-1.7-.888-4.255l52.636-17.984s21.983-5.638,28.954-.7c0,0,11.95,5.287,15.2,4.454l77.124-21.005,77.839-21.393s7.205-3.682,10.205,1.661c0,0,4.7,8.778-.4,12.734l-90.9,22.1L6079.766,488a19.467,19.467,0,0,0-8.562,8.715,35.106,35.106,0,0,1-20.071,13.094s-38.706,10.336-55.166,11.3Z" fill="#fff"/>
        <path id="Path_813" data-name="Path 813" d="M6077.9,487.456s-3.011-2.209-2.943-4.326a45.785,45.785,0,0,1,.553-4.993s-11.442-2.111-12.874-3.726c0,0,4.121,4.749,4.54,8.767,0,0,2.247,9.356.7,15.253,0,0,3.018-5.511,4.7-6.706C6072.572,491.725,6076.643,486.588,6077.9,487.456Z" fill="#c9d6e8"/>
        <path id="Path_814" data-name="Path 814" d="M6240,447.1s4.255-7.051-3.015-11.756l-161.485,42.8-.216,1.441L6230.234,438.6s6.607-2.459,7.932,1.327C6238.166,439.928,6240.585,443.586,6240,447.1Z" fill="#c9d6e8"/>
        <path id="Path_815" data-name="Path 815" d="M5978.571,493.15s1.443,2.3,2.781,1.957l47.224-10.891,3.918-1.005s3.264-1.009,3.745.584c0,0-1.642-.279-11.26,1.893l-36.388,8.221-8.095,1.829S5978.024,494.3,5978.571,493.15Z" fill="#fff"/>
      </g>
      <g id="Mayonnaise" transform="translate(-5224.727 5.196)">
        <ellipse id="Ellipse_51" data-name="Ellipse 51" cx="70.785" cy="75.897" rx="70.785" ry="75.897" transform="matrix(0.841, -0.541, 0.541, 0.841, 5340.267, 868.232)"/>
        <path id="Path_816" data-name="Path 816" d="M5487.773,958.394a67.223,67.223,0,1,1,20.138-92.91A67.223,67.223,0,0,1,5487.773,958.394Z" fill="#fff"/>
        <path id="Path_817" data-name="Path 817" d="M5500.975,869.87a58.776,58.776,0,0,0-33.948-24.944c-6.645-1.826-13.5-2.274-20.186-3.8a10.876,10.876,0,0,1-4.329-1.739,4.212,4.212,0,0,1-1.736-4.1,2.336,2.336,0,0,0,.145-1.229c-.266-.821-1.449-.748-2.266-.47-9.213,3.136-16.084,10.743-22.365,18.177-6.911,8.18-14.448,16.12-18.847,26.013a59.019,59.019,0,1,0,103.532-7.91Z" fill="#fdd89b"/>
        <path id="Path_818" data-name="Path 818" d="M5488.037,948.047a58.953,58.953,0,0,0,5.516-4.96" fill="none" stroke="#0d0d0c" stroke-linecap="round" stroke-linejoin="round" stroke-width="2"/>
        <path id="Path_819" data-name="Path 819" d="M5416.29,851.767c-6.911,8.18-14.448,16.12-18.847,26.013a59.025,59.025,0,0,0,80.613,76.667" fill="none" stroke="#0d0d0c" stroke-linecap="round" stroke-linejoin="round" stroke-width="2"/>
        <path id="Path_820" data-name="Path 820" d="M5509.7,910.691a58.959,58.959,0,0,0-42.67-65.765c-6.645-1.826-13.5-2.274-20.186-3.8" fill="none" stroke="#0d0d0c" stroke-linecap="round" stroke-linejoin="round" stroke-width="2"/>
        <path id="Path_821" data-name="Path 821" d="M5475.448,926.569a51.864,51.864,0,0,1-16.831,7.1,4.073,4.073,0,0,0-1.989.844,1.34,1.34,0,0,0-.1,1.928,1.9,1.9,0,0,0,1.135.286,101.437,101.437,0,0,0,19.989-1.7,27.687,27.687,0,0,0,8.639-2.488c5.746-3.081,8.839-9.771,9.263-16.277s-1.4-12.931-3.364-19.149c-1,.055-1.335,1.348-1.428,2.347-.715,7.622-3.411,15.329-8.53,21.221A34.044,34.044,0,0,1,5475.448,926.569Z" fill="#edc080"/>
        <path id="Path_822" data-name="Path 822" d="M5420.557,892.047c-.007-.091-.016-.182-.027-.273-4.422,3.228-6.38,8.579-7.868,13.633a26.19,26.19,0,0,0-1.261,9.54c.2,2.4.763,6.529,2.651,8.223a2.356,2.356,0,0,0,2.706.44,3.468,3.468,0,0,0,1.191-2.7c.29-2.51.531-5.025.771-7.54q.858-8.965,1.716-17.931A18.888,18.888,0,0,0,5420.557,892.047Z" fill="#edc080"/>
        <path id="Path_823" data-name="Path 823" d="M5475.35,862.834c-.365-.019-1.777-1.955-2.071-2.231a27.218,27.218,0,0,0-6.674-4.566c-8.33-4.059-17.792-3.067-26.731-2.58a31.875,31.875,0,0,0-4.119.4,1.135,1.135,0,0,0-.6.244c-.4.394-.063,1.072.306,1.5,5.745,6.657,14.47,5.9,22.447,6.315Z" fill="#edc080"/>
        <path id="Path_824" data-name="Path 824" d="M5399.13,899.705c-.686,9.4,1.907,18.912,6.272,27.212a2.45,2.45,0,0,0,.781,1,.868.868,0,0,0,1.151-.141,1.262,1.262,0,0,0,.16-.574c.381-3.312-.623-6.377-1.183-9.663q-.969-5.687-1.494-11.437t-.6-11.518c-.015-1.1-.461-10.907.267-11.134C5400.241,884.766,5399.4,895.966,5399.13,899.705Z" fill="#edc080"/>
        <path id="Path_825" data-name="Path 825" d="M5421.352,862.976a24.812,24.812,0,0,1-1.111,3.523,7.562,7.562,0,0,1-1.4,2.4c-2.424,2.571-4.288.491-3.867-2.22a24.258,24.258,0,0,1,2.291-6.134,15.859,15.859,0,0,1,4.521-6.035c.169-.131.392-.263.582-.164s.207.39.184.617A61.675,61.675,0,0,1,5421.352,862.976Z" fill="#edc080"/>
      </g>
      <path id="Path" d="M5716.315,1162.47l55.437-114.175,173.086-156.39,72.644-110.592,183.858-53.64-13.782-88.1s10.336-74.768,93-135.628,218.85-62.214,218.85-62.214l127.762-22.148s77.644,20.758,105.155,48.543,72.466,98.817,72.466,98.817S6957,665.648,7000.556,705.8s57.314,152.63,57.314,152.63L7041.822,951.1l-113.481,85.979L6868,1145.719" transform="translate(-5224.727 5.196)" fill="none" stroke="#fff" stroke-miterlimit="10" stroke-width="35"/>
      <g id="No.1" transform="translate(-5224.727 5.196)">
        <path id="Path_827" data-name="Path 827" d="M6855.786,481.853,6831.04,363.82l169.9,128.023Z"/>
        <g id="Group_267" data-name="Group 267">
          <path id="Path_828" data-name="Path 828" d="M6937.269,534.729l56.739-126.739-82.367-48.865-55.855,122.728Z" fill="#ed759d"/>
          <path id="Path_829" data-name="Path 829" d="M6897.547,485.165l30.563-66.277-13.758-4.8,6.616-14.347,31.279,11.345-38.291,83.037Z" fill="#fff"/>
          <path id="Path_830" data-name="Path 830" d="M6994.008,407.99l6.936,83.853-63.675,42.885Z" fill="#a52959"/>
          <path id="Path_831" data-name="Path 831" d="M6937.269,534.729l44.176-57.492,12.563-69.246Z"/>
          <path id="Path_832" data-name="Path 832" d="M7000.943,491.843l-27.185-20.484,20.25-63.369Z"/>
        </g>
      </g>
      <g id="No.2" transform="translate(-5224.727 5.196)">
        <path id="Path_833" data-name="Path 833" d="M5319.812,689.32l-56.039-83.61,96.261-51.685,104.934,125.3Z"/>
        <g id="Group_269" data-name="Group 269">
          <path id="Path_834" data-name="Path 834" d="M5383.487,732.206l-56.739-126.739,82.367-48.865,55.854,122.728Z" fill="#ed759d"/>
          <path id="Path_835" data-name="Path 835" d="M5326.748,605.467l-6.936,83.853,63.675,42.885Z" fill="#a52959"/>
          <path id="Path_836" data-name="Path 836" d="M5326.748,605.467l17.013,67.75-23.949,16.1,26.688-8.473,36.987,51.358Z"/>
        </g>
        <path id="Path_837" data-name="Path 837" d="M5388.7,698.885l-3.59-8.295a64.087,64.087,0,0,1,2.727-18.289q2.7-9,6.382-18.5,2.736-7.187,4.457-11.866a58.348,58.348,0,0,0,2.4-7.954,19.124,19.124,0,0,0,.351-6.116,23.218,23.218,0,0,0-1.878-6.417q-5.136-11.87-19.26-3.639a54.494,54.494,0,0,0-9.046,6.63,75.96,75.96,0,0,0-7.795,8.138l-6.572-15.187a75.75,75.75,0,0,1,9.461-8.789,93.74,93.74,0,0,1,11.137-7.688q13.4-7.812,23.233-4.67t15.075,15.266a29.425,29.425,0,0,1,2.323,16.624,83.824,83.824,0,0,1-5.061,17.572q-2.92,7.455-5.5,14.31a64.6,64.6,0,0,0-3.528,13.322l31.48-18.344,5.744,13.273Z" fill="#fff"/>
      </g>
    </g>
  </g>
</svg>
