<svg xmlns="http://www.w3.org/2000/svg" xmlns:xlink="http://www.w3.org/1999/xlink" width="375" height="615" viewBox="0 0 375 615">
  <defs>
    <clipPath id="clip-path">
      <rect id="Rectangle_129" data-name="Rectangle 129" width="375" height="615" transform="translate(0 197)" fill="none"/>
    </clipPath>
  </defs>
  <g id="Mask_Group_2" data-name="Mask Group 2" transform="translate(0 -197)" clip-path="url(#clip-path)">
    <g id="window" transform="translate(-388 197)">
      <g id="Group_116" data-name="Group 116" transform="translate(0 0)">
        <rect id="Rectangle_4" data-name="Rectangle 4" width="870.275" height="567.5" transform="translate(0 31.588)" opacity="0"/>
        <path id="Path_576" data-name="Path 576" d="M3768.7,473.975,3655.087,599.893V718.338l4.544,134.733h237.348L3770.613,726.483Z" transform="translate(-3178.238 -192.987)" fill="#2674bc"/>
        <path id="Path_577" data-name="Path 577" d="M3769.481,677.193l-114.394,132.4v40.337l9.013-30.854L3769.591,696.06Z" transform="translate(-3178.238 -292.156)" fill="#155aa7"/>
        <g id="Group_112" data-name="Group 112" transform="translate(89.128 0)" opacity="0.2">
          <g id="Group_110" data-name="Group 110" transform="translate(527.637)">
            <line id="Line_18" data-name="Line 18" x1="113.264" y2="167.492" transform="translate(24.358)" fill="none" stroke="#fff" stroke-miterlimit="10" stroke-width="2"/>
            <path id="Path_578" data-name="Path 578" d="M4025.83,292.217l-12.875,18.833V631.208l122.485,68.52" transform="translate(-4012.955 -104.29)" fill="none" stroke="#fff" stroke-miterlimit="10" stroke-width="2"/>
            <line id="Line_19" data-name="Line 19" y2="341.072" transform="translate(28.882 186.247)" fill="none" stroke="#fff" stroke-miterlimit="10" stroke-width="2"/>
            <line id="Line_20" data-name="Line 20" y2="47.282" transform="translate(63.331 123.549)" fill="none" stroke="#fff" stroke-miterlimit="10" stroke-width="2"/>
            <line id="Line_21" data-name="Line 21" y2="59.838" transform="translate(103.695 69.855)" fill="none" stroke="#fff" stroke-miterlimit="10" stroke-width="2"/>
            <line id="Line_22" data-name="Line 22" y2="77.769" transform="translate(151.135)" fill="none" stroke="#fff" stroke-miterlimit="10" stroke-width="2"/>
          </g>
          <g id="Group_111" data-name="Group 111">
            <line id="Line_23" data-name="Line 23" x2="113.264" y2="167.492" transform="translate(13.513)" fill="none" stroke="#fff" stroke-miterlimit="10" stroke-width="2"/>
            <path id="Path_579" data-name="Path 579" d="M3000.308,292.217l12.875,18.833V631.208L2890.7,699.728" transform="translate(-2862.048 -104.29)" fill="none" stroke="#fff" stroke-miterlimit="10" stroke-width="2"/>
            <line id="Line_24" data-name="Line 24" y2="341.072" transform="translate(122.254 186.247)" fill="none" stroke="#fff" stroke-miterlimit="10" stroke-width="2"/>
            <line id="Line_25" data-name="Line 25" y2="268.134" transform="translate(87.804 123.549)" fill="none" stroke="#fff" stroke-miterlimit="10" stroke-width="2"/>
            <line id="Line_26" data-name="Line 26" y2="463.192" transform="translate(47.44 98.143)" fill="none" stroke="#fff" stroke-miterlimit="10" stroke-width="2"/>
            <line id="Line_27" data-name="Line 27" y2="281.825" fill="none" stroke="#fff" stroke-miterlimit="10" stroke-width="2"/>
            <line id="Line_28" data-name="Line 28" x2="48.27" transform="translate(151.135 206.76)" fill="none" stroke="#fff" stroke-miterlimit="10" stroke-width="2"/>
          </g>
          <line id="Line_29" data-name="Line 29" x1="230.8" transform="translate(296.837 526.918)" fill="none" stroke="#fff" stroke-miterlimit="10" stroke-width="2"/>
        </g>
        <g id="Group_115" data-name="Group 115" transform="translate(673.525 46.726)">
          <g id="Group_114" data-name="Group 114" transform="translate(0 0)">
            <path id="Path_580" data-name="Path 580" d="M4208.76,217.089l69.174-75.348V481.961l-69.174-19.19Z" transform="translate(-4172.302 -77.584)"/>
            <g id="Group_113" data-name="Group 113">
              <rect id="Rectangle_5" data-name="Rectangle 5" width="30.019" height="245.682" transform="translate(6.439 139.505)" fill="#fff"/>
              <path id="Path_581" data-name="Path 581" d="M4171.264,308.62l-17.843,22.918V534.586h-12.176V288.9h30.019Z" transform="translate(-4134.806 -149.399)" fill="#2674bc"/>
              <path id="Path_582" data-name="Path 582" d="M4154.608,429.1,4133.2,443.484l-6.438,10.42V433.865l6.438-8.6,12.177-7.279Z" transform="translate(-4126.764 -212.388)" fill="#155aa7"/>
              <path id="Path_583" data-name="Path 583" d="M4171.264,185.49l69.174-75.348V76.988l-99.193,108.5Z" transform="translate(-4134.806 -45.984)" fill="#2674bc"/>
              <path id="Path_584" data-name="Path 584" d="M4133.2,155.94l-6.438-4.609,117.719-134.9-12.087,31Z" transform="translate(-4126.764 -16.434)" fill="#155aa7"/>
              <path id="Path_585" data-name="Path 585" d="M4171.264,768.749l69.174,19.19v9.651l-99.193-28.841Z" transform="translate(-4134.806 -383.561)" fill="#fff"/>
              <path id="Path_586" data-name="Path 586" d="M4364.337,47.438V430.463l12.087,11.716V16.434Z" transform="translate(-4258.706 -16.434)" fill="#155aa7"/>
              <path id="Path_587" data-name="Path 587" d="M4126.764,279.9V533.878l6.438-3.685V284.511Z" transform="translate(-4126.764 -145.006)" fill="#155aa7"/>
              <path id="Path_588" data-name="Path 588" d="M4126.764,772.433l117.719,36.872L4232.4,797.59,4133.2,768.749Z" transform="translate(-4126.764 -383.561)" fill="#155aa7"/>
              <rect id="Rectangle_6" data-name="Rectangle 6" width="5.228" height="425.744" transform="translate(117.719)" fill="#155aa7"/>
              <path id="Path_589" data-name="Path 589" d="M4168.631,362.675l87.016-58.028V319.91l-87.016,53.884Z" transform="translate(-4150.015 -157.081)" fill="#155aa7"/>
              <path id="Path_590" data-name="Path 590" d="M4168.631,388.341h9.228l77.788-46.068v-7.815Z" transform="translate(-4150.015 -171.628)" fill="#fff"/>
            </g>
          </g>
          <line id="Line_30" data-name="Line 30" y1="14.82" x2="25.029" transform="translate(30.367 200.398)" fill="none" stroke="#0d0d0c" stroke-linecap="round" stroke-linejoin="round" stroke-width="2"/>
          <line id="Line_31" data-name="Line 31" x2="22.759" transform="translate(6.439 139.505)" fill="none" stroke="#0d0d0c" stroke-linecap="round" stroke-linejoin="round" stroke-width="2"/>
          <path id="Path_591" data-name="Path 591" d="M4141.245,768.749h30.019l9.141,2.536" transform="translate(-4134.806 -383.561)" fill="none" stroke="#0d0d0c" stroke-linecap="round" stroke-linejoin="round" stroke-width="2"/>
          <line id="Line_32" data-name="Line 32" y1="173.577" transform="translate(36.458 211.611)" fill="none" stroke="#0d0d0c" stroke-linecap="round" stroke-linejoin="round" stroke-width="2"/>
          <line id="Line_33" data-name="Line 33" x1="49.597" y1="13.759" transform="translate(56.036 390.618)" fill="none" stroke="#0d0d0c" stroke-linecap="round" stroke-linejoin="round" stroke-width="2"/>
          <line id="Line_34" data-name="Line 34" y1="1.475" x2="2.49" transform="translate(57.59 197.621)" fill="none" stroke="#0d0d0c" stroke-linecap="round" stroke-linejoin="round" stroke-width="2"/>
        </g>
      </g>
    </g>
  </g>
</svg>
