<svg id="Group_1136" data-name="Group 1136" xmlns="http://www.w3.org/2000/svg" xmlns:xlink="http://www.w3.org/1999/xlink" width="957.573" height="406.956" viewBox="0 0 957.573 406.956">
  <defs>
    <clipPath id="clip-path">
      <path id="Path_1840" data-name="Path 1840" d="M7464.213,324.371c-381.614-55.757-681.4-158.837-943.454-324.4l52.159-82.557c250.093,158.007,537.795,256.616,905.414,310.328Z" transform="translate(-6520.759 82.585)" fill="none"/>
    </clipPath>
  </defs>
  <path id="Path_1818" data-name="Path 1818" d="M6695.975-51.233c143.088,101.546,490.879,217.985,490.879,217.985l-4.686,35.112L6684.505,48.427,6631.72-59.7Z" transform="translate(-6522.647 82.196)"/>
  <g id="Group_1135" data-name="Group 1135">
    <g id="Group_1134" data-name="Group 1134" clip-path="url(#clip-path)">
      <g id="Group_1133" data-name="Group 1133">
        <g id="Group_1130" data-name="Group 1130">
          <path id="Path_1819" data-name="Path 1819" d="M7464.213,324.371c-381.614-55.757-681.4-158.837-943.454-324.4l52.159-82.557c250.093,158.007,537.795,256.616,905.414,310.328Z" transform="translate(-6520.759 82.585)" fill="#edde1d"/>
        </g>
        <g id="Group_1131" data-name="Group 1131" transform="translate(148.717 87.242)">
          <path id="Path_1820" data-name="Path 1820" d="M6685.946,73.17q-11.717-6.163-13.55-17.63t6.066-26.483q8.15-15.5,18.528-20.6t22.3,1.165A30.718,30.718,0,0,1,6726,14.251a33.08,33.08,0,0,1,4.768,5.561l-8.25,15.687a25.63,25.63,0,0,0-10.408-10.115q-6.094-3.206-11.127-.785t-9.663,11.22q-4.529,8.609-3.4,14.025t7.018,8.515a25.874,25.874,0,0,0,6.714,2.432,27.961,27.961,0,0,0,7.468.509l-8.3,15.783a34.346,34.346,0,0,1-7.242-.94A32.948,32.948,0,0,1,6685.946,73.17Z" transform="translate(-6672.05 -6.167)"/>
          <path id="Path_1821" data-name="Path 1821" d="M6704.628,81.635l30.915-62.361L6758.25,30.53a14.947,14.947,0,0,1,7.385,7.16,18.709,18.709,0,0,1,1.253,10.332,40.111,40.111,0,0,1-4.041,12.411,29.364,29.364,0,0,1-7.7,9.995,19.457,19.457,0,0,1-9.487,4.4,9.643,9.643,0,0,1,.255,2.72,37.84,37.84,0,0,1-.436,3.946l-3.1,18.851L6729.1,93.765l2.831-17.295a6.338,6.338,0,0,0-.1-3.124,3.474,3.474,0,0,0-1.842-1.819l-3.594-1.78-9.024,18.2ZM6733.31,55.8l6.709,3.326a5.607,5.607,0,0,0,5.337.052,11.128,11.128,0,0,0,4.478-5.2q4.078-8.229-1.344-10.919l-7.116-3.528Z" transform="translate(-6672.604 -6.39)"/>
          <path id="Path_1822" data-name="Path 1822" d="M6748.213,103.031l29.82-62.89,12.852,6.095-29.822,62.889Z" transform="translate(-6673.346 -6.745)"/>
          <path id="Path_1823" data-name="Path 1823" d="M6767.155,112.139l28.57-63.468,12.625,5.684-3.47,37.2,25.476-27.289,12.556,5.651-28.57,63.467-12.969-5.838,14.284-31.734-16.51,17.695-6.968-3.137,2.23-24.122-14.285,31.734Z" transform="translate(-6673.668 -6.89)"/>
          <path id="Path_1824" data-name="Path 1824" d="M6821.155,136.229l27.009-64.147,34.025,14.327-6.038,14.343-20.918-8.808-4.4,10.459,18.338,7.721-6.123,14.542-18.338-7.72-4.4,10.458,20.917,8.808-6.039,14.344Z" transform="translate(-6674.587 -7.288)"/>
          <path id="Path_1825" data-name="Path 1825" d="M6888.726,165.1a37.085,37.085,0,0,1-8.26-4.433,24.669,24.669,0,0,1-5.823-5.69l6.078-15.61a32,32,0,0,0,5.717,6.169,24.4,24.4,0,0,0,6.752,4.135,13.763,13.763,0,0,0,5.655,1.216q2.131-.155,3.308-3.177a5.37,5.37,0,0,0,.272-3.723,9.933,9.933,0,0,0-2.311-3.45q-1.759-1.843-4.624-4.7a29.146,29.146,0,0,1-5.458-7.46,15.272,15.272,0,0,1-1.452-7.639,31.456,31.456,0,0,1,2.287-9.317q3.726-9.566,10.424-12.7t16.076.517a37.232,37.232,0,0,1,7.368,3.912,37.8,37.8,0,0,1,5.667,4.525l-6.116,15.712A28.381,28.381,0,0,0,6919,118.2a23.98,23.98,0,0,0-5.4-3.029,18.71,18.71,0,0,0-5.562-1.354q-2.462-.145-3.6,2.776a4.3,4.3,0,0,0,.436,4.4,46.1,46.1,0,0,0,5.506,5.565,24.772,24.772,0,0,1,6.5,8.444,16.879,16.879,0,0,1,1.258,8.551,37.741,37.741,0,0,1-2.451,9.425q-3.452,8.863-10.343,12.386T6888.726,165.1Z" transform="translate(-6675.497 -7.717)"/>
          <path id="Path_1826" data-name="Path 1826" d="M6937.56,183.483q-12.434-4.552-15.774-15.671t2.489-27.056q6.018-16.442,15.625-22.881t22.252-1.811a30.8,30.8,0,0,1,7.27,3.7,33.12,33.12,0,0,1,5.464,4.878l-6.091,16.645a25.638,25.638,0,0,0-11.662-8.64q-6.466-2.367-11.132.7t-8.084,12.405q-3.344,9.134-1.507,14.353t8.088,7.506a25.935,25.935,0,0,0,6.977,1.518,28.027,28.027,0,0,0,7.47-.49l-6.129,16.747a34.333,34.333,0,0,1-7.3.031A32.985,32.985,0,0,1,6937.56,183.483Z" transform="translate(-6676.278 -8.004)"/>
          <path id="Path_1827" data-name="Path 1827" d="M6957.312,189.4l22.625-65.823,34.914,12-5.058,14.718-21.463-7.378-3.69,10.732,18.817,6.468-5.13,14.922-18.816-6.467-3.689,10.731,21.464,7.378-5.06,14.717Z" transform="translate(-6676.904 -8.165)"/>
          <path id="Path_1828" data-name="Path 1828" d="M6996.859,202.966l21.279-66.27,11.525,3.7,6.237,40.71,11.267-35.091,13.542,4.349-21.278,66.269-11.6-3.724-6.2-40.584L7010.4,207.314Z" transform="translate(-6677.577 -8.388)"/>
          <path id="Path_1829" data-name="Path 1829" d="M7046.439,218.754l19.968-66.676,35.367,10.592-4.465,14.909-21.742-6.511-3.256,10.872,19.061,5.707-4.526,15.116-19.061-5.708-3.254,10.872,21.74,6.51-4.464,14.909Z" transform="translate(-6678.419 -8.65)"/>
          <path id="Path_1830" data-name="Path 1830" d="M7131.835,243.344l17.474-67.373,21.092,5.47a22.627,22.627,0,0,1,11.494,6.61q4.244,4.73,5.013,12.913t-2.432,20.528q-4.506,17.366-12.5,23.777t-19.052,3.544Zm17.674-11.494,5.567,1.443a11.378,11.378,0,0,0,6.15.088q2.711-.8,4.973-4.4t4.216-11.132a47.966,47.966,0,0,0,1.891-11.959q-.065-4.426-1.987-6.656a10.668,10.668,0,0,0-5.584-3.179l-5.565-1.444Z" transform="translate(-6679.873 -9.056)"/>
          <path id="Path_1831" data-name="Path 1831" d="M7204.068,262.7q-11.775-2.809-16.038-12.493t.1-27.975q3.009-12.616,7.649-19.675t10.888-9.291a27.28,27.28,0,0,1,26.418,6.3q4.57,4.814,5.521,13.206t-2.055,21.009q-4.363,18.292-12.574,25T7204.068,262.7Zm4.012-16.821a8.391,8.391,0,0,0,8.706-2.423q3.4-3.688,5.64-13.043,2.381-9.987.98-14.71t-6.7-5.986q-5.3-1.265-8.68,2.318t-5.765,13.568q-2.235,9.359-.856,14.184A8.393,8.393,0,0,0,7208.08,245.879Z" transform="translate(-6680.793 -9.33)"/>
          <path id="Path_1832" data-name="Path 1832" d="M7249.5,272.078l14.514-68.073,11.838,2.524,10.295,39.878,7.686-36.043,13.91,2.966L7293.226,281.4l-11.912-2.54L7271.07,239.1l-7.661,35.939Z" transform="translate(-6681.875 -9.533)"/>
          <path id="Path_1833" data-name="Path 1833" d="M7323.265,288.473q-11.881-2.318-16.542-11.816t-1.059-27.955q2.484-12.729,6.826-19.975t10.493-9.735a27.276,27.276,0,0,1,26.658,5.2q4.766,4.62,6.065,12.965t-1.183,21.076q-3.6,18.459-11.527,25.5T7323.265,288.473Zm3.311-16.972a8.394,8.394,0,0,0,8.6-2.783q3.251-3.826,5.094-13.266,1.965-10.077.369-14.738t-6.941-5.7q-5.347-1.042-8.577,2.677t-5.2,13.8q-1.842,9.443-.267,14.208A8.394,8.394,0,0,0,7326.576,271.5Z" transform="translate(-6682.804 -9.762)"/>
          <path id="Path_1834" data-name="Path 1834" d="M7363.551,294.909l9.641-53.611-13.477-2.423,2.679-14.892,40.952,7.365-2.678,14.892-13.477-2.423-9.642,53.61Z" transform="translate(-6683.75 -9.873)"/>
        </g>
        <g id="Group_1132" data-name="Group 1132" transform="translate(565.439 231.024)">
          <path id="Path_1835" data-name="Path 1835" d="M7205.326,249.21a1.818,1.818,0,0,0,.563-.72Z" transform="translate(-7097.845 -154.073)"/>
          <path id="Path_1836" data-name="Path 1836" d="M7129.019,255.06c-.323,7.236,2.606,12.906,9.12,17.475,13.577,9.529,26.274,20.59,39.748,30.42,14.519,10.594,29.641,20.449,45.792,28.372,3.809,1.869,8.106,3.945,12.455,3.878,4.416-.067,8.466-.653,12.931.231l35.282-132.16c-23.811-6.135-47.812-9.779-72.3-4.641-4.726.991-5.137-1.652-5.312-4.783-.616-10.963-6.409-18.252-15.8-23.352-6.852-3.722-13.5-7.831-20.192-11.835-4.457-2.665-10.913-7.258-16.451-6.019a8.671,8.671,0,0,0-4.866,3.342,17.06,17.06,0,0,0-2.918,7.063c-2.755,13.523-5.66,27.016-8.254,40.57-2.983,15.586-5.417,31.282-8.634,46.818A29.175,29.175,0,0,0,7129.019,255.06Z" transform="translate(-7096.546 -152.438)"/>
          <path id="Path_1837" data-name="Path 1837" d="M7107.7,246.593c9.019-28.532,18.329-57.029,21.91-86.934C7121.365,167.176,7105.922,228.672,7107.7,246.593Z" transform="translate(-7096.181 -152.561)"/>
          <path id="Path_1838" data-name="Path 1838" d="M7141.7,167.57c.348-1.426,1.34-3.115-1.25-4.656-9.581,27.407-17.053,55.233-23.953,83.223-1.019,4.131-2.749,10.648,1.32,11.625,4.1.985,4.632-5.861,5.36-9.618C7128.425,221.069,7135.17,194.347,7141.7,167.57Z" transform="translate(-7096.312 -152.617)"/>
          <path id="Path_1839" data-name="Path 1839" d="M7095.985,236.125c9.3-23.423,13.823-48.126,18.961-72.556C7104.193,186.662,7099.427,211.218,7095.985,236.125Z" transform="translate(-7095.985 -152.628)"/>
        </g>
      </g>
    </g>
  </g>
</svg>
