<svg id="Group_1099" data-name="Group 1099" xmlns="http://www.w3.org/2000/svg" xmlns:xlink="http://www.w3.org/1999/xlink" width="1203.477" height="610.6" viewBox="0 0 1203.477 610.6">
  <defs>
    <clipPath id="clip-path">
      <path id="Path_1780" data-name="Path 1780" d="M7342.53,715.12c-74.4,71.447-158.177,137.26-249,195.61-87.14,55.981-183.016,106.536-284.964,150.261-191.191,82-410.347,142.909-651.378,181.038l-18.13-114.605c481.9-76.233,859.773-243.111,1123.108-495.995Z" transform="translate(-6139.053 -631.43)" fill="none"/>
    </clipPath>
  </defs>
  <path id="Path_1753" data-name="Path 1753" d="M6784.685,1087.124c57.738-21.028,91.811-33.45,143.386-56.927,68.723-31.285,111.347-9.994,111.347-9.994s83.212-24.571,158.511-62.165-28.41-140.088-28.41-140.088l-475.954,246.365,23.207,46.914Z" transform="translate(-6148.488 -634.604)"/>
  <g id="Group_1098" data-name="Group 1098">
    <g id="Group_1097" data-name="Group 1097" clip-path="url(#clip-path)">
      <g id="Group_1096" data-name="Group 1096">
        <g id="Group_1093" data-name="Group 1093">
          <path id="Path_1754" data-name="Path 1754" d="M7342.53,715.12c-74.4,71.447-158.177,137.26-249,195.61-87.14,55.981-183.016,106.536-284.964,150.261-191.191,82-410.347,142.909-651.378,181.038l-18.13-114.605c481.9-76.233,859.773-243.111,1123.108-495.995Z" transform="translate(-6139.053 -631.43)" fill="#edde1d"/>
        </g>
        <g id="Group_1094" data-name="Group 1094" transform="translate(103.534 47.692)">
          <path id="Path_1755" data-name="Path 1755" d="M6284.284,1205.26q-15.067,2.809-24.957-6.289t-13.493-28.407q-3.714-19.923,2.051-32t21.087-14.938a35.535,35.535,0,0,1,9.417-.61,38.357,38.357,0,0,1,8.32,1.629l3.762,20.169a29.679,29.679,0,0,0-16.712-1.72q-7.834,1.461-10.67,7.27t-.726,17.125q2.065,11.066,6.973,15.178t12.484,2.7a29.953,29.953,0,0,0,7.843-2.607,32.468,32.468,0,0,0,7.148-4.9l3.782,20.291a39.711,39.711,0,0,1-7.25,4.343A38.1,38.1,0,0,1,6284.284,1205.26Z" transform="translate(-6244.379 -687.485)"/>
          <path id="Path_1756" data-name="Path 1756" d="M6307.558,1199.6l-16.119-78.932,28.74-5.87q6.779-1.384,11.838,1.286a21.678,21.678,0,0,1,8.492,8.543,46.481,46.481,0,0,1,5.136,14.209,33.988,33.988,0,0,1,.077,14.6,22.519,22.519,0,0,1-5.532,10.77,11.1,11.1,0,0,1,2.168,2.3,43.464,43.464,0,0,1,2.408,3.913l10.58,19.418-16.816,3.435-9.715-17.807a7.34,7.34,0,0,0-2.31-2.785,4.02,4.02,0,0,0-2.977-.349l-4.546.927,4.706,23.044Zm7.819-43.985,8.493-1.735a6.49,6.49,0,0,0,4.911-3.748q1.392-3.027.391-7.933-2.128-10.416-8.991-9.016l-9.01,1.839Z" transform="translate(-6245.18 -687.339)"/>
          <path id="Path_1757" data-name="Path 1757" d="M6362.658,1188.246l-17.143-78.717,16.086-3.5,17.142,78.716Z" transform="translate(-6246.1 -687.198)"/>
          <path id="Path_1758" data-name="Path 1758" d="M6386.555,1182.98l-18.357-78.442,15.6-3.652,22.965,36.639,4.235-43,15.519-3.632,18.355,78.444-16.03,3.751-9.178-39.223-2.741,27.879-8.61,2.014-14.911-23.747,9.179,39.221Z" transform="translate(-6246.486 -686.94)"/>
          <path id="Path_1759" data-name="Path 1759" d="M6453.191,1167.261l-19.932-78.056,41.4-10.574,4.457,17.454-25.453,6.5,3.25,12.728,22.313-5.7,4.52,17.695-22.315,5.7,3.25,12.726,25.455-6.5,4.457,17.454Z" transform="translate(-6247.593 -686.732)"/>
          <path id="Path_1760" data-name="Path 1760" d="M6535.79,1146.734a42.757,42.757,0,0,1-10.723,1.652,28.509,28.509,0,0,1-9.345-1.206l-5.25-18.665a37,37,0,0,0,9.581,1.723,28.235,28.235,0,0,0,9.124-.877,15.983,15.983,0,0,0,6.076-2.812q1.863-1.628.847-5.241a6.207,6.207,0,0,0-2.341-3.631,11.511,11.511,0,0,0-4.538-1.582q-2.91-.479-7.548-1.125a33.787,33.787,0,0,1-10.242-3.1,17.692,17.692,0,0,1-6.66-6.054,36.38,36.38,0,0,1-4.372-10.205q-3.217-11.438.8-19t15.225-10.714a43.079,43.079,0,0,1,9.535-1.512,43.768,43.768,0,0,1,8.391.239l5.283,18.786a32.761,32.761,0,0,0-8.5-1.118,27.665,27.665,0,0,0-7.1.956,21.587,21.587,0,0,0-6.084,2.622q-2.376,1.579-1.395,5.071a4.975,4.975,0,0,0,3.471,3.766,53.242,53.242,0,0,0,8.965,1.312,28.651,28.651,0,0,1,11.885,3.285,19.522,19.522,0,0,1,7.116,7.029,43.606,43.606,0,0,1,4.3,10.422q2.982,10.6-.941,18.652T6535.79,1146.734Z" transform="translate(-6248.711 -686.488)"/>
          <path id="Path_1761" data-name="Path 1761" d="M6593.664,1129.784q-14.67,4.434-25.494-3.534t-16.507-26.767q-5.862-19.4-1.45-32.037t19.335-17.148a35.6,35.6,0,0,1,9.294-1.632,38.3,38.3,0,0,1,8.448.713l5.935,19.637a29.669,29.669,0,0,0-16.8.113q-7.63,2.3-9.815,8.39t1.143,17.1q3.259,10.777,8.586,14.33t12.7,1.322a30.011,30.011,0,0,0,7.512-3.445,32.422,32.422,0,0,0,6.572-5.646l5.972,19.757a39.662,39.662,0,0,1-6.737,5.109A38.135,38.135,0,0,1,6593.664,1129.784Z" transform="translate(-6249.55 -686.221)"/>
          <path id="Path_1762" data-name="Path 1762" d="M6616.1,1121.524l-24.846-76.635,40.65-13.179,5.556,17.135-24.99,8.1,4.051,12.495,21.908-7.1,5.631,17.374-21.908,7.1,4.05,12.5,24.991-8.1,5.554,17.136Z" transform="translate(-6250.282 -685.933)"/>
          <path id="Path_1763" data-name="Path 1763" d="M6662.071,1106.539l-26.532-76.068,13.23-4.614,34.141,33.27-14.049-40.278,15.544-5.421,26.531,76.067-13.311,4.644-34.017-33.182,14.007,40.16Z" transform="translate(-6251.035 -685.622)"/>
          <path id="Path_1764" data-name="Path 1764" d="M6718.8,1086.632l-28.273-75.438,40.016-15,6.321,16.868-24.6,9.218,4.609,12.3,21.565-8.082,6.409,17.1-21.565,8.083,4.609,12.3,24.6-9.218,6.321,16.868Z" transform="translate(-6251.971 -685.329)"/>
          <path id="Path_1765" data-name="Path 1765" d="M6814.321,1049.453l-31.9-73.974,23.157-9.987a26.166,26.166,0,0,1,15.2-2.128q7.237,1.306,13.756,8.236t12.363,20.483q8.224,19.071,5.476,30.609t-14.89,16.774Zm7.984-23.061,6.109-2.634a13.2,13.2,0,0,0,5.685-4.291q1.9-2.66,1.414-7.557t-4.058-13.168a55.442,55.442,0,0,0-6.771-12.27q-3.2-4-6.545-4.671a12.351,12.351,0,0,0-7.36,1.063l-6.11,2.636Z" transform="translate(-6253.534 -684.764)"/>
          <path id="Path_1766" data-name="Path 1766" d="M6894.936,1015.073q-12.694,5.929-23.529.218t-20.041-25.434q-6.352-13.6-7.226-23.34t3.184-16.26q4.058-6.517,12.469-10.447t16.015-2.853q7.605,1.076,14.509,8t13.257,20.525q9.208,19.721,6.594,31.712T6894.936,1015.073Zm-8.468-18.135q5.712-2.667,6.147-8.462t-4.274-15.884q-5.029-10.767-9.7-14.04t-10.382-.607q-5.715,2.667-6.2,8.349t4.541,16.449q4.712,10.091,9.433,13.475T6886.468,996.938Z" transform="translate(-6254.582 -684.317)"/>
          <path id="Path_1767" data-name="Path 1767" d="M6945.125,989.391l-37.08-71.522,12.439-6.448L6959.01,939.5l-19.634-37.87,14.616-7.578,37.078,71.523-12.517,6.488-38.388-28.006,19.574,37.759Z" transform="translate(-6255.672 -683.591)"/>
          <path id="Path_1768" data-name="Path 1768" d="M7024.838,948.469q-12.213,6.864-23.444,1.982T6979.5,926.591q-7.353-13.087-8.957-22.734t1.956-16.451q3.558-6.8,11.65-11.353t15.756-4.046q7.666.5,15.069,6.887t14.759,19.473q10.662,18.975,8.952,31.128T7024.838,948.469Zm-9.8-17.449q5.494-3.089,5.495-8.9t-5.455-15.517q-5.819-10.358-10.724-13.275t-10.4.176q-5.5,3.089-5.558,8.791t5.761,16.061q5.457,9.709,10.417,12.73T7015.035,931.02Z" transform="translate(-6256.726 -683.215)"/>
          <path id="Path_1769" data-name="Path 1769" d="M7066.507,922.709l-32.6-53.968-13.565,8.2-9.056-14.99,41.226-24.9,9.055,14.991L7048,860.229l32.6,53.968Z" transform="translate(-6257.428 -682.621)"/>
          <path id="Path_1770" data-name="Path 1770" d="M7115.772,892.312,7071.4,825.068l35.669-23.534,9.92,15.036-21.927,14.467L7102.3,842l19.225-12.685,10.059,15.245-19.224,12.682,7.233,10.964,21.929-14.469,9.92,15.036Z" transform="translate(-6258.451 -682.017)"/>
          <path id="Path_1771" data-name="Path 1771" d="M7157.947,864.3l-46.6-65.719,11.429-8.1,42.031,22.492-24.671-34.8,13.428-9.522,46.595,65.72-11.5,8.154-41.889-22.441,24.6,34.7Z" transform="translate(-6259.13 -681.457)"/>
          <path id="Path_1772" data-name="Path 1772" d="M7218.512,820.531,7180.273,770.4l-12.6,9.613-10.621-13.925,38.292-29.209,10.622,13.926-12.6,9.613,38.236,50.129Z" transform="translate(-6259.909 -680.917)"/>
          <path id="Path_1773" data-name="Path 1773" d="M7249.635,796.629,7198.75,734.17l33.129-26.991,11.379,13.966-20.366,16.593,8.3,10.183,17.856-14.546,11.535,14.161-17.856,14.545,8.3,10.184,20.367-16.593,11.377,13.966Z" transform="translate(-6260.618 -680.411)"/>
          <path id="Path_1774" data-name="Path 1774" d="M7288.8,764.645,7235.759,704l22.082-19.313a17.3,17.3,0,0,1,10.925-4.735,21.677,21.677,0,0,1,11.605,3.228A46.462,46.462,0,0,1,7291.86,693a33.982,33.982,0,0,1,7.287,12.655,22.538,22.538,0,0,1,.517,12.1,11.108,11.108,0,0,1,3.024.929,43.336,43.336,0,0,1,4.027,2.211l18.794,11.647-12.919,11.3-17.246-10.675a7.343,7.343,0,0,0-3.385-1.277,4.015,4.015,0,0,0-2.759,1.168l-3.494,3.054,15.482,17.7Zm-14.949-42.1,6.525-5.708a6.487,6.487,0,0,0,2.415-5.685q-.288-3.321-3.582-7.088-7-8-12.274-3.392l-6.921,6.053Z" transform="translate(-6261.248 -679.948)"/>
        </g>
        <g id="Group_1095" data-name="Group 1095" transform="translate(944.603 32.437)">
          <path id="Path_1775" data-name="Path 1775" d="M7275.85,772.657a2.02,2.02,0,0,0-.122-1.134Q7275.789,772.091,7275.85,772.657Z" transform="translate(-7102.996 -666.25)"/>
          <path id="Path_1776" data-name="Path 1776" d="M7326.468,780.294m-122.83,57.8c6.717,7.117,15.245,10.14,26.381,9.249,23.215-1.858,47.019-1.559,70.422-3.048,25.219-1.6,50.338-4.391,74.631-9.836,5.729-1.284,12.161-2.763,16.56-6.315,4.467-3.6,8.054-7.409,13.5-10.152l-92.5-153.56c-30.414,13.283-58.6,29.08-78.728,53.59-3.884,4.729-6.882,2.554-10.111-.271-11.31-9.9-24.354-12.16-38.958-9.463-10.657,1.969-21.479,3.4-32.251,4.979-7.17,1.049-18.27,1.874-22.746,7.49a9.368,9.368,0,0,0-1.74,7.07,20.744,20.744,0,0,0,3.884,9.036c10.342,15.026,20.5,30.145,31.038,45.072,12.117,17.166,24.9,33.995,36.734,51.3A39.739,39.739,0,0,0,7203.638,838.09Zm-50.465-95.745c15.486,19.238,27.43,40.129,39.552,60.937,2.039,2.495,3.83,5.076,4.314,8.367-4.17-.271-5.007-3.154-6.376-5.564A719.919,719.919,0,0,1,7153.172,742.345Z" transform="translate(-7100.483 -664.428)"/>
          <path id="Path_1777" data-name="Path 1777" d="M7173.484,848.179c-18.53-34.277-36.729-68.753-62.178-99.97C7110.163,761.948,7154.2,832.621,7173.484,848.179Z" transform="translate(-7100.199 -665.854)"/>
          <path id="Path_1778" data-name="Path 1778" d="M7131.477,745.967c-1.033-1.631-1.659-4.029-5.817-3.412,16.858,33.66,36.289,66.027,56.466,98.091,2.978,4.731,7.548,12.3,12.677,9.96,5.167-2.354-.954-9.271-3.864-13.416C7169.953,807.32,7150.85,776.582,7131.477,745.967Z" transform="translate(-7100.443 -665.756)"/>
          <path id="Path_1779" data-name="Path 1779" d="M7151.209,847.7c-13.263-29.662-32.684-56.7-51.2-83.977C7111.462,794.233,7130.485,821.33,7151.209,847.7Z" transform="translate(-7100.007 -666.117)"/>
        </g>
      </g>
    </g>
  </g>
</svg>
