<svg xmlns="http://www.w3.org/2000/svg" xmlns:xlink="http://www.w3.org/1999/xlink" width="1152" height="1024" viewBox="0 0 1152 1024">
  <defs>
    <clipPath id="clip-path">
      <rect id="Rectangle_198" data-name="Rectangle 198" width="1152" height="1024" transform="translate(-192)" fill="none"/>
    </clipPath>
  </defs>
  <g id="Mask_Group_1" data-name="Mask Group 1" transform="translate(192)" clip-path="url(#clip-path)">
    <g id="Group_2851" data-name="Group 2851">
      <g id="Group_2747" data-name="Group 2747" transform="translate(180.981 -10.622)">
        <g id="Group_2710" data-name="Group 2710" transform="translate(4.365)">
          <circle id="Ellipse_209" data-name="Ellipse 209" cx="110.222" cy="110.222" r="110.222"/>
        </g>
        <g id="Group_2718" data-name="Group 2718" transform="translate(0 18.844)">
          <g id="Group_2711" data-name="Group 2711">
            <circle id="Ellipse_210" data-name="Ellipse 210" cx="101.769" cy="101.769" r="101.769" fill="#fff"/>
          </g>
          <g id="Group_2712" data-name="Group 2712" transform="translate(25.249 25.249)">
            <circle id="Ellipse_211" data-name="Ellipse 211" cx="76.52" cy="76.52" r="76.52" fill="#c9d6e8"/>
          </g>
          <g id="Group_2713" data-name="Group 2713" transform="translate(17.625 17.617)">
            <path id="Path_5410" data-name="Path 5410" d="M-3264.313,206.442a.757.757,0,0,1-.268-.049c-2.221-.828-4.439-1.764-6.593-2.78a.767.767,0,0,1-.367-1.021.767.767,0,0,1,1.02-.366c2.117,1,4.295,1.917,6.476,2.73a.768.768,0,0,1,.451.987A.768.768,0,0,1-3264.313,206.442Z" transform="translate(3319.418 -43.397)" fill="#0d0d0c"/>
            <path id="Path_5411" data-name="Path 5411" d="M-3280.961,60.062q-4.155,0-8.35-.417a.768.768,0,0,1-.687-.84.764.764,0,0,1,.84-.687,82.738,82.738,0,0,0,82.9-46.941,82.668,82.668,0,0,0-39.431-109.919,82.035,82.035,0,0,0-63.125-3.05,82.034,82.034,0,0,0-46.792,42.48,82.122,82.122,0,0,0-3.364,62.236.766.766,0,0,1-.474.976.769.769,0,0,1-.977-.474,83.643,83.643,0,0,1,3.428-63.392,83.557,83.557,0,0,1,47.661-43.27,83.561,83.561,0,0,1,64.3,3.106,84.2,84.2,0,0,1,40.164,111.962A84.312,84.312,0,0,1-3280.961,60.062Z" transform="translate(3365.076 108.221)" fill="#0d0d0c"/>
          </g>
          <path id="Path_5412" data-name="Path 5412" d="M-3194.374,14.624c26.6-31.029,19.8-73.392-2.9-92.992-16.585-14.323-39.659-17.685-51.776-14.076,0,0-9.814-4-33.462.276S-3321.574-62.475-3326.22-43Z" transform="translate(3363.719 118.961)" fill="#080b0a"/>
          <g id="Group_2717" data-name="Group 2717" transform="translate(8.391 8.645)">
            <circle id="Ellipse_212" data-name="Ellipse 212" cx="61.987" cy="61.987" r="61.987" transform="translate(7.686 99.985) rotate(-45)" fill="#fdd89b"/>
            <path id="Path_5413" data-name="Path 5413" d="M-3310.93-6.642c-5.891,19.478-2.463,41.817,10.086,57.817s34.225,24.747,54.2,20.684c9.358-1.9,18.046-6.37,25.827-11.9,7.981-5.676,15.213-12.62,20.136-21.075A53.047,53.047,0,0,0-3198-8.424c-7.776-17.638-25.235-29.881-44.019-34.386-19.423-4.658-41.78-1.028-55.792,13.214A55.476,55.476,0,0,0-3310.93-6.642Z" transform="translate(3349.226 86.175)" fill="#c78c50"/>
            <g id="Group_2715" data-name="Group 2715" transform="translate(39.644 56.317)">
              <path id="Path_5414" data-name="Path 5414" d="M-3276.521-4.955a1.25,1.25,0,0,0,1.6.755,1.252,1.252,0,0,0,.755-1.6,1.251,1.251,0,0,0-1.6-.755A1.25,1.25,0,0,0-3276.521-4.955Z" transform="translate(3291.442 11.248)" fill="#f79922"/>
              <path id="Path_5415" data-name="Path 5415" d="M-3226.673,19.96a1.252,1.252,0,0,0,1.6.755,1.252,1.252,0,0,0,.755-1.6,1.251,1.251,0,0,0-1.6-.755A1.252,1.252,0,0,0-3226.673,19.96Z" transform="translate(3267.091 -0.923)" fill="#f79922"/>
              <circle id="Ellipse_213" data-name="Ellipse 213" cx="0.374" cy="0.374" r="0.374" transform="translate(23.707 17.553)" fill="#f79922"/>
              <circle id="Ellipse_214" data-name="Ellipse 214" cx="0.915" cy="0.915" r="0.915" transform="translate(14.628 28.017)" fill="#f79922"/>
              <g id="Group_2714" data-name="Group 2714" transform="translate(87.24 46.908)">
                <circle id="Ellipse_215" data-name="Ellipse 215" cx="1.781" cy="1.781" r="1.781" fill="#f79922"/>
              </g>
              <circle id="Ellipse_216" data-name="Ellipse 216" cx="1.126" cy="1.126" r="1.126" transform="translate(15.58 64.299)" fill="#f79922"/>
              <circle id="Ellipse_217" data-name="Ellipse 217" cx="1.888" cy="1.888" r="1.888" transform="translate(32.841 68.168)" fill="#f79922"/>
              <path id="Path_5416" data-name="Path 5416" d="M-3147,125.329a1.464,1.464,0,0,0,1.872.883,1.464,1.464,0,0,0,.884-1.872,1.465,1.465,0,0,0-1.873-.883A1.464,1.464,0,0,0-3147,125.329Z" transform="translate(3228.179 -52.257)" fill="#f79922"/>
              <path id="Path_5417" data-name="Path 5417" d="M-3180.674,118.081a.683.683,0,0,0,.873.412.683.683,0,0,0,.412-.873.683.683,0,0,0-.873-.412A.683.683,0,0,0-3180.674,118.081Z" transform="translate(3244.604 -49.228)" fill="#f79922"/>
              <circle id="Ellipse_218" data-name="Ellipse 218" cx="2.056" cy="2.056" r="2.056" transform="translate(95.28 29.345)" fill="#f79922"/>
              <circle id="Ellipse_219" data-name="Ellipse 219" cx="0.935" cy="0.935" r="0.935" transform="translate(48.251 0.749)" fill="#f79922"/>
              <circle id="Ellipse_220" data-name="Ellipse 220" cx="2.243" cy="2.243" r="2.243" transform="translate(81.059 0)" fill="#f79922"/>
              <path id="Path_5418" data-name="Path 5418" d="M-3242.275-7.94l.6-.214.6-.214-.6.214Z" transform="translate(3274.677 12.097)" fill="#f79922"/>
              <path id="Path_5419" data-name="Path 5419" d="M-3282.406,96.433a1.471,1.471,0,0,0,1.881.887,1.471,1.471,0,0,0,.888-1.881,1.471,1.471,0,0,0-1.881-.887A1.47,1.47,0,0,0-3282.406,96.433Z" transform="translate(3294.324 -38.137)" fill="#f79922"/>
              <circle id="Ellipse_221" data-name="Ellipse 221" cx="1.126" cy="1.126" r="1.126" transform="translate(33.567 48.987)" fill="#f79922"/>
              <circle id="Ellipse_222" data-name="Ellipse 222" cx="1.126" cy="1.126" r="1.126" transform="translate(72.634 19.095)" fill="#f79922"/>
              <path id="Path_5420" data-name="Path 5420" d="M-3247.24,66.5a1.47,1.47,0,0,0,1.88.887,1.472,1.472,0,0,0,.889-1.881,1.471,1.471,0,0,0-1.881-.887A1.47,1.47,0,0,0-3247.24,66.5Z" transform="translate(3277.145 -23.513)" fill="#f79922"/>
              <circle id="Ellipse_223" data-name="Ellipse 223" cx="2.36" cy="2.36" r="2.36" transform="translate(53.418 85.143)" fill="#f79922"/>
              <circle id="Ellipse_224" data-name="Ellipse 224" cx="1.308" cy="1.308" r="1.308" transform="translate(103.311 67.556)" fill="#fcb830"/>
              <path id="Path_5421" data-name="Path 5421" d="M-3093.071,86.98a1.842,1.842,0,0,0,2.355,1.111,1.84,1.84,0,0,0,1.111-2.354,1.841,1.841,0,0,0-2.354-1.111A1.843,1.843,0,0,0-3093.071,86.98Z" transform="translate(3201.843 -33.277)" fill="#fcb830"/>
              <circle id="Ellipse_225" data-name="Ellipse 225" cx="0.732" cy="0.732" r="0.732" transform="translate(107.949 61.694)" fill="#fcb830"/>
              <circle id="Ellipse_226" data-name="Ellipse 226" cx="0.841" cy="0.841" r="0.841" transform="translate(0 20.359)" fill="#fcb830"/>
            </g>
            <circle id="Ellipse_227" data-name="Ellipse 227" cx="61.987" cy="61.987" r="61.987" transform="translate(0 87.663) rotate(-45)" fill="#fdd89b"/>
            <path id="Path_5422" data-name="Path 5422" d="M-3325.956-30.732c-5.892,19.478-2.463,41.817,10.084,57.817s34.227,24.747,54.205,20.684c9.357-1.9,18.046-6.37,25.827-11.9,7.982-5.676,15.213-12.62,20.137-21.075a53.045,53.045,0,0,0,2.675-47.306c-7.776-17.638-25.234-29.881-44.018-34.386-19.422-4.658-41.78-1.028-55.793,13.213A55.472,55.472,0,0,0-3325.956-30.732Z" transform="translate(3356.567 97.943)" fill="#c78c50"/>
            <path id="Path_5423" data-name="Path 5423" d="M-3301.814-41.7c-8.057,9.331-14.448,20.085-16.6,32.38A77.183,77.183,0,0,0-3319.1,12.1c-.005-.018-.012-.036-.018-.054-4.62-15.3-2.936-32.113,3.063-46.924,3.183-7.86,7.755-15.468,14.72-20.3,6.046-4.2,13.438-6,20.738-6.954.43-.056.862-.1,1.292-.151C-3287.844-56.731-3295.607-48.89-3301.814-41.7Z" transform="translate(3353.15 94.755)" fill="#fdd89b"/>
            <path id="Path_5424" data-name="Path 5424" d="M-3289.929,17.6a63.6,63.6,0,0,1,38.39-81.341,63.649,63.649,0,0,1,8.877-2.467c.92.182,1.841.363,2.75.581,18.784,4.5,36.242,16.747,44.018,34.386a53.044,53.044,0,0,1-2.676,47.306c-4.923,8.455-12.154,15.4-20.136,21.075-7.781,5.533-16.47,10-25.827,11.9a51.872,51.872,0,0,1-21.12-.232A63.257,63.257,0,0,1-3289.929,17.6Z" transform="translate(3339.433 96.669)" fill="#080b0a"/>
            <path id="Path_5425" data-name="Path 5425" d="M-3238.882,152.927c5.392,1.2,9.091,2.065,9.593,4.037,0,0,15.453,6.816,32.3,2.041l-34.6-12.079Z" transform="translate(3312.663 -7.448)" fill="#080b0a"/>
            <g id="Group_2716" data-name="Group 2716" transform="translate(22.202 2.166)">
              <circle id="Ellipse_228" data-name="Ellipse 228" cx="61.987" cy="61.987" r="61.987" transform="translate(0 87.663) rotate(-45)" fill="#fdd89b"/>
              <path id="Path_5426" data-name="Path 5426" d="M-3282.551-26.5c-5.892,19.478-2.462,41.816,10.085,57.817s34.226,24.747,54.2,20.684c9.357-1.9,18.046-6.37,25.827-11.9,7.982-5.676,15.213-12.62,20.136-21.075a53.047,53.047,0,0,0,2.676-47.306c-7.775-17.639-25.234-29.881-44.018-34.386-19.423-4.658-41.78-1.028-55.794,13.214A55.485,55.485,0,0,0-3282.551-26.5Z" transform="translate(3313.161 93.708)" fill="#c78c50"/>
              <path id="Path_5427" data-name="Path 5427" d="M-3195.875-36.618a11.675,11.675,0,0,1,2.285,1.795c1.818,1.812,3.435,3.951,5.758,5.04,3.667,1.719,8.043.377,12,1.248a11.012,11.012,0,0,1,7.318,5.636,11.013,11.013,0,0,1,.323,9.231c-2.486,5.8-7.663,9.616-5.029,16.645,2.21,5.9,8.431,10.926,6.59,17.88-1.232,4.655-5.991,7.372-10.455,9.178s-9.4,3.456-12.13,7.418c-1.689,2.446-2.3,5.465-3.576,8.148s-3.709,5.246-6.679,5.1c-3.2-.155-5.338-3.243-8.044-4.96-3.019-1.915-6.815-2.1-10.376-1.782s-7.106,1.084-10.672.853-7.308-1.681-9.153-4.742c-2.9-4.811-.006-8.927.759-13.646a14.6,14.6,0,0,0-3.261-11.779c-1.718-1.968-3.943-3.425-5.791-5.272s-3.371-4.322-3.081-6.918c.359-3.223,3.286-5.464,6.013-7.219s5.745-3.742,6.5-6.895c.658-2.745-.619-5.547-.883-8.357a11.915,11.915,0,0,1,4.788-10.562,11.916,11.916,0,0,1,11.531-1.231c1.86.816,3.486,2.106,5.36,2.894,6.154,2.588,7.9-3.156,11.368-6.67A6.544,6.544,0,0,1-3195.875-36.618Z" transform="translate(3295.466 80.596)" fill="#fafafa"/>
              <path id="Path_5428" data-name="Path 5428" d="M-3236.688,19.2a12.934,12.934,0,0,1,3.061,14.689c3.012-1.133,3.832-5.2,2.849-8.262s-3.188-5.568-4.64-8.44-2-6.686.166-9.067c1.279-1.406,3.22-1.992,4.723-3.154,3-2.317,3.8-6.509,3.754-10.3s-.7-7.661.276-11.325,4.322-7.115,8.066-6.516a10.051,10.051,0,0,0-9.871-.928,10.05,10.05,0,0,0-5.676,8.13c-.191,2.32.444,4.634.429,6.962a12.679,12.679,0,0,1-3.893,8.993c-1.577,1.5-3.514,2.561-5.179,3.962s-3.109,3.317-3.13,5.491c-.023,2.314,1.571,4.348,3.393,5.773S-3238.419,17.668-3236.688,19.2Z" transform="translate(3293.818 74.364)" fill="#c9d6e8"/>
              <path id="Path_5429" data-name="Path 5429" d="M-3120.619-19.246c-.479-2.481-2.879-4.179-5.322-4.829s-5.016-.509-7.527-.8a22.489,22.489,0,0,1-14.572-7.868,33.915,33.915,0,0,0,3.856,7.2,11.413,11.413,0,0,0,6.629,4.493c2.935.571,5.915-.433,8.879-.827S-3122.2-21.783-3120.619-19.246Z" transform="translate(3246.084 78.153)" fill="#c9d6e8"/>
              <path id="Path_5430" data-name="Path 5430" d="M-3162.4,106.148a26.924,26.924,0,0,1-2.106,4.77,5.081,5.081,0,0,1-4.293,2.536c-2.415-.156-3.922-2.565-5.717-4.188a10.412,10.412,0,0,0-10.285-2.033c1.268-1.649,3.682-1.983,5.7-1.5a35.286,35.286,0,0,1,5.721,2.459c1.906.835,4.115,1.366,6.045.588,2.79-1.125,3.873-4.392,5.368-7a17.62,17.62,0,0,1,14.156-8.679A22.772,22.772,0,0,0-3162.4,106.148Z" transform="translate(3264.042 16.679)" fill="#c9d6e8"/>
            </g>
          </g>
        </g>
      </g>
      <g id="Group_2749" data-name="Group 2749" transform="translate(-462.963 250.51)">
        <g id="Group_2746" data-name="Group 2746" transform="translate(-49.215 -38.75)">
          <path id="Path_5459" data-name="Path 5459" d="M-6197.425,21552.586c-7.638,30.746,100.04,221.469,100.04,221.469l-583.592,34.18h-4.326s-.511-105.391,4.326-176.617,0-102.664,0-102.664S-6189.785,21521.838-6197.425,21552.586Z" transform="translate(7002.94 -20786.652)" fill="#fff"/>
          <g id="Group_2694" data-name="Group 2694" transform="translate(0 2.436)">
            <path id="Path_5332" data-name="Path 5332" d="M-2976.585,828.219c-1.554-.788-67-50.626-95.788-101,0,0-17.474-14.3-29.288-12.515s-216.455-62.3-268.328-94.615-140.31-30.765-140.31-30.765,23.3-27.289,22.144-64.845c-.562-18.135-5.284-41.072-5.284-41.072L-3497,459.127s23.714-22.306-9-52.163a20.886,20.886,0,0,1-5.887-23.372s30.372-58.808,7.532-105.494c-42.312-86.508-138.965-101.764-195.9-98.919-38.975,1.953-61.34,14.305-73.223,24.288-7.212-1.958-22.167,1.865-22.167,1.865l-62.944,15.7s11.315-20.047,29.682-22.6,29.52-2.034,37.479-7.463,3.691-10.024-2.874-13.842c-6.477-3.772-56.954,4.8-58.252,5.023l28.24-8.957-24.067-14.827-115.1,91.1,68.582,28.251,18.419,4.3-17.556,3.9-95.39,37.208-135.408,198.654,5.109,90.923L-3430.2,835.612l453.63-7.387A.015.015,0,0,1-2976.585,828.219ZM-3765.217,567c14.282,12.543-10.133,34.155-16.061,35.122s-38.581-13.94-56.994-18.906-113.143-39.131-135-44.653-27.458-6.721-27.458-6.721,24.838-24.311,43.437-98.327,43.64-110.008,43.64-110.008,43.436-21.813,54.357-29.763c3.036-2.213,4.577-4.444,5.208-6.506l44.954,10.493,48.356,116.335,74.915,160.994S-3779.5,554.465-3765.217,567Z" transform="translate(4212.699 -152.85)"/>
            <path id="Path_5333" data-name="Path 5333" d="M-3691.4,356.97c-32.186,32.463-37.863,79.507-31.026,107.768s78.25-26.266,78.25-26.266l59.74-109.684-78.985-13.45Z" transform="translate(4042.354 -219.726)"/>
            <g id="Group_2693" data-name="Group 2693">
              <g id="Group_2692" data-name="Group 2692">
                <path id="Path_5334" data-name="Path 5334" d="M-3893.051,259c6.16-29.408,24.723-61.488,35.344-72.079s36.346-32.205,42.372-35.5,31.5-3.711,34.154-.191c0,0,15.383-3.013,24.149,2.046a16.741,16.741,0,0,1,8.609,13.905s38.659.975,47.032,5.861-3.351,12.333-14.544,12.755-31.817-.061-38.7,2.271-29.044,26.466-29.044,26.466,30.844-12.55,44.989-15.41,37.138-2.965,42.028-2.9,4.965,7.825-.875,12.026-36.48,8.88-41.234,11.689-31.066,26.272-36.579,31.322a113.96,113.96,0,0,0-9.506,9.837s11.822-1.314,19.2-7.409,19.8-15.107,30.665-16.377,13.263,4.947.042,15.244-26.131,27.291-46.244,35.7-57.243,29.338-70.764,38.018-44.884-19.912-52.542-25.183S-3898.378,284.429-3893.051,259Z" transform="translate(4119.795 -148.754)" fill="#f9cfcc"/>
                <path id="Path_5335" data-name="Path 5335" d="M-3681.559,179.314c-1.38-.011-2.76-.022-4.137-.016-1.375.028-2.75.071-4.115.2a38.136,38.136,0,0,0-8.036,1.508,35.544,35.544,0,0,0-7.461,3.253c-2.339,1.365-4.594,2.974-6.844,4.548-4.507,3.162-8.952,6.423-13.414,9.661s-8.924,6.483-13.418,9.689q6.332-5.338,12.88-10.4,6.537-5.083,13.292-9.885c2.282-1.566,4.524-3.167,6.97-4.551a34.2,34.2,0,0,1,7.747-3.167,35.464,35.464,0,0,1,8.25-1.21A65.462,65.462,0,0,1-3681.559,179.314Z" transform="translate(4048.314 -161.608)" fill="#0d0d0c"/>
                <path id="Path_5336" data-name="Path 5336" d="M-3726.924,155.664c-2.009.5-4,1.037-5.942,1.727a52.43,52.43,0,0,0-5.7,2.311,36.2,36.2,0,0,0-5.283,3.055,22.846,22.846,0,0,0-2.356,1.9q-1.113,1.046-2.192,2.153c-1.45,1.458-2.872,2.953-4.287,4.456l-4.254,4.5q-4.235,4.525-8.566,8.974,3.827-4.89,7.9-9.574c2.714-3.126,5.483-6.2,8.39-9.167q1.1-1.106,2.251-2.173a21.724,21.724,0,0,1,2.494-1.961,33.212,33.212,0,0,1,5.532-2.978A45.006,45.006,0,0,1-3726.924,155.664Z" transform="translate(4059.613 -151.698)" fill="#0d0d0c"/>
                <path id="Path_5337" data-name="Path 5337" d="M-2477.379,1231.359c-9.473,27-73.91,49.833-180.99,43.224s-269.566-27.6-269.566-27.6-58.651-192.856-28.91-189.81,112.991,10.263,208.071,36.985,227.019,53.087,227.019,53.087Z" transform="translate(3718.675 -535.762)" fill="#f9cfcc"/>
                <path id="Path_5338" data-name="Path 5338" d="M-2565.237,1143.976c-17.313,31.455-27.161,165.34-27.161,165.34l-57.486-7.839,5.047-3.919,17.07-156.177,42.822-14.28Z" transform="translate(3581.52 -575.144)"/>
                <path id="Path_5339" data-name="Path 5339" d="M-3900.9,929.884c-87.2-38.013-235.229-97.355-271.058-105.7s-103.1,53.21-99.665,71.269,108.244,99.633,167.485,127.753c132.865,63.066,194.57,73.716,295.272,127.44Z" transform="translate(4275.295 -436.185)" fill="#f9cfcc"/>
                <path id="Path_5340" data-name="Path 5340" d="M-4002.99,855.106c-38.119,7.6-27.488,166.145-27.488,166.145l10.276,5.936,62.082-31.872-20.654-125.764Z" transform="translate(4173.083 -449.689)"/>
                <path id="Path_5341" data-name="Path 5341" d="M-3973.054,369.372c-15.3,18.561-56.477,83.5-79.437,130.451-22.917,46.861-52.571,121.732-111.976,159.734s-106.419,39.246-110.111,28.751-15.474-67.964,46.805-144.417c75.028-92.1,168.507-192.6,177.4-206.453S-3973.054,369.372-3973.054,369.372Z" transform="translate(4277.924 -228.029)" fill="#f9cfcc"/>
                <path id="Path_5342" data-name="Path 5342" d="M-3500.776,867.187l8.629-5.3s20.676-12.918,6.816-66.449-19.531-77.562-19.531-77.562l128.1-14.056s104.864,102.831,75.1,112.4-34.317,20-30.792,30.09,15.886,18.079,23.657,21.472,36.321,20.583,36.321,20.583l-47.988,58.266-136.466,6.632-54.7-60.136V870Z" transform="translate(3951.448 -385.236)" fill="#f9cfcc"/>
                <path id="Path_5343" data-name="Path 5343" d="M-3381.344,856.935c22.942,26.543,79.485,36.213,108.712,30.01,0,0-13.692,6.921-16.488,13.8s3.383,17.266,8.677,22.4l-8.48,19.745-41.321,20.587-71.948,1.285-7.872-6.248s49.829,1.736,68.715-7.7,11.925-49.635,7.208-53.9-26.951-14.374-36.608-24.032S-3381.344,856.935-3381.344,856.935Z" transform="translate(3908.18 -450.468)" fill="#eab8b7"/>
                <path id="Path_5344" data-name="Path 5344" d="M-3326.324,972.29c-15.328,37.259-126.422,53.373-172.425,18.6l-4.641-9.323-14.369,8.266s9.263,31.524,10.388,32.306,135.155,33.386,135.155,33.386l85.137-44.441-15.214-25.712s-7.213-2.781-14.862-6.723S-3326.324,972.29-3326.324,972.29Z" transform="translate(3954.063 -499.614)"/>
                <path id="Path_5345" data-name="Path 5345" d="M-3894.284,1149.063l21.072,35.288a.03.03,0,0,0,.021.015l2.208,1.792,79.616,64.428,7.851,6.359,467.189,8.67,42.332-253.928c-37.829-6.707-55.6-16.13-112.133-23.254-33.1-4.166-68.087-5.008-68.087-5.008s-27.178,35.766-96.643,37.8-133.955-44.42-133.955-44.42-5.183-.952-15.363-3.564q-1.946-.494-4.125-1.074l-.009,0c-11.774-3.116-28.82-8.083-50.946-15.645a85.928,85.928,0,0,0-20.709-4.08,116.379,116.379,0,0,0-25.541.784l-12.228,25.809Z" transform="translate(4114.478 -491.006)" fill="#fff"/>
                <path id="Path_5346" data-name="Path 5346" d="M-2990.949,1074.275c28.718-22.894,41.918-32.941,94.4-19.652,32.447,8.217,124.239,28.363,139.415,30.662s14.1,13.342,14.1,13.342-22.908,2.442-28.318,30.193-.432,68.183-7.145,89.841-12.091,55.371-9.228,71.306-24.726,21.629-37.732,11.033c0,0-24.148-2.473-59.294,2.123s-58.809,3.661-83.183,3.4-40.666-48.11-52.886-91.819S-3022.414,1099.357-2990.949,1074.275Z" transform="translate(3744.453 -532.159)" fill="#fff"/>
                <path id="Path_5347" data-name="Path 5347" d="M-3529.333,1025.438c83.863,84.019,224.209,42.458,249.4,45.883s26.38,21.683,26.38,21.683c-12.609,51.1,4.383,110.165,5.668,114.446-.44-1.973-3.359-15.66-5.54-43.515-1.856-23.718,5.47-44.78,20.242-59.636a69.9,69.9,0,0,1,13.835-10.786c12.293-7.337,52.187-9.154,92.336-7.573,37.848,1.485,75.924,6,91.333,11.738,31.74,11.842,20.577,25.223,24.279,44.376,3.591,18.61,2.278,48.781,2.2,50.473a292.834,292.834,0,0,0,4.121-40.4c.641-21.849.93-44.972,8.626-55.78,7.042-9.91,17.739-5.812,14.967,1.882a33.329,33.329,0,0,1,23.9-17.488s1.076-11.049-14.1-13.346-106.968-22.446-139.419-30.662q-3.842-.974-7.414-1.782a.109.109,0,0,0-.05-.006c-4.483-.8-8.686-1.636-12.7-2.5-29.856-6.414-49.578-14.472-99.382-20.752-33.1-4.166-68.088-5.008-68.088-5.008s-27.178,35.766-96.643,37.8c-39.683,1.161-77.752-13.5-103.093-26.293Z" transform="translate(3958.994 -514.271)" fill="#c9d6e8"/>
                <path id="Path_5348" data-name="Path 5348" d="M-3312.5,986.9c-9.7,22.739-54.413,42.551-134.541,33.911s-66.556-37.715-66.556-37.715l8.628-5.3s-6.832-5.112-18.817,1.341-17.365,6.937-17.864,12.82-.24,39.3,82.3,55.466,140.013-10.49,163.6-28.11,16.218-35.034,7.754-38.514-31.141,3.307-31.141,3.307Z" transform="translate(3964.267 -501.14)" fill="#c9d6e8"/>
                <path id="Path_5349" data-name="Path 5349" d="M-3290.958,1061.437q-1.321,0-2.6-.035a.862.862,0,0,1-.836-.885.858.858,0,0,1,.885-.836c34.577.96,82.921-17.81,99.736-30.649,16.876-12.887,21.362-21.371,17.143-32.419a.861.861,0,0,1,.5-1.112.861.861,0,0,1,1.112.5c4.557,11.936-.077,20.938-17.708,34.4-9.026,6.892-25.915,14.909-44.075,20.922C-3256.607,1057.879-3275.707,1061.436-3290.958,1061.437Z" transform="translate(3858.9 -509.478)" fill="#0d0d0c"/>
                <path id="Path_5350" data-name="Path 5350" d="M-2905.387,1498.01l-24-.451a18.145,18.145,0,0,0,2.511.2C-2919.749,1497.839-2912.691,1497.975-2905.387,1498.01Z" transform="translate(3703.392 -723.4)" fill="#c9d6e8"/>
                <path id="Path_5351" data-name="Path 5351" d="M-2835.776,1051.572c4.014.86,8.217,1.7,12.7,2.5C-2827.612,1053.038-2831.825,1052.206-2835.776,1051.572Z" transform="translate(3663.51 -533.392)" fill="#c9d6e8"/>
                <path id="Path_5352" data-name="Path 5352" d="M-2835.776,1051.572c4.014.86,8.217,1.7,12.7,2.5C-2827.612,1053.038-2831.825,1052.206-2835.776,1051.572Z" transform="translate(3663.51 -533.392)" fill="#c9d6e8"/>
                <path id="Path_5353" data-name="Path 5353" d="M-4028.89,1055.764c-10.951,17.607,8.273,50.292,21.489,45.322,0,0,17.865,3.391,45.037,26.147,11.107,9.3,21.093,16.787,30.422,23.27a.033.033,0,0,0,.022.015c.962.672,1.914,1.324,2.856,1.974l.016,0c12.37,8.449,23.655,15.229,35.021,22.293,9.9,6.157,24.092,2.141,39.9-7.053,17.242-10.009,36.408-26.179,54.03-41.981,33.793-30.3,63.31-96.426,50.247-134.492-8.536-24.877-13.9-39.915-35.137-52.693-8.423-5.064-19.331-9.769-33.917-14.594-4.324-1.427-9.7-3.266-15.79-5.387-38.642-13.42-106.148-38.279-118.272-43.644-14.041-6.214-25.928,2.072-25.928,2.072s-3,.946-7.562,7.083c-.241.319-.486.653-.728,1.006a.3.3,0,0,0-.058.078l-.308.429c-2.987,4.332-6.545,10.809-10.338,20.444-10.341,26.313-6.752,68.4-12.725,90.273S-4020.346,1042.011-4028.89,1055.764Z" transform="translate(4173.207 -457.157)" fill="#fff"/>
                <path id="Path_5354" data-name="Path 5354" d="M-3945.006,889.34c-7.266,7.55-11.828,19.357-12.32,37.165s20.232,16.448,56.893,15.03c16.706-.646,40.6-.382,59.84,3.647,22.995,4.813,39.362,14.975,28.955,35.329-18.876,36.917-24.191,87.645-24.325,88.922-.06-.416-.4-2.758-2.1-14.07-2.392-15.834-4.015-48.321-4.015-48.321-8.079,31.072,1.781,99.851,1.781,99.851s.771,7.68-5.109,18.139-36.751,33.2-51.769,27.464l-.016,0a2.985,2.985,0,0,0-.648-.182l79.617,64.428c-1.095-13.15-2.418-29.285-4.031-49q-.422-5.148-.872-10.634c-7.569-92.56-.935-103.083,6.262-128.917s23.175-69.316,49.477-84.115a52.371,52.371,0,0,1,14.272-5.5,53.056,53.056,0,0,1,21.949-.256c-11.774-3.116-28.82-8.083-50.947-15.644a85.907,85.907,0,0,0-20.709-4.08c-38.642-13.42-106.148-38.279-118.273-43.644-14.04-6.214-25.928,2.072-25.928,2.072s-3,.946-7.561,7.083C-3949.412,877.857-3938.113,882.174-3945.006,889.34Z" transform="translate(4141.34 -457.157)" fill="#c9d6e8"/>
                <path id="Path_5355" data-name="Path 5355" d="M-3954.457,894.928a2.71,2.71,0,0,0,.309-.429C-3954.25,894.643-3954.354,894.785-3954.457,894.928Z" transform="translate(4140.114 -466.472)" fill="#c9d6e8"/>
              </g>
              <path id="Path_5356" data-name="Path 5356" d="M-4216.1,872.942c-1.917,0-3.013-.013-3.1-.014a.574.574,0,0,1-.566-.582.573.573,0,0,1,.574-.566h.007c.8.013,81.074.921,108.892-14.058a.573.573,0,0,1,.778.233.573.573,0,0,1-.233.778C-4134.676,872.153-4200.95,872.942-4216.1,872.942Z" transform="translate(4253.147 -450.774)" fill="#db8882"/>
              <path id="Path_5357" data-name="Path 5357" d="M-2927.261,1464.413a.857.857,0,0,1-.473-.142c-47.553-31.353-71.336-79.489-71.57-79.971a.86.86,0,0,1,.4-1.151.862.862,0,0,1,1.151.4c.233.479,23.824,48.2,70.97,79.287a.861.861,0,0,1,.245,1.193A.858.858,0,0,1-2927.261,1464.413Z" transform="translate(3733.217 -674.62)" fill="#0d0d0c"/>
              <path id="Path_5358" data-name="Path 5358" d="M-3015.807,1288.378a.859.859,0,0,1-.714-.38c-1.107-1.641-27.16-40.349-30.843-54.233-9.819-37.022-12.95-70.716-9.309-100.145,3.733-30.165,13.259-44.393,16.089-48.035,11.307-14.549,32.725-22.681,33.631-23.02a.86.86,0,0,1,1.107.5.861.861,0,0,1-.5,1.108c-.218.082-21.872,8.306-32.876,22.464-2.762,3.554-12.059,17.462-15.739,47.19-3.615,29.21-.5,62.684,9.264,99.491,3.609,13.605,30.335,53.312,30.6,53.712a.86.86,0,0,1-.231,1.2A.858.858,0,0,1-3015.807,1288.378Z" transform="translate(3758.247 -538.052)" fill="#0d0d0c"/>
              <path id="Path_5359" data-name="Path 5359" d="M-3721.892,1290.421a.86.86,0,0,1-.855-.773c-.54-5.254-13.206-128.9-10.207-148.671,2.934-19.347,16.941-71.036,36.026-102.855a.862.862,0,0,1,1.181-.3.86.86,0,0,1,.3,1.181c-18.961,31.615-32.882,83-35.8,102.228-2.966,19.556,10.085,146.953,10.218,148.237a.861.861,0,0,1-.768.944A.782.782,0,0,1-3721.892,1290.421Z" transform="translate(4045.94 -527.483)" fill="#0d0d0c"/>
              <path id="Path_5360" data-name="Path 5360" d="M-3740.72,1213.154a.861.861,0,0,1-.84-.676c-.956-4.338-23.3-106.53-13.618-130.981a.862.862,0,0,1,1.117-.483.859.859,0,0,1,.483,1.117c-9.487,23.965,13.466,128.92,13.7,129.977a.86.86,0,0,1-.655,1.026A.885.885,0,0,1-3740.72,1213.154Z" transform="translate(4056.247 -545.909)" fill="#0d0d0c"/>
            </g>
          </g>
          <g id="Group_2700" data-name="Group 2700" transform="translate(640.819 0)">
            <g id="Group_2695" data-name="Group 2695" transform="translate(24.488)">
              <circle id="Ellipse_206" data-name="Ellipse 206" cx="249.941" cy="249.941" r="249.941"/>
            </g>
            <g id="Group_2699" data-name="Group 2699" transform="translate(0 28.486)">
              <g id="Group_2696" data-name="Group 2696" transform="translate(17.768)">
                <circle id="Ellipse_207" data-name="Ellipse 207" cx="240.842" cy="240.842" r="240.842" fill="#fff"/>
              </g>
              <path id="Path_5361" data-name="Path 5361" d="M-3146.841,499.958c6.667,4.623,16.709,1.3,26.362-25.337s-1.266-68.561-1.266-68.561l-39.69,49.71Z" transform="translate(3161.435 -284.427)"/>
              <g id="Group_2697" data-name="Group 2697" transform="translate(47.099 29.331)" opacity="0.5">
                <circle id="Ellipse_208" data-name="Ellipse 208" cx="211.51" cy="211.51" r="211.51" fill="#c9d6e8"/>
              </g>
              <g id="Group_2698" data-name="Group 2698" transform="translate(4.492 22.325)">
                <path id="Path_5362" data-name="Path 5362" d="M-2856.261,964.029a.851.851,0,0,1-.3-.055c-5.767-2.151-11.529-4.581-17.127-7.223a.86.86,0,0,1-.411-1.146.862.862,0,0,1,1.146-.412c5.554,2.621,11.271,5.032,16.993,7.167a.86.86,0,0,1,.506,1.107A.861.861,0,0,1-2856.261,964.029Z" transform="translate(3034.562 -540.672)" fill="#0d0d0c"/>
                <path id="Path_5363" data-name="Path 5363" d="M-2873.22,670.071q-10.829,0-21.643-1.081a.861.861,0,0,1-.771-.942.858.858,0,0,1,.943-.771,217.172,217.172,0,0,0,217.6-123.212,215.317,215.317,0,0,0,8.005-165.693,215.326,215.326,0,0,0-111.5-122.823c-108.078-51.01-237.505-4.581-288.515,103.5A215.539,215.539,0,0,0-3077.93,522.4a.862.862,0,0,1-.532,1.1.862.862,0,0,1-1.1-.532,217.253,217.253,0,0,1,8.9-164.655,217.106,217.106,0,0,1,51.821-69.574,217.737,217.737,0,0,1,71.978-42.814,217.713,217.713,0,0,1,82.78-12.7,217.092,217.092,0,0,1,84.229,20.769,217.1,217.1,0,0,1,69.573,51.821,217.731,217.731,0,0,1,42.815,71.978,217.733,217.733,0,0,1,12.7,82.78,217.094,217.094,0,0,1-20.77,84.229,216.925,216.925,0,0,1-91.338,97.672,219.4,219.4,0,0,1-61.7,22.973A218.208,218.208,0,0,1-2873.22,670.071Z" transform="translate(3127.213 -233.038)" fill="#0d0d0c"/>
                <path id="Path_5364" data-name="Path 5364" d="M-3108.691,736.457c6.387-10.313-3.294-66.611-3.893-68.408s13.476-18.267,6.289-25.154-30.388-27.5-35.936-36.173-11.379,7.725-11.379,7.725l2.4,55.877Z" transform="translate(3153.609 -391.164)"/>
              </g>
            </g>
          </g>
          <path id="Path_5365" data-name="Path 5365" d="M-2187.536,892.038c-33.208,31.039-82.035,40.926-83.5,17.5a.018.018,0,0,1,0-.012c-.524-1.59-77.418-95.612-41.18-250.042l13-94.511-13.836-73.326-46.03-73.855-2.768-10.235c6.133-.5,26.781,16.318,30.436,22.33s7.833,5.511,7.382,4.685-8.979-33.93-8.979-33.93L-2366,364.555l-3.833-7.1s27.759,11.087,38.916,17.446,28.34,18.86,28.34,18.86l-6.8-18.907-43.4-34.335,48.741,12.869,1.291-14.738s46.776,5.651,53.454,10.672,35.933,34.365,45.178,64.228-7.789,61.438-7.671,101.3,8.271,69.329,28.96,187.489C-2163.849,810.75-2154.329,860.992-2187.536,892.038Z" transform="translate(3465.001 -227.22)"/>
          <g id="Group_2701" data-name="Group 2701" transform="translate(1080.034 105.677)">
            <path id="Path_5366" data-name="Path 5366" d="M-2238.753,487.334c6.794-29.269,3.462-66.182-1.712-80.26s-19.409-44.515-23.486-50.045-27.007-16.628-30.9-14.552c0,0-12.686-9.21-22.765-8.311a16.743,16.743,0,0,0-13.665,8.988s-35.475-15.392-45.127-14.486-2.152,12.6,7.822,17.693,28.886,13.34,34.151,18.355,15.2,36.234,15.2,36.234-22.694-24.37-34.32-32.919-32.437-18.326-36.9-20.329-7.8,5.007-4.27,11.277,29.349,23.413,32.48,27.963,17.117,36.91,19.993,43.811a114.169,114.169,0,0,1,4.48,12.925s-10.168-6.169-14.3-14.805-11.6-22.039-20.921-27.766-14.114-1.1-6.455,13.81,12.212,35.755,26.915,51.851,39.57,50.711,48.18,64.277,49.095.836,58.259-.721S-2244.629,512.645-2238.753,487.334Z" transform="translate(2396.198 -328.63)" fill="#f9cfcc"/>
            <path id="Path_5367" data-name="Path 5367" d="M-2268.072,361.03a31.825,31.825,0,0,1,5.977,4.548,62.425,62.425,0,0,1,5.135,5.509c1.61,1.927,3.13,3.928,4.578,5.978s2.823,4.15,4.118,6.309c2.527,4.337,5,8.66,7.435,13.028s4.811,8.76,7.115,13.2q-4.065-6.307-7.923-12.739c-2.574-4.28-5.121-8.6-7.6-12.915a124.393,124.393,0,0,0-8.387-12.325c-1.534-1.957-3.123-3.874-4.839-5.675A35.5,35.5,0,0,0-2268.072,361.03Z" transform="translate(2341.612 -342.434)" fill="#0d0d0c"/>
            <path id="Path_5368" data-name="Path 5368" d="M-2215.7,358.989l1.207,1.129c.412.371.758.8,1.138,1.2s.753.808,1.11,1.228l1.067,1.263q2.106,2.55,4.048,5.227c2.611,3.549,5.079,7.2,7.473,10.892,2.374,3.707,4.687,7.453,6.882,11.268a122.782,122.782,0,0,1,6.105,11.709c-1.083-1.916-2.218-3.795-3.384-5.658l-3.488-5.589c-2.348-3.712-4.7-7.422-7.08-11.108q-3.553-5.545-7.238-11c-.613-.91-1.229-1.818-1.86-2.714s-1.245-1.808-1.9-2.685l-.961-1.336c-.322-.445-.67-.867-1-1.3C-2214.245,360.633-2214.983,359.827-2215.7,358.989Z" transform="translate(2319.3 -341.564)" fill="#0d0d0c"/>
            <path id="Path_5369" data-name="Path 5369" d="M-2297.68,633.628c10.427,18.119,8.446,102.321-5.3,152.642s-51.16,150.239-22.405,214.629,95.56,71.619,104.41,64.879,55.286-67.761,40.239-146.383c-22.329-116.677-34.973-253.511-34.794-269.967S-2297.68,633.628-2297.68,633.628Z" transform="translate(2370.541 -458.57)" fill="#f9cfcc"/>
          </g>
          <g id="Group_2709" data-name="Group 2709" transform="translate(319.917 71.189)">
            <path id="Path_5398" data-name="Path 5398" d="M-3344.132,658.18a50.4,50.4,0,0,1-7.932,6.53,53.963,53.963,0,0,1-13.761,6.246h-.011c-.62.191-1.257.382-1.918.562q-2.034.617-3.876,1.268c-35.337,10.1-85.715-12.358-136.437-42.3-.684-1.813-40.067,17.245-40.907,15.5,0,0-49.943-17.388-86.978-67.238s-30.446-171.388,55.314-205.027,182.379,4.375,209.008,71.56c5.359,13.523,5.909,35.887,6.558,44.444s-2.834,12.776,2.579,21.606,23.36,20.689,26.843,24.965-6.078,16.8-6.078,16.8,3.117,22.613,7.306,48.761S-3336.032,650.277-3344.132,658.18Z" transform="translate(3693.614 -308.042)" fill="#f9cfcc"/>
            <path id="Path_5399" data-name="Path 5399" d="M-3161.3,543.045c-6.254,24.73-25.663,36.647-31.683,36.556s.8-6.12,4.6-18.973,2.983-45.207,2.983-45.207l14.841-12.993Z" transform="translate(3496.792 -368.187)"/>
            <path id="Path_5400" data-name="Path 5400" d="M-3267.513,899.83c-28,0-59.479-16.562-59.8-16.734a.574.574,0,0,1-.237-.776.574.574,0,0,1,.776-.237c.33.176,33.4,17.575,61.664,16.557a.578.578,0,0,1,.594.553.574.574,0,0,1-.552.594C-3265.881,899.816-3266.7,899.83-3267.513,899.83Z" transform="translate(3553.138 -529.907)" fill="#db8882"/>
            <path id="Path_5401" data-name="Path 5401" d="M-3483.222,614.567c.192,27.895-26.28,68.739-31.021,102.662s.324,47.181.324,47.181a77.289,77.289,0,0,1-53.613,5.726s-51.328-21.923-77.98-50.886-58.128-80.1-58.128-80.1Z" transform="translate(3713.338 -415.963)" fill="#c95380"/>
            <path id="Path_5402" data-name="Path 5402" d="M-3396.616,470.394c5.535,18.379,10.2,40.578-13.753,59.471s-24.588,25.3-21.977,28.9,1.693,11.284-8.427,1.317-5.356-24.018-5.356-24.018,3.658,6.048-8.882,13.739-55.213,39.181-68.511,53.017S-3532,582.878-3532,582.878l-4.461,37.82-14.143,14.9-12.229-24.7-60.926-4.964s-5.653,4.432-5.207,4.669,1.13,5.993-2.7,12.566l-11.463-21.305,28.351-55.478,203.934-120.309Z" transform="translate(3687.558 -335.659)"/>
            <path id="Path_5403" data-name="Path 5403" d="M-3639.929,316.388c6.519-26.4,63.368-57.12,118.882-45.2s72.344,13.761,93.689,27.2,22.952,8.005,21.5,3.933,4.315-2.517,4.9,5.171a8.1,8.1,0,0,1-6.372,8.977s24.391,21.167,32.435,41.2.584,62.155-3.863,71.955-5.077,3.142-5.034-4.439-1.815-29.949-14.373-44.806c0,0,9.009,33.188,1.448,56.429s-34.029,40.753-32.713,33.451,5.514-25.847,2.415-40.439-28.326-43.813-28.326-43.813,19.8,18.727,11.524,46.438c-2.8,9.381-5.928,25.54-23.876,38.375s-18.472,29.826-14.8,34.985-4.865,4.24-8.961-4.946-4.142-19.074,1.27-28.109c0,0-50.432,35.9-60.829,54.725s-11.893,19.676-12.2,28.146-6.892.556-6.649-9.68c0,0-9.6,15.869-13.745,24.706s-18.468,2.718-18.288-5.295a5.378,5.378,0,0,1-3.19,5.248c-3.667,1.965-17.556-5.69-17.556-5.69s10.1,8.248,3.2,9.941-18.083-.969-48.79-34.313c0,0,6.4,12.855,2.239,20.262s-6.539,5.321-6.3-2.291-10.672-12.832-29.205-35.356c-15.124-18.382-30.908-93.845-6.021-139.908,16.867-31.216,54.162-53.322,54.162-53.322s-5.13-11.867,2.47-23.5,23.856-17.152,20.989-13.721C-3640.528,305.427-3639.929,316.388-3639.929,316.388Z" transform="translate(3720.538 -268.542)" fill="#ed759d"/>
            <path id="Path_5404" data-name="Path 5404" d="M-3418.081,350.935c2.073,3.86,4.084,7.759,5.937,11.736.482.985.921,1.991,1.378,2.988s.918,2,1.342,3.008l1.3,3.028,1.216,3.064c1.576,4.1,3.044,8.256,4.266,12.491a118.461,118.461,0,0,1,2.978,12.894,91.244,91.244,0,0,1,.734,26.476,90.707,90.707,0,0,1-2.576,13.04,104.886,104.886,0,0,1-4.371,12.532,128.214,128.214,0,0,1-5.744,11.93l-3.164,5.757c-.534.949-1.019,1.924-1.519,2.891s-1.012,1.929-1.473,2.916a182.159,182.159,0,0,0-9.85,24.2,192.517,192.517,0,0,0-6.455,25.367,157.129,157.129,0,0,0-2.683,26.077,145.481,145.481,0,0,1,1.8-26.225,179.273,179.273,0,0,1,5.864-25.686,179.591,179.591,0,0,1,9.563-24.591c.457-1,.974-1.976,1.461-2.963s.977-1.974,1.508-2.939l3.1-5.8c2.011-3.858,3.874-7.786,5.535-11.795a98.083,98.083,0,0,0,6.783-25,93.288,93.288,0,0,0-.438-25.89,120.58,120.58,0,0,0-2.64-12.765q-1.692-6.307-3.849-12.5c-1.438-4.122-3.019-8.2-4.694-12.241l-1.278-3.022-1.329-3C-3416.249,354.915-3417.18,352.934-3418.081,350.935Z" transform="translate(3599.666 -303.645)" fill="#fff"/>
            <path id="Path_5405" data-name="Path 5405" d="M-3499.113,323.132a19.62,19.62,0,0,1,3.183,7.549,33.674,33.674,0,0,1,.518,8.238,79.94,79.94,0,0,1-2.845,16.246c-1.436,5.312-3.191,10.523-5.025,15.7s-3.786,10.3-5.743,15.42c-3.9,10.246-7.935,20.423-11.536,30.745a281.613,281.613,0,0,0-9.283,31.376c-1.193,5.313-2.2,10.669-2.862,16.063a117.49,117.49,0,0,0-.863,16.249,173.789,173.789,0,0,0,3.675,32.418,240.744,240.744,0,0,0,8.761,31.553,238.828,238.828,0,0,0,12.667,30.267c-1.368-2.374-2.65-4.8-3.891-7.245s-2.391-4.935-3.531-7.43c-2.258-5-4.378-10.066-6.32-15.2a241.747,241.747,0,0,1-9.435-31.57c-1.2-5.369-2.171-10.8-2.865-16.264a154.521,154.521,0,0,1-1.252-16.495,119.146,119.146,0,0,1,.82-16.555,161.341,161.341,0,0,1,2.865-16.293,273.969,273.969,0,0,1,9.485-31.592c3.733-10.331,7.818-20.513,11.946-30.66,4.083-10.16,8.2-20.315,11.324-30.78a79.2,79.2,0,0,0,3.312-15.983,33.6,33.6,0,0,0-.256-8.138A19.465,19.465,0,0,0-3499.113,323.132Z" transform="translate(3641.823 -291.8)" fill="#fff"/>
            <path id="Path_5406" data-name="Path 5406" d="M-3632.559,380.479c-12.937,12.19-24.633,25.772-33.473,41.1a130.855,130.855,0,0,0-10.845,24.1,122.921,122.921,0,0,0-3.489,12.745q-1.391,6.461-2.143,13.042a156.122,156.122,0,0,0-.587,26.458c.037,1.107.143,2.208.215,3.312s.145,2.209.251,3.309c.221,2.2.409,4.407.7,6.6.5,4.4,1.21,8.767,2.083,13.1a128,128,0,0,0,7.7,25.351,87.037,87.037,0,0,0,6.118,11.776,64.716,64.716,0,0,0,3.8,5.452,37.161,37.161,0,0,0,4.475,4.922,37.239,37.239,0,0,1-4.714-4.726,59.83,59.83,0,0,1-4.025-5.345,87.743,87.743,0,0,1-6.581-11.662,109.735,109.735,0,0,1-4.9-12.477,127.823,127.823,0,0,1-3.509-12.943c-.96-4.367-1.754-8.772-2.343-13.2-.334-2.211-.536-4.438-.786-6.659-.121-1.111-.193-2.226-.291-3.339s-.2-2.226-.253-3.343c-.28-4.456-.486-8.934-.409-13.414s.322-8.96.81-13.419a123.579,123.579,0,0,1,5.789-26.239,115.641,115.641,0,0,1,5.029-12.474,132.845,132.845,0,0,1,6.31-11.863c2.328-3.826,4.829-7.539,7.464-11.15q4.026-5.365,8.443-10.4c2.983-3.32,6.048-6.563,9.266-9.646,1.581-1.57,3.232-3.066,4.868-4.575S-3634.233,381.942-3632.559,380.479Z" transform="translate(3705.647 -316.232)" fill="#fff"/>
            <path id="Path_5407" data-name="Path 5407" d="M-3614.489,501.351l-1.347-4.341c-.38-1.467-.71-2.948-1.068-4.424-.325-1.483-.558-2.984-.842-4.478-.152-.746-.236-1.5-.336-2.255l-.295-2.263a113.823,113.823,0,0,1-.5-18.236,145.831,145.831,0,0,1,2.068-18.138c1.073-5.993,2.482-11.921,4.125-17.777q2.525-8.769,5.789-17.3c2.208-5.664,4.61-11.254,7.325-16.692a164.649,164.649,0,0,1,8.921-15.884,89.685,89.685,0,0,1,11.13-14.37l-1.438,1.756c-.479.584-.912,1.206-1.369,1.806s-.9,1.209-1.332,1.83-.878,1.227-1.29,1.859c-.823,1.265-1.665,2.515-2.437,3.812-.391.645-.793,1.282-1.174,1.933l-1.127,1.96c-3.018,5.219-5.743,10.6-8.267,16.071-2.5,5.481-4.84,11.034-6.908,16.69-2.1,5.644-3.985,11.363-5.615,17.154a179.438,179.438,0,0,0-6.618,35.4,127.368,127.368,0,0,0-.171,18.022l.165,2.252c.057.751.1,1.5.207,2.249.2,1.492.344,2.995.582,4.483.271,1.482.521,2.971.81,4.454Z" transform="translate(3677.291 -309.722)" fill="#fff"/>
            <path id="Path_5408" data-name="Path 5408" d="M-3313.695,498.3c-.013-3.478.077-6.94.16-10.4l-.009-10.37c-.195-6.9-.343-13.8-1.036-20.653a169.751,169.751,0,0,0-2.887-20.427c-.33-1.689-.777-3.348-1.139-5.033-.206-.835-.442-1.661-.664-2.493s-.437-1.667-.709-2.483l-.761-2.47-.858-2.44a46.378,46.378,0,0,0-2.041-4.766,34.235,34.235,0,0,1,2.625,4.514l1.105,2.372,1,2.421c.344.8.611,1.634.9,2.457s.584,1.647.853,2.477l.738,2.512c.232.841.51,1.673.7,2.524.406,1.7.848,3.389,1.191,5.1l.966,5.146c.485,3.453,1.009,6.908,1.27,10.385l.213,2.606c.075.868.145,1.737.167,2.608l.2,5.222c.083,1.74.04,3.482.028,5.222s-.041,3.48-.077,5.219c-.158,3.475-.406,6.945-.656,10.408C-3312.812,491.418-3313.2,494.869-3313.695,498.3Z" transform="translate(3551.443 -331.693)" fill="#fff"/>
            <path id="Path_5409" data-name="Path 5409" d="M-3247.084,389.044a130.259,130.259,0,0,0-17.312-22.708l-2.52-2.521c-.848-.829-1.638-1.72-2.544-2.49l-2.643-2.386c-.885-.789-1.741-1.613-2.687-2.332l-2.765-2.24c-.921-.748-1.826-1.516-2.8-2.188l-2.884-2.085c-.959-.7-1.912-1.4-2.927-2.02l-2.984-1.939-1.492-.971c-.492-.329-1.024-.6-1.534-.9l-3.089-1.769-1.544-.885c-.511-.3-1.054-.544-1.577-.822l-3.174-1.618c-1.058-.54-2.107-1.1-3.205-1.551l-3.26-1.441c-1.086-.482-2.157-1-3.278-1.4a160.227,160.227,0,0,0-27.376-8.246,118.678,118.678,0,0,1,28.021,6.574c1.151.364,2.255.849,3.374,1.3l3.343,1.384c1.125.437,2.2.978,3.292,1.5l3.262,1.571c1.1.5,2.145,1.1,3.2,1.7l3.157,1.777c.522.3,1.063.575,1.568.906l1.525.976,3.052,1.954c1.027.635,1.994,1.362,2.967,2.079l2.919,2.145c.99.692,1.907,1.48,2.839,2.249l2.785,2.317c.945.753,1.8,1.611,2.681,2.434l2.633,2.486c.9.806,1.691,1.722,2.524,2.594l2.461,2.653A101.9,101.9,0,0,1-3247.084,389.044Z" transform="translate(3557.852 -293.247)" fill="#fff"/>
          </g>
          <path id="Path_5587" data-name="Path 5587" d="M296.078,717.641s-8.727,194.772,38.757,200.928,402.734,2.639,442.3-18.466,41.329-95.848,41.329-95.848l61.553,123.986L290.868,964.294Z" transform="translate(23.839 58.816)" fill="#d6dce6"/>
        </g>
      </g>
      <g id="Group_2847" data-name="Group 2847" transform="translate(-647.96 22.089)">
        <g id="Group_2425" data-name="Group 2425" transform="translate(877.864 491.146)">
          <line id="Line_143" data-name="Line 143" x2="309.402" transform="translate(0 12.127)" fill="none" stroke="#a9bcd3" stroke-linecap="round" stroke-linejoin="round" stroke-width="2"/>
          <g id="Group_2829" data-name="Group 2829" transform="translate(124.427 0)">
            <rect id="Rectangle_196" data-name="Rectangle 196" width="61.033" height="24.254" rx="12.127" transform="translate(0 0)" fill="#a9bcd3"/>
            <g id="Group_2828" data-name="Group 2828" transform="translate(12.661 6.386)">
              <path id="Path_6271" data-name="Path 6271" d="M1140.912,639.255a7.758,7.758,0,0,1-2.873-.445V637.73a7.288,7.288,0,0,0,1.325.363,8.132,8.132,0,0,0,1.444.126,4.1,4.1,0,0,0,1.91-.348,1.3,1.3,0,0,0,.637-1.251,1.421,1.421,0,0,0-.259-.9,1.945,1.945,0,0,0-.852-.563,12.757,12.757,0,0,0-1.585-.466,4.9,4.9,0,0,1-2.207-1,2.19,2.19,0,0,1-.636-1.651,2.331,2.331,0,0,1,.874-1.919,4.21,4.21,0,0,1,2.666-.7,9.4,9.4,0,0,1,1.54.118,7.067,7.067,0,0,1,1.1.252v1.066a6.663,6.663,0,0,0-1.155-.3,7.893,7.893,0,0,0-1.289-.1,3.962,3.962,0,0,0-1.866.356,1.485,1.485,0,0,0-.422,2.021,1.746,1.746,0,0,0,.778.518,12.206,12.206,0,0,0,1.525.452,6.6,6.6,0,0,1,1.822.674,2.314,2.314,0,0,1,.918.926,2.671,2.671,0,0,1,.267,1.215,2.291,2.291,0,0,1-.918,1.947A4.537,4.537,0,0,1,1140.912,639.255Z" transform="translate(-1137.817 -629.125)" fill="#fff"/>
              <path id="Path_6272" data-name="Path 6272" d="M1154.608,638.82v-9.982h1.215v3.718a4.112,4.112,0,0,1,1.148-.652,4.277,4.277,0,0,1,1.532-.252,2.242,2.242,0,0,1,2.548,2.577v4.591h-1.215v-4.547a1.661,1.661,0,0,0-.407-1.281,2,2,0,0,0-1.341-.363,3.2,3.2,0,0,0-1.222.259,3.154,3.154,0,0,0-1.044.674v5.258Z" transform="translate(-1146.077 -628.838)" fill="#fff"/>
              <path id="Path_6273" data-name="Path 6273" d="M1172.678,641.694a3.136,3.136,0,0,1-1.229-.237,2.1,2.1,0,0,1-.9-.7,1.947,1.947,0,0,1-.341-1.178,2.1,2.1,0,0,1,.637-1.578,2.918,2.918,0,0,1,2.074-.615h2.444v-.429a2.257,2.257,0,0,0-.156-.919.94.94,0,0,0-.585-.489,4.1,4.1,0,0,0-1.259-.148,7.117,7.117,0,0,0-1.229.1,7.308,7.308,0,0,0-1.111.281v-1.007a6.171,6.171,0,0,1,1.118-.289,8.2,8.2,0,0,1,1.385-.111,3.507,3.507,0,0,1,2.244.607,2.394,2.394,0,0,1,.748,1.97v4.591h-1.022l-.089-.8a2.9,2.9,0,0,1-1.111.711A4.762,4.762,0,0,1,1172.678,641.694Zm.311-.992a3.21,3.21,0,0,0,1.363-.274,2.978,2.978,0,0,0,1.007-.748v-1.363h-2.414a1.792,1.792,0,0,0-1.185.311,1.2,1.2,0,0,0-.356.948.927.927,0,0,0,.43.882A2.34,2.34,0,0,0,1172.989,640.7Z" transform="translate(-1153.75 -631.563)" fill="#fff"/>
              <path id="Path_6274" data-name="Path 6274" d="M1186.558,641.545v-7.02h1.1l.088.889a6.891,6.891,0,0,1,1.223-.622,7.719,7.719,0,0,1,1.384-.415v.948q-.415.089-.9.244t-.933.349a4.225,4.225,0,0,0-.741.4v5.228Z" transform="translate(-1161.795 -631.563)" fill="#fff"/>
              <path id="Path_6275" data-name="Path 6275" d="M1199.227,641.694a3.9,3.9,0,0,1-2.815-.9,3.718,3.718,0,0,1-.932-2.784,4.037,4.037,0,0,1,.806-2.659,3.141,3.141,0,0,1,2.556-.97,3.468,3.468,0,0,1,1.71.378,2.428,2.428,0,0,1,1.007,1.036,3.249,3.249,0,0,1,.334,1.489V638.6h-5.2a2.733,2.733,0,0,0,.348,1.259,1.6,1.6,0,0,0,.873.659,4.914,4.914,0,0,0,1.548.2,5.187,5.187,0,0,0,1.985-.37v.948a4.985,4.985,0,0,1-1.03.3A6.7,6.7,0,0,1,1199.227,641.694Zm-2.533-3.969h4.117v-.578a1.829,1.829,0,0,0-.452-1.325,2.008,2.008,0,0,0-1.489-.466,2.073,2.073,0,0,0-1.718.592A2.876,2.876,0,0,0,1196.694,637.724Z" transform="translate(-1166.184 -631.563)" fill="#fff"/>
            </g>
          </g>
        </g>
        <g id="Group_2827" data-name="Group 2827" transform="translate(842.609 350.696)">
          <g id="Group_2807" data-name="Group 2807" transform="translate(40.378 0)">
            <path id="Path_6173" data-name="Path 6173" d="M980.694,387.513a6.307,6.307,0,0,1-2.4-.433,3.662,3.662,0,0,1-1.692-1.364,4.253,4.253,0,0,1-.63-2.427,3.981,3.981,0,0,1,1.338-3.161,6.1,6.1,0,0,1,4.092-1.167h4.643v-1.1a4.24,4.24,0,0,0-.354-1.9,2.051,2.051,0,0,0-1.22-1,7.618,7.618,0,0,0-2.413-.3,16.938,16.938,0,0,0-2.322.158,11.916,11.916,0,0,0-2.217.525v-1.784a13.346,13.346,0,0,1,2.3-.538,17.614,17.614,0,0,1,2.636-.2,11.9,11.9,0,0,1,1.285.065,8.414,8.414,0,0,1,1.128.2h4.512l-.106,1.757h-1.888a3.756,3.756,0,0,1,.63,1.39,7.925,7.925,0,0,1,.183,1.784v9.233h-2.151v-6.5h-4.512a4.615,4.615,0,0,0-2.623.59,2.22,2.22,0,0,0-.84,1.954,2.1,2.1,0,0,0,.761,1.862,4.388,4.388,0,0,0,2.439.524,6.745,6.745,0,0,0,1.784-.21v1.784q-.447.105-1.049.184A10.253,10.253,0,0,1,980.694,387.513Z" transform="translate(-916.703 -366.449)"/>
            <path id="Path_6174" data-name="Path 6174" d="M996.428,412.617v-3.436H994.7l.106-1.469h3.488v4.905Z" transform="translate(-926.798 -385.258)"/>
            <path id="Path_6175" data-name="Path 6175" d="M1013.794,387.513a5.606,5.606,0,0,1-2.911-.761,5.12,5.12,0,0,1-2.02-2.348,9.825,9.825,0,0,1-.735-4.105,8.09,8.09,0,0,1,1.731-5.469q1.732-2.007,5.351-2.007a7.632,7.632,0,0,1,3.738.8,5,5,0,0,1,2.085,2.085,5.982,5.982,0,0,1,.656,2.754v8.787h-2.151V378.49a4.46,4.46,0,0,0-.419-1.968,3.018,3.018,0,0,0-1.378-1.364,5.639,5.639,0,0,0-2.583-.5,4.437,4.437,0,0,0-3.751,1.469,6.721,6.721,0,0,0-1.128,4.171q0,2.99.984,4.184a3.537,3.537,0,0,0,2.9,1.193,9.005,9.005,0,0,0,.983-.053,4.449,4.449,0,0,0,.826-.157v1.784A7.641,7.641,0,0,1,1013.794,387.513Z" transform="translate(-934.039 -366.449)"/>
            <path id="Path_6176" data-name="Path 6176" d="M1044.041,387.251V373.086h1.941l.131,1.7a8.243,8.243,0,0,1,2.243-1.429,7.408,7.408,0,0,1,2.951-.538,4.556,4.556,0,0,1,3.489,1.311,5.272,5.272,0,0,1,1.233,3.751v9.364h-2.151v-9.338a3.288,3.288,0,0,0-.813-2.492,3.588,3.588,0,0,0-2.519-.761,5.253,5.253,0,0,0-2.452.564,7.293,7.293,0,0,0-1.9,1.4v10.623Z" transform="translate(-953.4 -366.449)"/>
            <path id="Path_6177" data-name="Path 6177" d="M1055.561,363.519v-2.466h-2.072v-1.548h3.62v2.466h5.745l-.106,1.548Z" transform="translate(-958.494 -359.27)"/>
            <path id="Path_6178" data-name="Path 6178" d="M1080.7,387.251V378.1a6.693,6.693,0,0,0-.236-1.941,1.834,1.834,0,0,0-.958-1.128,5.033,5.033,0,0,0-2.19-.367,10,10,0,0,0-1.823.184,10.149,10.149,0,0,0-1.8.5v-1.784a10.462,10.462,0,0,1,1.863-.525,11.23,11.23,0,0,1,2.151-.21,5.454,5.454,0,0,1,3.922,1.193,5.2,5.2,0,0,1,1.22,3.843v9.391Z" transform="translate(-969.386 -366.449)"/>
            <path id="Path_6179" data-name="Path 6179" d="M1105.149,387.513a8.655,8.655,0,0,1-4.551-1.036,3.549,3.549,0,0,1-1.692-3.265,3.7,3.7,0,0,1,.564-2.086,3.39,3.39,0,0,1,1.587-1.273,3.014,3.014,0,0,1-1.482-1.049,3.208,3.208,0,0,1-.59-2.02,3.655,3.655,0,0,1,1.18-2.977,4.552,4.552,0,0,1,3.016-.984,8.482,8.482,0,0,1,1.233.078,6.322,6.322,0,0,1,.944.21V374.9a3.312,3.312,0,0,0-.813-.184,8.906,8.906,0,0,0-.971-.052,2.819,2.819,0,0,0-1.8.512,2.3,2.3,0,0,0,.118,3.305,3.38,3.38,0,0,0,1.993.537h1.495l.131,1.626h-1.7a2.853,2.853,0,0,0-2.073.669,2.542,2.542,0,0,0-.682,1.9q0,2.466,4.013,2.465a4.944,4.944,0,0,0,3.03-.773,2.926,2.926,0,0,0,1.01-2.479v-9.338h2.151v8.971a5.344,5.344,0,0,1-1.469,4.053A6.539,6.539,0,0,1,1105.149,387.513Z" transform="translate(-982.979 -366.449)"/>
            <path id="Path_6180" data-name="Path 6180" d="M1137.1,387.513a6.189,6.189,0,0,1-4.262-1.325,4.818,4.818,0,0,1-1.482-3.79v-1.914a3.2,3.2,0,0,1,.367-1.5,8.3,8.3,0,0,1,.866-1.338q.5-.63.865-1.18a1.873,1.873,0,0,0,.367-1.023q0-.446-.2-.564a1.381,1.381,0,0,0-.669-.118h-1.888l.183-1.679h2.911a1.588,1.588,0,0,1,1.811,1.784,3.432,3.432,0,0,1-.367,1.6,9.446,9.446,0,0,1-.866,1.364,11.365,11.365,0,0,0-.865,1.312,2.846,2.846,0,0,0-.367,1.416v2.072a2.7,2.7,0,0,0,.971,2.335,4.36,4.36,0,0,0,2.623.708,4.474,4.474,0,0,0,2.663-.708,2.742,2.742,0,0,0,.984-2.387v-1.809a3.13,3.13,0,0,0-.472-2.007,2.239,2.239,0,0,0-1.731-.538h-.735l.105-1.705h.577a2.111,2.111,0,0,0,1.8-.629,3.256,3.256,0,0,0,.459-1.915v-1.154h2.151v1.128a5.433,5.433,0,0,1-.367,2.138,2.463,2.463,0,0,1-1.574,1.273,2.488,2.488,0,0,1,1.613,1.338,6.031,6.031,0,0,1,.328,2.124v1.548a4.775,4.775,0,0,1-1.535,3.8A6.273,6.273,0,0,1,1137.1,387.513Z" transform="translate(-1000.315 -366.449)"/>
            <path id="Path_6181" data-name="Path 6181" d="M1152.064,363.243v-4.25h2.151v4.25Z" transform="translate(-1011.637 -358.993)"/>
            <path id="Path_6182" data-name="Path 6182" d="M1166.042,387.513a9.949,9.949,0,0,1-3.961-.735v-1.81a9.777,9.777,0,0,0,1.665.511,8.427,8.427,0,0,0,1.8.2,6.593,6.593,0,0,0,3.017-.564,3.15,3.15,0,0,0,1.521-1.771,9.346,9.346,0,0,0,.446-3.174,6.26,6.26,0,0,0-1.154-4.224,5.054,5.054,0,0,0-3.908-1.285,8.221,8.221,0,0,0-1.758.184,7.76,7.76,0,0,0-1.626.551v-1.836a8.084,8.084,0,0,1,1.718-.551,10.75,10.75,0,0,1,2.111-.183,6.5,6.5,0,0,1,5.1,1.862,7.985,7.985,0,0,1,1.665,5.482,8.541,8.541,0,0,1-1.521,5.43Q1169.634,387.513,1166.042,387.513Z" transform="translate(-1017.037 -366.449)"/>
            <path id="Path_6183" data-name="Path 6183" d="M1195.529,387.513a8.657,8.657,0,0,1-4.551-1.036,3.549,3.549,0,0,1-1.691-3.265,3.69,3.69,0,0,1,.564-2.086,3.392,3.392,0,0,1,1.587-1.273,3.012,3.012,0,0,1-1.482-1.049,3.208,3.208,0,0,1-.59-2.02,3.654,3.654,0,0,1,1.181-2.977,4.552,4.552,0,0,1,3.017-.984,8.482,8.482,0,0,1,1.232.078,6.308,6.308,0,0,1,.944.21V374.9a3.3,3.3,0,0,0-.812-.184,8.918,8.918,0,0,0-.971-.052,2.818,2.818,0,0,0-1.8.512,2.3,2.3,0,0,0,.118,3.305,3.378,3.378,0,0,0,1.993.537h1.5l.131,1.626h-1.7a2.854,2.854,0,0,0-2.072.669,2.543,2.543,0,0,0-.682,1.9q0,2.466,4.014,2.465a4.941,4.941,0,0,0,3.029-.773,2.926,2.926,0,0,0,1.01-2.479v-9.338h2.152v8.971a5.345,5.345,0,0,1-1.469,4.053A6.541,6.541,0,0,1,1195.529,387.513Z" transform="translate(-1031.704 -366.449)"/>
            <path id="Path_6184" data-name="Path 6184" d="M1222.281,387.251v-5.745a3.608,3.608,0,0,1,.5-1.9,2.717,2.717,0,0,1,1.626-1.167l-2.964-.682v-2.518a9.873,9.873,0,0,1,2.662-1.666,9.5,9.5,0,0,1,3.922-.748,7.143,7.143,0,0,1,4.656,1.3,5.042,5.042,0,0,1,1.561,4.105v9.023h-2.151v-9.1a3.394,3.394,0,0,0-.918-2.728,5,5,0,0,0-3.148-.761,8.958,8.958,0,0,0-2.741.407,4.769,4.769,0,0,0-1.954,1.089v.551l3.068.735v1.626a2.854,2.854,0,0,0-1.482.826,2.489,2.489,0,0,0-.485,1.666v5.692Z" transform="translate(-1049.04 -366.449)"/>
            <path id="Path_6185" data-name="Path 6185" d="M1260.231,387.513a5.608,5.608,0,0,1-2.911-.761,5.126,5.126,0,0,1-2.02-2.348,9.831,9.831,0,0,1-.735-4.105,8.089,8.089,0,0,1,1.732-5.469q1.732-2.007,5.351-2.007a7.63,7.63,0,0,1,3.738.8,5,5,0,0,1,2.085,2.085,5.975,5.975,0,0,1,.656,2.754v8.787h-2.151V378.49a4.453,4.453,0,0,0-.419-1.968,3.015,3.015,0,0,0-1.377-1.364,5.641,5.641,0,0,0-2.584-.5,4.436,4.436,0,0,0-3.751,1.469,6.722,6.722,0,0,0-1.128,4.171q0,2.99.984,4.184a3.537,3.537,0,0,0,2.9,1.193,9,9,0,0,0,.984-.053,4.449,4.449,0,0,0,.826-.157v1.784A7.641,7.641,0,0,1,1260.231,387.513Z" transform="translate(-1066.897 -366.449)"/>
            <path id="Path_6186" data-name="Path 6186" d="M1292.892,387.557a2.291,2.291,0,0,1-1.771-.695,2.576,2.576,0,0,1-.642-1.823V373.393h2.151v11.122q0,1.286,1.233,1.285h1.233v1.757Zm6.007,0a2.291,2.291,0,0,1-1.771-.695,2.578,2.578,0,0,1-.643-1.823V373.393h2.151v11.122q0,1.286,1.233,1.285h1.232v1.757Z" transform="translate(-1086.258 -366.756)"/>
            <path id="Path_6187" data-name="Path 6187" d="M1323.774,387.513a6.19,6.19,0,0,1-4.263-1.325,4.819,4.819,0,0,1-1.482-3.79v-1.914a3.2,3.2,0,0,1,.367-1.5,8.244,8.244,0,0,1,.865-1.338q.5-.63.865-1.18a1.877,1.877,0,0,0,.367-1.023c0-.3-.066-.485-.2-.564a1.381,1.381,0,0,0-.669-.118h-1.889l.184-1.679h2.912a1.588,1.588,0,0,1,1.81,1.784,3.435,3.435,0,0,1-.367,1.6,9.458,9.458,0,0,1-.866,1.364,11.3,11.3,0,0,0-.865,1.312,2.846,2.846,0,0,0-.367,1.416v2.072a2.694,2.694,0,0,0,.971,2.335,4.36,4.36,0,0,0,2.623.708,4.472,4.472,0,0,0,2.662-.708,2.742,2.742,0,0,0,.983-2.387v-1.809a3.134,3.134,0,0,0-.472-2.007,2.239,2.239,0,0,0-1.731-.538h-.735l.105-1.705h.577a2.111,2.111,0,0,0,1.8-.629,3.254,3.254,0,0,0,.459-1.915v-1.154h2.151v1.128a5.419,5.419,0,0,1-.367,2.138,2.461,2.461,0,0,1-1.574,1.273,2.485,2.485,0,0,1,1.613,1.338,6.019,6.019,0,0,1,.328,2.124v1.548a4.775,4.775,0,0,1-1.534,3.8A6.274,6.274,0,0,1,1323.774,387.513Z" transform="translate(-1100.955 -366.449)"/>
            <path id="Path_6188" data-name="Path 6188" d="M1353.769,387.513a18.825,18.825,0,0,1-2.558-.171,8.738,8.738,0,0,1-2.084-.511v-1.915a10.233,10.233,0,0,0,2.124.577,13.383,13.383,0,0,0,2.151.183,8.205,8.205,0,0,0,2.872-.38,1.593,1.593,0,0,0,.958-1.666,1.813,1.813,0,0,0-.485-1.377,3.726,3.726,0,0,0-1.377-.76q-.893-.3-2.151-.721a20.5,20.5,0,0,1-2.177-.879,4.734,4.734,0,0,1-1.652-1.246,3.024,3.024,0,0,1-.629-1.993,3.282,3.282,0,0,1,1.377-2.846,7.055,7.055,0,0,1,4.105-.984,14.221,14.221,0,0,1,2.282.183,11.673,11.673,0,0,1,1.888.446v1.888a9.409,9.409,0,0,0-1.875-.511,11.869,11.869,0,0,0-1.98-.171,7.5,7.5,0,0,0-2.715.381,1.513,1.513,0,0,0-.931,1.561,1.6,1.6,0,0,0,.485,1.22,3.977,3.977,0,0,0,1.39.787q.905.328,2.19.748a15.7,15.7,0,0,1,2.282.931,4.342,4.342,0,0,1,1.561,1.285,3.374,3.374,0,0,1,.564,2.033,3.2,3.2,0,0,1-1.548,3.017A8.1,8.1,0,0,1,1353.769,387.513Z" transform="translate(-1117.678 -366.449)"/>
            <path id="Path_6189" data-name="Path 6189" d="M1358.263,364.1v-3.515h7.371l-.079,1.548h-5.482V364.1Z" transform="translate(-1122.802 -359.852)"/>
            <path id="Path_6190" data-name="Path 6190" d="M849.788,455.854a2.29,2.29,0,0,1-1.77-.7,2.577,2.577,0,0,1-.643-1.823V441.69h2.151v11.122q0,1.285,1.233,1.285h1.5v1.757Z" transform="translate(-847.375 -395.938)"/>
            <path id="Path_6191" data-name="Path 6191" d="M864.857,455.854,861.6,441.69h2.2l2.335,11.148,2.991-9.364V441.69h1.6l3.2,11.148,2.309-11.148h2.177l-3.226,14.164H873.04l-2.911-9.968-3.148,9.968Z" transform="translate(-855.046 -395.938)"/>
            <path id="Path_6192" data-name="Path 6192" d="M871.962,432.092l.1-1.548h5.377v-2.23h1.627v2.23h1.679v-2.23h1.627v3.777Z" transform="translate(-860.63 -388.728)"/>
            <path id="Path_6193" data-name="Path 6193" d="M890.573,421.261v-3.646h1.81v3.646Z" transform="translate(-870.664 -382.959)"/>
            <path id="Path_6194" data-name="Path 6194" d="M907.158,455.809a14.607,14.607,0,0,1-3.043-.3,14.4,14.4,0,0,1-2.387-.7v-7.134h5.194l.105,1.757h-3.147v4.013a9.529,9.529,0,0,0,1.534.38,10.108,10.108,0,0,0,1.692.144,5.921,5.921,0,0,0,2.715-.524,3.1,3.1,0,0,0,1.469-1.731,9.3,9.3,0,0,0,.459-3.227,9.094,9.094,0,0,0-.486-3.3,3.054,3.054,0,0,0-1.626-1.718,7.744,7.744,0,0,0-3.108-.512,17.729,17.729,0,0,0-2.322.158,11.821,11.821,0,0,0-2.269.525v-1.784a12.314,12.314,0,0,1,2.4-.551,20.362,20.362,0,0,1,2.741-.184q3.62,0,5.22,1.85a8.245,8.245,0,0,1,1.6,5.521,8.162,8.162,0,0,1-1.6,5.456Q910.7,455.81,907.158,455.809Z" transform="translate(-876.677 -395.631)"/>
            <path id="Path_6195" data-name="Path 6195" d="M933.41,447.969a2.29,2.29,0,0,1-1.77-.695,2.577,2.577,0,0,1-.643-1.823v-9.1a4.735,4.735,0,0,1,.341-1.888,5.28,5.28,0,0,1,.826-1.351,12.406,12.406,0,0,1,.984-1.023,7.1,7.1,0,0,0,.839-.905,1.561,1.561,0,0,0,.341-.971,1.128,1.128,0,0,0-.5-1.1,3.1,3.1,0,0,0-1.417-.262,5.979,5.979,0,0,0-2.911.813v-1.679a6.426,6.426,0,0,1,1.718-.682,7.722,7.722,0,0,1,1.849-.236,3.7,3.7,0,0,1,2.61.8,2.858,2.858,0,0,1,.853,2.19,2.688,2.688,0,0,1-.341,1.39,4.81,4.81,0,0,1-.839,1.049q-.5.472-1.01,1a4.767,4.767,0,0,0-.853,1.207,3.725,3.725,0,0,0-.341,1.679v8.551q0,1.285,1.233,1.285h1.5v1.757Z" transform="translate(-891.651 -388.053)"/>
            <path id="Path_6196" data-name="Path 6196" d="M948.4,455.854V441.69h2.151v4.59h4.7a2.527,2.527,0,0,0,3.043-2.859V441.69h2.151v1.7a5.157,5.157,0,0,1-.5,2.334,2.766,2.766,0,0,1-1.757,1.391,2.528,2.528,0,0,1,1.7,1.364,5.683,5.683,0,0,1,.394,2.2v5.168H958.13v-4.905a3.158,3.158,0,0,0-.643-2.3,3.457,3.457,0,0,0-2.374-.616h-4.565v7.817Z" transform="translate(-901.838 -395.938)"/>
            <path id="Path_6197" data-name="Path 6197" d="M959.69,431.816V429.35h-2.073V427.8h3.62v2.466h5.745l-.105,1.548Z" transform="translate(-906.808 -388.452)"/>
            <path id="Path_6198" data-name="Path 6198" d="M980.667,455.547v-9.181a5.011,5.011,0,0,1,1.483-3.882,6.716,6.716,0,0,1,4.655-1.364,6.616,6.616,0,0,1,4.63,1.364,5.06,5.06,0,0,1,1.456,3.882v9.181H990.74V446.13a2.814,2.814,0,0,0-1.01-2.439,4.931,4.931,0,0,0-2.925-.735,5.034,5.034,0,0,0-2.977.735,2.812,2.812,0,0,0-1.01,2.439v3.279a4.464,4.464,0,0,1,3.043-1.075h1.731l.105,1.757h-1.889a4.464,4.464,0,0,0-2.99,1.023v4.433Z" transform="translate(-919.235 -395.631)"/>
            <path id="Path_6199" data-name="Path 6199" d="M1018.4,456.117a4.548,4.548,0,0,1-3.5-1.311,5.348,5.348,0,0,1-1.22-3.777V441.69h2.151V451a3.4,3.4,0,0,0,.787,2.518,3.482,3.482,0,0,0,2.492.76,5.546,5.546,0,0,0,2.466-.551,6.87,6.87,0,0,0,1.941-1.39V441.69h2.151v14.164h-1.941l-.131-1.7a7.78,7.78,0,0,1-2.229,1.429A7.508,7.508,0,0,1,1018.4,456.117Z" transform="translate(-937.031 -395.938)"/>
            <path id="Path_6200" data-name="Path 6200" d="M1046.175,455.547V441.383h1.942l.13,1.7a8.235,8.235,0,0,1,2.243-1.43,7.416,7.416,0,0,1,2.951-.538,4.559,4.559,0,0,1,3.489,1.312,5.274,5.274,0,0,1,1.233,3.751v9.364h-2.151v-9.338a3.287,3.287,0,0,0-.813-2.492,3.586,3.586,0,0,0-2.518-.761,5.254,5.254,0,0,0-2.452.564,7.3,7.3,0,0,0-1.9,1.4v10.623Z" transform="translate(-954.551 -395.631)"/>
            <path id="Path_6201" data-name="Path 6201" d="M1049.477,432.092l.1-1.548h8.5v-2.23h1.809v3.777Z" transform="translate(-956.331 -388.728)"/>
            <path id="Path_6202" data-name="Path 6202" d="M1068.087,421.261v-3.646h1.81v3.646Z" transform="translate(-966.364 -382.959)"/>
            <path id="Path_6203" data-name="Path 6203" d="M1078.673,455.547v-9.181a5.011,5.011,0,0,1,1.483-3.882,6.716,6.716,0,0,1,4.655-1.364,6.615,6.615,0,0,1,4.63,1.364,5.059,5.059,0,0,1,1.456,3.882v9.181h-2.151V446.13a2.813,2.813,0,0,0-1.01-2.439,4.93,4.93,0,0,0-2.925-.735,5.034,5.034,0,0,0-2.977.735,2.812,2.812,0,0,0-1.01,2.439v3.279a4.464,4.464,0,0,1,3.042-1.075h1.731l.105,1.757h-1.889a4.463,4.463,0,0,0-2.99,1.023v4.433Z" transform="translate(-972.071 -395.631)"/>
            <path id="Path_6204" data-name="Path 6204" d="M1099.072,480.914v-3.436h-1.731l.1-1.469h3.489v4.905Z" transform="translate(-982.135 -414.44)"/>
            <path id="Path_6205" data-name="Path 6205" d="M1125.47,455.809a4.357,4.357,0,0,1-3.4-1.311,5.42,5.42,0,0,1-1.193-3.777v-4.276a3.515,3.515,0,0,0-.866-2.728,4.658,4.658,0,0,0-3.043-.761,8.289,8.289,0,0,0-2.636.407,4.781,4.781,0,0,0-1.9,1.088V445l3.069.735v1.626a2.852,2.852,0,0,0-1.482.826,2.491,2.491,0,0,0-.485,1.666V452.5q0,1.285,1.233,1.285h1.5v1.757H1113.8a2.29,2.29,0,0,1-1.771-.7,2.578,2.578,0,0,1-.643-1.823V449.8a3.61,3.61,0,0,1,.5-1.9,2.721,2.721,0,0,1,1.626-1.167l-2.964-.682v-2.518a10.092,10.092,0,0,1,2.61-1.666,9.01,9.01,0,0,1,3.817-.748,6.771,6.771,0,0,1,4.538,1.3,5.161,5.161,0,0,1,1.495,4.105v4.171a3.43,3.43,0,0,0,.774,2.518,3.305,3.305,0,0,0,2.4.76,4.925,4.925,0,0,0,2.348-.551,7.37,7.37,0,0,0,1.849-1.39v-10.65h2.151v14.164h-1.941l-.131-1.7a8.244,8.244,0,0,1-2.138,1.429A6.78,6.78,0,0,1,1125.47,455.809Z" transform="translate(-989.253 -395.631)"/>
            <path id="Path_6206" data-name="Path 6206" d="M1167.141,455.854a2.29,2.29,0,0,1-1.771-.7,2.576,2.576,0,0,1-.642-1.823V441.69h2.15v11.122q0,1.285,1.233,1.285h1.233v1.757Zm6.007,0a2.29,2.29,0,0,1-1.771-.7,2.578,2.578,0,0,1-.642-1.823V441.69h2.151v11.122q0,1.285,1.233,1.285h1.232v1.757Z" transform="translate(-1018.464 -395.938)"/>
            <path id="Path_6207" data-name="Path 6207" d="M1193.127,455.547v-9.181a5.011,5.011,0,0,1,1.482-3.882,6.718,6.718,0,0,1,4.655-1.364,6.617,6.617,0,0,1,4.63,1.364,5.059,5.059,0,0,1,1.456,3.882v9.181H1203.2V446.13a2.814,2.814,0,0,0-1.009-2.439,4.933,4.933,0,0,0-2.925-.735,5.035,5.035,0,0,0-2.977.735,2.814,2.814,0,0,0-1.01,2.439v3.279a4.465,4.465,0,0,1,3.043-1.075h1.731l.1,1.757h-1.889a4.465,4.465,0,0,0-2.99,1.023v4.433Z" transform="translate(-1033.775 -395.631)"/>
            <path id="Path_6208" data-name="Path 6208" d="M1230.009,455.809a18.9,18.9,0,0,1-2.558-.171,8.753,8.753,0,0,1-2.085-.511v-1.915a10.242,10.242,0,0,0,2.124.577,13.381,13.381,0,0,0,2.151.183,8.209,8.209,0,0,0,2.872-.38,1.593,1.593,0,0,0,.957-1.666,1.812,1.812,0,0,0-.485-1.377,3.727,3.727,0,0,0-1.377-.761q-.892-.3-2.151-.721a20.671,20.671,0,0,1-2.178-.879,4.741,4.741,0,0,1-1.653-1.246,3.024,3.024,0,0,1-.629-1.993,3.281,3.281,0,0,1,1.377-2.846,7.056,7.056,0,0,1,4.105-.984,14.214,14.214,0,0,1,2.282.184,11.662,11.662,0,0,1,1.888.446v1.888a9.41,9.41,0,0,0-1.875-.512,11.92,11.92,0,0,0-1.981-.171,7.5,7.5,0,0,0-2.715.38,1.513,1.513,0,0,0-.932,1.561,1.6,1.6,0,0,0,.485,1.22,3.982,3.982,0,0,0,1.39.787q.905.328,2.19.748a15.684,15.684,0,0,1,2.282.931,4.344,4.344,0,0,1,1.561,1.285,3.37,3.37,0,0,1,.565,2.033,3.2,3.2,0,0,1-1.548,3.016A8.1,8.1,0,0,1,1230.009,455.809Z" transform="translate(-1050.957 -395.631)"/>
            <path id="Path_6209" data-name="Path 6209" d="M1234.5,432.4v-3.515h7.371l-.079,1.548h-5.482V432.4Z" transform="translate(-1056.081 -389.034)"/>
            <path id="Path_6210" data-name="Path 6210" d="M1253.4,455.854V441.69h2.151v4.59h4.7a2.526,2.526,0,0,0,3.043-2.859V441.69h2.151v1.7a5.156,5.156,0,0,1-.5,2.334,2.765,2.765,0,0,1-1.757,1.391,2.529,2.529,0,0,1,1.7,1.364,5.691,5.691,0,0,1,.394,2.2v5.168h-2.15v-4.905a3.16,3.16,0,0,0-.643-2.3,3.459,3.459,0,0,0-2.374-.616h-4.565v7.817Z" transform="translate(-1066.268 -395.938)"/>
            <path id="Path_6211" data-name="Path 6211" d="M1274.514,431.54v-4.25h2.151v4.25Z" transform="translate(-1077.651 -388.175)"/>
            <path id="Path_6212" data-name="Path 6212" d="M1289.827,455.547v-9.155a6.674,6.674,0,0,0-.237-1.941,1.831,1.831,0,0,0-.957-1.128,5.025,5.025,0,0,0-2.19-.367,10.006,10.006,0,0,0-1.823.184,10.152,10.152,0,0,0-1.8.5v-1.784a10.46,10.46,0,0,1,1.862-.525,11.23,11.23,0,0,1,2.151-.21,5.454,5.454,0,0,1,3.922,1.194,5.2,5.2,0,0,1,1.22,3.843v9.391Z" transform="translate(-1082.131 -395.631)"/>
            <path id="Path_6213" data-name="Path 6213" d="M1312.909,456.117q-.5,0-1.167-.053a4.048,4.048,0,0,1-1.141-.236l-3.987-9.705h2.1l3.358,8.158a4.054,4.054,0,0,0,3.685-1.285,7.432,7.432,0,0,0,1.194-4.7,9.846,9.846,0,0,0-.341-2.9,2.508,2.508,0,0,0-1.141-1.508,4.648,4.648,0,0,0-2.243-.446h-.918V441.69h1.154q3.016,0,4.328,1.613a7.8,7.8,0,0,1,1.312,4.971,10.532,10.532,0,0,1-.826,4.512,5.576,5.576,0,0,1-2.217,2.532A6.2,6.2,0,0,1,1312.909,456.117Z" transform="translate(-1094.957 -395.938)"/>
            <path id="Path_6214" data-name="Path 6214" d="M1339.613,448.061a2.291,2.291,0,0,1-1.771-.7,2.576,2.576,0,0,1-.642-1.823V433.45a5.39,5.39,0,0,1,.642-2.754,4.954,4.954,0,0,1,1.64-1.731h-4.7v-1.731h7.345v1.7a4.053,4.053,0,0,0-2.19,1.9,7.721,7.721,0,0,0-.591,3.318v10.859q0,1.285,1.233,1.285h1.5v1.757Z" transform="translate(-1110.145 -388.145)"/>
            <path id="Path_6215" data-name="Path 6215" d="M1354.066,455.547V449.8a3.6,3.6,0,0,1,.5-1.9,2.719,2.719,0,0,1,1.626-1.167l-2.964-.682v-2.518a9.881,9.881,0,0,1,2.663-1.666,9.51,9.51,0,0,1,3.921-.748,7.142,7.142,0,0,1,4.656,1.3,5.044,5.044,0,0,1,1.561,4.105v9.023h-2.151v-9.1a3.392,3.392,0,0,0-.918-2.728,5,5,0,0,0-3.148-.761,8.954,8.954,0,0,0-2.741.407,4.779,4.779,0,0,0-1.954,1.088V445l3.069.735v1.626a2.85,2.85,0,0,0-1.482.826,2.488,2.488,0,0,0-.485,1.666v5.692Z" transform="translate(-1120.086 -395.631)"/>
            <path id="Path_6216" data-name="Path 6216" d="M1391.072,455.809a6.31,6.31,0,0,1-2.4-.433,3.661,3.661,0,0,1-1.692-1.364,4.256,4.256,0,0,1-.629-2.427,3.98,3.98,0,0,1,1.338-3.161,6.1,6.1,0,0,1,4.092-1.167h4.643v-1.1a4.247,4.247,0,0,0-.354-1.9,2.051,2.051,0,0,0-1.22-1,7.624,7.624,0,0,0-2.413-.3,16.955,16.955,0,0,0-2.322.158,11.9,11.9,0,0,0-2.216.525v-1.784a13.286,13.286,0,0,1,2.3-.538,17.593,17.593,0,0,1,2.635-.2,6.388,6.388,0,0,1,4.368,1.246,5.08,5.08,0,0,1,1.377,3.947v9.233h-2.151v-6.505h-4.512a4.614,4.614,0,0,0-2.623.59,2.22,2.22,0,0,0-.84,1.954,2.1,2.1,0,0,0,.761,1.862,4.387,4.387,0,0,0,2.44.524,6.738,6.738,0,0,0,1.783-.21v1.784a10.65,10.65,0,0,1-1.049.184A10.238,10.238,0,0,1,1391.072,455.809Z" transform="translate(-1137.944 -395.631)"/>
            <path id="Path_6217" data-name="Path 6217" d="M1424.1,455.809a8.011,8.011,0,0,1-1.036-.078,4.819,4.819,0,0,1-.957-.21l-2.2-5.876h-1.678l.1-1.757h2.964l2.282,6.086a4.537,4.537,0,0,0,2.335-.406,3.9,3.9,0,0,0,1.784-1.8,7.424,7.424,0,0,0,.682-3.462,7.855,7.855,0,0,0-.525-3.148,3.2,3.2,0,0,0-1.7-1.692,8.2,8.2,0,0,0-3.2-.512,16.584,16.584,0,0,0-2.217.158,11.849,11.849,0,0,0-2.242.525v-1.784a13.29,13.29,0,0,1,2.295-.538,18.341,18.341,0,0,1,2.741-.2q3.645,0,5.326,1.862a7.691,7.691,0,0,1,1.678,5.325,8.677,8.677,0,0,1-.891,4.131,6.11,6.11,0,0,1-5.535,3.37Z" transform="translate(-1155.127 -395.631)"/>
            <path id="Path_6218" data-name="Path 6218" d="M1454.422,455.547v-9.155a6.7,6.7,0,0,0-.235-1.941,1.835,1.835,0,0,0-.958-1.128,5.02,5.02,0,0,0-2.19-.367,10,10,0,0,0-1.823.184,10.147,10.147,0,0,0-1.8.5v-1.784a10.441,10.441,0,0,1,1.863-.525,11.222,11.222,0,0,1,2.15-.21,5.456,5.456,0,0,1,3.922,1.194,5.2,5.2,0,0,1,1.22,3.843v9.391Z" transform="translate(-1170.867 -395.631)"/>
            <path id="Path_6219" data-name="Path 6219" d="M1473.471,455.547V449.8a3.615,3.615,0,0,1,.5-1.9,2.722,2.722,0,0,1,1.627-1.167l-2.964-.682v-2.518a9.88,9.88,0,0,1,2.662-1.666,9.513,9.513,0,0,1,3.922-.748,7.14,7.14,0,0,1,4.656,1.3,5.042,5.042,0,0,1,1.56,4.105v9.023h-2.151v-9.1a3.394,3.394,0,0,0-.918-2.728,5,5,0,0,0-3.148-.761,8.956,8.956,0,0,0-2.741.407,4.77,4.77,0,0,0-1.954,1.088V445l3.069.735v1.626a2.851,2.851,0,0,0-1.482.826,2.489,2.489,0,0,0-.485,1.666v5.692Z" transform="translate(-1184.459 -395.631)"/>
          </g>
          <g id="Group_2825" data-name="Group 2825" transform="translate(0 75.224)">
            <g id="Group_2808" data-name="Group 2808" transform="translate(0 6.787)">
              <path id="Path_6220" data-name="Path 6220" d="M842.188,515.458v-9.094h5.157l-.633,9.094Zm7.827,0v-9.094h5.158l-.633,9.094Z" transform="translate(-839.354 -503.53)" fill="#fff"/>
              <path id="Path_6221" data-name="Path 6221" d="M852.374,516.127h-4.525a2.835,2.835,0,0,0-3.3,0h-4.524a2.834,2.834,0,0,1-2.834-2.834V504.2a2.834,2.834,0,0,1,2.834-2.834h5.157a2.839,2.839,0,0,0,2.669,0h5.158a2.834,2.834,0,0,1,2.828,3.031l-.633,9.094A2.835,2.835,0,0,1,852.374,516.127Z" transform="translate(-837.188 -501.364)" fill="#fff"/>
            </g>
            <g id="Group_2809" data-name="Group 2809" transform="translate(15.473 11.492)">
              <path id="Path_6222" data-name="Path 6222" d="M884.188,539.549a12.861,12.861,0,0,1-4.57-.769,13.258,13.258,0,0,1-3.664-2.082l-.272,2.4h-5.61V530.41a6.918,6.918,0,0,1,.769-3.122,22.12,22.12,0,0,1,1.787-2.964q1.019-1.425,1.787-2.556a3.609,3.609,0,0,0,.769-1.855q0-.859-.723-.859a1.443,1.443,0,0,0-.611.135,1.769,1.769,0,0,0-.52.362v1.855h-3.847v-6.741h4.027v1.266a6.494,6.494,0,0,1,1.539-.9,5.492,5.492,0,0,1,2.126-.362q3.62,0,3.62,3.71a7.072,7.072,0,0,1-.7,3.122,25.149,25.149,0,0,1-1.606,2.828,27.473,27.473,0,0,0-1.606,2.783,6.483,6.483,0,0,0-.7,2.941v2.217a7.736,7.736,0,0,0,2.647,1.809,8.205,8.205,0,0,0,3.325.724,4.564,4.564,0,0,0,3.28-1.063,4.768,4.768,0,0,0,1.109-3.552V514.665h6.108v15.88a9.222,9.222,0,0,1-2.262,6.628A8.152,8.152,0,0,1,884.188,539.549Z" transform="translate(-866.649 -511.831)" fill="#fff"/>
              <path id="Path_6223" data-name="Path 6223" d="M882.022,540.218a15.735,15.735,0,0,1-5.571-.952q-.455-.172-.9-.367a2.83,2.83,0,0,1-2.04.866h-5.61a2.834,2.834,0,0,1-2.834-2.834v-8.687a9.755,9.755,0,0,1,1.067-4.389q.454-.907.989-1.787a2.835,2.835,0,0,1-2.645-2.828V512.5a2.835,2.835,0,0,1,2.834-2.834h4.027a2.823,2.823,0,0,1,1.268.3,9.07,9.07,0,0,1,2.4-.3c3.981,0,6.454,2.507,6.454,6.544a9.9,9.9,0,0,1-.985,4.357,28.074,28.074,0,0,1-1.786,3.146,24.77,24.77,0,0,0-1.442,2.5,3.664,3.664,0,0,0-.4,1.674v.923a6.341,6.341,0,0,0,.95.507,5.368,5.368,0,0,0,2.189.486,2.194,2.194,0,0,0,1.318-.274h0a3.081,3.081,0,0,0,.236-1.506V512.5a2.835,2.835,0,0,1,2.834-2.834h6.108a2.835,2.835,0,0,1,2.834,2.834v15.88a11.987,11.987,0,0,1-3.043,8.583A10.916,10.916,0,0,1,882.022,540.218ZM870.741,534.1h.247a2.832,2.832,0,0,1,1.145-1.863c-.071-.072-.14-.145-.208-.219a2.838,2.838,0,0,1-.744-1.915v-2.217a9.306,9.306,0,0,1,.166-1.758q-.069.133-.136.265a4.09,4.09,0,0,0-.469,1.854Zm16.469-18.763v12.684a7.433,7.433,0,0,1-1.982,5.6,6.19,6.19,0,0,1-.534.456,4.409,4.409,0,0,0,1.475-1.019,6.493,6.493,0,0,0,1.48-4.673V515.334Zm-16.045,2.051h0Zm3.89-2.051a3.631,3.631,0,0,1,.7,1.495,4.792,4.792,0,0,0,.04-.62,2.3,2.3,0,0,0-.1-.791A2.053,2.053,0,0,0,875.054,515.334Z" transform="translate(-864.483 -509.665)" fill="#fff"/>
            </g>
            <g id="Group_2810" data-name="Group 2810" transform="translate(40.583 11.04)">
              <path id="Path_6224" data-name="Path 6224" d="M924.685,538.751V523.73a6.444,6.444,0,0,0-.951-3.778q-.95-1.333-3.8-1.334a15.967,15.967,0,0,0-3.167.34,19.2,19.2,0,0,0-2.987.837v-4.479a15.173,15.173,0,0,1,3.348-1.041,19.809,19.809,0,0,1,3.982-.407q5.157,0,7.42,2.194t2.262,6.809v15.88Z" transform="translate(-910.946 -511.033)" fill="#fff"/>
              <path id="Path_6225" data-name="Path 6225" d="M928.627,539.419h-6.107a2.834,2.834,0,0,1-2.834-2.834V521.564a4.123,4.123,0,0,0-.379-2.064,3.8,3.8,0,0,0-1.537-.214,13.222,13.222,0,0,0-2.6.283,16.577,16.577,0,0,0-2.545.709,2.834,2.834,0,0,1-3.839-2.65v-4.479a2.835,2.835,0,0,1,1.636-2.569,17.8,17.8,0,0,1,3.978-1.249,22.748,22.748,0,0,1,4.55-.464c4.244,0,7.316.98,9.393,2.994s3.123,4.987,3.123,8.844v15.88A2.834,2.834,0,0,1,928.627,539.419Zm-3.273-5.669h.439V520.7c0-2.266-.472-3.873-1.4-4.775a4.105,4.105,0,0,0-1.56-.883,5.265,5.265,0,0,1,1.048,1.1,9.189,9.189,0,0,1,1.476,5.422Z" transform="translate(-908.78 -508.867)" fill="#fff"/>
            </g>
            <g id="Group_2811" data-name="Group 2811" transform="translate(60.898 11.04)">
              <path id="Path_6226" data-name="Path 6226" d="M959.843,539.2a10.723,10.723,0,0,1-5.247-1.267,8.8,8.8,0,0,1-3.643-3.959,15.647,15.647,0,0,1-1.334-6.945q0-6.47,2.284-9.818a7.116,7.116,0,0,1,6.176-3.348,6.055,6.055,0,0,1,3.031.633,5.668,5.668,0,0,1,1.809,1.674,6.343,6.343,0,0,1,2.511-1.674,8.876,8.876,0,0,1,3.28-.633,5.623,5.623,0,0,1,4.728,1.945,8.085,8.085,0,0,1,1.516,5.112v17.826h-6.108V521.875a5.432,5.432,0,0,0-.43-2.42,1.681,1.681,0,0,0-1.651-.837,2.309,2.309,0,0,0-1.47.52,2.82,2.82,0,0,0-.927,1.56h-2.942a5.376,5.376,0,0,0-.95-1.56,1.912,1.912,0,0,0-1.447-.52,2.883,2.883,0,0,0-2.873,2.33,20.436,20.436,0,0,0-.747,6.086q0,4.117,1.448,5.768a5.127,5.127,0,0,0,4.072,1.651,15.546,15.546,0,0,0,1.7-.091,7.733,7.733,0,0,0,1.426-.271v4.479a8.879,8.879,0,0,1-1.81.475A15.573,15.573,0,0,1,959.843,539.2Z" transform="translate(-946.784 -511.033)" fill="#fff"/>
              <path id="Path_6227" data-name="Path 6227" d="M957.677,539.872a13.573,13.573,0,0,1-6.611-1.617,11.62,11.62,0,0,1-4.819-5.185,18.479,18.479,0,0,1-1.629-8.2c0-4.943.909-8.677,2.778-11.416a9.956,9.956,0,0,1,8.517-4.584,8.678,8.678,0,0,1,4.459,1.019c.21.123.414.253.61.392a11.02,11.02,0,0,1,1.242-.579,11.755,11.755,0,0,1,4.322-.831,8.339,8.339,0,0,1,6.963,3.037,10.866,10.866,0,0,1,2.115,6.856v17.826a2.834,2.834,0,0,1-2.834,2.834h-6.108a2.038,2.038,0,0,0-3.771-.372,11.764,11.764,0,0,1-2.387.631A18.214,18.214,0,0,1,957.677,539.872Zm11.838-6.122h.439V518.759a5.406,5.406,0,0,0-.917-3.371,2.059,2.059,0,0,0-1.355-.749,4.234,4.234,0,0,1,1.09,1.353,8.051,8.051,0,0,1,.744,3.716Zm-18.56-14.6a20.976,20.976,0,0,0-.669,5.718,13.01,13.01,0,0,0,1.039,5.686q.1.2.208.394a13.866,13.866,0,0,1-1.124-6.08A25.813,25.813,0,0,1,950.956,519.149Zm10.93,9.942a2.838,2.838,0,0,1,1.961.788v-9.038a2.83,2.83,0,0,1-1.645.526h-2.941a2.834,2.834,0,0,1-2.586-1.674,18.016,18.016,0,0,0-.6,5.175c0,2.9.62,3.758.744,3.9a2.3,2.3,0,0,0,1.941.686,12.934,12.934,0,0,0,1.39-.074,4.962,4.962,0,0,0,.9-.163A2.832,2.832,0,0,1,961.885,529.091Z" transform="translate(-944.618 -508.867)" fill="#fff"/>
            </g>
            <g id="Group_2812" data-name="Group 2812" transform="translate(89.537 11.04)">
              <path id="Path_6228" data-name="Path 6228" d="M1001.271,538.751v-7.782a9.134,9.134,0,0,1,.7-3.687,4.117,4.117,0,0,1,2.783-2.24l-4.615-1.222v-5.836a18.252,18.252,0,0,1,4.954-2.851,18.594,18.594,0,0,1,7.08-1.266,18.32,18.32,0,0,1,6.267.95,7.6,7.6,0,0,1,3.981,3.167A11.318,11.318,0,0,1,1023.8,524v14.749h-6.109V523.866q0-2.851-1.335-4.05t-4.5-1.2a11.352,11.352,0,0,0-3.732.588,8.267,8.267,0,0,0-2.738,1.493v.634l5.022,1.357v3.71a3.715,3.715,0,0,0-2.421,1.471,6.3,6.3,0,0,0-.61,3.144v7.737Z" transform="translate(-997.306 -511.033)" fill="#fff"/>
              <path id="Path_6229" data-name="Path 6229" d="M1021.638,539.419h-6.109a2.834,2.834,0,0,1-2.834-2.834V521.7a3.121,3.121,0,0,0-.4-1.941,2.835,2.835,0,0,0-1.479-.418,2.831,2.831,0,0,1,.259,1.183v3.71a2.834,2.834,0,0,1-2.146,2.749,2.876,2.876,0,0,0-.709.256,5.3,5.3,0,0,0-.176,1.609v7.737a2.834,2.834,0,0,1-2.834,2.834h-6.108a2.834,2.834,0,0,1-2.834-2.834V528.8a12.189,12.189,0,0,1,.79-4.465,2.834,2.834,0,0,1-1.921-2.683v-5.836a2.833,2.833,0,0,1,.994-2.156,21.139,21.139,0,0,1,5.722-3.318,21.479,21.479,0,0,1,8.153-1.477,21.21,21.21,0,0,1,7.239,1.122,10.4,10.4,0,0,1,5.415,4.331,14.089,14.089,0,0,1,1.81,7.516v14.749A2.834,2.834,0,0,1,1021.638,539.419Zm-3.274-5.669h.44V521.836a8.7,8.7,0,0,0-.953-4.52,4.58,4.58,0,0,0-1.439-1.461,8.152,8.152,0,0,1,1.953,5.845Zm-16.423,0h.439v-4.9a11.572,11.572,0,0,1,.333-2.947.778.778,0,0,0-.308.349,6.387,6.387,0,0,0-.464,2.553Z" transform="translate(-995.14 -508.867)" fill="#fff"/>
            </g>
            <g id="Group_2813" data-name="Group 2813" transform="translate(116.503 11.04)">
              <path id="Path_6230" data-name="Path 6230" d="M1056.85,539.2a31.708,31.708,0,0,1-4.864-.362,17.288,17.288,0,0,1-3.778-.95V532.96a18.389,18.389,0,0,0,3.778,1.109,20.5,20.5,0,0,0,3.732.384,14.533,14.533,0,0,0,4.276-.452,1.8,1.8,0,0,0,1.334-1.855,2.063,2.063,0,0,0-.7-1.674,6.617,6.617,0,0,0-2.149-1.063q-1.448-.475-3.71-1.244a18.506,18.506,0,0,1-5.18-2.647,5.205,5.205,0,0,1-1.878-4.366,6.411,6.411,0,0,1,2.534-5.271q2.533-2.013,7.646-2.013a28.951,28.951,0,0,1,4.253.316,21.231,21.231,0,0,1,3.483.769v4.886a14.306,14.306,0,0,0-3.416-.927,23.115,23.115,0,0,0-3.461-.294,12.724,12.724,0,0,0-3.687.475,1.906,1.906,0,0,0-1.561,1.923,1.675,1.675,0,0,0,.791,1.448,8.464,8.464,0,0,0,2.262,1q1.469.453,3.506,1.176a20.945,20.945,0,0,1,4.095,1.81,5.913,5.913,0,0,1,2.262,2.307,7.355,7.355,0,0,1,.7,3.394,5.867,5.867,0,0,1-2.737,5.316A13.96,13.96,0,0,1,1056.85,539.2Z" transform="translate(-1044.876 -511.033)" fill="#fff"/>
              <path id="Path_6231" data-name="Path 6231" d="M1054.684,539.872a34.683,34.683,0,0,1-5.3-.4,19.825,19.825,0,0,1-4.411-1.126,2.834,2.834,0,0,1-1.766-2.625v-4.932a2.834,2.834,0,0,1,3.935-2.612,15.682,15.682,0,0,0,3.2.934,18.848,18.848,0,0,0,3.625.334q-1.012-.339-2.276-.769a21.116,21.116,0,0,1-6.015-3.1,7.958,7.958,0,0,1-2.964-6.6,9.267,9.267,0,0,1,3.6-7.49c2.227-1.769,5.3-2.629,9.41-2.629a31.918,31.918,0,0,1,4.669.347,23.766,23.766,0,0,1,3.963.884,2.834,2.834,0,0,1,1.939,2.689v4.886a2.834,2.834,0,0,1-3.941,2.609,11.561,11.561,0,0,0-2.739-.735c-.779-.119-1.5-.2-2.165-.235q.663.226,1.394.486a23.308,23.308,0,0,1,4.62,2.06,8.725,8.725,0,0,1,3.306,3.426,10.159,10.159,0,0,1,1.018,4.7,8.672,8.672,0,0,1-4.05,7.707A16.736,16.736,0,0,1,1054.684,539.872Zm6.571-12.616a5.135,5.135,0,0,1,.742,2.723,4.905,4.905,0,0,1-.509,2.229,3.47,3.47,0,0,0,.631-2.229,4.728,4.728,0,0,0-.385-2.093A2.446,2.446,0,0,0,1061.255,527.257Zm-12.464-10.106a3.814,3.814,0,0,0-.413,1.834,2.531,2.531,0,0,0,.653,2.017,4.5,4.5,0,0,1-.53-2.153A4.953,4.953,0,0,1,1048.791,517.151Z" transform="translate(-1042.71 -508.867)" fill="#fff"/>
            </g>
            <g id="Group_2814" data-name="Group 2814" transform="translate(144.826)">
              <path id="Path_6232" data-name="Path 6232" d="M1107.491,530.315q-2.941,0-4.14-1.221a5.318,5.318,0,0,1-1.2-3.846V505.386a7.039,7.039,0,0,0-1.108-4.253,6.761,6.761,0,0,0-3.371-2.262v-4.479h14.8v4.75h-7.1a5.455,5.455,0,0,1,2.172,2.353,8.485,8.485,0,0,1,.724,3.71v18.459a1.659,1.659,0,0,0,1.854,1.9h1.539v4.75Z" transform="translate(-1094.839 -491.558)" fill="#fff"/>
              <path id="Path_6233" data-name="Path 6233" d="M1109.488,530.984h-4.163c-2.78,0-4.8-.677-6.163-2.071a8.014,8.014,0,0,1-2.01-5.831V503.221a4.606,4.606,0,0,0-.55-2.564,4.075,4.075,0,0,0-2.008-1.268,2.835,2.835,0,0,1-1.921-2.684v-4.479a2.834,2.834,0,0,1,2.834-2.834h14.8a2.835,2.835,0,0,1,2.834,2.834v4.75a2.834,2.834,0,0,1-2.834,2.834h-1.756a12.841,12.841,0,0,1,.383,3.229v17.525h.558a2.834,2.834,0,0,1,2.834,2.834v4.75A2.834,2.834,0,0,1,1109.488,530.984Zm-7.066-31.024a12.4,12.4,0,0,1,.4,3.26v19.862a3.069,3.069,0,0,0,.388,1.861,3.165,3.165,0,0,0,1.781.367,4.622,4.622,0,0,1-1.728-3.811V503.04a5.785,5.785,0,0,0-.442-2.476A2.646,2.646,0,0,0,1102.422,499.96Zm-3.741-4.9a8.963,8.963,0,0,1,1.739,1.362c.013-.065.028-.131.047-.2a2.829,2.829,0,0,1,.645-1.165Z" transform="translate(-1092.673 -489.392)" fill="#fff"/>
            </g>
            <g id="Group_2815" data-name="Group 2815" transform="translate(159.847 11.04)">
              <path id="Path_6234" data-name="Path 6234" d="M1133.311,539.2a31.717,31.717,0,0,1-4.864-.362,17.291,17.291,0,0,1-3.777-.95V532.96a18.378,18.378,0,0,0,3.777,1.109,20.512,20.512,0,0,0,3.733.384,14.528,14.528,0,0,0,4.275-.452,1.8,1.8,0,0,0,1.335-1.855,2.063,2.063,0,0,0-.7-1.674,6.611,6.611,0,0,0-2.149-1.063q-1.449-.475-3.71-1.244a18.512,18.512,0,0,1-5.181-2.647,5.2,5.2,0,0,1-1.877-4.366,6.411,6.411,0,0,1,2.534-5.271q2.532-2.013,7.646-2.013a28.959,28.959,0,0,1,4.253.316,21.207,21.207,0,0,1,3.483.769v4.886a14.32,14.32,0,0,0-3.415-.927,23.128,23.128,0,0,0-3.461-.294,12.724,12.724,0,0,0-3.687.475,1.907,1.907,0,0,0-1.561,1.923,1.676,1.676,0,0,0,.791,1.448,8.485,8.485,0,0,0,2.262,1q1.47.453,3.507,1.176a20.964,20.964,0,0,1,4.094,1.81,5.905,5.905,0,0,1,2.262,2.307,7.355,7.355,0,0,1,.7,3.394,5.867,5.867,0,0,1-2.737,5.316A13.956,13.956,0,0,1,1133.311,539.2Z" transform="translate(-1121.338 -511.033)" fill="#fff"/>
              <path id="Path_6235" data-name="Path 6235" d="M1131.145,539.872a34.683,34.683,0,0,1-5.3-.4,19.829,19.829,0,0,1-4.411-1.126,2.834,2.834,0,0,1-1.766-2.625v-4.932a2.834,2.834,0,0,1,3.935-2.612,15.689,15.689,0,0,0,3.2.934,18.856,18.856,0,0,0,3.626.334q-1.011-.339-2.276-.769a21.132,21.132,0,0,1-6.016-3.1,7.959,7.959,0,0,1-2.964-6.6,9.266,9.266,0,0,1,3.6-7.49c2.226-1.769,5.3-2.629,9.409-2.629a31.934,31.934,0,0,1,4.669.347,23.746,23.746,0,0,1,3.963.884,2.834,2.834,0,0,1,1.939,2.689v4.886a2.834,2.834,0,0,1-3.941,2.609,11.554,11.554,0,0,0-2.739-.735c-.779-.119-1.5-.2-2.165-.235q.663.226,1.394.486a23.357,23.357,0,0,1,4.619,2.06,8.716,8.716,0,0,1,3.306,3.427,10.154,10.154,0,0,1,1.018,4.7,8.673,8.673,0,0,1-4.05,7.707A16.733,16.733,0,0,1,1131.145,539.872Zm6.572-12.616a5.138,5.138,0,0,1,.742,2.723,4.916,4.916,0,0,1-.507,2.228,3.473,3.473,0,0,0,.63-2.228,4.715,4.715,0,0,0-.386-2.093A2.418,2.418,0,0,0,1137.718,527.257Zm-12.466-10.1a3.812,3.812,0,0,0-.411,1.831,2.532,2.532,0,0,0,.653,2.017,4.5,4.5,0,0,1-.531-2.153A4.941,4.941,0,0,1,1125.252,517.155Z" transform="translate(-1119.172 -508.867)" fill="#fff"/>
            </g>
            <g id="Group_2816" data-name="Group 2816" transform="translate(182.333 11.04)">
              <path id="Path_6236" data-name="Path 6236" d="M1163.84,538.751V523.594a9.392,9.392,0,0,1,2.737-7.081q2.737-2.646,8.8-2.646t8.778,2.646a9.439,9.439,0,0,1,2.715,7.081v15.156h-6.109V523.141a4.07,4.07,0,0,0-1.425-3.393,6.22,6.22,0,0,0-3.96-1.131q-5.428,0-5.429,4.524v4.389a8.122,8.122,0,0,1,1.923-1.041,6.46,6.46,0,0,1,2.33-.408h2.941l.18,4.841h-3.257a6.992,6.992,0,0,0-2.262.339,6.83,6.83,0,0,0-1.856.973v6.515Z" transform="translate(-1161.006 -511.033)" fill="#fff"/>
              <path id="Path_6237" data-name="Path 6237" d="M1184.7,539.419H1178.6a2.834,2.834,0,0,1-2.834-2.834v-5.058a2.826,2.826,0,0,1-.6.065H1171.9a4.352,4.352,0,0,0-1.283.167v4.826a2.834,2.834,0,0,1-2.834,2.834h-6.107a2.834,2.834,0,0,1-2.834-2.834V521.429a12.162,12.162,0,0,1,3.6-9.119c2.362-2.284,5.986-3.443,10.769-3.443s8.407,1.161,10.756,3.451a12.207,12.207,0,0,1,3.571,9.111v15.156A2.834,2.834,0,0,1,1184.7,539.419Zm-3.274-5.669h.44V521.429a6.673,6.673,0,0,0-1.859-5.051q-.114-.111-.239-.214a7.059,7.059,0,0,1,1.658,4.813Zm-16.921,0h.439V530.07a2.833,2.833,0,0,1,1.153-2.282l.1-.072a2.833,2.833,0,0,1-1.252-2.351v-4.389a7.32,7.32,0,0,1,1.4-4.559,6.642,6.642,0,0,0-1.84,5.012Zm7.527-12.668h2.941a2.823,2.823,0,0,1,.785.111v-.217c0-.893-.256-1.1-.353-1.173a3.653,3.653,0,0,0-2.2-.517c-2.6,0-2.6.746-2.6,1.69v.206A9.98,9.98,0,0,1,1172.036,521.082Z" transform="translate(-1158.84 -508.867)" fill="#fff"/>
            </g>
            <g id="Group_2817" data-name="Group 2817" transform="translate(209.706 11.492)">
              <path id="Path_6238" data-name="Path 6238" d="M1217.467,539.1q-2.941,0-4.14-1.221a5.319,5.319,0,0,1-1.2-3.846V514.665h6.108v17.781a1.66,1.66,0,0,0,1.855,1.9h1.538v4.75Z" transform="translate(-1209.294 -511.831)" fill="#fff"/>
              <path id="Path_6239" data-name="Path 6239" d="M1219.464,539.765H1215.3c-2.781,0-4.8-.677-6.163-2.071a8.011,8.011,0,0,1-2.01-5.83V512.5a2.834,2.834,0,0,1,2.834-2.834h6.108a2.834,2.834,0,0,1,2.834,2.834v16.847h.559a2.835,2.835,0,0,1,2.834,2.834v4.75A2.834,2.834,0,0,1,1219.464,539.765Zm-6.667-24.431v16.53a3.067,3.067,0,0,0,.388,1.861,3.168,3.168,0,0,0,1.78.367,4.621,4.621,0,0,1-1.729-3.811V515.334Z" transform="translate(-1207.128 -509.665)" fill="#fff"/>
            </g>
            <g id="Group_2818" data-name="Group 2818" transform="translate(222.329 11.492)">
              <path id="Path_6240" data-name="Path 6240" d="M1246.023,539.549q-5.385,0-8.506-2.557t-3.122-7.714V514.665h6.108v14.7q0,5.43,5.519,5.429t5.52-5.429v-14.7h6.108v14.614q0,5.158-3.122,7.714T1246.023,539.549Z" transform="translate(-1231.562 -511.831)" fill="#fff"/>
              <path id="Path_6241" data-name="Path 6241" d="M1243.858,540.218c-4.244,0-7.71-1.076-10.3-3.2-2.76-2.26-4.16-5.593-4.16-9.907V512.5a2.834,2.834,0,0,1,2.834-2.834h6.108a2.834,2.834,0,0,1,2.834,2.834v14.7c0,2.037.577,2.6,2.685,2.6s2.686-.558,2.686-2.6V512.5a2.834,2.834,0,0,1,2.834-2.834h6.108a2.834,2.834,0,0,1,2.834,2.834v14.614c0,4.314-1.4,7.647-4.161,9.907C1251.569,539.142,1248.1,540.218,1243.858,540.218Zm8.355-24.884V527.2a8.651,8.651,0,0,1-1.649,5.434l0,0c1.4-1.148,2.084-2.954,2.084-5.521V515.334Zm-17.148,0v11.779c0,2.567.681,4.373,2.083,5.521l.005,0a8.653,8.653,0,0,1-1.649-5.434v-11.87Z" transform="translate(-1229.396 -509.665)" fill="#fff"/>
            </g>
            <g id="Group_2819" data-name="Group 2819" transform="translate(247.53 11.04)">
              <path id="Path_6242" data-name="Path 6242" d="M1289.757,538.751V523.73a6.444,6.444,0,0,0-.951-3.778q-.95-1.333-3.8-1.334a15.978,15.978,0,0,0-3.168.34,19.193,19.193,0,0,0-2.986.837v-4.479a15.146,15.146,0,0,1,3.348-1.041,19.805,19.805,0,0,1,3.981-.407q5.159,0,7.42,2.194t2.262,6.809v15.88Z" transform="translate(-1276.019 -511.033)" fill="#fff"/>
              <path id="Path_6243" data-name="Path 6243" d="M1293.7,539.419h-6.107a2.834,2.834,0,0,1-2.834-2.834V521.564a4.109,4.109,0,0,0-.38-2.064,3.791,3.791,0,0,0-1.536-.214,13.226,13.226,0,0,0-2.6.283,16.565,16.565,0,0,0-2.544.709,2.834,2.834,0,0,1-3.839-2.65v-4.479a2.834,2.834,0,0,1,1.635-2.568,17.8,17.8,0,0,1,3.979-1.249,22.743,22.743,0,0,1,4.549-.464c4.244,0,7.316.979,9.393,2.994s3.123,4.987,3.123,8.844v15.88A2.834,2.834,0,0,1,1293.7,539.419Zm-3.273-5.669h.439V520.7c0-2.266-.472-3.873-1.4-4.775a4.106,4.106,0,0,0-1.56-.883,5.259,5.259,0,0,1,1.047,1.1,9.187,9.187,0,0,1,1.476,5.422Z" transform="translate(-1273.853 -508.867)" fill="#fff"/>
            </g>
            <g id="Group_2820" data-name="Group 2820" transform="translate(268.75 11.492)">
              <path id="Path_6244" data-name="Path 6244" d="M1316.286,539.1V514.665h6.108v7.42h6.063a4.147,4.147,0,0,0,3.234-1.018,4.633,4.633,0,0,0,.883-3.1v-3.3h6.108v3.076a10.092,10.092,0,0,1-.746,4,4.621,4.621,0,0,1-2.738,2.511,4.425,4.425,0,0,1,2.6,2.24,8.272,8.272,0,0,1,.7,3.507V539.1h-6.108v-8.415a4.576,4.576,0,0,0-.882-3.212,4.407,4.407,0,0,0-3.19-.9h-5.927V539.1Z" transform="translate(-1313.452 -511.831)" fill="#fff"/>
              <path id="Path_6245" data-name="Path 6245" d="M1336.335,539.765h-6.108a2.834,2.834,0,0,1-2.834-2.834v-8.415a4.839,4.839,0,0,0-.112-1.178,4.753,4.753,0,0,0-1.125-.1h-3.093v9.7a2.834,2.834,0,0,1-2.835,2.834h-6.108a2.834,2.834,0,0,1-2.834-2.834V512.5a2.834,2.834,0,0,1,2.834-2.834h6.108a2.835,2.835,0,0,1,2.835,2.834v4.585h3.228a3.92,3.92,0,0,0,1.13-.123,3.312,3.312,0,0,0,.152-1.16v-3.3a2.834,2.834,0,0,1,2.834-2.834h6.108a2.834,2.834,0,0,1,2.834,2.834v3.076a12.948,12.948,0,0,1-.975,5.12,7.209,7.209,0,0,1-.785,1.387,6.565,6.565,0,0,1,.615,1.057,11.116,11.116,0,0,1,.964,4.7v9.094A2.834,2.834,0,0,1,1336.335,539.765Zm-3.274-5.669h.439v-6.259a5.521,5.521,0,0,0-.441-2.318,1.263,1.263,0,0,0-.627-.594,9.035,9.035,0,0,1,.628,3.59Zm-16.107,0h.439v-9.7a2.835,2.835,0,0,0,0-4.479v-4.585h-.439Zm12.71-11.926a5.775,5.775,0,0,1,.555.272,2.807,2.807,0,0,1-.022-.345c0-.06,0-.12.006-.18C1330.032,522.009,1329.851,522.094,1329.665,522.171Zm3.577-6.837v.468a8.8,8.8,0,0,1-.57,3.292,1.48,1.48,0,0,0,.493-.632,7.343,7.343,0,0,0,.516-2.886v-.242Z" transform="translate(-1311.286 -509.665)" fill="#fff"/>
            </g>
            <g id="Group_2821" data-name="Group 2821" transform="translate(293.543 11.04)">
              <path id="Path_6246" data-name="Path 6246" d="M1367.806,539.2a19.673,19.673,0,0,1-7.782-1.448V533.1a19.192,19.192,0,0,0,3.031.973,14.343,14.343,0,0,0,3.3.384q4.251,0,6.085-1.765t1.832-6.153q0-4.388-1.832-6.153t-6.085-1.765a15.173,15.173,0,0,0-3.3.362,15.571,15.571,0,0,0-3.031.995v-4.66a19.674,19.674,0,0,1,7.782-1.448q6.2,0,9.23,3.235t3.032,9.434q0,6.2-3.032,9.433T1367.806,539.2Z" transform="translate(-1357.19 -511.033)" fill="#fff"/>
              <path id="Path_6247" data-name="Path 6247" d="M1365.64,539.872a22.56,22.56,0,0,1-8.894-1.676,2.834,2.834,0,0,1-1.722-2.606v-4.661a2.834,2.834,0,0,1,3.932-2.613,16.422,16.422,0,0,0,2.584.827,11.538,11.538,0,0,0,2.652.309c2.706,0,3.743-.609,4.119-.972.29-.279.964-1.239.964-4.111s-.674-3.833-.964-4.112c-.377-.363-1.413-.972-4.119-.972a12.437,12.437,0,0,0-2.689.295,12.761,12.761,0,0,0-2.478.811,2.835,2.835,0,0,1-4-2.583v-4.66a2.834,2.834,0,0,1,1.723-2.607,22.565,22.565,0,0,1,8.894-1.675c4.927,0,8.728,1.389,11.3,4.131,2.52,2.69,3.8,6.516,3.8,11.372s-1.278,8.682-3.8,11.371C1374.369,538.482,1370.568,539.872,1365.64,539.872Zm7.792-22.208a15.622,15.622,0,0,1,0,13.414,14.567,14.567,0,0,0,0-13.414Z" transform="translate(-1355.024 -508.867)" fill="#fff"/>
            </g>
            <g id="Group_2822" data-name="Group 2822" transform="translate(313.949 11.04)">
              <path id="Path_6248" data-name="Path 6248" d="M1406.924,538.751V523.73a6.449,6.449,0,0,0-.95-3.778q-.95-1.333-3.8-1.334a15.968,15.968,0,0,0-3.167.34,19.2,19.2,0,0,0-2.986.837v-4.479a15.152,15.152,0,0,1,3.348-1.041,19.8,19.8,0,0,1,3.981-.407q5.159,0,7.42,2.194t2.262,6.809v15.88Z" transform="translate(-1393.187 -511.033)" fill="#fff"/>
              <path id="Path_6249" data-name="Path 6249" d="M1410.866,539.419h-6.108a2.834,2.834,0,0,1-2.834-2.834V521.564a4.123,4.123,0,0,0-.379-2.064,3.8,3.8,0,0,0-1.537-.214,13.223,13.223,0,0,0-2.6.283,16.565,16.565,0,0,0-2.544.709,2.834,2.834,0,0,1-3.839-2.65v-4.479a2.834,2.834,0,0,1,1.635-2.568,17.8,17.8,0,0,1,3.979-1.249,22.727,22.727,0,0,1,4.549-.464c4.243,0,7.316.979,9.394,2.993s3.123,4.987,3.123,8.845v15.88A2.834,2.834,0,0,1,1410.866,539.419Zm-3.274-5.669h.439V520.7c0-2.266-.472-3.873-1.4-4.775a4.1,4.1,0,0,0-1.561-.882,5.237,5.237,0,0,1,1.047,1.095,9.189,9.189,0,0,1,1.476,5.422Z" transform="translate(-1391.021 -508.867)" fill="#fff"/>
            </g>
            <g id="Group_2823" data-name="Group 2823" transform="translate(335.167 11.492)">
              <path id="Path_6250" data-name="Path 6250" d="M1441.914,539.549a8.151,8.151,0,0,1-6.2-2.376,9.22,9.22,0,0,1-2.262-6.628v-15.88h6.108v15.518a4.767,4.767,0,0,0,1.109,3.552,4.563,4.563,0,0,0,3.28,1.063,8.158,8.158,0,0,0,3.348-.724,7.787,7.787,0,0,0,2.624-1.809v-17.6h6.107V539.1h-5.61l-.272-2.4a13.253,13.253,0,0,1-3.665,2.082A12.861,12.861,0,0,1,1441.914,539.549Z" transform="translate(-1430.619 -511.831)" fill="#fff"/>
              <path id="Path_6251" data-name="Path 6251" d="M1439.748,540.218a10.91,10.91,0,0,1-8.25-3.255,11.983,11.983,0,0,1-3.044-8.583V512.5a2.834,2.834,0,0,1,2.834-2.834h6.108a2.835,2.835,0,0,1,2.834,2.834v15.518a2.924,2.924,0,0,0,.247,1.518,2.25,2.25,0,0,0,1.307.262,5.3,5.3,0,0,0,2.2-.48,6.363,6.363,0,0,0,.942-.51V512.5a2.834,2.834,0,0,1,2.834-2.834h6.107a2.834,2.834,0,0,1,2.834,2.834v24.431a2.834,2.834,0,0,1-2.834,2.834h-5.61a2.831,2.831,0,0,1-2.04-.866q-.439.2-.894.367A15.744,15.744,0,0,1,1439.748,540.218Zm11.036-6.122h.246V515.334h-.439V530.1a2.833,2.833,0,0,1-.745,1.915c-.067.074-.137.146-.207.218A2.837,2.837,0,0,1,1450.784,534.1Zm-16.662-18.763V528.38a6.489,6.489,0,0,0,1.48,4.673,4.407,4.407,0,0,0,1.475,1.019,6.111,6.111,0,0,1-.535-.457,7.432,7.432,0,0,1-1.981-5.6V515.334Z" transform="translate(-1428.453 -509.665)" fill="#fff"/>
            </g>
            <g id="Group_2824" data-name="Group 2824" transform="translate(361.047 6.787)">
              <path id="Path_6252" data-name="Path 6252" d="M1479.106,515.458v-9.094h5.158l-.633,9.094Zm7.828,0v-9.094h5.158l-.633,9.094Z" transform="translate(-1476.272 -503.53)" fill="#fff"/>
              <path id="Path_6253" data-name="Path 6253" d="M1489.293,516.127h-4.524a2.835,2.835,0,0,0-3.3,0h-4.526a2.835,2.835,0,0,1-2.834-2.834V504.2a2.835,2.835,0,0,1,2.834-2.834h5.159a2.839,2.839,0,0,0,2.669,0h5.158a2.834,2.834,0,0,1,2.828,3.031l-.633,9.094A2.835,2.835,0,0,1,1489.293,516.127Z" transform="translate(-1474.106 -501.364)" fill="#fff"/>
            </g>
          </g>
          <g id="Group_2826" data-name="Group 2826" transform="translate(2.834 78.059)">
            <path id="Path_6254" data-name="Path 6254" d="M842.188,515.458v-9.094h5.157l-.633,9.094Zm7.827,0v-9.094h5.158l-.633,9.094Z" transform="translate(-842.188 -499.578)" fill="#ed759d"/>
            <path id="Path_6255" data-name="Path 6255" d="M884.188,539.549a12.861,12.861,0,0,1-4.57-.769,13.258,13.258,0,0,1-3.664-2.082l-.272,2.4h-5.61V530.41a6.918,6.918,0,0,1,.769-3.122,22.12,22.12,0,0,1,1.787-2.964q1.019-1.425,1.787-2.556a3.609,3.609,0,0,0,.769-1.855q0-.859-.723-.859a1.443,1.443,0,0,0-.611.135,1.769,1.769,0,0,0-.52.362v1.855h-3.847v-6.741h4.027v1.266a6.494,6.494,0,0,1,1.539-.9,5.492,5.492,0,0,1,2.126-.362q3.62,0,3.62,3.71a7.072,7.072,0,0,1-.7,3.122,25.149,25.149,0,0,1-1.606,2.828,27.473,27.473,0,0,0-1.606,2.783,6.483,6.483,0,0,0-.7,2.941v2.217a7.736,7.736,0,0,0,2.647,1.809,8.205,8.205,0,0,0,3.325.724,4.564,4.564,0,0,0,3.28-1.063,4.768,4.768,0,0,0,1.109-3.552V514.665h6.108v15.88a9.222,9.222,0,0,1-2.262,6.628A8.152,8.152,0,0,1,884.188,539.549Z" transform="translate(-854.011 -503.173)" fill="#ed759d"/>
            <path id="Path_6256" data-name="Path 6256" d="M924.685,538.751V523.73a6.444,6.444,0,0,0-.951-3.778q-.95-1.333-3.8-1.334a15.967,15.967,0,0,0-3.167.34,19.2,19.2,0,0,0-2.987.837v-4.479a15.173,15.173,0,0,1,3.348-1.041,19.809,19.809,0,0,1,3.982-.407q5.157,0,7.42,2.194t2.262,6.809v15.88Z" transform="translate(-873.197 -502.827)" fill="#ed759d"/>
            <path id="Path_6257" data-name="Path 6257" d="M959.843,539.2a10.723,10.723,0,0,1-5.247-1.267,8.8,8.8,0,0,1-3.643-3.959,15.647,15.647,0,0,1-1.334-6.945q0-6.47,2.284-9.818a7.116,7.116,0,0,1,6.176-3.348,6.055,6.055,0,0,1,3.031.633,5.668,5.668,0,0,1,1.809,1.674,6.343,6.343,0,0,1,2.511-1.674,8.876,8.876,0,0,1,3.28-.633,5.623,5.623,0,0,1,4.728,1.945,8.085,8.085,0,0,1,1.516,5.112v17.826h-6.108V521.875a5.432,5.432,0,0,0-.43-2.42,1.681,1.681,0,0,0-1.651-.837,2.309,2.309,0,0,0-1.47.52,2.82,2.82,0,0,0-.927,1.56h-2.942a5.376,5.376,0,0,0-.95-1.56,1.912,1.912,0,0,0-1.447-.52,2.883,2.883,0,0,0-2.873,2.33,20.436,20.436,0,0,0-.747,6.086q0,4.117,1.448,5.768a5.127,5.127,0,0,0,4.072,1.651,15.546,15.546,0,0,0,1.7-.091,7.733,7.733,0,0,0,1.426-.271v4.479a8.879,8.879,0,0,1-1.81.475A15.573,15.573,0,0,1,959.843,539.2Z" transform="translate(-888.72 -502.827)" fill="#ed759d"/>
            <path id="Path_6258" data-name="Path 6258" d="M1001.271,538.751v-7.782a9.134,9.134,0,0,1,.7-3.687,4.117,4.117,0,0,1,2.783-2.24l-4.615-1.222v-5.836a18.252,18.252,0,0,1,4.954-2.851,18.594,18.594,0,0,1,7.08-1.266,18.32,18.32,0,0,1,6.267.95,7.6,7.6,0,0,1,3.981,3.167A11.318,11.318,0,0,1,1023.8,524v14.749h-6.109V523.866q0-2.851-1.335-4.05t-4.5-1.2a11.352,11.352,0,0,0-3.732.588,8.267,8.267,0,0,0-2.738,1.493v.634l5.022,1.357v3.71a3.715,3.715,0,0,0-2.421,1.471,6.3,6.3,0,0,0-.61,3.144v7.737Z" transform="translate(-910.602 -502.827)" fill="#ed759d"/>
            <path id="Path_6259" data-name="Path 6259" d="M1056.85,539.2a31.708,31.708,0,0,1-4.864-.362,17.288,17.288,0,0,1-3.778-.95V532.96a18.389,18.389,0,0,0,3.778,1.109,20.5,20.5,0,0,0,3.732.384,14.533,14.533,0,0,0,4.276-.452,1.8,1.8,0,0,0,1.334-1.855,2.063,2.063,0,0,0-.7-1.674,6.617,6.617,0,0,0-2.149-1.063q-1.448-.475-3.71-1.244a18.506,18.506,0,0,1-5.18-2.647,5.205,5.205,0,0,1-1.878-4.366,6.411,6.411,0,0,1,2.534-5.271q2.533-2.013,7.646-2.013a28.951,28.951,0,0,1,4.253.316,21.231,21.231,0,0,1,3.483.769v4.886a14.306,14.306,0,0,0-3.416-.927,23.115,23.115,0,0,0-3.461-.294,12.724,12.724,0,0,0-3.687.475,1.906,1.906,0,0,0-1.561,1.923,1.675,1.675,0,0,0,.791,1.448,8.464,8.464,0,0,0,2.262,1q1.469.453,3.506,1.176a20.945,20.945,0,0,1,4.095,1.81,5.913,5.913,0,0,1,2.262,2.307,7.355,7.355,0,0,1,.7,3.394,5.867,5.867,0,0,1-2.737,5.316A13.96,13.96,0,0,1,1056.85,539.2Z" transform="translate(-931.207 -502.827)" fill="#ed759d"/>
            <path id="Path_6260" data-name="Path 6260" d="M1107.491,530.315q-2.941,0-4.14-1.221a5.318,5.318,0,0,1-1.2-3.846V505.386a7.039,7.039,0,0,0-1.108-4.253,6.761,6.761,0,0,0-3.371-2.262v-4.479h14.8v4.75h-7.1a5.455,5.455,0,0,1,2.172,2.353,8.485,8.485,0,0,1,.724,3.71v18.459a1.659,1.659,0,0,0,1.854,1.9h1.539v4.75Z" transform="translate(-952.847 -494.392)" fill="#ed759d"/>
            <path id="Path_6261" data-name="Path 6261" d="M1133.311,539.2a31.717,31.717,0,0,1-4.864-.362,17.291,17.291,0,0,1-3.777-.95V532.96a18.378,18.378,0,0,0,3.777,1.109,20.512,20.512,0,0,0,3.733.384,14.528,14.528,0,0,0,4.275-.452,1.8,1.8,0,0,0,1.335-1.855,2.063,2.063,0,0,0-.7-1.674,6.611,6.611,0,0,0-2.149-1.063q-1.449-.475-3.71-1.244a18.512,18.512,0,0,1-5.181-2.647,5.2,5.2,0,0,1-1.877-4.366,6.411,6.411,0,0,1,2.534-5.271q2.532-2.013,7.646-2.013a28.959,28.959,0,0,1,4.253.316,21.207,21.207,0,0,1,3.483.769v4.886a14.32,14.32,0,0,0-3.415-.927,23.128,23.128,0,0,0-3.461-.294,12.724,12.724,0,0,0-3.687.475,1.907,1.907,0,0,0-1.561,1.923,1.676,1.676,0,0,0,.791,1.448,8.485,8.485,0,0,0,2.262,1q1.47.453,3.507,1.176a20.964,20.964,0,0,1,4.094,1.81,5.905,5.905,0,0,1,2.262,2.307,7.355,7.355,0,0,1,.7,3.394,5.867,5.867,0,0,1-2.737,5.316A13.956,13.956,0,0,1,1133.311,539.2Z" transform="translate(-964.325 -502.827)" fill="#ed759d"/>
            <path id="Path_6262" data-name="Path 6262" d="M1163.84,538.751V523.594a9.392,9.392,0,0,1,2.737-7.081q2.737-2.646,8.8-2.646t8.778,2.646a9.439,9.439,0,0,1,2.715,7.081v15.156h-6.109V523.141a4.07,4.07,0,0,0-1.425-3.393,6.22,6.22,0,0,0-3.96-1.131q-5.428,0-5.429,4.524v4.389a8.122,8.122,0,0,1,1.923-1.041,6.46,6.46,0,0,1,2.33-.408h2.941l.18,4.841h-3.257a6.992,6.992,0,0,0-2.262.339,6.83,6.83,0,0,0-1.856.973v6.515Z" transform="translate(-981.507 -502.827)" fill="#ed759d"/>
            <path id="Path_6263" data-name="Path 6263" d="M1217.467,539.1q-2.941,0-4.14-1.221a5.319,5.319,0,0,1-1.2-3.846V514.665h6.108v17.781a1.66,1.66,0,0,0,1.855,1.9h1.538v4.75Z" transform="translate(-1002.422 -503.173)" fill="#ed759d"/>
            <path id="Path_6264" data-name="Path 6264" d="M1246.023,539.549q-5.385,0-8.506-2.557t-3.122-7.714V514.665h6.108v14.7q0,5.43,5.519,5.429t5.52-5.429v-14.7h6.108v14.614q0,5.158-3.122,7.714T1246.023,539.549Z" transform="translate(-1012.067 -503.173)" fill="#ed759d"/>
            <path id="Path_6265" data-name="Path 6265" d="M1289.757,538.751V523.73a6.444,6.444,0,0,0-.951-3.778q-.95-1.333-3.8-1.334a15.978,15.978,0,0,0-3.168.34,19.193,19.193,0,0,0-2.986.837v-4.479a15.146,15.146,0,0,1,3.348-1.041,19.805,19.805,0,0,1,3.981-.407q5.159,0,7.42,2.194t2.262,6.809v15.88Z" transform="translate(-1031.323 -502.827)" fill="#ed759d"/>
            <path id="Path_6266" data-name="Path 6266" d="M1316.286,539.1V514.665h6.108v7.42h6.063a4.147,4.147,0,0,0,3.234-1.018,4.633,4.633,0,0,0,.883-3.1v-3.3h6.108v3.076a10.092,10.092,0,0,1-.746,4,4.621,4.621,0,0,1-2.738,2.511,4.425,4.425,0,0,1,2.6,2.24,8.272,8.272,0,0,1,.7,3.507V539.1h-6.108v-8.415a4.576,4.576,0,0,0-.882-3.212,4.407,4.407,0,0,0-3.19-.9h-5.927V539.1Z" transform="translate(-1047.537 -503.173)" fill="#ed759d"/>
            <path id="Path_6267" data-name="Path 6267" d="M1367.806,539.2a19.673,19.673,0,0,1-7.782-1.448V533.1a19.192,19.192,0,0,0,3.031.973,14.343,14.343,0,0,0,3.3.384q4.251,0,6.085-1.765t1.832-6.153q0-4.388-1.832-6.153t-6.085-1.765a15.173,15.173,0,0,0-3.3.362,15.571,15.571,0,0,0-3.031.995v-4.66a19.674,19.674,0,0,1,7.782-1.448q6.2,0,9.23,3.235t3.032,9.434q0,6.2-3.032,9.433T1367.806,539.2Z" transform="translate(-1066.481 -502.827)" fill="#ed759d"/>
            <path id="Path_6268" data-name="Path 6268" d="M1406.924,538.751V523.73a6.449,6.449,0,0,0-.95-3.778q-.95-1.333-3.8-1.334a15.968,15.968,0,0,0-3.167.34,19.2,19.2,0,0,0-2.986.837v-4.479a15.152,15.152,0,0,1,3.348-1.041,19.8,19.8,0,0,1,3.981-.407q5.159,0,7.42,2.194t2.262,6.809v15.88Z" transform="translate(-1082.072 -502.827)" fill="#ed759d"/>
            <path id="Path_6269" data-name="Path 6269" d="M1441.914,539.549a8.151,8.151,0,0,1-6.2-2.376,9.22,9.22,0,0,1-2.262-6.628v-15.88h6.108v15.518a4.767,4.767,0,0,0,1.109,3.552,4.563,4.563,0,0,0,3.28,1.063,8.158,8.158,0,0,0,3.348-.724,7.787,7.787,0,0,0,2.624-1.809v-17.6h6.107V539.1h-5.61l-.272-2.4a13.253,13.253,0,0,1-3.665,2.082A12.861,12.861,0,0,1,1441.914,539.549Z" transform="translate(-1098.286 -503.173)" fill="#ed759d"/>
            <path id="Path_6270" data-name="Path 6270" d="M1479.106,515.458v-9.094h5.158l-.633,9.094Zm7.828,0v-9.094h5.158l-.633,9.094Z" transform="translate(-1118.06 -499.578)" fill="#ed759d"/>
          </g>
        </g>
      </g>
    </g>
  </g>
</svg>
