<svg id="Group_176" data-name="Group 176" xmlns="http://www.w3.org/2000/svg" width="312.127" height="71.596" viewBox="0 0 312.127 71.596">
  <rect id="Rectangle_24" data-name="Rectangle 24" width="312.127" height="71.596" rx="35.798" transform="translate(0 0)" fill="#e95d8c"/>
  <path id="Path_674" data-name="Path 674" d="M897.745,639.9c-4.165-.883-7.791,5.228-1.353,7.675s13.779,8.112,16.741,15.2a24.525,24.525,0,0,1,0,18.286c-1.675,3.864,1.03,3.992,3.863.515s5.151-12.878,1.932-21.763S908.433,642.166,897.745,639.9Z" transform="translate(-613.135 -635.021)" fill="#f6f6f6" opacity="0.5"/>
  <path id="Path_675" data-name="Path 675" d="M879.007,637.482c-5.772-.532-8.515,3.656-2.82,5.75s7.912-1.341,7.21-3.095C882.889,638.87,881.747,637.735,879.007,637.482Z" transform="translate(-606.797 -634.261)" fill="#f6f6f6" opacity="0.5"/>
  <g id="Group_2872" data-name="Group 2872" transform="translate(59.346 14.806)">
    <path id="Path_6560" data-name="Path 6560" d="M697.242,422.259a3.313,3.313,0,0,1-2.518-.855,3.421,3.421,0,0,1-.807-2.44v-13.81h3.453V418.11a1.245,1.245,0,0,0,1.393,1.426h1.267v2.724Zm7.7,0a3.3,3.3,0,0,1-2.533-.855,3.452,3.452,0,0,1-.793-2.44v-13.81h3.42V418.11a1.245,1.245,0,0,0,1.394,1.426h1.3v2.724Z" transform="translate(-693.918 -391.63)" fill="#fff"/>
    <path id="Path_6561" data-name="Path 6561" d="M714.333,422.647a7.894,7.894,0,0,1-5.465-1.677,6.051,6.051,0,0,1-1.852-4.721v-1.678a4.115,4.115,0,0,1,.427-1.868,9.284,9.284,0,0,1,.983-1.568q.554-.713.98-1.331a2.053,2.053,0,0,0,.427-1.155.785.785,0,0,0-.22-.666,1.448,1.448,0,0,0-.793-.158h-2.185l.284-2.6h3.992q2.407,0,2.408,2.312a4.253,4.253,0,0,1-.427,1.934,11.288,11.288,0,0,1-1.013,1.646,11.686,11.686,0,0,0-1.015,1.632,4.04,4.04,0,0,0-.427,1.853v1.932a3.041,3.041,0,0,0,1.03,2.549,5.5,5.5,0,0,0,5.764-.016,3.164,3.164,0,0,0,1.03-2.629v-2.09a3.382,3.382,0,0,0-.475-2.075,2.195,2.195,0,0,0-1.773-.585h-.887l.158-2.5h.635a2.209,2.209,0,0,0,1.836-.65,3.265,3.265,0,0,0,.506-2.011v-1.615h3.453v1.551a5.907,5.907,0,0,1-.443,2.456,3.114,3.114,0,0,1-1.836,1.5,3.193,3.193,0,0,1,1.867,1.585,6.313,6.313,0,0,1,.412,2.437v1.774a5.925,5.925,0,0,1-1.963,4.736A8.025,8.025,0,0,1,714.333,422.647Z" transform="translate(-690.165 -391.702)" fill="#fff"/>
    <path id="Path_6562" data-name="Path 6562" d="M727.11,422.647a23.16,23.16,0,0,1-3.245-.22,11.115,11.115,0,0,1-2.584-.635v-2.882a13.664,13.664,0,0,0,2.615.728,14.607,14.607,0,0,0,2.581.254,9.784,9.784,0,0,0,3.23-.4,1.6,1.6,0,0,0,1.046-1.663,1.764,1.764,0,0,0-.539-1.395,4.776,4.776,0,0,0-1.584-.839q-1.045-.363-2.6-.872a20.74,20.74,0,0,1-2.629-1.107,5.231,5.231,0,0,1-1.852-1.52,3.775,3.775,0,0,1-.681-2.313,4.261,4.261,0,0,1,1.71-3.563,8.416,8.416,0,0,1,5.165-1.314,18.749,18.749,0,0,1,2.882.221,13.939,13.939,0,0,1,2.344.539v2.851a11.185,11.185,0,0,0-2.329-.618,15.147,15.147,0,0,0-2.392-.206,8.962,8.962,0,0,0-2.945.4,1.552,1.552,0,0,0-1.109,1.6,1.521,1.521,0,0,0,.57,1.251,5.413,5.413,0,0,0,1.632.824q1.061.365,2.549.87a15.06,15.06,0,0,1,2.819,1.189,4.758,4.758,0,0,1,1.726,1.584,4.491,4.491,0,0,1,.585,2.423,3.974,3.974,0,0,1-1.884,3.657A9.65,9.65,0,0,1,727.11,422.647Z" transform="translate(-685.965 -391.702)" fill="#fff"/>
    <path id="Path_6563" data-name="Path 6563" d="M724.759,404.2v-4.623h9.312l-.126,2.408h-6.336V404.2Z" transform="translate(-684.817 -393.276)" fill="#fff"/>
    <path id="Path_6564" data-name="Path 6564" d="M737.08,424.114a3.3,3.3,0,0,1-2.535-.855,3.464,3.464,0,0,1-.791-2.44V410.337a5.63,5.63,0,0,1,.57-2.661,7.822,7.822,0,0,1,1.3-1.821q.728-.744,1.3-1.362a1.917,1.917,0,0,0,.57-1.314,1.327,1.327,0,0,0-.523-1.236,3.081,3.081,0,0,0-1.567-.316,7.167,7.167,0,0,0-3.453.949v-2.534a7.785,7.785,0,0,1,2.2-.869,10.291,10.291,0,0,1,2.424-.3,5.051,5.051,0,0,1,3.357.951,3.352,3.352,0,0,1,1.109,2.693,3.689,3.689,0,0,1-.4,1.757,6.961,6.961,0,0,1-.965,1.378q-.571.633-1.141,1.3a6.813,6.813,0,0,0-.966,1.489,4.571,4.571,0,0,0-.4,2v9.533a1.729,1.729,0,0,0,.269,1.124,1.52,1.52,0,0,0,1.125.3h1.457v2.724Z" transform="translate(-682.695 -393.485)" fill="#fff"/>
    <path id="Path_6565" data-name="Path 6565" d="M740.827,422.259v-17.1h3.453v5.385h4.942a3.341,3.341,0,0,0,2.581-.808,3.469,3.469,0,0,0,.712-2.36v-2.217h3.42v2.123a6.584,6.584,0,0,1-.554,2.787,3.362,3.362,0,0,1-2.011,1.742,3.044,3.044,0,0,1,1.932,1.6,6.368,6.368,0,0,1,.475,2.55v6.3h-3.422v-5.891a3.5,3.5,0,0,0-.7-2.518,3.686,3.686,0,0,0-2.566-.681H744.28v9.09Z" transform="translate(-680.076 -391.63)" fill="#fff"/>
    <path id="Path_6566" data-name="Path 6566" d="M747.438,404.354V401.44h-2.5v-2.375h4.876v2.883h6.842l-.126,2.406Z" transform="translate(-678.863 -393.427)" fill="#fff"/>
    <path id="Path_6567" data-name="Path 6567" d="M758.95,422.259a3.306,3.306,0,0,1-2.534-.855,3.458,3.458,0,0,1-.791-2.44v-13.81h3.422V418.11a1.245,1.245,0,0,0,1.394,1.426H761.9v2.724Z" transform="translate(-675.709 -391.63)" fill="#fff"/>
    <path id="Path_6568" data-name="Path 6568" d="M766.333,422.259l-3.959-17.1h3.388l2.535,12.227,3.1-9.788v-2.439h2.471l3.451,12.227,2.471-12.227h3.358l-3.928,17.1h-3.168l-3.168-10.9-3.42,10.9Z" transform="translate(-673.717 -391.63)" fill="#fff"/>
    <path id="Path_6569" data-name="Path 6569" d="M766.385,404.3l.158-2.406h6.145v-2.629h2.5v2.629h1.9v-2.629h2.5V404.3Z" transform="translate(-672.534 -393.37)" fill="#fff"/>
    <path id="Path_6570" data-name="Path 6570" d="M774.382,399.114v-4.4h2.85v4.4Z" transform="translate(-670.174 -394.712)" fill="#fff"/>
    <path id="Path_6571" data-name="Path 6571" d="M787.282,422.647a18.316,18.316,0,0,1-3.817-.379,16.739,16.739,0,0,1-2.993-.886v-8.807h6.779l.158,2.629H783.8v4.149a9.281,9.281,0,0,0,1.663.4,12.129,12.129,0,0,0,1.821.142q2.821,0,3.976-1.347t1.155-4.7a9.686,9.686,0,0,0-.57-3.691,3.431,3.431,0,0,0-1.884-1.9,9.377,9.377,0,0,0-3.563-.554,22.461,22.461,0,0,0-2.85.19,14.87,14.87,0,0,0-2.819.633v-2.66a17.943,17.943,0,0,1,3.055-.7,24.13,24.13,0,0,1,3.47-.253q4.5,0,6.494,2.264t2,6.668q0,4.307-2,6.556T787.282,422.647Z" transform="translate(-668.377 -391.702)" fill="#fff"/>
    <path id="Path_6572" data-name="Path 6572" d="M800.657,422.575a5.637,5.637,0,0,1-4.292-1.615,6.4,6.4,0,0,1-1.536-4.592V405.155h3.453V416.21a3.771,3.771,0,0,0,.855,2.771,3.675,3.675,0,0,0,2.661.839,6.26,6.26,0,0,0,2.66-.587,6.552,6.552,0,0,0,2.09-1.471V405.155h3.422v17.1h-3.135l-.159-1.869a9.954,9.954,0,0,1-2.645,1.585A8.879,8.879,0,0,1,800.657,422.575Z" transform="translate(-664.14 -391.63)" fill="#fff"/>
    <path id="Path_6573" data-name="Path 6573" d="M812.977,422.259a3.3,3.3,0,0,1-2.534-.855,3.458,3.458,0,0,1-.793-2.44v-13.81h3.422V418.11a1.245,1.245,0,0,0,1.394,1.426h1.457v2.724Z" transform="translate(-659.766 -391.63)" fill="#fff"/>
    <path id="Path_6574" data-name="Path 6574" d="M822.5,422.647a7.84,7.84,0,0,1-2.93-.522,4.5,4.5,0,0,1-2.107-1.678,5.256,5.256,0,0,1-.791-3.025,4.763,4.763,0,0,1,1.7-3.9,7.643,7.643,0,0,1,4.956-1.394h5.227v-1.077a3.166,3.166,0,0,0-.935-2.612,5.831,5.831,0,0,0-3.47-.745,20.926,20.926,0,0,0-2.865.19,15.078,15.078,0,0,0-2.708.633v-2.66a18.825,18.825,0,0,1,2.866-.681,20.025,20.025,0,0,1,3.278-.269q3.738,0,5.512,1.567A6.208,6.208,0,0,1,832,411.372v10.959h-3.452v-7.539h-5a4.956,4.956,0,0,0-2.678.587,2.249,2.249,0,0,0-.9,2.042,2.152,2.152,0,0,0,.807,1.932,4.919,4.919,0,0,0,2.645.539,8.26,8.26,0,0,0,2.186-.254v2.629a12.035,12.035,0,0,1-1.393.269A12.391,12.391,0,0,1,822.5,422.647Z" transform="translate(-657.695 -391.702)" fill="#fff"/>
    <path id="Path_6575" data-name="Path 6575" d="M825.815,404.309v-5.195h3.453v5.195Z" transform="translate(-654.996 -393.413)" fill="#fff"/>
    <path id="Path_6576" data-name="Path 6576" d="M837.416,422.575a5.64,5.64,0,0,1-4.293-1.615,6.4,6.4,0,0,1-1.535-4.592V405.155h3.453V416.21a3.771,3.771,0,0,0,.855,2.771,3.673,3.673,0,0,0,2.661.839,6.252,6.252,0,0,0,2.659-.587,6.545,6.545,0,0,0,2.092-1.471V405.155h3.42v17.1h-3.135l-.159-1.869a9.916,9.916,0,0,1-2.645,1.585A8.872,8.872,0,0,1,837.416,422.575Z" transform="translate(-653.293 -391.63)" fill="#fff"/>
  </g>
</svg>
