<svg xmlns="http://www.w3.org/2000/svg" xmlns:xlink="http://www.w3.org/1999/xlink" width="1152" height="1024" viewBox="0 0 1152 1024">
  <defs>
    <clipPath id="clip-path">
      <rect id="Rectangle_200" data-name="Rectangle 200" width="1152" height="1024" transform="translate(-192)" fill="none"/>
    </clipPath>
  </defs>
  <g id="Mask_Group_2" data-name="Mask Group 2" transform="translate(192)" clip-path="url(#clip-path)">
    <g id="Group_2747" data-name="Group 2747" transform="translate(180.98 -10.622)">
      <g id="Group_2710" data-name="Group 2710" transform="translate(4.365)">
        <circle id="Ellipse_209" data-name="Ellipse 209" cx="110.222" cy="110.222" r="110.222"/>
      </g>
      <g id="Group_2718" data-name="Group 2718" transform="translate(0 18.844)">
        <g id="Group_2711" data-name="Group 2711">
          <circle id="Ellipse_210" data-name="Ellipse 210" cx="101.769" cy="101.769" r="101.769" fill="#fff"/>
        </g>
        <g id="Group_2712" data-name="Group 2712" transform="translate(25.249 25.249)">
          <circle id="Ellipse_211" data-name="Ellipse 211" cx="76.52" cy="76.52" r="76.52" fill="#c9d6e8"/>
        </g>
        <g id="Group_2713" data-name="Group 2713" transform="translate(17.625 17.617)">
          <path id="Path_5410" data-name="Path 5410" d="M-3264.313,206.442a.757.757,0,0,1-.268-.049c-2.221-.828-4.439-1.764-6.593-2.78a.767.767,0,0,1-.367-1.021.767.767,0,0,1,1.02-.366c2.117,1,4.295,1.917,6.476,2.73a.768.768,0,0,1,.451.987A.768.768,0,0,1-3264.313,206.442Z" transform="translate(3319.418 -43.397)" fill="#0d0d0c"/>
          <path id="Path_5411" data-name="Path 5411" d="M-3280.961,60.062q-4.155,0-8.35-.417a.768.768,0,0,1-.687-.84.764.764,0,0,1,.84-.687,82.738,82.738,0,0,0,82.9-46.941,82.668,82.668,0,0,0-39.431-109.919,82.035,82.035,0,0,0-63.125-3.05,82.034,82.034,0,0,0-46.792,42.48,82.122,82.122,0,0,0-3.364,62.236.766.766,0,0,1-.474.976.769.769,0,0,1-.977-.474,83.643,83.643,0,0,1,3.428-63.392,83.557,83.557,0,0,1,47.661-43.27,83.561,83.561,0,0,1,64.3,3.106,84.2,84.2,0,0,1,40.164,111.962A84.312,84.312,0,0,1-3280.961,60.062Z" transform="translate(3365.076 108.221)" fill="#0d0d0c"/>
        </g>
        <path id="Path_5412" data-name="Path 5412" d="M-3194.374,14.624c26.6-31.029,19.8-73.392-2.9-92.992-16.585-14.323-39.659-17.685-51.776-14.076,0,0-9.814-4-33.462.276S-3321.574-62.475-3326.22-43Z" transform="translate(3363.719 118.961)" fill="#080b0a"/>
        <g id="Group_2717" data-name="Group 2717" transform="translate(8.391 8.645)">
          <circle id="Ellipse_212" data-name="Ellipse 212" cx="61.987" cy="61.987" r="61.987" transform="translate(7.686 99.985) rotate(-45)" fill="#fdd89b"/>
          <path id="Path_5413" data-name="Path 5413" d="M-3310.93-6.642c-5.891,19.478-2.463,41.817,10.086,57.817s34.225,24.747,54.2,20.684c9.358-1.9,18.046-6.37,25.827-11.9,7.981-5.676,15.213-12.62,20.136-21.075A53.047,53.047,0,0,0-3198-8.424c-7.776-17.638-25.235-29.881-44.019-34.386-19.423-4.658-41.78-1.028-55.792,13.214A55.476,55.476,0,0,0-3310.93-6.642Z" transform="translate(3349.226 86.175)" fill="#c78c50"/>
          <g id="Group_2715" data-name="Group 2715" transform="translate(39.644 56.317)">
            <path id="Path_5414" data-name="Path 5414" d="M-3276.521-4.955a1.25,1.25,0,0,0,1.6.755,1.252,1.252,0,0,0,.755-1.6,1.251,1.251,0,0,0-1.6-.755A1.25,1.25,0,0,0-3276.521-4.955Z" transform="translate(3291.442 11.248)" fill="#f79922"/>
            <path id="Path_5415" data-name="Path 5415" d="M-3226.673,19.96a1.252,1.252,0,0,0,1.6.755,1.252,1.252,0,0,0,.755-1.6,1.251,1.251,0,0,0-1.6-.755A1.252,1.252,0,0,0-3226.673,19.96Z" transform="translate(3267.091 -0.923)" fill="#f79922"/>
            <circle id="Ellipse_213" data-name="Ellipse 213" cx="0.374" cy="0.374" r="0.374" transform="translate(23.707 17.553)" fill="#f79922"/>
            <circle id="Ellipse_214" data-name="Ellipse 214" cx="0.915" cy="0.915" r="0.915" transform="translate(14.628 28.017)" fill="#f79922"/>
            <g id="Group_2714" data-name="Group 2714" transform="translate(87.24 46.908)">
              <circle id="Ellipse_215" data-name="Ellipse 215" cx="1.781" cy="1.781" r="1.781" fill="#f79922"/>
            </g>
            <circle id="Ellipse_216" data-name="Ellipse 216" cx="1.126" cy="1.126" r="1.126" transform="translate(15.58 64.299)" fill="#f79922"/>
            <circle id="Ellipse_217" data-name="Ellipse 217" cx="1.888" cy="1.888" r="1.888" transform="translate(32.841 68.168)" fill="#f79922"/>
            <path id="Path_5416" data-name="Path 5416" d="M-3147,125.329a1.464,1.464,0,0,0,1.872.883,1.464,1.464,0,0,0,.884-1.872,1.465,1.465,0,0,0-1.873-.883A1.464,1.464,0,0,0-3147,125.329Z" transform="translate(3228.179 -52.257)" fill="#f79922"/>
            <path id="Path_5417" data-name="Path 5417" d="M-3180.674,118.081a.683.683,0,0,0,.873.412.683.683,0,0,0,.412-.873.683.683,0,0,0-.873-.412A.683.683,0,0,0-3180.674,118.081Z" transform="translate(3244.604 -49.228)" fill="#f79922"/>
            <circle id="Ellipse_218" data-name="Ellipse 218" cx="2.056" cy="2.056" r="2.056" transform="translate(95.28 29.345)" fill="#f79922"/>
            <circle id="Ellipse_219" data-name="Ellipse 219" cx="0.935" cy="0.935" r="0.935" transform="translate(48.251 0.749)" fill="#f79922"/>
            <circle id="Ellipse_220" data-name="Ellipse 220" cx="2.243" cy="2.243" r="2.243" transform="translate(81.059 0)" fill="#f79922"/>
            <path id="Path_5418" data-name="Path 5418" d="M-3242.275-7.94l.6-.214.6-.214-.6.214Z" transform="translate(3274.677 12.097)" fill="#f79922"/>
            <path id="Path_5419" data-name="Path 5419" d="M-3282.406,96.433a1.471,1.471,0,0,0,1.881.887,1.471,1.471,0,0,0,.888-1.881,1.471,1.471,0,0,0-1.881-.887A1.47,1.47,0,0,0-3282.406,96.433Z" transform="translate(3294.324 -38.137)" fill="#f79922"/>
            <circle id="Ellipse_221" data-name="Ellipse 221" cx="1.126" cy="1.126" r="1.126" transform="translate(33.567 48.987)" fill="#f79922"/>
            <circle id="Ellipse_222" data-name="Ellipse 222" cx="1.126" cy="1.126" r="1.126" transform="translate(72.634 19.095)" fill="#f79922"/>
            <path id="Path_5420" data-name="Path 5420" d="M-3247.24,66.5a1.47,1.47,0,0,0,1.88.887,1.472,1.472,0,0,0,.889-1.881,1.471,1.471,0,0,0-1.881-.887A1.47,1.47,0,0,0-3247.24,66.5Z" transform="translate(3277.145 -23.513)" fill="#f79922"/>
            <circle id="Ellipse_223" data-name="Ellipse 223" cx="2.36" cy="2.36" r="2.36" transform="translate(53.418 85.143)" fill="#f79922"/>
            <circle id="Ellipse_224" data-name="Ellipse 224" cx="1.308" cy="1.308" r="1.308" transform="translate(103.311 67.556)" fill="#fcb830"/>
            <path id="Path_5421" data-name="Path 5421" d="M-3093.071,86.98a1.842,1.842,0,0,0,2.355,1.111,1.84,1.84,0,0,0,1.111-2.354,1.841,1.841,0,0,0-2.354-1.111A1.843,1.843,0,0,0-3093.071,86.98Z" transform="translate(3201.843 -33.277)" fill="#fcb830"/>
            <circle id="Ellipse_225" data-name="Ellipse 225" cx="0.732" cy="0.732" r="0.732" transform="translate(107.949 61.694)" fill="#fcb830"/>
            <circle id="Ellipse_226" data-name="Ellipse 226" cx="0.841" cy="0.841" r="0.841" transform="translate(0 20.359)" fill="#fcb830"/>
          </g>
          <circle id="Ellipse_227" data-name="Ellipse 227" cx="61.987" cy="61.987" r="61.987" transform="translate(0 87.663) rotate(-45)" fill="#fdd89b"/>
          <path id="Path_5422" data-name="Path 5422" d="M-3325.956-30.732c-5.892,19.478-2.463,41.817,10.084,57.817s34.227,24.747,54.205,20.684c9.357-1.9,18.046-6.37,25.827-11.9,7.982-5.676,15.213-12.62,20.137-21.075a53.045,53.045,0,0,0,2.675-47.306c-7.776-17.638-25.234-29.881-44.018-34.386-19.422-4.658-41.78-1.028-55.793,13.213A55.472,55.472,0,0,0-3325.956-30.732Z" transform="translate(3356.567 97.943)" fill="#c78c50"/>
          <path id="Path_5423" data-name="Path 5423" d="M-3301.814-41.7c-8.057,9.331-14.448,20.085-16.6,32.38A77.183,77.183,0,0,0-3319.1,12.1c-.005-.018-.012-.036-.018-.054-4.62-15.3-2.936-32.113,3.063-46.924,3.183-7.86,7.755-15.468,14.72-20.3,6.046-4.2,13.438-6,20.738-6.954.43-.056.862-.1,1.292-.151C-3287.844-56.731-3295.607-48.89-3301.814-41.7Z" transform="translate(3353.15 94.755)" fill="#fdd89b"/>
          <path id="Path_5424" data-name="Path 5424" d="M-3289.929,17.6a63.6,63.6,0,0,1,38.39-81.341,63.649,63.649,0,0,1,8.877-2.467c.92.182,1.841.363,2.75.581,18.784,4.5,36.242,16.747,44.018,34.386a53.044,53.044,0,0,1-2.676,47.306c-4.923,8.455-12.154,15.4-20.136,21.075-7.781,5.533-16.47,10-25.827,11.9a51.872,51.872,0,0,1-21.12-.232A63.257,63.257,0,0,1-3289.929,17.6Z" transform="translate(3339.433 96.669)" fill="#080b0a"/>
          <path id="Path_5425" data-name="Path 5425" d="M-3238.882,152.927c5.392,1.2,9.091,2.065,9.593,4.037,0,0,15.453,6.816,32.3,2.041l-34.6-12.079Z" transform="translate(3312.663 -7.448)" fill="#080b0a"/>
          <g id="Group_2716" data-name="Group 2716" transform="translate(22.202 2.166)">
            <circle id="Ellipse_228" data-name="Ellipse 228" cx="61.987" cy="61.987" r="61.987" transform="translate(0 87.663) rotate(-45)" fill="#fdd89b"/>
            <path id="Path_5426" data-name="Path 5426" d="M-3282.551-26.5c-5.892,19.478-2.462,41.816,10.085,57.817s34.226,24.747,54.2,20.684c9.357-1.9,18.046-6.37,25.827-11.9,7.982-5.676,15.213-12.62,20.136-21.075a53.047,53.047,0,0,0,2.676-47.306c-7.775-17.639-25.234-29.881-44.018-34.386-19.423-4.658-41.78-1.028-55.794,13.214A55.485,55.485,0,0,0-3282.551-26.5Z" transform="translate(3313.161 93.708)" fill="#c78c50"/>
            <path id="Path_5427" data-name="Path 5427" d="M-3195.875-36.618a11.675,11.675,0,0,1,2.285,1.795c1.818,1.812,3.435,3.951,5.758,5.04,3.667,1.719,8.043.377,12,1.248a11.012,11.012,0,0,1,7.318,5.636,11.013,11.013,0,0,1,.323,9.231c-2.486,5.8-7.663,9.616-5.029,16.645,2.21,5.9,8.431,10.926,6.59,17.88-1.232,4.655-5.991,7.372-10.455,9.178s-9.4,3.456-12.13,7.418c-1.689,2.446-2.3,5.465-3.576,8.148s-3.709,5.246-6.679,5.1c-3.2-.155-5.338-3.243-8.044-4.96-3.019-1.915-6.815-2.1-10.376-1.782s-7.106,1.084-10.672.853-7.308-1.681-9.153-4.742c-2.9-4.811-.006-8.927.759-13.646a14.6,14.6,0,0,0-3.261-11.779c-1.718-1.968-3.943-3.425-5.791-5.272s-3.371-4.322-3.081-6.918c.359-3.223,3.286-5.464,6.013-7.219s5.745-3.742,6.5-6.895c.658-2.745-.619-5.547-.883-8.357a11.915,11.915,0,0,1,4.788-10.562,11.916,11.916,0,0,1,11.531-1.231c1.86.816,3.486,2.106,5.36,2.894,6.154,2.588,7.9-3.156,11.368-6.67A6.544,6.544,0,0,1-3195.875-36.618Z" transform="translate(3295.466 80.596)" fill="#fafafa"/>
            <path id="Path_5428" data-name="Path 5428" d="M-3236.688,19.2a12.934,12.934,0,0,1,3.061,14.689c3.012-1.133,3.832-5.2,2.849-8.262s-3.188-5.568-4.64-8.44-2-6.686.166-9.067c1.279-1.406,3.22-1.992,4.723-3.154,3-2.317,3.8-6.509,3.754-10.3s-.7-7.661.276-11.325,4.322-7.115,8.066-6.516a10.051,10.051,0,0,0-9.871-.928,10.05,10.05,0,0,0-5.676,8.13c-.191,2.32.444,4.634.429,6.962a12.679,12.679,0,0,1-3.893,8.993c-1.577,1.5-3.514,2.561-5.179,3.962s-3.109,3.317-3.13,5.491c-.023,2.314,1.571,4.348,3.393,5.773S-3238.419,17.668-3236.688,19.2Z" transform="translate(3293.818 74.364)" fill="#c9d6e8"/>
            <path id="Path_5429" data-name="Path 5429" d="M-3120.619-19.246c-.479-2.481-2.879-4.179-5.322-4.829s-5.016-.509-7.527-.8a22.489,22.489,0,0,1-14.572-7.868,33.915,33.915,0,0,0,3.856,7.2,11.413,11.413,0,0,0,6.629,4.493c2.935.571,5.915-.433,8.879-.827S-3122.2-21.783-3120.619-19.246Z" transform="translate(3246.084 78.153)" fill="#c9d6e8"/>
            <path id="Path_5430" data-name="Path 5430" d="M-3162.4,106.148a26.924,26.924,0,0,1-2.106,4.77,5.081,5.081,0,0,1-4.293,2.536c-2.415-.156-3.922-2.565-5.717-4.188a10.412,10.412,0,0,0-10.285-2.033c1.268-1.649,3.682-1.983,5.7-1.5a35.286,35.286,0,0,1,5.721,2.459c1.906.835,4.115,1.366,6.045.588,2.79-1.125,3.873-4.392,5.368-7a17.62,17.62,0,0,1,14.156-8.679A22.772,22.772,0,0,0-3162.4,106.148Z" transform="translate(3264.042 16.679)" fill="#c9d6e8"/>
          </g>
        </g>
      </g>
    </g>
    <g id="Group_2749" data-name="Group 2749" transform="translate(-455.963 250.511)">
      <g id="Group_2746" data-name="Group 2746" transform="translate(-49.215 -38.75)">
        <path id="Path_5459" data-name="Path 5459" d="M-6197.425,21552.586c-7.638,30.746,100.04,221.469,100.04,221.469l-583.592,34.18h-4.326s-.511-105.391,4.326-176.617,0-102.664,0-102.664S-6189.785,21521.838-6197.425,21552.586Z" transform="translate(7002.94 -20786.652)" fill="#fff"/>
        <g id="Group_2694" data-name="Group 2694" transform="translate(0 2.436)">
          <path id="Path_5332" data-name="Path 5332" d="M-2976.585,828.219c-1.554-.788-67-50.626-95.788-101,0,0-17.474-14.3-29.288-12.515s-216.455-62.3-268.328-94.615-140.31-30.765-140.31-30.765,23.3-27.289,22.144-64.845c-.562-18.135-5.284-41.072-5.284-41.072L-3497,459.127s23.714-22.306-9-52.163a20.886,20.886,0,0,1-5.887-23.372s30.372-58.808,7.532-105.494c-42.312-86.508-138.965-101.764-195.9-98.919-38.975,1.953-61.34,14.305-73.223,24.288-7.212-1.958-22.167,1.865-22.167,1.865l-62.944,15.7s11.315-20.047,29.682-22.6,29.52-2.034,37.479-7.463,3.691-10.024-2.874-13.842c-6.477-3.772-56.954,4.8-58.252,5.023l28.24-8.957-24.067-14.827-115.1,91.1,68.582,28.251,18.419,4.3-17.556,3.9-95.39,37.208-135.408,198.654,5.109,90.923L-3430.2,835.612l453.63-7.387A.015.015,0,0,1-2976.585,828.219ZM-3765.217,567c14.282,12.543-10.133,34.155-16.061,35.122s-38.581-13.94-56.994-18.906-113.143-39.131-135-44.653-27.458-6.721-27.458-6.721,24.838-24.311,43.437-98.327,43.64-110.008,43.64-110.008,43.436-21.813,54.357-29.763c3.036-2.213,4.577-4.444,5.208-6.506l44.954,10.493,48.356,116.335,74.915,160.994S-3779.5,554.465-3765.217,567Z" transform="translate(4212.699 -152.85)"/>
          <path id="Path_5333" data-name="Path 5333" d="M-3691.4,356.97c-32.186,32.463-37.863,79.507-31.026,107.768s78.25-26.266,78.25-26.266l59.74-109.684-78.985-13.45Z" transform="translate(4042.354 -219.726)"/>
          <g id="Group_2693" data-name="Group 2693">
            <g id="Group_2692" data-name="Group 2692">
              <path id="Path_5334" data-name="Path 5334" d="M-3893.051,259c6.16-29.408,24.723-61.488,35.344-72.079s36.346-32.205,42.372-35.5,31.5-3.711,34.154-.191c0,0,15.383-3.013,24.149,2.046a16.741,16.741,0,0,1,8.609,13.905s38.659.975,47.032,5.861-3.351,12.333-14.544,12.755-31.817-.061-38.7,2.271-29.044,26.466-29.044,26.466,30.844-12.55,44.989-15.41,37.138-2.965,42.028-2.9,4.965,7.825-.875,12.026-36.48,8.88-41.234,11.689-31.066,26.272-36.579,31.322a113.96,113.96,0,0,0-9.506,9.837s11.822-1.314,19.2-7.409,19.8-15.107,30.665-16.377,13.263,4.947.042,15.244-26.131,27.291-46.244,35.7-57.243,29.338-70.764,38.018-44.884-19.912-52.542-25.183S-3898.378,284.429-3893.051,259Z" transform="translate(4119.795 -148.754)" fill="#f9cfcc"/>
              <path id="Path_5335" data-name="Path 5335" d="M-3681.559,179.314c-1.38-.011-2.76-.022-4.137-.016-1.375.028-2.75.071-4.115.2a38.136,38.136,0,0,0-8.036,1.508,35.544,35.544,0,0,0-7.461,3.253c-2.339,1.365-4.594,2.974-6.844,4.548-4.507,3.162-8.952,6.423-13.414,9.661s-8.924,6.483-13.418,9.689q6.332-5.338,12.88-10.4,6.537-5.083,13.292-9.885c2.282-1.566,4.524-3.167,6.97-4.551a34.2,34.2,0,0,1,7.747-3.167,35.464,35.464,0,0,1,8.25-1.21A65.462,65.462,0,0,1-3681.559,179.314Z" transform="translate(4048.314 -161.608)" fill="#0d0d0c"/>
              <path id="Path_5336" data-name="Path 5336" d="M-3726.924,155.664c-2.009.5-4,1.037-5.942,1.727a52.43,52.43,0,0,0-5.7,2.311,36.2,36.2,0,0,0-5.283,3.055,22.846,22.846,0,0,0-2.356,1.9q-1.113,1.046-2.192,2.153c-1.45,1.458-2.872,2.953-4.287,4.456l-4.254,4.5q-4.235,4.525-8.566,8.974,3.827-4.89,7.9-9.574c2.714-3.126,5.483-6.2,8.39-9.167q1.1-1.106,2.251-2.173a21.724,21.724,0,0,1,2.494-1.961,33.212,33.212,0,0,1,5.532-2.978A45.006,45.006,0,0,1-3726.924,155.664Z" transform="translate(4059.613 -151.698)" fill="#0d0d0c"/>
              <path id="Path_5337" data-name="Path 5337" d="M-2477.379,1231.359c-9.473,27-73.91,49.833-180.99,43.224s-269.566-27.6-269.566-27.6-58.651-192.856-28.91-189.81,112.991,10.263,208.071,36.985,227.019,53.087,227.019,53.087Z" transform="translate(3718.675 -535.762)" fill="#f9cfcc"/>
              <path id="Path_5338" data-name="Path 5338" d="M-2565.237,1143.976c-17.313,31.455-27.161,165.34-27.161,165.34l-57.486-7.839,5.047-3.919,17.07-156.177,42.822-14.28Z" transform="translate(3581.52 -575.144)"/>
              <path id="Path_5339" data-name="Path 5339" d="M-3900.9,929.884c-87.2-38.013-235.229-97.355-271.058-105.7s-103.1,53.21-99.665,71.269,108.244,99.633,167.485,127.753c132.865,63.066,194.57,73.716,295.272,127.44Z" transform="translate(4275.295 -436.185)" fill="#f9cfcc"/>
              <path id="Path_5340" data-name="Path 5340" d="M-4002.99,855.106c-38.119,7.6-27.488,166.145-27.488,166.145l10.276,5.936,62.082-31.872-20.654-125.764Z" transform="translate(4173.083 -449.689)"/>
              <path id="Path_5341" data-name="Path 5341" d="M-3973.054,369.372c-15.3,18.561-56.477,83.5-79.437,130.451-22.917,46.861-52.571,121.732-111.976,159.734s-106.419,39.246-110.111,28.751-15.474-67.964,46.805-144.417c75.028-92.1,168.507-192.6,177.4-206.453S-3973.054,369.372-3973.054,369.372Z" transform="translate(4277.924 -228.029)" fill="#f9cfcc"/>
              <path id="Path_5342" data-name="Path 5342" d="M-3500.776,867.187l8.629-5.3s20.676-12.918,6.816-66.449-19.531-77.562-19.531-77.562l128.1-14.056s104.864,102.831,75.1,112.4-34.317,20-30.792,30.09,15.886,18.079,23.657,21.472,36.321,20.583,36.321,20.583l-47.988,58.266-136.466,6.632-54.7-60.136V870Z" transform="translate(3951.448 -385.236)" fill="#f9cfcc"/>
              <path id="Path_5343" data-name="Path 5343" d="M-3381.344,856.935c22.942,26.543,79.485,36.213,108.712,30.01,0,0-13.692,6.921-16.488,13.8s3.383,17.266,8.677,22.4l-8.48,19.745-41.321,20.587-71.948,1.285-7.872-6.248s49.829,1.736,68.715-7.7,11.925-49.635,7.208-53.9-26.951-14.374-36.608-24.032S-3381.344,856.935-3381.344,856.935Z" transform="translate(3908.18 -450.468)" fill="#eab8b7"/>
              <path id="Path_5344" data-name="Path 5344" d="M-3326.324,972.29c-15.328,37.259-126.422,53.373-172.425,18.6l-4.641-9.323-14.369,8.266s9.263,31.524,10.388,32.306,135.155,33.386,135.155,33.386l85.137-44.441-15.214-25.712s-7.213-2.781-14.862-6.723S-3326.324,972.29-3326.324,972.29Z" transform="translate(3954.063 -499.614)"/>
              <path id="Path_5345" data-name="Path 5345" d="M-3894.284,1149.063l21.072,35.288a.03.03,0,0,0,.021.015l2.208,1.792,79.616,64.428,7.851,6.359,467.189,8.67,42.332-253.928c-37.829-6.707-55.6-16.13-112.133-23.254-33.1-4.166-68.087-5.008-68.087-5.008s-27.178,35.766-96.643,37.8-133.955-44.42-133.955-44.42-5.183-.952-15.363-3.564q-1.946-.494-4.125-1.074l-.009,0c-11.774-3.116-28.82-8.083-50.946-15.645a85.928,85.928,0,0,0-20.709-4.08,116.379,116.379,0,0,0-25.541.784l-12.228,25.809Z" transform="translate(4114.478 -491.006)" fill="#fff"/>
              <path id="Path_5346" data-name="Path 5346" d="M-2990.949,1074.275c28.718-22.894,41.918-32.941,94.4-19.652,32.447,8.217,124.239,28.363,139.415,30.662s14.1,13.342,14.1,13.342-22.908,2.442-28.318,30.193-.432,68.183-7.145,89.841-12.091,55.371-9.228,71.306-24.726,21.629-37.732,11.033c0,0-24.148-2.473-59.294,2.123s-58.809,3.661-83.183,3.4-40.666-48.11-52.886-91.819S-3022.414,1099.357-2990.949,1074.275Z" transform="translate(3744.453 -532.159)" fill="#fff"/>
              <path id="Path_5347" data-name="Path 5347" d="M-3529.333,1025.438c83.863,84.019,224.209,42.458,249.4,45.883s26.38,21.683,26.38,21.683c-12.609,51.1,4.383,110.165,5.668,114.446-.44-1.973-3.359-15.66-5.54-43.515-1.856-23.718,5.47-44.78,20.242-59.636a69.9,69.9,0,0,1,13.835-10.786c12.293-7.337,52.187-9.154,92.336-7.573,37.848,1.485,75.924,6,91.333,11.738,31.74,11.842,20.577,25.223,24.279,44.376,3.591,18.61,2.278,48.781,2.2,50.473a292.834,292.834,0,0,0,4.121-40.4c.641-21.849.93-44.972,8.626-55.78,7.042-9.91,17.739-5.812,14.967,1.882a33.329,33.329,0,0,1,23.9-17.488s1.076-11.049-14.1-13.346-106.968-22.446-139.419-30.662q-3.842-.974-7.414-1.782a.109.109,0,0,0-.05-.006c-4.483-.8-8.686-1.636-12.7-2.5-29.856-6.414-49.578-14.472-99.382-20.752-33.1-4.166-68.088-5.008-68.088-5.008s-27.178,35.766-96.643,37.8c-39.683,1.161-77.752-13.5-103.093-26.293Z" transform="translate(3958.994 -514.271)" fill="#c9d6e8"/>
              <path id="Path_5348" data-name="Path 5348" d="M-3312.5,986.9c-9.7,22.739-54.413,42.551-134.541,33.911s-66.556-37.715-66.556-37.715l8.628-5.3s-6.832-5.112-18.817,1.341-17.365,6.937-17.864,12.82-.24,39.3,82.3,55.466,140.013-10.49,163.6-28.11,16.218-35.034,7.754-38.514-31.141,3.307-31.141,3.307Z" transform="translate(3964.267 -501.14)" fill="#c9d6e8"/>
              <path id="Path_5349" data-name="Path 5349" d="M-3290.958,1061.437q-1.321,0-2.6-.035a.862.862,0,0,1-.836-.885.858.858,0,0,1,.885-.836c34.577.96,82.921-17.81,99.736-30.649,16.876-12.887,21.362-21.371,17.143-32.419a.861.861,0,0,1,.5-1.112.861.861,0,0,1,1.112.5c4.557,11.936-.077,20.938-17.708,34.4-9.026,6.892-25.915,14.909-44.075,20.922C-3256.607,1057.879-3275.707,1061.436-3290.958,1061.437Z" transform="translate(3858.9 -509.478)" fill="#0d0d0c"/>
              <path id="Path_5350" data-name="Path 5350" d="M-2905.387,1498.01l-24-.451a18.145,18.145,0,0,0,2.511.2C-2919.749,1497.839-2912.691,1497.975-2905.387,1498.01Z" transform="translate(3703.392 -723.4)" fill="#c9d6e8"/>
              <path id="Path_5351" data-name="Path 5351" d="M-2835.776,1051.572c4.014.86,8.217,1.7,12.7,2.5C-2827.612,1053.038-2831.825,1052.206-2835.776,1051.572Z" transform="translate(3663.51 -533.392)" fill="#c9d6e8"/>
              <path id="Path_5352" data-name="Path 5352" d="M-2835.776,1051.572c4.014.86,8.217,1.7,12.7,2.5C-2827.612,1053.038-2831.825,1052.206-2835.776,1051.572Z" transform="translate(3663.51 -533.392)" fill="#c9d6e8"/>
              <path id="Path_5353" data-name="Path 5353" d="M-4028.89,1055.764c-10.951,17.607,8.273,50.292,21.489,45.322,0,0,17.865,3.391,45.037,26.147,11.107,9.3,21.093,16.787,30.422,23.27a.033.033,0,0,0,.022.015c.962.672,1.914,1.324,2.856,1.974l.016,0c12.37,8.449,23.655,15.229,35.021,22.293,9.9,6.157,24.092,2.141,39.9-7.053,17.242-10.009,36.408-26.179,54.03-41.981,33.793-30.3,63.31-96.426,50.247-134.492-8.536-24.877-13.9-39.915-35.137-52.693-8.423-5.064-19.331-9.769-33.917-14.594-4.324-1.427-9.7-3.266-15.79-5.387-38.642-13.42-106.148-38.279-118.272-43.644-14.041-6.214-25.928,2.072-25.928,2.072s-3,.946-7.562,7.083c-.241.319-.486.653-.728,1.006a.3.3,0,0,0-.058.078l-.308.429c-2.987,4.332-6.545,10.809-10.338,20.444-10.341,26.313-6.752,68.4-12.725,90.273S-4020.346,1042.011-4028.89,1055.764Z" transform="translate(4173.207 -457.157)" fill="#fff"/>
              <path id="Path_5354" data-name="Path 5354" d="M-3945.006,889.34c-7.266,7.55-11.828,19.357-12.32,37.165s20.232,16.448,56.893,15.03c16.706-.646,40.6-.382,59.84,3.647,22.995,4.813,39.362,14.975,28.955,35.329-18.876,36.917-24.191,87.645-24.325,88.922-.06-.416-.4-2.758-2.1-14.07-2.392-15.834-4.015-48.321-4.015-48.321-8.079,31.072,1.781,99.851,1.781,99.851s.771,7.68-5.109,18.139-36.751,33.2-51.769,27.464l-.016,0a2.985,2.985,0,0,0-.648-.182l79.617,64.428c-1.095-13.15-2.418-29.285-4.031-49q-.422-5.148-.872-10.634c-7.569-92.56-.935-103.083,6.262-128.917s23.175-69.316,49.477-84.115a52.371,52.371,0,0,1,14.272-5.5,53.056,53.056,0,0,1,21.949-.256c-11.774-3.116-28.82-8.083-50.947-15.644a85.907,85.907,0,0,0-20.709-4.08c-38.642-13.42-106.148-38.279-118.273-43.644-14.04-6.214-25.928,2.072-25.928,2.072s-3,.946-7.561,7.083C-3949.412,877.857-3938.113,882.174-3945.006,889.34Z" transform="translate(4141.34 -457.157)" fill="#c9d6e8"/>
              <path id="Path_5355" data-name="Path 5355" d="M-3954.457,894.928a2.71,2.71,0,0,0,.309-.429C-3954.25,894.643-3954.354,894.785-3954.457,894.928Z" transform="translate(4140.114 -466.472)" fill="#c9d6e8"/>
            </g>
            <path id="Path_5356" data-name="Path 5356" d="M-4216.1,872.942c-1.917,0-3.013-.013-3.1-.014a.574.574,0,0,1-.566-.582.573.573,0,0,1,.574-.566h.007c.8.013,81.074.921,108.892-14.058a.573.573,0,0,1,.778.233.573.573,0,0,1-.233.778C-4134.676,872.153-4200.95,872.942-4216.1,872.942Z" transform="translate(4253.147 -450.774)" fill="#db8882"/>
            <path id="Path_5357" data-name="Path 5357" d="M-2927.261,1464.413a.857.857,0,0,1-.473-.142c-47.553-31.353-71.336-79.489-71.57-79.971a.86.86,0,0,1,.4-1.151.862.862,0,0,1,1.151.4c.233.479,23.824,48.2,70.97,79.287a.861.861,0,0,1,.245,1.193A.858.858,0,0,1-2927.261,1464.413Z" transform="translate(3733.217 -674.62)" fill="#0d0d0c"/>
            <path id="Path_5358" data-name="Path 5358" d="M-3015.807,1288.378a.859.859,0,0,1-.714-.38c-1.107-1.641-27.16-40.349-30.843-54.233-9.819-37.022-12.95-70.716-9.309-100.145,3.733-30.165,13.259-44.393,16.089-48.035,11.307-14.549,32.725-22.681,33.631-23.02a.86.86,0,0,1,1.107.5.861.861,0,0,1-.5,1.108c-.218.082-21.872,8.306-32.876,22.464-2.762,3.554-12.059,17.462-15.739,47.19-3.615,29.21-.5,62.684,9.264,99.491,3.609,13.605,30.335,53.312,30.6,53.712a.86.86,0,0,1-.231,1.2A.858.858,0,0,1-3015.807,1288.378Z" transform="translate(3758.247 -538.052)" fill="#0d0d0c"/>
            <path id="Path_5359" data-name="Path 5359" d="M-3721.892,1290.421a.86.86,0,0,1-.855-.773c-.54-5.254-13.206-128.9-10.207-148.671,2.934-19.347,16.941-71.036,36.026-102.855a.862.862,0,0,1,1.181-.3.86.86,0,0,1,.3,1.181c-18.961,31.615-32.882,83-35.8,102.228-2.966,19.556,10.085,146.953,10.218,148.237a.861.861,0,0,1-.768.944A.782.782,0,0,1-3721.892,1290.421Z" transform="translate(4045.94 -527.483)" fill="#0d0d0c"/>
            <path id="Path_5360" data-name="Path 5360" d="M-3740.72,1213.154a.861.861,0,0,1-.84-.676c-.956-4.338-23.3-106.53-13.618-130.981a.862.862,0,0,1,1.117-.483.859.859,0,0,1,.483,1.117c-9.487,23.965,13.466,128.92,13.7,129.977a.86.86,0,0,1-.655,1.026A.885.885,0,0,1-3740.72,1213.154Z" transform="translate(4056.247 -545.909)" fill="#0d0d0c"/>
          </g>
        </g>
        <g id="Group_2700" data-name="Group 2700" transform="translate(640.819 0)">
          <g id="Group_2695" data-name="Group 2695" transform="translate(24.488)">
            <circle id="Ellipse_206" data-name="Ellipse 206" cx="249.941" cy="249.941" r="249.941"/>
          </g>
          <g id="Group_2699" data-name="Group 2699" transform="translate(0 28.486)">
            <g id="Group_2696" data-name="Group 2696" transform="translate(17.768)">
              <circle id="Ellipse_207" data-name="Ellipse 207" cx="240.842" cy="240.842" r="240.842" fill="#fff"/>
            </g>
            <path id="Path_5361" data-name="Path 5361" d="M-3146.841,499.958c6.667,4.623,16.709,1.3,26.362-25.337s-1.266-68.561-1.266-68.561l-39.69,49.71Z" transform="translate(3161.435 -284.427)"/>
            <g id="Group_2697" data-name="Group 2697" transform="translate(47.099 29.331)" opacity="0.5">
              <circle id="Ellipse_208" data-name="Ellipse 208" cx="211.51" cy="211.51" r="211.51" fill="#c9d6e8"/>
            </g>
            <g id="Group_2698" data-name="Group 2698" transform="translate(4.492 22.325)">
              <path id="Path_5362" data-name="Path 5362" d="M-2856.261,964.029a.851.851,0,0,1-.3-.055c-5.767-2.151-11.529-4.581-17.127-7.223a.86.86,0,0,1-.411-1.146.862.862,0,0,1,1.146-.412c5.554,2.621,11.271,5.032,16.993,7.167a.86.86,0,0,1,.506,1.107A.861.861,0,0,1-2856.261,964.029Z" transform="translate(3034.562 -540.672)" fill="#0d0d0c"/>
              <path id="Path_5363" data-name="Path 5363" d="M-2873.22,670.071q-10.829,0-21.643-1.081a.861.861,0,0,1-.771-.942.858.858,0,0,1,.943-.771,217.172,217.172,0,0,0,217.6-123.212,215.317,215.317,0,0,0,8.005-165.693,215.326,215.326,0,0,0-111.5-122.823c-108.078-51.01-237.505-4.581-288.515,103.5A215.539,215.539,0,0,0-3077.93,522.4a.862.862,0,0,1-.532,1.1.862.862,0,0,1-1.1-.532,217.253,217.253,0,0,1,8.9-164.655,217.106,217.106,0,0,1,51.821-69.574,217.737,217.737,0,0,1,71.978-42.814,217.713,217.713,0,0,1,82.78-12.7,217.092,217.092,0,0,1,84.229,20.769,217.1,217.1,0,0,1,69.573,51.821,217.731,217.731,0,0,1,42.815,71.978,217.733,217.733,0,0,1,12.7,82.78,217.094,217.094,0,0,1-20.77,84.229,216.925,216.925,0,0,1-91.338,97.672,219.4,219.4,0,0,1-61.7,22.973A218.208,218.208,0,0,1-2873.22,670.071Z" transform="translate(3127.213 -233.038)" fill="#0d0d0c"/>
              <path id="Path_5364" data-name="Path 5364" d="M-3108.691,736.457c6.387-10.313-3.294-66.611-3.893-68.408s13.476-18.267,6.289-25.154-30.388-27.5-35.936-36.173-11.379,7.725-11.379,7.725l2.4,55.877Z" transform="translate(3153.609 -391.164)"/>
            </g>
          </g>
        </g>
        <path id="Path_5365" data-name="Path 5365" d="M-2187.536,892.038c-33.208,31.039-82.035,40.926-83.5,17.5a.018.018,0,0,1,0-.012c-.524-1.59-77.418-95.612-41.18-250.042l13-94.511-13.836-73.326-46.03-73.855-2.768-10.235c6.133-.5,26.781,16.318,30.436,22.33s7.833,5.511,7.382,4.685-8.979-33.93-8.979-33.93L-2366,364.555l-3.833-7.1s27.759,11.087,38.916,17.446,28.34,18.86,28.34,18.86l-6.8-18.907-43.4-34.335,48.741,12.869,1.291-14.738s46.776,5.651,53.454,10.672,35.933,34.365,45.178,64.228-7.789,61.438-7.671,101.3,8.271,69.329,28.96,187.489C-2163.849,810.75-2154.329,860.992-2187.536,892.038Z" transform="translate(3465.001 -227.22)"/>
        <g id="Group_2701" data-name="Group 2701" transform="translate(1080.034 105.677)">
          <path id="Path_5366" data-name="Path 5366" d="M-2238.753,487.334c6.794-29.269,3.462-66.182-1.712-80.26s-19.409-44.515-23.486-50.045-27.007-16.628-30.9-14.552c0,0-12.686-9.21-22.765-8.311a16.743,16.743,0,0,0-13.665,8.988s-35.475-15.392-45.127-14.486-2.152,12.6,7.822,17.693,28.886,13.34,34.151,18.355,15.2,36.234,15.2,36.234-22.694-24.37-34.32-32.919-32.437-18.326-36.9-20.329-7.8,5.007-4.27,11.277,29.349,23.413,32.48,27.963,17.117,36.91,19.993,43.811a114.169,114.169,0,0,1,4.48,12.925s-10.168-6.169-14.3-14.805-11.6-22.039-20.921-27.766-14.114-1.1-6.455,13.81,12.212,35.755,26.915,51.851,39.57,50.711,48.18,64.277,49.095.836,58.259-.721S-2244.629,512.645-2238.753,487.334Z" transform="translate(2396.198 -328.63)" fill="#f9cfcc"/>
          <path id="Path_5367" data-name="Path 5367" d="M-2268.072,361.03a31.825,31.825,0,0,1,5.977,4.548,62.425,62.425,0,0,1,5.135,5.509c1.61,1.927,3.13,3.928,4.578,5.978s2.823,4.15,4.118,6.309c2.527,4.337,5,8.66,7.435,13.028s4.811,8.76,7.115,13.2q-4.065-6.307-7.923-12.739c-2.574-4.28-5.121-8.6-7.6-12.915a124.393,124.393,0,0,0-8.387-12.325c-1.534-1.957-3.123-3.874-4.839-5.675A35.5,35.5,0,0,0-2268.072,361.03Z" transform="translate(2341.612 -342.434)" fill="#0d0d0c"/>
          <path id="Path_5368" data-name="Path 5368" d="M-2215.7,358.989l1.207,1.129c.412.371.758.8,1.138,1.2s.753.808,1.11,1.228l1.067,1.263q2.106,2.55,4.048,5.227c2.611,3.549,5.079,7.2,7.473,10.892,2.374,3.707,4.687,7.453,6.882,11.268a122.782,122.782,0,0,1,6.105,11.709c-1.083-1.916-2.218-3.795-3.384-5.658l-3.488-5.589c-2.348-3.712-4.7-7.422-7.08-11.108q-3.553-5.545-7.238-11c-.613-.91-1.229-1.818-1.86-2.714s-1.245-1.808-1.9-2.685l-.961-1.336c-.322-.445-.67-.867-1-1.3C-2214.245,360.633-2214.983,359.827-2215.7,358.989Z" transform="translate(2319.3 -341.564)" fill="#0d0d0c"/>
          <path id="Path_5369" data-name="Path 5369" d="M-2297.68,633.628c10.427,18.119,8.446,102.321-5.3,152.642s-51.16,150.239-22.405,214.629,95.56,71.619,104.41,64.879,55.286-67.761,40.239-146.383c-22.329-116.677-34.973-253.511-34.794-269.967S-2297.68,633.628-2297.68,633.628Z" transform="translate(2370.541 -458.57)" fill="#f9cfcc"/>
        </g>
        <path id="Path_5587" data-name="Path 5587" d="M296.078,717.641s-8.727,194.772,38.757,200.928,402.734,2.639,442.3-18.466,41.329-95.848,41.329-95.848l61.553,123.986L290.868,964.294Z" transform="translate(23.839 58.816)" fill="#d6dce6"/>
        <g id="Group_2850" data-name="Group 2850" transform="translate(606.647 321.412)">
          <g id="Group_2752" data-name="Group 2752" transform="translate(-305.641 -240.063)">
            <path id="Path_5460" data-name="Path 5460" d="M536.558,585.359a49.869,49.869,0,0,1-7.852,6.465,53.409,53.409,0,0,1-13.623,6.183h-.011c-.614.189-1.244.378-1.9.556q-2.013.611-3.837,1.256c-34.983,10-84.857-12.234-135.071-41.88-.677-1.795-39.665,17.073-40.5,15.341,0,0-49.443-17.213-86.106-66.564s-30.142-169.672,54.76-202.974,180.553,4.331,206.915,70.844c5.305,13.388,5.85,35.528,6.493,44s-2.8,12.648,2.552,21.389,23.127,20.482,26.574,24.716-6.017,16.628-6.017,16.628,3.085,22.387,7.233,48.273S544.577,577.535,536.558,585.359Z" transform="translate(-168.591 -245.182)" fill="#f9cfcc"/>
            <path id="Path_5461" data-name="Path 5461" d="M615.712,829.8c-27.721,0-58.883-16.4-59.2-16.566a.568.568,0,0,1,.534-1c.327.174,33.062,17.4,61.047,16.391a.559.559,0,0,1,.588.548.568.568,0,0,1-.548.588C617.328,829.79,616.52,829.8,615.712,829.8Z" transform="translate(-310.961 -470.04)" fill="#db8882"/>
            <path id="Path_5462" data-name="Path 5462" d="M398.4,544.719c.19,27.616-26.016,68.051-30.711,101.634s.322,46.709.322,46.709a76.514,76.514,0,0,1-53.077,5.668s-50.814-21.7-77.2-50.377-57.546-79.3-57.546-79.3Z" transform="translate(-148.601 -354.559)" fill="#c95380"/>
            <g id="Group_2752-2" data-name="Group 2752" transform="translate(0)">
              <path id="Path_5463" data-name="Path 5463" d="M509.3,702.421c-3.831,17.747.161,38.222,13.681,44.122s-4.26,11.1-16.749,4.47-16.711-24.322-16.711-24.322-1.431,12.443,3.054,24.042,5.682,19.784-4.128,15.7-16.177-25.717-16.177-25.717L484.4,710.776l18.092-24.51Z" transform="translate(-274.716 -415.677)"/>
              <path id="Path_5464" data-name="Path 5464" d="M559.5,532.92c-8.512,25.574-16.219,52.494-16.309,72.2s26.626,29.33,32.131,26.312,6.245,1.643-1.318,5.012-16.949,4.25-28.885-.453S516.459,603.2,516.459,603.2l20-67.06,5.7-39.136,15.629,2.548Z" transform="translate(-293.799 -333.956)"/>
              <path id="Path_5465" data-name="Path 5465" d="M625.379,557.009c14.982,10.17,39.534,13.524,47.271,6.181s-1.627.242-16.1-6.691a43.778,43.778,0,0,1-24.677-39.534c.107-17.387,2.707-40.569-1.885-56.76s-7.448-26.518-16.978-35.277-10.738-4.164-10.738-4.164l-4.207,22.784Z" transform="translate(-329.034 -300.517)"/>
              <path id="Path_5466" data-name="Path 5466" d="M750.16,591.769c-21.632-8.713-23.182-48.6-23.182-48.6l-3-6.821-13.438,14.514s3.367,26.673,3.787,27.621,4.487,21.777,4.874,22.214,28.077,13.581,28.357,13.152,5.184-7.393,5.184-7.393Z" transform="translate(-377.599 -350.944)"/>
              <path id="Path_5467" data-name="Path 5467" d="M429.273,532.795c-15.722,40.012-22.343,77.567-29.628,106.463s17.055,55.7,9.186,56.755-24.356-12.658-24.356-12.658,8.787,20.918,2.593,20.7-14.537-10.942-14.537-10.942,2.059,9.968-10.835,2.557-14.352-9.182-14.352-9.182S364.1,698,358.233,701.635s-37.741-9.306-60.044-28.074a15.775,15.775,0,0,1-.12,11.069c-2.323,5.864-3.489.533-3.682-2.977s-6.519-9.6-28.865-23.957-10.721-12.633-28.708-38.938S429.273,532.795,429.273,532.795Z" transform="translate(-172.58 -349.41)" fill="#ed759d"/>
              <path id="Path_5468" data-name="Path 5468" d="M265.354,232.342c20.5-33.678,58.857-18.711,101.2-20.391s93.534,27.964,114.08,59.255,17.972,67.788,11.135,87.2-5.479.9-5.886-11.257-2.959-21.976-15.32-33.493c0,0,15.335,16.714,11.165,57.653-4.992,49-13.827,69.518,6.2,86.11,13.209,10.941,29.243,10.168,40.643,2.344s12.573-25.418,16.45-25.133,1.833,22.218-8.749,36.6-41.889,25.927-74.679-.07c-24.678-19.566-19.783-57.529-21.971-86.7s-26.291-49.129-26.291-49.129,23.81,26.538,13.369,82.912c-5.572,30.09,5.15,56.425,25.346,62.393,9.748,2.881,3.935,9.191-9.8,3.719-17.986-7.166-47.022-32.678-48.512-62.439-1.606-32.093-4.045-32.895-4.045-32.895s-1.539,26.734-24.44,52.948c-25.255,28.908-33.886,42.8-34.677,53.565s-16.189,2.276-15.564-18.031c0,0-7.512,25.646-6.924,35.324s-8.565,4.26-11.91-8.985c0,0-.989,7.063-4.7,7.766s-15.6-8.4-15.6-8.4,8.894,14.51.249,14.308-18.09-1.328-39.17-15-31.76-27.446-31.76-27.446,6.576,29.317,5.209,36.145-4.307-.316-8.97-7.587-35.857-28.984-50.935-59.536-7.241-103.832,15.1-151.838S224.627,231.192,265.354,232.342Z" transform="translate(-132.431 -210.055)" fill="#ed759d"/>
              <path id="Path_5469" data-name="Path 5469" d="M180.166,453.57c-2.739,61.349,3.809,86.99,29.021,112.672,24.721,25.183,16.369,40.252,14.652,41.587s-5.563-15.054-16.1-23.343c-24.7-19.427-36.864-17.467-62.325-54.631-36.784-53.693-20.944-145.383,17.379-200.3S180.166,453.57,180.166,453.57Z" transform="translate(-124.598 -257.129)" fill="#ed759d"/>
              <path id="Path_5470" data-name="Path 5470" d="M228.079,478.423c-2.739,61.349,8.366,84.645,39.063,102.051s26.111,37.443,24.395,38.778-2.365-7.085-14.016-13.722-62.574-36.134-88.406-73.041S192.167,395.9,230.49,340.975,228.079,478.423,228.079,478.423Z" transform="translate(-148.202 -262.326)" fill="#ed759d"/>
              <path id="Path_5471" data-name="Path 5471" d="M551.174,523.333c-8.9,53.38-25.532,90.31-7.131,110.332s8.487,16.968-1.208,13.078-26.774-17.068-28.866-37.957,3.2-27.3,3.2-27.3l24.542-70.345,6.425,1.69Z" transform="translate(-292.513 -340.062)" fill="#ed759d"/>
              <path id="Path_5472" data-name="Path 5472" d="M466.343,282.377q1.9,3.376,3.528,6.908c1.073,2.356,2.022,4.769,2.9,7.205s1.654,4.914,2.355,7.411,1.318,5.019,1.85,7.559.983,5.1,1.36,7.665.7,5.143.951,7.727.438,5.172.567,7.764.215,5.186.243,7.78a268.471,268.471,0,0,1-1.611,31.055c-1.118,10.3-2.639,20.555-4.406,30.75-3.44,20.411-8.253,40.541-9.665,61.114a235.449,235.449,0,0,0-.38,30.884q.407,7.72,1.472,15.393c.355,2.555.788,5.1,1.278,7.632s1.043,5.058,1.772,7.537a104.536,104.536,0,0,1-3.607-15.082q-1.31-7.653-1.949-15.408a217.325,217.325,0,0,1-.275-31.07c.318-5.174.762-10.343,1.4-15.489s1.428-10.278,2.308-15.374c1.733-10.2,3.71-20.34,5.424-30.518,1.734-10.172,3.331-20.363,4.464-30.6A284.869,284.869,0,0,0,478.29,342.4c.033-5.145-.13-10.291-.522-15.419q-.274-3.848-.753-7.678t-1.16-7.627a113.655,113.655,0,0,0-3.667-14.989A99.368,99.368,0,0,0,466.343,282.377Z" transform="translate(-270.416 -241.283)" fill="#fff"/>
              <path id="Path_5473" data-name="Path 5473" d="M375.164,256.356a20.938,20.938,0,0,1,3.791,9.141,41.414,41.414,0,0,1,.368,9.98,82.7,82.7,0,0,1-1.378,9.9c-.631,3.271-1.428,6.5-2.3,9.713-1.751,6.417-3.789,12.743-5.894,19.039s-4.278,12.562-6.455,18.822c-4.345,12.519-8.557,25.078-11.975,37.842-1.7,6.382-3.169,12.821-4.345,19.307-.581,3.246-1.089,6.5-1.466,9.773l-.3,2.455-.245,2.46c-.18,1.639-.293,3.283-.422,4.926a172.748,172.748,0,0,0,1.515,39.423,160.327,160.327,0,0,0,4.313,19.28A152.539,152.539,0,0,0,357.11,487a160.869,160.869,0,0,0,9.075,17.588,191.017,191.017,0,0,0,11.076,16.437c3.968,5.293,8.224,10.373,12.616,15.334l6.627,7.416c1.1,1.242,2.188,2.493,3.242,3.776a32.3,32.3,0,0,1,2.913,4.03,32.205,32.205,0,0,0-3.022-3.938c-1.088-1.249-2.211-2.467-3.344-3.676l-6.8-7.262c-4.5-4.872-8.879-9.875-12.98-15.107a165.834,165.834,0,0,1-20.807-33.973A152.407,152.407,0,0,1,344.1,449.453a164.5,164.5,0,0,1-2.042-19.9,173.282,173.282,0,0,1,.294-20c.126-1.663.237-3.326.415-4.984l.243-2.489.3-2.483c.374-3.312.877-6.617,1.455-9.9,1.15-6.571,2.685-13.061,4.412-19.488,3.452-12.86,7.807-25.429,12.285-37.915s9.253-24.86,12.995-37.547a112.871,112.871,0,0,0,4.178-19.332,40.894,40.894,0,0,0-.061-9.858A21.011,21.011,0,0,0,375.164,256.356Z" transform="translate(-218.423 -230.047)" fill="#fff"/>
              <path id="Path_5474" data-name="Path 5474" d="M248.8,278.534c-1.739,1.761-3.517,3.483-5.22,5.277L241,286.47l-2.543,2.7c-3.362,3.624-6.664,7.3-9.787,11.127a178.048,178.048,0,0,0-17.047,24.112,131.815,131.815,0,0,0-11.867,26.9,137.832,137.832,0,0,0-3.592,14.267c-.911,4.824-1.56,9.7-2,14.588A189.281,189.281,0,0,0,194,409.65c.3,4.92.919,9.808,1.44,14.708.056.614.147,1.223.248,1.83l.288,1.824.573,3.649c.2,1.215.35,2.44.587,3.647l.74,3.618a147.823,147.823,0,0,0,8.483,28.246c.484,1.131.952,2.272,1.45,3.4l1.621,3.321c.277.549.525,1.116.827,1.653l.9,1.615c.61,1.069,1.167,2.174,1.848,3.2l.984,1.565c.33.521.647,1.051,1.013,1.547l1.066,1.511c.35.509.711,1.009,1.1,1.488l1.136,1.463c.384.483.8.939,1.2,1.411A29.226,29.226,0,0,0,222.09,492a29.268,29.268,0,0,1-2.713-2.537c-.422-.454-.861-.893-1.269-1.36l-1.208-1.415c-.412-.465-.789-.958-1.159-1.456l-1.125-1.484c-.386-.488-.723-1.009-1.073-1.521l-1.046-1.542c-.723-1.013-1.32-2.1-1.973-3.16l-.962-1.6c-.322-.531-.592-1.092-.89-1.636L206.923,471c-.542-1.118-1.053-2.251-1.581-3.377a141.276,141.276,0,0,1-9.2-28.324l-.813-3.641c-.261-1.215-.436-2.447-.659-3.67l-.623-3.676-.31-1.839c-.11-.612-.207-1.226-.271-1.844-.58-4.936-1.261-9.863-1.614-14.823a188.141,188.141,0,0,1,.045-29.836c.461-4.963,1.137-9.91,2.081-14.81a132.5,132.5,0,0,1,3.724-14.491c.4-1.182.759-2.378,1.193-3.547l1.295-3.512,1.415-3.463c.465-1.157,1.01-2.28,1.511-3.422A134.245,134.245,0,0,1,210.1,323.51a167.962,167.962,0,0,1,17.726-23.933c3.27-3.733,6.707-7.309,10.2-10.823S245.141,281.861,248.8,278.534Z" transform="translate(-153.393 -239.624)" fill="#fff"/>
              <path id="Path_5475" data-name="Path 5475" d="M264.3,437.607l-1.464-4.287c-.42-1.45-.792-2.916-1.19-4.377-.366-1.468-.641-2.957-.966-4.437-.173-.739-.278-1.489-.4-2.236l-.358-2.246A113.439,113.439,0,0,1,258.9,401.87a145.632,145.632,0,0,1,1.541-18.13c.9-6,2.132-11.947,3.6-17.828q2.265-8.809,5.271-17.4c2.036-5.707,4.27-11.344,6.818-16.84a164.145,164.145,0,0,1,8.431-16.081,89.46,89.46,0,0,1,10.673-14.637l-1.382,1.79c-.46.6-.874,1.227-1.313,1.838s-.865,1.23-1.275,1.861-.84,1.247-1.232,1.889c-.784,1.284-1.588,2.553-2.319,3.867-.371.654-.754,1.3-1.115,1.959l-1.068,1.985c-2.858,5.286-5.42,10.726-7.778,16.248-2.333,5.532-4.508,11.132-6.405,16.826-1.927,5.682-3.646,11.435-5.1,17.252a178.672,178.672,0,0,0-5.578,35.461,126.879,126.879,0,0,0,.348,17.961l.23,2.239c.078.747.14,1.5.269,2.235.24,1.481.43,2.974.71,4.45.312,1.469.6,2.946.934,4.414Z" transform="translate(-182.577 -249.306)" fill="#fff"/>
            </g>
          </g>
        </g>
      </g>
    </g>
    <g id="Group_2846" data-name="Group 2846" transform="translate(-646.033 34.837)">
      <g id="Group_2827" data-name="Group 2827" transform="translate(839.609 350.696)">
        <g id="Group_2807" data-name="Group 2807" transform="translate(47.843 0)">
          <path id="Path_6173" data-name="Path 6173" d="M981.022,388.532a6.743,6.743,0,0,1-2.567-.463,3.917,3.917,0,0,1-1.809-1.458,4.548,4.548,0,0,1-.673-2.595,4.258,4.258,0,0,1,1.431-3.38,6.52,6.52,0,0,1,4.375-1.248h4.965v-1.178a4.535,4.535,0,0,0-.378-2.034,2.193,2.193,0,0,0-1.3-1.066,8.146,8.146,0,0,0-2.58-.323,18.108,18.108,0,0,0-2.483.169,12.733,12.733,0,0,0-2.371.561v-1.907a14.28,14.28,0,0,1,2.455-.575,18.836,18.836,0,0,1,2.819-.21,12.723,12.723,0,0,1,1.375.07,9.012,9.012,0,0,1,1.206.21h4.825l-.113,1.879h-2.019a4.017,4.017,0,0,1,.673,1.487,8.475,8.475,0,0,1,.2,1.908v9.873h-2.3V381.3h-4.824a4.934,4.934,0,0,0-2.8.631,2.374,2.374,0,0,0-.9,2.09,2.248,2.248,0,0,0,.814,1.992,4.692,4.692,0,0,0,2.609.561,7.213,7.213,0,0,0,1.907-.224v1.907q-.478.112-1.122.2A10.951,10.951,0,0,1,981.022,388.532Z" transform="translate(-912.592 -366.007)"/>
          <path id="Path_6174" data-name="Path 6174" d="M996.548,412.957v-3.675H994.7l.113-1.571h3.73v5.245Z" transform="translate(-922.088 -383.701)"/>
          <path id="Path_6175" data-name="Path 6175" d="M1014.187,388.532a6,6,0,0,1-3.113-.814,5.474,5.474,0,0,1-2.16-2.511,10.506,10.506,0,0,1-.786-4.39,8.651,8.651,0,0,1,1.851-5.848q1.852-2.146,5.722-2.146a8.163,8.163,0,0,1,4,.855,5.342,5.342,0,0,1,2.23,2.23,6.4,6.4,0,0,1,.7,2.945v9.4h-2.3v-9.369a4.771,4.771,0,0,0-.448-2.1,3.227,3.227,0,0,0-1.473-1.458,6.03,6.03,0,0,0-2.762-.533,4.745,4.745,0,0,0-4.011,1.571,7.188,7.188,0,0,0-1.206,4.46q0,3.2,1.052,4.474a3.783,3.783,0,0,0,3.1,1.276,9.632,9.632,0,0,0,1.052-.056,4.761,4.761,0,0,0,.884-.168v1.907A8.177,8.177,0,0,1,1014.187,388.532Z" transform="translate(-928.9 -366.007)"/>
          <path id="Path_6176" data-name="Path 6176" d="M1044.041,388.251V373.1h2.076l.14,1.823a8.812,8.812,0,0,1,2.4-1.528,7.92,7.92,0,0,1,3.156-.575,4.873,4.873,0,0,1,3.731,1.4,5.639,5.639,0,0,1,1.318,4.011v10.014h-2.3v-9.986a3.516,3.516,0,0,0-.869-2.665,3.837,3.837,0,0,0-2.693-.814,5.619,5.619,0,0,0-2.622.6,7.8,7.8,0,0,0-2.034,1.5v11.36Z" transform="translate(-947.113 -366.007)"/>
          <path id="Path_6177" data-name="Path 6177" d="M1055.705,363.8v-2.637h-2.216v-1.655h3.871v2.637h6.144l-.113,1.655Z" transform="translate(-951.904 -359.253)"/>
          <path id="Path_6178" data-name="Path 6178" d="M1081.183,388.251v-9.79a7.172,7.172,0,0,0-.252-2.075,1.961,1.961,0,0,0-1.025-1.207,5.381,5.381,0,0,0-2.342-.393,10.688,10.688,0,0,0-1.949.2,10.854,10.854,0,0,0-1.922.533v-1.907a11.2,11.2,0,0,1,1.992-.561,12.006,12.006,0,0,1,2.3-.224,5.832,5.832,0,0,1,4.194,1.276,5.557,5.557,0,0,1,1.3,4.109v10.042Z" transform="translate(-962.151 -366.007)"/>
          <path id="Path_6179" data-name="Path 6179" d="M1105.583,388.532a9.257,9.257,0,0,1-4.867-1.108,3.8,3.8,0,0,1-1.809-3.492,3.951,3.951,0,0,1,.6-2.23,3.622,3.622,0,0,1,1.7-1.361,3.224,3.224,0,0,1-1.585-1.122,3.432,3.432,0,0,1-.631-2.16,3.909,3.909,0,0,1,1.262-3.184,4.868,4.868,0,0,1,3.226-1.052,9.08,9.08,0,0,1,1.319.084,6.775,6.775,0,0,1,1.01.225v1.907a3.545,3.545,0,0,0-.869-.2,9.522,9.522,0,0,0-1.038-.056,3.015,3.015,0,0,0-1.922.547,2.462,2.462,0,0,0,.127,3.535,3.616,3.616,0,0,0,2.132.575h1.6l.14,1.739h-1.823a3.051,3.051,0,0,0-2.216.715,2.717,2.717,0,0,0-.73,2.034q0,2.637,4.292,2.636a5.286,5.286,0,0,0,3.24-.827,3.129,3.129,0,0,0,1.08-2.651V373.1h2.3V382.7a5.715,5.715,0,0,1-1.571,4.334Q1108.975,388.532,1105.583,388.532Z" transform="translate(-974.937 -366.007)"/>
          <path id="Path_6180" data-name="Path 6180" d="M1137.514,388.532a6.619,6.619,0,0,1-4.558-1.417,5.152,5.152,0,0,1-1.584-4.053v-2.047a3.427,3.427,0,0,1,.392-1.6,8.91,8.91,0,0,1,.926-1.431q.533-.673.926-1.262a2.005,2.005,0,0,0,.392-1.094c0-.318-.069-.519-.21-.6a1.475,1.475,0,0,0-.716-.126h-2.019l.2-1.795h3.114a1.7,1.7,0,0,1,1.936,1.907,3.673,3.673,0,0,1-.393,1.711,10.107,10.107,0,0,1-.926,1.458,12.16,12.16,0,0,0-.926,1.4,3.045,3.045,0,0,0-.393,1.515v2.216a2.882,2.882,0,0,0,1.038,2.5,4.663,4.663,0,0,0,2.8.757,4.784,4.784,0,0,0,2.847-.757,2.932,2.932,0,0,0,1.052-2.553v-1.935a3.346,3.346,0,0,0-.505-2.146,2.393,2.393,0,0,0-1.851-.575h-.786l.113-1.824H1139a2.257,2.257,0,0,0,1.921-.673,3.481,3.481,0,0,0,.491-2.048v-1.234h2.3v1.206a5.806,5.806,0,0,1-.392,2.286,2.633,2.633,0,0,1-1.684,1.361,2.66,2.66,0,0,1,1.725,1.431,6.447,6.447,0,0,1,.351,2.272v1.655a5.106,5.106,0,0,1-1.641,4.067A6.707,6.707,0,0,1,1137.514,388.532Z" transform="translate(-991.245 -366.007)"/>
          <path id="Path_6181" data-name="Path 6181" d="M1152.064,363.538v-4.545h2.3v4.545Z" transform="translate(-1001.896 -358.993)"/>
          <path id="Path_6182" data-name="Path 6182" d="M1166.317,388.532a10.639,10.639,0,0,1-4.235-.786v-1.935a10.454,10.454,0,0,0,1.781.547,9,9,0,0,0,1.921.211,7.051,7.051,0,0,0,3.226-.6,3.369,3.369,0,0,0,1.627-1.894,9.987,9.987,0,0,0,.478-3.394q0-3.141-1.234-4.517t-4.179-1.375a8.786,8.786,0,0,0-1.88.2,8.3,8.3,0,0,0-1.739.589v-1.964a8.648,8.648,0,0,1,1.837-.589,11.491,11.491,0,0,1,2.258-.2q3.674,0,5.456,1.992a8.538,8.538,0,0,1,1.781,5.862,9.134,9.134,0,0,1-1.627,5.806Q1170.159,388.532,1166.317,388.532Z" transform="translate(-1006.976 -366.007)"/>
          <path id="Path_6183" data-name="Path 6183" d="M1195.962,388.532a9.258,9.258,0,0,1-4.867-1.108,3.8,3.8,0,0,1-1.808-3.492,3.946,3.946,0,0,1,.6-2.23,3.628,3.628,0,0,1,1.7-1.361,3.221,3.221,0,0,1-1.585-1.122,3.429,3.429,0,0,1-.631-2.16,3.907,3.907,0,0,1,1.263-3.184,4.868,4.868,0,0,1,3.226-1.052,9.071,9.071,0,0,1,1.318.084,6.763,6.763,0,0,1,1.01.225v1.907a3.533,3.533,0,0,0-.869-.2,9.532,9.532,0,0,0-1.038-.056,3.013,3.013,0,0,0-1.922.547,2.462,2.462,0,0,0,.126,3.535,3.612,3.612,0,0,0,2.131.575h1.6l.141,1.739h-1.823a3.051,3.051,0,0,0-2.216.715,2.718,2.718,0,0,0-.73,2.034q0,2.637,4.292,2.636a5.283,5.283,0,0,0,3.239-.827,3.128,3.128,0,0,0,1.08-2.651V373.1h2.3V382.7a5.716,5.716,0,0,1-1.571,4.334Q1199.355,388.532,1195.962,388.532Z" transform="translate(-1020.773 -366.007)"/>
          <path id="Path_6184" data-name="Path 6184" d="M1222.339,388.251v-6.143a3.861,3.861,0,0,1,.533-2.034,2.907,2.907,0,0,1,1.739-1.248l-3.169-.729V375.4a10.559,10.559,0,0,1,2.847-1.781,10.161,10.161,0,0,1,4.194-.8,7.637,7.637,0,0,1,4.978,1.388,5.392,5.392,0,0,1,1.669,4.39v9.649h-2.3v-9.734a3.63,3.63,0,0,0-.981-2.917,5.352,5.352,0,0,0-3.366-.814,9.578,9.578,0,0,0-2.931.435,5.1,5.1,0,0,0-2.09,1.164v.589l3.281.786V379.5a3.05,3.05,0,0,0-1.584.884,2.661,2.661,0,0,0-.518,1.781v6.087Z" transform="translate(-1037.081 -366.007)"/>
          <path id="Path_6185" data-name="Path 6185" d="M1260.624,388.532a6,6,0,0,1-3.114-.814,5.481,5.481,0,0,1-2.16-2.511,10.509,10.509,0,0,1-.786-4.39,8.65,8.65,0,0,1,1.852-5.848q1.852-2.146,5.722-2.146a8.16,8.16,0,0,1,4,.855,5.343,5.343,0,0,1,2.229,2.23,6.388,6.388,0,0,1,.7,2.945v9.4h-2.3v-9.369a4.761,4.761,0,0,0-.448-2.1,3.223,3.223,0,0,0-1.472-1.458,6.031,6.031,0,0,0-2.763-.533,4.745,4.745,0,0,0-4.011,1.571,7.19,7.19,0,0,0-1.206,4.46q0,3.2,1.052,4.474a3.783,3.783,0,0,0,3.1,1.276,9.615,9.615,0,0,0,1.051-.056,4.757,4.757,0,0,0,.884-.168v1.907A8.177,8.177,0,0,1,1260.624,388.532Z" transform="translate(-1053.879 -366.007)"/>
          <path id="Path_6186" data-name="Path 6186" d="M1293.06,388.54a2.449,2.449,0,0,1-1.893-.743,2.753,2.753,0,0,1-.687-1.95V373.393h2.3v11.893q0,1.375,1.318,1.375h1.318v1.879Zm6.424,0a2.449,2.449,0,0,1-1.894-.743,2.757,2.757,0,0,1-.687-1.95V373.393h2.3v11.893q0,1.375,1.319,1.375h1.317v1.879Z" transform="translate(-1072.093 -366.296)"/>
          <path id="Path_6187" data-name="Path 6187" d="M1324.192,388.532a6.62,6.62,0,0,1-4.559-1.417,5.153,5.153,0,0,1-1.585-4.053v-2.047a3.422,3.422,0,0,1,.393-1.6,8.808,8.808,0,0,1,.925-1.431q.533-.673.926-1.262a2.008,2.008,0,0,0,.393-1.094c0-.318-.07-.519-.209-.6a1.477,1.477,0,0,0-.716-.126h-2.019l.2-1.795h3.114a1.7,1.7,0,0,1,1.936,1.907,3.673,3.673,0,0,1-.393,1.711,10.088,10.088,0,0,1-.927,1.458,12.1,12.1,0,0,0-.926,1.4,3.046,3.046,0,0,0-.393,1.515v2.216a2.882,2.882,0,0,0,1.038,2.5,4.664,4.664,0,0,0,2.805.757,4.781,4.781,0,0,0,2.846-.757,2.932,2.932,0,0,0,1.052-2.553v-1.935a3.351,3.351,0,0,0-.5-2.146,2.394,2.394,0,0,0-1.851-.575h-.786l.112-1.824h.617a2.257,2.257,0,0,0,1.921-.673,3.478,3.478,0,0,0,.491-2.048v-1.234h2.3v1.206a5.8,5.8,0,0,1-.392,2.286,2.632,2.632,0,0,1-1.684,1.361,2.657,2.657,0,0,1,1.725,1.431,6.441,6.441,0,0,1,.351,2.272v1.655a5.105,5.105,0,0,1-1.641,4.067A6.708,6.708,0,0,1,1324.192,388.532Z" transform="translate(-1085.918 -366.007)"/>
          <path id="Path_6188" data-name="Path 6188" d="M1354.117,388.532a20.135,20.135,0,0,1-2.735-.183,9.354,9.354,0,0,1-2.229-.547v-2.048a10.937,10.937,0,0,0,2.272.617,14.3,14.3,0,0,0,2.3.2,8.778,8.778,0,0,0,3.072-.407,1.7,1.7,0,0,0,1.024-1.781,1.939,1.939,0,0,0-.519-1.473,3.986,3.986,0,0,0-1.473-.813q-.954-.322-2.3-.771a21.925,21.925,0,0,1-2.328-.94,5.064,5.064,0,0,1-1.767-1.333,3.233,3.233,0,0,1-.673-2.132,3.51,3.51,0,0,1,1.472-3.043,7.546,7.546,0,0,1,4.39-1.052,15.2,15.2,0,0,1,2.44.2,12.5,12.5,0,0,1,2.019.477v2.019a10.061,10.061,0,0,0-2-.547,12.686,12.686,0,0,0-2.118-.183,8.012,8.012,0,0,0-2.9.407,1.617,1.617,0,0,0-1,1.669,1.708,1.708,0,0,0,.519,1.3,4.252,4.252,0,0,0,1.486.841q.968.351,2.342.8a16.752,16.752,0,0,1,2.44,1,4.64,4.64,0,0,1,1.669,1.375,3.609,3.609,0,0,1,.6,2.174,3.419,3.419,0,0,1-1.656,3.226A8.656,8.656,0,0,1,1354.117,388.532Z" transform="translate(-1101.649 -366.007)"/>
          <path id="Path_6189" data-name="Path 6189" d="M1358.263,364.346v-3.759h7.882l-.084,1.655H1360.2v2.1Z" transform="translate(-1106.469 -359.801)"/>
          <path id="Path_6190" data-name="Path 6190" d="M849.956,456.837a2.449,2.449,0,0,1-1.893-.743,2.756,2.756,0,0,1-.687-1.95V441.69h2.3v11.893q0,1.374,1.318,1.375h1.6v1.879Z" transform="translate(-847.375 -392.765)"/>
          <path id="Path_6191" data-name="Path 6191" d="M865.082,456.837,861.6,441.69h2.356l2.5,11.921,3.2-10.014V441.69h1.71l3.422,11.921,2.469-11.921h2.328l-3.45,15.147h-2.3l-3.114-10.659-3.366,10.659Z" transform="translate(-854.591 -392.765)"/>
          <path id="Path_6192" data-name="Path 6192" d="M871.962,432.355l.112-1.655h5.75v-2.384h1.74V430.7h1.8v-2.384H883.1v4.039Z" transform="translate(-859.844 -385.982)"/>
          <path id="Path_6193" data-name="Path 6193" d="M890.573,421.514v-3.9h1.935v3.9Z" transform="translate(-869.283 -380.555)"/>
          <path id="Path_6194" data-name="Path 6194" d="M907.534,456.828a15.626,15.626,0,0,1-3.254-.322,15.407,15.407,0,0,1-2.552-.744v-7.629h5.554l.112,1.879h-3.366V454.3a10.174,10.174,0,0,0,1.641.407,10.8,10.8,0,0,0,1.809.154,6.332,6.332,0,0,0,2.9-.561,3.313,3.313,0,0,0,1.571-1.851,9.947,9.947,0,0,0,.491-3.451,9.718,9.718,0,0,0-.52-3.534,3.266,3.266,0,0,0-1.739-1.837,8.282,8.282,0,0,0-3.324-.547,18.977,18.977,0,0,0-2.483.168,12.649,12.649,0,0,0-2.426.561v-1.907a13.167,13.167,0,0,1,2.567-.589,21.761,21.761,0,0,1,2.931-.2q3.871,0,5.582,1.978t1.711,5.9a8.728,8.728,0,0,1-1.711,5.834Q911.321,456.829,907.534,456.828Z" transform="translate(-874.94 -392.476)"/>
          <path id="Path_6195" data-name="Path 6195" d="M933.681,449.419a2.448,2.448,0,0,1-1.892-.743,2.755,2.755,0,0,1-.688-1.95v-9.733a5.063,5.063,0,0,1,.364-2.019,5.641,5.641,0,0,1,.884-1.445,13.222,13.222,0,0,1,1.052-1.094,7.592,7.592,0,0,0,.9-.968,1.669,1.669,0,0,0,.365-1.038,1.207,1.207,0,0,0-.533-1.178,3.316,3.316,0,0,0-1.515-.28,6.394,6.394,0,0,0-3.113.869v-1.8a6.869,6.869,0,0,1,1.837-.729,8.257,8.257,0,0,1,1.977-.252,3.958,3.958,0,0,1,2.791.856,3.056,3.056,0,0,1,.912,2.342,2.874,2.874,0,0,1-.365,1.487,5.143,5.143,0,0,1-.9,1.122q-.533.5-1.08,1.066a5.1,5.1,0,0,0-.912,1.29,3.985,3.985,0,0,0-.365,1.795v9.144q0,1.374,1.318,1.375h1.6v1.879Z" transform="translate(-889.025 -385.347)"/>
          <path id="Path_6196" data-name="Path 6196" d="M948.4,456.837V441.69h2.3V446.6h5.021a2.7,2.7,0,0,0,3.254-3.058V441.69h2.3v1.823a5.516,5.516,0,0,1-.533,2.5,2.958,2.958,0,0,1-1.879,1.487,2.7,2.7,0,0,1,1.823,1.458,6.078,6.078,0,0,1,.421,2.356v5.526h-2.3v-5.246a3.377,3.377,0,0,0-.688-2.454,3.7,3.7,0,0,0-2.538-.659H950.7v8.359Z" transform="translate(-898.608 -392.765)"/>
          <path id="Path_6197" data-name="Path 6197" d="M959.833,432.095v-2.637h-2.216V427.8h3.872v2.637h6.143l-.112,1.655Z" transform="translate(-903.284 -385.722)"/>
          <path id="Path_6198" data-name="Path 6198" d="M980.667,456.548V446.73a5.359,5.359,0,0,1,1.585-4.151q1.584-1.458,4.978-1.459t4.951,1.459a5.41,5.41,0,0,1,1.557,4.151v9.818h-2.3v-10.07a3.008,3.008,0,0,0-1.08-2.609,5.272,5.272,0,0,0-3.128-.786,5.382,5.382,0,0,0-3.183.786,3.007,3.007,0,0,0-1.08,2.609v3.506a4.773,4.773,0,0,1,3.254-1.15h1.85l.113,1.879h-2.02a4.772,4.772,0,0,0-3.2,1.094v4.741Z" transform="translate(-914.973 -392.476)"/>
          <path id="Path_6199" data-name="Path 6199" d="M1018.727,457.117a4.863,4.863,0,0,1-3.745-1.4,5.718,5.718,0,0,1-1.3-4.039V441.69h2.3v9.958a3.631,3.631,0,0,0,.841,2.693,3.723,3.723,0,0,0,2.665.813,5.932,5.932,0,0,0,2.637-.589,7.344,7.344,0,0,0,2.075-1.486V441.69h2.3v15.147h-2.076l-.14-1.823a8.325,8.325,0,0,1-2.384,1.528A8.029,8.029,0,0,1,1018.727,457.117Z" transform="translate(-931.715 -392.765)"/>
          <path id="Path_6200" data-name="Path 6200" d="M1046.175,456.548V441.4h2.077l.139,1.823a8.812,8.812,0,0,1,2.4-1.529,7.926,7.926,0,0,1,3.155-.575,4.874,4.874,0,0,1,3.731,1.4,5.641,5.641,0,0,1,1.318,4.011v10.014h-2.3v-9.986a3.517,3.517,0,0,0-.87-2.665,3.835,3.835,0,0,0-2.693-.814,5.617,5.617,0,0,0-2.623.6,7.8,7.8,0,0,0-2.034,1.5v11.36Z" transform="translate(-948.195 -392.476)"/>
          <path id="Path_6201" data-name="Path 6201" d="M1049.477,432.355l.112-1.655h9.089v-2.384h1.935v4.039Z" transform="translate(-949.87 -385.982)"/>
          <path id="Path_6202" data-name="Path 6202" d="M1068.087,421.514v-3.9h1.936v3.9Z" transform="translate(-959.308 -380.555)"/>
          <path id="Path_6203" data-name="Path 6203" d="M1078.673,456.548V446.73a5.359,5.359,0,0,1,1.585-4.151q1.584-1.458,4.978-1.459t4.951,1.459a5.41,5.41,0,0,1,1.557,4.151v9.818h-2.3v-10.07a3.008,3.008,0,0,0-1.08-2.609,5.272,5.272,0,0,0-3.128-.786,5.383,5.383,0,0,0-3.183.786,3.007,3.007,0,0,0-1.08,2.609v3.506a4.773,4.773,0,0,1,3.253-1.15h1.851l.113,1.879h-2.02a4.773,4.773,0,0,0-3.2,1.094v4.741Z" transform="translate(-964.676 -392.476)"/>
          <path id="Path_6204" data-name="Path 6204" d="M1099.192,481.255V477.58h-1.851l.112-1.571h3.731v5.246Z" transform="translate(-974.143 -410.169)"/>
          <path id="Path_6205" data-name="Path 6205" d="M1126.506,456.828a4.66,4.66,0,0,1-3.632-1.4,5.8,5.8,0,0,1-1.276-4.039v-4.572a3.758,3.758,0,0,0-.926-2.917,4.98,4.98,0,0,0-3.254-.814,8.865,8.865,0,0,0-2.819.435,5.114,5.114,0,0,0-2.033,1.164v.589l3.282.786V447.8a3.049,3.049,0,0,0-1.585.884,2.664,2.664,0,0,0-.52,1.781v2.833q0,1.374,1.318,1.375h1.6v1.879h-2.636a2.449,2.449,0,0,1-1.894-.743,2.756,2.756,0,0,1-.688-1.95V450.4a3.861,3.861,0,0,1,.533-2.033,2.909,2.909,0,0,1,1.739-1.248l-3.169-.729V443.7a10.8,10.8,0,0,1,2.791-1.782,9.636,9.636,0,0,1,4.081-.8,7.24,7.24,0,0,1,4.853,1.389,5.517,5.517,0,0,1,1.6,4.39v4.46a3.668,3.668,0,0,0,.827,2.693,3.536,3.536,0,0,0,2.567.813,5.267,5.267,0,0,0,2.511-.589,7.878,7.878,0,0,0,1.977-1.486V441.4h2.3v15.147h-2.076l-.14-1.823a8.818,8.818,0,0,1-2.286,1.528A7.249,7.249,0,0,1,1126.506,456.828Z" transform="translate(-980.84 -392.476)"/>
          <path id="Path_6206" data-name="Path 6206" d="M1167.309,456.837a2.449,2.449,0,0,1-1.894-.743,2.753,2.753,0,0,1-.687-1.95V441.69h2.3v11.893q0,1.374,1.318,1.375h1.318v1.879Zm6.423,0a2.45,2.45,0,0,1-1.894-.743,2.757,2.757,0,0,1-.687-1.95V441.69h2.3v11.893q0,1.374,1.319,1.375h1.318v1.879Z" transform="translate(-1008.318 -392.765)"/>
          <path id="Path_6207" data-name="Path 6207" d="M1193.127,456.548V446.73a5.359,5.359,0,0,1,1.585-4.151q1.583-1.458,4.978-1.459t4.951,1.459a5.41,5.41,0,0,1,1.557,4.151v9.818h-2.3v-10.07a3.011,3.011,0,0,0-1.079-2.609,5.276,5.276,0,0,0-3.128-.786,5.384,5.384,0,0,0-3.183.786,3.008,3.008,0,0,0-1.08,2.609v3.506a4.774,4.774,0,0,1,3.254-1.15h1.851l.112,1.879h-2.02a4.774,4.774,0,0,0-3.2,1.094v4.741Z" transform="translate(-1022.721 -392.476)"/>
          <path id="Path_6208" data-name="Path 6208" d="M1230.357,456.828a20.215,20.215,0,0,1-2.735-.182,9.361,9.361,0,0,1-2.23-.547v-2.048a10.946,10.946,0,0,0,2.272.617,14.3,14.3,0,0,0,2.3.2,8.777,8.777,0,0,0,3.072-.407,1.7,1.7,0,0,0,1.024-1.781,1.936,1.936,0,0,0-.519-1.473,3.986,3.986,0,0,0-1.473-.814q-.954-.321-2.3-.771a22.127,22.127,0,0,1-2.329-.94,5.074,5.074,0,0,1-1.767-1.333,3.234,3.234,0,0,1-.673-2.132,3.509,3.509,0,0,1,1.473-3.043,7.546,7.546,0,0,1,4.39-1.052,15.194,15.194,0,0,1,2.44.2,12.473,12.473,0,0,1,2.019.477v2.019a10.048,10.048,0,0,0-2.005-.547,12.743,12.743,0,0,0-2.118-.182,8.026,8.026,0,0,0-2.9.407,1.619,1.619,0,0,0-1,1.669,1.71,1.71,0,0,0,.519,1.3,4.256,4.256,0,0,0,1.486.841q.968.351,2.342.8a16.8,16.8,0,0,1,2.441,1,4.645,4.645,0,0,1,1.668,1.375,3.6,3.6,0,0,1,.6,2.174,3.419,3.419,0,0,1-1.656,3.226A8.661,8.661,0,0,1,1230.357,456.828Z" transform="translate(-1038.885 -392.476)"/>
          <path id="Path_6209" data-name="Path 6209" d="M1234.5,432.643v-3.759h7.883l-.085,1.655h-5.862v2.1Z" transform="translate(-1043.704 -386.27)"/>
          <path id="Path_6210" data-name="Path 6210" d="M1253.4,456.837V441.69h2.3V446.6h5.021a2.7,2.7,0,0,0,3.254-3.058V441.69h2.3v1.823a5.513,5.513,0,0,1-.534,2.5,2.957,2.957,0,0,1-1.879,1.487,2.706,2.706,0,0,1,1.823,1.458,6.085,6.085,0,0,1,.421,2.356v5.526h-2.3v-5.246a3.378,3.378,0,0,0-.688-2.454,3.7,3.7,0,0,0-2.539-.659H1255.7v8.359Z" transform="translate(-1053.288 -392.765)"/>
          <path id="Path_6211" data-name="Path 6211" d="M1274.514,431.835V427.29h2.3v4.545Z" transform="translate(-1063.996 -385.462)"/>
          <path id="Path_6212" data-name="Path 6212" d="M1290.313,456.548v-9.79a7.139,7.139,0,0,0-.253-2.076,1.959,1.959,0,0,0-1.024-1.206,5.372,5.372,0,0,0-2.343-.393,10.694,10.694,0,0,0-1.949.2,10.861,10.861,0,0,0-1.922.533v-1.907a11.173,11.173,0,0,1,1.992-.561,12.008,12.008,0,0,1,2.3-.225,5.833,5.833,0,0,1,4.194,1.276,5.558,5.558,0,0,1,1.3,4.109v10.042Z" transform="translate(-1068.209 -392.476)"/>
          <path id="Path_6213" data-name="Path 6213" d="M1313.346,457.117q-.533,0-1.248-.056a4.328,4.328,0,0,1-1.22-.252l-4.263-10.379h2.244l3.59,8.724a4.335,4.335,0,0,0,3.941-1.374q1.276-1.571,1.276-5.021a10.533,10.533,0,0,0-.365-3.1,2.682,2.682,0,0,0-1.22-1.613,4.969,4.969,0,0,0-2.4-.477h-.981V441.69h1.234q3.225,0,4.628,1.725t1.4,5.315a11.262,11.262,0,0,1-.883,4.824,5.962,5.962,0,0,1-2.37,2.707A6.631,6.631,0,0,1,1313.346,457.117Z" transform="translate(-1080.275 -392.765)"/>
          <path id="Path_6214" data-name="Path 6214" d="M1339.948,449.506a2.45,2.45,0,0,1-1.894-.743,2.754,2.754,0,0,1-.687-1.95V433.882a5.762,5.762,0,0,1,.687-2.945,5.3,5.3,0,0,1,1.753-1.851h-5.021v-1.851h7.854v1.823a4.336,4.336,0,0,0-2.342,2.034,8.261,8.261,0,0,0-.631,3.549v11.612q0,1.374,1.318,1.375h1.6v1.879Z" transform="translate(-1094.562 -385.434)"/>
          <path id="Path_6215" data-name="Path 6215" d="M1354.124,456.548V450.4a3.853,3.853,0,0,1,.533-2.033,2.908,2.908,0,0,1,1.739-1.248l-3.169-.729V443.7a10.57,10.57,0,0,1,2.848-1.782,10.169,10.169,0,0,1,4.193-.8,7.637,7.637,0,0,1,4.979,1.389,5.4,5.4,0,0,1,1.669,4.39v9.649h-2.3v-9.733a3.629,3.629,0,0,0-.982-2.917,5.348,5.348,0,0,0-3.366-.814,9.574,9.574,0,0,0-2.931.435,5.113,5.113,0,0,0-2.09,1.164v.589l3.283.786V447.8a3.049,3.049,0,0,0-1.585.884,2.66,2.66,0,0,0-.519,1.781v6.087Z" transform="translate(-1103.914 -392.476)"/>
          <path id="Path_6216" data-name="Path 6216" d="M1391.4,456.828a6.748,6.748,0,0,1-2.566-.463,3.912,3.912,0,0,1-1.81-1.458,4.549,4.549,0,0,1-.673-2.595,4.256,4.256,0,0,1,1.43-3.38,6.521,6.521,0,0,1,4.376-1.248h4.965v-1.178a4.54,4.54,0,0,0-.378-2.034,2.194,2.194,0,0,0-1.3-1.066,8.156,8.156,0,0,0-2.581-.323,18.137,18.137,0,0,0-2.483.168,12.733,12.733,0,0,0-2.37.561v-1.907a14.2,14.2,0,0,1,2.455-.575,18.822,18.822,0,0,1,2.818-.21,6.833,6.833,0,0,1,4.671,1.333,5.432,5.432,0,0,1,1.473,4.221v9.874h-2.3v-6.957H1392.3a4.934,4.934,0,0,0-2.8.631,2.374,2.374,0,0,0-.9,2.09,2.247,2.247,0,0,0,.814,1.992,4.69,4.69,0,0,0,2.609.561,7.207,7.207,0,0,0,1.907-.224v1.907q-.478.112-1.122.2A10.954,10.954,0,0,1,1391.4,456.828Z" transform="translate(-1120.713 -392.476)"/>
          <path id="Path_6217" data-name="Path 6217" d="M1424.505,456.828a8.576,8.576,0,0,1-1.108-.084,5.154,5.154,0,0,1-1.023-.225l-2.357-6.284h-1.795l.112-1.879h3.17l2.441,6.508a4.853,4.853,0,0,0,2.5-.435,4.173,4.173,0,0,0,1.907-1.922,7.942,7.942,0,0,0,.729-3.7,8.4,8.4,0,0,0-.562-3.366,3.415,3.415,0,0,0-1.823-1.809,8.771,8.771,0,0,0-3.422-.547,17.748,17.748,0,0,0-2.37.168,12.683,12.683,0,0,0-2.4.561v-1.907a14.2,14.2,0,0,1,2.454-.575,19.617,19.617,0,0,1,2.931-.21q3.9,0,5.7,1.992a8.225,8.225,0,0,1,1.794,5.694,9.28,9.28,0,0,1-.953,4.418,6.535,6.535,0,0,1-5.919,3.6Z" transform="translate(-1136.877 -392.476)"/>
          <path id="Path_6218" data-name="Path 6218" d="M1454.908,456.548v-9.79a7.15,7.15,0,0,0-.252-2.076,1.961,1.961,0,0,0-1.024-1.206,5.369,5.369,0,0,0-2.342-.393,10.693,10.693,0,0,0-1.95.2,10.861,10.861,0,0,0-1.921.533v-1.907a11.168,11.168,0,0,1,1.992-.561,12,12,0,0,1,2.3-.225,5.834,5.834,0,0,1,4.194,1.276,5.56,5.56,0,0,1,1.3,4.109v10.042Z" transform="translate(-1151.683 -392.476)"/>
          <path id="Path_6219" data-name="Path 6219" d="M1473.529,456.548V450.4a3.867,3.867,0,0,1,.533-2.033,2.912,2.912,0,0,1,1.74-1.248l-3.169-.729V443.7a10.562,10.562,0,0,1,2.846-1.782,10.172,10.172,0,0,1,4.194-.8,7.635,7.635,0,0,1,4.979,1.389,5.391,5.391,0,0,1,1.668,4.39v9.649h-2.3v-9.733a3.629,3.629,0,0,0-.981-2.917,5.35,5.35,0,0,0-3.366-.814,9.578,9.578,0,0,0-2.931.435,5.1,5.1,0,0,0-2.09,1.164v.589l3.282.786V447.8a3.051,3.051,0,0,0-1.585.884,2.662,2.662,0,0,0-.519,1.781v6.087Z" transform="translate(-1164.47 -392.476)"/>
        </g>
        <g id="Group_2876" data-name="Group 2876" transform="translate(0 85.078)">
          <g id="Group_2825" data-name="Group 2825">
            <g id="Group_2808" data-name="Group 2808" transform="translate(0 7.257)">
              <path id="Path_6220" data-name="Path 6220" d="M842.188,516.089v-9.725H847.7l-.677,9.725Zm8.37,0v-9.725h5.516l-.677,9.725Z" transform="translate(-839.157 -503.333)" fill="#fff"/>
              <path id="Path_6221" data-name="Path 6221" d="M853.428,517.151h-4.839a3.032,3.032,0,0,0-3.532,0h-4.838a3.031,3.031,0,0,1-3.031-3.031V504.4a3.031,3.031,0,0,1,3.031-3.031h5.515a3.036,3.036,0,0,0,2.854,0H854.1a3.031,3.031,0,0,1,3.024,3.241l-.677,9.725A3.031,3.031,0,0,1,853.428,517.151Z" transform="translate(-837.188 -501.364)" fill="#fff"/>
            </g>
            <g id="Group_2809" data-name="Group 2809" transform="translate(16.546 12.289)">
              <path id="Path_6222" data-name="Path 6222" d="M885.208,541.275a13.754,13.754,0,0,1-4.887-.823,14.182,14.182,0,0,1-3.918-2.226l-.29,2.564h-6V531.5a7.4,7.4,0,0,1,.822-3.338,23.656,23.656,0,0,1,1.912-3.169q1.089-1.524,1.911-2.733a3.859,3.859,0,0,0,.822-1.984q0-.918-.774-.919a1.54,1.54,0,0,0-.653.145,1.891,1.891,0,0,0-.556.387v1.984h-4.114v-7.209h4.307v1.354a6.936,6.936,0,0,1,1.646-.967,5.872,5.872,0,0,1,2.273-.387q3.87,0,3.871,3.967a7.563,7.563,0,0,1-.75,3.339,26.847,26.847,0,0,1-1.718,3.024,29.374,29.374,0,0,0-1.717,2.976,6.934,6.934,0,0,0-.75,3.145v2.371a8.276,8.276,0,0,0,2.831,1.935,8.775,8.775,0,0,0,3.556.774,4.88,4.88,0,0,0,3.507-1.137,5.1,5.1,0,0,0,1.186-3.8V514.665h6.532v16.982a9.861,9.861,0,0,1-2.42,7.088A8.716,8.716,0,0,1,885.208,541.275Z" transform="translate(-866.452 -511.634)" fill="#fff"/>
              <path id="Path_6223" data-name="Path 6223" d="M883.239,542.337a16.826,16.826,0,0,1-5.957-1.018q-.486-.183-.957-.393a3.026,3.026,0,0,1-2.182.926h-6a3.031,3.031,0,0,1-3.031-3.031v-9.289a10.433,10.433,0,0,1,1.141-4.693q.486-.97,1.057-1.911a3.031,3.031,0,0,1-2.828-3.024V512.7a3.031,3.031,0,0,1,3.031-3.031h4.306a3.017,3.017,0,0,1,1.355.32,9.7,9.7,0,0,1,2.563-.32c4.258,0,6.9,2.681,6.9,7a10.59,10.59,0,0,1-1.054,4.66,29.993,29.993,0,0,1-1.91,3.365,26.482,26.482,0,0,0-1.542,2.669,3.919,3.919,0,0,0-.43,1.79v.987a6.772,6.772,0,0,0,1.015.542,5.742,5.742,0,0,0,2.34.519,2.347,2.347,0,0,0,1.409-.293h0a3.3,3.3,0,0,0,.253-1.611V512.7a3.031,3.031,0,0,1,3.031-3.031h6.532a3.032,3.032,0,0,1,3.031,3.031v16.982a12.818,12.818,0,0,1-3.255,9.179A11.673,11.673,0,0,1,883.239,542.337Zm-12.064-6.546h.264a3.031,3.031,0,0,1,1.224-1.993c-.076-.077-.149-.155-.222-.234a3.034,3.034,0,0,1-.8-2.048v-2.371a9.964,9.964,0,0,1,.177-1.88c-.049.095-.1.189-.145.284a4.374,4.374,0,0,0-.5,1.983Zm17.611-20.064v13.564a7.95,7.95,0,0,1-2.119,5.986,6.683,6.683,0,0,1-.571.488,4.721,4.721,0,0,0,1.578-1.09,6.944,6.944,0,0,0,1.582-5V515.727Zm-17.158,2.194h0Zm4.16-2.194a3.889,3.889,0,0,1,.75,1.6,5.131,5.131,0,0,0,.042-.663,2.463,2.463,0,0,0-.11-.846A2.2,2.2,0,0,0,875.787,515.727Z" transform="translate(-864.483 -509.665)" fill="#fff"/>
            </g>
            <g id="Group_2810" data-name="Group 2810" transform="translate(43.398 11.805)">
              <path id="Path_6224" data-name="Path 6224" d="M925.442,540.477V524.414a6.894,6.894,0,0,0-1.017-4.04q-1.016-1.426-4.064-1.427a17.076,17.076,0,0,0-3.387.363,20.52,20.52,0,0,0-3.194.895v-4.79a16.231,16.231,0,0,1,3.581-1.113,21.184,21.184,0,0,1,4.258-.435q5.515,0,7.934,2.347t2.419,7.281v16.982Z" transform="translate(-910.749 -510.836)" fill="#fff"/>
              <path id="Path_6225" data-name="Path 6225" d="M930,541.539h-6.531a3.03,3.03,0,0,1-3.031-3.031V522.445a4.408,4.408,0,0,0-.406-2.207,4.067,4.067,0,0,0-1.644-.229,14.145,14.145,0,0,0-2.785.3,17.716,17.716,0,0,0-2.721.758,3.03,3.03,0,0,1-4.105-2.834v-4.79a3.032,3.032,0,0,1,1.75-2.747,19.033,19.033,0,0,1,4.254-1.335,24.321,24.321,0,0,1,4.865-.5c4.538,0,7.823,1.047,10.045,3.2s3.34,5.333,3.34,9.457v16.982A3.031,3.031,0,0,1,930,541.539Zm-3.5-6.062h.469V521.526c0-2.423-.5-4.141-1.5-5.107a4.388,4.388,0,0,0-1.668-.944,5.629,5.629,0,0,1,1.12,1.171,9.825,9.825,0,0,1,1.578,5.8Z" transform="translate(-908.78 -508.867)" fill="#fff"/>
            </g>
            <g id="Group_2811" data-name="Group 2811" transform="translate(65.123 11.805)">
              <path id="Path_6226" data-name="Path 6226" d="M960.552,540.961a11.468,11.468,0,0,1-5.611-1.355,9.409,9.409,0,0,1-3.9-4.234,16.73,16.73,0,0,1-1.427-7.426q0-6.919,2.443-10.5a7.609,7.609,0,0,1,6.6-3.58,6.477,6.477,0,0,1,3.242.677,6.062,6.062,0,0,1,1.935,1.79,6.784,6.784,0,0,1,2.685-1.79,9.5,9.5,0,0,1,3.508-.677,6.012,6.012,0,0,1,5.056,2.081,8.645,8.645,0,0,1,1.621,5.467v19.062h-6.531V522.43a5.806,5.806,0,0,0-.46-2.588,1.8,1.8,0,0,0-1.766-.895,2.468,2.468,0,0,0-1.572.557,3.015,3.015,0,0,0-.991,1.669h-3.146a5.736,5.736,0,0,0-1.016-1.669,2.043,2.043,0,0,0-1.547-.557,3.083,3.083,0,0,0-3.073,2.491,21.851,21.851,0,0,0-.8,6.508q0,4.4,1.548,6.169a5.483,5.483,0,0,0,4.354,1.766,16.635,16.635,0,0,0,1.814-.1,8.263,8.263,0,0,0,1.525-.29v4.789a9.487,9.487,0,0,1-1.936.508A16.645,16.645,0,0,1,960.552,540.961Z" transform="translate(-946.587 -510.836)" fill="#fff"/>
              <path id="Path_6227" data-name="Path 6227" d="M958.583,542.023a14.512,14.512,0,0,1-7.07-1.729,12.425,12.425,0,0,1-5.153-5.545,19.765,19.765,0,0,1-1.741-8.772c0-5.285.972-9.278,2.971-12.208a10.647,10.647,0,0,1,9.107-4.9,9.281,9.281,0,0,1,4.768,1.089c.224.132.443.271.652.419a11.819,11.819,0,0,1,1.328-.62,12.569,12.569,0,0,1,4.622-.889c4.061,0,6.29,1.766,7.446,3.247a11.619,11.619,0,0,1,2.262,7.331v19.062a3.031,3.031,0,0,1-3.031,3.031h-6.532a2.179,2.179,0,0,0-4.033-.4,12.577,12.577,0,0,1-2.553.675A19.462,19.462,0,0,1,958.583,542.023Zm12.66-6.546h.47V519.446a5.78,5.78,0,0,0-.981-3.6,2.2,2.2,0,0,0-1.449-.8,4.526,4.526,0,0,1,1.165,1.447,8.607,8.607,0,0,1,.8,3.974ZM951.4,519.863a22.433,22.433,0,0,0-.715,6.115,13.914,13.914,0,0,0,1.111,6.08q.107.217.222.421a14.825,14.825,0,0,1-1.2-6.5A27.6,27.6,0,0,1,951.4,519.863Zm11.688,10.631a3.032,3.032,0,0,1,2.1.843v-9.665a3.027,3.027,0,0,1-1.759.562h-3.145a3.031,3.031,0,0,1-2.766-1.791,19.262,19.262,0,0,0-.638,5.534c0,3.105.663,4.018.8,4.17a2.456,2.456,0,0,0,2.076.733,13.839,13.839,0,0,0,1.486-.079,5.287,5.287,0,0,0,.963-.175A3.031,3.031,0,0,1,963.083,530.494Z" transform="translate(-944.618 -508.867)" fill="#fff"/>
            </g>
            <g id="Group_2812" data-name="Group 2812" transform="translate(95.748 11.805)">
              <path id="Path_6228" data-name="Path 6228" d="M1001.35,540.477v-8.322a9.77,9.77,0,0,1,.749-3.943,4.4,4.4,0,0,1,2.976-2.395l-4.935-1.306V518.27a19.51,19.51,0,0,1,5.3-3.049,19.882,19.882,0,0,1,7.571-1.354,19.591,19.591,0,0,1,6.7,1.016,8.134,8.134,0,0,1,4.257,3.387,12.107,12.107,0,0,1,1.476,6.435v15.772h-6.532V524.56q0-3.049-1.427-4.331t-4.814-1.282a12.138,12.138,0,0,0-3.991.629,8.836,8.836,0,0,0-2.928,1.6v.678l5.371,1.451v3.967a3.974,3.974,0,0,0-2.589,1.573,6.736,6.736,0,0,0-.652,3.362v8.273Z" transform="translate(-997.109 -510.836)" fill="#fff"/>
              <path id="Path_6229" data-name="Path 6229" d="M1023.476,541.539h-6.532a3.031,3.031,0,0,1-3.031-3.031V522.591a3.337,3.337,0,0,0-.423-2.076,3.029,3.029,0,0,0-1.581-.447,3.028,3.028,0,0,1,.276,1.265V525.3a3.031,3.031,0,0,1-2.3,2.94,3.078,3.078,0,0,0-.758.274,5.667,5.667,0,0,0-.189,1.721v8.273a3.031,3.031,0,0,1-3.031,3.031h-6.532a3.031,3.031,0,0,1-3.031-3.031v-8.322a13.035,13.035,0,0,1,.844-4.775,3.031,3.031,0,0,1-2.055-2.869V516.3a3.029,3.029,0,0,1,1.064-2.306,22.6,22.6,0,0,1,6.119-3.548,22.97,22.97,0,0,1,8.718-1.58,22.684,22.684,0,0,1,7.741,1.2,11.126,11.126,0,0,1,5.79,4.632,15.068,15.068,0,0,1,1.935,8.037v15.772A3.03,3.03,0,0,1,1023.476,541.539Zm-3.5-6.062h.47V522.735a9.3,9.3,0,0,0-1.019-4.833,4.9,4.9,0,0,0-1.539-1.562,8.717,8.717,0,0,1,2.088,6.25Zm-17.562,0h.47v-5.242a12.379,12.379,0,0,1,.356-3.152.832.832,0,0,0-.33.373,6.832,6.832,0,0,0-.5,2.73Z" transform="translate(-995.14 -508.867)" fill="#fff"/>
            </g>
            <g id="Group_2813" data-name="Group 2813" transform="translate(124.585 11.805)">
              <path id="Path_6230" data-name="Path 6230" d="M1057.484,540.961a33.918,33.918,0,0,1-5.2-.387,18.488,18.488,0,0,1-4.041-1.016v-5.274a19.687,19.687,0,0,0,4.041,1.186,21.93,21.93,0,0,0,3.991.411,15.539,15.539,0,0,0,4.572-.484,1.923,1.923,0,0,0,1.427-1.984,2.206,2.206,0,0,0-.75-1.79,7.073,7.073,0,0,0-2.3-1.137q-1.548-.508-3.967-1.331a19.794,19.794,0,0,1-5.54-2.83,5.566,5.566,0,0,1-2.008-4.669,6.855,6.855,0,0,1,2.71-5.637q2.709-2.152,8.177-2.153a30.96,30.96,0,0,1,4.548.338,22.712,22.712,0,0,1,3.725.823v5.225a15.294,15.294,0,0,0-3.653-.992,24.7,24.7,0,0,0-3.7-.315,13.6,13.6,0,0,0-3.943.508,2.038,2.038,0,0,0-1.669,2.056,1.791,1.791,0,0,0,.846,1.548,9.049,9.049,0,0,0,2.419,1.064q1.571.485,3.749,1.258a22.408,22.408,0,0,1,4.38,1.936,6.325,6.325,0,0,1,2.419,2.467,7.867,7.867,0,0,1,.749,3.629,6.274,6.274,0,0,1-2.927,5.685A14.93,14.93,0,0,1,1057.484,540.961Z" transform="translate(-1044.679 -510.836)" fill="#fff"/>
              <path id="Path_6231" data-name="Path 6231" d="M1055.515,542.023a37.075,37.075,0,0,1-5.667-.423,21.193,21.193,0,0,1-4.717-1.2,3.03,3.03,0,0,1-1.889-2.807v-5.274a3.03,3.03,0,0,1,4.208-2.793,16.766,16.766,0,0,0,3.419,1,20.159,20.159,0,0,0,3.877.357q-1.082-.363-2.434-.823a22.584,22.584,0,0,1-6.432-3.314,8.511,8.511,0,0,1-3.17-7.054,9.909,9.909,0,0,1,3.855-8.01c2.381-1.892,5.673-2.811,10.063-2.811a34.132,34.132,0,0,1,4.993.371,25.4,25.4,0,0,1,4.237.945,3.031,3.031,0,0,1,2.074,2.876v5.225a3.031,3.031,0,0,1-4.215,2.791,12.341,12.341,0,0,0-2.929-.786c-.833-.127-1.608-.212-2.315-.252q.71.242,1.491.519a24.944,24.944,0,0,1,4.94,2.2,9.33,9.33,0,0,1,3.535,3.663,10.863,10.863,0,0,1,1.089,5.022,9.275,9.275,0,0,1-4.33,8.242A17.9,17.9,0,0,1,1055.515,542.023Zm7.027-13.491a5.492,5.492,0,0,1,.793,2.912,5.247,5.247,0,0,1-.544,2.384,3.711,3.711,0,0,0,.675-2.384,5.057,5.057,0,0,0-.412-2.239A2.611,2.611,0,0,0,1062.542,528.532Zm-13.328-10.807a4.077,4.077,0,0,0-.441,1.962,2.708,2.708,0,0,0,.7,2.157,4.81,4.81,0,0,1-.567-2.3A5.3,5.3,0,0,1,1049.213,517.726Z" transform="translate(-1042.71 -508.867)" fill="#fff"/>
            </g>
            <g id="Group_2814" data-name="Group 2814" transform="translate(154.871)">
              <path id="Path_6232" data-name="Path 6232" d="M1108.173,532.807q-3.146,0-4.427-1.306a5.688,5.688,0,0,1-1.282-4.113v-21.24a7.525,7.525,0,0,0-1.185-4.548,7.231,7.231,0,0,0-3.6-2.419v-4.789h15.822v5.08h-7.6a5.834,5.834,0,0,1,2.323,2.516,9.071,9.071,0,0,1,.775,3.967V525.7a1.775,1.775,0,0,0,1.983,2.032h1.645v5.08Z" transform="translate(-1094.642 -491.361)" fill="#fff"/>
              <path id="Path_6233" data-name="Path 6233" d="M1110.654,533.869H1106.2c-2.973,0-5.129-.724-6.59-2.214a8.57,8.57,0,0,1-2.15-6.235V504.18a4.929,4.929,0,0,0-.588-2.742,4.361,4.361,0,0,0-2.148-1.355,3.032,3.032,0,0,1-2.055-2.87v-4.79a3.031,3.031,0,0,1,3.031-3.031h15.822a3.031,3.031,0,0,1,3.031,3.031v5.08a3.031,3.031,0,0,1-3.031,3.031h-1.878a13.74,13.74,0,0,1,.41,3.453v18.741h.6a3.031,3.031,0,0,1,3.031,3.031v5.08A3.03,3.03,0,0,1,1110.654,533.869Zm-7.556-33.176a13.26,13.26,0,0,1,.427,3.487v21.24a3.282,3.282,0,0,0,.414,1.99,3.386,3.386,0,0,0,1.9.392,4.944,4.944,0,0,1-1.848-4.075v-19.74a6.184,6.184,0,0,0-.472-2.648A2.838,2.838,0,0,0,1103.1,500.693Zm-4-5.239a9.593,9.593,0,0,1,1.859,1.456c.014-.07.03-.14.05-.21a3.027,3.027,0,0,1,.689-1.246Z" transform="translate(-1092.673 -489.392)" fill="#fff"/>
            </g>
            <g id="Group_2815" data-name="Group 2815" transform="translate(170.935 11.805)">
              <path id="Path_6234" data-name="Path 6234" d="M1133.945,540.961a33.923,33.923,0,0,1-5.2-.387,18.5,18.5,0,0,1-4.04-1.016v-5.274a19.673,19.673,0,0,0,4.04,1.186,21.944,21.944,0,0,0,3.992.411,15.537,15.537,0,0,0,4.572-.484,1.923,1.923,0,0,0,1.427-1.984,2.206,2.206,0,0,0-.75-1.79,7.071,7.071,0,0,0-2.3-1.137q-1.549-.508-3.968-1.331a19.8,19.8,0,0,1-5.54-2.83,5.566,5.566,0,0,1-2.008-4.669,6.856,6.856,0,0,1,2.709-5.637q2.708-2.152,8.176-2.153a30.969,30.969,0,0,1,4.548.338,22.688,22.688,0,0,1,3.725.823v5.225a15.3,15.3,0,0,0-3.652-.992,24.7,24.7,0,0,0-3.7-.315,13.6,13.6,0,0,0-3.943.508,2.038,2.038,0,0,0-1.669,2.056,1.793,1.793,0,0,0,.846,1.548,9.074,9.074,0,0,0,2.419,1.064q1.573.485,3.751,1.258a22.429,22.429,0,0,1,4.379,1.936,6.315,6.315,0,0,1,2.418,2.467,7.864,7.864,0,0,1,.75,3.629A6.274,6.274,0,0,1,1142,539.1,14.925,14.925,0,0,1,1133.945,540.961Z" transform="translate(-1121.141 -510.836)" fill="#fff"/>
              <path id="Path_6235" data-name="Path 6235" d="M1131.976,542.023a37.077,37.077,0,0,1-5.666-.423,21.207,21.207,0,0,1-4.717-1.2,3.03,3.03,0,0,1-1.889-2.807v-5.274a3.03,3.03,0,0,1,4.208-2.793,16.775,16.775,0,0,0,3.418,1,20.169,20.169,0,0,0,3.877.357q-1.081-.363-2.434-.823a22.6,22.6,0,0,1-6.433-3.314,8.511,8.511,0,0,1-3.169-7.054,9.909,9.909,0,0,1,3.854-8.01c2.38-1.891,5.672-2.811,10.062-2.811a34.146,34.146,0,0,1,4.993.371,25.371,25.371,0,0,1,4.237.945,3.031,3.031,0,0,1,2.074,2.876v5.225a3.031,3.031,0,0,1-4.214,2.791,12.333,12.333,0,0,0-2.928-.786c-.833-.127-1.608-.212-2.315-.252q.709.242,1.49.519a24.954,24.954,0,0,1,4.94,2.2,9.317,9.317,0,0,1,3.535,3.664,10.854,10.854,0,0,1,1.089,5.021,9.275,9.275,0,0,1-4.331,8.242A17.894,17.894,0,0,1,1131.976,542.023ZM1139,528.532a5.494,5.494,0,0,1,.793,2.912,5.257,5.257,0,0,1-.542,2.383,3.715,3.715,0,0,0,.673-2.383,5.046,5.046,0,0,0-.413-2.239A2.581,2.581,0,0,0,1139,528.532Zm-13.331-10.8a4.079,4.079,0,0,0-.439,1.958,2.709,2.709,0,0,0,.7,2.157,4.811,4.811,0,0,1-.567-2.3A5.281,5.281,0,0,1,1125.673,517.729Z" transform="translate(-1119.172 -508.867)" fill="#fff"/>
            </g>
            <g id="Group_2816" data-name="Group 2816" transform="translate(194.981 11.805)">
              <path id="Path_6236" data-name="Path 6236" d="M1163.84,540.477V524.269a10.045,10.045,0,0,1,2.927-7.573q2.927-2.83,9.41-2.83t9.387,2.83a10.093,10.093,0,0,1,2.9,7.573v16.208h-6.532V523.785a4.353,4.353,0,0,0-1.523-3.629,6.651,6.651,0,0,0-4.234-1.209q-5.8,0-5.806,4.838v4.694a8.69,8.69,0,0,1,2.057-1.113,6.91,6.91,0,0,1,2.492-.436h3.145l.193,5.177h-3.483a7.477,7.477,0,0,0-2.419.363,7.3,7.3,0,0,0-1.985,1.04v6.967Z" transform="translate(-1160.809 -510.836)" fill="#fff"/>
              <path id="Path_6237" data-name="Path 6237" d="M1186.5,541.539h-6.532a3.031,3.031,0,0,1-3.031-3.031V533.1a3.007,3.007,0,0,1-.646.07h-3.483a4.659,4.659,0,0,0-1.372.178v5.161a3.03,3.03,0,0,1-3.031,3.031h-6.531a3.031,3.031,0,0,1-3.031-3.031V522.3a13.006,13.006,0,0,1,3.852-9.752c2.526-2.443,6.4-3.681,11.516-3.681s8.99,1.241,11.5,3.69a13.053,13.053,0,0,1,3.819,9.743v16.208A3.031,3.031,0,0,1,1186.5,541.539Zm-3.5-6.062h.471V522.3a7.135,7.135,0,0,0-1.988-5.4c-.081-.079-.166-.155-.255-.229a7.548,7.548,0,0,1,1.773,5.146Zm-18.095,0h.469v-3.936a3.029,3.029,0,0,1,1.233-2.44l.106-.077a3.03,3.03,0,0,1-1.339-2.514v-4.694a7.828,7.828,0,0,1,1.5-4.875,7.1,7.1,0,0,0-1.968,5.359Zm8.049-13.547h3.145a3.013,3.013,0,0,1,.839.118v-.232c0-.955-.274-1.173-.377-1.254a3.908,3.908,0,0,0-2.349-.553c-2.775,0-2.775.8-2.775,1.807v.221A10.646,10.646,0,0,1,1172.951,521.93Z" transform="translate(-1158.84 -508.867)" fill="#fff"/>
            </g>
            <g id="Group_2817" data-name="Group 2817" transform="translate(224.253 12.289)">
              <path id="Path_6238" data-name="Path 6238" d="M1217.837,540.791q-3.145,0-4.427-1.306a5.688,5.688,0,0,1-1.282-4.113V514.665h6.532v19.014a1.775,1.775,0,0,0,1.984,2.032h1.645v5.08Z" transform="translate(-1209.097 -511.634)" fill="#fff"/>
              <path id="Path_6239" data-name="Path 6239" d="M1220.319,541.853h-4.451c-2.974,0-5.13-.724-6.591-2.215a8.566,8.566,0,0,1-2.149-6.235V512.7a3.031,3.031,0,0,1,3.031-3.031h6.531a3.031,3.031,0,0,1,3.031,3.031v18.015h.6a3.031,3.031,0,0,1,3.031,3.031v5.08A3.031,3.031,0,0,1,1220.319,541.853Zm-7.13-26.126V533.4a3.281,3.281,0,0,0,.415,1.99,3.391,3.391,0,0,0,1.9.392,4.943,4.943,0,0,1-1.849-4.075V515.727Z" transform="translate(-1207.128 -509.665)" fill="#fff"/>
            </g>
            <g id="Group_2818" data-name="Group 2818" transform="translate(237.751 12.289)">
              <path id="Path_6240" data-name="Path 6240" d="M1246.83,541.275q-5.758,0-9.1-2.734t-3.339-8.249V514.665h6.532v15.724q0,5.807,5.9,5.806t5.9-5.806V514.665h6.531v15.627q0,5.516-3.338,8.249T1246.83,541.275Z" transform="translate(-1231.365 -511.634)" fill="#fff"/>
              <path id="Path_6241" data-name="Path 6241" d="M1244.861,542.337c-4.538,0-8.244-1.151-11.016-3.42-2.952-2.417-4.449-5.981-4.449-10.594V512.7a3.031,3.031,0,0,1,3.031-3.031h6.532a3.031,3.031,0,0,1,3.031,3.031V528.42c0,2.179.617,2.775,2.872,2.775s2.872-.6,2.872-2.775V512.7a3.031,3.031,0,0,1,3.031-3.031h6.532a3.031,3.031,0,0,1,3.031,3.031v15.627c0,4.613-1.5,8.177-4.45,10.594C1253.107,541.187,1249.4,542.337,1244.861,542.337Zm8.934-26.61V528.42a9.249,9.249,0,0,1-1.764,5.811l0,0c1.5-1.228,2.228-3.159,2.228-5.9v-12.6Zm-18.337,0v12.6c0,2.745.729,4.677,2.227,5.9l.005,0a9.255,9.255,0,0,1-1.763-5.811V515.727Z" transform="translate(-1229.396 -509.665)" fill="#fff"/>
            </g>
            <g id="Group_2819" data-name="Group 2819" transform="translate(264.7 11.805)">
              <path id="Path_6242" data-name="Path 6242" d="M1290.513,540.477V524.414a6.892,6.892,0,0,0-1.017-4.04q-1.016-1.426-4.063-1.427a17.082,17.082,0,0,0-3.387.363,20.521,20.521,0,0,0-3.193.895v-4.79a16.2,16.2,0,0,1,3.58-1.113,21.177,21.177,0,0,1,4.257-.435q5.517,0,7.935,2.347t2.419,7.281v16.982Z" transform="translate(-1275.822 -510.836)" fill="#fff"/>
              <path id="Path_6243" data-name="Path 6243" d="M1295.075,541.539h-6.531a3.03,3.03,0,0,1-3.031-3.031V522.445a4.4,4.4,0,0,0-.406-2.207,4.056,4.056,0,0,0-1.643-.229,14.147,14.147,0,0,0-2.785.3,17.7,17.7,0,0,0-2.721.758,3.031,3.031,0,0,1-4.105-2.834v-4.79a3.03,3.03,0,0,1,1.749-2.747,19.04,19.04,0,0,1,4.255-1.336,24.314,24.314,0,0,1,4.865-.5c4.538,0,7.824,1.047,10.045,3.2s3.34,5.333,3.34,9.458v16.982A3.031,3.031,0,0,1,1295.075,541.539Zm-3.5-6.062h.469V521.526c0-2.423-.5-4.141-1.5-5.107a4.39,4.39,0,0,0-1.669-.944,5.621,5.621,0,0,1,1.12,1.171,9.824,9.824,0,0,1,1.579,5.8Z" transform="translate(-1273.853 -508.867)" fill="#fff"/>
            </g>
            <g id="Group_2820" data-name="Group 2820" transform="translate(287.392 12.289)">
              <path id="Path_6244" data-name="Path 6244" d="M1316.286,540.791V514.665h6.531V522.6h6.483q2.516,0,3.459-1.089a4.956,4.956,0,0,0,.944-3.314v-3.532h6.531v3.29a10.793,10.793,0,0,1-.8,4.282,4.941,4.941,0,0,1-2.928,2.685,4.734,4.734,0,0,1,2.782,2.4,8.849,8.849,0,0,1,.75,3.75v9.724h-6.531v-9a4.893,4.893,0,0,0-.943-3.435,4.713,4.713,0,0,0-3.411-.968h-6.338v13.4Z" transform="translate(-1313.255 -511.634)" fill="#fff"/>
              <path id="Path_6245" data-name="Path 6245" d="M1338.073,541.853h-6.532a3.031,3.031,0,0,1-3.031-3.031v-9a5.183,5.183,0,0,0-.12-1.26,5.071,5.071,0,0,0-1.2-.112h-3.307v10.371a3.031,3.031,0,0,1-3.031,3.031h-6.531a3.031,3.031,0,0,1-3.031-3.031V512.7a3.031,3.031,0,0,1,3.031-3.031h6.531a3.032,3.032,0,0,1,3.031,3.031v4.9h3.452a4.179,4.179,0,0,0,1.208-.132,3.541,3.541,0,0,0,.163-1.24V512.7a3.031,3.031,0,0,1,3.031-3.031h6.531a3.031,3.031,0,0,1,3.031,3.031v3.29a13.852,13.852,0,0,1-1.042,5.475,7.747,7.747,0,0,1-.84,1.483,7.006,7.006,0,0,1,.658,1.13,11.88,11.88,0,0,1,1.031,5.023v9.725A3.031,3.031,0,0,1,1338.073,541.853Zm-3.5-6.062h.47V529.1a5.9,5.9,0,0,0-.471-2.479,1.352,1.352,0,0,0-.67-.635,9.669,9.669,0,0,1,.671,3.839Zm-17.224,0h.47V525.421a3.032,3.032,0,0,0,0-4.79v-4.9h-.47Zm13.592-12.753a6.132,6.132,0,0,1,.593.29,3.08,3.08,0,0,1-.023-.369c0-.064,0-.129.006-.192C1331.332,522.865,1331.139,522.956,1330.94,523.038Zm3.826-7.311v.5a9.4,9.4,0,0,1-.609,3.521,1.58,1.58,0,0,0,.527-.676,7.851,7.851,0,0,0,.552-3.087v-.259Z" transform="translate(-1311.286 -509.665)" fill="#fff"/>
            </g>
            <g id="Group_2821" data-name="Group 2821" transform="translate(313.905 11.805)">
              <path id="Path_6246" data-name="Path 6246" d="M1368.346,540.961a21.04,21.04,0,0,1-8.321-1.548v-4.984a20.525,20.525,0,0,0,3.241,1.041,15.341,15.341,0,0,0,3.532.411q4.546,0,6.507-1.887t1.959-6.579q0-4.693-1.959-6.58t-6.507-1.887a16.231,16.231,0,0,0-3.532.387,16.663,16.663,0,0,0-3.241,1.064v-4.983a21.038,21.038,0,0,1,8.321-1.548q6.628,0,9.87,3.459t3.242,10.088q0,6.629-3.242,10.088T1368.346,540.961Z" transform="translate(-1356.994 -510.836)" fill="#fff"/>
              <path id="Path_6247" data-name="Path 6247" d="M1366.377,542.023a24.123,24.123,0,0,1-9.511-1.792,3.031,3.031,0,0,1-1.841-2.787V532.46a3.031,3.031,0,0,1,4.2-2.794,17.561,17.561,0,0,0,2.763.885,12.345,12.345,0,0,0,2.837.33c2.894,0,4-.651,4.4-1.039.31-.3,1.031-1.324,1.031-4.4s-.721-4.1-1.03-4.4c-.4-.389-1.511-1.04-4.405-1.04a13.3,13.3,0,0,0-2.876.315,13.632,13.632,0,0,0-2.649.868,3.031,3.031,0,0,1-4.279-2.762v-4.983a3.031,3.031,0,0,1,1.842-2.788,24.132,24.132,0,0,1,9.51-1.791c5.269,0,9.333,1.486,12.081,4.417,2.7,2.877,4.062,6.968,4.062,12.161s-1.366,9.284-4.061,12.16C1375.711,540.537,1371.646,542.023,1366.377,542.023Zm8.332-23.749a16.7,16.7,0,0,1,0,14.345,15.573,15.573,0,0,0,0-14.345Z" transform="translate(-1355.024 -508.867)" fill="#fff"/>
            </g>
            <g id="Group_2822" data-name="Group 2822" transform="translate(335.726 11.805)">
              <path id="Path_6248" data-name="Path 6248" d="M1407.681,540.477V524.414a6.9,6.9,0,0,0-1.016-4.04q-1.016-1.426-4.064-1.427a17.074,17.074,0,0,0-3.387.363,20.516,20.516,0,0,0-3.193.895v-4.79a16.2,16.2,0,0,1,3.58-1.113,21.18,21.18,0,0,1,4.258-.435q5.517,0,7.935,2.347t2.419,7.281v16.982Z" transform="translate(-1392.99 -510.836)" fill="#fff"/>
              <path id="Path_6249" data-name="Path 6249" d="M1412.243,541.539h-6.531a3.031,3.031,0,0,1-3.031-3.031V522.445a4.407,4.407,0,0,0-.406-2.207,4.065,4.065,0,0,0-1.643-.229,14.146,14.146,0,0,0-2.785.3,17.726,17.726,0,0,0-2.721.758,3.03,3.03,0,0,1-4.1-2.834v-4.79a3.03,3.03,0,0,1,1.749-2.747,19.035,19.035,0,0,1,4.255-1.336,24.3,24.3,0,0,1,4.865-.5c4.538,0,7.823,1.047,10.045,3.2s3.34,5.333,3.34,9.458v16.982A3.031,3.031,0,0,1,1412.243,541.539Zm-3.5-6.062h.47V521.526c0-2.423-.5-4.141-1.5-5.107a4.38,4.38,0,0,0-1.669-.943,5.614,5.614,0,0,1,1.12,1.171,9.828,9.828,0,0,1,1.578,5.8Z" transform="translate(-1391.021 -508.867)" fill="#fff"/>
            </g>
            <g id="Group_2823" data-name="Group 2823" transform="translate(358.417 12.289)">
              <path id="Path_6250" data-name="Path 6250" d="M1442.5,541.275a8.715,8.715,0,0,1-6.628-2.541,9.858,9.858,0,0,1-2.42-7.088V514.665h6.532V531.26a5.1,5.1,0,0,0,1.186,3.8,4.878,4.878,0,0,0,3.507,1.137,8.724,8.724,0,0,0,3.58-.774,8.332,8.332,0,0,0,2.807-1.935V514.665h6.531v26.126h-6l-.29-2.564a14.177,14.177,0,0,1-3.919,2.226A13.754,13.754,0,0,1,1442.5,541.275Z" transform="translate(-1430.422 -511.634)" fill="#fff"/>
              <path id="Path_6251" data-name="Path 6251" d="M1440.531,542.337a11.665,11.665,0,0,1-8.823-3.481,12.812,12.812,0,0,1-3.256-9.179V512.7a3.031,3.031,0,0,1,3.031-3.031h6.532a3.032,3.032,0,0,1,3.031,3.031v16.595a3.126,3.126,0,0,0,.264,1.623,2.4,2.4,0,0,0,1.4.281,5.673,5.673,0,0,0,2.349-.513,6.8,6.8,0,0,0,1.007-.545V512.7a3.031,3.031,0,0,1,3.031-3.031h6.531a3.031,3.031,0,0,1,3.031,3.031v26.126a3.03,3.03,0,0,1-3.031,3.031h-6a3.027,3.027,0,0,1-2.182-.926q-.471.209-.957.393A16.834,16.834,0,0,1,1440.531,542.337Zm11.8-6.546h.263V515.727h-.469v15.79a3.031,3.031,0,0,1-.8,2.048c-.072.079-.146.156-.221.233A3.034,3.034,0,0,1,1452.333,535.791Zm-17.818-20.064v13.951a6.939,6.939,0,0,0,1.583,5,4.713,4.713,0,0,0,1.577,1.09,6.606,6.606,0,0,1-.572-.489,7.948,7.948,0,0,1-2.118-5.985V515.727Z" transform="translate(-1428.453 -509.665)" fill="#fff"/>
            </g>
            <g id="Group_2824" data-name="Group 2824" transform="translate(386.091 7.257)">
              <path id="Path_6252" data-name="Path 6252" d="M1479.106,516.089v-9.725h5.517l-.677,9.725Zm8.371,0v-9.725h5.516l-.677,9.725Z" transform="translate(-1476.075 -503.333)" fill="#fff"/>
              <path id="Path_6253" data-name="Path 6253" d="M1490.346,517.151h-4.838a3.032,3.032,0,0,0-3.532,0h-4.839a3.031,3.031,0,0,1-3.031-3.031V504.4a3.031,3.031,0,0,1,3.031-3.031h5.516a3.036,3.036,0,0,0,2.854,0h5.516a3.03,3.03,0,0,1,3.023,3.241l-.677,9.725A3.031,3.031,0,0,1,1490.346,517.151Z" transform="translate(-1474.106 -501.364)" fill="#fff"/>
            </g>
          </g>
          <g id="Group_2826" data-name="Group 2826" transform="translate(3.032 3.031)">
            <path id="Path_6254" data-name="Path 6254" d="M842.188,516.089v-9.725H847.7l-.677,9.725Zm8.37,0v-9.725h5.516l-.677,9.725Z" transform="translate(-842.188 -499.107)" fill="#ed759d"/>
            <path id="Path_6255" data-name="Path 6255" d="M885.208,541.275a13.754,13.754,0,0,1-4.887-.823,14.182,14.182,0,0,1-3.918-2.226l-.29,2.564h-6V531.5a7.4,7.4,0,0,1,.822-3.338,23.656,23.656,0,0,1,1.912-3.169q1.089-1.524,1.911-2.733a3.859,3.859,0,0,0,.822-1.984q0-.918-.774-.919a1.54,1.54,0,0,0-.653.145,1.891,1.891,0,0,0-.556.387v1.984h-4.114v-7.209h4.307v1.354a6.936,6.936,0,0,1,1.646-.967,5.872,5.872,0,0,1,2.273-.387q3.87,0,3.871,3.967a7.563,7.563,0,0,1-.75,3.339,26.847,26.847,0,0,1-1.718,3.024,29.374,29.374,0,0,0-1.717,2.976,6.934,6.934,0,0,0-.75,3.145v2.371a8.276,8.276,0,0,0,2.831,1.935,8.775,8.775,0,0,0,3.556.774,4.88,4.88,0,0,0,3.507-1.137,5.1,5.1,0,0,0,1.186-3.8V514.665h6.532v16.982a9.861,9.861,0,0,1-2.42,7.088A8.716,8.716,0,0,1,885.208,541.275Z" transform="translate(-852.937 -502.376)" fill="#ed759d"/>
            <path id="Path_6256" data-name="Path 6256" d="M925.442,540.477V524.414a6.894,6.894,0,0,0-1.017-4.04q-1.016-1.426-4.064-1.427a17.076,17.076,0,0,0-3.387.363,20.52,20.52,0,0,0-3.194.895v-4.79a16.231,16.231,0,0,1,3.581-1.113,21.184,21.184,0,0,1,4.258-.435q5.515,0,7.934,2.347t2.419,7.281v16.982Z" transform="translate(-870.382 -502.062)" fill="#ed759d"/>
            <path id="Path_6257" data-name="Path 6257" d="M960.552,540.961a11.468,11.468,0,0,1-5.611-1.355,9.409,9.409,0,0,1-3.9-4.234,16.73,16.73,0,0,1-1.427-7.426q0-6.919,2.443-10.5a7.609,7.609,0,0,1,6.6-3.58,6.477,6.477,0,0,1,3.242.677,6.062,6.062,0,0,1,1.935,1.79,6.784,6.784,0,0,1,2.685-1.79,9.5,9.5,0,0,1,3.508-.677,6.012,6.012,0,0,1,5.056,2.081,8.645,8.645,0,0,1,1.621,5.467v19.062h-6.531V522.43a5.806,5.806,0,0,0-.46-2.588,1.8,1.8,0,0,0-1.766-.895,2.468,2.468,0,0,0-1.572.557,3.015,3.015,0,0,0-.991,1.669h-3.146a5.736,5.736,0,0,0-1.016-1.669,2.043,2.043,0,0,0-1.547-.557,3.083,3.083,0,0,0-3.073,2.491,21.851,21.851,0,0,0-.8,6.508q0,4.4,1.548,6.169a5.483,5.483,0,0,0,4.354,1.766,16.635,16.635,0,0,0,1.814-.1,8.263,8.263,0,0,0,1.525-.29v4.789a9.487,9.487,0,0,1-1.936.508A16.645,16.645,0,0,1,960.552,540.961Z" transform="translate(-884.495 -502.062)" fill="#ed759d"/>
            <path id="Path_6258" data-name="Path 6258" d="M1001.35,540.477v-8.322a9.77,9.77,0,0,1,.749-3.943,4.4,4.4,0,0,1,2.976-2.395l-4.935-1.306V518.27a19.51,19.51,0,0,1,5.3-3.049,19.882,19.882,0,0,1,7.571-1.354,19.591,19.591,0,0,1,6.7,1.016,8.134,8.134,0,0,1,4.257,3.387,12.107,12.107,0,0,1,1.476,6.435v15.772h-6.532V524.56q0-3.049-1.427-4.331t-4.814-1.282a12.138,12.138,0,0,0-3.991.629,8.836,8.836,0,0,0-2.928,1.6v.678l5.371,1.451v3.967a3.974,3.974,0,0,0-2.589,1.573,6.736,6.736,0,0,0-.652,3.362v8.273Z" transform="translate(-904.392 -502.062)" fill="#ed759d"/>
            <path id="Path_6259" data-name="Path 6259" d="M1057.484,540.961a33.918,33.918,0,0,1-5.2-.387,18.488,18.488,0,0,1-4.041-1.016v-5.274a19.687,19.687,0,0,0,4.041,1.186,21.93,21.93,0,0,0,3.991.411,15.539,15.539,0,0,0,4.572-.484,1.923,1.923,0,0,0,1.427-1.984,2.206,2.206,0,0,0-.75-1.79,7.073,7.073,0,0,0-2.3-1.137q-1.548-.508-3.967-1.331a19.794,19.794,0,0,1-5.54-2.83,5.566,5.566,0,0,1-2.008-4.669,6.855,6.855,0,0,1,2.71-5.637q2.709-2.152,8.177-2.153a30.96,30.96,0,0,1,4.548.338,22.712,22.712,0,0,1,3.725.823v5.225a15.294,15.294,0,0,0-3.653-.992,24.7,24.7,0,0,0-3.7-.315,13.6,13.6,0,0,0-3.943.508,2.038,2.038,0,0,0-1.669,2.056,1.791,1.791,0,0,0,.846,1.548,9.049,9.049,0,0,0,2.419,1.064q1.571.485,3.749,1.258a22.408,22.408,0,0,1,4.38,1.936,6.325,6.325,0,0,1,2.419,2.467,7.867,7.867,0,0,1,.749,3.629,6.274,6.274,0,0,1-2.927,5.685A14.93,14.93,0,0,1,1057.484,540.961Z" transform="translate(-923.126 -502.062)" fill="#ed759d"/>
            <path id="Path_6260" data-name="Path 6260" d="M1108.173,532.807q-3.146,0-4.427-1.306a5.688,5.688,0,0,1-1.282-4.113v-21.24a7.525,7.525,0,0,0-1.185-4.548,7.231,7.231,0,0,0-3.6-2.419v-4.789h15.822v5.08h-7.6a5.834,5.834,0,0,1,2.323,2.516,9.071,9.071,0,0,1,.775,3.967V525.7a1.775,1.775,0,0,0,1.983,2.032h1.645v5.08Z" transform="translate(-942.802 -494.392)" fill="#ed759d"/>
            <path id="Path_6261" data-name="Path 6261" d="M1133.945,540.961a33.923,33.923,0,0,1-5.2-.387,18.5,18.5,0,0,1-4.04-1.016v-5.274a19.673,19.673,0,0,0,4.04,1.186,21.944,21.944,0,0,0,3.992.411,15.537,15.537,0,0,0,4.572-.484,1.923,1.923,0,0,0,1.427-1.984,2.206,2.206,0,0,0-.75-1.79,7.071,7.071,0,0,0-2.3-1.137q-1.549-.508-3.968-1.331a19.8,19.8,0,0,1-5.54-2.83,5.566,5.566,0,0,1-2.008-4.669,6.856,6.856,0,0,1,2.709-5.637q2.708-2.152,8.176-2.153a30.969,30.969,0,0,1,4.548.338,22.688,22.688,0,0,1,3.725.823v5.225a15.3,15.3,0,0,0-3.652-.992,24.7,24.7,0,0,0-3.7-.315,13.6,13.6,0,0,0-3.943.508,2.038,2.038,0,0,0-1.669,2.056,1.793,1.793,0,0,0,.846,1.548,9.074,9.074,0,0,0,2.419,1.064q1.573.485,3.751,1.258a22.429,22.429,0,0,1,4.379,1.936,6.315,6.315,0,0,1,2.418,2.467,7.864,7.864,0,0,1,.75,3.629A6.274,6.274,0,0,1,1142,539.1,14.925,14.925,0,0,1,1133.945,540.961Z" transform="translate(-953.237 -502.062)" fill="#ed759d"/>
            <path id="Path_6262" data-name="Path 6262" d="M1163.84,540.477V524.269a10.045,10.045,0,0,1,2.927-7.573q2.927-2.83,9.41-2.83t9.387,2.83a10.093,10.093,0,0,1,2.9,7.573v16.208h-6.532V523.785a4.353,4.353,0,0,0-1.523-3.629,6.651,6.651,0,0,0-4.234-1.209q-5.8,0-5.806,4.838v4.694a8.69,8.69,0,0,1,2.057-1.113,6.91,6.91,0,0,1,2.492-.436h3.145l.193,5.177h-3.483a7.477,7.477,0,0,0-2.419.363,7.3,7.3,0,0,0-1.985,1.04v6.967Z" transform="translate(-968.859 -502.062)" fill="#ed759d"/>
            <path id="Path_6263" data-name="Path 6263" d="M1217.837,540.791q-3.145,0-4.427-1.306a5.688,5.688,0,0,1-1.282-4.113V514.665h6.532v19.014a1.775,1.775,0,0,0,1.984,2.032h1.645v5.08Z" transform="translate(-987.875 -502.376)" fill="#ed759d"/>
            <path id="Path_6264" data-name="Path 6264" d="M1246.83,541.275q-5.758,0-9.1-2.734t-3.339-8.249V514.665h6.532v15.724q0,5.807,5.9,5.806t5.9-5.806V514.665h6.531v15.627q0,5.516-3.338,8.249T1246.83,541.275Z" transform="translate(-996.645 -502.376)" fill="#ed759d"/>
            <path id="Path_6265" data-name="Path 6265" d="M1290.513,540.477V524.414a6.892,6.892,0,0,0-1.017-4.04q-1.016-1.426-4.063-1.427a17.082,17.082,0,0,0-3.387.363,20.521,20.521,0,0,0-3.193.895v-4.79a16.2,16.2,0,0,1,3.58-1.113,21.177,21.177,0,0,1,4.257-.435q5.517,0,7.935,2.347t2.419,7.281v16.982Z" transform="translate(-1014.153 -502.062)" fill="#ed759d"/>
            <path id="Path_6266" data-name="Path 6266" d="M1316.286,540.791V514.665h6.531V522.6h6.483q2.516,0,3.459-1.089a4.956,4.956,0,0,0,.944-3.314v-3.532h6.531v3.29a10.793,10.793,0,0,1-.8,4.282,4.941,4.941,0,0,1-2.928,2.685,4.734,4.734,0,0,1,2.782,2.4,8.849,8.849,0,0,1,.75,3.75v9.724h-6.531v-9a4.893,4.893,0,0,0-.943-3.435,4.713,4.713,0,0,0-3.411-.968h-6.338v13.4Z" transform="translate(-1028.895 -502.376)" fill="#ed759d"/>
            <path id="Path_6267" data-name="Path 6267" d="M1368.346,540.961a21.04,21.04,0,0,1-8.321-1.548v-4.984a20.525,20.525,0,0,0,3.241,1.041,15.341,15.341,0,0,0,3.532.411q4.546,0,6.507-1.887t1.959-6.579q0-4.693-1.959-6.58t-6.507-1.887a16.231,16.231,0,0,0-3.532.387,16.663,16.663,0,0,0-3.241,1.064v-4.983a21.038,21.038,0,0,1,8.321-1.548q6.628,0,9.87,3.459t3.242,10.088q0,6.629-3.242,10.088T1368.346,540.961Z" transform="translate(-1046.12 -502.062)" fill="#ed759d"/>
            <path id="Path_6268" data-name="Path 6268" d="M1407.681,540.477V524.414a6.9,6.9,0,0,0-1.016-4.04q-1.016-1.426-4.064-1.427a17.074,17.074,0,0,0-3.387.363,20.516,20.516,0,0,0-3.193.895v-4.79a16.2,16.2,0,0,1,3.58-1.113,21.18,21.18,0,0,1,4.258-.435q5.517,0,7.935,2.347t2.419,7.281v16.982Z" transform="translate(-1060.295 -502.062)" fill="#ed759d"/>
            <path id="Path_6269" data-name="Path 6269" d="M1442.5,541.275a8.715,8.715,0,0,1-6.628-2.541,9.858,9.858,0,0,1-2.42-7.088V514.665h6.532V531.26a5.1,5.1,0,0,0,1.186,3.8,4.878,4.878,0,0,0,3.507,1.137,8.724,8.724,0,0,0,3.58-.774,8.332,8.332,0,0,0,2.807-1.935V514.665h6.531v26.126h-6l-.29-2.564a14.177,14.177,0,0,1-3.919,2.226A13.754,13.754,0,0,1,1442.5,541.275Z" transform="translate(-1075.037 -502.376)" fill="#ed759d"/>
            <path id="Path_6270" data-name="Path 6270" d="M1479.106,516.089v-9.725h5.517l-.677,9.725Zm8.371,0v-9.725h5.516l-.677,9.725Z" transform="translate(-1093.016 -499.107)" fill="#ed759d"/>
          </g>
        </g>
      </g>
    </g>
  </g>
</svg>
