<svg xmlns="http://www.w3.org/2000/svg" xmlns:xlink="http://www.w3.org/1999/xlink" width="1152" height="1024" viewBox="0 0 1152 1024">
  <defs>
    <clipPath id="clip-path">
      <rect id="Rectangle_200" data-name="Rectangle 200" width="1152" height="1024" transform="translate(-192)" fill="none"/>
    </clipPath>
  </defs>
  <g id="Mask_Group_2" data-name="Mask Group 2" transform="translate(192)" clip-path="url(#clip-path)">
    <g id="Group_2747" data-name="Group 2747" transform="translate(188.98 56.252)">
      <g id="Group_2710" data-name="Group 2710" transform="translate(4.365)">
        <circle id="Ellipse_209" data-name="Ellipse 209" cx="110.222" cy="110.222" r="110.222"/>
      </g>
      <g id="Group_2718" data-name="Group 2718" transform="translate(0 18.844)">
        <g id="Group_2711" data-name="Group 2711">
          <circle id="Ellipse_210" data-name="Ellipse 210" cx="101.769" cy="101.769" r="101.769" fill="#fff"/>
        </g>
        <g id="Group_2712" data-name="Group 2712" transform="translate(25.249 25.249)">
          <circle id="Ellipse_211" data-name="Ellipse 211" cx="76.52" cy="76.52" r="76.52" fill="#c9d6e8"/>
        </g>
        <g id="Group_2713" data-name="Group 2713" transform="translate(17.625 17.617)">
          <path id="Path_5410" data-name="Path 5410" d="M-3264.313,206.442a.757.757,0,0,1-.268-.049c-2.221-.828-4.439-1.764-6.593-2.78a.767.767,0,0,1-.367-1.021.767.767,0,0,1,1.02-.366c2.117,1,4.295,1.917,6.476,2.73a.768.768,0,0,1,.451.987A.768.768,0,0,1-3264.313,206.442Z" transform="translate(3319.418 -43.397)" fill="#0d0d0c"/>
          <path id="Path_5411" data-name="Path 5411" d="M-3280.961,60.062q-4.155,0-8.35-.417a.768.768,0,0,1-.687-.84.764.764,0,0,1,.84-.687,82.738,82.738,0,0,0,82.9-46.941,82.668,82.668,0,0,0-39.431-109.919,82.035,82.035,0,0,0-63.125-3.05,82.034,82.034,0,0,0-46.792,42.48,82.122,82.122,0,0,0-3.364,62.236.766.766,0,0,1-.474.976.769.769,0,0,1-.977-.474,83.643,83.643,0,0,1,3.428-63.392,83.557,83.557,0,0,1,47.661-43.27,83.561,83.561,0,0,1,64.3,3.106,84.2,84.2,0,0,1,40.164,111.962A84.312,84.312,0,0,1-3280.961,60.062Z" transform="translate(3365.076 108.221)" fill="#0d0d0c"/>
        </g>
        <path id="Path_5412" data-name="Path 5412" d="M-3194.374,14.624c26.6-31.029,19.8-73.392-2.9-92.992-16.585-14.323-39.659-17.685-51.776-14.076,0,0-9.814-4-33.462.276S-3321.574-62.475-3326.22-43Z" transform="translate(3363.719 118.961)" fill="#080b0a"/>
        <g id="Group_2717" data-name="Group 2717" transform="translate(8.391 8.645)">
          <circle id="Ellipse_212" data-name="Ellipse 212" cx="61.987" cy="61.987" r="61.987" transform="translate(7.686 99.985) rotate(-45)" fill="#fdd89b"/>
          <path id="Path_5413" data-name="Path 5413" d="M-3310.93-6.642c-5.891,19.478-2.463,41.817,10.086,57.817s34.225,24.747,54.2,20.684c9.358-1.9,18.046-6.37,25.827-11.9,7.981-5.676,15.213-12.62,20.136-21.075A53.047,53.047,0,0,0-3198-8.424c-7.776-17.638-25.235-29.881-44.019-34.386-19.423-4.658-41.78-1.028-55.792,13.214A55.476,55.476,0,0,0-3310.93-6.642Z" transform="translate(3349.226 86.175)" fill="#c78c50"/>
          <g id="Group_2715" data-name="Group 2715" transform="translate(39.644 56.317)">
            <path id="Path_5414" data-name="Path 5414" d="M-3276.521-4.955a1.25,1.25,0,0,0,1.6.755,1.252,1.252,0,0,0,.755-1.6,1.251,1.251,0,0,0-1.6-.755A1.25,1.25,0,0,0-3276.521-4.955Z" transform="translate(3291.442 11.248)" fill="#f79922"/>
            <path id="Path_5415" data-name="Path 5415" d="M-3226.673,19.96a1.252,1.252,0,0,0,1.6.755,1.252,1.252,0,0,0,.755-1.6,1.251,1.251,0,0,0-1.6-.755A1.252,1.252,0,0,0-3226.673,19.96Z" transform="translate(3267.091 -0.923)" fill="#f79922"/>
            <circle id="Ellipse_213" data-name="Ellipse 213" cx="0.374" cy="0.374" r="0.374" transform="translate(23.707 17.553)" fill="#f79922"/>
            <circle id="Ellipse_214" data-name="Ellipse 214" cx="0.915" cy="0.915" r="0.915" transform="translate(14.628 28.017)" fill="#f79922"/>
            <g id="Group_2714" data-name="Group 2714" transform="translate(87.24 46.908)">
              <circle id="Ellipse_215" data-name="Ellipse 215" cx="1.781" cy="1.781" r="1.781" fill="#f79922"/>
            </g>
            <circle id="Ellipse_216" data-name="Ellipse 216" cx="1.126" cy="1.126" r="1.126" transform="translate(15.58 64.299)" fill="#f79922"/>
            <circle id="Ellipse_217" data-name="Ellipse 217" cx="1.888" cy="1.888" r="1.888" transform="translate(32.841 68.168)" fill="#f79922"/>
            <path id="Path_5416" data-name="Path 5416" d="M-3147,125.329a1.464,1.464,0,0,0,1.872.883,1.464,1.464,0,0,0,.884-1.872,1.465,1.465,0,0,0-1.873-.883A1.464,1.464,0,0,0-3147,125.329Z" transform="translate(3228.179 -52.257)" fill="#f79922"/>
            <path id="Path_5417" data-name="Path 5417" d="M-3180.674,118.081a.683.683,0,0,0,.873.412.683.683,0,0,0,.412-.873.683.683,0,0,0-.873-.412A.683.683,0,0,0-3180.674,118.081Z" transform="translate(3244.604 -49.228)" fill="#f79922"/>
            <circle id="Ellipse_218" data-name="Ellipse 218" cx="2.056" cy="2.056" r="2.056" transform="translate(95.28 29.345)" fill="#f79922"/>
            <circle id="Ellipse_219" data-name="Ellipse 219" cx="0.935" cy="0.935" r="0.935" transform="translate(48.251 0.749)" fill="#f79922"/>
            <circle id="Ellipse_220" data-name="Ellipse 220" cx="2.243" cy="2.243" r="2.243" transform="translate(81.059 0)" fill="#f79922"/>
            <path id="Path_5418" data-name="Path 5418" d="M-3242.275-7.94l.6-.214.6-.214-.6.214Z" transform="translate(3274.677 12.097)" fill="#f79922"/>
            <path id="Path_5419" data-name="Path 5419" d="M-3282.406,96.433a1.471,1.471,0,0,0,1.881.887,1.471,1.471,0,0,0,.888-1.881,1.471,1.471,0,0,0-1.881-.887A1.47,1.47,0,0,0-3282.406,96.433Z" transform="translate(3294.324 -38.137)" fill="#f79922"/>
            <circle id="Ellipse_221" data-name="Ellipse 221" cx="1.126" cy="1.126" r="1.126" transform="translate(33.567 48.987)" fill="#f79922"/>
            <circle id="Ellipse_222" data-name="Ellipse 222" cx="1.126" cy="1.126" r="1.126" transform="translate(72.634 19.095)" fill="#f79922"/>
            <path id="Path_5420" data-name="Path 5420" d="M-3247.24,66.5a1.47,1.47,0,0,0,1.88.887,1.472,1.472,0,0,0,.889-1.881,1.471,1.471,0,0,0-1.881-.887A1.47,1.47,0,0,0-3247.24,66.5Z" transform="translate(3277.145 -23.513)" fill="#f79922"/>
            <circle id="Ellipse_223" data-name="Ellipse 223" cx="2.36" cy="2.36" r="2.36" transform="translate(53.418 85.143)" fill="#f79922"/>
            <circle id="Ellipse_224" data-name="Ellipse 224" cx="1.308" cy="1.308" r="1.308" transform="translate(103.311 67.556)" fill="#fcb830"/>
            <path id="Path_5421" data-name="Path 5421" d="M-3093.071,86.98a1.842,1.842,0,0,0,2.355,1.111,1.84,1.84,0,0,0,1.111-2.354,1.841,1.841,0,0,0-2.354-1.111A1.843,1.843,0,0,0-3093.071,86.98Z" transform="translate(3201.843 -33.277)" fill="#fcb830"/>
            <circle id="Ellipse_225" data-name="Ellipse 225" cx="0.732" cy="0.732" r="0.732" transform="translate(107.949 61.694)" fill="#fcb830"/>
            <circle id="Ellipse_226" data-name="Ellipse 226" cx="0.841" cy="0.841" r="0.841" transform="translate(0 20.359)" fill="#fcb830"/>
          </g>
          <circle id="Ellipse_227" data-name="Ellipse 227" cx="61.987" cy="61.987" r="61.987" transform="translate(0 87.663) rotate(-45)" fill="#fdd89b"/>
          <path id="Path_5422" data-name="Path 5422" d="M-3325.956-30.732c-5.892,19.478-2.463,41.817,10.084,57.817s34.227,24.747,54.205,20.684c9.357-1.9,18.046-6.37,25.827-11.9,7.982-5.676,15.213-12.62,20.137-21.075a53.045,53.045,0,0,0,2.675-47.306c-7.776-17.638-25.234-29.881-44.018-34.386-19.422-4.658-41.78-1.028-55.793,13.213A55.472,55.472,0,0,0-3325.956-30.732Z" transform="translate(3356.567 97.943)" fill="#c78c50"/>
          <path id="Path_5423" data-name="Path 5423" d="M-3301.814-41.7c-8.057,9.331-14.448,20.085-16.6,32.38A77.183,77.183,0,0,0-3319.1,12.1c-.005-.018-.012-.036-.018-.054-4.62-15.3-2.936-32.113,3.063-46.924,3.183-7.86,7.755-15.468,14.72-20.3,6.046-4.2,13.438-6,20.738-6.954.43-.056.862-.1,1.292-.151C-3287.844-56.731-3295.607-48.89-3301.814-41.7Z" transform="translate(3353.15 94.755)" fill="#fdd89b"/>
          <path id="Path_5424" data-name="Path 5424" d="M-3289.929,17.6a63.6,63.6,0,0,1,38.39-81.341,63.649,63.649,0,0,1,8.877-2.467c.92.182,1.841.363,2.75.581,18.784,4.5,36.242,16.747,44.018,34.386a53.044,53.044,0,0,1-2.676,47.306c-4.923,8.455-12.154,15.4-20.136,21.075-7.781,5.533-16.47,10-25.827,11.9a51.872,51.872,0,0,1-21.12-.232A63.257,63.257,0,0,1-3289.929,17.6Z" transform="translate(3339.433 96.669)" fill="#080b0a"/>
          <path id="Path_5425" data-name="Path 5425" d="M-3238.882,152.927c5.392,1.2,9.091,2.065,9.593,4.037,0,0,15.453,6.816,32.3,2.041l-34.6-12.079Z" transform="translate(3312.663 -7.448)" fill="#080b0a"/>
          <g id="Group_2716" data-name="Group 2716" transform="translate(22.202 2.166)">
            <circle id="Ellipse_228" data-name="Ellipse 228" cx="61.987" cy="61.987" r="61.987" transform="translate(0 87.663) rotate(-45)" fill="#fdd89b"/>
            <path id="Path_5426" data-name="Path 5426" d="M-3282.551-26.5c-5.892,19.478-2.462,41.816,10.085,57.817s34.226,24.747,54.2,20.684c9.357-1.9,18.046-6.37,25.827-11.9,7.982-5.676,15.213-12.62,20.136-21.075a53.047,53.047,0,0,0,2.676-47.306c-7.775-17.639-25.234-29.881-44.018-34.386-19.423-4.658-41.78-1.028-55.794,13.214A55.485,55.485,0,0,0-3282.551-26.5Z" transform="translate(3313.161 93.708)" fill="#c78c50"/>
            <path id="Path_5427" data-name="Path 5427" d="M-3195.875-36.618a11.675,11.675,0,0,1,2.285,1.795c1.818,1.812,3.435,3.951,5.758,5.04,3.667,1.719,8.043.377,12,1.248a11.012,11.012,0,0,1,7.318,5.636,11.013,11.013,0,0,1,.323,9.231c-2.486,5.8-7.663,9.616-5.029,16.645,2.21,5.9,8.431,10.926,6.59,17.88-1.232,4.655-5.991,7.372-10.455,9.178s-9.4,3.456-12.13,7.418c-1.689,2.446-2.3,5.465-3.576,8.148s-3.709,5.246-6.679,5.1c-3.2-.155-5.338-3.243-8.044-4.96-3.019-1.915-6.815-2.1-10.376-1.782s-7.106,1.084-10.672.853-7.308-1.681-9.153-4.742c-2.9-4.811-.006-8.927.759-13.646a14.6,14.6,0,0,0-3.261-11.779c-1.718-1.968-3.943-3.425-5.791-5.272s-3.371-4.322-3.081-6.918c.359-3.223,3.286-5.464,6.013-7.219s5.745-3.742,6.5-6.895c.658-2.745-.619-5.547-.883-8.357a11.915,11.915,0,0,1,4.788-10.562,11.916,11.916,0,0,1,11.531-1.231c1.86.816,3.486,2.106,5.36,2.894,6.154,2.588,7.9-3.156,11.368-6.67A6.544,6.544,0,0,1-3195.875-36.618Z" transform="translate(3295.466 80.596)" fill="#fafafa"/>
            <path id="Path_5428" data-name="Path 5428" d="M-3236.688,19.2a12.934,12.934,0,0,1,3.061,14.689c3.012-1.133,3.832-5.2,2.849-8.262s-3.188-5.568-4.64-8.44-2-6.686.166-9.067c1.279-1.406,3.22-1.992,4.723-3.154,3-2.317,3.8-6.509,3.754-10.3s-.7-7.661.276-11.325,4.322-7.115,8.066-6.516a10.051,10.051,0,0,0-9.871-.928,10.05,10.05,0,0,0-5.676,8.13c-.191,2.32.444,4.634.429,6.962a12.679,12.679,0,0,1-3.893,8.993c-1.577,1.5-3.514,2.561-5.179,3.962s-3.109,3.317-3.13,5.491c-.023,2.314,1.571,4.348,3.393,5.773S-3238.419,17.668-3236.688,19.2Z" transform="translate(3293.818 74.364)" fill="#c9d6e8"/>
            <path id="Path_5429" data-name="Path 5429" d="M-3120.619-19.246c-.479-2.481-2.879-4.179-5.322-4.829s-5.016-.509-7.527-.8a22.489,22.489,0,0,1-14.572-7.868,33.915,33.915,0,0,0,3.856,7.2,11.413,11.413,0,0,0,6.629,4.493c2.935.571,5.915-.433,8.879-.827S-3122.2-21.783-3120.619-19.246Z" transform="translate(3246.084 78.153)" fill="#c9d6e8"/>
            <path id="Path_5430" data-name="Path 5430" d="M-3162.4,106.148a26.924,26.924,0,0,1-2.106,4.77,5.081,5.081,0,0,1-4.293,2.536c-2.415-.156-3.922-2.565-5.717-4.188a10.412,10.412,0,0,0-10.285-2.033c1.268-1.649,3.682-1.983,5.7-1.5a35.286,35.286,0,0,1,5.721,2.459c1.906.835,4.115,1.366,6.045.588,2.79-1.125,3.873-4.392,5.368-7a17.62,17.62,0,0,1,14.156-8.679A22.772,22.772,0,0,0-3162.4,106.148Z" transform="translate(3264.042 16.679)" fill="#c9d6e8"/>
          </g>
        </g>
      </g>
    </g>
    <g id="Group_2749" data-name="Group 2749" transform="translate(-364.963 250.511)">
      <g id="Group_2746" data-name="Group 2746" transform="translate(0 0)">
        <path id="Path_5459" data-name="Path 5459" d="M-6234.383,21550.74c-7.06,28.418,92.462,204.693,92.462,204.693l-539.385,31.59h-4s-.472-97.406,4-163.238,0-94.887,0-94.887S-6227.321,21522.322-6234.383,21550.74Z" transform="translate(6978.88 -20842.826)" fill="#fff"/>
        <g id="Group_2694" data-name="Group 2694" transform="translate(0 2.251)">
          <path id="Path_5332" data-name="Path 5332" d="M-3063.563,777.478c-1.436-.728-61.923-46.791-88.532-93.352,0,0-16.15-13.216-27.069-11.567s-200.059-57.583-248-87.448-129.681-28.435-129.681-28.435,21.533-25.222,20.467-59.933c-.519-16.761-4.883-37.961-4.883-37.961l-3.288-22.437s21.918-20.617-8.322-48.211a19.3,19.3,0,0,1-5.441-21.6s28.071-54.353,6.961-97.5c-39.107-79.955-128.438-94.055-181.057-91.426-36.023,1.8-56.693,13.222-67.677,22.448-6.666-1.81-20.488,1.724-20.488,1.724l-58.176,14.512s10.458-18.528,27.434-20.889,27.284-1.88,34.641-6.9,3.412-9.264-2.656-12.793c-5.986-3.486-52.64,4.439-53.839,4.643l26.1-8.279-22.244-13.7-106.382,84.2,63.387,26.111,17.024,3.974-16.226,3.6-88.165,34.39-125.151,183.606,4.722,84.036,637.286,206.022,419.268-6.828A.015.015,0,0,1-3063.563,777.478Zm-728.893-241.429c13.2,11.593-9.366,31.567-14.844,32.462s-35.658-12.884-52.677-17.474-104.572-36.167-124.776-41.271-25.377-6.212-25.377-6.212,22.957-22.47,40.146-90.879S-3929.651,311-3929.651,311s40.146-20.161,50.24-27.508c2.806-2.046,4.23-4.108,4.814-6.014l41.549,9.7,44.693,107.522,69.24,148.8S-3805.657,524.461-3792.457,536.049Z" transform="translate(4206.042 -153.268)"/>
          <path id="Path_5333" data-name="Path 5333" d="M-3693.949,353.817c-29.748,30-35,73.484-28.675,99.6s72.323-24.276,72.323-24.276l55.215-101.376-73-12.431Z" transform="translate(4018.315 -226.968)"/>
          <g id="Group_2693" data-name="Group 2693">
            <g id="Group_2692" data-name="Group 2692">
              <path id="Path_5334" data-name="Path 5334" d="M-3894.089,250.645c5.693-27.18,22.85-56.83,32.667-66.62s33.593-29.766,39.163-32.815,29.112-3.43,31.567-.176c0,0,14.218-2.785,22.319,1.891a15.473,15.473,0,0,1,7.957,12.852s35.73.9,43.469,5.417-3.1,11.4-13.442,11.788-29.407-.057-35.772,2.1-26.844,24.461-26.844,24.461,28.508-11.6,41.581-14.243,34.325-2.74,38.845-2.684,4.589,7.232-.809,11.115-33.716,8.207-38.111,10.8-28.713,24.282-33.809,28.949a105.349,105.349,0,0,0-8.786,9.091s10.926-1.215,17.749-6.848,18.3-13.963,28.342-15.137,12.259,4.573.039,14.089-24.151,25.223-42.741,33-52.907,27.116-65.4,35.138-41.484-18.4-48.562-23.275S-3899.013,274.152-3894.089,250.645Z" transform="translate(4103.658 -148.754)" fill="#f9cfcc"/>
              <path id="Path_5335" data-name="Path 5335" d="M-3685.908,179.285c-1.275-.011-2.551-.02-3.823-.015-1.271.025-2.542.065-3.8.186a35.246,35.246,0,0,0-7.427,1.394,32.849,32.849,0,0,0-6.9,3.007c-2.162,1.262-4.246,2.749-6.326,4.2-4.165,2.922-8.273,5.936-12.4,8.93s-8.248,5.992-12.4,8.955q5.853-4.934,11.9-9.617t12.286-9.136c2.109-1.447,4.182-2.927,6.442-4.207a31.607,31.607,0,0,1,7.161-2.927,32.777,32.777,0,0,1,7.625-1.118A60.5,60.5,0,0,1-3685.908,179.285Z" transform="translate(4024.883 -162.92)" fill="#0d0d0c"/>
              <path id="Path_5336" data-name="Path 5336" d="M-3729.847,155.664c-1.857.458-3.7.959-5.492,1.6a48.439,48.439,0,0,0-5.269,2.136,33.454,33.454,0,0,0-4.883,2.824,21.1,21.1,0,0,0-2.177,1.753q-1.028.967-2.026,1.99c-1.34,1.348-2.655,2.729-3.962,4.118l-3.932,4.163q-3.914,4.182-7.917,8.294,3.537-4.52,7.3-8.849c2.509-2.889,5.068-5.73,7.755-8.472q1.013-1.022,2.081-2.008a20.076,20.076,0,0,1,2.3-1.812,30.7,30.7,0,0,1,5.113-2.752A41.6,41.6,0,0,1-3729.847,155.664Z" transform="translate(4037.334 -151.999)" fill="#0d0d0c"/>
              <path id="Path_5337" data-name="Path 5337" d="M-2508.341,1218.285c-1.045,19.22-74.307,45.935-173.275,39.827s-249.147-25.511-249.147-25.511-54.208-178.247-26.72-175.432,104.433,9.486,192.31,34.184,209.823,49.065,209.823,49.065Z" transform="translate(3661.604 -575.255)" fill="#f9cfcc"/>
              <path id="Path_5338" data-name="Path 5338" d="M-2571.649,1142.7c-16,29.073-25.1,152.815-25.1,152.815l-53.131-7.245,4.665-3.623,15.777-144.346,39.578-13.2Z" transform="translate(3510.949 -616.954)"/>
              <path id="Path_5339" data-name="Path 5339" d="M-3928.994,921.818c-80.592-35.134-217.411-89.981-250.525-97.7s-95.288,49.179-92.115,65.87,100.045,92.086,154.8,118.075c122.8,58.289,179.831,68.133,272.905,117.787Z" transform="translate(4275.026 -465.517)" fill="#f9cfcc"/>
              <path id="Path_5340" data-name="Path 5340" d="M-4005.175,855.106c-35.231,7.026-25.406,153.56-25.406,153.56l9.5,5.486,57.379-29.458-19.089-116.237Z" transform="translate(4162.383 -480.399)"/>
              <path id="Path_5341" data-name="Path 5341" d="M-3996.148,366.755c-14.143,17.155-52.2,77.172-73.419,120.569-21.181,43.311-48.589,112.511-103.494,147.634s-98.358,36.273-101.771,26.573-14.3-62.816,43.26-133.478c69.345-85.126,155.743-178.014,163.962-190.814S-3996.148,366.755-3996.148,366.755Z" transform="translate(4277.924 -236.119)" fill="#f9cfcc"/>
              <path id="Path_5342" data-name="Path 5342" d="M-3501.6,854.812l7.976-4.9s19.109-11.94,6.3-61.415-18.051-71.687-18.051-71.687l118.394-12.992s96.921,95.041,69.415,103.888-31.717,18.488-28.459,27.811,14.683,16.709,21.865,19.846,33.57,19.023,33.57,19.023l-44.353,53.852-126.129,6.129-50.552-55.581V857.416Z" transform="translate(3918.132 -409.368)" fill="#f9cfcc"/>
              <path id="Path_5343" data-name="Path 5343" d="M-3383.519,856.935c21.2,24.532,73.464,33.47,100.478,27.736,0,0-12.655,6.4-15.239,12.752s3.126,15.958,8.02,20.705l-7.837,18.249-38.191,19.027-66.5,1.187-7.275-5.775s46.055,1.6,63.51-7.114,11.021-45.875,6.662-49.819-24.909-13.285-33.835-22.211S-3383.519,856.935-3383.519,856.935Z" transform="translate(3870.448 -481.258)" fill="#eab8b7"/>
              <path id="Path_5344" data-name="Path 5344" d="M-3340.825,972.29c-14.167,34.437-116.846,49.33-159.364,17.189l-4.29-8.617-13.28,7.639s8.562,29.136,9.6,29.859,124.917,30.857,124.917,30.857l78.688-41.075-14.062-23.764s-6.667-2.571-13.736-6.214S-3340.825,972.29-3340.825,972.29Z" transform="translate(3921.013 -535.419)"/>
              <path id="Path_5345" data-name="Path 5345" d="M-3894.284,1134.142l19.476,32.615a.027.027,0,0,0,.02.014l2.041,1.656,73.585,59.548,7.256,5.877,431.8,8.014,39.125-234.693c-34.964-6.2-51.388-14.908-103.639-21.493-30.6-3.851-62.929-4.628-62.929-4.628s-25.12,33.057-89.323,34.934-123.808-41.055-123.808-41.055-4.79-.88-14.2-3.294q-1.8-.457-3.812-.993l-.008,0c-10.882-2.88-26.637-7.471-47.087-14.46a79.422,79.422,0,0,0-19.14-3.771,107.56,107.56,0,0,0-23.606.725l-11.3,23.854Z" transform="translate(4097.798 -525.932)" fill="#fff"/>
              <path id="Path_5346" data-name="Path 5346" d="M-2993.587,1072.336c26.543-21.16,38.743-30.446,87.246-18.164,29.989,7.594,114.828,26.215,128.854,28.339s13.032,12.332,13.032,12.332-21.173,2.257-26.173,27.905-.4,63.018-6.6,83.036-11.175,51.177-8.529,65.9-22.853,19.99-34.874,10.2c0,0-22.318-2.285-54.8,1.962s-54.354,3.384-76.882,3.143-37.585-44.466-48.88-84.863S-3022.668,1095.518-2993.587,1072.336Z" transform="translate(3690.013 -571.285)" fill="#fff"/>
              <path id="Path_5347" data-name="Path 5347" d="M-3529.332,1024.018c77.51,77.654,207.225,39.242,230.511,42.408s24.381,20.041,24.381,20.041c-11.654,47.232,4.051,101.82,5.239,105.777-.407-1.824-3.1-14.474-5.12-40.219-1.716-21.921,5.056-41.388,18.708-55.119a64.609,64.609,0,0,1,12.788-9.969c11.362-6.781,48.234-8.461,85.342-7,34.981,1.372,70.173,5.542,84.415,10.849,29.335,10.945,19.019,23.313,22.44,41.015,3.319,17.2,2.1,45.085,2.038,46.649a270.648,270.648,0,0,0,3.809-37.338c.592-20.194.859-41.565,7.973-51.554,6.509-9.159,16.4-5.372,13.833,1.739a30.805,30.805,0,0,1,22.088-16.163s.994-10.212-13.03-12.335-98.865-20.745-128.858-28.339q-3.552-.9-6.853-1.647a.1.1,0,0,0-.046-.005c-4.144-.738-8.028-1.512-11.738-2.307-27.595-5.928-45.822-13.375-91.854-19.18-30.6-3.851-62.93-4.628-62.93-4.628s-25.119,33.057-89.322,34.934c-36.677,1.074-71.862-12.479-95.284-24.3Z" transform="translate(3926.447 -551.571)" fill="#c9d6e8"/>
              <path id="Path_5348" data-name="Path 5348" d="M-3329.86,986.06c-8.965,21.016-50.291,39.328-124.349,31.342s-61.515-34.858-61.515-34.858l7.975-4.9s-6.314-4.725-17.391,1.239-16.05,6.411-16.511,11.849-.222,36.327,76.068,51.265,129.407-9.7,151.2-25.981,14.99-32.38,7.167-35.6S-3336,983.48-3336,983.48Z" transform="translate(3932.259 -537.101)" fill="#c9d6e8"/>
              <path id="Path_5349" data-name="Path 5349" d="M-3291.218,1056.438q-1.221,0-2.4-.033a.8.8,0,0,1-.773-.818.793.793,0,0,1,.818-.773c31.958.887,76.64-16.461,92.181-28.327,15.6-11.911,19.744-19.752,15.845-29.964a.8.8,0,0,1,.459-1.027.8.8,0,0,1,1.027.46c4.212,11.032-.071,19.352-16.366,31.8-8.342,6.37-23.951,13.779-40.736,19.337C-3259.47,1053.149-3277.122,1056.437-3291.218,1056.438Z" transform="translate(3816.139 -546.29)" fill="#0d0d0c"/>
              <path id="Path_5350" data-name="Path 5350" d="M-2907.205,1497.976l-22.182-.417a16.77,16.77,0,0,0,2.321.187C-2920.479,1497.818-2913.956,1497.944-2907.205,1497.976Z" transform="translate(3644.761 -782.042)" fill="#c9d6e8"/>
              <path id="Path_5351" data-name="Path 5351" d="M-2835.776,1051.572c3.71.8,7.595,1.569,11.738,2.307C-2828.23,1052.927-2832.124,1052.158-2835.776,1051.572Z" transform="translate(3600.81 -572.643)" fill="#c9d6e8"/>
              <path id="Path_5352" data-name="Path 5352" d="M-2835.776,1051.572c3.71.8,7.595,1.569,11.738,2.307C-2828.23,1052.927-2832.124,1052.158-2835.776,1051.572Z" transform="translate(3600.81 -572.643)" fill="#c9d6e8"/>
              <path id="Path_5353" data-name="Path 5353" d="M-4029.136,1041.892c-10.121,16.274,7.647,46.482,19.862,41.889,0,0,16.511,3.134,41.625,24.166,10.266,8.594,19.5,15.516,28.118,21.507a.03.03,0,0,0,.021.014c.889.621,1.769,1.224,2.64,1.824l.015,0c11.433,7.809,21.864,14.076,32.368,20.6,9.152,5.691,22.268,1.979,36.878-6.519,15.937-9.251,33.65-24.2,49.938-38.8,31.233-28,58.514-89.121,46.441-124.3-7.889-22.993-12.852-36.892-32.476-48.7-7.785-4.681-17.866-9.029-31.348-13.488-4-1.319-8.961-3.018-14.593-4.979-35.715-12.4-98.107-35.379-109.313-40.338-12.977-5.743-23.964,1.915-23.964,1.915s-2.769.874-6.989,6.546c-.223.294-.449.6-.673.93a.29.29,0,0,0-.054.072l-.285.4a94.237,94.237,0,0,0-9.555,18.9c-9.558,24.319-6.241,63.217-11.761,83.435S-4021.239,1029.181-4029.136,1041.892Z" transform="translate(4162.521 -488.629)" fill="#fff"/>
              <path id="Path_5354" data-name="Path 5354" d="M-3945.94,888.075c-6.716,6.978-10.932,17.891-11.387,34.35s18.7,15.2,52.583,13.891c15.44-.6,37.522-.353,55.308,3.371,21.252,4.448,36.38,13.84,26.761,32.653-17.447,34.12-22.359,81.006-22.482,82.186-.055-.384-.371-2.549-1.944-13-2.21-14.634-3.711-44.661-3.711-44.661-7.467,28.718,1.646,92.287,1.646,92.287s.713,7.1-4.722,16.765-33.967,30.688-47.848,25.383l-.015,0a2.764,2.764,0,0,0-.6-.168l73.586,59.548c-1.012-12.154-2.235-27.066-3.726-45.29q-.39-4.758-.806-9.829c-7-85.549-.864-95.275,5.788-119.152s21.419-64.066,45.729-77.744a48.4,48.4,0,0,1,13.191-5.082,49.037,49.037,0,0,1,20.286-.236c-10.882-2.88-26.637-7.471-47.087-14.459a79.4,79.4,0,0,0-19.14-3.771c-35.715-12.4-98.107-35.379-109.314-40.338-12.977-5.743-23.964,1.915-23.964,1.915s-2.769.874-6.988,6.546C-3950.012,877.461-3939.569,881.452-3945.94,888.075Z" transform="translate(4127.401 -488.629)" fill="#c9d6e8"/>
              <path id="Path_5355" data-name="Path 5355" d="M-3954.457,894.9a2.515,2.515,0,0,0,.285-.4C-3954.266,894.632-3954.362,894.764-3954.457,894.9Z" transform="translate(4126.051 -498.895)" fill="#c9d6e8"/>
            </g>
            <path id="Path_5356" data-name="Path 5356" d="M-4216.376,871.784c-1.772,0-2.785-.012-2.869-.013a.531.531,0,0,1-.523-.538.53.53,0,0,1,.53-.523h.007c.743.012,74.933.852,100.643-12.994a.53.53,0,0,1,.719.215.53.53,0,0,1-.216.719C-4141.121,871.055-4202.375,871.784-4216.376,871.784Z" transform="translate(4250.619 -481.595)" fill="#db8882"/>
            <path id="Path_5357" data-name="Path 5357" d="M-2932.725,1458.251a.792.792,0,0,1-.437-.131c-43.951-28.978-65.933-73.468-66.149-73.914a.8.8,0,0,1,.367-1.064.8.8,0,0,1,1.064.367c.215.442,22.019,44.552,65.594,73.281a.8.8,0,0,1,.226,1.1A.793.793,0,0,1-2932.725,1458.251Z" transform="translate(3677.63 -728.284)" fill="#0d0d0c"/>
            <path id="Path_5358" data-name="Path 5358" d="M-3019.014,1271.268a.794.794,0,0,1-.66-.351c-1.023-1.516-25.1-37.293-28.506-50.125-9.075-34.218-11.969-65.359-8.6-92.559,3.451-27.88,12.254-41.03,14.871-44.4,10.45-13.447,30.246-20.963,31.084-21.276a.8.8,0,0,1,1.023.466.8.8,0,0,1-.466,1.024c-.2.075-20.215,7.677-30.385,20.763-2.553,3.285-11.146,16.139-14.547,43.616-3.341,27-.461,57.935,8.562,91.955,3.335,12.574,28.038,49.274,28.286,49.643a.8.8,0,0,1-.213,1.1A.793.793,0,0,1-3019.014,1271.268Z" transform="translate(3705.215 -577.779)" fill="#0d0d0c"/>
            <path id="Path_5359" data-name="Path 5359" d="M-3722.764,1271.278a.8.8,0,0,1-.791-.714c-.5-4.856-12.206-119.136-9.434-137.409,2.712-17.881,15.658-65.655,33.3-95.064a.8.8,0,0,1,1.092-.273.8.8,0,0,1,.273,1.092c-17.525,29.22-30.391,76.708-33.088,94.484-2.742,18.074,9.321,135.821,9.444,137.008a.8.8,0,0,1-.71.873A.721.721,0,0,1-3722.764,1271.278Z" transform="translate(4022.266 -566.132)" fill="#0d0d0c"/>
            <path id="Path_5360" data-name="Path 5360" d="M-3742,1203.14a.8.8,0,0,1-.776-.625c-.883-4.01-21.533-98.461-12.586-121.059a.8.8,0,0,1,1.032-.447.794.794,0,0,1,.447,1.032c-8.768,22.15,12.446,119.154,12.661,120.131a.8.8,0,0,1-.6.948A.821.821,0,0,1-3742,1203.14Z" transform="translate(4033.625 -586.439)" fill="#0d0d0c"/>
          </g>
        </g>
        <g id="Group_2700" data-name="Group 2700" transform="translate(592.277)">
          <g id="Group_2695" data-name="Group 2695" transform="translate(22.633 0)">
            <circle id="Ellipse_206" data-name="Ellipse 206" cx="231.008" cy="231.008" r="231.008"/>
          </g>
          <g id="Group_2699" data-name="Group 2699" transform="translate(0 26.328)">
            <g id="Group_2696" data-name="Group 2696" transform="translate(16.422)">
              <circle id="Ellipse_207" data-name="Ellipse 207" cx="222.598" cy="222.598" r="222.598" fill="#fff"/>
            </g>
            <path id="Path_5361" data-name="Path 5361" d="M-3147.946,492.845c6.162,4.273,15.444,1.2,24.365-23.418s-1.17-63.368-1.17-63.368L-3161.435,452Z" transform="translate(3161.435 -293.641)"/>
            <g id="Group_2697" data-name="Group 2697" transform="translate(43.531 27.11)" opacity="0.5">
              <circle id="Ellipse_208" data-name="Ellipse 208" cx="195.488" cy="195.488" r="195.488" fill="#c9d6e8"/>
            </g>
            <g id="Group_2698" data-name="Group 2698" transform="translate(4.152 20.634)">
              <path id="Path_5362" data-name="Path 5362" d="M-2857.619,963.354a.785.785,0,0,1-.278-.05c-5.331-1.988-10.656-4.234-15.83-6.676a.8.8,0,0,1-.38-1.059.8.8,0,0,1,1.06-.38c5.133,2.423,10.417,4.651,15.706,6.624a.8.8,0,0,1,.467,1.023A.8.8,0,0,1-2857.619,963.354Z" transform="translate(3022.414 -572.065)" fill="#0d0d0c"/>
              <path id="Path_5363" data-name="Path 5363" d="M-2889.766,636.966q-10.009,0-20-1a.8.8,0,0,1-.712-.871.793.793,0,0,1,.872-.712A200.721,200.721,0,0,0-2708.492,520.5a199.008,199.008,0,0,0,7.4-153.142A199.015,199.015,0,0,0-2804.15,253.843c-99.891-47.146-219.515-4.234-266.661,95.658a199.213,199.213,0,0,0-8.159,150.983.8.8,0,0,1-.492,1.012.8.8,0,0,1-1.012-.492,200.8,200.8,0,0,1,8.224-152.182,200.662,200.662,0,0,1,47.9-64.3,201.244,201.244,0,0,1,66.525-39.571,201.222,201.222,0,0,1,76.51-11.738,200.648,200.648,0,0,1,77.849,19.2,200.654,200.654,0,0,1,64.3,47.9,201.239,201.239,0,0,1,39.572,66.526,201.239,201.239,0,0,1,11.739,76.51,200.648,200.648,0,0,1-19.2,77.849,200.493,200.493,0,0,1-84.419,90.274A202.776,202.776,0,0,1-2848.5,632.69,201.675,201.675,0,0,1-2889.766,636.966Z" transform="translate(3124.519 -233.038)" fill="#0d0d0c"/>
              <path id="Path_5364" data-name="Path 5364" d="M-3112.093,726.438c5.9-9.532-3.044-61.565-3.6-63.226s12.455-16.883,5.813-23.249-28.086-25.417-33.213-33.433-10.517,7.14-10.517,7.14l2.214,51.645Z" transform="translate(3153.609 -407.301)"/>
            </g>
          </g>
        </g>
        <path id="Path_5365" data-name="Path 5365" d="M-2201.345,850.119c-30.692,28.687-75.821,37.826-77.176,16.171a.017.017,0,0,1,0-.011c-.484-1.47-71.554-88.369-38.061-231.1l12.015-87.352-12.788-67.771-42.543-68.26-2.558-9.46c5.668-.46,24.752,15.082,28.13,20.639s7.24,5.094,6.823,4.33-8.3-31.36-8.3-31.36l-30.488-33.35-3.543-6.566s25.656,10.247,35.968,16.124,26.193,17.431,26.193,17.431l-6.287-17.475-40.114-31.735,45.049,11.895,1.193-13.621s43.232,5.223,49.4,9.863,33.211,31.762,41.756,59.363-7.2,56.784-7.09,93.624,7.644,64.078,26.766,173.287C-2179.453,774.989-2170.653,821.424-2201.345,850.119Z" transform="translate(3382.043 -235.661)"/>
        <g id="Group_2701" data-name="Group 2701" transform="translate(998.222 97.672)">
          <path id="Path_5366" data-name="Path 5366" d="M-2250.68,475.312c6.279-27.052,3.2-61.169-1.582-74.181s-17.938-41.143-21.707-46.254-24.961-15.368-28.558-13.45c0,0-11.725-8.512-21.041-7.681a15.475,15.475,0,0,0-12.629,8.307s-32.788-14.226-41.709-13.388-1.989,11.644,7.229,16.353,26.7,12.33,31.564,16.964,14.05,33.489,14.05,33.489-20.975-22.524-31.72-30.425-29.979-16.938-34.1-18.789-7.208,4.627-3.946,10.422,27.126,21.639,30.02,25.845,15.821,34.114,18.479,40.492a105.537,105.537,0,0,1,4.141,11.946s-9.4-5.7-13.214-13.684-10.721-20.37-19.336-25.663-13.045-1.014-5.966,12.763,11.287,33.046,24.876,47.924,36.573,46.87,44.531,59.408,45.376.772,53.846-.667S-2256.11,498.706-2250.68,475.312Z" transform="translate(2396.198 -328.63)" fill="#f9cfcc"/>
          <path id="Path_5367" data-name="Path 5367" d="M-2268.072,361.03a29.409,29.409,0,0,1,5.524,4.2,57.659,57.659,0,0,1,4.746,5.092c1.488,1.781,2.893,3.63,4.231,5.526s2.609,3.835,3.806,5.832c2.336,4.009,4.618,8,6.871,12.041s4.447,8.1,6.576,12.2q-3.757-5.829-7.323-11.774c-2.379-3.956-4.733-7.951-7.027-11.936a114.951,114.951,0,0,0-7.752-11.391c-1.417-1.809-2.886-3.58-4.472-5.245A32.817,32.817,0,0,0-2268.072,361.03Z" transform="translate(2336.041 -343.842)" fill="#0d0d0c"/>
          <path id="Path_5368" data-name="Path 5368" d="M-2215.7,358.989l1.115,1.043c.381.343.7.74,1.052,1.109s.7.747,1.026,1.135l.986,1.168q1.946,2.357,3.741,4.831c2.413,3.28,4.694,6.653,6.907,10.067,2.194,3.426,4.332,6.889,6.361,10.414a113.471,113.471,0,0,1,5.643,10.822c-1-1.771-2.05-3.508-3.127-5.229l-3.224-5.166c-2.17-3.431-4.34-6.86-6.544-10.267s-4.424-6.8-6.69-10.166c-.566-.841-1.135-1.68-1.719-2.508s-1.151-1.671-1.757-2.482l-.888-1.235c-.3-.411-.619-.8-.928-1.2C-2214.356,360.508-2215.038,359.764-2215.7,358.989Z" transform="translate(2311.452 -342.884)" fill="#0d0d0c"/>
          <path id="Path_5369" data-name="Path 5369" d="M-2300.581,633.628c9.637,16.746,7.806,94.57-4.9,141.079s-47.285,138.859-20.708,198.371,88.321,66.194,96.5,59.965,51.1-62.628,37.19-135.295c-20.638-107.839-32.324-234.308-32.158-249.517S-2300.581,633.628-2300.581,633.628Z" transform="translate(2367.923 -471.83)" fill="#f9cfcc"/>
        </g>
        <g id="Group_2709" data-name="Group 2709" transform="translate(295.684 65.797)">
          <path id="Path_5398" data-name="Path 5398" d="M-3367.857,635.688a46.586,46.586,0,0,1-7.331,6.035,49.875,49.875,0,0,1-12.719,5.773h-.01c-.573.177-1.162.353-1.772.519q-1.879.57-3.582,1.172c-32.66,9.339-79.223-11.422-126.1-39.1-.632-1.676-37.032,15.939-37.808,14.322,0,0-46.16-16.07-80.389-62.144s-28.14-158.406,51.124-189.5,168.564,4.043,193.176,66.139c4.953,12.5,5.461,33.168,6.062,41.078s-2.619,11.808,2.384,19.969,21.591,19.122,24.809,23.074-5.618,15.524-5.618,15.524,2.881,20.9,6.753,45.068S-3360.371,628.384-3367.857,635.688Z" transform="translate(3690.866 -312.073)" fill="#f9cfcc"/>
          <path id="Path_5399" data-name="Path 5399" d="M-3163.877,539.968c-5.78,22.856-23.719,33.871-29.283,33.786s.736-5.657,4.251-17.536,2.757-41.782,2.757-41.782l13.717-12.009Z" transform="translate(3473.959 -378.356)"/>
          <path id="Path_5400" data-name="Path 5400" d="M-3272.066,898.481c-25.88,0-54.973-15.307-55.273-15.467a.53.53,0,0,1-.219-.717.53.53,0,0,1,.717-.219c.305.162,30.871,16.244,56.993,15.3a.534.534,0,0,1,.549.511.53.53,0,0,1-.51.549C-3270.557,898.468-3271.312,898.481-3272.066,898.481Z" transform="translate(3536.055 -556.579)" fill="#db8882"/>
          <path id="Path_5401" data-name="Path 5401" d="M-3499.918,614.567c.178,25.782-24.289,63.532-28.671,94.885s.3,43.607.3,43.607a71.435,71.435,0,0,1-49.552,5.292s-47.44-20.262-72.073-47.032-53.725-74.036-53.725-74.036Z" transform="translate(3712.604 -431.007)" fill="#c95380"/>
          <path id="Path_5402" data-name="Path 5402" d="M-3415.289,467.037c5.116,16.987,9.426,37.5-12.711,54.966s-22.725,23.386-20.312,26.715,1.565,10.429-7.789,1.217-4.951-22.2-4.951-22.2,3.381,5.59-8.209,12.7-51.031,36.213-63.321,49S-3540.417,571-3540.417,571l-4.124,34.956-13.072,13.772-11.3-22.829-56.311-4.588s-5.225,4.1-4.812,4.316,1.044,5.539-2.495,11.614l-10.594-19.691,26.2-51.276,188.486-111.2Z" transform="translate(3684.192 -342.508)"/>
          <path id="Path_5403" data-name="Path 5403" d="M-3646.035,312.764c6.025-24.4,58.568-52.794,109.876-41.777s66.864,12.719,86.592,25.143,21.213,7.4,19.868,3.635,3.988-2.326,4.531,4.779a7.482,7.482,0,0,1-5.89,8.3s22.543,19.564,29.978,38.08.54,57.447-3.57,66.5-4.692,2.9-4.652-4.1-1.677-27.68-13.284-41.412c0,0,8.326,30.674,1.339,52.155s-31.451,37.666-30.235,30.917,5.1-23.889,2.232-37.376-26.18-40.494-26.18-40.494,18.3,17.309,10.651,42.921c-2.588,8.671-5.479,23.6-22.068,35.468s-17.073,27.567-13.679,32.335-4.5,3.919-8.282-4.571-3.829-17.629,1.174-25.98c0,0-46.612,33.184-56.221,50.58s-10.992,18.186-11.273,26.014-6.37.514-6.145-8.947c0,0-8.872,14.667-12.7,22.834s-17.069,2.512-16.9-4.894a4.971,4.971,0,0,1-2.948,4.85c-3.389,1.816-16.227-5.259-16.227-5.259s9.336,7.623,2.954,9.188-16.713-.9-45.094-31.714c0,0,5.918,11.882,2.069,18.727s-6.043,4.918-5.819-2.118-9.863-11.86-26.993-32.678c-13.979-16.989-28.566-86.736-5.565-129.31,15.589-28.852,50.059-49.283,50.059-49.283a24.416,24.416,0,0,1,2.283-21.716c7.024-10.748,22.049-15.852,19.4-12.682C-3646.589,302.633-3646.035,312.764-3646.035,312.764Z" transform="translate(3720.538 -268.542)" fill="#ed759d"/>
          <path id="Path_5404" data-name="Path 5404" d="M-3419.5,350.935c1.916,3.568,3.775,7.171,5.487,10.847.445.911.851,1.84,1.274,2.762s.848,1.844,1.24,2.78l1.2,2.8,1.124,2.832c1.457,3.791,2.813,7.63,3.943,11.545a109.531,109.531,0,0,1,2.752,11.917,84.342,84.342,0,0,1,.679,24.471,83.845,83.845,0,0,1-2.381,12.053,96.936,96.936,0,0,1-4.04,11.583,118.5,118.5,0,0,1-5.309,11.027l-2.924,5.321c-.494.877-.942,1.778-1.4,2.672s-.936,1.783-1.361,2.7a168.357,168.357,0,0,0-9.1,22.37,177.939,177.939,0,0,0-5.966,23.446,145.219,145.219,0,0,0-2.48,24.1,134.469,134.469,0,0,1,1.664-24.238,165.694,165.694,0,0,1,5.42-23.74,166.006,166.006,0,0,1,8.838-22.728c.422-.927.9-1.826,1.35-2.739s.9-1.824,1.394-2.717l2.863-5.356c1.859-3.565,3.58-7.2,5.116-10.9a90.657,90.657,0,0,0,6.269-23.1,86.211,86.211,0,0,0-.4-23.929,111.4,111.4,0,0,0-2.44-11.8q-1.564-5.83-3.558-11.55c-1.329-3.809-2.791-7.578-4.339-11.314l-1.181-2.794-1.228-2.774C-3417.807,354.613-3418.669,352.782-3419.5,350.935Z" transform="translate(3587.331 -307.227)" fill="#fff"/>
          <path id="Path_5405" data-name="Path 5405" d="M-3501.89,323.132a18.135,18.135,0,0,1,2.941,6.977,31.115,31.115,0,0,1,.479,7.614,73.864,73.864,0,0,1-2.63,15.015c-1.327,4.91-2.95,9.726-4.645,14.507s-3.5,9.52-5.308,14.252c-3.6,9.47-7.333,18.876-10.662,28.416a260.283,260.283,0,0,0-8.58,29c-1.1,4.911-2.032,9.861-2.646,14.846a108.6,108.6,0,0,0-.8,15.018,160.637,160.637,0,0,0,3.4,29.962,222.492,222.492,0,0,0,8.1,29.163,220.715,220.715,0,0,0,11.707,27.974c-1.265-2.195-2.449-4.435-3.6-6.7s-2.21-4.562-3.264-6.868c-2.087-4.622-4.047-9.3-5.841-14.051a223.408,223.408,0,0,1-8.72-29.178c-1.112-4.963-2.007-9.978-2.648-15.032a142.85,142.85,0,0,1-1.157-15.245,110.133,110.133,0,0,1,.758-15.3,149.1,149.1,0,0,1,2.648-15.059,253.227,253.227,0,0,1,8.767-29.2c3.451-9.549,7.226-18.959,11.041-28.337,3.773-9.39,7.579-18.776,10.466-28.448a73.189,73.189,0,0,0,3.061-14.772,31.047,31.047,0,0,0-.236-7.522A17.992,17.992,0,0,0-3501.89,323.132Z" transform="translate(3633.791 -294.173)" fill="#fff"/>
          <path id="Path_5406" data-name="Path 5406" d="M-3636.576,380.479c-11.957,11.266-22.767,23.82-30.937,37.988a120.935,120.935,0,0,0-10.024,22.271,113.623,113.623,0,0,0-3.225,11.779q-1.285,5.972-1.98,12.054a144.31,144.31,0,0,0-.543,24.454c.035,1.023.132,2.041.2,3.061s.134,2.041.232,3.059c.2,2.034.378,4.073.646,6.1.466,4.063,1.119,8.1,1.925,12.11a118.3,118.3,0,0,0,7.115,23.43,80.456,80.456,0,0,0,5.655,10.884,59.8,59.8,0,0,0,3.514,5.039,34.348,34.348,0,0,0,4.136,4.549,34.421,34.421,0,0,1-4.357-4.368,55.318,55.318,0,0,1-3.72-4.94,81.09,81.09,0,0,1-6.082-10.779,101.444,101.444,0,0,1-4.533-11.532,118.1,118.1,0,0,1-3.243-11.963c-.888-4.036-1.621-8.108-2.166-12.2-.309-2.044-.5-4.1-.727-6.155-.111-1.027-.178-2.058-.269-3.086s-.188-2.058-.234-3.09c-.258-4.119-.449-8.257-.378-12.4s.3-8.281.749-12.4a114.217,114.217,0,0,1,5.351-24.252,106.844,106.844,0,0,1,4.648-11.529,122.757,122.757,0,0,1,5.832-10.964c2.152-3.536,4.463-6.968,6.9-10.306q3.721-4.958,7.8-9.614c2.757-3.069,5.59-6.066,8.564-8.915,1.461-1.451,2.987-2.834,4.5-4.229S-3638.123,381.831-3636.576,380.479Z" transform="translate(3704.128 -321.099)" fill="#fff"/>
          <path id="Path_5407" data-name="Path 5407" d="M-3614.833,491.038l-1.245-4.012c-.352-1.356-.656-2.724-.987-4.089-.3-1.371-.516-2.758-.778-4.139-.141-.69-.218-1.387-.311-2.084l-.272-2.091a105.181,105.181,0,0,1-.458-16.854A134.782,134.782,0,0,1-3616.974,441c.992-5.539,2.294-11.018,3.812-16.431q2.334-8.1,5.351-15.986c2.041-5.235,4.261-10.4,6.77-15.428a152.147,152.147,0,0,1,8.246-14.68,82.889,82.889,0,0,1,10.287-13.281l-1.329,1.623c-.442.539-.843,1.115-1.265,1.669s-.834,1.117-1.231,1.692-.812,1.134-1.192,1.718c-.761,1.169-1.539,2.324-2.252,3.523-.361.6-.733,1.185-1.085,1.786l-1.042,1.812c-2.789,4.824-5.308,9.8-7.641,14.854-2.309,5.066-4.474,10.2-6.385,15.425-1.937,5.216-3.683,10.5-5.189,15.855a165.833,165.833,0,0,0-6.117,32.72,117.718,117.718,0,0,0-.158,16.657l.152,2.081c.053.694.09,1.39.191,2.079.182,1.379.318,2.768.538,4.144.25,1.37.481,2.746.749,4.117Z" transform="translate(3672.878 -313.924)" fill="#fff"/>
          <path id="Path_5408" data-name="Path 5408" d="M-3314.448,492.128c-.012-3.215.071-6.415.148-9.611l-.008-9.584c-.18-6.379-.317-12.755-.958-19.089a156.862,156.862,0,0,0-2.668-18.88c-.3-1.561-.718-3.095-1.053-4.652-.19-.772-.409-1.535-.613-2.3s-.4-1.541-.655-2.295l-.7-2.283-.793-2.255a42.845,42.845,0,0,0-1.887-4.4,31.666,31.666,0,0,1,2.426,4.172l1.021,2.192.92,2.238c.318.744.564,1.51.834,2.271s.54,1.522.788,2.29l.682,2.322c.215.777.472,1.546.646,2.333.375,1.568.784,3.132,1.1,4.713l.893,4.756c.448,3.192.932,6.385,1.173,9.6l.2,2.409c.069.8.134,1.606.154,2.41l.189,4.826c.076,1.608.037,3.218.025,4.826s-.038,3.216-.071,4.823c-.146,3.212-.375,6.419-.606,9.62C-3313.632,485.763-3313.993,488.953-3314.448,492.128Z" transform="translate(3534.187 -338.138)" fill="#fff"/>
          <path id="Path_5409" data-name="Path 5409" d="M-3254.022,384.308a120.386,120.386,0,0,0-16-20.988l-2.329-2.33c-.784-.767-1.514-1.589-2.351-2.3l-2.443-2.205c-.818-.729-1.609-1.491-2.483-2.155l-2.555-2.07c-.851-.691-1.687-1.4-2.592-2.022l-2.665-1.927c-.887-.645-1.768-1.3-2.705-1.867l-2.758-1.792-1.379-.9c-.455-.3-.946-.554-1.417-.833l-2.854-1.635-1.427-.818c-.473-.278-.975-.5-1.458-.76l-2.933-1.5c-.978-.5-1.948-1.014-2.962-1.434l-3.013-1.332c-1-.446-1.994-.927-3.03-1.3a148.086,148.086,0,0,0-25.3-7.621,109.691,109.691,0,0,1,25.9,6.076c1.063.336,2.084.785,3.118,1.2l3.09,1.279c1.04.4,2.037.9,3.042,1.388l3.015,1.452c1.019.459,1.983,1.021,2.954,1.57l2.917,1.642c.482.281.982.531,1.449.838l1.41.9,2.821,1.806c.949.587,1.843,1.259,2.742,1.921l2.7,1.983c.916.64,1.763,1.368,2.624,2.079l2.574,2.142c.873.7,1.662,1.489,2.478,2.25l2.433,2.3c.832.745,1.563,1.591,2.333,2.4l2.275,2.452A94.177,94.177,0,0,1-3254.022,384.308Z" transform="translate(3541.249 -295.768)" fill="#fff"/>
        </g>
        <path id="Path_5587" data-name="Path 5587" d="M295.684,717.641S287.617,897.659,331.5,903.348s372.228,2.439,408.8-17.067,38.2-88.587,38.2-88.587l56.891,114.594L290.868,945.61Z" fill="#d6dce6"/>
      </g>
      <g id="Group_2814" data-name="Group 2814" transform="translate(-187.96 -194.713)">
        <g id="Group_2827" data-name="Group 2827" transform="translate(842.609 350.696)">
          <g id="Group_2807" data-name="Group 2807" transform="translate(37.964 0)">
            <path id="Path_6173" data-name="Path 6173" d="M980.411,386.635a5.93,5.93,0,0,1-2.257-.407,3.444,3.444,0,0,1-1.591-1.282,4,4,0,0,1-.592-2.281,3.743,3.743,0,0,1,1.258-2.972,5.733,5.733,0,0,1,3.847-1.1h4.365v-1.036a3.987,3.987,0,0,0-.333-1.788,1.929,1.929,0,0,0-1.147-.937,7.164,7.164,0,0,0-2.268-.284,15.927,15.927,0,0,0-2.183.148,11.206,11.206,0,0,0-2.084.493v-1.677a12.552,12.552,0,0,1,2.158-.506,16.558,16.558,0,0,1,2.479-.185,11.194,11.194,0,0,1,1.209.062,7.915,7.915,0,0,1,1.061.185h4.242l-.1,1.652H986.7a3.531,3.531,0,0,1,.592,1.307,7.451,7.451,0,0,1,.172,1.677v8.681h-2.022v-6.116H981.2a4.339,4.339,0,0,0-2.466.555,2.088,2.088,0,0,0-.789,1.837,1.976,1.976,0,0,0,.715,1.751,4.125,4.125,0,0,0,2.294.493,6.342,6.342,0,0,0,1.677-.2v1.677q-.42.1-.986.173A9.639,9.639,0,0,1,980.411,386.635Z" transform="translate(-920.247 -366.831)"/>
            <path id="Path_6174" data-name="Path 6174" d="M996.324,412.324v-3.231H994.7l.1-1.381h3.28v4.612Z" transform="translate(-930.857 -386.6)"/>
            <path id="Path_6175" data-name="Path 6175" d="M1013.455,386.635a5.271,5.271,0,0,1-2.737-.715,4.814,4.814,0,0,1-1.9-2.207,9.238,9.238,0,0,1-.691-3.86,7.606,7.606,0,0,1,1.628-5.142,6.291,6.291,0,0,1,5.031-1.887,7.176,7.176,0,0,1,3.515.752,4.7,4.7,0,0,1,1.96,1.961,5.624,5.624,0,0,1,.617,2.59v8.262h-2.022v-8.237a4.194,4.194,0,0,0-.394-1.85,2.838,2.838,0,0,0-1.3-1.282,5.3,5.3,0,0,0-2.429-.469,4.172,4.172,0,0,0-3.527,1.381,8.269,8.269,0,0,0-.136,7.855,3.326,3.326,0,0,0,2.725,1.122,8.471,8.471,0,0,0,.925-.049,4.183,4.183,0,0,0,.777-.148v1.677A7.185,7.185,0,0,1,1013.455,386.635Z" transform="translate(-938.468 -366.831)"/>
            <path id="Path_6176" data-name="Path 6176" d="M1044.041,386.388V373.071h1.825l.123,1.6a7.749,7.749,0,0,1,2.109-1.344,6.965,6.965,0,0,1,2.775-.506,4.284,4.284,0,0,1,3.28,1.233,4.957,4.957,0,0,1,1.159,3.527v8.8h-2.022v-8.78a3.091,3.091,0,0,0-.764-2.343,3.374,3.374,0,0,0-2.368-.715,4.939,4.939,0,0,0-2.305.53,6.858,6.858,0,0,0-1.788,1.319v9.988Z" transform="translate(-958.819 -366.831)"/>
            <path id="Path_6177" data-name="Path 6177" d="M1055.437,363.279v-2.318h-1.948v-1.455h3.4v2.318h5.4l-.1,1.455Z" transform="translate(-964.173 -359.284)"/>
            <path id="Path_6178" data-name="Path 6178" d="M1080.278,386.388v-8.607a6.293,6.293,0,0,0-.222-1.825,1.724,1.724,0,0,0-.9-1.061,4.731,4.731,0,0,0-2.059-.345,9.4,9.4,0,0,0-1.714.173,9.544,9.544,0,0,0-1.69.468v-1.677a9.835,9.835,0,0,1,1.751-.493,10.558,10.558,0,0,1,2.022-.2,5.128,5.128,0,0,1,3.687,1.122,4.885,4.885,0,0,1,1.147,3.613v8.829Z" transform="translate(-975.622 -366.831)"/>
            <path id="Path_6179" data-name="Path 6179" d="M1104.776,386.635a8.138,8.138,0,0,1-4.279-.975,3.337,3.337,0,0,1-1.591-3.07,3.475,3.475,0,0,1,.53-1.961,3.187,3.187,0,0,1,1.492-1.2,2.834,2.834,0,0,1-1.394-.986,3.017,3.017,0,0,1-.555-1.9,3.436,3.436,0,0,1,1.11-2.8,4.28,4.28,0,0,1,2.836-.925,7.976,7.976,0,0,1,1.159.074,5.946,5.946,0,0,1,.888.2v1.677a3.115,3.115,0,0,0-.764-.173,8.369,8.369,0,0,0-.913-.049,2.65,2.65,0,0,0-1.69.481,2.164,2.164,0,0,0,.111,3.108,3.178,3.178,0,0,0,1.874.505H1105l.124,1.529h-1.6a2.683,2.683,0,0,0-1.949.629,2.39,2.39,0,0,0-.641,1.788q0,2.319,3.774,2.318a4.649,4.649,0,0,0,2.849-.727,2.751,2.751,0,0,0,.95-2.331v-8.78h2.022V381.5a5.025,5.025,0,0,1-1.381,3.811A6.148,6.148,0,0,1,1104.776,386.635Z" transform="translate(-989.909 -366.831)"/>
            <path id="Path_6180" data-name="Path 6180" d="M1136.735,386.635a5.819,5.819,0,0,1-4.008-1.246,4.531,4.531,0,0,1-1.393-3.564v-1.8a3.01,3.01,0,0,1,.345-1.406,7.808,7.808,0,0,1,.814-1.258q.469-.592.814-1.11a1.761,1.761,0,0,0,.345-.962q0-.419-.184-.53a1.3,1.3,0,0,0-.629-.111h-1.775l.172-1.578h2.737a1.493,1.493,0,0,1,1.7,1.677,3.228,3.228,0,0,1-.345,1.5,8.886,8.886,0,0,1-.814,1.282,10.691,10.691,0,0,0-.814,1.233,2.676,2.676,0,0,0-.345,1.332v1.948a2.534,2.534,0,0,0,.913,2.2,4.1,4.1,0,0,0,2.466.666,4.207,4.207,0,0,0,2.5-.666,2.578,2.578,0,0,0,.925-2.245v-1.7a2.943,2.943,0,0,0-.444-1.887,2.1,2.1,0,0,0-1.628-.506h-.691l.1-1.6h.543a1.984,1.984,0,0,0,1.689-.591,3.061,3.061,0,0,0,.432-1.8v-1.085h2.022v1.06a5.107,5.107,0,0,1-.345,2.01,2.315,2.315,0,0,1-1.48,1.2,2.339,2.339,0,0,1,1.517,1.258,5.67,5.67,0,0,1,.308,2V381.8a4.49,4.49,0,0,1-1.443,3.576A5.9,5.9,0,0,1,1136.735,386.635Z" transform="translate(-1008.132 -366.831)"/>
            <path id="Path_6181" data-name="Path 6181" d="M1152.064,362.989v-4h2.022v4Z" transform="translate(-1020.032 -358.993)"/>
            <path id="Path_6182" data-name="Path 6182" d="M1165.8,386.635a9.355,9.355,0,0,1-3.724-.691v-1.7a9.2,9.2,0,0,0,1.566.481,7.923,7.923,0,0,0,1.69.185,6.2,6.2,0,0,0,2.836-.53,2.962,2.962,0,0,0,1.431-1.665,8.786,8.786,0,0,0,.419-2.984,5.887,5.887,0,0,0-1.085-3.971,4.752,4.752,0,0,0-3.675-1.209,7.729,7.729,0,0,0-1.653.173,7.3,7.3,0,0,0-1.529.518v-1.726A7.6,7.6,0,0,1,1163.7,373a10.105,10.105,0,0,1,1.985-.172,6.114,6.114,0,0,1,4.8,1.751,7.508,7.508,0,0,1,1.566,5.155,8.03,8.03,0,0,1-1.43,5.105Q1169.183,386.635,1165.8,386.635Z" transform="translate(-1025.708 -366.831)"/>
            <path id="Path_6183" data-name="Path 6183" d="M1195.156,386.635a8.139,8.139,0,0,1-4.279-.975,3.337,3.337,0,0,1-1.59-3.07,3.47,3.47,0,0,1,.53-1.961,3.19,3.19,0,0,1,1.492-1.2,2.831,2.831,0,0,1-1.393-.986,3.015,3.015,0,0,1-.555-1.9,3.435,3.435,0,0,1,1.11-2.8,4.28,4.28,0,0,1,2.836-.925,7.975,7.975,0,0,1,1.159.074,5.934,5.934,0,0,1,.888.2v1.677a3.105,3.105,0,0,0-.764-.173,8.378,8.378,0,0,0-.913-.049,2.65,2.65,0,0,0-1.69.481,2.165,2.165,0,0,0,.111,3.108,3.176,3.176,0,0,0,1.874.505h1.406l.124,1.529h-1.6a2.683,2.683,0,0,0-1.948.629,2.39,2.39,0,0,0-.642,1.788q0,2.319,3.774,2.318a4.646,4.646,0,0,0,2.848-.727,2.75,2.75,0,0,0,.95-2.331v-8.78h2.023V381.5a5.026,5.026,0,0,1-1.381,3.811A6.15,6.15,0,0,1,1195.156,386.635Z" transform="translate(-1041.125 -366.831)"/>
            <path id="Path_6184" data-name="Path 6184" d="M1222.231,386.388v-5.4a3.393,3.393,0,0,1,.469-1.788,2.555,2.555,0,0,1,1.529-1.1l-2.787-.641v-2.367a9.283,9.283,0,0,1,2.5-1.566,8.935,8.935,0,0,1,3.687-.7,6.716,6.716,0,0,1,4.377,1.221,4.74,4.74,0,0,1,1.468,3.86v8.484h-2.022V377.83a3.191,3.191,0,0,0-.863-2.565,4.7,4.7,0,0,0-2.96-.715,8.422,8.422,0,0,0-2.577.383,4.485,4.485,0,0,0-1.837,1.024v.518l2.885.691v1.529a2.684,2.684,0,0,0-1.393.777,2.34,2.34,0,0,0-.456,1.566v5.352Z" transform="translate(-1059.346 -366.831)"/>
            <path id="Path_6185" data-name="Path 6185" d="M1259.892,386.635a5.273,5.273,0,0,1-2.737-.715,4.819,4.819,0,0,1-1.9-2.207,9.244,9.244,0,0,1-.691-3.86,7.605,7.605,0,0,1,1.628-5.142,6.291,6.291,0,0,1,5.031-1.887,7.173,7.173,0,0,1,3.514.752,4.7,4.7,0,0,1,1.96,1.961,5.617,5.617,0,0,1,.617,2.59v8.262h-2.022v-8.237a4.187,4.187,0,0,0-.394-1.85,2.834,2.834,0,0,0-1.295-1.282,5.3,5.3,0,0,0-2.429-.469,4.171,4.171,0,0,0-3.526,1.381,8.268,8.268,0,0,0-.136,7.855,3.326,3.326,0,0,0,2.725,1.122,8.466,8.466,0,0,0,.925-.049,4.181,4.181,0,0,0,.777-.148v1.677A7.185,7.185,0,0,1,1259.892,386.635Z" transform="translate(-1078.116 -366.831)"/>
            <path id="Path_6186" data-name="Path 6186" d="M1292.748,386.711a2.154,2.154,0,0,1-1.665-.653,2.422,2.422,0,0,1-.6-1.714v-10.95h2.022V383.85q0,1.209,1.159,1.209h1.159v1.652Zm5.648,0a2.154,2.154,0,0,1-1.665-.653,2.423,2.423,0,0,1-.6-1.714v-10.95h2.022V383.85q0,1.209,1.16,1.209h1.158v1.652Z" transform="translate(-1098.468 -367.153)"/>
            <path id="Path_6187" data-name="Path 6187" d="M1323.413,386.635a5.82,5.82,0,0,1-4.008-1.246,4.531,4.531,0,0,1-1.394-3.564v-1.8a3.01,3.01,0,0,1,.345-1.406,7.749,7.749,0,0,1,.814-1.258q.468-.592.814-1.11a1.764,1.764,0,0,0,.345-.962q0-.419-.184-.53a1.3,1.3,0,0,0-.629-.111h-1.776l.173-1.578h2.738a1.494,1.494,0,0,1,1.7,1.677,3.229,3.229,0,0,1-.345,1.5,8.886,8.886,0,0,1-.814,1.282,10.611,10.611,0,0,0-.814,1.233,2.676,2.676,0,0,0-.345,1.332v1.948a2.533,2.533,0,0,0,.913,2.2,4.1,4.1,0,0,0,2.466.666,4.2,4.2,0,0,0,2.5-.666,2.578,2.578,0,0,0,.925-2.245v-1.7a2.947,2.947,0,0,0-.444-1.887,2.105,2.105,0,0,0-1.628-.506h-.691l.1-1.6h.542a1.984,1.984,0,0,0,1.689-.591,3.06,3.06,0,0,0,.432-1.8v-1.085h2.022v1.06a5.1,5.1,0,0,1-.345,2.01,2.314,2.314,0,0,1-1.48,1.2,2.336,2.336,0,0,1,1.517,1.258,5.659,5.659,0,0,1,.309,2V381.8a4.49,4.49,0,0,1-1.443,3.576A5.9,5.9,0,0,1,1323.413,386.635Z" transform="translate(-1113.915 -366.831)"/>
            <path id="Path_6188" data-name="Path 6188" d="M1353.469,386.635a17.7,17.7,0,0,1-2.405-.161,8.215,8.215,0,0,1-1.96-.481v-1.8a9.62,9.62,0,0,0,2,.543,12.584,12.584,0,0,0,2.022.172,7.715,7.715,0,0,0,2.7-.358,1.5,1.5,0,0,0,.9-1.566,1.7,1.7,0,0,0-.456-1.295,3.5,3.5,0,0,0-1.295-.715q-.839-.283-2.022-.678a19.272,19.272,0,0,1-2.047-.826,4.452,4.452,0,0,1-1.554-1.172,2.843,2.843,0,0,1-.592-1.874,3.086,3.086,0,0,1,1.294-2.676,6.633,6.633,0,0,1,3.86-.925,13.37,13.37,0,0,1,2.146.172,10.978,10.978,0,0,1,1.775.419v1.775a8.845,8.845,0,0,0-1.763-.481,11.161,11.161,0,0,0-1.862-.161,7.047,7.047,0,0,0-2.553.358,1.422,1.422,0,0,0-.876,1.467,1.5,1.5,0,0,0,.456,1.147,3.74,3.74,0,0,0,1.307.74q.851.309,2.059.7a14.756,14.756,0,0,1,2.145.875,4.082,4.082,0,0,1,1.468,1.209,3.172,3.172,0,0,1,.531,1.911,3.006,3.006,0,0,1-1.456,2.837A7.612,7.612,0,0,1,1353.469,386.635Z" transform="translate(-1131.493 -366.831)"/>
            <path id="Path_6189" data-name="Path 6189" d="M1358.263,363.892v-3.3h6.93l-.074,1.455h-5.154v1.85Z" transform="translate(-1136.878 -359.896)"/>
            <path id="Path_6190" data-name="Path 6190" d="M849.644,455.008a2.153,2.153,0,0,1-1.664-.653,2.423,2.423,0,0,1-.6-1.714V441.69H849.4v10.457q0,1.208,1.159,1.209h1.406v1.652Z" transform="translate(-847.375 -398.674)"/>
            <path id="Path_6191" data-name="Path 6191" d="M864.662,455.008,861.6,441.69h2.071l2.2,10.481,2.812-8.8V441.69h1.5l3.009,10.481,2.171-10.481h2.047l-3.033,13.318h-2.022l-2.737-9.372-2.96,9.372Z" transform="translate(-855.438 -398.674)"/>
            <path id="Path_6192" data-name="Path 6192" d="M871.962,431.867l.1-1.455h5.056v-2.1h1.53v2.1h1.578v-2.1h1.529v3.552Z" transform="translate(-861.308 -391.094)"/>
            <path id="Path_6193" data-name="Path 6193" d="M890.573,421.043v-3.428h1.7v3.428Z" transform="translate(-871.854 -385.031)"/>
            <path id="Path_6194" data-name="Path 6194" d="M906.833,454.931a13.735,13.735,0,0,1-2.861-.283,13.535,13.535,0,0,1-2.244-.654v-6.708h4.883l.1,1.652h-2.959v3.773a8.958,8.958,0,0,0,1.443.358,9.5,9.5,0,0,0,1.591.136,5.566,5.566,0,0,0,2.552-.493,2.912,2.912,0,0,0,1.381-1.628,8.742,8.742,0,0,0,.432-3.034,8.549,8.549,0,0,0-.457-3.107,2.872,2.872,0,0,0-1.529-1.615,7.281,7.281,0,0,0-2.923-.481,16.67,16.67,0,0,0-2.183.148,11.116,11.116,0,0,0-2.133.493v-1.677a11.58,11.58,0,0,1,2.257-.518,19.143,19.143,0,0,1,2.577-.173q3.4,0,4.908,1.739a7.752,7.752,0,0,1,1.5,5.191,7.673,7.673,0,0,1-1.5,5.13Q910.163,454.932,906.833,454.931Z" transform="translate(-878.175 -398.35)"/>
            <path id="Path_6195" data-name="Path 6195" d="M933.176,446.719a2.153,2.153,0,0,1-1.664-.653,2.423,2.423,0,0,1-.6-1.714v-8.558a4.453,4.453,0,0,1,.32-1.775,4.964,4.964,0,0,1,.777-1.271,11.653,11.653,0,0,1,.925-.962,6.682,6.682,0,0,0,.789-.851,1.468,1.468,0,0,0,.321-.913,1.061,1.061,0,0,0-.469-1.036,2.915,2.915,0,0,0-1.332-.247,5.622,5.622,0,0,0-2.737.764v-1.579a6.041,6.041,0,0,1,1.616-.641,7.26,7.26,0,0,1,1.739-.222,3.48,3.48,0,0,1,2.454.752,2.687,2.687,0,0,1,.8,2.059,2.527,2.527,0,0,1-.321,1.307,4.522,4.522,0,0,1-.789.987q-.469.444-.949.937a4.481,4.481,0,0,0-.8,1.135,3.5,3.5,0,0,0-.321,1.578v8.04q0,1.208,1.159,1.209h1.406v1.652Z" transform="translate(-893.914 -390.385)"/>
            <path id="Path_6196" data-name="Path 6196" d="M948.4,455.008V441.69h2.022v4.316h4.415a2.375,2.375,0,0,0,2.861-2.688V441.69h2.022v1.6a4.849,4.849,0,0,1-.469,2.195A2.6,2.6,0,0,1,957.6,446.8a2.377,2.377,0,0,1,1.6,1.282,5.343,5.343,0,0,1,.37,2.072v4.859h-2.022V450.4a2.969,2.969,0,0,0-.6-2.158,3.25,3.25,0,0,0-2.232-.579H950.42v7.349Z" transform="translate(-904.621 -398.674)"/>
            <path id="Path_6197" data-name="Path 6197" d="M959.566,431.576v-2.319h-1.949V427.8h3.4v2.318h5.4l-.1,1.455Z" transform="translate(-909.846 -390.804)"/>
            <path id="Path_6198" data-name="Path 6198" d="M980.667,454.685v-8.632a4.711,4.711,0,0,1,1.394-3.65,6.315,6.315,0,0,1,4.377-1.283,6.22,6.22,0,0,1,4.353,1.283,4.757,4.757,0,0,1,1.369,3.65v8.632h-2.022v-8.854a2.645,2.645,0,0,0-.95-2.294,4.635,4.635,0,0,0-2.75-.691,4.733,4.733,0,0,0-2.8.691,2.644,2.644,0,0,0-.949,2.294v3.083a4.2,4.2,0,0,1,2.861-1.011h1.627l.1,1.652H985.5a4.2,4.2,0,0,0-2.811.962v4.168Z" transform="translate(-922.907 -398.35)"/>
            <path id="Path_6199" data-name="Path 6199" d="M1018.117,455.254a4.276,4.276,0,0,1-3.293-1.233,5.028,5.028,0,0,1-1.147-3.552v-8.78h2.022v8.755a3.191,3.191,0,0,0,.74,2.368,3.273,3.273,0,0,0,2.343.715,5.215,5.215,0,0,0,2.319-.518,6.46,6.46,0,0,0,1.825-1.307V441.69h2.022v13.318h-1.825l-.123-1.6a7.313,7.313,0,0,1-2.1,1.344A7.06,7.06,0,0,1,1018.117,455.254Z" transform="translate(-941.613 -398.674)"/>
            <path id="Path_6200" data-name="Path 6200" d="M1046.175,454.685V441.367H1048l.123,1.6a7.744,7.744,0,0,1,2.109-1.344,6.972,6.972,0,0,1,2.774-.506,4.286,4.286,0,0,1,3.281,1.233,4.959,4.959,0,0,1,1.159,3.527v8.8h-2.022V445.9a3.091,3.091,0,0,0-.765-2.343,3.372,3.372,0,0,0-2.368-.715,4.94,4.94,0,0,0-2.306.53,6.866,6.866,0,0,0-1.788,1.32v9.988Z" transform="translate(-960.029 -398.35)"/>
            <path id="Path_6201" data-name="Path 6201" d="M1049.477,431.867l.1-1.455h7.991v-2.1h1.7v3.552Z" transform="translate(-961.9 -391.094)"/>
            <path id="Path_6202" data-name="Path 6202" d="M1068.087,421.043v-3.428h1.7v3.428Z" transform="translate(-972.445 -385.031)"/>
            <path id="Path_6203" data-name="Path 6203" d="M1078.673,454.685v-8.632a4.711,4.711,0,0,1,1.394-3.65,6.314,6.314,0,0,1,4.377-1.283,6.22,6.22,0,0,1,4.353,1.283,4.757,4.757,0,0,1,1.369,3.65v8.632h-2.022v-8.854a2.645,2.645,0,0,0-.949-2.294,4.635,4.635,0,0,0-2.75-.691,4.733,4.733,0,0,0-2.8.691,2.644,2.644,0,0,0-.949,2.294v3.083a4.2,4.2,0,0,1,2.86-1.011h1.628l.1,1.652h-1.776a4.2,4.2,0,0,0-2.811.962v4.168Z" transform="translate(-978.444 -398.35)"/>
            <path id="Path_6204" data-name="Path 6204" d="M1098.969,480.621V477.39h-1.628l.1-1.381h3.28v4.612Z" transform="translate(-989.022 -418.121)"/>
            <path id="Path_6205" data-name="Path 6205" d="M1124.578,454.931a4.1,4.1,0,0,1-3.194-1.233,5.1,5.1,0,0,1-1.122-3.552v-4.02a3.3,3.3,0,0,0-.814-2.565,4.38,4.38,0,0,0-2.861-.715,7.793,7.793,0,0,0-2.479.383,4.5,4.5,0,0,0-1.788,1.023v.518l2.886.691v1.529a2.682,2.682,0,0,0-1.394.777,2.342,2.342,0,0,0-.456,1.566v2.491q0,1.208,1.159,1.209h1.406v1.652H1113.6a2.153,2.153,0,0,1-1.665-.653,2.424,2.424,0,0,1-.6-1.714v-3.033a3.4,3.4,0,0,1,.469-1.788,2.558,2.558,0,0,1,1.529-1.1l-2.787-.641v-2.367a9.49,9.49,0,0,1,2.454-1.566,8.472,8.472,0,0,1,3.589-.7,6.366,6.366,0,0,1,4.266,1.221,4.852,4.852,0,0,1,1.406,3.86v3.921a3.225,3.225,0,0,0,.728,2.368,3.108,3.108,0,0,0,2.257.715,4.631,4.631,0,0,0,2.207-.518,6.932,6.932,0,0,0,1.738-1.307V441.367h2.023v13.318h-1.825l-.123-1.6a7.752,7.752,0,0,1-2.01,1.344A6.374,6.374,0,0,1,1124.578,454.931Z" transform="translate(-996.505 -398.35)"/>
            <path id="Path_6206" data-name="Path 6206" d="M1167,455.008a2.153,2.153,0,0,1-1.665-.653,2.422,2.422,0,0,1-.6-1.714V441.69h2.022v10.457q0,1.208,1.159,1.209h1.159v1.652Zm5.647,0a2.153,2.153,0,0,1-1.665-.653,2.424,2.424,0,0,1-.6-1.714V441.69h2.022v10.457q0,1.208,1.16,1.209h1.159v1.652Z" transform="translate(-1027.208 -398.674)"/>
            <path id="Path_6207" data-name="Path 6207" d="M1193.127,454.685v-8.632a4.712,4.712,0,0,1,1.394-3.65,6.316,6.316,0,0,1,4.377-1.283,6.222,6.222,0,0,1,4.353,1.283,4.757,4.757,0,0,1,1.369,3.65v8.632H1202.6v-8.854a2.646,2.646,0,0,0-.949-2.294,4.638,4.638,0,0,0-2.75-.691,4.734,4.734,0,0,0-2.8.691,2.645,2.645,0,0,0-.949,2.294v3.083a4.2,4.2,0,0,1,2.861-1.011h1.628l.1,1.652h-1.776a4.2,4.2,0,0,0-2.812.962v4.168Z" transform="translate(-1043.301 -398.35)"/>
            <path id="Path_6208" data-name="Path 6208" d="M1229.71,454.931a17.764,17.764,0,0,1-2.405-.16,8.23,8.23,0,0,1-1.96-.481v-1.8a9.626,9.626,0,0,0,2,.543,12.582,12.582,0,0,0,2.023.172,7.718,7.718,0,0,0,2.7-.357,1.5,1.5,0,0,0,.9-1.566,1.7,1.7,0,0,0-.456-1.295,3.5,3.5,0,0,0-1.295-.715q-.839-.283-2.022-.678a19.437,19.437,0,0,1-2.047-.826,4.459,4.459,0,0,1-1.554-1.172,2.843,2.843,0,0,1-.591-1.874,3.085,3.085,0,0,1,1.295-2.676,6.634,6.634,0,0,1,3.86-.925,13.363,13.363,0,0,1,2.146.173,10.964,10.964,0,0,1,1.775.419v1.775a8.845,8.845,0,0,0-1.763-.481,11.206,11.206,0,0,0-1.862-.16,7.055,7.055,0,0,0-2.552.357,1.423,1.423,0,0,0-.876,1.468,1.5,1.5,0,0,0,.456,1.147,3.744,3.744,0,0,0,1.307.74q.851.309,2.059.7a14.744,14.744,0,0,1,2.146.875,4.084,4.084,0,0,1,1.467,1.209,3.168,3.168,0,0,1,.531,1.911,3.006,3.006,0,0,1-1.456,2.836A7.614,7.614,0,0,1,1229.71,454.931Z" transform="translate(-1061.362 -398.35)"/>
            <path id="Path_6209" data-name="Path 6209" d="M1234.5,432.189v-3.305h6.931l-.075,1.455h-5.154v1.85Z" transform="translate(-1066.748 -391.417)"/>
            <path id="Path_6210" data-name="Path 6210" d="M1253.4,455.008V441.69h2.022v4.316h4.415a2.375,2.375,0,0,0,2.861-2.688V441.69h2.022v1.6a4.848,4.848,0,0,1-.469,2.195,2.6,2.6,0,0,1-1.652,1.307,2.378,2.378,0,0,1,1.6,1.282,5.35,5.35,0,0,1,.37,2.072v4.859h-2.022V450.4a2.971,2.971,0,0,0-.6-2.158,3.252,3.252,0,0,0-2.232-.579h-4.292v7.349Z" transform="translate(-1077.456 -398.674)"/>
            <path id="Path_6211" data-name="Path 6211" d="M1274.514,431.286v-4h2.022v4Z" transform="translate(-1089.421 -390.514)"/>
            <path id="Path_6212" data-name="Path 6212" d="M1289.408,454.685v-8.607a6.275,6.275,0,0,0-.222-1.825,1.722,1.722,0,0,0-.9-1.06,4.725,4.725,0,0,0-2.06-.345,9.407,9.407,0,0,0-1.714.173,9.547,9.547,0,0,0-1.69.468v-1.677a9.834,9.834,0,0,1,1.751-.493,10.558,10.558,0,0,1,2.022-.2,5.128,5.128,0,0,1,3.687,1.122,4.887,4.887,0,0,1,1.147,3.613v8.829Z" transform="translate(-1094.129 -398.35)"/>
            <path id="Path_6213" data-name="Path 6213" d="M1312.533,455.254q-.469,0-1.1-.049a3.807,3.807,0,0,1-1.073-.222l-3.749-9.125h1.973l3.157,7.67a3.811,3.811,0,0,0,3.465-1.208,6.988,6.988,0,0,0,1.122-4.415,9.257,9.257,0,0,0-.321-2.725,2.357,2.357,0,0,0-1.073-1.418,4.37,4.37,0,0,0-2.109-.419h-.863V441.69h1.085a4.952,4.952,0,0,1,4.069,1.517,7.331,7.331,0,0,1,1.233,4.673,9.9,9.9,0,0,1-.776,4.242,5.243,5.243,0,0,1-2.084,2.38A5.829,5.829,0,0,1,1312.533,455.254Z" transform="translate(-1107.611 -398.674)"/>
            <path id="Path_6214" data-name="Path 6214" d="M1339.324,446.816a2.155,2.155,0,0,1-1.665-.653,2.422,2.422,0,0,1-.6-1.714V433.079a5.068,5.068,0,0,1,.6-2.59,4.658,4.658,0,0,1,1.542-1.628h-4.415v-1.628h6.906v1.6a3.811,3.811,0,0,0-2.059,1.788,7.259,7.259,0,0,0-.555,3.12v10.21q0,1.208,1.159,1.209h1.406v1.652Z" transform="translate(-1123.575 -390.482)"/>
            <path id="Path_6215" data-name="Path 6215" d="M1354.016,454.685v-5.4a3.389,3.389,0,0,1,.469-1.788,2.557,2.557,0,0,1,1.529-1.1l-2.787-.641v-2.367a9.289,9.289,0,0,1,2.5-1.566,8.941,8.941,0,0,1,3.687-.7,6.715,6.715,0,0,1,4.378,1.221,4.743,4.743,0,0,1,1.467,3.86v8.484h-2.022v-8.558a3.19,3.19,0,0,0-.863-2.565,4.7,4.7,0,0,0-2.96-.715,8.418,8.418,0,0,0-2.577.383,4.493,4.493,0,0,0-1.838,1.023v.518l2.886.691v1.529a2.68,2.68,0,0,0-1.393.777,2.34,2.34,0,0,0-.456,1.566v5.352Z" transform="translate(-1134.024 -398.35)"/>
            <path id="Path_6216" data-name="Path 6216" d="M1390.79,454.931a5.933,5.933,0,0,1-2.256-.407,3.441,3.441,0,0,1-1.591-1.282,4,4,0,0,1-.592-2.281,3.742,3.742,0,0,1,1.258-2.972,5.734,5.734,0,0,1,3.847-1.1h4.365v-1.036a3.992,3.992,0,0,0-.333-1.788,1.928,1.928,0,0,0-1.147-.937,7.168,7.168,0,0,0-2.269-.284,15.941,15.941,0,0,0-2.183.148,11.19,11.19,0,0,0-2.084.493v-1.677a12.49,12.49,0,0,1,2.158-.506,16.54,16.54,0,0,1,2.478-.185,6.006,6.006,0,0,1,4.107,1.172,4.776,4.776,0,0,1,1.295,3.711v8.681h-2.022v-6.116h-4.242a4.338,4.338,0,0,0-2.466.555,2.087,2.087,0,0,0-.79,1.837,1.975,1.975,0,0,0,.715,1.751,4.124,4.124,0,0,0,2.294.493,6.337,6.337,0,0,0,1.677-.2v1.677q-.42.1-.987.173A9.625,9.625,0,0,1,1390.79,454.931Z" transform="translate(-1152.795 -398.35)"/>
            <path id="Path_6217" data-name="Path 6217" d="M1423.746,454.931a7.534,7.534,0,0,1-.974-.074,4.531,4.531,0,0,1-.9-.2l-2.072-5.525h-1.578l.1-1.652h2.787l2.146,5.722a4.265,4.265,0,0,0,2.2-.382,3.667,3.667,0,0,0,1.677-1.69,6.981,6.981,0,0,0,.641-3.255,7.384,7.384,0,0,0-.493-2.96,3,3,0,0,0-1.6-1.591,7.713,7.713,0,0,0-3.009-.481,15.593,15.593,0,0,0-2.084.148,11.141,11.141,0,0,0-2.108.493v-1.677a12.5,12.5,0,0,1,2.158-.506,17.243,17.243,0,0,1,2.577-.185q3.427,0,5.007,1.751a7.231,7.231,0,0,1,1.578,5.007,8.158,8.158,0,0,1-.838,3.884,5.745,5.745,0,0,1-5.2,3.169Z" transform="translate(-1170.855 -398.35)"/>
            <path id="Path_6218" data-name="Path 6218" d="M1454,454.685v-8.607a6.3,6.3,0,0,0-.221-1.825,1.725,1.725,0,0,0-.9-1.06,4.72,4.72,0,0,0-2.059-.345,9.4,9.4,0,0,0-1.714.173,9.543,9.543,0,0,0-1.689.468v-1.677a9.815,9.815,0,0,1,1.751-.493,10.549,10.549,0,0,1,2.022-.2,5.13,5.13,0,0,1,3.688,1.122,4.888,4.888,0,0,1,1.147,3.613v8.829Z" transform="translate(-1187.4 -398.35)"/>
            <path id="Path_6219" data-name="Path 6219" d="M1473.421,454.685v-5.4a3.4,3.4,0,0,1,.469-1.788,2.559,2.559,0,0,1,1.529-1.1l-2.787-.641v-2.367a9.288,9.288,0,0,1,2.5-1.566,8.944,8.944,0,0,1,3.687-.7,6.713,6.713,0,0,1,4.377,1.221,4.741,4.741,0,0,1,1.467,3.86v8.484h-2.022v-8.558a3.191,3.191,0,0,0-.863-2.565,4.7,4.7,0,0,0-2.96-.715,8.42,8.42,0,0,0-2.577.383,4.484,4.484,0,0,0-1.837,1.023v.518l2.885.691v1.529a2.68,2.68,0,0,0-1.393.777,2.34,2.34,0,0,0-.456,1.566v5.352Z" transform="translate(-1201.688 -398.35)"/>
          </g>
          <g id="Group_2826" data-name="Group 2826" transform="translate(2.665 81.392)">
            <path id="Path_6254" data-name="Path 6254" d="M842.188,514.915v-8.551h4.849l-.6,8.551Zm7.359,0v-8.551h4.85l-.6,8.551Z" transform="translate(-842.188 -499.983)" fill="#ed759d"/>
            <path id="Path_6255" data-name="Path 6255" d="M883.309,538.062a12.092,12.092,0,0,1-4.3-.723,12.466,12.466,0,0,1-3.445-1.957l-.255,2.255h-5.275v-8.167a6.5,6.5,0,0,1,.723-2.935,20.8,20.8,0,0,1,1.68-2.786q.958-1.34,1.681-2.4a3.393,3.393,0,0,0,.723-1.744q0-.807-.68-.808a1.357,1.357,0,0,0-.574.127,1.664,1.664,0,0,0-.489.34V521h-3.617v-6.338h3.786v1.191a6.1,6.1,0,0,1,1.447-.851,5.164,5.164,0,0,1,2-.34q3.4,0,3.4,3.488a6.65,6.65,0,0,1-.66,2.936,23.65,23.65,0,0,1-1.51,2.658,25.822,25.822,0,0,0-1.51,2.616,6.1,6.1,0,0,0-.66,2.765v2.084a7.274,7.274,0,0,0,2.489,1.7,7.715,7.715,0,0,0,3.126.681,4.291,4.291,0,0,0,3.084-1,4.483,4.483,0,0,0,1.043-3.339V514.665h5.743V529.6a8.671,8.671,0,0,1-2.127,6.232A7.665,7.665,0,0,1,883.309,538.062Z" transform="translate(-854.935 -503.86)" fill="#ed759d"/>
            <path id="Path_6256" data-name="Path 6256" d="M924.033,537.263V523.14a6.059,6.059,0,0,0-.894-3.552q-.893-1.254-3.573-1.255a15.014,15.014,0,0,0-2.978.319,18.052,18.052,0,0,0-2.808.787v-4.211a14.266,14.266,0,0,1,3.148-.979,18.625,18.625,0,0,1,3.744-.383q4.849,0,6.976,2.063t2.127,6.4v14.931Z" transform="translate(-875.623 -503.487)" fill="#ed759d"/>
            <path id="Path_6257" data-name="Path 6257" d="M959.231,537.689A10.082,10.082,0,0,1,954.3,536.5a8.274,8.274,0,0,1-3.425-3.722,14.712,14.712,0,0,1-1.255-6.529q0-6.083,2.148-9.231a6.69,6.69,0,0,1,5.807-3.148,5.693,5.693,0,0,1,2.85.6,5.329,5.329,0,0,1,1.7,1.574,5.964,5.964,0,0,1,2.361-1.574,8.346,8.346,0,0,1,3.084-.6,5.287,5.287,0,0,1,4.445,1.829,7.6,7.6,0,0,1,1.425,4.807v16.76H967.7V521.4a5.107,5.107,0,0,0-.4-2.276,1.58,1.58,0,0,0-1.553-.787,2.171,2.171,0,0,0-1.383.489,2.652,2.652,0,0,0-.871,1.467H960.72a5.054,5.054,0,0,0-.893-1.467,1.8,1.8,0,0,0-1.361-.489,2.71,2.71,0,0,0-2.7,2.191,19.213,19.213,0,0,0-.7,5.722q0,3.871,1.361,5.424a4.821,4.821,0,0,0,3.828,1.553,14.616,14.616,0,0,0,1.6-.085,7.267,7.267,0,0,0,1.34-.255v4.211a8.344,8.344,0,0,1-1.7.447A14.64,14.64,0,0,1,959.231,537.689Z" transform="translate(-892.36 -503.487)" fill="#ed759d"/>
            <path id="Path_6258" data-name="Path 6258" d="M1001.2,537.263v-7.317a8.588,8.588,0,0,1,.659-3.466,3.871,3.871,0,0,1,2.616-2.106l-4.339-1.149v-5.488a17.161,17.161,0,0,1,4.658-2.68,17.482,17.482,0,0,1,6.657-1.191,17.224,17.224,0,0,1,5.892.893,7.15,7.15,0,0,1,3.743,2.978,10.642,10.642,0,0,1,1.3,5.658v13.867h-5.743V523.268a4.921,4.921,0,0,0-1.255-3.808q-1.254-1.126-4.232-1.127a10.674,10.674,0,0,0-3.509.553,7.773,7.773,0,0,0-2.574,1.4v.6l4.722,1.276v3.488a3.493,3.493,0,0,0-2.276,1.383,5.92,5.92,0,0,0-.573,2.956v7.274Z" transform="translate(-915.955 -503.487)" fill="#ed759d"/>
            <path id="Path_6259" data-name="Path 6259" d="M1056.3,537.689a29.814,29.814,0,0,1-4.573-.341,16.253,16.253,0,0,1-3.552-.893v-4.637a17.289,17.289,0,0,0,3.552,1.043,19.277,19.277,0,0,0,3.509.361,13.662,13.662,0,0,0,4.02-.425,1.691,1.691,0,0,0,1.255-1.744,1.939,1.939,0,0,0-.659-1.574,6.22,6.22,0,0,0-2.021-1q-1.361-.447-3.488-1.17a17.4,17.4,0,0,1-4.87-2.489,4.894,4.894,0,0,1-1.766-4.1,6.027,6.027,0,0,1,2.382-4.956q2.382-1.892,7.189-1.893a27.219,27.219,0,0,1,4,.3,19.962,19.962,0,0,1,3.275.723v4.594a13.453,13.453,0,0,0-3.212-.872,21.733,21.733,0,0,0-3.254-.277,11.962,11.962,0,0,0-3.467.447,1.792,1.792,0,0,0-1.467,1.808,1.575,1.575,0,0,0,.744,1.361,7.956,7.956,0,0,0,2.127.936q1.382.426,3.3,1.106a19.693,19.693,0,0,1,3.85,1.7,5.56,5.56,0,0,1,2.127,2.169,6.916,6.916,0,0,1,.659,3.191,5.516,5.516,0,0,1-2.573,5A13.125,13.125,0,0,1,1056.3,537.689Z" transform="translate(-938.172 -503.487)" fill="#ed759d"/>
            <path id="Path_6260" data-name="Path 6260" d="M1106.9,528.168q-2.765,0-3.892-1.148a5,5,0,0,1-1.127-3.616V504.729a6.619,6.619,0,0,0-1.042-4,6.357,6.357,0,0,0-3.17-2.127v-4.211h13.911v4.466H1104.9a5.128,5.128,0,0,1,2.042,2.212,7.977,7.977,0,0,1,.681,3.488v17.356a1.56,1.56,0,0,0,1.743,1.786h1.447v4.466Z" transform="translate(-961.506 -494.392)" fill="#ed759d"/>
            <path id="Path_6261" data-name="Path 6261" d="M1132.765,537.689a29.821,29.821,0,0,1-4.573-.341,16.258,16.258,0,0,1-3.552-.893v-4.637a17.278,17.278,0,0,0,3.552,1.043,19.287,19.287,0,0,0,3.51.361,13.658,13.658,0,0,0,4.02-.425,1.691,1.691,0,0,0,1.255-1.744,1.94,1.94,0,0,0-.659-1.574,6.215,6.215,0,0,0-2.021-1q-1.362-.447-3.488-1.17a17.407,17.407,0,0,1-4.871-2.489,4.894,4.894,0,0,1-1.765-4.1,6.027,6.027,0,0,1,2.382-4.956q2.381-1.892,7.189-1.893a27.227,27.227,0,0,1,4,.3,19.939,19.939,0,0,1,3.275.723v4.594a13.463,13.463,0,0,0-3.211-.872,21.745,21.745,0,0,0-3.254-.277,11.962,11.962,0,0,0-3.467.447,1.792,1.792,0,0,0-1.468,1.808,1.576,1.576,0,0,0,.744,1.361,7.977,7.977,0,0,0,2.127.936q1.382.426,3.3,1.106a19.709,19.709,0,0,1,3.85,1.7,5.552,5.552,0,0,1,2.127,2.169,6.915,6.915,0,0,1,.659,3.191,5.516,5.516,0,0,1-2.574,5A13.122,13.122,0,0,1,1132.765,537.689Z" transform="translate(-973.881 -503.487)" fill="#ed759d"/>
            <path id="Path_6262" data-name="Path 6262" d="M1163.84,537.263v-14.25a8.831,8.831,0,0,1,2.574-6.658q2.573-2.488,8.273-2.488t8.253,2.488a8.875,8.875,0,0,1,2.552,6.658v14.25h-5.743V522.587a3.827,3.827,0,0,0-1.339-3.19,5.848,5.848,0,0,0-3.723-1.063q-5.1,0-5.1,4.254v4.127a7.636,7.636,0,0,1,1.808-.979,6.074,6.074,0,0,1,2.191-.383h2.765l.169,4.552h-3.062a6.573,6.573,0,0,0-2.127.319,6.42,6.42,0,0,0-1.745.915v6.125Z" transform="translate(-992.407 -503.487)" fill="#ed759d"/>
            <path id="Path_6263" data-name="Path 6263" d="M1217.148,537.636q-2.765,0-3.892-1.148a5,5,0,0,1-1.127-3.616V514.665h5.743v16.718a1.561,1.561,0,0,0,1.744,1.787h1.446v4.466Z" transform="translate(-1014.959 -503.86)" fill="#ed759d"/>
            <path id="Path_6264" data-name="Path 6264" d="M1245.328,538.062q-5.063,0-8-2.4t-2.935-7.253v-13.74h5.743V528.49q0,5.105,5.189,5.1t5.19-5.1V514.665h5.743v13.74q0,4.85-2.936,7.253T1245.328,538.062Z" transform="translate(-1025.359 -503.86)" fill="#ed759d"/>
            <path id="Path_6265" data-name="Path 6265" d="M1289.1,537.263V523.14a6.059,6.059,0,0,0-.894-3.552q-.893-1.254-3.573-1.255a15.024,15.024,0,0,0-2.978.319,18.052,18.052,0,0,0-2.807.787v-4.211a14.24,14.24,0,0,1,3.148-.979,18.622,18.622,0,0,1,3.743-.383q4.85,0,6.977,2.063t2.127,6.4v14.931Z" transform="translate(-1046.121 -503.487)" fill="#ed759d"/>
            <path id="Path_6266" data-name="Path 6266" d="M1316.286,537.636V514.665h5.743v6.976h5.7a3.9,3.9,0,0,0,3.041-.957,4.356,4.356,0,0,0,.83-2.914v-3.105h5.743v2.892a9.489,9.489,0,0,1-.7,3.765,4.344,4.344,0,0,1-2.574,2.361,4.161,4.161,0,0,1,2.446,2.106,7.778,7.778,0,0,1,.66,3.3v8.55h-5.743v-7.912a4.3,4.3,0,0,0-.829-3.02,4.144,4.144,0,0,0-3-.851h-5.573v11.783Z" transform="translate(-1063.604 -503.86)" fill="#ed759d"/>
            <path id="Path_6267" data-name="Path 6267" d="M1367.341,537.689a18.5,18.5,0,0,1-7.317-1.361v-4.382a18.045,18.045,0,0,0,2.85.915,13.486,13.486,0,0,0,3.106.361q4,0,5.721-1.659t1.723-5.785q0-4.126-1.723-5.785t-5.721-1.659a14.268,14.268,0,0,0-3.106.341,14.642,14.642,0,0,0-2.85.935v-4.381a18.5,18.5,0,0,1,7.317-1.361q5.827,0,8.678,3.041t2.85,8.87q0,5.828-2.85,8.869T1367.341,537.689Z" transform="translate(-1084.03 -503.487)" fill="#ed759d"/>
            <path id="Path_6268" data-name="Path 6268" d="M1406.272,537.263V523.14a6.063,6.063,0,0,0-.893-3.552q-.893-1.254-3.573-1.255a15.014,15.014,0,0,0-2.978.319,18.058,18.058,0,0,0-2.807.787v-4.211a14.245,14.245,0,0,1,3.148-.979,18.619,18.619,0,0,1,3.743-.383q4.85,0,6.977,2.063t2.127,6.4v14.931Z" transform="translate(-1100.842 -503.487)" fill="#ed759d"/>
            <path id="Path_6269" data-name="Path 6269" d="M1441.408,538.062a7.663,7.663,0,0,1-5.828-2.234,8.668,8.668,0,0,1-2.127-6.232V514.665h5.743v14.591a4.482,4.482,0,0,0,1.043,3.339,4.29,4.29,0,0,0,3.084,1,7.67,7.67,0,0,0,3.148-.681,7.322,7.322,0,0,0,2.468-1.7V514.665h5.742v22.971h-5.274l-.255-2.255a12.461,12.461,0,0,1-3.446,1.957A12.092,12.092,0,0,1,1441.408,538.062Z" transform="translate(-1118.323 -503.86)" fill="#ed759d"/>
            <path id="Path_6270" data-name="Path 6270" d="M1479.106,514.915v-8.551h4.85l-.6,8.551Zm7.36,0v-8.551h4.85l-.6,8.551Z" transform="translate(-1139.644 -499.983)" fill="#ed759d"/>
          </g>
        </g>
      </g>
    </g>
  </g>
</svg>
