<svg xmlns="http://www.w3.org/2000/svg" width="77.55" height="120.672" viewBox="0 0 77.55 120.672">
  <g id="Switch" transform="translate(-9069.343 -242.957)">
    <rect id="Rectangle_9" data-name="Rectangle 9" width="71.441" height="114.563" rx="5" transform="translate(9075.452 249.065)"/>
    <g id="Group_154" data-name="Group 154" transform="translate(9070.343 243.957)">
      <rect id="Rectangle_10" data-name="Rectangle 10" width="71.441" height="114.563" rx="7" transform="translate(2.555)" fill="#6fa9d8"/>
      <path id="Path_636" data-name="Path 636" d="M9070.343,341.3v-87.93a9.412,9.412,0,0,1,9.413-9.412h41.463" transform="translate(-9070.343 -243.957)" fill="none" stroke="#0d0d0c" stroke-linecap="round" stroke-linejoin="round" stroke-width="2"/>
      <line id="Line_35" data-name="Line 35" x2="1.644" transform="translate(52.953)" fill="none" stroke="#0d0d0c" stroke-linecap="round" stroke-linejoin="round" stroke-width="2"/>
      <path id="Path_637" data-name="Path 637" d="M9147.913,302.181c0,34.134-31.158,50.571-68.141,39.065v45.292c0,4.109,2.556,9.825,8.218,9.825h50.344a9.579,9.579,0,0,0,9.579-9.579Z" transform="translate(-9076.472 -281.8)" fill="#518cc8"/>
      <circle id="Ellipse_21" data-name="Ellipse 21" cx="4.505" cy="4.505" r="4.505" transform="translate(32.342 12.336)"/>
      <circle id="Ellipse_22" data-name="Ellipse 22" cx="4.505" cy="4.505" r="4.505" transform="translate(32.342 95.148)"/>
      <path id="Path_638" data-name="Path 638" d="M9172.9,365l2.354,2.142a2.709,2.709,0,0,1,.887,2v21.248l8.355,12.756a2.709,2.709,0,0,1-2.266,4.193h-15.387a2.708,2.708,0,0,1-2.283-1.25l-5.036-7.879a2.715,2.715,0,0,1-.3-2.264l9.27-29.751A2.71,2.71,0,0,1,9172.9,365Z" transform="translate(-9128.03 -322.17)"/>
      <rect id="Rectangle_11" data-name="Rectangle 11" width="13.397" height="35.399" rx="2" transform="translate(29.022 39.582)" fill="#fff"/>
      <circle id="Ellipse_23" data-name="Ellipse 23" cx="4.505" cy="4.505" r="4.505" transform="translate(31.216 11.371)" fill="#fff"/>
      <circle id="Ellipse_24" data-name="Ellipse 24" cx="4.505" cy="4.505" r="4.505" transform="translate(31.216 94.182)" fill="#fff"/>
      <rect id="Rectangle_12" data-name="Rectangle 12" width="5.229" height="0.845" rx="0.422" transform="translate(33.012 15.474)"/>
      <rect id="Rectangle_13" data-name="Rectangle 13" width="5.229" height="0.845" rx="0.422" transform="translate(33.106 98.265)"/>
    </g>
  </g>
</svg>
