<svg id="Component_108_11" data-name="Component 108 – 11" xmlns="http://www.w3.org/2000/svg" width="64.673" height="64.673" viewBox="0 0 64.673 64.673">
  <g id="Group_1126" data-name="Group 1126">
    <g id="Group_1125" data-name="Group 1125">
      <circle id="Ellipse_106" data-name="Ellipse 106" cx="32.337" cy="32.337" r="32.337"/>
    </g>
  </g>
  <path id="Path_1817" data-name="Path 1817" d="M6613.864,718.712a16.281,16.281,0,0,0-5.752-9.6,24.392,24.392,0,0,0-15.92-5.669,30.973,30.973,0,0,0-4.406.353,23.241,23.241,0,0,0-12.639,6.1c-6.792,6.529-6.872,16.149-.176,22.786A22.758,22.758,0,0,0,6588,738.927c2.228.336,2.821,1.1,2.438,3.3-.132.762-.274,1.526-.34,2.3s.308,1.048,1.077.909a7.373,7.373,0,0,0,2.3-.992,83.157,83.157,0,0,0,11.521-7.929,32.981,32.981,0,0,0,6.258-6.486A14.49,14.49,0,0,0,6613.864,718.712Zm-31.167,8.333c-1.572,0-3.144-.016-4.714.01-.565.01-.767-.207-.76-.76.019-1.507.006-3.013.006-4.52,0-1.465.015-2.928-.006-4.393-.009-.559.151-.829.769-.814,1.874.04,1.654-.2,1.66,1.652.006,1.959.013,3.918-.009,5.877,0,.43.126.546.542.536,1.1-.028,2.2.013,3.293-.019.625-.018.829.233.818.842C6584.266,727.254,6584.439,727.039,6582.7,727.044Zm5.32-8.842q0,4,0,8c0,.778-.071.849-.843.846-1.759,0-1.569.191-1.575-1.593q0-1.837,0-3.675c0-1.482.015-2.966-.009-4.449-.008-.553.185-.771.75-.758C6588.178,716.61,6588.015,716.33,6588.016,718.2Zm9.86,8.867a2.178,2.178,0,0,1-2.271-1.134c-.99-1.509-2.125-2.919-3.2-4.371-.123-.164-.253-.321-.483-.61,0,1.789,0,3.415,0,5.041,0,1.052,0,1.052-1.024,1.052-1.428,0-1.4.162-1.4-1.4.009-2.732,0-5.464,0-8.2,0-.826.058-.806.88-.893a2.041,2.041,0,0,1,2.118,1.048c1.131,1.672,2.384,3.263,3.6,4.9.244-.166.142-.4.143-.59.011-1.485,0-2.971.007-4.455,0-.85.039-.892.859-.89,1.751.006,1.535-.178,1.539,1.558.006,2.711-.012,5.422.011,8.132C6598.664,726.86,6598.454,727.011,6597.876,727.069Zm7.629-8.075c-.819,0-1.637.018-2.452-.008-.4-.014-.505.14-.508.523-.007,1.087-.023,1.087,1.085,1.087.968,0,1.937.009,2.9,0,.458-.006.663.176.655.653-.039,2.022.265,1.764-1.719,1.778-.8,0-1.591.026-2.386-.009-.439-.02-.542.137-.539.549.007,1.06-.012,1.06,1.057,1.06.968,0,1.936.007,2.9,0,.486-.006.694.186.684.692-.041,2,.251,1.716-1.692,1.731-1.526.011-3.054-.015-4.579.011-.556.01-.769-.177-.76-.744.025-1.5.008-3.011.008-4.517,0-1.483.016-2.968-.007-4.452-.009-.535.139-.782.726-.774,1.87.026,3.741.018,5.613,0,.49,0,.7.161.691.672C6607.146,719.191,6607.47,718.983,6605.505,718.994Z" transform="translate(-6559.721 -691.938)" fill="#fefefe"/>
</svg>
