<svg xmlns="http://www.w3.org/2000/svg" xmlns:xlink="http://www.w3.org/1999/xlink" width="2288" height="1080" viewBox="0 0 2288 1080">
  <defs>
    <clipPath id="clip-path">
      <rect id="Rectangle_198" data-name="Rectangle 198" width="2288" height="1080" transform="translate(-368)" fill="#fff" stroke="#707070" stroke-width="1"/>
    </clipPath>
  </defs>
  <g id="Mask_Group_1" data-name="Mask Group 1" transform="translate(368)" clip-path="url(#clip-path)">
    <g id="Group_2609" data-name="Group 2609" transform="translate(25.655 29.336)">
      <g id="Group_2623" data-name="Group 2623" transform="translate(-394.098 74.664)">
        <g id="Group_2746" data-name="Group 2746" transform="translate(0 0)">
          <path id="Path_5459" data-name="Path 5459" d="M-5849.514,21569.943c-13.084,52.672,171.377,379.395,171.377,379.395l-999.746,58.555h-7.41s-.875-180.545,7.41-302.561,0-175.871,0-175.871S-5836.426,21517.271-5849.514,21569.943Z" transform="translate(7229.433 -20257.832)" fill="#fff"/>
          <g id="Group_2694" data-name="Group 2694" transform="translate(0 4.173)">
            <path id="Path_5332" data-name="Path 5332" d="M-2157.783,1305.882c-2.662-1.35-114.774-86.726-164.094-173.027,0,0-29.934-24.5-50.172-21.439s-370.808-106.73-459.67-162.084-240.363-52.7-240.363-52.7,39.912-46.748,37.935-111.085c-.962-31.066-9.051-70.361-9.051-70.361l-6.094-41.587s40.625-38.213-15.424-89.359c-19.84-18.1-10.084-40.039-10.084-40.039s52.03-100.743,12.9-180.721c-72.485-148.2-238.06-174.33-335.587-169.457-66.768,3.345-105.08,24.506-125.438,41.608-12.355-3.355-37.974,3.2-37.974,3.2l-107.829,26.9s19.385-34.342,50.848-38.718,50.571-3.485,64.206-12.784,6.323-17.171-4.923-23.712c-11.1-6.462-97.567,8.228-99.791,8.605l48.377-15.344-41.229-25.4-197.178,156.066,117.487,48.4,31.553,7.365-30.075,6.679-163.412,63.741L-4124.83,780.928l8.753,155.76,1181.2,381.859,777.108-12.655A.028.028,0,0,1-2157.783,1305.882Zm-1351-447.486c24.466,21.488-17.359,58.51-27.513,60.168s-66.093-23.881-97.636-32.387-193.824-67.036-231.272-76.495-47.037-11.514-47.037-11.514,42.55-41.647,74.411-168.444,74.759-188.454,74.759-188.454,74.41-37.368,93.119-50.986c5.2-3.791,7.842-7.613,8.923-11.146l77.01,17.975,82.838,199.292,128.336,275.8S-3533.246,836.917-3508.78,858.4Z" transform="translate(4275.358 -148.915)"/>
            <path id="Path_5333" data-name="Path 5333" d="M-3667.45,386.658c-55.136,55.612-64.863,136.2-53.15,184.617s134.05-45,134.05-45l102.34-187.9-135.309-23.041Z" transform="translate(4268.66 -151.546)"/>
            <g id="Group_2693" data-name="Group 2693">
              <g id="Group_2692" data-name="Group 2692">
                <path id="Path_5334" data-name="Path 5334" d="M-3883.271,337.609c10.552-50.378,42.352-105.334,60.547-123.479s62.264-55.171,72.588-60.823,53.959-6.358,58.509-.326c0,0,26.353-5.162,41.369,3.505a28.679,28.679,0,0,1,14.749,23.821s66.226,1.67,80.57,10.04-5.74,21.127-24.916,21.85-54.506-.105-66.3,3.891-49.755,45.338-49.755,45.338,52.839-21.5,77.07-26.4,63.621-5.079,72-4.975,8.505,13.4-1.5,20.6-62.493,15.212-70.638,20.025-53.219,45.006-62.664,53.657a195.2,195.2,0,0,0-16.285,16.851s20.251-2.252,32.9-12.693,33.919-25.88,52.532-28.056,22.722,8.475.072,26.114-44.764,46.751-79.22,61.158-98.062,50.258-121.226,65.128-76.889-34.112-90.008-43.141S-3892.4,381.177-3883.271,337.609Z" transform="translate(4271.706 -148.754)" fill="#f9cfcc"/>
                <path id="Path_5335" data-name="Path 5335" d="M-3640.61,179.593c-2.364-.02-4.729-.037-7.086-.028-2.357.047-4.711.121-7.05.344a65.327,65.327,0,0,0-13.766,2.584,60.881,60.881,0,0,0-12.781,5.573c-4.007,2.339-7.869,5.1-11.725,7.79-7.72,5.417-15.335,11-22.979,16.551q-11.437,8.36-22.987,16.6,10.849-9.144,22.065-17.824,11.2-8.708,22.772-16.933c3.909-2.682,7.75-5.425,11.939-7.8a58.594,58.594,0,0,1,13.272-5.425,60.757,60.757,0,0,1,14.133-2.073A112.133,112.133,0,0,1-3640.61,179.593Z" transform="translate(4268.895 -149.26)" fill="#0d0d0c"/>
                <path id="Path_5336" data-name="Path 5336" d="M-3699.413,155.664c-3.442.85-6.855,1.777-10.179,2.959a89.826,89.826,0,0,0-9.766,3.959,62.016,62.016,0,0,0-9.05,5.234,39.067,39.067,0,0,0-4.036,3.25q-1.906,1.792-3.755,3.688c-2.484,2.5-4.921,5.059-7.343,7.633l-7.288,7.717q-7.255,7.752-14.676,15.373,6.556-8.377,13.537-16.4c4.65-5.355,9.393-10.621,14.374-15.7q1.877-1.9,3.856-3.723a37.187,37.187,0,0,1,4.272-3.359,56.9,56.9,0,0,1,9.477-5.1A77.1,77.1,0,0,1-3699.413,155.664Z" transform="translate(4269.338 -148.87)" fill="#0d0d0c"/>
                <path id="Path_5337" data-name="Path 5337" d="M-2118.364,1355.824c-1.937,35.624-137.727,85.141-321.164,73.819s-461.792-47.285-461.792-47.285-100.475-330.38-49.526-325.162,193.565,17.581,356.445,63.359,388.9,90.942,388.9,90.942Z" transform="translate(4255.928 -163.976)" fill="#f9cfcc"/>
                <path id="Path_5338" data-name="Path 5338" d="M-2504.876,1156.009c-29.659,53.886-46.53,283.242-46.53,283.242l-98.479-13.428,8.646-6.714L-2612,1151.564l73.358-24.462Z" transform="translate(4245.86 -181.547)"/>
                <path id="Path_5339" data-name="Path 5339" d="M-3636.455,1005.81c-149.377-65.12-402.969-166.779-464.345-181.077s-176.617,91.153-170.735,122.09,185.432,170.68,286.916,218.852c227.61,108.038,333.316,126.283,505.827,218.316Z" transform="translate(4277.821 -160.059)" fill="#f9cfcc"/>
                <path id="Path_5340" data-name="Path 5340" d="M-3982.416,855.106c-65.3,13.022-47.089,284.621-47.089,284.621l17.6,10.169,106.352-54.6-35.381-215.444Z" transform="translate(4273.799 -160.59)"/>
                <path id="Path_5341" data-name="Path 5341" d="M-3755.654,394c-26.213,31.8-96.749,143.039-136.082,223.474-39.258,80.277-90.06,208.538-191.826,273.638s-182.307,67.231-188.631,49.253-26.507-116.429,80.182-247.4c128.53-157.78,288.668-329.948,303.9-353.672S-3755.654,394-3755.654,394Z" transform="translate(4277.924 -151.872)" fill="#f9cfcc"/>
                <path id="Path_5342" data-name="Path 5342" d="M-3493.04,983.68l14.782-9.074s35.42-22.13,11.677-113.832S-3500.039,727.9-3500.039,727.9l219.442-24.08s179.642,176.158,128.66,192.555-58.788,34.267-52.749,51.547,27.215,30.97,40.526,36.784,62.221,35.26,62.221,35.26l-82.207,99.815-233.779,11.36-93.7-103.019V988.507Z" transform="translate(4265.083 -158.055)" fill="#f9cfcc"/>
                <path id="Path_5343" data-name="Path 5343" d="M-3360.865,856.935c39.3,45.47,136.165,62.036,186.234,51.409,0,0-23.455,11.856-28.245,23.636s5.8,29.579,14.865,38.377l-14.527,33.824-70.787,35.267-123.254,2.2-13.485-10.7s85.363,2.974,117.716-13.186,20.428-85.029,12.347-92.339-46.169-24.625-62.713-41.169S-3360.865,856.935-3360.865,856.935Z" transform="translate(4263.383 -160.621)" fill="#eab8b7"/>
                <path id="Path_5344" data-name="Path 5344" d="M-3189.813,972.29c-26.259,63.829-216.572,91.433-295.379,31.859l-7.95-15.971-24.615,14.159s15.869,54,17.8,55.343,231.531,57.193,231.531,57.193l145.848-76.132-26.063-44.046s-12.357-4.765-25.459-11.518S-3189.813,972.29-3189.813,972.29Z" transform="translate(4265.187 -162.554)"/>
                <path id="Path_5345" data-name="Path 5345" d="M-3894.283,1289.527l36.1,60.452a.052.052,0,0,0,.037.026l3.782,3.069,136.389,110.372,13.45,10.893,800.337,14.853,72.519-435c-64.805-11.49-95.246-27.632-192.093-39.836-56.712-7.138-116.639-8.579-116.639-8.579s-46.56,61.271-165.559,64.75-229.477-76.1-229.477-76.1-8.878-1.631-26.319-6.106q-3.334-.846-7.066-1.841l-.014,0c-20.17-5.337-49.371-13.847-87.275-26.8a147.205,147.205,0,0,0-35.476-6.99,199.371,199.371,0,0,0-43.754,1.343l-20.947,44.213Z" transform="translate(4271.495 -162.215)" fill="#fff"/>
                <path id="Path_5346" data-name="Path 5346" d="M-2966.123,1092.528c49.2-39.22,71.81-56.431,161.709-33.666,55.585,14.076,212.832,48.589,238.83,52.527s24.156,22.857,24.156,22.857-39.243,4.183-48.512,51.722-.74,116.8-12.24,153.906-20.712,94.856-15.808,122.154-42.357,37.052-64.638,18.9c0,0-41.366-4.236-101.575,3.636s-100.745,6.272-142.5,5.825-69.664-82.418-90.6-157.293S-3020.025,1135.5-2966.123,1092.528Z" transform="translate(4256.943 -163.834)" fill="#fff"/>
                <path id="Path_5347" data-name="Path 5347" d="M-3529.333,1038.807c143.665,143.932,384.09,72.735,427.251,78.6,43.144,5.878,45.191,37.145,45.191,37.145-21.6,87.544,7.509,188.722,9.711,196.057-.755-3.38-5.755-26.827-9.49-74.545-3.18-40.631,9.371-76.712,34.676-102.162a119.771,119.771,0,0,1,23.7-18.477c21.059-12.568,89.4-15.682,158.181-12.974,64.838,2.544,130.065,10.272,156.461,20.108,54.373,20.286,35.251,43.209,41.592,76.02,6.151,31.881,3.9,83.565,3.776,86.464a501.569,501.569,0,0,0,7.059-69.206c1.1-37.43,1.593-77.041,14.778-95.556,12.064-16.977,30.389-9.957,25.639,3.223,14.594-27.147,40.94-29.959,40.94-29.959s1.843-18.929-24.151-22.863-183.246-38.451-238.837-52.527q-6.583-1.668-12.7-3.052a.19.19,0,0,0-.086-.01c-7.68-1.367-14.879-2.8-21.756-4.276-51.147-10.988-84.931-24.791-170.25-35.55-56.711-7.137-116.64-8.579-116.64-8.579s-46.558,61.271-165.558,64.75c-67.98,1.99-133.2-23.129-176.609-45.042Z" transform="translate(4265.381 -163.13)" fill="#c9d6e8"/>
                <path id="Path_5348" data-name="Path 5348" d="M-3149.046,994.755c-16.617,38.953-93.214,72.893-230.48,58.092s-114.017-64.609-114.017-64.609l14.781-9.074s-11.7-8.758-32.234,2.3-29.748,11.883-30.6,21.962-.412,67.332,140.991,95.019,239.855-17.97,280.254-48.156,27.784-60.017,13.284-65.978-53.348,5.666-53.348,5.666Z" transform="translate(4265.588 -162.614)" fill="#c9d6e8"/>
                <path id="Path_5349" data-name="Path 5349" d="M-3288.507,1108.5q-2.263,0-4.455-.061a1.475,1.475,0,0,1-1.433-1.517,1.469,1.469,0,0,1,1.516-1.432c59.233,1.644,142.052-30.51,170.856-52.5,28.911-22.077,36.6-36.61,29.368-55.538a1.474,1.474,0,0,1,.851-1.9,1.474,1.474,0,0,1,1.9.852c7.807,20.447-.132,35.869-30.334,58.935-15.462,11.806-44.394,25.54-75.5,35.842C-3229.662,1102.4-3262.38,1108.5-3288.507,1108.5Z" transform="translate(4261.443 -162.942)" fill="#0d0d0c"/>
                <path id="Path_5350" data-name="Path 5350" d="M-2888.273,1498.332l-41.113-.773a31.092,31.092,0,0,0,4.3.346C-2912.877,1498.039-2900.785,1498.272-2888.273,1498.332Z" transform="translate(4255.327 -171.355)" fill="#c9d6e8"/>
                <path id="Path_5351" data-name="Path 5351" d="M-2835.776,1051.572c6.877,1.474,14.077,2.909,21.757,4.276C-2821.79,1054.084-2829.007,1052.657-2835.776,1051.572Z" transform="translate(4253.759 -163.882)" fill="#c9d6e8"/>
                <path id="Path_5352" data-name="Path 5352" d="M-2835.776,1051.572c6.877,1.474,14.077,2.909,21.757,4.276C-2821.79,1054.084-2829.007,1052.657-2835.776,1051.572Z" transform="translate(4253.759 -163.882)" fill="#c9d6e8"/>
                <path id="Path_5353" data-name="Path 5353" d="M-4026.578,1186.352c-18.759,30.163,14.173,86.155,36.814,77.641,0,0,30.6,5.808,77.152,44.792,19.028,15.929,36.135,28.759,52.116,39.864a.054.054,0,0,0,.038.025c1.648,1.151,3.278,2.269,4.892,3.381l.027.008c21.191,14.474,40.524,26.089,59.994,38.19,16.963,10.548,41.273,3.668,68.354-12.083,29.538-17.147,62.37-44.846,92.559-71.917,57.891-51.9,108.455-165.186,86.078-230.4-14.623-42.617-23.82-68.379-60.195-90.268-14.428-8.675-33.115-16.735-58.1-25-7.407-2.445-16.609-5.595-27.049-9.228-66.2-22.99-181.841-65.575-202.611-74.767-24.053-10.645-44.417,3.55-44.417,3.55s-5.132,1.62-12.955,12.133c-.413.546-.833,1.119-1.247,1.724a.545.545,0,0,0-.1.134c-.175.246-.352.49-.528.735-5.116,7.422-11.212,18.517-17.71,35.022-17.715,45.076-11.567,117.172-21.8,154.646S-4011.941,1162.792-4026.578,1186.352Z" transform="translate(4273.805 -160.884)" fill="#fff"/>
                <path id="Path_5354" data-name="Path 5354" d="M-3936.214,901.253c-12.448,12.934-20.263,33.161-21.106,63.667s34.66,28.177,97.462,25.747c28.619-1.106,69.546-.655,102.512,6.249,39.392,8.245,67.431,25.653,49.6,60.522-32.337,63.241-41.442,150.144-41.671,152.332-.1-.713-.687-4.725-3.6-24.1-4.1-27.125-6.878-82.778-6.878-82.778-13.84,53.229,3.05,171.054,3.05,171.054s1.321,13.156-8.752,31.073-62.958,56.88-88.685,47.048l-.027-.008a5.109,5.109,0,0,0-1.11-.312l136.39,110.371c-1.875-22.527-4.142-50.167-6.906-83.945q-.723-8.82-1.493-18.218c-12.966-158.563-1.6-176.59,10.728-220.847s39.7-118.745,84.758-144.1a89.715,89.715,0,0,1,24.45-9.42,90.887,90.887,0,0,1,37.6-.438c-20.169-5.337-49.371-13.847-87.276-26.8a147.17,147.17,0,0,0-35.476-6.99c-66.2-22.99-181.841-65.575-202.612-74.767-24.052-10.645-44.418,3.55-44.418,3.55s-5.133,1.62-12.952,12.133C-3943.761,881.581-3924.406,888.978-3936.214,901.253Z" transform="translate(4272.552 -160.884)" fill="#c9d6e8"/>
                <path id="Path_5355" data-name="Path 5355" d="M-3954.457,895.235a4.663,4.663,0,0,0,.529-.736C-3954.1,894.745-3954.28,894.99-3954.457,895.235Z" transform="translate(4272.505 -161.25)" fill="#c9d6e8"/>
              </g>
              <path id="Path_5356" data-name="Path 5356" d="M-4213.481,883.845c-3.284,0-5.162-.022-5.317-.023a.985.985,0,0,1-.97-1,.983.983,0,0,1,.983-.97h.012c1.377.022,138.887,1.578,186.541-24.083a.982.982,0,0,1,1.333.4.982.982,0,0,1-.4,1.332C-4074,882.494-4187.53,883.845-4213.481,883.845Z" transform="translate(4276.95 -160.633)" fill="#db8882"/>
              <path id="Path_5357" data-name="Path 5357" d="M-2875.826,1522.424a1.465,1.465,0,0,1-.81-.243c-81.463-53.71-122.206-136.172-122.606-137a1.473,1.473,0,0,1,.679-1.972,1.477,1.477,0,0,1,1.972.681c.4.82,40.812,82.576,121.577,135.826a1.474,1.474,0,0,1,.419,2.044A1.47,1.47,0,0,1-2875.826,1522.424Z" transform="translate(4256.5 -169.437)" fill="#0d0d0c"/>
              <path id="Path_5358" data-name="Path 5358" d="M-2985.618,1449.442a1.471,1.471,0,0,1-1.222-.651c-1.9-2.811-46.528-69.122-52.836-92.906-16.82-63.422-22.185-121.142-15.947-171.558,6.4-51.675,22.714-76.049,27.563-82.289,19.37-24.924,56.061-38.855,57.614-39.436a1.473,1.473,0,0,1,1.9.864,1.475,1.475,0,0,1-.864,1.9c-.374.14-37.469,14.229-56.319,38.484-4.731,6.089-20.659,29.913-26.963,80.841-6.192,50.039-.854,107.383,15.87,170.437,6.182,23.307,51.967,91.328,52.428,92.014a1.474,1.474,0,0,1-.4,2.047A1.47,1.47,0,0,1-2985.618,1449.442Z" transform="translate(4257.485 -164.066)" fill="#0d0d0c"/>
              <path id="Path_5359" data-name="Path 5359" d="M-3713.676,1470.631a1.473,1.473,0,0,1-1.465-1.324c-.925-9-22.623-220.817-17.486-254.687,5.026-33.143,29.022-121.691,61.715-176.2a1.477,1.477,0,0,1,2.024-.506,1.473,1.473,0,0,1,.505,2.024c-32.482,54.16-56.33,142.178-61.328,175.125-5.082,33.5,17.277,251.743,17.5,253.943a1.475,1.475,0,0,1-1.316,1.618A1.351,1.351,0,0,1-3713.676,1470.631Z" transform="translate(4268.8 -163.65)" fill="#0d0d0c"/>
              <path id="Path_5360" data-name="Path 5360" d="M-3728.68,1307.425a1.474,1.474,0,0,1-1.439-1.158c-1.637-7.432-39.912-182.5-23.33-224.382a1.477,1.477,0,0,1,1.914-.828,1.472,1.472,0,0,1,.828,1.913c-16.252,41.055,23.069,220.851,23.468,222.663a1.474,1.474,0,0,1-1.122,1.757A1.523,1.523,0,0,1-3728.68,1307.425Z" transform="translate(4269.206 -164.374)" fill="#0d0d0c"/>
            </g>
          </g>
          <g id="Group_2700" data-name="Group 2700" transform="translate(1097.78 0)">
            <g id="Group_2695" data-name="Group 2695" transform="translate(41.949)">
              <circle id="Ellipse_206" data-name="Ellipse 206" cx="428.171" cy="428.171" r="428.171"/>
            </g>
            <g id="Group_2699" data-name="Group 2699" transform="translate(0 48.799)">
              <g id="Group_2696" data-name="Group 2696" transform="translate(30.437)">
                <circle id="Ellipse_207" data-name="Ellipse 207" cx="412.583" cy="412.583" r="412.583" fill="#fff"/>
              </g>
              <path id="Path_5361" data-name="Path 5361" d="M-3136.434,566.916c11.421,7.919,28.625,2.226,45.16-43.405s-2.169-117.452-2.169-117.452l-67.992,85.158Z" transform="translate(3161.435 -197.693)"/>
              <g id="Group_2697" data-name="Group 2697" transform="translate(80.685 50.247)" opacity="0.5">
                <circle id="Ellipse_208" data-name="Ellipse 208" cx="362.336" cy="362.336" r="362.336" fill="#c9d6e8"/>
              </g>
              <g id="Group_2698" data-name="Group 2698" transform="translate(7.695 38.244)">
                <path id="Path_5362" data-name="Path 5362" d="M-2843.481,970.388a1.457,1.457,0,0,1-.516-.093c-9.88-3.684-19.75-7.847-29.34-12.373a1.474,1.474,0,0,1-.7-1.962,1.477,1.477,0,0,1,1.964-.7c9.515,4.491,19.308,8.621,29.111,12.278a1.474,1.474,0,0,1,.866,1.9A1.475,1.475,0,0,1-2843.481,970.388Z" transform="translate(3148.926 -245.138)" fill="#0d0d0c"/>
                <path id="Path_5363" data-name="Path 5363" d="M-2717.458,981.715q-18.551,0-37.076-1.851a1.475,1.475,0,0,1-1.32-1.615,1.47,1.47,0,0,1,1.615-1.32c156.011,15.616,305.814-69.209,372.772-211.074a368.857,368.857,0,0,0,13.714-283.848A368.869,368.869,0,0,0-2558.77,271.6c-185.147-87.385-406.868-7.847-494.253,177.3a369.237,369.237,0,0,0-15.122,279.845,1.478,1.478,0,0,1-.913,1.876,1.476,1.476,0,0,1-1.875-.911,372.177,372.177,0,0,1,15.242-282.068,371.926,371.926,0,0,1,88.775-119.186,373,373,0,0,1,123.3-73.345,372.963,372.963,0,0,1,141.81-21.757,371.9,371.9,0,0,1,144.292,35.579,371.911,371.911,0,0,1,119.185,88.774,373,373,0,0,1,73.346,123.3,372.988,372.988,0,0,1,21.758,141.81,371.9,371.9,0,0,1-35.58,144.292,371.613,371.613,0,0,1-156.47,167.321,375.853,375.853,0,0,1-105.693,39.354A373.808,373.808,0,0,1-2717.458,981.715Z" transform="translate(3152.571 -233.038)" fill="#0d0d0c"/>
                <path id="Path_5364" data-name="Path 5364" d="M-3076.659,830.775c10.942-17.667-5.643-114.11-6.669-117.189s23.085-31.293,10.773-43.092-52.058-47.11-61.561-61.968-19.493,13.233-19.493,13.233l4.1,95.723Z" transform="translate(3153.609 -239.258)"/>
              </g>
            </g>
          </g>
          <path id="Path_5365" data-name="Path 5365" d="M-2057.539,1286.657c-56.888,53.172-140.534,70.109-143.045,29.972a.031.031,0,0,1-.006-.02c-.9-2.724-132.625-163.792-70.546-428.345l22.27-161.906-23.7-125.613-78.853-126.52-4.741-17.533c10.506-.853,45.878,27.954,52.138,38.254s13.419,9.441,12.647,8.025-15.382-58.125-15.382-58.125l-56.51-61.815-6.566-12.17s47.554,18.992,66.666,29.886,48.549,32.308,48.549,32.308l-11.653-32.389-74.352-58.82,83.5,22.046,2.211-25.247s80.131,9.68,91.571,18.282,61.557,58.871,77.394,110.028-13.343,105.248-13.142,173.531,14.168,118.767,49.61,321.186C-2016.961,1147.4-2000.652,1233.471-2057.539,1286.657Z" transform="translate(4245.952 -147.764)"/>
          <g id="Group_2701" data-name="Group 2701" transform="translate(1850.195 181.034)">
            <path id="Path_5366" data-name="Path 5366" d="M-2126.481,600.5c11.638-50.14,5.931-113.376-2.932-137.493s-33.249-76.258-40.234-85.731-46.265-28.485-52.931-24.929c0,0-21.731-15.777-39-14.237a28.683,28.683,0,0,0-23.409,15.4s-60.771-26.368-77.307-24.815-3.686,21.581,13.4,30.309,49.485,22.853,58.5,31.443,26.041,62.072,26.041,62.072-38.876-41.748-58.793-56.393-55.567-31.394-63.21-34.825-13.36,8.577-7.315,19.318,50.278,40.108,55.641,47.9,29.324,63.229,34.25,75.052a195.628,195.628,0,0,1,7.674,22.142s-17.419-10.569-24.493-25.363-19.871-37.756-35.839-47.565-24.178-1.879-11.058,23.657,20.921,61.251,46.109,88.826,67.787,86.872,82.537,110.112,84.1,1.432,99.8-1.236S-2136.546,643.865-2126.481,600.5Z" transform="translate(2396.198 -328.63)" fill="#f9cfcc"/>
            <path id="Path_5367" data-name="Path 5367" d="M-2268.072,361.03a54.513,54.513,0,0,1,10.238,7.791,106.967,106.967,0,0,1,8.8,9.438c2.758,3.3,5.362,6.728,7.842,10.241s4.835,7.109,7.054,10.809c4.33,7.431,8.559,14.836,12.736,22.318s8.242,15.007,12.188,22.616q-6.964-10.8-13.573-21.823c-4.41-7.332-8.773-14.737-13.024-22.124a213.088,213.088,0,0,0-14.369-21.114c-2.627-3.353-5.349-6.636-8.288-9.721A60.826,60.826,0,0,0-2268.072,361.03Z" transform="translate(2394.051 -329.173)" fill="#0d0d0c"/>
            <path id="Path_5368" data-name="Path 5368" d="M-2215.7,358.989l2.067,1.934c.706.635,1.3,1.371,1.949,2.056.632.7,1.29,1.384,1.9,2.1l1.828,2.164q3.608,4.369,6.935,8.953c4.473,6.08,8.7,12.331,12.8,18.659,4.065,6.351,8.029,12.768,11.79,19.3a210.32,210.32,0,0,1,10.459,20.059c-1.854-3.283-3.8-6.5-5.8-9.692l-5.976-9.575c-4.022-6.359-8.044-12.714-12.129-19.03q-6.086-9.5-12.4-18.843c-1.05-1.559-2.1-3.114-3.186-4.649s-2.133-3.1-3.257-4.6l-1.646-2.289c-.551-.762-1.147-1.485-1.719-2.23C-2213.207,361.8-2214.47,360.425-2215.7,358.989Z" transform="translate(2393.174 -329.139)" fill="#0d0d0c"/>
            <path id="Path_5369" data-name="Path 5369" d="M-2270.37,633.631c17.862,31.039,14.469,175.285-9.079,261.489s-87.643,257.373-38.382,367.678,163.7,122.69,178.864,111.144,94.709-116.081,68.932-250.767c-38.252-199.878-59.912-434.287-59.6-462.478S-2270.37,633.631-2270.37,633.631Z" transform="translate(2395.189 -333.74)" fill="#f9cfcc"/>
          </g>
          <path id="Path_5587" data-name="Path 5587" d="M299.793,717.641s-14.951,333.662,66.394,344.207,689.921,4.521,757.707-31.633,70.8-164.2,70.8-164.2l105.446,212.4L290.868,1140.179Z" transform="translate(248.253 612.5)" fill="#d6dce6"/>
          <g id="Group_2747" data-name="Group 2747" transform="translate(525.25 123.967)">
            <path id="Path_5398" data-name="Path 5398" d="M-3122.581,868.21a86.079,86.079,0,0,1-13.542,11.149,92.142,92.142,0,0,1-23.5,10.664h-.019c-1.058.326-2.145.653-3.274.959q-3.471,1.053-6.617,2.166c-60.333,17.252-146.346-21.1-232.947-72.227-1.168-3.1-68.408,29.443-69.843,26.457,0,0-85.27-29.687-148.5-114.8s-51.982-292.62,94.441-350.054S-3214.994,390-3169.529,504.7c9.15,23.089,10.089,61.271,11.2,75.882s-4.838,21.813,4.4,36.888,39.885,35.324,45.829,42.625-10.376,28.677-10.376,28.677,5.321,38.609,12.474,83.253S-3108.752,854.717-3122.581,868.21Z" transform="translate(3743.721 -270.401)" fill="#f9cfcc"/>
            <path id="Path_5399" data-name="Path 5399" d="M-3137.2,571.775c-10.677,42.222-43.816,62.569-54.094,62.413s1.36-10.449,7.852-32.393,5.094-77.184,5.094-77.184l25.339-22.183Z" transform="translate(3734.459 -273.232)"/>
            <path id="Path_5400" data-name="Path 5400" d="M-3225,912.432c-47.808,0-101.551-28.276-102.1-28.571a.979.979,0,0,1-.4-1.325.979.979,0,0,1,1.325-.4c.564.3,57.026,30.007,105.281,28.268a.986.986,0,0,1,1.015.945.979.979,0,0,1-.942,1.014C-3222.209,912.407-3223.6,912.432-3225,912.432Z" transform="translate(3737.11 -280.843)" fill="#db8882"/>
            <path id="Path_5401" data-name="Path 5401" d="M-3327.308,614.567c.328,47.627-44.868,117.362-52.964,175.28s.554,80.555.554,80.555-40.853,23.145-91.536,9.776c0,0-87.636-37.43-133.139-86.881s-99.246-136.766-99.246-136.766Z" transform="translate(3744.65 -275.48)" fill="#c95380"/>
            <path id="Path_5402" data-name="Path 5402" d="M-3222.245,501.741c9.449,31.379,17.413,69.281-23.481,101.539s-41.979,43.2-37.523,49.35,2.891,19.266-14.388,2.249-9.145-41.008-9.145-41.008,6.245,10.326-15.165,23.458-94.268,66.9-116.971,90.519-14.475-34.056-14.475-34.056l-7.617,64.573-24.147,25.441-20.878-42.172-104.023-8.476s-9.652,7.567-8.89,7.972,1.929,10.233-4.608,21.454l-19.57-36.376,48.4-94.721,348.186-205.409Z" transform="translate(3743.437 -271.701)"/>
            <path id="Path_5403" data-name="Path 5403" d="M-3582.91,350.232c11.129-45.082,108.191-97.525,202.974-77.173s123.516,23.5,159.959,46.447,39.188,13.667,36.7,6.716,7.367-4.3,8.37,8.828-10.88,15.327-10.88,15.327,41.643,36.14,55.378,70.344,1,106.12-6.595,122.852-8.668,5.365-8.6-7.579-3.1-51.133-24.539-76.5c0,0,15.381,56.664,2.474,96.345s-58.1,69.58-55.853,57.112,9.415-44.129,4.123-69.043-48.362-74.8-48.362-74.8,33.8,31.974,19.676,79.287c-4.782,16.017-10.122,43.6-40.766,65.519s-31.539,50.924-25.268,59.731-8.307,7.24-15.3-8.444-7.073-32.567,2.168-47.992c0,0-86.1,61.3-103.857,93.435s-20.3,33.595-20.825,48.056-11.766.95-11.352-16.527c0,0-16.388,27.094-23.469,42.181s-31.531,4.64-31.224-9.04c0,0,.813,5.6-5.447,8.96s-29.975-9.715-29.975-9.715,17.247,14.082,5.457,16.973-30.873-1.654-83.3-58.584c0,0,10.933,21.949,3.822,34.594s-11.164,9.085-10.749-3.912-18.22-21.909-49.864-60.366c-25.822-31.384-52.77-160.227-10.28-238.872,28.8-53.3,92.474-91.04,92.474-91.04s-8.76-20.262,4.216-40.116,40.732-29.284,35.836-23.427C-3583.933,331.517-3582.91,350.232-3582.91,350.232Z" transform="translate(3744.988 -268.542)" fill="#ed759d"/>
            <path id="Path_5404" data-name="Path 5404" d="M-3404.819,350.935c3.54,6.591,6.973,13.247,10.136,20.038.823,1.682,1.573,3.4,2.354,5.1s1.566,3.406,2.291,5.135l2.217,5.17,2.076,5.231c2.692,7,5.2,14.1,7.285,21.327a202.836,202.836,0,0,1,5.085,22.014,155.826,155.826,0,0,1,1.253,45.2,154.941,154.941,0,0,1-4.4,22.265,179.284,179.284,0,0,1-7.462,21.4,219.342,219.342,0,0,1-9.807,20.369l-5.4,9.83c-.912,1.62-1.74,3.285-2.593,4.936s-1.729,3.293-2.515,4.979a311.013,311.013,0,0,0-16.817,41.323,328.657,328.657,0,0,0-11.02,43.311,268.342,268.342,0,0,0-4.582,44.522c-.529-14.966.9-29.951,3.073-44.775a306.068,306.068,0,0,1,10.012-43.855,306.635,306.635,0,0,1,16.328-41.986c.78-1.712,1.662-3.373,2.494-5.06.848-1.678,1.667-3.37,2.574-5.018l5.291-9.895c3.433-6.586,6.613-13.294,9.45-20.138a167.484,167.484,0,0,0,11.58-42.679,159.208,159.208,0,0,0-.747-44.2,205.617,205.617,0,0,0-4.509-21.794q-2.886-10.769-6.571-21.336c-2.456-7.037-5.155-14-8.015-20.9l-2.183-5.16-2.267-5.125C-3401.691,357.73-3403.282,354.347-3404.819,350.935Z" transform="translate(3739.299 -270.194)" fill="#fff"/>
            <path id="Path_5405" data-name="Path 5405" d="M-3473.175,323.132a33.489,33.489,0,0,1,5.433,12.888,57.483,57.483,0,0,1,.885,14.065c-.485,9.415-2.462,18.668-4.858,27.738-2.452,9.069-5.45,17.966-8.581,26.8s-6.465,17.586-9.8,26.327c-6.653,17.493-13.548,34.869-19.7,52.492a480.507,480.507,0,0,0-15.849,53.57c-2.037,9.071-3.755,18.215-4.888,27.425A200.888,200.888,0,0,0-3532,592.177c.167,18.571,2.629,37.092,6.276,55.349a410.847,410.847,0,0,0,14.958,53.872,407.709,407.709,0,0,0,21.626,51.676c-2.336-4.054-4.525-8.193-6.643-12.37-2.095-4.186-4.083-8.427-6.029-12.686-3.855-8.537-7.475-17.185-10.79-25.956a412.7,412.7,0,0,1-16.11-53.9c-2.055-9.167-3.707-18.433-4.893-27.768a263.885,263.885,0,0,1-2.137-28.162,203.532,203.532,0,0,1,1.4-28.266,275.226,275.226,0,0,1,4.891-27.818,467.866,467.866,0,0,1,16.194-53.939c6.375-17.639,13.348-35.023,20.4-52.347,6.97-17.346,14-34.685,19.334-52.552a135.135,135.135,0,0,0,5.655-27.289,57.323,57.323,0,0,0-.437-13.895A33.24,33.24,0,0,0-3473.175,323.132Z" transform="translate(3741.283 -269.637)" fill="#fff"/>
            <path id="Path_5406" data-name="Path 5406" d="M-3595.048,380.479c-22.088,20.812-42.058,44-57.15,70.174a223.356,223.356,0,0,0-18.517,41.141,209.564,209.564,0,0,0-5.957,21.76q-2.375,11.032-3.658,22.267a266.6,266.6,0,0,0-1,45.173c.064,1.889.243,3.77.367,5.654.146,1.883.247,3.771.428,5.65.378,3.758.7,7.524,1.194,11.267.861,7.505,2.067,14.968,3.555,22.37a218.574,218.574,0,0,0,13.145,43.282,148.526,148.526,0,0,0,10.446,20.107,110.21,110.21,0,0,0,6.491,9.308,63.486,63.486,0,0,0,7.639,8.4,63.615,63.615,0,0,1-8.048-8.069,102.187,102.187,0,0,1-6.873-9.126,149.878,149.878,0,0,1-11.235-19.912,187.3,187.3,0,0,1-8.374-21.3,218.1,218.1,0,0,1-5.991-22.1c-1.64-7.457-3-14.978-4-22.544-.569-3.776-.916-7.577-1.342-11.369-.206-1.9-.33-3.8-.5-5.7-.144-1.9-.347-3.8-.433-5.707-.478-7.608-.829-15.253-.7-22.9.1-7.648.55-15.3,1.383-22.911a211,211,0,0,1,9.885-44.8,197.15,197.15,0,0,1,8.585-21.3,227,227,0,0,1,10.772-20.253c3.976-6.532,8.245-12.872,12.746-19.038q6.873-9.159,14.414-17.76c5.093-5.669,10.326-11.206,15.82-16.469,2.7-2.681,5.518-5.235,8.31-7.811C-3600.836,385.4-3597.906,382.977-3595.048,380.479Z" transform="translate(3744.288 -270.787)" fill="#fff"/>
            <path id="Path_5407" data-name="Path 5407" d="M-3611.277,597.659l-2.3-7.411c-.65-2.5-1.212-5.033-1.824-7.553-.554-2.532-.954-5.095-1.438-7.646-.26-1.274-.4-2.563-.574-3.849l-.5-3.863a194.239,194.239,0,0,1-.847-31.135,249.072,249.072,0,0,1,3.53-30.968c1.833-10.233,4.238-20.353,7.042-30.352q4.312-14.971,9.884-29.53c3.769-9.67,7.871-19.214,12.506-28.5a280.874,280.874,0,0,1,15.231-27.119c5.674-8.664,11.693-17.191,19-24.534l-2.455,3c-.817,1-1.558,2.059-2.338,3.083s-1.542,2.064-2.273,3.125-1.5,2.094-2.2,3.173c-1.406,2.16-2.843,4.293-4.162,6.508-.668,1.1-1.354,2.189-2,3.3l-1.925,3.346c-5.152,8.911-9.805,18.1-14.114,27.439-4.266,9.359-8.265,18.84-11.8,28.495-3.578,9.636-6.8,19.4-9.586,29.288a306.326,306.326,0,0,0-11.3,60.442,217.493,217.493,0,0,0-.292,30.77l.281,3.844c.1,1.283.166,2.568.353,3.84.336,2.547.588,5.113.994,7.654.462,2.53.889,5.073,1.382,7.6Z" transform="translate(3742.953 -270.48)" fill="#fff"/>
            <path id="Path_5408" data-name="Path 5408" d="M-3306.66,555.977c-.022-5.939.132-11.85.273-17.754l-.014-17.7c-.333-11.784-.586-23.562-1.769-35.263a289.8,289.8,0,0,0-4.929-34.876c-.563-2.884-1.326-5.717-1.945-8.593-.352-1.426-.755-2.836-1.134-4.257s-.746-2.846-1.21-4.239l-1.3-4.218-1.464-4.166a79.294,79.294,0,0,0-3.485-8.137,58.553,58.553,0,0,1,4.482,7.706l1.886,4.05,1.7,4.133c.587,1.374,1.042,2.79,1.541,4.2s1,2.811,1.456,4.229l1.259,4.289c.4,1.436.872,2.857,1.195,4.31.694,2.9,1.448,5.786,2.033,8.707l1.65,8.786c.828,5.9,1.723,11.795,2.168,17.73l.364,4.45c.128,1.483.248,2.966.285,4.453l.349,8.916c.141,2.971.067,5.944.046,8.915s-.069,5.942-.13,8.91c-.27,5.933-.693,11.858-1.119,17.77C-3305.153,544.22-3305.82,550.113-3306.66,555.977Z" transform="translate(3737.031 -271.514)" fill="#fff"/>
            <path id="Path_5409" data-name="Path 5409" d="M-3182.292,433.264a222.358,222.358,0,0,0-29.558-38.771l-4.3-4.3c-1.45-1.416-2.8-2.936-4.344-4.251l-4.512-4.074c-1.512-1.347-2.972-2.754-4.588-3.981l-4.72-3.825c-1.572-1.277-3.117-2.588-4.788-3.736l-4.924-3.56c-1.638-1.191-3.265-2.4-5-3.448l-5.094-3.31-2.547-1.657c-.841-.562-1.748-1.023-2.618-1.54l-5.274-3.02-2.636-1.511c-.873-.514-1.8-.928-2.694-1.4l-5.417-2.762c-1.807-.921-3.6-1.873-5.473-2.649l-5.565-2.461c-1.854-.823-3.684-1.712-5.6-2.394a273.588,273.588,0,0,0-46.742-14.079,202.617,202.617,0,0,1,47.842,11.223c1.964.621,3.85,1.45,5.76,2.215l5.708,2.363c1.921.747,3.763,1.67,5.62,2.565l5.569,2.683c1.881.848,3.663,1.886,5.456,2.9l5.391,3.034c.89.518,1.814.981,2.676,1.547l2.6,1.666,5.21,3.337c1.754,1.085,3.4,2.325,5.065,3.549l4.984,3.663c1.691,1.182,3.257,2.527,4.848,3.84l4.755,3.956c1.613,1.286,3.07,2.75,4.578,4.156l4.495,4.245c1.536,1.376,2.888,2.94,4.309,4.429l4.2,4.529A173.983,173.983,0,0,1-3182.292,433.264Z" transform="translate(3737.332 -269.705)" fill="#fff"/>
            <g id="Group_2752" data-name="Group 2752" transform="translate(-14.775 10.053)">
              <path id="Path_5460" data-name="Path 5460" d="M762.2,799.268a86.15,86.15,0,0,1-13.566,11.169A92.272,92.272,0,0,1,725.1,821.119h-.02c-1.06.327-2.15.654-3.28.961q-3.478,1.056-6.629,2.17c-60.44,17.284-146.608-21.137-233.363-72.356-1.169-3.1-68.529,29.5-69.967,26.5,0,0-85.423-29.739-148.766-115S211,370.252,357.681,312.716s311.941,7.482,357.487,122.4c9.166,23.13,10.108,61.382,11.218,76.018s-4.846,21.852,4.41,36.954,39.956,35.387,45.912,42.7-10.4,28.728-10.4,28.728,5.331,38.678,12.5,83.4S776.054,785.751,762.2,799.268Z" transform="translate(-126.462 -211.544)" fill="#f9cfcc"/>
              <path id="Path_5461" data-name="Path 5461" d="M659.013,842.638c-47.893,0-101.732-28.327-102.286-28.622a.982.982,0,0,1,.922-1.734c.565.3,57.122,30.069,105.471,28.319a.966.966,0,0,1,1.016.946.981.981,0,0,1-.946,1.016C661.805,842.614,660.41,842.638,659.013,842.638Z" transform="translate(-132.496 -221.074)" fill="#db8882"/>
              <path id="Path_5462" data-name="Path 5462" d="M557.19,544.719c.329,47.712-44.948,117.571-53.059,175.593s.556,80.7.556,80.7-40.926,23.187-91.7,9.793c0,0-87.791-37.5-133.376-87.035s-99.422-137.01-99.422-137.01Z" transform="translate(-125.615 -216.18)" fill="#c95380"/>
              <g id="Group_2752-2" data-name="Group 2752">
                <path id="Path_5463" data-name="Path 5463" d="M536.243,714.178c-6.619,30.661.279,66.036,23.636,76.229s-7.361,19.184-28.938,7.723-28.872-42.022-28.872-42.022-2.472,21.5,5.276,41.538,9.816,34.18-7.132,27.118-27.95-44.431-27.95-44.431l20.967-51.721,31.258-42.347Z" transform="translate(-130.96 -218.77)"/>
                <path id="Path_5464" data-name="Path 5464" d="M590.827,559.057c-14.707,44.183-28.021,90.694-28.178,124.733s46,50.673,55.512,45.459,10.789,2.838-2.277,8.66-29.282,7.342-49.9-.782-49.52-56.649-49.52-56.649l34.546-115.86L560.857,497l27,4.4Z" transform="translate(-131.769 -215.306)"/>
                <path id="Path_5465" data-name="Path 5465" d="M645.256,657.031c25.885,17.571,68.3,23.365,81.669,10.679s-2.811.418-27.82-11.56a75.635,75.635,0,0,1-42.634-68.3c.186-30.039,4.676-70.09-3.257-98.065s-12.867-45.816-29.332-60.948-18.552-7.194-18.552-7.194L598.063,461Z" transform="translate(-133.262 -213.889)"/>
                <path id="Path_5466" data-name="Path 5466" d="M778.993,632.1c-37.374-15.054-40.051-83.966-40.051-83.966l-5.188-11.785-23.216,25.075s5.817,46.083,6.543,47.72,7.753,37.625,8.421,38.379,48.509,23.464,48.992,22.722,8.956-12.773,8.956-12.773Z" transform="translate(-135.321 -216.027)"/>
                <path id="Path_5467" data-name="Path 5467" d="M570.119,532.795c-27.164,69.129-38.6,134.012-51.188,183.935S548.4,812.96,534.8,814.785s-42.08-21.869-42.08-21.869,15.182,36.139,4.479,35.767-25.116-18.9-25.116-18.9,3.558,17.221-18.72,4.418-24.8-15.863-24.8-15.863,28.953,19.878,18.813,26.166S382.178,808.421,343.645,776a27.254,27.254,0,0,1-.208,19.124c-4.014,10.131-6.029.922-6.361-5.144s-11.263-16.578-49.869-41.39-18.523-21.826-49.6-67.273S570.119,532.795,570.119,532.795Z" transform="translate(-126.631 -215.962)" fill="#ed759d"/>
                <path id="Path_5468" data-name="Path 5468" d="M354.581,248.56C390,190.375,456.267,216.233,529.423,213.33s161.6,48.313,197.1,102.375,31.051,117.118,19.237,150.663-9.465,1.55-10.168-19.449-5.112-37.968-26.469-57.865c0,0,26.5,28.878,19.29,99.607-8.624,84.649-23.889,120.106,10.719,148.773,22.821,18.9,50.523,17.568,70.219,4.05s21.723-43.914,28.42-43.423,3.167,38.386-15.115,63.228-72.371,44.794-129.023-.121c-42.636-33.8-34.179-99.392-37.959-149.794s-45.423-84.881-45.423-84.881,41.137,45.85,23.1,143.248c-9.628,51.986,8.9,97.485,43.791,107.8,16.841,4.977,6.8,15.88-16.93,6.425-31.074-12.381-81.241-56.459-83.814-107.876-2.775-55.447-6.989-56.833-6.989-56.833s-2.659,46.189-42.225,91.478c-43.633,49.945-58.546,73.941-59.911,92.544s-27.969,3.932-26.89-31.151c0,0-12.979,44.309-11.962,61.029s-14.8,7.36-20.577-15.524c0,0-1.709,12.2-8.114,13.417s-26.947-14.51-26.947-14.51,15.367,25.069.43,24.72-31.253-2.3-67.673-25.917-54.872-47.419-54.872-47.419,11.362,50.651,9,62.447-7.441-.546-15.5-13.108-61.95-50.076-88-102.86-12.511-179.391,26.087-262.33S284.217,246.573,354.581,248.56Z" transform="translate(-124.93 -210.055)" fill="#ed759d"/>
                <path id="Path_5469" data-name="Path 5469" d="M220.6,551.44c-4.732,105.992,6.58,150.292,50.139,194.664,42.711,43.508,28.281,69.544,25.315,71.85s-9.611-26.008-27.818-40.33c-42.67-33.564-63.691-30.177-107.679-94.385-63.552-92.766-36.184-251.179,30.026-346.066S220.6,551.44,220.6,551.44Z" transform="translate(-124.598 -212.05)" fill="#ed759d"/>
                <path id="Path_5470" data-name="Path 5470" d="M263.6,585.622c-4.732,105.992,14.455,146.242,67.49,176.313s45.112,64.691,42.146,67-4.086-12.241-24.216-23.707S240.913,742.8,196.284,679.031s5.273-235.994,71.483-330.88S263.6,585.622,263.6,585.622Z" transform="translate(-125.598 -212.271)" fill="#ed759d"/>
                <path id="Path_5471" data-name="Path 5471" d="M578.6,532.2c-15.373,92.224-44.112,156.028-12.32,190.621s14.662,29.315-2.086,22.6-46.257-29.488-49.871-65.578,5.528-47.159,5.528-47.159l42.4-121.535,11.1,2.921Z" transform="translate(-131.715 -215.565)" fill="#ed759d"/>
                <path id="Path_5472" data-name="Path 5472" d="M469.282,282.377q3.288,5.833,6.1,11.935c1.853,4.071,3.493,8.239,5.017,12.449s2.858,8.49,4.069,12.8,2.278,8.671,3.2,13.06,1.7,8.807,2.349,13.243,1.214,8.886,1.643,13.35.756,8.936.979,13.414.371,8.959.42,13.441a463.846,463.846,0,0,1-2.784,53.654c-1.931,17.8-4.559,35.512-7.612,53.127-5.943,35.264-14.258,70.042-16.7,105.586A406.794,406.794,0,0,0,465.3,651.8q.7,13.338,2.544,26.594c.614,4.415,1.362,8.81,2.208,13.186s1.8,8.739,3.062,13.022a180.6,180.6,0,0,1-6.231-26.057q-2.263-13.222-3.368-26.621a375.478,375.478,0,0,1-.475-53.68c.549-8.939,1.316-17.87,2.414-26.761,1.114-8.885,2.467-17.758,3.988-26.562,2.994-17.626,6.41-35.142,9.37-52.726,3-17.574,5.755-35.181,7.712-52.876a492.2,492.2,0,0,0,3.4-53.233c.057-8.888-.225-17.78-.9-26.639q-.474-6.648-1.3-13.265-.806-6.616-2-13.177a196.359,196.359,0,0,0-6.335-25.9A171.683,171.683,0,0,0,469.282,282.377Z" transform="translate(-130.778 -211.379)" fill="#fff"/>
                <path id="Path_5473" data-name="Path 5473" d="M399.375,256.356a36.174,36.174,0,0,1,6.549,15.794,71.548,71.548,0,0,1,.636,17.243,142.864,142.864,0,0,1-2.381,17.1c-1.09,5.651-2.467,11.238-3.977,16.781-3.025,11.087-6.547,22.017-10.183,32.893q-5.484,16.305-11.152,32.519c-7.507,21.629-14.784,43.326-20.688,65.379-2.94,11.026-5.475,22.151-7.507,33.356-1,5.607-1.881,11.225-2.533,16.885l-.514,4.242L347.2,512.8c-.31,2.831-.507,5.672-.728,8.511a298.455,298.455,0,0,0,2.617,68.11,276.993,276.993,0,0,0,7.451,33.31,263.53,263.53,0,0,0,11.643,32.11,277.947,277.947,0,0,0,15.679,30.388A329.954,329.954,0,0,0,403,713.625c6.856,9.145,14.208,17.922,21.8,26.493l11.45,12.813c1.9,2.146,3.781,4.307,5.6,6.523a55.79,55.79,0,0,1,5.032,6.962,55.668,55.668,0,0,0-5.221-6.8c-1.88-2.158-3.821-4.262-5.777-6.352l-11.746-12.546c-7.78-8.418-15.341-17.061-22.426-26.1a286.5,286.5,0,0,1-35.949-58.695A263.312,263.312,0,0,1,345.7,589.969a284.233,284.233,0,0,1-3.528-34.38,299.394,299.394,0,0,1,.508-34.55c.218-2.872.41-5.747.717-8.61l.42-4.3.511-4.289c.647-5.721,1.515-11.432,2.513-17.1,1.986-11.353,4.639-22.566,7.623-33.67,5.964-22.219,13.487-43.933,21.225-65.506s15.987-42.951,22.452-64.871c3.142-10.967,6.04-22.056,7.218-33.4a70.66,70.66,0,0,0-.106-17.032A36.3,36.3,0,0,0,399.375,256.356Z" transform="translate(-128.575 -210.903)" fill="#fff"/>
                <path id="Path_5474" data-name="Path 5474" d="M290.661,278.534c-3,3.043-6.076,6.018-9.019,9.118l-4.47,4.592-4.394,4.664c-5.808,6.261-11.513,12.618-16.91,19.224a307.62,307.62,0,0,0-29.452,41.658,227.734,227.734,0,0,0-20.5,46.482,238.127,238.127,0,0,0-6.206,24.648c-1.575,8.334-2.695,16.751-3.449,25.2a327.019,327.019,0,0,0-.28,50.938c.512,8.5,1.588,16.945,2.489,25.411.1,1.06.253,2.113.429,3.161l.5,3.151.99,6.3c.343,2.1.6,4.215,1.014,6.3l1.278,6.251a255.388,255.388,0,0,0,14.656,48.8c.836,1.954,1.644,3.926,2.505,5.871l2.8,5.737c.479.949.907,1.928,1.428,2.856l1.552,2.79c1.054,1.848,2.015,3.756,3.193,5.531l1.7,2.7c.569.9,1.117,1.816,1.75,2.673l1.842,2.611c.6.879,1.228,1.743,1.9,2.571l1.962,2.527c.663.834,1.382,1.623,2.071,2.438a50.489,50.489,0,0,0,4.469,4.584,50.554,50.554,0,0,1-4.687-4.382c-.728-.784-1.488-1.543-2.192-2.35l-2.087-2.445c-.712-.8-1.364-1.655-2-2.515l-1.944-2.564c-.668-.842-1.25-1.743-1.853-2.628l-1.806-2.664c-1.25-1.75-2.28-3.633-3.408-5.459l-1.662-2.76c-.557-.918-1.022-1.886-1.537-2.827l-3.024-5.69c-.937-1.931-1.819-3.889-2.731-5.834a244.081,244.081,0,0,1-15.891-48.936l-1.4-6.291c-.451-2.1-.754-4.227-1.138-6.34l-1.076-6.352-.536-3.178c-.19-1.057-.358-2.117-.468-3.186-1-8.527-2.178-17.04-2.788-25.61a325.055,325.055,0,0,1,.079-51.547c.8-8.575,1.964-17.121,3.6-25.587a228.9,228.9,0,0,1,6.434-25.036c.691-2.042,1.312-4.108,2.061-6.129l2.237-6.067,2.444-5.983c.8-2,1.745-3.94,2.611-5.912a231.95,231.95,0,0,1,12.055-22.827,290.2,290.2,0,0,1,30.625-41.349c5.649-6.45,11.588-12.629,17.621-18.7C278.05,290.1,284.331,284.282,290.661,278.534Z" transform="translate(-125.818 -211.308)" fill="#fff"/>
                <path id="Path_5475" data-name="Path 5475" d="M268.243,537.047l-2.53-7.407c-.726-2.505-1.368-5.038-2.057-7.562-.632-2.537-1.108-5.109-1.67-7.666-.3-1.277-.48-2.572-.689-3.864l-.619-3.88a195.979,195.979,0,0,1-1.752-31.363,251.622,251.622,0,0,1,2.662-31.323c1.551-10.369,3.683-20.64,6.221-30.8q3.913-15.219,9.107-30.057c3.518-9.859,7.378-19.6,11.779-29.095a283.6,283.6,0,0,1,14.566-27.783c5.467-8.9,11.287-17.672,18.439-25.289l-2.388,3.092c-.8,1.029-1.51,2.121-2.268,3.176s-1.494,2.125-2.2,3.215-1.451,2.155-2.129,3.263c-1.355,2.219-2.744,4.411-4.007,6.681-.641,1.129-1.3,2.245-1.927,3.384l-1.845,3.429c-4.937,9.133-9.363,18.531-13.438,28.072-4.031,9.558-7.788,19.233-11.067,29.07-3.33,9.817-6.3,19.756-8.818,29.805a308.686,308.686,0,0,0-9.636,61.266,219.2,219.2,0,0,0,.6,31.031l.4,3.868c.135,1.29.242,2.585.465,3.861.414,2.558.742,5.138,1.227,7.688.54,2.539,1.043,5.089,1.614,7.627Z" transform="translate(-127.055 -211.719)" fill="#fff"/>
              </g>
            </g>
          </g>
        </g>
      </g>
      <g id="Group_2620" data-name="Group 2620" transform="translate(-25.958 -6.336)">
        <g id="Group_2425" data-name="Group 2425" transform="translate(-5207.448 2.924)">
          <line id="Line_143" data-name="Line 143" x2="545.813" transform="translate(6112.25 616.931)" fill="none" stroke="#a9bcd3" stroke-linecap="round" stroke-linejoin="round" stroke-width="3"/>
          <g id="Group_2829" data-name="Group 2829" transform="translate(5218.854 -20.73)">
            <rect id="Rectangle_196" data-name="Rectangle 196" width="107.668" height="42.787" rx="21.393" transform="translate(1112.897 616.268)" fill="#a9bcd3"/>
            <g id="Group_2828" data-name="Group 2828" transform="translate(1135.232 627.534)">
              <path id="Path_6271" data-name="Path 6271" d="M1143.277,646.77a13.69,13.69,0,0,1-5.068-.784v-1.907a12.849,12.849,0,0,0,2.338.64,14.359,14.359,0,0,0,2.548.222,7.232,7.232,0,0,0,3.37-.614,2.293,2.293,0,0,0,1.124-2.207,2.508,2.508,0,0,0-.457-1.581,3.435,3.435,0,0,0-1.5-.993,22.483,22.483,0,0,0-2.8-.823,8.637,8.637,0,0,1-3.893-1.764,3.862,3.862,0,0,1-1.123-2.913,4.112,4.112,0,0,1,1.542-3.384,7.427,7.427,0,0,1,4.7-1.24,16.579,16.579,0,0,1,2.716.209,12.463,12.463,0,0,1,1.935.445v1.88a11.758,11.758,0,0,0-2.038-.522,13.917,13.917,0,0,0-2.274-.183,6.994,6.994,0,0,0-3.292.627,2.62,2.62,0,0,0-.745,3.566,3.08,3.08,0,0,0,1.372.914,21.591,21.591,0,0,0,2.691.8,11.642,11.642,0,0,1,3.214,1.188,4.083,4.083,0,0,1,1.62,1.633,4.714,4.714,0,0,1,.471,2.143,4.041,4.041,0,0,1-1.62,3.435A8,8,0,0,1,1143.277,646.77Z" transform="translate(-1137.817 -628.898)" fill="#fff"/>
              <path id="Path_6272" data-name="Path 6272" d="M1154.608,646.448v-17.61h2.143V635.4a7.265,7.265,0,0,1,2.026-1.15,7.548,7.548,0,0,1,2.7-.444,3.955,3.955,0,0,1,4.495,4.546v8.1h-2.143v-8.021a2.93,2.93,0,0,0-.718-2.26,3.526,3.526,0,0,0-2.365-.64,5.648,5.648,0,0,0-2.156.457,5.57,5.57,0,0,0-1.842,1.188v9.275Z" transform="translate(-1139.559 -628.838)" fill="#fff"/>
              <path id="Path_6273" data-name="Path 6273" d="M1174.568,647.284a5.533,5.533,0,0,1-2.169-.419,3.7,3.7,0,0,1-1.594-1.24,3.433,3.433,0,0,1-.6-2.078,3.7,3.7,0,0,1,1.124-2.783,5.147,5.147,0,0,1,3.659-1.085h4.311v-.757a3.983,3.983,0,0,0-.274-1.62,1.658,1.658,0,0,0-1.032-.862,7.232,7.232,0,0,0-2.221-.261,12.561,12.561,0,0,0-2.168.183,12.9,12.9,0,0,0-1.96.5v-1.776a10.906,10.906,0,0,1,1.973-.51,14.467,14.467,0,0,1,2.443-.2,6.187,6.187,0,0,1,3.958,1.071,4.223,4.223,0,0,1,1.32,3.475v8.1h-1.8l-.157-1.411a5.109,5.109,0,0,1-1.959,1.254A8.4,8.4,0,0,1,1174.568,647.284Zm.549-1.75a5.662,5.662,0,0,0,2.4-.484,5.252,5.252,0,0,0,1.777-1.319v-2.4h-4.259a3.162,3.162,0,0,0-2.09.549,2.109,2.109,0,0,0-.628,1.672,1.635,1.635,0,0,0,.758,1.555A4.128,4.128,0,0,0,1175.116,645.534Z" transform="translate(-1141.177 -629.413)" fill="#fff"/>
              <path id="Path_6274" data-name="Path 6274" d="M1186.558,647.022V634.638h1.934l.156,1.568a12.143,12.143,0,0,1,2.156-1.1,13.618,13.618,0,0,1,2.442-.731v1.672q-.731.157-1.594.431t-1.646.615a7.448,7.448,0,0,0-1.307.705v9.223Z" transform="translate(-1142.873 -629.413)" fill="#fff"/>
              <path id="Path_6275" data-name="Path 6275" d="M1202.09,647.284a6.885,6.885,0,0,1-4.965-1.594,6.559,6.559,0,0,1-1.645-4.912,7.119,7.119,0,0,1,1.422-4.69,5.54,5.54,0,0,1,4.508-1.711,6.12,6.12,0,0,1,3.018.666,4.285,4.285,0,0,1,1.776,1.828,5.735,5.735,0,0,1,.589,2.626v2.326h-9.172a4.824,4.824,0,0,0,.614,2.221,2.824,2.824,0,0,0,1.541,1.162,8.67,8.67,0,0,0,2.731.353,9.151,9.151,0,0,0,3.5-.653v1.672a8.8,8.8,0,0,1-1.817.522A11.831,11.831,0,0,1,1202.09,647.284Zm-4.468-7h7.263v-1.019a3.227,3.227,0,0,0-.8-2.338,3.543,3.543,0,0,0-2.626-.823,3.656,3.656,0,0,0-3.031,1.045A5.073,5.073,0,0,0,1197.622,640.282Z" transform="translate(-1143.799 -629.413)" fill="#fff"/>
            </g>
          </g>
        </g>
        <g id="Group_2827" data-name="Group 2827" transform="translate(5.421 -5.993)">
          <g id="Group_2807" data-name="Group 2807" transform="translate(61.044 7.696)">
            <path id="Path_6173" data-name="Path 6173" d="M984.3,398.737a11.126,11.126,0,0,1-4.234-.764,6.46,6.46,0,0,1-2.985-2.406,7.5,7.5,0,0,1-1.111-4.281,7.023,7.023,0,0,1,2.36-5.576q2.36-2.059,7.218-2.059h8.191v-1.943a7.48,7.48,0,0,0-.624-3.355,3.619,3.619,0,0,0-2.152-1.759,13.442,13.442,0,0,0-4.256-.533,29.888,29.888,0,0,0-4.1.278,21.019,21.019,0,0,0-3.911.925v-3.146a23.547,23.547,0,0,1,4.049-.949,31.071,31.071,0,0,1,4.651-.346,20.994,20.994,0,0,1,2.268.115,14.848,14.848,0,0,1,1.99.347h7.959l-.186,3.1H996.1a6.627,6.627,0,0,1,1.111,2.452,13.979,13.979,0,0,1,.324,3.147v16.288h-3.794V386.8h-7.959a8.141,8.141,0,0,0-4.627,1.041,3.917,3.917,0,0,0-1.481,3.447,3.708,3.708,0,0,0,1.342,3.286,7.74,7.74,0,0,0,4.3.925,11.9,11.9,0,0,0,3.146-.37v3.146q-.788.185-1.851.324A18.078,18.078,0,0,1,984.3,398.737Z" transform="translate(-24.042 -12.586)"/>
            <path id="Path_6174" data-name="Path 6174" d="M997.751,416.365V410.3H994.7l.186-2.591h6.154v8.653Z" transform="translate(-27.542 -19.108)"/>
            <path id="Path_6175" data-name="Path 6175" d="M1018.123,398.737a9.89,9.89,0,0,1-5.136-1.342,9.033,9.033,0,0,1-3.564-4.142,17.333,17.333,0,0,1-1.3-7.242q0-6.109,3.055-9.648t9.439-3.54a13.464,13.464,0,0,1,6.595,1.411,8.811,8.811,0,0,1,3.678,3.679,10.552,10.552,0,0,1,1.157,4.859v15.5h-3.795V382.819a7.869,7.869,0,0,0-.74-3.471,5.324,5.324,0,0,0-2.43-2.406,9.947,9.947,0,0,0-4.557-.88q-4.628,0-6.617,2.592t-1.99,7.357q0,5.275,1.735,7.381a6.24,6.24,0,0,0,5.113,2.1,15.914,15.914,0,0,0,1.735-.093,7.854,7.854,0,0,0,1.458-.277v3.146A13.479,13.479,0,0,1,1018.123,398.737Z" transform="translate(-30.054 -12.586)"/>
            <path id="Path_6176" data-name="Path 6176" d="M1044.041,398.274V373.287h3.424l.231,3.007a14.536,14.536,0,0,1,3.956-2.521,13.068,13.068,0,0,1,5.206-.949,8.038,8.038,0,0,1,6.155,2.313q2.175,2.315,2.175,6.617v16.519h-3.795V381.8q0-3.054-1.434-4.4a6.329,6.329,0,0,0-4.443-1.342,9.267,9.267,0,0,0-4.325,1,12.866,12.866,0,0,0-3.355,2.476v18.741Z" transform="translate(-36.768 -12.586)"/>
            <path id="Path_6177" data-name="Path 6177" d="M1057.144,366.586v-4.35h-3.655v-2.73h6.386v4.35h10.135l-.186,2.73Z" transform="translate(-38.534 -10.096)"/>
            <path id="Path_6178" data-name="Path 6178" d="M1086.049,398.274v-16.15a11.8,11.8,0,0,0-.416-3.424,3.234,3.234,0,0,0-1.689-1.99,8.877,8.877,0,0,0-3.864-.648,17.637,17.637,0,0,0-3.216.324,17.894,17.894,0,0,0-3.171.879v-3.146a18.452,18.452,0,0,1,3.286-.925,19.808,19.808,0,0,1,3.794-.37q4.766,0,6.918,2.1t2.152,6.779v16.566Z" transform="translate(-42.311 -12.586)"/>
            <path id="Path_6179" data-name="Path 6179" d="M1109.919,398.737a15.267,15.267,0,0,1-8.029-1.829,6.261,6.261,0,0,1-2.985-5.76,6.519,6.519,0,0,1,1-3.679,5.977,5.977,0,0,1,2.8-2.245,5.316,5.316,0,0,1-2.615-1.85,5.659,5.659,0,0,1-1.041-3.563,6.447,6.447,0,0,1,2.082-5.252,8.03,8.03,0,0,1,5.321-1.735,14.965,14.965,0,0,1,2.175.138,11.159,11.159,0,0,1,1.666.371v3.146a5.843,5.843,0,0,0-1.434-.324,15.7,15.7,0,0,0-1.712-.093,4.972,4.972,0,0,0-3.17.9,4.061,4.061,0,0,0,.209,5.831,5.963,5.963,0,0,0,3.516.948h2.637l.232,2.869h-3.007a5.034,5.034,0,0,0-3.656,1.18,4.484,4.484,0,0,0-1.2,3.355q0,4.35,7.08,4.349a8.722,8.722,0,0,0,5.345-1.364,5.162,5.162,0,0,0,1.781-4.373V373.287h3.794v15.825q0,4.675-2.592,7.15T1109.919,398.737Z" transform="translate(-47.025 -12.586)"/>
            <path id="Path_6180" data-name="Path 6180" d="M1141.706,398.737q-4.906,0-7.52-2.338a8.5,8.5,0,0,1-2.614-6.686v-3.377a5.65,5.65,0,0,1,.647-2.637,14.664,14.664,0,0,1,1.527-2.36q.879-1.111,1.527-2.082a3.306,3.306,0,0,0,.648-1.8q0-.787-.346-1a2.436,2.436,0,0,0-1.181-.208h-3.331l.323-2.961h5.136q3.194,0,3.194,3.146a6.056,6.056,0,0,1-.648,2.823,16.651,16.651,0,0,1-1.528,2.406,20.085,20.085,0,0,0-1.527,2.314,5.023,5.023,0,0,0-.647,2.5v3.655a4.755,4.755,0,0,0,1.712,4.119,7.693,7.693,0,0,0,4.627,1.249,7.893,7.893,0,0,0,4.7-1.249q1.735-1.25,1.735-4.212v-3.192a5.521,5.521,0,0,0-.833-3.54,3.949,3.949,0,0,0-3.054-.949h-1.3l.185-3.008h1.018q2.361,0,3.169-1.11a5.742,5.742,0,0,0,.81-3.378v-2.036h3.795v1.99a9.582,9.582,0,0,1-.647,3.771,4.344,4.344,0,0,1-2.777,2.245,4.389,4.389,0,0,1,2.846,2.36,10.635,10.635,0,0,1,.579,3.747v2.73a8.424,8.424,0,0,1-2.707,6.71Q1146.519,398.737,1141.706,398.737Z" transform="translate(-53.037 -12.586)"/>
            <path id="Path_6181" data-name="Path 6181" d="M1152.064,366.49v-7.5h3.794v7.5Z" transform="translate(-56.963 -10)"/>
            <path id="Path_6182" data-name="Path 6182" d="M1169.068,398.737a17.552,17.552,0,0,1-6.987-1.3v-3.193a17.263,17.263,0,0,0,2.938.9,14.866,14.866,0,0,0,3.17.347,11.631,11.631,0,0,0,5.321-.994,5.558,5.558,0,0,0,2.684-3.124,16.48,16.48,0,0,0,.787-5.6q0-5.182-2.036-7.451t-6.895-2.268a14.506,14.506,0,0,0-3.1.324,13.7,13.7,0,0,0-2.868.972v-3.239a14.255,14.255,0,0,1,3.031-.972,18.956,18.956,0,0,1,3.725-.324q6.061,0,9,3.285t2.938,9.671q0,6.2-2.683,9.578T1169.068,398.737Z" transform="translate(-58.836 -12.586)"/>
            <path id="Path_6183" data-name="Path 6183" d="M1200.3,398.737a15.269,15.269,0,0,1-8.029-1.829,6.26,6.26,0,0,1-2.984-5.76,6.512,6.512,0,0,1,.994-3.679,5.984,5.984,0,0,1,2.8-2.245,5.313,5.313,0,0,1-2.614-1.85,5.659,5.659,0,0,1-1.042-3.563,6.445,6.445,0,0,1,2.083-5.252,8.03,8.03,0,0,1,5.321-1.735,14.961,14.961,0,0,1,2.174.138,11.136,11.136,0,0,1,1.666.371v3.146a5.826,5.826,0,0,0-1.433-.324,15.71,15.71,0,0,0-1.712-.093,4.971,4.971,0,0,0-3.17.9,4.062,4.062,0,0,0,.208,5.831,5.96,5.96,0,0,0,3.516.948h2.638l.232,2.869h-3.008a5.032,5.032,0,0,0-3.656,1.18,4.484,4.484,0,0,0-1.2,3.355q0,4.35,7.081,4.349a8.717,8.717,0,0,0,5.343-1.364,5.16,5.16,0,0,0,1.782-4.373V373.287h3.8v15.825q0,4.675-2.592,7.15T1200.3,398.737Z" transform="translate(-63.922 -12.586)"/>
            <path id="Path_6184" data-name="Path 6184" d="M1222.923,398.274V388.14a6.367,6.367,0,0,1,.88-3.355,4.8,4.8,0,0,1,2.868-2.059l-5.229-1.2v-4.442a17.421,17.421,0,0,1,4.7-2.938,16.765,16.765,0,0,1,6.918-1.319q5.459,0,8.213,2.29t2.754,7.242v15.918h-3.794V382.217q0-3.47-1.619-4.812t-5.553-1.342a15.8,15.8,0,0,0-4.836.718,8.415,8.415,0,0,0-3.447,1.92v.972l5.413,1.3v2.868a5.034,5.034,0,0,0-2.614,1.458,4.39,4.39,0,0,0-.855,2.938v10.041Z" transform="translate(-69.934 -12.586)"/>
            <path id="Path_6185" data-name="Path 6185" d="M1264.561,398.737a9.892,9.892,0,0,1-5.136-1.342,9.041,9.041,0,0,1-3.563-4.142,17.343,17.343,0,0,1-1.3-7.242q0-6.109,3.055-9.648t9.44-3.54a13.459,13.459,0,0,1,6.594,1.411,8.812,8.812,0,0,1,3.678,3.679,10.539,10.539,0,0,1,1.157,4.859v15.5h-3.795V382.819a7.857,7.857,0,0,0-.74-3.471,5.318,5.318,0,0,0-2.429-2.406,9.949,9.949,0,0,0-4.558-.88q-4.628,0-6.617,2.592t-1.99,7.357q0,5.275,1.735,7.381a6.241,6.241,0,0,0,5.113,2.1,15.9,15.9,0,0,0,1.735-.093,7.844,7.844,0,0,0,1.458-.277v3.146A13.476,13.476,0,0,1,1264.561,398.737Z" transform="translate(-76.126 -12.586)"/>
            <path id="Path_6186" data-name="Path 6186" d="M1294.736,398.38a4.041,4.041,0,0,1-3.124-1.226,4.543,4.543,0,0,1-1.133-3.216V373.393h3.794v19.62q0,2.268,2.174,2.268h2.175v3.1Zm10.6,0a4.041,4.041,0,0,1-3.124-1.226,4.547,4.547,0,0,1-1.133-3.216V373.393h3.794v19.62q0,2.268,2.176,2.268h2.173v3.1Z" transform="translate(-82.841 -12.692)"/>
            <path id="Path_6187" data-name="Path 6187" d="M1328.384,398.737q-4.906,0-7.52-2.338a8.5,8.5,0,0,1-2.615-6.686v-3.377a5.649,5.649,0,0,1,.648-2.637,14.564,14.564,0,0,1,1.527-2.36q.879-1.111,1.527-2.082a3.312,3.312,0,0,0,.648-1.8q0-.787-.346-1a2.435,2.435,0,0,0-1.181-.208h-3.332l.324-2.961h5.136q3.193,0,3.193,3.146a6.056,6.056,0,0,1-.648,2.823,16.651,16.651,0,0,1-1.528,2.406,19.863,19.863,0,0,0-1.527,2.314,5.024,5.024,0,0,0-.648,2.5v3.655a4.754,4.754,0,0,0,1.713,4.119,7.691,7.691,0,0,0,4.627,1.249,7.888,7.888,0,0,0,4.7-1.249q1.735-1.25,1.735-4.212v-3.192a5.527,5.527,0,0,0-.832-3.54,3.95,3.95,0,0,0-3.054-.949h-1.3l.185-3.008h1.018q2.36,0,3.169-1.11a5.741,5.741,0,0,0,.81-3.378v-2.036h3.795v1.99a9.566,9.566,0,0,1-.647,3.771,4.342,4.342,0,0,1-2.777,2.245,4.384,4.384,0,0,1,2.846,2.36,10.618,10.618,0,0,1,.579,3.747v2.73a8.424,8.424,0,0,1-2.707,6.71Q1333.2,398.737,1328.384,398.737Z" transform="translate(-87.937 -12.586)"/>
            <path id="Path_6188" data-name="Path 6188" d="M1357.6,398.737a33.207,33.207,0,0,1-4.512-.3,15.412,15.412,0,0,1-3.677-.9v-3.378a18.047,18.047,0,0,0,3.747,1.018,23.605,23.605,0,0,0,3.795.324,14.476,14.476,0,0,0,5.067-.671,2.811,2.811,0,0,0,1.69-2.938,3.2,3.2,0,0,0-.856-2.429,6.575,6.575,0,0,0-2.429-1.342q-1.574-.532-3.794-1.272a36.142,36.142,0,0,1-3.841-1.551,8.353,8.353,0,0,1-2.915-2.2,5.334,5.334,0,0,1-1.11-3.516,5.789,5.789,0,0,1,2.429-5.021q2.429-1.735,7.242-1.735a25.077,25.077,0,0,1,4.026.324,20.6,20.6,0,0,1,3.331.787v3.331a16.6,16.6,0,0,0-3.307-.9,20.948,20.948,0,0,0-3.494-.3,13.222,13.222,0,0,0-4.79.672,2.669,2.669,0,0,0-1.643,2.753,2.82,2.82,0,0,0,.856,2.152,7.023,7.023,0,0,0,2.453,1.388q1.6.579,3.864,1.319a27.674,27.674,0,0,1,4.025,1.642,7.663,7.663,0,0,1,2.754,2.268,5.955,5.955,0,0,1,1,3.586q0,3.748-2.731,5.322A14.283,14.283,0,0,1,1357.6,398.737Z" transform="translate(-93.736 -12.586)"/>
            <path id="Path_6189" data-name="Path 6189" d="M1358.263,366.788v-6.2h13l-.139,2.73h-9.671v3.471Z" transform="translate(-95.513 -10.298)"/>
            <path id="Path_6190" data-name="Path 6190" d="M851.632,466.677a4.04,4.04,0,0,1-3.123-1.226,4.545,4.545,0,0,1-1.134-3.216V441.69h3.794v19.62q0,2.267,2.175,2.268h2.637v3.1Z" transform="translate(0 -11.987)"/>
            <path id="Path_6191" data-name="Path 6191" d="M867.342,466.677,861.6,441.69h3.886l4.119,19.666,5.276-16.519V441.69h2.821l5.646,19.666,4.073-19.666h3.84l-5.691,24.987h-3.794l-5.136-17.584-5.553,17.584Z" transform="translate(-2.66 -11.987)"/>
            <path id="Path_6192" data-name="Path 6192" d="M871.962,434.979l.185-2.73h9.486v-3.934h2.87v3.934h2.961v-3.934h2.869v6.664Z" transform="translate(-4.597 -9.486)"/>
            <path id="Path_6193" data-name="Path 6193" d="M890.573,424.047v-6.432h3.193v6.432Z" transform="translate(-8.076 -7.486)"/>
            <path id="Path_6194" data-name="Path 6194" d="M911.306,467.033a25.767,25.767,0,0,1-5.368-.532,25.4,25.4,0,0,1-4.211-1.227V452.689h9.162l.185,3.1h-5.552v7.08a16.794,16.794,0,0,0,2.707.671,17.822,17.822,0,0,0,2.985.254,10.443,10.443,0,0,0,4.789-.925,5.465,5.465,0,0,0,2.592-3.054,16.4,16.4,0,0,0,.81-5.692,16.044,16.044,0,0,0-.857-5.83,5.388,5.388,0,0,0-2.868-3.031,13.66,13.66,0,0,0-5.483-.9,31.269,31.269,0,0,0-4.1.278,20.855,20.855,0,0,0-4,.925v-3.147a21.732,21.732,0,0,1,4.235-.972,35.912,35.912,0,0,1,4.835-.324q6.386,0,9.208,3.263t2.822,9.74q0,6.341-2.822,9.625T911.306,467.033Z" transform="translate(-10.162 -11.88)"/>
            <path id="Path_6195" data-name="Path 6195" d="M936.4,463.943a4.039,4.039,0,0,1-3.122-1.226,4.545,4.545,0,0,1-1.134-3.216V443.443a8.352,8.352,0,0,1,.6-3.331,9.307,9.307,0,0,1,1.458-2.384,21.843,21.843,0,0,1,1.736-1.8,12.54,12.54,0,0,0,1.481-1.6,2.754,2.754,0,0,0,.6-1.712,1.991,1.991,0,0,0-.879-1.943,5.471,5.471,0,0,0-2.5-.463,10.547,10.547,0,0,0-5.136,1.434v-2.962a11.334,11.334,0,0,1,3.031-1.2,13.626,13.626,0,0,1,3.262-.416,6.53,6.53,0,0,1,4.6,1.411,5.042,5.042,0,0,1,1.5,3.864,4.738,4.738,0,0,1-.6,2.452,8.484,8.484,0,0,1-1.481,1.851q-.879.833-1.781,1.759a8.406,8.406,0,0,0-1.5,2.129,6.569,6.569,0,0,0-.6,2.961v15.085q0,2.267,2.175,2.268h2.638v3.1Z" transform="translate(-15.354 -9.252)"/>
            <path id="Path_6196" data-name="Path 6196" d="M948.4,466.677V441.69h3.794v8.1h8.283q3.055,0,4.211-1.3a5.45,5.45,0,0,0,1.158-3.748V441.69h3.794V444.7a9.1,9.1,0,0,1-.88,4.118,4.88,4.88,0,0,1-3.1,2.453,4.46,4.46,0,0,1,3.007,2.406,10.025,10.025,0,0,1,.7,3.887v9.116h-3.794v-8.653q0-2.961-1.134-4.049t-4.187-1.087h-8.052v13.789Z" transform="translate(-18.887 -11.987)"/>
            <path id="Path_6197" data-name="Path 6197" d="M961.273,434.883v-4.351h-3.656V427.8H964v4.35h10.134l-.185,2.73Z" transform="translate(-20.61 -9.391)"/>
            <path id="Path_6198" data-name="Path 6198" d="M980.667,466.571v-16.2a8.84,8.84,0,0,1,2.616-6.848q2.612-2.4,8.212-2.407t8.167,2.407a8.925,8.925,0,0,1,2.568,6.848v16.2h-3.794V449.959a4.963,4.963,0,0,0-1.782-4.3,8.7,8.7,0,0,0-5.16-1.3,8.88,8.88,0,0,0-5.251,1.3,4.961,4.961,0,0,0-1.781,4.3v5.784a7.876,7.876,0,0,1,5.368-1.9h3.053l.186,3.1h-3.332a7.875,7.875,0,0,0-5.275,1.8v7.821Z" transform="translate(-24.92 -11.88)"/>
            <path id="Path_6199" data-name="Path 6199" d="M1022.008,467.14a8.023,8.023,0,0,1-6.178-2.313q-2.151-2.314-2.151-6.664V441.69h3.795v16.427q0,3.1,1.388,4.442a6.141,6.141,0,0,0,4.4,1.342,9.783,9.783,0,0,0,4.351-.972,12.124,12.124,0,0,0,3.424-2.452V441.69h3.794v24.987H1031.4l-.232-3.007a13.721,13.721,0,0,1-3.933,2.521A13.246,13.246,0,0,1,1022.008,467.14Z" transform="translate(-31.091 -11.987)"/>
            <path id="Path_6200" data-name="Path 6200" d="M1046.175,466.571V441.583h3.425l.23,3.007a14.523,14.523,0,0,1,3.957-2.522,13.078,13.078,0,0,1,5.205-.949,8.042,8.042,0,0,1,6.156,2.314q2.173,2.315,2.174,6.617v16.519h-3.794V450.1q0-3.054-1.435-4.4a6.327,6.327,0,0,0-4.443-1.342,9.268,9.268,0,0,0-4.326,1,12.877,12.877,0,0,0-3.354,2.476v18.741Z" transform="translate(-37.167 -11.88)"/>
            <path id="Path_6201" data-name="Path 6201" d="M1049.477,434.979l.184-2.73h14.993v-3.934h3.192v6.664Z" transform="translate(-37.784 -9.486)"/>
            <path id="Path_6202" data-name="Path 6202" d="M1068.087,424.047v-6.432h3.194v6.432Z" transform="translate(-41.263 -7.486)"/>
            <path id="Path_6203" data-name="Path 6203" d="M1078.673,466.571v-16.2a8.84,8.84,0,0,1,2.616-6.848q2.612-2.4,8.212-2.407t8.167,2.407a8.925,8.925,0,0,1,2.568,6.848v16.2h-3.795V449.959a4.963,4.963,0,0,0-1.781-4.3,8.7,8.7,0,0,0-5.16-1.3,8.88,8.88,0,0,0-5.251,1.3,4.961,4.961,0,0,0-1.781,4.3v5.784a7.875,7.875,0,0,1,5.367-1.9h3.054l.186,3.1h-3.332a7.875,7.875,0,0,0-5.275,1.8v7.821Z" transform="translate(-43.242 -11.88)"/>
            <path id="Path_6204" data-name="Path 6204" d="M1100.395,484.662V478.6h-3.054l.185-2.591h6.155v8.653Z" transform="translate(-46.732 -18.403)"/>
            <path id="Path_6205" data-name="Path 6205" d="M1136.875,467.033a7.687,7.687,0,0,1-5.992-2.313q-2.108-2.314-2.1-6.664v-7.543q0-3.471-1.528-4.812t-5.368-1.342a14.62,14.62,0,0,0-4.651.718,8.435,8.435,0,0,0-3.355,1.92v.972l5.414,1.3v2.868a5.031,5.031,0,0,0-2.615,1.458,4.395,4.395,0,0,0-.856,2.938V461.2q0,2.267,2.175,2.268h2.638v3.1h-4.349a4.04,4.04,0,0,1-3.124-1.226,4.548,4.548,0,0,1-1.134-3.216v-5.691a6.368,6.368,0,0,1,.88-3.355,4.8,4.8,0,0,1,2.869-2.059l-5.229-1.2v-4.442a17.805,17.805,0,0,1,4.6-2.939,15.894,15.894,0,0,1,6.733-1.319q5.367,0,8.005,2.291t2.637,7.242v7.357q0,3.1,1.365,4.442a5.83,5.83,0,0,0,4.234,1.342,8.689,8.689,0,0,0,4.142-.972,13.005,13.005,0,0,0,3.261-2.452V441.583h3.8v24.987H1145.9l-.231-3.007a14.542,14.542,0,0,1-3.771,2.521A11.961,11.961,0,0,1,1136.875,467.033Z" transform="translate(-49.201 -11.88)"/>
            <path id="Path_6206" data-name="Path 6206" d="M1168.985,466.677a4.041,4.041,0,0,1-3.124-1.226,4.544,4.544,0,0,1-1.133-3.216V441.69h3.794v19.62q0,2.267,2.175,2.268h2.175v3.1Zm10.6,0a4.04,4.04,0,0,1-3.124-1.226,4.547,4.547,0,0,1-1.133-3.216V441.69h3.794v19.62q0,2.267,2.176,2.268h2.174v3.1Z" transform="translate(-59.331 -11.987)"/>
            <path id="Path_6207" data-name="Path 6207" d="M1193.127,466.571v-16.2a8.84,8.84,0,0,1,2.615-6.848q2.612-2.4,8.213-2.407t8.168,2.407a8.925,8.925,0,0,1,2.568,6.848v16.2h-3.8V449.959a4.965,4.965,0,0,0-1.781-4.3,8.7,8.7,0,0,0-5.16-1.3,8.882,8.882,0,0,0-5.251,1.3,4.963,4.963,0,0,0-1.781,4.3v5.784a7.877,7.877,0,0,1,5.368-1.9h3.054l.185,3.1H1202.2a7.877,7.877,0,0,0-5.275,1.8v7.821Z" transform="translate(-64.64 -11.88)"/>
            <path id="Path_6208" data-name="Path 6208" d="M1233.838,467.033a33.335,33.335,0,0,1-4.512-.3,15.441,15.441,0,0,1-3.678-.9v-3.378a18.059,18.059,0,0,0,3.747,1.018,23.6,23.6,0,0,0,3.8.324,14.48,14.48,0,0,0,5.067-.671,2.81,2.81,0,0,0,1.689-2.938,3.2,3.2,0,0,0-.856-2.429,6.575,6.575,0,0,0-2.429-1.342q-1.573-.531-3.794-1.272a36.455,36.455,0,0,1-3.842-1.55,8.366,8.366,0,0,1-2.916-2.2,5.335,5.335,0,0,1-1.11-3.516,5.788,5.788,0,0,1,2.429-5.021q2.43-1.735,7.242-1.736a25.069,25.069,0,0,1,4.026.324,20.575,20.575,0,0,1,3.331.787v3.331a16.6,16.6,0,0,0-3.308-.9,21.026,21.026,0,0,0-3.494-.3,13.239,13.239,0,0,0-4.789.671,2.67,2.67,0,0,0-1.643,2.754,2.823,2.823,0,0,0,.856,2.152,7.027,7.027,0,0,0,2.452,1.388q1.6.579,3.864,1.319a27.649,27.649,0,0,1,4.026,1.642,7.661,7.661,0,0,1,2.753,2.268,5.944,5.944,0,0,1,1,3.586q0,3.748-2.731,5.321A14.285,14.285,0,0,1,1233.838,467.033Z" transform="translate(-70.599 -11.88)"/>
            <path id="Path_6209" data-name="Path 6209" d="M1234.5,435.085v-6.2h13l-.14,2.73h-9.67v3.471Z" transform="translate(-72.376 -9.593)"/>
            <path id="Path_6210" data-name="Path 6210" d="M1253.4,466.677V441.69h3.794v8.1h8.283q3.055,0,4.212-1.3a5.454,5.454,0,0,0,1.157-3.748V441.69h3.794V444.7a9.094,9.094,0,0,1-.881,4.118,4.878,4.878,0,0,1-3.1,2.453,4.462,4.462,0,0,1,3.007,2.406,10.039,10.039,0,0,1,.694,3.887v9.116h-3.794v-8.653q0-2.961-1.134-4.049t-4.188-1.087h-8.052v13.789Z" transform="translate(-75.908 -11.987)"/>
            <path id="Path_6211" data-name="Path 6211" d="M1274.514,434.787v-7.5h3.795v7.5Z" transform="translate(-79.856 -9.295)"/>
            <path id="Path_6212" data-name="Path 6212" d="M1295.179,466.571v-16.15a11.772,11.772,0,0,0-.417-3.425,3.232,3.232,0,0,0-1.689-1.99,8.865,8.865,0,0,0-3.864-.648,17.656,17.656,0,0,0-3.216.324,17.919,17.919,0,0,0-3.17.879v-3.147a18.456,18.456,0,0,1,3.286-.925,19.808,19.808,0,0,1,3.794-.371q4.766,0,6.918,2.106t2.152,6.779v16.566Z" transform="translate(-81.409 -11.88)"/>
            <path id="Path_6213" data-name="Path 6213" d="M1317.719,467.14q-.879,0-2.059-.093a7.135,7.135,0,0,1-2.012-.416l-7.034-17.121h3.7l5.923,14.391q4.4.324,6.5-2.267t2.106-8.283a17.369,17.369,0,0,0-.6-5.113,4.423,4.423,0,0,0-2.013-2.66,8.2,8.2,0,0,0-3.956-.787h-1.62v-3.1h2.036q5.321,0,7.634,2.846t2.314,8.769a18.577,18.577,0,0,1-1.457,7.959,9.837,9.837,0,0,1-3.91,4.466A10.937,10.937,0,0,1,1317.719,467.14Z" transform="translate(-85.857 -11.987)"/>
            <path id="Path_6214" data-name="Path 6214" d="M1343.3,463.975a4.042,4.042,0,0,1-3.124-1.226,4.544,4.544,0,0,1-1.133-3.216V438.2a9.508,9.508,0,0,1,1.133-4.859,8.739,8.739,0,0,1,2.892-3.054h-8.283v-3.054h12.957v3.007a7.15,7.15,0,0,0-3.864,3.355,13.622,13.622,0,0,0-1.042,5.854v19.157q0,2.267,2.175,2.268h2.638v3.1Z" transform="translate(-91.124 -9.284)"/>
            <path id="Path_6215" data-name="Path 6215" d="M1354.707,466.571V456.437a6.358,6.358,0,0,1,.879-3.355,4.8,4.8,0,0,1,2.868-2.059l-5.229-1.2v-4.442a17.427,17.427,0,0,1,4.7-2.939,16.776,16.776,0,0,1,6.917-1.319q5.46,0,8.214,2.291t2.753,7.242v15.918h-3.795V450.514q0-3.471-1.62-4.812t-5.553-1.342a15.794,15.794,0,0,0-4.835.718,8.43,8.43,0,0,0-3.448,1.92v.972l5.415,1.3v2.868a5.03,5.03,0,0,0-2.615,1.458,4.39,4.39,0,0,0-.856,2.938v10.041Z" transform="translate(-94.572 -11.88)"/>
            <path id="Path_6216" data-name="Path 6216" d="M1394.68,467.033a11.131,11.131,0,0,1-4.234-.763,6.457,6.457,0,0,1-2.985-2.406,7.507,7.507,0,0,1-1.11-4.281,7.02,7.02,0,0,1,2.359-5.576q2.361-2.059,7.219-2.059h8.19V450a7.49,7.49,0,0,0-.625-3.355,3.619,3.619,0,0,0-2.152-1.759,13.45,13.45,0,0,0-4.257-.533,29.9,29.9,0,0,0-4.1.278,20.991,20.991,0,0,0-3.91.925v-3.147a23.433,23.433,0,0,1,4.05-.949,31.035,31.035,0,0,1,4.649-.347q5.276,0,7.705,2.2t2.429,6.964v16.289h-3.794V455.095h-7.959a8.14,8.14,0,0,0-4.627,1.042,3.917,3.917,0,0,0-1.482,3.447,3.706,3.706,0,0,0,1.342,3.286,7.738,7.738,0,0,0,4.3.925,11.89,11.89,0,0,0,3.146-.37v3.146q-.788.185-1.851.324A18.069,18.069,0,0,1,1394.68,467.033Z" transform="translate(-100.765 -11.88)"/>
            <path id="Path_6217" data-name="Path 6217" d="M1428.587,467.033a14.15,14.15,0,0,1-1.828-.138,8.5,8.5,0,0,1-1.688-.371l-3.888-10.366h-2.961l.184-3.1h5.229l4.026,10.735a8,8,0,0,0,4.119-.717,6.883,6.883,0,0,0,3.146-3.17,13.1,13.1,0,0,0,1.2-6.108,13.852,13.852,0,0,0-.926-5.553,5.637,5.637,0,0,0-3.007-2.985,14.475,14.475,0,0,0-5.645-.9,29.247,29.247,0,0,0-3.91.278,20.909,20.909,0,0,0-3.956.925v-3.147a23.44,23.44,0,0,1,4.049-.949,32.344,32.344,0,0,1,4.835-.347q6.431,0,9.395,3.286t2.96,9.394a15.3,15.3,0,0,1-1.573,7.288,10.779,10.779,0,0,1-9.765,5.946Z" transform="translate(-106.723 -11.88)"/>
            <path id="Path_6218" data-name="Path 6218" d="M1459.773,466.571v-16.15a11.809,11.809,0,0,0-.415-3.425,3.236,3.236,0,0,0-1.69-1.99,8.856,8.856,0,0,0-3.863-.648,17.65,17.65,0,0,0-3.216.324,17.908,17.908,0,0,0-3.169.879v-3.147a18.414,18.414,0,0,1,3.286-.925,19.794,19.794,0,0,1,3.794-.371q4.766,0,6.919,2.106t2.151,6.779v16.566Z" transform="translate(-112.181 -11.88)"/>
            <path id="Path_6219" data-name="Path 6219" d="M1474.112,466.571V456.437a6.376,6.376,0,0,1,.88-3.355,4.8,4.8,0,0,1,2.869-2.059l-5.229-1.2v-4.442a17.424,17.424,0,0,1,4.7-2.939,16.779,16.779,0,0,1,6.918-1.319q5.46,0,8.213,2.291t2.753,7.242v15.918h-3.794V450.514q0-3.471-1.619-4.812t-5.553-1.342a15.8,15.8,0,0,0-4.835.718,8.41,8.41,0,0,0-3.447,1.92v.972l5.413,1.3v2.868a5.028,5.028,0,0,0-2.614,1.458,4.39,4.39,0,0,0-.856,2.938v10.041Z" transform="translate(-116.895 -11.88)"/>
          </g>
          <g id="Group_2825" data-name="Group 2825">
            <g id="Group_2808" data-name="Group 2808">
              <path id="Path_6220" data-name="Path 6220" d="M842.188,522.407V506.364h9.1l-1.117,16.043Zm13.807,0V506.364h9.1l-1.117,16.043Z" fill="#fff"/>
              <path id="Path_6221" data-name="Path 6221" d="M863.978,527.407h-7.983a5,5,0,0,0-5.826,0h-7.981a5,5,0,0,1-5-5V506.364a5,5,0,0,1,5-5h9.1a5.008,5.008,0,0,0,4.709,0h9.1a5,5,0,0,1,4.988,5.347l-1.117,16.043A5,5,0,0,1,863.978,527.407Z" fill="#fff"/>
            </g>
            <g id="Group_2809" data-name="Group 2809">
              <path id="Path_6222" data-name="Path 6222" d="M895.424,558.563a22.685,22.685,0,0,1-8.062-1.357,23.39,23.39,0,0,1-6.464-3.672l-.479,4.23h-9.9V542.44a12.2,12.2,0,0,1,1.356-5.507,38.994,38.994,0,0,1,3.153-5.228q1.8-2.514,3.153-4.509a6.365,6.365,0,0,0,1.356-3.273q0-1.515-1.276-1.516a2.545,2.545,0,0,0-1.077.239,3.124,3.124,0,0,0-.918.638v3.273h-6.786V514.665h7.1V516.9a11.457,11.457,0,0,1,2.715-1.6,9.691,9.691,0,0,1,3.75-.638q6.386,0,6.386,6.544a12.478,12.478,0,0,1-1.238,5.508,44.4,44.4,0,0,1-2.833,4.988,48.428,48.428,0,0,0-2.833,4.909A11.438,11.438,0,0,0,881.3,541.8v3.911a13.649,13.649,0,0,0,4.67,3.192,14.477,14.477,0,0,0,5.866,1.277q3.831,0,5.786-1.876t1.956-6.265V514.665h10.775v28.014q0,7.5-3.991,11.693T895.424,558.563Z" fill="#fff"/>
              <path id="Path_6223" data-name="Path 6223" d="M895.424,563.563a27.76,27.76,0,0,1-9.827-1.679q-.8-.3-1.579-.648a4.994,4.994,0,0,1-3.6,1.528h-9.9a5,5,0,0,1-5-5V542.44a17.207,17.207,0,0,1,1.883-7.742q.8-1.6,1.744-3.152a5,5,0,0,1-4.666-4.989V514.665a5,5,0,0,1,5-5h7.1a4.979,4.979,0,0,1,2.236.527,16,16,0,0,1,4.229-.527c7.023,0,11.386,4.423,11.386,11.544A17.472,17.472,0,0,1,892.7,528.9a49.507,49.507,0,0,1-3.151,5.55,43.709,43.709,0,0,0-2.543,4.4,6.463,6.463,0,0,0-.71,2.953v1.628a11.194,11.194,0,0,0,1.675.9,9.472,9.472,0,0,0,3.861.857,3.872,3.872,0,0,0,2.325-.484h0a5.437,5.437,0,0,0,.417-2.657V514.665a5,5,0,0,1,5-5h10.775a5,5,0,0,1,5,5v28.014c0,6.306-1.807,11.4-5.369,15.142C906.348,561.631,901.451,563.563,895.424,563.563Zm-19.9-10.8h.435a5,5,0,0,1,2.019-3.287q-.187-.191-.367-.386a5.007,5.007,0,0,1-1.313-3.378V541.8a16.433,16.433,0,0,1,.293-3.1q-.121.234-.239.468a7.216,7.216,0,0,0-.828,3.271Zm29.052-33.1v22.376c0,4.329-1.176,7.652-3.5,9.875a10.9,10.9,0,0,1-.942.8,7.781,7.781,0,0,0,2.6-1.8c1.755-1.844,2.61-4.541,2.61-8.244V519.665Zm-28.3,3.619h0Zm6.862-3.619a6.406,6.406,0,0,1,1.237,2.637,8.444,8.444,0,0,0,.07-1.093,4.062,4.062,0,0,0-.182-1.395A3.615,3.615,0,0,0,883.131,519.665Z" fill="#fff"/>
            </g>
            <g id="Group_2810" data-name="Group 2810">
              <path id="Path_6224" data-name="Path 6224" d="M933.017,557.764v-26.5a11.369,11.369,0,0,0-1.677-6.665q-1.676-2.352-6.7-2.354a28.17,28.17,0,0,0-5.587.6,33.88,33.88,0,0,0-5.269,1.476v-7.9a26.775,26.775,0,0,1,5.907-1.836,34.946,34.946,0,0,1,7.024-.718q9.1,0,13.089,3.871t3.991,12.012v28.014Z" fill="#fff"/>
              <path id="Path_6225" data-name="Path 6225" d="M943.791,562.764H933.017a5,5,0,0,1-5-5v-26.5a7.271,7.271,0,0,0-.669-3.641,6.708,6.708,0,0,0-2.712-.378,23.324,23.324,0,0,0-4.594.5A29.245,29.245,0,0,0,915.553,529a5,5,0,0,1-6.773-4.675v-7.9a5,5,0,0,1,2.887-4.532,31.4,31.4,0,0,1,7.018-2.2,40.129,40.129,0,0,1,8.026-.819c7.486,0,12.906,1.728,16.57,5.282s5.51,8.8,5.51,15.6v28.014A5,5,0,0,1,943.791,562.764Zm-5.774-10h.774V529.75c0-4-.832-6.832-2.474-8.424a7.241,7.241,0,0,0-2.752-1.557,9.28,9.28,0,0,1,1.848,1.932,16.207,16.207,0,0,1,2.6,9.565Z" fill="#fff"/>
            </g>
            <g id="Group_2811" data-name="Group 2811">
              <path id="Path_6226" data-name="Path 6226" d="M967.655,558.563a18.917,18.917,0,0,1-9.257-2.235,15.525,15.525,0,0,1-6.426-6.984q-2.355-4.747-2.354-12.251,0-11.414,4.03-17.32a12.553,12.553,0,0,1,10.9-5.906,10.683,10.683,0,0,1,5.348,1.117,10,10,0,0,1,3.192,2.953,11.186,11.186,0,0,1,4.43-2.953,15.659,15.659,0,0,1,5.787-1.117q5.666,0,8.34,3.432a14.263,14.263,0,0,1,2.674,9.019v31.446H983.539V527.993a9.581,9.581,0,0,0-.759-4.27,2.965,2.965,0,0,0-2.913-1.476,4.073,4.073,0,0,0-2.594.918,4.975,4.975,0,0,0-1.635,2.753h-5.189a9.483,9.483,0,0,0-1.676-2.753,3.373,3.373,0,0,0-2.553-.918q-3.753,0-5.069,4.11a36.049,36.049,0,0,0-1.317,10.736q0,7.263,2.554,10.176a9.044,9.044,0,0,0,7.183,2.913,27.441,27.441,0,0,0,2.993-.16,13.643,13.643,0,0,0,2.515-.478v7.9a15.646,15.646,0,0,1-3.193.838A27.456,27.456,0,0,1,967.655,558.563Z" fill="#fff"/>
              <path id="Path_6227" data-name="Path 6227" d="M967.655,563.563a23.945,23.945,0,0,1-11.663-2.852,20.5,20.5,0,0,1-8.5-9.147c-1.906-3.845-2.873-8.714-2.873-14.471,0-8.719,1.6-15.306,4.9-20.139a17.564,17.564,0,0,1,15.024-8.087,15.31,15.31,0,0,1,7.866,1.8c.37.217.73.447,1.076.691a19.452,19.452,0,0,1,2.191-1.022,20.734,20.734,0,0,1,7.624-1.466c6.7,0,10.377,2.913,12.283,5.357a19.168,19.168,0,0,1,3.731,12.094v31.446a5,5,0,0,1-5,5H983.539a3.595,3.595,0,0,0-6.653-.657,20.754,20.754,0,0,1-4.211,1.114A32.133,32.133,0,0,1,967.655,563.563Zm20.884-10.8h.775V526.318a9.536,9.536,0,0,0-1.618-5.946,3.632,3.632,0,0,0-2.391-1.322,7.469,7.469,0,0,1,1.922,2.387,14.2,14.2,0,0,1,1.312,6.556ZM955.8,527.006a37,37,0,0,0-1.18,10.087c0,4.2.617,7.577,1.833,10.03q.177.359.366.7c-1.331-2.721-1.983-6.264-1.983-10.725A45.537,45.537,0,0,1,955.8,527.006Zm19.281,17.538a5,5,0,0,1,3.46,1.39V529.991a4.992,4.992,0,0,1-2.9.927h-5.189a5,5,0,0,1-4.562-2.954,31.779,31.779,0,0,0-1.053,9.129c0,5.123,1.094,6.629,1.313,6.879.494.564,1.33,1.21,3.424,1.21a22.825,22.825,0,0,0,2.452-.13,8.734,8.734,0,0,0,1.588-.288A5,5,0,0,1,975.079,544.544Z" fill="#fff"/>
            </g>
            <g id="Group_2812" data-name="Group 2812">
              <path id="Path_6228" data-name="Path 6228" d="M1002.136,557.764V544.036a16.117,16.117,0,0,1,1.236-6.5,7.263,7.263,0,0,1,4.909-3.951l-8.141-2.155v-10.3a32.2,32.2,0,0,1,8.74-5.029,32.8,32.8,0,0,1,12.49-2.234,32.316,32.316,0,0,1,11.055,1.676,13.415,13.415,0,0,1,7.023,5.587q2.435,3.91,2.436,10.615v26.019h-10.776V531.506q0-5.029-2.355-7.144t-7.941-2.115a20.027,20.027,0,0,0-6.584,1.037,14.581,14.581,0,0,0-4.83,2.634v1.118l8.86,2.394v6.545q-3.192.8-4.271,2.594a11.109,11.109,0,0,0-1.076,5.547v13.648Z" fill="#fff"/>
              <path id="Path_6229" data-name="Path 6229" d="M1041.884,562.764h-10.776a5,5,0,0,1-5-5V531.506c0-2.213-.457-3.208-.7-3.425a5,5,0,0,0-2.608-.738,4.993,4.993,0,0,1,.456,2.087v6.545a5,5,0,0,1-3.786,4.85,5.074,5.074,0,0,0-1.25.452,9.343,9.343,0,0,0-.311,2.839v13.648a5,5,0,0,1-5,5h-10.775a5,5,0,0,1-5-5V544.036a21.5,21.5,0,0,1,1.393-7.877,5,5,0,0,1-3.389-4.733v-10.3a5,5,0,0,1,1.754-3.8,37.294,37.294,0,0,1,10.094-5.853,37.893,37.893,0,0,1,14.382-2.606,37.413,37.413,0,0,1,12.77,1.979,18.356,18.356,0,0,1,9.552,7.641c2.119,3.4,3.192,7.862,3.192,13.258v26.019A5,5,0,0,1,1041.884,562.764Zm-5.776-10h.776V531.745c0-3.5-.566-6.182-1.681-7.973a8.083,8.083,0,0,0-2.539-2.577c2.287,2.39,3.444,5.853,3.444,10.311Zm-28.972,0h.775v-8.648a20.424,20.424,0,0,1,.587-5.2,1.376,1.376,0,0,0-.544.615,11.269,11.269,0,0,0-.818,4.5Z" fill="#fff"/>
            </g>
            <g id="Group_2813" data-name="Group 2813">
              <path id="Path_6230" data-name="Path 6230" d="M1063.833,558.563a55.925,55.925,0,0,1-8.58-.639,30.486,30.486,0,0,1-6.665-1.676v-8.7a32.441,32.441,0,0,0,6.665,1.956,36.162,36.162,0,0,0,6.584.678,25.639,25.639,0,0,0,7.543-.8,3.173,3.173,0,0,0,2.354-3.272,3.639,3.639,0,0,0-1.237-2.953,11.669,11.669,0,0,0-3.791-1.876q-2.555-.839-6.545-2.2a32.649,32.649,0,0,1-9.138-4.669q-3.313-2.594-3.313-7.7a11.309,11.309,0,0,1,4.47-9.3q4.469-3.551,13.489-3.551a51.081,51.081,0,0,1,7.5.558,37.481,37.481,0,0,1,6.145,1.357v8.62a25.233,25.233,0,0,0-6.026-1.636,40.769,40.769,0,0,0-6.1-.519,22.44,22.44,0,0,0-6.505.838,3.363,3.363,0,0,0-2.753,3.392,2.955,2.955,0,0,0,1.4,2.554,14.923,14.923,0,0,0,3.991,1.756q2.592.8,6.185,2.075a36.943,36.943,0,0,1,7.224,3.193,10.434,10.434,0,0,1,3.991,4.07,12.975,12.975,0,0,1,1.236,5.987q0,6.306-4.828,9.378T1063.833,558.563Z" fill="#fff"/>
              <path id="Path_6231" data-name="Path 6231" d="M1063.833,563.563a61.186,61.186,0,0,1-9.348-.7,34.982,34.982,0,0,1-7.781-1.986,5,5,0,0,1-3.116-4.631v-8.7a5,5,0,0,1,6.942-4.607,27.658,27.658,0,0,0,5.64,1.648,33.246,33.246,0,0,0,6.4.589q-1.785-.6-4.016-1.357a37.255,37.255,0,0,1-10.611-5.467c-2.384-1.865-5.229-5.4-5.229-11.637a16.347,16.347,0,0,1,6.359-13.213c3.928-3.121,9.358-4.637,16.6-4.637a56.331,56.331,0,0,1,8.236.612,41.916,41.916,0,0,1,6.99,1.559,5,5,0,0,1,3.421,4.744v8.62a5,5,0,0,1-6.952,4.6,20.392,20.392,0,0,0-4.832-1.3c-1.374-.21-2.652-.349-3.819-.415q1.17.4,2.459.857a41.122,41.122,0,0,1,8.15,3.634,15.393,15.393,0,0,1,5.832,6.043,17.921,17.921,0,0,1,1.8,8.285c0,5.922-2.47,10.623-7.144,13.6C1075.786,562.266,1070.412,563.563,1063.833,563.563Zm11.592-22.255a9.057,9.057,0,0,1,1.309,4.8,8.657,8.657,0,0,1-.9,3.933,6.122,6.122,0,0,0,1.113-3.933,8.345,8.345,0,0,0-.679-3.693A4.326,4.326,0,0,0,1075.425,541.308Zm-21.987-17.827a6.725,6.725,0,0,0-.728,3.236c0,2.079.573,3.017,1.152,3.558a7.937,7.937,0,0,1-.935-3.8A8.734,8.734,0,0,1,1053.438,523.481Z" fill="#fff"/>
            </g>
            <g id="Group_2814" data-name="Group 2814">
              <path id="Path_6232" data-name="Path 6232" d="M1114.993,557.764q-5.188,0-7.3-2.154t-2.115-6.785V513.787q0-4.867-1.955-7.5a11.927,11.927,0,0,0-5.947-3.991v-7.9h26.1v8.38h-12.531a9.624,9.624,0,0,1,3.831,4.151,14.968,14.968,0,0,1,1.278,6.545v32.564q0,3.351,3.271,3.352h2.714v8.38Z" fill="#fff"/>
              <path id="Path_6233" data-name="Path 6233" d="M1122.336,562.764h-7.343c-4.9,0-8.461-1.194-10.872-3.653-2.352-2.4-3.546-5.858-3.546-10.286V513.787a8.128,8.128,0,0,0-.97-4.524,7.189,7.189,0,0,0-3.543-2.236,5,5,0,0,1-3.389-4.734v-7.9a5,5,0,0,1,5-5h26.1a5,5,0,0,1,5,5v8.38a5,5,0,0,1-5,5h-3.1a22.664,22.664,0,0,1,.676,5.7v30.916h.985a5,5,0,0,1,5,5v8.38A5,5,0,0,1,1122.336,562.764Zm-12.465-54.729a21.876,21.876,0,0,1,.7,5.752v35.038c0,1.909.368,2.961.684,3.283.007.006.664.568,3.141.647a8.154,8.154,0,0,1-3.049-6.723V513.468a10.2,10.2,0,0,0-.779-4.368A4.657,4.657,0,0,0,1109.871,508.035Zm-6.6-8.643a15.806,15.806,0,0,1,3.068,2.4c.023-.115.05-.231.082-.346a4.988,4.988,0,0,1,1.137-2.056Z" fill="#fff"/>
            </g>
            <g id="Group_2815" data-name="Group 2815">
              <path id="Path_6234" data-name="Path 6234" d="M1140.294,558.563a55.935,55.935,0,0,1-8.58-.639,30.5,30.5,0,0,1-6.664-1.676v-8.7a32.431,32.431,0,0,0,6.664,1.956,36.181,36.181,0,0,0,6.585.678,25.631,25.631,0,0,0,7.542-.8,3.172,3.172,0,0,0,2.355-3.272,3.639,3.639,0,0,0-1.237-2.953,11.658,11.658,0,0,0-3.791-1.876q-2.556-.839-6.545-2.2a32.656,32.656,0,0,1-9.139-4.669q-3.313-2.594-3.312-7.7a11.309,11.309,0,0,1,4.47-9.3q4.467-3.551,13.488-3.551a51.094,51.094,0,0,1,7.5.558,37.43,37.43,0,0,1,6.145,1.357v8.62a25.251,25.251,0,0,0-6.025-1.636,40.793,40.793,0,0,0-6.106-.519,22.446,22.446,0,0,0-6.505.838,3.363,3.363,0,0,0-2.754,3.392,2.957,2.957,0,0,0,1.4,2.554,14.964,14.964,0,0,0,3.991,1.756q2.594.8,6.187,2.075a36.988,36.988,0,0,1,7.223,3.193,10.418,10.418,0,0,1,3.99,4.07,12.975,12.975,0,0,1,1.237,5.987q0,6.306-4.829,9.378T1140.294,558.563Z" fill="#fff"/>
              <path id="Path_6235" data-name="Path 6235" d="M1140.294,563.563a61.181,61.181,0,0,1-9.347-.7,34.989,34.989,0,0,1-7.781-1.986,5,5,0,0,1-3.116-4.631v-8.7a5,5,0,0,1,6.942-4.607,27.671,27.671,0,0,0,5.639,1.648,33.253,33.253,0,0,0,6.4.589q-1.783-.6-4.015-1.357a37.276,37.276,0,0,1-10.612-5.467c-2.383-1.865-5.228-5.4-5.228-11.637a16.346,16.346,0,0,1,6.359-13.213c3.926-3.12,9.356-4.637,16.6-4.637a56.352,56.352,0,0,1,8.237.612,41.869,41.869,0,0,1,6.99,1.559,5,5,0,0,1,3.421,4.744v8.62a5,5,0,0,1-6.952,4.6,20.384,20.384,0,0,0-4.831-1.3c-1.374-.21-2.653-.349-3.819-.415q1.17.4,2.459.857a41.2,41.2,0,0,1,8.149,3.634,15.378,15.378,0,0,1,5.832,6.045,17.913,17.913,0,0,1,1.8,8.283c0,5.922-2.471,10.623-7.145,13.6C1152.249,562.266,1146.874,563.563,1140.294,563.563Zm11.594-22.255a9.066,9.066,0,0,1,1.308,4.8,8.673,8.673,0,0,1-.9,3.931,6.127,6.127,0,0,0,1.111-3.931,8.322,8.322,0,0,0-.681-3.693A4.274,4.274,0,0,0,1151.888,541.308ZM1129.9,523.487a6.725,6.725,0,0,0-.725,3.23c0,2.079.573,3.017,1.152,3.558a7.933,7.933,0,0,1-.936-3.8A8.718,8.718,0,0,1,1129.9,523.487Z" fill="#fff"/>
            </g>
            <g id="Group_2816" data-name="Group 2816">
              <path id="Path_6236" data-name="Path 6236" d="M1163.84,557.764V531.027q0-7.822,4.829-12.492t15.523-4.668q10.7,0,15.485,4.668t4.789,12.492v26.737H1193.69V530.228a7.18,7.18,0,0,0-2.513-5.986,10.973,10.973,0,0,0-6.985-1.995q-9.576,0-9.578,7.981v7.743a14.33,14.33,0,0,1,3.393-1.836,11.4,11.4,0,0,1,4.111-.719h5.188l.318,8.54h-5.746a12.33,12.33,0,0,0-3.99.6,12.046,12.046,0,0,0-3.274,1.716v11.493Z" fill="#fff"/>
              <path id="Path_6237" data-name="Path 6237" d="M1204.466,562.764H1193.69a5,5,0,0,1-5-5v-8.923a4.987,4.987,0,0,1-1.066.115h-5.746a7.68,7.68,0,0,0-2.264.294v8.514a5,5,0,0,1-5,5H1163.84a5,5,0,0,1-5-5V531.027c0-6.6,2.138-12.012,6.354-16.087,4.167-4.03,10.56-6.073,19-6.073s14.831,2.048,18.975,6.088c4.18,4.076,6.3,9.483,6.3,16.072v26.737A5,5,0,0,1,1204.466,562.764Zm-5.776-10h.776V531.027c0-3.845-1.073-6.76-3.279-8.911q-.2-.2-.421-.378a12.454,12.454,0,0,1,2.924,8.49Zm-29.85,0h.774v-6.493a5,5,0,0,1,2.034-4.025l.175-.127a5,5,0,0,1-2.209-4.148v-7.743a12.913,12.913,0,0,1,2.473-8.042c-2.186,2.144-3.247,5.037-3.247,8.841Zm13.278-22.348h5.188a4.98,4.98,0,0,1,1.384.2v-.383c0-1.575-.452-1.935-.623-2.069a6.446,6.446,0,0,0-3.875-.912c-4.578,0-4.578,1.316-4.578,2.981v.364A17.594,17.594,0,0,1,1182.118,530.416Z" fill="#fff"/>
            </g>
            <g id="Group_2817" data-name="Group 2817">
              <path id="Path_6238" data-name="Path 6238" d="M1221.546,557.764q-5.188,0-7.3-2.154t-2.115-6.785v-34.16H1222.9v31.367q0,3.351,3.272,3.352h2.714v8.38Z" fill="#fff"/>
              <path id="Path_6239" data-name="Path 6239" d="M1228.889,562.764h-7.343c-4.906,0-8.463-1.2-10.873-3.654-2.352-2.4-3.545-5.857-3.545-10.285v-34.16a5,5,0,0,1,5-5H1222.9a5,5,0,0,1,5,5v29.719h.986a5,5,0,0,1,5,5v8.38A5,5,0,0,1,1228.889,562.764Zm-11.761-43.1v29.16c0,1.909.368,2.961.684,3.283.007.007.668.568,3.141.647a8.152,8.152,0,0,1-3.05-6.723V519.665Z" fill="#fff"/>
            </g>
            <g id="Group_2818" data-name="Group 2818">
              <path id="Path_6240" data-name="Path 6240" d="M1254.908,558.563q-9.5,0-15.005-4.51t-5.507-13.608v-25.78h10.775V540.6q0,9.579,9.737,9.578t9.738-9.578V514.665h10.775v25.78q0,9.1-5.508,13.608T1254.908,558.563Z" fill="#fff"/>
              <path id="Path_6241" data-name="Path 6241" d="M1254.908,563.563c-7.487,0-13.6-1.9-18.173-5.641-4.87-3.987-7.339-9.867-7.339-17.477v-25.78a5,5,0,0,1,5-5h10.775a5,5,0,0,1,5,5V540.6c0,3.594,1.018,4.578,4.737,4.578s4.738-.984,4.738-4.578V514.665a5,5,0,0,1,5-5h10.775a5,5,0,0,1,5,5v25.78c0,7.61-2.47,13.49-7.341,17.477C1268.511,561.665,1262.4,563.563,1254.908,563.563Zm14.738-43.9V540.6a15.26,15.26,0,0,1-2.909,9.587l.008-.006c2.474-2.025,3.676-5.211,3.676-9.74v-20.78Zm-30.25,0v20.78c0,4.529,1.2,7.715,3.674,9.739l.009.007a15.267,15.267,0,0,1-2.908-9.587V519.665Z" fill="#fff"/>
            </g>
            <g id="Group_2819" data-name="Group 2819">
              <path id="Path_6242" data-name="Path 6242" d="M1298.088,557.764v-26.5a11.369,11.369,0,0,0-1.677-6.665q-1.676-2.352-6.7-2.354a28.187,28.187,0,0,0-5.588.6,33.884,33.884,0,0,0-5.267,1.476v-7.9a26.731,26.731,0,0,1,5.906-1.836,34.942,34.942,0,0,1,7.023-.718q9.1,0,13.09,3.871t3.99,12.012v28.014Z" fill="#fff"/>
              <path id="Path_6243" data-name="Path 6243" d="M1308.862,562.764h-10.774a5,5,0,0,1-5-5v-26.5a7.251,7.251,0,0,0-.67-3.641,6.688,6.688,0,0,0-2.71-.378,23.332,23.332,0,0,0-4.595.5,29.227,29.227,0,0,0-4.488,1.251,5,5,0,0,1-6.772-4.675v-7.9a5,5,0,0,1,2.885-4.531,31.405,31.405,0,0,1,7.019-2.2,40.113,40.113,0,0,1,8.025-.819c7.486,0,12.906,1.727,16.571,5.281s5.509,8.8,5.509,15.6v28.014A5,5,0,0,1,1308.862,562.764Zm-5.774-10h.774V529.75c0-4-.832-6.832-2.472-8.424a7.246,7.246,0,0,0-2.753-1.557,9.273,9.273,0,0,1,1.847,1.932,16.207,16.207,0,0,1,2.6,9.565Z" fill="#fff"/>
            </g>
            <g id="Group_2820" data-name="Group 2820">
              <path id="Path_6244" data-name="Path 6244" d="M1316.286,557.764v-43.1h10.775v13.089h10.695q4.15,0,5.706-1.8t1.557-5.467v-5.826h10.775v5.427a17.809,17.809,0,0,1-1.316,7.064,8.152,8.152,0,0,1-4.83,4.429,7.805,7.805,0,0,1,4.589,3.951,14.591,14.591,0,0,1,1.238,6.186v16.042H1344.7V542.919q0-4.071-1.556-5.667t-5.627-1.6h-10.456v22.108Z" fill="#fff"/>
              <path id="Path_6245" data-name="Path 6245" d="M1355.475,562.764H1344.7a5,5,0,0,1-5-5V542.919a8.543,8.543,0,0,0-.2-2.078,8.388,8.388,0,0,0-1.985-.185h-5.456v17.108a5,5,0,0,1-5,5h-10.775a5,5,0,0,1-5-5v-43.1a5,5,0,0,1,5-5h10.775a5,5,0,0,1,5,5v8.089h5.695a6.912,6.912,0,0,0,1.994-.217,5.839,5.839,0,0,0,.269-2.046v-5.826a5,5,0,0,1,5-5h10.775a5,5,0,0,1,5,5v5.427a22.844,22.844,0,0,1-1.72,9.032,12.732,12.732,0,0,1-1.385,2.447,11.613,11.613,0,0,1,1.085,1.864,19.612,19.612,0,0,1,1.7,8.287v16.042A5,5,0,0,1,1355.475,562.764Zm-5.775-10h.775V541.722a9.736,9.736,0,0,0-.777-4.089,2.232,2.232,0,0,0-1.106-1.047,15.938,15.938,0,0,1,1.108,6.333Zm-28.414,0h.775V535.656a4.991,4.991,0,0,1,1.935-3.951,4.99,4.99,0,0,1-1.935-3.951v-8.089h-.775Zm22.422-21.038a10.209,10.209,0,0,1,.979.479,4.9,4.9,0,0,1-.039-.609c0-.106,0-.212.01-.317C1344.355,531.441,1344.037,531.59,1343.708,531.726Zm6.311-12.061v.826a15.515,15.515,0,0,1-1.005,5.808,2.617,2.617,0,0,0,.869-1.115,12.959,12.959,0,0,0,.911-5.092v-.427Z" fill="#fff"/>
            </g>
            <g id="Group_2821" data-name="Group 2821">
              <path id="Path_6246" data-name="Path 6246" d="M1373.752,558.563a34.7,34.7,0,0,1-13.728-2.554v-8.222a33.868,33.868,0,0,0,5.347,1.717,25.294,25.294,0,0,0,5.827.678q7.5,0,10.735-3.113t3.232-10.854q0-7.742-3.232-10.855t-10.735-3.113a26.768,26.768,0,0,0-5.827.639,27.474,27.474,0,0,0-5.347,1.755v-8.22a34.7,34.7,0,0,1,13.728-2.554q10.934,0,16.282,5.706t5.348,16.642q0,10.935-5.348,16.641T1373.752,558.563Z" fill="#fff"/>
              <path id="Path_6247" data-name="Path 6247" d="M1373.752,563.563a39.8,39.8,0,0,1-15.69-2.956,5,5,0,0,1-3.038-4.6v-8.222a5,5,0,0,1,6.937-4.609,28.967,28.967,0,0,0,4.558,1.459,20.352,20.352,0,0,0,4.679.545c4.774,0,6.6-1.074,7.266-1.714.512-.493,1.7-2.185,1.7-7.253s-1.189-6.761-1.7-7.253c-.665-.641-2.493-1.715-7.267-1.715a21.937,21.937,0,0,0-4.744.52,22.513,22.513,0,0,0-4.371,1.431,5,5,0,0,1-7.059-4.557v-8.22a5,5,0,0,1,3.039-4.6,39.806,39.806,0,0,1,15.689-2.955c8.692,0,15.4,2.451,19.93,7.287,4.446,4.746,6.7,11.495,6.7,20.061s-2.254,15.316-6.7,20.06C1389.151,561.111,1382.445,563.563,1373.752,563.563Zm13.746-39.177c1.791,2.943,2.667,6.848,2.667,11.829s-.878,8.891-2.671,11.835c1.917-2.815,2.888-6.786,2.888-11.835S1389.413,527.2,1387.5,524.386Z" fill="#fff"/>
            </g>
            <g id="Group_2822" data-name="Group 2822">
              <path id="Path_6248" data-name="Path 6248" d="M1415.255,557.764v-26.5a11.376,11.376,0,0,0-1.676-6.665q-1.675-2.352-6.7-2.354a28.17,28.17,0,0,0-5.587.6,33.884,33.884,0,0,0-5.267,1.476v-7.9a26.731,26.731,0,0,1,5.906-1.836,34.936,34.936,0,0,1,7.023-.718q9.1,0,13.09,3.871t3.99,12.012v28.014Z" fill="#fff"/>
              <path id="Path_6249" data-name="Path 6249" d="M1426.03,562.764h-10.775a5,5,0,0,1-5-5v-26.5a7.266,7.266,0,0,0-.669-3.641,6.705,6.705,0,0,0-2.711-.378,23.324,23.324,0,0,0-4.594.5,29.235,29.235,0,0,0-4.488,1.251,5,5,0,0,1-6.772-4.675v-7.9a5,5,0,0,1,2.885-4.531,31.407,31.407,0,0,1,7.019-2.2,40.089,40.089,0,0,1,8.025-.819c7.485,0,12.905,1.727,16.571,5.28s5.509,8.8,5.509,15.6v28.014A5,5,0,0,1,1426.03,562.764Zm-5.775-10h.775V529.75c0-4-.832-6.832-2.472-8.424a7.23,7.23,0,0,0-2.753-1.556,9.241,9.241,0,0,1,1.847,1.931,16.211,16.211,0,0,1,2.6,9.565Z" fill="#fff"/>
            </g>
            <g id="Group_2823" data-name="Group 2823">
              <path id="Path_6250" data-name="Path 6250" d="M1448.378,558.563q-6.944,0-10.934-4.191t-3.991-11.693V514.665h10.775v27.376q0,4.391,1.956,6.265t5.786,1.876a14.391,14.391,0,0,0,5.906-1.277,13.74,13.74,0,0,0,4.63-3.192V514.665h10.774v43.1h-9.9l-.479-4.23a23.381,23.381,0,0,1-6.465,3.672A22.684,22.684,0,0,1,1448.378,558.563Z" fill="#fff"/>
              <path id="Path_6251" data-name="Path 6251" d="M1448.378,563.563c-6.029,0-10.926-1.932-14.555-5.742-3.562-3.74-5.37-8.834-5.37-15.142V514.665a5,5,0,0,1,5-5h10.775a5,5,0,0,1,5,5v27.376a5.158,5.158,0,0,0,.436,2.678,3.967,3.967,0,0,0,2.306.463,9.354,9.354,0,0,0,3.875-.846,11.231,11.231,0,0,0,1.661-.9V514.665a5,5,0,0,1,5-5h10.774a5,5,0,0,1,5,5v43.1a5,5,0,0,1-5,5h-9.9a4.993,4.993,0,0,1-3.6-1.528q-.776.345-1.578.648A27.775,27.775,0,0,1,1448.378,563.563Zm19.468-10.8h.434v-33.1h-.774v26.048a5,5,0,0,1-1.315,3.379q-.179.2-.365.384A5,5,0,0,1,1467.846,552.764Zm-29.393-33.1v23.014c0,3.7.855,6.4,2.611,8.244a7.777,7.777,0,0,0,2.6,1.8,10.769,10.769,0,0,1-.944-.807c-2.318-2.221-3.494-5.544-3.494-9.873V519.665Z" fill="#fff"/>
            </g>
            <g id="Group_2824" data-name="Group 2824">
              <path id="Path_6252" data-name="Path 6252" d="M1479.106,522.407V506.364h9.1l-1.117,16.043Zm13.809,0V506.364h9.1l-1.117,16.043Z" fill="#fff"/>
              <path id="Path_6253" data-name="Path 6253" d="M1500.9,527.407h-7.982a5,5,0,0,0-5.826,0h-7.983a5,5,0,0,1-5-5V506.364a5,5,0,0,1,5-5h9.1a5.008,5.008,0,0,0,4.709,0h9.1a5,5,0,0,1,4.988,5.347l-1.117,16.043A5,5,0,0,1,1500.9,527.407Z" fill="#fff"/>
            </g>
          </g>
          <g id="Group_2826" data-name="Group 2826">
            <path id="Path_6254" data-name="Path 6254" d="M842.188,522.407V506.364h9.1l-1.117,16.043Zm13.807,0V506.364h9.1l-1.117,16.043Z" fill="#ed759d"/>
            <path id="Path_6255" data-name="Path 6255" d="M895.424,558.563a22.685,22.685,0,0,1-8.062-1.357,23.39,23.39,0,0,1-6.464-3.672l-.479,4.23h-9.9V542.44a12.2,12.2,0,0,1,1.356-5.507,38.994,38.994,0,0,1,3.153-5.228q1.8-2.514,3.153-4.509a6.365,6.365,0,0,0,1.356-3.273q0-1.515-1.276-1.516a2.545,2.545,0,0,0-1.077.239,3.124,3.124,0,0,0-.918.638v3.273h-6.786V514.665h7.1V516.9a11.457,11.457,0,0,1,2.715-1.6,9.691,9.691,0,0,1,3.75-.638q6.386,0,6.386,6.544a12.478,12.478,0,0,1-1.238,5.508,44.4,44.4,0,0,1-2.833,4.988,48.428,48.428,0,0,0-2.833,4.909A11.438,11.438,0,0,0,881.3,541.8v3.911a13.649,13.649,0,0,0,4.67,3.192,14.477,14.477,0,0,0,5.866,1.277q3.831,0,5.786-1.876t1.956-6.265V514.665h10.775v28.014q0,7.5-3.991,11.693T895.424,558.563Z" fill="#ed759d"/>
            <path id="Path_6256" data-name="Path 6256" d="M933.017,557.764v-26.5a11.369,11.369,0,0,0-1.677-6.665q-1.676-2.352-6.7-2.354a28.17,28.17,0,0,0-5.587.6,33.88,33.88,0,0,0-5.269,1.476v-7.9a26.775,26.775,0,0,1,5.907-1.836,34.946,34.946,0,0,1,7.024-.718q9.1,0,13.089,3.871t3.991,12.012v28.014Z" fill="#ed759d"/>
            <path id="Path_6257" data-name="Path 6257" d="M967.655,558.563a18.917,18.917,0,0,1-9.257-2.235,15.525,15.525,0,0,1-6.426-6.984q-2.355-4.747-2.354-12.251,0-11.414,4.03-17.32a12.553,12.553,0,0,1,10.9-5.906,10.683,10.683,0,0,1,5.348,1.117,10,10,0,0,1,3.192,2.953,11.186,11.186,0,0,1,4.43-2.953,15.659,15.659,0,0,1,5.787-1.117q5.666,0,8.34,3.432a14.263,14.263,0,0,1,2.674,9.019v31.446H983.539V527.993a9.581,9.581,0,0,0-.759-4.27,2.965,2.965,0,0,0-2.913-1.476,4.073,4.073,0,0,0-2.594.918,4.975,4.975,0,0,0-1.635,2.753h-5.189a9.483,9.483,0,0,0-1.676-2.753,3.373,3.373,0,0,0-2.553-.918q-3.753,0-5.069,4.11a36.049,36.049,0,0,0-1.317,10.736q0,7.263,2.554,10.176a9.044,9.044,0,0,0,7.183,2.913,27.441,27.441,0,0,0,2.993-.16,13.643,13.643,0,0,0,2.515-.478v7.9a15.646,15.646,0,0,1-3.193.838A27.456,27.456,0,0,1,967.655,558.563Z" fill="#ed759d"/>
            <path id="Path_6258" data-name="Path 6258" d="M1002.136,557.764V544.036a16.117,16.117,0,0,1,1.236-6.5,7.263,7.263,0,0,1,4.909-3.951l-8.141-2.155v-10.3a32.2,32.2,0,0,1,8.74-5.029,32.8,32.8,0,0,1,12.49-2.234,32.316,32.316,0,0,1,11.055,1.676,13.415,13.415,0,0,1,7.023,5.587q2.435,3.91,2.436,10.615v26.019h-10.776V531.506q0-5.029-2.355-7.144t-7.941-2.115a20.027,20.027,0,0,0-6.584,1.037,14.581,14.581,0,0,0-4.83,2.634v1.118l8.86,2.394v6.545q-3.192.8-4.271,2.594a11.109,11.109,0,0,0-1.076,5.547v13.648Z" fill="#ed759d"/>
            <path id="Path_6259" data-name="Path 6259" d="M1063.833,558.563a55.925,55.925,0,0,1-8.58-.639,30.486,30.486,0,0,1-6.665-1.676v-8.7a32.441,32.441,0,0,0,6.665,1.956,36.162,36.162,0,0,0,6.584.678,25.639,25.639,0,0,0,7.543-.8,3.173,3.173,0,0,0,2.354-3.272,3.639,3.639,0,0,0-1.237-2.953,11.669,11.669,0,0,0-3.791-1.876q-2.555-.839-6.545-2.2a32.649,32.649,0,0,1-9.138-4.669q-3.313-2.594-3.313-7.7a11.309,11.309,0,0,1,4.47-9.3q4.469-3.551,13.489-3.551a51.081,51.081,0,0,1,7.5.558,37.481,37.481,0,0,1,6.145,1.357v8.62a25.233,25.233,0,0,0-6.026-1.636,40.769,40.769,0,0,0-6.1-.519,22.44,22.44,0,0,0-6.505.838,3.363,3.363,0,0,0-2.753,3.392,2.955,2.955,0,0,0,1.4,2.554,14.923,14.923,0,0,0,3.991,1.756q2.592.8,6.185,2.075a36.943,36.943,0,0,1,7.224,3.193,10.434,10.434,0,0,1,3.991,4.07,12.975,12.975,0,0,1,1.236,5.987q0,6.306-4.828,9.378T1063.833,558.563Z" fill="#ed759d"/>
            <path id="Path_6260" data-name="Path 6260" d="M1114.993,557.764q-5.188,0-7.3-2.154t-2.115-6.785V513.787q0-4.867-1.955-7.5a11.927,11.927,0,0,0-5.947-3.991v-7.9h26.1v8.38h-12.531a9.624,9.624,0,0,1,3.831,4.151,14.968,14.968,0,0,1,1.278,6.545v32.564q0,3.351,3.271,3.352h2.714v8.38Z" fill="#ed759d"/>
            <path id="Path_6261" data-name="Path 6261" d="M1140.294,558.563a55.935,55.935,0,0,1-8.58-.639,30.5,30.5,0,0,1-6.664-1.676v-8.7a32.431,32.431,0,0,0,6.664,1.956,36.181,36.181,0,0,0,6.585.678,25.631,25.631,0,0,0,7.542-.8,3.172,3.172,0,0,0,2.355-3.272,3.639,3.639,0,0,0-1.237-2.953,11.658,11.658,0,0,0-3.791-1.876q-2.556-.839-6.545-2.2a32.656,32.656,0,0,1-9.139-4.669q-3.313-2.594-3.312-7.7a11.309,11.309,0,0,1,4.47-9.3q4.467-3.551,13.488-3.551a51.094,51.094,0,0,1,7.5.558,37.43,37.43,0,0,1,6.145,1.357v8.62a25.251,25.251,0,0,0-6.025-1.636,40.793,40.793,0,0,0-6.106-.519,22.446,22.446,0,0,0-6.505.838,3.363,3.363,0,0,0-2.754,3.392,2.957,2.957,0,0,0,1.4,2.554,14.964,14.964,0,0,0,3.991,1.756q2.594.8,6.187,2.075a36.988,36.988,0,0,1,7.223,3.193,10.418,10.418,0,0,1,3.99,4.07,12.975,12.975,0,0,1,1.237,5.987q0,6.306-4.829,9.378T1140.294,558.563Z" fill="#ed759d"/>
            <path id="Path_6262" data-name="Path 6262" d="M1163.84,557.764V531.027q0-7.822,4.829-12.492t15.523-4.668q10.7,0,15.485,4.668t4.789,12.492v26.737H1193.69V530.228a7.18,7.18,0,0,0-2.513-5.986,10.973,10.973,0,0,0-6.985-1.995q-9.576,0-9.578,7.981v7.743a14.33,14.33,0,0,1,3.393-1.836,11.4,11.4,0,0,1,4.111-.719h5.188l.318,8.54h-5.746a12.33,12.33,0,0,0-3.99.6,12.046,12.046,0,0,0-3.274,1.716v11.493Z" fill="#ed759d"/>
            <path id="Path_6263" data-name="Path 6263" d="M1221.546,557.764q-5.188,0-7.3-2.154t-2.115-6.785v-34.16H1222.9v31.367q0,3.351,3.272,3.352h2.714v8.38Z" fill="#ed759d"/>
            <path id="Path_6264" data-name="Path 6264" d="M1254.908,558.563q-9.5,0-15.005-4.51t-5.507-13.608v-25.78h10.775V540.6q0,9.579,9.737,9.578t9.738-9.578V514.665h10.775v25.78q0,9.1-5.508,13.608T1254.908,558.563Z" fill="#ed759d"/>
            <path id="Path_6265" data-name="Path 6265" d="M1298.088,557.764v-26.5a11.369,11.369,0,0,0-1.677-6.665q-1.676-2.352-6.7-2.354a28.187,28.187,0,0,0-5.588.6,33.884,33.884,0,0,0-5.267,1.476v-7.9a26.731,26.731,0,0,1,5.906-1.836,34.942,34.942,0,0,1,7.023-.718q9.1,0,13.09,3.871t3.99,12.012v28.014Z" fill="#ed759d"/>
            <path id="Path_6266" data-name="Path 6266" d="M1316.286,557.764v-43.1h10.775v13.089h10.695q4.15,0,5.706-1.8t1.557-5.467v-5.826h10.775v5.427a17.809,17.809,0,0,1-1.316,7.064,8.152,8.152,0,0,1-4.83,4.429,7.805,7.805,0,0,1,4.589,3.951,14.591,14.591,0,0,1,1.238,6.186v16.042H1344.7V542.919q0-4.071-1.556-5.667t-5.627-1.6h-10.456v22.108Z" fill="#ed759d"/>
            <path id="Path_6267" data-name="Path 6267" d="M1373.752,558.563a34.7,34.7,0,0,1-13.728-2.554v-8.222a33.868,33.868,0,0,0,5.347,1.717,25.294,25.294,0,0,0,5.827.678q7.5,0,10.735-3.113t3.232-10.854q0-7.742-3.232-10.855t-10.735-3.113a26.768,26.768,0,0,0-5.827.639,27.474,27.474,0,0,0-5.347,1.755v-8.22a34.7,34.7,0,0,1,13.728-2.554q10.934,0,16.282,5.706t5.348,16.642q0,10.935-5.348,16.641T1373.752,558.563Z" fill="#ed759d"/>
            <path id="Path_6268" data-name="Path 6268" d="M1415.255,557.764v-26.5a11.376,11.376,0,0,0-1.676-6.665q-1.675-2.352-6.7-2.354a28.17,28.17,0,0,0-5.587.6,33.884,33.884,0,0,0-5.267,1.476v-7.9a26.731,26.731,0,0,1,5.906-1.836,34.936,34.936,0,0,1,7.023-.718q9.1,0,13.09,3.871t3.99,12.012v28.014Z" fill="#ed759d"/>
            <path id="Path_6269" data-name="Path 6269" d="M1448.378,558.563q-6.944,0-10.934-4.191t-3.991-11.693V514.665h10.775v27.376q0,4.391,1.956,6.265t5.786,1.876a14.391,14.391,0,0,0,5.906-1.277,13.74,13.74,0,0,0,4.63-3.192V514.665h10.774v43.1h-9.9l-.479-4.23a23.381,23.381,0,0,1-6.465,3.672A22.684,22.684,0,0,1,1448.378,558.563Z" fill="#ed759d"/>
            <path id="Path_6270" data-name="Path 6270" d="M1479.106,522.407V506.364h9.1l-1.117,16.043Zm13.809,0V506.364h9.1l-1.117,16.043Z" fill="#ed759d"/>
          </g>
        </g>
      </g>
    </g>
  </g>
</svg>
