<svg xmlns="http://www.w3.org/2000/svg" xmlns:xlink="http://www.w3.org/1999/xlink" width="2288" height="1080" viewBox="0 0 2288 1080">
  <defs>
    <clipPath id="clip-path">
      <rect id="Rectangle_199" data-name="Rectangle 199" width="2288" height="1080" transform="translate(-368)" fill="#fff" stroke="#707070" stroke-width="1"/>
    </clipPath>
    <clipPath id="clip-path-2">
      <path id="Path_1780" data-name="Path 1780" d="M7342.53,715.12c-74.4,71.447-158.177,137.26-249,195.61-87.14,55.981-183.016,106.536-284.964,150.261-191.191,82-410.347,142.909-651.378,181.038l-18.13-114.605c481.9-76.233,859.773-243.111,1123.108-495.995Z" transform="translate(-6139.053 -631.43)" fill="none"/>
    </clipPath>
  </defs>
  <g id="Mask_Group_2" data-name="Mask Group 2" transform="translate(368)" clip-path="url(#clip-path)">
    <g id="Group_2609" data-name="Group 2609" transform="translate(25.655 29.336)">
      <g id="Group_2623" data-name="Group 2623" transform="translate(-394.098 74.664)">
        <g id="Group_2746" data-name="Group 2746" transform="translate(0 0)">
          <path id="Path_5459" data-name="Path 5459" d="M-5849.514,21569.943c-13.084,52.672,171.377,379.395,171.377,379.395l-999.746,58.555h-7.41s-.875-180.545,7.41-302.561,0-175.871,0-175.871S-5836.426,21517.271-5849.514,21569.943Z" transform="translate(7229.433 -20257.832)" fill="#fff"/>
          <g id="Group_2694" data-name="Group 2694" transform="translate(0 4.173)">
            <path id="Path_5332" data-name="Path 5332" d="M-2157.783,1305.882c-2.662-1.35-114.774-86.726-164.094-173.027,0,0-29.934-24.5-50.172-21.439s-370.808-106.73-459.67-162.084-240.363-52.7-240.363-52.7,39.912-46.748,37.935-111.085c-.962-31.066-9.051-70.361-9.051-70.361l-6.094-41.587s40.625-38.213-15.424-89.359c-19.84-18.1-10.084-40.039-10.084-40.039s52.03-100.743,12.9-180.721c-72.485-148.2-238.06-174.33-335.587-169.457-66.768,3.345-105.08,24.506-125.438,41.608-12.355-3.355-37.974,3.2-37.974,3.2l-107.829,26.9s19.385-34.342,50.848-38.718,50.571-3.485,64.206-12.784,6.323-17.171-4.923-23.712c-11.1-6.462-97.567,8.228-99.791,8.605l48.377-15.344-41.229-25.4-197.178,156.066,117.487,48.4,31.553,7.365-30.075,6.679-163.412,63.741L-4124.83,780.928l8.753,155.76,1181.2,381.859,777.108-12.655A.028.028,0,0,1-2157.783,1305.882Zm-1351-447.486c24.466,21.488-17.359,58.51-27.513,60.168s-66.093-23.881-97.636-32.387-193.824-67.036-231.272-76.495-47.037-11.514-47.037-11.514,42.55-41.647,74.411-168.444,74.759-188.454,74.759-188.454,74.41-37.368,93.119-50.986c5.2-3.791,7.842-7.613,8.923-11.146l77.01,17.975,82.838,199.292,128.336,275.8S-3533.246,836.917-3508.78,858.4Z" transform="translate(4275.358 -148.915)"/>
            <path id="Path_5333" data-name="Path 5333" d="M-3667.45,386.658c-55.136,55.612-64.863,136.2-53.15,184.617s134.05-45,134.05-45l102.34-187.9-135.309-23.041Z" transform="translate(4268.66 -151.546)"/>
            <g id="Group_2693" data-name="Group 2693">
              <g id="Group_2692" data-name="Group 2692">
                <path id="Path_5334" data-name="Path 5334" d="M-3883.271,337.609c10.552-50.378,42.352-105.334,60.547-123.479s62.264-55.171,72.588-60.823,53.959-6.358,58.509-.326c0,0,26.353-5.162,41.369,3.505a28.679,28.679,0,0,1,14.749,23.821s66.226,1.67,80.57,10.04-5.74,21.127-24.916,21.85-54.506-.105-66.3,3.891-49.755,45.338-49.755,45.338,52.839-21.5,77.07-26.4,63.621-5.079,72-4.975,8.505,13.4-1.5,20.6-62.493,15.212-70.638,20.025-53.219,45.006-62.664,53.657a195.2,195.2,0,0,0-16.285,16.851s20.251-2.252,32.9-12.693,33.919-25.88,52.532-28.056,22.722,8.475.072,26.114-44.764,46.751-79.22,61.158-98.062,50.258-121.226,65.128-76.889-34.112-90.008-43.141S-3892.4,381.177-3883.271,337.609Z" transform="translate(4271.706 -148.754)" fill="#f9cfcc"/>
                <path id="Path_5335" data-name="Path 5335" d="M-3640.61,179.593c-2.364-.02-4.729-.037-7.086-.028-2.357.047-4.711.121-7.05.344a65.327,65.327,0,0,0-13.766,2.584,60.881,60.881,0,0,0-12.781,5.573c-4.007,2.339-7.869,5.1-11.725,7.79-7.72,5.417-15.335,11-22.979,16.551q-11.437,8.36-22.987,16.6,10.849-9.144,22.065-17.824,11.2-8.708,22.772-16.933c3.909-2.682,7.75-5.425,11.939-7.8a58.594,58.594,0,0,1,13.272-5.425,60.757,60.757,0,0,1,14.133-2.073A112.133,112.133,0,0,1-3640.61,179.593Z" transform="translate(4268.895 -149.26)" fill="#0d0d0c"/>
                <path id="Path_5336" data-name="Path 5336" d="M-3699.413,155.664c-3.442.85-6.855,1.777-10.179,2.959a89.826,89.826,0,0,0-9.766,3.959,62.016,62.016,0,0,0-9.05,5.234,39.067,39.067,0,0,0-4.036,3.25q-1.906,1.792-3.755,3.688c-2.484,2.5-4.921,5.059-7.343,7.633l-7.288,7.717q-7.255,7.752-14.676,15.373,6.556-8.377,13.537-16.4c4.65-5.355,9.393-10.621,14.374-15.7q1.877-1.9,3.856-3.723a37.187,37.187,0,0,1,4.272-3.359,56.9,56.9,0,0,1,9.477-5.1A77.1,77.1,0,0,1-3699.413,155.664Z" transform="translate(4269.338 -148.87)" fill="#0d0d0c"/>
                <path id="Path_5337" data-name="Path 5337" d="M-2118.364,1355.824c-1.937,35.624-137.727,85.141-321.164,73.819s-461.792-47.285-461.792-47.285-100.475-330.38-49.526-325.162,193.565,17.581,356.445,63.359,388.9,90.942,388.9,90.942Z" transform="translate(4255.928 -163.976)" fill="#f9cfcc"/>
                <path id="Path_5338" data-name="Path 5338" d="M-2504.876,1156.009c-29.659,53.886-46.53,283.242-46.53,283.242l-98.479-13.428,8.646-6.714L-2612,1151.564l73.358-24.462Z" transform="translate(4245.86 -181.547)"/>
                <path id="Path_5339" data-name="Path 5339" d="M-3636.455,1005.81c-149.377-65.12-402.969-166.779-464.345-181.077s-176.617,91.153-170.735,122.09,185.432,170.68,286.916,218.852c227.61,108.038,333.316,126.283,505.827,218.316Z" transform="translate(4277.821 -160.059)" fill="#f9cfcc"/>
                <path id="Path_5340" data-name="Path 5340" d="M-3982.416,855.106c-65.3,13.022-47.089,284.621-47.089,284.621l17.6,10.169,106.352-54.6-35.381-215.444Z" transform="translate(4273.799 -160.59)"/>
                <path id="Path_5341" data-name="Path 5341" d="M-3755.654,394c-26.213,31.8-96.749,143.039-136.082,223.474-39.258,80.277-90.06,208.538-191.826,273.638s-182.307,67.231-188.631,49.253-26.507-116.429,80.182-247.4c128.53-157.78,288.668-329.948,303.9-353.672S-3755.654,394-3755.654,394Z" transform="translate(4277.924 -151.872)" fill="#f9cfcc"/>
                <path id="Path_5342" data-name="Path 5342" d="M-3493.04,983.68l14.782-9.074s35.42-22.13,11.677-113.832S-3500.039,727.9-3500.039,727.9l219.442-24.08s179.642,176.158,128.66,192.555-58.788,34.267-52.749,51.547,27.215,30.97,40.526,36.784,62.221,35.26,62.221,35.26l-82.207,99.815-233.779,11.36-93.7-103.019V988.507Z" transform="translate(4265.083 -158.055)" fill="#f9cfcc"/>
                <path id="Path_5343" data-name="Path 5343" d="M-3360.865,856.935c39.3,45.47,136.165,62.036,186.234,51.409,0,0-23.455,11.856-28.245,23.636s5.8,29.579,14.865,38.377l-14.527,33.824-70.787,35.267-123.254,2.2-13.485-10.7s85.363,2.974,117.716-13.186,20.428-85.029,12.347-92.339-46.169-24.625-62.713-41.169S-3360.865,856.935-3360.865,856.935Z" transform="translate(4263.383 -160.621)" fill="#eab8b7"/>
                <path id="Path_5344" data-name="Path 5344" d="M-3189.813,972.29c-26.259,63.829-216.572,91.433-295.379,31.859l-7.95-15.971-24.615,14.159s15.869,54,17.8,55.343,231.531,57.193,231.531,57.193l145.848-76.132-26.063-44.046s-12.357-4.765-25.459-11.518S-3189.813,972.29-3189.813,972.29Z" transform="translate(4265.187 -162.554)"/>
                <path id="Path_5345" data-name="Path 5345" d="M-3894.283,1289.527l36.1,60.452a.052.052,0,0,0,.037.026l3.782,3.069,136.389,110.372,13.45,10.893,800.337,14.853,72.519-435c-64.805-11.49-95.246-27.632-192.093-39.836-56.712-7.138-116.639-8.579-116.639-8.579s-46.56,61.271-165.559,64.75-229.477-76.1-229.477-76.1-8.878-1.631-26.319-6.106q-3.334-.846-7.066-1.841l-.014,0c-20.17-5.337-49.371-13.847-87.275-26.8a147.205,147.205,0,0,0-35.476-6.99,199.371,199.371,0,0,0-43.754,1.343l-20.947,44.213Z" transform="translate(4271.495 -162.215)" fill="#fff"/>
                <path id="Path_5346" data-name="Path 5346" d="M-2966.123,1092.528c49.2-39.22,71.81-56.431,161.709-33.666,55.585,14.076,212.832,48.589,238.83,52.527s24.156,22.857,24.156,22.857-39.243,4.183-48.512,51.722-.74,116.8-12.24,153.906-20.712,94.856-15.808,122.154-42.357,37.052-64.638,18.9c0,0-41.366-4.236-101.575,3.636s-100.745,6.272-142.5,5.825-69.664-82.418-90.6-157.293S-3020.025,1135.5-2966.123,1092.528Z" transform="translate(4256.943 -163.834)" fill="#fff"/>
                <path id="Path_5347" data-name="Path 5347" d="M-3529.333,1038.807c143.665,143.932,384.09,72.735,427.251,78.6,43.144,5.878,45.191,37.145,45.191,37.145-21.6,87.544,7.509,188.722,9.711,196.057-.755-3.38-5.755-26.827-9.49-74.545-3.18-40.631,9.371-76.712,34.676-102.162a119.771,119.771,0,0,1,23.7-18.477c21.059-12.568,89.4-15.682,158.181-12.974,64.838,2.544,130.065,10.272,156.461,20.108,54.373,20.286,35.251,43.209,41.592,76.02,6.151,31.881,3.9,83.565,3.776,86.464a501.569,501.569,0,0,0,7.059-69.206c1.1-37.43,1.593-77.041,14.778-95.556,12.064-16.977,30.389-9.957,25.639,3.223,14.594-27.147,40.94-29.959,40.94-29.959s1.843-18.929-24.151-22.863-183.246-38.451-238.837-52.527q-6.583-1.668-12.7-3.052a.19.19,0,0,0-.086-.01c-7.68-1.367-14.879-2.8-21.756-4.276-51.147-10.988-84.931-24.791-170.25-35.55-56.711-7.137-116.64-8.579-116.64-8.579s-46.558,61.271-165.558,64.75c-67.98,1.99-133.2-23.129-176.609-45.042Z" transform="translate(4265.381 -163.13)" fill="#c9d6e8"/>
                <path id="Path_5348" data-name="Path 5348" d="M-3149.046,994.755c-16.617,38.953-93.214,72.893-230.48,58.092s-114.017-64.609-114.017-64.609l14.781-9.074s-11.7-8.758-32.234,2.3-29.748,11.883-30.6,21.962-.412,67.332,140.991,95.019,239.855-17.97,280.254-48.156,27.784-60.017,13.284-65.978-53.348,5.666-53.348,5.666Z" transform="translate(4265.588 -162.614)" fill="#c9d6e8"/>
                <path id="Path_5349" data-name="Path 5349" d="M-3288.507,1108.5q-2.263,0-4.455-.061a1.475,1.475,0,0,1-1.433-1.517,1.469,1.469,0,0,1,1.516-1.432c59.233,1.644,142.052-30.51,170.856-52.5,28.911-22.077,36.6-36.61,29.368-55.538a1.474,1.474,0,0,1,.851-1.9,1.474,1.474,0,0,1,1.9.852c7.807,20.447-.132,35.869-30.334,58.935-15.462,11.806-44.394,25.54-75.5,35.842C-3229.662,1102.4-3262.38,1108.5-3288.507,1108.5Z" transform="translate(4261.443 -162.942)" fill="#0d0d0c"/>
                <path id="Path_5350" data-name="Path 5350" d="M-2888.273,1498.332l-41.113-.773a31.092,31.092,0,0,0,4.3.346C-2912.877,1498.039-2900.785,1498.272-2888.273,1498.332Z" transform="translate(4255.327 -171.355)" fill="#c9d6e8"/>
                <path id="Path_5351" data-name="Path 5351" d="M-2835.776,1051.572c6.877,1.474,14.077,2.909,21.757,4.276C-2821.79,1054.084-2829.007,1052.657-2835.776,1051.572Z" transform="translate(4253.759 -163.882)" fill="#c9d6e8"/>
                <path id="Path_5352" data-name="Path 5352" d="M-2835.776,1051.572c6.877,1.474,14.077,2.909,21.757,4.276C-2821.79,1054.084-2829.007,1052.657-2835.776,1051.572Z" transform="translate(4253.759 -163.882)" fill="#c9d6e8"/>
                <path id="Path_5353" data-name="Path 5353" d="M-4026.578,1186.352c-18.759,30.163,14.173,86.155,36.814,77.641,0,0,30.6,5.808,77.152,44.792,19.028,15.929,36.135,28.759,52.116,39.864a.054.054,0,0,0,.038.025c1.648,1.151,3.278,2.269,4.892,3.381l.027.008c21.191,14.474,40.524,26.089,59.994,38.19,16.963,10.548,41.273,3.668,68.354-12.083,29.538-17.147,62.37-44.846,92.559-71.917,57.891-51.9,108.455-165.186,86.078-230.4-14.623-42.617-23.82-68.379-60.195-90.268-14.428-8.675-33.115-16.735-58.1-25-7.407-2.445-16.609-5.595-27.049-9.228-66.2-22.99-181.841-65.575-202.611-74.767-24.053-10.645-44.417,3.55-44.417,3.55s-5.132,1.62-12.955,12.133c-.413.546-.833,1.119-1.247,1.724a.545.545,0,0,0-.1.134c-.175.246-.352.49-.528.735-5.116,7.422-11.212,18.517-17.71,35.022-17.715,45.076-11.567,117.172-21.8,154.646S-4011.941,1162.792-4026.578,1186.352Z" transform="translate(4273.805 -160.884)" fill="#fff"/>
                <path id="Path_5354" data-name="Path 5354" d="M-3936.214,901.253c-12.448,12.934-20.263,33.161-21.106,63.667s34.66,28.177,97.462,25.747c28.619-1.106,69.546-.655,102.512,6.249,39.392,8.245,67.431,25.653,49.6,60.522-32.337,63.241-41.442,150.144-41.671,152.332-.1-.713-.687-4.725-3.6-24.1-4.1-27.125-6.878-82.778-6.878-82.778-13.84,53.229,3.05,171.054,3.05,171.054s1.321,13.156-8.752,31.073-62.958,56.88-88.685,47.048l-.027-.008a5.109,5.109,0,0,0-1.11-.312l136.39,110.371c-1.875-22.527-4.142-50.167-6.906-83.945q-.723-8.82-1.493-18.218c-12.966-158.563-1.6-176.59,10.728-220.847s39.7-118.745,84.758-144.1a89.715,89.715,0,0,1,24.45-9.42,90.887,90.887,0,0,1,37.6-.438c-20.169-5.337-49.371-13.847-87.276-26.8a147.17,147.17,0,0,0-35.476-6.99c-66.2-22.99-181.841-65.575-202.612-74.767-24.052-10.645-44.418,3.55-44.418,3.55s-5.133,1.62-12.952,12.133C-3943.761,881.581-3924.406,888.978-3936.214,901.253Z" transform="translate(4272.552 -160.884)" fill="#c9d6e8"/>
                <path id="Path_5355" data-name="Path 5355" d="M-3954.457,895.235a4.663,4.663,0,0,0,.529-.736C-3954.1,894.745-3954.28,894.99-3954.457,895.235Z" transform="translate(4272.505 -161.25)" fill="#c9d6e8"/>
              </g>
              <path id="Path_5356" data-name="Path 5356" d="M-4213.481,883.845c-3.284,0-5.162-.022-5.317-.023a.985.985,0,0,1-.97-1,.983.983,0,0,1,.983-.97h.012c1.377.022,138.887,1.578,186.541-24.083a.982.982,0,0,1,1.333.4.982.982,0,0,1-.4,1.332C-4074,882.494-4187.53,883.845-4213.481,883.845Z" transform="translate(4276.95 -160.633)" fill="#db8882"/>
              <path id="Path_5357" data-name="Path 5357" d="M-2875.826,1522.424a1.465,1.465,0,0,1-.81-.243c-81.463-53.71-122.206-136.172-122.606-137a1.473,1.473,0,0,1,.679-1.972,1.477,1.477,0,0,1,1.972.681c.4.82,40.812,82.576,121.577,135.826a1.474,1.474,0,0,1,.419,2.044A1.47,1.47,0,0,1-2875.826,1522.424Z" transform="translate(4256.5 -169.437)" fill="#0d0d0c"/>
              <path id="Path_5358" data-name="Path 5358" d="M-2985.618,1449.442a1.471,1.471,0,0,1-1.222-.651c-1.9-2.811-46.528-69.122-52.836-92.906-16.82-63.422-22.185-121.142-15.947-171.558,6.4-51.675,22.714-76.049,27.563-82.289,19.37-24.924,56.061-38.855,57.614-39.436a1.473,1.473,0,0,1,1.9.864,1.475,1.475,0,0,1-.864,1.9c-.374.14-37.469,14.229-56.319,38.484-4.731,6.089-20.659,29.913-26.963,80.841-6.192,50.039-.854,107.383,15.87,170.437,6.182,23.307,51.967,91.328,52.428,92.014a1.474,1.474,0,0,1-.4,2.047A1.47,1.47,0,0,1-2985.618,1449.442Z" transform="translate(4257.485 -164.066)" fill="#0d0d0c"/>
              <path id="Path_5359" data-name="Path 5359" d="M-3713.676,1470.631a1.473,1.473,0,0,1-1.465-1.324c-.925-9-22.623-220.817-17.486-254.687,5.026-33.143,29.022-121.691,61.715-176.2a1.477,1.477,0,0,1,2.024-.506,1.473,1.473,0,0,1,.505,2.024c-32.482,54.16-56.33,142.178-61.328,175.125-5.082,33.5,17.277,251.743,17.5,253.943a1.475,1.475,0,0,1-1.316,1.618A1.351,1.351,0,0,1-3713.676,1470.631Z" transform="translate(4268.8 -163.65)" fill="#0d0d0c"/>
              <path id="Path_5360" data-name="Path 5360" d="M-3728.68,1307.425a1.474,1.474,0,0,1-1.439-1.158c-1.637-7.432-39.912-182.5-23.33-224.382a1.477,1.477,0,0,1,1.914-.828,1.472,1.472,0,0,1,.828,1.913c-16.252,41.055,23.069,220.851,23.468,222.663a1.474,1.474,0,0,1-1.122,1.757A1.523,1.523,0,0,1-3728.68,1307.425Z" transform="translate(4269.206 -164.374)" fill="#0d0d0c"/>
            </g>
          </g>
          <g id="Group_2700" data-name="Group 2700" transform="translate(1097.78 0)">
            <g id="Group_2695" data-name="Group 2695" transform="translate(41.949)">
              <circle id="Ellipse_206" data-name="Ellipse 206" cx="428.171" cy="428.171" r="428.171"/>
            </g>
            <g id="Group_2699" data-name="Group 2699" transform="translate(0 48.799)">
              <g id="Group_2696" data-name="Group 2696" transform="translate(30.437)">
                <circle id="Ellipse_207" data-name="Ellipse 207" cx="412.583" cy="412.583" r="412.583" fill="#fff"/>
              </g>
              <path id="Path_5361" data-name="Path 5361" d="M-3136.434,566.916c11.421,7.919,28.625,2.226,45.16-43.405s-2.169-117.452-2.169-117.452l-67.992,85.158Z" transform="translate(3161.435 -197.693)"/>
              <g id="Group_2697" data-name="Group 2697" transform="translate(80.685 50.247)" opacity="0.5">
                <circle id="Ellipse_208" data-name="Ellipse 208" cx="362.336" cy="362.336" r="362.336" fill="#c9d6e8"/>
              </g>
              <g id="Group_2698" data-name="Group 2698" transform="translate(7.695 38.244)">
                <path id="Path_5362" data-name="Path 5362" d="M-2843.481,970.388a1.457,1.457,0,0,1-.516-.093c-9.88-3.684-19.75-7.847-29.34-12.373a1.474,1.474,0,0,1-.7-1.962,1.477,1.477,0,0,1,1.964-.7c9.515,4.491,19.308,8.621,29.111,12.278a1.474,1.474,0,0,1,.866,1.9A1.475,1.475,0,0,1-2843.481,970.388Z" transform="translate(3148.926 -245.138)" fill="#0d0d0c"/>
                <path id="Path_5363" data-name="Path 5363" d="M-2717.458,981.715q-18.551,0-37.076-1.851a1.475,1.475,0,0,1-1.32-1.615,1.47,1.47,0,0,1,1.615-1.32c156.011,15.616,305.814-69.209,372.772-211.074a368.857,368.857,0,0,0,13.714-283.848A368.869,368.869,0,0,0-2558.77,271.6c-185.147-87.385-406.868-7.847-494.253,177.3a369.237,369.237,0,0,0-15.122,279.845,1.478,1.478,0,0,1-.913,1.876,1.476,1.476,0,0,1-1.875-.911,372.177,372.177,0,0,1,15.242-282.068,371.926,371.926,0,0,1,88.775-119.186,373,373,0,0,1,123.3-73.345,372.963,372.963,0,0,1,141.81-21.757,371.9,371.9,0,0,1,144.292,35.579,371.911,371.911,0,0,1,119.185,88.774,373,373,0,0,1,73.346,123.3,372.988,372.988,0,0,1,21.758,141.81,371.9,371.9,0,0,1-35.58,144.292,371.613,371.613,0,0,1-156.47,167.321,375.853,375.853,0,0,1-105.693,39.354A373.808,373.808,0,0,1-2717.458,981.715Z" transform="translate(3152.571 -233.038)" fill="#0d0d0c"/>
                <path id="Path_5364" data-name="Path 5364" d="M-3076.659,830.775c10.942-17.667-5.643-114.11-6.669-117.189s23.085-31.293,10.773-43.092-52.058-47.11-61.561-61.968-19.493,13.233-19.493,13.233l4.1,95.723Z" transform="translate(3153.609 -239.258)"/>
              </g>
            </g>
          </g>
          <path id="Path_5365" data-name="Path 5365" d="M-2057.539,1286.657c-56.888,53.172-140.534,70.109-143.045,29.972a.031.031,0,0,1-.006-.02c-.9-2.724-132.625-163.792-70.546-428.345l22.27-161.906-23.7-125.613-78.853-126.52-4.741-17.533c10.506-.853,45.878,27.954,52.138,38.254s13.419,9.441,12.647,8.025-15.382-58.125-15.382-58.125l-56.51-61.815-6.566-12.17s47.554,18.992,66.666,29.886,48.549,32.308,48.549,32.308l-11.653-32.389-74.352-58.82,83.5,22.046,2.211-25.247s80.131,9.68,91.571,18.282,61.557,58.871,77.394,110.028-13.343,105.248-13.142,173.531,14.168,118.767,49.61,321.186C-2016.961,1147.4-2000.652,1233.471-2057.539,1286.657Z" transform="translate(4245.952 -147.764)"/>
          <g id="Group_2701" data-name="Group 2701" transform="translate(1850.195 181.034)">
            <path id="Path_5366" data-name="Path 5366" d="M-2126.481,600.5c11.638-50.14,5.931-113.376-2.932-137.493s-33.249-76.258-40.234-85.731-46.265-28.485-52.931-24.929c0,0-21.731-15.777-39-14.237a28.683,28.683,0,0,0-23.409,15.4s-60.771-26.368-77.307-24.815-3.686,21.581,13.4,30.309,49.485,22.853,58.5,31.443,26.041,62.072,26.041,62.072-38.876-41.748-58.793-56.393-55.567-31.394-63.21-34.825-13.36,8.577-7.315,19.318,50.278,40.108,55.641,47.9,29.324,63.229,34.25,75.052a195.628,195.628,0,0,1,7.674,22.142s-17.419-10.569-24.493-25.363-19.871-37.756-35.839-47.565-24.178-1.879-11.058,23.657,20.921,61.251,46.109,88.826,67.787,86.872,82.537,110.112,84.1,1.432,99.8-1.236S-2136.546,643.865-2126.481,600.5Z" transform="translate(2396.198 -328.63)" fill="#f9cfcc"/>
            <path id="Path_5367" data-name="Path 5367" d="M-2268.072,361.03a54.513,54.513,0,0,1,10.238,7.791,106.967,106.967,0,0,1,8.8,9.438c2.758,3.3,5.362,6.728,7.842,10.241s4.835,7.109,7.054,10.809c4.33,7.431,8.559,14.836,12.736,22.318s8.242,15.007,12.188,22.616q-6.964-10.8-13.573-21.823c-4.41-7.332-8.773-14.737-13.024-22.124a213.088,213.088,0,0,0-14.369-21.114c-2.627-3.353-5.349-6.636-8.288-9.721A60.826,60.826,0,0,0-2268.072,361.03Z" transform="translate(2394.051 -329.173)" fill="#0d0d0c"/>
            <path id="Path_5368" data-name="Path 5368" d="M-2215.7,358.989l2.067,1.934c.706.635,1.3,1.371,1.949,2.056.632.7,1.29,1.384,1.9,2.1l1.828,2.164q3.608,4.369,6.935,8.953c4.473,6.08,8.7,12.331,12.8,18.659,4.065,6.351,8.029,12.768,11.79,19.3a210.32,210.32,0,0,1,10.459,20.059c-1.854-3.283-3.8-6.5-5.8-9.692l-5.976-9.575c-4.022-6.359-8.044-12.714-12.129-19.03q-6.086-9.5-12.4-18.843c-1.05-1.559-2.1-3.114-3.186-4.649s-2.133-3.1-3.257-4.6l-1.646-2.289c-.551-.762-1.147-1.485-1.719-2.23C-2213.207,361.8-2214.47,360.425-2215.7,358.989Z" transform="translate(2393.174 -329.139)" fill="#0d0d0c"/>
            <path id="Path_5369" data-name="Path 5369" d="M-2270.37,633.631c17.862,31.039,14.469,175.285-9.079,261.489s-87.643,257.373-38.382,367.678,163.7,122.69,178.864,111.144,94.709-116.081,68.932-250.767c-38.252-199.878-59.912-434.287-59.6-462.478S-2270.37,633.631-2270.37,633.631Z" transform="translate(2395.189 -333.74)" fill="#f9cfcc"/>
          </g>
          <g id="Group_2709" data-name="Group 2709" transform="translate(548.047 121.954)">
            <path id="Path_5398" data-name="Path 5398" d="M-3120.783,869.915a86.373,86.373,0,0,1-13.588,11.186,92.439,92.439,0,0,1-23.574,10.7h-.019c-1.063.327-2.153.655-3.285.963q-3.483,1.056-6.639,2.173c-60.535,17.31-146.838-21.17-233.73-72.47-1.171-3.106-68.637,29.542-70.077,26.546,0,0-85.557-29.786-149-115.184s-52.157-293.6,94.758-351.23,312.432,7.494,358.05,122.589c9.181,23.166,10.123,61.477,11.235,76.137s-4.854,21.886,4.419,37.012,40.018,35.443,45.983,42.768-10.412,28.774-10.412,28.774,5.34,38.739,12.516,83.533S-3106.908,856.376-3120.783,869.915Z" transform="translate(3719.478 -270.096)" fill="#f9cfcc"/>
            <path id="Path_5399" data-name="Path 5399" d="M-3137,572.008c-10.713,42.364-43.963,62.779-54.275,62.623s1.365-10.485,7.879-32.5,5.11-77.443,5.11-77.443l25.424-22.258Z" transform="translate(3711.737 -272.461)"/>
            <path id="Path_5400" data-name="Path 5400" d="M-3224.651,912.534c-47.968,0-101.892-28.371-102.448-28.667a.983.983,0,0,1-.406-1.329.982.982,0,0,1,1.329-.406c.566.3,57.219,30.108,105.636,28.363a.99.99,0,0,1,1.018.948.983.983,0,0,1-.946,1.017C-3221.854,912.509-3223.252,912.534-3224.651,912.534Z" transform="translate(3713.953 -278.822)" fill="#db8882"/>
            <path id="Path_5401" data-name="Path 5401" d="M-3326.044,614.567c.33,47.787-45.019,117.756-53.142,175.869s.556,80.826.556,80.826-40.99,23.223-91.845,9.809c0,0-87.93-37.555-133.587-87.173s-99.578-137.225-99.578-137.225Z" transform="translate(3720.254 -274.34)" fill="#c95380"/>
            <path id="Path_5402" data-name="Path 5402" d="M-3220.83,502c9.482,31.484,17.471,69.514-23.56,101.88s-42.121,43.345-37.649,49.516,2.9,19.33-14.437,2.256-9.176-41.146-9.176-41.146,6.266,10.36-15.215,23.537-94.585,67.121-117.365,90.823-14.523-34.171-14.523-34.171l-7.643,64.79-24.228,25.526-20.949-42.314-104.372-8.5s-9.684,7.592-8.92,8,1.935,10.267-4.623,21.526l-19.637-36.5,48.567-95.039,349.357-206.1Z" transform="translate(3719.241 -271.182)"/>
            <path id="Path_5403" data-name="Path 5403" d="M-3582.447,350.506c11.167-45.233,108.555-97.852,203.655-77.432s123.931,23.574,160.5,46.6,39.319,13.713,36.826,6.738,7.392-4.312,8.4,8.858-10.917,15.379-10.917,15.379,41.783,36.261,55.563,70.58,1,106.477-6.617,123.265-8.7,5.383-8.623-7.6-3.109-51.3-24.622-76.757c0,0,15.433,56.854,2.482,96.669s-58.294,69.814-56.04,57.3,9.446-44.277,4.137-69.275-48.525-75.055-48.525-75.055,33.912,32.081,19.741,79.553c-4.8,16.071-10.155,43.752-40.9,65.74s-31.644,51.1-25.354,59.932-8.333,7.264-15.351-8.473-7.1-32.676,2.176-48.153c0,0-86.395,61.507-104.206,93.749s-20.373,33.708-20.9,48.217-11.806.953-11.39-16.582c0,0-16.443,27.185-23.547,42.323s-31.638,4.656-31.329-9.07c0,0,.817,5.622-5.464,8.99s-30.076-9.748-30.076-9.748,17.3,14.129,5.475,17.03-30.977-1.66-83.582-58.781c0,0,10.969,22.023,3.834,34.711s-11.2,9.115-10.785-3.925-18.281-21.982-50.031-60.569c-25.909-31.489-52.948-160.765-10.314-239.675,28.895-53.476,92.784-91.346,92.784-91.346s-8.788-20.33,4.23-40.251,40.869-29.382,35.957-23.505C-3583.474,331.728-3582.447,350.506-3582.447,350.506Z" transform="translate(3720.537 -268.542)" fill="#ed759d"/>
            <path id="Path_5404" data-name="Path 5404" d="M-3404.712,350.935c3.551,6.613,7,13.291,10.17,20.105.825,1.688,1.578,3.411,2.362,5.119s1.572,3.418,2.3,5.152l2.226,5.188,2.082,5.249c2.7,7.027,5.215,14.143,7.309,21.4a202.91,202.91,0,0,1,5.1,22.089,156.32,156.32,0,0,1,1.258,45.356,155.393,155.393,0,0,1-4.413,22.339A179.693,179.693,0,0,1-3383.8,524.4a219.723,219.723,0,0,1-9.84,20.438l-5.419,9.863c-.915,1.625-1.746,3.3-2.6,4.953s-1.734,3.3-2.524,5a312.073,312.073,0,0,0-16.873,41.463,329.834,329.834,0,0,0-11.058,43.456,269.218,269.218,0,0,0-4.6,44.672c-.531-15.016.9-30.052,3.084-44.925a307.09,307.09,0,0,1,10.045-44,307.657,307.657,0,0,1,16.382-42.127c.783-1.718,1.669-3.384,2.5-5.076.851-1.683,1.673-3.382,2.583-5.035l5.307-9.928c3.445-6.608,6.635-13.339,9.483-20.206a168.051,168.051,0,0,0,11.62-42.822,159.805,159.805,0,0,0-.75-44.352,206.484,206.484,0,0,0-4.523-21.867q-2.9-10.8-6.594-21.408c-2.463-7.061-5.172-14.046-8.042-20.97l-2.189-5.178-2.276-5.142C-3401.574,357.753-3403.169,354.359-3404.712,350.935Z" transform="translate(3715.783 -269.923)" fill="#fff"/>
            <path id="Path_5405" data-name="Path 5405" d="M-3472.964,323.132a33.612,33.612,0,0,1,5.451,12.932,57.687,57.687,0,0,1,.888,14.112c-.487,9.447-2.47,18.731-4.875,27.831-2.46,9.1-5.467,18.027-8.608,26.888s-6.487,17.645-9.838,26.416c-6.675,17.552-13.593,34.986-19.762,52.668a482.267,482.267,0,0,0-15.9,53.75c-2.044,9.1-3.767,18.276-4.9,27.517a201.284,201.284,0,0,0-1.478,27.836c.167,18.633,2.637,37.217,6.3,55.535a412.294,412.294,0,0,0,15.008,54.053,409.042,409.042,0,0,0,21.7,51.849c-2.344-4.068-4.54-8.221-6.665-12.411-2.1-4.2-4.1-8.455-6.049-12.729-3.868-8.566-7.5-17.243-10.827-26.043a414.113,414.113,0,0,1-16.163-54.082c-2.062-9.2-3.719-18.495-4.909-27.861a264.891,264.891,0,0,1-2.145-28.257,204.182,204.182,0,0,1,1.405-28.361,276.5,276.5,0,0,1,4.908-27.911,469.382,469.382,0,0,1,16.249-54.121c6.4-17.7,13.393-35.141,20.464-52.523,6.994-17.4,14.047-34.8,19.4-52.728,2.663-8.949,4.9-18.074,5.674-27.38a57.533,57.533,0,0,0-.438-13.941A33.344,33.344,0,0,0-3472.964,323.132Z" transform="translate(3717.44 -269.457)" fill="#fff"/>
            <path id="Path_5406" data-name="Path 5406" d="M-3594.745,380.479c-22.162,20.882-42.2,44.15-57.342,70.41a224.145,224.145,0,0,0-18.579,41.279A210.516,210.516,0,0,0-3676.642,514q-2.383,11.069-3.671,22.342a267.45,267.45,0,0,0-1.007,45.325c.064,1.9.245,3.783.369,5.673.146,1.89.248,3.784.43,5.669.378,3.771.7,7.549,1.2,11.305.864,7.531,2.074,15.018,3.568,22.446a219.258,219.258,0,0,0,13.188,43.428,149.194,149.194,0,0,0,10.481,20.174,110.881,110.881,0,0,0,6.513,9.339,63.629,63.629,0,0,0,7.665,8.431,63.84,63.84,0,0,1-8.075-8.1,102.475,102.475,0,0,1-6.9-9.157,150.285,150.285,0,0,1-11.273-19.978,188.045,188.045,0,0,1-8.4-21.374,218.735,218.735,0,0,1-6.011-22.173c-1.646-7.481-3-15.028-4.014-22.62-.572-3.788-.919-7.6-1.347-11.408-.206-1.9-.33-3.814-.5-5.72-.144-1.908-.349-3.814-.434-5.726-.479-7.634-.832-15.3-.7-22.979.1-7.674.552-15.349,1.388-22.988a211.7,211.7,0,0,1,9.917-44.95,198,198,0,0,1,8.615-21.37,227.364,227.364,0,0,1,10.809-20.322c3.988-6.554,8.272-12.915,12.787-19.1q6.9-9.19,14.464-17.819c5.11-5.688,10.361-11.243,15.873-16.524,2.708-2.69,5.537-5.252,8.339-7.838C-3600.552,385.42-3597.613,382.985-3594.745,380.479Z" transform="translate(3719.952 -270.418)" fill="#fff"/>
            <path id="Path_5407" data-name="Path 5407" d="M-3611.251,598.44l-2.307-7.436c-.651-2.513-1.216-5.05-1.83-7.579-.557-2.541-.957-5.112-1.443-7.671-.26-1.278-.4-2.571-.576-3.862l-.5-3.876a194.946,194.946,0,0,1-.85-31.239,249.9,249.9,0,0,1,3.543-31.072c1.838-10.267,4.252-20.421,7.065-30.454q4.326-15.022,9.917-29.629c3.783-9.7,7.9-19.279,12.548-28.595a282.061,282.061,0,0,1,15.283-27.21c5.693-8.693,11.733-17.249,19.067-24.616l-2.464,3.008c-.82,1-1.562,2.066-2.345,3.093s-1.546,2.071-2.281,3.135-1.5,2.1-2.21,3.184c-1.41,2.167-2.853,4.308-4.175,6.53-.67,1.105-1.358,2.2-2.012,3.311l-1.931,3.358c-5.17,8.941-9.839,18.161-14.162,27.531-4.28,9.39-8.292,18.9-11.834,28.591-3.59,9.668-6.827,19.466-9.619,29.386a307.354,307.354,0,0,0-11.338,60.646,218.151,218.151,0,0,0-.292,30.874l.283,3.857c.1,1.287.166,2.577.353,3.853.338,2.555.589,5.131,1,7.68.465,2.539.893,5.09,1.387,7.63Z" transform="translate(3718.836 -270.162)" fill="#fff"/>
            <path id="Path_5408" data-name="Path 5408" d="M-3306.6,556.445c-.022-5.959.132-11.889.274-17.814l-.014-17.764c-.334-11.824-.589-23.641-1.776-35.381a290.65,290.65,0,0,0-4.945-34.994c-.565-2.894-1.33-5.736-1.952-8.622-.353-1.431-.757-2.846-1.137-4.271s-.749-2.855-1.215-4.254l-1.3-4.232-1.47-4.18a79.527,79.527,0,0,0-3.5-8.164,58.717,58.717,0,0,1,4.5,7.732l1.893,4.064,1.705,4.147c.589,1.378,1.046,2.8,1.546,4.209s1,2.821,1.46,4.244l1.264,4.3c.4,1.44.874,2.866,1.2,4.324.7,2.905,1.454,5.805,2.041,8.736l1.655,8.816c.831,5.916,1.728,11.834,2.175,17.79l.365,4.465c.128,1.488.249,2.976.286,4.468l.351,8.946c.141,2.981.068,5.964.047,8.945s-.069,5.961-.131,8.94c-.271,5.954-.7,11.9-1.123,17.83C-3305.091,544.649-3305.761,550.561-3306.6,556.445Z" transform="translate(3713.887 -271.026)" fill="#fff"/>
            <path id="Path_5409" data-name="Path 5409" d="M-3181.767,433.623a223.136,223.136,0,0,0-29.657-38.9l-4.317-4.318c-1.453-1.421-2.805-2.946-4.357-4.265l-4.528-4.087c-1.517-1.352-2.982-2.763-4.6-3.995l-4.736-3.838c-1.577-1.281-3.128-2.6-4.8-3.748l-4.94-3.572c-1.643-1.195-3.276-2.4-5.014-3.46l-5.111-3.321-2.556-1.663c-.844-.564-1.754-1.026-2.627-1.545l-5.29-3.03-2.646-1.516c-.876-.516-1.807-.931-2.7-1.408l-5.436-2.772c-1.813-.924-3.61-1.879-5.491-2.658l-5.584-2.469c-1.861-.826-3.7-1.718-5.616-2.4a274.478,274.478,0,0,0-46.9-14.126,203.308,203.308,0,0,1,48,11.261c1.971.623,3.863,1.455,5.78,2.222l5.727,2.371c1.928.749,3.776,1.675,5.639,2.573l5.587,2.692c1.888.85,3.676,1.893,5.476,2.909l5.407,3.044c.894.52,1.821.984,2.686,1.553l2.613,1.671,5.228,3.348c1.76,1.088,3.416,2.333,5.082,3.561l5,3.675c1.7,1.186,3.269,2.536,4.864,3.853l4.772,3.969c1.618,1.29,3.079,2.759,4.593,4.17l4.51,4.259c1.541,1.38,2.9,2.95,4.323,4.444l4.216,4.544A174.567,174.567,0,0,1-3181.767,433.623Z" transform="translate(3714.139 -269.514)" fill="#fff"/>
          </g>
          <path id="Path_5587" data-name="Path 5587" d="M299.793,717.641s-14.951,333.662,66.394,344.207,689.921,4.521,757.707-31.633,70.8-164.2,70.8-164.2l105.446,212.4L290.868,1140.179Z" transform="translate(248.253 612.5)" fill="#d6dce6"/>
        </g>
      </g>
      <g id="Group_2620" data-name="Group 2620" transform="translate(-25.958 -6.336)">
        <g id="Group_2425" data-name="Group 2425" transform="translate(-5207.448 2.924)">
          <line id="Line_143" data-name="Line 143" x2="545.813" transform="translate(6112.25 616.931)" fill="none" stroke="#a9bcd3" stroke-linecap="round" stroke-linejoin="round" stroke-width="3"/>
          <g id="Group_2829" data-name="Group 2829" transform="translate(5218.854 -20.73)">
            <rect id="Rectangle_196" data-name="Rectangle 196" width="107.668" height="42.787" rx="21.393" transform="translate(1112.897 616.268)" fill="#a9bcd3"/>
            <g id="Group_2828" data-name="Group 2828" transform="translate(1135.232 627.534)">
              <path id="Path_6271" data-name="Path 6271" d="M1143.277,646.77a13.69,13.69,0,0,1-5.068-.784v-1.907a12.849,12.849,0,0,0,2.338.64,14.359,14.359,0,0,0,2.548.222,7.232,7.232,0,0,0,3.37-.614,2.293,2.293,0,0,0,1.124-2.207,2.508,2.508,0,0,0-.457-1.581,3.435,3.435,0,0,0-1.5-.993,22.483,22.483,0,0,0-2.8-.823,8.637,8.637,0,0,1-3.893-1.764,3.862,3.862,0,0,1-1.123-2.913,4.112,4.112,0,0,1,1.542-3.384,7.427,7.427,0,0,1,4.7-1.24,16.579,16.579,0,0,1,2.716.209,12.463,12.463,0,0,1,1.935.445v1.88a11.758,11.758,0,0,0-2.038-.522,13.917,13.917,0,0,0-2.274-.183,6.994,6.994,0,0,0-3.292.627,2.62,2.62,0,0,0-.745,3.566,3.08,3.08,0,0,0,1.372.914,21.591,21.591,0,0,0,2.691.8,11.642,11.642,0,0,1,3.214,1.188,4.083,4.083,0,0,1,1.62,1.633,4.714,4.714,0,0,1,.471,2.143,4.041,4.041,0,0,1-1.62,3.435A8,8,0,0,1,1143.277,646.77Z" transform="translate(-1137.817 -628.898)" fill="#fff"/>
              <path id="Path_6272" data-name="Path 6272" d="M1154.608,646.448v-17.61h2.143V635.4a7.265,7.265,0,0,1,2.026-1.15,7.548,7.548,0,0,1,2.7-.444,3.955,3.955,0,0,1,4.495,4.546v8.1h-2.143v-8.021a2.93,2.93,0,0,0-.718-2.26,3.526,3.526,0,0,0-2.365-.64,5.648,5.648,0,0,0-2.156.457,5.57,5.57,0,0,0-1.842,1.188v9.275Z" transform="translate(-1139.559 -628.838)" fill="#fff"/>
              <path id="Path_6273" data-name="Path 6273" d="M1174.568,647.284a5.533,5.533,0,0,1-2.169-.419,3.7,3.7,0,0,1-1.594-1.24,3.433,3.433,0,0,1-.6-2.078,3.7,3.7,0,0,1,1.124-2.783,5.147,5.147,0,0,1,3.659-1.085h4.311v-.757a3.983,3.983,0,0,0-.274-1.62,1.658,1.658,0,0,0-1.032-.862,7.232,7.232,0,0,0-2.221-.261,12.561,12.561,0,0,0-2.168.183,12.9,12.9,0,0,0-1.96.5v-1.776a10.906,10.906,0,0,1,1.973-.51,14.467,14.467,0,0,1,2.443-.2,6.187,6.187,0,0,1,3.958,1.071,4.223,4.223,0,0,1,1.32,3.475v8.1h-1.8l-.157-1.411a5.109,5.109,0,0,1-1.959,1.254A8.4,8.4,0,0,1,1174.568,647.284Zm.549-1.75a5.662,5.662,0,0,0,2.4-.484,5.252,5.252,0,0,0,1.777-1.319v-2.4h-4.259a3.162,3.162,0,0,0-2.09.549,2.109,2.109,0,0,0-.628,1.672,1.635,1.635,0,0,0,.758,1.555A4.128,4.128,0,0,0,1175.116,645.534Z" transform="translate(-1141.177 -629.413)" fill="#fff"/>
              <path id="Path_6274" data-name="Path 6274" d="M1186.558,647.022V634.638h1.934l.156,1.568a12.143,12.143,0,0,1,2.156-1.1,13.618,13.618,0,0,1,2.442-.731v1.672q-.731.157-1.594.431t-1.646.615a7.448,7.448,0,0,0-1.307.705v9.223Z" transform="translate(-1142.873 -629.413)" fill="#fff"/>
              <path id="Path_6275" data-name="Path 6275" d="M1202.09,647.284a6.885,6.885,0,0,1-4.965-1.594,6.559,6.559,0,0,1-1.645-4.912,7.119,7.119,0,0,1,1.422-4.69,5.54,5.54,0,0,1,4.508-1.711,6.12,6.12,0,0,1,3.018.666,4.285,4.285,0,0,1,1.776,1.828,5.735,5.735,0,0,1,.589,2.626v2.326h-9.172a4.824,4.824,0,0,0,.614,2.221,2.824,2.824,0,0,0,1.541,1.162,8.67,8.67,0,0,0,2.731.353,9.151,9.151,0,0,0,3.5-.653v1.672a8.8,8.8,0,0,1-1.817.522A11.831,11.831,0,0,1,1202.09,647.284Zm-4.468-7h7.263v-1.019a3.227,3.227,0,0,0-.8-2.338,3.543,3.543,0,0,0-2.626-.823,3.656,3.656,0,0,0-3.031,1.045A5.073,5.073,0,0,0,1197.622,640.282Z" transform="translate(-1143.799 -629.413)" fill="#fff"/>
            </g>
          </g>
        </g>
        <g id="Group_2827" data-name="Group 2827" transform="translate(5.421 -5.993)">
          <g id="Group_2807" data-name="Group 2807" transform="translate(61.044 7.696)">
            <path id="Path_6173" data-name="Path 6173" d="M984.3,398.737a11.126,11.126,0,0,1-4.234-.764,6.46,6.46,0,0,1-2.985-2.406,7.5,7.5,0,0,1-1.111-4.281,7.023,7.023,0,0,1,2.36-5.576q2.36-2.059,7.218-2.059h8.191v-1.943a7.48,7.48,0,0,0-.624-3.355,3.619,3.619,0,0,0-2.152-1.759,13.442,13.442,0,0,0-4.256-.533,29.888,29.888,0,0,0-4.1.278,21.019,21.019,0,0,0-3.911.925v-3.146a23.547,23.547,0,0,1,4.049-.949,31.071,31.071,0,0,1,4.651-.346,20.994,20.994,0,0,1,2.268.115,14.848,14.848,0,0,1,1.99.347h7.959l-.186,3.1H996.1a6.627,6.627,0,0,1,1.111,2.452,13.979,13.979,0,0,1,.324,3.147v16.288h-3.794V386.8h-7.959a8.141,8.141,0,0,0-4.627,1.041,3.917,3.917,0,0,0-1.481,3.447,3.708,3.708,0,0,0,1.342,3.286,7.74,7.74,0,0,0,4.3.925,11.9,11.9,0,0,0,3.146-.37v3.146q-.788.185-1.851.324A18.078,18.078,0,0,1,984.3,398.737Z" transform="translate(-24.042 -12.586)"/>
            <path id="Path_6174" data-name="Path 6174" d="M997.751,416.365V410.3H994.7l.186-2.591h6.154v8.653Z" transform="translate(-27.542 -19.108)"/>
            <path id="Path_6175" data-name="Path 6175" d="M1018.123,398.737a9.89,9.89,0,0,1-5.136-1.342,9.033,9.033,0,0,1-3.564-4.142,17.333,17.333,0,0,1-1.3-7.242q0-6.109,3.055-9.648t9.439-3.54a13.464,13.464,0,0,1,6.595,1.411,8.811,8.811,0,0,1,3.678,3.679,10.552,10.552,0,0,1,1.157,4.859v15.5h-3.795V382.819a7.869,7.869,0,0,0-.74-3.471,5.324,5.324,0,0,0-2.43-2.406,9.947,9.947,0,0,0-4.557-.88q-4.628,0-6.617,2.592t-1.99,7.357q0,5.275,1.735,7.381a6.24,6.24,0,0,0,5.113,2.1,15.914,15.914,0,0,0,1.735-.093,7.854,7.854,0,0,0,1.458-.277v3.146A13.479,13.479,0,0,1,1018.123,398.737Z" transform="translate(-30.054 -12.586)"/>
            <path id="Path_6176" data-name="Path 6176" d="M1044.041,398.274V373.287h3.424l.231,3.007a14.536,14.536,0,0,1,3.956-2.521,13.068,13.068,0,0,1,5.206-.949,8.038,8.038,0,0,1,6.155,2.313q2.175,2.315,2.175,6.617v16.519h-3.795V381.8q0-3.054-1.434-4.4a6.329,6.329,0,0,0-4.443-1.342,9.267,9.267,0,0,0-4.325,1,12.866,12.866,0,0,0-3.355,2.476v18.741Z" transform="translate(-36.768 -12.586)"/>
            <path id="Path_6177" data-name="Path 6177" d="M1057.144,366.586v-4.35h-3.655v-2.73h6.386v4.35h10.135l-.186,2.73Z" transform="translate(-38.534 -10.096)"/>
            <path id="Path_6178" data-name="Path 6178" d="M1086.049,398.274v-16.15a11.8,11.8,0,0,0-.416-3.424,3.234,3.234,0,0,0-1.689-1.99,8.877,8.877,0,0,0-3.864-.648,17.637,17.637,0,0,0-3.216.324,17.894,17.894,0,0,0-3.171.879v-3.146a18.452,18.452,0,0,1,3.286-.925,19.808,19.808,0,0,1,3.794-.37q4.766,0,6.918,2.1t2.152,6.779v16.566Z" transform="translate(-42.311 -12.586)"/>
            <path id="Path_6179" data-name="Path 6179" d="M1109.919,398.737a15.267,15.267,0,0,1-8.029-1.829,6.261,6.261,0,0,1-2.985-5.76,6.519,6.519,0,0,1,1-3.679,5.977,5.977,0,0,1,2.8-2.245,5.316,5.316,0,0,1-2.615-1.85,5.659,5.659,0,0,1-1.041-3.563,6.447,6.447,0,0,1,2.082-5.252,8.03,8.03,0,0,1,5.321-1.735,14.965,14.965,0,0,1,2.175.138,11.159,11.159,0,0,1,1.666.371v3.146a5.843,5.843,0,0,0-1.434-.324,15.7,15.7,0,0,0-1.712-.093,4.972,4.972,0,0,0-3.17.9,4.061,4.061,0,0,0,.209,5.831,5.963,5.963,0,0,0,3.516.948h2.637l.232,2.869h-3.007a5.034,5.034,0,0,0-3.656,1.18,4.484,4.484,0,0,0-1.2,3.355q0,4.35,7.08,4.349a8.722,8.722,0,0,0,5.345-1.364,5.162,5.162,0,0,0,1.781-4.373V373.287h3.794v15.825q0,4.675-2.592,7.15T1109.919,398.737Z" transform="translate(-47.025 -12.586)"/>
            <path id="Path_6180" data-name="Path 6180" d="M1141.706,398.737q-4.906,0-7.52-2.338a8.5,8.5,0,0,1-2.614-6.686v-3.377a5.65,5.65,0,0,1,.647-2.637,14.664,14.664,0,0,1,1.527-2.36q.879-1.111,1.527-2.082a3.306,3.306,0,0,0,.648-1.8q0-.787-.346-1a2.436,2.436,0,0,0-1.181-.208h-3.331l.323-2.961h5.136q3.194,0,3.194,3.146a6.056,6.056,0,0,1-.648,2.823,16.651,16.651,0,0,1-1.528,2.406,20.085,20.085,0,0,0-1.527,2.314,5.023,5.023,0,0,0-.647,2.5v3.655a4.755,4.755,0,0,0,1.712,4.119,7.693,7.693,0,0,0,4.627,1.249,7.893,7.893,0,0,0,4.7-1.249q1.735-1.25,1.735-4.212v-3.192a5.521,5.521,0,0,0-.833-3.54,3.949,3.949,0,0,0-3.054-.949h-1.3l.185-3.008h1.018q2.361,0,3.169-1.11a5.742,5.742,0,0,0,.81-3.378v-2.036h3.795v1.99a9.582,9.582,0,0,1-.647,3.771,4.344,4.344,0,0,1-2.777,2.245,4.389,4.389,0,0,1,2.846,2.36,10.635,10.635,0,0,1,.579,3.747v2.73a8.424,8.424,0,0,1-2.707,6.71Q1146.519,398.737,1141.706,398.737Z" transform="translate(-53.037 -12.586)"/>
            <path id="Path_6181" data-name="Path 6181" d="M1152.064,366.49v-7.5h3.794v7.5Z" transform="translate(-56.963 -10)"/>
            <path id="Path_6182" data-name="Path 6182" d="M1169.068,398.737a17.552,17.552,0,0,1-6.987-1.3v-3.193a17.263,17.263,0,0,0,2.938.9,14.866,14.866,0,0,0,3.17.347,11.631,11.631,0,0,0,5.321-.994,5.558,5.558,0,0,0,2.684-3.124,16.48,16.48,0,0,0,.787-5.6q0-5.182-2.036-7.451t-6.895-2.268a14.506,14.506,0,0,0-3.1.324,13.7,13.7,0,0,0-2.868.972v-3.239a14.255,14.255,0,0,1,3.031-.972,18.956,18.956,0,0,1,3.725-.324q6.061,0,9,3.285t2.938,9.671q0,6.2-2.683,9.578T1169.068,398.737Z" transform="translate(-58.836 -12.586)"/>
            <path id="Path_6183" data-name="Path 6183" d="M1200.3,398.737a15.269,15.269,0,0,1-8.029-1.829,6.26,6.26,0,0,1-2.984-5.76,6.512,6.512,0,0,1,.994-3.679,5.984,5.984,0,0,1,2.8-2.245,5.313,5.313,0,0,1-2.614-1.85,5.659,5.659,0,0,1-1.042-3.563,6.445,6.445,0,0,1,2.083-5.252,8.03,8.03,0,0,1,5.321-1.735,14.961,14.961,0,0,1,2.174.138,11.136,11.136,0,0,1,1.666.371v3.146a5.826,5.826,0,0,0-1.433-.324,15.71,15.71,0,0,0-1.712-.093,4.971,4.971,0,0,0-3.17.9,4.062,4.062,0,0,0,.208,5.831,5.96,5.96,0,0,0,3.516.948h2.638l.232,2.869h-3.008a5.032,5.032,0,0,0-3.656,1.18,4.484,4.484,0,0,0-1.2,3.355q0,4.35,7.081,4.349a8.717,8.717,0,0,0,5.343-1.364,5.16,5.16,0,0,0,1.782-4.373V373.287h3.8v15.825q0,4.675-2.592,7.15T1200.3,398.737Z" transform="translate(-63.922 -12.586)"/>
            <path id="Path_6184" data-name="Path 6184" d="M1222.923,398.274V388.14a6.367,6.367,0,0,1,.88-3.355,4.8,4.8,0,0,1,2.868-2.059l-5.229-1.2v-4.442a17.421,17.421,0,0,1,4.7-2.938,16.765,16.765,0,0,1,6.918-1.319q5.459,0,8.213,2.29t2.754,7.242v15.918h-3.794V382.217q0-3.47-1.619-4.812t-5.553-1.342a15.8,15.8,0,0,0-4.836.718,8.415,8.415,0,0,0-3.447,1.92v.972l5.413,1.3v2.868a5.034,5.034,0,0,0-2.614,1.458,4.39,4.39,0,0,0-.855,2.938v10.041Z" transform="translate(-69.934 -12.586)"/>
            <path id="Path_6185" data-name="Path 6185" d="M1264.561,398.737a9.892,9.892,0,0,1-5.136-1.342,9.041,9.041,0,0,1-3.563-4.142,17.343,17.343,0,0,1-1.3-7.242q0-6.109,3.055-9.648t9.44-3.54a13.459,13.459,0,0,1,6.594,1.411,8.812,8.812,0,0,1,3.678,3.679,10.539,10.539,0,0,1,1.157,4.859v15.5h-3.795V382.819a7.857,7.857,0,0,0-.74-3.471,5.318,5.318,0,0,0-2.429-2.406,9.949,9.949,0,0,0-4.558-.88q-4.628,0-6.617,2.592t-1.99,7.357q0,5.275,1.735,7.381a6.241,6.241,0,0,0,5.113,2.1,15.9,15.9,0,0,0,1.735-.093,7.844,7.844,0,0,0,1.458-.277v3.146A13.476,13.476,0,0,1,1264.561,398.737Z" transform="translate(-76.126 -12.586)"/>
            <path id="Path_6186" data-name="Path 6186" d="M1294.736,398.38a4.041,4.041,0,0,1-3.124-1.226,4.543,4.543,0,0,1-1.133-3.216V373.393h3.794v19.62q0,2.268,2.174,2.268h2.175v3.1Zm10.6,0a4.041,4.041,0,0,1-3.124-1.226,4.547,4.547,0,0,1-1.133-3.216V373.393h3.794v19.62q0,2.268,2.176,2.268h2.173v3.1Z" transform="translate(-82.841 -12.692)"/>
            <path id="Path_6187" data-name="Path 6187" d="M1328.384,398.737q-4.906,0-7.52-2.338a8.5,8.5,0,0,1-2.615-6.686v-3.377a5.649,5.649,0,0,1,.648-2.637,14.564,14.564,0,0,1,1.527-2.36q.879-1.111,1.527-2.082a3.312,3.312,0,0,0,.648-1.8q0-.787-.346-1a2.435,2.435,0,0,0-1.181-.208h-3.332l.324-2.961h5.136q3.193,0,3.193,3.146a6.056,6.056,0,0,1-.648,2.823,16.651,16.651,0,0,1-1.528,2.406,19.863,19.863,0,0,0-1.527,2.314,5.024,5.024,0,0,0-.648,2.5v3.655a4.754,4.754,0,0,0,1.713,4.119,7.691,7.691,0,0,0,4.627,1.249,7.888,7.888,0,0,0,4.7-1.249q1.735-1.25,1.735-4.212v-3.192a5.527,5.527,0,0,0-.832-3.54,3.95,3.95,0,0,0-3.054-.949h-1.3l.185-3.008h1.018q2.36,0,3.169-1.11a5.741,5.741,0,0,0,.81-3.378v-2.036h3.795v1.99a9.566,9.566,0,0,1-.647,3.771,4.342,4.342,0,0,1-2.777,2.245,4.384,4.384,0,0,1,2.846,2.36,10.618,10.618,0,0,1,.579,3.747v2.73a8.424,8.424,0,0,1-2.707,6.71Q1333.2,398.737,1328.384,398.737Z" transform="translate(-87.937 -12.586)"/>
            <path id="Path_6188" data-name="Path 6188" d="M1357.6,398.737a33.207,33.207,0,0,1-4.512-.3,15.412,15.412,0,0,1-3.677-.9v-3.378a18.047,18.047,0,0,0,3.747,1.018,23.605,23.605,0,0,0,3.795.324,14.476,14.476,0,0,0,5.067-.671,2.811,2.811,0,0,0,1.69-2.938,3.2,3.2,0,0,0-.856-2.429,6.575,6.575,0,0,0-2.429-1.342q-1.574-.532-3.794-1.272a36.142,36.142,0,0,1-3.841-1.551,8.353,8.353,0,0,1-2.915-2.2,5.334,5.334,0,0,1-1.11-3.516,5.789,5.789,0,0,1,2.429-5.021q2.429-1.735,7.242-1.735a25.077,25.077,0,0,1,4.026.324,20.6,20.6,0,0,1,3.331.787v3.331a16.6,16.6,0,0,0-3.307-.9,20.948,20.948,0,0,0-3.494-.3,13.222,13.222,0,0,0-4.79.672,2.669,2.669,0,0,0-1.643,2.753,2.82,2.82,0,0,0,.856,2.152,7.023,7.023,0,0,0,2.453,1.388q1.6.579,3.864,1.319a27.674,27.674,0,0,1,4.025,1.642,7.663,7.663,0,0,1,2.754,2.268,5.955,5.955,0,0,1,1,3.586q0,3.748-2.731,5.322A14.283,14.283,0,0,1,1357.6,398.737Z" transform="translate(-93.736 -12.586)"/>
            <path id="Path_6189" data-name="Path 6189" d="M1358.263,366.788v-6.2h13l-.139,2.73h-9.671v3.471Z" transform="translate(-95.513 -10.298)"/>
            <path id="Path_6190" data-name="Path 6190" d="M851.632,466.677a4.04,4.04,0,0,1-3.123-1.226,4.545,4.545,0,0,1-1.134-3.216V441.69h3.794v19.62q0,2.267,2.175,2.268h2.637v3.1Z" transform="translate(0 -11.987)"/>
            <path id="Path_6191" data-name="Path 6191" d="M867.342,466.677,861.6,441.69h3.886l4.119,19.666,5.276-16.519V441.69h2.821l5.646,19.666,4.073-19.666h3.84l-5.691,24.987h-3.794l-5.136-17.584-5.553,17.584Z" transform="translate(-2.66 -11.987)"/>
            <path id="Path_6192" data-name="Path 6192" d="M871.962,434.979l.185-2.73h9.486v-3.934h2.87v3.934h2.961v-3.934h2.869v6.664Z" transform="translate(-4.597 -9.486)"/>
            <path id="Path_6193" data-name="Path 6193" d="M890.573,424.047v-6.432h3.193v6.432Z" transform="translate(-8.076 -7.486)"/>
            <path id="Path_6194" data-name="Path 6194" d="M911.306,467.033a25.767,25.767,0,0,1-5.368-.532,25.4,25.4,0,0,1-4.211-1.227V452.689h9.162l.185,3.1h-5.552v7.08a16.794,16.794,0,0,0,2.707.671,17.822,17.822,0,0,0,2.985.254,10.443,10.443,0,0,0,4.789-.925,5.465,5.465,0,0,0,2.592-3.054,16.4,16.4,0,0,0,.81-5.692,16.044,16.044,0,0,0-.857-5.83,5.388,5.388,0,0,0-2.868-3.031,13.66,13.66,0,0,0-5.483-.9,31.269,31.269,0,0,0-4.1.278,20.855,20.855,0,0,0-4,.925v-3.147a21.732,21.732,0,0,1,4.235-.972,35.912,35.912,0,0,1,4.835-.324q6.386,0,9.208,3.263t2.822,9.74q0,6.341-2.822,9.625T911.306,467.033Z" transform="translate(-10.162 -11.88)"/>
            <path id="Path_6195" data-name="Path 6195" d="M936.4,463.943a4.039,4.039,0,0,1-3.122-1.226,4.545,4.545,0,0,1-1.134-3.216V443.443a8.352,8.352,0,0,1,.6-3.331,9.307,9.307,0,0,1,1.458-2.384,21.843,21.843,0,0,1,1.736-1.8,12.54,12.54,0,0,0,1.481-1.6,2.754,2.754,0,0,0,.6-1.712,1.991,1.991,0,0,0-.879-1.943,5.471,5.471,0,0,0-2.5-.463,10.547,10.547,0,0,0-5.136,1.434v-2.962a11.334,11.334,0,0,1,3.031-1.2,13.626,13.626,0,0,1,3.262-.416,6.53,6.53,0,0,1,4.6,1.411,5.042,5.042,0,0,1,1.5,3.864,4.738,4.738,0,0,1-.6,2.452,8.484,8.484,0,0,1-1.481,1.851q-.879.833-1.781,1.759a8.406,8.406,0,0,0-1.5,2.129,6.569,6.569,0,0,0-.6,2.961v15.085q0,2.267,2.175,2.268h2.638v3.1Z" transform="translate(-15.354 -9.252)"/>
            <path id="Path_6196" data-name="Path 6196" d="M948.4,466.677V441.69h3.794v8.1h8.283q3.055,0,4.211-1.3a5.45,5.45,0,0,0,1.158-3.748V441.69h3.794V444.7a9.1,9.1,0,0,1-.88,4.118,4.88,4.88,0,0,1-3.1,2.453,4.46,4.46,0,0,1,3.007,2.406,10.025,10.025,0,0,1,.7,3.887v9.116h-3.794v-8.653q0-2.961-1.134-4.049t-4.187-1.087h-8.052v13.789Z" transform="translate(-18.887 -11.987)"/>
            <path id="Path_6197" data-name="Path 6197" d="M961.273,434.883v-4.351h-3.656V427.8H964v4.35h10.134l-.185,2.73Z" transform="translate(-20.61 -9.391)"/>
            <path id="Path_6198" data-name="Path 6198" d="M980.667,466.571v-16.2a8.84,8.84,0,0,1,2.616-6.848q2.612-2.4,8.212-2.407t8.167,2.407a8.925,8.925,0,0,1,2.568,6.848v16.2h-3.794V449.959a4.963,4.963,0,0,0-1.782-4.3,8.7,8.7,0,0,0-5.16-1.3,8.88,8.88,0,0,0-5.251,1.3,4.961,4.961,0,0,0-1.781,4.3v5.784a7.876,7.876,0,0,1,5.368-1.9h3.053l.186,3.1h-3.332a7.875,7.875,0,0,0-5.275,1.8v7.821Z" transform="translate(-24.92 -11.88)"/>
            <path id="Path_6199" data-name="Path 6199" d="M1022.008,467.14a8.023,8.023,0,0,1-6.178-2.313q-2.151-2.314-2.151-6.664V441.69h3.795v16.427q0,3.1,1.388,4.442a6.141,6.141,0,0,0,4.4,1.342,9.783,9.783,0,0,0,4.351-.972,12.124,12.124,0,0,0,3.424-2.452V441.69h3.794v24.987H1031.4l-.232-3.007a13.721,13.721,0,0,1-3.933,2.521A13.246,13.246,0,0,1,1022.008,467.14Z" transform="translate(-31.091 -11.987)"/>
            <path id="Path_6200" data-name="Path 6200" d="M1046.175,466.571V441.583h3.425l.23,3.007a14.523,14.523,0,0,1,3.957-2.522,13.078,13.078,0,0,1,5.205-.949,8.042,8.042,0,0,1,6.156,2.314q2.173,2.315,2.174,6.617v16.519h-3.794V450.1q0-3.054-1.435-4.4a6.327,6.327,0,0,0-4.443-1.342,9.268,9.268,0,0,0-4.326,1,12.877,12.877,0,0,0-3.354,2.476v18.741Z" transform="translate(-37.167 -11.88)"/>
            <path id="Path_6201" data-name="Path 6201" d="M1049.477,434.979l.184-2.73h14.993v-3.934h3.192v6.664Z" transform="translate(-37.784 -9.486)"/>
            <path id="Path_6202" data-name="Path 6202" d="M1068.087,424.047v-6.432h3.194v6.432Z" transform="translate(-41.263 -7.486)"/>
            <path id="Path_6203" data-name="Path 6203" d="M1078.673,466.571v-16.2a8.84,8.84,0,0,1,2.616-6.848q2.612-2.4,8.212-2.407t8.167,2.407a8.925,8.925,0,0,1,2.568,6.848v16.2h-3.795V449.959a4.963,4.963,0,0,0-1.781-4.3,8.7,8.7,0,0,0-5.16-1.3,8.88,8.88,0,0,0-5.251,1.3,4.961,4.961,0,0,0-1.781,4.3v5.784a7.875,7.875,0,0,1,5.367-1.9h3.054l.186,3.1h-3.332a7.875,7.875,0,0,0-5.275,1.8v7.821Z" transform="translate(-43.242 -11.88)"/>
            <path id="Path_6204" data-name="Path 6204" d="M1100.395,484.662V478.6h-3.054l.185-2.591h6.155v8.653Z" transform="translate(-46.732 -18.403)"/>
            <path id="Path_6205" data-name="Path 6205" d="M1136.875,467.033a7.687,7.687,0,0,1-5.992-2.313q-2.108-2.314-2.1-6.664v-7.543q0-3.471-1.528-4.812t-5.368-1.342a14.62,14.62,0,0,0-4.651.718,8.435,8.435,0,0,0-3.355,1.92v.972l5.414,1.3v2.868a5.031,5.031,0,0,0-2.615,1.458,4.395,4.395,0,0,0-.856,2.938V461.2q0,2.267,2.175,2.268h2.638v3.1h-4.349a4.04,4.04,0,0,1-3.124-1.226,4.548,4.548,0,0,1-1.134-3.216v-5.691a6.368,6.368,0,0,1,.88-3.355,4.8,4.8,0,0,1,2.869-2.059l-5.229-1.2v-4.442a17.805,17.805,0,0,1,4.6-2.939,15.894,15.894,0,0,1,6.733-1.319q5.367,0,8.005,2.291t2.637,7.242v7.357q0,3.1,1.365,4.442a5.83,5.83,0,0,0,4.234,1.342,8.689,8.689,0,0,0,4.142-.972,13.005,13.005,0,0,0,3.261-2.452V441.583h3.8v24.987H1145.9l-.231-3.007a14.542,14.542,0,0,1-3.771,2.521A11.961,11.961,0,0,1,1136.875,467.033Z" transform="translate(-49.201 -11.88)"/>
            <path id="Path_6206" data-name="Path 6206" d="M1168.985,466.677a4.041,4.041,0,0,1-3.124-1.226,4.544,4.544,0,0,1-1.133-3.216V441.69h3.794v19.62q0,2.267,2.175,2.268h2.175v3.1Zm10.6,0a4.04,4.04,0,0,1-3.124-1.226,4.547,4.547,0,0,1-1.133-3.216V441.69h3.794v19.62q0,2.267,2.176,2.268h2.174v3.1Z" transform="translate(-59.331 -11.987)"/>
            <path id="Path_6207" data-name="Path 6207" d="M1193.127,466.571v-16.2a8.84,8.84,0,0,1,2.615-6.848q2.612-2.4,8.213-2.407t8.168,2.407a8.925,8.925,0,0,1,2.568,6.848v16.2h-3.8V449.959a4.965,4.965,0,0,0-1.781-4.3,8.7,8.7,0,0,0-5.16-1.3,8.882,8.882,0,0,0-5.251,1.3,4.963,4.963,0,0,0-1.781,4.3v5.784a7.877,7.877,0,0,1,5.368-1.9h3.054l.185,3.1H1202.2a7.877,7.877,0,0,0-5.275,1.8v7.821Z" transform="translate(-64.64 -11.88)"/>
            <path id="Path_6208" data-name="Path 6208" d="M1233.838,467.033a33.335,33.335,0,0,1-4.512-.3,15.441,15.441,0,0,1-3.678-.9v-3.378a18.059,18.059,0,0,0,3.747,1.018,23.6,23.6,0,0,0,3.8.324,14.48,14.48,0,0,0,5.067-.671,2.81,2.81,0,0,0,1.689-2.938,3.2,3.2,0,0,0-.856-2.429,6.575,6.575,0,0,0-2.429-1.342q-1.573-.531-3.794-1.272a36.455,36.455,0,0,1-3.842-1.55,8.366,8.366,0,0,1-2.916-2.2,5.335,5.335,0,0,1-1.11-3.516,5.788,5.788,0,0,1,2.429-5.021q2.43-1.735,7.242-1.736a25.069,25.069,0,0,1,4.026.324,20.575,20.575,0,0,1,3.331.787v3.331a16.6,16.6,0,0,0-3.308-.9,21.026,21.026,0,0,0-3.494-.3,13.239,13.239,0,0,0-4.789.671,2.67,2.67,0,0,0-1.643,2.754,2.823,2.823,0,0,0,.856,2.152,7.027,7.027,0,0,0,2.452,1.388q1.6.579,3.864,1.319a27.649,27.649,0,0,1,4.026,1.642,7.661,7.661,0,0,1,2.753,2.268,5.944,5.944,0,0,1,1,3.586q0,3.748-2.731,5.321A14.285,14.285,0,0,1,1233.838,467.033Z" transform="translate(-70.599 -11.88)"/>
            <path id="Path_6209" data-name="Path 6209" d="M1234.5,435.085v-6.2h13l-.14,2.73h-9.67v3.471Z" transform="translate(-72.376 -9.593)"/>
            <path id="Path_6210" data-name="Path 6210" d="M1253.4,466.677V441.69h3.794v8.1h8.283q3.055,0,4.212-1.3a5.454,5.454,0,0,0,1.157-3.748V441.69h3.794V444.7a9.094,9.094,0,0,1-.881,4.118,4.878,4.878,0,0,1-3.1,2.453,4.462,4.462,0,0,1,3.007,2.406,10.039,10.039,0,0,1,.694,3.887v9.116h-3.794v-8.653q0-2.961-1.134-4.049t-4.188-1.087h-8.052v13.789Z" transform="translate(-75.908 -11.987)"/>
            <path id="Path_6211" data-name="Path 6211" d="M1274.514,434.787v-7.5h3.795v7.5Z" transform="translate(-79.856 -9.295)"/>
            <path id="Path_6212" data-name="Path 6212" d="M1295.179,466.571v-16.15a11.772,11.772,0,0,0-.417-3.425,3.232,3.232,0,0,0-1.689-1.99,8.865,8.865,0,0,0-3.864-.648,17.656,17.656,0,0,0-3.216.324,17.919,17.919,0,0,0-3.17.879v-3.147a18.456,18.456,0,0,1,3.286-.925,19.808,19.808,0,0,1,3.794-.371q4.766,0,6.918,2.106t2.152,6.779v16.566Z" transform="translate(-81.409 -11.88)"/>
            <path id="Path_6213" data-name="Path 6213" d="M1317.719,467.14q-.879,0-2.059-.093a7.135,7.135,0,0,1-2.012-.416l-7.034-17.121h3.7l5.923,14.391q4.4.324,6.5-2.267t2.106-8.283a17.369,17.369,0,0,0-.6-5.113,4.423,4.423,0,0,0-2.013-2.66,8.2,8.2,0,0,0-3.956-.787h-1.62v-3.1h2.036q5.321,0,7.634,2.846t2.314,8.769a18.577,18.577,0,0,1-1.457,7.959,9.837,9.837,0,0,1-3.91,4.466A10.937,10.937,0,0,1,1317.719,467.14Z" transform="translate(-85.857 -11.987)"/>
            <path id="Path_6214" data-name="Path 6214" d="M1343.3,463.975a4.042,4.042,0,0,1-3.124-1.226,4.544,4.544,0,0,1-1.133-3.216V438.2a9.508,9.508,0,0,1,1.133-4.859,8.739,8.739,0,0,1,2.892-3.054h-8.283v-3.054h12.957v3.007a7.15,7.15,0,0,0-3.864,3.355,13.622,13.622,0,0,0-1.042,5.854v19.157q0,2.267,2.175,2.268h2.638v3.1Z" transform="translate(-91.124 -9.284)"/>
            <path id="Path_6215" data-name="Path 6215" d="M1354.707,466.571V456.437a6.358,6.358,0,0,1,.879-3.355,4.8,4.8,0,0,1,2.868-2.059l-5.229-1.2v-4.442a17.427,17.427,0,0,1,4.7-2.939,16.776,16.776,0,0,1,6.917-1.319q5.46,0,8.214,2.291t2.753,7.242v15.918h-3.795V450.514q0-3.471-1.62-4.812t-5.553-1.342a15.794,15.794,0,0,0-4.835.718,8.43,8.43,0,0,0-3.448,1.92v.972l5.415,1.3v2.868a5.03,5.03,0,0,0-2.615,1.458,4.39,4.39,0,0,0-.856,2.938v10.041Z" transform="translate(-94.572 -11.88)"/>
            <path id="Path_6216" data-name="Path 6216" d="M1394.68,467.033a11.131,11.131,0,0,1-4.234-.763,6.457,6.457,0,0,1-2.985-2.406,7.507,7.507,0,0,1-1.11-4.281,7.02,7.02,0,0,1,2.359-5.576q2.361-2.059,7.219-2.059h8.19V450a7.49,7.49,0,0,0-.625-3.355,3.619,3.619,0,0,0-2.152-1.759,13.45,13.45,0,0,0-4.257-.533,29.9,29.9,0,0,0-4.1.278,20.991,20.991,0,0,0-3.91.925v-3.147a23.433,23.433,0,0,1,4.05-.949,31.035,31.035,0,0,1,4.649-.347q5.276,0,7.705,2.2t2.429,6.964v16.289h-3.794V455.095h-7.959a8.14,8.14,0,0,0-4.627,1.042,3.917,3.917,0,0,0-1.482,3.447,3.706,3.706,0,0,0,1.342,3.286,7.738,7.738,0,0,0,4.3.925,11.89,11.89,0,0,0,3.146-.37v3.146q-.788.185-1.851.324A18.069,18.069,0,0,1,1394.68,467.033Z" transform="translate(-100.765 -11.88)"/>
            <path id="Path_6217" data-name="Path 6217" d="M1428.587,467.033a14.15,14.15,0,0,1-1.828-.138,8.5,8.5,0,0,1-1.688-.371l-3.888-10.366h-2.961l.184-3.1h5.229l4.026,10.735a8,8,0,0,0,4.119-.717,6.883,6.883,0,0,0,3.146-3.17,13.1,13.1,0,0,0,1.2-6.108,13.852,13.852,0,0,0-.926-5.553,5.637,5.637,0,0,0-3.007-2.985,14.475,14.475,0,0,0-5.645-.9,29.247,29.247,0,0,0-3.91.278,20.909,20.909,0,0,0-3.956.925v-3.147a23.44,23.44,0,0,1,4.049-.949,32.344,32.344,0,0,1,4.835-.347q6.431,0,9.395,3.286t2.96,9.394a15.3,15.3,0,0,1-1.573,7.288,10.779,10.779,0,0,1-9.765,5.946Z" transform="translate(-106.723 -11.88)"/>
            <path id="Path_6218" data-name="Path 6218" d="M1459.773,466.571v-16.15a11.809,11.809,0,0,0-.415-3.425,3.236,3.236,0,0,0-1.69-1.99,8.856,8.856,0,0,0-3.863-.648,17.65,17.65,0,0,0-3.216.324,17.908,17.908,0,0,0-3.169.879v-3.147a18.414,18.414,0,0,1,3.286-.925,19.794,19.794,0,0,1,3.794-.371q4.766,0,6.919,2.106t2.151,6.779v16.566Z" transform="translate(-112.181 -11.88)"/>
            <path id="Path_6219" data-name="Path 6219" d="M1474.112,466.571V456.437a6.376,6.376,0,0,1,.88-3.355,4.8,4.8,0,0,1,2.869-2.059l-5.229-1.2v-4.442a17.424,17.424,0,0,1,4.7-2.939,16.779,16.779,0,0,1,6.918-1.319q5.46,0,8.213,2.291t2.753,7.242v15.918h-3.794V450.514q0-3.471-1.619-4.812t-5.553-1.342a15.8,15.8,0,0,0-4.835.718,8.41,8.41,0,0,0-3.447,1.92v.972l5.413,1.3v2.868a5.028,5.028,0,0,0-2.614,1.458,4.39,4.39,0,0,0-.856,2.938v10.041Z" transform="translate(-116.895 -11.88)"/>
          </g>
          <g id="Group_2825" data-name="Group 2825">
            <g id="Group_2808" data-name="Group 2808">
              <path id="Path_6220" data-name="Path 6220" d="M842.188,522.407V506.364h9.1l-1.117,16.043Zm13.807,0V506.364h9.1l-1.117,16.043Z" fill="#fff"/>
              <path id="Path_6221" data-name="Path 6221" d="M863.978,527.407h-7.983a5,5,0,0,0-5.826,0h-7.981a5,5,0,0,1-5-5V506.364a5,5,0,0,1,5-5h9.1a5.008,5.008,0,0,0,4.709,0h9.1a5,5,0,0,1,4.988,5.347l-1.117,16.043A5,5,0,0,1,863.978,527.407Z" fill="#fff"/>
            </g>
            <g id="Group_2809" data-name="Group 2809">
              <path id="Path_6222" data-name="Path 6222" d="M895.424,558.563a22.685,22.685,0,0,1-8.062-1.357,23.39,23.39,0,0,1-6.464-3.672l-.479,4.23h-9.9V542.44a12.2,12.2,0,0,1,1.356-5.507,38.994,38.994,0,0,1,3.153-5.228q1.8-2.514,3.153-4.509a6.365,6.365,0,0,0,1.356-3.273q0-1.515-1.276-1.516a2.545,2.545,0,0,0-1.077.239,3.124,3.124,0,0,0-.918.638v3.273h-6.786V514.665h7.1V516.9a11.457,11.457,0,0,1,2.715-1.6,9.691,9.691,0,0,1,3.75-.638q6.386,0,6.386,6.544a12.478,12.478,0,0,1-1.238,5.508,44.4,44.4,0,0,1-2.833,4.988,48.428,48.428,0,0,0-2.833,4.909A11.438,11.438,0,0,0,881.3,541.8v3.911a13.649,13.649,0,0,0,4.67,3.192,14.477,14.477,0,0,0,5.866,1.277q3.831,0,5.786-1.876t1.956-6.265V514.665h10.775v28.014q0,7.5-3.991,11.693T895.424,558.563Z" fill="#fff"/>
              <path id="Path_6223" data-name="Path 6223" d="M895.424,563.563a27.76,27.76,0,0,1-9.827-1.679q-.8-.3-1.579-.648a4.994,4.994,0,0,1-3.6,1.528h-9.9a5,5,0,0,1-5-5V542.44a17.207,17.207,0,0,1,1.883-7.742q.8-1.6,1.744-3.152a5,5,0,0,1-4.666-4.989V514.665a5,5,0,0,1,5-5h7.1a4.979,4.979,0,0,1,2.236.527,16,16,0,0,1,4.229-.527c7.023,0,11.386,4.423,11.386,11.544A17.472,17.472,0,0,1,892.7,528.9a49.507,49.507,0,0,1-3.151,5.55,43.709,43.709,0,0,0-2.543,4.4,6.463,6.463,0,0,0-.71,2.953v1.628a11.194,11.194,0,0,0,1.675.9,9.472,9.472,0,0,0,3.861.857,3.872,3.872,0,0,0,2.325-.484h0a5.437,5.437,0,0,0,.417-2.657V514.665a5,5,0,0,1,5-5h10.775a5,5,0,0,1,5,5v28.014c0,6.306-1.807,11.4-5.369,15.142C906.348,561.631,901.451,563.563,895.424,563.563Zm-19.9-10.8h.435a5,5,0,0,1,2.019-3.287q-.187-.191-.367-.386a5.007,5.007,0,0,1-1.313-3.378V541.8a16.433,16.433,0,0,1,.293-3.1q-.121.234-.239.468a7.216,7.216,0,0,0-.828,3.271Zm29.052-33.1v22.376c0,4.329-1.176,7.652-3.5,9.875a10.9,10.9,0,0,1-.942.8,7.781,7.781,0,0,0,2.6-1.8c1.755-1.844,2.61-4.541,2.61-8.244V519.665Zm-28.3,3.619h0Zm6.862-3.619a6.406,6.406,0,0,1,1.237,2.637,8.444,8.444,0,0,0,.07-1.093,4.062,4.062,0,0,0-.182-1.395A3.615,3.615,0,0,0,883.131,519.665Z" fill="#fff"/>
            </g>
            <g id="Group_2810" data-name="Group 2810">
              <path id="Path_6224" data-name="Path 6224" d="M933.017,557.764v-26.5a11.369,11.369,0,0,0-1.677-6.665q-1.676-2.352-6.7-2.354a28.17,28.17,0,0,0-5.587.6,33.88,33.88,0,0,0-5.269,1.476v-7.9a26.775,26.775,0,0,1,5.907-1.836,34.946,34.946,0,0,1,7.024-.718q9.1,0,13.089,3.871t3.991,12.012v28.014Z" fill="#fff"/>
              <path id="Path_6225" data-name="Path 6225" d="M943.791,562.764H933.017a5,5,0,0,1-5-5v-26.5a7.271,7.271,0,0,0-.669-3.641,6.708,6.708,0,0,0-2.712-.378,23.324,23.324,0,0,0-4.594.5A29.245,29.245,0,0,0,915.553,529a5,5,0,0,1-6.773-4.675v-7.9a5,5,0,0,1,2.887-4.532,31.4,31.4,0,0,1,7.018-2.2,40.129,40.129,0,0,1,8.026-.819c7.486,0,12.906,1.728,16.57,5.282s5.51,8.8,5.51,15.6v28.014A5,5,0,0,1,943.791,562.764Zm-5.774-10h.774V529.75c0-4-.832-6.832-2.474-8.424a7.241,7.241,0,0,0-2.752-1.557,9.28,9.28,0,0,1,1.848,1.932,16.207,16.207,0,0,1,2.6,9.565Z" fill="#fff"/>
            </g>
            <g id="Group_2811" data-name="Group 2811">
              <path id="Path_6226" data-name="Path 6226" d="M967.655,558.563a18.917,18.917,0,0,1-9.257-2.235,15.525,15.525,0,0,1-6.426-6.984q-2.355-4.747-2.354-12.251,0-11.414,4.03-17.32a12.553,12.553,0,0,1,10.9-5.906,10.683,10.683,0,0,1,5.348,1.117,10,10,0,0,1,3.192,2.953,11.186,11.186,0,0,1,4.43-2.953,15.659,15.659,0,0,1,5.787-1.117q5.666,0,8.34,3.432a14.263,14.263,0,0,1,2.674,9.019v31.446H983.539V527.993a9.581,9.581,0,0,0-.759-4.27,2.965,2.965,0,0,0-2.913-1.476,4.073,4.073,0,0,0-2.594.918,4.975,4.975,0,0,0-1.635,2.753h-5.189a9.483,9.483,0,0,0-1.676-2.753,3.373,3.373,0,0,0-2.553-.918q-3.753,0-5.069,4.11a36.049,36.049,0,0,0-1.317,10.736q0,7.263,2.554,10.176a9.044,9.044,0,0,0,7.183,2.913,27.441,27.441,0,0,0,2.993-.16,13.643,13.643,0,0,0,2.515-.478v7.9a15.646,15.646,0,0,1-3.193.838A27.456,27.456,0,0,1,967.655,558.563Z" fill="#fff"/>
              <path id="Path_6227" data-name="Path 6227" d="M967.655,563.563a23.945,23.945,0,0,1-11.663-2.852,20.5,20.5,0,0,1-8.5-9.147c-1.906-3.845-2.873-8.714-2.873-14.471,0-8.719,1.6-15.306,4.9-20.139a17.564,17.564,0,0,1,15.024-8.087,15.31,15.31,0,0,1,7.866,1.8c.37.217.73.447,1.076.691a19.452,19.452,0,0,1,2.191-1.022,20.734,20.734,0,0,1,7.624-1.466c6.7,0,10.377,2.913,12.283,5.357a19.168,19.168,0,0,1,3.731,12.094v31.446a5,5,0,0,1-5,5H983.539a3.595,3.595,0,0,0-6.653-.657,20.754,20.754,0,0,1-4.211,1.114A32.133,32.133,0,0,1,967.655,563.563Zm20.884-10.8h.775V526.318a9.536,9.536,0,0,0-1.618-5.946,3.632,3.632,0,0,0-2.391-1.322,7.469,7.469,0,0,1,1.922,2.387,14.2,14.2,0,0,1,1.312,6.556ZM955.8,527.006a37,37,0,0,0-1.18,10.087c0,4.2.617,7.577,1.833,10.03q.177.359.366.7c-1.331-2.721-1.983-6.264-1.983-10.725A45.537,45.537,0,0,1,955.8,527.006Zm19.281,17.538a5,5,0,0,1,3.46,1.39V529.991a4.992,4.992,0,0,1-2.9.927h-5.189a5,5,0,0,1-4.562-2.954,31.779,31.779,0,0,0-1.053,9.129c0,5.123,1.094,6.629,1.313,6.879.494.564,1.33,1.21,3.424,1.21a22.825,22.825,0,0,0,2.452-.13,8.734,8.734,0,0,0,1.588-.288A5,5,0,0,1,975.079,544.544Z" fill="#fff"/>
            </g>
            <g id="Group_2812" data-name="Group 2812">
              <path id="Path_6228" data-name="Path 6228" d="M1002.136,557.764V544.036a16.117,16.117,0,0,1,1.236-6.5,7.263,7.263,0,0,1,4.909-3.951l-8.141-2.155v-10.3a32.2,32.2,0,0,1,8.74-5.029,32.8,32.8,0,0,1,12.49-2.234,32.316,32.316,0,0,1,11.055,1.676,13.415,13.415,0,0,1,7.023,5.587q2.435,3.91,2.436,10.615v26.019h-10.776V531.506q0-5.029-2.355-7.144t-7.941-2.115a20.027,20.027,0,0,0-6.584,1.037,14.581,14.581,0,0,0-4.83,2.634v1.118l8.86,2.394v6.545q-3.192.8-4.271,2.594a11.109,11.109,0,0,0-1.076,5.547v13.648Z" fill="#fff"/>
              <path id="Path_6229" data-name="Path 6229" d="M1041.884,562.764h-10.776a5,5,0,0,1-5-5V531.506c0-2.213-.457-3.208-.7-3.425a5,5,0,0,0-2.608-.738,4.993,4.993,0,0,1,.456,2.087v6.545a5,5,0,0,1-3.786,4.85,5.074,5.074,0,0,0-1.25.452,9.343,9.343,0,0,0-.311,2.839v13.648a5,5,0,0,1-5,5h-10.775a5,5,0,0,1-5-5V544.036a21.5,21.5,0,0,1,1.393-7.877,5,5,0,0,1-3.389-4.733v-10.3a5,5,0,0,1,1.754-3.8,37.294,37.294,0,0,1,10.094-5.853,37.893,37.893,0,0,1,14.382-2.606,37.413,37.413,0,0,1,12.77,1.979,18.356,18.356,0,0,1,9.552,7.641c2.119,3.4,3.192,7.862,3.192,13.258v26.019A5,5,0,0,1,1041.884,562.764Zm-5.776-10h.776V531.745c0-3.5-.566-6.182-1.681-7.973a8.083,8.083,0,0,0-2.539-2.577c2.287,2.39,3.444,5.853,3.444,10.311Zm-28.972,0h.775v-8.648a20.424,20.424,0,0,1,.587-5.2,1.376,1.376,0,0,0-.544.615,11.269,11.269,0,0,0-.818,4.5Z" fill="#fff"/>
            </g>
            <g id="Group_2813" data-name="Group 2813">
              <path id="Path_6230" data-name="Path 6230" d="M1063.833,558.563a55.925,55.925,0,0,1-8.58-.639,30.486,30.486,0,0,1-6.665-1.676v-8.7a32.441,32.441,0,0,0,6.665,1.956,36.162,36.162,0,0,0,6.584.678,25.639,25.639,0,0,0,7.543-.8,3.173,3.173,0,0,0,2.354-3.272,3.639,3.639,0,0,0-1.237-2.953,11.669,11.669,0,0,0-3.791-1.876q-2.555-.839-6.545-2.2a32.649,32.649,0,0,1-9.138-4.669q-3.313-2.594-3.313-7.7a11.309,11.309,0,0,1,4.47-9.3q4.469-3.551,13.489-3.551a51.081,51.081,0,0,1,7.5.558,37.481,37.481,0,0,1,6.145,1.357v8.62a25.233,25.233,0,0,0-6.026-1.636,40.769,40.769,0,0,0-6.1-.519,22.44,22.44,0,0,0-6.505.838,3.363,3.363,0,0,0-2.753,3.392,2.955,2.955,0,0,0,1.4,2.554,14.923,14.923,0,0,0,3.991,1.756q2.592.8,6.185,2.075a36.943,36.943,0,0,1,7.224,3.193,10.434,10.434,0,0,1,3.991,4.07,12.975,12.975,0,0,1,1.236,5.987q0,6.306-4.828,9.378T1063.833,558.563Z" fill="#fff"/>
              <path id="Path_6231" data-name="Path 6231" d="M1063.833,563.563a61.186,61.186,0,0,1-9.348-.7,34.982,34.982,0,0,1-7.781-1.986,5,5,0,0,1-3.116-4.631v-8.7a5,5,0,0,1,6.942-4.607,27.658,27.658,0,0,0,5.64,1.648,33.246,33.246,0,0,0,6.4.589q-1.785-.6-4.016-1.357a37.255,37.255,0,0,1-10.611-5.467c-2.384-1.865-5.229-5.4-5.229-11.637a16.347,16.347,0,0,1,6.359-13.213c3.928-3.121,9.358-4.637,16.6-4.637a56.331,56.331,0,0,1,8.236.612,41.916,41.916,0,0,1,6.99,1.559,5,5,0,0,1,3.421,4.744v8.62a5,5,0,0,1-6.952,4.6,20.392,20.392,0,0,0-4.832-1.3c-1.374-.21-2.652-.349-3.819-.415q1.17.4,2.459.857a41.122,41.122,0,0,1,8.15,3.634,15.393,15.393,0,0,1,5.832,6.043,17.921,17.921,0,0,1,1.8,8.285c0,5.922-2.47,10.623-7.144,13.6C1075.786,562.266,1070.412,563.563,1063.833,563.563Zm11.592-22.255a9.057,9.057,0,0,1,1.309,4.8,8.657,8.657,0,0,1-.9,3.933,6.122,6.122,0,0,0,1.113-3.933,8.345,8.345,0,0,0-.679-3.693A4.326,4.326,0,0,0,1075.425,541.308Zm-21.987-17.827a6.725,6.725,0,0,0-.728,3.236c0,2.079.573,3.017,1.152,3.558a7.937,7.937,0,0,1-.935-3.8A8.734,8.734,0,0,1,1053.438,523.481Z" fill="#fff"/>
            </g>
            <g id="Group_2814" data-name="Group 2814">
              <path id="Path_6232" data-name="Path 6232" d="M1114.993,557.764q-5.188,0-7.3-2.154t-2.115-6.785V513.787q0-4.867-1.955-7.5a11.927,11.927,0,0,0-5.947-3.991v-7.9h26.1v8.38h-12.531a9.624,9.624,0,0,1,3.831,4.151,14.968,14.968,0,0,1,1.278,6.545v32.564q0,3.351,3.271,3.352h2.714v8.38Z" fill="#fff"/>
              <path id="Path_6233" data-name="Path 6233" d="M1122.336,562.764h-7.343c-4.9,0-8.461-1.194-10.872-3.653-2.352-2.4-3.546-5.858-3.546-10.286V513.787a8.128,8.128,0,0,0-.97-4.524,7.189,7.189,0,0,0-3.543-2.236,5,5,0,0,1-3.389-4.734v-7.9a5,5,0,0,1,5-5h26.1a5,5,0,0,1,5,5v8.38a5,5,0,0,1-5,5h-3.1a22.664,22.664,0,0,1,.676,5.7v30.916h.985a5,5,0,0,1,5,5v8.38A5,5,0,0,1,1122.336,562.764Zm-12.465-54.729a21.876,21.876,0,0,1,.7,5.752v35.038c0,1.909.368,2.961.684,3.283.007.006.664.568,3.141.647a8.154,8.154,0,0,1-3.049-6.723V513.468a10.2,10.2,0,0,0-.779-4.368A4.657,4.657,0,0,0,1109.871,508.035Zm-6.6-8.643a15.806,15.806,0,0,1,3.068,2.4c.023-.115.05-.231.082-.346a4.988,4.988,0,0,1,1.137-2.056Z" fill="#fff"/>
            </g>
            <g id="Group_2815" data-name="Group 2815">
              <path id="Path_6234" data-name="Path 6234" d="M1140.294,558.563a55.935,55.935,0,0,1-8.58-.639,30.5,30.5,0,0,1-6.664-1.676v-8.7a32.431,32.431,0,0,0,6.664,1.956,36.181,36.181,0,0,0,6.585.678,25.631,25.631,0,0,0,7.542-.8,3.172,3.172,0,0,0,2.355-3.272,3.639,3.639,0,0,0-1.237-2.953,11.658,11.658,0,0,0-3.791-1.876q-2.556-.839-6.545-2.2a32.656,32.656,0,0,1-9.139-4.669q-3.313-2.594-3.312-7.7a11.309,11.309,0,0,1,4.47-9.3q4.467-3.551,13.488-3.551a51.094,51.094,0,0,1,7.5.558,37.43,37.43,0,0,1,6.145,1.357v8.62a25.251,25.251,0,0,0-6.025-1.636,40.793,40.793,0,0,0-6.106-.519,22.446,22.446,0,0,0-6.505.838,3.363,3.363,0,0,0-2.754,3.392,2.957,2.957,0,0,0,1.4,2.554,14.964,14.964,0,0,0,3.991,1.756q2.594.8,6.187,2.075a36.988,36.988,0,0,1,7.223,3.193,10.418,10.418,0,0,1,3.99,4.07,12.975,12.975,0,0,1,1.237,5.987q0,6.306-4.829,9.378T1140.294,558.563Z" fill="#fff"/>
              <path id="Path_6235" data-name="Path 6235" d="M1140.294,563.563a61.181,61.181,0,0,1-9.347-.7,34.989,34.989,0,0,1-7.781-1.986,5,5,0,0,1-3.116-4.631v-8.7a5,5,0,0,1,6.942-4.607,27.671,27.671,0,0,0,5.639,1.648,33.253,33.253,0,0,0,6.4.589q-1.783-.6-4.015-1.357a37.276,37.276,0,0,1-10.612-5.467c-2.383-1.865-5.228-5.4-5.228-11.637a16.346,16.346,0,0,1,6.359-13.213c3.926-3.12,9.356-4.637,16.6-4.637a56.352,56.352,0,0,1,8.237.612,41.869,41.869,0,0,1,6.99,1.559,5,5,0,0,1,3.421,4.744v8.62a5,5,0,0,1-6.952,4.6,20.384,20.384,0,0,0-4.831-1.3c-1.374-.21-2.653-.349-3.819-.415q1.17.4,2.459.857a41.2,41.2,0,0,1,8.149,3.634,15.378,15.378,0,0,1,5.832,6.045,17.913,17.913,0,0,1,1.8,8.283c0,5.922-2.471,10.623-7.145,13.6C1152.249,562.266,1146.874,563.563,1140.294,563.563Zm11.594-22.255a9.066,9.066,0,0,1,1.308,4.8,8.673,8.673,0,0,1-.9,3.931,6.127,6.127,0,0,0,1.111-3.931,8.322,8.322,0,0,0-.681-3.693A4.274,4.274,0,0,0,1151.888,541.308ZM1129.9,523.487a6.725,6.725,0,0,0-.725,3.23c0,2.079.573,3.017,1.152,3.558a7.933,7.933,0,0,1-.936-3.8A8.718,8.718,0,0,1,1129.9,523.487Z" fill="#fff"/>
            </g>
            <g id="Group_2816" data-name="Group 2816">
              <path id="Path_6236" data-name="Path 6236" d="M1163.84,557.764V531.027q0-7.822,4.829-12.492t15.523-4.668q10.7,0,15.485,4.668t4.789,12.492v26.737H1193.69V530.228a7.18,7.18,0,0,0-2.513-5.986,10.973,10.973,0,0,0-6.985-1.995q-9.576,0-9.578,7.981v7.743a14.33,14.33,0,0,1,3.393-1.836,11.4,11.4,0,0,1,4.111-.719h5.188l.318,8.54h-5.746a12.33,12.33,0,0,0-3.99.6,12.046,12.046,0,0,0-3.274,1.716v11.493Z" fill="#fff"/>
              <path id="Path_6237" data-name="Path 6237" d="M1204.466,562.764H1193.69a5,5,0,0,1-5-5v-8.923a4.987,4.987,0,0,1-1.066.115h-5.746a7.68,7.68,0,0,0-2.264.294v8.514a5,5,0,0,1-5,5H1163.84a5,5,0,0,1-5-5V531.027c0-6.6,2.138-12.012,6.354-16.087,4.167-4.03,10.56-6.073,19-6.073s14.831,2.048,18.975,6.088c4.18,4.076,6.3,9.483,6.3,16.072v26.737A5,5,0,0,1,1204.466,562.764Zm-5.776-10h.776V531.027c0-3.845-1.073-6.76-3.279-8.911q-.2-.2-.421-.378a12.454,12.454,0,0,1,2.924,8.49Zm-29.85,0h.774v-6.493a5,5,0,0,1,2.034-4.025l.175-.127a5,5,0,0,1-2.209-4.148v-7.743a12.913,12.913,0,0,1,2.473-8.042c-2.186,2.144-3.247,5.037-3.247,8.841Zm13.278-22.348h5.188a4.98,4.98,0,0,1,1.384.2v-.383c0-1.575-.452-1.935-.623-2.069a6.446,6.446,0,0,0-3.875-.912c-4.578,0-4.578,1.316-4.578,2.981v.364A17.594,17.594,0,0,1,1182.118,530.416Z" fill="#fff"/>
            </g>
            <g id="Group_2817" data-name="Group 2817">
              <path id="Path_6238" data-name="Path 6238" d="M1221.546,557.764q-5.188,0-7.3-2.154t-2.115-6.785v-34.16H1222.9v31.367q0,3.351,3.272,3.352h2.714v8.38Z" fill="#fff"/>
              <path id="Path_6239" data-name="Path 6239" d="M1228.889,562.764h-7.343c-4.906,0-8.463-1.2-10.873-3.654-2.352-2.4-3.545-5.857-3.545-10.285v-34.16a5,5,0,0,1,5-5H1222.9a5,5,0,0,1,5,5v29.719h.986a5,5,0,0,1,5,5v8.38A5,5,0,0,1,1228.889,562.764Zm-11.761-43.1v29.16c0,1.909.368,2.961.684,3.283.007.007.668.568,3.141.647a8.152,8.152,0,0,1-3.05-6.723V519.665Z" fill="#fff"/>
            </g>
            <g id="Group_2818" data-name="Group 2818">
              <path id="Path_6240" data-name="Path 6240" d="M1254.908,558.563q-9.5,0-15.005-4.51t-5.507-13.608v-25.78h10.775V540.6q0,9.579,9.737,9.578t9.738-9.578V514.665h10.775v25.78q0,9.1-5.508,13.608T1254.908,558.563Z" fill="#fff"/>
              <path id="Path_6241" data-name="Path 6241" d="M1254.908,563.563c-7.487,0-13.6-1.9-18.173-5.641-4.87-3.987-7.339-9.867-7.339-17.477v-25.78a5,5,0,0,1,5-5h10.775a5,5,0,0,1,5,5V540.6c0,3.594,1.018,4.578,4.737,4.578s4.738-.984,4.738-4.578V514.665a5,5,0,0,1,5-5h10.775a5,5,0,0,1,5,5v25.78c0,7.61-2.47,13.49-7.341,17.477C1268.511,561.665,1262.4,563.563,1254.908,563.563Zm14.738-43.9V540.6a15.26,15.26,0,0,1-2.909,9.587l.008-.006c2.474-2.025,3.676-5.211,3.676-9.74v-20.78Zm-30.25,0v20.78c0,4.529,1.2,7.715,3.674,9.739l.009.007a15.267,15.267,0,0,1-2.908-9.587V519.665Z" fill="#fff"/>
            </g>
            <g id="Group_2819" data-name="Group 2819">
              <path id="Path_6242" data-name="Path 6242" d="M1298.088,557.764v-26.5a11.369,11.369,0,0,0-1.677-6.665q-1.676-2.352-6.7-2.354a28.187,28.187,0,0,0-5.588.6,33.884,33.884,0,0,0-5.267,1.476v-7.9a26.731,26.731,0,0,1,5.906-1.836,34.942,34.942,0,0,1,7.023-.718q9.1,0,13.09,3.871t3.99,12.012v28.014Z" fill="#fff"/>
              <path id="Path_6243" data-name="Path 6243" d="M1308.862,562.764h-10.774a5,5,0,0,1-5-5v-26.5a7.251,7.251,0,0,0-.67-3.641,6.688,6.688,0,0,0-2.71-.378,23.332,23.332,0,0,0-4.595.5,29.227,29.227,0,0,0-4.488,1.251,5,5,0,0,1-6.772-4.675v-7.9a5,5,0,0,1,2.885-4.531,31.405,31.405,0,0,1,7.019-2.2,40.113,40.113,0,0,1,8.025-.819c7.486,0,12.906,1.727,16.571,5.281s5.509,8.8,5.509,15.6v28.014A5,5,0,0,1,1308.862,562.764Zm-5.774-10h.774V529.75c0-4-.832-6.832-2.472-8.424a7.246,7.246,0,0,0-2.753-1.557,9.273,9.273,0,0,1,1.847,1.932,16.207,16.207,0,0,1,2.6,9.565Z" fill="#fff"/>
            </g>
            <g id="Group_2820" data-name="Group 2820">
              <path id="Path_6244" data-name="Path 6244" d="M1316.286,557.764v-43.1h10.775v13.089h10.695q4.15,0,5.706-1.8t1.557-5.467v-5.826h10.775v5.427a17.809,17.809,0,0,1-1.316,7.064,8.152,8.152,0,0,1-4.83,4.429,7.805,7.805,0,0,1,4.589,3.951,14.591,14.591,0,0,1,1.238,6.186v16.042H1344.7V542.919q0-4.071-1.556-5.667t-5.627-1.6h-10.456v22.108Z" fill="#fff"/>
              <path id="Path_6245" data-name="Path 6245" d="M1355.475,562.764H1344.7a5,5,0,0,1-5-5V542.919a8.543,8.543,0,0,0-.2-2.078,8.388,8.388,0,0,0-1.985-.185h-5.456v17.108a5,5,0,0,1-5,5h-10.775a5,5,0,0,1-5-5v-43.1a5,5,0,0,1,5-5h10.775a5,5,0,0,1,5,5v8.089h5.695a6.912,6.912,0,0,0,1.994-.217,5.839,5.839,0,0,0,.269-2.046v-5.826a5,5,0,0,1,5-5h10.775a5,5,0,0,1,5,5v5.427a22.844,22.844,0,0,1-1.72,9.032,12.732,12.732,0,0,1-1.385,2.447,11.613,11.613,0,0,1,1.085,1.864,19.612,19.612,0,0,1,1.7,8.287v16.042A5,5,0,0,1,1355.475,562.764Zm-5.775-10h.775V541.722a9.736,9.736,0,0,0-.777-4.089,2.232,2.232,0,0,0-1.106-1.047,15.938,15.938,0,0,1,1.108,6.333Zm-28.414,0h.775V535.656a4.991,4.991,0,0,1,1.935-3.951,4.99,4.99,0,0,1-1.935-3.951v-8.089h-.775Zm22.422-21.038a10.209,10.209,0,0,1,.979.479,4.9,4.9,0,0,1-.039-.609c0-.106,0-.212.01-.317C1344.355,531.441,1344.037,531.59,1343.708,531.726Zm6.311-12.061v.826a15.515,15.515,0,0,1-1.005,5.808,2.617,2.617,0,0,0,.869-1.115,12.959,12.959,0,0,0,.911-5.092v-.427Z" fill="#fff"/>
            </g>
            <g id="Group_2821" data-name="Group 2821">
              <path id="Path_6246" data-name="Path 6246" d="M1373.752,558.563a34.7,34.7,0,0,1-13.728-2.554v-8.222a33.868,33.868,0,0,0,5.347,1.717,25.294,25.294,0,0,0,5.827.678q7.5,0,10.735-3.113t3.232-10.854q0-7.742-3.232-10.855t-10.735-3.113a26.768,26.768,0,0,0-5.827.639,27.474,27.474,0,0,0-5.347,1.755v-8.22a34.7,34.7,0,0,1,13.728-2.554q10.934,0,16.282,5.706t5.348,16.642q0,10.935-5.348,16.641T1373.752,558.563Z" fill="#fff"/>
              <path id="Path_6247" data-name="Path 6247" d="M1373.752,563.563a39.8,39.8,0,0,1-15.69-2.956,5,5,0,0,1-3.038-4.6v-8.222a5,5,0,0,1,6.937-4.609,28.967,28.967,0,0,0,4.558,1.459,20.352,20.352,0,0,0,4.679.545c4.774,0,6.6-1.074,7.266-1.714.512-.493,1.7-2.185,1.7-7.253s-1.189-6.761-1.7-7.253c-.665-.641-2.493-1.715-7.267-1.715a21.937,21.937,0,0,0-4.744.52,22.513,22.513,0,0,0-4.371,1.431,5,5,0,0,1-7.059-4.557v-8.22a5,5,0,0,1,3.039-4.6,39.806,39.806,0,0,1,15.689-2.955c8.692,0,15.4,2.451,19.93,7.287,4.446,4.746,6.7,11.495,6.7,20.061s-2.254,15.316-6.7,20.06C1389.151,561.111,1382.445,563.563,1373.752,563.563Zm13.746-39.177c1.791,2.943,2.667,6.848,2.667,11.829s-.878,8.891-2.671,11.835c1.917-2.815,2.888-6.786,2.888-11.835S1389.413,527.2,1387.5,524.386Z" fill="#fff"/>
            </g>
            <g id="Group_2822" data-name="Group 2822">
              <path id="Path_6248" data-name="Path 6248" d="M1415.255,557.764v-26.5a11.376,11.376,0,0,0-1.676-6.665q-1.675-2.352-6.7-2.354a28.17,28.17,0,0,0-5.587.6,33.884,33.884,0,0,0-5.267,1.476v-7.9a26.731,26.731,0,0,1,5.906-1.836,34.936,34.936,0,0,1,7.023-.718q9.1,0,13.09,3.871t3.99,12.012v28.014Z" fill="#fff"/>
              <path id="Path_6249" data-name="Path 6249" d="M1426.03,562.764h-10.775a5,5,0,0,1-5-5v-26.5a7.266,7.266,0,0,0-.669-3.641,6.705,6.705,0,0,0-2.711-.378,23.324,23.324,0,0,0-4.594.5,29.235,29.235,0,0,0-4.488,1.251,5,5,0,0,1-6.772-4.675v-7.9a5,5,0,0,1,2.885-4.531,31.407,31.407,0,0,1,7.019-2.2,40.089,40.089,0,0,1,8.025-.819c7.485,0,12.905,1.727,16.571,5.28s5.509,8.8,5.509,15.6v28.014A5,5,0,0,1,1426.03,562.764Zm-5.775-10h.775V529.75c0-4-.832-6.832-2.472-8.424a7.23,7.23,0,0,0-2.753-1.556,9.241,9.241,0,0,1,1.847,1.931,16.211,16.211,0,0,1,2.6,9.565Z" fill="#fff"/>
            </g>
            <g id="Group_2823" data-name="Group 2823">
              <path id="Path_6250" data-name="Path 6250" d="M1448.378,558.563q-6.944,0-10.934-4.191t-3.991-11.693V514.665h10.775v27.376q0,4.391,1.956,6.265t5.786,1.876a14.391,14.391,0,0,0,5.906-1.277,13.74,13.74,0,0,0,4.63-3.192V514.665h10.774v43.1h-9.9l-.479-4.23a23.381,23.381,0,0,1-6.465,3.672A22.684,22.684,0,0,1,1448.378,558.563Z" fill="#fff"/>
              <path id="Path_6251" data-name="Path 6251" d="M1448.378,563.563c-6.029,0-10.926-1.932-14.555-5.742-3.562-3.74-5.37-8.834-5.37-15.142V514.665a5,5,0,0,1,5-5h10.775a5,5,0,0,1,5,5v27.376a5.158,5.158,0,0,0,.436,2.678,3.967,3.967,0,0,0,2.306.463,9.354,9.354,0,0,0,3.875-.846,11.231,11.231,0,0,0,1.661-.9V514.665a5,5,0,0,1,5-5h10.774a5,5,0,0,1,5,5v43.1a5,5,0,0,1-5,5h-9.9a4.993,4.993,0,0,1-3.6-1.528q-.776.345-1.578.648A27.775,27.775,0,0,1,1448.378,563.563Zm19.468-10.8h.434v-33.1h-.774v26.048a5,5,0,0,1-1.315,3.379q-.179.2-.365.384A5,5,0,0,1,1467.846,552.764Zm-29.393-33.1v23.014c0,3.7.855,6.4,2.611,8.244a7.777,7.777,0,0,0,2.6,1.8,10.769,10.769,0,0,1-.944-.807c-2.318-2.221-3.494-5.544-3.494-9.873V519.665Z" fill="#fff"/>
            </g>
            <g id="Group_2824" data-name="Group 2824">
              <path id="Path_6252" data-name="Path 6252" d="M1479.106,522.407V506.364h9.1l-1.117,16.043Zm13.809,0V506.364h9.1l-1.117,16.043Z" fill="#fff"/>
              <path id="Path_6253" data-name="Path 6253" d="M1500.9,527.407h-7.982a5,5,0,0,0-5.826,0h-7.983a5,5,0,0,1-5-5V506.364a5,5,0,0,1,5-5h9.1a5.008,5.008,0,0,0,4.709,0h9.1a5,5,0,0,1,4.988,5.347l-1.117,16.043A5,5,0,0,1,1500.9,527.407Z" fill="#fff"/>
            </g>
          </g>
          <g id="Group_2826" data-name="Group 2826">
            <path id="Path_6254" data-name="Path 6254" d="M842.188,522.407V506.364h9.1l-1.117,16.043Zm13.807,0V506.364h9.1l-1.117,16.043Z" fill="#ed759d"/>
            <path id="Path_6255" data-name="Path 6255" d="M895.424,558.563a22.685,22.685,0,0,1-8.062-1.357,23.39,23.39,0,0,1-6.464-3.672l-.479,4.23h-9.9V542.44a12.2,12.2,0,0,1,1.356-5.507,38.994,38.994,0,0,1,3.153-5.228q1.8-2.514,3.153-4.509a6.365,6.365,0,0,0,1.356-3.273q0-1.515-1.276-1.516a2.545,2.545,0,0,0-1.077.239,3.124,3.124,0,0,0-.918.638v3.273h-6.786V514.665h7.1V516.9a11.457,11.457,0,0,1,2.715-1.6,9.691,9.691,0,0,1,3.75-.638q6.386,0,6.386,6.544a12.478,12.478,0,0,1-1.238,5.508,44.4,44.4,0,0,1-2.833,4.988,48.428,48.428,0,0,0-2.833,4.909A11.438,11.438,0,0,0,881.3,541.8v3.911a13.649,13.649,0,0,0,4.67,3.192,14.477,14.477,0,0,0,5.866,1.277q3.831,0,5.786-1.876t1.956-6.265V514.665h10.775v28.014q0,7.5-3.991,11.693T895.424,558.563Z" fill="#ed759d"/>
            <path id="Path_6256" data-name="Path 6256" d="M933.017,557.764v-26.5a11.369,11.369,0,0,0-1.677-6.665q-1.676-2.352-6.7-2.354a28.17,28.17,0,0,0-5.587.6,33.88,33.88,0,0,0-5.269,1.476v-7.9a26.775,26.775,0,0,1,5.907-1.836,34.946,34.946,0,0,1,7.024-.718q9.1,0,13.089,3.871t3.991,12.012v28.014Z" fill="#ed759d"/>
            <path id="Path_6257" data-name="Path 6257" d="M967.655,558.563a18.917,18.917,0,0,1-9.257-2.235,15.525,15.525,0,0,1-6.426-6.984q-2.355-4.747-2.354-12.251,0-11.414,4.03-17.32a12.553,12.553,0,0,1,10.9-5.906,10.683,10.683,0,0,1,5.348,1.117,10,10,0,0,1,3.192,2.953,11.186,11.186,0,0,1,4.43-2.953,15.659,15.659,0,0,1,5.787-1.117q5.666,0,8.34,3.432a14.263,14.263,0,0,1,2.674,9.019v31.446H983.539V527.993a9.581,9.581,0,0,0-.759-4.27,2.965,2.965,0,0,0-2.913-1.476,4.073,4.073,0,0,0-2.594.918,4.975,4.975,0,0,0-1.635,2.753h-5.189a9.483,9.483,0,0,0-1.676-2.753,3.373,3.373,0,0,0-2.553-.918q-3.753,0-5.069,4.11a36.049,36.049,0,0,0-1.317,10.736q0,7.263,2.554,10.176a9.044,9.044,0,0,0,7.183,2.913,27.441,27.441,0,0,0,2.993-.16,13.643,13.643,0,0,0,2.515-.478v7.9a15.646,15.646,0,0,1-3.193.838A27.456,27.456,0,0,1,967.655,558.563Z" fill="#ed759d"/>
            <path id="Path_6258" data-name="Path 6258" d="M1002.136,557.764V544.036a16.117,16.117,0,0,1,1.236-6.5,7.263,7.263,0,0,1,4.909-3.951l-8.141-2.155v-10.3a32.2,32.2,0,0,1,8.74-5.029,32.8,32.8,0,0,1,12.49-2.234,32.316,32.316,0,0,1,11.055,1.676,13.415,13.415,0,0,1,7.023,5.587q2.435,3.91,2.436,10.615v26.019h-10.776V531.506q0-5.029-2.355-7.144t-7.941-2.115a20.027,20.027,0,0,0-6.584,1.037,14.581,14.581,0,0,0-4.83,2.634v1.118l8.86,2.394v6.545q-3.192.8-4.271,2.594a11.109,11.109,0,0,0-1.076,5.547v13.648Z" fill="#ed759d"/>
            <path id="Path_6259" data-name="Path 6259" d="M1063.833,558.563a55.925,55.925,0,0,1-8.58-.639,30.486,30.486,0,0,1-6.665-1.676v-8.7a32.441,32.441,0,0,0,6.665,1.956,36.162,36.162,0,0,0,6.584.678,25.639,25.639,0,0,0,7.543-.8,3.173,3.173,0,0,0,2.354-3.272,3.639,3.639,0,0,0-1.237-2.953,11.669,11.669,0,0,0-3.791-1.876q-2.555-.839-6.545-2.2a32.649,32.649,0,0,1-9.138-4.669q-3.313-2.594-3.313-7.7a11.309,11.309,0,0,1,4.47-9.3q4.469-3.551,13.489-3.551a51.081,51.081,0,0,1,7.5.558,37.481,37.481,0,0,1,6.145,1.357v8.62a25.233,25.233,0,0,0-6.026-1.636,40.769,40.769,0,0,0-6.1-.519,22.44,22.44,0,0,0-6.505.838,3.363,3.363,0,0,0-2.753,3.392,2.955,2.955,0,0,0,1.4,2.554,14.923,14.923,0,0,0,3.991,1.756q2.592.8,6.185,2.075a36.943,36.943,0,0,1,7.224,3.193,10.434,10.434,0,0,1,3.991,4.07,12.975,12.975,0,0,1,1.236,5.987q0,6.306-4.828,9.378T1063.833,558.563Z" fill="#ed759d"/>
            <path id="Path_6260" data-name="Path 6260" d="M1114.993,557.764q-5.188,0-7.3-2.154t-2.115-6.785V513.787q0-4.867-1.955-7.5a11.927,11.927,0,0,0-5.947-3.991v-7.9h26.1v8.38h-12.531a9.624,9.624,0,0,1,3.831,4.151,14.968,14.968,0,0,1,1.278,6.545v32.564q0,3.351,3.271,3.352h2.714v8.38Z" fill="#ed759d"/>
            <path id="Path_6261" data-name="Path 6261" d="M1140.294,558.563a55.935,55.935,0,0,1-8.58-.639,30.5,30.5,0,0,1-6.664-1.676v-8.7a32.431,32.431,0,0,0,6.664,1.956,36.181,36.181,0,0,0,6.585.678,25.631,25.631,0,0,0,7.542-.8,3.172,3.172,0,0,0,2.355-3.272,3.639,3.639,0,0,0-1.237-2.953,11.658,11.658,0,0,0-3.791-1.876q-2.556-.839-6.545-2.2a32.656,32.656,0,0,1-9.139-4.669q-3.313-2.594-3.312-7.7a11.309,11.309,0,0,1,4.47-9.3q4.467-3.551,13.488-3.551a51.094,51.094,0,0,1,7.5.558,37.43,37.43,0,0,1,6.145,1.357v8.62a25.251,25.251,0,0,0-6.025-1.636,40.793,40.793,0,0,0-6.106-.519,22.446,22.446,0,0,0-6.505.838,3.363,3.363,0,0,0-2.754,3.392,2.957,2.957,0,0,0,1.4,2.554,14.964,14.964,0,0,0,3.991,1.756q2.594.8,6.187,2.075a36.988,36.988,0,0,1,7.223,3.193,10.418,10.418,0,0,1,3.99,4.07,12.975,12.975,0,0,1,1.237,5.987q0,6.306-4.829,9.378T1140.294,558.563Z" fill="#ed759d"/>
            <path id="Path_6262" data-name="Path 6262" d="M1163.84,557.764V531.027q0-7.822,4.829-12.492t15.523-4.668q10.7,0,15.485,4.668t4.789,12.492v26.737H1193.69V530.228a7.18,7.18,0,0,0-2.513-5.986,10.973,10.973,0,0,0-6.985-1.995q-9.576,0-9.578,7.981v7.743a14.33,14.33,0,0,1,3.393-1.836,11.4,11.4,0,0,1,4.111-.719h5.188l.318,8.54h-5.746a12.33,12.33,0,0,0-3.99.6,12.046,12.046,0,0,0-3.274,1.716v11.493Z" fill="#ed759d"/>
            <path id="Path_6263" data-name="Path 6263" d="M1221.546,557.764q-5.188,0-7.3-2.154t-2.115-6.785v-34.16H1222.9v31.367q0,3.351,3.272,3.352h2.714v8.38Z" fill="#ed759d"/>
            <path id="Path_6264" data-name="Path 6264" d="M1254.908,558.563q-9.5,0-15.005-4.51t-5.507-13.608v-25.78h10.775V540.6q0,9.579,9.737,9.578t9.738-9.578V514.665h10.775v25.78q0,9.1-5.508,13.608T1254.908,558.563Z" fill="#ed759d"/>
            <path id="Path_6265" data-name="Path 6265" d="M1298.088,557.764v-26.5a11.369,11.369,0,0,0-1.677-6.665q-1.676-2.352-6.7-2.354a28.187,28.187,0,0,0-5.588.6,33.884,33.884,0,0,0-5.267,1.476v-7.9a26.731,26.731,0,0,1,5.906-1.836,34.942,34.942,0,0,1,7.023-.718q9.1,0,13.09,3.871t3.99,12.012v28.014Z" fill="#ed759d"/>
            <path id="Path_6266" data-name="Path 6266" d="M1316.286,557.764v-43.1h10.775v13.089h10.695q4.15,0,5.706-1.8t1.557-5.467v-5.826h10.775v5.427a17.809,17.809,0,0,1-1.316,7.064,8.152,8.152,0,0,1-4.83,4.429,7.805,7.805,0,0,1,4.589,3.951,14.591,14.591,0,0,1,1.238,6.186v16.042H1344.7V542.919q0-4.071-1.556-5.667t-5.627-1.6h-10.456v22.108Z" fill="#ed759d"/>
            <path id="Path_6267" data-name="Path 6267" d="M1373.752,558.563a34.7,34.7,0,0,1-13.728-2.554v-8.222a33.868,33.868,0,0,0,5.347,1.717,25.294,25.294,0,0,0,5.827.678q7.5,0,10.735-3.113t3.232-10.854q0-7.742-3.232-10.855t-10.735-3.113a26.768,26.768,0,0,0-5.827.639,27.474,27.474,0,0,0-5.347,1.755v-8.22a34.7,34.7,0,0,1,13.728-2.554q10.934,0,16.282,5.706t5.348,16.642q0,10.935-5.348,16.641T1373.752,558.563Z" fill="#ed759d"/>
            <path id="Path_6268" data-name="Path 6268" d="M1415.255,557.764v-26.5a11.376,11.376,0,0,0-1.676-6.665q-1.675-2.352-6.7-2.354a28.17,28.17,0,0,0-5.587.6,33.884,33.884,0,0,0-5.267,1.476v-7.9a26.731,26.731,0,0,1,5.906-1.836,34.936,34.936,0,0,1,7.023-.718q9.1,0,13.09,3.871t3.99,12.012v28.014Z" fill="#ed759d"/>
            <path id="Path_6269" data-name="Path 6269" d="M1448.378,558.563q-6.944,0-10.934-4.191t-3.991-11.693V514.665h10.775v27.376q0,4.391,1.956,6.265t5.786,1.876a14.391,14.391,0,0,0,5.906-1.277,13.74,13.74,0,0,0,4.63-3.192V514.665h10.774v43.1h-9.9l-.479-4.23a23.381,23.381,0,0,1-6.465,3.672A22.684,22.684,0,0,1,1448.378,558.563Z" fill="#ed759d"/>
            <path id="Path_6270" data-name="Path 6270" d="M1479.106,522.407V506.364h9.1l-1.117,16.043Zm13.809,0V506.364h9.1l-1.117,16.043Z" fill="#ed759d"/>
          </g>
        </g>
      </g>
    </g>
    <g id="Group_1099" data-name="Group 1099" transform="translate(909.501 1167.076)">
      <path id="Path_1753" data-name="Path 1753" d="M6784.685,1087.124c57.738-21.028,91.811-33.45,143.386-56.927,68.723-31.285,111.347-9.994,111.347-9.994s83.212-24.571,158.511-62.165-28.41-140.088-28.41-140.088l-475.954,246.365,23.207,46.914Z" transform="translate(-6148.488 -634.604)"/>
      <g id="Group_1098" data-name="Group 1098">
        <g id="Group_1097" data-name="Group 1097" clip-path="url(#clip-path-2)">
          <g id="Group_1096" data-name="Group 1096">
            <g id="Group_1093" data-name="Group 1093">
              <path id="Path_1754" data-name="Path 1754" d="M7342.53,715.12c-74.4,71.447-158.177,137.26-249,195.61-87.14,55.981-183.016,106.536-284.964,150.261-191.191,82-410.347,142.909-651.378,181.038l-18.13-114.605c481.9-76.233,859.773-243.111,1123.108-495.995Z" transform="translate(-6139.053 -631.43)" fill="#edde1d"/>
            </g>
            <g id="Group_1094" data-name="Group 1094" transform="translate(103.534 47.692)">
              <path id="Path_1755" data-name="Path 1755" d="M6284.284,1205.26q-15.067,2.809-24.957-6.289t-13.493-28.407q-3.714-19.923,2.051-32t21.087-14.938a35.535,35.535,0,0,1,9.417-.61,38.357,38.357,0,0,1,8.32,1.629l3.762,20.169a29.679,29.679,0,0,0-16.712-1.72q-7.834,1.461-10.67,7.27t-.726,17.125q2.065,11.066,6.973,15.178t12.484,2.7a29.953,29.953,0,0,0,7.843-2.607,32.468,32.468,0,0,0,7.148-4.9l3.782,20.291a39.711,39.711,0,0,1-7.25,4.343A38.1,38.1,0,0,1,6284.284,1205.26Z" transform="translate(-6244.379 -687.485)"/>
              <path id="Path_1756" data-name="Path 1756" d="M6307.558,1199.6l-16.119-78.932,28.74-5.87q6.779-1.384,11.838,1.286a21.678,21.678,0,0,1,8.492,8.543,46.481,46.481,0,0,1,5.136,14.209,33.988,33.988,0,0,1,.077,14.6,22.519,22.519,0,0,1-5.532,10.77,11.1,11.1,0,0,1,2.168,2.3,43.464,43.464,0,0,1,2.408,3.913l10.58,19.418-16.816,3.435-9.715-17.807a7.34,7.34,0,0,0-2.31-2.785,4.02,4.02,0,0,0-2.977-.349l-4.546.927,4.706,23.044Zm7.819-43.985,8.493-1.735a6.49,6.49,0,0,0,4.911-3.748q1.392-3.027.391-7.933-2.128-10.416-8.991-9.016l-9.01,1.839Z" transform="translate(-6245.18 -687.339)"/>
              <path id="Path_1757" data-name="Path 1757" d="M6362.658,1188.246l-17.143-78.717,16.086-3.5,17.142,78.716Z" transform="translate(-6246.1 -687.198)"/>
              <path id="Path_1758" data-name="Path 1758" d="M6386.555,1182.98l-18.357-78.442,15.6-3.652,22.965,36.639,4.235-43,15.519-3.632,18.355,78.444-16.03,3.751-9.178-39.223-2.741,27.879-8.61,2.014-14.911-23.747,9.179,39.221Z" transform="translate(-6246.486 -686.94)"/>
              <path id="Path_1759" data-name="Path 1759" d="M6453.191,1167.261l-19.932-78.056,41.4-10.574,4.457,17.454-25.453,6.5,3.25,12.728,22.313-5.7,4.52,17.695-22.315,5.7,3.25,12.726,25.455-6.5,4.457,17.454Z" transform="translate(-6247.593 -686.732)"/>
              <path id="Path_1760" data-name="Path 1760" d="M6535.79,1146.734a42.757,42.757,0,0,1-10.723,1.652,28.509,28.509,0,0,1-9.345-1.206l-5.25-18.665a37,37,0,0,0,9.581,1.723,28.235,28.235,0,0,0,9.124-.877,15.983,15.983,0,0,0,6.076-2.812q1.863-1.628.847-5.241a6.207,6.207,0,0,0-2.341-3.631,11.511,11.511,0,0,0-4.538-1.582q-2.91-.479-7.548-1.125a33.787,33.787,0,0,1-10.242-3.1,17.692,17.692,0,0,1-6.66-6.054,36.38,36.38,0,0,1-4.372-10.205q-3.217-11.438.8-19t15.225-10.714a43.079,43.079,0,0,1,9.535-1.512,43.768,43.768,0,0,1,8.391.239l5.283,18.786a32.761,32.761,0,0,0-8.5-1.118,27.665,27.665,0,0,0-7.1.956,21.587,21.587,0,0,0-6.084,2.622q-2.376,1.579-1.395,5.071a4.975,4.975,0,0,0,3.471,3.766,53.242,53.242,0,0,0,8.965,1.312,28.651,28.651,0,0,1,11.885,3.285,19.522,19.522,0,0,1,7.116,7.029,43.606,43.606,0,0,1,4.3,10.422q2.982,10.6-.941,18.652T6535.79,1146.734Z" transform="translate(-6248.711 -686.488)"/>
              <path id="Path_1761" data-name="Path 1761" d="M6593.664,1129.784q-14.67,4.434-25.494-3.534t-16.507-26.767q-5.862-19.4-1.45-32.037t19.335-17.148a35.6,35.6,0,0,1,9.294-1.632,38.3,38.3,0,0,1,8.448.713l5.935,19.637a29.669,29.669,0,0,0-16.8.113q-7.63,2.3-9.815,8.39t1.143,17.1q3.259,10.777,8.586,14.33t12.7,1.322a30.011,30.011,0,0,0,7.512-3.445,32.422,32.422,0,0,0,6.572-5.646l5.972,19.757a39.662,39.662,0,0,1-6.737,5.109A38.135,38.135,0,0,1,6593.664,1129.784Z" transform="translate(-6249.55 -686.221)"/>
              <path id="Path_1762" data-name="Path 1762" d="M6616.1,1121.524l-24.846-76.635,40.65-13.179,5.556,17.135-24.99,8.1,4.051,12.495,21.908-7.1,5.631,17.374-21.908,7.1,4.05,12.5,24.991-8.1,5.554,17.136Z" transform="translate(-6250.282 -685.933)"/>
              <path id="Path_1763" data-name="Path 1763" d="M6662.071,1106.539l-26.532-76.068,13.23-4.614,34.141,33.27-14.049-40.278,15.544-5.421,26.531,76.067-13.311,4.644-34.017-33.182,14.007,40.16Z" transform="translate(-6251.035 -685.622)"/>
              <path id="Path_1764" data-name="Path 1764" d="M6718.8,1086.632l-28.273-75.438,40.016-15,6.321,16.868-24.6,9.218,4.609,12.3,21.565-8.082,6.409,17.1-21.565,8.083,4.609,12.3,24.6-9.218,6.321,16.868Z" transform="translate(-6251.971 -685.329)"/>
              <path id="Path_1765" data-name="Path 1765" d="M6814.321,1049.453l-31.9-73.974,23.157-9.987a26.166,26.166,0,0,1,15.2-2.128q7.237,1.306,13.756,8.236t12.363,20.483q8.224,19.071,5.476,30.609t-14.89,16.774Zm7.984-23.061,6.109-2.634a13.2,13.2,0,0,0,5.685-4.291q1.9-2.66,1.414-7.557t-4.058-13.168a55.442,55.442,0,0,0-6.771-12.27q-3.2-4-6.545-4.671a12.351,12.351,0,0,0-7.36,1.063l-6.11,2.636Z" transform="translate(-6253.534 -684.764)"/>
              <path id="Path_1766" data-name="Path 1766" d="M6894.936,1015.073q-12.694,5.929-23.529.218t-20.041-25.434q-6.352-13.6-7.226-23.34t3.184-16.26q4.058-6.517,12.469-10.447t16.015-2.853q7.605,1.076,14.509,8t13.257,20.525q9.208,19.721,6.594,31.712T6894.936,1015.073Zm-8.468-18.135q5.712-2.667,6.147-8.462t-4.274-15.884q-5.029-10.767-9.7-14.04t-10.382-.607q-5.715,2.667-6.2,8.349t4.541,16.449q4.712,10.091,9.433,13.475T6886.468,996.938Z" transform="translate(-6254.582 -684.317)"/>
              <path id="Path_1767" data-name="Path 1767" d="M6945.125,989.391l-37.08-71.522,12.439-6.448L6959.01,939.5l-19.634-37.87,14.616-7.578,37.078,71.523-12.517,6.488-38.388-28.006,19.574,37.759Z" transform="translate(-6255.672 -683.591)"/>
              <path id="Path_1768" data-name="Path 1768" d="M7024.838,948.469q-12.213,6.864-23.444,1.982T6979.5,926.591q-7.353-13.087-8.957-22.734t1.956-16.451q3.558-6.8,11.65-11.353t15.756-4.046q7.666.5,15.069,6.887t14.759,19.473q10.662,18.975,8.952,31.128T7024.838,948.469Zm-9.8-17.449q5.494-3.089,5.495-8.9t-5.455-15.517q-5.819-10.358-10.724-13.275t-10.4.176q-5.5,3.089-5.558,8.791t5.761,16.061q5.457,9.709,10.417,12.73T7015.035,931.02Z" transform="translate(-6256.726 -683.215)"/>
              <path id="Path_1769" data-name="Path 1769" d="M7066.507,922.709l-32.6-53.968-13.565,8.2-9.056-14.99,41.226-24.9,9.055,14.991L7048,860.229l32.6,53.968Z" transform="translate(-6257.428 -682.621)"/>
              <path id="Path_1770" data-name="Path 1770" d="M7115.772,892.312,7071.4,825.068l35.669-23.534,9.92,15.036-21.927,14.467L7102.3,842l19.225-12.685,10.059,15.245-19.224,12.682,7.233,10.964,21.929-14.469,9.92,15.036Z" transform="translate(-6258.451 -682.017)"/>
              <path id="Path_1771" data-name="Path 1771" d="M7157.947,864.3l-46.6-65.719,11.429-8.1,42.031,22.492-24.671-34.8,13.428-9.522,46.595,65.72-11.5,8.154-41.889-22.441,24.6,34.7Z" transform="translate(-6259.13 -681.457)"/>
              <path id="Path_1772" data-name="Path 1772" d="M7218.512,820.531,7180.273,770.4l-12.6,9.613-10.621-13.925,38.292-29.209,10.622,13.926-12.6,9.613,38.236,50.129Z" transform="translate(-6259.909 -680.917)"/>
              <path id="Path_1773" data-name="Path 1773" d="M7249.635,796.629,7198.75,734.17l33.129-26.991,11.379,13.966-20.366,16.593,8.3,10.183,17.856-14.546,11.535,14.161-17.856,14.545,8.3,10.184,20.367-16.593,11.377,13.966Z" transform="translate(-6260.618 -680.411)"/>
              <path id="Path_1774" data-name="Path 1774" d="M7288.8,764.645,7235.759,704l22.082-19.313a17.3,17.3,0,0,1,10.925-4.735,21.677,21.677,0,0,1,11.605,3.228A46.462,46.462,0,0,1,7291.86,693a33.982,33.982,0,0,1,7.287,12.655,22.538,22.538,0,0,1,.517,12.1,11.108,11.108,0,0,1,3.024.929,43.336,43.336,0,0,1,4.027,2.211l18.794,11.647-12.919,11.3-17.246-10.675a7.343,7.343,0,0,0-3.385-1.277,4.015,4.015,0,0,0-2.759,1.168l-3.494,3.054,15.482,17.7Zm-14.949-42.1,6.525-5.708a6.487,6.487,0,0,0,2.415-5.685q-.288-3.321-3.582-7.088-7-8-12.274-3.392l-6.921,6.053Z" transform="translate(-6261.248 -679.948)"/>
            </g>
            <g id="Group_1095" data-name="Group 1095" transform="translate(944.603 32.437)">
              <path id="Path_1775" data-name="Path 1775" d="M7275.85,772.657a2.02,2.02,0,0,0-.122-1.134Q7275.789,772.091,7275.85,772.657Z" transform="translate(-7102.996 -666.25)"/>
              <path id="Path_1776" data-name="Path 1776" d="M7326.468,780.294m-122.83,57.8c6.717,7.117,15.245,10.14,26.381,9.249,23.215-1.858,47.019-1.559,70.422-3.048,25.219-1.6,50.338-4.391,74.631-9.836,5.729-1.284,12.161-2.763,16.56-6.315,4.467-3.6,8.054-7.409,13.5-10.152l-92.5-153.56c-30.414,13.283-58.6,29.08-78.728,53.59-3.884,4.729-6.882,2.554-10.111-.271-11.31-9.9-24.354-12.16-38.958-9.463-10.657,1.969-21.479,3.4-32.251,4.979-7.17,1.049-18.27,1.874-22.746,7.49a9.368,9.368,0,0,0-1.74,7.07,20.744,20.744,0,0,0,3.884,9.036c10.342,15.026,20.5,30.145,31.038,45.072,12.117,17.166,24.9,33.995,36.734,51.3A39.739,39.739,0,0,0,7203.638,838.09Zm-50.465-95.745c15.486,19.238,27.43,40.129,39.552,60.937,2.039,2.495,3.83,5.076,4.314,8.367-4.17-.271-5.007-3.154-6.376-5.564A719.919,719.919,0,0,1,7153.172,742.345Z" transform="translate(-7100.483 -664.428)"/>
              <path id="Path_1777" data-name="Path 1777" d="M7173.484,848.179c-18.53-34.277-36.729-68.753-62.178-99.97C7110.163,761.948,7154.2,832.621,7173.484,848.179Z" transform="translate(-7100.199 -665.854)"/>
              <path id="Path_1778" data-name="Path 1778" d="M7131.477,745.967c-1.033-1.631-1.659-4.029-5.817-3.412,16.858,33.66,36.289,66.027,56.466,98.091,2.978,4.731,7.548,12.3,12.677,9.96,5.167-2.354-.954-9.271-3.864-13.416C7169.953,807.32,7150.85,776.582,7131.477,745.967Z" transform="translate(-7100.443 -665.756)"/>
              <path id="Path_1779" data-name="Path 1779" d="M7151.209,847.7c-13.263-29.662-32.684-56.7-51.2-83.977C7111.462,794.233,7130.485,821.33,7151.209,847.7Z" transform="translate(-7100.007 -666.117)"/>
            </g>
          </g>
        </g>
      </g>
    </g>
  </g>
</svg>
