<svg xmlns="http://www.w3.org/2000/svg" xmlns:xlink="http://www.w3.org/1999/xlink" width="836" height="587" viewBox="0 0 836 587">
  <defs>
    <clipPath id="clip-path">
      <rect id="Rectangle_197" data-name="Rectangle 197" width="836" height="587" transform="translate(-365 225)" fill="#fff" stroke="#707070" stroke-width="1"/>
    </clipPath>
  </defs>
  <g id="Mask_Group_1" data-name="Mask Group 1" transform="translate(365 -225)" clip-path="url(#clip-path)">
    <g id="Group_2749" data-name="Group 2749">
      <g id="Group_2781" data-name="Group 2781" transform="translate(-364.963 225.461)">
        <g id="Group_2746" data-name="Group 2746" transform="translate(0 0)">
          <path id="Path_5459" data-name="Path 5459" d="M-6371.555,21543.895c-4.912,19.773,64.335,142.428,64.335,142.428l-375.307,21.98h-2.782s-.329-67.775,2.782-113.582,0-66.021,0-66.021S-6366.642,21524.121-6371.555,21543.895Z" transform="translate(6889.58 -21051.326)" fill="#fff"/>
          <g id="Group_2694" data-name="Group 2694" transform="translate(0 1.566)">
            <path id="Path_5332" data-name="Path 5332" d="M-3386.4,589.147c-1-.507-43.086-32.557-61.6-64.955,0,0-11.238-9.2-18.835-8.048s-139.2-40.067-172.562-60.847-90.232-19.785-90.232-19.785,14.983-17.549,14.241-41.7c-.361-11.662-3.4-26.414-3.4-26.414l-2.288-15.612s15.25-14.345-5.791-33.546a13.432,13.432,0,0,1-3.786-15.031s19.532-37.819,4.844-67.843c-27.211-55.633-89.368-65.444-125.98-63.615-25.065,1.256-39.448,9.2-47.09,15.62-4.638-1.259-14.255,1.2-14.255,1.2l-40.479,10.1s7.277-12.892,19.088-14.535,18.984-1.308,24.1-4.8,2.374-6.446-1.848-8.9c-4.166-2.426-36.627,3.089-37.462,3.23l18.161-5.76-15.478-9.535-74.021,58.588,44.1,18.168,11.845,2.765-11.29,2.507-61.345,23.928-87.081,127.754,3.286,58.473L-3678.117,593.9l291.729-4.751A.01.01,0,0,1-3386.4,589.147ZM-3893.562,421.16c9.184,8.067-6.517,21.965-10.329,22.587s-24.811-8.965-36.652-12.158-72.762-25.165-86.82-28.716-17.658-4.322-17.658-4.322,15.973-15.634,27.934-63.234,28.065-70.746,28.065-70.746,27.934-14.028,34.957-19.14a8.4,8.4,0,0,0,3.35-4.184l28.91,6.748,31.1,74.815,48.178,103.535S-3902.748,413.1-3893.562,421.16Z" transform="translate(4181.338 -154.819)"/>
            <path id="Path_5333" data-name="Path 5333" d="M-3703.394,342.112c-20.7,20.877-24.35,51.13-19.952,69.306s50.322-16.892,50.322-16.892l38.419-70.538-50.795-8.65Z" transform="translate(3929.089 -253.85)"/>
            <g id="Group_2693" data-name="Group 2693">
              <g id="Group_2692" data-name="Group 2692">
                <path id="Path_5334" data-name="Path 5334" d="M-3897.945,219.651c3.961-18.912,15.9-39.543,22.729-46.354s23.374-20.711,27.25-22.833,20.257-2.387,21.965-.123c0,0,9.893-1.938,15.53,1.316a10.766,10.766,0,0,1,5.537,8.942s24.861.627,30.246,3.769-2.155,7.931-9.354,8.2-20.461-.039-24.89,1.461-18.678,17.02-18.678,17.02,19.836-8.071,28.933-9.91,23.883-1.907,27.028-1.868,3.193,5.032-.563,7.734-23.46,5.711-26.518,7.517-19.979,16.9-23.524,20.143a73.259,73.259,0,0,0-6.114,6.326s7.6-.845,12.35-4.765,12.733-9.715,19.721-10.532,8.53,3.182.027,9.8-16.8,17.551-29.74,22.959-36.812,18.867-45.508,24.449-28.865-12.806-33.79-16.2S-3901.371,236.006-3897.945,219.651Z" transform="translate(4043.764 -148.754)" fill="#f9cfcc"/>
                <path id="Path_5335" data-name="Path 5335" d="M-3702.054,179.175c-.887-.007-1.775-.014-2.66-.01s-1.769.045-2.647.129a24.521,24.521,0,0,0-5.168.97,22.854,22.854,0,0,0-4.8,2.092c-1.5.878-2.954,1.913-4.4,2.924-2.9,2.033-5.757,4.13-8.626,6.213s-5.739,4.169-8.629,6.231q4.072-3.433,8.283-6.691t8.548-6.357c1.467-1.007,2.91-2.036,4.482-2.927a22,22,0,0,1,4.982-2.037,22.807,22.807,0,0,1,5.306-.778A42.1,42.1,0,0,1-3702.054,179.175Z" transform="translate(3937.913 -167.788)" fill="#0d0d0c"/>
                <path id="Path_5336" data-name="Path 5336" d="M-3740.694,155.664c-1.292.319-2.574.667-3.821,1.111a33.71,33.71,0,0,0-3.666,1.486,23.286,23.286,0,0,0-3.4,1.965,14.682,14.682,0,0,0-1.515,1.22q-.716.673-1.41,1.385c-.933.938-1.847,1.9-2.757,2.865l-2.736,2.9q-2.724,2.91-5.509,5.771,2.461-3.145,5.082-6.157c1.746-2.01,3.526-3.987,5.4-5.9q.7-.711,1.448-1.4a13.967,13.967,0,0,1,1.6-1.261,21.359,21.359,0,0,1,3.558-1.915A28.943,28.943,0,0,1-3740.694,155.664Z" transform="translate(3954.645 -153.114)" fill="#0d0d0c"/>
                <path id="Path_5337" data-name="Path 5337" d="M-2647.334,1169.264c-.727,13.373-51.7,31.962-120.565,27.712s-173.358-17.751-173.358-17.751-37.719-124.025-18.592-122.067,72.665,6.6,133.81,23.785,146,34.14,146,34.14Z" transform="translate(3449.78 -721.841)" fill="#f9cfcc"/>
                <path id="Path_5338" data-name="Path 5338" d="M-2595.448,1137.954c-11.134,20.229-17.468,106.33-17.468,106.33l-36.969-5.041,3.246-2.521,10.978-100.437,27.539-9.183Z" transform="translate(3249.017 -772.139)"/>
                <path id="Path_5339" data-name="Path 5339" d="M-4033.259,891.883c-56.077-24.446-151.276-62.609-174.317-67.977s-66.3,34.219-64.094,45.833,69.612,64.074,107.709,82.157c85.445,40.558,125.127,47.407,189.889,81.956Z" transform="translate(4274.03 -574.386)" fill="#f9cfcc"/>
                <path id="Path_5340" data-name="Path 5340" d="M-4013.287,855.106c-24.514,4.888-17.678,106.848-17.678,106.848l6.608,3.817,39.925-20.5-13.283-80.878Z" transform="translate(4122.673 -594.383)"/>
                <path id="Path_5341" data-name="Path 5341" d="M-4081.863,357.043c-9.841,11.937-36.32,53.7-51.085,83.893-14.738,30.136-33.809,78.286-72.012,102.724s-68.438,25.239-70.812,18.49-9.951-43.708,30.1-92.874c48.25-59.231,108.367-123.863,114.085-132.769S-4081.863,357.043-4081.863,357.043Z" transform="translate(4277.924 -266.146)" fill="#f9cfcc"/>
                <path id="Path_5342" data-name="Path 5342" d="M-3504.647,808.881l5.549-3.406s13.3-8.308,4.383-42.733-12.56-49.88-12.56-49.88l82.379-9.04s67.438,66.13,48.3,72.286-22.069,12.864-19.8,19.351,10.217,11.626,15.214,13.809,23.358,13.237,23.358,13.237l-30.861,37.471-87.761,4.265-35.174-38.674V810.694Z" transform="translate(3794.474 -498.94)" fill="#f9cfcc"/>
                <path id="Path_5343" data-name="Path 5343" d="M-3391.593,856.935c14.754,17.07,51.117,23.288,69.913,19.3,0,0-8.805,4.451-10.6,8.873s2.176,11.1,5.581,14.407l-5.453,12.7-26.574,13.239-46.27.826-5.062-4.018s32.045,1.116,44.191-4.95,7.668-31.92,4.635-34.664-17.332-9.244-23.542-15.455S-3391.593,856.935-3391.593,856.935Z" transform="translate(3730.401 -595.537)" fill="#eab8b7"/>
                <path id="Path_5344" data-name="Path 5344" d="M-3394.647,972.29c-9.857,23.961-81.3,34.324-110.886,11.96l-2.985-6-9.24,5.316s5.957,20.273,6.68,20.776,86.917,21.47,86.917,21.47l54.751-28.58-9.784-16.535s-4.639-1.789-9.557-4.324S-3394.647,972.29-3394.647,972.29Z" transform="translate(3798.344 -668.313)"/>
                <path id="Path_5345" data-name="Path 5345" d="M-3894.284,1078.761l13.552,22.694a.018.018,0,0,0,.014.01l1.42,1.152,51.2,41.434,5.049,4.089,300.448,5.576,27.224-163.3c-24.328-4.313-35.756-10.373-72.112-14.955-21.29-2.679-43.786-3.22-43.786-3.22s-17.479,23-62.151,24.307-86.146-28.566-86.146-28.566-3.333-.612-9.88-2.292q-1.252-.318-2.653-.691h-.005c-7.572-2-18.534-5.2-32.763-10.061a55.261,55.261,0,0,0-13.318-2.624,74.842,74.842,0,0,0-16.425.5l-7.864,16.6Z" transform="translate(4035.89 -655.565)" fill="#fff"/>
                <path id="Path_5346" data-name="Path 5346" d="M-3003.375,1065.14c18.469-14.723,26.958-21.184,60.706-12.638,20.867,5.284,79.9,18.24,89.657,19.719s9.068,8.581,9.068,8.581-14.732,1.57-18.211,19.417-.278,43.848-4.6,57.777-7.775,35.609-5.934,45.857-15.9,13.909-24.265,7.1c0,0-15.529-1.59-38.132,1.365s-37.82,2.354-53.495,2.187-26.152-30.94-34.011-59.048S-3023.61,1081.27-3003.375,1065.14Z" transform="translate(3487.952 -716.506)" fill="#fff"/>
                <path id="Path_5347" data-name="Path 5347" d="M-3529.332,1018.747c53.932,54.032,144.188,27.3,160.391,29.508s16.965,13.944,16.965,13.944c-8.109,32.864,2.819,70.847,3.646,73.6-.283-1.269-2.16-10.071-3.562-27.984-1.194-15.253,3.518-28.8,13.018-38.352a44.955,44.955,0,0,1,8.9-6.936c7.906-4.718,33.562-5.887,59.381-4.87,24.34.955,48.827,3.856,58.736,7.549,20.412,7.615,13.233,16.221,15.614,28.538,2.309,11.968,1.465,31.371,1.418,32.459a188.314,188.314,0,0,0,2.65-25.98c.412-14.051.6-28.921,5.547-35.872,4.529-6.373,11.408-3.738,9.625,1.21a21.435,21.435,0,0,1,15.369-11.247s.692-7.106-9.066-8.583-68.791-14.435-89.66-19.719q-2.471-.626-4.768-1.146a.069.069,0,0,0-.032,0c-2.883-.513-5.586-1.052-8.167-1.605-19.2-4.125-31.883-9.307-63.913-13.346-21.29-2.679-43.787-3.22-43.787-3.22s-17.478,23-62.151,24.308c-25.52.747-50-8.683-66.3-16.909Z" transform="translate(3805.646 -690.016)" fill="#c9d6e8"/>
                <path id="Path_5348" data-name="Path 5348" d="M-3394.3,982.961c-6.238,14.623-34.993,27.365-86.523,21.808s-42.8-24.254-42.8-24.254l5.549-3.406s-4.393-3.288-12.1.862-11.167,4.461-11.488,8.245-.155,25.277,52.928,35.67,90.042-6.746,105.208-18.078,10.43-22.531,4.987-24.768-20.027,2.127-20.027,2.127Z" transform="translate(3813.456 -670.573)" fill="#c9d6e8"/>
                <path id="Path_5349" data-name="Path 5349" d="M-3292.185,1037.884q-.849,0-1.672-.023a.554.554,0,0,1-.538-.569.552.552,0,0,1,.569-.538c22.236.617,53.326-11.453,64.14-19.71,10.853-8.288,13.738-13.744,11.025-20.849a.553.553,0,0,1,.32-.715.553.553,0,0,1,.715.32c2.931,7.676-.05,13.465-11.388,22.124-5.8,4.432-16.665,9.588-28.344,13.455C-3270.094,1035.6-3282.376,1037.883-3292.185,1037.884Z" transform="translate(3657.427 -682.92)" fill="#0d0d0c"/>
                <path id="Path_5350" data-name="Path 5350" d="M-2913.953,1497.849l-15.434-.29a11.658,11.658,0,0,0,1.615.13C-2923.189,1497.739-2918.65,1497.827-2913.953,1497.849Z" transform="translate(3427.148 -999.699)" fill="#c9d6e8"/>
                <path id="Path_5351" data-name="Path 5351" d="M-2835.776,1051.572c2.582.553,5.284,1.092,8.167,1.605C-2830.526,1052.515-2833.235,1051.98-2835.776,1051.572Z" transform="translate(3368.09 -718.331)" fill="#c9d6e8"/>
                <path id="Path_5352" data-name="Path 5352" d="M-2835.776,1051.572c2.582.553,5.284,1.092,8.167,1.605C-2830.526,1052.515-2833.235,1051.98-2835.776,1051.572Z" transform="translate(3368.09 -718.331)" fill="#c9d6e8"/>
                <path id="Path_5353" data-name="Path 5353" d="M-4030.048,990.4c-7.042,11.323,5.321,32.343,13.82,29.147,0,0,11.488,2.181,28.963,16.815,7.144,5.98,13.565,10.8,19.564,14.965a.023.023,0,0,0,.014.01c.619.432,1.231.852,1.837,1.269l.01,0c7.955,5.434,15.213,9.794,22.522,14.336,6.368,3.96,15.494,1.377,25.66-4.536,11.088-6.437,23.414-16.835,34.747-27,21.732-19.485,40.714-62.011,32.314-86.491-5.489-16-8.942-25.669-22.6-33.887-5.417-3.257-12.431-6.282-21.812-9.385-2.781-.918-6.235-2.1-10.154-3.464-24.851-8.631-68.264-24.617-76.061-28.068a18.007,18.007,0,0,0-16.675,1.333s-1.927.608-4.863,4.555c-.155.2-.313.42-.468.647a.2.2,0,0,0-.038.05l-.2.276a65.574,65.574,0,0,0-6.649,13.147c-6.65,16.922-4.342,43.986-8.183,58.054S-4024.553,981.56-4030.048,990.4Z" transform="translate(4122.857 -605.441)" fill="#fff"/>
                <path id="Path_5354" data-name="Path 5354" d="M-3949.406,883.378c-4.673,4.855-7.606,12.449-7.923,23.9s13.011,10.578,36.587,9.666c10.744-.415,26.108-.246,38.483,2.346,14.788,3.1,25.313,9.63,18.621,22.72-12.14,23.741-15.558,56.365-15.644,57.186-.038-.267-.258-1.774-1.353-9.049-1.538-10.183-2.582-31.075-2.582-31.075-5.2,19.982,1.145,64.214,1.145,64.214s.5,4.939-3.285,11.665-23.635,21.353-33.292,17.662l-.01,0a1.93,1.93,0,0,0-.417-.117l51.2,41.434c-.7-8.457-1.555-18.833-2.593-31.513q-.271-3.311-.561-6.839c-4.867-59.525-.6-66.292,4.027-82.907s14.9-44.577,31.818-54.094a33.681,33.681,0,0,1,9.178-3.536,34.121,34.121,0,0,1,14.115-.164c-7.571-2-18.534-5.2-32.764-10.061a55.246,55.246,0,0,0-13.318-2.624c-24.85-8.631-68.263-24.617-76.061-28.068a18.007,18.007,0,0,0-16.674,1.333s-1.927.608-4.863,4.555C-3952.239,875.993-3944.974,878.77-3949.406,883.378Z" transform="translate(4075.668 -605.441)" fill="#c9d6e8"/>
                <path id="Path_5355" data-name="Path 5355" d="M-3954.457,894.775a1.741,1.741,0,0,0,.2-.276Z" transform="translate(4073.853 -619.236)" fill="#c9d6e8"/>
              </g>
              <path id="Path_5356" data-name="Path 5356" d="M-4217.408,867.485c-1.233,0-1.938-.008-2-.009a.369.369,0,0,1-.364-.374.369.369,0,0,1,.369-.364h0c.518.008,52.139.592,70.028-9.041a.368.368,0,0,1,.5.15.369.369,0,0,1-.15.5C-4165.045,866.978-4207.666,867.485-4217.408,867.485Z" transform="translate(4241.234 -595.99)" fill="#db8882"/>
              <path id="Path_5357" data-name="Path 5357" d="M-2953,1435.379a.553.553,0,0,1-.3-.091c-30.582-20.163-45.876-51.12-46.027-51.429a.553.553,0,0,1,.255-.74.554.554,0,0,1,.74.255c.15.308,15.321,31,45.64,50.989a.553.553,0,0,1,.157.767A.552.552,0,0,1-2953,1435.379Z" transform="translate(3471.313 -927.465)" fill="#0d0d0c"/>
              <path id="Path_5358" data-name="Path 5358" d="M-3030.917,1207.765a.552.552,0,0,1-.459-.244c-.712-1.055-17.466-25.949-19.835-34.877-6.314-23.809-8.328-45.477-5.987-64.4,2.4-19.4,8.527-28.549,10.347-30.891,7.271-9.357,21.045-14.586,21.628-14.8a.553.553,0,0,1,.712.324.554.554,0,0,1-.324.713c-.14.052-14.066,5.341-21.142,14.447-1.776,2.286-7.756,11.229-10.122,30.348-2.325,18.785-.321,40.312,5.958,63.983,2.321,8.749,19.509,34.285,19.681,34.542a.553.553,0,0,1-.148.769A.552.552,0,0,1-3030.917,1207.765Z" transform="translate(3508.378 -725.232)" fill="#0d0d0c"/>
              <path id="Path_5359" data-name="Path 5359" d="M-3726,1200.225a.553.553,0,0,1-.55-.5c-.347-3.379-8.493-82.9-6.564-95.61,1.887-12.442,10.9-45.683,23.168-66.146a.554.554,0,0,1,.76-.19.553.553,0,0,1,.19.76c-12.194,20.332-21.146,53.374-23.022,65.743-1.908,12.576,6.486,94.5,6.571,95.331a.554.554,0,0,1-.494.607A.5.5,0,0,1-3726,1200.225Z" transform="translate(3934.398 -709.582)" fill="#0d0d0c"/>
              <path id="Path_5360" data-name="Path 5360" d="M-3746.746,1165.972a.554.554,0,0,1-.54-.435c-.615-2.79-14.983-68.509-8.758-84.234a.554.554,0,0,1,.718-.311.553.553,0,0,1,.311.718c-6.1,15.412,8.66,82.908,8.81,83.588a.553.553,0,0,1-.421.66A.568.568,0,0,1-3746.746,1165.972Z" transform="translate(3949.661 -736.868)" fill="#0d0d0c"/>
            </g>
          </g>
          <g id="Group_2700" data-name="Group 2700" transform="translate(412.109 0)">
            <g id="Group_2695" data-name="Group 2695" transform="translate(15.748)">
              <circle id="Ellipse_206" data-name="Ellipse 206" cx="160.736" cy="160.736" r="160.736"/>
            </g>
            <g id="Group_2699" data-name="Group 2699" transform="translate(0 18.319)">
              <g id="Group_2696" data-name="Group 2696" transform="translate(11.426)">
                <circle id="Ellipse_207" data-name="Ellipse 207" cx="154.885" cy="154.885" r="154.885" fill="#fff"/>
              </g>
              <path id="Path_5361" data-name="Path 5361" d="M-3152.049,466.445c4.288,2.973,10.746.836,16.953-16.294s-.814-44.092-.814-44.092l-25.524,31.968Z" transform="translate(3161.435 -327.838)"/>
              <g id="Group_2697" data-name="Group 2697" transform="translate(30.289 18.863)" opacity="0.5">
                <circle id="Ellipse_208" data-name="Ellipse 208" cx="136.022" cy="136.022" r="136.022" fill="#c9d6e8"/>
              </g>
              <g id="Group_2698" data-name="Group 2698" transform="translate(2.889 14.357)">
                <path id="Path_5362" data-name="Path 5362" d="M-2862.657,960.847a.546.546,0,0,1-.194-.035c-3.709-1.383-7.414-2.946-11.014-4.645a.553.553,0,0,1-.264-.737.554.554,0,0,1,.737-.265c3.572,1.686,7.248,3.236,10.928,4.609a.553.553,0,0,1,.325.712A.554.554,0,0,1-2862.657,960.847Z" transform="translate(2977.323 -688.587)" fill="#0d0d0c"/>
                <path id="Path_5363" data-name="Path 5363" d="M-2951.179,514.093q-6.964,0-13.918-.7a.554.554,0,0,1-.5-.606.552.552,0,0,1,.606-.5,139.663,139.663,0,0,0,139.939-79.238A138.47,138.47,0,0,0-2819.9,326.5a138.476,138.476,0,0,0-71.708-78.987c-69.5-32.8-152.739-2.946-185.543,66.559a138.613,138.613,0,0,0-5.677,105.054.555.555,0,0,1-.342.7.554.554,0,0,1-.7-.342,139.716,139.716,0,0,1,5.722-105.889,139.622,139.622,0,0,1,33.326-44.743,140.025,140.025,0,0,1,46.289-27.534,140.012,140.012,0,0,1,53.236-8.168,139.613,139.613,0,0,1,54.167,13.356,139.617,139.617,0,0,1,44.742,33.326,140.02,140.02,0,0,1,27.534,46.289,140.02,140.02,0,0,1,8.168,53.236,139.613,139.613,0,0,1-13.357,54.168,139.5,139.5,0,0,1-58.739,62.813,141.1,141.1,0,0,1-39.677,14.774A140.326,140.326,0,0,1-2951.179,514.093Z" transform="translate(3114.521 -233.038)" fill="#0d0d0c"/>
                <path id="Path_5364" data-name="Path 5364" d="M-3124.722,689.25c4.108-6.632-2.118-42.837-2.5-43.993s8.666-11.747,4.044-16.177-19.543-17.685-23.11-23.263-7.318,4.968-7.318,4.968l1.541,35.935Z" transform="translate(3153.609 -467.193)"/>
              </g>
            </g>
          </g>
          <path id="Path_5365" data-name="Path 5365" d="M-2252.6,694.531c-21.356,19.961-52.757,26.319-53.7,11.252a.011.011,0,0,1,0-.008c-.337-1.023-49.788-61.488-26.483-160.8l8.36-60.78-8.9-47.156-29.6-47.5-1.78-6.582c3.944-.32,17.223,10.494,19.573,14.361s5.037,3.544,4.748,3.013-5.774-21.82-5.774-21.82l-21.214-23.205-2.465-4.568s17.852,7.13,25.026,11.219,18.226,12.129,18.226,12.129l-4.375-12.159-27.912-22.081,31.345,8.276.83-9.478s30.082,3.634,34.376,6.863,23.109,22.1,29.054,41.3-5.009,39.51-4.934,65.144,5.319,44.585,18.624,120.574C-2237.367,642.255-2231.244,674.565-2252.6,694.531Z" transform="translate(3074.135 -266.988)"/>
          <g id="Group_2701" data-name="Group 2701" transform="translate(694.567 67.96)">
            <path id="Path_5366" data-name="Path 5366" d="M-2294.946,430.692c4.369-18.823,2.227-42.562-1.1-51.615s-12.482-28.628-15.1-32.184-17.368-10.693-19.871-9.359c0,0-8.158-5.923-14.64-5.345a10.767,10.767,0,0,0-8.788,5.78s-22.814-9.9-29.021-9.316-1.384,8.1,5.03,11.378,18.577,8.579,21.962,11.8,9.776,23.3,9.776,23.3-14.594-15.672-22.071-21.17-20.86-11.785-23.729-13.074-5.015,3.22-2.746,7.252,18.874,15.057,20.888,17.983,11.008,23.736,12.857,28.175a73.458,73.458,0,0,1,2.881,8.312s-6.539-3.968-9.195-9.521-7.46-14.173-13.454-17.856-9.077-.705-4.151,8.881,7.854,22.994,17.309,33.346,25.448,32.612,30.985,41.336,31.573.537,37.467-.464S-2298.724,446.97-2294.946,430.692Z" transform="translate(2396.198 -328.63)" fill="#f9cfcc"/>
            <path id="Path_5367" data-name="Path 5367" d="M-2268.072,361.03a20.465,20.465,0,0,1,3.844,2.925,40.136,40.136,0,0,1,3.3,3.543c1.036,1.24,2.013,2.526,2.944,3.845s1.815,2.669,2.648,4.058c1.625,2.789,3.213,5.57,4.781,8.378s3.094,5.634,4.575,8.49q-2.614-4.056-5.1-8.192c-1.655-2.752-3.293-5.532-4.889-8.305a80.081,80.081,0,0,0-5.394-7.926c-.986-1.259-2.008-2.491-3.112-3.649A22.835,22.835,0,0,0-2268.072,361.03Z" transform="translate(2315.365 -349.071)" fill="#0d0d0c"/>
            <path id="Path_5368" data-name="Path 5368" d="M-2215.7,358.989l.776.726c.265.238.487.515.732.772s.484.52.714.79l.686.812q1.354,1.64,2.6,3.361c1.679,2.283,3.266,4.629,4.806,7s3.014,4.793,4.426,7.246a78.936,78.936,0,0,1,3.927,7.53c-.7-1.232-1.427-2.441-2.176-3.638l-2.243-3.594c-1.51-2.387-3.02-4.773-4.553-7.144s-3.078-4.733-4.655-7.074c-.394-.585-.79-1.169-1.2-1.745s-.8-1.163-1.222-1.727l-.618-.859c-.207-.286-.431-.557-.646-.837C-2214.765,360.046-2215.24,359.528-2215.7,358.989Z" transform="translate(2282.325 -347.783)" fill="#0d0d0c"/>
            <path id="Path_5369" data-name="Path 5369" d="M-2311.348,633.627c6.706,11.652,5.431,65.8-3.408,98.163s-32.9,96.618-14.409,138.027,61.455,46.058,67.146,41.724,35.554-43.577,25.877-94.139c-14.36-75.035-22.491-163.032-22.376-173.615S-2311.348,633.627-2311.348,633.627Z" transform="translate(2358.205 -521.048)" fill="#f9cfcc"/>
          </g>
          <g id="Group_2709" data-name="Group 2709" transform="translate(205.738 45.782)">
            <path id="Path_5398" data-name="Path 5398" d="M-3455.917,552.207a32.429,32.429,0,0,1-5.1,4.2,34.712,34.712,0,0,1-8.85,4.017h-.007c-.4.123-.808.246-1.233.361q-1.307.4-2.492.816c-22.725,6.5-55.124-7.947-87.743-27.205-.44-1.166-25.767,11.09-26.307,9.965,0,0-32.119-11.182-55.935-43.24s-19.58-110.219,35.572-131.853,117.288,2.813,134.413,46.02c3.446,8.7,3.8,23.079,4.218,28.582s-1.823,8.216,1.658,13.894,15.023,13.305,17.263,16.055-3.909,10.8-3.909,10.8,2,14.543,4.7,31.358S-3450.708,547.125-3455.917,552.207Z" transform="translate(3680.668 -327.034)" fill="#f9cfcc"/>
            <path id="Path_5399" data-name="Path 5399" d="M-3173.455,528.549c-4.022,15.9-16.5,23.568-20.375,23.509s.512-3.936,2.958-12.2,1.918-29.072,1.918-29.072l9.544-8.356Z" transform="translate(3389.212 -416.098)"/>
            <path id="Path_5400" data-name="Path 5400" d="M-3288.965,893.472c-18.007,0-38.25-10.651-38.459-10.762a.369.369,0,0,1-.152-.5.369.369,0,0,1,.5-.152c.212.113,21.48,11.3,39.656,10.648a.372.372,0,0,1,.382.356.369.369,0,0,1-.355.382C-3287.916,893.463-3288.44,893.472-3288.965,893.472Z" transform="translate(3472.65 -655.575)" fill="#db8882"/>
            <path id="Path_5401" data-name="Path 5401" d="M-3561.889,614.567c.124,17.939-16.9,44.206-19.95,66.022s.209,30.342.209,30.342a49.7,49.7,0,0,1-34.479,3.682s-33.009-14.1-50.149-32.725-37.382-51.515-37.382-51.515Z" transform="translate(3709.877 -486.845)" fill="#c95380"/>
            <path id="Path_5402" data-name="Path 5402" d="M-3484.6,454.577c3.56,11.819,6.559,26.1-8.844,38.246s-15.812,16.272-14.134,18.589,1.089,7.257-5.42.847-3.445-15.446-3.445-15.446,2.353,3.889-5.712,8.836-35.508,25.2-44.059,34.1-5.452-12.828-5.452-12.828l-2.869,24.322-9.1,9.583-7.864-15.885-39.181-3.192s-3.636,2.85-3.349,3,.726,3.854-1.736,8.081l-7.371-13.7,18.232-35.678,131.149-77.37Z" transform="translate(3671.701 -367.929)"/>
            <path id="Path_5403" data-name="Path 5403" d="M-3668.7,299.312c4.192-16.981,40.752-36.734,76.453-29.068s46.524,8.85,60.251,17.495,14.76,5.148,13.824,2.53,2.775-1.619,3.153,3.325a5.206,5.206,0,0,1-4.1,5.773s15.686,13.613,20.859,26.5.375,39.972-2.484,46.274-3.265,2.021-3.237-2.855-1.167-19.26-9.243-28.815c0,0,5.793,21.343.932,36.29s-21.884,26.208-21.038,21.512,3.546-16.622,1.553-26.006-18.216-28.176-18.216-28.176,12.731,12.043,7.411,29.865c-1.8,6.033-3.812,16.424-15.355,24.679s-11.879,19.181-9.518,22.5-3.128,2.727-5.763-3.181a19,19,0,0,1,.816-18.077s-32.433,23.09-39.119,35.194-7.648,12.654-7.844,18.1-4.432.358-4.276-6.225c0,0-6.173,10.205-8.839,15.888s-11.877,1.748-11.761-3.4a3.459,3.459,0,0,1-2.051,3.375c-2.358,1.264-11.291-3.659-11.291-3.659s6.5,5.3,2.055,6.393-11.629-.623-31.377-22.067c0,0,4.118,8.267,1.439,13.03s-4.205,3.422-4.049-1.474-6.863-8.252-18.782-22.738c-9.727-11.821-19.876-60.352-3.872-89.974,10.847-20.075,34.831-34.292,34.831-34.292a16.988,16.988,0,0,1,1.588-15.11c4.887-7.478,15.342-11.03,13.5-8.824C-3669.083,292.262-3668.7,299.312-3668.7,299.312Z" transform="translate(3720.537 -268.542)" fill="#ed759d"/>
            <path id="Path_5404" data-name="Path 5404" d="M-3424.772,350.935c1.333,2.483,2.627,4.99,3.818,7.548.31.634.592,1.28.886,1.922s.59,1.283.863,1.934l.835,1.947.782,1.97c1.014,2.638,1.958,5.309,2.744,8.033a76.213,76.213,0,0,1,1.915,8.292,58.688,58.688,0,0,1,.472,17.027,58.349,58.349,0,0,1-1.656,8.386,67.478,67.478,0,0,1-2.811,8.059,82.459,82.459,0,0,1-3.694,7.672l-2.034,3.7c-.344.61-.655,1.237-.977,1.859s-.651,1.241-.947,1.875a117.164,117.164,0,0,0-6.334,15.565,123.817,123.817,0,0,0-4.151,16.314,101.064,101.064,0,0,0-1.726,16.77,93.574,93.574,0,0,1,1.158-16.865,115.271,115.271,0,0,1,3.771-16.519,115.5,115.5,0,0,1,6.15-15.815c.294-.645.626-1.27.939-1.906s.628-1.269.969-1.89l1.992-3.727c1.293-2.481,2.491-5.007,3.56-7.585a63.071,63.071,0,0,0,4.362-16.076,59.986,59.986,0,0,0-.282-16.65,77.48,77.48,0,0,0-1.7-8.209q-1.088-4.056-2.475-8.037c-.925-2.651-1.942-5.273-3.019-7.872l-.822-1.944-.854-1.931C-3423.594,353.494-3424.193,352.22-3424.772,350.935Z" transform="translate(3541.548 -320.523)" fill="#fff"/>
            <path id="Path_5405" data-name="Path 5405" d="M-3512.2,323.132a12.616,12.616,0,0,1,2.047,4.855,21.649,21.649,0,0,1,.333,5.3,51.375,51.375,0,0,1-1.83,10.448c-.923,3.416-2.052,6.767-3.232,10.094s-2.435,6.624-3.693,9.916c-2.506,6.589-5.1,13.134-7.419,19.772a181.112,181.112,0,0,0-5.97,20.178c-.767,3.417-1.414,6.861-1.841,10.33a75.567,75.567,0,0,0-.555,10.449,111.769,111.769,0,0,0,2.364,20.848,154.763,154.763,0,0,0,5.634,20.292,153.569,153.569,0,0,0,8.146,19.464c-.88-1.527-1.7-3.086-2.5-4.659s-1.538-3.174-2.271-4.778c-1.452-3.216-2.816-6.473-4.064-9.777a155.414,155.414,0,0,1-6.067-20.3c-.774-3.453-1.4-6.943-1.843-10.459a99.451,99.451,0,0,1-.805-10.608,76.639,76.639,0,0,1,.528-10.647,103.788,103.788,0,0,1,1.843-10.478,176.226,176.226,0,0,1,6.1-20.317c2.4-6.644,5.028-13.192,7.682-19.717,2.626-6.534,5.273-13.065,7.282-19.794a50.93,50.93,0,0,0,2.13-10.279,21.6,21.6,0,0,0-.164-5.234A12.516,12.516,0,0,0-3512.2,323.132Z" transform="translate(3603.977 -302.982)" fill="#fff"/>
            <path id="Path_5406" data-name="Path 5406" d="M-3651.485,380.479a117.364,117.364,0,0,0-21.526,26.432,84.185,84.185,0,0,0-6.975,15.5,79.168,79.168,0,0,0-2.244,8.2q-.894,4.155-1.378,8.387a100.473,100.473,0,0,0-.378,17.015c.024.712.092,1.42.138,2.13s.093,1.42.162,2.128c.142,1.416.263,2.834.45,4.244.324,2.827.778,5.638,1.339,8.426a82.35,82.35,0,0,0,4.951,16.3,56.027,56.027,0,0,0,3.935,7.573,41.719,41.719,0,0,0,2.445,3.506,23.889,23.889,0,0,0,2.878,3.165,23.939,23.939,0,0,1-3.032-3.039,38.575,38.575,0,0,1-2.588-3.437,56.419,56.419,0,0,1-4.232-7.5,70.646,70.646,0,0,1-3.154-8.024,82.175,82.175,0,0,1-2.256-8.324c-.618-2.809-1.128-5.642-1.507-8.492-.215-1.422-.345-2.854-.506-4.282-.077-.715-.124-1.432-.187-2.147s-.131-1.432-.163-2.15c-.18-2.866-.312-5.745-.263-8.626s.207-5.762.521-8.63a79.48,79.48,0,0,1,3.723-16.874,74.339,74.339,0,0,1,3.234-8.022,85.533,85.533,0,0,1,4.058-7.629c1.5-2.461,3.105-4.848,4.8-7.171q2.589-3.45,5.43-6.689c1.918-2.135,3.889-4.221,5.958-6.2,1.017-1.01,2.079-1.972,3.131-2.942S-3652.562,381.42-3651.485,380.479Z" transform="translate(3698.488 -339.162)" fill="#fff"/>
            <path id="Path_5407" data-name="Path 5407" d="M-3616.11,452.758l-.866-2.792c-.245-.943-.457-1.9-.687-2.845-.209-.954-.359-1.919-.542-2.88-.1-.48-.152-.965-.216-1.45l-.19-1.455a73.194,73.194,0,0,1-.319-11.727,93.762,93.762,0,0,1,1.33-11.665c.69-3.854,1.6-7.666,2.652-11.433q1.625-5.639,3.723-11.123c1.42-3.642,2.965-7.237,4.71-10.735a105.859,105.859,0,0,1,5.737-10.215,57.689,57.689,0,0,1,7.158-9.241l-.925,1.129c-.308.375-.586.775-.88,1.161s-.581.777-.856,1.177-.564.789-.83,1.2c-.529.814-1.071,1.617-1.567,2.451-.251.415-.51.825-.755,1.243l-.725,1.26c-1.941,3.356-3.694,6.818-5.317,10.335-1.607,3.525-3.113,7.1-4.442,10.733-1.348,3.63-2.563,7.308-3.611,11.032a115.418,115.418,0,0,0-4.257,22.766,81.9,81.9,0,0,0-.109,11.59l.106,1.448c.037.483.063.967.133,1.447.126.959.221,1.926.375,2.883.174.953.335,1.911.521,2.864Z" transform="translate(3656.497 -329.522)" fill="#fff"/>
            <path id="Path_5408" data-name="Path 5408" d="M-3317.244,469.2c-.008-2.237.05-4.463.1-6.687l-.006-6.669c-.125-4.439-.221-8.875-.667-13.282a109.158,109.158,0,0,0-1.856-13.137c-.212-1.086-.5-2.153-.733-3.237-.133-.537-.284-1.068-.427-1.6s-.281-1.072-.456-1.6l-.49-1.589-.552-1.569a29.8,29.8,0,0,0-1.313-3.065,22.067,22.067,0,0,1,1.688,2.9l.711,1.526.64,1.557c.221.517.393,1.051.58,1.58s.376,1.059.549,1.593l.474,1.616c.15.541.328,1.076.45,1.623.261,1.091.546,2.179.766,3.28l.621,3.309c.312,2.221.649,4.443.816,6.678l.137,1.676c.048.559.094,1.117.107,1.677l.131,3.358c.053,1.119.026,2.239.018,3.358s-.026,2.238-.049,3.356c-.1,2.235-.261,4.467-.422,6.694C-3316.676,464.776-3316.927,467-3317.244,469.2Z" transform="translate(3470.139 -362.057)" fill="#fff"/>
            <path id="Path_5409" data-name="Path 5409" d="M-3279.775,366.732a83.741,83.741,0,0,0-11.133-14.6l-1.621-1.621c-.545-.533-1.053-1.106-1.636-1.6l-1.7-1.534c-.569-.508-1.12-1.037-1.728-1.5l-1.778-1.441c-.592-.481-1.174-.975-1.8-1.407l-1.854-1.341c-.617-.448-1.23-.9-1.882-1.3l-1.919-1.247-.959-.624c-.316-.212-.658-.385-.986-.58l-1.986-1.138-.993-.569c-.329-.194-.678-.35-1.015-.529l-2.041-1.04c-.681-.347-1.355-.705-2.062-1l-2.1-.927c-.7-.31-1.388-.645-2.108-.9a103.059,103.059,0,0,0-17.606-5.3,76.316,76.316,0,0,1,18.02,4.227c.74.234,1.45.546,2.17.834l2.15.89c.724.281,1.417.629,2.117.966l2.1,1.011c.709.319,1.38.711,2.056,1.092l2.03,1.143c.336.2.684.369,1.009.583l.98.628,1.963,1.257c.661.409,1.282.876,1.908,1.337l1.877,1.38c.637.445,1.227.952,1.826,1.447l1.791,1.49c.608.484,1.156,1.036,1.725,1.565l1.693,1.6c.579.518,1.087,1.107,1.623,1.668l1.583,1.706A65.51,65.51,0,0,1-3279.775,366.732Z" transform="translate(3479.629 -305.125)" fill="#fff"/>
          </g>
          <path id="Path_5587" data-name="Path 5587" d="M294.219,717.641S288.606,842.9,319.143,846.857s259,1.7,284.445-11.875,26.579-61.64,26.579-61.64l39.585,79.735L290.868,876.263Z" transform="translate(-88.481 -218.303)" fill="#d6dce6"/>
        </g>
      </g>
      <g id="Group_2831" data-name="Group 2831" transform="translate(-757.432 -29.878)">
        <g id="Group_2425" data-name="Group 2425" transform="translate(866.857 447.297)">
          <line id="Line_143" data-name="Line 143" x2="212.807" transform="translate(0 8.341)" fill="none" stroke="#a9bcd3" stroke-linecap="round" stroke-linejoin="round" stroke-width="1.5"/>
          <g id="Group_2829" data-name="Group 2829" transform="translate(85.581 0)">
            <rect id="Rectangle_196" data-name="Rectangle 196" width="41.979" height="16.682" rx="8.341" transform="translate(0 0)" fill="#a9bcd3"/>
            <g id="Group_2828" data-name="Group 2828" transform="translate(8.708 4.392)">
              <path id="Path_6271" data-name="Path 6271" d="M1139.946,636.185a5.337,5.337,0,0,1-1.976-.306v-.744a5.007,5.007,0,0,0,.911.25,5.6,5.6,0,0,0,.994.087,2.821,2.821,0,0,0,1.314-.239.894.894,0,0,0,.438-.861.977.977,0,0,0-.178-.616,1.337,1.337,0,0,0-.586-.387,8.8,8.8,0,0,0-1.09-.321,3.366,3.366,0,0,1-1.518-.688,1.506,1.506,0,0,1-.438-1.136,1.6,1.6,0,0,1,.6-1.32,2.9,2.9,0,0,1,1.834-.484,6.462,6.462,0,0,1,1.059.081,4.86,4.86,0,0,1,.754.173v.733a4.594,4.594,0,0,0-.795-.2,5.44,5.44,0,0,0-.887-.071,2.726,2.726,0,0,0-1.283.245,1.022,1.022,0,0,0-.291,1.39,1.2,1.2,0,0,0,.535.356,8.392,8.392,0,0,0,1.049.311,4.541,4.541,0,0,1,1.253.463,1.592,1.592,0,0,1,.631.637,1.836,1.836,0,0,1,.183.835,1.575,1.575,0,0,1-.631,1.339A3.12,3.12,0,0,1,1139.946,636.185Z" transform="translate(-1137.817 -629.217)" fill="#fff"/>
              <path id="Path_6272" data-name="Path 6272" d="M1154.608,635.7v-6.866h.835v2.557a2.833,2.833,0,0,1,.79-.448,2.943,2.943,0,0,1,1.054-.173,1.542,1.542,0,0,1,1.752,1.772V635.7h-.835v-3.128a1.143,1.143,0,0,0-.28-.881,1.376,1.376,0,0,0-.922-.249,2.2,2.2,0,0,0-.84.178,2.169,2.169,0,0,0-.718.463V635.7Z" transform="translate(-1148.74 -628.838)" fill="#fff"/>
              <path id="Path_6273" data-name="Path 6273" d="M1171.905,639.409a2.156,2.156,0,0,1-.845-.163,1.442,1.442,0,0,1-.621-.484,1.339,1.339,0,0,1-.234-.81,1.442,1.442,0,0,1,.438-1.085,2.007,2.007,0,0,1,1.426-.423h1.681v-.3a1.553,1.553,0,0,0-.107-.632.646.646,0,0,0-.4-.336,2.818,2.818,0,0,0-.866-.1,4.884,4.884,0,0,0-.845.071,5.023,5.023,0,0,0-.764.194v-.693a4.25,4.25,0,0,1,.769-.2,5.65,5.65,0,0,1,.953-.076,2.413,2.413,0,0,1,1.543.418,1.647,1.647,0,0,1,.515,1.355v3.158h-.7l-.061-.55a1.992,1.992,0,0,1-.764.489A3.277,3.277,0,0,1,1171.905,639.409Zm.214-.682a2.207,2.207,0,0,0,.937-.189,2.048,2.048,0,0,0,.693-.514v-.937h-1.661a1.233,1.233,0,0,0-.815.214.822.822,0,0,0-.245.652.638.638,0,0,0,.3.606A1.61,1.61,0,0,0,1172.119,638.727Z" transform="translate(-1158.887 -632.441)" fill="#fff"/>
              <path id="Path_6274" data-name="Path 6274" d="M1186.558,639.307v-4.829h.754l.061.611a4.732,4.732,0,0,1,.841-.428,5.315,5.315,0,0,1,.952-.285v.652q-.285.061-.621.168t-.642.24a2.906,2.906,0,0,0-.51.275v3.6Z" transform="translate(-1169.526 -632.441)" fill="#fff"/>
              <path id="Path_6275" data-name="Path 6275" d="M1198.057,639.409a2.684,2.684,0,0,1-1.936-.622,2.557,2.557,0,0,1-.641-1.915,2.776,2.776,0,0,1,.554-1.829,2.161,2.161,0,0,1,1.758-.667,2.386,2.386,0,0,1,1.177.26,1.668,1.668,0,0,1,.693.713,2.234,2.234,0,0,1,.23,1.024v.907h-3.576a1.883,1.883,0,0,0,.239.866,1.1,1.1,0,0,0,.6.453,3.381,3.381,0,0,0,1.065.138,3.568,3.568,0,0,0,1.365-.255v.652a3.442,3.442,0,0,1-.708.2A4.612,4.612,0,0,1,1198.057,639.409Zm-1.742-2.73h2.832v-.4a1.258,1.258,0,0,0-.311-.912,1.381,1.381,0,0,0-1.024-.321,1.426,1.426,0,0,0-1.182.407A1.978,1.978,0,0,0,1196.315,636.679Z" transform="translate(-1175.33 -632.441)" fill="#fff"/>
            </g>
          </g>
        </g>
        <g id="Group_2827" data-name="Group 2827" transform="translate(842.609 350.696)">
          <g id="Group_2807" data-name="Group 2807" transform="translate(27.772 0)">
            <path id="Path_6173" data-name="Path 6173" d="M979.22,382.927a4.338,4.338,0,0,1-1.651-.3,2.519,2.519,0,0,1-1.164-.938,2.925,2.925,0,0,1-.433-1.669,2.738,2.738,0,0,1,.92-2.174,4.193,4.193,0,0,1,2.814-.8H982.9v-.758a2.917,2.917,0,0,0-.243-1.308,1.411,1.411,0,0,0-.839-.686,5.239,5.239,0,0,0-1.659-.208,11.644,11.644,0,0,0-1.6.108,8.192,8.192,0,0,0-1.525.361v-1.227a9.18,9.18,0,0,1,1.579-.37,12.113,12.113,0,0,1,1.813-.135,8.181,8.181,0,0,1,.884.045,5.791,5.791,0,0,1,.776.135h3.1l-.073,1.209h-1.3a2.585,2.585,0,0,1,.433.956,5.452,5.452,0,0,1,.126,1.227v6.35H982.9v-4.474h-3.1a3.174,3.174,0,0,0-1.8.406,1.527,1.527,0,0,0-.578,1.344,1.446,1.446,0,0,0,.523,1.281,3.018,3.018,0,0,0,1.678.361,4.64,4.64,0,0,0,1.227-.144v1.227q-.307.072-.722.126A7.046,7.046,0,0,1,979.22,382.927Z" transform="translate(-935.207 -368.44)"/>
            <path id="Path_6174" data-name="Path 6174" d="M995.887,411.086v-2.364H994.7l.073-1.01h2.4v3.374Z" transform="translate(-947.996 -392.268)"/>
            <path id="Path_6175" data-name="Path 6175" d="M1012.025,382.927a3.856,3.856,0,0,1-2-.523,3.521,3.521,0,0,1-1.389-1.615,6.758,6.758,0,0,1-.505-2.823,5.564,5.564,0,0,1,1.191-3.762,4.6,4.6,0,0,1,3.68-1.38,5.25,5.25,0,0,1,2.571.55,3.436,3.436,0,0,1,1.434,1.434,4.115,4.115,0,0,1,.451,1.894v6.044h-1.48v-6.026a3.068,3.068,0,0,0-.288-1.353,2.075,2.075,0,0,0-.948-.938,3.878,3.878,0,0,0-1.777-.343,3.052,3.052,0,0,0-2.58,1.011,6.049,6.049,0,0,0-.1,5.746,2.433,2.433,0,0,0,1.994.821,6.189,6.189,0,0,0,.677-.036,3.063,3.063,0,0,0,.568-.108v1.227A5.259,5.259,0,0,1,1012.025,382.927Z" transform="translate(-957.17 -368.44)"/>
            <path id="Path_6176" data-name="Path 6176" d="M1044.041,382.747V373h1.335l.09,1.173a5.668,5.668,0,0,1,1.542-.983,5.1,5.1,0,0,1,2.03-.37,3.134,3.134,0,0,1,2.4.9,3.626,3.626,0,0,1,.848,2.58v6.441h-1.479v-6.423a2.261,2.261,0,0,0-.559-1.714,2.468,2.468,0,0,0-1.732-.523,3.614,3.614,0,0,0-1.687.388,5.017,5.017,0,0,0-1.308.965v7.307Z" transform="translate(-981.698 -368.44)"/>
            <path id="Path_6177" data-name="Path 6177" d="M1054.914,362.266v-1.7h-1.425v-1.065h2.49v1.7h3.951l-.073,1.064Z" transform="translate(-988.151 -359.343)"/>
            <path id="Path_6178" data-name="Path 6178" d="M1078.511,382.747v-6.3a4.605,4.605,0,0,0-.162-1.335,1.261,1.261,0,0,0-.659-.776,3.461,3.461,0,0,0-1.506-.253,6.874,6.874,0,0,0-1.254.126,6.977,6.977,0,0,0-1.236.343v-1.227a7.193,7.193,0,0,1,1.281-.361,7.721,7.721,0,0,1,1.479-.144,3.751,3.751,0,0,1,2.7.821,3.574,3.574,0,0,1,.839,2.643v6.459Z" transform="translate(-1001.951 -368.44)"/>
            <path id="Path_6179" data-name="Path 6179" d="M1103.2,382.927a5.953,5.953,0,0,1-3.13-.713,2.441,2.441,0,0,1-1.164-2.246,2.543,2.543,0,0,1,.388-1.434,2.331,2.331,0,0,1,1.091-.875,2.073,2.073,0,0,1-1.019-.721,2.207,2.207,0,0,1-.406-1.389,2.514,2.514,0,0,1,.812-2.048,3.131,3.131,0,0,1,2.075-.676,5.839,5.839,0,0,1,.848.054,4.357,4.357,0,0,1,.649.145v1.227a2.281,2.281,0,0,0-.559-.127,6.127,6.127,0,0,0-.668-.036,1.939,1.939,0,0,0-1.236.352,1.584,1.584,0,0,0,.082,2.274,2.325,2.325,0,0,0,1.371.37h1.028l.09,1.119h-1.173a1.962,1.962,0,0,0-1.425.46,1.748,1.748,0,0,0-.469,1.308q0,1.7,2.76,1.7a3.4,3.4,0,0,0,2.084-.532,2.012,2.012,0,0,0,.695-1.705V373h1.479v6.17a3.676,3.676,0,0,1-1.011,2.788A4.5,4.5,0,0,1,1103.2,382.927Z" transform="translate(-1019.171 -368.44)"/>
            <path id="Path_6180" data-name="Path 6180" d="M1135.212,382.927a4.257,4.257,0,0,1-2.932-.911,3.314,3.314,0,0,1-1.019-2.607v-1.317a2.2,2.2,0,0,1,.252-1.028,5.723,5.723,0,0,1,.6-.92q.343-.433.6-.812a1.289,1.289,0,0,0,.252-.7q0-.307-.135-.388a.949.949,0,0,0-.46-.081h-1.3l.126-1.155h2a1.093,1.093,0,0,1,1.245,1.227,2.362,2.362,0,0,1-.253,1.1,6.5,6.5,0,0,1-.6.938,7.821,7.821,0,0,0-.6.9,1.958,1.958,0,0,0-.252.974v1.425a1.853,1.853,0,0,0,.668,1.606,3,3,0,0,0,1.8.487,3.077,3.077,0,0,0,1.831-.487,1.886,1.886,0,0,0,.676-1.642v-1.245a2.152,2.152,0,0,0-.325-1.38,1.539,1.539,0,0,0-1.191-.37h-.505l.072-1.173h.4a1.451,1.451,0,0,0,1.236-.433,2.239,2.239,0,0,0,.316-1.317v-.794h1.479v.776a3.736,3.736,0,0,1-.252,1.47,1.693,1.693,0,0,1-1.083.875,1.711,1.711,0,0,1,1.11.92,4.147,4.147,0,0,1,.226,1.461v1.064a3.284,3.284,0,0,1-1.056,2.616A4.314,4.314,0,0,1,1135.212,382.927Z" transform="translate(-1041.134 -368.44)"/>
            <path id="Path_6181" data-name="Path 6181" d="M1152.064,361.916v-2.923h1.479v2.923Z" transform="translate(-1055.479 -358.993)"/>
            <path id="Path_6182" data-name="Path 6182" d="M1164.805,382.927a6.843,6.843,0,0,1-2.724-.505v-1.245a6.724,6.724,0,0,0,1.145.352,5.79,5.79,0,0,0,1.236.135,4.535,4.535,0,0,0,2.075-.388,2.167,2.167,0,0,0,1.046-1.218,6.425,6.425,0,0,0,.307-2.183,4.306,4.306,0,0,0-.794-2.9,3.476,3.476,0,0,0-2.688-.884,5.651,5.651,0,0,0-1.209.126,5.343,5.343,0,0,0-1.118.379v-1.263a5.562,5.562,0,0,1,1.182-.379,7.39,7.39,0,0,1,1.452-.126,4.473,4.473,0,0,1,3.509,1.281,5.492,5.492,0,0,1,1.145,3.771,5.874,5.874,0,0,1-1.046,3.734A4.239,4.239,0,0,1,1164.805,382.927Z" transform="translate(-1062.32 -368.44)"/>
            <path id="Path_6183" data-name="Path 6183" d="M1193.58,382.927a5.954,5.954,0,0,1-3.13-.713,2.441,2.441,0,0,1-1.163-2.246,2.538,2.538,0,0,1,.388-1.434,2.333,2.333,0,0,1,1.091-.875,2.072,2.072,0,0,1-1.019-.721,2.206,2.206,0,0,1-.406-1.389,2.513,2.513,0,0,1,.812-2.048,3.131,3.131,0,0,1,2.075-.676,5.836,5.836,0,0,1,.848.054,4.352,4.352,0,0,1,.65.145v1.227a2.273,2.273,0,0,0-.559-.127,6.131,6.131,0,0,0-.668-.036,1.938,1.938,0,0,0-1.236.352,1.584,1.584,0,0,0,.081,2.274,2.323,2.323,0,0,0,1.371.37h1.028l.091,1.119h-1.173a1.962,1.962,0,0,0-1.425.46,1.748,1.748,0,0,0-.469,1.308q0,1.7,2.761,1.7a3.4,3.4,0,0,0,2.083-.532,2.012,2.012,0,0,0,.695-1.705V373h1.48v6.17a3.676,3.676,0,0,1-1.011,2.788A4.5,4.5,0,0,1,1193.58,382.927Z" transform="translate(-1080.901 -368.44)"/>
            <path id="Path_6184" data-name="Path 6184" d="M1222.019,382.747V378.8a2.483,2.483,0,0,1,.343-1.308,1.87,1.87,0,0,1,1.118-.8l-2.038-.469v-1.732a6.79,6.79,0,0,1,1.831-1.146,6.536,6.536,0,0,1,2.7-.514,4.913,4.913,0,0,1,3.2.893,3.468,3.468,0,0,1,1.074,2.823v6.206h-1.479v-6.26a2.334,2.334,0,0,0-.631-1.876,3.442,3.442,0,0,0-2.165-.523,6.16,6.16,0,0,0-1.885.28,3.281,3.281,0,0,0-1.344.749v.379l2.111.505v1.118a1.963,1.963,0,0,0-1.019.568,1.712,1.712,0,0,0-.333,1.146v3.915Z" transform="translate(-1102.864 -368.44)"/>
            <path id="Path_6185" data-name="Path 6185" d="M1258.462,382.927a3.858,3.858,0,0,1-2-.523,3.526,3.526,0,0,1-1.389-1.615,6.762,6.762,0,0,1-.505-2.823,5.564,5.564,0,0,1,1.191-3.762,4.6,4.6,0,0,1,3.68-1.38,5.248,5.248,0,0,1,2.571.55,3.436,3.436,0,0,1,1.434,1.434,4.11,4.11,0,0,1,.451,1.894v6.044h-1.48v-6.026a3.061,3.061,0,0,0-.288-1.353,2.072,2.072,0,0,0-.947-.938,3.879,3.879,0,0,0-1.777-.343,3.052,3.052,0,0,0-2.58,1.011,6.048,6.048,0,0,0-.1,5.746,2.433,2.433,0,0,0,1.994.821,6.179,6.179,0,0,0,.676-.036,3.059,3.059,0,0,0,.568-.108v1.227A5.259,5.259,0,0,1,1258.462,382.927Z" transform="translate(-1125.487 -368.44)"/>
            <path id="Path_6186" data-name="Path 6186" d="M1292.139,383.135a1.575,1.575,0,0,1-1.218-.478,1.771,1.771,0,0,1-.442-1.254v-8.01h1.479v7.65q0,.884.848.884h.848v1.209Zm4.132,0a1.575,1.575,0,0,1-1.218-.478,1.773,1.773,0,0,1-.442-1.254v-8.01h1.479v7.65q0,.884.849.884h.847v1.209Z" transform="translate(-1150.016 -368.828)"/>
            <path id="Path_6187" data-name="Path 6187" d="M1321.89,382.927a4.258,4.258,0,0,1-2.932-.911,3.314,3.314,0,0,1-1.019-2.607v-1.317a2.2,2.2,0,0,1,.253-1.028,5.664,5.664,0,0,1,.6-.92q.343-.433.6-.812a1.291,1.291,0,0,0,.252-.7q0-.307-.135-.388a.95.95,0,0,0-.46-.081h-1.3l.126-1.155h2a1.093,1.093,0,0,1,1.245,1.227,2.362,2.362,0,0,1-.253,1.1,6.5,6.5,0,0,1-.6.938,7.775,7.775,0,0,0-.6.9,1.958,1.958,0,0,0-.253.974v1.425a1.853,1.853,0,0,0,.668,1.606,3,3,0,0,0,1.8.487,3.075,3.075,0,0,0,1.831-.487,1.886,1.886,0,0,0,.676-1.642v-1.245a2.156,2.156,0,0,0-.324-1.38,1.54,1.54,0,0,0-1.191-.37h-.505l.072-1.173h.4a1.452,1.452,0,0,0,1.236-.433,2.238,2.238,0,0,0,.316-1.317v-.794h1.48v.776a3.729,3.729,0,0,1-.252,1.47.916.916,0,1,0,.027,1.8,4.141,4.141,0,0,1,.226,1.461v1.064a3.284,3.284,0,0,1-1.056,2.616A4.314,4.314,0,0,1,1321.89,382.927Z" transform="translate(-1168.635 -368.44)"/>
            <path id="Path_6188" data-name="Path 6188" d="M1352.2,382.927a12.945,12.945,0,0,1-1.759-.118,6.012,6.012,0,0,1-1.434-.352v-1.317a7.037,7.037,0,0,0,1.461.4,9.207,9.207,0,0,0,1.479.126,5.645,5.645,0,0,0,1.976-.262,1.1,1.1,0,0,0,.659-1.146,1.247,1.247,0,0,0-.334-.947,2.564,2.564,0,0,0-.947-.523q-.614-.207-1.479-.5a14.108,14.108,0,0,1-1.5-.6,3.256,3.256,0,0,1-1.136-.857,2.08,2.08,0,0,1-.433-1.371,2.258,2.258,0,0,1,.947-1.958,4.854,4.854,0,0,1,2.824-.676,9.78,9.78,0,0,1,1.57.126,8.047,8.047,0,0,1,1.3.307v1.3a6.475,6.475,0,0,0-1.29-.352,8.162,8.162,0,0,0-1.362-.118,5.153,5.153,0,0,0-1.867.262,1.04,1.04,0,0,0-.641,1.073,1.1,1.1,0,0,0,.334.839,2.736,2.736,0,0,0,.956.541q.623.226,1.506.514a10.782,10.782,0,0,1,1.569.64,2.986,2.986,0,0,1,1.074.884,2.321,2.321,0,0,1,.388,1.4,2.2,2.2,0,0,1-1.065,2.075A5.568,5.568,0,0,1,1352.2,382.927Z" transform="translate(-1189.822 -368.44)"/>
            <path id="Path_6189" data-name="Path 6189" d="M1358.263,363v-2.418h5.07l-.054,1.064h-3.771V363Z" transform="translate(-1196.313 -360.082)"/>
            <path id="Path_6190" data-name="Path 6190" d="M849.035,451.432a1.575,1.575,0,0,1-1.218-.478,1.772,1.772,0,0,1-.442-1.254v-8.01h1.479v7.649q0,.884.848.884h1.028v1.209Z" transform="translate(-847.375 -410.222)"/>
            <path id="Path_6191" data-name="Path 6191" d="M863.841,451.432,861.6,441.69h1.515l1.606,7.668,2.057-6.441V441.69h1.1l2.2,7.668,1.588-7.668h1.5l-2.219,9.742H869.47l-2-6.856-2.165,6.856Z" transform="translate(-857.094 -410.222)"/>
            <path id="Path_6192" data-name="Path 6192" d="M871.962,430.913l.072-1.065h3.7v-1.534h1.119v1.534h1.155v-1.534h1.119v2.6Z" transform="translate(-864.168 -401.087)"/>
            <path id="Path_6193" data-name="Path 6193" d="M890.573,420.123v-2.508h1.245v2.508Z" transform="translate(-876.879 -393.779)"/>
            <path id="Path_6194" data-name="Path 6194" d="M905.463,451.223a10.048,10.048,0,0,1-2.093-.207,9.909,9.909,0,0,1-1.642-.478v-4.907H905.3l.072,1.209h-2.165v2.76a6.551,6.551,0,0,0,1.055.262,6.953,6.953,0,0,0,1.164.1,4.072,4.072,0,0,0,1.867-.361,2.131,2.131,0,0,0,1.011-1.191,6.4,6.4,0,0,0,.316-2.219,6.252,6.252,0,0,0-.334-2.273,2.1,2.1,0,0,0-1.118-1.182,5.327,5.327,0,0,0-2.138-.352,12.2,12.2,0,0,0-1.6.108,8.133,8.133,0,0,0-1.561.361v-1.227a8.467,8.467,0,0,1,1.651-.379,14,14,0,0,1,1.885-.126,4.517,4.517,0,0,1,3.59,1.272,5.671,5.671,0,0,1,1.1,3.8,5.614,5.614,0,0,1-1.1,3.753A4.424,4.424,0,0,1,905.463,451.223Z" transform="translate(-884.498 -409.833)"/>
            <path id="Path_6195" data-name="Path 6195" d="M932.19,441.442a1.575,1.575,0,0,1-1.217-.478,1.772,1.772,0,0,1-.442-1.254v-6.26a3.257,3.257,0,0,1,.234-1.3,3.632,3.632,0,0,1,.568-.929,8.521,8.521,0,0,1,.677-.7,4.89,4.89,0,0,0,.577-.623,1.073,1.073,0,0,0,.235-.668.776.776,0,0,0-.343-.758,2.133,2.133,0,0,0-.975-.18,4.113,4.113,0,0,0-2,.559v-1.155a4.417,4.417,0,0,1,1.182-.469,5.309,5.309,0,0,1,1.272-.162,2.545,2.545,0,0,1,1.8.55,1.966,1.966,0,0,1,.586,1.506,1.848,1.848,0,0,1-.235.956,3.307,3.307,0,0,1-.577.722q-.343.325-.695.686a3.278,3.278,0,0,0-.586.83,2.563,2.563,0,0,0-.234,1.154v5.882q0,.884.848.884h1.028v1.209Z" transform="translate(-903.468 -400.232)"/>
            <path id="Path_6196" data-name="Path 6196" d="M948.4,451.432V441.69h1.479v3.157h3.23a1.738,1.738,0,0,0,2.093-1.967V441.69h1.479v1.173a3.547,3.547,0,0,1-.343,1.606,1.9,1.9,0,0,1-1.209.956,1.739,1.739,0,0,1,1.173.938,3.909,3.909,0,0,1,.271,1.516v3.554h-1.479v-3.374a2.172,2.172,0,0,0-.442-1.579,2.377,2.377,0,0,0-1.633-.424h-3.14v5.376Z" transform="translate(-916.374 -410.222)"/>
            <path id="Path_6197" data-name="Path 6197" d="M959.043,430.563v-1.7h-1.426V427.8h2.49v1.7h3.951l-.072,1.064Z" transform="translate(-922.671 -400.737)"/>
            <path id="Path_6198" data-name="Path 6198" d="M980.667,451.043v-6.315a3.447,3.447,0,0,1,1.02-2.67,4.62,4.62,0,0,1,3.2-.938,4.55,4.55,0,0,1,3.184.938,3.48,3.48,0,0,1,1,2.67v6.315H987.6v-6.477a1.935,1.935,0,0,0-.695-1.678,3.391,3.391,0,0,0-2.012-.505,3.462,3.462,0,0,0-2.047.505,1.934,1.934,0,0,0-.694,1.678v2.255a3.07,3.07,0,0,1,2.093-.74h1.19l.073,1.209h-1.3a3.07,3.07,0,0,0-2.057.7v3.049Z" transform="translate(-938.414 -409.833)"/>
            <path id="Path_6199" data-name="Path 6199" d="M1016.926,451.613a3.128,3.128,0,0,1-2.409-.9,3.678,3.678,0,0,1-.839-2.6V441.69h1.479v6.4a2.335,2.335,0,0,0,.541,1.732,2.4,2.4,0,0,0,1.714.523,3.815,3.815,0,0,0,1.7-.379,4.725,4.725,0,0,0,1.335-.956V441.69h1.479v9.742h-1.335l-.09-1.173a5.353,5.353,0,0,1-1.533.983A5.165,5.165,0,0,1,1016.926,451.613Z" transform="translate(-960.96 -410.222)"/>
            <path id="Path_6200" data-name="Path 6200" d="M1046.175,451.043V441.3h1.336l.09,1.173a5.665,5.665,0,0,1,1.543-.983,5.1,5.1,0,0,1,2.029-.37,3.135,3.135,0,0,1,2.4.9,3.628,3.628,0,0,1,.848,2.58v6.441h-1.479V444.62a2.262,2.262,0,0,0-.56-1.714,2.467,2.467,0,0,0-1.732-.523,3.613,3.613,0,0,0-1.687.388,5.021,5.021,0,0,0-1.308.965v7.307Z" transform="translate(-983.156 -409.833)"/>
            <path id="Path_6201" data-name="Path 6201" d="M1049.477,430.913l.072-1.065h5.846v-1.534h1.245v2.6Z" transform="translate(-985.411 -401.087)"/>
            <path id="Path_6202" data-name="Path 6202" d="M1068.087,420.123v-2.508h1.245v2.508Z" transform="translate(-998.122 -393.779)"/>
            <path id="Path_6203" data-name="Path 6203" d="M1078.673,451.043v-6.315a3.447,3.447,0,0,1,1.02-2.67,4.619,4.619,0,0,1,3.2-.938,4.55,4.55,0,0,1,3.184.938,3.48,3.48,0,0,1,1,2.67v6.315H1085.6v-6.477a1.935,1.935,0,0,0-.695-1.678,3.391,3.391,0,0,0-2.012-.505,3.462,3.462,0,0,0-2.047.505,1.934,1.934,0,0,0-.694,1.678v2.255a3.07,3.07,0,0,1,2.092-.74h1.191l.073,1.209h-1.3a3.07,3.07,0,0,0-2.057.7v3.049Z" transform="translate(-1005.352 -409.833)"/>
            <path id="Path_6204" data-name="Path 6204" d="M1098.531,479.383v-2.364h-1.191l.072-1.01h2.4v3.374Z" transform="translate(-1018.102 -433.662)"/>
            <path id="Path_6205" data-name="Path 6205" d="M1120.811,451.223a3,3,0,0,1-2.336-.9,3.728,3.728,0,0,1-.821-2.6v-2.941a2.417,2.417,0,0,0-.6-1.876,3.2,3.2,0,0,0-2.093-.523,5.7,5.7,0,0,0-1.813.28,3.289,3.289,0,0,0-1.308.748v.379l2.111.505v1.118a1.962,1.962,0,0,0-1.019.568,1.714,1.714,0,0,0-.334,1.146v1.822q0,.884.848.884h1.029v1.209h-1.7a1.575,1.575,0,0,1-1.218-.478,1.773,1.773,0,0,1-.442-1.254v-2.219a2.483,2.483,0,0,1,.343-1.308,1.871,1.871,0,0,1,1.118-.8l-2.038-.469V442.78a6.944,6.944,0,0,1,1.8-1.146,6.2,6.2,0,0,1,2.625-.514,4.657,4.657,0,0,1,3.121.893,3.549,3.549,0,0,1,1.028,2.824v2.868a2.359,2.359,0,0,0,.532,1.732,2.274,2.274,0,0,0,1.651.523,3.388,3.388,0,0,0,1.615-.379,5.072,5.072,0,0,0,1.271-.956V441.3h1.48v9.742h-1.335l-.09-1.173a5.672,5.672,0,0,1-1.47.983A4.663,4.663,0,0,1,1120.811,451.223Z" transform="translate(-1027.121 -409.833)"/>
            <path id="Path_6206" data-name="Path 6206" d="M1166.388,451.432a1.575,1.575,0,0,1-1.218-.478,1.771,1.771,0,0,1-.442-1.254v-8.01h1.479v7.649q0,.884.848.884h.848v1.209Zm4.131,0a1.575,1.575,0,0,1-1.218-.478,1.773,1.773,0,0,1-.442-1.254v-8.01h1.479v7.649q0,.884.848.884h.848v1.209Z" transform="translate(-1064.128 -410.222)"/>
            <path id="Path_6207" data-name="Path 6207" d="M1193.127,451.043v-6.315a3.447,3.447,0,0,1,1.02-2.67,4.62,4.62,0,0,1,3.2-.938,4.551,4.551,0,0,1,3.185.938,3.48,3.48,0,0,1,1,2.67v6.315h-1.48v-6.477a1.936,1.936,0,0,0-.694-1.678,3.393,3.393,0,0,0-2.012-.505,3.463,3.463,0,0,0-2.047.505,1.935,1.935,0,0,0-.694,1.678v2.255a3.071,3.071,0,0,1,2.093-.74h1.191l.072,1.209h-1.3a3.07,3.07,0,0,0-2.057.7v3.049Z" transform="translate(-1083.524 -409.833)"/>
            <path id="Path_6208" data-name="Path 6208" d="M1228.445,451.223a13,13,0,0,1-1.759-.117,6.022,6.022,0,0,1-1.434-.352v-1.317a7.043,7.043,0,0,0,1.461.4,9.2,9.2,0,0,0,1.48.126,5.645,5.645,0,0,0,1.975-.262,1.1,1.1,0,0,0,.658-1.146,1.246,1.246,0,0,0-.334-.947,2.564,2.564,0,0,0-.947-.523l-1.479-.5a14.209,14.209,0,0,1-1.5-.6,3.262,3.262,0,0,1-1.137-.857,2.08,2.08,0,0,1-.433-1.371,2.257,2.257,0,0,1,.947-1.957,4.853,4.853,0,0,1,2.824-.677,9.776,9.776,0,0,1,1.57.126,8.016,8.016,0,0,1,1.3.307v1.3a6.466,6.466,0,0,0-1.29-.352,8.2,8.2,0,0,0-1.362-.117,5.162,5.162,0,0,0-1.867.261,1.041,1.041,0,0,0-.641,1.074,1.1,1.1,0,0,0,.334.839,2.738,2.738,0,0,0,.956.541q.622.226,1.506.514a10.8,10.8,0,0,1,1.57.64,2.987,2.987,0,0,1,1.073.884,2.317,2.317,0,0,1,.388,1.4,2.2,2.2,0,0,1-1.065,2.075A5.57,5.57,0,0,1,1228.445,451.223Z" transform="translate(-1105.293 -409.833)"/>
            <path id="Path_6209" data-name="Path 6209" d="M1234.5,431.3v-2.418h5.07l-.055,1.064h-3.77V431.3Z" transform="translate(-1111.784 -401.475)"/>
            <path id="Path_6210" data-name="Path 6210" d="M1253.4,451.432V441.69h1.479v3.157h3.229a1.738,1.738,0,0,0,2.093-1.967V441.69h1.479v1.173a3.546,3.546,0,0,1-.343,1.606,1.9,1.9,0,0,1-1.208.956,1.74,1.74,0,0,1,1.172.938,3.912,3.912,0,0,1,.271,1.516v3.554h-1.479v-3.374a2.173,2.173,0,0,0-.442-1.579,2.379,2.379,0,0,0-1.633-.424h-3.139v5.376Z" transform="translate(-1124.691 -410.222)"/>
            <path id="Path_6211" data-name="Path 6211" d="M1274.514,430.213V427.29h1.479v2.923Z" transform="translate(-1139.112 -400.387)"/>
            <path id="Path_6212" data-name="Path 6212" d="M1287.64,451.043v-6.3a4.59,4.59,0,0,0-.163-1.335,1.26,1.26,0,0,0-.658-.776,3.455,3.455,0,0,0-1.507-.253,6.878,6.878,0,0,0-1.254.126,6.983,6.983,0,0,0-1.236.343v-1.227a7.189,7.189,0,0,1,1.281-.361,7.722,7.722,0,0,1,1.479-.145,3.752,3.752,0,0,1,2.7.821,3.575,3.575,0,0,1,.839,2.643v6.459Z" transform="translate(-1144.787 -409.833)"/>
            <path id="Path_6213" data-name="Path 6213" d="M1310.944,451.613q-.343,0-.8-.036a2.784,2.784,0,0,1-.785-.162l-2.742-6.675h1.443l2.309,5.611a2.788,2.788,0,0,0,2.535-.884,5.113,5.113,0,0,0,.821-3.23,6.781,6.781,0,0,0-.234-1.994,1.725,1.725,0,0,0-.785-1.037,3.2,3.2,0,0,0-1.542-.307h-.631V441.69h.794a3.623,3.623,0,0,1,2.977,1.11,5.363,5.363,0,0,1,.9,3.419,7.243,7.243,0,0,1-.568,3.1,3.834,3.834,0,0,1-1.525,1.741A4.264,4.264,0,0,1,1310.944,451.613Z" transform="translate(-1161.036 -410.222)"/>
            <path id="Path_6214" data-name="Path 6214" d="M1338.106,441.559a1.576,1.576,0,0,1-1.218-.478,1.771,1.771,0,0,1-.442-1.254V431.51a3.706,3.706,0,0,1,.442-1.894,3.406,3.406,0,0,1,1.128-1.191h-3.23v-1.191h5.052v1.173a2.788,2.788,0,0,0-1.506,1.308,5.31,5.31,0,0,0-.406,2.282v7.469q0,.884.848.884h1.029v1.209Z" transform="translate(-1180.278 -400.349)"/>
            <path id="Path_6215" data-name="Path 6215" d="M1353.8,451.043v-3.951a2.478,2.478,0,0,1,.343-1.308,1.871,1.871,0,0,1,1.118-.8l-2.038-.469V442.78a6.8,6.8,0,0,1,1.831-1.146,6.542,6.542,0,0,1,2.7-.514,4.912,4.912,0,0,1,3.2.893,3.469,3.469,0,0,1,1.073,2.824v6.206h-1.48v-6.26a2.334,2.334,0,0,0-.631-1.876,3.441,3.441,0,0,0-2.165-.523,6.159,6.159,0,0,0-1.885.28,3.288,3.288,0,0,0-1.344.748v.379l2.111.505v1.118a1.961,1.961,0,0,0-1.019.568,1.712,1.712,0,0,0-.334,1.146v3.915Z" transform="translate(-1192.872 -409.833)"/>
            <path id="Path_6216" data-name="Path 6216" d="M1389.6,451.223a4.34,4.34,0,0,1-1.651-.3,2.516,2.516,0,0,1-1.164-.938,2.926,2.926,0,0,1-.433-1.669,2.737,2.737,0,0,1,.92-2.174,4.2,4.2,0,0,1,2.815-.8h3.193v-.758a2.921,2.921,0,0,0-.243-1.308,1.411,1.411,0,0,0-.839-.686,5.245,5.245,0,0,0-1.66-.208,11.667,11.667,0,0,0-1.6.108,8.187,8.187,0,0,0-1.524.361v-1.227a9.13,9.13,0,0,1,1.579-.37,12.1,12.1,0,0,1,1.813-.135,4.394,4.394,0,0,1,3,.857,3.494,3.494,0,0,1,.947,2.715v6.351h-1.48v-4.474h-3.1a3.173,3.173,0,0,0-1.8.406,1.527,1.527,0,0,0-.578,1.344,1.445,1.445,0,0,0,.524,1.281,3.016,3.016,0,0,0,1.678.361,4.637,4.637,0,0,0,1.227-.144v1.227q-.307.072-.722.126A7.048,7.048,0,0,1,1389.6,451.223Z" transform="translate(-1215.497 -409.833)"/>
            <path id="Path_6217" data-name="Path 6217" d="M1422.263,451.223a5.516,5.516,0,0,1-.712-.054,3.318,3.318,0,0,1-.658-.145l-1.516-4.041h-1.155l.072-1.209h2.039l1.57,4.186a3.121,3.121,0,0,0,1.606-.28,2.683,2.683,0,0,0,1.227-1.236,5.107,5.107,0,0,0,.469-2.381,5.4,5.4,0,0,0-.361-2.165,2.2,2.2,0,0,0-1.173-1.164,5.642,5.642,0,0,0-2.2-.352,11.416,11.416,0,0,0-1.525.108,8.154,8.154,0,0,0-1.542.361v-1.227a9.136,9.136,0,0,1,1.578-.37,12.615,12.615,0,0,1,1.885-.135,4.706,4.706,0,0,1,3.663,1.281,5.29,5.29,0,0,1,1.154,3.663,5.967,5.967,0,0,1-.613,2.842,4.2,4.2,0,0,1-3.807,2.318Z" transform="translate(-1237.265 -409.833)"/>
            <path id="Path_6218" data-name="Path 6218" d="M1452.236,451.043v-6.3a4.6,4.6,0,0,0-.162-1.335,1.262,1.262,0,0,0-.659-.776,3.453,3.453,0,0,0-1.506-.253,6.875,6.875,0,0,0-1.254.126,6.98,6.98,0,0,0-1.236.343v-1.227a7.177,7.177,0,0,1,1.281-.361,7.719,7.719,0,0,1,1.479-.145,3.753,3.753,0,0,1,2.7.821,3.576,3.576,0,0,1,.839,2.643v6.459Z" transform="translate(-1257.207 -409.833)"/>
            <path id="Path_6219" data-name="Path 6219" d="M1473.209,451.043v-3.951a2.487,2.487,0,0,1,.343-1.308,1.873,1.873,0,0,1,1.119-.8l-2.039-.469V442.78a6.794,6.794,0,0,1,1.831-1.146,6.543,6.543,0,0,1,2.7-.514,4.91,4.91,0,0,1,3.2.893,3.467,3.467,0,0,1,1.073,2.824v6.206h-1.479v-6.26a2.335,2.335,0,0,0-.631-1.876,3.442,3.442,0,0,0-2.165-.523,6.159,6.159,0,0,0-1.885.28,3.279,3.279,0,0,0-1.344.748v.379l2.111.505v1.118a1.961,1.961,0,0,0-1.019.568,1.712,1.712,0,0,0-.334,1.146v3.915Z" transform="translate(-1274.427 -409.833)"/>
          </g>
          <g id="Group_2825" data-name="Group 2825" transform="translate(0 51.739)">
            <g id="Group_2808" data-name="Group 2808" transform="translate(0 4.668)">
              <path id="Path_6220" data-name="Path 6220" d="M842.188,512.619v-6.255h3.547l-.436,6.255Zm5.383,0v-6.255h3.548l-.435,6.255Z" transform="translate(-840.239 -504.415)" fill="#fff"/>
              <path id="Path_6221" data-name="Path 6221" d="M847.633,511.518h-3.112a1.95,1.95,0,0,0-2.272,0h-3.112a1.949,1.949,0,0,1-1.949-1.949v-6.255a1.949,1.949,0,0,1,1.949-1.949h3.547a1.953,1.953,0,0,0,1.836,0h3.548a1.949,1.949,0,0,1,1.945,2.085l-.436,6.255A1.95,1.95,0,0,1,847.633,511.518Z" transform="translate(-837.188 -501.364)" fill="#fff"/>
            </g>
            <g id="Group_2809" data-name="Group 2809" transform="translate(10.642 7.904)">
              <path id="Path_6222" data-name="Path 6222" d="M879.6,531.78a8.847,8.847,0,0,1-3.143-.529,9.119,9.119,0,0,1-2.52-1.432l-.187,1.649h-3.859v-5.975a4.758,4.758,0,0,1,.529-2.147,15.214,15.214,0,0,1,1.229-2.038q.7-.98,1.229-1.758a2.482,2.482,0,0,0,.529-1.276q0-.591-.5-.591a.991.991,0,0,0-.42.093,1.215,1.215,0,0,0-.358.249V519.3h-2.646v-4.637h2.77v.871a4.463,4.463,0,0,1,1.059-.622,3.778,3.778,0,0,1,1.462-.249,2.229,2.229,0,0,1,2.49,2.552,4.865,4.865,0,0,1-.483,2.147,17.274,17.274,0,0,1-1.1,1.945,18.9,18.9,0,0,0-1.1,1.914,4.46,4.46,0,0,0-.483,2.023v1.525a5.322,5.322,0,0,0,1.821,1.245,5.644,5.644,0,0,0,2.287.5,3.139,3.139,0,0,0,2.256-.732,3.279,3.279,0,0,0,.763-2.443V514.665h4.2v10.922a6.343,6.343,0,0,1-1.556,4.559A5.607,5.607,0,0,1,879.6,531.78Z" transform="translate(-867.534 -512.716)" fill="#fff"/>
              <path id="Path_6223" data-name="Path 6223" d="M876.547,530.679a10.822,10.822,0,0,1-3.832-.655q-.313-.118-.616-.253a1.946,1.946,0,0,1-1.4.6h-3.859a1.949,1.949,0,0,1-1.949-1.949v-5.975a6.711,6.711,0,0,1,.734-3.019q.312-.624.68-1.229a1.95,1.95,0,0,1-1.819-1.945v-4.637a1.95,1.95,0,0,1,1.949-1.95h2.77a1.941,1.941,0,0,1,.872.206,6.237,6.237,0,0,1,1.649-.206,4.148,4.148,0,0,1,4.439,4.5,6.812,6.812,0,0,1-.678,3,19.3,19.3,0,0,1-1.229,2.164,17.048,17.048,0,0,0-.992,1.717,2.521,2.521,0,0,0-.277,1.151v.635a4.355,4.355,0,0,0,.653.349,3.693,3.693,0,0,0,1.505.334,1.509,1.509,0,0,0,.907-.189h0a2.121,2.121,0,0,0,.163-1.036V511.615a1.95,1.95,0,0,1,1.949-1.95h4.2a1.95,1.95,0,0,1,1.949,1.95v10.922a8.244,8.244,0,0,1-2.093,5.9A7.508,7.508,0,0,1,876.547,530.679Zm-7.76-4.21h.17a1.949,1.949,0,0,1,.787-1.282c-.049-.049-.1-.1-.143-.15a1.951,1.951,0,0,1-.512-1.317v-1.525a6.41,6.41,0,0,1,.114-1.209c-.032.061-.063.122-.093.182a2.812,2.812,0,0,0-.323,1.275Zm11.327-12.905v8.724a5.113,5.113,0,0,1-1.363,3.85,4.277,4.277,0,0,1-.367.314,3.036,3.036,0,0,0,1.015-.7,4.466,4.466,0,0,0,1.018-3.214v-8.973Zm-11.036,1.411h0Zm2.675-1.411a2.5,2.5,0,0,1,.482,1.028,3.3,3.3,0,0,0,.027-.426,1.585,1.585,0,0,0-.071-.544A1.414,1.414,0,0,0,871.754,513.564Z" transform="translate(-864.483 -509.665)" fill="#fff"/>
            </g>
            <g id="Group_2810" data-name="Group 2810" transform="translate(27.913 7.593)">
              <path id="Path_6224" data-name="Path 6224" d="M921.281,530.982V520.651a4.433,4.433,0,0,0-.654-2.6,3.045,3.045,0,0,0-2.614-.918,10.983,10.983,0,0,0-2.178.234,13.2,13.2,0,0,0-2.054.576v-3.081a10.437,10.437,0,0,1,2.3-.716,13.622,13.622,0,0,1,2.739-.28q3.547,0,5.1,1.509a6.266,6.266,0,0,1,1.556,4.683v10.922Z" transform="translate(-911.831 -511.918)" fill="#fff"/>
              <path id="Path_6225" data-name="Path 6225" d="M922.43,529.881h-4.2a1.949,1.949,0,0,1-1.949-1.949V517.6a2.834,2.834,0,0,0-.261-1.42,2.617,2.617,0,0,0-1.057-.147,9.1,9.1,0,0,0-1.791.194,11.4,11.4,0,0,0-1.75.488,1.949,1.949,0,0,1-2.641-1.823v-3.081a1.95,1.95,0,0,1,1.126-1.767,12.24,12.24,0,0,1,2.736-.859,15.644,15.644,0,0,1,3.129-.319c2.919,0,5.032.674,6.46,2.059a8.13,8.13,0,0,1,2.148,6.083v10.922A1.949,1.949,0,0,1,922.43,529.881Zm-2.251-3.9h.3v-8.973a4.51,4.51,0,0,0-.964-3.284,2.823,2.823,0,0,0-1.073-.607,3.618,3.618,0,0,1,.721.753,6.319,6.319,0,0,1,1.015,3.729Z" transform="translate(-908.78 -508.867)" fill="#fff"/>
            </g>
            <g id="Group_2811" data-name="Group 2811" transform="translate(41.886 7.593)">
              <path id="Path_6226" data-name="Path 6226" d="M956.65,531.294a7.376,7.376,0,0,1-3.609-.871,6.052,6.052,0,0,1-2.505-2.723,10.76,10.76,0,0,1-.918-4.777q0-4.45,1.571-6.753a4.894,4.894,0,0,1,4.248-2.3,4.165,4.165,0,0,1,2.085.435,3.9,3.9,0,0,1,1.245,1.151,4.363,4.363,0,0,1,1.727-1.151,6.107,6.107,0,0,1,2.256-.435A3.867,3.867,0,0,1,966,515.205a5.561,5.561,0,0,1,1.043,3.516v12.26h-4.2V519.375a3.735,3.735,0,0,0-.3-1.665,1.156,1.156,0,0,0-1.136-.575,1.588,1.588,0,0,0-1.011.358,1.939,1.939,0,0,0-.637,1.073H957.74a3.691,3.691,0,0,0-.653-1.073,1.314,1.314,0,0,0-1-.358,1.983,1.983,0,0,0-1.976,1.6,14.058,14.058,0,0,0-.513,4.186q0,2.832,1,3.967a3.526,3.526,0,0,0,2.8,1.136,10.7,10.7,0,0,0,1.167-.062,5.316,5.316,0,0,0,.981-.186v3.081a6.1,6.1,0,0,1-1.245.327A10.7,10.7,0,0,1,956.65,531.294Z" transform="translate(-947.668 -511.918)" fill="#fff"/>
              <path id="Path_6227" data-name="Path 6227" d="M953.6,530.192a9.335,9.335,0,0,1-4.547-1.112,7.992,7.992,0,0,1-3.315-3.566,12.711,12.711,0,0,1-1.12-5.642c0-3.4.625-5.968,1.911-7.852a6.848,6.848,0,0,1,5.858-3.153,5.97,5.97,0,0,1,3.067.7c.144.085.285.174.419.269a7.608,7.608,0,0,1,.854-.4,8.084,8.084,0,0,1,2.973-.572,5.736,5.736,0,0,1,4.789,2.089,7.473,7.473,0,0,1,1.455,4.715v12.26a1.949,1.949,0,0,1-1.949,1.949h-4.2a1.4,1.4,0,0,0-2.594-.256,8.092,8.092,0,0,1-1.642.434A12.521,12.521,0,0,1,953.6,530.192Zm8.142-4.21h.3V515.671a3.718,3.718,0,0,0-.631-2.318,1.416,1.416,0,0,0-.932-.515,2.91,2.91,0,0,1,.749.931,5.536,5.536,0,0,1,.512,2.556Zm-12.765-10.043a14.428,14.428,0,0,0-.46,3.933,8.949,8.949,0,0,0,.715,3.911q.069.14.143.271a9.536,9.536,0,0,1-.773-4.181A17.752,17.752,0,0,1,948.977,515.939Zm7.518,6.838a1.951,1.951,0,0,1,1.349.542V517.1a1.947,1.947,0,0,1-1.131.361h-2.023a1.949,1.949,0,0,1-1.779-1.152,12.388,12.388,0,0,0-.411,3.559c0,2,.426,2.585.512,2.682a1.58,1.58,0,0,0,1.335.472,8.889,8.889,0,0,0,.956-.051,3.407,3.407,0,0,0,.619-.112A1.948,1.948,0,0,1,956.495,522.777Z" transform="translate(-944.618 -508.867)" fill="#fff"/>
            </g>
            <g id="Group_2812" data-name="Group 2812" transform="translate(61.584 7.593)">
              <path id="Path_6228" data-name="Path 6228" d="M1000.918,530.982V525.63a6.283,6.283,0,0,1,.482-2.536,2.832,2.832,0,0,1,1.914-1.54l-3.174-.84V516.7a12.549,12.549,0,0,1,3.408-1.961,12.788,12.788,0,0,1,4.87-.871,12.6,12.6,0,0,1,4.31.653,5.231,5.231,0,0,1,2.738,2.178,7.785,7.785,0,0,1,.95,4.139v10.145h-4.2V520.744a3.6,3.6,0,0,0-.918-2.785,4.614,4.614,0,0,0-3.1-.825,7.808,7.808,0,0,0-2.567.4,5.686,5.686,0,0,0-1.883,1.027V519l3.454.933v2.552a2.556,2.556,0,0,0-1.665,1.011,4.333,4.333,0,0,0-.419,2.163v5.321Z" transform="translate(-998.191 -511.918)" fill="#fff"/>
              <path id="Path_6229" data-name="Path 6229" d="M1013.365,529.881h-4.2a1.949,1.949,0,0,1-1.949-1.949V517.694a2.146,2.146,0,0,0-.272-1.335,1.948,1.948,0,0,0-1.017-.288,1.946,1.946,0,0,1,.178.814v2.552a1.949,1.949,0,0,1-1.476,1.891,1.977,1.977,0,0,0-.487.176,3.647,3.647,0,0,0-.121,1.107v5.321a1.949,1.949,0,0,1-1.949,1.949h-4.2a1.949,1.949,0,0,1-1.95-1.949v-5.352a8.384,8.384,0,0,1,.543-3.071,1.95,1.95,0,0,1-1.321-1.845v-4.014a1.948,1.948,0,0,1,.684-1.483,14.538,14.538,0,0,1,3.936-2.282,14.774,14.774,0,0,1,5.607-1.016,14.589,14.589,0,0,1,4.979.772,7.156,7.156,0,0,1,3.724,2.979,9.691,9.691,0,0,1,1.245,5.169v10.145A1.949,1.949,0,0,1,1013.365,529.881Zm-2.252-3.9h.3v-8.2a5.983,5.983,0,0,0-.655-3.109,3.15,3.15,0,0,0-.99-1,5.607,5.607,0,0,1,1.343,4.02Zm-11.3,0h.3V522.61a7.961,7.961,0,0,1,.229-2.027.535.535,0,0,0-.212.24,4.394,4.394,0,0,0-.319,1.756Z" transform="translate(-995.14 -508.867)" fill="#fff"/>
            </g>
            <g id="Group_2813" data-name="Group 2813" transform="translate(80.131 7.593)">
              <path id="Path_6230" data-name="Path 6230" d="M1054,531.294a21.812,21.812,0,0,1-3.345-.249,11.885,11.885,0,0,1-2.6-.654V527a12.655,12.655,0,0,0,2.6.763,14.105,14.105,0,0,0,2.567.264,9.995,9.995,0,0,0,2.941-.311,1.237,1.237,0,0,0,.918-1.276,1.419,1.419,0,0,0-.482-1.151,4.549,4.549,0,0,0-1.478-.731q-1-.327-2.552-.856a12.729,12.729,0,0,1-3.563-1.82,3.58,3.58,0,0,1-1.292-3,4.409,4.409,0,0,1,1.743-3.626,8.359,8.359,0,0,1,5.259-1.385,19.914,19.914,0,0,1,2.925.218,14.606,14.606,0,0,1,2.4.529v3.361a9.838,9.838,0,0,0-2.349-.638,15.89,15.89,0,0,0-2.38-.2,8.75,8.75,0,0,0-2.536.327,1.311,1.311,0,0,0-1.073,1.322,1.152,1.152,0,0,0,.544,1,5.821,5.821,0,0,0,1.556.685q1.011.312,2.411.809a14.412,14.412,0,0,1,2.817,1.245,4.069,4.069,0,0,1,1.556,1.587,5.06,5.06,0,0,1,.482,2.334,4.035,4.035,0,0,1-1.882,3.656A9.6,9.6,0,0,1,1054,531.294Z" transform="translate(-1045.761 -511.918)" fill="#fff"/>
              <path id="Path_6231" data-name="Path 6231" d="M1050.946,530.192a23.853,23.853,0,0,1-3.645-.272,13.633,13.633,0,0,1-3.034-.774,1.949,1.949,0,0,1-1.215-1.805v-3.392a1.949,1.949,0,0,1,2.707-1.8,10.789,10.789,0,0,0,2.2.643,12.969,12.969,0,0,0,2.494.23q-.7-.233-1.566-.529a14.526,14.526,0,0,1-4.137-2.131,5.474,5.474,0,0,1-2.039-4.537,6.374,6.374,0,0,1,2.479-5.152c1.532-1.217,3.649-1.808,6.472-1.808a21.959,21.959,0,0,1,3.211.239,16.341,16.341,0,0,1,2.725.608,1.949,1.949,0,0,1,1.334,1.85v3.361a1.949,1.949,0,0,1-2.711,1.795,7.944,7.944,0,0,0-1.884-.506c-.536-.082-1.034-.136-1.489-.162q.456.156.959.334a16.035,16.035,0,0,1,3.177,1.417,6,6,0,0,1,2.274,2.356,6.987,6.987,0,0,1,.7,3.23,5.965,5.965,0,0,1-2.785,5.3A11.512,11.512,0,0,1,1050.946,530.192Zm4.52-8.677a3.532,3.532,0,0,1,.51,1.873,3.373,3.373,0,0,1-.35,1.534,2.386,2.386,0,0,0,.434-1.534,3.254,3.254,0,0,0-.265-1.44A1.681,1.681,0,0,0,1055.465,521.515Zm-8.573-6.951a2.623,2.623,0,0,0-.284,1.262,1.741,1.741,0,0,0,.449,1.387,3.094,3.094,0,0,1-.365-1.481A3.407,3.407,0,0,1,1046.893,514.565Z" transform="translate(-1042.71 -508.867)" fill="#fff"/>
            </g>
            <g id="Group_2814" data-name="Group 2814" transform="translate(99.611)">
              <path id="Path_6232" data-name="Path 6232" d="M1104.426,519.1a3.909,3.909,0,0,1-2.848-.84,3.658,3.658,0,0,1-.825-2.645V501.954a4.841,4.841,0,0,0-.762-2.925,4.651,4.651,0,0,0-2.319-1.556v-3.081h10.176v3.267h-4.886a3.753,3.753,0,0,1,1.494,1.618,5.835,5.835,0,0,1,.5,2.552v12.7a1.141,1.141,0,0,0,1.275,1.307h1.058V519.1Z" transform="translate(-1095.724 -492.443)" fill="#fff"/>
              <path id="Path_6233" data-name="Path 6233" d="M1104.238,518h-2.863a5.646,5.646,0,0,1-4.239-1.424,5.512,5.512,0,0,1-1.383-4.01V498.9a3.17,3.17,0,0,0-.378-1.764,2.8,2.8,0,0,0-1.381-.872,1.95,1.95,0,0,1-1.321-1.846v-3.081a1.949,1.949,0,0,1,1.949-1.949H1104.8a1.95,1.95,0,0,1,1.949,1.949v3.267a1.949,1.949,0,0,1-1.949,1.949h-1.208a8.836,8.836,0,0,1,.264,2.221v12.054h.384a1.949,1.949,0,0,1,1.949,1.949v3.267A1.949,1.949,0,0,1,1104.238,518Zm-4.86-21.338a8.528,8.528,0,0,1,.275,2.243v13.661a2.111,2.111,0,0,0,.266,1.28,2.179,2.179,0,0,0,1.225.252,3.179,3.179,0,0,1-1.189-2.621v-12.7a3.978,3.978,0,0,0-.3-1.7A1.823,1.823,0,0,0,1099.378,496.661Zm-2.573-3.37a6.17,6.17,0,0,1,1.2.936c.009-.045.019-.09.032-.135a1.947,1.947,0,0,1,.443-.8Z" transform="translate(-1092.673 -489.392)" fill="#fff"/>
            </g>
            <g id="Group_2815" data-name="Group 2815" transform="translate(109.943 7.593)">
              <path id="Path_6234" data-name="Path 6234" d="M1130.458,531.294a21.816,21.816,0,0,1-3.345-.249,11.891,11.891,0,0,1-2.6-.654V527a12.651,12.651,0,0,0,2.6.763,14.113,14.113,0,0,0,2.567.264,9.992,9.992,0,0,0,2.941-.311,1.237,1.237,0,0,0,.918-1.276,1.419,1.419,0,0,0-.482-1.151,4.545,4.545,0,0,0-1.478-.731q-1-.327-2.552-.856a12.736,12.736,0,0,1-3.563-1.82,3.58,3.58,0,0,1-1.291-3,4.409,4.409,0,0,1,1.743-3.626,8.358,8.358,0,0,1,5.259-1.385,19.92,19.92,0,0,1,2.925.218,14.588,14.588,0,0,1,2.4.529v3.361a9.843,9.843,0,0,0-2.349-.638,15.9,15.9,0,0,0-2.381-.2,8.75,8.75,0,0,0-2.536.327,1.311,1.311,0,0,0-1.074,1.322,1.153,1.153,0,0,0,.544,1,5.836,5.836,0,0,0,1.556.685q1.011.312,2.412.809a14.424,14.424,0,0,1,2.816,1.245,4.062,4.062,0,0,1,1.556,1.587,5.058,5.058,0,0,1,.482,2.334,4.035,4.035,0,0,1-1.883,3.656A9.6,9.6,0,0,1,1130.458,531.294Z" transform="translate(-1122.223 -511.918)" fill="#fff"/>
              <path id="Path_6235" data-name="Path 6235" d="M1127.407,530.192a23.854,23.854,0,0,1-3.644-.272,13.643,13.643,0,0,1-3.034-.774,1.949,1.949,0,0,1-1.215-1.805v-3.392a1.949,1.949,0,0,1,2.707-1.8,10.792,10.792,0,0,0,2.2.643,12.975,12.975,0,0,0,2.494.23q-.7-.233-1.566-.529a14.536,14.536,0,0,1-4.137-2.131,5.474,5.474,0,0,1-2.038-4.537,6.373,6.373,0,0,1,2.479-5.152c1.531-1.216,3.648-1.808,6.472-1.808a21.965,21.965,0,0,1,3.211.239,16.326,16.326,0,0,1,2.725.608,1.95,1.95,0,0,1,1.334,1.85v3.361a1.949,1.949,0,0,1-2.711,1.795,7.939,7.939,0,0,0-1.884-.506c-.536-.082-1.034-.136-1.489-.162q.456.156.959.334a16.048,16.048,0,0,1,3.177,1.417,5.993,5.993,0,0,1,2.274,2.357,6.983,6.983,0,0,1,.7,3.229,5.965,5.965,0,0,1-2.786,5.3A11.509,11.509,0,0,1,1127.407,530.192Zm4.52-8.677a3.534,3.534,0,0,1,.51,1.873,3.38,3.38,0,0,1-.349,1.533,2.389,2.389,0,0,0,.433-1.533,3.243,3.243,0,0,0-.266-1.44A1.664,1.664,0,0,0,1131.928,521.515Zm-8.574-6.948a2.623,2.623,0,0,0-.283,1.259,1.742,1.742,0,0,0,.449,1.387,3.093,3.093,0,0,1-.365-1.481A3.4,3.4,0,0,1,1123.354,514.567Z" transform="translate(-1119.172 -508.867)" fill="#fff"/>
            </g>
            <g id="Group_2816" data-name="Group 2816" transform="translate(125.409 7.593)">
              <path id="Path_6236" data-name="Path 6236" d="M1163.84,530.982V520.557a6.46,6.46,0,0,1,1.883-4.87q1.883-1.82,6.052-1.82t6.038,1.82a6.492,6.492,0,0,1,1.867,4.87v10.424h-4.2V520.246a2.8,2.8,0,0,0-.98-2.334,4.278,4.278,0,0,0-2.723-.778q-3.733,0-3.734,3.112v3.019a5.589,5.589,0,0,1,1.323-.716,4.443,4.443,0,0,1,1.6-.28h2.023l.124,3.33h-2.24a4.808,4.808,0,0,0-1.556.234,4.7,4.7,0,0,0-1.276.669v4.481Z" transform="translate(-1161.891 -511.918)" fill="#fff"/>
              <path id="Path_6237" data-name="Path 6237" d="M1176.629,529.881h-4.2a1.95,1.95,0,0,1-1.949-1.949v-3.479a1.937,1.937,0,0,1-.416.045h-2.24a3,3,0,0,0-.883.115v3.32a1.949,1.949,0,0,1-1.95,1.949h-4.2a1.949,1.949,0,0,1-1.949-1.949V517.507a8.365,8.365,0,0,1,2.477-6.272c1.625-1.571,4.117-2.368,7.407-2.368s5.782.8,7.4,2.374a8.4,8.4,0,0,1,2.456,6.266v10.424A1.949,1.949,0,0,1,1176.629,529.881Zm-2.252-3.9h.3v-8.475a4.589,4.589,0,0,0-1.279-3.474q-.078-.076-.164-.147a4.855,4.855,0,0,1,1.14,3.31Zm-11.638,0h.3V523.45a1.948,1.948,0,0,1,.793-1.569l.068-.05a1.949,1.949,0,0,1-.861-1.617V517.2a5.036,5.036,0,0,1,.964-3.135,4.569,4.569,0,0,0-1.266,3.447Zm5.177-8.713h2.023a1.939,1.939,0,0,1,.539.076V517.2c0-.614-.176-.754-.243-.807a2.513,2.513,0,0,0-1.511-.356c-1.785,0-1.785.513-1.785,1.162v.142A6.854,6.854,0,0,1,1167.916,517.269Z" transform="translate(-1158.84 -508.867)" fill="#fff"/>
            </g>
            <g id="Group_2817" data-name="Group 2817" transform="translate(144.236 7.904)">
              <path id="Path_6238" data-name="Path 6238" d="M1215.8,531.469a3.908,3.908,0,0,1-2.847-.84,3.659,3.659,0,0,1-.825-2.645V514.665h4.2v12.23a1.142,1.142,0,0,0,1.276,1.307h1.058v3.267Z" transform="translate(-1210.179 -512.716)" fill="#fff"/>
              <path id="Path_6239" data-name="Path 6239" d="M1215.613,530.368h-2.863a5.645,5.645,0,0,1-4.24-1.425,5.51,5.51,0,0,1-1.382-4.01V511.615a1.949,1.949,0,0,1,1.949-1.95h4.2a1.949,1.949,0,0,1,1.949,1.95V523.2h.385a1.95,1.95,0,0,1,1.949,1.949v3.267A1.95,1.95,0,0,1,1215.613,530.368Zm-4.586-16.8v11.369a2.109,2.109,0,0,0,.267,1.28,2.181,2.181,0,0,0,1.225.252,3.179,3.179,0,0,1-1.189-2.621v-10.28Z" transform="translate(-1207.128 -509.665)" fill="#fff"/>
            </g>
            <g id="Group_2818" data-name="Group 2818" transform="translate(152.918 7.904)">
              <path id="Path_6240" data-name="Path 6240" d="M1242.393,531.78a8.964,8.964,0,0,1-5.85-1.758,6.454,6.454,0,0,1-2.147-5.306V514.665h4.2v10.113q0,3.735,3.8,3.734t3.8-3.734V514.665h4.2v10.051a6.455,6.455,0,0,1-2.147,5.306A8.965,8.965,0,0,1,1242.393,531.78Z" transform="translate(-1232.447 -512.716)" fill="#fff"/>
              <path id="Path_6241" data-name="Path 6241" d="M1239.343,530.679a10.883,10.883,0,0,1-7.085-2.2,8.331,8.331,0,0,1-2.861-6.814V511.615a1.95,1.95,0,0,1,1.949-1.95h4.2a1.95,1.95,0,0,1,1.949,1.95v10.113c0,1.4.4,1.785,1.847,1.785s1.848-.384,1.848-1.785V511.615a1.949,1.949,0,0,1,1.949-1.95h4.2a1.95,1.95,0,0,1,1.949,1.95v10.051a8.33,8.33,0,0,1-2.862,6.814A10.876,10.876,0,0,1,1239.343,530.679Zm5.746-17.115v8.164a5.949,5.949,0,0,1-1.134,3.738l0,0a4.593,4.593,0,0,0,1.433-3.8v-8.1Zm-11.794,0v8.1a4.594,4.594,0,0,0,1.432,3.8l0,0a5.952,5.952,0,0,1-1.134-3.738v-8.164Z" transform="translate(-1229.396 -509.665)" fill="#fff"/>
            </g>
            <g id="Group_2819" data-name="Group 2819" transform="translate(170.251 7.593)">
              <path id="Path_6242" data-name="Path 6242" d="M1286.353,530.982V520.651a4.432,4.432,0,0,0-.654-2.6,3.043,3.043,0,0,0-2.613-.918,10.987,10.987,0,0,0-2.179.234,13.2,13.2,0,0,0-2.053.576v-3.081a10.414,10.414,0,0,1,2.3-.716,13.619,13.619,0,0,1,2.738-.28q3.548,0,5.1,1.509a6.267,6.267,0,0,1,1.556,4.683v10.922Z" transform="translate(-1276.904 -511.918)" fill="#fff"/>
              <path id="Path_6243" data-name="Path 6243" d="M1287.5,529.881h-4.2a1.949,1.949,0,0,1-1.949-1.949V517.6a2.826,2.826,0,0,0-.261-1.42,2.609,2.609,0,0,0-1.057-.147,9.1,9.1,0,0,0-1.791.194,11.4,11.4,0,0,0-1.75.488,1.949,1.949,0,0,1-2.64-1.823v-3.081a1.949,1.949,0,0,1,1.125-1.767,12.251,12.251,0,0,1,2.737-.859,15.639,15.639,0,0,1,3.129-.319c2.919,0,5.032.673,6.461,2.059a8.131,8.131,0,0,1,2.148,6.083v10.922A1.949,1.949,0,0,1,1287.5,529.881Zm-2.251-3.9h.3v-8.973a4.511,4.511,0,0,0-.964-3.284,2.824,2.824,0,0,0-1.073-.607,3.617,3.617,0,0,1,.72.753,6.318,6.318,0,0,1,1.015,3.729Z" transform="translate(-1273.853 -508.867)" fill="#fff"/>
            </g>
            <g id="Group_2820" data-name="Group 2820" transform="translate(184.846 7.904)">
              <path id="Path_6244" data-name="Path 6244" d="M1316.286,531.469v-16.8h4.2v5.1h4.17a2.853,2.853,0,0,0,2.225-.7,3.188,3.188,0,0,0,.607-2.132v-2.272h4.2v2.116a6.943,6.943,0,0,1-.513,2.754,3.179,3.179,0,0,1-1.883,1.727,3.044,3.044,0,0,1,1.789,1.54,5.69,5.69,0,0,1,.482,2.412v6.255h-4.2v-5.788a3.147,3.147,0,0,0-.607-2.21,3.032,3.032,0,0,0-2.194-.622h-4.077v8.62Z" transform="translate(-1314.337 -512.716)" fill="#fff"/>
              <path id="Path_6245" data-name="Path 6245" d="M1328.515,530.368h-4.2a1.95,1.95,0,0,1-1.949-1.949V522.63a3.331,3.331,0,0,0-.077-.81,3.264,3.264,0,0,0-.774-.072h-2.127v6.67a1.95,1.95,0,0,1-1.95,1.949h-4.2a1.949,1.949,0,0,1-1.95-1.949v-16.8a1.95,1.95,0,0,1,1.95-1.95h4.2a1.95,1.95,0,0,1,1.95,1.95v3.154h2.22a2.69,2.69,0,0,0,.777-.085,2.28,2.28,0,0,0,.1-.8v-2.271a1.95,1.95,0,0,1,1.95-1.95h4.2a1.949,1.949,0,0,1,1.949,1.95v2.116a8.912,8.912,0,0,1-.67,3.522,4.98,4.98,0,0,1-.54.954,4.506,4.506,0,0,1,.423.727,7.642,7.642,0,0,1,.663,3.231v6.255A1.949,1.949,0,0,1,1328.515,530.368Zm-2.252-3.9h.3v-4.305a3.8,3.8,0,0,0-.3-1.594.869.869,0,0,0-.431-.408,6.218,6.218,0,0,1,.432,2.469Zm-11.078,0h.3V519.8a1.95,1.95,0,0,0,0-3.081v-3.154h-.3Zm8.742-8.2a3.924,3.924,0,0,1,.382.187,1.959,1.959,0,0,1-.015-.237c0-.041,0-.083,0-.124C1324.179,518.155,1324.055,518.213,1323.927,518.266Zm2.461-4.7v.322a6.048,6.048,0,0,1-.392,2.264,1.018,1.018,0,0,0,.339-.435,5.052,5.052,0,0,0,.355-1.985v-.166Z" transform="translate(-1311.286 -509.665)" fill="#fff"/>
            </g>
            <g id="Group_2821" data-name="Group 2821" transform="translate(201.899 7.593)">
              <path id="Path_6246" data-name="Path 6246" d="M1365.376,531.294a13.533,13.533,0,0,1-5.352-1v-3.206a13.2,13.2,0,0,0,2.085.669,9.868,9.868,0,0,0,2.272.264,5.919,5.919,0,0,0,4.185-1.214q1.26-1.213,1.26-4.232t-1.26-4.232a5.918,5.918,0,0,0-4.185-1.214,10.436,10.436,0,0,0-2.272.249,10.715,10.715,0,0,0-2.085.684v-3.2a13.532,13.532,0,0,1,5.352-1q4.263,0,6.348,2.225t2.085,6.489q0,4.263-2.085,6.488T1365.376,531.294Z" transform="translate(-1358.075 -511.918)" fill="#fff"/>
              <path id="Path_6247" data-name="Path 6247" d="M1362.326,530.192a15.515,15.515,0,0,1-6.117-1.153,1.949,1.949,0,0,1-1.184-1.793v-3.206a1.949,1.949,0,0,1,2.7-1.8,11.3,11.3,0,0,0,1.777.569,7.939,7.939,0,0,0,1.824.212c1.861,0,2.574-.419,2.833-.668.2-.192.663-.852.663-2.828s-.464-2.636-.663-2.828c-.259-.25-.972-.669-2.833-.669a8.555,8.555,0,0,0-1.85.2,8.767,8.767,0,0,0-1.7.558,1.95,1.95,0,0,1-2.752-1.777v-3.2a1.949,1.949,0,0,1,1.185-1.793,15.521,15.521,0,0,1,6.117-1.152c3.389,0,6,.956,7.77,2.841,1.734,1.85,2.612,4.482,2.612,7.822s-.879,5.972-2.612,7.821C1368.33,529.236,1365.715,530.192,1362.326,530.192Zm5.359-15.275a10.745,10.745,0,0,1,0,9.226,10.017,10.017,0,0,0,0-9.226Z" transform="translate(-1355.024 -508.867)" fill="#fff"/>
            </g>
            <g id="Group_2822" data-name="Group 2822" transform="translate(215.934 7.593)">
              <path id="Path_6248" data-name="Path 6248" d="M1403.52,530.982V520.651a4.437,4.437,0,0,0-.653-2.6,3.043,3.043,0,0,0-2.614-.918,10.982,10.982,0,0,0-2.178.234,13.194,13.194,0,0,0-2.053.576v-3.081a10.411,10.411,0,0,1,2.3-.716,13.617,13.617,0,0,1,2.738-.28q3.548,0,5.1,1.509a6.267,6.267,0,0,1,1.556,4.683v10.922Z" transform="translate(-1394.072 -511.918)" fill="#fff"/>
              <path id="Path_6249" data-name="Path 6249" d="M1404.671,529.881h-4.2a1.949,1.949,0,0,1-1.95-1.949V517.6a2.836,2.836,0,0,0-.261-1.42,2.617,2.617,0,0,0-1.057-.147,9.1,9.1,0,0,0-1.791.194,11.4,11.4,0,0,0-1.75.488,1.949,1.949,0,0,1-2.64-1.823v-3.081a1.949,1.949,0,0,1,1.125-1.767,12.24,12.24,0,0,1,2.737-.859,15.627,15.627,0,0,1,3.129-.319c2.919,0,5.032.673,6.461,2.059a8.134,8.134,0,0,1,2.148,6.084v10.922A1.949,1.949,0,0,1,1404.671,529.881Zm-2.252-3.9h.3v-8.973a4.512,4.512,0,0,0-.964-3.284,2.819,2.819,0,0,0-1.073-.607,3.6,3.6,0,0,1,.72.753,6.32,6.32,0,0,1,1.015,3.729Z" transform="translate(-1391.021 -508.867)" fill="#fff"/>
            </g>
            <g id="Group_2823" data-name="Group 2823" transform="translate(230.528 7.904)">
              <path id="Path_6250" data-name="Path 6250" d="M1439.272,531.78a5.606,5.606,0,0,1-4.263-1.634,6.341,6.341,0,0,1-1.556-4.559V514.665h4.2v10.674a3.279,3.279,0,0,0,.763,2.443,3.138,3.138,0,0,0,2.256.732,5.61,5.61,0,0,0,2.3-.5,5.358,5.358,0,0,0,1.805-1.245V514.665h4.2v16.8h-3.858l-.187-1.649a9.121,9.121,0,0,1-2.521,1.432A8.848,8.848,0,0,1,1439.272,531.78Z" transform="translate(-1431.504 -512.716)" fill="#fff"/>
              <path id="Path_6251" data-name="Path 6251" d="M1436.222,530.679a7.5,7.5,0,0,1-5.675-2.239,8.241,8.241,0,0,1-2.094-5.9V511.615a1.949,1.949,0,0,1,1.949-1.95h4.2a1.95,1.95,0,0,1,1.949,1.95v10.674a2.012,2.012,0,0,0,.17,1.044,1.548,1.548,0,0,0,.9.18,3.647,3.647,0,0,0,1.511-.33,4.377,4.377,0,0,0,.648-.35V511.615a1.949,1.949,0,0,1,1.949-1.95h4.2a1.949,1.949,0,0,1,1.949,1.95v16.8a1.949,1.949,0,0,1-1.949,1.949h-3.858a1.947,1.947,0,0,1-1.4-.6q-.3.134-.615.253A10.827,10.827,0,0,1,1436.222,530.679Zm7.59-4.21h.169V513.564h-.3V523.72a1.949,1.949,0,0,1-.513,1.317c-.046.051-.094.1-.142.15A1.951,1.951,0,0,1,1443.812,526.469Zm-11.46-12.905v8.973a4.463,4.463,0,0,0,1.018,3.214,3.032,3.032,0,0,0,1.014.7,4.247,4.247,0,0,1-.368-.315,5.112,5.112,0,0,1-1.362-3.849v-8.724Z" transform="translate(-1428.453 -509.665)" fill="#fff"/>
            </g>
            <g id="Group_2824" data-name="Group 2824" transform="translate(248.328 4.668)">
              <path id="Path_6252" data-name="Path 6252" d="M1479.106,512.619v-6.255h3.548l-.436,6.255Zm5.384,0v-6.255h3.548l-.436,6.255Z" transform="translate(-1477.156 -504.415)" fill="#fff"/>
              <path id="Path_6253" data-name="Path 6253" d="M1484.551,511.518h-3.112a1.95,1.95,0,0,0-2.271,0h-3.113a1.95,1.95,0,0,1-1.949-1.949v-6.255a1.95,1.95,0,0,1,1.949-1.949h3.548a1.953,1.953,0,0,0,1.836,0h3.548a1.949,1.949,0,0,1,1.945,2.085l-.435,6.255A1.95,1.95,0,0,1,1484.551,511.518Z" transform="translate(-1474.106 -501.364)" fill="#fff"/>
            </g>
          </g>
          <g id="Group_2826" data-name="Group 2826" transform="translate(1.949 53.689)">
            <path id="Path_6254" data-name="Path 6254" d="M842.188,512.619v-6.255h3.547l-.436,6.255Zm5.383,0v-6.255h3.548l-.435,6.255Z" transform="translate(-842.188 -501.696)" fill="#ed759d"/>
            <path id="Path_6255" data-name="Path 6255" d="M879.6,531.78a8.847,8.847,0,0,1-3.143-.529,9.119,9.119,0,0,1-2.52-1.432l-.187,1.649h-3.859v-5.975a4.758,4.758,0,0,1,.529-2.147,15.214,15.214,0,0,1,1.229-2.038q.7-.98,1.229-1.758a2.482,2.482,0,0,0,.529-1.276q0-.591-.5-.591a.991.991,0,0,0-.42.093,1.215,1.215,0,0,0-.358.249V519.3h-2.646v-4.637h2.77v.871a4.463,4.463,0,0,1,1.059-.622,3.778,3.778,0,0,1,1.462-.249,2.229,2.229,0,0,1,2.49,2.552,4.865,4.865,0,0,1-.483,2.147,17.274,17.274,0,0,1-1.1,1.945,18.9,18.9,0,0,0-1.1,1.914,4.46,4.46,0,0,0-.483,2.023v1.525a5.322,5.322,0,0,0,1.821,1.245,5.644,5.644,0,0,0,2.287.5,3.139,3.139,0,0,0,2.256-.732,3.279,3.279,0,0,0,.763-2.443V514.665h4.2v10.922a6.343,6.343,0,0,1-1.556,4.559A5.607,5.607,0,0,1,879.6,531.78Z" transform="translate(-858.841 -506.761)" fill="#ed759d"/>
            <path id="Path_6256" data-name="Path 6256" d="M921.281,530.982V520.651a4.433,4.433,0,0,0-.654-2.6,3.045,3.045,0,0,0-2.614-.918,10.983,10.983,0,0,0-2.178.234,13.2,13.2,0,0,0-2.054.576v-3.081a10.437,10.437,0,0,1,2.3-.716,13.622,13.622,0,0,1,2.739-.28q3.547,0,5.1,1.509a6.266,6.266,0,0,1,1.556,4.683v10.922Z" transform="translate(-885.867 -506.274)" fill="#ed759d"/>
            <path id="Path_6257" data-name="Path 6257" d="M956.65,531.294a7.376,7.376,0,0,1-3.609-.871,6.052,6.052,0,0,1-2.505-2.723,10.76,10.76,0,0,1-.918-4.777q0-4.45,1.571-6.753a4.894,4.894,0,0,1,4.248-2.3,4.165,4.165,0,0,1,2.085.435,3.9,3.9,0,0,1,1.245,1.151,4.363,4.363,0,0,1,1.727-1.151,6.107,6.107,0,0,1,2.256-.435A3.867,3.867,0,0,1,966,515.205a5.561,5.561,0,0,1,1.043,3.516v12.26h-4.2V519.375a3.735,3.735,0,0,0-.3-1.665,1.156,1.156,0,0,0-1.136-.575,1.588,1.588,0,0,0-1.011.358,1.939,1.939,0,0,0-.637,1.073H957.74a3.691,3.691,0,0,0-.653-1.073,1.314,1.314,0,0,0-1-.358,1.983,1.983,0,0,0-1.976,1.6,14.058,14.058,0,0,0-.513,4.186q0,2.832,1,3.967a3.526,3.526,0,0,0,2.8,1.136,10.7,10.7,0,0,0,1.167-.062,5.316,5.316,0,0,0,.981-.186v3.081a6.1,6.1,0,0,1-1.245.327A10.7,10.7,0,0,1,956.65,531.294Z" transform="translate(-907.732 -506.274)" fill="#ed759d"/>
            <path id="Path_6258" data-name="Path 6258" d="M1000.918,530.982V525.63a6.283,6.283,0,0,1,.482-2.536,2.832,2.832,0,0,1,1.914-1.54l-3.174-.84V516.7a12.549,12.549,0,0,1,3.408-1.961,12.788,12.788,0,0,1,4.87-.871,12.6,12.6,0,0,1,4.31.653,5.231,5.231,0,0,1,2.738,2.178,7.785,7.785,0,0,1,.95,4.139v10.145h-4.2V520.744a3.6,3.6,0,0,0-.918-2.785,4.614,4.614,0,0,0-3.1-.825,7.808,7.808,0,0,0-2.567.4,5.686,5.686,0,0,0-1.883,1.027V519l3.454.933v2.552a2.556,2.556,0,0,0-1.665,1.011,4.333,4.333,0,0,0-.419,2.163v5.321Z" transform="translate(-938.556 -506.274)" fill="#ed759d"/>
            <path id="Path_6259" data-name="Path 6259" d="M1054,531.294a21.812,21.812,0,0,1-3.345-.249,11.885,11.885,0,0,1-2.6-.654V527a12.655,12.655,0,0,0,2.6.763,14.105,14.105,0,0,0,2.567.264,9.995,9.995,0,0,0,2.941-.311,1.237,1.237,0,0,0,.918-1.276,1.419,1.419,0,0,0-.482-1.151,4.549,4.549,0,0,0-1.478-.731q-1-.327-2.552-.856a12.729,12.729,0,0,1-3.563-1.82,3.58,3.58,0,0,1-1.292-3,4.409,4.409,0,0,1,1.743-3.626,8.359,8.359,0,0,1,5.259-1.385,19.914,19.914,0,0,1,2.925.218,14.606,14.606,0,0,1,2.4.529v3.361a9.838,9.838,0,0,0-2.349-.638,15.89,15.89,0,0,0-2.38-.2,8.75,8.75,0,0,0-2.536.327,1.311,1.311,0,0,0-1.073,1.322,1.152,1.152,0,0,0,.544,1,5.821,5.821,0,0,0,1.556.685q1.011.312,2.411.809a14.412,14.412,0,0,1,2.817,1.245,4.069,4.069,0,0,1,1.556,1.587,5.06,5.06,0,0,1,.482,2.334,4.035,4.035,0,0,1-1.882,3.656A9.6,9.6,0,0,1,1054,531.294Z" transform="translate(-967.579 -506.274)" fill="#ed759d"/>
            <path id="Path_6260" data-name="Path 6260" d="M1104.426,519.1a3.909,3.909,0,0,1-2.848-.84,3.658,3.658,0,0,1-.825-2.645V501.954a4.841,4.841,0,0,0-.762-2.925,4.651,4.651,0,0,0-2.319-1.556v-3.081h10.176v3.267h-4.886a3.753,3.753,0,0,1,1.494,1.618,5.835,5.835,0,0,1,.5,2.552v12.7a1.141,1.141,0,0,0,1.275,1.307h1.058V519.1Z" transform="translate(-998.062 -494.392)" fill="#ed759d"/>
            <path id="Path_6261" data-name="Path 6261" d="M1130.458,531.294a21.816,21.816,0,0,1-3.345-.249,11.891,11.891,0,0,1-2.6-.654V527a12.651,12.651,0,0,0,2.6.763,14.113,14.113,0,0,0,2.567.264,9.992,9.992,0,0,0,2.941-.311,1.237,1.237,0,0,0,.918-1.276,1.419,1.419,0,0,0-.482-1.151,4.545,4.545,0,0,0-1.478-.731q-1-.327-2.552-.856a12.736,12.736,0,0,1-3.563-1.82,3.58,3.58,0,0,1-1.291-3,4.409,4.409,0,0,1,1.743-3.626,8.358,8.358,0,0,1,5.259-1.385,19.92,19.92,0,0,1,2.925.218,14.588,14.588,0,0,1,2.4.529v3.361a9.843,9.843,0,0,0-2.349-.638,15.9,15.9,0,0,0-2.381-.2,8.75,8.75,0,0,0-2.536.327,1.311,1.311,0,0,0-1.074,1.322,1.153,1.153,0,0,0,.544,1,5.836,5.836,0,0,0,1.556.685q1.011.312,2.412.809a14.424,14.424,0,0,1,2.816,1.245,4.062,4.062,0,0,1,1.556,1.587,5.058,5.058,0,0,1,.482,2.334,4.035,4.035,0,0,1-1.883,3.656A9.6,9.6,0,0,1,1130.458,531.294Z" transform="translate(-1014.229 -506.274)" fill="#ed759d"/>
            <path id="Path_6262" data-name="Path 6262" d="M1163.84,530.982V520.557a6.46,6.46,0,0,1,1.883-4.87q1.883-1.82,6.052-1.82t6.038,1.82a6.492,6.492,0,0,1,1.867,4.87v10.424h-4.2V520.246a2.8,2.8,0,0,0-.98-2.334,4.278,4.278,0,0,0-2.723-.778q-3.733,0-3.734,3.112v3.019a5.589,5.589,0,0,1,1.323-.716,4.443,4.443,0,0,1,1.6-.28h2.023l.124,3.33h-2.24a4.808,4.808,0,0,0-1.556.234,4.7,4.7,0,0,0-1.276.669v4.481Z" transform="translate(-1038.431 -506.274)" fill="#ed759d"/>
            <path id="Path_6263" data-name="Path 6263" d="M1215.8,531.469a3.908,3.908,0,0,1-2.847-.84,3.659,3.659,0,0,1-.825-2.645V514.665h4.2v12.23a1.142,1.142,0,0,0,1.276,1.307h1.058v3.267Z" transform="translate(-1067.892 -506.761)" fill="#ed759d"/>
            <path id="Path_6264" data-name="Path 6264" d="M1242.393,531.78a8.964,8.964,0,0,1-5.85-1.758,6.454,6.454,0,0,1-2.147-5.306V514.665h4.2v10.113q0,3.735,3.8,3.734t3.8-3.734V514.665h4.2v10.051a6.455,6.455,0,0,1-2.147,5.306A8.965,8.965,0,0,1,1242.393,531.78Z" transform="translate(-1081.478 -506.761)" fill="#ed759d"/>
            <path id="Path_6265" data-name="Path 6265" d="M1286.353,530.982V520.651a4.432,4.432,0,0,0-.654-2.6,3.043,3.043,0,0,0-2.613-.918,10.987,10.987,0,0,0-2.179.234,13.2,13.2,0,0,0-2.053.576v-3.081a10.414,10.414,0,0,1,2.3-.716,13.619,13.619,0,0,1,2.738-.28q3.548,0,5.1,1.509a6.267,6.267,0,0,1,1.556,4.683v10.922Z" transform="translate(-1108.602 -506.274)" fill="#ed759d"/>
            <path id="Path_6266" data-name="Path 6266" d="M1316.286,531.469v-16.8h4.2v5.1h4.17a2.853,2.853,0,0,0,2.225-.7,3.188,3.188,0,0,0,.607-2.132v-2.272h4.2v2.116a6.943,6.943,0,0,1-.513,2.754,3.179,3.179,0,0,1-1.883,1.727,3.044,3.044,0,0,1,1.789,1.54,5.69,5.69,0,0,1,.482,2.412v6.255h-4.2v-5.788a3.147,3.147,0,0,0-.607-2.21,3.032,3.032,0,0,0-2.194-.622h-4.077v8.62Z" transform="translate(-1131.44 -506.761)" fill="#ed759d"/>
            <path id="Path_6267" data-name="Path 6267" d="M1365.376,531.294a13.533,13.533,0,0,1-5.352-1v-3.206a13.2,13.2,0,0,0,2.085.669,9.868,9.868,0,0,0,2.272.264,5.919,5.919,0,0,0,4.185-1.214q1.26-1.213,1.26-4.232t-1.26-4.232a5.918,5.918,0,0,0-4.185-1.214,10.436,10.436,0,0,0-2.272.249,10.715,10.715,0,0,0-2.085.684v-3.2a13.532,13.532,0,0,1,5.352-1q4.263,0,6.348,2.225t2.085,6.489q0,4.263-2.085,6.488T1365.376,531.294Z" transform="translate(-1158.126 -506.274)" fill="#ed759d"/>
            <path id="Path_6268" data-name="Path 6268" d="M1403.52,530.982V520.651a4.437,4.437,0,0,0-.653-2.6,3.043,3.043,0,0,0-2.614-.918,10.982,10.982,0,0,0-2.178.234,13.194,13.194,0,0,0-2.053.576v-3.081a10.411,10.411,0,0,1,2.3-.716,13.617,13.617,0,0,1,2.738-.28q3.548,0,5.1,1.509a6.267,6.267,0,0,1,1.556,4.683v10.922Z" transform="translate(-1180.088 -506.274)" fill="#ed759d"/>
            <path id="Path_6269" data-name="Path 6269" d="M1439.272,531.78a5.606,5.606,0,0,1-4.263-1.634,6.341,6.341,0,0,1-1.556-4.559V514.665h4.2v10.674a3.279,3.279,0,0,0,.763,2.443,3.138,3.138,0,0,0,2.256.732,5.61,5.61,0,0,0,2.3-.5,5.358,5.358,0,0,0,1.805-1.245V514.665h4.2v16.8h-3.858l-.187-1.649a9.121,9.121,0,0,1-2.521,1.432A8.848,8.848,0,0,1,1439.272,531.78Z" transform="translate(-1202.925 -506.761)" fill="#ed759d"/>
            <path id="Path_6270" data-name="Path 6270" d="M1479.106,512.619v-6.255h3.548l-.436,6.255Zm5.384,0v-6.255h3.548l-.436,6.255Z" transform="translate(-1230.778 -501.696)" fill="#ed759d"/>
          </g>
        </g>
      </g>
    </g>
  </g>
</svg>
