<svg id="Group_1110" data-name="Group 1110" xmlns="http://www.w3.org/2000/svg" width="432.034" height="427.373" viewBox="0 0 432.034 427.373">
  <g id="Group_1101" data-name="Group 1101" transform="translate(8.389)">
    <circle id="Ellipse_83" data-name="Ellipse 83" cx="211.822" cy="211.822" r="211.822"/>
  </g>
  <g id="Group_1109" data-name="Group 1109" transform="translate(0 36.215)">
    <g id="Group_1102" data-name="Group 1102">
      <circle id="Ellipse_84" data-name="Ellipse 84" cx="195.579" cy="195.579" r="195.579" fill="#fff"/>
    </g>
    <g id="Group_1103" data-name="Group 1103" transform="translate(48.524 48.524)">
      <circle id="Ellipse_85" data-name="Ellipse 85" cx="147.055" cy="147.055" r="147.055" fill="#c9d6e8"/>
    </g>
    <g id="Group_1104" data-name="Group 1104" transform="translate(35.377 35.377)">
      <path id="Path_1793" data-name="Path 1793" d="M5847.8,133.8q6.223,2.936,12.558,5.3" transform="translate(-5755.959 171.24)" fill="none" stroke="#0d0d0c" stroke-linecap="round" stroke-linejoin="round" stroke-width="3"/>
      <path id="Path_1794" data-name="Path 1794" d="M5898.613,143.093a160.231,160.231,0,0,0,160.8-91.05,160.164,160.164,0,0,0-76.48-213.2,160.164,160.164,0,0,0-213.2,76.481,159.641,159.641,0,0,0-6.523,120.714" transform="translate(-5754.37 176.52)" fill="none" stroke="#0d0d0c" stroke-linecap="round" stroke-linejoin="round" stroke-width="3"/>
    </g>
    <path id="Path_1795" data-name="Path 1795" d="M6045.073,45.037c51.128-59.631,38.043-141.044-5.572-178.711-31.873-27.527-76.216-33.987-99.5-27.052,0,0-18.859-7.691-64.306.531s-75.072,57.063-84,94.5Z" transform="translate(-5719.628 211.685)" fill="#080b0a"/>
    <g id="Group_1108" data-name="Group 1108" transform="translate(16.126 16.613)">
      <circle id="Ellipse_86" data-name="Ellipse 86" cx="119.126" cy="119.126" r="119.126" transform="translate(14.771 192.15) rotate(-45)" fill="#fdd89b"/>
      <path id="Path_1796" data-name="Path 1796" d="M5809.564-41.387c-11.323,37.433-4.733,80.363,19.382,111.113s65.774,47.558,104.169,39.75c17.982-3.657,34.68-12.241,49.633-22.873,15.339-10.908,29.235-24.253,38.7-40.5,15.874-27.256,17.844-62.1,5.143-90.91-14.943-33.9-48.5-57.426-84.594-66.083-37.326-8.951-80.292-1.976-107.222,25.394C5822.771-73.3,5814.513-57.746,5809.564-41.387Z" transform="translate(-5735.966 194.23)" fill="#c78c50"/>
      <g id="Group_1106" data-name="Group 1106" transform="translate(76.187 108.229)">
        <path id="Path_1797" data-name="Path 1797" d="M5841.459-73.26a2.4,2.4,0,0,0,3.075,1.451,2.4,2.4,0,0,0,1.451-3.075,2.4,2.4,0,0,0-3.075-1.451A2.4,2.4,0,0,0,5841.459-73.26Z" transform="translate(-5812.785 85.354)" fill="#f79922"/>
        <path id="Path_1798" data-name="Path 1798" d="M5891.309-48.345a2.4,2.4,0,0,0,3.075,1.451,2.4,2.4,0,0,0,1.451-3.075,2.4,2.4,0,0,0-3.075-1.451A2.4,2.4,0,0,0,5891.309-48.345Z" transform="translate(-5813.633 84.93)" fill="#f79922"/>
        <circle id="Ellipse_87" data-name="Ellipse 87" cx="0.718" cy="0.718" r="0.718" transform="translate(45.561 33.733)" fill="#f79922"/>
        <circle id="Ellipse_88" data-name="Ellipse 88" cx="1.759" cy="1.759" r="1.759" transform="translate(28.111 53.843)" fill="#f79922"/>
        <g id="Group_1105" data-name="Group 1105" transform="translate(167.657 90.147)">
          <circle id="Ellipse_89" data-name="Ellipse 89" cx="3.423" cy="3.423" r="3.423" transform="translate(0 0)" fill="#f79922"/>
        </g>
        <circle id="Ellipse_90" data-name="Ellipse 90" cx="2.164" cy="2.164" r="2.164" transform="translate(29.941 123.568)" fill="#f79922"/>
        <circle id="Ellipse_91" data-name="Ellipse 91" cx="3.629" cy="3.629" r="3.629" transform="translate(63.114 131.004)" fill="#f79922"/>
        <path id="Path_1799" data-name="Path 1799" d="M5970.988,57.286a2.813,2.813,0,1,0,1.7-3.6A2.813,2.813,0,0,0,5970.988,57.286Z" transform="translate(-5814.988 83.142)" fill="#f79922"/>
        <path id="Path_1800" data-name="Path 1800" d="M5937.276,49.076a1.312,1.312,0,1,0,.792-1.678A1.313,1.313,0,0,0,5937.276,49.076Z" transform="translate(-5814.417 83.247)" fill="#f79922"/>
        <circle id="Ellipse_92" data-name="Ellipse 92" cx="3.951" cy="3.951" r="3.951" transform="translate(183.108 56.394)" fill="#f79922"/>
        <circle id="Ellipse_93" data-name="Ellipse 93" cx="1.796" cy="1.796" r="1.796" transform="translate(92.727 1.439)" fill="#f79922"/>
        <circle id="Ellipse_94" data-name="Ellipse 94" cx="4.311" cy="4.311" r="4.311" transform="translate(155.779)" fill="#f79922"/>
        <path id="Path_1801" data-name="Path 1801" d="M5875.638-77.393l1.147-.411,1.146-.412-1.146.412Z" transform="translate(-5813.369 85.383)" fill="#f79922"/>
        <path id="Path_1802" data-name="Path 1802" d="M5835.587,28.4a2.826,2.826,0,1,0,1.706-3.614A2.826,2.826,0,0,0,5835.587,28.4Z" transform="translate(-5812.685 83.633)" fill="#f79922"/>
        <circle id="Ellipse_95" data-name="Ellipse 95" cx="2.164" cy="2.164" r="2.164" transform="translate(64.509 94.142)" fill="#f79922"/>
        <circle id="Ellipse_96" data-name="Ellipse 96" cx="2.164" cy="2.164" r="2.164" transform="translate(139.586 36.696)" fill="#f79922"/>
        <path id="Path_1803" data-name="Path 1803" d="M5870.754-1.537a2.827,2.827,0,0,0,3.615,1.705,2.826,2.826,0,0,0,1.706-3.614,2.826,2.826,0,0,0-3.614-1.705A2.826,2.826,0,0,0,5870.754-1.537Z" transform="translate(-5813.283 84.143)" fill="#f79922"/>
        <circle id="Ellipse_97" data-name="Ellipse 97" cx="4.535" cy="4.535" r="4.535" transform="translate(102.657 163.626)" fill="#f79922"/>
        <circle id="Ellipse_98" data-name="Ellipse 98" cx="2.514" cy="2.514" r="2.514" transform="translate(198.542 129.829)" fill="#fcb830"/>
        <path id="Path_1804" data-name="Path 1804" d="M6024.943,19.4a3.538,3.538,0,1,0,2.136-4.525A3.537,3.537,0,0,0,6024.943,19.4Z" transform="translate(-5815.906 83.803)" fill="#fcb830"/>
        <circle id="Ellipse_99" data-name="Ellipse 99" cx="1.407" cy="1.407" r="1.407" transform="translate(207.455 118.564)" fill="#fcb830"/>
        <circle id="Ellipse_100" data-name="Ellipse 100" cx="1.616" cy="1.616" r="1.616" transform="translate(0 39.125)" fill="#fcb830"/>
      </g>
      <circle id="Ellipse_101" data-name="Ellipse 101" cx="119.126" cy="119.126" r="119.126" transform="translate(0 168.47) rotate(-45)" fill="#fdd89b"/>
      <path id="Path_1805" data-name="Path 1805" d="M5794.538-65.477c-11.323,37.432-4.733,80.363,19.382,111.113s65.775,47.558,104.169,39.75c17.983-3.657,34.681-12.241,49.634-22.874,15.339-10.907,29.235-24.252,38.7-40.5,15.873-27.256,17.844-62.1,5.142-90.911-14.944-33.9-48.495-57.425-84.593-66.082-37.326-8.952-80.292-1.976-107.223,25.394C5807.744-97.389,5799.486-81.836,5794.538-65.477Z" transform="translate(-5735.71 194.64)" fill="#c78c50"/>
      <path id="Path_1806" data-name="Path 1806" d="M5834.486-92.574c-15.483,17.932-27.765,38.6-31.9,62.228a148.338,148.338,0,0,0-1.31,41.166c-.01-.034-.023-.069-.034-.1-8.878-29.4-5.642-61.715,5.887-90.178,6.118-15.1,14.905-29.725,28.291-39.022,11.62-8.07,25.825-11.527,39.853-13.363.826-.109,1.656-.195,2.483-.292C5861.334-121.455,5846.414-106.388,5834.486-92.574Z" transform="translate(-5735.829 194.529)" fill="#fdd89b"/>
      <path id="Path_1807" data-name="Path 1807" d="M5831.443,25.005a122.228,122.228,0,0,1,73.778-156.319,122.423,122.423,0,0,1,17.061-4.741c1.769.349,3.539.7,5.285,1.117,36.1,8.657,69.649,32.185,84.593,66.082,12.7,28.812,10.73,63.654-5.143,90.911-9.462,16.249-23.358,29.594-38.7,40.5-14.953,10.633-31.651,19.217-49.634,22.874a99.68,99.68,0,0,1-40.586-.444A121.581,121.581,0,0,1,5831.443,25.005Z" transform="translate(-5736.307 194.596)" fill="#080b0a"/>
      <path id="Path_1808" data-name="Path 1808" d="M5879.032,88.612c10.362,2.313,17.47,3.968,18.435,7.757,0,0,29.7,13.1,62.065,3.924l-66.485-23.215Z" transform="translate(-5737.24 190.969)" fill="#080b0a"/>
      <g id="Group_1107" data-name="Group 1107" transform="translate(42.668 4.163)">
        <circle id="Ellipse_102" data-name="Ellipse 102" cx="119.126" cy="119.126" r="119.126" transform="translate(0 168.47) rotate(-45)" fill="#fdd89b"/>
        <path id="Path_1809" data-name="Path 1809" d="M5837.944-61.242c-11.323,37.432-4.733,80.362,19.381,111.112S5923.1,97.429,5961.5,89.621c17.982-3.657,34.681-12.241,49.634-22.874,15.34-10.907,29.235-24.252,38.7-40.5,15.874-27.257,17.846-62.1,5.143-90.911-14.942-33.9-48.494-57.425-84.592-66.082-37.327-8.952-80.293-1.976-107.224,25.394C5851.15-93.154,5842.892-77.6,5837.944-61.242Z" transform="translate(-5779.117 190.406)" fill="#c78c50"/>
        <path id="Path_1810" data-name="Path 1810" d="M5971.125-105.432a22.389,22.389,0,0,1,4.392,3.448c3.493,3.484,6.6,7.593,11.065,9.686,7.046,3.3,15.458.725,23.058,2.4A21.157,21.157,0,0,1,6023.7-79.067a21.157,21.157,0,0,1,.621,17.74c-4.776,11.151-14.726,18.479-9.665,31.988,4.246,11.336,16.2,21,12.664,34.363-2.368,8.944-11.513,14.167-20.091,17.637s-18.056,6.641-23.312,14.256c-3.246,4.7-4.412,10.5-6.873,15.659s-7.128,10.081-12.835,9.806c-6.15-.3-10.258-6.233-15.458-9.532-5.8-3.68-13.1-4.037-19.94-3.425s-13.658,2.084-20.512,1.64-14.042-3.231-17.59-9.112c-5.575-9.246-.012-17.155,1.458-26.225A28.051,28.051,0,0,0,5885.9-6.908c-3.3-3.783-7.577-6.583-11.129-10.132s-6.477-8.3-5.919-13.294c.692-6.194,6.314-10.5,11.555-13.875S5891.45-51.4,5892.9-57.459c1.264-5.275-1.189-10.659-1.7-16.06a22.9,22.9,0,0,1,9.2-20.3,22.9,22.9,0,0,1,22.161-2.364c3.576,1.568,6.7,4.048,10.3,5.562,11.828,4.974,15.176-6.067,21.849-12.82C5959.8-108.584,5965.807-108.571,5971.125-105.432Z" transform="translate(-5779.733 189.949)" fill="#fafafa"/>
        <path id="Path_1811" data-name="Path 1811" d="M5889.581-9.914a24.858,24.858,0,0,1,5.882,28.228c5.788-2.178,7.362-9.988,5.475-15.877s-6.128-10.7-8.917-16.219-3.838-12.849.32-17.425c2.457-2.7,6.187-3.829,9.077-6.06,5.768-4.454,7.3-12.508,7.215-19.794s-1.346-14.724.53-21.764,8.3-13.674,15.5-12.523a19.316,19.316,0,0,0-18.97-1.783,19.316,19.316,0,0,0-10.907,15.624c-.367,4.46.852,8.906.824,13.38a24.359,24.359,0,0,1-7.481,17.282c-3.029,2.88-6.753,4.922-9.952,7.614s-5.976,6.374-6.016,10.554c-.044,4.446,3.019,8.354,6.521,11.093S5886.256-12.866,5889.581-9.914Z" transform="translate(-5779.791 189.732)" fill="#c9d6e8"/>
        <path id="Path_1812" data-name="Path 1812" d="M6022.57-76.657c-.921-4.767-5.534-8.032-10.227-9.278s-9.64-.98-14.466-1.53a43.215,43.215,0,0,1-28-15.121c2.1,4.808,4.224,9.669,7.412,13.835s7.592,7.633,12.739,8.635c5.64,1.1,11.367-.831,17.063-1.589S6019.532-81.533,6022.57-76.657Z" transform="translate(-5781.453 189.864)" fill="#c9d6e8"/>
        <path id="Path_1813" data-name="Path 1813" d="M5976.165,48.324c-1.272,3.1-2.2,6.377-4.048,9.167s-4.909,5.09-8.25,4.875c-4.64-.3-7.538-4.93-10.987-8.05a20.009,20.009,0,0,0-19.766-3.906c2.437-3.169,7.076-3.811,10.962-2.875s7.335,3.12,11,4.726,7.907,2.626,11.615,1.13c5.361-2.163,7.443-8.441,10.318-13.457a33.863,33.863,0,0,1,27.2-16.678A43.763,43.763,0,0,0,5976.165,48.324Z" transform="translate(-5780.828 187.723)" fill="#c9d6e8"/>
      </g>
    </g>
  </g>
</svg>
